<?xml version="1.0" encoding="utf-8"?>
<!-- Generator: Adobe Illustrator 18.1.1, SVG Export Plug-In . SVG Version: 6.00 Build 0)  -->
<svg version="1.1" id="Warstwa_1" xmlns="http://www.w3.org/2000/svg" xmlns:xlink="http://www.w3.org/1999/xlink" x="0px" y="0px"
	 viewBox="0 0 1920 1080" enable-background="new 0 0 1920 1080" xml:space="preserve">
<g>
	<polygon fill-rule="evenodd" clip-rule="evenodd" fill="#E65757" points="1348.8,215.8 1360.2,216.1 1377.6,211 1361.1,221.5 	"/>
	<polygon fill-rule="evenodd" clip-rule="evenodd" fill="#E65757" points="1343.7,214.9 1332.6,212.5 1317,203.8 1330.8,217.6 	"/>
</g>
<polygon fill-rule="evenodd" clip-rule="evenodd" fill="#E67171" points="217.8,454.1 226.5,451.7 238.5,443.3 228.3,455.3 "/>
<polygon fill-rule="evenodd" clip-rule="evenodd" fill="#E67171" points="213.6,454.7 204.5,455.9 190.1,452.9 204.2,460.1 "/>
<g>
	<polygon fill-rule="evenodd" clip-rule="evenodd" fill="#FFFFFF" points="922.4,461.9 929.3,459.8 938.9,452.9 931.1,462.8 	"/>
	<polygon fill-rule="evenodd" clip-rule="evenodd" fill="#FFFFFF" points="919.1,462.5 911.5,463.4 900.1,461.6 911.5,467 	"/>
</g>
<path fill-rule="evenodd" clip-rule="evenodd" fill="#FFFFFF" d="M1598.1,450.8c0,0-4.2-4.2-9-4.5c-4.8,0-8.1,1.8-8.1,1.8
	s6.3-0.9,9.3,0C1593.3,448.7,1598.1,450.8,1598.1,450.8z"/>
<path fill-rule="evenodd" clip-rule="evenodd" fill="#FFFFFF" d="M1575.9,447.5c0,0-4.2-4.2-9-4.2c-4.8-0.3-8.1,1.8-8.1,1.8
	s6.3-0.9,9.3-0.3C1571.1,445.7,1575.9,447.5,1575.9,447.5z"/>
</svg>
