<?xml version="1.0" encoding="utf-8"?>
<!-- Generator: Adobe Illustrator 18.1.1, SVG Export Plug-In . SVG Version: 6.00 Build 0)  -->
<svg version="1.1" id="Warstwa_1" xmlns="http://www.w3.org/2000/svg" xmlns:xlink="http://www.w3.org/1999/xlink" x="0px" y="0px"
	 viewBox="0 0 1920 1080" enable-background="new 0 0 1920 1080" xml:space="preserve">
<g>
	<path fill-rule="evenodd" clip-rule="evenodd" fill="#242424" d="M893.8,134.3c0,0-8.4,10.3-10.8,24.7c-2.4,14.1-2.4,15.4-3.6,31.2
		s-1.2,18.3-1.2,33.1c0,15.1,0,24.4-3.6,36.6c-3.9,12.5-5.7-26-7.5-39.2c-1.8-12.8,3.6-22.8-1.2-42.1c-4.8-19.6-3-27-8.4-40.5
		C852.1,124.3,893.8,134.3,893.8,134.3z"/>
	<path fill-rule="evenodd" clip-rule="evenodd" fill="#242424" d="M1086.2,151.6c0,0-8.4,10.6-10.8,24.7
		c-2.4,14.5-2.4,15.7-3.6,31.5c-1.2,15.4-1.2,18-1.2,33.1s0,24.1-3.6,36.6c-3.9,12.2-5.7-26.3-7.5-39.2c-1.8-13.2,3.6-22.8-1.2-42.4
		s-3-26.7-8.4-40.5C1044.5,142,1086.2,151.6,1086.2,151.6z"/>
	<path fill-rule="evenodd" clip-rule="evenodd" fill="#242424" d="M485.1,106.6c0,0-15,18.3-19.2,43.4c-4.2,25.1-4.2,27.3-6.3,54.6
		s-2.1,32.1-2.1,58.1c0,26.3,0,42.1-6.3,63.9c-6.6,21.5-9.6-45.6-12.9-68.4s6.3-39.8-2.1-74.2c-8.4-34-5.4-46.6-15-70.3
		C411.6,89.6,485.1,106.6,485.1,106.6z"/>
	<path fill-rule="evenodd" clip-rule="evenodd" fill="#242424" d="M413.1,86.7c0,0-12.3,14.8-15.6,35.3c-3.6,20.6-3.6,22.2-5.4,44.6
		c-1.5,22.5-1.5,26-1.5,47.5c0,21.2,0,34.4-5.4,52c-5.1,17.7-7.8-37.3-10.5-55.9c-2.4-18.6,5.4-32.4-1.5-60.4
		c-7.2-27.9-4.5-38.2-12.3-57.8C353.1,72.6,413.1,86.7,413.1,86.7z"/>
	<path fill-rule="evenodd" clip-rule="evenodd" fill="#242424" d="M843.1,82.2c0,0-14.1,17-18,40.1c-3.9,23.4-3.9,25.7-6,51.1
		c-1.8,25.4-1.8,29.5-1.8,54s0,39.2-6,59.4c-6,20.2-9-42.4-12-63.6s6-37.3-1.8-69c-8.1-31.8-5.1-43.4-13.8-65.5
		C774.7,66.2,843.1,82.2,843.1,82.2z"/>
	<path fill-rule="evenodd" clip-rule="evenodd" fill="#242424" d="M770.8,62.7c0,0-12,14.8-15.6,35.3c-3.3,20.6-3.3,22.2-5.1,44.6
		c-1.8,22.5-1.8,26-1.8,47.5c0,21.2,0,34.4-5.1,52c-5.4,17.7-7.8-37.3-10.5-55.9c-2.7-18.6,5.1-32.4-1.8-60.4
		c-6.9-27.9-4.2-38.2-12-57.8C710.8,48.5,770.8,62.7,770.8,62.7z"/>
	<path fill-rule="evenodd" clip-rule="evenodd" fill="#242424" d="M2222.9,641.4c0,0,104.4-147.7-24.6-198.8
		c-98.1-38.9-176.4,57.8-305.5,50.4c-100.5-5.8-235.3-57.8-343.3-50.7c-115.5,7.7-139.5,29.2-254.5,27.9c-2.1-4.5-9-18.9-11.1-37.9
		c-2.7-22.5-2.7-24.7-3.9-49.5c-1.5-24.7-1.5-28.9-1.5-52.7c0-10.9,0-19.9-0.3-28.6c0.3-8.4,0.3-17.3,0.3-28.3
		c0-23.8,0-27.9,1.5-52.7c1.2-24.7,1.2-27,3.9-49.5c2.7-22.8,12-39.5,12-39.5s-45.9-15.4-39.9,6.4c6,21.5,3.9,33.1,9.3,63.9
		c5.1,30.8-0.6,46.6,1.2,67.1c0.9,7.4,1.5,20.2,2.4,32.4c-0.9,12.5-1.5,25.4-2.4,32.8c-1.8,20.6,3.9,36-1.2,67.1
		c-5.4,30.8-3.3,42.4-9.3,63.9c-0.9,2.6-0.9,4.5-0.3,6.4c-17.4,1.3-36.6,3.5-56.4,5.8c-2.1-6.4-4.5-14.5-5.4-23.8
		c-2.7-22.8-2.7-24.7-4.2-49.5c-1.2-24.7-1.2-28.9-1.2-52.7c0-11.2,0-20.2-0.3-28.6c0.3-8.4,0.3-17.3,0.3-28.6
		c0-23.4,0-27.6,1.2-52.3c1.5-25.1,1.5-27,4.2-49.8s12-39.2,12-39.2s-45.9-15.4-39.9,6.1c6,21.8,3.9,33.1,9.3,64.2
		c5.1,30.8-0.6,46.2,1.2,67.1c0.9,7.4,1.5,20.2,2.4,32.4c-0.9,12.2-1.5,25.1-2.4,32.8c-1.8,20.6,3.9,36-1.2,67.1
		c-5.1,28.3-3.6,40.1-8.1,58.8c-45.9,5.5-91.5,10.3-123.6,6.7c-60.9-7.1-167.4-33.1-232.3-38.9c-50.1-4.5-100.2,3.2-147,10.6
		c-3-9-6.3-20.6-7.8-33.4c-3.6-30.5-3.6-33.1-5.4-66.2c-1.8-33.4-1.8-38.9-1.8-70.7c0-14.5,0-26.7-0.3-37.9
		c0.3-11.2,0.3-23.4,0.3-38.2c0-31.5,0-37.3,1.8-70.3c1.8-33.1,1.8-36,5.4-66.2c3.6-30.5,15.9-52.3,15.9-52.3s-61.2-20.9-53.1,8
		c7.8,29.2,5.4,44.3,12.3,85.7c7.2,41.4-0.9,62,1.8,89.6c0.9,10,2.1,27.3,3,43.7c-0.9,16.4-2.1,33.4-3,43.7
		c-2.7,27.3,5.4,48.2-1.8,89.6c-6.6,39.2-4.5,54.9-11.1,80.9c-15.6,1.9-30.3,3.2-44.7,3.5c-87.3,1.3-181.6-30.2-253.3-7.4
		c-0.6-2.9-1.2-5.8-1.5-8.7c-2.7-22.8-2.7-24.7-3.9-49.5c-1.5-24.7-1.5-28.9-1.5-52.7c0-11.2,0-20.2-0.3-28.6
		c0.3-8.4,0.3-17.3,0.3-28.6c0-23.4,0-27.6,1.5-52.3c1.2-25.1,1.2-27,3.9-49.8c2.7-22.8,12-39.2,12-39.2s-45.9-15.4-39.9,6.1
		c6,21.8,3.9,33.1,9.3,64.2c5.4,30.8-0.6,46.2,1.2,67.1c0.9,7.4,1.5,20.2,2.4,32.4c-0.9,12.2-1.5,25.1-2.4,32.8
		c-1.8,20.6,4.2,36-1.2,67.1c-3.6,20.9-3.9,32.8-5.4,45.3c-62.4,8.7-324-18.2-391.3,13.3c-135.6,63.3-240,111.3-240,111.3
		s-116.2,137.3,126,144c595.7,16.7,2127.2-79.7,2141-79.7C1951.9,657.1,2222.9,641.4,2222.9,641.4z"/>
	<path fill-rule="evenodd" clip-rule="evenodd" fill="#242424" d="M1404.6,476.6c0,0-12-14.8-15.6-35c-3.3-20.6-3.3-22.5-5.1-44.6
		c-1.8-22.2-1.8-26-1.8-47.2c0-21.2,0-34.4-5.1-52c-5.4-17.3-7.8,37.3-10.5,55.9c-2.7,18.3,5.1,32.4-1.8,60.1
		c-6.9,27.9-4.2,37.9-12,57.5C1344.9,490.8,1404.6,476.6,1404.6,476.6z"/>
	<path fill-rule="evenodd" clip-rule="evenodd" fill="#242424" d="M1355.4,491.1c0,0-8.4-10-10.8-24.1c-2.4-14.1-2.4-15.4-3.6-30.5
		c-1.2-15.4-1.2-18-1.2-32.4c0-14.8,0-23.8-3.6-35.6c-3.6-12.2-5.4,25.4-7.2,38.2c-1.8,12.5,3.6,22.2-1.2,41.4
		c-4.8,18.9-3,26-8.1,39.5C1314.3,500.4,1355.4,491.1,1355.4,491.1z"/>
	<path fill-rule="evenodd" clip-rule="evenodd" fill="#242424" d="M1034.9,526.4c0,0-13.5-16.4-17.4-38.9c-3.9-22.8-3.9-24.7-6-49.5
		c-1.8-24.7-1.8-28.9-1.8-52.7c0-23.8,0-38.2-5.7-57.8c-6-19.6-8.7,41.1-11.7,62c-2.7,20.6,5.7,36-1.8,67.1
		c-7.8,30.8-4.8,42.1-13.5,63.6S1034.9,526.4,1034.9,526.4z"/>
	<path fill-rule="evenodd" clip-rule="evenodd" fill="#242424" d="M994.4,572.3c0,0-13.5-16.7-17.4-39.2c-3.9-22.8-3.9-25.1-6-49.5
		c-1.8-24.7-1.8-28.9-1.8-52.7c0-23.8,0-38.2-5.7-57.8c-6-19.6-8.7,41.4-11.7,62c-2.7,20.6,5.7,36.3-1.8,66.8
		c-7.8,31.2-4.8,42.4-13.5,63.9C927.8,587.7,994.4,572.3,994.4,572.3z"/>
	<path fill-rule="evenodd" clip-rule="evenodd" fill="#242424" d="M697.9,469.2c0,0-8.4-10.6-10.8-24.7c-2.4-14.5-2.4-15.7-3.6-31.5
		c-1.2-15.4-1.2-18-1.2-33.1c0-15.1,0-24.1-3.9-36.6c-3.6-12.2-5.4,26-7.2,39.2c-1.8,13.2,3.6,22.8-1.2,42.4
		c-4.8,19.6-3,26.7-8.4,40.5C655.9,478.9,697.9,469.2,697.9,469.2z"/>
	<path fill-rule="evenodd" clip-rule="evenodd" fill="#242424" d="M728.8,504.9c0,0-8.4-10-10.8-24.4c-2.4-14.1-2.4-15.4-3.6-31.2
		c-1.2-15.7-1.2-18.3-1.2-33.4c0-14.8,0-24.1-3.6-36.3c-3.9-12.5-5.7,26-7.5,39.2c-1.8,12.8,3.6,22.8-1.2,42.1
		c-4.8,19.6-3,27-8.4,40.1C687.1,514.8,728.8,504.9,728.8,504.9z"/>
	<path fill-rule="evenodd" clip-rule="evenodd" fill="#242424" d="M434.7,483.7c0,0-8.7-10.6-11.1-24.7c-2.4-14.5-2.4-15.7-3.6-31.5
		c-1.2-15.4-1.2-18-1.2-33.1s0-24.1-3.6-36.6c-3.6-12.2-5.4,26-7.2,39.2c-2.1,13.2,3.6,22.8-1.2,42.4c-5.1,19.6-3.3,26.7-8.7,40.5
		C392.7,493.3,434.7,483.7,434.7,483.7z"/>
	<path fill-rule="evenodd" clip-rule="evenodd" fill="#242424" d="M632.8,483.7c0,0-8.7-10.6-11.1-24.7c-2.4-14.5-2.4-15.7-3.6-31.5
		c-1.2-15.4-1.2-18-1.2-33.1s0-24.1-3.6-36.6c-3.6-12.2-5.4,26-7.2,39.2c-2.1,13.2,3.6,22.8-1.2,42.4c-5.1,19.6-3.3,26.7-8.7,40.5
		C590.8,493.3,632.8,483.7,632.8,483.7z"/>
</g>
</svg>
