<?xml version="1.0" encoding="utf-8"?>
<!-- Generator: Adobe Illustrator 18.1.1, SVG Export Plug-In . SVG Version: 6.00 Build 0)  -->
<svg version="1.1" id="Warstwa_1" xmlns="http://www.w3.org/2000/svg" xmlns:xlink="http://www.w3.org/1999/xlink" x="0px" y="0px"
	 viewBox="0 0 1920 1080" enable-background="new 0 0 1920 1080" xml:space="preserve">
<path opacity="0.2" fill-rule="evenodd" clip-rule="evenodd" fill="#FFFFFF" d="M1088.3,513.5c-8.4-0.9-29.7-6-25.5-36
	c1.8-10.5,12.6-21.6,2.1-41.7c-17.7-33.9-74.1-15.6-101.1-7.8c-21.6,6.3-49.8-5.7-52.5-29.4c-2.4-21,15.9-42.9,41.7-37.5
	c12.6,2.7,24.3,5.4,33.6,4.5c22.2-2.4,31.8-20.7,27.9-39.9c-6-28.8-31.8-40.2-62.4-26.1C921.2,314,927.8,281,927.8,281
	c-15,9.3-4.8,32.7,7.8,39c6.6,3.3,17.7,4.8,27.6,1.8c20.1-6,25.2,14.4,10.5,13.5c-6.6-0.6-12.6-1.2-19.2-1.8
	c-22.5-2.4-48.6-3-63.9,18c-10.8,14.7-15.9,31.8-15,48.6c1.8,41.1,39.9,69.3,80.1,59.4c19.5-4.8,33.9-18.9,54.9-23.1
	c23.7-4.5,35.1,3.3,39.3,15.9c2.4,7.5,0.6,16.5,1.8,26.1c1.8,16.8,5.1,28.8,18.9,34.2C1075.4,514.4,1088.3,513.5,1088.3,513.5z"/>
</svg>
