<?xml version="1.0" encoding="utf-8"?>
<!-- Generator: Adobe Illustrator 18.1.1, SVG Export Plug-In . SVG Version: 6.00 Build 0)  -->
<svg version="1.1" id="Warstwa_1" xmlns="http://www.w3.org/2000/svg" xmlns:xlink="http://www.w3.org/1999/xlink" x="0px" y="0px"
	 viewBox="0 0 1920 1080" enable-background="new 0 0 1920 1080" xml:space="preserve">
<path fill-rule="evenodd" clip-rule="evenodd" fill="#333333" d="M1876.3-87.5h-42.6h-48.3l19.5,227.8l4.5,71.7l5.4,223.3
	l-2.4,112.2l-3.6-159l-2.1-179.5l-6.3-73.2l-18.3-223.3H1569h-168.6H86H57.8H37.7l-186.8-8.2l-8.9,1271.5l186.8,8.2h20.1h28.2h25.2
	c8.4-49.2,32.6-166.6,51.2-227c7.8-24.9,29.7-51,27-114c-1.2-37.8-29.4-112.2-24.3-142.2c4.2-24,18.6,1.2,32.1-8.4
	c13.8-9.3,26.1-53.1,25.5-57.6c-2.1-19.8-75.6-64.2-71.1-108.3l-16.2-168.3V117.4l6.9,238.6l16.8,115.8
	c5.1-29.7,11.4-56.7,18.6-73.8c5.7-12.9,17.4-22.5,29.1-33.3l-6-51.6l22.5-141.6L197.6,314l6.9,41.7c4.5-5.4,15.6-16.5,18.6-23.1
	c21.6-47.4-3.6-51.9,9.3-77.4c0.9-2.1,2.4-5.1,4.5-8.7v-45.9v-171l4.8,140.7l4.2,59.4c11.4-16.8,31.5-42,42.9-40.2
	c20.4,3.6,31.5,66.6,55.5,49.8c15.6-11.1,29.4-17.1,41.4-19.2l-2.7-26.1l13.5-99l-9.9,102l10.8,22.2c35.1,0.9,58.8,33.9,89.1,61.8
	c11.1,10.2,18.9,34.2,30.9,46.5l-3.3-39.9l-7.5-62.4l12.3,72.6l2.1,30.3l8.1,6.6c2.4,0.6,4.8,0.6,7.5,0v-49.5l42.6-247.6l-39,248.2
	l0.3,45C586.3,299.9,616,168.1,642.1,157c17.1-7.5,33.9,26.1,65.4,27.6c18.6,0.9,46.8-30,71.1-31.5c13.2-0.9,17.7,46.5,31.5,40.8
	c23.1-9,56.1-73.5,81.3-78.6c22.5-4.5,48.3,59.1,72.9,79.2c24.3,20.1,47.4-3.3,73.8-2.1c1.2,0,2.4,0,3.9,0l-9.9-32.4l-2.7-124.8
	l5.1,123.3l15.3,32.1c2.1-0.3,16.2-1.8,18.6-2.1l0.6-32.7l-9.6-93.3l14.1,102l-1.5,23.1l18.3-3.3l4.2-19.2l2.7,18.6
	c21.6-3.9,58.5-9.9,74.1-9.6l5.4-31.8l-1.5-103.8l3.6,67.5l0.9,33.9v36.3c0.3,0.3,0.6,0.3,0.9,0.6c7.5,3,16.2-5.7,25.2-15l9.9-29.4
	l-4.5-114l10.2,129c3.6-2.4,7.2-3.6,10.2-2.7c23.7,7.8,45.9,48.3,66,51c12,1.8,23.4-34.8,33.9-31.2c26.4,8.4,37.5-30.6,50.7-4.8
	c9.6,18.3,12,69.6,18,107.1c1.2,6.6,2.4,13.2,3.6,18.6c9.3,36.6,26.1,42.6,34.2,53.1c6,7.5,21.9,19.2,27.6,37.2
	c6.3,20.1,2.4,46.8,14.4,55.2c7.8,5.7,18.6,3.3,30-0.3l-15.3-50.1l1.5-46.2l2.4,45.6l15,49.5c14.7-4.5,30-9.3,43.5-1.2l-6-27.3
	l-4.5-71.4l-9-140.1l11.7,138l3,71.1l12,31.8c1.5,0,3-0.3,4.5-0.3c9.6-0.3,21-1.5,31.5-0.6v-16.2l-4.5-53.1l8.1,53.1l0.6,16.8
	c10.2,1.8,18.9,6,23.4,16.2c8.1,17.7,30.3,62.1,35.4,93.3c6.3,40.2-4.5,68.7,5.7,88.8c9.6,18.6,29.4,8.7,30.9,19.2
	c5.1,36,21.9-3.9,33,4.8l3-57.6l-8.4-70.2L1674.7,284l16.8-216.7l-13.2,217l58.2,263.8l3.6,53.7l-0.3,55.8
	c13.2,21,32.1,45.9,40.2,74.7c6.9,24,10.2,64.2,15,94.8c2.4,13.8,0.3,79.2,3,92.1c11.1,56.1-58.1,251-50,276.8h75.6h42.6h201.7
	L2078-87.5H1876.3z M37.7,316.4L25.4,211.9l12.3-79.8L50,52L37.7,154.6l-6.6,54.9l6.6,89.7l3.3,45.3L37.7,316.4z M57.8,961.5
	l-5.4-38.7l-4.5-141.9l9.9,127.8l0.3,4.2l9.9,117.9L57.8,961.5z M86,840.6l-6.6-79.8l2.1-335.2L86,741.3l0.3,9.3l6.6,169.8L86,840.6
	z M1400.4,115l-6.6-22.5l6.6-43.2l3.9-24.3l-3.9,50.4l-1.2,15.9l1.2,6.9l6.9,39.3L1400.4,115z M1569,388.4l-3.6-7.5v-38.7l3.6,30.3
	l0.9,7.5l2.7,16.2L1569,388.4z M1837.3,910.2l-2.4-84.3l-1.2-23.1l-6.3-125.1l6.3,73.5l6.3,73.8L1837.3,910.2z M1876.3,682.5
	l-13.8-54.9l2.4-147.3l2.7,146.4l8.7,42.3l13.5,68.7L1876.3,682.5z"/>
</svg>
