<?xml version="1.0" encoding="utf-8"?>
<!-- Generator: Adobe Illustrator 18.1.1, SVG Export Plug-In . SVG Version: 6.00 Build 0)  -->
<svg version="1.1" id="Warstwa_1" xmlns="http://www.w3.org/2000/svg" xmlns:xlink="http://www.w3.org/1999/xlink" x="0px" y="0px"
	 viewBox="0 0 1920 1080" enable-background="new 0 0 1920 1080" xml:space="preserve">
<path fill-rule="evenodd" clip-rule="evenodd" fill="#333333" d="M-220.7,995.5c0,0-104.4-138.3,24.3-186.1
	c39.3-14.4,86.1,9.9,151.8,8.1c57.9-1.8,133.2-30.9,195.7-27.3c44.1,2.4,110.1,20.7,142.5,18.9c47.1-2.4,120-15.9,171.6-28.8
	c58.2-14.7,95.1-28.5,152.7-24.9c72.9,4.5,143.4,24.9,214.9,26.4c42.9,1.2,86.1-15.3,130.2-15.9c45.6-0.6,69.3,18.9,114.6,23.7
	c20.7,2.1,63.6-5.4,83.7-7.5c60.6-6.6,145.8-34.5,211-39.9c39.3-3.3,81,8.7,123.9,3.6c48.6-5.4,98.1-27.9,133.8-27.3
	c87.6,1.2,142.5,40.5,214.6,62.1c69.3,21,263.5-25.2,339.7,8.1c135.6,59.4,87.9,168.9,87.9,168.9s-2034.3,52.5-2053.8,52.5
	C199.4,1010.2-220.7,995.5-220.7,995.5z"/>
</svg>
