<?xml version="1.0" encoding="utf-8"?>
<!-- Generator: Adobe Illustrator 18.1.1, SVG Export Plug-In . SVG Version: 6.00 Build 0)  -->
<svg version="1.1" id="Warstwa_1" xmlns="http://www.w3.org/2000/svg" xmlns:xlink="http://www.w3.org/1999/xlink" x="0px" y="0px"
	 viewBox="0 0 1920 1080" enable-background="new 0 0 1920 1080" xml:space="preserve">
<path fill-rule="evenodd" clip-rule="evenodd" fill="#3D3D3D" d="M-296.6,1209.1c0,0-104.4-138,24.3-185.8
	c30.9-11.4,94.2-49.2,161.1-59.7c86.1-13.8,178.3,0.9,215.2-0.9c34.5-1.5,110.7,18.6,155.7,11.4c84.3-13.2,223.6-60.3,320.2-64.5
	c112.5-5.1,242.2,2.7,356.8,1.2c65.7-0.9,147.6,6,211.9-4.2c44.1-6.9,97.2-28.5,140.1-28.2c57.6,0.3,125.1,22.5,179.8,29.4
	c128.7,16.2,367-29.7,465.7-0.3c69.3,20.7,148.8,8.4,225.1,41.7c135.6,59.4,113.1,213.7,113.1,213.7s-2034.3,52.8-2053.8,52.8
	C199.4,1215.7-296.6,1209.1-296.6,1209.1z"/>
<path fill-rule="evenodd" clip-rule="evenodd" fill="#3D3D3D" d="M1690,906.6c0,0-13.2-15.3-17.1-36c-3.6-21-3.6-22.8-5.7-45.6
	c-1.8-22.8-1.8-26.7-1.8-48.3c0-21.9,0-35.1-5.7-53.4c-5.7-18-8.4,38.1-11.4,57c-2.7,18.9,5.7,33.3-1.8,61.8
	c-7.5,28.5-4.8,39-13.2,58.8C1624.5,920.7,1690,906.6,1690,906.6z"/>
<path fill-rule="evenodd" clip-rule="evenodd" fill="#3D3D3D" d="M1633.9,918c0,0-6.6-7.5-8.7-18c-1.8-10.5-1.8-11.4-2.7-22.8
	c-0.9-11.1-0.9-13.2-0.9-24c0-10.8,0-17.4-3-26.4c-2.7-9-4.2,18.9-5.7,28.2c-1.2,9.6,3,16.5-0.9,30.9c-3.6,14.1-2.4,19.5-6.6,29.4
	C1601.1,925.2,1633.9,918,1633.9,918z"/>
<path fill-rule="evenodd" clip-rule="evenodd" fill="#3D3D3D" d="M414.6,954c0,0-13.5-15-17.1-36c-3.9-21-3.9-22.8-5.7-45.6
	c-2.1-22.8-2.1-26.4-2.1-48.3c0-21.9,0-35.1-5.7-53.1c-5.7-18-8.4,37.8-11.4,57c-2.7,18.9,5.7,33-1.8,61.5
	c-7.5,28.5-4.8,39-13.2,58.8C348.9,968.5,414.6,954,414.6,954z"/>
<path fill-rule="evenodd" clip-rule="evenodd" fill="#3D3D3D" d="M358.2,965.4c0,0-6.6-7.5-8.4-17.7c-2.1-10.5-2.1-11.4-3-22.8
	c-0.9-11.4-0.9-13.2-0.9-24.3c0-10.8,0-17.4-2.7-26.4c-3-9-4.5,18.9-5.7,28.5c-1.5,9.3,2.7,16.5-0.9,30.6
	c-3.9,14.4-2.4,19.5-6.9,29.4C325.5,972.7,358.2,965.4,358.2,965.4z"/>
<path fill-rule="evenodd" clip-rule="evenodd" fill="#3D3D3D" d="M578.8,909.9c0,0-8.4-9.6-10.8-23.1c-2.4-13.2-2.4-14.4-3.6-29.1
	c-1.2-14.4-1.2-16.8-1.2-30.6c0-14.1,0-22.5-3.6-33.9c-3.6-11.7-5.4,24-7.2,36.3c-2.1,12,3.6,21-1.5,39.3c-4.8,18-3,24.6-8.4,37.5
	C537,918.9,578.8,909.9,578.8,909.9z"/>
<path fill-rule="evenodd" clip-rule="evenodd" fill="#3D3D3D" d="M255.6,976.9c0,0-9.6-10.8-12.3-26.1s-2.7-16.8-4.2-33.3
	c-1.5-16.5-1.5-19.2-1.5-35.1c0-15.9,0-25.8-3.9-38.7c-4.2-13.2-6.3,27.6-8.4,41.4c-2.1,13.8,4.2,24-1.5,45
	c-5.4,20.7-3.3,28.2-9.6,42.9C207.8,987.4,255.6,976.9,255.6,976.9z"/>
<path fill-rule="evenodd" clip-rule="evenodd" fill="#3D3D3D" d="M965.3,918.6c0,0-18.6-21-24-50.4c-5.1-29.1-5.1-31.5-7.8-63.3
	c-2.7-31.8-2.7-37.2-2.7-67.5c0-30.6,0-48.9-7.8-74.1c-8.1-25.2-12,52.8-15.9,79.2c-4.2,26.7,7.8,46.5-2.7,86.1
	c-10.5,39.6-6.6,54.3-18.6,82.2C873.7,938.4,965.3,918.6,965.3,918.6z"/>
</svg>
