<?xml version="1.0" encoding="utf-8"?>
<!-- Generator: Adobe Illustrator 18.1.1, SVG Export Plug-In . SVG Version: 6.00 Build 0)  -->
<svg version="1.1" id="Warstwa_1" xmlns="http://www.w3.org/2000/svg" xmlns:xlink="http://www.w3.org/1999/xlink" x="0px" y="0px"
	 viewBox="0 0 1920 1080" enable-background="new 0 0 1920 1080" xml:space="preserve">
<g id="krolik">
	<path fill-rule="evenodd" clip-rule="evenodd" fill="#FFFFFF" d="M1477.6,928.2l-35.1-2.1c-1.8,0-6-14.4-1.5-24
		c1.5-3,5.1-6.3,8.4-6.3c0.6,0-2.1-24.3-3.6-41.4c-1.8-20.7,7.8-16.8,9-2.4c1.8,17.4,2.1,42.9,2.1,42.9c-0.6,0,10.8,0.3,12.3,1.5
		c0,0,1.8-7.8,6.9-27.6c5.1-19.5,13.2-15.3,11.4-3.3c-2.1,12-12.9,33.9-12.3,33.9C1488.1,910.2,1477.6,928.2,1477.6,928.2z"/>
	<path fill-rule="evenodd" clip-rule="evenodd" d="M1450,908.4c1.2,0,2.1-0.9,2.1-1.8c0-1.2-0.9-2.1-2.1-2.1c-0.9,0-1.8,0.9-1.8,2.1
		C1448.2,907.5,1449.1,908.4,1450,908.4z"/>
	<path fill-rule="evenodd" clip-rule="evenodd" d="M1468.3,910.2c0.9,0,1.8-0.9,1.8-2.1c0-0.9-0.9-1.8-1.8-1.8
		c-1.2,0-2.1,0.9-2.1,1.8C1466.2,909.3,1467.1,910.2,1468.3,910.2z"/>
</g>
<path fill-rule="evenodd" clip-rule="evenodd" d="M1549.5,830.1c-57.9,6-114.9,1.5-171.6-11.1c-2.1-0.6-3.9,0.3-3.9,1.2l-0.3,5.1
	c0,0.9,1.5,1.5,3.6,1.8c14,3.3,28,6.1,42,8.4l-6,89.8c-1.2,18-0.9,16.5,17.4,20.1c18.6,3.9,38.1,5.1,58.5,3.3
	c15.3-1.5,13.8-1.5,14.7-16.2l0.9-12.6l5.1-78.4c13-0.4,25.9-1.4,39-2.9c2.1-0.3,3.9-0.6,3.9-1.2l0.3-5.4
	C1553.1,831,1551.6,830.1,1549.5,830.1z"/>
</svg>
