<?xml version="1.0" encoding="utf-8"?>
<!-- Generator: Adobe Illustrator 18.1.1, SVG Export Plug-In . SVG Version: 6.00 Build 0)  -->
<svg version="1.1" id="Warstwa_1" xmlns="http://www.w3.org/2000/svg" xmlns:xlink="http://www.w3.org/1999/xlink" x="0px" y="0px"
	 viewBox="0 0 1920 1080" enable-background="new 0 0 1920 1080" xml:space="preserve">
<path fill-rule="evenodd" clip-rule="evenodd" fill="#4C4C4C" d="M384.3,14.2c11.4-29.4,37.5-94.5,29.4-115.5
	c-6.6-17.1-75.9-25.8-75.9-25.8l-217.3,13.5l-50.1,3l-15,0.9l-61.8,3.6l-27.9,1.8l-120.9,7.5c0,0-32.7,538.4-36.6,668v27.6v0.3
	c3.3,8.1,65.1,32.1,106.5,47.1c6.9,133.2,21.6,318.7,51,371.2c4.8,8.4,9.9,13.5,15.6,14.1c4.2,0.6,8.4,0.9,12.3,0.9
	c23.1,0,39.6-9.3,51-20.1L20.3,817.5l11.1-433.9l-3.9,426.7l21.9,193.6c2.1-2.7,4.2-5.4,6-7.8c5.1-6.3,9.3-11.7,9.3-11.7l5.7-4.2
	l50.1-36.9l8.1-6.3c0,0,3-30.6,7.5-70.2l-15.6-19.5l-8.4-10.5L98,658.8l1.5-148.8l8.1,186.7l12,141l0.9,0.9l13.8,12.3
	c3.3-29.4,10.8-63.9,16.8-100.2c5.7-36.3,17.7-74.4,23.4-86.4l-6-20.1l-30-139.8V310.1l-1.2,0.9l16.2-247.6l-2.4,235.9l-2.7,2.4
	v104.7l15.3,73.5c-0.3-50.1,4.2-123.3,7.2-165.6c21-23.1,65.4-42.3,102.9-63c43.6-24.1,40.2-123.5,39.9-129.9l0-0.3c0,0,0,0.1,0,0.3
	l5.1,117.3c0,0,54.9-75,67.5-127.5C390.3,95.2,375.3,37,384.3,14.2z M-28.6,487.4v62.7l-5.7-44.7l-0.9-9l-4.5-45l5.4-30.3l5.7-30.3
	l-4.8,62.4L-28.6,487.4z M-6.4,261.5l-6.9,25.8l6.9-49.5l2.1-49.5l4.5,47.1L-6.4,261.5z M55.7,377.3l-0.3,2.1l-5.7,56.4v-63l5.7-27
	l5.7-27L55.7,377.3z M70.4,220.9l-11.1,43.2l11.1-71.4l2.7-17.7l-2.7-36.3L62,30.4l8.4,63l11.1,84.3L70.4,220.9z M120.5,398v42.3
	l-3.6-43.2l3.6-18l3.6-18L120.5,398z"/>
<g>
	<path fill="#595959" d="M1887.4-130.2c-16.8-0.9-33.9-1.8-51-2.7h-4.5c-10.8-0.6-21.3-1.2-32.1-1.8l-4.5-0.3
		c-12.6-0.6-24.9-1.5-36.9-2.1c-72-4-131-7.7-140-9.1c14.5,7.8,56.2,217.8,76.7,260.9l6.6-30.6l-4.8-117.6l17.4,125.1l-15.6,30.9
		c3.6,7.2,5.7,11.4,5.7,11.4s-16.5,40.2-33.9,87.6l21,90.3l-8.4,104.1l6-100.2c0,0-14.1-54.3-19.2-92.7
		c-19.5,53.4-39.3,114.9-38.1,138.6c2.4,45,30,135,30,135s26.1,17.4,45.6,42l-0.6-14.7l27.9-148.8l9.6-93.6l-5.1,90L1714,524.3
		l9.3,39.6c0.3,0.6,0.6,1.5,0.9,2.4c7.5,18.6,21.6,46.5,34.2,69.9c9.6,18,18.3,33.3,21.6,39.6l15.3-57l1.8-7.5l-1.8-74.4l-0.9-35.1
		l0.9-8.1l4.5-39l6.9-58.2l-6.9,78.9l-2.1,23.7l2.1,62.1l2.1,57.6l-2.1,5.4l-4.5,12.9l-14.4,40.2l0.9,1.5c0,0-5.1,50.1-5.1,105
		c0,34.2-5.7,85.5-18.3,136.8c-1.8,7.5-3.9,14.7-6,22.2l6,47.1l0.6,5.4l2.7,78.6l-3.3-42.9l-3-36l-7.5-36.9c-6,18.6,0.3,8.7-21,53.4
		c-21.6,44.4,5.7,85.8,5.7,85.8s9.9,1.8,25.8,4.2c10.2,1.5,22.8,3.3,36.9,5.4l1.8,0.3l-1.8-10.2l-6.9-38.4l3-99.6l3.9,80.7l0.6,15.9
		l1.5,51.6l2.4,0.3c10.2,1.5,21,3,32.1,4.5l4.5,0.3c16.8,2.4,34.2,4.5,51,6.3c55.8,6,106.2,9,109.5,0.3
		c7.5-19.8,54.9-402.7,54.9-402.7l7.5-837.5C2059.4-121.2,1979.5-125.1,1887.4-130.2z M1758.4,284.6l-4.5-25.8l3-99.6l1.5,32.4
		l3,64.2l1.5,54.3L1758.4,284.6z M1799.8,335.3l-4.5-73.5l-6.3-101.4l6.3-166.8l2.1-55.8L1795.3,88l-1.2,72.3l1.2,28.2l4.5,126.6
		l1.8,47.7L1799.8,335.3z M1799.8,892.2l-4.5-25.8l3-99.6l1.5,32.1l3,64.5l1.5,54.3L1799.8,892.2z M1828.3,632.7l1.2-44.1l2.4-51.9
		l1.2-25.8l2.4,80.1l-3.6,20.7L1828.3,632.7z M1836.4,999.7l-4.2-64.5l4.2-106.8l1.5-35.4l1.2,142.2l1.5,129.3L1836.4,999.7z
		 M1888.6,779.7l-1.2-12.9l-3.3-38.7v-47.4l3.3,23.7l3.3,23.7L1888.6,779.7z"/>
</g>
<g>
	<path fill="#FFFFB8" d="M711.1,927.9l8.1,11.4l13.2-4.2l-8.1,11.4l8.1,11.1l-13.2-4.2l-8.4,11.1v-13.8l-13.2-4.5l13.5-4.2V927.9
		L711.1,927.9z M715,933.6 M725.8,937.2 M728.5,940.8 M728.2,952.2 M725.8,955.5 M715,959.1 M710.8,957.6 M704.2,948.6 M704.2,944.1
		 M711.1,935.1"/>
	<path fill="#FFFFB8" d="M846.7,1006.6l4.8,6.9l8.1-2.4l-5.1,6.9l5.1,6.9l-8.1-2.7l-5.1,6.6l0.3-8.4l-8.1-2.7l8.1-2.4V1006.6
		L846.7,1006.6z M849.1,1010.2 M855.7,1012.3 M857.2,1014.4 M857.2,1021.3 M855.7,1023.4 M849.1,1025.5 M846.7,1024.6 M842.5,1019.2
		 M842.5,1016.5 M846.7,1011.1"/>
	<path fill="#FFFFB8" d="M736.3,1007.5l3.9,2.4l3.3-2.7l-1.2,4.2l3.9,2.4l-4.5,0.3l-1.2,4.2l-1.5-4.2l-4.5,0.3l3.6-2.7L736.3,1007.5
		L736.3,1007.5z M738.1,1008.7 M741.7,1008.4 M742.9,1009.3 M744.1,1012.6 M743.8,1013.8 M741.1,1016.2 M739.9,1016.2 M736.9,1014.4
		 M736.3,1012.9 M737.2,1009.6"/>
	<path fill="#FFFFB8" d="M941.6,996.4l3,1.8l2.7-2.1l-0.9,3.3l3.3,2.1l-3.9,0.3l-0.9,3.6l-1.2-3.6l-3.6,0.3l2.7-2.4L941.6,996.4
		L941.6,996.4z M943.1,997.3 M946.1,997 M947,997.6 M948.2,1000.6 M947.9,1001.5 M945.5,1003.6 M944.3,1003.6 M941.9,1002.1
		 M941.3,1000.9 M942.2,997.9"/>
	<path fill="#FFFFB8" d="M582.7,930l6,8.4l9.9-3.3l-6.3,8.4l6,8.4l-9.6-3.3l-6.3,8.4v-10.2l-9.6-3.3l9.6-3.3L582.7,930L582.7,930z
		 M585.7,934.2 M593.5,936.9 M595.3,939.3 M595.3,947.7 M593.5,950.4 M585.4,952.8 M582.4,951.9 M577.6,945 M577.6,942 M582.7,935.1
		"/>
	<path fill="#FFFFB8" d="M574.3,997.6l5.1,6.9l8.1-2.4l-5.1,6.9l5.1,6.9l-8.1-2.7l-5.1,6.6v-8.4l-8.1-2.7l8.1-2.4V997.6L574.3,997.6
		z M577,1001.2 M583.3,1003.3 M584.8,1005.4 M584.8,1012.3 M583.3,1014.4 M576.7,1016.5 M574.3,1015.6 M570.4,1010.2 M570.4,1007.5
		 M574.3,1002.1"/>
	<path fill="#FFFFB8" d="M505.8,1031.8l3.6,4.8l5.7-1.8l-3.6,4.8l3.3,4.8l-5.7-1.8l-3.3,4.8v-6l-5.7-1.8l5.7-1.8V1031.8
		L505.8,1031.8z M507.6,1034.2 M512.1,1035.7 M513.3,1037.2 M513.3,1042 M512.1,1043.5 M507.6,1045 M505.8,1044.4 M502.8,1040.5
		 M502.8,1038.7 M505.8,1034.8"/>
	<path fill="#FFFFB8" d="M351.6,985.3l5.1,6.9l8.1-2.7l-5.1,6.9l5.1,6.9l-8.1-2.7l-5.1,6.9v-8.4l-8.1-2.7l8.1-2.7V985.3L351.6,985.3
		z M354.3,988.6 M360.6,990.7 M362.4,992.8 M362.1,999.7 M360.6,1001.8 M354.3,1003.9 M351.6,1003.3 M347.7,997.6 M347.7,994.9
		 M351.6,989.5"/>
</g>
</svg>
