<svg width="13431px" height="397px" viewBox="0 0 13431 397" version="1.1" xmlns="http://www.w3.org/2000/svg" xmlns:xlink="http://www.w3.org/1999/xlink" xmlns:sketch="http://www.bohemiancoding.com/sketch/ns">
    <g id="Page-1" stroke="none" stroke-width="1" fill="none" fill-rule="evenodd" sketch:type="MSPage">
        <g sketch:type="MSLayerGroup" transform="translate(-1.000000, 0.000000)" id="bg">
            <g sketch:type="MSShapeGroup">
                <g id="_background-4" style="transform: translateX({{$parent.state * -150}}px); -webkit-transform: translateX({{$parent.state * -150}}px)">
                	<gtransform="translate(1.000000, 0.000000)" fill="#FCF5F5">
                	    <path d="M166.818182,113.762462 C214.090909,116.035189 240.909091,152.853371 288.181818,183.762462 C289.545455,184.671553 299.090909,191.94428 300.454546,192.853371 C350.454546,222.398825 421.363637,243.762462 551.363637,218.762462 C684.090909,193.762462 678.181818,59.2170074 819.090909,201.035189 C867.272728,250.126098 912.727273,299.217007 976.363637,296.94428 C1051.81818,293.762462 1089.54545,106.035189 1202.27272,88.7624619 C1365.90909,63.7624619 1548.18182,253.762462 1711.36363,245.126098 C1850.90909,238.307916 2061.81818,61.4897346 2213.18182,51.9442801 C2355.45454,43.3079165 2521.81818,235.126098 2658.18182,231.94428 C2784.54545,229.671553 2888.63636,86.9442801 3047.72727,76.0351892 C3226.36363,63.7624619 3411.36363,277.853371 3470,287.853371 C3613.63636,311.94428 3617.72727,79.2170074 3787.27272,74.2170074 C3984.09091,68.7624619 3971.81818,126.489735 4162.72727,30.5806437 C4302.72727,-39.4193563 4369.09091,26.4897346 4424.54545,71.9442801 C4504.54545,137.398825 4536.36363,106.94428 4600.45454,43.3079165 C4619.54545,24.6715528 4640,10.5806437 4660.90909,9.67155283 C4731.81818,7.39882555 4865,196.489735 4937.27272,193.307916 C5018.18182,190.126098 5081.36363,187.853371 5133.63636,155.126098 C5174.09091,129.217007 5204.54545,75.5806437 5257.72727,52.3988256 C5308.63636,30.5806437 5338.18182,29.2170074 5368.18182,72.3988256 C5369.09091,73.7624619 5375.45454,83.3079165 5376.36363,85.1260983 C5382.27272,95.1260983 5388.18182,107.398825 5394.09091,121.035189 C5418.18182,176.489735 5449.09091,236.94428 5519.09091,224.671553 C5536.36363,221.489735 5548.63636,193.307916 5572.72727,173.307916 C5601.36363,150.126098 5630.90909,143.762462 5658.18182,171.94428 C5687.72727,202.398825 5724.54545,259.217007 5774.54545,257.853371 C5916.81818,254.671553 5927.27272,100.580644 6000.90909,97.3988256 C6061.81818,95.1260983 6113.63636,270.126098 6215.45454,264.671553 C6378.63636,256.94428 6545.45454,212.398825 6684.09091,169.671553 C6756.36363,147.853371 6814.09091,109.671553 6874.09091,113.762462 C6886.81818,114.217007 6897.27272,117.398825 6908.18182,121.94428 L6940.45454,141.94428 C6957.72727,154.671553 6975,170.126098 6996.36363,184.671553 C6997.72727,185.580644 7005,191.489735 7006.81818,192.398825 C7056.81818,222.398825 7127.72727,244.217007 7258.63636,219.217007 C7391.36363,194.217007 7385.45454,59.6715528 7526.36363,201.489735 C7574.54545,250.580644 7620,299.671553 7683.63636,297.398825 C7759.09091,294.217007 7796.81818,106.489735 7909.54545,89.2170074 C8073.18182,64.2170074 8255.45454,254.217007 8418.63636,245.580644 C8472.72727,242.398825 8538.18182,214.671553 8605.90909,180.580644 C8607.27272,180.126098 8615.45454,177.398825 8616.81818,176.489735 C8636.36363,166.94428 8655.90909,156.035189 8675.45454,146.035189 C8676.81818,145.126098 8686.36363,141.489735 8688.63636,140.126098 C8770,97.853371 8851.81818,58.7624619 8920.90909,54.2170074 C8960.45454,51.9442801 9314.54545,235.126098 9365,233.307916 C9454.54545,231.94428 9533.18182,159.671553 9627.27272,113.762462 C9628.63636,113.307916 9635.45454,109.217007 9637.27272,108.762462 C9673.63636,91.9442801 9712.72727,79.2170074 9755.90909,76.4897346 C9770.45454,75.5806437 9785,76.4897346 9799.09091,77.853371 C9800.45454,77.853371 9808.63636,79.6715528 9810.45454,79.6715528 C9970.45454,106.035189 10124.5455,280.126098 10177.7273,288.307916 C10310.4546,310.580644 10323.6364,111.489735 10460.9091,79.2170074 C10462.7273,78.7624619 10486.3637,79.6715528 10486.3637,79.6715528 L10494.0909,79.6715528 C10605.9091,76.4897346 10650.4546,93.7624619 10702.2728,91.9442801 L10702.2728,91.9442801 L10703.6364,91.9442801 L10703.6364,92.853371 C10705,92.853371 10706.3637,92.853371 10707.7273,92.3988256 L10707.7273,92.3988256 C10745.9091,90.1260983 10790.4546,76.4897346 10868.1818,37.3988256 C10873.1818,35.1260983 10878.1818,32.3988256 10882.7273,30.5806437 C10884.0909,30.1260983 10892.7273,26.9442801 10894.0909,26.0351892 C10925,13.3079165 10951.8182,8.30791646 10975.4546,7.85337101 C10976.8182,7.85337101 10984.0909,6.9442801 10985.4546,6.9442801 C11004.0909,7.39882555 11021.3637,11.0351892 11036.8182,16.9442801 C11038.6364,17.853371 11047.7273,21.4897346 11049.0909,21.9442801 C11081.8182,36.9442801 11107.7273,59.6715528 11131.8182,79.2170074 C11144.0909,88.7624619 11155,96.4897346 11165,102.398825 C11166.3637,103.307916 11182.7273,109.671553 11184.0909,110.126098 C11231.8182,128.307916 11261.3637,99.2170074 11310,50.5806437 C11329.0909,31.9442801 11349.5455,17.853371 11370.4546,16.9442801 C11441.3637,14.6715528 11574.5455,203.762462 11646.8182,200.580644 C11727.7273,197.398825 11790.9091,195.126098 11843.1818,162.398825 C11883.6364,136.489735 11914.0909,114.671553 11967.2728,92.3988256 C12016.3637,71.0351892 12045.9091,69.2170074 12075,108.307916 C12076.8182,111.035189 12086.3637,124.671553 12087.2728,126.94428 C12092.7273,136.489735 12098.1818,148.307916 12104.0909,161.035189 C12128.1818,216.489735 12159.0909,245.126098 12229.0909,232.853371 C12246.3637,229.671553 12258.6364,201.489735 12282.7273,181.489735 C12297.7273,169.217007 12337.2728,149.217007 12368.6364,180.126098 C12398.6364,209.217007 12435,267.398825 12485,265.580644 C12546.3637,264.217007 12583.1818,234.217007 12611.8182,201.035189 C12612.2728,200.126098 12613.6364,198.762462 12613.6364,198.762462 C12613.6364,198.762462 12620,191.035189 12620.4546,190.126098 C12639.0909,166.489735 12653.6364,141.94428 12670.4546,125.126098 C12672.7273,122.398825 12683.1818,115.126098 12685,114.217007 C12704.0909,101.94428 12719.0909,105.126098 12721.3637,105.580644 C12778.1818,121.489735 12829.5455,276.94428 12925.4546,271.94428 C13146.8182,261.035189 13090.4546,195.580644 13260.4546,193.307916 C13308.1818,192.398825 13387.7273,221.94428 13430.9091,278.307916 L13430.9091,369.671553 L6867.27272,383.307916 L6600,383.307916 L0,383.307916 L4.54545455,176.035189 C49.5454545,174.671553 107.727273,110.580644 166.818182,113.762462 L166.818182,113.762462 L166.818182,113.762462 Z"></path>
                	</g>
                </g>
                <g id="_background-3" style="transform: translateX({{$parent.state * -300}}px); -webkit-transform: translateX({{$parent.state * -300}}px)">
                	<g transform="translate(1.000000, 241.000000)" fill="#FFEEEE">
                	    <path d="M161.363637,52.9082359 C208.181819,53.8173269 235,71.0900539 281.818181,85.6355089 C283.181819,86.0900539 292.272728,89.2718729 294.09091,89.7264179 C343.636364,103.817327 414.09091,113.362782 543.181818,101.999145 C675.454545,90.1809639 669.090909,27.4536909 809.090909,93.8173269 C856.818182,116.999145 902.272728,139.726418 965.454545,138.817327 C1040.45454,137.453691 1078.18181,49.2718729 1190,41.5445999 C1352.72727,29.7264179 1533.63636,118.817327 1695.90909,114.726418 C1834.54545,111.5446 2044.54545,28.8173269 2194.54545,24.2718729 C2335.90909,20.1809639 2501.36363,110.180964 2636.36363,108.362782 C2761.81818,107.453691 2865.45454,40.6355089 3023.63636,35.6355089 C3200.90909,29.7264179 3385,130.180964 3443.63636,134.726418 C3586.36363,146.090054 3590.45454,36.9991449 3759.0909,34.7264179 C3954.54545,31.9991449 3942.72727,59.2718729 4132.27272,14.2718729 C4271.36363,-18.4554001 4337.72727,12.4536909 4392.72727,33.8173269 C4472.27272,64.2718729 4504.0909,50.1809639 4567.27272,20.1809639 C4586.36363,11.5445999 4606.81818,4.72641788 4627.72727,4.72641788 C4698.18181,3.81732688 4830.45454,92.4536909 4902.27272,90.6355089 C4982.72727,89.2718729 5045.45454,87.9082359 5097.27272,72.9082359 C5137.72727,61.0900539 5167.72727,35.6355089 5220.45454,24.7264179 C5270.90909,14.2718729 5300.45454,13.8173269 5330.45454,34.2718729 C5331.36363,34.7264179 5337.72727,39.2718729 5338.63636,40.1809639 C5344.54545,44.7264179 5350,50.6355089 5356.36363,56.9991449 C5380.45454,82.9082359 5410.90909,111.5446 5480.45454,105.635509 C5497.72727,104.271873 5509.54545,91.0900539 5533.63636,81.5445999 C5561.81818,70.6355089 5591.36363,67.9082359 5618.63636,80.6355089 C5647.72727,94.7264179 5684.54545,121.5446 5734.54545,120.635509 C5875.90909,119.271873 5886.36363,46.9991449 5959.54545,45.6355089 C6020.45454,44.7264179 6071.81818,126.5446 6172.72727,123.817327 C6335,120.180964 6500.90909,99.2718729 6638.18181,79.2718729 C6710,69.2718729 6767.27272,51.0900539 6827.27272,52.9082359 C6840,53.3627819 6850.45454,54.7264179 6860.90909,56.9991449 L6892.72727,66.0900539 C6910,71.9991449 6926.81818,79.2718729 6948.18181,86.0900539 C6949.54545,86.5445999 6956.81818,89.2718729 6958.18181,89.7264179 C7007.72727,103.817327 7078.18181,113.817327 7208.18181,101.999145 C7340.45454,90.1809639 7334.0909,27.4536909 7474.0909,93.8173269 C7521.81818,116.999145 7567.27272,139.726418 7630.45454,138.817327 C7705.45454,137.453691 7743.18181,49.2718729 7855,41.5445999 C8017.72727,29.7264179 8198.63636,118.817327 8360.90909,114.726418 C8414.54545,113.362782 8479.54545,100.180964 8547.27272,84.2718729 C8548.63636,83.8173269 8556.36363,82.9082359 8557.72727,82.4536909 C8577.27272,77.9082359 8596.81818,72.9082359 8615.90909,67.9082359 C8617.27272,67.4536909 8626.36363,65.6355089 8629.0909,65.1809639 C8710,45.6355089 8791.36363,26.9991449 8860,25.1809639 C8899.54545,24.2718729 9250.90909,109.726418 9301.36363,108.817327 C9390.45454,107.908236 9468.63636,74.2718729 9562.27272,52.9082359 C9563.63636,52.4536909 9570.45454,50.6355089 9571.81818,50.6355089 C9608.18181,42.4536909 9646.81818,36.9991449 9689.54545,35.6355089 C9704.0909,35.1809639 9718.18181,35.6355089 9732.72727,36.0900539 C9734.0909,36.0900539 9741.81818,36.9991449 9743.63636,36.9991449 C9902.72727,49.2718729 10055.9091,130.635509 10108.6364,134.726418 C10240.9091,145.180964 10253.6364,51.9991449 10390,36.9991449 L10415.4546,36.9991449 L10423.1819,36.9991449 C10534.5455,35.6355089 10578.1819,43.3627819 10630.4546,42.9082359 L10630.4546,42.9082359 L10631.8182,42.9082359 L10631.8182,43.3627819 L10635.9091,43.3627819 C10674.091,42.4536909 10717.7273,35.6355089 10795.4546,17.4536909 C10800.4546,16.5445999 10805,15.1809639 10810,14.2718729 C10811.3637,13.8173269 10819.5455,12.4536909 10820.9091,12.4536909 C10851.3637,6.54459988 10878.1819,4.27187288 10901.8182,3.81732688 C10903.1819,3.81732688 10910.4546,3.36278188 10911.3637,3.36278188 C10930,3.36278188 10946.8182,5.18096388 10962.2728,7.90823588 C10964.091,8.36278188 10972.7273,10.1809639 10974.5455,10.1809639 C11006.8182,16.9991449 11032.7273,27.9082359 11056.3637,36.9991449 C11068.6364,41.5445999 11079.5455,45.1809639 11089.091,47.9082359 C11090.4546,48.3627819 11106.8182,51.5445999 11108.1819,51.5445999 C11155.4546,60.1809639 11185,46.5445999 11233.1819,23.8173269 C11252.2728,15.1809639 11272.7273,8.36278188 11293.6364,8.36278188 C11364.091,7.45369088 11496.3637,96.0900539 11568.1819,94.2718729 C11648.6364,92.9082359 11711.3637,91.5445999 11763.1819,76.5445999 C11803.6364,64.7264179 11833.6364,54.2718729 11886.3637,43.8173269 C11935,33.8173269 11964.5455,32.9082359 11993.1819,51.5445999 C11995,52.9082359 12004.091,59.2718729 12005.4546,60.1809639 C12010.9091,64.7264179 12015.9091,70.1809639 12022.2728,76.0900539 C12046.3637,101.999145 12076.8182,115.635509 12146.3637,109.726418 C12163.6364,108.362782 12175.4546,95.1809639 12199.5455,85.6355089 C12214.5455,79.7264179 12253.6364,70.6355089 12285,84.7264179 C12314.5455,98.3627819 12350.9091,125.635509 12400.9091,124.726418 C12462.2728,123.817327 12498.6364,110.180964 12526.8182,94.2718729 C12527.2728,93.8173269 12528.6364,93.3627819 12528.6364,93.3627819 C12528.6364,93.3627819 12535,89.7264179 12535.4546,89.2718729 C12554.091,78.3627819 12568.1819,66.9991449 12585,58.8173269 C12587.2728,57.4536909 12597.7273,54.2718729 12599.5455,53.8173269 C12618.6364,47.9082359 12633.1819,49.2718729 12635.9091,49.7264179 C12692.2728,56.9991449 12743.1819,130.180964 12838.6364,127.453691 C13058.6364,122.453691 13002.7273,91.5445999 13171.8182,90.6355089 C13219.091,90.1809639 13298.1819,104.271873 13341.3637,130.180964 L13341.3637,153.817327 L6678.63636,153.817327 L6669.54545,153.817327 L0,153.817327 L0,82.4536909 C44.5454545,81.0900539 102.727272,51.5445999 161.363637,52.9082359 L161.363637,52.9082359 L161.363637,52.9082359 Z"></path>
                	</g>
                </g>
                <g id="_background-2" style="transform: translateX({{$parent.state * -450}}px); -webkit-transform: translateX({{$parent.state * -450}}px)">
                	<g transform="translate(1.000000, 92.000000)" fill="#FFE8E8">
                	    <path d="M13170.4546,179.09091 C13122.2728,180.454546 13095,203.181819 13045.4546,221.818181 C13045,210.90909 13044.5455,170 13045,167.272728 C13045,167.272728 13045.9091,167.272728 13049.5455,164.545455 C13054.0909,161.818182 13055.4546,156.363636 13056.3637,152.727272 C13058.1819,147.272728 13058.6364,142.727272 13056.8182,136.363637 C13054.5455,127.272728 13045.9091,124.09091 13040.4546,125 C13034.0909,126.363637 13030.4546,134.09091 13029.5455,142.727272 C13028.6364,147.727272 13030.9091,152.727272 13034.0909,160 C13037.2728,167.272728 13042.2728,168.181819 13042.2728,168.181819 L13042.2728,221.363636 L13042.2728,223.636364 C12992.7273,241.818181 12921.8182,255.454545 12788.6364,240.454545 C12656.8182,225.90909 12662.7273,147.272728 12522.7273,230 C12475,258.636364 12429.5455,287.272728 12366.8182,285.90909 C12291.8182,284.09091 12254.5455,174.545454 12142.2728,164.545455 C11980,150 11798.6364,260.90909 11636.8182,255.90909 C11498.6364,251.818181 11288.6364,148.636364 11138.6364,143.181818 C10997.2728,138.181818 10832.2728,250 10697.2728,248.181819 C10571.8182,246.818181 10468.6364,163.636364 10310.4546,157.272728 C10133.1819,150 9949.54546,275 9890.90909,280.90909 C9748.18181,295 9744.09091,159.09091 9575.90909,156.363636 C9380.45454,153.181818 9392.72727,186.818181 9203.18181,130.909091 C9064.54545,89.9999995 8998.18181,128.636364 8943.18181,155 C8863.63636,193.181819 8832.27272,175.454545 8768.63636,138.181818 C8749.54545,127.272728 8729.09091,119.09091 8708.63636,118.636364 C8638.18181,117.272728 8505.90909,227.727273 8434.09091,225.90909 C8353.63636,224.09091 8290.90909,222.727272 8239.09091,203.636364 C8198.63636,188.636364 8168.63636,157.272728 8115.90909,143.636364 C8064.09091,130.454545 8034.09091,130 8003.63636,157.727272 C8003.18181,155 8002.72727,148.181818 8003.18181,145.909091 C8003.18181,145.909091 8004.09091,145.909091 8007.72727,143.636364 C8011.36363,141.363637 8012.27272,136.818182 8013.63636,133.636364 C8015,129.09091 8015,125.454545 8013.63636,120 C8011.81818,112.727272 8005,109.545455 8000,110.454546 C7994.54545,111.818182 7991.81818,118.181818 7990.90909,125 C7990.45454,129.09091 7992.27272,133.181818 7994.54545,139.09091 C7997.27272,145 8001.36363,145.909091 8001.36363,145.909091 L8001.36363,154.545455 C8001.36363,156.818182 8000.90909,158.636364 8000.45454,160 C7993.63636,166.363636 7986.81818,174.545454 7980,183.636364 C7955.90909,215.90909 7925.45454,251.363636 7855.90909,244.09091 C7838.63636,242.272728 7826.81818,225.90909 7802.72727,214.09091 C7774.54545,200.454545 7745,196.818182 7718.18181,213.181819 C7689.09091,230.909091 7652.27272,264.09091 7602.27272,263.181819 C7460.90909,261.363636 7450.45454,171.363636 7377.27272,169.545455 C7316.81818,168.181819 7265.45454,270.454545 7164.54545,267.272728 C7002.72727,262.727273 6836.81818,236.818181 6699.54545,211.818181 C6627.72727,199.09091 6570.45454,176.818181 6510.90909,179.09091 C6462.72727,180.454546 6435.45454,203.181819 6385.90909,221.818181 C6385.45454,210.90909 6385,170 6385.45454,167.272728 C6385.45454,167.272728 6386.36363,167.272728 6390,164.545455 C6394.54545,161.818182 6395.90909,156.363636 6396.81818,152.727272 C6398.63636,147.272728 6399.09091,142.727272 6397.27272,136.363637 C6395,127.272728 6386.36363,124.09091 6380.90909,125 C6374.54545,126.363637 6370.90909,134.09091 6370,142.727272 C6369.09091,147.727272 6371.36363,152.727272 6374.54545,160 C6377.72727,167.272728 6382.72727,168.181819 6382.72727,168.181819 L6382.72727,221.363636 L6382.72727,223.636364 C6333.18181,241.818181 6262.27272,255.454545 6129.09091,240.454545 C5997.27272,225.90909 6003.18181,147.272728 5863.18181,230 C5815.45454,258.636364 5770,287.272728 5707.27272,285.90909 C5632.27272,284.09091 5595,174.545454 5482.72727,164.545455 C5320.45454,150 5139.09091,260.90909 4977.27272,255.90909 C4922.72727,254.09091 4856.36363,237.272728 4787.27272,216.818181 C4786.81818,214.545455 4786.36363,179.545455 4786.81818,177.727273 C4786.81818,177.727273 4787.27272,177.727273 4790,175.90909 C4793.18181,174.09091 4794.09091,170.454546 4795,167.727273 C4796.36363,164.09091 4796.36363,160.909091 4795,156.363636 C4793.18181,150 4787.72727,147.727272 4783.63636,148.636364 C4779.09091,149.545455 4776.81818,155 4775.90909,160.909091 C4775.45454,164.09091 4776.81818,167.727273 4779.09091,172.727273 C4781.36363,177.727273 4784.54545,178.181819 4784.54545,178.181819 L4784.54545,215 L4784.54545,216.818181 C4762.27272,210.454545 4740,203.181819 4717.27272,196.363636 C4717.27272,190 4716.81818,171.818181 4717.27272,170.454546 C4717.27272,170.454546 4717.72727,170.454546 4719.54545,169.09091 C4721.81818,167.727273 4722.27272,165 4722.72727,163.181818 C4723.63636,160.454545 4723.63636,158.181818 4722.72727,155 C4721.36363,150.454545 4717.27272,149.09091 4715,149.545455 C4711.81818,150.454545 4710.45454,154.09091 4709.54545,158.181818 C4709.09091,160.454545 4710.45454,163.181818 4711.81818,166.818181 C4713.18181,170 4715.90909,170.90909 4715.90909,170.90909 L4715.90909,196.363636 C4632.72727,170.90909 4548.63636,146.818182 4478.63636,144.09091 C4436.81818,142.727272 4393.18181,151.363637 4348.63636,164.545455 C4348.63636,154.09091 4348.18181,135 4348.63636,133.636364 C4348.63636,133.636364 4349.09091,133.636364 4351.81818,131.818182 C4354.54545,130 4355.45454,126.363637 4356.36363,124.09091 C4357.72727,120.454545 4357.72727,117.727272 4356.36363,113.181818 C4355,107.272728 4349.09091,104.545455 4345.90909,105.454546 C4341.81818,106.363636 4339.54545,111.363636 4338.63636,117.272728 C4338.18181,120.454545 4339.54545,124.09091 4341.81818,128.636364 C4343.63636,133.181818 4347.27272,134.09091 4347.27272,134.09091 L4347.27272,165.454545 C4322.72727,172.727273 4298.18181,181.363636 4273.18181,190 C4273.18181,187.272728 4272.72727,184.545454 4273.18181,182.727273 C4273.18181,182.727273 4274.09091,182.727273 4277.27272,180.454546 C4280.45454,178.181819 4281.81818,174.545454 4282.72727,171.363636 C4284.09091,167.272728 4284.09091,164.09091 4282.72727,159.09091 C4280.90909,152.272728 4274.54545,149.545455 4270.45454,150.454545 C4265.45454,151.363637 4263.18181,157.272728 4262.27272,163.636364 C4261.81818,167.272728 4263.18181,171.363636 4265.45454,176.363636 C4267.72727,181.818181 4271.81818,182.272728 4271.81818,182.272728 L4271.81818,189.545455 C4247.72727,198.181819 4223.18181,206.818182 4199.54545,215 L4199.54545,212.272728 C4199.54545,212.272728 4200.90909,212.272728 4204.54545,209.545455 C4208.63636,206.818182 4210,201.818181 4211.36363,198.181819 C4213.18181,192.727273 4213.63636,188.636364 4211.81818,182.272728 C4209.54545,173.636364 4201.36363,170.454546 4195.90909,171.363636 C4189.54545,172.727273 4186.81818,180 4185.45454,188.181819 C4184.54545,193.181819 4186.81818,197.727273 4190,204.545455 C4193.18181,211.363636 4197.72727,212.272728 4197.72727,212.272728 L4197.72727,215.454545 C4142.27272,234.545455 4087.72727,249.545455 4037.27272,248.636364 C3946.81818,247.727273 3868.18181,204.545455 3773.18181,177.727273 L3773.18181,176.818181 C3773.18181,175 3772.72727,170.90909 3772.72727,169.09091 C3772.72727,169.09091 3773.63636,169.09091 3775.45454,167.727273 C3777.72727,166.363636 3778.63636,163.181818 3779.09091,161.363637 C3780,158.636364 3780,156.363636 3779.09091,152.727272 C3777.72727,148.181818 3773.18181,146.363637 3770.45454,146.818182 C3767.27272,147.727272 3765.45454,151.363637 3764.54545,155.909091 C3764.09091,158.636364 3765.45454,161.363637 3766.81818,165 C3768.63636,168.636364 3771.36363,169.09091 3771.36363,169.09091 L3771.36363,174.545454 C3771.36363,175.454545 3771.36363,176.363636 3770.90909,176.818181 C3734.09091,166.363636 3693.63636,158.636364 3649.54545,156.818182 C3633.63636,156.363636 3618.18181,156.818182 3602.27272,157.727272 C3601.81818,153.636364 3601.36363,122.272728 3601.81818,120.454545 C3601.81818,120.454545 3602.27272,120.454545 3605,118.636364 C3607.72727,116.818182 3608.63636,113.181818 3609.54545,110.909091 C3610.90909,107.272728 3610.90909,104.545455 3609.54545,99.9999995 C3608.18181,94.0909095 3602.27272,91.3636365 3599.09091,92.2727275 C3595,93.1818185 3592.72727,98.1818185 3591.81818,104.09091 C3591.36363,107.272728 3592.72727,110.909091 3595,115.454545 C3597.27272,120 3600.45454,120.909091 3600.45454,120.909091 L3600.45454,155.909091 L3600.45454,158.181818 C3440,171.818181 3283.63636,275.454545 3230.45454,280.454545 C3096.81818,293.636364 3085,174.09091 2944.09091,157.727272 L2946.36363,155 L2947.27272,147.727272 L2949.54545,144.545455 L2948.18181,144.09091 L2946.36363,147.272728 L2945,153.636364 L2941.36363,157.272728 L2941.36363,145 L2940.90909,144.09091 L2941.81818,123.636364 L2940.90909,121.818182 L2942.27272,94.0909095 L2941.36363,93.1818185 L2941.36363,83.6363635 L2945.90909,81.3636365 L2951.81818,81.8181815 L2954.09091,86.3636365 L2953.63636,94.0909095 L2951.36363,98.1818185 L2953.63636,99.0909095 L2955.90909,94.5454545 L2957.72727,96.8181815 L2957.27272,102.727272 L2959.54545,102.272728 L2960.45454,94.9999995 L2957.27272,89.9999995 L2958.18181,84.9999995 L2956.81818,82.2727275 L2964.09091,86.8181815 L2967.72727,89.5454545 L2968.63636,91.3636365 L2976.36363,96.3636365 L2977.72727,101.363637 L2982.72727,110 L2984.09091,109.09091 L2980,100.454545 L2979.54545,95.9090905 L2974.54545,92.2727275 L2986.81818,90.9090905 L2990.90909,85.4545455 L2988.63636,84.9999995 L2985.45454,88.6363635 L2978.63636,89.5454545 L2980,86.3636365 L2980.90909,78.1818185 L2988.18181,75.9090905 L2987.72727,73.1818185 L2982.27272,75.4545455 L2979.09091,76.8181815 L2977.72727,83.6363635 L2975,87.7272725 L2972.72727,88.6363635 L2965.90909,84.5454545 L2959.54545,78.6363635 L2949.54545,75.4545455 L2945.45454,76.8181815 L2945.90909,76.3636365 C2945.90909,76.3636365 2946.36363,73.1818185 2946.36363,72.2727275 C2946.36363,71.3636365 2947.27272,69.0909095 2947.72727,68.1818185 L2945.45454,68.1818185 L2945,68.6363635 L2944.09091,74.0909095 L2940.90909,75.9090905 L2940.90909,72.7272725 L2944.54545,64.0909095 C2944.54545,64.0909095 2950.45454,61.3636365 2955,59.9999995 L2962.72727,63.6363635 L2966.81818,67.7272725 L2969.09091,72.2727275 L2968.18181,77.7272725 L2969.54545,78.1818185 L2971.81818,71.8181815 L2968.63636,66.3636365 L2966.81818,64.0909095 L2974.54545,64.5454545 L2980,62.2727275 L2978.63636,60.9090905 L2974.54545,62.7272725 L2964.54545,61.8181815 L2958.63636,59.0909095 C2962.27272,57.2727275 2964.54545,53.6363635 2964.54545,53.6363635 L2965.90909,50.9090905 L2972.27272,52.7272725 L2980,52.2727275 L2988.18181,50.9090905 L2986.81818,49.9999995 L2980.45454,51.3636365 L2980,48.6363635 L2982.72727,45.9090905 L2981.81818,44.9999995 L2978.63636,48.1818185 L2978.63636,51.3636365 L2973.18181,50.9090905 L2967.27272,49.0909095 L2969.54545,43.6363635 L2980,41.8181815 L2982.27272,39.5454545 L2986.81818,39.9999995 L2988.63636,41.8181815 L2988.63636,44.9999995 L2989.54545,44.9999995 L2989.54545,40.9090905 L2988.18181,38.1818185 L2984.09091,37.2727275 L2990.90909,29.9999995 L2989.54545,29.9999995 L2979.09091,39.9999995 L2975,40.4545455 L2974.09091,35.9090905 L2975.90909,31.3636365 L2977.72727,24.9999995 L2980,24.9999995 L2982.27272,23.1818185 L2984.09091,19.0909095 L2984.54545,13.6363635 L2983.18181,13.6363635 L2982.72727,19.0909095 L2979.54545,23.1818185 L2977.27272,23.6363635 L2976.36363,19.0909095 L2974.09091,19.5454545 L2975.45454,24.5454545 L2973.18181,30.4545455 L2970.45454,36.8181815 L2971.36363,41.3636365 L2966.81818,41.8181815 C2966.81818,41.8181815 2966.36363,43.1818185 2965.90909,45.4545455 L2962.27272,42.2727275 L2962.27272,34.5454545 L2959.09091,24.0909095 L2957.72727,24.0909095 L2960.45454,34.5454545 L2960,44.0909095 L2964.54545,49.5454545 C2964.09091,50.4545455 2963.63636,51.8181815 2963.18181,52.7272725 C2961.81818,55.9090905 2957.27272,59.0909095 2954.09091,60.4545455 C2953.63636,60.4545455 2953.18181,60.4545455 2953.18181,60.9090905 L2953.63636,56.8181815 L2952.27272,55.4545455 L2955,54.5454545 L2956.36363,51.8181815 L2957.27272,47.2727275 L2956.36363,47.2727275 L2955.45454,50.9090905 L2954.54545,52.2727275 L2951.36363,53.1818185 L2950.45454,49.9999995 L2951.36363,45.4545455 L2950.45454,45.4545455 L2949.09091,50.4545455 L2949.09091,54.0909095 L2951.36363,57.2727275 L2950,61.8181815 C2946.36363,62.7272725 2942.72727,62.7272725 2942.72727,62.7272725 L2939.54545,70.4545455 L2937.27272,70.4545455 L2934.09091,63.1818185 L2936.36363,56.3636365 L2940.90909,53.1818185 L2943.18181,47.7272725 L2948.18181,44.5454545 L2947.27272,44.0909095 L2941.81818,47.7272725 L2939.54545,52.2727275 L2937.27272,53.6363635 L2935.90909,44.5454545 L2934.54545,42.2727275 L2939.09091,39.5454545 L2939.54545,38.6363635 L2946.81818,38.6363635 L2954.09091,33.6363635 L2952.72727,32.7272725 L2946.36363,36.8181815 L2940.45454,36.3636365 L2943.63636,28.6363635 L2950,23.1818185 L2949.09091,22.7272725 L2942.72727,27.7272725 L2941.81818,29.9999995 L2938.18181,28.1818185 L2937.72727,21.3636365 L2938.18181,17.7272725 L2937.27272,18.1818185 L2937.27272,22.7272725 L2937.72727,30.9090905 L2940.90909,31.8181815 L2937.72727,37.2727275 L2933.18181,38.6363635 L2930,34.0909095 L2928.18181,20.4545455 L2931.36363,9.5454545 L2929.09091,8.6363635 L2927.72727,13.1818185 L2921.36363,9.5454545 L2920,5.4545454 L2913.63636,0 L2912.27272,0.4545454 L2919.54545,6.3636363 L2921.36363,11.3636365 L2927.72727,15.4545455 L2926.36363,20.4545455 L2927.27272,26.8181815 L2921.81818,23.1818185 L2915,20.9090905 L2914.54545,15.4545455 L2909.54545,10.4545455 L2909.54545,6.3636363 L2908.63636,5.4545454 L2907.72727,10.9090905 L2912.72727,16.3636365 L2912.72727,20.4545455 L2910.90909,19.9999995 L2898.63636,22.2727275 L2898.63636,23.1818185 L2910.45454,21.3636365 L2921.36363,25.4545455 L2928.63636,29.9999995 L2929.54545,35.9090905 L2935.45454,46.3636365 L2936.81818,54.9999995 L2933.63636,64.9999995 L2936.81818,70.9090905 L2936.36363,70.9090905 L2935,68.6363635 L2930.90909,65.9090905 L2927.72727,62.7272725 C2927.72727,62.7272725 2929.54545,58.6363635 2929.09091,57.7272725 C2929.09091,57.7272725 2929.09091,57.2727275 2928.63636,57.2727275 L2930.90909,52.7272725 L2930.45454,46.8181815 L2928.18181,41.3636365 L2926.36363,42.2727275 L2929.09091,48.1818185 L2929.54545,52.7272725 L2928.18181,54.5454545 L2928.18181,53.6363635 L2925,50.4545455 L2920.45454,49.9999995 L2919.54545,47.7272725 L2918.63636,47.7272725 L2919.54545,50.9090905 L2923.63636,51.8181815 L2926.81818,54.9999995 L2927.72727,58.6363635 L2926.36363,63.1818185 L2929.09091,68.1818185 L2934.09091,70.9090905 L2936.36363,74.5454545 L2936.36363,81.3636365 C2933.18181,81.3636365 2928.63636,82.2727275 2928.63636,82.2727275 L2923.63636,83.1818185 L2925.90909,77.2727275 L2925,71.3636365 L2921.81818,64.0909095 L2924.54545,59.0909095 L2923.18181,58.6363635 L2920.45454,64.5454545 L2921.81818,69.9999995 L2916.81818,69.9999995 L2914.09091,66.3636365 L2913.63636,62.2727275 L2915.45454,56.8181815 L2913.63636,56.8181815 L2911.36363,63.1818185 L2912.27272,69.0909095 L2915.90909,73.6363635 L2922.27272,73.6363635 L2922.72727,79.0909095 L2921.36363,84.5454545 L2917.72727,85.4545455 L2912.72727,90.9090905 L2905,87.7272725 L2907.72727,85.4545455 L2909.09091,78.6363635 L2908.18181,70.9090905 L2904.54545,64.5454545 L2903.18181,65.4545455 L2905.90909,70.4545455 L2907.27272,78.1818185 L2905.90909,84.0909095 L2901.81818,86.3636365 L2899.54545,85.4545455 L2897.27272,72.7272725 L2901.36363,60.9090905 L2905,53.1818185 L2905,52.2727275 L2912.27272,51.3636365 L2914.54545,45.4545455 L2919.54545,44.0909095 L2923.18181,44.5454545 L2923.63636,43.6363635 L2920.45454,43.1818185 L2914.54545,44.0909095 L2914.09091,44.5454545 L2915,42.7272725 L2914.54545,37.7272725 L2911.36363,32.2727275 L2905.45454,30.4545455 L2905.45454,32.2727275 L2910,33.6363635 L2912.72727,39.0909095 L2910.45454,44.9999995 L2910.90909,46.8181815 L2910.45454,49.9999995 L2904.54545,50.4545455 L2903.63636,42.2727275 L2898.18181,39.5454545 L2898.18181,40.9090905 L2902.27272,43.1818185 L2902.72727,53.1818185 L2897.72727,62.7272725 L2897.27272,63.6363635 L2894.54545,59.5454545 L2888.63636,57.7272725 L2885,53.6363635 L2885,49.9999995 L2888.18181,47.2727275 L2887.27272,46.8181815 L2883.63636,49.0909095 L2882.72727,53.6363635 L2885.90909,57.7272725 L2883.63636,58.1818185 L2877.72727,58.1818185 L2878.18181,59.0909095 L2883.63636,59.9999995 L2888.18181,58.6363635 L2892.72727,60.4545455 L2895.90909,64.9999995 L2893.18181,74.0909095 L2893.63636,75.4545455 L2888.63636,73.6363635 L2886.81818,74.0909095 L2885.90909,72.7272725 L2885.90909,69.5454545 L2888.18181,66.3636365 L2887.27272,66.3636365 L2884.54545,69.9999995 L2884.54545,74.5454545 L2885,74.9999995 L2884.09091,74.9999995 L2877.72727,78.1818185 L2871.36363,78.1818185 L2871.36363,79.0909095 L2874.54545,79.0909095 L2881.36363,76.8181815 L2886.36363,76.3636365 L2890.90909,78.6363635 L2893.18181,88.6363635 L2907.27272,94.9999995 L2906.36363,96.3636365 L2898.18181,105 L2896.81818,105.454546 L2890.90909,102.272728 L2887.72727,94.5454545 L2887.72727,89.0909095 L2886.36363,88.6363635 L2885.45454,94.9999995 L2885.90909,95.9090905 L2885.90909,96.3636365 L2881.81818,96.3636365 L2876.36363,99.0909095 L2877.27272,100.454545 L2881.81818,97.7272725 L2886.36363,98.1818185 L2887.72727,103.181818 L2892.72727,105.454546 L2885.45454,107.272728 L2886.36363,108.636364 L2897.72727,105.909091 L2899.09091,104.545455 L2903.18181,109.09091 L2904.09091,116.363637 L2901.81818,120 L2903.18181,120.454545 L2905.90909,116.818182 L2905,108.181818 L2903.18181,103.181818 L2907.72727,97.7272725 L2915,89.9999995 L2924.54545,87.7272725 L2930,87.7272725 L2925.90909,89.9999995 L2924.09091,97.7272725 L2920.45454,99.9999995 L2915.90909,101.363637 L2912.72727,104.545455 L2913.63636,105.454546 L2916.36363,102.727272 L2921.36363,101.363637 L2925.90909,98.6363635 L2928.18181,91.3636365 L2932.72727,89.0909095 L2932.72727,94.9999995 L2932.72727,114.09091 L2931.81818,114.545455 L2931.81818,117.727272 L2927.72727,114.545455 L2925,105.909091 L2920,103.636364 L2923.18181,106.818182 L2925.45454,115.909091 L2931.36363,122.272728 L2930.45454,159.09091 L2927.72727,157.272728 L2924.54545,153.636364 L2920.90909,152.272728 L2915.90909,151.363637 L2915,151.818182 L2919.54545,152.727272 L2923.18181,154.09091 L2925,158.636364 L2917.27272,158.636364 C2806.36363,156.818182 2762.27272,166.818181 2710.45454,165.90909 C2710.45454,155.454545 2710,136.363637 2710.45454,135 C2710.45454,135 2710.90909,135 2713.63636,133.181818 C2716.36363,131.363637 2717.27272,127.727272 2718.18181,125.454545 C2719.54545,121.818182 2719.54545,119.09091 2718.18181,114.545455 C2716.81818,108.636364 2710.90909,105.909091 2707.72727,106.818182 C2703.63636,107.727272 2701.36363,112.727272 2700.45454,118.636364 C2700,121.818182 2701.36363,125.454545 2703.63636,130 C2705.90909,134.545455 2709.09091,135.454545 2709.09091,135.454545 L2709.09091,166.363636 C2670,165.454545 2625.90909,157.727272 2545.90909,134.09091 C2539.54545,132.272728 2533.63636,130.454545 2527.27272,129.09091 C2527.27272,128.636364 2527.27272,128.181818 2526.81818,127.272728 C2526.36363,125 2525.90909,91.8181815 2526.36363,89.5454545 C2526.36363,89.5454545 2526.81818,89.5454545 2529.54545,87.7272725 C2532.27272,85.9090905 2533.18181,82.2727275 2534.09091,79.9999995 C2535.45454,76.3636365 2535.45454,73.6363635 2534.09091,69.0909095 C2532.72727,63.1818185 2526.81818,60.4545455 2523.63636,61.3636365 C2519.54545,62.2727275 2517.27272,67.2727275 2516.36363,73.1818185 C2515.90909,76.3636365 2517.27272,79.9999995 2519.54545,84.5454545 C2521.81818,89.0909095 2525,89.9999995 2525,89.9999995 L2525,125 C2525,126.363637 2525,127.272728 2524.54545,128.636364 C2490.45454,120 2460.45454,116.818182 2434.54545,116.818182 L2434.54545,115.909091 C2434.54545,114.09091 2434.09091,110 2434.09091,108.181818 C2434.09091,108.181818 2435,108.181818 2436.81818,106.818182 C2439.09091,105.454546 2440,102.272728 2440.45454,100.454545 C2441.36363,97.7272725 2441.36363,95.4545455 2440.45454,91.8181815 C2439.09091,87.2727275 2434.54545,85.4545455 2431.81818,85.9090905 C2428.63636,86.8181815 2426.81818,90.4545455 2425.90909,94.9999995 C2425.45454,97.7272725 2426.81818,100.454545 2428.18181,104.09091 C2429.54545,107.727272 2432.72727,108.181818 2432.72727,108.181818 L2432.72727,113.636364 C2432.72727,114.545455 2432.72727,115.454545 2432.27272,116.363637 C2410,116.363637 2390,119.09091 2372.72727,123.636364 C2372.27272,115 2372.27272,90.4545455 2372.27272,88.6363635 C2372.27272,88.6363635 2372.72727,88.6363635 2375.45454,86.8181815 C2378.18181,84.9999995 2379.09091,81.3636365 2380,79.0909095 C2381.36363,75.4545455 2381.36363,72.7272725 2380,68.1818185 C2378.63636,62.2727275 2372.72727,59.5454545 2369.54545,60.4545455 C2365.45454,61.3636365 2363.18181,66.3636365 2362.27272,72.2727275 C2361.81818,75.4545455 2363.18181,79.0909095 2365.45454,83.6363635 C2367.72727,88.1818185 2370.90909,89.0909095 2370.90909,89.0909095 L2370.90909,124.09091 C2336.81818,132.727272 2309.54545,146.818182 2285,158.636364 C2270.90909,165 2259.09091,170 2248.18181,173.636364 L2248.18181,173.181819 L2252.72727,167.727273 L2253.63636,161.818182 L2255,159.09091 L2253.18181,159.09091 L2251.81818,161.363637 L2250.45454,166.363636 L2247.72727,169.09091 L2247.72727,159.09091 L2247.27272,158.181818 L2247.72727,141.363637 L2246.81818,140 L2248.18181,117.727272 L2247.27272,116.818182 L2247.27272,109.09091 L2250.90909,107.272728 L2255.90909,107.727272 L2257.72727,110.909091 L2257.27272,116.818182 L2255.45454,120 L2256.81818,120.909091 L2258.63636,117.272728 L2260,119.09091 L2259.54545,123.636364 L2260.90909,123.181818 L2261.81818,117.727272 L2259.09091,113.636364 L2260,109.545455 L2259.09091,107.272728 L2265,110.909091 L2268.18181,112.727272 L2269.09091,114.09091 L2275.45454,118.181818 L2276.36363,122.272728 L2280.45454,129.09091 L2281.36363,128.181818 L2278.18181,121.363637 L2277.72727,117.727272 L2273.63636,115 L2283.63636,114.09091 L2286.81818,109.545455 L2285.45454,109.09091 L2283.18181,112.272728 L2277.72727,112.727272 L2278.63636,110 L2279.54545,103.636364 L2285.45454,101.818182 L2285,99.9999995 L2280.45454,101.818182 L2278.18181,103.181818 L2277.27272,108.636364 L2275,111.818182 L2273.63636,112.727272 L2268.18181,109.545455 L2263.18181,105 L2255.45454,102.727272 L2252.27272,103.636364 L2252.72727,103.181818 C2252.72727,103.181818 2253.18181,100.454545 2253.18181,99.9999995 C2253.18181,99.5454545 2254.09091,97.7272725 2254.54545,96.8181815 L2252.72727,96.8181815 L2252.27272,97.2727275 L2251.81818,101.818182 L2249.54545,103.181818 L2249.54545,100.454545 L2252.72727,93.6363635 C2252.72727,93.6363635 2257.27272,91.3636365 2261.36363,90.4545455 L2267.72727,93.6363635 L2270.90909,96.8181815 L2272.72727,100.454545 L2271.81818,105 L2272.72727,105.454546 L2274.54545,100.454545 L2272.27272,95.9090905 L2270.90909,94.0909095 L2277.27272,94.5454545 L2281.36363,92.7272725 L2280,91.8181815 L2276.81818,93.1818185 L2269.09091,92.2727275 L2264.54545,89.9999995 C2267.72727,88.6363635 2269.54545,85.4545455 2269.54545,85.4545455 L2270.45454,83.1818185 L2275.45454,84.5454545 L2281.81818,84.0909095 L2288.18181,82.7272725 L2286.81818,81.8181815 L2281.36363,82.7272725 L2281.36363,80.4545455 L2283.63636,78.6363635 L2282.72727,77.7272725 L2280,79.9999995 L2280,82.7272725 L2275.45454,82.7272725 L2270.90909,81.3636365 L2272.72727,76.8181815 L2281.36363,75.4545455 L2283.18181,73.6363635 L2286.81818,73.6363635 L2288.18181,74.9999995 L2288.18181,77.7272725 L2289.09091,77.7272725 L2289.09091,74.5454545 L2287.72727,72.2727275 L2284.54545,71.3636365 L2290,65.4545455 L2286.81818,65.4545455 L2278.18181,73.6363635 L2275,74.0909095 L2274.09091,70.4545455 L2275.45454,66.8181815 L2276.81818,61.8181815 L2278.63636,61.8181815 L2280.45454,60.4545455 L2281.81818,57.2727275 L2282.27272,52.7272725 L2281.36363,52.7272725 L2280.90909,57.2727275 L2278.63636,60.4545455 L2276.81818,60.9090905 L2275.90909,57.2727275 L2274.09091,57.7272725 L2275,61.8181815 L2272.72727,66.3636365 L2270.45454,71.3636365 L2271.36363,74.9999995 L2267.72727,75.4545455 L2266.81818,78.1818185 L2263.63636,75.4545455 L2263.63636,69.0909095 L2260.90909,60.4545455 L2260,60.4545455 L2262.27272,68.6363635 L2261.81818,76.3636365 L2265.45454,80.9090905 C2265,81.8181815 2264.54545,82.7272725 2264.54545,83.1818185 C2263.18181,85.9090905 2259.54545,88.1818185 2257.27272,89.0909095 C2256.81818,89.0909095 2256.81818,89.0909095 2256.36363,89.5454545 L2256.81818,86.3636365 L2255.90909,84.9999995 L2258.18181,84.0909095 L2259.09091,82.2727275 L2259.54545,78.6363635 L2258.63636,78.6363635 L2257.72727,81.8181815 L2256.81818,82.7272725 L2254.54545,83.6363635 L2254.09091,80.9090905 L2255,77.2727275 L2254.09091,77.2727275 L2253.18181,81.3636365 L2253.18181,84.5454545 L2254.54545,87.2727275 L2253.63636,90.4545455 C2250.90909,90.9090905 2247.72727,91.3636365 2247.72727,91.3636365 L2245,97.7272725 L2243.18181,97.7272725 L2240.45454,91.8181815 L2242.27272,86.3636365 L2245.90909,83.6363635 L2247.72727,79.0909095 L2251.81818,76.3636365 L2250.90909,75.9090905 L2246.36363,79.0909095 L2244.54545,82.7272725 L2242.72727,83.6363635 L2241.81818,76.3636365 L2240.45454,74.5454545 L2244.09091,72.2727275 L2244.54545,71.8181815 L2250.45454,71.8181815 L2256.36363,67.7272725 L2255.45454,66.8181815 L2250.45454,69.9999995 L2245.90909,69.5454545 L2248.63636,63.6363635 L2253.63636,59.0909095 L2252.72727,58.6363635 L2247.72727,62.7272725 L2246.81818,64.5454545 L2244.09091,63.1818185 L2243.63636,57.7272725 L2244.09091,54.9999995 L2243.18181,55.4545455 L2243.18181,59.0909095 L2243.63636,65.9090905 L2246.36363,66.8181815 L2244.09091,71.3636365 L2240,72.2727275 L2237.27272,68.6363635 L2235.90909,57.7272725 L2238.63636,49.0909095 L2236.81818,48.1818185 L2235.90909,51.8181815 L2230.90909,48.6363635 L2229.54545,45.4545455 L2224.54545,41.3636365 L2223.18181,41.8181815 L2229.09091,46.3636365 L2230.45454,50.4545455 L2235.45454,53.6363635 L2234.09091,57.7272725 L2234.54545,62.7272725 L2230,59.9999995 L2224.54545,58.1818185 L2224.09091,53.6363635 L2220,49.5454545 L2220,46.3636365 L2219.09091,45.4545455 L2218.63636,49.9999995 L2222.72727,54.5454545 L2222.72727,57.7272725 L2221.36363,57.2727275 L2211.36363,59.0909095 L2211.36363,59.9999995 L2220.45454,58.6363635 L2229.09091,61.8181815 L2235,65.4545455 L2235.45454,69.9999995 L2240,78.6363635 L2240.90909,85.9090905 L2238.18181,94.0909095 L2240.45454,98.6363635 L2241.36363,98.6363635 L2240.45454,96.8181815 L2237.27272,94.5454545 L2235,91.8181815 C2235,91.8181815 2236.36363,88.6363635 2235.90909,87.7272725 L2235.90909,87.2727275 L2237.27272,83.6363635 L2236.81818,79.0909095 L2235,74.5454545 L2233.63636,75.4545455 L2235.90909,79.9999995 L2236.36363,83.6363635 L2235,84.9999995 L2235,84.5454545 L2232.27272,82.2727275 L2228.63636,81.8181815 L2227.72727,79.9999995 L2227.27272,79.9999995 L2227.72727,82.7272725 L2230.90909,83.1818185 L2233.18181,85.9090905 L2234.09091,88.6363635 L2233.18181,92.2727275 L2235.45454,96.3636365 L2239.54545,98.6363635 L2240.90909,101.818182 L2240.90909,107.272728 C2238.63636,107.272728 2234.54545,108.181818 2234.54545,108.181818 L2230.45454,109.09091 L2232.72727,104.545455 L2231.81818,99.9999995 L2229.54545,94.0909095 L2231.81818,89.9999995 L2230.45454,89.9999995 L2228.18181,94.5454545 L2229.09091,98.6363635 L2225,98.6363635 L2222.72727,95.4545455 L2222.27272,92.2727275 L2223.63636,87.7272725 L2222.27272,87.7272725 L2220.45454,92.7272725 L2221.36363,97.2727275 L2224.54545,100.454545 L2229.54545,100.454545 L2230,105 L2228.63636,109.545455 L2225.90909,110 L2221.81818,114.545455 L2215.45454,111.818182 L2217.72727,110 L2219.09091,104.545455 L2218.18181,98.1818185 L2215,93.1818185 L2213.63636,94.0909095 L2215.90909,98.1818185 L2216.81818,104.545455 L2215.45454,109.545455 L2212.27272,110.909091 L2210.45454,110 L2208.63636,99.9999995 L2211.81818,90.4545455 L2215,84.0909095 L2215,83.1818185 L2220.45454,82.2727275 L2222.27272,77.2727275 L2226.36363,75.9090905 L2229.54545,76.3636365 L2230,75.4545455 L2227.72727,74.9999995 L2223.18181,75.9090905 L2222.72727,76.3636365 L2223.63636,74.9999995 L2223.18181,70.9090905 L2220.45454,66.3636365 L2215.90909,64.9999995 L2215.90909,66.3636365 L2219.54545,67.2727275 L2221.81818,71.8181815 L2220,76.3636365 L2220,77.7272725 L2219.54545,79.9999995 L2215,80.4545455 L2214.09091,73.6363635 L2209.54545,71.8181815 L2209.54545,72.7272725 L2212.72727,74.5454545 L2213.18181,82.2727275 L2209.09091,89.9999995 L2208.63636,90.9090905 L2206.36363,87.7272725 L2201.81818,86.3636365 L2199.09091,83.1818185 L2199.09091,79.9999995 L2201.81818,77.7272725 L2200.90909,77.2727275 L2197.72727,79.0909095 L2196.81818,82.7272725 L2199.54545,85.9090905 L2197.27272,86.3636365 L2192.72727,86.3636365 L2193.18181,87.2727275 L2197.72727,88.1818185 L2201.36363,87.2727275 L2205,88.6363635 L2207.27272,92.2727275 L2205,99.5454545 L2205.45454,100.909091 L2201.36363,99.5454545 L2200,99.9999995 L2199.09091,99.0909095 L2199.09091,96.3636365 L2200.45454,93.6363635 L2198.63636,93.6363635 L2196.36363,96.3636365 L2196.36363,99.9999995 L2196.36363,100.454545 L2195.45454,100.454545 L2190.45454,103.181818 L2188.18181,103.181818 L2188.18181,104.09091 L2190.90909,104.09091 L2196.36363,102.272728 L2200.45454,101.818182 L2204.09091,103.636364 L2205.90909,111.363636 L2217.27272,116.363637 L2216.36363,117.272728 L2210,124.09091 L2209.09091,124.545454 L2204.54545,121.818182 L2201.81818,115.454545 L2201.81818,111.363636 L2200.90909,110.909091 L2200,115.909091 L2200.45454,116.818182 L2200.45454,117.272728 L2197.27272,117.272728 L2192.72727,119.545455 L2193.18181,120.454545 L2196.81818,118.181818 L2200.45454,118.636364 L2201.81818,122.727272 L2205.90909,124.545454 L2200,125.909091 L2200.45454,126.818182 L2209.54545,124.545454 L2210.90909,123.636364 L2214.09091,127.272728 L2214.54545,132.727272 L2212.72727,135.909091 L2214.09091,136.363637 L2216.36363,133.181818 L2215.90909,126.363637 L2214.54545,122.272728 L2218.18181,117.727272 L2224.09091,111.363636 L2231.81818,109.545455 L2236.36363,109.545455 L2233.18181,111.363636 L2231.81818,117.727272 L2228.63636,119.545455 L2225,120.909091 L2222.27272,123.636364 L2223.18181,124.545454 L2225.45454,122.272728 L2229.54545,121.363637 L2233.18181,119.09091 L2234.54545,113.181818 L2238.63636,111.363636 L2238.63636,115.909091 L2238.63636,131.363637 L2237.72727,131.818182 L2237.72727,134.545455 L2234.54545,132.272728 L2232.27272,125.454545 L2228.18181,123.636364 L2230.90909,126.363637 L2232.72727,133.636364 L2237.27272,138.636364 L2236.36363,168.181819 L2234.09091,166.818181 L2231.81818,164.09091 L2229.09091,162.727272 L2225,162.272728 L2224.09091,162.727272 L2227.72727,163.636364 L2230.45454,164.545455 L2233.18181,171.363636 L2235.90909,172.727273 L2235.90909,175.90909 C2186.36363,188.636364 2156.36363,171.363636 2106.81818,142.272728 C2087.72727,131.363637 2067.27272,123.181818 2046.81818,122.727272 C1976.36363,121.363637 1844.09091,231.818181 1772.27272,230 C1691.81818,228.181819 1629.09091,226.818181 1577.27272,207.727273 C1536.81818,192.727273 1506.81818,180 1454.09091,166.818181 C1402.27272,153.636364 1372.27272,153.181818 1341.81818,180.90909 C1341.36363,178.181819 1340.90909,171.363636 1341.36363,169.09091 C1341.36363,169.09091 1342.27272,169.09091 1345.90909,166.818181 C1349.54545,164.545455 1350.45454,160 1351.81818,156.818182 C1353.18181,152.272728 1353.18181,148.636364 1351.81818,143.181818 C1350,135.909091 1343.18181,132.727272 1338.18181,133.636364 C1332.72727,135 1330,141.363637 1329.09091,148.181818 C1328.63636,152.272728 1330.45454,156.363636 1332.72727,162.272728 C1335.45454,168.181819 1339.54545,169.09091 1339.54545,169.09091 L1339.54545,177.727273 C1339.54545,180.90909 1339.09091,181.818181 1338.63636,183.181819 C1331.81818,189.545455 1325,197.727273 1318.18181,206.818182 C1294.09091,239.090909 1263.63636,255.90909 1194.09091,248.636364 C1176.81818,246.818181 1165,230.454545 1140.90909,218.636364 C1125.90909,211.363636 1110.90909,206.818182 1095.90909,206.818182 L1095.90909,206.363636 C1095.90909,204.545455 1095.45454,178.636364 1095.45454,177.272728 C1095.45454,177.272728 1095.90909,177.272728 1097.72727,175.90909 C1100,174.545454 1100.45454,171.818181 1101.36363,170 C1102.27272,167.272728 1102.27272,165 1101.36363,161.363637 C1100,156.818182 1095.90909,155 1093.18181,155.454545 C1090,156.363636 1088.18181,160 1087.72727,164.545455 C1087.27272,166.818181 1088.63636,169.545455 1090,173.181819 C1091.36363,176.818181 1094.09091,177.272728 1094.09091,177.272728 L1094.09091,204.545455 C1094.09091,205.454545 1094.09091,206.363636 1093.63636,206.818182 C1080.45454,206.818182 1067.72727,210.454545 1055.45454,217.727273 C1026.36363,235.454545 989.545454,268.636364 939.545454,267.727273 C874.545455,266.818181 837.272728,247.272728 808.636364,226.363636 C808.636364,223.181819 808.181819,202.727273 808.181819,201.363636 C808.181819,201.363636 808.636364,201.363636 810.454546,200 C812.272728,198.636363 813.181819,196.363636 813.636364,194.545455 C814.545455,192.272728 814.545455,190 813.636364,187.272728 C812.727273,183.181819 808.636364,181.818181 806.363637,182.272728 C803.636364,182.727273 801.818182,186.363636 801.363637,190 C800.909091,192.272728 802.272728,194.545455 803.636364,197.727273 C805,200.90909 807.272728,201.363636 807.272728,201.363636 L807.272728,224.999999 C807.272728,224.999999 807.272728,224.999999 807.272728,225.454545 C785,209.09091 768.181819,191.818181 747.727273,181.818181 C747.727273,180.454546 747.272728,177.727273 747.727273,176.818181 C747.727273,176.818181 748.181819,176.818181 750,175.90909 C751.363637,174.545454 752.272728,172.727273 752.727273,171.363636 C753.636364,169.09091 753.636364,167.272728 752.727273,165 C751.818182,161.363637 748.181819,160 746.363637,160.454545 C743.636364,160.909091 742.727273,164.09091 741.818182,167.272728 C741.363637,169.09091 742.272728,171.363636 743.636364,174.09091 C745,176.818181 746.818182,177.272728 746.818182,177.272728 L746.818182,181.363636 L746.818182,181.818181 C737.272728,177.272728 726.818182,174.545454 715,174.545454 L715,174.545454 C715,174.09091 714.545455,173.181819 714.545455,172.272728 C714.090909,170.454546 713.636364,165.454545 714.090909,163.636364 C714.090909,163.636364 715,163.636364 717.272728,161.818182 C720,160 720.909091,156.818182 721.363637,154.545455 C722.272728,151.363637 722.727273,148.636364 721.363637,144.545455 C720,139.09091 715,137.272728 711.818182,137.727272 C708.181819,138.636364 705.909091,143.181818 705.454546,148.181818 C705,151.363637 706.363637,154.09091 708.181819,158.181818 C710,162.272728 713.181819,162.727272 713.181819,162.727272 L713.181819,169.09091 C713.181819,170.90909 712.727273,172.727273 712.272728,173.636364 C653.181819,175.454545 601.818182,274.545455 502.272728,271.363636 C282.272728,265 338.636364,226.818181 169.545455,225.454545 C122.272728,224.999999 43.1818186,242.272728 0,275 L0,304.545455 L6658.63636,304.545455 L6667.72727,304.545455 L13330.4546,304.545455 L13330.4546,215.454545 C13286.8182,214.545455 13229.0909,177.272728 13170.4546,179.09091 L13170.4546,179.09091 L13170.4546,179.09091 Z"></path>
                	</g>
                </g>
                <g id="_background-1" style="transform: translateX({{$parent.state * -1400}}px); -webkit-transform: translateX({{$parent.state * -1400}}px)">
                	<g transform="translate(0.000000, 274.000000)">
                	    <g id="puzzle" transform="translate(0.545455, 0.272727)">
                	        <path d="M13157.2727,98.1818182 C12988.6364,98.6363636 13044.5455,110.454545 12824.5455,112.727273 C12725,113.636364 12673.6364,82.7272727 12614.5455,81.8181818 C12614.0909,81.3636364 12613.6364,80.9090909 12613.6364,80.4545455 L12613.6364,78.6363636 C12613.6364,78.6363636 12616.8182,78.6363636 12618.6364,77.2727273 C12620.4545,75.9090909 12621.8182,75 12621.3636,74.0909091 C12620.4545,72.7272727 12618.6364,70.9090909 12615,70.9090909 C12611.8182,70.9090909 12606.8182,71.3636364 12605.4545,73.1818182 C12604.5455,74.5454545 12604.5455,75.4545455 12605.4545,76.3636364 C12606.3636,77.2727273 12606.8182,78.1818182 12609.5455,78.6363636 C12611.8182,79.0909091 12612.7273,79.0909091 12612.7273,79.0909091 C12613.1818,79.5454545 12612.7273,81.3636364 12612.2727,81.8181818 C12612.2727,82.2727273 12611.8182,82.2727273 12611.8182,82.7272727 C12600,82.7272727 12589.0909,83.6363636 12580,85 L12580,83.6363636 C12580,83.6363636 12582.2727,83.6363636 12583.1818,82.7272727 C12584.5455,81.8181818 12585.4545,81.3636364 12585,80.4545455 C12584.5455,79.5454545 12583.1818,78.6363636 12580.4545,78.1818182 C12578.1818,78.1818182 12575,78.6363636 12574.0909,79.5454545 C12573.1818,80.4545455 12573.1818,80.9090909 12574.0909,81.3636364 C12574.5455,81.8181818 12575,82.2727273 12576.8182,82.7272727 C12578.6364,83.1818182 12579.0909,83.1818182 12579.0909,83.1818182 L12579.0909,85 C12558.1818,88.1818182 12541.8182,93.6363636 12519.5455,98.6363636 L12519.5455,91.3636364 C12519.5455,91.3636364 12521.8182,91.3636364 12523.1818,90 C12524.5455,89.0909091 12525.4545,88.1818182 12525.4545,87.7272727 C12525,86.3636364 12523.6364,85.4545455 12520.4545,85.4545455 C12518.1818,85.4545455 12514.0909,85.9090909 12513.1818,87.2727273 C12512.2727,88.1818182 12512.2727,88.6363636 12513.1818,89.5454545 C12513.6364,90 12514.5455,90.9090909 12516.3636,91.3636364 C12518.1818,91.8181818 12518.6364,91.8181818 12518.6364,91.8181818 C12518.6364,92.2727273 12518.6364,98.6363636 12518.1818,99.5454545 C12489.5455,105.909091 12452.2727,112.272727 12387.2727,112.272727 C12337.2727,112.272727 12301.3636,102.272727 12271.3636,96.8181818 C12259.5455,94.5454545 12246.3636,93.6363636 12233.6364,93.1818182 C12233.6364,93.1818182 12233.1818,92.7272727 12233.1818,92.2727273 L12233.1818,83.6363636 C12233.1818,83.6363636 12235.9091,83.6363636 12237.2727,82.2727273 C12238.6364,80.9090909 12240,80.4545455 12239.5455,79.5454545 C12238.6364,78.1818182 12237.2727,76.8181818 12234.0909,76.8181818 C12231.3636,76.8181818 12227.2727,77.2727273 12225.9091,78.6363636 C12225,79.5454545 12225,80.4545455 12225.9091,81.3636364 C12226.8182,81.8181818 12227.2727,82.7272727 12229.5455,83.1818182 C12231.3636,83.6363636 12231.8182,83.6363636 12231.8182,83.6363636 C12231.8182,84.0909091 12231.8182,92.2727273 12231.3636,92.7272727 C12216.3636,92.7272727 12201.3636,94.0909091 12186.3636,96.3636364 C12162.2727,100 12150.4545,105 12133.1818,105.909091 C12063.6364,108.181818 12033.1818,103.181818 12009.0909,92.7272727 C12002.2727,90 11995,87.2727273 11988.6364,85.4545455 C11988.1818,85 11987.7273,84.5454545 11987.7273,83.6363636 L11987.7273,80.9090909 C11987.7273,80.9090909 11991.8182,80.4545455 11994.5455,78.6363636 C11996.8182,76.8181818 11998.6364,75.4545455 11998.1818,74.0909091 C11997.2727,71.8181818 11994.5455,70 11989.0909,69.5454545 C11984.5455,69.0909091 11977.7273,70 11975.4545,72.2727273 C11974.0909,74.0909091 11974.0909,75 11975.4545,76.3636364 C11976.3636,77.2727273 11977.7273,78.6363636 11981.3636,79.5454545 C11984.5455,80.4545455 11985.9091,80.4545455 11985.9091,80.4545455 C11986.3636,81.3636364 11985.9091,83.1818182 11985.4545,84.0909091 C11955,75.4545455 11925,75.4545455 11873.1818,79.5454545 C11820.4545,83.6363636 11790.4545,87.7272727 11750,92.2727273 C11698.1818,98.1818182 11636.3636,98.6363636 11555,99.0909091 C11483.1818,99.5454545 11350.9091,65 11280.4545,65.4545455 C11259.5455,65.4545455 11239.0909,68.1818182 11220.4545,71.8181818 C11178.1818,79.5454545 11150,84.5454545 11113.1818,83.6363636 L11113.1818,83.6363636 L11111.3636,83.6363636 C11107.7273,83.6363636 11103.6364,83.1818182 11100,83.1818182 C11090.9091,82.7272727 11084.0909,81.8181818 11080,81.3636364 L11082.7273,82.2727273 C11071.8182,81.3636364 11059.0909,79.5454545 11045.9091,77.7272727 C11021.3636,74.0909091 10994.0909,69.5454545 10960,66.8181818 L10960,55.9090909 C10960,55.9090909 10963.1818,55.4545455 10965.4545,54.0909091 C10967.2727,52.7272727 10969.0909,51.8181818 10968.6364,50.4545455 C10967.7273,48.6363636 10965.4545,47.2727273 10961.3636,46.8181818 C10957.7273,46.3636364 10952.2727,47.2727273 10950.9091,49.0909091 C10949.5455,50.4545455 10950,51.3636364 10950.9091,52.7272727 C10951.8182,53.6363636 10952.7273,54.5454545 10955.4545,55 C10958.1818,55.4545455 10958.6364,55.4545455 10958.6364,55.4545455 C10958.6364,55.9090909 10958.6364,63.6363636 10958.1818,66.3636364 C10940.4545,65 10921.3636,64.0909091 10898.6364,64.0909091 C10898.6364,63.6363636 10898.1818,63.6363636 10898.1818,63.1818182 L10898.1818,61.3636364 C10898.1818,61.3636364 10900.9091,61.3636364 10902.7273,60 C10904.5455,58.6363636 10905.4545,58.1818182 10905,57.2727273 C10904.0909,55.9090909 10902.7273,54.5454545 10899.0909,54.5454545 C10896.3636,54.5454545 10891.8182,55 10890.4545,56.3636364 C10889.5455,57.2727273 10889.5455,58.1818182 10890.4545,59.0909091 C10891.3636,59.5454545 10891.8182,60.4545455 10894.0909,60.9090909 C10896.3636,61.3636364 10896.8182,61.3636364 10896.8182,61.3636364 C10896.8182,61.8181818 10896.8182,63.1818182 10896.3636,63.6363636 C10870.4545,63.6363636 10840.9091,64.5454545 10806.8182,67.2727273 C10806.8182,66.8181818 10806.3636,66.3636364 10806.3636,66.3636364 L10806.3636,55.4545455 C10806.3636,55.4545455 10809.5455,55 10811.8182,53.6363636 C10813.6364,52.2727273 10815.4545,51.3636364 10815,50 C10814.0909,48.1818182 10811.8182,46.8181818 10807.7273,46.3636364 C10804.0909,45.9090909 10798.6364,46.8181818 10797.2727,48.6363636 C10795.9091,50 10796.3636,50.9090909 10797.2727,52.2727273 C10798.1818,53.1818182 10799.0909,54.0909091 10801.8182,54.5454545 C10804.5455,55 10805,55 10805,55 C10805.4545,55.4545455 10805,65.9090909 10804.5455,66.8181818 C10804.5455,66.8181818 10804.5455,67.2727273 10804.0909,67.2727273 C10798.1818,67.7272727 10791.8182,68.1818182 10785.4545,69.0909091 C10705,76.3636364 10660.9091,79.0909091 10622.2727,79.0909091 L10622.2727,69.5454545 C10622.2727,69.5454545 10625.4545,69.0909091 10627.7273,67.7272727 C10629.5455,66.3636364 10631.3636,65.4545455 10630.9091,64.0909091 C10630,62.2727273 10627.7273,60.9090909 10623.6364,60.4545455 C10620,60 10614.5455,60.9090909 10613.1818,62.7272727 C10611.8182,64.0909091 10612.2727,65 10613.1818,66.3636364 C10614.0909,67.2727273 10615,68.1818182 10617.7273,68.6363636 C10620.4545,69.0909091 10620.9091,69.0909091 10620.9091,69.0909091 L10620.9091,78.6363636 C10569.0909,79.0909091 10524.5455,75.9090909 10414.0909,76.3636364 L10409.0909,76.3636364 C10402.2727,76.8181818 10396.8182,77.2727273 10392.2727,77.7272727 L10392.2727,80 L10388.6364,79.0909091 L10388.1818,78.1818182 L10386.8182,78.1818182 L10387.2727,79.0909091 L10389.5455,80 C10248.6364,85 10236.8182,122.727273 10103.1818,118.636364 C10050.4545,116.818182 9894.09091,84.5454545 9733.63636,80.4545455 L9733.63636,79.5454545 L9733.63636,68.6363636 C9733.63636,68.6363636 9736.81818,68.1818182 9739.09091,66.8181818 C9740.90909,65.4545455 9742.72727,64.5454545 9742.27273,63.1818182 C9741.36364,61.3636364 9739.09091,60 9735,59.5454545 C9731.36364,59.0909091 9725.90909,60 9724.54545,61.8181818 C9723.18182,63.1818182 9723.63636,64.0909091 9724.54545,65.4545455 C9725.45455,66.3636364 9726.36364,67.2727273 9729.09091,67.7272727 C9731.81818,68.1818182 9732.27273,68.1818182 9732.27273,68.1818182 C9732.72727,68.6363636 9732.27273,78.6363636 9731.81818,80 C9715.90909,79.5454545 9700.45455,79.5454545 9684.54545,79.5454545 C9640.45455,80 9600.45455,82.7272727 9563.18182,85.9090909 C9563.18182,85.9090909 9562.72727,85.4545455 9562.72727,85 L9562.72727,83.1818182 C9562.72727,83.1818182 9565.45455,83.1818182 9567.27273,81.8181818 C9569.09091,80.4545455 9570,80 9569.54545,79.0909091 C9568.63636,77.7272727 9567.27273,76.3636364 9563.63636,76.3636364 C9560.90909,76.3636364 9556.36364,76.8181818 9555,78.1818182 C9554.09091,79.0909091 9554.09091,80 9555,80.9090909 C9555.90909,81.3636364 9556.36364,82.2727273 9558.63636,82.7272727 C9560.90909,83.1818182 9561.36364,83.1818182 9561.36364,83.1818182 C9561.36364,83.6363636 9561.36364,85 9560.90909,85.4545455 C9560.90909,85.4545455 9560.90909,85.4545455 9560.90909,85.9090909 C9465,94.0909091 9386.36364,107.727273 9296.81818,108.181818 C9246.36364,108.181818 9192.27273,103.636364 9136.36364,97.7272727 L9136.36364,96.8181818 C9136.36364,96.8181818 9141.36364,96.3636364 9144.09091,94.5454545 C9146.81818,92.2727273 9149.09091,90.9090909 9148.63636,89.5454545 C9147.27273,86.8181818 9144.09091,84.5454545 9138.18182,84.0909091 C9133.18182,83.6363636 9124.54545,85 9122.27273,87.7272727 C9120.45455,89.5454545 9120.90909,90.9090909 9122.72727,92.7272727 C9124.09091,94.0909091 9125,95.4545455 9129.54545,96.3636364 C9133.18182,97.2727273 9134.54545,97.2727273 9134.54545,97.2727273 L9134.54545,98.1818182 C9110.45455,95.4545455 9086.36364,92.7272727 9062.27273,90 L9062.27273,87.7272727 C9062.27273,87.7272727 9066.36364,87.7272727 9068.63636,85.9090909 C9070.90909,84.0909091 9072.72727,83.1818182 9071.81818,81.8181818 C9070.90909,80 9068.18182,78.1818182 9063.63636,77.7272727 C9059.54545,77.2727273 9053.18182,78.1818182 9051.36364,80.4545455 C9050,81.8181818 9050,83.1818182 9051.36364,84.5454545 C9052.27273,85.4545455 9053.18182,86.8181818 9056.81818,87.2727273 C9060,87.7272727 9060.90909,88.1818182 9060.90909,88.1818182 L9060.90909,90.4545455 C9036.36364,87.7272727 9011.36364,85 8986.81818,82.7272727 L8986.81818,72.7272727 C8986.81818,72.7272727 8990,72.2727273 8992.27273,70.9090909 C8994.09091,69.5454545 8995.90909,68.6363636 8995.45455,67.2727273 C8994.54545,65.4545455 8992.27273,64.0909091 8988.18182,63.6363636 C8984.54545,63.1818182 8979.09091,64.0909091 8977.72727,65.9090909 C8976.36364,67.2727273 8976.81818,68.1818182 8977.72727,69.5454545 C8978.63636,70.4545455 8979.54545,71.3636364 8982.27273,71.8181818 C8985,72.2727273 8985.45455,72.2727273 8985.45455,72.2727273 L8985.45455,81.8181818 C8940.90909,77.7272727 8897.27273,75 8855.45455,75.4545455 C8785,76.3636364 8701.36364,83.6363636 8618.18182,91.8181818 L8618.18182,84.0909091 C8618.18182,84.0909091 8620.45455,84.0909091 8622.27273,82.7272727 C8623.63636,81.8181818 8625,80.9090909 8624.54545,80 C8623.63636,78.6363636 8622.27273,77.7272727 8619.09091,77.2727273 C8616.36364,77.2727273 8612.27273,77.7272727 8611.36364,79.0909091 C8610.45455,80 8610.45455,80.9090909 8611.36364,81.8181818 C8611.81818,82.2727273 8612.72727,83.1818182 8614.54545,83.6363636 C8616.36364,84.0909091 8616.81818,84.0909091 8616.81818,84.0909091 L8616.81818,92.2727273 C8594.09091,94.5454545 8571.81818,96.3636364 8549.54545,98.6363636 L8549.54545,98.1818182 L8549.54545,86.8181818 C8549.54545,86.8181818 8552.72727,86.3636364 8555,85 C8557.27273,83.6363636 8558.63636,82.2727273 8558.18182,81.3636364 C8557.27273,79.5454545 8555,77.7272727 8550.45455,77.7272727 C8546.81818,77.2727273 8540.90909,78.1818182 8539.09091,80 C8537.72727,81.3636364 8538.18182,82.2727273 8539.09091,83.6363636 C8540,84.5454545 8540.90909,85.4545455 8544.09091,86.3636364 C8546.81818,86.8181818 8547.27273,86.8181818 8547.27273,86.8181818 C8547.72727,87.7272727 8547.27273,98.1818182 8546.81818,99.0909091 C8477.72727,105.454545 8412.27273,110.909091 8357.27273,111.363636 C8195.90909,112.727273 8014.54545,78.1818182 7851.81818,82.7272727 C7740,85.9090909 7702.27273,120.454545 7627.27273,120.909091 C7564.54545,121.363636 7519.09091,112.272727 7471.36364,103.636364 C7332.27273,77.7272727 7338.18182,102.272727 7205.90909,106.818182 C7073.18182,111.363636 7001.81818,107.272727 6952.27273,101.363636 L6952.27273,100.454545 L6952.27273,83.6363636 C6952.27273,83.6363636 6957.27273,83.1818182 6960.45455,80.9090909 C6963.63636,78.6363636 6965.90909,77.2727273 6965,75.4545455 C6963.63636,72.7272727 6960.45455,70.4545455 6954.09091,70 C6948.63636,69.5454545 6940,70.9090909 6937.72727,73.6363636 C6935.90909,75.9090909 6936.36364,77.2727273 6938.18182,78.6363636 C6939.54545,80 6940.90909,81.3636364 6945,82.2727273 C6949.09091,83.1818182 6949.54545,83.1818182 6949.54545,83.1818182 C6950,84.0909091 6949.54545,96.8181818 6949.09091,100.454545 C6899.54545,94.5454545 6872.27273,87.7272727 6824.09091,86.8181818 C6764.09091,86.3636364 6706.81818,93.1818182 6635.45455,97.2727273 C6498.18182,105 6332.27273,113.181818 6170.45455,114.545455 C6069.54545,115.454545 6018.18182,83.1818182 5957.72727,83.6363636 C5884.54545,84.0909091 5874.09091,112.272727 5732.72727,113.181818 C5682.72727,113.181818 5646.81818,103.181818 5616.81818,97.7272727 C5590,92.7272727 5560.45455,93.6363636 5532.27273,98.1818182 C5508.18182,101.818182 5496.36364,106.818182 5479.09091,107.727273 C5409.54545,110 5379.09091,99.0909091 5355,88.6363636 C5348.18182,85.9090909 5340.90909,83.1818182 5334.54545,81.3636364 C5334.09091,80.9090909 5333.63636,80.4545455 5333.63636,79.5454545 L5333.63636,76.8181818 C5333.63636,76.8181818 5337.72727,76.3636364 5340.45455,74.5454545 C5342.72727,72.7272727 5344.54545,71.3636364 5344.09091,70 C5343.18182,67.7272727 5340.45455,65.9090909 5335,65.4545455 C5330.45455,65 5323.63636,65.9090909 5321.36364,68.1818182 C5320,70 5320,70.9090909 5321.36364,72.2727273 C5322.27273,73.1818182 5323.63636,74.5454545 5327.27273,75.4545455 C5330.45455,76.3636364 5331.81818,76.3636364 5331.81818,76.3636364 C5332.27273,77.2727273 5331.81818,79.0909091 5331.36364,80 C5300.90909,71.3636364 5270.90909,71.3636364 5219.09091,75.4545455 C5166.36364,79.5454545 5136.36364,89.5454545 5095.90909,94.0909091 C5044.09091,100 4982.27273,100.454545 4900.90909,100.909091 C4829.09091,101.363636 4696.81818,66.8181818 4626.36364,67.2727273 C4605.45455,67.2727273 4585,70 4566.36364,73.6363636 C4503.18182,85.4545455 4471.36364,90.9090909 4391.81818,79.0909091 C4336.36364,70.9090909 4270,58.6363636 4131.81818,71.3636364 C3942.72727,89.0909091 3954.54545,78.1818182 3759.09091,79.0909091 C3590.45455,80 3586.36364,122.727273 3444.09091,118.181818 C3385.90909,116.363636 3202.27273,77.2727273 3025,79.5454545 C2866.81818,81.3636364 2763.63636,107.727273 2638.18182,108.181818 C2503.18182,108.636364 2337.72727,73.6363636 2196.81818,75 C2047.27273,76.8181818 1837.27273,109.090909 1699.09091,110.454545 C1537.72727,111.818182 1356.36364,77.2727273 1193.63636,81.8181818 C1081.81818,85 1044.09091,119.545455 969.090909,120 C906.363636,120.454545 860.909091,111.363636 813.181818,102.727273 C674.090909,76.8181818 680,101.363636 547.727273,105.909091 C415,110.454545 343.636364,106.363636 294.090909,100.454545 L294.090909,99.5454545 L294.090909,82.7272727 C294.090909,82.7272727 299.090909,82.2727273 302.272727,80 C305.454545,77.7272727 307.727273,76.3636364 306.818182,74.5454545 C305.454545,71.8181818 302.272727,69.5454545 295.909091,69.0909091 C290.454545,68.6363636 281.818182,70 279.545455,72.7272727 C277.727273,75 278.181818,76.3636364 280,77.7272727 C281.363636,79.0909091 282.727273,80.4545455 286.818182,81.3636364 C290.909091,82.2727273 291.363636,82.2727273 291.363636,82.2727273 C291.818182,83.1818182 291.363636,95.9090909 290.909091,99.5454545 C241.363636,93.6363636 214.090909,86.8181818 165.909091,85.9090909 C105.909091,82.7272727 47.2727273,94.5454545 0.454545455,94.5454545 L0.454545455,122.272727 L6661.36364,122.272727 L6670.45455,122.272727 L13326.8182,122.272727 L13326.8182,113.181818 C13284.0909,103.636364 13204.5455,98.1818182 13157.2727,98.1818182 L13157.2727,98.1818182 L13157.2727,98.1818182 Z" id="bg" fill="#FFDEDE"></path>
                	        <g id="puzzle-1" transform="translate(26.000000, 29.000000)" fill="#FFFFFF">
                	            <path d="M22,63.7272727 C17.4545455,63.7272727 20.6363636,34.1818182 20.6363636,24.6363636 C16.5454545,25.0909091 10.1818182,26.9090909 3.36363636,31.9090909 C4.27272727,33.7272727 2.45454545,33.7272727 2,32.8181818 C2,32.8181818 0.63636364,33.7272727 0.18181818,32.8181818 C-0.27272727,31.9090909 1.54545455,31.4545455 1.54545455,31.4545455 C1.54545455,31.4545455 1.09090909,31 1.54545455,30.0909091 C2.45454545,29.6363636 2.90909091,30.5454545 3.36363636,30.5454545 C10.6363636,25.5454545 17,23.7272727 20.6363636,22.8181818 C20.6363636,22.8181818 20.6363636,22.8181818 20.6363636,22.3636364 C19.7272727,16.4545455 21.5454545,16.4545455 24.2727273,16.4545455 L34.7272727,16.4545455 C43.8181818,16.4545455 40.1818182,12.8181818 38.3636364,8.7272727 C36.5454545,4.63636364 43.8181818,-3.09090909 50.1818182,1.90909091 C53.3636364,4.18181818 53.3636364,6.4545455 52.4545455,8.2727273 C52.4545455,8.2727273 51.5454545,7.8181818 50.1818182,8.2727273 C48.8181818,8.2727273 49.2727273,10.0909091 49.7272727,10.5454545 C50.1818182,11 50.6363636,11 51.0909091,11 C50.1818182,12.3636364 48.8181818,13.7272727 48.8181818,15.0909091 C48.8181818,16.4545455 51.0909091,16.4545455 53.8181818,16.9090909 C59.2727273,16.9090909 68.8181818,16 68.8181818,16 L68.8181818,18.7272727 C70.1818182,18.2727273 71.0909091,17.8181818 72.4545455,16.9090909 C75.1818182,14.6363636 74.2727273,11.4545455 72,9.1818182 C70.6363636,8.2727273 69.2727273,7.3636364 67.9090909,6.4545455 C66.5454545,8.2727273 65.6363636,6.4545455 66.5454545,5.54545455 C66.5454545,5.54545455 65.1818182,4.63636364 66.0909091,4.18181818 C67,3.27272727 67.9090909,4.63636364 67.9090909,4.63636364 C67.9090909,4.63636364 68.3636364,3.72727273 69.2727273,4.18181818 C70.1818182,4.63636364 69.2727273,5.54545455 69.2727273,6 C72.4545455,8.2727273 75.6363636,10.0909091 76.0909091,13.2727273 C76.0909091,14.6363636 76.0909091,16 74.7272727,17.8181818 C73.8181818,19.6363636 71.0909091,20.5454545 69.2727273,21.4545455 C69.2727273,26 69.2727273,32.3636364 68.8181818,34.6363636 C67.9090909,38.7272727 60.6363636,28.2727273 56.0909091,35.5454545 C51.5454545,42.8181818 59.7272727,46.9090909 64.7272727,44.1818182 C70.1818182,41.4545455 67.9090909,57.3636364 68.8181818,61.4545455 C65.6363636,61.9090909 62.4545455,62.3636364 59.2727273,62.8181818 L60.1818182,71 L60.1818182,80.0909091 C60.1818182,80.0909091 62,80.0909091 62.9090909,81.4545455 C63.8181818,82.8181818 58.8181818,81.9090909 58.8181818,81.4545455 C58.8181818,81 59.2727273,77.8181818 58.8181818,71 C58.8181818,67.8181818 58.3636364,65.0909091 57.9090909,62.8181818 C51.0909091,63.7272727 44.2727273,63.7272727 37.9090909,64.1818182 L38.8181818,71.4545455 L38.8181818,80.5454545 C38.8181818,80.5454545 40.6363636,80.5454545 41.5454545,81.9090909 C42.4545455,83.2727273 37.4545455,82.3636364 37.4545455,81.9090909 C37.4545455,81.4545455 37.9090909,78.2727273 37.4545455,71.4545455 C37.4545455,68.7272727 37,66 36.5454545,64.1818182 C29.2727273,64.1818182 24.2727273,63.7272727 22,63.7272727 L22,63.7272727 L22,63.7272727 Z" id="Shape"></path>
                	        </g>
                	        <g id="puzzle-2" transform="translate(1477.454545, 26.000000)" fill="#FFFFFF">
                	            <path d="M40.3636364,64.0909091 C39.9090909,65.9090909 39.4545455,68.6363636 39.4545455,71.3636364 C39,78.6363636 39.4545455,81.3636364 39.4545455,81.8181818 C39,82.2727273 34.4545455,83.1818182 35.3636364,81.8181818 C36.2727273,80.4545455 38.0909091,80.4545455 38.0909091,80.4545455 L38.0909091,71.3636364 L39,64.0909091 C33.0909091,64.0909091 25.8181818,63.6363636 19,62.7272727 C18.5454545,64.5454545 18.0909091,67.7272727 18.0909091,70.9090909 C17.6363636,78.1818182 18.0909091,80.9090909 18.0909091,81.3636364 C17.6363636,81.8181818 13.0909091,82.7272727 14,81.3636364 C14.9090909,80 16.7272727,80 16.7272727,80 L16.7272727,70.9090909 L17.6363636,62.7272727 C14.4545455,62.2727273 11.2727273,61.8181818 8.09090909,61.3636364 C9,57.2727273 6.72727273,41.3636364 12.1818182,44.0909091 C17.6363636,46.8181818 25.8181818,42.7272727 20.8181818,35.4545455 C16.2727273,28.1818182 9,38.6363636 8.09090909,34.5454545 C7.63636364,32.2727273 7.63636364,25.9090909 7.63636364,21.3636364 C5.81818182,20.4545455 3.09090909,19.5454545 2.18181818,17.7272727 C0.81818182,15.9090909 0.81818182,14.5454545 0.81818182,13.1818182 C1.27272727,10 4.90909091,8.18181818 7.63636364,5.90909091 C7.63636364,5.45454545 6.72727273,4.54545455 7.63636364,4.09090909 C8.54545455,3.63636364 9,4.54545455 9,4.54545455 C9,4.54545455 9.9090909,3.18181818 10.8181818,4.09090909 C11.7272727,5 10.3636364,5.45454545 10.3636364,5.45454545 C11.2727273,6.36363636 10.3636364,8.18181818 9,6.36363636 C7.63636364,7.27272727 6.27272727,8.18181818 4.90909091,9.09090909 C2.63636364,11.3636364 1.27272727,14.5454545 4.45454545,16.8181818 C5.36363636,17.7272727 6.72727273,18.1818182 8.09090909,18.6363636 L8.09090909,15.9090909 C8.09090909,15.9090909 17.6363636,16.8181818 23.0909091,16.8181818 C25.8181818,16.8181818 28.0909091,16.8181818 28.0909091,15 C28.0909091,13.6363636 26.7272727,12.2727273 25.8181818,10.9090909 C26.2727273,10.9090909 26.7272727,10.9090909 27.1818182,10.4545455 C27.6363636,10 27.6363636,8.18181818 26.7272727,8.18181818 L24.4545455,8.18181818 C23.5454545,6.36363636 23.5454545,4.09090909 26.7272727,1.81818182 C33.5454545,-3.63636364 40.3636364,4.54545455 38.5454545,8.63636364 C36.7272727,12.7272727 33.0909091,15.9090909 42.1818182,16.3636364 L52.6363636,16.3636364 C55.8181818,16.3636364 57.1818182,16.3636364 56.2727273,22.2727273 L56.2727273,22.7272727 C59.9090909,23.6363636 66.2727273,25.4545455 73.5454545,30.4545455 C74,30.4545455 74.4545455,29.0909091 75.3636364,30 C75.8181818,30.9090909 75.3636364,31.3636364 75.3636364,31.3636364 C75.3636364,31.3636364 77.1818182,31.3636364 76.7272727,32.7272727 C76.2727273,33.6363636 74.9090909,32.7272727 74.9090909,32.7272727 C74.4545455,33.6363636 72.6363636,33.6363636 73.5454545,31.8181818 C66.7272727,26.8181818 60.3636364,25.4545455 56.2727273,24.5454545 C56.2727273,33.6363636 59.4545455,63.1818182 54.9090909,63.6363636 C53.0909091,63.6363636 47.6363636,63.6363636 40.3636364,64.0909091 L40.3636364,64.0909091 L40.3636364,64.0909091 Z" id="Shape"></path>
                	        </g>
                	        <g id="puzzle-3" transform="translate(2877.454545, 25.727273)">
                	            <path d="M85.8181818,46.0909091 C85.8181818,46.0909091 84.9090909,35.1818182 84.4545455,32 C84,29.2727273 81.2727273,34.2727273 77.1818182,32.9090909 C73.0909091,32 71.7272727,23.3636364 80.3636364,24.2727273 C87.1818182,25.1818182 84.4545455,23.8181818 84,17.9090909 C85.8181818,19.2727273 89,22 91.2727273,26.0909091 C90.3636364,27 91.2727273,27 91.7272727,27 C91.7272727,27 92.1818182,27.9090909 92.6363636,27.4545455 C93.0909091,27 92.1818182,26.5454545 92.1818182,26.5454545 C92.1818182,26.5454545 92.6363636,26.5454545 92.6363636,25.6363636 C92.6363636,25.1818182 91.7272727,25.6363636 91.7272727,25.6363636 C89,20.6363636 85.8181818,17.9090909 84,17 L84,15.1818182 C84.4545455,10.6363636 83.0909091,10.6363636 80.8181818,11.0909091 C78.5454545,11.5454545 76.2727273,11.5454545 72.6363636,12 C65.8181818,12.4545455 68.5454545,9.7272727 69.4545455,6.54545455 C70.3636364,3.36363636 64.4545455,-2.09090909 59.9090909,2.45454545 C55.3636364,7 61.7272727,8.8181818 62.1818182,12.4545455 C62.1818182,13.8181818 60.8181818,13.8181818 58.5454545,14.2727273 C54.4545455,14.7272727 47.1818182,14.7272727 47.1818182,14.7272727 C47.1818182,14.7272727 47.1818182,16.0909091 47.6363636,18.3636364 L47.1818182,18.3636364 C44.9090909,18.3636364 40.3636364,18.8181818 34,21.5454545 C34,21.5454545 33.5454545,20.6363636 33.0909091,21.0909091 C32.6363636,21.5454545 33.0909091,22 33.0909091,22 C33.0909091,22 32.1818182,22 32.1818182,22.9090909 C32.1818182,23.8181818 33.0909091,22.9090909 33.0909091,22.9090909 C33.5454545,23.8181818 34.4545455,23.8181818 34,22.4545455 C39.9090909,19.7272727 44.9090909,19.7272727 47.1818182,19.7272727 L47.6363636,19.7272727 C48.0909091,22.9090909 48.5454545,27 49,28.3636364 C49.9090909,31.0909091 54.9090909,22.9090909 59,27.9090909 C63.0909091,32.9090909 57.1818182,36.5454545 53.0909091,35.1818182 C49,33.3636364 51.2727273,45.1818182 50.8181818,48.3636364 C54,48.8181818 57.6363636,48.8181818 60.8181818,48.8181818 L60.3636364,54.2727273 L60.3636364,60.1818182 C60.3636364,60.1818182 59,60.1818182 58.5454545,61.0909091 C58.0909091,62 61.2727273,61.5454545 61.2727273,61.0909091 L61.2727273,54.2727273 C61.2727273,52 61.7272727,50.1818182 62.1818182,48.8181818 C66.7272727,48.8181818 71.2727273,48.3636364 74.9090909,48.3636364 C75.3636364,49.7272727 75.3636364,51.5454545 75.8181818,53.3636364 C76.2727273,57.9090909 75.8181818,59.7272727 75.8181818,60.1818182 C75.8181818,60.6363636 79,61.0909091 78.5454545,60.1818182 C78.0909091,59.2727273 76.7272727,59.2727273 76.7272727,59.2727273 L76.7272727,53.3636364 L76.2727273,48.3636364 C80.3636364,47 84.4545455,46.0909091 85.8181818,46.0909091 L85.8181818,46.0909091 L85.8181818,46.0909091 Z" id="Shape" fill="#9292A5"></path>
                	            <path d="M15.3636364,53.3636364 C15.8181818,56.0909091 32.6363636,52.4545455 41.7272727,51.0909091 C40.8181818,53.3636364 39.4545455,57 35.8181818,60.6363636 C34.9090909,59.7272727 34.9090909,61.0909091 35.3636364,61.5454545 C35.3636364,61.5454545 34.4545455,62 35.3636364,62.4545455 C35.8181818,62.9090909 36.2727273,62 36.2727273,62 C36.2727273,62 36.7272727,62.4545455 37.1818182,62 C37.6363636,61.5454545 37.1818182,61.0909091 37.1818182,61.0909091 C41.2727273,57 42.6363636,52.9090909 43.5454545,51.0909091 C44.9090909,50.6363636 46.2727273,50.6363636 47.1818182,50.6363636 C51.7272727,50.6363636 51.2727273,49.7272727 51.2727273,47.4545455 C50.8181818,45.1818182 50.8181818,42.9090909 50.3636364,39.7272727 C49.4545455,32.9090909 52.6363636,35.1818182 55.3636364,36.0909091 C58.5454545,37 63.5454545,31.0909091 59,26.5454545 C54.4545455,22 52.6363636,28.8181818 49,28.8181818 C48.0909091,28.8181818 47.6363636,27.4545455 47.1818182,25.1818182 C46.7272727,21.0909091 46.2727273,13.8181818 46.2727273,13.8181818 C46.2727273,13.8181818 43.0909091,14.2727273 39.4545455,14.7272727 C39.4545455,14.7272727 39,14.7272727 39,14.2727273 C37.1818182,13.3636364 33.5454545,11.5454545 27.1818182,11.0909091 C27.1818182,11.0909091 27.1818182,10.1818182 26.7272727,10.1818182 C26.2727273,10.1818182 26.2727273,10.6363636 26.2727273,10.6363636 C26.2727273,10.6363636 25.3636364,10.1818182 25.3636364,10.6363636 C24.9090909,11.0909091 26.2727273,11.0909091 26.2727273,11.0909091 C26.2727273,12 27.1818182,12.4545455 27.1818182,11.0909091 C32.1818182,11.5454545 35.8181818,12.9090909 38.0909091,14.2727273 C35.8181818,14.7272727 33.5454545,15.1818182 32.6363636,15.1818182 C29.9090909,16.0909091 38.0909091,20.6363636 33.5454545,24.7272727 C28.5454545,28.8181818 24.4545455,23.3636364 26.2727273,18.8181818 C27.6363636,14.7272727 16.2727273,17.9090909 13.0909091,17.4545455 C12.6363636,22.9090909 13.0909091,29.2727273 13.5454545,34.7272727 C11.2727273,35.6363636 9.4545455,35.1818182 6.72727273,33.3636364 C4.45454545,32 3.09090909,30.6363636 2.18181818,30.1818182 C3.54545455,29.7272727 3.54545455,27.4545455 2.63636364,27.9090909 C2.18181818,27.9090909 1.72727273,28.8181818 1.27272727,29.2727273 C0.81818182,30.1818182 0.81818182,29.7272727 1.27272727,30.6363636 C2.18181818,31.5454545 5.36363636,33.3636364 6.27272727,34.2727273 C8.54545455,35.6363636 11.2727273,36.5454545 13.5454545,36.0909091 C14,38.8181818 14,42 14.4545455,44.2727273 C9.4545455,45.6363636 8.54545455,49.2727273 8.09090909,53.3636364 L8.54545455,59.2727273 C8.54545455,59.2727273 7.63636364,59.2727273 6.72727273,60.1818182 C6.27272727,61.0909091 9.4545455,60.6363636 9.4545455,60.1818182 C9.4545455,59.7272727 9,57.9090909 9,53.8181818 C9.4545455,49.7272727 10.8181818,47.9090909 14.4545455,46.0909091 C14.4545455,50.1818182 14.9090909,52.4545455 15.3636364,53.3636364 L15.3636364,53.3636364 L15.3636364,53.3636364 Z" id="Shape" fill="#CCCCCC"></path>
                	            <path d="M67.1818182,3.81818182 C67.6363636,3.81818182 67.6363636,3.36363636 67.1818182,3.81818182 C67.6363636,2.90909091 67.1818182,2.90909091 67.1818182,2.90909091 L67.1818182,3.81818182 C66.7272727,3.81818182 66.7272727,3.81818182 67.1818182,3.81818182 L67.1818182,3.81818182 L67.1818182,3.81818182 Z" id="Shape" fill="#000000"></path>
                	            <path d="M60.3636364,4.72727273 C60.8181818,4.72727273 60.8181818,4.27272727 60.3636364,4.72727273 C60.8181818,3.81818182 60.3636364,3.81818182 60.3636364,3.81818182 C59.9090909,3.81818182 59.9090909,4.27272727 60.3636364,4.72727273 C59.9090909,4.72727273 60.3636364,4.72727273 60.3636364,4.72727273 L60.3636364,4.72727273 L60.3636364,4.72727273 Z" id="Shape" fill="#000000"></path>
                	            <path d="M56.2727273,27 C56.7272727,27 56.7272727,26.5454545 56.7272727,26.5454545 L56.2727273,26.0909091 C55.8181818,26.0909091 55.8181818,26.5454545 55.8181818,26.5454545 C55.8181818,26.5454545 55.8181818,27 56.2727273,27 L56.2727273,27 L56.2727273,27 Z" id="Shape" fill="#000000"></path>
                	            <path d="M56.7272727,32.4545455 C57.1818182,32.4545455 57.1818182,32 57.1818182,32 L56.7272727,31.5454545 C56.2727273,31.5454545 56.2727273,32 56.2727273,32 C56.2727273,32 56.2727273,32.4545455 56.7272727,32.4545455 L56.7272727,32.4545455 L56.7272727,32.4545455 Z" id="Shape" fill="#000000"></path>
                	            <path d="M54,29.2727273 L54,29.2727273 C54,29.7272727 54,29.7272727 54,29.2727273 L54,29.2727273 C53.0909091,29.7272727 53.0909091,29.2727273 52.6363636,28.8181818 C52.6363636,28.3636364 52.1818182,27.9090909 52.6363636,27.9090909 C52.6363636,27.4545455 52.6363636,27.4545455 53.0909091,27 C53.0909091,27 53.5454545,26.5454545 53.5454545,27 L53.5454545,27.4545455 L53.5454545,27.9090909 L53.5454545,28.8181818 C53.5454545,28.8181818 53.5454545,29.2727273 54,29.2727273 C53.5454545,29.2727273 53.5454545,29.2727273 54,29.2727273 L54,29.2727273 L54,29.2727273 Z" id="Shape" fill="#231F20"></path>
                	            <path d="M64.4545455,5.63636364 L64.4545455,5.63636364 C64.9090909,6.09090909 64.9090909,6.54545455 64.4545455,6.54545455 C64.4545455,6.54545455 64,7 63.5454545,7 L63.5454545,7 C63.0909091,7 62.6363636,7 62.6363636,6.54545455 C62.1818182,6.54545455 62.1818182,6.09090909 62.1818182,6.09090909 L62.1818182,5.63636364 L62.6363636,5.63636364 L63.0909091,6.09090909 L64,6.09090909 C64.4545455,6.09090909 64,6.54545455 64.4545455,5.63636364 C64,6.09090909 64.4545455,6.09090909 64.4545455,5.63636364 L64.4545455,5.63636364 L64.4545455,5.63636364 Z" id="Shape" fill="#231F20"></path>
                	        </g>
                	        <!-- <g id="puzzle-4" transform="translate(7077,454, 13.636364)">
                	            <path d="M41.9090909,15.9090909 C41.9090909,15.9090909 48.2727273,25.4545455 50.0909091,28.6363636 C51.9090909,31.3636364 46,29.0909091 43.2727273,32.7272727 C40.5454545,36.3636364 45.0909091,44.5454545 51.4545455,37.7272727 C57.3636364,32.2727273 54.6363636,35.9090909 61,43.1818182 C64.1818182,46.8181818 63.2727273,47.2727273 61,48.6363636 C58.7272727,50 56.9090909,51.3636364 54.1818182,53.1818182 C48.2727273,57.2727273 52.3636364,57.7272727 55.0909091,60 C57.8181818,61.8181818 56.4545455,70.4545455 50.0909091,69.5454545 C43.2727273,68.6363636 47.3636364,63.1818182 45.0909091,60 C44.1818182,59.0909091 42.8181818,60 41,60.9090909 C37.3636364,63.1818182 31.4545455,68.1818182 31.4545455,68.1818182 C31.4545455,68.1818182 31,67.7272727 30.5454545,66.8181818 C28.7272727,70.4545455 25.5454545,77.2727273 26,87.2727273 C28.2727273,87.7272727 26.9090909,89.0909091 26,89.0909091 C26,89.0909091 26.4545455,90.9090909 25.0909091,90.4545455 C24.1818182,90 24.6363636,88.6363636 24.6363636,88.6363636 C24.6363636,88.6363636 23.7272727,88.6363636 23.2727273,87.7272727 C23.2727273,86.8181818 24.6363636,86.8181818 24.6363636,86.8181818 C24.6363636,76.3636364 27.3636364,69.5454545 28.7272727,66.3636364 C28.7272727,65.9090909 29.1818182,65.4545455 29.6363636,65.4545455 C27.3636364,62.7272727 24.6363636,57.7272727 23.7272727,55.9090909 C22.3636364,52.7272727 31.9090909,56.8181818 31.9090909,50 C31.9090909,43.1818182 24.6363636,44.0909091 22.3636364,48.1818182 C20.0909091,52.2727273 14.1818182,40.9090909 11.9090909,38.6363636 C21.4545455,28.6363636 38.2727273,18.1818182 41.9090909,15.9090909 L41.9090909,15.9090909 L41.9090909,15.9090909 Z" id="Shape" fill="#FFFFFF"></path>
                	            <path d="M63.7272727,22.7272727 C61.4545455,22.2727273 62.8181818,20.9090909 63.7272727,20.9090909 C63.7272727,20.9090909 63.2727273,19.0909091 64.6363636,19.5454545 C66,20 65.0909091,21.3636364 65.0909091,21.3636364 C65.0909091,21.3636364 66,20.9090909 66,21.8181818 C66.4545455,22.7272727 64.6363636,22.7272727 64.6363636,22.7272727 C64.6363636,33.1818182 62.3636364,40.4545455 60.5454545,43.1818182 C59.6363636,45.4545455 56.9090909,45.9090909 58.7272727,43.1818182 C60.5454545,40.9090909 63.7272727,33.1818182 63.7272727,22.7272727 L63.7272727,22.7272727 L63.7272727,22.7272727 Z" id="Shape" fill="#FFFFFF"></path>
                	            <path d="M34.6363636,21.3636364 L31.4545455,11.8181818 L29.1818182,2.72727273 C29.1818182,2.72727273 27.3636364,3.18181818 26.4545455,2.27272727 C25.0909091,1.36363636 30.0909091,0.454545455 30.5454545,1.36363636 C31,1.81818182 31,4.54545455 33.2727273,11.3636364 C35.0909091,17.2727273 37.3636364,21.3636364 37.3636364,21.3636364 L34.6363636,21.3636364 L34.6363636,21.3636364 L34.6363636,21.3636364 Z" id="Shape" fill="#FFFFFF"></path>
                	            <path d="M19.1818182,34.0909091 L10.5454545,28.6363636 L3.27272727,23.1818182 C3.27272727,23.1818182 2.36363636,25 0.54545455,24.5454545 C-1.27272727,24.5454545 2.36363636,20.9090909 2.81818182,21.3636364 C3.27272727,21.3636364 5.54545455,23.6363636 11.4545455,27.2727273 C16.4545455,30.4545455 21,32.2727273 21,32.2727273 C21,32.2727273 20.0909091,33.1818182 19.1818182,34.0909091 L19.1818182,34.0909091 L19.1818182,34.0909091 Z" id="Shape" fill="#FFFFFF"></path>
                	            <path d="M52.3636364,65.9090909 C52.3636364,65.9090909 51.9090909,65.9090909 52.3636364,65.9090909 C51.9090909,66.3636364 52.3636364,66.8181818 52.3636364,66.8181818 C52.8181818,66.3636364 52.8181818,66.3636364 52.3636364,65.9090909 L52.3636364,65.9090909 L52.3636364,65.9090909 Z" id="Shape" fill="#000000"></path>
                	            <path id="Shape" fill="#000000" d="M47.3636364,67.2727273 L47.3636364,67.2727273 L47.3636364,68.1818182 L47.3636364,67.2727273 C47.8181818,67.7272727 47.8181818,67.2727273 47.3636364,67.2727273 L47.3636364,67.2727273 L47.3636364,67.2727273 Z"></path>
                	            <path d="M49.1818182,64.0909091 C49.6363636,64.0909091 50.5454545,63.6363636 50.5454545,63.1818182 C50.5454545,62.7272727 49.1818182,62.2727273 48.7272727,62.2727273 C48.2727273,62.2727273 47.8181818,63.6363636 47.8181818,64.0909091 C47.8181818,64.5454545 48.7272727,64.0909091 49.1818182,64.0909091 L49.1818182,64.0909091 L49.1818182,64.0909091 Z" id="Shape" fill="#000000"></path>
                	        </g> -->
                	        <g id="puzzle-5" transform="translate(5677.454545, 0.000000)">
                	            <path d="M23.3636364,73.6363636 C18.3636364,73.6363636 21.5454545,44.0909091 22,32.2727273 C17.9090909,30.9090909 11.0909091,27.2727273 2.90909091,19.5454545 C2.90909091,19.5454545 1.54545455,20.9090909 1.09090909,20 C0.63636364,19.0909091 1.54545455,18.6363636 1.54545455,18.6363636 C1.54545455,18.6363636 -0.27272727,18.1818182 0.63636364,16.8181818 C1.09090909,15.9090909 2.45454545,17.2727273 2.45454545,17.2727273 C3.36363636,16.3636364 5.18181818,16.8181818 3.81818182,18.6363636 C10.6363636,25.4545455 17.9090909,29.0909091 22,30.4545455 L22,28.1818182 C21.0909091,21.8181818 22.9090909,21.8181818 26.0909091,21.8181818 L37.9090909,21.8181818 C48.3636364,21.8181818 43.8181818,17.7272727 42,13.6363636 C40.1818182,9.54545455 48.3636364,0.454545455 56.0909091,6.36363636 C63.8181818,12.2727273 54.2727273,15.9090909 54.2727273,20.9090909 C54.2727273,22.7272727 56.5454545,22.7272727 59.7272727,22.7272727 C66.0909091,22.7272727 77,21.8181818 77,21.8181818 C77.4545455,25 77.4545455,27.7272727 77.9090909,30.4545455 C82,28.6363636 88.8181818,25.4545455 95.1818182,19.0909091 C93.8181818,17.2727273 95.6363636,16.8181818 96.5454545,17.7272727 C96.5454545,17.7272727 97.454545,16.3636364 98.363636,17.2727273 C98.818182,18.6363636 97,19.0909091 97,19.0909091 C97,19.0909091 97.909091,19.5454545 97.454545,20.4545455 C97,21.3636364 95.6363636,20 95.6363636,20 C88.3636364,27.2727273 81.5454545,30.9090909 77.4545455,32.2727273 C77.9090909,45.4545455 76.0909091,56.8181818 76.5454545,71.3636364 C72.4545455,72.2727273 67.4545455,72.7272727 62.9090909,73.1818182 L63.8181818,83.6363636 L63.8181818,94.5454545 C63.8181818,94.5454545 66.0909091,94.5454545 67,95.9090909 C67.9090909,97.7272727 62.4545455,96.8181818 62,95.9090909 C61.5454545,95.4545455 62.4545455,91.8181818 62,83.6363636 C61.5454545,79.5454545 61.0909091,75.9090909 60.6363636,73.6363636 C52.4545455,74.5454545 43.8181818,74.5454545 37,74.5454545 C36.5454545,76.8181818 36.0909091,80.4545455 35.6363636,85.4545455 C35.1818182,93.6363636 35.6363636,97.2727273 35.6363636,97.7272727 C35.1818182,98.1818182 29.7272727,99.0909091 30.6363636,97.7272727 C31.5454545,95.9090909 33.8181818,96.3636364 33.8181818,96.3636364 L33.8181818,85.4545455 L34.7272727,74.5454545 C29.2727273,74.0909091 25.1818182,73.6363636 23.3636364,73.6363636 L23.3636364,73.6363636 L23.3636364,73.6363636 Z" id="Shape" fill="#FFFFFF"></path>
                	            <path d="M46.0909091,9.09090909 C46.5454545,9.09090909 47,8.63636364 47,8.18181818 C47,7.72727273 46.5454545,7.72727273 46.0909091,7.72727273 C45.6363636,7.72727273 45.1818182,8.18181818 45.1818182,8.18181818 C45.1818182,9.09090909 45.6363636,9.09090909 46.0909091,9.09090909 L46.0909091,9.09090909 L46.0909091,9.09090909 Z" id="Shape" fill="#000000"></path>
                	            <path d="M52.4545455,9.54545455 C52.9090909,9.54545455 53.3636364,9.09090909 53.3636364,8.63636364 C53.3636364,8.18181818 52.9090909,8.18181818 52.4545455,8.18181818 C52,8.18181818 51.5454545,8.63636364 51.5454545,8.63636364 C52,9.54545455 52,9.54545455 52.4545455,9.54545455 L52.4545455,9.54545455 L52.4545455,9.54545455 Z" id="Shape" fill="#000000"></path>
                	            <path d="M49.2727273,13.6363636 L49.7272727,13.6363636 L49.7272727,14.0909091 C49.7272727,14.0909091 49.7272727,14.5454545 49.2727273,14.5454545 C48.8181818,14.5454545 48.8181818,15 48.3636364,15 L48.3636364,15 C47.9090909,15 47.4545455,15 47,14.5454545 C47,14.5454545 46.5454545,14.0909091 46.0909091,13.6363636 L46.0909091,13.1818182 L46.5454545,13.1818182 L47,13.6363636 L47.9090909,13.6363636 L49.2727273,13.6363636 L49.2727273,13.6363636 L49.2727273,13.6363636 Z" id="Shape" fill="#231F20"></path>
                	            <path d="M55.6363636,3.63636364 C55.6363636,3.63636364 53.3636364,2.72727273 48.8181818,3.18181818 C47.4545455,3.18181818 44.7272727,4.54545455 42.4545455,4.09090909 C41.5454545,4.09090909 39.7272727,3.18181818 39.7272727,1.81818182 C39.7272727,0.909090909 41.5454545,0.454545455 41.5454545,0.454545455 C40.1818182,1.81818182 41.5454545,2.72727273 42.9090909,3.18181818 C44.2727273,3.18181818 45.1818182,3.18181818 46.5454545,2.72727273 C50.6363636,1.81818182 52.9090909,2.27272727 55.6363636,3.63636364 L55.6363636,3.63636364 L55.6363636,3.63636364 Z" id="Shape" fill="#000000"></path>
                	        </g>
                	    </g>
                	</g>
                </g>
            </g>
        </g>
    </g>
</svg>
