<svg xmlns="http://www.w3.org/2000/svg" viewBox="0 0 1920 1080"><path fill-rule="evenodd" clip-rule="evenodd" fill="#E2C4B3" d="M1168.3-166l-7 161.8c3.3 7.2 22.1 20.3 25.1 30.5 2.1 7.2-4.8 11.7-2.7 20 .6 2.7-5.1 4.5-4.5 7.5.6 2.7 3 15.6 3.3 18.3 1.2 5.1 1.5 12.3 4.5 15 5.1 4.5 13.5 3.6 18.6 8.7 5.7 5.4 8.1 14.7 9.6 30.5.9 7.5-2.1 12.9-1.8 20 .3 3.9-6.6 7.5-6.3 11.4.3 6.9 17.4 11.4 25.4 13.8 20.3 6.6 45.5 1.5 52.7 1.8 17.7.6 16.2 10.8 29 13.5 43.1 9.9 49.7 32.3 48.2 38-.6 3.3-8.7 4.8-9.3 7.8-3 12-12.9 20.9-15.6 30.5-2.1 8.7 19.2 23.3 17.1 30.5-3 10.8-3.9 14.7-6.3 23-3.6 12.6 0 18.9-2.1 29.3-8.1 37.1-47 19.4-53.6 30.5-2.1 3.9 23.3 10.5 22.7 23.6-.3 7.5-.3 14.7-.3 21.8 0 6 .3 12.3.6 18.3 0 5.1.3 10.5.6 15.6.3 6.9 6.3 8.4 6.3 15.3.3 5.7.6 11.7.6 17.7 0 3 .3 6.3.3 9.6s-.3 6.9-.3 10.2c-.3 13.5-4.5 33.2-6.3 49.4-1.2 8.4-4.8 17.4-6.6 26.6-.6 3.9 4.8 6 4.5 9.9-.9 6-7.2 13.2-7.5 18.9-.3 6.6 2.7 7.8 3 14.7 0 6.9-2.4 19.2-.9 24.5 3.3 11.7 9.6 18.3 12 30.2 1.8 7.5-2.1 18.9-.9 26.6 1.8 10.2 5.7 20 4.8 31.7 0 1.5-4.5 4.5-4.8 6-.9 11.4-3.3 23.6-7.5 37.1-2.4 6.9-13.5 10.5-13.8 17.1-.6 7.5 1.5 10.8 3.3 18.9 1.2 6 7.2 13.2 7.5 20.6.6 9.6-4.8 20-9 29.6-3.6 8.4-22.7 18.6-32.9 30.5-4.8 5.4-2.4 14.1-5.1 18.3-.9 1.2-1.8 2.7-2.7 4.2-5.7 7.8-15.3 15.6-22.4 23.9-.9.9.6 3 0 3.6-4.5 5.1-8.7 9.9-12.9 14.4-8.7 9.9 6 19.4-5.7 29.3-7.8 6.6-43.4 13.2-52.4 19.7-12 9-9.6 17.7-24.5 26.3-10.5 6-39.5 12.3-51.5 18.6-5.7 2.7-24.4 140.3-37.9 148.4L2071 1206l15.6-1370.3-918.3-1.7z"/></svg>