<svg xmlns="http://www.w3.org/2000/svg" viewBox="0 0 1920 1080"><g class="ludek--2--down"><path fill="#F7DDD2" d="M1750 547.5s-214.8-3.5-229.1 3.5c-14.3 7-17.5 24.2-12.1 32.1 5.5 7.9 10.6 11.5 29.8 12.8 18.4 1.2 211.4-.4 211.4-.4v-48z"/><path fill="#84785B" d="M1529.7 568.9c2.8-4.9 3-9.7-.9-14-1.2-1.3-3.1.6-1.9 1.9 3 3.4 2.6 7 .5 10.7-.9 1.6 1.5 3 2.3 1.4zM1529.7 589c2.8-4.9 3-9.7-.9-14-1.2-1.3-3.1.6-1.9 1.9 3 3.4 2.6 7 .5 10.7-.9 1.6 1.5 3 2.3 1.4zM1548.2 581c3.4-6.9 3.8-13.6-1.1-19.8-1.1-1.4-3 .6-1.9 1.9 4.1 5.2 3.5 10.9.7 16.5-.8 1.6 1.5 3 2.3 1.4z"/></g><g class="ludek--3--down"><path fill="#F7DDD2" d="M752 256.7s132.4 2.2 141.2-2.2c8.8-4.3 10.9-14.9 7.5-19.8-3.4-4.9-6.6-7.1-18.4-7.9-11.3-.7-130.3.2-130.3.2v29.7z"/><path fill="#84785B" d="M887.9 243.5c-1.7 3-1.8 6 .6 8.6.7.8 1.9-.4 1.2-1.2-1.9-2.1-1.6-4.3-.3-6.6.5-.8-1-1.7-1.5-.8zM887.9 231.2c-1.7 3-1.8 6 .6 8.6.7.8 1.9-.4 1.2-1.2-1.9-2.1-1.6-4.3-.3-6.6.5-.9-1-1.8-1.5-.8zM876.5 236.1c-2.1 4.2-2.3 8.4.7 12.2.7.9 1.9-.3 1.2-1.2-2.5-3.2-2.2-6.7-.4-10.2.5-.9-1-1.7-1.5-.8z"/></g><path fill="#C49882" d="M1412.6 1187c6.6-6 30.5-122 43.7-131.3 4.2-3-6.3-9-.9-12.6 6.3-3.9 2.1-6.3 15.6-9.6 9.3-1.8 38-4.8 40.4-6.9 26-22.4-16.8-32.6-24.2-54.5-1.8-6.3-3.9-20.9-1.8-29.9.9-4.2 8.7-1.5 7.5-6.3-1.5-5.7-7.5-10.8-10.8-15.3-5.4-7.5-15.6-10.8-20.3-15.6-3.6-3.6-2.4-9.3-3.9-12.3-5.4-9 2.7-15.9 7.2-24.8 2.7-5.4.6-9.9 2.7-19.4 4.5-17.1-6.9-20.6-19.7-27.8-9.9-5.7-20.9-15.6-26.6-23.3-16.2-22.4 14.1-23.3-30.5-27.2-23.6-2.4-51.2-6.9-47.6-23.6 1.2-5.7 88-8.7 101.1-12 18.3-4.8 17.7-24.5 20.9-32 5.1-11.4-9-25.4-3.6-38.3 4.2-9.6 20.9-16.5 23-26.9 4.5-20.3 1.8-48.5-4.8-68.8-3.3-9.3-23.9-20-29.6-29-6-9.3-9.6-15.3-16.8-19.7-3.3-2.1-12.3-1.8-15.6-3.6-5.7-2.7-5.4-7.2-6.9-10.5-1.8-3.6 1.2-7.8-.6-10.8-.9-1.8-7.8-3.6-9-5.1-4.5-6.3-3-9.9 3-15.3 7.2-6.6 30.8-16.5 35.9-27.2 3-6.3-5.4-12.6-4.2-19.7.9-6.9 11.4-15 9-21.2-1.8-4.2-11.7-6.6-13.2-10.5-5.7-14.1-19.7-23.6-18.6-34.1.9-7.8-23-15.3-31.7-21.5-8.4-6.3 9.9-12.6 5.4-20.9-3.9-7.5 3.6-18.9 8.4-29 15-32.3-39.2-21.8-37.4-39.8.9-10.8-75.7-18.6-40.4-29 3.3-.9-1.5-6.6 7.8-8.1 20.3-3 63.4-2.7 87.7-5.7 21.2-2.7 41.6 1.5 54.5-2.1 111.6-29.6-18.6-34.7 50.3-36.8 32.3-1.2 208-8.7 283.7-3.9 85.9 5.4 257.3 27.9 309.4 32l.6 994-699.1-4.1z"/><g fill="#A57F6F"><path d="M1709.1 430.9c-6.3 1.5-34.7 7.8-96.1 10.8-70.3 3.3-81.1 0-81.1 0s19.4 4.8 56.9 3.9c18.9-.6 42.5-1.2 61.9-2.7s34.7-3.9 41.9-5.4c14.4-3.3 13.5-3 17.1-3.3 0-1.2 0-2.1-.6-3.3zM1358.1 252.6c8.4.6 17.1.9 22.1.6 11.4-.9 16.2-1.2 16.2-1.2s-10.5 3.6-25.4 3.3c-3.9-.3-8.1-.3-12-.6-.6-.6-.9-1.2-.9-2.1zM1345.3 242.1c10.2.6 25.1.9 35.9.6 18.6-.3 29.3.3 29.3.3s-17.7 3-43.1 2.1c-6.3-.3-11.7-.3-15.9-.6-1.7-.6-3.8-1.5-6.2-2.4zM1387.2 325c8.1.3 29.9 1.5 44.9.9 18.3-.3 29.3.3 29.3.3s-18 3-43.1 2.1c-20-.6-29.6-.6-32.6-.6.6-.9 1.2-1.8 1.5-2.7zM1380.3 334.3c10.5.6 69.7 2.7 93.1 2.1 26-.9 37.4-1.2 37.4-1.2s-24.5 3.6-58.9 3.3c-34.1-.3-71.8-1.5-71.8-1.5l-.3-.6c-.1-.6.2-1.5.5-2.1zM1591.8 293.3c-6.6 1.2-35.3 5.7-96.6 5.4-70.3-.6-81.1-4.5-81.1-4.5s19.2 6 56.6 6.9c18.9.6 42.5 1.2 62.2.9 19.4-.6 34.7-2.1 41.9-3.3 14.4-2.4 13.8-2.1 17.1-2.4.2-.9.2-2.1-.1-3zM1435.3 399.2c10.5.3 28.1.9 35 .3 9.9-.6 38.6 1.5 44.6 1.2s-12 1.5-24.8.9c-13.2-.9-27.8 0-43.4.6h-6.3c-1.5-1.2-3.3-2.1-5.1-3zM1532.9 1011.7s89.2 10.8 132 8.4c42.5-2.4 160.1-27.5 160.1-27.5s-69.4 14.1-104.7 16.5c-35.6 2.4-38.3 12-118.8 4.8-62.8-5.4-79.3-6.9-83.8-7.5l.3.6 14.9 4.7zM1486.8 617.3c26.3 2.1 69.1 4.5 86.5 1.8l25.4-3.9s-29 8.7-67.3 7.2c-13.5-.6-31.1-1.2-44.6-2.4v-2.7zM1484.1 639.2c14.4.6 32.6.6 55.7 0 70-2.1 80.8-6.3 80.8-6.3s-19.2 6.6-56.6 8.4c-18.6.9-42.5 2.1-61.9 2.1-7.2 0-14.1 0-20-.3.8-1.2 1.7-2.4 2-3.9zM1436.8 452.5c7.2.3 49.1 2.7 65.5 1.8 18.3-.6 26.3-.9 26.3-.9s-17.4 3.3-41.3 3c-24.2-.3-50.6-1.5-50.6-1.5l-.6-1.8c.1-.3.4-.3.7-.6zM1441 443.5c10.2.3 25.4.9 36.8.6 18.3-.3 29 .3 29 .3s-17.7 3-42.8 2.1c-10.5-.6-18-.6-23-.9v-2.1zM1590.6 601.8s28.1-3 45.8-7.5c18-4.5 29.6-8.4 29.6-8.4s-23 9.9-47.9 14.7c-24.8 4.8-26.6 3.9-26.6 3.9l-.9-2.7zM1458.7 545.2s81.4 2.7 137.3-.9l56.3-3.6s-15 2.7-64.6 5.7c-49.4 3.3-87.7 2.7-129.3 1.2-1.2-.9-2.1-1.5-2.7-2.4h3zM1491.6 938.7c17.1 0 89.8-.9 141.2-7.5l58.9-7.2s-15.6 4.2-67.6 10.5c-52.4 6.6-92.8 7.5-136.7 7.5h-2.1c.9-2.4 4.5-2.1 6.3-3.3zM1380 767.5c6.6 1.2 35.6 5.1 96.9 3.3 70-2.1 80.8-6.3 80.8-6.3s-19.2 6.6-56.6 8.4c-18.6.9-42.5 2.1-61.9 2.1-9 0-17.1-.3-23.6-.6-2.4-1.8-9-2.7-24.8-4.2-3.6-.3-7.2-.9-10.8-1.2v-1.5zM1348.6 756.8s73-.3 83.8 0 24.5 0 24.5 0-91.6 2.4-102.3 2.4c-10.5 0-6-2.4-6-2.4zM1737.9 933.9s-32.3 5.1-42.2 5.7c-9.9.3-38.3 6-44.3 6.3s12 .3 24.8-2.1c12.9-2.4 27.5-3 43.1-4.5 15.3-1.5 20-4.2 20-4.2l-1.4-1.2zM1575.4 990.5s-32.6 1.2-42.5.6c-6-.3-18.9.3-29.6.6l1.8 1.5c2.7 0 5.4 0 8.1-.3 12.9-.9 27.8.3 43.1.6 15.6.3 20.6-1.5 20.6-1.5l-1.5-1.5zM1410.2 494.6c8.4.9 29 2.4 38 1.8 11.1-.9 15.9-1.2 15.9-1.2s-10.5 3.6-25.4 3.3c-10.5-.3-21.8-.9-27.5-1.2 0-.9 0-1.5-.6-2.4-.1 0-.1 0-.4-.3z"/></g><path fill="#C49882" d="M732.9-115.4c3.6 5.4 4.6 126.5 1.3 134-3.3 7.8-1.2 15.9 7.2 23.3 3.9 3.6 33.5 2.4 38.6 5.4 4.5 3-8.1 8.4-3.6 10.8 7.5 3.6 40.7 8.1 56.9 9.6 3.3.3 20.9 2.4 30.5 1.2 12-1.2 16.5-6 21.2-5.7 23 .3 17.7 5.4 31.1 7.5 12.3 2.1 44.3.9 53 2.1 26.9 3.3 45.2 12.3 87.4 9 15.9-1.2 27.5 1.8 37.7 4.8 11.4 3 22.4-3.9 17.4 2.1 4.8 6-6.6 11.4-12.6 17.7-6.3 6-21.5 5.4-35.6 7.8-5.7.9-73.3 9.3-78.4 10.5-17.1 3 1.5 4.5-7.8 10.2-6.3 3.3-5.1 9.6-4.8 15 .3 7.5.3 15.3-11.7 25.7-4.2 3.6-27.5 5.7-39.2 7.5-15.3 2.4-19.2 4.2-20.9 7.5-3 5.4 27.8 14.1 38 22.7 6 4.8-5.7 9.9-7.2 13.8-3.3 9 5.4 18-13.2 33.8-3.3 2.7-28.7 6-35.9 9.3-11.7 5.4-35 11.4-42.5 17.7-8.4 6.9 27.8 16.5 22.1 22.7-21.5 22.7-38.9 41.3-43.7 57.2-8.4 26.6 46.7 48.2 13.5 70.3-5.7 3.6.3 10.5-14.7 14.1-14.7 3.6-50.6 4.2-55.4 8.1-18.6 13.8-28.4 27.2-26.6 38.9 2.1 15.3 15.9 27.8-18.6 35.6-10.2 2.4-42.2 3.6-55.4 4.8-13.2 1.5-7.8 2.7-26 3.9-28.7 1.8-71.8 3.9-84.1 7.8-9.9 3-30.5 14.1-27.8 18.6 1.5 2.1 35.6.6 40.1 2.4 7.2 2.7.9 5.1-3.6 7.8-3.6 2.4-4.2 5.1-11.4 6.6-9.9 1.8-5.7 10.8-22.4 14.4-26.6 5.7-76.3 6.6-94.3 7.5-42.5 1.8-484 16.2-544.8 16.2-101.7 0 5.2-546.6-20.8-733l867-7.2z"/><g fill="#A57F6F"><path d="M917.4 252.6s-23.9 1.8-73.3-.3-70.9-5.4-70.9-5.4 29.6 7.5 83.5 8.4c53.9.6 61.9 2.7 61.9 2.7l-1.2-5.4zM973 124.8s-85.6 2.1-144.5-3.6l-59.2-5.7s15.6 3.6 67.9 8.7c52.4 5.1 92.8 5.1 136.7 3.6h3.6c-.6-.9 0-1.8 3.9-2.7-4.5-.3-8.4-.3-8.4-.3zM975.1 132.6s-29 2.1-47.6 2.4c-18.6 0-29.3.9-29.3.9s18 2.7 43.1.9c25.4-1.5 33.5-1.5 33.5-1.5l.3-2.7zM972.1 142.8c-9.3.9-24.5 2.4-32 2.1-11.1-.3-16.2-.6-16.2-.6s10.8 3 25.4 2.4c8.4-.3 17.1-.9 22.7-1.5.1-.9.1-1.5.1-2.4zM903 194.5c-24.8-2.4-59.8-6-67.3-6.3-12-.3-26.9-2.7-26.9-2.7s76.3 10.5 103.8 14.1c-3.9-1.8-7.5-3.6-9.6-5.1zM918 183.5c-12.6-1.2-34.4-3.3-38.6-3.6-6.3-.3-13.8-1.2-13.8-1.2s28.7 3.9 45.8 6c1.8-.3 4.2-.9 6.6-1.2zM932.4 225.3c-5.4 0-17.7 0-30.2-.3-14.7-.3-28.7-2.1-28.7-2.1h38c5.1 0 14.7 0 23.6-.3-1 .9-2.1 1.8-2.7 2.7zM878.5 271.4c-9.3 1.2-26.9 3-35.3 2.7-11.1-.6-16.2-.9-16.2-.9s10.8 3.3 25.7 2.4c6-.3 12.3-.6 17.4-.9 3-1.2 5.7-2.1 8.4-3.3zM737 14.1c-21.2 3-64.6 8.1-137 8.7-110.1 1.2-126.6-4.5-126.6-4.5s37.1 7.2 95.5 7.8c58.6.6 123.3.6 155.3-5.1 3.6-.9 6.9-1.5 9.9-1.8l.3-.6c.5-1.5 1.4-3 2.6-4.5zM779.2 51.8c-15.6 2.1-38 4.2-68.5 5.7-70.3 3.3-81.1.3-81.1.3s19.4 4.8 56.9 3.6c18.6-.3 42.5-.9 61.9-2.4 10.5-.9 19.7-2.1 27.2-3 .6-1.2 2.4-2.7 3.6-4.2zM693.3 147.5s-10.8 2.1-71.2 1.2c-13.5 0-28.7 1.8-47.6 1.2-11.4-.3-18.9.9-28.7.6-80.8-3.3-120.3-12.9-120.3-12.9s55.7 15.9 132 16.2c76.2.6 135.8-6.3 135.8-6.3zM340.8 100.3s65.5 3 85.3 1.5c19.7-1.2 77.2 3 88.9 2.1 12-.6-23.6 3.3-49.4 1.8-26-1.8-55.7.3-86.5.9-30.8.9-41-3-41-3l2.7-3.3zM555.9 549.4s-36.2 1.5-47.3.9c-10.8-.9-42.8 1.5-49.4 1.2-6.6-.6 13.2 1.8 27.5.9 14.4-.9 30.8 0 47.9.6 4.5 0 8.4 0 11.4-.3 1.8-.6 3.6-1.5 5.1-1.8 1.5-.6 3-.9 5.1-1.2l-.3-.3zM529.9 561.4l-17.7-1.2s6 1.8 15.3 3c.9-.6 1.5-1.2 2.4-1.8zM545.8 587.1c-10.8.9-29.3 2.1-38 1.5-12.6-.9-18-1.2-18-1.2s11.7 3.9 28.1 3.6c8.4-.3 17.4-.6 23.9-1.2 1.3-1.2 2.2-2.1 4-2.7z"/></g></svg>