<?xml version="1.0" encoding="UTF-8" standalone="no"?>
<svg width="86px" height="86px" viewBox="0 0 86 86" version="1.1" xmlns="http://www.w3.org/2000/svg" xmlns:xlink="http://www.w3.org/1999/xlink" xmlns:sketch="http://www.bohemiancoding.com/sketch/ns">
    <!-- Generator: Sketch 3.3.1 (12005) - http://www.bohemiancoding.com/sketch -->
    <title>i1</title>
    <desc>Created with Sketch.</desc>
    <defs></defs>
    <g id="Page-1" stroke="none" stroke-width="1" fill="none" fill-rule="evenodd" sketch:type="MSPage">
        <g id="i1" sketch:type="MSLayerGroup" transform="translate(0.000000, -0.500000)" fill="#5C6773">
            <g id="9-Co-oznaczają-ponizsze-znaki" sketch:type="MSShapeGroup">
                <g id="ikona---2" transform="translate(0.000000, 0.145000)">
                    <path d="M42.962,0.885 L42.964,0.885 L42.964,0.893 C54.668,0.893 65.262,5.635 72.926,13.299 C80.589,20.962 85.329,31.554 85.331,43.257 L85.338,43.257 L85.338,43.263 L85.331,43.263 C85.33,54.967 80.588,65.561 72.924,73.225 C65.261,80.888 54.669,85.628 42.966,85.629 L42.966,85.637 L42.96,85.637 L42.96,85.629 C31.256,85.629 20.662,80.887 12.999,73.223 C5.335,65.56 0.595,54.968 0.594,43.265 L0.586,43.265 L0.586,43.259 L0.594,43.259 C0.594,31.555 5.336,20.961 13,13.298 C20.663,5.635 31.255,0.894 42.958,0.893 L42.958,0.885 L42.962,0.885 L42.962,0.885 Z M42.964,4.877 L42.964,4.885 L42.958,4.885 L42.958,4.877 C32.369,4.878 22.776,9.177 15.828,16.125 C8.878,23.075 4.578,32.669 4.578,43.259 L4.586,43.259 L4.586,43.265 L4.578,43.265 C4.579,53.853 8.878,63.447 15.826,70.396 C22.775,77.345 32.37,81.645 42.96,81.645 L42.96,81.637 L42.966,81.637 L42.966,81.645 C53.554,81.644 63.148,77.345 70.096,70.397 C77.046,63.447 81.346,53.853 81.346,43.263 L81.338,43.263 L81.338,43.257 L81.346,43.257 C81.345,32.669 77.046,23.075 70.098,16.127 C63.148,9.177 53.554,4.877 42.964,4.877 L42.964,4.877 L42.964,4.877 Z" id="Fill-1"></path>
                    <path d="M40.91,49.099 L45.471,49.099 C45.638,51.287 45.799,53.477 45.966,55.663 C46.133,57.85 46.295,60.038 46.457,62.225 L39.933,62.225 C40.095,60.038 40.257,57.85 40.419,55.663 C40.581,53.476 40.748,51.287 40.91,49.099" id="Fill-2"></path>
                    <path d="M52.4,49.099 L56.966,49.099 C57.628,51.287 58.288,53.477 58.952,55.663 C59.617,57.851 60.277,60.038 60.939,62.225 L54.414,62.225 C54.081,60.038 53.747,57.85 53.41,55.663 C53.072,53.477 52.738,51.287 52.4,49.099" id="Fill-3"></path>
                    <path d="M61.627,49.099 L66.193,49.099 C67.355,51.287 68.513,53.476 69.675,55.663 C70.838,57.85 71.995,60.038 73.153,62.225 L66.628,62.225 C65.795,60.038 64.964,57.851 64.128,55.663 C63.293,53.477 62.461,51.287 61.627,49.099" id="Fill-4"></path>
                    <path d="M31.683,49.099 L36.248,49.099 C35.915,51.287 35.577,53.476 35.243,55.663 C34.91,57.849 34.576,60.038 34.243,62.225 L27.719,62.225 C28.381,60.038 29.041,57.849 29.701,55.663 C30.361,53.476 31.025,51.287 31.683,49.099" id="Fill-5"></path>
                    <path d="M22.465,49.099 L27.021,49.099 C26.192,51.287 25.356,53.476 24.525,55.663 C23.695,57.849 22.863,60.038 22.029,62.225 L15.51,62.225 C16.672,60.038 17.828,57.849 18.987,55.663 C20.148,53.476 21.307,51.287 22.465,49.099" id="Fill-6"></path>
                    <path d="M39.805,14.48 C39.805,12.764 41.195,11.374 42.911,11.374 C44.626,11.374 46.016,12.764 46.016,14.48 C46.016,16.195 44.626,17.586 42.911,17.586 C41.195,17.586 39.805,16.195 39.805,14.48" id="Fill-7"></path>
                    <path d="M42.391,36.967 L47.54,45.933 L48.074,56.96 L50.323,56.948 L50.689,45.136 L46.595,35.901 L47.239,22.383 L49.186,27.638 L56.063,32.219 L57.067,30.952 L51.169,26.093 L48.648,19.469 L47.321,18.666 L37.911,18.295 L36.579,18.785 L31.022,25.892 L28.857,32.93 L30.416,33.358 L33.222,26.601 L37.732,21.51 L37.517,35.3 L35.846,46.157 L29.952,54.876 L31.777,56.189 L38.724,47.268 L41.184,37.063 L42.391,36.967" id="Fill-8"></path>
                </g>
            </g>
        </g>
    </g>
</svg>