<?xml version="1.0" encoding="UTF-8" standalone="no"?>
<svg width="86px" height="86px" viewBox="0 0 86 86" version="1.1" xmlns="http://www.w3.org/2000/svg" xmlns:xlink="http://www.w3.org/1999/xlink" xmlns:sketch="http://www.bohemiancoding.com/sketch/ns">
    <!-- Generator: Sketch 3.3.1 (12005) - http://www.bohemiancoding.com/sketch -->
    <title>i2</title>
    <desc>Created with Sketch.</desc>
    <defs></defs>
    <g id="Page-1" stroke="none" stroke-width="1" fill="none" fill-rule="evenodd" sketch:type="MSPage">
        <g id="i2" sketch:type="MSLayerGroup" transform="translate(0.000000, -0.500000)" fill="#5C6773">
            <g id="9-Co-oznaczają-ponizsze-znaki" sketch:type="MSShapeGroup">
                <g id="ikona---3" transform="translate(0.000000, 0.145000)">
                    <path d="M43.313,0.8 L43.315,0.8 L43.315,0.808 C55.019,0.808 65.613,5.55 73.277,13.214 C80.94,20.877 85.68,31.469 85.682,43.172 L85.689,43.172 L85.689,43.178 L85.682,43.178 C85.681,54.882 80.939,65.476 73.275,73.139 C65.612,80.803 55.02,85.543 43.317,85.544 L43.317,85.552 L43.311,85.552 L43.311,85.544 C31.607,85.544 21.013,80.802 13.35,73.138 C5.686,65.475 0.946,54.883 0.945,43.18 L0.937,43.18 L0.937,43.174 L0.945,43.174 C0.945,31.47 5.687,20.876 13.351,13.213 C21.014,5.55 31.606,0.809 43.309,0.808 L43.309,0.8 L43.313,0.8 L43.313,0.8 Z M72.505,18.266 L18.405,72.367 C25.111,78.098 33.81,81.56 43.311,81.56 L43.311,81.552 L43.317,81.552 L43.317,81.56 C53.905,81.559 63.499,77.26 70.447,70.312 C77.397,63.362 81.697,53.768 81.697,43.178 L81.689,43.178 L81.689,43.172 L81.697,43.172 C81.696,33.672 78.235,24.973 72.505,18.266 L72.505,18.266 L72.505,18.266 Z M15.501,69.615 L69.753,15.363 C62.865,8.813 53.556,4.792 43.315,4.792 L43.315,4.8 L43.309,4.8 L43.309,4.792 C32.72,4.793 23.127,9.092 16.179,16.04 C9.229,22.99 4.929,32.584 4.929,43.174 L4.937,43.174 L4.937,43.18 L4.929,43.18 C4.93,53.42 8.952,62.729 15.501,69.615 L15.501,69.615 L15.501,69.615 Z" id="Fill-1"></path>
                    <path d="M68.772,29.044 C67.314,30.827 65.488,31.829 63.149,32.369 C56.887,32.392 50.624,32.415 44.362,32.427 L44.364,32.439 L41.673,32.491 C38.013,30.23 34.737,26.728 32.231,23.248 C31.813,21.703 31.395,20.157 30.988,18.612 C30.162,19.247 28.525,21.322 27.909,22.051 C24.288,23.067 23.148,22.707 21.867,26.164 C21.577,27.21 21.286,28.256 21.007,29.301 C20.289,30.134 19.441,30.771 18.675,31.553 C16.907,33.358 16.949,34.621 20.194,36.68 C22.825,36.425 25.351,36.013 27.956,35.552 C29.107,39.477 31.729,43.821 30.636,47.978 C29.661,51.684 28.685,55.397 27.702,59.11 C26.645,63.105 31.724,64.302 32.779,60.295 C33.485,57.613 34.192,54.923 34.905,52.232 C35.435,50.234 37.577,50.204 38.058,52.22 C39.518,58.343 39.891,59.898 40.162,60.818 C41.151,64.182 45.874,63.044 45.106,59.394 L43.023,49.504 C46.115,49.192 49.748,48.694 52.802,48.702 L50.266,58.702 C48.861,63.628 54.016,64.794 55.123,60.567 C55.936,57.46 56.75,54.353 57.563,51.246 C58.083,49.261 59.834,49.423 60.306,51.296 C61.06,54.292 61.807,57.289 62.562,60.283 C63.643,64.576 68.801,63.34 67.515,58.814 C66.225,54.274 65.283,49.643 64.172,45.057 C63.963,39.119 63.963,39.119 63.986,36.168 C67.359,35.044 69.474,33.746 71.646,31.32 C74.145,28.528 71.119,26.174 68.772,29.044" id="Fill-2"></path>
                </g>
            </g>
        </g>
    </g>
</svg>