<?xml version="1.0" encoding="UTF-8" standalone="no"?>
<svg width="86px" height="86px" viewBox="0 0 86 86" version="1.1" xmlns="http://www.w3.org/2000/svg" xmlns:xlink="http://www.w3.org/1999/xlink" xmlns:sketch="http://www.bohemiancoding.com/sketch/ns">
    <!-- Generator: Sketch 3.3.1 (12005) - http://www.bohemiancoding.com/sketch -->
    <title>i4</title>
    <desc>Created with Sketch.</desc>
    <defs></defs>
    <g id="Page-1" stroke="none" stroke-width="1" fill="none" fill-rule="evenodd" sketch:type="MSPage">
        <g id="i4" sketch:type="MSLayerGroup" transform="translate(0.000000, -0.500000)" fill="#5C6773">
            <g id="9-Co-oznaczają-ponizsze-znaki" sketch:type="MSShapeGroup">
                <g id="ikona---6" transform="translate(0.000000, 0.855000)">
                    <path d="M39.703,25.087 L39.703,25.087 C48.939,25.087 56.426,31.146 56.426,38.62 C56.426,46.094 48.939,52.153 39.703,52.153 C38.816,52.153 37.946,52.097 37.096,51.989 C33.504,55.567 29.356,56.208 25.211,56.302 L25.211,55.426 C27.449,54.334 29.252,52.344 29.252,50.071 C29.252,49.754 29.227,49.442 29.181,49.137 C25.399,46.656 22.981,42.867 22.981,38.62 C22.981,31.146 30.467,25.087 39.703,25.087 L39.703,25.087 L39.703,25.087 Z M57.68,55.42 C57.68,57.369 58.945,59.074 60.885,60.011 L60.885,60.761 C57.292,60.68 53.994,60.131 50.882,57.064 C50.145,57.156 49.39,57.204 48.622,57.204 C45.296,57.204 42.232,56.307 39.786,54.799 C44.827,54.781 49.585,53.167 53.193,50.247 C55.012,48.774 56.447,47.048 57.458,45.114 C58.53,43.063 59.073,40.878 59.073,38.62 C59.073,38.256 59.058,37.894 59.029,37.534 C61.558,39.622 63.114,42.468 63.114,45.605 C63.114,49.245 61.019,52.494 57.741,54.62 C57.701,54.881 57.68,55.148 57.68,55.42 L57.68,55.42 L57.68,55.42 Z" id="Fill-2"></path>
                    <path d="M43.047,0.548 L43.049,0.548 L43.049,0.556 C54.754,0.556 65.347,5.298 73.011,12.962 C80.674,20.625 85.415,31.217 85.416,42.92 L85.424,42.92 L85.424,42.926 L85.416,42.926 C85.415,54.63 80.674,65.224 73.01,72.888 C65.346,80.551 54.754,85.291 43.052,85.293 L43.052,85.301 L43.045,85.301 L43.045,85.293 C31.341,85.292 20.747,80.55 13.084,72.886 C5.421,65.223 0.68,54.631 0.679,42.928 L0.671,42.928 L0.671,42.922 L0.679,42.922 C0.68,31.218 5.421,20.624 13.085,12.961 C20.748,5.298 31.341,0.557 43.043,0.556 L43.043,0.548 L43.047,0.548 L43.047,0.548 Z M43.049,4.54 L43.049,4.548 L43.043,4.548 L43.043,4.54 C32.455,4.541 22.862,8.84 15.913,15.789 C8.964,22.738 4.664,32.332 4.663,42.922 L4.671,42.922 L4.671,42.928 L4.663,42.928 C4.664,53.517 8.963,63.11 15.912,70.058 C22.861,77.008 32.456,81.308 43.045,81.308 L43.045,81.3 L43.052,81.3 L43.052,81.308 C53.64,81.307 63.233,77.008 70.182,70.06 C77.131,63.11 81.431,53.516 81.432,42.926 L81.424,42.926 L81.424,42.92 L81.432,42.92 C81.431,32.332 77.132,22.739 70.183,15.79 C63.234,8.84 53.639,4.54 43.049,4.54 L43.049,4.54 L43.049,4.54 Z" id="Fill-1"></path>
                </g>
            </g>
        </g>
    </g>
</svg>