<?xml version="1.0" encoding="UTF-8" standalone="no"?>
<svg width="86px" height="87px" viewBox="0 0 86 87" version="1.1" xmlns="http://www.w3.org/2000/svg" xmlns:xlink="http://www.w3.org/1999/xlink" xmlns:sketch="http://www.bohemiancoding.com/sketch/ns">
    <!-- Generator: Sketch 3.3.1 (12005) - http://www.bohemiancoding.com/sketch -->
    <title>i3</title>
    <desc>Created with Sketch.</desc>
    <defs></defs>
    <g id="Page-1" stroke="none" stroke-width="1" fill="none" fill-rule="evenodd" sketch:type="MSPage">
        <g id="i3" sketch:type="MSLayerGroup" transform="translate(0.000000, 0.500000)" fill="#5C6773">
            <g id="9-Co-oznaczają-ponizsze-znaki" sketch:type="MSShapeGroup">
                <g id="ikona---5" transform="translate(0.000000, 0.146686)">
                    <path d="M43.041,0.229639535 L43.043,0.229639535 L43.043,0.237732558 C54.747,0.237732558 65.341,5.03487209 73.005,12.7879884 C80.668,20.540093 85.409,31.2552558 85.41,43.0943372 L85.418,43.0943372 L85.418,43.100407 L85.41,43.100407 C85.409,54.9405 80.668,65.657686 73.003,73.4108023 C65.34,81.162907 54.748,85.9590349 43.046,85.9600465 L43.046,85.9681395 L43.039,85.9681395 L43.039,85.9600465 C31.335,85.9590349 20.741,81.1618953 13.078,73.4087791 C5.415,65.6566744 0.674,54.9415116 0.673,43.1024302 L0.665,43.1024302 L0.665,43.0963605 L0.673,43.0963605 C0.673,31.2562674 5.415,20.5390814 13.079,12.7869767 C20.742,5.03487209 31.335,0.238744186 43.037,0.237732558 L43.037,0.229639535 L43.041,0.229639535 L43.041,0.229639535 Z M43.043,4.26805814 L43.043,4.27615116 L43.037,4.27615116 L43.037,4.26805814 C32.449,4.26906977 22.856,8.61805814 15.907,15.6478605 C8.957,22.6776628 4.658,32.3832209 4.657,43.0963605 L4.665,43.0963605 L4.665,43.1024302 L4.657,43.1024302 C4.658,53.8145581 8.957,63.5191047 15.906,70.5478953 C22.855,77.5787093 32.45,81.9287093 43.039,81.9287093 L43.039,81.9206163 L43.046,81.9206163 L43.046,81.9287093 C53.634,81.9287093 63.227,77.5787093 70.176,70.5499186 C77.125,63.5191047 81.425,53.8135465 81.425,43.100407 L81.417,43.100407 L81.417,43.0943372 L81.425,43.0943372 C81.425,32.3832209 77.126,22.6786744 70.177,15.6488721 C63.228,8.61805814 53.633,4.26805814 43.043,4.26805814 L43.043,4.26805814 L43.043,4.26805814 Z" id="Fill-1"></path>
                    <path d="M53.362,47.1631047 C50.494,50.0644535 50.494,52.9658023 47.626,52.9658023 C44.758,52.9658023 41.891,50.0644535 39.023,47.1631047 C36.156,44.2617558 33.288,41.3614186 33.288,38.4600698 C33.288,35.5597326 36.156,35.5597326 39.023,32.6583837 C41.891,29.7570349 33.288,21.0550116 30.421,21.0550116 C27.553,21.0550116 21.818,29.7580465 21.818,29.7580465 C21.818,35.5597326 27.71,47.3219302 33.288,52.9658023 C38.866,58.6086628 50.494,64.5691744 56.229,64.5691744 C56.229,64.5691744 64.832,58.7674884 64.832,55.8661395 C64.832,52.9658023 56.229,44.2627674 53.362,47.1631047" id="Fill-2"></path>
                </g>
            </g>
        </g>
    </g>
</svg>