<?xml version="1.0" encoding="utf-8"?>
<!-- Generator: Adobe Illustrator 18.1.1, SVG Export Plug-In . SVG Version: 6.00 Build 0)  -->
<svg version="1.1" id="Warstwa_1" xmlns="http://www.w3.org/2000/svg" xmlns:xlink="http://www.w3.org/1999/xlink" x="0px" y="0px"
	 viewBox="0 0 1920 1080" enable-background="new 0 0 1920 1080" xml:space="preserve">
<g>
	<path d="M171.7,822.7c1.2,8.6,14.8,9.9,22.2,11.1c-1.2,0-1.2,0-2.5,1.2c-3.7,1.2-7.4,2.5-14.8,4.9c-3.7,0-7.4,1.2-11.1,1.2
		c-7.4,0-13.6-1.2-16-1.2c-3.7,0-1.2-9.9,6.2-23.4c2.5-3.7,4.9-8.6,7.4-13.6s4.9-11.1,8.6-16C169.2,800.5,171.7,814.1,171.7,822.7z"
		/>
	<path fill="#F6F6F6" d="M171.7,787c1.2-3.7,3.7-7.4,4.9-9.9c3.7-2.5,7.4-6.2,12.3-8.6c6.2-3.7,12.3-7.4,18.5-8.6
		c4.9-2.5,9.9-3.7,14.8-4.9c4.9,0,11.1-1.2,13.6-1.2c4.9,0,13.6,4.9,14.8,7.4c1.2,1.2,4.9-6.2,2.5-14.8c0-3.7-3.7-8.6-4.9-9.9
		c-3.7-7.4-4.9-16,0-23.4s6.2-6.2,9.9-6.2c3.7-1.2,8.4-0.5,11.1,6.2c7.5,18.8-8.6,22.2-8.6,22.2s8.6,23.4,8.6,30.8
		c0,7.4-6.2,19.7-7.4,24.6c0,1.2-1.2,6.2-3.7,9.9c-1.2,4.9-3.7,9.9-4.9,12.3c-2.5,1.2-4.9,3.7-7.4,7.4l0,0c-4.9,1.2-11.1,4.9-16,6.2
		c4.9,4.9,11.1,8.6,14.8,12.3c6.2,4.9,6.2,3.7,17.2,14.8c2.5,1.2,3.7,2.5,6.2,3.7c4.9,4.9-2.5,13.6-3.7,18.5l-9.9,27.1
		c0,3.7-2.5,9.9-4.9,11.1c-1.2,0-6.2-1.2-8.6-2.5c-1.2-1.2,4.9-1.2,6.2-2.5c1.2,0,2.5-1.2,3.7-3.7c0-2.5,1.2-9.9,2.5-12.3
		c2.5-4.9,3.7-9.9,7.4-22.2c3.7-11.1,3.7-9.9-2.5-14.8c-6.2-4.9-11.1-8.6-14.8-11.1c-8.6-7.4-14.8-12.3-19.7-14.8l0,0
		c-2.5-2.5-4.9-2.5-7.4-1.2c-4.9,4.9-3.7,6.2-3.7,14.8s1.2,24.6,1.2,34.5s0,7.4-1.2,30.8c0,23.4-1.2,49.3,0,50.5
		c2.5,1.2-7.4-2.5-7.4-2.5s3.7-4.9,3.7-29.6s-1.2-37-1.2-45.6c1.2-35.7-4.9-40.7-7.4-43.1c-1.2-2.5-2.5-4.9-2.5-6.2
		c-1.2-1.2-2.5-1.2-3.7,0c-6.2,0-20.9-1.2-20.9-9.9C171.7,814.1,169.2,800.5,171.7,787z"/>
	<path fill="#F39200" d="M265.4,709.6c0.1,3.7,0.3,9.9,4.1,13.5l41-33.2L265.4,709.6z"/>
	<path d="M257.9,716.7c-1.2,0-2.5-1.2-2.5-2.5c0-1.2,1.2-2.5,2.5-2.5c1.2,0,2.5,1.2,2.5,2.5C260.3,715.5,259.1,716.7,257.9,716.7z"
		/>
	<g>
		<path d="M331.2,939.9c0.8,5.8,9.9,6.6,14.9,7.4c-0.8,0-0.8,0-1.7,0.8c-2.5,0.8-5,1.7-9.9,3.3c-2.5,0-5,0.8-7.4,0.8
			c-5,0-9.1-0.8-10.7-0.8c-2.5,0-0.8-6.6,4.1-15.7c1.7-2.5,3.3-5.8,5-9.1c1.6-3.3,3.3-7.4,5.8-10.7
			C329.5,925.1,331.2,934.1,331.2,939.9z"/>
		<path fill="#F6F6F6" d="M331.2,916c0.8-2.5,2.5-5,3.3-6.6c2.5-1.7,5-4.1,8.3-5.8c4.1-2.5,8.3-5,12.4-5.8c3.3-1.7,6.6-2.5,9.9-3.3
			c3.3,0,7.4-0.8,9.1-0.8c3.3,0,9.1,3.3,9.9,5c0.8,0.8,3.3-4.1,1.6-9.9c0-2.5-2.5-5.8-3.3-6.6c-2.5-5-3.3-10.7,0-15.7
			s4.1-4.1,6.6-4.1c2.5-0.8,5,0,7.4,4.1s0,9.9,0,9.9l-5.8,5c0,0,5.8,15.7,5.8,20.6s-4.1,13.2-5,16.5c0,0.8-0.8,4.1-2.5,6.6
			c-0.8,3.3-2.5,6.6-3.3,8.2c-1.6,0.8-3.3,2.5-5,5l0,0c-3.3,0.8-7.4,3.3-10.7,4.1c3.3,3.3,7.4,5.8,9.9,8.3c4.1,3.3,4.1,2.5,11.6,9.9
			c1.6,0.8,2.5,1.7,4.1,2.5c3.3,3.3-1.6,9.1-2.5,12.4l-6.6,18.2c0,2.5-1.7,6.6-3.3,7.4c-0.8,0-4.1-0.8-5.8-1.6
			c-0.8-0.8,3.3-0.8,4.1-1.7c0.8,0,1.7-0.8,2.5-2.5c0-1.7,0.8-6.6,1.6-8.3c1.6-3.3,2.5-6.6,5-14.9c2.5-7.4,2.5-6.6-1.6-9.9
			c-4.1-3.3-7.4-5.8-9.9-7.4c-5.8-5-9.9-8.2-13.2-9.9l0,0c-1.6-1.7-3.3-1.7-5-0.8c-3.3,3.3-2.5,4.1-2.5,9.9s0.8,16.5,0.8,23.1
			s0,5-0.8,20.6c0,15.7-0.8,33,0,33.8c1.7,0.8-5-1.7-5-1.7s2.5-3.3,2.5-19.8s-0.8-24.8-0.8-30.5c0.8-23.9-3.3-27.2-5-28.9
			c-0.8-1.7-1.6-3.3-1.6-4.1c-0.8-0.8-1.6-0.8-2.5,0c-4.1,0-14-0.8-14-6.6C331.2,934.1,329.5,925.1,331.2,916z"/>
		<path fill="#F39200" d="M397.2,876.4c-2.5,0-6.6,0-9.1,2.5l21.5,28.1L397.2,876.4z"/>
		<path d="M392.2,870.6c-0.8,0-1.6-0.8-1.6-1.7s0.8-1.6,1.6-1.6c0.8,0,1.7,0.8,1.7,1.6S393,870.6,392.2,870.6z"/>
	</g>
	<g>
		<path fill="#3F3829" d="M496,1065.1c-0.3-0.6-0.6-1.1-0.9-1.5c0.1,0.6,0.3,1.1,0.4,1.5C495.7,1065.1,495.8,1065.1,496,1065.1z"/>
		<path fill="#3F3829" d="M245.3,936.9c0-0.3,0-0.6,0-0.8h-1.7c0,0.8,0.8,0.8,0.8,1.7C245.3,937.7,245.3,937.7,245.3,936.9z"/>
		<path fill="#3F3829" d="M520,1022.2c0.1-0.1,0.1-0.2,0.1-0.4C520.1,1022,520.1,1022.1,520,1022.2z"/>
		<path fill="#3F3829" d="M100.3,1033.5L100.3,1033.5C100.3,1033.6,100.3,1033.6,100.3,1033.5L100.3,1033.5z"/>
		<path fill="#3F3829" d="M506.8,942.7c0,0-0.8,0-1.7,0.8c0,0.8,0.8,1.7,1.7,3.3c0.8-1.7,1.7-2.5,1.7-5
			C508.5,941.9,507.7,942.7,506.8,942.7z"/>
		<path fill="#3F3829" d="M149.5,938.5c1.2,0.6,2.5,1.7,4.1,2.6c0.1-0.1,0.1-0.1,0.1-0.1c-1.7-0.8-2.5-2.5-4.2-3.3
			c-0.6-0.3-1.2-0.6-1.7-0.9v0.1L149.5,938.5z"/>
		<path fill="#3F3829" d="M516.6,1039.6c-0.3-2.4-1.1-5.5-2.3-8.6c-0.8-0.8-0.8-1.7-1.7-2.5l1.7,3.3L516.6,1039.6z"/>
		<path fill="#3F3829" d="M94.5,937c0.8,0,2.5,0,4.2,0l-4.2-1h-1.7c0.3,1,0.5,1,0.6,1C93.8,937,94.1,937,94.5,937z"/>
		<path fill="#3F3829" d="M552.6,1001.8c-1.7-0.8-3.3-1.7-4.2-2.5c-5,0-8.4-1.7-10.1-5.8c-1.7,0.8-2.4,0-3.4,0v-0.8l5.1-6.7
			c-1.7-1.7-2.5-2.5-3.3-3.3l-1.6,2.5l-2.4,4.2c-1.7-2.5-2.7-5.8-0.7-9.2c0-0.8,0-0.8,0-1.7c1,0.8,1.6,1.7,1.6,1.7s0.8,0,0.8-0.8
			c-3.3-4.2-5.9-8-8.4-12.2c0-0.8-0.9-2.2-0.9-2.2c-0.8,0-0.1,0-1.1,0c0-2,0-3.1,0-4.8c0,0,0-0.8,0-1.7c-3,0.8-3,0.8-4,0.8v-0.8
			c1-0.8,1.7-1.7,2.6-2.5c0,0-0.8,0-0.8-0.8c-1.7,0.8-2.5,1.7-3.3,2.5c-1.7,0.8-3.3,0.8-4.2,0c-0.8,0-1.7-0.8-1.7-0.8
			c-0.8-0.8-0.8-1.7-1.7-2.5l-1.7-1.7c-0.8-0.8-0.2-0.8-1.1-1.7l-0.2-0.8c0-0.8,0-0.8,0-1.7s0-0.8,0-1.7c-4,0-3.9,0-4.8-1.7
			c-0.8,0-2-1.7-2-3.3c-2.5,0-5.1,0-6-3.3c0,0-0.9-0.8-1.7-0.8c-0.8-0.8-0.9-0.8-1.7-0.8l1.6,1.2c0.8,0.8,0.8,2,1.6,2h-1.7
			c-1.7,0-2.5,0-3.3,0c1.7,2,2.5,1.3,3.3,1.3l0.8,1.1c0,0.8-0.8,1.8-0.8,3.5c-0.8,1.7-1.7,2.6-3.3,3.4c-0.8,0-1.5-1.6-2.3-1.6
			c-3.3,0-6.8-4.1-9.8-3.3v0.8c2,0.8,3.2,1.7,4.8,1.7c-0.8,0.8-2.6,0-3.4,0.8c-2.5,0-3.4,0-3.4-2.5s-1.2-3.3-3.7-1.7
			c-1.7,0.8-2.4,1.7-5.4,2.5v-0.8c0-0.8,4-0.8,4-1.7V936c1,0,3.3,0,5,0c0.8,0,2.5-0.8,2.5-1.6c-0.8-2.5,0.2-3.3,1.8-4.2
			c1.7-0.8,2.7-0.8,2.7-1.7v-0.8c-3,1.7-8.5,2.5-11.8,4.2c-2.5,1.7-3.8,0.8-5.5-0.8c-0.8-0.8-1.4-1.7-3.1-1.7c0,0-0.6-0.8-0.6-1.7
			c0,0,0,0,0-0.8c0-1.7,0-3.9,0-5.9h-3c0,3,0,5,0,8.4c-1-1.7-3.2-2.5-4-3.3c0.8,0.8,0.9,1.7,1.8,3.3c-1.7,0.8-4.3,2.5-6.8,3.3
			l-1-3.3c0-2.5,0-5,0-8.3c-1,3.3-0.7,6.6,0.2,10c0,1.7,0.2,4-1.5,5h0.8c-0.8,2-5,3.3-7.5,3.3c-1.7,0-3.3,0.8-5,0.8c0,0,0,0-0.8-0.8
			c0.8,0,2.5-0.8,3.3-2.5c-0.8,0.8-1.7,0.8-2.5,0.8c0-0.8,0.8-1.7,0.8-2.5l-0.8-0.8c-0.8,1.7-1.7,2.5-3.3,4.2
			c-0.8,0.8-2.5,0.8-4.2,0c1.7-2.5,4.2-4.2,5.8-5.8c0-0.8-0.8-0.8-0.8-1.7c-0.8,5.8-5.8,4.2-8.3,5.8c0-1.7,0-3.3,0.8-4.1
			c-0.8,0-2.5-0.8-3.3-0.8h-0.8l-7.5,3H406c-1.7,0-2.5,0-4.2,0h-3.3h-0.8h-0.8c1.7-4-0.8-2-2.5-2c-0.8-1.7-1.7-3.5-2.5-5.2
			c0,0.8,0,0.8-0.8,0.8c0.8,1.7,1.7,3.3,2.5,5.8c-0.8-0.8-2.5-0.9-3.3-0.9c0,0.8-0.8,1.7-0.8,1.7c-4.2,0.8-7.5,0.8-10,0
			c-1.7,0-3.3-1.7-5-2.5c-0.8-0.8-1.7,0-1.7,0c0,1.7,0.8,3.3,0.8,4.2c-0.8,0.8-2.5,0.4-4.2,0.4c-0.8,0-1.7-0.3-2.5-1.3
			c0,0,0,0-0.8,0c0.8,0,0.8,0,0.8,0c-1.7,0-3.9,0-4.9,0v0.9c-1,0.8-1.8,3.1-2.6,3.1h-0.8c-1.7-3-3.3-4-6.7-4h-6.7
			c-1.7,0-3.2,0.9-6.2,1.7c0-1.7,0-1.7,0-1.7h0.4c-0.8,0-0.8,0-1.7,0l-0.8,0.4c-0.8,0.8-2.5,1-3.3,1c0-0.8-0.8-1.5-1.7-1.5h-3.3
			c0,0-0.8,1.3-1.7,2.1c0,0-0.8,0.6-1.7,0.6c0,0-0.8,0.7-2.5,0.7c-0.8,0-2.5,0-4.2,0.8l-0.8,0.8c0-1.7,0.8-2.5,0.8-3.3
			c-0.8,0-1.7,0.8-2.5,0.8l-0.8,0.8c-0.8,0.8-0.8,0.8-1.7,0.8c0,0-0.6,0-1.5-0.8c0.8-0.8,1.9-0.8,1.9-1.7V936c0,0-0.4,0-1.3,0
			c-1.7,0-2.5,2.9-3.3,3.8c-0.8,0-0.8,0.2-1.7,1c0-0.8-0.8-1.9,0-2.7c0.8,0,0.8-1.1,1.7-1.1c-0.8,0-0.8,0-1.7,0
			c-4.2,3-9.2,1.2-13.3-0.5c-1.7-0.8-2.5-0.3-4.2-0.3c-0.8-0.8-1.7-0.3-2.5-0.3h-0.8c-0.8,0-1.7,0.4-2.5,0.4s-1.7,0.6-2.5,0.6
			c-0.8,0.8-3.3,0.7-4.2,0.7c-2.5-1.7-5.8-3.4-7.5-5.9c-1.7-1.7-3.3-3.4-5-4.2s-2.5-0.8-4.2-0.8c0.8-0.8,1.7-0.8,2.5-1.7
			c-0.8-0.8-1.7-1.7-2.5-1.7s-1.7,0.4-1.7,0.4c-0.8,2.5,2.5,7.1,5,7.1h0.8c3.3,1,6.7,3.8,7.5,6.3c-1.7,0-2.5,0.2-3.3,1.1
			c-1.7,0-3.3,1.3-4.2,2.1c-3.3,0.8-6.7-0.4-10-0.4c0,0-1.7,0-2.5,0c-1.7,0-2.4-0.3-3.2-1.2c-0.8-1.7-1.6-3.6-1.6-5.3
			c0-4.2,0-7.5,0-10.5h-1c0,3,0,5.5,0,9.7c0,1.7-2,2.5-2,4.2c0,0.6,0,1.1,0,1.7c-2,0-0.6-0.5-1.4,1.5c-0.8,0-1.7,0-1.7,0
			c0-2,0-3-0.8-4h2.5c-0.8,0-0.8-0.8-1.7-1.6c-0.8,0.8-1.7,1.7-3.3,3.3c0-1.7-0.8-2.8-0.8-4.5c-0.8-0.8-1.7-1.2-3.3-1.2
			c-0.8,0-2.5,0-4.2,0s-4.2,1.5-5.8,1.5c-2.5,0-5,1.5-8.3,1.5h-1.7l-1.7,1h0.8c-1.7,0-3.3,1.7-4.2,1.7c-0.8,0-2.5-1.7-3.3-1.7
			c-1.7,0-2.5,0-4.2,0h-0.8c-6.7,1-11.7,2.1-12.5,2.1c-5.8-1.7-12.5,1-19.2-2.3c-3.3-1.7-6.6-2.4-9.1-5.7c-0.8,0-2.4-0.7-2.4-0.7
			v0.8c3,2.5,6.6,5,9.9,7.5c-1.7,0.8-3.4,0.8-4.2,1.7c1.7,2.5,4.1,1.7,6.6,0c-0.8,1.7-1.7,3.3-2.5,5c0.8,0.8,1.7,0.8,3.3,1.7
			c-3.3,0.8-4.2-0.8-5.8-1.7c-2.5-1.7-3.3-5.8-7.5-4.2c0,0.8-0.8,0-1.7-0.8c0,0.8-0.8,1.7-0.8,2.5c-0.6-0.2-1.2-0.5-1.7-0.8
			c-0.1,0.1-0.3,0.3-0.8,0.8c-0.8-0.8-2.5-1.7-3.3-2.5c-1.7-0.8-3.3-1.7-5-2.5c0.8,0,0.8-0.8,0.8-0.8c1,0,1.7,0.6,2.5,1.1
			c0.1-0.8,0.8-1.1,0.8-2.1c-2.5,0-4.2,0-5.8,0c-1.7-3-3.3-2-5-2.8c-0.8,0-1.7-1.8-1.7-2.7c0.8-1.7,1.7-2.6,2.5-5.1
			c-4.2,0-4.2,2.5-5,5l-0.8-0.9c-2.5-0.8-5.8-1.7-6.7-5.8c-1.7,5,3.3,5.8,5,7.5c-4.2,5.8-9.2,9.2-15,0.8c0,2.5-0.8,4.2-0.8,5.8
			c1.3,0.7,2.1,1.3,2.8,1.6c0.2,0,0.3,0.1,0.5,0.1c-0.2,0-0.3,0-0.5-0.1c-3.3-0.6-7.9,0.7-10.3-3.2l-0.8,0.5
			c-2.5,1.7-5.8,1.3-8.3,1.3h6.3c0,1,0,3.2,0,3.2c-2,1.7-3.6,3.3-5.2,5c0,0,0.7,0,0.7,0.8c2.5-1.7,4.9-2.4,6.6-0.8
			c0.8,0.8,0.8,0.7,1.6,1.7H107c-1.7,0-5,0.8-7.5,0.8c0.8,1.7,1.7,2.5,2.5,3.3c0,0,0,0-0.8,0.8c-0.8-0.8-1.7-2.5-2.5-3.3
			c-2.5-2.5-3.3-6.2-4.2-9.5c-0.6-0.6-0.7-1-1.1-2c-0.4,0-0.5,0-0.5,0s0,0.1,0-0.1c0-1.9,0-2.8,0-5c-2,0.8-2,1.7-2,1.7v0.8
			c-1,0-0.8,0.8-0.8,0.8c0,1.7-0.2,3.3,0.8,4.2v1.7c0,0.8,0,0.8,0,1.7c0,0,0,0,0,0.8s-0.3,1.7-0.3,2.5c-0.8,0-1.8,0.9-1.8,0.9
			c-2.5,1.7-5.2,1.1-7.7,0.1c-0.8,0-3.2,0-4.2,0c0,1,0,0.7,0,1.5c5,0.8,7.5,0.8,12.5,1.7c-1.7,0.8-2.5,0.8-4.2,1.7
			c0.8,1.7,1.7,2.5,3.3,5c-2.5,0-5,0-6.7-0.8c0,0.8,0.8,0.8,0.8,0.8c-3.3,1.7-5.8,3.3-8.3,4.2c0,0.8,0.8,1.7,0.8,1.7
			c4.2-3.3,7.5-0.8,11.7-0.8c-7.5,3.3-7.5,3.3-7.5,5.8c0.8-0.8,0.8-1.7,1.7-2.5c0.8,1.7,2.5,3.3,3.3,5c-1.7-4.2,2.5-3.3,3.3-5
			c0,1.7-0.5,3.3-1.3,5c1.7,0,2.5,0.8,4.5,0.8v0.8c0-0.8,0-0.8,0-0.8c0,0.8,0,3,0,3s0.2,0-0.7,0c-0.8,0-1.7-0.7-2.5-0.7
			s-1.7,0.9-1.7,0.9c-0.8-0.8-1.7-2.5-1.7-4.1c0,2.5-5,5.9,0.8,8.4c-0.8,0-0.8,1.7-1.7,1.7c0,0-0.8,0-1.7-0.8
			c-0.8,1.7-0.8,3.3-1.7,5.8l8.3-0.8c-2.5,5-5.8,8.3-5,13.3c0.8-1.7,0.8-2.5,1.7-4.2c0,0.8,0.8,0.8,0.8,0.8c0.8-0.8,1.7-1.7,2.5-2.5
			c0.8,0,0,0.8,0.8,0.8c0,0.8,0.8,0.8,0.8,0.8c0.8,2.5,0.8,4.2,0,6.7c-0.8,0.8-0.8,0.8-0.8,1.7c-0.8,0.8-0.8,0.8-1.7,1.7
			c0,3.3-1.7,3.3-4.2,2.5s-5.8-0.8-8.3,0c0.8,3.3,3.3,4.2,6.7,4.2c-4.2,1.7-5,5-5.8,9.2c0.8-1.7,0.8-2.5,1.7-3.3
			c0.8,0.8,1.7,0.8,3.3,1.7c0.8-2.5,0.8-4.2,2.5-5.8c0-0.8,2.5-1.7,3.3-1.7c0,0,1.7,0.8,1.7,2.5c-0.8,1.7-0.8,3.3-1.7,5l1.2,0.8
			c0.8-2.5,1.8-4.2,2.8-5.8v0.8c0,1.7-1.2,3.3-2,5c-0.8,2.5-2.9,4.2-4.6,6.7c-1.7,3.3-2.4,6.7-5.4,9.2c0,0.8,0,0.8,0,0.8v0.8
			c0-0.8,1.1-1.7,1.1-2.5c0.8,0.8,1,0.8,1.8,0.8c-0.8,0.8-1,1.7-1.9,2.5l4,5v-0.8c0-3.3,0.5-6,1.3-10H87c0.8-1,1.7-2.9,2.5-5.4
			l0.8,1c0.8,0.8,1.7,0.9,2.5,1.8c-0.8-2.5-0.8-4.1,1.7-4.9c0.8,0.8,1.4,2.5,1.4,3.4c2.5,5,3.1,5-1.9,7.5c0,0.8,0,0.8,0,0.8
			c0,0.8-1.9,1.7-1.9,2.5c0,4.2-1.1,8.3-1.1,11.7c0,0.8,0,0.8,0,0.8c2-1.7,2.7-4.1,3.5-5.1h0.8c0,2-0.8,7.2-0.8,10.5l2.5,3.2
			c0.8-2.5,0-5.1,0-7.6c0.8-1.7,0.8-4.2,1.7-5.9c0.7-3.7,1.5-7.3,1.6-11.6c-0.8,2.5-1.6,4.9-1.6,6.5l-0.8,1.7
			c-1.7-2.5-1.7-5,0.8-6.7c0-0.8,0.8-0.8,1.6-1.6c0-0.6,0-1.1,0-1.7c0.8,0.8,0.9,1.7,1.7,2.5c0,0.8,0.9,0.8,0.9,2.5v0.8
			c-3,2.5,1.6,5,0.8,6.7c-0.8,0.8,0.8,2.5,1.6,3.3c0.8,0.8,1.6,2.5,1.6,3.3c0.8,0.8,0.8,1.7,0,1.7c0,1.7-0.8,2.5-1.7,3.3
			c-1.7,0.8-3.3,0.8-4.2,1.7c-0.8,0-1.7,0.8-2.5,1.7l3.3,4.8c0.8-2.5,1.7-3.1,5-6.1h0.8c0,3,0,1.1-0.8,1.9c-1.7,1.7-1.7,3.5-1.7,6
			l1.7,0.9l5,2.5c-0.8-4.2-1.7-9.1,0.8-13.3c0.8,0.8,0.8,0.8,1.6,1.7c0-0.8,1.6-1.7,1.6-2.5c0,2.5,0,4.2,0,5.8c-1,0-2.4,0.8-4.1,1.7
			c0,0,0.9,0,0.9,0.8c2.5-0.8,5.9-1.7,8.3-2.5c0.8-0.8,1.7-1.7,2.5-2.5c0.8,0,0.8,0.8,1.7,0.8c-0.8,1.7-0.8,3.3-2.5,4.2
			c-1.7,2.5-4.2,5-6.7,7.5l4.2,2.5c3.3-2.5,6.7-4.2,10-6.7c0.8,0.8,0.8,2.5,1.7,3.3c0-0.8,0.8-1.7,0.8-1.7c0.8,0,2.5,0.8,2.5,1.7
			c1.7,3.3,1.7,6.7,1.7,10c0,0.8,0,1.7,0,1.7l3.3,1.7c0-0.8,0.8-1.7,0.8-2.5c0.8-0.8,0.8-1.7,1.7-2.5c0.8-3.3,1.7-6.7,3.3-10.8
			c0,0,0,0,0.8,0.8c0,1.7-1.9,4.2,1.4,4.2l0.6,0.8v0.8c1,2.5,1.9,5,2.7,8.3c0.8,1.7,1.8,3.3,2.6,5.8c0.8,0.8,0.9,3.2,0.9,4l0.9,1.5
			h0.8c0,0,0.8-0.7,0.8,0.1l3.3,1.3c0-0.8-0.8-1.8-0.8-2.7c4.2,0.8,8.3,0.9,12.5,0.9c-3.3,1.7-5.8,2.3-8.3,4.3h1.7
			c2.5-2,5-1.9,7.5-2.7c0.8-0.8,1.6-0.1,2.4,0.7c1.7,1.7,3.9,3.2,4.9,4.9c0,0.8,0,2.5,0,3.3c-1,1.7-1.6,3.3-2.4,5
			c-0.8,0-0.8,0.8-1.6,1.7l3.3,3.9c0.8-2.5,1.7-4.9,2.5-6.9c0.8,0,0.8,0,0.8,0c1.7,6,3.4,10.5,3.4,14.6c0,0.8,0,0.8,0,0.8l2.9,3.3
			c1.7-2.5,3.5-5,5.2-7.5c0-0.8,0.9-1.7,1.8-2.5c1.7,1.7,3.4,3.3,4.2,5l0.9,0.8l4.2,3.3c2.5,2.5,5,5,7.5,8.3
			c0.8,0.8,0.8,2.5,0.8,3.3c-0.8,3.3-1.7,5.8-1.7,8.3l1.7,2.5l1.7-6.7l1.7-3.3l6.7,6.7l5.8,5.8l4.2,5l3.3,3.3l5.8,5.8l21.7,22.5
			c5.8,5.8,12.5,12.5,18.3,19.2c-0.8,0.8-1.7,1.7-2.5,1.7c1.7,0,2.5,0,3.3,0.8c1.7,0.8,1.7,1.7,2.5,2.5c0.8,0,0.8,1.7,0.8,2.5
			c0,0,0.8,0.8,0.8,1.7c0,0.8,0,1.7,0.8,3.3c0-1.7,0.8-2.4,0.8-3.3c0.8,0.8-1.2,321-0.4,322c4.2,0,15.6,0,19.8,0
			c1.7-3-2.7-323-1.9-323c0.8,0,0.8,0,1.7,0c0,0,1.6,0.9,1.6,1.7v-10c0-0.5-0.1-1.1-0.2-1.9c-0.3,0.3-0.8,0.5-1.4,1l-1.2,0.8
			c0-0.8-1.2-1.7-1.2-2.5s0-1.7,0-2.5c0,0,1.2-0.8,1.2-1.7l1-0.8c0.2-0.8,0.5-1.6,0.8-2.4c0-0.7,0-1.4-0.1-2.2
			c-0.2,0.4-0.8,0.8-1,1.3l-2,2.5v0.6c-1,0-1,0-1,0c0-2,0-2.3,0-3.9l1.3-4.2l1.9-5l0.4-1.2c-0.2-8.1,0-12.8,0.6-2.9l1.7-7.8
			c0.8-0.8,0.9-2,0.9-2c0.8,0,1.3,0,1.3,0c0-3,0-5.2,0-7.7c0-0.8,0.2-1.7,1-2.5c0-0.8,0.9-2.5,0.9-3.3c3.3,3.3,3.4,12.5,0.9,17.5
			c-0.8-0.8-0.8-0.8-0.8-1.7c0-0.8-0.8-1.7-0.8-2.5l-0.8-0.8c0,0.8,0.8,1.7,0.8,1.7c0.8,3.3,0.8,6.7,0,9.2c-0.8,1.7-1.7,3.3-2.5,5
			c0,1.7-0.8,3.3-1.7,4.2c0,0.6-0.1,1.1-0.3,1.7c0,0.7,0.1,1.4,0.1,2.1c0.7-1.7,1.4-3.3,1.8-4.7l2.5-4.2l0.8-2.5
			c0.8-2.5,1.7-4.2,2.5-5.8l1-1.7l-0.6,0.8v-0.8c1-5,0.6-9.2-0.2-14.2c0-1.7-0.9-4.2-0.9-5.8c-0.8-3.3-0.9-5.8,0.8-9.2
			c0.8-0.8,1.6-1.7,3.3-3.3l0.8-0.8c0.8-0.8,1.7-1.7,2.5-2.5l1.7-0.8l0.8-0.8c2.5,5,5.8,9.2,2.5,15c-0.8,1.7,1.7,6.1,3.3,7.8
			c1.7,1.7,2.5,2.8,2.5,2.8h0.8c1.7,0,2.5-1.1,1.7-2.8c0-0.8,0-2.6-0.8-3.5c0-0.8-0.8-1.7-0.8-1.7c-1.7-3.3-1.7-5-0.8-10l0.8,0.8
			c0.8,2.5,2.5,5,3.3,7.5c1.7,1.7,2.5,4.2,4.2,6.7c3.3,3.3,0.8,5.8-1.7,8.3l-2.5,2.5l-3.3,4.2l-3.3,2.5l-6.7,8.3l-1.7,1.7l-2.5,2.5
			l-4.2,5l-2.5,2.5l-0.8,1.7l-2.5,1.7l-1.7,2.5v2.5c1,1.4,0.6,2.1,0.9,1.7l0.9-1.7l2.5-1.7l0.8-1.7l2.5-2.5l4.2-5l2.5-2.5l1.7-1.7
			l6.7-7.5l3.3-3.3l3.3-4.2c6.7-6.7,12.5-13.3,18.3-20l4.2-4.2l4.2-5l2.5-2.5c0-0.8,1.7-1.7,2.5-2.5c1.7,2.5,3.3,5,4.2,7.5
			c0.8,0.8,2.5,0.8,3.3,0.8c0-0.8,0.8-1.7,0.8-2.5c-0.8-2.5-2.5-4.2-4.2-5.8c-0.8-1.7-1.7-3.3,0.8-5.8c4.2-3.3,7.5-8.3,11.7-11.7
			c0.8-1.7,2.5-1.7,4.2-2.5c0-0.8,0.8-1.7,0.8-1.7c0.8-3.3,2.5-4.2,4.2-5.8c0-0.8,0-0.8,0.8-0.8c0-0.8,0-0.8,0.8-0.8l2.5,3.3
			l6.7,8.3c-1.7-3.3-3.3-6.7-5.8-9.2c0-1.7-0.8-1.7-0.8-2.5c-0.8-1.7-0.8-2.5,0-3.3c0-0.8,1.2-0.8,2.8-2.5
			c3.3,4.2,5.3,7.5,10.3,11.7v-2.5c-4-2.5-5.3-6.7-7.8-10c-0.8-0.8-1-2.5,1.5-1.7c2.5,0,4.1,0.8,5.8,1.7c2.5,1.7,4.1,3.4,5,6.8
			c0,0.8-0.9,2.4-0.9,3.4h3.3h1.7c0.8-3,1.7-6.8,3.3-10.9c2.5,1.7,4.2,3.3,5,4.9c0.8,0.8,0.8,2.6,0.8,3.4c-0.8,0.8-1.7,1.6-2.5,2.6
			h2.5c0-1,1.7-1.8,1.7-3.4c0.8,0.8,0.8,0.8,0.8,0.8c0.8,0.8,1.7,0.9,2.5,1.7c0,0.8,0,0.9,0.8,0.9h1.7c-0.8,0-0.8-0.1-0.8-0.9
			c-0.8-0.8-1.7-1.7-2.5-3.4c0.8-0.8,0.8-0.9,1.7-1.7c0-0.8-0.8-0.8-0.8-0.8c0-0.8,0.2-0.8-0.7-0.8c0-0.8,1-0.8,1-1.7
			c0-0.8,0-0.8,0-1.7c-1,2.5-2.4,2.5-4.9,0.8c-0.8-0.8-2.1-1.7-4.1-3.3c0,0,0-1.7,0-2.5l0.6-0.8c4.2,0,8.2-0.8,11.5,1.7
			c-0.5,0.5-0.8,1.1-1.1,1.4c1.9-0.7,5.6-1.2,9.3-2.2h1.7c-0.8,0-0.8-1.7-0.8-1.7c0.8-0.8,1.7-1.7,2.5-2.5c0,0-0.8,0-1.7-0.8
			c0-0.8,0.8-2.5,0.8-4.2c1.7,1.7,3.3,3.3,3.3,5c0.8,0.8,0.8,1.7,0,3.3c4.2-0.8,8.3-0.8,10.8-1.7c1.7-0.8,2.5-0.8,2.5-1.7
			c0.8-0.8,5-2.5,10-3.3c-0.8-1.7-2.5-2.5-4.2-3.3c0-0.8,0-0.8-0.8-1.7l5.8-8.3c2.5,0,4.2,2.5,5,5.8c0-1.7,0-3.3,0.8-4.2
			c4.2-0.8,5,1.7,5.8,5.8c0-1.7,0-3.3,0.8-5c0-0.8,0.8-1.7,1.7-2.5c-5-0.8-7.5-4.2-5-7.5c0.8,0.8,0.8,1.8,0.8,3.4
			c0.8-1.7,1.7-3.1,2.5-4.1c0.8,0,0.8,0,1.7,0c0.8,0,2.5,0.6,3.5,1.5c0-1.7,0-2.5,0-4.5c0,0,0.7,0,1.5,0c-1.4,0-2.3-1-2.9-4
			c-0.7,0-1.4,0-2.1,0c-1.7,0-2.5-0.8-3.3-1.6l2.5-3.3l0.8,0.9c0.5,1.1,1.1,1.8,1.6,2.7c-0.3-1.3-0.5-2.6-0.8-4.8
			c1.7,1.7,4.2,4.2,6.7,6.2h0.8c0-2-0.8-2-0.8-2.8c0.8,0,0.8-1,1.7-1c0-0.8,0.8-0.9,1.7-1.8c0.8,1.7,1.7,2.5,2.5,3.3l0.8,0.8
			c0-0.8,0.8-0.8,0.8-0.8l-1.7-1.7c-0.8-1.7-1.7-2.5-2.5-4.2c0.8-0.8,1.7-0.8,2.5,0c0.8,0,1.7,0.8,2.5,1.7c0.8,1.7,0.8,2.5,1.7,3.3
			c0.8,2.5,1.7,5,1.7,7.5c-0.8,1.7-0.8,2.5,0,3.3c0,0.8,0.8,0.8,1.7,0.8c0-0.8,0.8-0.8,2.5-1.7c-0.8-4.2-1.7-8.6-2.5-12.7l-0.8-1.1
			h0.8h7.5c-1.7-1-4.2-0.6-5.8-2.3c-0.8-0.8-1.7-0.7-1.7-1.5c-0.8-0.8-0.8-1.6-0.8-2.4c0,0,0-0.8,0.8-0.8c0-0.8,0.8-1.7,1.7-1.7
			s2.5,0.8,3.3,0.8c0.8,0.8,0.7,1.7,1.7,2.5c0-1.7,0-3.3,0-4.2c-1-2.5-2.5-5-4.2-8.3l-0.2-0.5c0.1,0.8,0.2,1.6,0.2,2.2
			c-0.8,0-1.7-0.8-2.5-1.7c-0.8-0.8-1.7-1.7-1.7-2.5c-0.8-2.5-1.5-5-0.7-7.5l1-0.8v-0.8l1.5-2.5l0.7-2.5c3.2,1.6,4,1.7,4.8-1.3
			c-0.3,0.5-1.1,0.6-2.4,1.3c0-0.8,0-2.5,0.8-4.2l4.2-6.7c0,1.7,0.8,4.2,0.8,5.8c0.8,0,1.7-0.8,2.5-1.7c-0.8-1.7-0.8-2.5-1.7-4.2
			c0.8,0,1.7,0,1.7,0.8c2.5,0.8,4.5,1.7,4.5,4.2c1.7,0,2.5-0.8,4.5-1.7v-0.8l0.1-1.2c1.7,0,2.5,0,3.3,0c1.7,0,3.3-0.7,5.8-0.7
			c-3.3-1.7-5.8-6.6-3.3-9.9c1.7,1.7,3.3,3.4,5.8,5c-0.8,0-0.8,0.9-1.7,0.9c0.8,0,1.7-0.8,2.5-0.8c-0.8-1.7-1.7-3.3-3.3-5
			c0.8,0.8,1.7,0.8,2.5,0.8c-0.8-0.8-0.8-0.8-1.7-2.5c3.3,0.8,5,0.8,6.7,1.7C552.6,1001.8,552.6,1001.8,552.6,1001.8z M91,953
			c0,0,0.2,0-0.7,0c-0.8,0-1.3-1.4-1.3-2.2c0,0,1-0.6,2-0.6v-1l0,0C91,951.4,91,952,91,953z M94.5,1014c-0.8,0-1.7,0-1.7,0
			c0-3,1.2-3.8,1.2-5.5v-0.8c0,0.8,1.1,1.1,1.1,1.1C95.1,1010.4,94.5,1011,94.5,1014z M102.8,1020.2c0.8,3.3,0.8,5.8-2.5,9.2
			c-0.8-3.3-0.8-6.9-1.7-9.4l-0.8-1.9h0.8c4.2-1,4.2-1.4,3.3-3.9l-0.8,1c-0.8,0.8-0.8,0.9-1.7,1.7c0-3.3,2.5-4.1,5-5.8
			C103.7,1014.3,102,1017.7,102.8,1020.2z M107,940.8c0-0.8-0.8-0.8-1.7-2.8c0.8,0,1.7,0,1.7,0c1.7-1,1.7,0.1,1.7,4.3
			C108.7,941.5,107.8,940.8,107,940.8z M137.8,937c-1.7,0-3.3,0-5,0c-2.5,0-5,0-8.3,0c2.5-2,5.8-5,8.3-6h1.7c2.5,0,4.5,3.4,6.5,4.2
			c0,0.8,0,0.8,0,1.7S139.5,937,137.8,937z M142.8,1072.6c-0.8,0-0.5,0.8-1.3,1.7c-0.8-1.7-0.5-3.3-0.5-5c0-0.8,0-2.5,0-3.3
			s1.3-1.7,2.2-2.5C146.5,1064.3,146.2,1067.6,142.8,1072.6z M156.1,1083.5c-2.5-5.8-4.2-12.5-2.5-15.8c0.8,0.8,1.7,1.7,2.5,2.5
			s0.8,0.8,1.7,1.7l-1.7,2.7c0,0.8-0.8,2.5-0.8,3.5h0.8h2.5c0,2,0,5.6,0.8,9.8C158.6,1087,157,1085.1,156.1,1083.5z M288.6,1106.8
			c0,0.8,1.7,3.4,1.7,4.3c0,6.7,0,10.9-0.8,20.9c0,0-0.8,0-1.7,0c0-3,1.2-3.6-0.8-4.4v-0.8c-2-5.8-0.9-10.8-0.9-16.7l0.8-0.8
			c0-0.8,0.8-0.8,0.8-1.7L288.6,1106.8z M284.4,936.8c0.8,0,1.7-0.8,2.5-0.8h0.8c0,0-0.8,1.7-0.8,2.5v0.8l-2.5-0.8
			c0,0-1.7,0-2.5-0.8C282.8,937.7,283.6,937.7,284.4,936.8z M280.3,1111.8c0.8-0.8,1.7-0.8,3.3-1.7c0,4.2,0.8,7.5,0.8,10.8
			c0.8,5,1.7,10.4,2.5,15.4c0.8,6.7,0.8,12.6,0.8,19.6h-0.8c-0.8-5-1.7-4.6-2.5-7.1c0-1.7,0-2.7-0.8-4.4c-1.7-7.5-4.2-15.9-5.8-23.4
			C276.9,1117.7,278.6,1114.3,280.3,1111.8z M239.4,1110.1c0.8,0.8,2.5,1.7,3.3,2.5l-5,4.2l-3.3,2.5l-1.7,1.7c0-0.8,0-0.8-0.8-0.8
			c0.8-1.7,1.7-2.5,2.5-4.2l3.3-4.2L239.4,1110.1z M224.4,1106l1.7,1.7c-2.5-3.3-1.7-5.8,1.7-8.3c0.8,0.8,1.7,0.5,2.5,1.4l0.8,1.4
			h-0.8c-1.7,0-3.3,1.5-5.3,1.5v0.5c2,0,3.6,0,5.3,0c0,0,1,0,2.1,0l0,0h0.4l1.9,1.4c3.3,2.5,2.3,3.1,0.3,8.1v0.8
			c-3,1.7-3.6,4.2-4.4,5.8c-0.8,0.8-1,1.7-1.8,1.7c-1.7-2.5-3.4-5.8-4.2-9.2c-1.7-3.3-1.7-6.7-1.7-8.3L224.4,1106z M212.8,1104.3
			c0.8-0.8,0.8-1.7,1.7-1.7c0.8-0.8,1.7-1.2,1.7-1.2c0.8,0.8,1.7,3.6,0.8,4.6h-0.8c0,2-0.8,1.2-1.7,2.1c-0.8,0-1.7,1-1.7,1
			c-0.8,0-0.8,0.1-0.8-0.7S212.8,1106,212.8,1104.3z M199.5,1110h-1.7c-0.8-2-1.7-2-0.8-2.9c0.8-3.3,2.5-7.2,5-8.9
			c0.8-0.8,2.5-0.2,4.2-2.2c0,0,0.8,0,1.7,0l-1.7,2.9c-1.7,2.5-2.5,4.7-4.2,7.2C201.1,1106.9,200.3,1108,199.5,1110z M206.1,1106
			c0.8-1.7,1.7-2.5,1.7-4.2c0.8,3.3,0,5.8-1.7,6.7c-0.8,0.8-1.7,0.8-2.5,0.8C204.5,1108.5,205.3,1106.8,206.1,1106z M212,1121.8
			c-1.7-1.7-4.2-3.3-5.8-4.1l-1.7-1.6h1.7l4.2-2.5c0.8,2.5,1.7,5,2.5,7.5C212.8,1121,212,1120.9,212,1121.8z M212.8,1113.9
			c0-0.8,0.8-1.9,0.8-2.9h0.8c0.8,0,0.8-0.4,1.7-1.3c0.8,0,2.8-0.6,3.6-1.5c1.7,4.2,4.3,7.7,5.3,11.9v0.8c1,2.5,1.4,2.6-0.3,5.9
			c-2.5-0.8-5.3-0.9-7.8-4.9h-0.8c-0.8,0-0.8-0.1-0.8-0.9l-0.8-1.5C213.6,1117.9,213.6,1115.6,212.8,1113.9z M253.6,1166.8
			c-3.3-3.3-6.7-6.7-10-10l-5.8-5.8l-3.3-3.3l-4.2-5l-5.8-5.8l-5.8-5.8c-0.8-0.8-1.7-2.5-2.5-4.2c0,0,0-0.8-0.8-0.8
			c0.8-0.8,0.8-0.8,0.8-0.8c2.5,1.7,5.8,3.3,8.3,4.2l2.5,1.7c0.8,0.8,2.5,1.7,3.3,3.3c0,0.8,0.8,1.7,1.7,3.3c0.8,1.7,1.7,2.4,2.5,4
			c0.8,0.8,1.7,1.4,2.5,2.4h0.1v-0.6v-0.8c-1-1.7-0.9-4.6-0.9-5.6h1.7c1.7,1,3.2,1.4,5.2,2.3v-0.8c-1-0.8-2.2-1.7-3.9-1.7
			c0-0.8-0.7-0.8-1.5-1.7c-0.8,0-2.4-0.8-3.3-1.7c-2.5-1.7-2.5-4.2-0.8-6.7l0.9-0.8c0.8-1.7,2.5-2.5,3.3-4.2c0.8,0,0.8-0.8,1.7-1.7
			c0.8-0.8,2.5-1.7,4.2-2.5c0,0,0.8,0,0.8-0.8c1.7-0.8,4.2-3.3,6.7-4.2c0.8-0.8,2.5-0.8,4.2-1.7c0.8,0,1.7-1.7,3.3-1.7
			c1.7,1.7,1.7,3.3-0.8,5c-0.8,0.8-3.3,1.7-5,2.5c0,0.8-0.8,1.7-0.8,2.5c0.8,0,1.7,0.8,2.5,0.8c1.7-0.8,2.5-1.6,4.2-1.6
			c-0.8,0.8-0.8,2.4-0.8,3.4h0.8c1.7-4,3.3-5.1,5-7.6c0,0.8,0.8,0.8,1.7,1.6c0.8,0,0.8-0.9,1.7-2.5c1.7-0.8,3.3-2.5,4.2-4.2
			c1.7,3.3,1.5,5.8,0.6,8.3c-1.7,3.3-2.7,6.7-2.7,10.8c0,0,0,0.8,0,1.7l-4,11.7c-3.3,7.5-6.6,15.8-9.9,23.3
			C254.3,1165.9,254.4,1165.9,253.6,1166.8z M290.3,1200.1c0,0.8-0.8,1.7-0.8,2.5c-0.8,0-0.8-0.8-1.7-0.8c0,0-0.8,0-0.8-0.8
			l-2.5-1.7c-6.7-7.5-13.3-14.2-19.2-20.8c-2.5-2.5-5-5-7.5-7.5c0-0.8-0.8-1.7-0.8-2.5c2.5-6.7,5-12.5,8.3-19.2l4.2-10
			c0-0.8-0.2-0.8,0.6-0.8c0,0.8-1,1.7-1,2.5c0,1.7,0,2.5,0,3.3c0,0,2.7,0,3.5-0.8c1.7-2.5,3.4-3.6,2.6-7.8c-1.7-2.5-0.7-6.6-0.7-8.6
			c0,0-0.4,0,0.6,0c0,0,0,0.6,0,1.4c4,11.7,6.8,24.2,9.3,35.8l2.6,8.3l0.9,4.2l1.7,7.5c0.8,1.7,0.8,4.2,0.8,5.8
			c0.8,3.3,0.8,5.8,0.8,9.2C291.1,1199.2,291.1,1200.1,290.3,1200.1z M291,1172h-1v-9.4l1-4.2C291,1162.6,291,1167,291,1172z
			 M366,1100h0.8c0.8,1,1.7,0.5,2.5,1.3c-0.8,0.8-1.7,1.5-2.5,1.5s-1.7-0.6-2.5-2.2C365.2,1100.6,366,1100,366,1100z M358.2,1105.1
			c1.7,2.5,2.8,5,3.8,7.5v1.4c0,0-0.1,0-0.9,0c-0.8-2-1.7-1.9-2.5-2.8c-0.8-1.7-1.7-2.6-2.5-4.3c-0.8,0-1-1.7-1-2.6
			C355.9,1104.4,357.4,1104.3,358.2,1105.1z M336.9,1101h0.8c0.8,1,1.7,2.9,2.5,4.6c0.8,0.8,0.8,0.6,0.8,1.4c1.7-2.5,3.3,0.7,5-0.1
			c0.8,0.8,0.2,0.8,0.2,0.8c-2.5,1.7-2.3,3.3-7.3,4.9v0.8c0-0.8-1.9-2.5-2.7-3.3c-0.8-2.5-1.4-5.4-3-7.9
			C334.9,1102.2,336.1,1101,336.9,1101z M322.7,1100c0.8,0,0.3,0,1.3,0c0,1,0,2.6,0,5.1c0-0.8-0.6-1.7-1.5-1.7
			c-0.8-0.8-1.6-1.3-2.4-2.1C321,1100.5,321.9,1101,322.7,1100z M318.6,1102c1.7,2,3.3,3.3,4.2,4.9c0.8,1.7,1.7,3.1,0.8,4.1h-0.8
			c-1.7-1-3.3-3.3-4.2-4.9c-0.8-1.7-0.8-4.1-2.5-4.1C316.9,1102,317.7,1102,318.6,1102z M307,1114v2.8c1,2.5,1,5.8,4,8.3v1.9
			c-3,0-2.4,0-2.4,0s-0.8-3.2-0.8-4.8c0-2.5-0.8-4.2-1.7-8.2C306.9,1114,306,1114,307,1114z M306,1160c0-4,0-9.9,0-14.9
			c0,0.8,2.1,1.7,2.1,2.5c0.8,1.7,0.6,4.5-0.2,6.2c-0.8,2.5-1,4.2-1,6.2C306.1,1160,306,1160,306,1160z M309,1171.4
			c-0.8,0.8-1,2-2,3.7v0.8c-1-5.8-0.5-10.4,0.4-15.4c0.8-1.7,1.2-2.5,1.2-4.5h0.8C311.1,1161,310.7,1165.5,309,1171.4z M313.6,1148
			h-0.8H312c0-3,0-4.6,0-7.1c1,0.8,0.8,1,0.8,1.9C314.5,1144.5,314.4,1145,313.6,1148z M318.6,1133.4c0,1.7-0.8,3.3-2.5,5.8
			l-0.8,1.7l-0.8,1.7c0-1.7-0.8-3.3-1.7-4.2c0-2.5-0.8-5-1.7-7.5c-0.8-4.2-1.7-9.2-1.7-14.2l-0.8-1.7c0,0,0-0.8,0.8-0.8
			c0-0.8,1-1.7,1-1.7c0.8,0,1.6,0.8,2.6,0.8c0,0.8,0,0.8,0,0.8c1,1.7,1,2.5,1,3.3v0.8l1.5,1.7c1.7,2.5,2.8,4.2,2.8,5.8
			C319.1,1128.4,319.4,1130.9,318.6,1133.4z M318.6,1120.1l-2.5-4.2l-0.8-2.5l-2.5-3.7l-1.7-3.7c0.8,0,1.7,0,1.7,0
			c0.8,2,1.7,1.2,2.5,2.1c0,0,0.8,0.2,0.8,1c0.8,0.8,1.7,2.6,2.5,3.4c2.5,3.3,3.3,8.4,1.7,10.9L318.6,1120.1z M326,1138h-0.8
			c-0.8,0-1.7,1.9-2.5,2.7c-0.8,0.8-1.5,1.8-2.4,2.6c0.8-4.2,1.6-7.4,2.6-11.6v0.8c1,0.8,2.3,1.7,2.3,3.3l0.7,0.8
			C328,1136.8,326,1138,326,1138z M329,1134c0,0-0.4,0-1.3,0c0,0,0-0.3-0.8-0.3c0,0-0.8-0.6-1.7-1.4c-0.8-1.7-0.8-4,0-6.5
			c0.8,1.7,1.5,2.6,1.5,3.4c0.8,1.7,2.3,2.6,2.3,4.2V1134z M334,1124.3v16.7c-2,0-4-1.7-4-4.2c0-4.2,0-8.3,0-11.7
			c0-4.2-1.2-8.3-1.2-11.7c0-2.5,1.2-5,1.2-7.5c0-1.7,0-2.5,0-5l3,5.9l3,4.2h-2.5l-0.8-0.9c0,0.8,0.8,0.8,0.8,1.7
			c1.7,0.8,2.5,1.7,3.3,3.3c0.8,0.8,1.7,2.5,0.8,5c0,0.8,0.2,1.7-0.6,2.5C336.3,1123.4,335,1124.3,334,1124.3z M366.9,1142.6
			c-1.7,1.7-3.3,3.3-4.2,4.2c-1.7,1.7-2.5,2.5-4.2,4.2l-0.8,0.8c-0.8,0.8-1.7,2.5-2.5,4.2c-0.8,0.8-2.5,1.7-3.3,4.2
			c-4.2-5.8-8.3-10.8-11.7-15.8c-0.8-1.7-2.5-3.3-3.3-5s-0.8-2.3-0.8-3.3c0.8,0,0.8,0,0.8,0c0.8-2,1.7-0.9,2.5-1.7
			c-0.8,0-1.7,0-2.5-0.8c-1.7-0.8-1.7-2.5,0-5.8c0.8-0.8,1.7-1.7,2.5-3.3c0,1.7,0.8,3.3,0.8,5c0.8,0.8,0.8,1.7,0.8,3.3
			c0,0,0,0.8-0.8,0.8c0,0.8,0,0.8-0.8,0.8l0.8,0.8c1.7,1.7,2.5,4.2,4.2,5.8c-0.8-2.5-1.4-4.2-2.3-6.7c-0.8-4.2-2.1-8.3-3.1-12.5
			c0,0,0,0,0-0.8s2.3-2.5,3.1-4.2c1.7-2.5,3.6-5,5.3-6.7c0.8-0.8,1.8-0.8,3.5-1.7c3.3,1.7,5.9,5,7.6,9.2c0.8,0.8,1.7,1.7,2.5,3.3
			c0.8,0.8,0.9,1.7,0.9,2.5c-0.8,4.2-1.7,8.3-2.5,11.7c0.8,0.8,1.7,0.8,3.3,1.7c0,0.8,0.8,0.8,1.7,0.8c-0.8-0.8-1.7-2.5-1.7-4.2
			c-0.8,0-1.2-0.8-1.2-1.7c0-1.7,0.5-3.3,0.5-4.2v-3.3c1,0,1.2-0.8,1.2-0.8c1.7,2.5,2.7,4.2,3.5,5.8c0.8,0.8,0.9,1.7,1.8,2.5
			C371.8,1137.6,371.9,1137.6,366.9,1142.6z M392.7,1113.5c0,0.8,0,1.7-0.8,2.5c-5.8,5.8-11.7,12.5-17.5,19.2
			c-2.5-4.2-5-7.5-7.5-11.7l-2.5-3.3c-0.8-5-0.8-9.2-1.7-14.2l-0.8-0.9h0.8c0.8,0,2.5,0.9,3.3,0.9c0,0,0.8,0,0.8-0.8
			c2.5-0.8,5.8-2.5,8.3-4.1c1.7,0,3.3-1.1,5-1.9c0.8,0,0.8-1.1,1.7-1.1s2.5,0,4.2,0c1.7,2,3.3,2.7,5,3.6c0.8,0,1.7,0.9,2.5,1.8
			C393.5,1106.7,393.5,1110.1,392.7,1113.5z M399,1108.5c0,0.8-1.6,0.8-1.6,1.7c-0.8,0-1.4,0-2.4,0.8c0-2.5,0-5,0-6.7
			c1,0,1.6,0.8,2.4,0.8c0,0.8,1.6,1.7,1.6,1.7C399,1107.6,399,1108.5,399,1108.5z M401.9,1105.1l-1.7,1.7c-0.8-2.5-1.3-3.3-2.1-5
			c1.7,0,2.9,0.8,2.9-0.8v-0.8c0-0.4,0-0.6,0-0.8c2,0.8,2.1,0.8,3.8,2.5C403.9,1102.6,402.7,1104.3,401.9,1105.1z M414.4,1101
			c-0.8,0-1.7,0-2.5-0.8l2.5-3.3c0.8,0,0.8-0.8,1.7-1.7c0.8,2.5,0.8,4.2,0.8,6.7C416,1101.8,415.2,1101.8,414.4,1101z M414.4,938.1
			c-3.3,0.8-6.7,0.2-9.2-1.5c3.3,0,5.8-0.6,9.2-0.6c1.7,0,3.3,0,5.8,0C418.5,936,416.9,938.1,414.4,938.1z M423.5,1103.2
			c0,1.7-0.8,2.8-0.8,4.8c-0.8,0-0.8,0-0.8,0c-1.7-2-2.5-4.8-2.5-9.8c0.8,0.8,1.7,0.9,2.5,0.9c0.8,0.8,0.8,0.8,1.7,0.8
			C423.5,1100.8,424.4,1102.4,423.5,1103.2z M424.4,1096c-0.8-0.8-1.7-0.8-2.5-1.7c-0.8,0-0.8-0.1-1.7-0.1c0-0.8,0-0.1,0.8-0.1
			c0,0,0,0,0.8,0s1.7-0.7,3.3,0.1c0,0,0.8,0.5,0.8,1.3C425.2,1095.5,424.4,1096,424.4,1096z M450.2,1094h-0.8c-0.8,0-0.8-1.5,0-3.2
			c0.8,0,0.8-0.9,1.7-0.9C451,1091.6,450.2,1094,450.2,1094z M464.3,943c0-6,0-7,1.7-7c0.8,0,1,0,1,0c0,2,0,4.2,0,5.9l-1,1.1
			C465.2,943,465.2,943,464.3,943z M493,950.2V948h-0.3l0.8-1c0-0.8,0.8-1.3,1.7-3c0,0.8,1.4,2.7,1.4,2.7
			C495.7,947.5,494,948.5,493,950.2z M502.7,1056c-1.7,0-2.5-1.7-3.3-3.3c0.8,0.8,2.5,0.8,3.3,0.8c0.8,0.8,0.8,0.8,1.7,1.7
			c0.8,0,0.8,0.8,0.8,0.8C504.3,1056,503.5,1056,502.7,1056z M504.3,1041l2.5-4.2c0.8,1.7,1.7,3.5,2.5,4.3c0,0.8,0.8-0.2,0.8,1.8
			h-0.8c-0.8,0-1.7-0.2-2.5-1C506,1042,505.2,1041.8,504.3,1041z M511,1052.6l-1.7-3.3l-2.5-3.3l-0.8-2.5c0.8,0,0.8,0.8,0.8,0.8
			c0.8,0,1.7,0,2.5,0.8c0.8,0,0.8,0,1.7,0.8C512.6,1047.6,512.6,1050.1,511,1052.6z M512.6,1041.8c0.8,1.7,0.8,3.3,0.8,5.8l-0.8-1.7
			l-1.7-3.3l-1.7-3.3l-0.5-1c-0.2-0.1-0.3-0.3-0.3-0.7l0.3,0.7c0.2,0.1,0.5,0.2,0.5,0.2c0.8,0,0.8,0.8,1.7,0.8
			C511.8,1040.2,511.8,1041,512.6,1041.8z M526,974c2.5,0,2.5,0.6,0.8,7.3l-0.8-1.5l-1.7-5.7C525.1,974,526,974,526,974z
			 M529.3,1011.8c-0.8-0.8-1.7-1.7-3.3-2.5c0,0-0.8-0.3-0.8-1.2l0.8-1.2c0.8,0,0.8,0,0.8,0s0-0.5-0.8-0.5l2.5-3.2
			C531,1006.7,531,1008.5,529.3,1011.8z M535.1,1011c-0.8,0-0.1,0-0.1-0.8c0-2.5,0-5.8,0-9.2c0,0.8,0.9,1.2,0.9,2.9
			c1.7,1.7,0.9,5.1,1.7,7.1C536.8,1011,536,1011,535.1,1011z"/>
	</g>
</g>
</svg>
