<?xml version="1.0" encoding="utf-8"?>
<!-- Generator: Adobe Illustrator 18.1.1, SVG Export Plug-In . SVG Version: 6.00 Build 0)  -->
<svg version="1.1" id="Warstwa_1" xmlns="http://www.w3.org/2000/svg" xmlns:xlink="http://www.w3.org/1999/xlink" x="0px" y="0px"
	 viewBox="0 0 1920 1080" enable-background="new 0 0 1920 1080" xml:space="preserve">
<g>
	<path fill="#D3EAF4" d="M1313.8,476.2c0.4-0.3-2.2-0.3-1.9-0.5c0.4-0.4,0.7-1.4,0.3-1.8c-0.3-0.3-0.8,0-1.2-0.1
		c-0.4-0.1-1-0.4-1.5-0.4s-1.1-0.4-1.4-0.5c-0.7-0.1-1.5-0.7-2-0.8c-1.1-0.3-1.9,0-2.3,0.1c-1.2,0.5-1.8,1-2.9,0.8
		c-0.7,0-2,0.1-2.7,0.3c-1.9,0.4-1,2.2-2.9,2.2c-0.8,0-1.1,0.4-1.8,0.5c-0.8,0.1-1.8,0-2.6,0.4c-1.4,0.7,6.8,0.3,10.6,0.3
		c2.7,0,5.2,0,7.1-0.3C1309.2,476.3,1313.4,476.5,1313.8,476.2L1313.8,476.2z"/>
	<path fill="#D3EAF4" d="M949.8,871c-0.5,0-1.3,0.3-1.8,0.5c-1.3,0.5-2.4,0.3-3.7,0.5s-1.1,1.6-2.4,1.6s-2.1,0-3.2,0.5
		c-1.1,0.5,4.5,0.3,7.1,0.3c2.4,0,5,0,6.1-0.3c2.9,0.5,5.8,0.5,7.4,0.3c1.8-0.3,5,0.3,5,0.3s54.5,1.1,74.3-1.1
		c3.4-0.3,3.2-4,0.5-3.2c-0.8,0.3-1.8,0.3-2.9,0.3c-2.6-0.5-4.7-2.4-5.3-2.4c-2.9,0.5-5-2.9-10-3.4c-4-0.3-4.2-3.7-7.6-7.1
		c-0.8-0.8-2.4-2.1-3.4-2.6c-2.4-1.3-4.5-6.1-7.1-5.8c-0.8,0-2.1-0.3-2.9,0c-2.1,1.1-4.7,5.5-6.3,4.5c-1.1-0.5-0.8-0.3-2.4,0
		c-0.5,0-1.1,0.3-1.6,0.3c-0.8,0-1.6-1.1-2.4-1.3c-0.8-0.3-1.8,0-3.2,0c-1.3,0-2.4,0.5-3.4,0.8c-3.7,1.1-4,4.5-5.8,5.5
		c-2.4,1.6-0.5,3.2-6.9,3.7c-6.1,0.5-6.1-0.5-9.5,1.6c-3.7,2.1-1.3,7.1-5.8,6.6C951.7,870.4,950.6,870.7,949.8,871L949.8,871z"/>
	<path fill="#D3EAF4" d="M655.4,580.6c-0.7-0.2-22.5-0.2-26.6-0.3c-2.3,0-2.3-0.2-2.3-0.3s0.2,0,0.3-0.2c0.3,0,0.7-0.3,1.1-0.3
		c0,0,0.7-0.3,1.1-0.2c0.3,0,0.3,0.3,0.7,0.2c0.9-0.2,1.1-0.7,1.2-0.7c1.1,0.2,1.6-0.7,3.5-0.9c1.2-0.2,1.6-0.9,2.4-1.6
		c0.3-0.3,1.7-0.5,2.4-0.7c0.5-0.2,0.7-0.9,1.4-1.2c0.3-0.2,1.1-0.2,1.4-0.2c0.3,0,0.7,0,1.1,0c0.7,0.3,1.4,0.7,2.1,0.6
		c0.3-0.2,0.3,0,0.9,0c0.2,0,0.3,0,0.5,0c0.3,0,0.5-0.3,0.9-0.3c0.3-0.2,0.7,0,1.1,0c0.5,0,1.2,0,1.6,0.2c1.4,0.3,1.4,1.2,2.1,1.5
		c0.9,0.5,0.5,1,2.6,1c0.7,0,1.4-0.2,1.7-0.2c0.7,0.2,0.3,0.6,1.2,0.9c1.2,0.6,0.3,1.8,2.1,1.6c1.7-0.2,2.1,0.5,0.9,0.7
		s-2.4,0.2-3.1,0.2C656.5,580.5,655.4,580.6,655.4,580.6L655.4,580.6z"/>
	<path fill="#D3EAF4" d="M37,780c-2.1-0.5-68.5-0.5-80.7-0.9c-6.9,0-6.9-0.5-6.9-0.9c0-0.4,0.6,0,1-0.5c1,0,2.1-0.9,3.2-0.9
		c0,0,2.1-0.9,3.2-0.5c1,0,1,0.9,2.1,0.5c2.6-0.5,3.2-2.3,3.7-2.3c3.2,0.5,4.7-2.3,10.6-2.8c3.7-0.5,4.7-2.8,7.4-4.9
		c1-0.9,5.3-1.4,7.4-2.3c1.6-0.5,2.1-2.8,4.3-3.7c1-0.5,3.2-0.5,4.3-0.5s2.1,0,3.2,0c2.1,0.9,4.3,2.3,6.3,1.8c1-0.5,1,0,2.6,0
		c0.6,0,1,0,1.6,0c1,0,1.6-0.9,2.6-0.9c1-0.5,2.1,0,3.2,0c1.6,0,3.7,0,4.7,0.5c4.3,0.9,4.3,3.7,6.3,4.5c2.6,1.4,1.6,3.2,7.9,3.2
		c2.1,0,4.3-0.5,5.3-0.5c2.1,0.5,1,1.8,3.7,2.8c3.7,1.8,1,5.4,6.3,4.9s6.3,1.4,2.6,2.3c-3.7,0.9-7.4,0.5-9.5,0.5
		C40.3,779.6,37,780,37,780L37,780z"/>
	<path fill="#D3EAF4" d="M783.7,867.3c-1-0.1-32.8-0.3-38.6-0.4c-3.2,0-3.3-0.1-3.4-0.5c0-0.1,0.3-0.1,0.6-0.1
		c0.4-0.1,1.2-0.5,1.4-0.6c0.1,0,1-0.5,1.4-0.4c0.5,0.1,0.5,0.4,1,0.4c1.4-0.1,1.6-1.3,1.8-1.2c1.5,0.3,2.4-1.4,4.9-1.5
		c1.8-0.1,2.1-1.4,3.4-2.7c0.5-0.6,2.5-0.9,3.6-1.3c0.8-0.4,1.2-1.5,2-2c0.5-0.3,1.5-0.1,2-0.1c0.4,0,1-0.1,1.5,0
		c1.2,0.4,2.1,1.3,2.9,0.9c0.5-0.3,0.4-0.1,1.2,0c0.3,0,0.5,0.1,0.8,0.1c0.5,0,0.9-0.5,1.3-0.6c0.4-0.1,0.9,0,1.5,0
		c0.6,0,1.8,0,2.1,0.1c1.9,0.5,2,1.9,3.1,2.5c1.3,0.7,0.6,1.6,4,1.9c1,0,2-0.4,2.4-0.3c0.9,0.1,0.5,0.9,1.8,1.5
		c1.9,0.9,0.6,3.1,3.1,2.9c2.4-0.1,3.2,0.8,1.4,1.2c-1.8,0.5-3.7,0.4-4.7,0.3C785.3,867.2,783.7,867.3,783.7,867.3L783.7,867.3z"/>
</g>
</svg>
