<?xml version="1.0" encoding="utf-8"?>
<!-- Generator: Adobe Illustrator 18.1.1, SVG Export Plug-In . SVG Version: 6.00 Build 0)  -->
<svg version="1.1" id="Warstwa_1" xmlns="http://www.w3.org/2000/svg" xmlns:xlink="http://www.w3.org/1999/xlink" x="0px" y="0px"
	 viewBox="0 0 1920 1080" enable-background="new 0 0 1920 1080" xml:space="preserve">
<g>
	<g>
		<path fill="#F6F6F6" d="M1320.2,330.9c-0.4-0.7-0.9-1.5-1.3-2.4c-0.9-1.8-1.8-3.7-2.6-4.4c-0.4-0.7-1.3-1.1-2.2-1.8
			c-0.9-0.7-2-1.1-3.1-1.5c-0.9-0.4-1.8-0.4-2.6-0.7c-1.1-0.2-2-0.4-2.4-0.4c-0.9,0-2.4,0.9-2.6,1.3s-0.9-1.1-0.7-2.4
			c0.2-0.7,0.9-1.5,1.1-2c0.7-1.3,0.9-2.9,0-4.2c-0.9-1.3-1.1-1.1-1.8-1.1s-0.9,0-1.8,0.9c-0.2,0.2-0.4,0.2-0.7,0.4v2.2
			c0.2,0,1.5,1.1,0.4,7.1c-0.2,1.3,1.1,3.7,1.3,4.4c0,0.4,0.2,1.1,0.7,2c0.2,0.9,0.7,1.5,0.9,2c0.7,0.9,2,1.5,2.9,4
			c0.2,0.7,1.1,4.6,1.3,8.6c0,1.1,0.7,6.6,0.4,9.3c-0.2,2.6-0.7,3.7-0.7,4c0,0.4,2,0,2,0s-0.9-2.2-0.9-4.4s0-8.2,0-9
			c0-2-0.2-2.6-0.4-4.4c0-1.1-0.2-2-0.2-2.4c0-2.4,1.3-3.3,2.2-2.4c0.7,0.7,0.4,1.1,0.4,2.4c0.2,1.5-0.2,4.6-0.2,6.2
			c0,1.8,0,1.3,0.2,5.5s0.4,9,0,9c-0.4,0.2,1.3-0.4,1.3-0.4s-0.7-0.7-0.7-5.1s0.2-6.6,0.2-8.2c0-6.6,0.9-7.3,1.3-7.9
			c0.2-0.4,0.4-0.7,0.7-0.9c0-0.4,0.4-0.2,0.9,0.2c0.7,0.4,1.3,0.4,2.4,0.9c0.9,0,1.5,0.2,2.2,0.2c1.3,0,2.4-0.2,2.9-0.2
			C1321.7,335.1,1321.5,333.3,1320.2,330.9z"/>
		<path fill="#F39200" d="M1299.5,312.6c0.2,0.4,0.7,1.3,0.2,2.2l-8.2-2.4L1299.5,312.6z"/>
		<path d="M1301.9,312.8c0.2,0,0.4-0.2,0.4-0.2c0-0.2-0.2-0.4-0.4-0.4c-0.2,0-0.4,0.2-0.4,0.4
			C1301.5,312.6,1301.7,312.8,1301.9,312.8z"/>
	</g>
	<g>
		<path fill="#F6F6F6" d="M1262.9,336.5c0.4-0.7,0.9-1.5,1.3-2.4c0.9-1.8,1.8-3.7,2.6-4.4c0.4-0.7,1.3-1.1,2.2-1.8
			c0.9-0.7,2-1.1,3.1-1.5c0.9-0.4,1.8-0.4,2.6-0.7c1.1-0.2,2-0.4,2.4-0.4c0.9,0,2.4,0.9,2.6,1.3s0.9-1.1,0.7-2.4
			c-0.2-0.7-0.9-1.5-1.1-2c-0.7-1.3-0.9-2.9,0-4.2c0.9-1.3,1.1-1.1,1.8-1.1c0.7,0,0.9,0,1.8,0.9c0.2,0.2,0.4,0.2,0.7,0.4v2.2
			c-0.2,0-1.5,1.1-0.4,7.1c0.2,1.3-1.1,3.7-1.3,4.4c0,0.4-0.2,1.1-0.7,2c-0.2,0.9-0.7,1.5-0.9,2c-0.7,0.9-2,1.5-2.9,4
			c-0.2,0.7-1.1,4.6-1.3,8.6c0,1.1-0.7,6.6-0.4,9.3c0.2,2.6,0.7,3.7,0.7,4c0,0.4-2,0-2,0s0.9-2.2,0.9-4.4s0-8.2,0-9
			c0-2,0.2-2.6,0.4-4.4c0-1.1,0.2-2,0.2-2.4c0-2.4-1.3-3.3-2.2-2.4c-0.7,0.7-0.4,1.1-0.4,2.4c-0.2,1.5,0.2,4.6,0.2,6.2
			c0,1.8,0,1.3-0.2,5.5s-0.4,9,0,9c0.4,0.2-1.3-0.4-1.3-0.4s0.7-0.7,0.7-5.1s-0.2-6.6-0.2-8.2c0-6.6-0.9-7.3-1.3-7.9
			c-0.2-0.4-0.4-0.7-0.7-0.9c0-0.4-0.4-0.2-0.9,0.2c-0.7,0.4-1.3,0.4-2.4,0.9c-0.9,0-1.5,0.2-2.2,0.2c-1.3,0-2.4-0.2-2.9-0.2
			C1261.3,340.7,1261.5,338.9,1262.9,336.5z"/>
		<path fill="#F39200" d="M1283.6,318.2c-0.2,0.4-0.7,1.3-0.2,2.2l8.2-2.4L1283.6,318.2z"/>
		<path d="M1281.2,318.4c-0.2,0-0.4-0.2-0.4-0.2c0-0.2,0.2-0.4,0.4-0.4c0.2,0,0.4,0.2,0.4,0.4
			C1281.6,318.2,1281.4,318.4,1281.2,318.4z"/>
	</g>
	<g>
		<path fill="#F6F6F6" d="M1231.6,328.9c0.5-0.8,1-1.8,1.5-2.8c1-2,2-4.3,3-5.1c0.5-0.8,1.5-1.3,2.5-2c1-0.8,2.3-1.3,3.5-1.8
			c1-0.5,2-0.5,3-0.8c1.3-0.3,2.3-0.5,2.8-0.5c1,0,2.8,1,3,1.5c0.3,0.5,1-1.3,0.8-2.8c-0.3-0.8-1-1.8-1.3-2.3c-0.8-1.5-1-3.3,0-4.8
			s1.3-1.3,2-1.3s1,0,2,1c0.3,0.3,0.5,0.3,0.8,0.5v2.5c-0.3,0-1.8,1.3-0.5,8.1c0.3,1.5-1.3,4.3-1.5,5.1c0,0.5-0.3,1.3-0.8,2.3
			c-0.3,1-0.8,1.8-1,2.3c-0.8,1-2.3,1.8-3.3,4.6c-0.3,0.8-1.3,5.3-1.5,9.9c0,1.3-0.8,7.6-0.5,10.6s0.8,4.3,0.8,4.6
			c0,0.5-2.3,0-2.3,0s1-2.5,1-5.1s0-9.4,0-10.4c0-2.3,0.3-3,0.5-5.1c0-1.3,0.3-2.3,0.3-2.8c0-2.8-1.5-3.8-2.5-2.8
			c-0.8,0.8-0.5,1.3-0.5,2.8c-0.3,1.8,0.3,5.3,0.3,7.1c0,2,0,1.5-0.3,6.3s-0.5,10.4,0,10.4c0.5,0.3-1.5-0.5-1.5-0.5s0.8-0.8,0.8-5.8
			c0-5.1-0.3-7.6-0.3-9.4c0-7.6-1-8.3-1.5-9.1c-0.3-0.5-0.5-0.8-0.8-1c0-0.5-0.5-0.3-1,0.3c-0.8,0.5-1.5,0.5-2.8,1
			c-1,0-1.8,0.3-2.5,0.3c-1.5,0-2.8-0.3-3.3-0.3C1229.8,333.7,1230.1,331.7,1231.6,328.9z"/>
		<path fill="#F39200" d="M1255.4,307.9c-0.3,0.5-0.8,1.5-0.3,2.5l9.4-2.8L1255.4,307.9z"/>
		<path d="M1252.6,308.2c-0.3,0-0.5-0.3-0.5-0.3c0-0.3,0.3-0.5,0.5-0.5s0.5,0.3,0.5,0.5C1253.1,307.9,1252.8,308.2,1252.6,308.2z"/>
	</g>
	<g>
		<path fill="#3F3829" d="M1219,372c0.1-0.2,0.2-0.3,0.3-0.5c0,0.2-0.1,0.3-0.1,0.5C1219.1,372,1219,372,1219,372z"/>
		<path fill="#3F3829" d="M1236.1,383.6c0.1,0,0.1,0.1,0.2,0.1C1236.2,383.7,1236.2,383.7,1236.1,383.6z"/>
		<path fill="#3F3829" d="M1295.7,332.7c0-0.1,0-0.2,0-0.3h0.5c0,0.3-0.3,0.3-0.3,0.5C1295.7,333,1295.7,333,1295.7,332.7z"/>
		<path fill="#3F3829" d="M1211.6,358.8v-0.1C1211.6,358.8,1211.6,358.8,1211.6,358.8z"/>
		<path fill="#3F3829" d="M1340,362.3L1340,362.3L1340,362.3L1340,362.3z"/>
		<path fill="#3F3829" d="M1215.6,334.5c0,0,0.3,0,0.5,0.3c0,0.3-0.3,0.5-0.5,1c-0.3-0.5-0.5-0.8-0.5-1.5
			C1215.1,334.2,1215.4,334.5,1215.6,334.5z"/>
		<path fill="#3F3829" d="M1325,333.2c-0.4,0.2-0.8,0.5-1.3,0.8l0,0c0.5-0.3,0.8-0.8,1.3-1c0.2-0.1,0.4-0.2,0.5-0.3l0,0L1325,333.2z
			"/>
		<path fill="#3F3829" d="M1276,412.7c0-0.4-0.2-0.8-0.2-1.1c0.1,0.2,0,0.4,0.1,0.6c-0.1,0.9,0,1.8,0,2.5c-0.1,0,0.1-0.1,0.1-0.2
			V412.7z"/>
		<path fill="#3F3829" d="M1212.6,364.1c0.1-0.7,0.3-1.7,0.7-2.6c0.3-0.3,0.3-0.5,0.5-0.8l-0.5,1L1212.6,364.1z"/>
		<path fill="#3F3829" d="M1275.8,407.7l0.2,0.9c0,0.9-0.1,2-0.1,3c-0.1-0.2-0.2-0.4-0.2-0.6
			C1275.7,409.5,1275.8,408.4,1275.8,407.7z"/>
		<path fill="#3F3829" d="M1341.8,332.7c-0.3,0-0.8,0-1.3,0H1341.8h0.5c-0.1,0-0.1,0-0.2,0C1342,332.7,1341.9,332.7,1341.8,332.7z"
			/>
		<path fill="#3F3829" d="M1201.9,353.1c0.5-0.3,1-0.3,2-0.5c-0.3,0.5-0.3,0.5-0.5,0.8c0.3,0,0.5,0,0.8-0.3c-0.5,0.5-0.8,1-1,1.5
			c0.3,0,0.5,0.2,0.8,0.2c-0.3,0-0.3-0.3-0.5-0.3c0.8-0.5,1.3-1,1.8-1.6c0.8,1,0,2.4-1,2.9c0.8,0,1.3,0,1.8,0c0.3,0,0.5,0,1,0v0.7
			v0.3c1,0.3,0.9,0.5,1.4,0.5c0-0.8,0.7-1,1.4-1.3c0-0.3,0.2-0.3,0.5-0.3c-0.3,0.5-0.3,0.8-0.5,1.3c0.3,0.3,0.5,0.5,0.8,0.5
			c0-0.5,0.3-1.3,0.3-1.8l1.3,2c0.3,0.5,0.2,1,0.2,1.3c-0.4-0.2-0.7-0.2-0.8-0.4c0.2,0.9,0.5,0.9,1.4,0.4l0.4,0.8l0.6,0.8v0.3
			l0.2,0.3c0.3,0.8,0.1,1.5-0.2,2.3c0,0.3-0.3,0.5-0.6,0.8s-0.5,0.5-0.8,0.5c0-0.2,0-0.4,0.1-0.7l0.2,0.2c-0.5,1-0.9,1.8-0.9,2.5
			c0,0.3,0,0.8,0,1.3c0-0.3-0.1-0.5,0.2-0.8c0.3,0,0.6-0.3,0.8-0.3s0.4,0.3,0.4,0.5c0.3,0,0.2,0.3,0.2,0.3c0,0.3,0,0.5-0.3,0.8
			c0,0.3-0.3,0.3-0.5,0.5c-0.5,0.5-1.3,0.8-1.8,0.8h2.3h0.3l-0.1,0.1c-0.1,1.7-0.1,2.5-0.2,4.2c0.1,0,0.1,0.1,0.1,0.2
			c0.3,0,0.5,0,0.5-0.3c0.3-0.3,0.3-0.5,0-1c0-0.8,0.3-1.5,0.5-2.3c0.3-0.3,0.3-0.5,0.5-1c0.3-0.3,0.5-0.5,0.8-0.5
			c0.3-0.3,0.5-0.3,0.8,0c-0.3,0.5-0.5,0.8-0.8,1.3l-0.5,0.5c0,0,0.3,0,0.3,0.3l0.3-0.2c0.3-0.3,0.5-0.5,0.8-1
			c0.3,0.3,0.5,0.3,0.5,0.5c0.3,0,0.3,0.3,0.5,0.3c0,0.3-0.3,0.9-0.3,0.9h0.3c0.8,0,1.5-1.4,2-1.9c-0.1,0.7-0.2,1.1-0.2,1.4
			c0.2-0.3,0.3-0.5,0.5-0.8l0.3-0.3l0.8,1c-0.3,0.3-0.5,0.5-1,0.5c-0.2,0-0.4,0-0.6,0s-0.5,2-0.9,2c0.3,0,0.8,0,0.8,0s0,0,0,0.5
			c0-0.3,0.5-0.5,0.7-0.5s0.3,0,0.5,0s0.5,0.8,0.8,1.3c0-0.5,0-0.8,0.3-1c0.8,1,0,2-1.5,2.3c0.3,0.3,0.5,0.5,0.5,0.8
			c0.3,0.5,0.3,1,0.3,1.5c0.3-1.3,0.5-2,1.8-1.8c0.3,0.3,0.3,0.8,0.3,1.3c0.3-1,0.8-1.8,1.5-1.8l1.8,2.5c-0.3,0.3-0.3,0.3-0.3,0.5
			c-0.5,0.3-1,0.5-1.3,1c1.5,0.3,2.8,0.8,3.1,1c0,0.3,0.3,0.3,0.8,0.5c0.8,0.3,2,0.3,3.3,0.5c-0.3-0.5-0.3-0.8,0-1
			c0-0.5,0.5-1,1-1.5c0,0.5,0.3,1,0.3,1.3c-0.3,0.3-0.5,0.3-0.5,0.3c0.3,0.3,0.5,0,0.8,0.3c0,0,0,0-0.3,0h0.5c1.1,0,2.3,0.9,2.9,1.1
			c-0.1-0.1-0.1-0.1-0.3-0.2c1-0.8,1.9-0.4,3.2-0.4v0.4c0,0.3,0,0.8,0,0.8c-1,0.5-0.6,0.8-0.9,1c-0.8,0.5-0.1,0.5-1.1-0.3
			c0,0.3,0,0.3,0,0.5s0.2,0.3,0.2,0.5c-0.3,0-0.3,0-0.3,0.3c0,0-0.3,0-0.3,0.2c0.3,0.3,0.2,0.2,0.5,0.5c-0.3,0.5-0.5,0.4-0.8,0.7
			c0,0.3,0-0.1-0.3-0.1h0.5c0.3,0,0.3,0.4,0.3,0.1c0.3-0.3,0.5-0.1,0.8-0.3c0,0,0-0.3,0.3-0.5c0,0.5,0.5,0.7,0.5,0.7h0.8
			c-0.3,0-0.5-0.1-0.8-0.4c0-0.3,0-0.6,0.3-0.8c0.3-0.5,0.8-1.3,1.5-1.8c0.5,1.3,0.8,3,1,3h0.5h1c0,0-0.3-0.4-0.3-0.6
			c0.3-1,0.8-1.3,1.5-1.8c0.5-0.3,1-0.4,1.8-0.4c0.8-0.3,0.3,0.3,0,0.6c-0.8,1,0.2,2.3-2.8,3.1v0.8c3-1.3,2.5-2.3,3.5-3.6
			c0.5,0.5,1,0.5,1,0.8c0.3,0.3,0.4,0.5,0.1,1c0,0.3-0.2,0.3-0.2,0.8c-0.8,0.8-1.2,1.8-1.8,2.8l2.1-2.5l0.8-1c0.3,0,0.3,0,0.3,0.3
			c0.3,0,0.3,0,0.3,0.3c0.5,0.5,1,0.8,1.3,1.8c0,0,0.3,0.3,0.3,0.5c0.5,0.3,1,0.3,1.3,0.8c1.3,1,2.3,2.5,3.6,3.6
			c0.8,0.8,0.5,1.3,0.3,1.8c-0.5,0.5-1,1-1.3,1.8c0,0.3,0.3,0.5,0.3,0.8c0.3,0,0.8,0,1-0.3c0.3-0.8,0.8-1.5,1.3-2.3
			c0.3,0.3,0.8,0.5,0.8,0.8l0.8,0.8l1.3,1.5l1.3,1.3c1.8,2,3.6,4.1,5.6,6.1l1,1.3l1,1l2,2.3l0.5,0.5l0.8,0.8l1.3,1.5l0.8,0.8
			l0.3,0.5l0.8,0.5l0.4,0.5c0.1,0.1,0.5-0.1,0.5-0.5v-0.8l-0.7-0.8l-1-0.5l-0.3-0.5l-0.8-0.8l-1.3-1.5l-0.8-0.8l-0.5-0.5l-2-2.5
			l-1-0.8l-1-1.3l-0.8-0.8c-0.8-0.8-1.5-1.5-0.5-2.5c0.5-0.8,0.8-1.5,1.3-2c0.3-0.8,0.8-1.5,1-2.3l0.3-0.2c0.3,1.5,0.3,2.1-0.3,3.1
			c0,0-0.3,0.3-0.3,0.6c-0.3,0.3-0.3,0.7-0.3,0.9c-0.3,0.5,0,0.7,0.5,0.7h0.3c0,0,0.3-0.2,0.8-0.7s1.3-1.9,1-2.4c-1-1.8,0-3,0.8-4.5
			l0.3,0.3l0.5,0.3c0.3,0.3,0.5,0.5,0.8,0.8l0.3,0.3c0.5,0.5,0.8,0.8,1,1c0.5,1,0.5,1.8,0.3,2.8c0,0.5-0.4,1.3-0.4,1.8
			c-0.3,1.5-0.1,2.8-0.1,4.3v0.3l-0.1-0.3l0.3,0.5c0.3,0.5,0.5,1,0.8,1.8l0.3,0.8l0.8,1.3c0.1,0.4,0.4,0.9,0.6,1.4
			c0-0.2,0-0.4,0-0.7c0-0.2-0.1-0.3-0.1-0.5c-0.3-0.3-0.5-0.8-0.5-1.3c-0.3-0.5-0.5-1-0.8-1.5c-0.3-0.8-0.3-1.8,0-2.8
			c0,0,0.3-0.3,0.3-0.5l-0.3,0.3c0,0.3-0.2,0.5-0.2,0.8s0,0.3-0.2,0.5c-0.8-1.5-0.7-4.3,0.3-5.4c0,0.3-0.1,0.8-0.1,1
			c0.3,0.3,0,0.5,0,0.8c0,0.8,0,1.7,0,1.7s0.8,0,1,0c0,0,0,0.7,0.3,0.9l0.5,2.6c0.2-3,0.2-1.5,0.2,0.9l0.1,0.4l1.1,1.5l0.8,1.3
			c0,0.5,0,0.8,0,1.3l0,0v-0.3l-1.2-0.8c-0.1-0.1-0.5-0.3-0.6-0.4c0,0.2-0.1,0.4-0.2,0.7c0.1,0.2,0.1,0.5,0.2,0.7l0.9,0.3
			c0,0.3,0.9,0.5,0.9,0.5c0,0.3,0,0.5,0,0.8s-0.9,0.5-0.9,0.8l-0.6-0.3c-0.2-0.2-0.3-0.2-0.4-0.3c0,0.2,0,0.4,0,0.6v3.1
			c0-0.3,0.1-1.3,0.1-1.3c0.3,0,0.3,0,0.5,0s-2.5,786.2-2,787.2c1.3,0,4.8,0,6.1,0c0.3,0,1-785.6,1.3-785.9c0,0.3,0.3,0.3,0.3,0.8
			c0.3-0.5,0.3-0.8,0.3-1s0.3-0.5,0.3-0.5c0-0.3,0-0.8,0.3-0.8c0.3-0.3,0.3-0.5,0.8-0.8c0.3-0.3,0.5-0.3,1-0.3
			c-0.3,0-0.5-0.3-0.8-0.5c1.8-2,3.8-4.1,5.6-5.9l6.6-6.9l1.8-1.8l1-1l1.3-1.5l1.8-1.8l2-2l0.5,1l0.5,2l0.5-0.8
			c0-0.8-0.3-1.5-0.5-2.5c0-0.3,0-0.8,0.3-1c0.8-1,1.5-1.8,2.3-2.5l1.3-1l0.3-0.3c0.3-0.5,0.8-1,1.3-1.5c0.3,0.3,0.5,0.5,0.5,0.8
			c0.5,0.8,1.4,1.5,1.9,2.3l1.1-1c0,0,0,0,0-0.3c0-1.3,0-2.5,0.5-4.5c0,0,0,0,0.3,0c0.3,2,0.5,1.4,0.8,2.1l1-1.2
			c-0.3-0.3,0.1-0.5-0.2-0.5c-0.3-0.5-0.4-1-0.4-1.5c0-0.3,0-0.8,0-1c0-0.5,0.7-1,1.2-1.5c0.3-0.3,0.3-0.5,0.6-0.3
			c0.8,0.3,1.4,0.8,2.1,0.8h0.5c-0.8,0-1.5-0.8-2.5-1.3c1.3,0,2.5-0.1,3.8-0.3c0,0.3-0.3,0.5-0.3,0.8l1-0.2c0-0.3,0.3,0.1,0.3,0.1
			h0.3l0.3-0.6c0-0.3,0-1,0.3-1.2c0.3-0.8,0.5-1.3,0.8-1.8c0.3-1,0.8-1.8,0.8-2.6V375l0.3-0.3c1,0,0.5-0.8,0.5-1.3
			c0.3-0.3,0.3-0.3,0.3-0.3c0.5,1.3,0.8,2.3,1,3.3c0.3,0.3,0.3,0.5,0.5,0.8c0,0.3,0.3,0.5,0.3,0.8l1.1-0.5c0,0,0-0.3,0-0.5
			c0-1-0.1-2,0.4-3.1c0-0.3,0.4-0.5,0.7-0.5c0,0,0.3,0.3,0.3,0.5c0.3-0.3,0.3-0.8,0.5-1c1,0.8,2,1.3,3.1,2l1.3-0.8
			c-0.8-0.8-1.5-1.5-2-2.3c-0.5-0.3-0.5-0.8-0.8-1.3c0.3,0,0.3-0.3,0.5-0.3c0.3,0.3,0.5,0.5,0.8,0.8c0.8,0.3,1.8,0.5,2.5,0.8
			c0-0.3,0.7-0.3,0.7-0.3c-0.5-0.3-0.9-0.5-0.9-0.5c0-0.5,0-1,0-1.8c0,0.3,0.1,0.5,0.1,0.8c0.3-0.3,0.1-0.3,0.3-0.5
			c0.8,1.3,0.4,2.8,0.1,4.1l1.5-0.8l0.5-0.3c0-0.8,0-1.2-0.5-1.7c-0.3-0.3-0.3-0.5-0.3-0.5h0.3c1,0,1.3,1,1.5,1.7l1-1.5
			c-0.3-0.3-0.5-0.5-0.8-0.5c-0.3-0.3-0.8-0.3-1.3-0.5c-0.3-0.3-0.5-0.5-0.5-1c-0.3,0-0.3-0.3,0-0.5c0-0.3,0.2-0.8,0.5-1
			s1.1-0.8,0.9-1c-0.3-0.5,0.6-1.3,0.6-2v-0.3c0-0.5-0.1-0.5-0.1-0.8c0.3-0.3,0.1-0.5,0.3-0.8c0,0.2-0.1,0.3-0.1,0.5
			c0.3,0.2,0.4,0.2,0.4,0.5c0.8,0.5,0.7,1.3,0.2,2l-0.3-0.5c0-0.5-0.3-1.2-0.5-2c0.1,1.3,0.3,2.4,0.5,3.5c0.3,0.5,0.3,1.3,0.5,1.8
			c0,0.8-0.3,1.6,0,2.3l0.8-0.9c0-1-0.3-3.1-0.3-3.1h0.3c0.3,0,0.2,0.9,1.2,1.4c0,0,0,0,0-0.3c0-1-0.9-2.3-0.9-3.6
			c0-0.3-1.1-0.5-1.1-0.8c0,0,0,0,0-0.3c0-0.8-0.9-0.8-0.1-2.3c0-0.3,0.5-0.8,0.7-1c0.8,0.3,0.9,0.7,0.6,1.5
			c0.3-0.3,0.6-0.3,0.8-0.6l0.3-0.5c0.3,0.8,0.5,1.4,0.8,1.4h0.5c0.3,2,1.4,2.5,1.4,3.6v0.3l0.7-1.5c-0.3-0.3-0.7-0.5-0.9-0.8
			c0.3,0,0,0,0.2-0.3c0,0.3,0,0.5,0,0.8v-0.3c0,0,0,0,0-0.3c0-0.8-0.9-1.8-1.4-2.8c-0.5-0.8-0.8-1.3-1.1-2c-0.3-0.5-0.5-1-0.5-1.5
			V356c0,0.5,0.6,1,0.8,1.8l0.4-0.3c-0.3-0.5-0.3-1-0.5-1.5c0-0.5,0.5-0.8,0.5-0.8c0.3,0,1,0.3,1,0.5c0.5,0.5,0.5,1,0.8,1.8
			c0.5-0.3,0.8-0.3,1-0.5c0.3,0.3,0.3,0.5,0.5,1c-0.3-1.3-0.5-2.3-1.8-2.8c1,0,1.8-0.3,2-1.3c-0.8-0.3-1.8-0.3-2.5,0
			s-1.3,0.3-1.3-0.8c-0.3-0.3-0.3-0.3-0.5-0.5c0-0.3,0-0.3-0.3-0.5c-0.3-0.8-0.3-1.3,0-2c0,0,0.3,0,0.3-0.3c0.3,0,0-0.3,0.3-0.3
			c0.3,0.3,0.5,0.5,0.8,0.8c0,0,0.3,0,0.3-0.3c0.3,0.5,0.3,0.8,0.5,1.3c0.3-1.5-0.8-2.5-1.5-4.1l2.5,0.3c-0.3-0.8-0.3-1.3-0.5-1.8
			c-0.3,0.3-0.5,0.3-0.5,0.3c-0.3,0-0.3-0.5-0.5-0.5c1.8-0.8,0.3-1.8,0.3-2.6c0,0.5-0.3,1-0.5,1.3c0,0-0.3-0.8-0.5-0.8
			s-0.5-0.3-0.8-0.3s-0.1,0-0.1,0s0,0.4,0,0.2c0,0,0,0,0,0.3v-0.3c1,0,0.8-0.3,1.3-0.3c-0.3-0.5-0.4-1-0.4-1.5
			c0.3,0.5,1.5,0.3,1,1.5c0.3-0.5,0.7-1,1-1.5c0.3,0.3,0.2,0.5,0.5,0.8c0-0.8,0-0.8-2.3-1.8c1.3,0,2.3-0.8,3.6,0.3
			c0,0,0.3-0.3,0.3-0.5c-0.8-0.3-1.5-0.8-2.5-1.3c0,0,0.3,0,0.3-0.3c-0.5,0.3-1.3,0.3-2,0.3c0.5-0.8,0.8-1,1-1.5
			c-0.5-0.3-0.9-0.3-1.4-0.5c1.5-0.3,2.7-0.3,3.7-0.5c0-0.3,0,0.7,0-0.3c-1,0-0.9,0-1.1,0c-0.8,1-1.6,0.4-2.4-0.1
			c0,0-0.2-0.4-0.5-0.4c0-0.3,0-0.5,0-0.8s0-0.3,0-0.3c0-0.3,0-0.3,0-0.5v-0.5c0-0.3,0.3-0.8,0.3-1.3l-0.3-0.3v-0.3c0,0,0-0.3-1-0.5
			c0,0.7,0,1,0,1.5c0,0.1-0.4,0.3-0.4,0.3s0.6,0,0.5,0s-0.2,0.3-0.3,0.5c-0.3,1-0.5,2-1.3,2.8c-0.3,0.3-0.5,0.8-0.8,1
			c-0.3-0.3-0.3-0.2-0.3-0.2c0.3-0.3,0.5-0.4,0.8-1c-0.8,0-1.8-0.1-2.3-0.1h-0.5c0.3-1,0.2-0.4,0.5-0.6c0.5-0.5,1.3-0.4,2,0.1
			c0-0.3,0.4-0.3,0.4-0.3c-0.5-0.5-0.4-1-1.4-1.5V333h1.5c-0.8,0-1.8,0-2.5-0.5l-0.3-0.3c-0.7,1.2-2.1,0.8-3.2,1c-0.1,0-0.1,0-0.2,0
			c0.1,0,0.1,0,0.2,0c0.2-0.1,0.5-0.3,0.9-0.5c0-0.5-0.3-1-0.3-1.8c-1.8,2.5-3.3,1.5-4.6-0.3c0.5-0.5,2-0.8,1.5-2.3
			c-0.3,1.3-1.3,1.5-2,1.8l-0.3,0.3c-0.3-0.8-0.3-1.5-1.5-1.5c0.3,0.8,0.5,1,0.8,1.5c0,0.3-0.3,0.8-0.5,0.8c-0.5,0.3-1-0.2-1.5,0.8
			c-0.5,0-1,0-1.8,0c0,1,0.2,0.5,0.3,0.7c0.2-0.1,0.5-0.2,0.8-0.2c0,0,0,0.2,0.3,0.2c-0.5,0.3-1,0.5-1.5,0.8c-0.3,0.3-0.8,0.5-1,0.8
			c-0.1-0.1-0.2-0.2-0.2-0.2c-0.2,0.1-0.3,0.2-0.5,0.2c0-0.3-0.3-0.5-0.3-0.8c-0.3,0.3-0.5,0.5-0.5,0.3c-1.3-0.5-1.5,0.8-2.3,1.3
			c-0.5,0.3-0.8,0.8-1.8,0.5c0.5-0.3,0.8-0.3,1-0.5c-0.3-0.5-0.5-1-0.8-1.5c0.8,0.5,1.5,0.8,2,0c-0.3-0.3-0.5-0.3-1-0.5
			c1-0.8,1.3-1.5,3.3-2.3v-0.3c0,0-0.8,0.2-1,0.2c-0.8,1-1.9,1.2-2.9,1.7c-2,1-4.1,0.5-5.9,1c-0.3,0-1.9-0.4-3.9-0.4h-0.3
			c-0.5,0-0.8,0-1.3,0c-0.3,0-0.8,0.5-1,0.5s-0.8-0.5-1.3-0.5h0.3l-0.5-1h-0.5c-1,0-1.8-0.5-2.5-0.5c-0.5,0-1.3-0.5-1.8-0.5
			s-1,0-1.3,0c-0.5,0-0.8,0.2-1,0.5c0,0.5-0.3,0.9-0.3,1.4c-0.5-0.5-0.8-0.4-1-0.7c-0.3,0.3-0.3,0.8-0.5,0.8h0.8c-0.3,0-0.3,0-0.3,1
			c0,0-0.3,0-0.5,0c-0.3-1,0.8-0.8-1.2-0.8c0-0.2,0-0.3,0-0.5c0-0.5,0-0.8,0-1.3c0-1.3,0-2.1,0-3.1l0,0c0,1,0,2.1,0,3.3
			c0,0.5-0.3,1.3-0.6,1.8c-0.3,0.3-0.6,0.5-1.1,0.5c-0.3,0-0.8,0-0.8,0c-1,0-2,0.2-3.1,0c-0.3-0.3-0.8-0.8-1.3-0.8
			c-0.3-0.3-0.5-0.3-1-0.3c0.3-0.8,1.3-1.9,2.3-1.9h0.3c0.8,0,1.8-1.4,1.5-2.2c0,0-0.3-0.1-0.5-0.1s-0.5,0.2-0.8,0.5
			c0.3,0.3,0.5,0.2,0.8,0.5c-0.5,0-0.8,0-1.3,0.3s-1,0.8-1.5,1.3c-0.5,0.8-1.5,1.3-2.3,1.8c-0.3,0-1,0.2-1.3-0.1
			c-0.3,0-0.5,0.1-0.8,0.1s-0.5,0-0.8,0h-0.3c-0.3,0-0.5-0.4-0.8-0.2c-0.5,0-0.8-0.2-1.3,0c-1.3,0.5-2.8,1.1-4.1,0.1
			c-0.3,0-0.3,0-0.5,0c0.3,0,0.3,0.2,0.5,0.2c0.3,0.3,0,0.5,0,0.7c-0.3-0.3-0.3,0-0.5,0c-0.3-0.3-0.5-0.9-1-0.9c-0.3,0-1,0-1,0l0,0
			c0,0.3,0.6,0.3,0.9,0.5c-0.3,0.3-0.3,0.3-0.3,0.3c-0.3,0-0.2,0-0.4-0.3l-0.2-0.3c-0.3,0-0.5-0.3-0.7-0.3c0,0.3,0.3,0.5,0.3,1
			l-0.2-0.2c-0.5-0.3-1-0.2-1.3-0.2c-0.5,0-0.8-0.2-0.8-0.2c-0.3,0-0.5,0.1-0.5,0.1c-0.3-0.3-0.5-0.4-0.5-0.4h-1
			c-0.3,0-0.5-0.1-0.5,0.2c-0.3,0-0.8,0.1-1-0.2h-0.3c-0.3,0-0.3,0-0.5,0h0.1c0,0,0-0.5,0,0c-1-0.3-1.4,0-1.9,0h-2c-1,0-1.5,0-2,1
			h-0.3c-0.3,0-1.6-0.9-1.6-1.2v0.2c0,0-0.2,0-0.7,0c0,0,0,0,0.3,0c-0.3,0-0.3,0-0.3,0c-0.3,0-0.5,0.1-0.8,0.1c-0.5,0-1,0-1.3-0.3
			c0-0.3,0.3-0.8,0.3-1.3c0,0-0.3-0.3-0.5,0c-0.5,0.3-1,0.7-1.5,0.7c-0.8,0.3-1.8,0.2-3.1,0c0,0-0.3-0.3-0.3-0.5c-0.3,0-0.8,0-1,0.3
			c0.3-0.8,0.5-1.3,0.8-1.8c-0.3,0-0.3,0-0.3-0.3c-0.3,0.5-0.5,1.1-0.8,1.6c-0.5,0-1.3-0.5-0.8,0.5h-0.3h-0.3h-1c-0.5,0-0.8,0-1.3,0
			h-2.5l-2.3-1h-0.3c-0.3,0-0.8,0.3-1,0.3c0.3,0.3,0.3,0.8,0.3,1.3c-0.8-0.5-2.3,0.1-2.5-1.7c0,0.3-0.3,0.3-0.3,0.5
			c0.5,0.5,1.3,1,1.8,1.8c-0.5,0.3-1,0.3-1.3,0c-0.5-0.5-0.8-0.8-1-1.3l-0.3,0.3c0,0.3,0.3,0.5,0.3,0.8c-0.3,0-0.5,0-0.8-0.3
			c0.3,0.5,0.8,0.8,1,0.8c-0.3,0.3-0.3,0.3-0.3,0.3c-0.5,0-1,0-1.5,0c-0.8,0-2-0.7-2.3-0.7h0.3c-0.5-1-0.6-1.3-0.6-1.8
			c0.3-1-0.1-2.3-0.1-3.3c0,1,0,1.8,0,2.5l-0.1,1c-0.8-0.3-1.5-0.8-2-1c0.3-0.5,0.7-0.8,0.9-1c-0.3,0.3-0.8,0.5-0.8,1
			c0-1,0-1.4,0-2.4h-3c0,1,0,1.1,0,1.6c0,0.3,0,0.3,0,0.3c0,0.3,0.5,0.5,0.5,0.5c-0.5,0-0.3,0.3-0.6,0.5c-0.5,0.5-0.7,0.8-1.4,0.3
			c-1-0.5-2.4-0.8-3.4-1.3v0.3c0,0.3,0.3,0.2,0.8,0.5s0.9,0.8,0.6,1.6c0,0.3,0.4,0.8,0.7,0.8c0.5,0,0.9,0,0.9,0v1.7
			c0,0.3,2,0.3,2,0.5v0.3c-1-0.3-1.2-0.5-1.7-0.8c-0.8-0.5-1.1-0.3-1.1,0.5s-0.3,0.8-1,0.8c-0.3-0.3-1.1,0-1.3-0.3
			c0.5,0,1.2-0.3,1.2-0.5V335c0-0.3-1.8,1-2.8,1c-0.3,0-0.4,0.5-0.6,0.5c-0.5-0.3-0.7-0.5-0.9-1c0-0.5-0.2-0.8-0.2-1l0.3-0.2
			c0.3,0,0.5-0.2,1-0.2c-0.3,0-0.5,0-1,0h-0.5c0.3,0,0.3-0.5,0.5-0.8l0.5-0.5c-0.3,0-0.3,0-0.5,0.2c-0.3,0-0.5,0.3-0.5,0.3
			c-0.3,1-1,1-1.8,1c0,0.5,0,1-0.3,1c-0.3,0.5-1.1,0.5-1.1,0.5c0,0.3,0,0.3,0,0.5s0,0.3,0,0.5l-0.4,0.3c-0.3,0.3-0.3,0.3-0.6,0.5
			l-0.6,0.5c-0.3,0.3-0.3,0.5-0.5,0.8c0,0-0.3,0.3-0.5,0.3c-0.3,0.3-0.8,0.3-1.3,0c-0.3-0.3-0.5-0.5-1-0.8c0,0.3,0,0.3,0,0.3
			c0.3,0.3,1,0.5,1,0.8v0.3c0,0,0,0-2-0.3c0,0.3,0,0.5,0,0.5c0,0.5,0,1.2,0,1.2s0.3,0,0,0c0,0-0.3,0.6-0.3,0.8
			c-0.8,1.3-1.5,2.6-2.6,3.9c0,0.3,0.3,0.3,0.3,0.3s0.5-0.3,0.5-0.5c0,0.3,0,0.3,0,0.5c0,1,0.3,2-0.3,2.8l-0.7-1.3l-0.5-0.8
			c-0.3,0.3-0.5,0.5-1,1l1.5,2v0.3c0,0-0.5,0.3-1,0c-0.5,1.3-1.5,1.8-3,1.8c-0.3,0.3-0.8,0.5-1.3,0.8
			C1201.6,352.6,1201.6,352.6,1201.9,353.1z M1342.7,336.5L1342.7,336.5v0.3c0.5,0,0.7,0.1,0.7,0.1c0,0.3-0.1,0.6-0.3,0.6
			s-0.4,0-0.4,0S1342.7,337.2,1342.7,336.5z M1341.1,354.5c0,0-0.2,0.1-0.2-0.1v0.3c0,0.5,1.4,1.3,1.4,1.3s-0.3,0-0.5,0
			C1341.8,355.9,1341.1,355,1341.1,354.5z M1338.8,355.4c0.8,0.5,1.5,0.8,1.5,1.8c-0.3-0.3-0.3-0.2-0.5-0.5l-0.3-0.6
			c-0.3,0.8-0.3,0.9,1,0.9h0.3l-0.3,0.9c-0.3,0.8-0.3,1.9-0.5,3c-1-1-1-1.7-0.8-2.7C1339.5,357.3,1339,356.4,1338.8,355.4z
			 M1337.5,334.3c0-1.3,0-1.3,0.5-1.3c0,0,0.3,0,0.5,0c-0.3,0.6-0.5,0.6-0.5,0.9C1337.7,333.9,1337.5,334.1,1337.5,334.3z M1327,333
			c0-1,0-0.5,0-0.8c2-0.3,1.8-1.2,2.6-1.2h0.5c0.8,0,1.8,1,2.5,2c-1,0-1.8,0-2.5,0c-0.5,0-1,0-1.5,0S1327,333,1327,333z
			 M1326.6,371.5c0.3,0.3,0.4,0.5,0.4,0.8s0,0.8,0,1c0,0.5,0.4,1,0.1,1.5c-0.3-0.3-0.1-0.5-0.4-0.5
			C1325.7,372.7,1325.6,371.7,1326.6,371.5z M1321.9,379c0.3-1.3,0.3-2,0.3-3h0.8h0.3c0-1-0.3-0.9-0.3-1.1l-0.5-0.9
			c0.3-0.3,0.3-0.3,0.5-0.5c0.3-0.3,0.5-0.5,0.8-0.8c0.5,1,0,3.1-0.8,4.8C1322.7,378.1,1322.2,378.7,1321.9,379z M1282.7,385
			c0,0.3,0.3,0.3,0.3,0.5l-0.2,0.3c0,1.8,1.3,3.3-0.7,5.1v0.3c0,0.3,0.7,0.9,0.7,0.9c-0.3,0-0.5,0-0.5,0c-0.3-2-0.3-4.2-0.3-6.2
			c0-0.3,0.5-0.9,0.5-1.2L1282.7,385z M1284.5,333c-0.3,0.3-1.2,0.3-1.2,0.3l-1.2,0.3v-0.3c0-0.3,0.7-0.2,0.7-0.2h0.3
			c0.3,0,0.5,0,0.8,0C1284,333.2,1284.2,333,1284.5,333z M1285.7,389.1c-0.5,2.3-1.3,4.9-1.8,7.2c-0.3,0.5-0.3,0.9-0.3,1.4
			c-0.3,0.8-0.5,0.3-0.8,2.3h-0.3c0-3,0-4.1,0.3-6.1c0.3-1.5,0.5-3.3,0.8-4.8c0-1,0.3-2.1,0.3-3.3c0.5,0.3,0.8,0.2,1,0.5
			C1285.5,387,1286,388.1,1285.7,389.1z M1298,386.2l1,1.3c0.3,0.5,0.5,0.8,0.8,1.3c-0.3,0-0.3,0-0.3,0.3l-0.5-0.5l-1-0.8l-1.5-1.3
			c0.3-0.3,0.8-0.5,1-0.8L1298,386.2z M1302.5,383.9c0,0.5,0,1.5-0.5,2.5c-0.3,1-0.8,2-1.3,2.8c-0.3,0-0.2-0.3-0.4-0.5
			c-0.3-0.5-1.3-1.3-1.3-1.8v-0.3c0-1.5-1-1.1,0-1.9l0.5,0.1h0.1l0,0c0.3,0,0.6,0,0.6,0c0.5,0,0.7,0,2.7,0v-1.3
			c-2,0-2.2-1.7-2.7-1.7h-0.3l0.3,0.2c0.3-0.3,0.5,0.2,0.8-0.1c1,0.8,1.3,1.7,0.5,2.7l0.5-0.4L1302.5,383.9z M1305.9,385.2
			c0,0.3,0,0.2-0.3,0.2c0,0-0.3-0.1-0.5-0.1c-0.3-0.3-0.5-0.4-0.5-0.4h-0.3c-0.3,0,0-1.4,0.3-1.7c0,0,0.3-0.1,0.5,0.2
			c0.3,0,0.3,0.2,0.5,0.5C1305.6,384.5,1305.9,384.9,1305.9,385.2z M1308.9,385.2c-0.5-0.8-0.8-1.5-1.3-2.3l-0.5-0.9
			c0.3,0,0.5,0,0.5,0c0.5,0,1,0.1,1.3,0.4c0.8,0.5,1.3,2.2,1.5,3.2c0.3,0.3,0-0.6-0.3,1.4h-0.5
			C1309.4,385,1309.2,385.5,1308.9,385.2z M1308.4,385.5c-0.3,0-0.5,0-0.8-0.3c-0.5-0.3-0.8-1-0.5-2c0,0.5,0.3,0.8,0.5,1.3
			C1307.9,384.7,1308.2,385.2,1308.4,385.5z M1305.6,388.9c0.3-0.8,0.5-1.7,0.8-2.5l1.3,0.5h0.5l-0.5,0.8c-0.5,0.3-1.3,1-1.8,1.5
			C1305.9,389,1305.6,388.9,1305.6,388.9z M1305.1,388.7l-0.3,0.7c0,0.3,0,0.6-0.3,0.6h-0.3c-0.8,0-1.1,0.9-1.8,1.2
			c-0.5-1-1.5-1.4,0.5-2.1v-0.3c0-1.3,0.5-2.3,1.1-3.6c0.3,0.3,0.5,0.9,0.7,0.9c0.3,0.3,0.1,0.9,0.3,0.9h0.3c0,0,0.3,0.1,0.3,0.4
			C1305.4,387.9,1305.4,388.2,1305.1,388.7z M1292.7,402.5c-1-2.3-2.2-4.8-3.3-7.1l-1.4-3.6c0-0.3,0-0.5,0-0.5
			c0-1.3-0.1-2.3-0.6-3.3c-0.3-0.8-0.2-1.5,0.3-2.5c0.3,0.5,0.8,1,1.3,1.3c0.3,0.5,0.3,0.8,0.5,0.8c0.3-0.3,0.5,0,0.5-0.3
			c0.5,0.8,1,1.6,1.5,2.6h0.3c0-1,0-1.1-0.3-1.4c0.5,0,0.8,0,1.3,0.2c0.3,0,0.5-0.3,0.8-0.3c0-0.3-0.3-0.5-0.3-0.8
			c-0.5-0.3-1.3-0.5-1.5-0.8c-0.8-0.5-0.8-1-0.3-1.5c0.5,0,0.8,0.5,1,0.5c0.5,0.3,1,0.3,1.3,0.5c0.8,0.3,1.5,1,2,1.3
			c0,0.3,0.3,0.3,0.3,0.3c0.5,0.3,1,0.5,1.3,0.8s0.3,0.5,0.5,0.5c0.3,0.5,0.8,0.8,1,1.3l0.3,0.3c0.5,0.8,0.5,1.5-0.3,2
			c-0.3,0.3-0.8,0.5-1,0.5c-0.3,0.3-0.1,0.3-0.1,0.5c-0.5,0-0.9,0.3-0.9,0.5v0.3c0-0.3,0.5-0.6,1-0.6h0.5c0,0,0.5,1.2,0.5,1.7v0.3
			v0.1h-0.8c0.3-1,0.5-0.4,0.8-0.7c0.3-0.5,0.5-0.7,0.8-1.3c0.3-0.5,0.5-0.7,0.5-1c0.3-0.5,0.8-0.7,1-1l0.8-0.5
			c0.8-0.3,1.8-0.8,2.5-1.3c0,0,0,0,0.3,0.3c-0.3,0-0.3,0.3-0.3,0.3c-0.3,0.5-0.5,1-0.8,1.3l-1.8,1.8l-1.8,1.8l-1.3,1.5l-1,1
			l-1.8,1.8c-1,1-2,2-3.1,3.1C1292.9,402.8,1292.9,402.8,1292.7,402.5z M1281.7,413c0-1,0-1.8,0.3-2.8c0-0.5,0-1.3,0.3-1.8l0.5-2.3
			l0.3-1.3l0.5-2.5c0.8-3.6,1.6-7.4,2.6-11c0-0.3,0-1.3,0-1.3c1,0,0.8,0,0.8,0c0,2,0.3,2.3-0.2,3.1c-0.3,1.3,0.1,1.9,0.6,2.7
			c0.3,0.3,0.9,0.4,0.9,0.4c0-0.3,0-0.5,0-1c0-0.3-0.1-0.5-0.1-0.8c0.3,0,0.3,0,0.3,0.3l1.3,3.1c1,2,1.8,3.8,2.6,5.9
			c0,0.3-0.2,0.5-0.2,0.8c-0.8,0.8-1.5,1.5-2.3,2.3c-1.8,2-3.8,4.1-5.9,6.4l-0.8,0.5c0,0.3-0.3,0.3-0.3,0.3c-0.3,0-0.3,0.3-0.5,0.3
			c0-0.3-0.3-0.5-0.3-0.8C1281.7,413.3,1281.7,413,1281.7,413z M1281,400.5l1,1.3v2.2h-1C1281,404,1281,401.8,1281,400.5z
			 M1259.2,382.7c-0.3,0.5-0.5,0.7-0.8,0.7s-0.5-0.3-0.8-0.5c0.3-0.3,0.5-0.5,0.8-0.5h0.3C1258.7,382.5,1259,382.7,1259.2,382.7z
			 M1262.1,384c0,0.3-0.1,0.8-0.4,0.8c-0.3,0.5-0.5,0.8-0.8,1.3c-0.3,0.3-0.5,0.9-0.8,0.9s-1.3,0-1.3,0v-0.5c0-0.8,1.1-1.5,1.6-2.3
			C1260.9,383.9,1261.9,384,1262.1,384z M1268.7,382.8c-0.5,0.8-0.6,1.8-0.9,2.6c-0.3,0.3-0.8,1-0.8,1.3v-0.3c-2-0.5-1.5-1-2.2-1.5
			c0,0-0.1,0,0.1-0.2c0.5,0.3,1-0.7,1.5,0.1c0-0.3,0-0.7,0.2-1c0.3-0.5,0.5-1.9,0.7-1.9h0.3C1267.9,382,1268.2,382.8,1268.7,382.8z
			 M1272.7,383c-0.3,0.3-0.5,0.4-0.7,0.7c-0.3,0-0.5,0.3-0.5,0.5c0-0.8,0-1.7,0-1.7c0.7,0,0.3,0,0.5,0S1272.4,382.7,1272.7,383z
			 M1274,382c-0.5,0-0.5,1.9-0.8,2.4s-0.8,2.6-1.3,2.6h-0.3c-0.3,0,0-1.9,0.3-2.4s0.8,0.4,1.3-2.6C1273.5,382,1273.8,382,1274,382z
			 M1277.1,387c-0.3,2-0.5,1.2-0.5,2c0,0.5-0.3,1-0.3,1s1.7,0-0.3,0v0.3c2-0.8,2-1.8,2-2.5V387C1278,387,1276.8,387,1277.1,387z
			 M1276.8,402c0-2-0.1-1.6-0.4-2.4c-0.3-0.5,0.2-1.6,0.5-2.1c0-0.3,1.1-0.8,1.1-1.1c0,1.5,0,3.6,0,5.6
			C1278,402,1277.1,402,1276.8,402z M1276.1,400h0.3c0,0,0.7,0.8,1,1.3c0.3,1.5,0.7,2.8,0.7,4.6v-0.3c0-0.5-1-0.8-1.2-1
			C1276.3,402.8,1275.5,402,1276.1,400z M1275.4,395.6c0-0.3-1.4-0.2,0.6-0.4c0,0.8,0,0.8,0,1.8h-1h-0.3
			C1274.5,396,1274.9,396.1,1275.4,395.6z M1273.4,390.6c0-0.5,0-1,0.5-1.8l0.1-0.5V388c0-0.3,0-0.5,0-1c0,0,0,0,0-0.3
			c2,0,1-0.3,1.3-0.3c0,0,0.6,0.3,0.6,0.5c0.3,0,0.4,0.3,0.4,0.3l-0.2,0.5c0,1.5-0.2,3.1-0.5,4.3c-0.3,0.8-0.5,1.5-0.5,2.3
			c-0.3,0.3-0.5,0.8-0.5,1.3l-0.3-0.5l-0.3-0.5c-0.5-0.8-0.8-1.3-0.8-1.8C1273,392.1,1273.1,391.3,1273.4,390.6z M1272.7,389.8
			c-0.5-0.8-0.3-2.3,0.5-3.3c0.3-0.3,0.5-0.8,0.8-1c0-0.3,0.3-0.1,0.3-0.1c0.3-0.3,0.5-0.4,0.8-0.4c0,0,0.3,0,0.5,0l-0.5,0.9l-0.8,1
			l-0.3,0.7l-0.8,1.3L1272.7,389.8z M1271,393.9l0.2-0.3c0-0.5-0.2-0.8,0.8-1v-0.3c0,1.3,0.5,2.3,0.8,3.5c-0.3-0.3-0.5-0.7-0.7-0.9
			s-0.6-1-0.8-1h-0.2C1271,394,1270,393.9,1271,393.9z M1270,392.9c0-0.5,0.5-0.8,0.7-1.3c0-0.3,0.2-0.5,0.4-1c0.3,0.8,0.3,1.5,0,2
			c-0.3,0.3-0.5,0.4-0.5,0.4c-0.3,0-0.2,0.1-0.2,0.1c-0.3,0-0.4,0-0.4,0V392.9z M1267.8,389.6c-0.3-0.3-0.4-0.5-0.4-0.8
			c-0.3-0.8,0-1.3,0.2-1.5c0.3-0.5,0.5-0.7,1-1c0-0.3,0.2,0.2,0.2,0l-0.3,0.8h-0.8l0.5-1.8l0.5-2.3c0,0.8,0,1,0,1.5
			c0,0.8,0.4,1.5,0.4,2.3c0,1-0.4,2.3-0.4,3.6c0,1,0,2.3,0,3.6c0,0.8,0,1.3,0,1.3v-5.1C1267,390.1,1268.1,389.8,1267.8,389.6z
			 M1258,392.4c0.3-0.3,0.3-0.5,0.6-0.8c0.3-0.5,0-1,0.6-1.8l-0.1,0.3v1c0,0.3,0.6,0.8,0.6,1.3c0,0.3,0.1,0.5-0.2,0.5
			c0,0.5-0.1,1-0.4,1.3c0.3,0,0.6,0,0.6-0.3c0.5-0.3,0.8-0.3,1.1-0.5c-0.3-1-0.5-2.3-0.7-3.6c0-0.3,0-0.5,0.3-0.8
			c0.3-0.5,0.5-0.8,0.8-1c0.5-1.3,1.3-2.3,2.3-2.8c0.5,0.3,0.8,0.3,1,0.5c0.5,0.5,1.2,1.3,1.7,2c0.3,0.5,1,1,1,1.3s0,0.3,0,0.3
			c0,1.3-0.7,2.5-1,3.8c-0.3,0.8-0.4,1.3-0.6,2c0.5-0.5,0.7-1.3,1.2-1.8l0.2-0.3c-0.3,0-0.3,0-0.3-0.3c-0.3,0-0.3-0.3-0.3-0.3
			c0-0.5,0-0.8,0.3-1c0-0.5,0.3-1,0.3-1.5c0.3,0.5,0.5,0.8,0.8,1c0.5,1,0.5,1.5,0,1.8c-0.3,0.3-0.5,0.4-0.8,0.4
			c0.3,0.3,0.5-0.3,0.8,0.7c0,0,0,0,0.3,0c0,0,0,0.3-0.3,0.8s-0.8,0.9-1,1.4c-1,1.5-2.3,3-3.6,4.8c-0.3-0.8-0.8-1-1-1.3
			c-0.3-0.5-0.5-1-0.8-1.3l-0.3-0.3c-0.5-0.5-0.8-0.8-1.3-1.3c-0.3-0.3-0.8-0.8-1.3-1.3C1256.9,394.1,1257,394.1,1258,392.4z
			 M1250.3,383.7c0.3-0.3,0.5-0.6,0.8-0.6c0.5-0.3,1-1.1,1.5-1.1s1,0,1.3,0s0.3,0.3,0.5,0.3c0.5,0.3,1,0.6,1.5,0.6
			c0.8,0.5,1.8,1,2.5,1.3c0,0.3,0.3,0.7,0.3,0.7c0.3,0,0.8,0.2,1,0.2h0.3l-0.3-0.1c-0.3,1.5-0.3,2.6-0.5,4.2l-0.8,0.9
			c-0.8,1.3-1.5,2.2-2.3,3.5c-1.8-2-3.6-4.1-5.4-5.9c-0.3-0.3-0.3-0.5-0.3-0.8C1250.3,385.7,1250.3,384.7,1250.3,383.7z M1248,384.7
			c0,0,0.9-0.3,0.9-0.5c0.3,0,1.1-0.3,1.1-0.3c0,0.5,0,1.3,0,2c0-0.3-0.9-0.3-1.1-0.3c0-0.3-0.9-0.3-0.9-0.5
			C1248,385.2,1248,385,1248,384.7z M1246.9,383.2c0.5-0.5,0.1-0.5,1.1-0.8c0,0.1,0,0.1,0,0.3v0.3c0,0.5,0.4,0.3,0.9,0.3
			c-0.3,0.5-0.4,0.8-0.6,1.5l-0.5-0.5C1247.5,383.9,1247.1,383.4,1246.9,383.2z M1243.2,383.2c0-0.8,0-1.3,0.3-2
			c0.3,0.3,0.3,0.5,0.5,0.5l0.8,1c-0.3,0.3-0.5,0.3-0.8,0.3C1243.7,383.2,1243.4,383.2,1243.2,383.2z M1242.2,333c0.8,0,1.3,0,1.8,0
			c1,0,1.8-0.1,2.8-0.1c-0.8,0.5-1.8,0.9-2.8,0.6C1243.2,333.5,1242.7,333,1242.2,333z M1241.1,382.6c0.3,0,0.3,0,0.5-0.2
			c0.3,0,0.5-0.1,0.8-0.3c0,1.5-0.3,3-0.8,3c0,0,0,0-0.3,0c0,0-0.3-0.9-0.3-1.4C1240.9,383.3,1241.1,382.9,1241.1,382.6z
			 M1240.4,381.2c0-0.3,0.3-0.2,0.3-0.2c0.5-0.3,0.8,0.1,1,0.1s0.3,0,0.3,0c0.3,0,0.3-0.4,0.3-0.1c-0.3,0-0.3,0-0.5,0
			c-0.3,0.3-0.5,0.2-0.8,0.4C1240.9,381.5,1240.6,381.2,1240.4,381.2z M1232.7,379.4c0.3,0,0.3,0.3,0.5,0.3c0.3,0.5,0.3,0.9,0,0.9
			h-0.3C1233,380.6,1232.7,379.9,1232.7,379.4z M1228.1,334.1l-0.3,0.2c0-0.5,0-1.5,0-1.5s0.1,0,0.3,0c0.5,0,0.5,0,0.5,1.4
			C1228.4,334.1,1228.4,334.1,1228.1,334.1z M1219,335.8c0,0,0.3-0.5,0.3-0.8c0.3,0.5,0.5,0.9,0.5,1.2l0.2,0.6h0.3l0,0
			C1218.9,336.3,1219.3,336,1219,335.8z M1216.2,369.5c0,0,0-0.4,0.3-0.4c0.3-0.3,0.3-0.4,0.5-0.6c0.3,0,0.8,0.1,1-0.2
			c-0.3,0.5-0.5,1.2-1,1.2C1216.7,369.5,1216.4,369.5,1216.2,369.5z M1215.6,364.8c-0.3,0.3-0.5,0.2-0.8,0.2h-0.3
			c0-1,0.3-0.2,0.3-0.5c0.3-0.3,0.5-0.8,0.8-1.3l0.8,1.2C1216.2,364.7,1215.9,364.8,1215.6,364.8z M1214.4,366.1
			c0.3-0.3,0.3-0.3,0.5-0.3c0.3-0.3,0.5-0.3,0.8-0.3c0,0,0-0.3,0.3-0.3l-0.3,0.8l-0.8,1l-0.5,1
			C1213.9,367.4,1213.9,366.6,1214.4,366.1z M1214.4,364.1c0.3,0,0.3-0.3,0.5-0.3c0,0,0.1,0,0.2,0l0.1-0.2c0,0.1,0,0.2-0.1,0.2
			l-0.2,0.3l-0.5,1l-0.5,1l-0.3,0.5c0-0.8,0-1.3,0.3-1.8C1214.1,364.6,1214.1,364.3,1214.4,364.1z M1210.3,343l-0.5,2.3l-0.3,0.2
			c-0.5-2-0.5-2.5,0.3-2.5C1209.8,343,1210,343,1210.3,343z M1209,353.1l0.8,1.4c-0.3,0-0.3,0.6-0.3,0.6s0,0,0.3,0l0.3-0.1
			c0,0.3-0.3,0.1-0.3,0.1c-0.5,0.3-0.8,0.4-1,0.7C1208.3,354.7,1208.3,354.1,1209,353.1z M1206.2,356c0.3-1,0-2,0.5-2.5
			c0-0.5,0.3-0.9,0.3-1.2c0,1,0,2,0,2.8c0,0.3,0.2,0.9,0,0.9S1206.5,356,1206.2,356z"/>
	</g>
</g>
</svg>
