<?xml version="1.0" encoding="utf-8"?>
<!-- Generator: Adobe Illustrator 18.1.1, SVG Export Plug-In . SVG Version: 6.00 Build 0)  -->
<svg version="1.1" id="Warstwa_1" xmlns="http://www.w3.org/2000/svg" xmlns:xlink="http://www.w3.org/1999/xlink" x="0px" y="0px"
	 viewBox="0 0 1920 1080" enable-background="new 0 0 1920 1080" xml:space="preserve">
<g>
	<path fill="#D3EAF4" d="M1988.7,265.6c-9.1-1.3-282-2.6-332.7-3.9c-27.3-0.6-28.6-1.3-29.2-3.9c0-1.3,1.9-0.6,5.2-1.3
		c3.3-0.7,9.1-4.5,12.3-5.8c1.3-0.6,8.4-3.9,12.3-3.3c3.9,0.6,4.5,3.3,9.1,2.6c11.7-1.3,13.6-10.4,15-10.4
		c13.6,2.6,20.1-12.3,42.9-13.6c15.6-1.3,18.9-12.3,29.2-23.4c4.5-5.2,22-7.2,30.6-11.7c6.5-3.3,9.7-13.6,17.5-18.2
		c4.5-2.6,13-1.3,17.5-1.3c3.3,0,9.1-0.6,13,0.6c9.7,3.9,18.2,11.7,25.3,8.4c4.5-1.9,3.3-0.6,10.4,0c1.9,0,5.2,1.3,6.5,0.6
		c3.9-0.6,7.2-3.9,11.1-5.2c3.9-1.3,7.8-0.6,13.6,0c5.8,0,15,0,18.9,1.3c16.9,4.5,17.5,17.5,25.9,22c10.4,5.8,5.8,15,33.8,16.2
		c8.4,0.6,17.5-3.3,21.4-2.6c7.8,1.3,4.5,7.8,15.6,13.6c16.2,8.4,5.2,27.3,26.7,25.3c20.8-1.3,27.3,6.5,11.7,10.4
		c-15,3.9-31.2,3.3-40.3,2.6C2002.3,263.6,1988.7,265.6,1988.7,265.6L1988.7,265.6z"/>
	<path fill="#D3EAF4" d="M1163.3,511.5c-1.2,0.3-2.3,0.5-3,0.9c-2.6,1.2-4,0.3-6.3,0.9c-2.3,0.5-2.1,2.6-4,2.6
		c-2.1,0-3.5-0.3-5.3,0.5c-1.8,0.9,7.9,0.3,12.1,0.3c4,0,8.8,0.3,10.4-0.3c4.9,0.9,9.8,0.5,12.8,0.3c3.5-0.3,8.8,0.5,8.8,0.5
		s95.2,1.8,129.4-1.8c5.8-0.5,5.5-6.7,1.2-5.5c-1.4,0.3-3.2,0.5-4.9,0.3c-4.6-0.5-8.4-4-9-4c-5.3,1.2-8.8-5.3-17.4-5.8
		c-7-0.5-7.2-6.7-13-12.5c-1.4-1.4-4-3.7-6.1-4.9c-4-2.1-7.9-10.4-12.1-10.2c-1.4,0-3.5-0.5-4.9,0.3c-3.7,1.8-8.4,9.6-11.3,8.1
		c-1.8-0.9-1.4-0.3-4,0c-0.9,0-2.1,0.5-2.6,0.3c-1.4-0.3-3-1.8-4.4-2.6c-1.4-0.5-3-0.3-5.3,0c-2.3,0-4.4,1.2-5.8,1.4
		c-6.3,2.1-7,7.9-10.4,9.8c-4,2.6-1.2,5.5-11.9,6.3c-10.7,0.9-10.4-1.2-16.9,2.6c-6.3,3.7-2.1,12.5-10.2,11.6
		C1166.5,511,1164.7,511.3,1163.3,511.5L1163.3,511.5z"/>
	<path fill="#D3EAF4" d="M1192.6,981.2c-1.3,0-2.2,0.4-3.1,0.4c-2.6,0.9-4.4,0.4-6.6,0.9c-2.6,0.4-2.2,2.2-4.4,2.2s-4,0-5.7,0.4
		c-1.8,0.9,8.3,0.4,12.7,0.4c4.4,0,9.2,0,11-0.4c5.3,0.9,10.5,0.4,13.2,0.4c3.5-0.4,9.2,0.4,9.2,0.4s99.6,1.3,135.6-1.3
		c6.1-0.4,5.7-5.3,1.3-4.4c-1.8,0.4-3.1,0.4-5.3,0.4c-4.8-0.4-8.8-3.1-9.7-3.1c-5.3,0.9-9.2-4-18.4-4.4c-7.5-0.4-7.5-5.3-13.6-9.7
		c-1.3-0.9-4.4-2.6-6.6-3.5c-4.4-1.8-8.3-7.9-12.7-7.9c-1.3,0-4-0.4-5.3,0c-4,1.3-8.8,7.5-11.9,6.1c-1.8-0.9-1.3-0.4-4,0
		c-0.9,0-2.2,0.4-2.6,0.4c-1.8,0-3.1-1.3-4.4-1.8c-1.3-0.4-3.1,0-5.7,0c-2.2,0-4.4,0.9-6.1,1.3c-7,1.3-7.5,6.1-11,7.5
		c-4.4,2.2-1.3,4.4-12.3,4.8c-11.4,0.4-11-0.9-17.6,2.2c-6.6,2.6-2.2,9.7-11,8.8C1195.7,980.8,1193.9,981.2,1192.6,981.2
		L1192.6,981.2z"/>
	<path fill="#D3EAF4" d="M304.2,514.4c-1.8-0.5-59.6-0.5-70.2-0.9c-6,0-6-0.5-6-0.9s0.5,0,0.9-0.5c0.9,0,1.8-0.9,2.8-0.9
		c0,0,1.8-0.9,2.8-0.5c0.9,0,0.9,0.9,1.8,0.5c2.3-0.5,2.8-2.3,3.2-2.3c2.8,0.5,4.1-2.3,9.2-2.8c3.2-0.5,4.1-2.8,6.4-5
		c0.9-0.9,4.6-1.4,6.4-2.3c1.4-0.5,1.8-2.8,3.7-3.7c0.9-0.5,2.8-0.5,3.7-0.5c0.9,0,1.8,0,2.8,0c1.8,0.9,3.7,2.3,5.5,1.8
		c0.9-0.5,0.9,0,2.3,0c0.5,0,0.9,0,1.4,0c0.9,0,1.4-0.9,2.3-0.9c0.9-0.5,1.8,0,2.8,0c1.4,0,3.2,0,4.1,0.5c3.7,0.9,3.7,3.7,5.5,4.6
		c2.3,1.4,1.4,3.2,6.9,3.2c1.8,0,3.7-0.5,4.6-0.5c1.8,0.5,0.9,1.8,3.2,2.8c3.2,1.8,0.9,5.5,5.5,5s5.5,1.4,2.3,2.3s-6.4,0.5-8.3,0.5
		C307,514,304.2,514.4,304.2,514.4L304.2,514.4z"/>
	<path fill="#D3EAF4" d="M551.7,736.1c-1.8-0.5-59.6-0.5-70.2-0.9c-6,0-6-0.5-6-0.9s0.5,0,0.9-0.5c0.9,0,1.8-0.9,2.8-0.9
		c0,0,1.8-0.9,2.8-0.5c0.9,0,0.9,0.9,1.8,0.5c2.3-0.5,2.8-2.3,3.2-2.3c2.8,0.5,4.1-2.3,9.2-2.8c3.2-0.5,4.1-2.8,6.4-5
		c0.9-0.9,4.6-1.4,6.4-2.3c1.4-0.5,1.8-2.8,3.7-3.7c0.9-0.5,2.8-0.5,3.7-0.5s1.8,0,2.8,0c1.8,0.9,3.7,2.3,5.5,1.8
		c0.9-0.5,0.9,0,2.3,0c0.5,0,0.9,0,1.4,0c0.9,0,1.4-0.9,2.3-0.9c0.9-0.5,1.8,0,2.8,0c1.4,0,3.2,0,4.1,0.5c3.7,0.9,3.7,3.7,5.5,4.6
		c2.3,1.4,1.4,3.2,6.9,3.2c1.8,0,3.7-0.5,4.6-0.5c1.8,0.5,0.9,1.8,3.2,2.8c3.2,1.8,0.9,5.5,5.5,5s5.5,1.4,2.3,2.3
		c-3.2,0.9-6.4,0.5-8.3,0.5C554.5,735.7,551.7,736.1,551.7,736.1L551.7,736.1z"/>
	<path fill="#D3EAF4" d="M207,494.3c-3.7-0.5-118.3-0.9-139.4-1.4c-11.5,0-11.9-0.5-12.4-1.8c0-0.5,0.9-0.5,2.3-0.5
		c1.4-0.5,4.1-1.8,5-2.3c0.5,0,3.7-1.8,5-1.4c1.8,0.5,1.8,1.4,3.7,1.4c5-0.5,6-4.6,6.4-4.1c5.5,0.9,8.7-5,17.9-5.5
		c6.4-0.5,7.8-5,12.4-9.6c1.8-2.3,9.2-3.2,12.8-4.6c2.8-1.4,4.1-5.5,7.3-7.3c1.8-0.9,5.5-0.5,7.3-0.5c1.4,0,3.7-0.5,5.5,0
		c4.1,1.4,7.8,4.6,10.5,3.2c1.8-0.9,1.4-0.5,4.1,0c0.9,0,1.8,0.5,2.8,0.5c1.8,0,3.2-1.8,4.6-2.3c1.4-0.5,3.2,0,5.5,0s6.4,0,7.8,0.5
		c6.9,1.8,7.3,6.9,11,9.2c4.6,2.3,2.3,6,14.2,6.9c3.7,0,7.3-1.4,8.7-0.9c3.2,0.5,1.8,3.2,6.4,5.5c6.9,3.2,2.3,11,11,10.5
		s11.5,2.8,5,4.1c-6.4,1.8-13.3,1.4-17,0.9C213,493.8,207,494.3,207,494.3L207,494.3z"/>
</g>
</svg>
