<?xml version="1.0" encoding="utf-8"?>
<!-- Generator: Adobe Illustrator 18.1.1, SVG Export Plug-In . SVG Version: 6.00 Build 0)  -->
<svg version="1.1" id="Warstwa_1" xmlns="http://www.w3.org/2000/svg" xmlns:xlink="http://www.w3.org/1999/xlink" x="0px" y="0px"
	 viewBox="0 0 1920 1080" enable-background="new 0 0 1920 1080" xml:space="preserve">
<path fill="#D3EAF4" d="M935.2,124.5c2.6-2.2-3.1-3.1-10.6-4c-17.2-2.2-20.3-4.9-17.6-9.7c1.3-2.2,5.7-2.2,6.6-7.1
	c1.3-5.7-1.3-11.9-4.4-15.4c-3.5-4-12.4-2.2-18.1-4c-4-1.3-11.5-6.2-18.5-6.2c-9.7,0.4-19.4,6.2-26.5,4.9c-4-0.9-9.3,0.4-11.5-2.2
	c-2.6-3.1-1.8-9.3-4.9-11.5c-4.9-3.1-12.8-2.6-18.1-3.5c-7.1-1.8-15.9,0-22.9,2.2c-4,1.3-9.3-4.4-15.4-1.3
	c-5.3,2.6-8.4,9.3-13.2,10.6c-4.4,1.3-13.7-2.6-17.6-2.2c-6.6,0.4-9.3,5.7-14.6,6.6c-4.4,0.9-9.3-2.6-15-2.6c-4.4,0-8.8,3.1-13.7,4
	c-4.4,0.9-9.7,0-12.4,2.2c-4.4,3.1-10.1,5.3-12.4,9.7c-0.9,2.2,0.4,4.4-0.4,6.2c-2.6,8.4-7.1,16.8-20.3,16.8
	c-3.1,0-10.6-1.3-14.6-0.4c-7.1,2.2-11,7.9-15.9,7.9c-8.8,0-16.8,2.2-22.9,1.8c-4.9-0.4-7.9-3.5-14.1,0
	c-20.7,11.5,102.8,4.4,160.6,4.4c40.6,0,78.1-0.4,106.3-3.5C865.5,126.7,927.7,130.3,935.2,124.5L935.2,124.5z"/>
<path fill="#D3EAF4" d="M697,167.3c-2.2-1.3,10.6-1.3,9.3-2.6c-2.2-2.2-3.1-6.6-1.3-8.4c0.9-0.9,4,0,5.7-0.4s4.4-2.2,7.5-1.8
	c2.2,0,5.3-2.2,6.6-2.6c3.1-0.4,7.1-3.5,10.1-4c5.3-1.3,9.3,0,11,0.4c5.7,2.6,8.4,4.9,14.1,4.4c3.5-0.4,10.1,0.4,13.2,0.9
	c9.3,2.2,4.9,10.6,13.7,10.6c4,0,5.3,1.8,8.4,2.2c4,0.4,8.8,0,12.4,1.8c6.6,3.5-32.6,1.3-51.2,1.3c-12.8,0-24.7,0-34-0.9
	C719.1,167.8,699.2,168.6,697,167.3L697,167.3z"/>
<path fill="#D3EAF4" d="M-40.1,143.3c-2.1,0-5.3,1.1-7.4,2.1c-5.3,2.1-9.5,1.1-14.8,2.1s-4.2,6.3-9.5,6.3s-8.5,0-12.7,2.1
	s18,1.1,28.6,1.1c9.5,0,20.1,0,24.3-1.1C-20,158-8.3,158-2,157c7.4-1.1,20.1,1.1,20.1,1.1s218.9,4.2,298.3-4.2
	c13.7-1.1,12.7-15.9,2.1-12.7c-3.2,1.1-7.4,1.1-11.6,1.1c-10.6-2.1-19-9.5-21.2-9.5c-11.6,2.1-20.1-11.6-40.2-13.7
	c-15.9-1.1-16.9-14.8-30.7-28.6c-3.2-3.2-9.5-8.5-13.7-10.6c-9.5-5.3-18-24.3-28.6-23.3c-3.2,0-8.5-1.1-11.6,0
	c-8.5,4.2-19,22.2-25.4,18c-4.2-2.1-3.2-1.1-9.5,0c-2.1,0-4.2,1.1-6.3,1.1c-3.2,0-6.3-4.2-9.5-5.3c-3.2-1.1-7.4,0-12.7,0
	s-9.5,2.1-13.7,3.2c-14.8,4.2-15.9,18-23.3,22.2c-9.5,6.3-2.1,12.7-27.5,14.8c-24.3,2.1-24.3-2.1-38.1,6.3
	c-14.8,8.5-5.3,28.6-23.3,26.4C-32.7,141.2-36.9,142.3-40.1,143.3L-40.1,143.3z"/>
<path fill="#D3EAF4" d="M938.2,836.5c-4.3-0.6-133.6-1.2-157.6-1.8c-12.9-0.3-13.5-0.6-13.9-1.8c0-0.6,0.9-0.3,2.5-0.6
	c1.5-0.3,4.3-2.2,5.8-2.8c0.6-0.3,4-1.8,5.8-1.5s2.2,1.5,4.3,1.2c5.5-0.6,6.5-4.9,7.1-4.9c6.5,1.2,9.5-5.8,20.3-6.5
	c7.4-0.6,8.9-5.8,13.9-11.1c2.2-2.5,10.5-3.4,14.5-5.5c3.1-1.5,4.6-6.5,8.3-8.6c2.2-1.2,6.2-0.6,8.3-0.6c1.5,0,4.3-0.3,6.2,0.3
	c4.6,1.8,8.6,5.5,12,4c2.2-0.9,1.5-0.3,4.9,0c0.9,0,2.5,0.6,3.1,0.3c1.8-0.3,3.4-1.8,5.2-2.5s3.7-0.3,6.5,0c2.8,0,7.1,0,8.9,0.6
	c8,2.2,8.3,8.3,12.3,10.5c4.9,2.8,2.8,7.1,16,7.7c4,0.3,8.3-1.5,10.2-1.2c3.7,0.6,2.2,3.7,7.4,6.5c7.7,4,2.5,12.9,12.6,12
	c9.9-0.6,12.9,3.1,5.5,4.9c-7.1,1.8-14.8,1.5-19.1,1.2C944.7,835.5,938.2,836.5,938.2,836.5L938.2,836.5z"/>
</svg>
