<?xml version="1.0" encoding="utf-8"?>
<!-- Generator: Adobe Illustrator 18.1.1, SVG Export Plug-In . SVG Version: 6.00 Build 0)  -->
<svg version="1.1" id="Warstwa_1" xmlns="http://www.w3.org/2000/svg" xmlns:xlink="http://www.w3.org/1999/xlink" x="0px" y="0px"
	 viewBox="0 0 1920 1080" enable-background="new 0 0 1920 1080" xml:space="preserve">
<g>
	<g>
		<path fill="#F6F6F6" d="M1560.1,634.1c-1.4-2.1-2.8-4.9-4.2-7.7c-2.8-5.6-5.6-12-8.4-14.1c-1.4-2.1-4.2-3.5-7-5.6
			s-6.3-3.5-9.9-4.9c-2.8-1.4-5.6-1.4-8.4-2.1c-3.5-0.7-6.3-1.4-7.7-1.4c-2.8,0-7.7,2.8-8.4,4.2s-2.8-3.5-2.1-7.7
			c0.7-2.1,2.8-4.9,3.5-6.3c2.1-4.2,2.8-9.2,0-13.4s-3.5-3.5-5.6-3.5s-2.8,0-5.6,2.8c-0.7,0.7-1.4,0.7-2.1,1.4v7
			c0.7,0,4.9,3.5,1.4,22.5c-0.7,4.2,3.5,12,4.2,14.1c0,1.4,0.7,3.5,2.1,6.3c0.7,2.8,2.1,4.9,2.8,6.3c2.1,2.8,6.3,4.9,9.2,12.7
			c0.7,2.1,3.5,14.8,4.2,27.5c0,3.5,2.1,21.1,1.4,29.6c-0.7,8.4-2.1,12-2.1,12.7c0,1.4,6.3,0,6.3,0s-2.8-7-2.8-14.1c0-7,0-26,0-28.9
			c0-6.3-0.7-8.4-1.4-14.1c0-3.5-0.7-6.3-0.7-7.7c0-7.7,4.2-10.6,7-7.7c2.1,2.1,1.4,3.5,1.4,7.7c0.7,4.9-0.7,14.8-0.7,19.7
			c0,5.6,0,4.2,0.7,17.6c0.7,13.4,1.4,28.9,0,28.9c-1.4,0.7,4.2-1.4,4.2-1.4s-2.1-2.1-2.1-16.2s0.7-21.1,0.7-26
			c0-21.1,2.8-23.2,4.2-25.3c0.7-1.4,1.4-2.1,2.1-2.8c0-1.4,1.4-0.7,2.8,0.7c2.1,1.4,4.2,1.4,7.7,2.8c2.8,0,4.9,0.7,7,0.7
			c4.2,0,7.7-0.7,9.2-0.7C1565,647.5,1564.3,641.9,1560.1,634.1z"/>
		<path fill="#F39200" d="M1493.9,575.7c0.7,1.4,2.1,4.2,0.7,7l-26-7.7L1493.9,575.7z"/>
		<path d="M1501.7,576.4c0.7,0,1.4-0.7,1.4-0.7c0-0.7-0.7-1.4-1.4-1.4s-1.4,0.7-1.4,1.4C1500.3,575.7,1501,576.4,1501.7,576.4z"/>
	</g>
	<path d="M1639,573.5c-2.9,8.7-9.5,11.6-12.4,12.4c0.7,0,0.7,0,1.5,0.7c2.2,1.5,4.4,2.2,8.7,2.9c2.2,0.7,4.4,0.7,6.5,0.7
		c4.4,0,8-0.7,9.5-0.7c2.2,0,0.7-5.8-3.6-13.8c-1.5-2.2-2.9-5.1-4.4-8c-2.9-5.8-5.1-11.6-8-14.6l0,0
		C1639,558.9,1640.4,566.9,1639,573.5z"/>
	<path fill="#F6F6F6" d="M1636.8,553.1c-2.2-2.2-4.4-3.6-7.3-5.8s-7.3-3.6-10.2-5.1c-2.9-1.5-5.8-1.5-8.7-2.2
		c-3.6-0.7-6.5-1.5-8-1.5c-2.9,0-8.7,2.9-9.5,4.4c0,1.5-2.2-2.9-1.5-8c0.7-2.2,2.2-5.1,2.9-6.5c2.9-4.4,3.6-9.5,0.7-13.8
		c-2.9-4.4-4.4-2.9-5.8-3.6c-2.2,0-5.1,0.7-7.3,4.4c-2.2,3.6,0,8,0,8v1.5l5.8,3.6c0,0-5.8,13.1-5.8,17.5c0.7,5.1,3.6,12.4,4.4,14.6
		c0.7,1.5,1.5,3.6,2.2,6.5c1.5,2.9,2.2,5.1,3.6,6.5c1.5,2.9,5.8,5.8,8.7,13.1c0.7,2.2,3.6,15.3,4.4,28.4c0,3.6,2.2,22.6,1.5,30.6
		c0,8.7-1.5,12.4-1.5,13.1c0,1.5,5.8,0,5.8,0s-2.2-7.3-2.2-14.6s-0.7-26.9-0.7-29.8c0-5.8-0.7-8.7-0.7-14.6c-0.7-3.6-0.7-6.5-0.7-8
		c0-8,3.6-10.9,6.5-8c2.9,2.2,1.5,3.6,2.2,8.7c0,4.4-0.7,14.6-0.7,19.6c0,5.8,0,4.4,0,18.2c0.7,13.8,1.5,29.8,0,30.6
		c-0.7,0,5.1-2.2,5.1-2.2s-2.2-2.2-2.2-16.7c0-14.6,0.7-21.8,0.7-26.9c-0.7-21.8,2.9-24,3.6-26.2c1.5-1.5,2.2-2.2,2.2-2.9
		s0.7-0.7,1.5-0.7c2.9,0,10.2-2.9,12.4-11.6C1640.4,566.9,1639,558.9,1636.8,553.1z"/>
	<path fill="#F39200" d="M1582.2,523.3c2.2,0,5.8,0,8,2.2l-18.9,24.7L1582.2,523.3z"/>
	<g>
		<path fill="#3F3829" d="M1745.9,753.9c-0.3-0.5-0.5-0.9-0.8-1.3c0.1,0.5,0.2,0.9,0.4,1.3C1745.7,753.9,1745.8,753.9,1745.9,753.9z
			"/>
		<path fill="#3F3829" d="M1697,787.2c-0.2,0.1-0.4,0.2-0.5,0.2C1696.7,787.4,1696.9,787.3,1697,787.2z"/>
		<path fill="#3F3829" d="M1526.9,641.9c0-0.2,0-0.5,0-0.7h-1.5c0,0.7,0.7,0.7,0.7,1.5C1526.9,642.6,1526.9,642.6,1526.9,641.9z"/>
		<path fill="#3F3829" d="M1766.9,716.4c0.1-0.1,0.1-0.2,0.1-0.4C1767,716.2,1767,716.3,1766.9,716.4z"/>
		<path fill="#3F3829" d="M1400.3,726.3L1400.3,726.3L1400.3,726.3L1400.3,726.3z"/>
		<path fill="#3F3829" d="M1755.4,647c0,0-0.7,0-1.5,0.7c0,0.7,0.7,1.5,1.5,2.9c0.7-1.5,1.5-2.2,1.5-4.4
			C1756.8,646.2,1756.1,647,1755.4,647z"/>
		<path fill="#3F3829" d="M1443.2,643.3c1.1,0.5,2.2,1.5,3.6,2.2c0.1-0.1,0.1-0.1,0.1-0.1c-1.5-0.7-2.2-2.2-3.6-2.9
			c-0.6-0.3-1-0.6-1.4-0.8c0,0,0,0,0,0.1L1443.2,643.3z"/>
		<path fill="#3F3829" d="M1584,870.3c0-1.1,0.1-2.2,0.1-3.2c-0.2,0.6-0.4,1.2-0.6,1.8c0.2,2.7,0.2,5.2,0.4,7
			c0.1-0.1,0.1-0.3,0.1-0.6V870.3z"/>
		<path fill="#3F3829" d="M1764,731.6c-0.3-2.1-1-4.8-2-7.5c-0.7-0.7-0.7-1.5-1.5-2.2l1.5,2.9L1764,731.6z"/>
		<path fill="#3F3829" d="M1583.7,855.8l-0.5,2.6c0.1,2.7,0.2,5.7,0.3,8.7c0.3-0.6,0.5-1.2,0.7-1.8
			C1584,861.2,1583.8,858.1,1583.7,855.8z"/>
		<path fill="#3F3829" d="M1395.2,642c0.7,0,2.2,0,3.6,0l-3.6-1h-1.5c0.2,1,0.4,1,0.5,1C1394.5,642,1394.9,642,1395.2,642z"/>
		<path fill="#3F3829" d="M1795.4,698.6c-1.5-0.7-2.9-1.5-3.6-2.2c-4.4,0-7.3-1.5-8.8-5.1c-1.5,0.7-2,0-3,0v-0.7l4.4-5.8
			c-1.5-1.5-2.2-2.2-2.9-2.9l-1.4,2.2l-2.3,3.6c-1.5-2.2-1.8-5.1-0.8-8c0-0.7,0-0.7,0-1.5c1,0.7,1.6,1.5,1.6,1.5s0.8,0,0.8-0.7
			c-2.9-3.6-5.1-7.2-7.2-10.9c0-0.7-0.7-2.1-0.7-2.1c-0.7,0-0.4,0-1.4,0c0-1,0-2.3,0-3.8c0,0,0-0.7,0-1.5c-2,0.7-2,0.7-3,0.7v-0.7
			c1-0.7,1.5-1.5,2.2-2.2c0,0-0.7,0-0.7-0.7c-1.5,0.7-2.2,1.5-2.9,2.2c-1.5,0.7-2.9,0.7-3.6,0c-0.7,0-1.5-0.7-1.5-0.7
			c-0.7-0.7-0.7-1.5-1.5-2.2l-1.5-1.5c-0.7-0.7-0.4-0.7-1.1-1.5l-0.4-0.7c0-0.7,0-0.7,0-1.5s0-0.7,0-1.5c-3,0-3.2,0-3.9-1.5
			c-0.7,0-1.6-1.5-1.6-2.9c-2.2,0-4.4,0-5.2-2.9c0,0-0.8-0.7-1.5-0.7c-0.7-0.7-0.7-0.7-1.5-0.7l1.4,1.2c0.7,0.7,0.7,1.9,1.4,1.9
			h-1.5c-1.5,0-2.2,0-2.9,0c1.5,1,2.2,1,2.9,1l0.7,0.9c0,0.7-0.7,1.5-0.7,3c-0.7,1.5-1.5,2.2-2.9,2.9c-0.7,0-1.4-1.4-2.1-1.4
			c-2.9,0-5.7-3.6-8.7-2.9v0.7c2,0.7,2.9,1.5,4.3,1.5c-0.7,0.7-2.2,0-2.9,0.7c-2.2,0-2.9,0-2.9-2.2s-0.8-2.9-3-1.5
			c-1.5,0.7-2.5,1.5-4.5,2.2V649c0-0.7,3-0.7,3-1.5V641c1,0,3,0,4.5,0c0.7,0,2.2-0.7,2.2-1.4c-0.7-2.2,0.4-2.9,1.8-3.6
			c1.5-0.7,2.5-0.7,2.5-1.4v-0.7c-3,1.5-7.6,2.2-10.5,3.6c-2.2,1.5-3.5,0.7-4.9-0.7c-0.7-0.7-1.4-1.5-2.9-1.5c0,0-0.7-0.7-0.7-1.5
			c0,0,0,0,0-0.7c0-1.5,0-3.1,0-5.1h-2c0,3,0,4.4,0,7.3c-1-1.5-3-2.2-3.7-2.9c0.7,0.7,0.7,1.5,1.4,2.9c-1.5,0.7-3.7,2.2-5.9,2.9
			l-0.8-2.9c0-2.2,0-4.4,0-7.3c-1,2.9-0.6,5.8,0.1,8.7c0,1.5,0.1,3.3-1.4,4.3h0.7c-0.7,2-4.4,3-6.5,3c-1.5,0-2.9,0.8-4.4,0.8
			c0,0,0,0-0.7-0.7c0.7,0,2.2-0.7,2.9-2.2c-0.7,0.7-1.5,0.7-2.2,0.7c0-0.7,0.7-1.5,0.7-2.2l-0.7-0.7c-0.7,1.5-1.5,2.2-2.9,3.6
			c-0.7,0.7-2.2,0.7-3.6,0c1.5-2.2,3.6-3.6,5.1-5.1c0-0.7-0.7-0.7-0.7-1.5c-0.7,5.1-5.1,3.6-7.3,5.1c0-1.5,0-2.7,0.7-3.4
			c-0.7,0-2.2-0.5-2.9-0.5h-0.7l-6.5,2h-7.3c-1.5,0-2.2,0-3.6,0h-2.9h-0.7h-0.7c1.5-3-0.7-1.6-2.2-1.6c-0.7-1.5-1.5-3-2.2-4.4
			c0,0.7,0,0.7-0.7,0.7c0.7,1.5,1.5,2.9,2.2,5.1c-0.7-0.7-2.2-0.7-2.9-0.7c0,0.7-0.7,1.5-0.7,1.5c-3.6,0.7-6.5,0.7-8.7,0
			c-1.5,0-2.9-1.5-4.4-2.2c-0.7-0.7-1.5,0-1.5,0c0,1.5,0.7,2.9,0.7,3.6c-0.7,0.7-2.2,0.3-3.6,0.3c-0.7,0-1.5-0.2-2.2-1.2
			c0,0,0,0-0.7,0c0.7,0,0.7,0,0.7,0c-1.5,0-3.1,0-4.1,0v0.9c-1,0.7-1.7,3.1-2.4,3.1h-0.7c-1.5-3-2.9-4-5.8-4h-5.8
			c-1.5,0-3.2,0.9-5.2,1.6c0-1.5,0-1.6,0-1.6h0.1c-0.7,0-0.7,0-1.5,0l-0.7,0.4c-0.7,0.7-2.2,0.9-2.9,0.9c0-0.7-0.7-1.3-1.5-1.3h-2.9
			c0,0-0.7,1.2-1.5,1.9c0,0-0.7,0.6-1.5,0.6c0,0-0.7,0.7-2.2,0.7c-0.7,0-2.2,0-3.6,0.7l-0.7,0.7c0-1.5,0.7-2.2,0.7-2.9
			c-0.7,0-1.5,0.7-2.2,0.7l-0.7,0.7c-0.7,0.7-0.7,0.7-1.5,0.7c0,0-0.5,0-1.2-0.7c0.7-0.7,1.7-0.7,1.7-1.5V641c0,0-0.4,0-1.2,0
			c-1.5,0-2.2,2.6-2.9,3.3c-0.7,0-0.7,0.2-1.5,0.9c0-0.7-0.7-1.6,0-2.4c0.7,0,0.7-0.9,1.5-0.9c-0.7,0-0.7,0-1.5,0
			c-3.6,3-8,1-11.6-0.4c-1.5-0.7-2.2-0.3-3.6-0.3c-0.7-0.7-1.5-0.3-2.2-0.3h-0.7c-0.7,0-1.5,0.4-2.2,0.4s-1.5,0.6-2.2,0.6
			c-0.7,0.7-2.9,0.7-3.6,0.7c-2.2-1.5-5.1-2.9-6.5-5.1c-1.5-1.5-2.9-2.9-4.4-3.7c-1.5-0.7-2.2-0.7-3.6-0.7c0.7-0.7,1.5-0.7,2.2-1.5
			c-0.7-0.7-1.5-1.5-2.2-1.5s-1.5,0.5-1.5,0.5c-0.7,2.2,2.2,6.3,4.4,6.3h0.7c2.9,1,5.8,3.2,6.5,5.3c-1.5,0-2.2,0.1-2.9,0.9
			c-1.5,0-2.9,1.3-3.6,2c-2.9,0.7-5.8-0.2-8.7-0.2c0,0-1.5,0-2.2,0c-1.5,0-2.2-0.5-3-1.2c-0.7-1.5-1.5-3.4-1.5-4.8
			c0-3.6,0-6.9,0-8.9h-1c0,2,0,4.6,0,8.2c0,1.5-1,2.2-1,3.6c0,0.5,0,1,0,1.5c-2,0-0.8-0.3-1.5,1.7c-0.7,0-1.5,0-1.5,0c0-2,0-3-0.7-4
			h2.2c-0.7,0-0.7-0.7-1.5-1.4c-0.7,0.7-1.5,1.5-2.9,2.9c0-1.5-0.7-2.3-0.7-3.7c-0.7-0.7-1.5-0.8-2.9-0.8c-0.7,0-2.2,0-3.6,0
			c-1.5,0-3.6,1-5.1,1c-2.2,0-4.4,1-7.3,1h-1.5l-1.5,1h0.7c-1.5,0-2.9,1.5-3.6,1.5s-2.2-1.5-2.9-1.5c-1.5,0-2.2,0-3.6,0h-0.7
			c-5.8,1-10.2,1.9-10.9,1.9c-5.1-1.5-10.9,0.9-16.7-2c-2.9-1.5-5.6-2.1-7.8-5c-0.7,0-1.9-0.6-1.9-0.6v0.7c2,2.2,5.6,4.4,8.5,6.5
			c-1.5,0.7-3,0.7-3.8,1.5c1.5,2.2,3.6,1.5,5.8,0c-0.7,1.5-1.5,2.9-2.2,4.4c0.7,0.7,1.4,0.7,2.9,1.5c-2.9,0.7-3.6-0.7-5.1-1.5
			c-2.2-1.5-2.9-5.1-6.6-3.6c0,0.7-0.7,0-1.5-0.7c0,0.7-0.7,1.5-0.7,2.2c-0.5-0.2-1.1-0.4-1.5-0.7c-0.1,0.1-0.3,0.3-0.7,0.7
			c-0.7-0.7-2.2-1.5-2.9-2.2c-1.5-0.7-2.9-1.5-4.4-2.2c0.7,0,0.7-0.7,0.7-0.7c0.9,0,1.5,0.4,2.2,0.8c0-0.7,0.7-0.9,0.7-1.9
			c-2.2,0-3.6,0-5.1,0c-1.5-2-2.9-1.6-4.4-2.3c-0.7,0-1.5-1.5-1.5-2.3c0.7-1.5,1.5-2.2,2.2-4.4c-3.6,0-3.6,2.2-4.4,4.3l-0.7-0.7
			c-2.2-0.7-5.1-1.5-5.8-5.1c-1.5,4.4,2.9,5.1,4.4,6.5c-3.6,5.1-8,8-13.1,0.7c0,2.2-0.7,3.6-0.7,5.1c1.2,0.6,1.9,1.2,2.5,1.4
			c0.2,0,0.3,0.1,0.5,0.1c-0.1,0-0.3,0-0.5-0.1c-2.9-0.5-6.9,0.6-9-2.8l-0.7,0.4c-2.2,1.5-5.1,1.2-7.3,1.2h5.2c0,1,0,2.8,0,2.8
			c-1,1.5-2.9,2.9-4.4,4.4c0,0,0.7,0,0.7,0.7c2.2-1.5,4.4-2,5.8-0.5c0.7,0.7,0.7,0.7,1.4,1.7h-1.5c-1.5,0-4.4,0.5-6.5,0.5
			c0.7,1.5,1.5,2.1,2.2,2.8c0,0,0-0.1-0.7,0.7c-0.7-0.7-1.5-2.2-2.2-2.9c-2.2-2.2-2.9-5.4-3.6-8.3c-0.5-0.5-0.6-0.8-0.9-1.8
			c-0.3,0-0.3,0-0.3,0s0,0.1,0-0.1c0-1.6,0-2.4,0-4.4c-2,0.7-2,1.5-2,1.5v0.7c-1,0-0.7,0.7-0.7,0.7c0,1.5-0.3,2.9,0.7,3.6v1.5
			c0,0.7,0,0.7,0,1.5c0,0,0,0,0,0.7s-0.2,1.5-0.2,2.2c-0.7,0-1.6,0.9-1.6,0.9c-2.2,1.5-4.5,1.2-6.7,0.2c-0.7,0-2.6,0-3.6,0
			c0,1,0,0.3,0,1c4,0.7,6.5,0.7,10.9,1.5c-1.5,0.7-2.2,0.7-3.7,1.5c0.7,1.5,1.4,2.2,2.9,4.4c-2.2,0-4.4,0-5.8-0.7
			c0,0.7,0.7,0.7,0.7,0.7c-2.9,1.5-5.1,2.9-7.3,3.6c0,0.7,0.7,1.5,0.7,1.5c3.6-2.9,6.5-0.7,10.2-0.7c-6.5,2.9-6.5,2.9-6.5,5.1
			c0.7-0.7,0.7-1.5,1.5-2.2c0.7,1.5,2.2,2.9,2.9,4.4c-1.5-3.6,2.2-2.9,2.9-4.4c0,1.5-0.5,2.9-1.2,4.4c1.5,0,1.9,0.7,3.9,0.7v0.7
			c0-0.7,0-0.7,0-0.7c0,0.7,0,2.3,0,2.3s0.3,0-0.4,0c-0.7,0-1.5-0.4-2.2-0.4s-1.5,0.9-1.5,0.9c-0.7-0.7-1.5-2.1-1.5-3.6
			c0,2.2-4.4,5.1,0.7,7.3c-0.7,0-0.7,1.5-1.5,1.5c0,0-0.7,0-1.5-0.7c-0.7,1.5-0.7,2.9-1.5,5.1l7.3-0.7c-2.2,4.4-5.1,7.3-4.4,11.6
			c0.7-1.5,0.7-2.2,1.5-3.6c0,0.7,0.7,0.7,0.7,0.7c0.7-0.7,1.5-1.5,2.2-2.2c0.7,0,0,0.7,0.7,0.7c0,0.7,0.7,0.7,0.7,0.7
			c0.7,2.2,0.7,3.6,0,5.8c-0.7,0.7-0.7,0.7-0.7,1.5c-0.7,0.7-0.7,0.7-1.5,1.5c0,2.9-1.5,2.9-3.6,2.2c-2.2-0.7-5.1-0.7-7.3,0
			c0.7,2.9,2.9,3.6,5.8,3.6c-3.6,1.5-4.4,4.4-5.1,8c0.7-1.5,0.7-2.2,1.5-2.9c0.7,0.7,1.5,0.7,2.9,1.5c0.7-2.2,0.7-3.6,2.2-5.1
			c0-0.7,2.2-1.5,2.9-1.5c0,0,1.5,0.7,1.5,2.2c-0.7,1.5-0.7,2.9-1.5,4.4l0.9,0.7c0.7-2.2,1.4-3.6,2.4-5.1v0.7c0,1.5-0.9,2.9-1.7,4.4
			c-0.7,2.2-2.3,3.6-3.8,5.8c-1.5,2.9-2.5,5.8-4.5,8c0,0.7,0,0.7,0,0.7v0.7c0-0.7,0.8-1.5,0.8-2.2c0.7,0.7,0.8,0.7,1.5,0.7
			c-0.7,0.7-0.9,1.5-1.7,2.2l3.4,4.4v-0.7c0-2.9,0.5-4.8,1.2-8.8h1.5c0.7-1,1.5-2.5,2.2-4.7l0.7,0.9c0.7,0.7,1.5,0.8,2.2,1.6
			c-0.7-2.2-0.7-3.6,1.5-4.3c0.7,0.7,1.4,2.2,1.4,2.9c2.2,4.4,2.4,4.4-1.6,6.6c0,0.7,0,0.7,0,0.7c0,0.7-1.9,1.5-1.9,2.2
			c0,3.6-1.1,7.3-1.1,10.2c0,0.7,0,0.7,0,0.7c2-1.5,2.5-3.8,3.2-4.8h0.7c0,2-0.7,6.4-0.7,9.3l2.2,2.8c0.7-2.2,0-4.4,0-6.6
			c0.7-1.5,0.7-3.7,1.5-5.1c0.6-3.2,1.3-6.4,1.4-10.1c-0.7,2.2-1.4,4.3-1.4,5.7l-0.7,1.5c-1.5-2.2-1.5-4.4,0.7-5.8
			c0-0.7,0.7-0.7,1.4-1.4c0-0.5,0-1,0-1.5c0.7,0.7,1,1.5,1.7,2.2c0,0.7,1,0.7,1,2.2v0.7c-3,2.2,1.2,4.4,0.5,5.8
			c-0.7,0.7,0.6,2.2,1.3,2.9c0.7,0.7,1.4,2.2,1.4,2.9c0.7,0.7,0.7,1.5,0,1.5c0,1.5-0.7,2.2-1.5,2.9c-1.5,0.7-2.9,0.7-3.6,1.5
			c-0.7,0-1.5,0.7-2.2,1.5l2.9,4.3c0.7-2.2,1.5-3.1,4.4-5.1h0.7c0,2,0,0.8-0.7,1.5c-1.5,1.5-1.5,2.9-1.5,5.1l1.5,0.7l4.4,2.2
			c-0.7-3.6-1.5-8,0.7-11.6c0.7,0.7,0.7,0.7,1.4,1.5c0-0.7,1.4-1.5,1.4-2.2c0,2.2,0,3.6,0,5.1c-1,0-2.1,0.7-3.6,1.5
			c0,0,0.8,0,0.8,0.7c2.2-0.7,5.1-1.5,7.3-2.2c0.7-0.7,1.5-1.5,2.2-2.2c0.7,0,0.7,0.7,1.5,0.7c-0.7,1.5-0.7,2.9-2.2,3.6
			c-1.5,2.2-3.6,4.4-5.8,6.5l3.6,2.2c2.9-2.2,5.8-3.6,8.7-5.8c0.7,0.7,0.7,2.2,1.5,2.9c0-0.7,0.7-1.5,0.7-1.5c0.7,0,2,0.7,2,1.5
			c1.5,2.9,1.3,5.8,1.3,8.7c0,0.7,0,1.5,0,1.5l3.1,1.5c0-0.7,0.8-1.5,0.8-2.2c0.7-0.7,0.8-1.5,1.5-2.2c0.7-2.9,1.5-5.8,2.9-9.5
			c0,0,0,0,0.7,0.7c0,1.5-1.6,3.6,1.3,3.6l0.6,0.7v0.7c1,2.2,1.6,4.4,2.3,7.3c0.7,1.5,1.5,2.9,2.2,5.1c0.7,0.7,0.8,2.7,0.8,3.4
			l0.8,1.3h0.7c0,0,0.7-0.5,0.7,0.2l2.9,1.2c0-0.7-0.7-1.6-0.7-2.3c3.6,0.7,7.3,1,10.9,1c-2.9,1.5-5.1,1.9-7.3,3.9h1.5
			c2.2-2,4.4-1.8,6.5-2.5c0.7-0.7,1.5-0.2,2.2,0.6c1.5,1.5,3.4,2.7,4.4,4.2c0,0.7,0,2.2,0,2.9c-1,1.5-1.5,2.9-2.2,4.4
			c-0.7,0-0.8,0.7-1.5,1.5l2.9,3.3c0.7-2.2,1.4-4.2,2.2-6.2c0.7,0,0.7,0,0.7,0c1.5,6,2.9,9.5,2.9,13.1c0,0.7,0,0.7,0,0.7l2.5,2.9
			c1.5-2.2,3.1-4.4,4.5-6.5c0-0.7,0.8-1.5,1.5-2.2c1.5,1.5,3,2.9,3.7,4.4l0.7,0.7l3.6,2.9c2.2,2.2,4.4,4.4,6.6,7.3
			c0.7,0.7,0.7,2.2,0.7,2.9c-0.7,2.9-1.5,5.1-1.5,7.3l1.5,2.2l1.5-5.8l1.5-2.9l5.8,5.8l5.1,5.1l3.6,4.4l2.9,2.9l5.1,5.1l18.9,19.6
			c5.1,5.1,10.9,10.9,16,16.7c-0.7,0.7-1.5,1.5-2.2,1.5c1.5,0,2.2,0,2.9,0.7c1.5,0.7,1.5,1.5,2.2,2.2c0.7,0,0.7,1.5,0.7,2.2
			c0,0,0.7,0.7,0.7,1.5c0,0.7,0,1.5,0.7,2.9c0-1.5,0.7-2.1,0.7-2.8c0.7,0.7-4,496.3-3.3,497.3c3.6,0,13.7,0,17.3,0
			c1.5-3,0.5-498,1.2-498c0.7,0,0.7,0,1.5,0c0,0,1.1,0.6,1.1,1.4v-8.7c0-0.5,0-1,0-1.6c-0.3,0.3-0.6,0.4-1.1,0.9l-0.9,0.7
			c0-0.7-0.9-1.5-0.9-2.2s0-1.5,0-2.2c0,0,1-0.7,1-1.5l0.8-0.7c0.2-0.7,0.5-1.4,0.7-2.1c0-0.6,0-1.3-0.1-1.9
			c-0.2,0.4-0.6,0.7-0.8,1.1l-1.7,2.2v0.7c-1,0-1,0-1,0c0-2,0-2.1,0-3.6l1.1-3.6l1.6-4.4l0.3-1c-0.2-7.1,0-11.2,0.6-2.6l1.5-7
			c0.7-0.7,0.8-1.8,0.8-1.8c0.7,0,1.2,0,1.2,0c0-2,0-4.3,0-6.5c0-0.7,0.2-1.5,0.9-2.2c0-0.7,0.8-2.2,0.8-2.9
			c2.9,2.9,2.9,10.9,0.8,15.3c-0.7-0.7-0.7-0.7-0.7-1.5s-0.7-1.5-0.7-2.2l-0.7-0.7c0,0.7,0.7,1.5,0.7,1.5c0.7,2.9,0.7,5.8,0,8
			c-0.7,1.5-1.5,2.9-2.2,4.4c0,1.5-0.7,2.9-1.5,3.6c0,0.5-0.1,1-0.2,1.5c0,0.6,0.1,1.2,0.1,1.9c0.6-1.5,1.2-2.9,1.6-4.1l2.2-3.6
			l0.7-2.2c0.7-2.2,1.5-3.6,2.2-5.1l0.8-1.5l-0.7,0.7v-0.7c1-4.4,0.7-8,0-12.4c0-1.5-0.7-3.6-0.7-5.1c-0.7-2.9-0.7-5.1,0.7-8
			c0.7-0.7,1.5-1.5,2.9-2.9l0.7-0.7c0.7-0.7,1.5-1.5,2.2-2.2l1.5-0.7l0.7-0.7c2.2,4.4,5.1,8,2.2,13.1c-0.7,1.5,1.5,5.2,2.9,6.7
			s2.2,2.3,2.2,2.3h0.7c1.5,0,2.2-0.8,1.5-2.3c0-0.7,0-2.2-0.7-3c0-0.7-0.7-1.5-0.7-1.5c-1.5-2.9-1.5-4.4-0.7-8.7l0.7,0.7
			c0.7,2.2,2.2,4.4,2.9,6.5c1.5,1.5,2.2,3.6,3.6,5.8c2.9,2.9,0.7,5.1-1.5,7.3l-2.2,2.2l-2.9,3.6l-2.9,2.2l-5.8,7.3l-1.5,1.5
			l-2.2,2.2l-3.6,4.4l-2.2,2.2l-0.7,1.5l-2.4,1.5l-1.7,2.2v2.2c1,1.2,0.7,1.8,0.9,1.5l0.8-1.5l2.2-1.5l0.8-1.5l2.2-2.2l3.6-4.4
			l2.2-2.2l1.5-1.5l5.8-6.5l2.9-2.9l2.9-3.6c5.8-5.8,10.9-11.6,16-17.5l3.6-3.6l3.6-4.4l2.2-2.2c0-0.7,1.5-1.5,2.2-2.2
			c1.5,2.2,2.9,4.4,3.6,6.5c0.7,0.7,2.2,0.7,2.9,0.7c0-0.7,0.7-1.5,0.7-2.2c-0.7-2.2-2.2-3.6-3.6-5.1c-0.7-1.5-1.5-2.9,0.7-5.1
			c3.6-2.9,6.5-7.3,10.2-10.2c0.7-1.5,2.2-1.5,3.6-2.2c0-0.7,0.7-1.5,0.7-1.5c0.7-2.9,2.2-3.6,3.6-5.1c0-0.7,0-0.7,0.7-0.7
			c0-0.7,0-0.7,0.7-0.7l2.2,2.9l5.8,7.3c-1.5-2.9-2.9-5.8-5.1-8c0-1.5-0.7-1.5-0.7-2.2c-0.7-1.5-0.7-2.2,0-2.9
			c0-0.7,0.9-0.7,2.4-2.2c2.9,3.6,4.9,6.5,8.9,10.2V799c-3-2.2-4.6-5.8-6.7-8.7c-0.7-0.7-0.8-2.2,1.4-1.5c2.2,0,3.6,0.7,5,1.5
			c2.2,1.5,3.6,2.9,4.3,5.8c0,0.7-0.8,1.9-0.8,2.9h2.9h1.5c0.7-2,1.5-5.8,2.9-9.4c2.2,1.5,3.6,2.9,4.4,4.4c0.7,0.7,0.7,2.2,0.7,2.9
			c-0.7,0.7-1.5,1.2-2.2,2.2h2.2c0-1,1.5-1.4,1.5-2.9c0.7,0.7,0.7,0.7,0.7,0.7c0.7,0.7,1.5,0.7,2.2,1.4c0,0.7,0,0.7,0.7,0.7h1.5
			c-0.7,0-0.7,0-0.7-0.7c-0.7-0.7-1.5-1.4-2.2-2.9c0.7-0.7,0.7-0.7,1.5-1.5c0-0.7-0.7-0.7-0.7-0.7c0-0.7,0-0.7-0.7-0.7
			c0-0.7,0.7-0.7,0.7-1.5c0-0.7,0-0.7,0-1.5c-1,2.2-2.2,2.2-4.4,0.7c-0.7-0.7-1.6-1.5-3.6-2.9c0,0,0-1.5,0-2.2l0.7-0.7
			c3.6,0,7.3-0.7,10.2,1.5c-0.5,0.5-0.6,0.8-0.9,1.1c1.7-0.6,4.9-1.1,8.2-2.1h1.5c-0.7,0-0.7-1.4-0.7-1.4c0.7-0.7,1.5-1.4,2.2-2.1
			c0,0-0.7,0-1.5-0.7c0-0.7,0.7-2.2,0.7-3.6c1.5,1.5,2.9,2.9,2.9,4.4c0.7,0.7,0.7,1.5,0,2.9c3.6-0.7,7.3-0.7,9.5-1.5
			c1.5-0.7,2.2-0.7,2.2-1.5c0.7-0.7,4.4-2.2,8.7-2.9c-0.7-1.5-2.2-2.2-3.6-2.9c0-0.7,0-0.7-0.7-1.5l5.1-7.3c2.2,0,3.6,2.2,4.4,5.1
			c0-1.5,0-2.9,0.7-3.6c3.6-0.7,4.4,1.5,5.1,5.1c0-1.5,0-2.9,0.7-4.4c0-0.7,0.7-1.5,1.5-2.2c-4.4-0.7-6.5-3.6-4.4-6.5
			c0.7,0.7,0.7,1.6,0.7,3c0.7-1.5,1.5-2.5,2.2-3.5c0.7,0,0.7,0,1.5,0s2.3,0.5,3.3,1.2c0-1.5,0-2.2,0-4.2c0,0,0.4,0,1.1,0
			c-1.2,0-2-1-2.6-3c-0.6,0-1.2,0-1.8,0c-1.5,0-2.2-0.8-2.9-1.5l2.2-2.9l0.7,0.7c0.5,0.9,0.9,1.6,1.4,2.3c-0.3-1.1-0.5-2.1-0.7-4.1
			c1.5,1.5,3.6,3.5,5.8,5.5h0.7c0-2-0.7-1.9-0.7-2.6c0.7,0,0.7-0.9,1.5-0.9c0-0.7,0.7-0.8,1.5-1.6c0.7,1.5,1.5,2.1,2.2,2.9l0.7,0.7
			c0-0.7,0.7-0.7,0.7-0.7l-1.5-1.5c-0.7-1.5-1.5-2.2-2.2-3.6c0.7-0.7,1.5-0.7,2.2,0c0.7,0,1.5,0.7,2.2,1.5c0.7,1.5,0.7,2.2,1.5,2.9
			c0.7,2.2,1.5,4.4,1.5,6.5c-0.7,1.5-0.7,2.2,0,2.9c0,0.7,0.7,0.7,1.5,0.7c0-0.7,0.7-0.7,2.2-1.5c-0.7-3.6-1.5-7.3-2.2-11l-0.7-0.8
			h0.7h6.5c-1.5-1-3.6-0.7-5.1-2.1c-0.7-0.7-1.5-0.7-1.5-1.4c-0.7-0.7-0.7-1.4-0.7-2.2c0,0,0-0.7,0.7-0.7c0-0.7,0.7-1.5,1.5-1.5
			c0.7,0,2.3,0.7,3,0.7c0.7,0.7,0.6,1.5,1.6,2.2c0-1.5,0-2.9,0-3.6c-1-2.2-2.3-4.4-3.8-7.3l-0.2-0.5c0.1,0.7,0.1,1.4,0.1,1.9
			c-0.7,0-1.5-0.7-2.2-1.5s-1.5-1.5-1.5-2.2c-0.7-2.2-1.2-4.4-0.5-6.5l1-0.7v-0.7l1.2-2.2l0.6-2.2c2.8,1.4,3.5,1.4,4.2-1.1
			c-0.2,0.4-1,0.5-2.1,1.1c0-0.7,0-2.2,0.7-3.6l3.6-5.8c0,1.5,0.7,3.6,0.7,5.1c0.7,0,1.5-0.7,2.2-1.5c-0.7-1.5-0.7-2.2-1.5-3.6
			c0.7,0,1.5,0,1.5,0.7c2.2,0.7,3.9,1.5,3.9,3.6c1.5,0,1.9-0.7,3.9-1.5v-0.7l0.1-1.3c1.5,0,2.2,0,2.9,0c1.5,0,2.9-0.5,5.1-0.5
			c-2.9-1.5-5.1-5.7-2.9-8.6c1.5,1.5,2.9,3,5.1,4.4c-0.7,0-0.7,0.8-1.5,0.8c0.7,0,1.5-0.7,2.2-0.7c-0.7-1.5-1.5-2.9-2.9-4.4
			c0.7,0.7,1.5,0.7,2.2,0.7c-0.7-0.7-0.7-0.7-1.5-2.2c2.9,0.7,4.4,0.7,5.8,1.5C1795.4,698.6,1795.4,698.6,1795.4,698.6z M1392,656
			c0,0,0.3,0-0.4,0c-0.7,0-1.2-1.2-1.2-2c0,0,0.7-0.5,1.7-0.5v-0.8l0,0C1392,654.5,1392,655,1392,656z M1395.2,709
			c-0.7,0-1.5,0-1.5,0c0-2,1.3-3.1,1.3-4.6v-0.7c0,0.7,0.8,0.8,0.8,0.8C1395.8,706,1395.2,707,1395.2,709z M1402.5,714.6
			c0.7,2.9,0.7,5.1-2.2,8c-0.7-2.9-0.7-5.9-1.5-8.1l-0.7-1.5h0.7c3.6-1,3.6-1.4,2.9-3.6l-0.7,0.8c-0.7,0.7-0.7,0.7-1.5,1.5
			c0-2.9,2.2-3.6,4.4-5.1C1403.2,709.5,1401.7,712.4,1402.5,714.6z M1406.1,645.3c0-0.7-0.7-0.3-1.5-2.3c0.7,0,1.5,0,1.5,0
			c1.5-1,1.5,0.1,1.5,3.7C1407.6,646,1406.8,645.3,1406.1,645.3z M1433,642c-1.5,0-2.9,0-4.4,0c-2.2,0-4.4,0-7.3,0
			c2.2-2,5.1-4,7.3-5h1.5c2.2,0,3.9,2.7,5.9,3.4c0,0.7,0,0.7,0,1.5S1434.5,642,1433,642z M1437.4,760.5c-0.7,0-0.3,0.7-1.1,1.5
			c-0.7-1.5-0.3-2.9-0.3-4.4c0-0.7,0-2.2,0-2.9s1.1-1.5,1.8-2.2C1440.7,753.2,1440.3,756.1,1437.4,760.5z M1449,769.9
			c-2.2-5.1-3.6-10.9-2.2-13.8c0.7,0.7,1.5,1.5,2.2,2.2s0.7,0.7,1.5,1.5l-1.5,2.3c0,0.7-0.7,2-0.7,3h0.7h2.2c0,2,0,5,0.7,8.6
			C1451.2,772.9,1449.8,771.4,1449,769.9z M1564.7,790.3c0,0.7,1.5,2.8,1.5,3.6c0,5.8,0,10.1-0.7,18.1c0,0-0.7,0-1.5,0
			c0-2,1-2.8-1-3.5v-0.7c-1-5.1-0.6-9.5-0.6-14.6l0.8-0.7c0-0.7,0.8-0.7,0.8-1.5L1564.7,790.3z M1561.1,641.8c0.7,0,1.5-0.8,2.2-0.8
			h0.7c0,0-1,1.6-1,2.3v0.7l-2-0.7c0,0-1.4,0-2.1-0.8C1559.6,642.6,1560.4,642.5,1561.1,641.8z M1557.5,794.7
			c0.7-0.7,1.5-0.7,2.9-1.5c0,3.6,0.7,6.5,0.7,9.5c0.7,4.4,1.5,9,2.2,13.3c0.7,5.8,0.7,11,0.7,17h-0.7c-0.7-4-1.5-3.9-2.2-6.1
			c0-1.5,0-2.3-0.7-3.8c-1.5-6.5-3.6-13.9-5.1-20.4C1554.6,799.8,1556,796.8,1557.5,794.7z M1521.8,793.2c0.7,0.7,2.2,1.5,2.9,2.2
			l-4.4,3.6l-2.9,2.2l-1.5,1.5c0-0.7,0-0.7-0.7-0.7c0.7-1.5,1.5-2.2,2.2-3.6l2.9-3.6L1521.8,793.2z M1508.7,789.6l1.5,1.5
			c-2.2-2.9-1.5-5.1,1.5-7.3c0.7,0.7,1.5,0.4,2.2,1.1l0.7,1.1h-0.7c-1.5,0-2.8,1.4-4.8,1.4v0.6c2,0,3.4,0,4.8,0c0,0,0.9,0,1.8,0l0,0
			h0.4l1.7,1.2c2.9,2.2,2.3,2.6,0.3,7v0.7c-3,1.5-3.2,3.6-3.9,5.1c-0.7,0.7-0.9,1.5-1.6,1.5c-1.5-2.2-3-5.1-3.7-8
			c-1.5-2.9-1.5-5.8-1.5-7.3L1508.7,789.6z M1498.5,788.1c0.7-0.7,0.7-1.5,1.5-1.5c0.7-0.7,1.5-0.9,1.5-0.9c0.7,0.7,1.5,3.2,0.7,4.2
			h-0.7c0,1-0.7,0.9-1.5,1.6c-0.7,0-1.5,0.8-1.5,0.8c-0.7,0-0.7,0-0.7-0.7C1497.8,791,1498.5,789.6,1498.5,788.1z M1486.9,793h-1.5
			c-0.7-2-1.5-1.7-0.7-2.4c0.7-2.9,2.2-6.2,4.4-7.7c0.7-0.7,2.2,0.1,3.6-1.9c0,0,0.7,0,1.5,0l-1.5,2.5c-1.5,2.2-2.2,4-3.6,6.2
			C1488.3,790.4,1487.6,791,1486.9,793z M1492.7,789.6c0.7-1.5,1.5-2.2,1.5-3.6c0.7,2.9,0,5.1-1.5,5.8c-0.7,0.7-1.5,0.7-2.2,0.7
			C1491.3,791.8,1492,790.3,1492.7,789.6z M1497.8,803.4c-1.5-1.5-3.6-3.1-5.1-3.8l-1.5-1.6h1.5l3.6-2c0.7,2.2,1.5,4.4,2.2,6.6
			C1498.5,802.6,1497.8,802.7,1497.8,803.4z M1498.5,796.5c0-0.7,0.7-1.5,0.7-2.5h0.7c0.7,0,0.7-0.4,1.5-1.1c0.7,0,2.3-0.6,3.1-1.3
			c1.5,3.6,3.5,6.7,4.5,10.4v0.7c1,2.2,1.3,2.5-0.1,5.4c-2.2-0.7-4.5-1.1-6.7-4.1h-0.7c-0.7,0-0.7-0.3-0.7-1l-0.7-1.4
			C1499.3,800.1,1499.3,798,1498.5,796.5z M1534.2,842.7c-2.9-2.9-5.8-5.8-8.7-8.7l-5.1-5.1l-2.9-2.9l-3.6-4.4l-5.1-5.1l-5.1-5.1
			c-0.7-0.7-1.5-2.2-2.2-3.6c0,0,0-0.7-0.7-0.7c0.7-0.7,0.7-0.7,0.7-0.7c2.2,1.5,5.1,2.9,7.3,3.6l2.2,1.5c0.7,0.7,2.2,1.5,2.9,2.9
			c0,0.7,0.7,1.5,1.5,2.9c0.7,1.5,1.5,2.2,2.2,3.6c0.7,0.7,1.5,1.2,2.2,2.2h0.4v-0.7v-0.7c-1-1.5-1.1-3.6-1.1-4.6h1.5
			c1.5,1,2.6,1,4.6,1.7V818c-1-0.7-2-1.5-3.4-1.5c0-0.7-0.6-0.7-1.3-1.5c-0.7,0-2.1-0.7-2.9-1.5c-2.2-1.5-2.2-3.6-0.7-5.8l0.7-0.7
			c0.7-1.5,2.2-2.2,2.9-3.6c0.7,0,0.7-0.7,1.5-1.5s2.2-1.5,3.6-2.2c0,0,0.7,0,0.7-0.7c1.5-0.7,3.6-2.9,5.8-3.6
			c0.7-0.7,2.2-0.7,3.6-1.5c0.7,0,1.5-1.5,2.9-1.5c1.5,1.5,1.5,2.9-0.7,4.4c-0.7,0.7-2.9,1.5-4.4,2.2c0,0.7-0.7,1.5-0.7,2.2
			c0.7,0,1.5,0.7,2.2,0.7c1.5-0.7,2.2-1.2,3.6-1.2c-0.7,0.7-0.7,2.2-0.7,3.2h0.7c1.5-4,2.9-4.7,4.4-6.8c0,0.7,0.7,0.6,1.5,1.3
			c0.7,0,0.7-0.8,1.5-2.3c1.5-0.7,2.9-2.2,3.6-3.7c1.5,2.9,1.5,5.1,0.7,7.3c-1.5,2.9-2.2,5.8-2.2,9.4c0,0,0,0.7,0,1.5l-3.6,10.2
			c-2.9,6.5-5.8,13.8-8.7,20.4C1534.9,842,1534.9,842,1534.2,842.7z M1566.2,871.8c0,0.7-0.7,1.5-0.7,2.2c-0.7,0-0.7-0.7-1.5-0.7
			c0,0-0.7,0-0.7-0.7l-2.2-1.5c-5.8-6.5-11.6-12.4-16.7-18.2c-2.2-2.2-4.4-4.4-6.5-6.5c0-0.7-0.7-1.5-0.7-2.2
			c2.2-5.8,4.4-10.9,7.3-16.7l3.6-8.7c0-0.7,0-0.7,0.7-0.7c0,0.7-0.7,1.5-0.7,2.2c0,1.5,0,2.2,0,2.9c0,0,2.2,0,2.9-0.7
			c1.5-2.2,2.9-3.2,2.2-6.8c-1.5-2.2-0.7-5.5-0.7-7.5c0,0-0.4,0,0.6,0c0,0,0,0.5,0,1.2c3,10.2,5.9,21.1,8.1,31.3l2.2,7.3l0.7,3.6
			l1.5,6.5c0.7,1.5,0.7,3.6,0.7,5.1c0.7,2.9,0.7,5.1,0.7,8C1566.9,871.1,1566.9,871.8,1566.2,871.8z M1567,847h-1v-7.9l1-3.6
			C1567,839.1,1567,843,1567,847z M1632.4,784h0.7c0.7,1,1.5,0.6,2.2,1.3c-0.7,0.7-1.5,1.4-2.2,1.4s-1.5-0.6-2.2-2.1
			C1631.7,784.6,1632.4,784,1632.4,784z M1625.6,788.8c1.5,2.2,2.4,4.4,3.4,6.5v1.6c0,0-0.2,0-1,0c-0.7-2-1.5-1.9-2.2-2.6
			c-0.7-1.5-1.5-2.4-2.2-3.9c-0.7,0-0.9-1.6-0.9-2.3C1623.6,788.2,1624.9,788.1,1625.6,788.8z M1606.9,785h0.7
			c0.7,1,1.5,2.7,2.2,4.1c0.7,0.7,0.7,0.6,0.7,1.3c1.5-2.2,2.9,0.7,4.4-0.1c0.7,0.7,0.3,0.7,0.3,0.7c-2.2,1.5-2.3,2.9-6.3,4.3v0.7
			c0-0.7-1.8-2.2-2.5-2.9c-0.7-2.2-1.2-4.8-2.7-7C1605.3,786.2,1606.2,785,1606.9,785z M1594.6,784c0.7,0,0.4,0,1.4,0
			c0,1,0,2.7,0,4.8c0-0.7-0.7-1.5-1.4-1.5c-0.7-0.7-1.4-1.3-2.2-2.1C1593.1,784.6,1593.9,785,1594.6,784z M1590.9,786
			c1.5,2,2.9,2.9,3.6,4.4s1.5,2.6,0.7,3.6h-0.7c-1.5-1-2.9-2.9-3.6-4.4s-0.7-3.6-2.2-3.6C1589.5,786,1590.2,786,1590.9,786z
			 M1581,797v2c1,2.2,1,5.1,3,7.3v1.7c-2,0-1.8,0-1.8,0s-0.7-2.6-0.7-4c0-2.2-0.7-4-1.5-7C1580.8,797,1580,797,1581,797z M1580,837
			c0-4,0-8.9,0-13.2c0,0.7,1.8,1.5,1.8,2.2c0.7,1.5,0.6,4.1-0.2,5.5c-0.7,2.2-0.9,3.5-0.9,5.5C1580,837,1580,837,1580,837z
			 M1582.7,846.6c-0.7,0.7-0.7,1.9-1.7,3.4v0.7c-1-5.1-0.5-9.2,0.2-13.6c0.7-1.5,1-2.1,1-4.1h0.7
			C1584.4,838,1584.2,841.5,1582.7,846.6z M1586.6,826h-0.7h-0.8c0-2,0-3.7,0-5.9c1,0.7,0.8,0.7,0.8,1.5
			C1587.2,823.1,1587.3,824,1586.6,826z M1590.9,813.6c0,1.5-0.7,2.9-2.2,5.1l-0.7,1.5l-0.7,1.5c0-1.5-0.7-2.9-1.5-3.6
			c0-2.2-0.7-4.4-1.5-6.5c-0.7-3.6-1.5-8-1.5-12.4l-0.7-1.5c0,0,0-0.7,0.7-0.7c0-0.7,0.8-1.5,0.8-1.5c0.7,0,1.3,0.7,2.3,0.7
			c0,0.7,0,0.7,0,0.7c1,1.5,1,2.2,1,2.9v0.7l1.2,1.5c1.5,2.2,2.4,3.6,2.4,5.1C1591.4,809.2,1591.7,811.4,1590.9,813.6z
			 M1590.9,801.9l-2.2-3.6l-0.7-2.2l-2.2-3.1l-1.5-3.1c0.7,0,1.5,0,1.5,0c0.7,1,1.5,0.9,2.2,1.6c0,0,0.7,0.1,0.7,0.8
			c0.7,0.7,1.5,2.2,2.2,2.9c2.2,2.9,2.9,7.3,1.5,9.5L1590.9,801.9z M1597,818h-0.2c-0.7,0-1.5,1.4-2.2,2.2c-0.7,0.7-1.2,1.4-2,2.2
			c0.7-3.6,1.4-6.6,2.4-10.2v0.7c1,0.7,1.7,1.5,1.7,2.9l0.3,0.7C1599,816.5,1597,818,1597,818z M1600,814c0,0-0.3,0-1.1,0
			c0,0,0-0.2-0.7-0.2c0,0-0.7-0.5-1.5-1.2c-0.7-1.5-0.7-3.5,0-5.7c0.7,1.5,1.3,2.2,1.3,3c0.7,1.5,2,2.2,2,3.7L1600,814L1600,814z
			 M1604,805.6v14.6c-1,0-3-1.5-3-3.6c0-3.6,0-7.3,0-10.2c0-3.6-1.1-7.3-1.1-10.2c0-2.2,1.1-4.4,1.1-6.5c0-1.5,0-2.2,0-4.4l2.6,5.1
			l2.6,3.7h-2.2l-0.7-0.8c0,0.7,0.7,0.7,0.7,1.4c1.5,0.7,2.2,1.4,2.9,2.9c0.7,0.7,1.5,2.2,0.7,4.4c0,0.7,0,1.5-0.7,2.2
			S1605,805.6,1604,805.6z M1633.1,821.6c-1.5,1.5-2.9,2.9-3.6,3.6c-1.5,1.5-2.2,2.2-3.6,3.6l-0.7,0.7c-0.7,0.7-1.5,2.2-2.2,3.6
			c-0.7,0.7-2.2,1.5-2.9,3.6c-3.6-5.1-7.3-9.5-10.2-13.8c-0.7-1.5-2.2-2.8-2.9-4.3s-0.7-1.8-0.7-2.8c0.7,0,0.7,0,0.7,0
			c0.7-2,1.5-0.8,2.2-1.6c-0.7,0-1.5-0.1-2.2-0.8c-1.5-0.7-1.5-2.2,0-5.1c0.7-0.7,1.5-1.5,2.2-2.9c0,1.5,0.7,2.9,0.7,4.4
			c0.7,0.7,0.7,1.5,0.7,2.9c0,0,0,0.7-0.7,0.7c0,0.7,0,0.7-0.7,0.7l0.7,0.7c1.5,1.5,2.2,3.6,3.6,5.1c-0.7-2.2-1.2-3.6-1.9-5.8
			c-0.7-3.6-1.6-7.3-2.6-10.9c0,0,0,0,0-0.7s1.9-2.2,2.6-3.6c1.5-2.2,3.1-4.4,4.6-5.8c0.7-0.7,1.6-0.7,3-1.5c2.9,1.5,5.1,4.4,6.6,8
			c0.7,0.7,1.5,1.5,2.2,2.9c0.7,0.7,0.7,1.5,0.7,2.2c-0.7,3.6-1.4,7.3-2.2,10.2c0.7,0.7,1.5,0.7,2.9,1.5c0,0.7,0.7,0.7,1.5,0.7
			c-0.7-0.7-1.5-2.2-1.5-3.6c-0.7,0-1-0.7-1-1.5c0-1.5,0.5-2.9,0.5-3.6v-2.9c1,0,1-0.7,1-0.7c1.5,2.2,2.3,3.6,3,5.1
			c0.7,0.7,0.8,1.5,1.5,2.2C1637.4,817.2,1637.5,817.2,1633.1,821.6z M1655.7,796.1c0,0.7,0,1.5-0.7,2.2
			c-5.1,5.1-10.2,10.9-15.3,16.7c-2.2-3.6-4.4-6.5-6.5-10.2l-2.2-2.9c-0.7-4.4-0.7-7.9-1.5-12.3l-0.7-0.7h0.7c0.7,0,2.2,0.7,2.9,0.7
			c0,0,0.7,0,0.7-0.8c2.2-0.7,5.1-2.2,7.3-3.7c1.5,0,2.9-0.7,4.4-1.5c0.7,0,0.7-0.7,1.5-0.7s2.2,0,3.6,0c1.5,1,2.9,2.2,4.4,2.9
			c0.7,0,1.5,0.7,2.2,1.5C1656.4,790.3,1656.4,793.2,1655.7,796.1z M1661,791.8c0,0.7-1.1,0.7-1.1,1.5c-0.7,0-0.9,0-1.9,0.7
			c0-2.2,0-4.4,0-5.8c1,0,1.1,0.7,1.9,0.7c0,0.7,1.1,1.5,1.1,1.5C1661,791,1661,791.8,1661,791.8z M1663.7,788.8l-1.5,1.5
			c-0.7-2.2-1.1-2.9-1.8-4.4c1.5,0,2.6,0.7,2.6-0.7v-0.7c0-0.4,0-0.5,0-0.7c2,0.7,1.8,0.7,3.3,2.2
			C1665.5,786.7,1664.4,788.1,1663.7,788.8z M1674.6,785.2c-0.7,0-1.5,0-2.2-0.7l2.2-2.9c0.7,0,0.7-0.7,1.5-1.5
			c0.7,2.2,0.7,3.6,0.7,5.8C1676.1,785.9,1675.3,785.9,1674.6,785.2z M1674.6,642.9c-2.9,0.7-5.8,0.1-8-1.3c2.9,0,5.1-0.6,8-0.6
			c1.5,0,2.9,0,5.1,0C1678.3,641,1676.8,642.9,1674.6,642.9z M1682.6,787c0,1.5-0.7,3-0.7,4c-0.7,0-0.7,0-0.7,0
			c-1.5-1-2.2-4-2.2-8.4c0.7,0.7,1.5,0.9,2.2,0.9c0.7,0.7,0.7,0.6,1.5,0.6C1682.6,784.9,1683.4,786.3,1682.6,787z M1683.4,780.8
			c-0.7-0.7-1.5-0.7-2.2-1.5c-0.7,0-0.7-0.2-1.5-0.2c0-0.7,0-0.2,0.7-0.2c0,0,0,0,0.7,0s1.5-0.5,2.9,0.2c0,0,0.7,0.5,0.7,1.2
			C1684.1,780.4,1683.4,780.8,1683.4,780.8z M1705.9,779h-0.7c-0.7,0-0.7-1.3,0-2.7c0.7,0,0.7-0.8,1.5-0.8
			C1706.6,776.9,1705.9,779,1705.9,779z M1718.3,647c0-5,0-6,1.5-6c0.7,0,1.3,0,1.3,0c0,2,0,3.8,0,5.2l-1.3,0.8
			C1719,647,1719,647,1718.3,647z M1743,653.5V652l0,0l0.7-1.1c0-0.7,0.7-1.3,1.5-2.7c0,0.7,1.1,2.3,1.1,2.3
			C1745.6,651.2,1744,652,1743,653.5z M1751.8,746c-1.5,0-2.2-1.5-2.9-3c0.7,0.7,2.2,0.7,2.9,0.7c0.7,0.7,0.7,0.8,1.5,1.5
			c0.7,0,0.7,0.8,0.7,0.8C1753.2,746,1752.5,746,1751.8,746z M1753.2,732.8l2.2-3.6c0.7,1.5,1.5,3.3,2.2,4c0,0.7,0.7-0.2,0.7,1.8
			h-0.7c-0.7,0-1.5-0.4-2.2-1.1C1754.7,733.9,1753.9,733.5,1753.2,732.8z M1759,743l-1.5-2.9l-2.2-2.9l-0.7-2.2
			c0.7,0,0.7,0.7,0.7,0.7c0.7,0,1.5,0,2.2,0.7c0.7,0,0.7,0,1.5,0.7C1760.5,738.6,1760.5,740.8,1759,743z M1760.5,733.5
			c0.7,1.5,0.7,2.9,0.7,5.1l-0.7-1.5l-1.5-2.9l-1.5-2.9l-0.4-0.9c-0.2-0.1-0.3-0.3-0.3-0.6l0.3,0.6c0.2,0.1,0.4,0.1,0.4,0.1
			c0.7,0,0.7,0.7,1.5,0.7C1759.8,732.1,1759.8,732.8,1760.5,733.5z M1772.1,674c2.2,0,2.2,0.7,0.7,6.5l-0.7-1.4l-1.5-5.1
			C1771.4,674,1772.1,674,1772.1,674z M1775,707.3c-0.7-0.7-1.5-1.5-2.9-2.2c0,0-0.7-0.4-0.7-1.1l0.7-1.1c0.7,0,0.7,0,0.7,0
			s0-0.4-0.7-0.4l2.2-2.7C1776.5,702.8,1776.5,704.4,1775,707.3z M1780.1,707c-0.7,0-0.1-0.4-0.1-1.1c0-2.2,0-5.1,0-8
			c0,0.7,0.8,1.3,0.8,2.7c1.5,1.5,0.8,4.4,1.5,6.4C1781.6,707,1780.9,707,1780.1,707z"/>
	</g>
	<g>
		<path d="M1735,572.7c-0.7,5.1-8.7,5.8-13.1,6.5c0.7,0,0.7,0,1.5,0.7c2.2,0.7,4.4,1.5,8.7,2.9c2.2,0,4.4,0.7,6.5,0.7
			c4.4,0,8-0.7,9.5-0.7c2.2,0,0.7-5.8-3.6-13.8c-1.5-2.2-2.9-5.1-4.4-8s-2.9-6.5-5.1-9.5C1736.5,559.6,1735,567.6,1735,572.7z"/>
		<path fill="#F6F6F6" d="M1735,551.6c-0.7-2.2-2.2-4.4-2.9-5.8c-2.2-1.5-4.4-3.6-7.3-5.1c-3.6-2.2-7.3-4.4-10.9-5.1
			c-2.9-1.5-5.8-2.2-8.7-2.9c-2.9,0-6.5-0.7-8-0.7c-2.9,0-8,2.9-8.7,4.4c-0.7,0.7-2.9-3.6-1.5-8.7c0-2.2,2.2-5.1,2.9-5.8
			c2.2-4.4,2.9-9.5,0-13.8s-3.6-3.6-5.8-3.6c-2.2-0.7-4.4,0-6.5,3.6s0,8.7,0,8.7l5.1,4.4c0,0-5.1,13.8-5.1,18.2s3.6,11.6,4.4,14.6
			c0,0.7,0.7,3.6,2.2,5.8c0.7,2.9,2.2,5.8,2.9,7.3c1.5,0.7,2.9,2.2,4.4,4.4l0,0c2.9,0.7,6.5,2.9,9.5,3.6c-2.9,2.9-6.5,5.1-8.7,7.3
			c-3.6,2.9-3.6,2.2-10.2,8.7c-1.5,0.7-2.2,1.5-3.6,2.2c-2.9,2.9,1.5,8,2.2,10.9l5.8,16c0,2.2,1.5,5.8,2.9,6.5
			c0.7,0,3.6-0.7,5.1-1.5c0.7-0.7-2.9-0.7-3.6-1.5c-0.7,0-1.5-0.7-2.2-2.2c0-1.5-0.7-5.8-1.5-7.3c-1.5-2.9-2.2-5.8-4.4-13.1
			c-2.2-6.5-2.2-5.8,1.5-8.7c3.6-2.9,6.5-5.1,8.7-6.5c5.1-4.4,8.7-7.3,11.6-8.7l0,0c1.5-1.5,2.9-1.5,4.4-0.7
			c2.9,2.9,2.2,3.6,2.2,8.7s-0.7,14.6-0.7,20.4s0,4.4,0.7,18.2c0,13.8,0.7,29.1,0,29.8c-1.5,0.7,4.4-1.5,4.4-1.5s-2.2-2.9-2.2-17.5
			s0.7-21.8,0.7-26.9c-0.7-21.1,2.9-24,4.4-25.5c0.7-1.5,1.5-2.9,1.5-3.6c0.7-0.7,1.5-0.7,2.2,0c3.6,0,12.4-0.7,12.4-5.8
			C1735,567.6,1736.5,559.6,1735,551.6z"/>
		<path fill="#F39200" d="M1676.8,516.7c2.2,0,5.8,0,8,2.2l-18.9,24.7L1676.8,516.7z"/>
		<path d="M1681.2,511.6c0.7,0,1.5-0.7,1.5-1.5s-0.7-1.5-1.5-1.5s-1.5,0.7-1.5,1.5S1680.4,511.6,1681.2,511.6z"/>
	</g>
	<path d="M1588,517.4c0.7,0,1.5-0.7,1.5-1.5s-0.7-1.5-1.5-1.5s-1.5,0.7-1.5,1.5S1587.3,517.4,1588,517.4z"/>
	<path d="M1380.6,564c-5.1,8-5.8,13.1-3.6,13.1c1.5,0,5.1,0.7,9.5,0.7c1.5,0,4.4,0,6.5-0.7c3.6-0.7,6.5-1.5,8-2.9
		c1.5,0,2.2-0.7,2.9-1.5c-4.4-0.7-16-6.5-16.7-21.8c-0.7,1.5-1.5,2.9-2.2,5.1C1383.6,558.2,1382.1,561.1,1380.6,564z"/>
	<path fill="#F2F2F2" d="M1448.4,504.3l-0.9,1.1c0-0.7,2.3,1.1,0.1-2.5s-5.1-5.1-7.3-4.4c-2.2,0-3.6-0.7-6.5,3.6
		c-2.9,4.4-0.7,10.2,1.5,13.8c0.7,1.5,4.4,4.4,4.4,6.5c0.7,5.1-2.2,9.5-2.9,8.7c-0.7-1.5-5.8-4.4-8.7-4.4c-2.2,0-5.1,0-8,0.7
		s-5.8,1.5-8.7,2.9c-3.6,1.5-7.3,2.9-10.9,5.1c-2.2,1.5-5.1,3.6-7.3,5.1c-1.5,2.2-3.6,6.5-5.8,10.9c0.7,14.6,13.1,20.4,16.7,21.8
		c0.7-0.7,0.7-0.7,0.7,0c0.7,0.7,1.5,2.2,2.2,3.6c1.5,1.5,4.4,4.4,4.4,25.5c0,5.1,0.7,12.4,0.7,26.9c0,14.6-2.2,17.5-2.2,17.5
		s5.8,2.2,4.4,1.5c-1.5-0.7-0.7-16,0-29.8s0-12.4,0.7-18.2c0-5.8-0.7-15.3-0.7-20.4c0-4.4-0.7-5.8,2.2-8.7c2.2-2.2,6.5,0.7,6.5,8.7
		c0,0.7-0.7,4.4-0.7,8c-0.7,5.1-0.7,8-0.7,14.6c0,2.9-0.7,22.6-0.7,29.8s-2.9,14.6-2.9,14.6s6.5,0.7,6.5,0s-1.5-4.4-2.2-13.1
		c0-8.7,1.5-26.9,2.2-30.6c0-13.8,2.9-26.2,3.6-28.4c2.9-8,7.3-10.9,9.5-13.1c0.7-1.5,2.2-4.4,2.9-7.3c1.5-2.2,2.2-5.1,2.9-5.8
		c0-2.9,2.9-10.2,3.6-14.6c1.5-7.3-2.2-14.6-5.1-17.5c-1.5-2.2,1.5-3.6,1.5-3.6l0,0C1449.8,509,1448.6,505.3,1448.4,504.3z"/>
	<path fill="#F39200" d="M1443.4,502.7c0.3,1.6,0.9,4.8,3.5,6.3l18.2-21.3L1443.4,502.7z"/>
	<path d="M1438.8,506.5c0,0,0.7-0.7,0.7-1.5l-0.7-0.7c-0.7,0-1.5,0.7-1.5,0.7C1437.4,505.8,1438.1,506.5,1438.8,506.5z"/>
</g>
</svg>
