<?xml version="1.0" encoding="utf-8"?>
<!-- Generator: Adobe Illustrator 18.1.1, SVG Export Plug-In . SVG Version: 6.00 Build 0)  -->
<svg version="1.1" id="Warstwa_1" xmlns="http://www.w3.org/2000/svg" xmlns:xlink="http://www.w3.org/1999/xlink" x="0px" y="0px"
	 viewBox="0 0 1920 1080" enable-background="new 0 0 1920 1080" xml:space="preserve">
<g>
	<path fill-rule="evenodd" clip-rule="evenodd" fill="#4C3A30" d="M513.6,1057.4c4,0.6,10,1.2,17.7,0.3l4.9-9.1l7.9-11.6l4-9.7
		l-0.6,11l-5.8,6.1l-4.9,12.5h0.9c21-4,28-12.5,36.2-28.3c8.5-15.8,9.7-25.9,21.6-30.4c11.9-4.9,20.4-0.3,20.4-0.3s-18-0.3-24.7,9.4
		c-6.7,9.7-7.6,14.6-11.3,23.1c-2.7,6.4-6.1,15.2-11.9,21.3l4.9,2.7l13.7-3.3l7,4l-8.8-1.5l-15.5,4.9l-5.8-2.7
		c-0.9,0.6-1.8,1.2-3,1.8c-10.4,4.9-23.1,12.5-29.5,11c-3.3-0.9-13.4-1.5-21.6-1.8L513.6,1057.4z"/>
	<path fill-rule="evenodd" clip-rule="evenodd" fill="#4C3A30" d="M124.5,1132.9c9.1-340.1-5.2-158.3-1.5-269.8
		c0.9-25.6-4.6-52.4-0.3-121.2c3.7-55.7,9.4-60,23.7-60c0,0-2.1-54.5,7-73.1c9.4-19.2,15.5-55.4,23.7-74.3c3-7.3,6.7-11.3,9.7-14.6
		c2.4-3,3.3,82.2,4.9,78.6c0.9-2.7,0.9-81,0.9-85.6c0.3-11.9,0.6-21.3,0.9-29.8c1.2-18.9-4.9-24.1,4-25c1.2-0.3,3.3,5.5,6.1,5.5
		c4.3,0.3,9.4-5.2,12.8-5.2l-1.2,77.3v35.3l6.4-106l0.6,29.5l6.4-36.2c6.1-0.3,14.3-1.5,24.1-2.7l0.6,24.4l1.2,81.3l1.2-78.6
		c0-6.1,2.1-16.4,2.1-20.4c-0.3-8.8-1.8-7.6,11.3-8.5c13.4-1.2,27.4-1.5,39.6,0.9l-2.1,63.6l5.5-63h0.3l0.6,8.2l1.8-7.6
		c0.3,0,0.6,0,0.9-0.3l-0.3,33.2l3-40.8l0,0c0.9-8.2,0.3-20.7,1.8-26.2c0.9-3.3,3,1.2,4.6,0.9c3.3-1.2,6.7-3.3,6.7,0.9
		c0,7.3-0.9,69.4-0.9,79.2c0,4,4.3,0,3.7,22.8c-0.3,14-5.2,58.8-5.8,137.9c-0.3,9.7,7.6-2.7,7.3,8.8c-0.6,39.9,7.9-98.6,8.2-68.2
		c0.6,49.6,8.8-1.8,9.1-1.5c1.2,1.2-8.8-80.1-4-79.2c4.3,0.9,5.2-0.3,12.8,1.8c1.5,0.6-0.6,32.9,1.2,33.5c1.5,0.3,3-31.4,4.6-31.1
		c1.8,0.6,6.4,451.5,9.1,513c2.7,59.4-1.2-133.7-0.9-285c0.3-93.8,6.1-111.7,5.2-224.4c0-5.2,9.4,2.1,13.7,2.7
		c8.5,0.9,18,3.3,28.3,4.3c0.6,0.3,1.5,24.1,2.4,24.4c0.9,0,1.8-23.7,3-23.7s3.3,41.4,4.6,41.4c0.6,0,0.3-41.1,0.9-41.1
		c2.1,0,4-0.3,6.1-0.3c8.2-0.9,17.7,25,21.9,32.9c4.3,7.6,2.7,3.3,3.3,14.6c1.5,26.5,1.5,72.8,3,81c2.4,11.3,16.4-9.1,16.4,15.2
		c0,24.4-1.8,31.7-1.8,31.7s26.2,3.7,27.4,26.8c1.2,23.1,5.8,416.8,3.7,438.4c-0.3,3.3-3-8.2-14-7c-3.7,0.3-7.6,16.7-11.9,18
		c-13.4,3.3-32,0.6-52.7,0c-12.5-0.3-25.6,1.2-39.9,1.2c-4,0-8.2-2.7-12.5-2.7c-5.2,0-16.4,5.8-21.9,5.8c-2.1,0-11.3-6.4-13.7-6.4
		c-2.4-0.3-5.8-2.4-8.2-1.5c-4.3,1.8-7.6,7-11.9,7c-4.6-0.3-16.4-7.6-21-7.9c-5.2,0-15.5,6.7-21,6.4c-4-0.3-13.7-7.9-17.4-8.2
		c-5.5-0.3-12.2,2.1-17.4,1.8c-3.7,0-7.3-7.9-11-7.9c-5.8-0.3-4.6,5.2-10.7,6.4c-2.1,0.6-5.5-5.2-7.9-5.2
		c-7.9,0.6-16.4,5.8-20.7,5.5c-6.4-0.3-16.1-9.7-22.2-10c-2.4,0-4.9,9.7-7.3,9.7c-6.4-0.3-7.9-4.3-12.8-7.9
		c-5.5-3.7-14.6-7.3-18.9-7.6C123.3,1167.3,123,1192.3,124.5,1132.9z"/>
	<g>
		<path fill="#352C28" d="M534.6,789.8c15.2,0.6,52.1,3.3,78.2,16.1c16.1,7.9,22.8,17.7,16.1,27.1c-7,10.4-28.3,23.4-76.7,37.4
			c-27.7,7.9-63.6,12.8-99.3,17.7c-35.6,4.9-74,8.5-110.8,11.3c-69.4,5.2-142.2,8.5-211-1.5c-21-3-36.8-5.8-56.3-11.3
			c-18.3-5.2-32-10.4-39.3-16.1c-27.1-21.6,12.5-46.6,69.4-52.7c17.4-1.8,16.7-3.3-0.3-1.5c-54.2,5.8-94.4,22.5-90.7,42
			c1.8,11.3,15.8,23.4,56.9,35.3c20.7,5.8,41.4,7.9,63.6,11.3c69.1,10,137.9,6.4,208.3,1.5c37.1-2.7,75.5-6.4,112-11.3
			c36.2-5.2,72.8-10,101.1-18.3c50.8-14.6,77-29.8,84.9-41.4c24.1-34.4-62.1-46-106.6-46.9C525.5,788.6,524.6,789.5,534.6,789.8z"/>
		<path fill-rule="evenodd" clip-rule="evenodd" fill="#352C28" d="M530.3,797.4c15.8,2.4,42,9.4,26.2,27.7
			c-20.4,23.7-133.4,42.6-266.1,47.8c-75.2,2.7-149.8-4-193.6-14.6c-29.8-7.3-21.3-24.1,16.4-33.8c35-9.1-78.6,0.9-74,31.4
			c2.7,16.4,38.7,30.8,93.5,38.7c45.7,6.4,108.1,7,160.5,4.3c93.8-4.9,203.4-14.6,272.5-36.8c17.4-5.8,48.1-15.5,57.2-31.4
			c10-18-28.9-30.8-55.1-34.7c-11.6-1.5-25.3-3.3-37.1-2.1C516,795.3,518.8,795.6,530.3,797.4z"/>
	</g>
	<path fill-rule="evenodd" clip-rule="evenodd" fill="#EC766A" d="M622.6,1005.6c0,0,14.6-3,15.8-5.8c1.2-2.7-10.7-4.3-10.7-4.3
		s3.7-10,2.4-12.8c-1.2-2.7-9.7,5.2-9.7,5.2s-2.7-7.3-5.5-11c-3-3.3-2.7,9.4-0.9,13.4c1.5,4-6.1-0.6-10.4,0.3s6.4,7,6.4,7
		s-9.7,7-7.9,9.1c1.8,1.8,9.4-3,9.4-3s-0.6,4,1.2,8.8c2.1,4.6,4.3-3,4.3-3s5.2,3,8.8,4.9C629.6,1016.3,622.6,1005.6,622.6,1005.6z"
		/>
	<path fill-rule="evenodd" clip-rule="evenodd" fill="#4C3A30" d="M137.9,755.1c-4-0.3-9.7-0.9-16.4-3.3l-2.7-9.4l-5.2-12.2
		l-1.5-9.7l-1.5,10l4,6.7l2.1,12.8l-0.9-0.3c-18.6-7.9-23.4-17.1-28-33.5c-4.6-16.4-3.7-25.9-13.7-32.6c-10-6.7-18.6-4.3-18.6-4.3
		s16.4,3.3,20.7,13.7c4.3,10.4,4,14.9,5.8,23.7c1.2,6.4,2.4,15.2,6.7,22.2l-5.2,1.5l-11.9-6.1l-7.3,2.1l8.5,0.6l13.4,7.6l5.8-1.2
		c0.9,0.6,1.5,1.2,2.4,2.1c8.8,6.7,18.9,16.1,25,15.8c3.3,0,12.8,1.5,20.4,2.7L137.9,755.1z"/>
	<path fill-rule="evenodd" clip-rule="evenodd" fill="#EC766A" d="M47.2,685c0,0-12.8-5.5-13.4-8.5c-0.3-2.7,11-1.8,11-1.8
		s-1.5-10,0-12.2c1.8-2.4,8.2,6.7,8.2,6.7s4-6.1,7.3-8.8c3.3-2.7,0.3,9.1-1.8,12.5c-2.4,3.3,5.5,0.6,9.4,2.4
		c3.7,1.5-7.3,5.2-7.3,5.2s7.6,8.2,5.5,10c-2.1,1.5-8.2-4.9-8.2-4.9s0,4-3,7.9c-2.7,4-3.3-3.7-3.3-3.7s-5.2,1.8-8.8,2.7
		C38.9,693.6,47.2,685,47.2,685z"/>
</g>
</svg>
