<?xml version="1.0" encoding="utf-8"?>
<!-- Generator: Adobe Illustrator 18.1.1, SVG Export Plug-In . SVG Version: 6.00 Build 0)  -->
<svg version="1.1" id="Warstwa_1" xmlns="http://www.w3.org/2000/svg" xmlns:xlink="http://www.w3.org/1999/xlink" x="0px" y="0px"
	 viewBox="0 0 1920 1080" enable-background="new 0 0 1920 1080" xml:space="preserve">
<path fill-rule="evenodd" clip-rule="evenodd" fill="#D5BBA9" d="M219.5,60.5c-1.2,0-4.6,0.3-6.4,0c-0.9-0.3-0.3-0.6-1.5-0.6
	c-0.9,0-1.5,0.3-2.7,0.3c-2.1,0-4.6,0-6.1,0c-3,0.3-0.9,0.9-3.3,0.9c-4,0-5.8-0.6-7.9-0.6c-9.7-0.9-9.7-0.3-9.7-2.7
	c0-2.7,0.3-4.3,0-4.9c0-0.6,0.9-17.7,0.9-17.7s-3,37.4-3.7,43.5c0,0.6-0.6,1.2-0.6,1.8c0,1.8,0,3,0,3.7c0,0.6-3.7,0-5.8,0.3
	c-0.9,0,0.3-3.7-0.6-3.7c-0.3,0,0,3.7-0.6,3.7c-1.2,0.3-2.1,0.3-3.3,0.3c-1.5,0-2.4,0-3,0c-0.3,0-1.2-0.6-1.5-0.6
	c-0.9,0-2.4,0-3-0.6c-0.3-0.3-0.3-0.6-0.3-1.2c0-0.6,0-1.5,0-2.1c0-0.3-0.9,0-0.9-0.3c0-0.6,0.3-1.5,0.3-2.1c0-0.3-0.9-0.3-0.9-0.6
	c0-6.1,0.6-7.6,0.6-7.6s-1.2,9.1-1.8,11.6c-0.3,2.4-6.7,1.8-7.6,0.3c-0.6-1.5,0.3-8.2,0.3-8.2s0,6.7-2.7,7.6
	c-2.7,0.9-5.8,0.3-5.8,0.3s-0.9-0.3-0.6-11c0.3-3,0.3-7.6,0.3-12.5c0,0-0.3,0-0.6,0c-2.7,0.3-5.8,0.6-5.8,0.6s-2.1,2.1-1.5,17.1
	s-0.6,15.2-0.6,15.2s-4.3,0.9-8.2-0.3c-3.7-0.9-3.7-10.7-3.7-10.7s1.2,9.7,0,11.6c-1.2,2.1-10,3-10.7-0.3s-2.4-27.7-2.4-27.7
	s1.2,13.4,0.9,21.9c-0.3,0.3-1.2,0.6-1.2,0.9c0,0.9,0.3,2.1,0.3,3c0,0.3-0.9,0-1.2,0.6c0,0.6,0,2.1,0,2.7c-0.3,0.9,0,1.2-0.3,1.8
	c-0.9,0.6-3,0.6-4.3,0.9c-0.6,0-1.8,0.6-2.4,0.9c-0.9,0-2.1,0-4.3-0.3c-1.5,0-3,0-4.6,0c-0.6,0-0.3-5.2-0.9-5.2
	c-1.2-0.3,0.3,5.2-0.6,4.9c-3-0.3-8.2,0.3-8.2-0.6c0-0.6,0-2.4,0-4.9c0-0.6-0.6-1.8-0.6-2.4c-0.9-8.8-2.7-22.5-2.7-22.5
	s1.5,23.7,1.2,24.7c-0.3,0.9,0,3,0,6.7c0,3.7,0,2.7-13.7,4c-3,0.3-5.5,0.9-11,0.9c-3.3,0-0.6-0.9-4.9-1.2c-2.1,0-5.2,0-8.5,0
	c-1.2,0-2.4-0.6-4-0.6s-0.3,0.6-1.8,0.9c-2.4,0.3-7.6,0-8.8,0c-0.9,0-0.9-17.1-1.5-17.1c-0.6,0-1.5,17.1-2.1,17.1
	c-3.3,0-5.8,0-7.9-0.3C10,99.8,7.6,99.2,6,98c-1.8-1.2-3-3.3-4-6.4c-0.3-0.9-2.7-0.3-3-1.5c-0.3-1.8-1.8-4.3-2.1-6.7L-4,78.2
	L-7.7,76v-8.2c0,0.3-0.3,0.3-1.2,0.3c-4,0-5.8-0.3-7.9-0.6c-9.7-0.6-9.7-0.3-9.7-2.7c0-2.7,0.3-4.3,0-4.9c0-0.6,0.9-17.7,0.9-17.7
	s-1.2,10-1.8,16.1c0,0.6-0.6,1.2-0.6,1.8c0,1.8,0,3,0,3.7c0,0.6-3.7,0-5.8,0.3c-0.6,0,0.3-3.7-0.3-3.7c-0.6,0-0.3,3.7-0.6,3.7
	c-1.2,0-2.4,0.3-3.3,0.3c-1.5,0-2.4,0-3,0s-1.5-0.6-1.8-0.6c-0.9,0-2.4,0-3-0.6c-0.3-0.3,0-0.6-0.3-1.2c0-0.6,0-1.5,0-2.1
	c0-0.3-0.6,0-0.6-0.3c-0.3-0.6,0-1.5,0-2.1c0-0.3-0.6-0.3-0.6-0.6c-0.3-6.1,0.6-15.8,0.6-15.8s-1.5,17.4-1.8,19.8
	c-0.6,2.4-7,1.8-7.6,0.3c-0.9-1.5,0-8.2,0-8.2s0,6.7-2.7,7.6c-2.7,0.9-5.8,0-5.8,0s-0.9,0-0.6-10.7c0.6-10.7-0.9-12.2-0.9-12.2
	s-2.1-0.3-4.3-0.6c-1.2,0-2.1,0-2.7-0.6c-0.6-0.9-1.2-18-1.5-21c0-0.3-0.3,14.3-0.9,14.3c-0.6-0.3-1.2-0.3-1.2-0.9
	c0-3-1.2-22.2-1.2-25.9c0-0.3-0.9,13.1-1.8,13.1c-0.9,0-1.8,0-2.1-0.6c-1.5-15.8-7-88.9-7-88.9l78.2-0.9l1.5-25.3l176.6,2.4
	c0,0-0.6,6.4-1.2,16.1l60.9-0.9v-1.8l102.6-1.5v0.9l143.1-0.3v0.3l122.1-1.5v0.6l123.6-1.5l0.3,3.7h5.2l1.8-25.3l176.3,2.4
	c0,0-0.3,6.4-1.2,16.1l60.9-0.9v-2.1l102.9-1.2v0.9l142.8-0.3v0.3l122.4-1.5v0.6l97.7-1.2l-0.3-2.4l125.7-1.8l0.3,3.7h5.5l1.5-25.3
	l176.6,2.4c0,0-0.6,6.4-1.2,16.1l60.9-0.9v-1.8l102.6-1.5l-0.6,12.8l102.3-1.2l6.1,83.7l-1.2,4.9l-3-14.9l1.5,22.8l-1.2,11.9l-0.3,3
	l-1.8,1.5l-1.2-15.2v27.4l-2.4,1.5l-0.9,4c0,1.5-1.2,3.3-1.5,4.6c0,0.9-1.8,0.6-1.8,1.2c-0.9,2.1-1.8,3.7-2.7,4.6
	c-1.2,0.6-3,1.2-6.4,1.5c-1.5,0-3,0-5.5,0c-0.6,0-1.2-12.2-1.5-12.2c-0.3,0-0.6,12.2-1.2,12.2c-0.9,0-4.3,0.3-6.1,0
	c-1.2,0-0.3-0.6-1.5-0.6c-0.9,0-1.8,0.6-2.7,0.6c-2.4,0-4.6,0-6.1,0c-3,0-1.2,0.9-3.7,0.9c-3.7,0-5.5-0.6-7.6-0.9
	c-9.7-0.6-9.7,0-9.7-2.7c-0.3-2.4,0-4,0-4.6c-0.3-0.9,0.9-17.7,0.9-17.7s-1.2,9.7-1.8,15.8c-0.3,0.6-0.6,1.5-0.6,1.8
	c0,1.8,0,3,0,3.7s-3.7,0.3-6.1,0.3c-0.6,0,0.6-3.7-0.3-3.7c-0.3,0,0,3.7-0.6,4c-1.2,0-2.1,0-3.3,0c-1.5,0-2.4,0-3,0
	c-0.3,0-1.2-0.6-1.8-0.6s-2.1,0-2.7-0.6c-0.3-0.3-0.3-0.6-0.3-1.2s0-1.5,0-2.1c0-0.3-0.9,0-0.9-0.3c0-0.6,0.3-1.5,0.3-2.1
	c0-0.3-0.9-0.3-0.9-0.6c-0.3-6.1,0.6-15.8,0.6-15.8s-1.2,17.4-1.8,19.8c-0.3,2.4-8.8,33.5-9.7,32c-0.9-1.5,0-8.2,0-8.2
	s0,6.7-2.7,7.6c-2.7,0.9-5.8,0-5.8,0s-0.9,0-0.3-10.7c0.3-10.7-1.2-12.2-1.2-12.2s-2.1-0.3-4-0.6c-1.2,0-2.4,0-3-0.6
	c-0.6-0.9-1.2-18-1.5-21c0-0.3-0.3,14.3-0.9,14.3c-0.6-0.3-1.2-0.3-1.2-0.9c0-1.8-0.3-9.1-0.6-15.8l-0.3,2.4l-2.1,1.2l-1.2,3
	c-0.3,1.5-1.2,2.7-1.5,4c-0.3,0.6-1.5,0.3-1.8,0.9c-0.9,1.8-1.5,2.7-2.7,3.7c-0.9,0.6-2.4,0.9-5.2,1.2c-1.2,0-2.7,0-4.6,0
	c-0.3,0,0.3-9.7,0-9.7s-1.5,9.7-2.1,10c-0.6,0-3.7,0-5.2,0c-0.9-0.3,0-0.6-0.9-0.6c-0.9,0-1.5,0.3-2.4,0.3c-1.8,0-3.7,0-4.9,0
	c-2.4,0.3-0.9,0.6-3,0.6c-3,0-4.6-0.3-6.1-0.3c-7.9-0.9-7.9-0.3-7.9-2.4c0.3-2.1,0.6-3.3,0.6-4c0-0.3,2.4-14.3,2.4-14.3
	s-6.1,30.4-7.3,35.6c0,0.3-0.3,0.9-0.6,1.2c-0.3,1.5-0.3,2.7-0.3,3c0,0.6-3,0.3-4.9,0.3c-0.6,0,0.6-3,0-3c-0.3,0-0.3,3-0.9,3
	c-0.9,0,0.6-31.4-0.3-31.4c-1.2,0-2.1,0-2.4,0s-1.2-0.3-1.5-0.6c-0.6,0-1.8,0-2.4-0.3c0-0.3,0-0.6,0-1.2c0-0.3,0.3-0.9,0.3-1.5
	c0-0.3-0.6,0-0.6-0.3s0.3-1.2,0.3-1.8l-0.6-0.3c0.3-5.2,0.9-6.1,0.9-6.1s-1.8,7.3-2.4,9.1c-0.3,1.2-1.5,1.5-3,1.5
	c-0.3,1.5-0.9,2.7-1.2,4c-0.3,0.6-1.8,0.3-2.1,0.9c-0.6,2.4-1.5,3.7-2.7,4.6s-3,1.5-6.4,1.5c-1.5,0.3-3,0.3-5.5,0.3
	c-0.3,0-0.9-12.2-1.2-12.2c-0.6,0-0.9,12.2-1.2,12.2c-0.9,0-4.6,0.3-6.4,0c-0.9,0-0.3-0.6-1.5-0.6c-0.9,0-1.5,0.3-2.7,0.3
	c-2.1,0-4.6,0-6.1,0c-3,0.3-0.9,0.9-3.3,0.9c-4,0-5.8-0.6-7.9-0.6c-9.7-0.9-9.4-0.3-9.7-2.7c0-2.7,0.3-4.3,0-4.9
	c0-0.6,0.9-17.7,0.9-17.7s-3,37.4-3.7,43.5c0,0.6-0.6,1.2-0.6,1.8c0,1.8,0,3,0,3.7s-3.7,0.3-5.8,0.3c-0.9,0,0.3-3.7-0.6-3.7
	c-0.3,0,0,3.7-0.6,3.7c-0.9,0.3-2.1,0.3-3.3,0.3c-1.5,0-2.4,0-2.7,0c-0.6,0-1.5-0.6-1.8-0.6c-0.9,0-2.4,0-3-0.6
	c-0.3-0.3-0.3-0.6-0.3-1.2s0-1.5,0-2.1c0-0.3-0.6,0-0.9-0.3c0-0.6,0.3-1.5,0.3-2.1c0-0.3-0.9-0.3-0.9-0.6c0-6.1,0.6-7.6,0.6-7.6
	s-1.2,9.1-1.8,11.6c-0.3,2.4-6.7,1.8-7.3,0.3c-0.9-1.5,0-8.2,0-8.2s0,6.7-2.7,7.6s-5.8,0.3-5.8,0.3s-0.9-0.3-0.6-11
	c0.3-3,0.3-7.6,0.6-12.5c-0.3,0-0.6,0-0.9,0c-2.7,0.3-5.8,0.6-5.8,0.6s-2.1,2.1-1.5,17.1s-0.6,15.2-0.6,15.2s-4.3,0.9-7.9-0.3
	c-4-0.9-4-10.4-4-10.4s1.2,9.4,0,11.3c-1.2,2.1-10,3-10.7-0.3c-0.6-3.3-2.4-27.7-2.4-27.7s1.2,13.4,0.9,21.9c0,0.6-1.2,0.6-1.2,0.9
	c0,0.9,0.3,2.4,0.3,3c0,0.3-0.9,0-1.2,0.6c0,0.9,0,2.1,0,2.7c0,0.9,0,1.2-0.3,1.8c-0.9,0.6-3,0.6-4.3,0.9c-0.6,0-1.8,0.6-2.4,0.9
	c-0.9,0-2.1,0-4.3-0.3c-1.2,0-3,0-4.6,0c-0.6,0-0.3-5.2-0.9-5.2c-1.2-0.3,0.3,5.2-0.6,4.9c-3,0-8.2,0.3-8.2-0.6c0-0.3,0-2.4,0-4.9
	c0-0.6-0.6-1.8-0.6-2.4c-0.9-8.8-2.7-22.5-2.7-22.5s1.5,23.7,1.2,24.7c-0.3,0.9,0.3,3,0,6.7c0,3.7,0,2.7-13.7,4
	c-3,0.3-5.5,0.9-10.7,0.9c-3.7,0-0.9-0.9-5.2-1.2c-2.1,0-5.2,0-8.5,0c-1.2,0-2.4-0.6-3.7-0.6c-1.8,0-0.6,0.9-2.1,0.9
	c-2.4,0.3-7.6,0-8.8,0c-0.6,0-0.9-17.1-1.5-17.1c-0.6,0-1.5,17.1-2.1,17.1c-3.3,0-5.5,0-7.6-0.3c-4.9-0.3-7.3-0.9-8.8-2.1
	c-1.8-1.2-3-3.3-4-6.4c-0.3-0.9-2.7-0.3-3-1.5c-0.3-1.8-1.5-4.3-1.8-6.4l-1.2-5.5l-3.7-2.1l0.3-8.2c-0.3,0.3-0.6,0.3-1.5,0.3
	c-4,0-5.8-0.3-7.9-0.6c-9.7-0.6-9.4-0.3-9.7-2.7c0-1.2,0-2.4,0-3c-0.3,0.3-0.6,0.9-1.2,1.2c0,0,0,0-0.3,0c0,0.3,0,0.6,0,0.9
	c0,0.3-1.5,0.3-3,0.3c-0.9,0-1.8,0.3-2.7,0.3c-1.5,0-3,0-5.5,0h-0.3c-0.6,0-1.2,0-1.5,0c-0.3,0-0.3,0-0.6-0.3c0,0.3,0,0.3-0.3,0.3
	c-0.9,0.3-4.3,0.3-6.1,0.3c-1.2-0.3-0.3-0.9-1.5-0.9c-0.9,0-1.8,0.6-2.7,0.6c-2.4,0-4.6,0-6.1,0c-3,0.3-1.2,0.9-3.7,0.9
	c-3.7,0-5.5-0.6-7.6-0.6c-9.7-0.9-9.7-0.3-9.7-3c-0.3-2.4,0-4,0-4.6c-0.3-0.6,0.9-17.7,0.9-17.7s-1.5,9.7-1.8,15.8
	c-0.3,0.6-0.6,1.5-0.6,1.8c0,1.8,0,3.3,0,3.7c0,0.6-3.7,0.3-6.1,0.3c-0.6,0,0.6-3.7-0.3-3.7c-0.3,0,0,4-0.6,4c-1.2,0-2.1,0-3.3,0
	c-1.5,0-2.4,0-3,0c-0.3,0-1.2-0.6-1.8-0.6c-0.6,0-2.1,0-2.7-0.6c-0.3-0.3-0.3-0.6-0.3-1.2c0-0.6,0-1.5,0-2.1c-0.3-0.3-0.9,0-0.9-0.3
	c0-0.6,0.3-1.5,0.3-2.1c0-0.3-0.9-0.3-0.9-0.6c-0.3-6.1,0.6-15.8,0.6-15.8s-1.2,17.4-1.8,19.8c-0.3,2.4-6.7,1.8-7.6,0.3
	c-0.6-1.2,0-8.2,0-8.2s0.3,7-2.7,7.6c-2.7,0.9-5.5,0.3-5.5,0.3s-0.6-0.3-0.6-6.4l-1.8,1.2l-0.9,3.7c0,1.8-1.2,3.7-1.5,4.9
	c0,0.6-1.8,0.6-1.8,1.2c-0.9,2.1-1.8,3.3-3,4.3c-0.9,0.9-2.7,1.5-6.1,1.5c-1.5,0.3-3,0.3-5.5,0.3c-0.6,0-1.2-12.2-1.5-12.2
	c-0.3,0-0.6,12.2-1.2,12.2c-0.9,0-4.3,0.3-6.1,0c-1.2,0-0.3-0.6-1.5-0.6c-0.9,0-1.8,0.6-2.7,0.6c-2.4-0.3-4.6-0.3-6.1,0
	c-3,0-1.2,0.6-3.7,0.6c-3.7,0-5.5-0.3-7.6-0.6c-9.7-0.9-9.7-0.3-9.7-2.7c-0.3-2.7,0-4.3,0-4.9c-0.3-0.6,0.9-17.7,0.9-17.7
	s-1.5,9.7-2.1,16.1c0,0.3-0.3,1.2-0.3,1.8c0,1.5,0,3,0,3.3c0,0.9-3.7,0.3-6.1,0.6c-0.6,0,0.6-3.7-0.3-3.7c-0.3,0-0.3,3.7-0.6,3.7
	c-1.2,0-2.4,0-3.3,0.3c-1.5,0-2.4,0-3,0c-0.3,0-1.2-0.6-1.8-0.6c-0.6-0.3-2.1,0-2.7-0.6c-0.3-0.3-0.3-0.6-0.3-1.5c0-0.3,0-1.2,0-1.8
	c-0.3-0.3-0.9,0-0.9-0.6c0-0.3,0.3-1.2,0.3-1.8c0-0.3-0.9-0.6-0.9-0.9c-0.3-5.8,0.6-15.5,0.6-15.5s-1.5,17.4-1.8,19.8
	c-0.3,2.4-6.7,1.8-7.6,0.3c-0.9-1.5,0-8.2,0-8.2s0,6.7-2.7,7.6c-2.7,0.6-5.5,0-5.5,0s-0.9,0-0.6-10.7c0.6-10.7-0.9-12.5-0.9-12.5
	s-2.1,0-4.3-0.3c-1.2,0-2.4,0-2.7-0.6c-0.9-0.9-1.5-18-1.5-21c0-0.3-0.3,14.3-0.9,14c-0.6,0-1.2-0.3-1.2-0.6
	c-0.3-3-1.2-22.2-1.5-25.9c0-0.3-0.9,13.1-1.8,13.1c-0.9,0-1.8,0-1.8-0.6v-1.2l-3-14.6l1.5,22.5l-1.5,12.2l-0.3,3l-1.8,1.5L1328,3
	l0.3,27.4l-2.7,1.5l-0.6,3.7c-0.3,1.8-1.2,3.7-1.5,4.9c-0.3,0.6-1.8,0.6-2.1,1.2c-0.6,2.1-1.5,3.3-2.7,4.3s-3,1.5-6.4,1.5
	c-1.5,0.3-3,0.3-5.5,0.3c-0.3,0-0.9-12.2-1.5-12.2c-0.3,0-0.6,12.2-0.9,12.2c-1.2,0-4.6,0.3-6.4,0c-0.9,0-0.3-0.6-1.5-0.6
	c-0.9,0-1.5,0.6-2.7,0.6c-2.1,0-4.6-0.3-6.1,0c-3,0-0.9,0.6-3.3,0.6c-4,0-5.8-0.3-7.9-0.6c-9.7-0.9-9.7-0.3-9.7-2.7
	c0-2.7,0.3-4.3,0-4.9c0-0.6,0.9-17.7,0.9-17.7s-3,37.4-3.7,43.5c-0.3,0.6-0.6,1.5-0.6,1.8c0,1.8,0,3.3,0,3.7c0,0.6-3.7,0.3-5.8,0.3
	c-0.9,0,0.3-3.7-0.6-3.7c-0.3,0,0,4-0.6,4c-1.2,0-2.1,0-3.3,0c-1.5,0-2.4,0-3,0c-0.3,0-1.2-0.6-1.5-0.6c-0.9,0-2.4,0-3-0.6
	c-0.3-0.3-0.3-0.6-0.3-1.2c0-0.6,0-1.5,0-2.1c0-0.3-0.9,0-0.9-0.3c0-0.6,0.3-1.5,0.3-2.1c0-0.3-0.9-0.3-0.9-0.6
	c0-6.1,0.6-7.6,0.6-7.6s-1.2,9.1-1.8,11.6c-0.3,2.4-6.7,1.8-7.6,0.3c-0.6-1.2,0.3-8.2,0.3-8.2s0,7-2.7,7.6c-2.7,0.9-5.8,0.3-5.8,0.3
	s-0.9-0.3-0.6-11c0.6-10.7,0.9-39.6,0.9-39.6s-2.1-0.3-4.3-0.6c-1.2,0-2.1,0-2.7-0.6c-0.6-0.9,2.1,34.1,2.1,31.1
	c0-0.3-4-37.8-4.6-37.8c-0.6-0.3,2.1,51.5,2.1,51.2c0-3-0.9-22.2-1.2-25.9c0-0.3-0.9,13.1-1.8,13.1c-0.9,0-1.8,0-1.8-0.6
	c-0.9-8.5-3-33.2-4.6-54.2c-0.9,35.9-5.8,37.4-6.4,53.6c0,0.9-1.2,0.9-2.4,0.9c-1.2,0-3.3-21.3-3.3-20.7c0,5.8,0,36.2,0,41.1
	c0,0.6-0.6,0.6-1.5,0.9c-0.9,0.3-2.1-22.8-2.1-22.5c0,4.9,0.3,32-0.6,33.5c-0.6,0.9-2.1,0.9-3.7,0.9c-2.4,0.6-5.5,0.6-5.5,0.6
	s0.3-36.2,1.5-19.5c1.2,17.1,0.3,17.1,0.3,17.1s-4,1.2-7.6,0c-3.7-1.5-4-12.2-4-12.2s1.5,10.7,0.6,13.1c-1.2,2.1-9.4,3.3-10-0.6
	c-0.6-3.7-3.7-31.1-3.7-31.1s1.8,15.2,1.8,24.7c0,0.6-1.2,0.6-1.2,1.2c0,0.9,0.6,2.4,0.6,3c0,0.6-0.9,0.3-0.9,0.6
	c-0.3,1.2,0,2.7,0,3.3c-0.3,1.2,0,1.5-0.3,2.1c-0.9,0.6-2.7,0.6-3.7,0.9c-0.6,0-1.8,0.9-2.4,0.9c-0.9,0-1.8,0-4,0
	c-1.2,0-2.7-0.3-4.3-0.3c-0.6,0-0.6-5.8-1.2-5.8c-0.9-0.3,0.6,5.8-0.3,5.8c-2.7-0.3-7.6,0.3-7.6-0.9c0-0.6,0-2.7-0.3-5.5
	c0-0.9-0.6-2.1-0.6-2.7c-1.2-10-3.7-25.6-3.7-25.6s2.4,27.1,2.4,28c-0.3,0.9,0.3,3.3,0.3,7.6c0,1.5,0,7-0.6,8.5
	c-1.2,2.4-4,0-12.2,0.9c-0.9,0-3.7,1.8-4.9-1.2c-1.8-4.3-2.7-13.7-5.8-13.7s-0.6-0.9-4.6-1.2c-1.8,0-4.9,0-7.9,0
	c-1.2,0-2.4-0.9-3.7-0.9c-1.5,0-0.3,0.9-1.8,1.2c-2.4,0.3-7,0-8.2,0c-0.6,0-1.8-19.5-2.4-19.5c-0.3,0-0.3,19.2-0.9,19.2
	c-3,0-5.2,0-7.3,0c-4.3-0.3-6.7-1.2-8.2-2.7c-1.5-1.2-2.7-3.3-4-7c-0.3-0.9-2.4-0.6-2.7-1.8c-0.6-1.8-1.8-4.6-2.1-7.3l-0.6,4.9
	l-3.7-2.4l-3.7-4.6l-0.6,24.1l-2.4-2.1l-0.6-4.9l-2.4-19.2l0.3-35.9l-3,23.7l-1.5-7.6l0.3-15.2c-0.9,0.3-2.1,0.6-4,0.6
	c-1.2,0-2.7,0-4.6,0c-0.3,0,0.3-9.7,0-9.7s-1.8,10-2.1,10c-0.9,0-3.7,0-5.2,0c-0.9-0.3,0-0.6-0.9-0.6c-0.9,0-1.5,0.3-2.4,0.3
	c-1.8,0-3.7,0-4.9,0c-2.7,0.3-0.9,0.6-3,0.6c-3,0-4.6-0.3-6.4-0.3c-7.9-0.9-7.6-0.3-7.6-2.4c0.3-2.1,0.6-3.3,0.6-4
	c-0.3-0.3,2.1-14.3,2.1-14.3s-6.1,30.4-7,35.6c0,0.3-0.6,0.9-0.6,1.2c-0.3,1.5-0.3,2.7-0.3,3c0,0.6-3,0.3-4.9,0.3c-0.6,0,0.6-3,0-3
	c-0.3,0-0.6,3-0.9,3c-0.9,0.3-1.8,0.3-2.7,0.3c-1.2,0-1.8,0-2.4,0c-0.3,0-0.9-0.6-1.2-0.6c-0.9,0-1.8,0-2.4-0.3
	c-0.3-0.3,0-0.6,0-1.2c0-0.3,0-1.2,0-1.5c0-0.3-0.6,0-0.6-0.3c0-0.6,0.3-1.2,0.3-1.8c0-0.3-0.6-0.3-0.6-0.6c0.6-4.9,1.2-6.1,1.2-6.1
	s-1.8,7.6-2.4,9.4c-0.3,0.9-1.8,1.5-3,1.5c-0.3,1.2-1.2,2.7-1.5,3.7c0,0.9-1.8,0.6-1.8,1.2c-0.9,2.1-1.8,3.7-3,4.6
	c-0.9,0.9-2.7,1.2-6.1,1.5c-1.5,0-3.3,0-5.8,0c-0.3,0-0.9-12.2-1.2-12.2c-0.3,0.3-0.6,12.5-1.2,12.5c-0.9,0-4.6,0-6.1,0
	c-1.2-0.3-0.6-0.6-1.5-0.9c-0.9,0-1.8,0.6-2.7,0.6c-2.4,0-4.6,0-6.1,0c-3,0.3-1.2,0.9-3.7,0.9c-3.7,0-5.5-0.6-7.6-0.6
	c-9.7-0.9-9.7-0.3-9.7-3c-0.3-2.4,0-4,0-4.6c-0.3-0.6,0.9-17.7,0.9-17.7s-3.3,37.1-4,43.5c0,0.3-0.3,1.2-0.3,1.8c-0.3,1.5,0,3,0,3.3
	c-0.3,0.9-4,0.3-6.1,0.6c-0.6,0,0.3-3.7-0.3-3.7c-0.3,0-0.3,3.7-0.6,3.7c-1.2,0-2.4,0-3.3,0.3c-1.5,0-2.4,0-3,0
	c-0.3,0-1.2-0.6-1.8-0.6c-0.9-0.3-2.1-0.3-3-0.6c-0.3-0.3,0-0.6,0-1.5c0-0.3,0-1.2-0.3-1.8c0-0.3-0.6,0-0.6-0.6
	c0-0.3,0.3-1.2,0.3-1.8c0-0.3-0.9-0.6-0.9-0.9c-0.3-5.8,0.3-7.3,0.3-7.3s-1.2,9.1-1.5,11.6c-0.6,2.4-6.7,1.8-7.6,0.3s0-8.2,0-8.2
	s0,6.7-2.7,7.6c-2.7,0.6-5.8,0-5.8,0s-0.9,0-0.3-10.7c0-3,0.3-7.6,0.3-12.5c-0.3,0-0.6,0-0.9,0c-2.7,0.3-5.8,0.6-5.8,0.6
	s-2.1,2.1-1.2,17.1c0.6,14.9-0.9,15.2-0.9,15.2s-4,0.9-7.9-0.3s-4-10.7-4-10.7s1.2,9.4,0.3,11.6c-1.2,2.1-10,3-10.7-0.3
	c-0.6-3.3-2.7-27.7-2.7-27.7s1.2,13.4,0.9,21.9c0,0.3-1.2,0.6-1.2,0.9c0,0.9,0.3,2.1,0.3,3c0,0.3-0.9,0-0.9,0.3
	c-0.3,0.9,0,2.4-0.3,3c0,0.9,0.3,1.2-0.3,1.8c-0.9,0.6-2.7,0.6-4,0.9c-0.6,0-1.8,0.6-2.7,0.6c-0.6,0-1.8,0-4,0c-1.5,0-3,0-4.9-0.3
	c-0.6,0-0.3-5.2-0.9-5.2c-0.9,0,0.6,5.2-0.3,5.2c-3-0.3-8.2,0.3-8.5-0.6c0-0.6,0.3-2.4,0-5.2c0-0.3-0.6-1.5-0.6-2.4
	c-0.9-8.5-2.7-22.2-2.7-22.2s1.5,23.7,1.5,24.7c-0.3,0.9,0,3,0,6.7c-0.3,3.7,0,2.7-13.7,4c-3,0.3-5.5,0.9-11,0.9
	c-3.3,0-0.6-0.9-4.9-1.2c-2.1,0-5.2,0-8.5,0c-1.5,0-2.4-0.6-4-0.6s-0.6,0.6-2.1,0.9c-2.4,0.3-7.3,0-8.8,0c-0.6,0-0.9-17.1-1.5-17.1
	c-0.6-0.3-1.5,17.1-1.8,17.1c-3.3-0.3-5.8-0.3-7.9-0.3c-4.6-0.3-7-0.9-8.8-2.1c-1.5-1.5-2.7-3.3-4-6.4c0-0.9-2.4-0.6-2.7-1.5
	c-0.3-1.8-1.8-4.3-2.1-6.7l-1.2-5.2l-3.3-2.1V59c-0.3,0.3-0.3,0.3-1.5,0.3c-3.7,0-5.5-0.3-7.6-0.6c-9.7-0.9-9.7-0.3-9.7-2.7
	c0-1.5,0-2.4,0-3c-0.3,0.3-0.9,0.6-1.2,0.9c0,0.3-0.3,0.3-0.3,0.3c0,0.3,0,0.6,0,0.6c0,0.6-1.5,0.6-3.3,0.6c-0.6,0-1.5,0-2.7,0.3
	c-1.5,0-3,0-5.5,0l0,0c-0.9,0-1.2,0-1.8,0c0,0-0.3-0.3-0.6-0.3c0,0.3,0,0.3,0,0.3c-0.9,0-4.6,0.3-6.4,0c-0.9,0-0.3-0.6-1.5-0.6
	c-0.9,0-1.5,0.6-2.7,0.6c-2.1,0-4.6,0-6.1,0c-3,0-0.9,0.6-3.3,0.6c-4,0-5.8-0.3-7.9-0.6c-9.7-0.6-9.4-0.3-9.7-2.7c0-2.7,0.3-4,0-4.9
	c0-0.6,0.9-17.4,0.9-17.4s-1.2,9.7-1.8,15.8c0,0.6-0.3,1.2-0.6,1.8c0,1.8,0,3,0,3.7s-3.7,0-5.8,0.3c-0.6,0,0.3-3.7-0.3-3.7
	c-0.6,0-0.3,3.7-0.6,3.7c-1.2,0.3-2.4,0.3-3.3,0.3c-1.5,0-2.4,0-3,0S639,52,638.7,52c-0.9,0-2.4,0-3-0.6c-0.3-0.3,0-0.6-0.3-1.2
	c0-0.6,0-1.5,0-2.1c0-0.3-0.6,0-0.6-0.3c-0.3-0.6,0.3-1.5,0-2.1c0-0.3-0.6-0.3-0.6-0.6c-0.3-6.1,0.6-15.8,0.6-15.8
	s-1.5,17.4-1.8,19.8c-0.6,2.4-6.7,1.8-7.6,0.3c-0.9-1.5,0-8.2,0-8.2s0,6.7-2.7,7.6c-2.7,0.9-5.8,0.3-5.8,0.3s-0.9-0.3-0.3-11
	c0.3-10.7-1.2-12.2-1.2-12.2s-2.1-0.3-4-0.3c-1.2-0.3-2.4-0.3-3-0.9c-0.6-0.9-1.2-18-1.5-21c0-0.3-0.3,14.3-0.9,14.3
	c-0.6-0.3-1.2-0.3-1.2-0.9c0-3-0.9-22.2-1.2-25.9c0-0.3-0.9,13.1-1.8,13.1s-1.8,0-2.1-0.6V2.4l-3-14.6l1.5,22.8l-1.2,11.9l-0.3,3
	l-1.8,1.5L593,11.8l0.3,27.4l-2.4,1.5l-0.9,4c0,1.5-1.2,3.3-1.5,4.6c0,0.9-1.8,0.6-2.1,1.2c-0.6,2.1-1.5,3.7-2.7,4.3
	c-0.9,0.9-2.7,1.5-6.1,1.8c-1.5,0-3.3,0-5.8,0c-0.3,0-0.9-12.2-1.2-12.2c-0.3,0-0.6,12.2-1.2,12.2c-0.9,0-4.6,0.3-6.1,0
	c-1.2,0-0.6-0.6-1.5-0.6c-1.2,0-1.8,0.6-2.7,0.6c-2.4,0-4.6,0-6.1,0c-3,0-1.2,0.6-3.7,0.6c-4,0-5.5-0.3-7.6-0.6
	c-9.7-0.6-9.7,0-9.7-2.7c-0.3-2.4,0-4,0-4.9c-0.3-0.6,0.9-17.4,0.9-17.4s-3.3,37.1-4,43.5c0,0.3-0.3,1.2-0.3,1.5
	c-0.3,1.8,0,3.3,0,3.7c-0.3,0.6-4,0.3-6.1,0.6c-0.6,0,0.3-4-0.3-3.7c-0.3,0-0.3,3.7-0.6,3.7c-1.2,0-2.4,0-3.3,0c-1.5,0-2.4,0-3,0
	s-1.5-0.3-1.8-0.6c-0.9,0-2.1,0-3-0.6c-0.3-0.3,0-0.6,0-1.2c0-0.3,0-1.2-0.3-1.8c0-0.3-0.6-0.3-0.6-0.6c0-0.3,0.3-1.5,0.3-2.1
	c0-0.3-0.9-0.3-0.9-0.6c-0.3-6.1,0.3-7.3,0.3-7.3s-1.2,9.1-1.5,11.6c-0.6,2.1-6.7,1.5-7.6,0.3c-0.9-1.5,0-8.2,0-8.2s0,6.7-2.7,7.3
	c-2.7,0.9-5.8,0.3-5.8,0.3s-0.9-0.3-0.3-11c0.3-10.7,0.9-39.6,0.9-39.6s-2.4-0.3-4.3-0.3c-1.2-0.3-2.4,0-2.7-0.9
	c-0.9-0.9,3.7,37.8,3.7,34.7c0-0.3-5.5-41.4-6.1-41.4c-0.6-0.3-1.2-0.3-1.5-0.6c0-3.3,4.3,33.2,4,29.5c0-0.3-0.9,13.1-1.8,13.1
	s-1.8,0-1.8-0.6c-0.9-8.5-2.7-33.2-4.6-54.5c-0.9,36.2-7.3,34.1-7.9,50.2c-0.3,0.9-1.5,0.9-2.4,0.9c-1.2,0-3.3-21-3.3-20.7
	c0,5.8,0,36.2,0,41.1c0,0.6-0.9,0.9-1.5,0.9c-0.9,0.3-2.4-22.8-2.4-22.2c0,4.6,0.3,31.7-0.3,33.2c-0.6,1.2-2.1,0.9-3.7,1.2
	c-2.7,0.3-5.5,0.3-5.5,0.3s-1.8,2.7-0.6,19.5c1.2,17.1,0,17.4,0,17.4s-3.7,0.9-7.3-0.3c-3.7-1.5-4.3-12.2-4.3-12.2
	s1.8,10.7,0.6,13.1c-0.9,2.4-9.1,3.3-9.7-0.6c-0.9-3.7-3.7-31.1-3.7-31.1s1.5,15.2,1.8,24.7c0,0.6-1.2,0.6-1.2,1.2
	c0,0.9,0.6,2.4,0.6,3c-0.3,0.6-0.9,0.3-1.2,0.9c0,0.9,0,2.4,0,3c0,1.2,0.3,1.5,0,2.1c-0.9,0.9-2.7,0.9-4,0.9c-0.6,0-1.5,0.9-2.1,0.9
	c-0.9,0-2.1,0-4,0c-1.5,0-3,0-4.6-0.3c-0.3,0-0.3-5.8-0.9-5.8c-0.9,0,0.6,5.8-0.3,5.8c-2.7-0.3-7.6,0.3-7.6-0.9
	c-0.3-0.6-0.3-2.7-0.3-5.5c-0.3-0.6-0.6-2.1-0.9-2.7c-1.2-10-3.3-25.3-3.3-25.3s2.4,26.8,2.1,27.7c0,1.2,0.3,3.3,0.3,7.6
	c0.3,1.5,0.3,7.3-0.3,8.5c-1.2,2.4-4.3,0.3-12.2,0.9c-0.9,0.3-3.7,1.8-4.9-0.9c-2.1-4.3-2.7-14-5.8-14s-0.6-0.9-4.6-1.2
	c-2.1,0-4.9,0-7.9,0c-1.5,0-2.4-0.9-3.7-0.9c-1.5,0.3-0.6,0.9-1.8,1.2c-2.4,0.3-7,0-8.2,0c-0.9,0-1.8-19.5-2.4-19.5
	c-0.3,0-0.6,19.5-0.9,19.5c-3.3-0.3-5.5-0.3-7.3-0.3c-4.3-0.3-6.7-1.2-8.2-2.4c-1.8-1.5-3-3.7-4-7c-0.3-1.2-2.4-0.6-2.7-1.8
	c-0.6-2.1-1.8-4.9-2.4-7.6l-0.6,4.9l-3.3-2.4l-1.5-43.5l-0.6,24.1l-2.7-2.1l-0.6-4.9l-2.4-19.2l0.6-35.9l-3,23.7l-1.5-7.6l0.3-15.2
	c-1.2,0.3-2.4,0.6-4.3,0.6c-1.2,0.3-2.4,0.3-4.6,0.3c-0.3,0,0.3-10,0-10c-0.3,0-1.5,10-1.8,10c-0.9,0-4,0-5.2,0
	c-0.9,0-0.3-0.6-1.2-0.6c-0.9,0-1.5,0.3-2.1,0.3c-2.1,0-4,0-5.2,0c-2.4,0.3-0.9,0.9-3,0.9c-3,0-4.3-0.6-6.1-0.6
	c-7.9-0.6-7.9-0.3-7.6-2.4c0-2.1,0.3-3.3,0.3-3.7c0-0.6,2.4-14.6,2.4-14.6s-6.1,30.4-7.3,35.6c0,0.3-0.3,0.9-0.3,1.2
	c-0.3,1.5-0.3,2.7-0.6,3c0,0.6-3,0.3-4.9,0.3c-0.3,0,0.9-3,0.3-2.7c-0.6,0-0.6,3-0.9,3c-0.9,0-2.1,0-2.7,0c-1.2,0-2.1,0-2.4,0
	s-1.2-0.3-1.5-0.6c-0.6,0-1.8,0-2.4-0.3c0-0.3,0-0.6,0-1.2c0-0.3,0.3-0.9,0.3-1.5c-0.3-0.3-0.6,0-0.6-0.3c0-0.6,0.3-1.2,0.3-1.8
	c0,0-0.6-0.3-0.6-0.6c0.3-4.9,0.9-5.8,0.9-5.8s-1.8,7.3-2.4,9.1c-0.3,1.2-1.5,1.5-3,1.5c-0.3,1.2-0.9,2.7-1.2,4
	c-0.3,0.6-1.8,0.3-2.1,0.9c-0.6,2.1-1.5,3.7-2.7,4.6c-1.2,0.9-3,1.2-6.4,1.5c-1.5,0.3-3,0.3-5.5,0.3c-0.3,0-0.9-12.2-1.5-12.2
	C220.1,48.3,219.8,60.5,219.5,60.5z"/>
</svg>
