<?xml version="1.0" encoding="utf-8"?>
<!-- Generator: Adobe Illustrator 18.1.1, SVG Export Plug-In . SVG Version: 6.00 Build 0)  -->
<svg version="1.1" id="Warstwa_1" xmlns="http://www.w3.org/2000/svg" xmlns:xlink="http://www.w3.org/1999/xlink" x="0px" y="0px"
	 viewBox="0 0 1920 1080" enable-background="new 0 0 1920 1080" xml:space="preserve">
<g>
	<path fill-rule="evenodd" clip-rule="evenodd" fill="#91C1E2" d="M1416,136c-25.3,11.6-55.4-0.6-67-25.9c-6.7-15.2-5.8-29.2,0.6-42
		c5.2-11.3,14.3-21.9,28.3-27.4c5.8-2.4,11.6-3.7,16.7-3.7c7-0.3,13.4,2.7,19.5,5.2c11.9,4.6,21.3,13.4,26.8,25.9
		C1453.8,95.8,1442.8,124.1,1416,136z"/>
	<path fill-rule="evenodd" clip-rule="evenodd" fill="#82B9DB" d="M1364.6,62c-5.5,7.6-0.3,6.4,9.1,5.2c3.3-0.6,4.3,5.2,5.8,6.4
		s5.2,1.8,8.2-1.2c1.2-1.2,0.6-4.9,2.4-6.7c0.9-0.9,2.1-0.9,3.3-0.3c5.5,2.4,8.5,1.2,8.5-6.4c0-2.4-0.9-4.6-2.7-5.8
		C1390.4,46.8,1370,54.4,1364.6,62z"/>
	<path fill-rule="evenodd" clip-rule="evenodd" fill="#82B9DB" d="M1386.8,127.2c15.2,2.1,26.5-3.7,31.1-7.3
		c4.6-4,6.1-10.7-0.9-13.7c-7.3-3-15.8,3.7-20.7-0.9c-5.2-4.9-11.3,0.9-18.3,4.6c-7.3,3.7-11.9-4.9-15.2,0.3s4,10.7,11.3,14
		C1379.8,126.6,1385.6,126.9,1386.8,127.2z"/>
	<g>
		<path fill="#A5D0E6" d="M1459,62.6c2.7,0.6,5.8,1.5,8.2,3c4.9,2.7,7.3,6.7,6.4,11.3c-0.9,4.9-5.5,11.6-16.4,20.1
			c-6.4,4.9-15.2,8.5-23.7,12.5c-8.8,4-18.3,7.3-27.4,10.4c-17.1,5.5-35.3,10.4-53.6,9.1c-5.5-0.3-9.7-0.9-15.2-2.4
			c-5.2-1.2-8.8-3-11.3-5.2c-7-6.7-3.3-16.1,5.8-22.5c-0.3-0.3-0.6-0.6-0.9-0.6c-8.5,5.2-13.4,12.2-11.6,18.9
			c1.5,4.9,6.1,9.7,17.7,12.8c5.5,1.5,11,1.5,17.1,2.1c18.3,1.2,35.6-3.7,53-9.1c9.1-3,18.6-6.4,27.4-10.4c8.8-4,17.7-7.9,24.4-12.8
			c11.6-9.1,17.1-17.1,18-22.5c2.1-10.7-7-14.9-16.7-15.8C1459.6,61.7,1459.3,62.3,1459,62.6z"/>
		<path fill-rule="evenodd" clip-rule="evenodd" fill="#A5D0E6" d="M1453.5,69c1.5,1.8,2.1,4.3,0.9,7.6c-3,11.6-30.4,25.3-63.6,33.8
			c-18.9,4.9-38.4,5.5-50.2,2.7c-6.7-1.5-7.3-6.7-3-11.9c-1.2-0.3-2.4-0.9-3.7-1.5c-4.9,3.7-10,8.8-8.2,14.9
			c2.1,7.3,12.2,11.9,26.8,12.8c12.2,0.6,28-2.1,41.1-5.8c23.4-6.4,50.5-15.8,66.4-29.2c4-3.3,11-8.8,11.9-16.4
			c0.9-7.3-7-11-13.4-12.2C1456.5,66,1455,67.8,1453.5,69z"/>
	</g>
	<path fill-rule="evenodd" clip-rule="evenodd" fill="#82B9DB" d="M1425.8,64.5c-6.1-5.2-8.5-0.3-7.9,7.6c0.6,7.9-8.5,10.7-0.3,20.1
		s10.4,5.2,13.4,1.5C1436.7,86.7,1431.6,69.3,1425.8,64.5z"/>
	<path fill="#A5D0E6" d="M1432.5,42.5c3.3-0.6,11.3-0.9,18,2.7c4,2.4,6.1,5.8,5.2,9.4c-0.6,4.3-4.3,10-13.7,17.1
		c-5.5,4.3-12.8,7.3-20.1,10.7c-7.3,3.3-15.2,6.1-23.1,8.5c-14.3,4.9-29.8,8.8-45.1,7.9c-4.9-0.3-8.2-0.6-13.1-1.8
		c-4-1.2-7.3-2.7-9.4-4.6c-7.3-7-0.6-18,11.3-22.5c3.7-1.2,3.3-1.8,0-0.6c-11.3,4.6-18.9,12.2-16.7,19.5c1.2,4,5.2,8.2,14.6,11
		c4.9,1.2,9.4,1.2,14.6,1.5c15.5,1.2,29.8-3,44.8-7.6c7.6-2.4,15.5-5.5,23.1-8.8c7.3-3.3,14.9-6.7,20.4-10.7
		c9.7-7.6,14.3-14.3,15.2-18.9c2.7-14-16.4-14.6-25.9-13.4C1430.3,42.2,1430.3,42.8,1432.5,42.5z"/>
	<path fill-rule="evenodd" clip-rule="evenodd" fill="#A5D0E6" d="M1432.2,45.6c3.3,0.3,9.4,1.8,7.3,9.1
		c-2.4,9.7-25.6,21.3-53.6,28.6c-15.8,4-32.3,4.6-42.3,2.1c-7-1.5-6.4-8.2,0.9-13.4c7-4.6-16.7,3.7-13.4,14.9
		c1.5,5.8,10.4,9.7,22.5,10.7c10.4,0.6,23.7-1.8,34.7-4.9c19.8-5.5,42.6-13.4,55.7-24.7c3.3-2.7,9.4-7.6,10-14
		c0.9-7-8.2-10.4-14-10.7c-2.7,0-5.8-0.3-8.2,0.6C1428.8,45.3,1429.4,45.3,1432.2,45.6z"/>
</g>
</svg>
