<?xml version="1.0" encoding="utf-8"?>
<!-- Generator: Adobe Illustrator 18.1.1, SVG Export Plug-In . SVG Version: 6.00 Build 0)  -->
<svg version="1.1" id="Warstwa_1" xmlns="http://www.w3.org/2000/svg" xmlns:xlink="http://www.w3.org/1999/xlink" x="0px" y="0px"
	 viewBox="0 0 1920 1080" enable-background="new 0 0 1920 1080" xml:space="preserve">
<path fill-rule="evenodd" clip-rule="evenodd" fill="#A5BE72" d="M-98.1,231.3c8.7,1.2,14.7-2.7,20.7-2.4c6,0,12.4,4.3,19,3
	c4.3-0.9,12.4-6.4,17-6.4c4.3-0.3,11.7,5.8,16.4,6.1c5.7,0.3,15,3.3,20.7,3.3c7.3,0,20.7-7.9,27.7-7.9
	c148.3,1.2,266.6-17.1,400.2-25.6c8.4-0.6,17.7-7.6,26.1-7.9c16-0.6,33.1,5.5,49.4,5.8c12.4,0,16,5.5,27.4,4.3
	c8.7-0.6,24.7-7.6,35.1-7.3c5.3,0,15,5.8,21,5.8c3,0,9.4-5.5,12.7-5.5c6.3,0,13,0.3,20,0.9c8,0.6,17.4,12.2,26.1,12.8
	c7,0.3,27.7-7.6,34.4-7c7.3,0.3,8.7,11.9,16,12.2c11,0.3,26.1-2.7,36.4-2.7c7.7,0,19.4-3.7,26.4-4c4,0,7.7,3.7,11,3.7
	c39.1-1.2,57.8,1.8,89.9-1.5c7.3-0.9,21.4-12.8,29.7-13.1c3,0,3.7,18.9,6.7,18.9c6-0.3,21.7-12.5,28.4-12.8c8.7,0,35.7,9.4,45.1,9.4
	c6.3-0.3,22.7-8.8,28.7-8.8c14.4-0.3,33.4,2.4,47.1,1.8c6.3,0,21-7,27.1-7c5.7-0.3-0.3,4.9,5.3,4.9c10.7-0.3,28.1-5.8,38.4-5.8
	c27.4,0,53.8,6.1,86.5,9.7c3.3,0.3,7.3-6.1,11-5.5c6.7,0.9,15.4,10,22.7,11c13,1.2,35.4-3.3,47.8-2.1c8.4,0.9,9.4,4,17.7,4.6
	c15,1.5,25.1-1.8,41.1-0.9c2.7,0,14.4-1.5,17-1.5c4,0.3,3,3.3,7,3.7c2,0,7.3-1.2,9.4-1.2c2.7,0,12.4-0.3,15.4,0
	c6.7,0.3,13,3.7,19.4,3.7c4.3,0,13.4-2.4,17.7-2.4c2.7,0,5.3,1.8,8,1.5c8,0,19.4-2.1,27.7-4.9c7.7-2.4,12-5.2,19.4-7
	c2.7-0.9,4.7,1.5,7.7,0.6c6.7-1.5,13.7-3.3,20.7-4.3c2.7-0.6,0.7,5.5,3.7,4.9c5.7-0.6,14-4.3,20.7-4.9c8.4-0.9,2.7,3,10.7,2.7
	c12-0.3,37.7-4.6,48.1-5.8c9-0.9,13,1.5,22.4,0.6c5.3-0.6,16-3,21.4-3.7c10-0.9,20,3.7,30.1,2.7c5.3-0.6,3.7-5.5,8.7-6.1
	c15.7-1.2,35.4,3.3,50.8,2.7c18.4-0.9,38.1,5.5,55.1,5.2c5.7,0,6,2.4,11.4,2.4c8.4-0.3,17.7-5.8,26.1-5.8c7.3,0,16,0.9,25.1,0.6
	c7-0.6,14-2.4,20.7-1.5c3.3,0.6,3,7.3,6.7,7.6c4.3,0.3,9-5.8,14-5.2c5.7,0.6,13,7.6,19.4,7.9c9.7,0.6,28.1,0.6,37.7,1.8
	c9,0.9,12.7,0.3,21.7,1.5c9.4,1.2,23.7,1.8,32.7,3.7c19,4,37.7,8.8,44.4,16.4v849.2h-2138V231.3z"/>
</svg>
