<?xml version="1.0" encoding="utf-8"?>
<!-- Generator: Adobe Illustrator 18.1.1, SVG Export Plug-In . SVG Version: 6.00 Build 0)  -->
<svg version="1.1" id="Warstwa_1" xmlns="http://www.w3.org/2000/svg" xmlns:xlink="http://www.w3.org/1999/xlink" x="0px" y="0px"
	 viewBox="0 0 1920 1080" enable-background="new 0 0 1920 1080" xml:space="preserve">
<path fill-rule="evenodd" clip-rule="evenodd" fill="#694D3C" d="M713.6,274.8c0,0,0.6,24.4,0.9,24.7c0.3,0.6,0.3,0.9,0.3,0.9
	s0,8.8,0.3,13.1c0.3,4,0,2.4,0,2.4s0.6,0.9,0.6,4.6c0,0.9,0.3,2.1,0.3,3.7l1.8-3.7l0.9-4.6l0.9-4.3l0.9-0.3l-0.6,7l-1.2,4.9
	l-2.4,5.8c0,2.7,0.3,5.2,0.3,5.2l1.8,9.4c0,0,3.3,0.9-0.6,1.8c-1.8,0.3-3,0.3-4,0.3c-1.8,0-3.3-0.3-5.2-0.3c-2.7,0-3,0.6-4.9,0.3
	c-1.8-0.3-1.2-1.8-1.2-6.4c0.3-4.3,1.2-14,1.2-14V323v-1.5l-2.1-5.2l-1.2-6.7v-4h0.6v2.4l1.2,4.3l1.5,3v-1.2l-0.6-1.2l0.3-7l0.3-5.8
	l-1.2-25.3H713.6z"/>
<g>
	<path fill-rule="evenodd" clip-rule="evenodd" fill="#E68C88" d="M690.2,235.6c-2.4,2.4-5.2,6.1-6.7,8.8c-2.4,4.9-3,10.4-2.4,15.2
		c0.3,6.1,2.7,11.9,7.3,17.1c6.7,7,15.2,10,24.7,8.8c10.4-1.2,18-6.1,22.5-15.2c2.7-5.5,4.3-13.4,3-19.2c-0.9-5.2-3.7-9.4-7.3-13.7
		c-6.7-7.6-15.5-10.4-25.6-8.8C700.2,229.5,694.7,231.6,690.2,235.6z"/>
	<path fill-rule="evenodd" clip-rule="evenodd" fill="#D8807B" d="M684.7,251.1c0,0,2.4,3.3,10.7,6.1c8.2,3,1.2,1.2-3-0.3
		s-1.8,0.3,1.2,1.5c2.1,0.9,2.7,2.1,4.9,3c4.3,1.8,10,3,15.2,4.3c6.1,1.2,8.5,0.6,14-0.6c5.5-1.2,3.7-1.2,0.3-0.9
		c-3.3,0.3,2.7,0.3,3.7-2.1c0.9-2.4-1.2,2.4-11,1.2c-9.7-0.9-0.3-2.4-6.4-3.3c-5.8-1.2-12.5-2.7-16.1-4.6c-4-1.8-3.7,0.3-7-1.5
		C687.7,252.3,684.7,251.1,684.7,251.1z"/>
	<path fill-rule="evenodd" clip-rule="evenodd" fill="#D8807B" d="M682,259.6c0,0,1.2,1.8,5.5,4c4.3,1.8,0.6,0.6-1.5-0.6
		c-2.1-1.2-1.2,0,0.6,0.6c0.9,0.6,1.2,1.2,2.4,1.8c2.1,1.2,5.2,2.4,7.9,3.7c3,1.2,4.3,0.9,7.3,1.2s1.8,0,0.3-0.3
		c-1.8-0.3,1.5,0.3,2.1-0.6c0.6-0.6-0.9,0.9-6.1-0.6s0-0.9-3-2.1s-6.7-2.4-8.5-3.7c-2.1-1.2-2.1-0.3-3.7-1.5
		C683.5,260.5,682,259.6,682,259.6z"/>
	<path fill-rule="evenodd" clip-rule="evenodd" fill="#D8807B" d="M731.9,275.8c-0.6,0-1.2,0-2.1,0.3c-6.1,0.3-1.5,0.3,1.8,0
		c0,0.3-0.3,0.6-0.6,0.6l0,0c-1.5,0.3-2.1,0.9-4,1.2c-3.3,0.3-7.9,0-11.6,0c-5.2-0.3-11.6-2.4-12.2-3c-0.6-0.6,1.8,0.3,7.6,0.9
		c7,0.6,0.6-1.2,5.2-0.9c4.3,0,9.1,0.3,12.2-0.3c2.7-0.3,2.7,0.3,4.6,0.3C732.5,275.2,732.2,275.5,731.9,275.8z"/>
	<path fill-rule="evenodd" clip-rule="evenodd" fill="#D8807B" d="M704.2,282.2c0,0-1.5,0.3-4.6-0.9c-2.7-1.5-0.6,0,1.2,0.6
		c1.5,0.9,0.3,0.6-0.9,0.3c-0.6-0.3-1.2,0-1.8-0.3c-1.8-0.6-3.7-1.8-5.5-3c-2.1-1.5-4.6-4.6-4.6-5.2c-0.3-0.6,0.6,0.6,3,2.7
		c3,2.1,0.6-0.9,2.7,0.6c1.8,1.2,4,2.4,5.5,3c1.5,0.3,0.9,0.9,2.4,1.2C703,281.9,704.2,282.2,704.2,282.2z"/>
	<path fill-rule="evenodd" clip-rule="evenodd" fill="#D8807B" d="M689.3,239.8c0,0,1.2,1.5,5.5,3.7c4.3,2.1,0.6,0.6-1.5-0.6
		c-2.1-0.9-1.2,0,0.6,0.9c0.9,0.6,1.2,1.2,2.1,1.8c2.4,1.5,5.5,2.4,8.2,3.3c2.4,0.9,4,1.2,5.8,1.2c2.4,0.3,3.7,0.3,2.7-0.3
		c-0.3,0-1.2-0.3-2.7-0.3c-0.6-0.3-1.2-0.3-2.1-0.6c-5.2-1.5,0-1.2-3-2.1c-3-1.2-6.7-2.4-8.5-3.7c-2.1-1.2-2.1-0.6-3.7-1.5
		C690.8,240.4,689.3,239.8,689.3,239.8z"/>
	<path fill-rule="evenodd" clip-rule="evenodd" fill="#D8807B" d="M732.2,250.5c0,0-0.6,0.3-3,0.6c-2.4,0-0.3,0.3,0.9,0
		c1.2,0,0.3,0.3-0.6,0.3c-0.6,0-0.6,0.3-1.2,0.6c-1.5,0-3,0-4.6-0.3c-1.5,0-2.1,0-3-0.3c-0.9-0.6-1.5-0.9-1.2-0.9
		c0.3,0,0.6,0.3,1.5,0.3c0.3,0,0.6,0.3,0.9,0.3c2.7,0.3,0.3-0.6,2.1-0.6c1.5,0.3,3.3,0.3,4.6,0.3c1.2-0.3,0.9,0,1.8-0.3
		C731.6,250.5,732.2,250.5,732.2,250.5z"/>
	<path fill-rule="evenodd" clip-rule="evenodd" fill="#D8807B" d="M729.4,241.7c0,0-2.1,0.6-7.3-0.3c-4.9-0.9-0.6,0.3,1.8,0.6
		c2.7,0.6,0.9,0.6-0.9,0.3c-1.5-0.3-1.8,0.3-3.3,0.3c-2.7-0.3-6.1-1.5-9.1-2.4s-4.3-1.5-6.1-2.7c-2.1-1.5-3-2.4-2.1-2.1
		c0.6,0.3,1.2,0.6,2.7,1.2c0.6,0.3,1.2,0.6,2.1,0.9c5.5,2.1,0.9-0.6,4.3,0.3c3.7,0.9,7.3,2.1,9.7,2.4c2.4,0.3,2.1,0.9,4.3,0.9
		C727.6,241.4,729.4,241.7,729.4,241.7z"/>
	<path fill-rule="evenodd" clip-rule="evenodd" fill="#D8807B" d="M721.8,255.7c0,0,1.8,0.9,6.7,0.9c4.6,0,0.6,0.3-1.8,0.3
		s-0.9,0.3,0.9,0.3c1.2,0,1.8,0.6,3,0.9c2.4,0,5.5-0.6,8.2-0.9c0-0.6,0.3-1.5,0.3-2.4c-0.3,0-0.3,0-0.6,0c-3,0.6-6.7,0.9-9.1,0.9
		c-2.1-0.3-1.8,0.3-4,0.3C723.7,255.7,721.8,255.7,721.8,255.7z"/>
	<path fill-rule="evenodd" clip-rule="evenodd" fill="#D8807B" d="M682.9,245.9c3.3,2.1,4.9,2.1,8.2,3c3.3,0.9,2.1,0.3,0.3-0.3
		c-2.1-0.6,1.5,0.9,2.4,0c0.9-0.9-0.9,0.9-6.7-2.1c-5.5-2.7-0.3-1.2-3-3c0,0.3-0.3,0.6-0.6,0.9C683.5,245,683.2,245.3,682.9,245.9z"
		/>
	<path fill-rule="evenodd" clip-rule="evenodd" fill="#D8807B" d="M691.1,235c0.9,0.6,2.1,1.5,3.3,2.1c2.1,0.9,4.9,1.5,5.2,1.5
		c0.3,0-0.6-0.3-3-1.2c-2.7-1.5,0-0.9-1.5-1.8c-0.9-0.3-2.1-0.9-3-1.5C691.7,234.4,691.4,234.7,691.1,235z"/>
	<path fill-rule="evenodd" clip-rule="evenodd" fill="#D8807B" d="M729.4,235.3c-1.2,0-0.6,0.3,0,0.3c0.3,0.3,0.3,0.3,0.6,0.6
		c-0.3,0-0.9,0.3-1.2,0c-1.8,0-4-0.6-5.8-1.2c-1.8-0.3-2.7-0.6-3.7-1.5c-1.5-0.6-2.1-1.2-1.5-1.2c0.3,0.3,0.9,0.3,1.8,0.9
		c0.3,0,0.6,0.3,1.2,0.3c3.3,1.2,0.6-0.3,2.7,0c1.5,0.6,3.3,0.9,4.9,1.2C728.8,235,729.1,235.3,729.4,235.3z"/>
	<path fill-rule="evenodd" clip-rule="evenodd" fill="#C5706B" d="M727.9,244.1c-0.3,0-0.3,0-0.3,0s-0.3,0-0.3,0.3
		c0,0,0-0.3,0.3-0.3l0,0c0.3,0,0.6,0,0.9,0.3c0.3,0.3,0.3,0.6,0.3,1.2c0,0.3,0,0.6,0,0.9c-0.3,0.3-0.6,0.6-0.9,0.6
		c-0.3,0-0.6-0.3-0.9-0.3c0.3,0.3,0.6,0.3,0.9,0.3c0.6,0,0.9-0.3,1.2-0.9c0-0.3,0-0.6,0-0.6c0-0.3,0-0.6-0.3-0.9c0,0,0-0.3-0.3-0.3
		C728.2,244.1,727.9,244.1,727.9,244.1z"/>
	<path fill-rule="evenodd" clip-rule="evenodd" fill="#C5706B" d="M730.1,247.4L730.1,247.4C729.8,247.4,729.8,247.4,730.1,247.4
		c0,0,0.3,0,0.3,0.3c0,0,0.3,0.3,0.3,0.6c0,0.3-0.3,0.9-0.6,0.9c-0.3,0-0.3-0.3-0.3-0.3c0,0.3,0,0.3,0.3,0.3c0.3,0,0.6-0.6,0.6-0.9
		c0-0.3,0-0.6-0.3-0.9C730.4,247.4,730.4,247.4,730.1,247.4z"/>
	<path fill-rule="evenodd" clip-rule="evenodd" fill="#C5706B" d="M731,245c0,0-0.3,0-0.3,0.3C730.7,245,731,245,731,245
		c0.3,0,0.6,0.3,0.6,0.6c0,0.3-0.3,0.6-0.3,0.9c-0.3,0-0.3-0.3-0.6-0.3c0.3,0.3,0.3,0.3,0.6,0.3c0.3,0,0.6-0.3,0.6-0.9
		C731.6,245.3,731.3,245,731,245z"/>
	<path fill-rule="evenodd" clip-rule="evenodd" fill="#C5706B" d="M727,258.7c-0.3,0-0.6,0-0.6,0.3l0.3-0.3c0.6,0,0.9,0.6,0.9,0.9
		c0.3,0.6,0,1.2-0.6,1.2c-0.3,0-0.3,0-0.6,0c0.3,0,0.6,0.3,0.9,0.3s0.6-0.6,0.6-1.5C727.9,259,727.3,258.7,727,258.7z"/>
	<path fill-rule="evenodd" clip-rule="evenodd" fill="#C5706B" d="M729.4,260.2c-0.3,0-0.3,0.3-0.3,0.3l0,0c0.3,0,0.6,0,0.6,0.3
		s0,0.6-0.3,0.6c-0.3,0-0.3,0-0.3,0l0.3,0.3c0.3,0,0.6-0.3,0.3-0.9C729.8,260.5,729.8,260.2,729.4,260.2z"/>
	<path fill-rule="evenodd" clip-rule="evenodd" fill="#C5706B" d="M733.1,261.1l-0.3,0.3h0.3c0.3-0.3,0.6,0.3,0.6,0.6
		c0.3,0.3,0,0.9-0.3,0.9s-0.3,0-0.6-0.3c0.3,0.3,0.3,0.3,0.6,0.3s0.6-0.3,0.6-0.9C734,261.5,733.7,261.1,733.1,261.1z"/>
	<path fill-rule="evenodd" clip-rule="evenodd" fill="#C5706B" d="M722.1,266.3c-0.3,0-0.3,0.3-0.6,0.3c0,0,0.3,0,0.3-0.3
		c0.6,0,0.9,0.6,1.2,1.2c0,0.6-0.3,0.9-0.9,0.9c0,0.3-0.3,0-0.6,0c0.3,0.3,0.6,0.3,0.9,0.3c0.6,0,0.9-0.6,0.6-1.2
		C723.1,266.6,722.8,266.3,722.1,266.3z"/>
	<path fill-rule="evenodd" clip-rule="evenodd" fill="#C5706B" d="M725.5,269.1c-0.3,0-0.6,0-0.6,0.3c0-0.3,0.3-0.3,0.3-0.3
		c0.6,0.3,0.9,0.6,0.6,1.2c0,0.6-0.6,0.9-0.9,0.9c-0.3,0-0.6,0-0.6-0.3c0,0.3,0.3,0.6,0.6,0.6c0.6,0,1.2-0.3,1.2-0.9
		C726.1,269.7,726.1,269.1,725.5,269.1z"/>
	<path fill-rule="evenodd" clip-rule="evenodd" fill="#C5706B" d="M722.1,270.6c-0.3,0-0.3,0-0.6,0c0.3,0,0.3,0,0.3,0
		c0.3,0.3,0.3,0.6,0.3,0.6c0,0.3-0.3,0.6-0.6,0.6l-0.3-0.3c0,0.3,0.3,0.3,0.3,0.3c0.3,0,0.6,0,0.6-0.3
		C722.4,271.2,722.1,270.6,722.1,270.6z"/>
	<path fill-rule="evenodd" clip-rule="evenodd" fill="#C5706B" d="M722.1,279.4c0,0-0.3,0-0.6,0
		C721.8,279.4,721.8,279.4,722.1,279.4c0.3,0.3,0.6,0.9,0.3,1.2c-0.3,0.6-0.6,0.9-1.2,0.9c0-0.3-0.3-0.3-0.3-0.6
		c0,0.3,0.3,0.6,0.3,0.6c0.6,0.3,1.2,0,1.5-0.6C723.1,280.3,722.8,279.4,722.1,279.4z"/>
	<path fill-rule="evenodd" clip-rule="evenodd" fill="#C5706B" d="M720,281.2c0,0-0.3,0-0.3,0.3c0-0.3,0-0.3,0.3,0
		c0,0,0.3,0.3,0,0.3c0,0.3-0.3,0.6-0.3,0.3c-0.3,0-0.3,0-0.3,0s0,0.3,0.3,0.3c0,0,0.3,0,0.6-0.3C720.3,281.9,720.3,281.5,720,281.2z
		"/>
	<path fill-rule="evenodd" clip-rule="evenodd" fill="#C5706B" d="M720.3,278.2c-0.3,0-0.3,0-0.6,0.3c0-0.3,0.3-0.3,0.3,0
		c0.3,0,0.6,0.6,0.3,0.9c0,0.3-0.6,0.6-0.9,0.6l-0.3-0.3c0,0.3,0.3,0.3,0.6,0.3c0.3,0.3,0.6,0,0.9-0.6
		C720.9,279.1,720.6,278.5,720.3,278.2z"/>
	<path fill-rule="evenodd" clip-rule="evenodd" fill="#C5706B" d="M715.7,282.5h-0.3C715.4,282.5,715.4,282.5,715.7,282.5
		c0.3,0,0.3,0.6,0.3,0.9c-0.3,0.3-0.6,0.3-0.9,0.3c0,0,0,0-0.3-0.3c0,0.3,0.3,0.3,0.3,0.6c0.3,0,0.9-0.3,0.9-0.6
		C716.4,283.1,716.1,282.5,715.7,282.5z"/>
	<path fill-rule="evenodd" clip-rule="evenodd" fill="#C5706B" d="M718.8,245.6c0,0-0.3,0-0.6,0.3
		C718.5,245.6,718.5,245.6,718.8,245.6c0.3,0,0.6,0.6,0.6,1.2s-0.6,0.9-0.9,0.9c-0.3,0-0.3,0-0.6-0.3c0.3,0.3,0.3,0.6,0.6,0.6
		c0.6,0,1.2-0.6,1.2-1.2S719.4,245.6,718.8,245.6z"/>
	<path fill-rule="evenodd" clip-rule="evenodd" fill="#C5706B" d="M688.3,255.1c0,0,0.3,0.3,0.3,0.6
		C688.7,255.4,688.3,255.4,688.3,255.1c-0.3,0-0.9,0.3-1.2,0.6c-0.3,0.6-0.3,1.2,0,1.5c0.3,0,0.6,0,0.9,0c-0.3,0-0.6,0-0.9,0
		c-0.6-0.3-0.6-0.9-0.3-1.5C687.1,255.1,687.7,254.8,688.3,255.1z"/>
	<path fill-rule="evenodd" clip-rule="evenodd" fill="#C5706B" d="M684.1,256.3c0.3,0,0.6,0.3,0.6,0.3s-0.3,0-0.3-0.3
		c-0.6,0-0.9,0.6-1.2,0.9c0,0.6,0.3,1.2,0.6,1.2c0.3,0.3,0.6,0,0.6,0c0,0.3-0.3,0.3-0.6,0.3c-0.6-0.3-0.9-0.9-0.9-1.5
		C683.2,256.6,683.5,256.3,684.1,256.3z"/>
	<path fill-rule="evenodd" clip-rule="evenodd" fill="#C5706B" d="M686.8,259c0,0,0,0,0.3,0.3C686.8,259,686.8,259,686.8,259
		c-0.3,0-0.6,0.3-0.6,0.6s0.3,0.6,0.6,0.6c0,0,0,0,0.3,0c-0.3,0-0.3,0-0.6,0c-0.3,0-0.3-0.3-0.3-0.6S686.5,259,686.8,259z"/>
	<path fill-rule="evenodd" clip-rule="evenodd" fill="#C5706B" d="M700.2,232.2l0.3,0.3C700.5,232.5,700.2,232.5,700.2,232.2
		c-0.3,0-0.6,0-0.9,0.3c0,0.6,0,0.9,0.3,0.9c0,0.3,0.3,0.3,0.3,0c-0.3,0.3-0.3,0.3-0.6,0c-0.3,0-0.3-0.6,0-0.9
		C699.3,232.2,699.9,231.9,700.2,232.2z"/>
	<path fill-rule="evenodd" clip-rule="evenodd" fill="#C5706B" d="M697.5,233.1c0.3,0,0.3,0,0.3,0S697.8,233.1,697.5,233.1
		c-0.3,0-0.6,0.3-0.6,0.6c0,0.3,0.3,0.6,0.3,0.6c0.3,0.3,0.3,0,0.6,0c-0.3,0.3-0.3,0.3-0.6,0.3c-0.3-0.3-0.6-0.6-0.3-0.9
		C696.9,233.1,697.2,232.8,697.5,233.1z"/>
	<path fill-rule="evenodd" clip-rule="evenodd" fill="#C5706B" d="M699.3,235L699.3,235L699.3,235c-0.3,0-0.3,0-0.3,0.3
		c0,0.3,0,0.3,0.3,0.3l0,0c0,0,0,0-0.3,0c0,0-0.3,0-0.3-0.3C698.7,235,699,234.7,699.3,235z"/>
</g>
</svg>
