<?xml version="1.0" encoding="utf-8"?>
<!-- Generator: Adobe Illustrator 18.1.1, SVG Export Plug-In . SVG Version: 6.00 Build 0)  -->
<svg version="1.1" id="Warstwa_1" xmlns="http://www.w3.org/2000/svg" xmlns:xlink="http://www.w3.org/1999/xlink" x="0px" y="0px"
	 viewBox="0 0 1920 1080" enable-background="new 0 0 1920 1080" xml:space="preserve">
<path fill-rule="evenodd" clip-rule="evenodd" fill="#97B067" d="M-254.3,761.1c0,0,86.2-75.2,261.2-89.8c8.2-0.6,21-7.3,29.2-7.6
	c14-0.3,28.9,10.4,42.9,11.3c13.7,0.9,32.9-0.3,46.6,1.5c19.8,2.7,29.5,11.9,49,16.1c17.1,3.7,43.5,3.3,60.9,7.6
	c14,3.7,21.6,12.2,35.3,16.1c9.7,2.7,31.7,3,41.4,5.8c14.3,4.3,21,10,35,14.3c11.9,3.7,53,7.3,64.9,11c29.5,8.2,68.8,17.1,90.4,23.4
	c16.4,4.9,14.6,8.2,37.1,11.3c28,3.7,38.7,16.7,67,16.4c29.2-0.6,62.3-20.3,93.4-24.6c70.6-9.4,141.3-15.7,216.2-23.3
	c12.5-1.2,28.1-4.7,40.6-5.9c16.4-1.8,30.8,4.6,46.6,4.3c14.6-0.3,31.4-8.5,46.6-10c9.1-1.2,16.4,3.7,25.3,4s17.7,8.8,26.5,9.4
	c11.9,0.9,31.7-1.8,43.2-0.3c22.2,2.4,41.7,10,62.4,14c11.9,2.1,23.4,8.2,34.7,10.7c10.4,2.1,27.7,1.8,37.8,4
	c19.5,4.6,38.4,12.2,56.6,17.4c10,2.4,28,2.1,37.8,4.3c11.3,2.4,22.8,17.4,33.5,20.1c10,2.7,28.9-0.3,38.4,1.5
	c28.9,5.8,56.3,16.1,86.5,21.3c5.5,0.9,5.8-1.8,12.2-0.9c7.9,1.2,34.4-4.6,42.3-4c28.3,1.5,56,4.6,82.8,0.9
	c22.5-3,54.5-19.5,75.8-24.7c37.8-9.4,65.2-8.5,98.6-15.2c21.3-4.3,70.3-7.6,93.8-12.2c18-3.7,25.9-9.1,42.9-8.5
	c124.5,4.3,86.5,433,86.5,433l-2400.7,4.9L-254.3,761.1z"/>
<path fill-rule="evenodd" clip-rule="evenodd" fill="#C6E9FA" d="M715.4,773.1c-22.8,9.1-51.2,24.7-67,44.1
	c-26.8,32.6-33.5,75.5-31.7,116.6c1.8,33.2,11,64.2,41.7,84.9c20.4,13.1,56.3,25,78.6,38.4c26.2,15.8,53.6,29.5,63.3,54.8
	c5.8,15.2,0,37.1-1.8,58.5c0,0,253.6,0,308.1,0c0.3-42.9,2.1-80.1-18-106.6c-22.8-29.2-54.5-56.3-90.4-72.8
	c-39.6-18.3-84.6-20.1-119-33.5c-34.1-13.4-57.5-38.7-62.4-63c-7-33.8-4.3-62.7,12.2-85.3c27.4-37.8,80.4-58.8,80.4-58.8
	c-15.2,1.5-33.2,3-48.4,4.6c-24.7,2.4-55.4,4.9-79.5,7.9C757.5,766.1,740.4,770.1,715.4,773.1z"/>
</svg>
