<svg xmlns="http://www.w3.org/2000/svg" viewBox="0 0 1920 1080"><path fill="#D6BAA9" d="M-165.3 926.9c112.8 17.7 466 48.9 651.8 52.8 209.2 4.2 443.7-34.1 526.6-61.3 204.4-67.3 451.2-32.9 643.3-18 79.6 6.3 315 16 410.5 20.5v286.5H-165.3V926.9z"/><path fill="#C8AFA1" d="M1274.8 1174c7.2-6.9 72.8-60 58.8-126.1-5.8-27.3-56.9-17.4-76.3-34.1-12-10.2-12.3-29.3-3-46.1 15.6-27.5 42.8-21.8 60.1-40.4 2.4-2.4 3.3-5.4 3-9.3-1.5-13.2-23.9-17.4-38.3-17.1-14.7.3-36.8-2.1-53.9-7.5-11.1-3.3-17.4-8.1-20.6-11.1l2.7-.3.6.6c8.1 6.6 25.1 13.8 61.6 15 13.8.3 24.2-1.5 38 2.7 23.3 6.9 24.8 20.6 15.6 32-9.9 12.6-24.8 15-37.1 25.1-6.3 5.1-11.4 11.4-13.5 19.2-12.9 47.6 101.7 20.6 104.1 76.6 3 67.7-52.8 113.5-56.7 120.7l-45.1.1z"/><g fill-rule="evenodd" clip-rule="evenodd" fill="#FFF"><path d="M1059.8 960.1v-.3c0-.3-.3-.3-.3-1 0-1-.7-1.3-.3-4.3.7-4-1.3-7.6-3.6-8.9-1.3-1 .7.7 2.6 1 0-1.3 0-6.3-4.3-10.6 0-.3-.7 0-1 0 0-.3.3-.7 0-1l-1-1c-3.6-2.3-7.3-4-10.9-4-4.6-.3-9.6 1.7-13.5 6.3 0 0 .3.7.3 1 0 0-.7-.3-1-.3l.3.3c0 .3-.7 0-.7 0-1.3 2-2.3 4.3-3 6.6 0 0 .3.3.3.7-.3 0-.7 0-.7.3-1 5.3.7 12.6 5.9 15.2v-.7l.3.3v.3c.3.3 1 .3 1.3.7 1-2 1-4.6 1-2.6 0 1.3-.3 2.3-.7 3.6-.3 2 .7 3.6 5 5 .3 0 1 .3 1.7.3 0 0 .3-.3.7-.3 0 0-.3.7 0 .7 1 .3 2 .7 2.6.7.7.3 1 .3 1 .7.3 0 .3.3.7.3h.3l.3-.3v-.3H1044v.3l.3.3c0-.3 0-.7.3-.7l.3-.3c.3 0 .3.3.7.3v-.4c.3 0 .3-.3.7-.3l.3.3h.3v-.3c.3-.3.3-.3.7-.3 0-.3.3 0 .7 0l.3-.3c0-.3.3-.7.3-.7h.3v-.3h.3c0 .3 0 .3.3.3v-.3h.3v-.3s.3-.3.7-.3h.3l.3.3h.3c-.3-.3 0-.7 0-1 .3-.3.3-.3.7-.3h.6v.3h.3V963.9h.3s.3 0 .3-.3h.6v.3h.3v-.6s.3 0 .3-.3H1056v.3c0-.3.3-.7.3-.7v-.3h.3s.3 0 .3.3V961.7l.3-.3h.6v.3c1-.9 1.4-1.6 2-1.6zm-15.2-3.6c0 1-.3 1.7-.7 2.3-.3.3-.3.7-.7.7l.3.3h-.6c-.3.3-.7.3-.7.7h-1.3s-.3 0-.7-.3c-.7 0-1-.3-1.3-1-.7-.3-1-1-1.3-1.7v-.1-.2c0-.3-.3-.7-.3-1v-1.3c0-.7 1-1.3 1.3-2 .7-.7 1.7-1 2.3-1h.3c.3-.3.3-.7.3-.7v.3h.3c.7 0 1.3 0 1.7.3.3 0 .7.3.7.7.3.7.7 1.3.7 2.3 0 .7 0 1-.3 1.7zm7.3 4.3c-.3 0-.7-.3-.7-.3s0 .3-.3.7c0 0 .3.3 0 .3s-.7 0-.7-.3c-.3 0-.3 0-.7-.3v-2c-.3-.8-.3-1.3-.3-1.7v-.3.3l.3-.3v.3c0 .3.3.3.3.7.7 0 1 .3 1.3.7.3.3.3.3.7.3 0 .3 0 .3.3.3v.7c.4.5.1.5-.2.9zm3.9-8c-.7.7-1 1.3-2.6 1.3-.7 0-1 0-1.3-.3-.3 0-.7 0-1-.3h-.3c-.3-.3-1-.7-1.3-1-.3 0-.7-.3-1-.3-.7-.7-1-1.3-1-2 0-1 1-2.3 2-3 .7-.3 1.7-.7 2.6-.7.7 0 1.7 0 2.3.7.3 0 .7.3 1 .7h.3s-.3.3 0 .3c.7 1 .7 2.3.7 3.3 0 .7 0 1-.4 1.3z"/><path d="M1050.6 966.7c.3 1 1 2 1 2l.7-.3v-.7l.3.3.7-.3s-.7-.7-1.3-1.7c-.4-.6-1.8.1-1.4.7z"/><path d="M1052.2 966.1c.3 1 1.3 1.7 1.3 1.7l.3-.3 1-.7s-.3-.7-.7-1.3c-.6-.8-2.2-1.1-1.9.6zM1049.6 969h.3l.7-.3h.6s-.7-2-1.3-2.3c-.7 0-1.3.7-.3 2.6zM1054.9 963.7c-.7.3-1.3 1 .3 2.6l.3-.3v-.3l.3.3c.7-.7.3-1-.3-1.7-.3-.6-.3-.6-.6-.6zM1048.2 967.4c-.3 0-1.3.3-.3 2.3v-.3l.3.3.3-.3c1 0 .7-.3.3-1 .1-.7-.2-.7-.6-1zM1046.6 968c-.7-.3-1 1.7 0 2l.3-.3v.3c.7-.3.7-.3.3-1.3-.3-.3-.3-.3-.6-.7zM1044 968.7c-.7-.3-1 .7-.3 1.3v.3c.3.3.3.3.7.3.7-.3.7-.3.3-1.3-.4-.3-.4-.6-.7-.6zM1056.5 963.1c-.7 0-1.3.7.3 2.3l.7-1h.3s-1-1.3-1.3-1.3zM1058.5 962.8s0 .3.7.7l-.3-.3h.3c.7-.7.7-.7-.3-1.7h-.3c-.4-.1-.8.6-.1 1.3z"/></g></svg>