<svg xmlns="http://www.w3.org/2000/svg" viewBox="0 0 1920 1080"><g class="ludek--1"><path fill="#F7DDD2" d="M825 132s220.8 3.6 235.5-3.6 18.1-24.8 12.4-33-11-11.9-30.7-13.2c-18.8-1.2-217.2.4-217.2.4V132z"/><path fill="#84785B" d="M1051.6 110c-2.8 5-3 10 1 14.4 1.2 1.3 3.2-.6 2-2-3.1-3.5-2.7-7.2-.5-11 .8-1.6-1.6-3-2.5-1.4zM1051.6 89.4c-2.8 5-3 10 1 14.4 1.2 1.3 3.2-.6 2-2-3.1-3.5-2.7-7.2-.5-11 .8-1.6-1.6-3-2.5-1.4zM1032.6 97.6c-3.5 7.1-3.9 14 1.2 20.4 1.1 1.4 3.1-.6 2-2-4.2-5.3-3.6-11.2-.7-17 .7-1.6-1.7-3-2.5-1.4z"/></g><path fill="#D3AA98" d="M845.9 1240.6c9.9-6.9 26.8-176.8 35.4-179.5 16.2-5.1 44-6 57.8-13.2 5.4-2.7-2.7-6.6 2.4-12 6.9-7.8 13.5-16.2 19.7-24.5 7.2-9.3 18.6-23.9 20.9-34.1 3.3-12.9 1.2-16.2 10.5-25.4 5.4-5.4 25.7-10.8 37.4-13.5 7.2-1.8 2.1-6 5.7-6.3 19.2-2.1 39.2-3.3 49.4-7.8 9-4.2 9.3-11.4 8.1-20.3-2.1-19.2 65.8-21.8 53.9-35.6-5.7-6.9.9-13.2-11.4-16.5-12.6-3.3-39.2-5.7-47.6-5.7-3.6 0-5.1-3-9.9-6-9.6-6 26.9-15.3 13.2-20.9-5.4-2.4-4.2-9-12.3-10.5-7.8-1.5-24.8 2.4-29 3.6-3.3.9-17.4-.3-23.3-3.3-8.1-3.9-8.4-10.8-11.7-18.9-3-7.8 3-15.3 4.8-24.5.6-2.7-.9-5.7-.9-8.4.3-7.2 3.6-12.9 2.7-18-1.2-4.8-6.9-8.7-8.1-16.2-.9-7.5 1.5-16.8 1.5-26 .3-12-1.5-23.6-.9-30.2.3-4.2 2.7-9.6 1.2-18-1.2-5.1-5.4-4.2-6.9-10.2-1.2-5.4 1.2-10.8 1.2-17.7-.3-6.9-3-15.3-2.7-19.7.3-3.6 0-8.7.9-12 1.5-4.8 8.4-7.5 10.5-12 1.5-3.3 4.8-6.3 5.7-10.2 1.5-6.6-.3-14.4 1.2-21.5.6-2.4 3-5.1 3-7.8 0-4.8-6.9-11.4-7.8-17.1-1.2-7.5 3.3-14.1 4.8-19.7 1.2-5.7-1.5-13.2-.3-19.2 4.5-20.9 12.6-40.1 22.7-55.4 5.7-8.1 2.7-16.5 11.7-19.4 7.2-2.4-3.6-1.8 3-4.5 5.1-2.1-3-7.5 1.8-9 6-2.1 49.7-19.4 51.5-21.2 2.1-2.4 18.3-8.1 21.5-12 5.7-6.3 40.7-3 39.2-20.9-.3-3.3 6.3-4.8 0-5.7-12-1.8-41-.9-48.5-3.3-12.9-4.2.3-8.7.3-12.9.3-6.9-18-12.3-24.8-18-6.6-5.4-1.5-11.1-3-18.6-1.5-9.3-20.3-15.9-25.7-22.7-4.5-5.4 4.2-10.8 3.9-18 0-8.4-5.1-17.4-2.4-26.3 2.4-8.4 22.1-16.5 26.3-23.3 5.4-9.3-4.5-16.5-4.5-20.3-.6-6-9.9-17.4-11.4-31.7-.6-5.7 4.8-12 6.3-18.3 1.2-6.6-1.2-13.5-.3-20.3.6-5.7 6.6-12 5.7-18.3-1.5-8.4 1.8-21.5 5.7-29.9 5.1-12 13.5-19.4 15.6-29.3 1.8-8.7 2-146.3 2.6-153.8l-1163.5 5.7-4.8 1137.5-3.2 223.1 895.2 5.6z"/><g fill="#B58F81"><path d="M1082.6 842.3c-17.7 2.9-67.1 10.8-92.2 13.1-31.2 2.3-37.1 3.3-37.1 3.3s27.3.1 58.2-3.6c24.3-3.3 60.9-8.5 74.2-10.3-.8-.5-1.5-1-2.4-1.7-.2-.4-.7-.5-.7-.8zM1077.8 839c-12.2 1.7-33 3.8-55.6 4.7l-34.3 1.6s56.2-4.8 87.7-9c.7 1.1 1.5 1.9 2.2 2.7zM1015.8 649.3c-12.1 0-45.8 0-62.8-1.2-21-1.8-25-1.8-25-1.8s18.2 3 39.2 3.8c16.6.4 40 1.2 49.1 1.4 0-.4-.2-1-.2-1.6-.3-.2-.3-.4-.3-.6zM1010 641c-8.3-.2-22.4-1-37.6-2.8l-23-2.6s38 2.8 59.4 3.4c.4.8.8 1.4 1.2 2zM1010.9 624.3c-8.7 0-37.1-.8-52.1-3.8-18-3.8-22.6-4.4-22.6-4.4s47.6 6.7 74.5 5.9c0 .7 0 1.7.2 2.3zM1008.2 589c-6.3-.3-24.4-.3-43 .3-24.5 1.2-42.5 1.5-42.5 1.5s37.4 0 53.6 1.2c11.1.6 24.2.9 31.4.9 0-1.1.2-2.7.5-3.9zM1093.9 39.9s-16.5 1.5-119.7-.8S826.1 33 826.1 33s55.4 8.5 131.7 9.3c76.3.7 136.1-2.4 136.1-2.4zM957.6 14.4s-11.9 1.1-86.4-.6-106.9-4.4-106.9-4.4 39.9 6.1 95 6.7c55.1.5 98.3-1.7 98.3-1.7zM1030.7 889.4s-45.2 4.8-84 2.4l-39.1-2.4s16.4 3.4 49 4.8c32.8 1.2 54.7-1.8 54.7-1.8l19.4-3zM918 545.9s-47.3 1.7-87.4-3.7l-40.4-5.4s16.8 4.7 50.5 8.6c33.9 3.7 56.9 2.1 56.9 2.1l20.4-1.6zM985.3 288c-10.8 1.8-44 6-93.1 4.8-59.8-1.5-79.3-1.5-79.3-1.5s68.8 3 94.3 3.9c20.3.3 63.1-2.1 80.5-3.3-1.2-1.2-1.8-2.4-2.4-3.9zM1122.6 324.8c-10.8 1.8-44 6-93.1 4.8-59.8-1.5-79.3-1.5-79.3-1.5s68.8 3 94.3 3.9c20.3.3 63.1-2.1 80.5-3.3-1.2-1.2-1.8-2.4-2.4-3.9zM1099.3 173c-7.4.8-26.9 2.3-59.2 2.3-42.3 0-61-1.8-61-1.8s25.6 5.1 71.7 3.8c37.2-1.3 48.9-.5 52.3-.3-.8-1.2-3.1-2.7-3.8-4zM1097 195.7s-33.2 0-59.7-1.7c-26.5-1.9-43.3-4.3-43.3-4.3s25.3 4.8 38.5 6.7c13.2 1.7 60.9 1.7 60.9 1.7l3.6-2.4zM1084 169.2s-37.3-.8-96.4-4.9c-59.2-4.1-171-28.4-171-28.4s24.3 9.7 48.6 13.8 103.7 17.8 145 18.6c41.4.9 73.8.9 73.8.9zM1101 294.7c-9.3 1.5-26.9 4.2-35 4.2h-16.5s11.1 2.7 25.7 1.2c9.9-.9 20-2.1 26-3 .1-.9-.2-1.5-.2-2.4zM1026.7 499.9c-9.7 0-65.7 0-93.4-4.7-30.3-5.2-112-32.2-112-32.2s48.3 15.5 73.4 20c25.1 4.5 26.4 11.6 84.3 12.9 23.6.6 38 .9 47 1.1v.9c-.2.5.2 1.2.7 2z"/><path d="M1025.6 492.2c-11.4-.4-39.7-1.9-59-3.6-24.5-2.6-34.1-8.2-34.1-8.2s19.3 4.9 36.3 6c13.5 1.1 44.6 2.4 56.2 2.8.2 1.1.4 1.9.6 3zM1024.5 485.1c-6.7-.4-24.2-1.7-33.7-3-12.2-1.7-14.2-2.1-14.2-2.1s36.9 2.1 48.1 3v.4c0 .7-.2 1.1-.2 1.7zM1007.3 444c-6.9.9-17.2 2.4-22.1 2.4h-11.6s7.7 1.9 18.2.9c5.4-.4 10.9-1.1 15.2-1.5l.3-1.8z"/></g></svg>