<svg xmlns="http://www.w3.org/2000/svg" viewBox="0 0 1920 1080"><g class="ludek--4"><path fill="#F7DDD2" d="M580.1 370s1.9-113.1-1.9-120.6c-3.7-7.5-12.7-9.2-16.9-6.3s-6.1 5.5-6.8 15.6c-.6 9.7.2 111.3.2 111.3h25.4z"/><path fill="#84785B" d="M568.8 254.1c2.6 1.5 5.1 1.6 7.4-.5.7-.6-.3-1.6-1-1-1.8 1.6-3.7 1.4-5.6.3-.9-.5-1.6.8-.8 1.2zM558.2 254.1c2.6 1.5 5.1 1.6 7.4-.5.7-.6-.3-1.6-1-1-1.8 1.6-3.7 1.4-5.6.3-.8-.5-1.6.8-.8 1.2zM562.5 263.9c3.6 1.8 7.2 2 10.5-.6.7-.6-.3-1.6-1-1-2.7 2.2-5.8 1.8-8.7.4-.9-.5-1.7.8-.8 1.2z"/></g><g class="ludek--5--down"><path fill="#F7DDD2" d="M511.6 327.8s-1.2 147.3-.3 161.3c1 14.6 3.8 18.4 9.9 22.6 6.1 4.2 19.1 1.7 24.5-9.1 5.5-10.9 2.8-174.8 2.8-174.8h-36.9z"/><path fill="#84785B" d="M532.1 495.8c-1.2.6-.1 2.5 1.2 1.7 2.8-1.6 5.5-1.9 8.1.4 1 .9 2.5-.6 1.4-1.4-3.3-3.1-7-2.9-10.7-.7zM516.7 495.8c-1.2.6 0 2.5 1.2 1.7 2.8-1.6 5.5-1.9 8.1.4 1 .9 2.5-.6 1.4-1.4-3.3-3.1-6.9-2.9-10.7-.7zM522.9 481.6c-1.3.6-.1 2.5 1.2 1.7 4.2-2 8.7-2.6 12.6.6 1 .9 2.5-.6 1.4-1.4-4.7-3.8-9.9-3.5-15.2-.9z"/></g><g class="ludek--6--down"><path fill="#F7DDD2" d="M1712.1 725s1.9 113-1.9 120.5c-3.7 7.5-12.7 9.1-16.9 6.2-4.2-2.9-6.1-5.4-6.8-15.5-.6-9.7.2-111.2.2-111.2h25.4z"/><path fill="#84785B" d="M1700.8 840.6c2.6-1.5 5.1-1.6 7.4.5.7.6-.3 1.6-1 1-1.8-1.6-3.7-1.4-5.6-.3-.9.5-1.6-.7-.8-1.2zM1690.2 840.6c2.6-1.5 5.1-1.6 7.4.5.7.6-.3 1.6-1 1-1.8-1.6-3.7-1.4-5.6-.3-.8.5-1.6-.7-.8-1.2zM1694.5 830.9c3.6-1.8 7.2-2 10.5.6.7.6-.3 1.6-1 1-2.7-2.2-5.8-1.8-8.7-.4-.9.4-1.7-.8-.8-1.2z"/></g><path fill="#B28972" d="M1903 1205c-2.4-8.7-29-153.2-37.1-166.3-4.8-8.1 8.7-12.3.9-22.1-4.8-6-24.5-12.3-38.6-22.1-8.4-5.7-10.8-14.7-17.4-20.3-6-4.8-5.1-9.6-8.4-13.2-4.5-5.1-9.9-12.3-17.4-16.2-12.6-6.6-27.8-9.3-32-15.3-6.3-9 0-12.3-1.2-19.2-2.4-15-7.2-30.2-21.5-39.2-3.3-2.1-18.6-8.4-39.5-11.7-7.5-1.2-33.8 1.5-41.6.9-10.2-.6-6.6-6-9-6.9-16.8-7.2-6.9-12.6-6.3-17.1.6-2.7-5.1-4.2-14.1-7.5-4.5-1.8-23.9-1.2-41.3-2.1-19.4-1.2-37.1-4.2-41-7.2-4.2-3-12.9-6-15.6-9.6-1.2-1.5-2.7-3-1.8-4.8 1.2-1.8 4.8-3.3 5.1-5.1.6-2.7.6-4.8 4.5-7.8 3.3-2.7-1.2-4.2 6.3-6.9 11.1-3.9 34.7-9.3 39.2-13.5 6.9-6.6 2.4-15.3 7.5-21.8 6.3-7.8 57.8-13.8 64-22.4 13.2-17.7 25.1-36.8 29.9-56.6 1.5-6.9-9-11.4-5.7-17.7 2.1-3.6-38.6-8.7-30.8-11.7 7.5-3.3 63.4-5.1 66.4-8.7 16.2-18.3 15.6-36.5 12.6-50.9-1.8-7.8-8.7-16.2-9.3-24.5-.6-8.4 5.1-16.8-2.1-24.5-4.5-5.1-33.5-8.1-43.1-12.6-8.4-3.9 2.1-9.3 0-14.4-2.1-5.4-12.9-6-14.4-9.6-9.6-24.5 5.1-16.2 15.6-46.1 3-8.7 19.7-16.5 20.9-34.4.6-6.3-8.1-12-8.1-19.2.3-7.5 3-21.2-8.7-32-3.9-3.6-35.3-2.7-40.1-6-3.3-2.1-13.2-6.9-16.8-8.4-11.4-5.1-.9-8.1-2.1-12.6-4.2-15.9 12-19.7 17.7-29.9 4.5-7.8-4.5-14.7-12-24.5-2.4-3.6 1.8-11.1-2.1-14.1-3.6-2.7-18-6-23.3-9.6-5.4-3.3-2.1-6.6-6.3-9.3-3.3-2.1-18-2.7-29-5.1-9-1.8-14.4-5.1-18.3-6.9-13.8-6-5.1-12-13.2-16.5-11.4-6.3 2.4-12.3-8.7-17.4-14.1-6.3-17.4-15.3-35-20-1.8-.6-4.5 2.4-8.4 2.4-8.7.6-20.9-.9-26.9-1.5-11.1-1.2-9.9-6.3-13.8-7.8-14.7-5.4-23.3-.9-35.9-3.9-5.1-1.2-1.8-3-6.3-4.8-12.6-5.7-42.2-15.3-26.9-21.5 4.8-1.8 18.6-3.3 38.6-3.3 9.3-.3 24.5.9 32.3.3 13.5-.9 13.2-3.9 23.9-6.6 18.9-4.8 35.3-17.1 41.6-22.7s29-11.7 33.5-18.9c7.2-10.5 2.7-18 3.6-24.2 2.1-14.1-1.5-20-24.2-23.3-12-1.8-45.5.9-55.4-2.4-7.2-2.4-2.4-7.2-3.6-11.7s-8.4-9-10.2-16.8c-.6-3.3-49.1-.6-71.8-3.9-1.5-.3-27.2-2.1-28.7-2.4-19.7-3.9 6.6-193.4 9.9-197l795.5 10.7-4.2 1390L1903 1205z"/><g fill="#9B7461"><path d="M1696.9 186.1c-34.7 1.2-72.4 5.4-115.2 4.8-33.5-.3-62.8-5.1-82.9-5.4-5.7 0-10.8 0-15.6-.3 2.7.9 5.1 2.1 7.2 3 6.6.3 12.9.6 17.7.6 10.2.3 41.9 5.1 76.9 5.1 47.6 0 101.4-3 114.3-3.9 22.4-1.5 165.2-8.4 165.2-8.4-23.7-3.2-160.7 4.2-167.6 4.5zm-217.9-.9c-21.2-.3-33.2-.6-39.5-.9.3.3.9.3 1.2.6 7.8.6 20.3 1.5 33.2 2.4 2.1-.3 3.6-1.5 5.1-2.1zM1896.2 210.1s-10.8 2.7-71.2 5.4c-13.5.6-28.7 3.3-47.6 3.6-11.4.3-18.6 2.1-28.4 2.4-80.8 1.2-120.9-6.3-120.9-6.3s56.3 12.6 132.6 9c76.2-3.9 135.5-14.1 135.5-14.1zM1393.2 15.3s7.2.3 20.3.9c-6.6 0-13.8 0-20.6-.3l.3-.6zm47.8 1.8c19.2.6 43.1.9 70.9.9 34.7-.3 72.7 2.4 115.2.3 33.5-1.5 62.8-7.5 82.6-8.7 57.8-3 66.1-3.9 66.1-3.9s-51.2 6.3-75.1 7.8c-10.5.6-41.9 6.6-76.6 7.8-47.6 2.1-101.4.9-114.6.6-11.1-.3-39.2-.6-65.5-1.2-.3-.9-.6-1.5-.9-2.4 0-.6-.6-.9-2.1-1.2zM1649.9 143.1s-11.1 2.1-71.2 1.2c-13.5 0-28.7 1.8-47.9 1.2-11.1-.3-18.6.9-28.4.6-21.5-.9-39.8-2.1-55.7-3.6-1.8.6-3.6 1.2-6.3 1.8 20.3 2.7 45.5 5.1 73.3 5.1 76.3.5 136.2-6.3 136.2-6.3zM1869.2 331s-85.6 7.2-144.8 5.1l-59.5-2.1s15.9 3 68.5 4.8c52.7 1.8 93.1-.9 136.7-4.8 44-3.9-.9-3-.9-3zM1591.2 260.1c9.3.9 27.5 2.1 35.9 1.5 11.1-.6 15.9-1.2 15.9-1.2s-10.5 3.6-25.4 3.3c-6.9-.3-14.4-.6-20-.9-2.4-.9-4.5-1.8-6-2.7h-.4zM1584.4 250.5c8.7.3 29.3 1.2 43.4.9 18.6-.6 29.3 0 29.3 0s-17.7 3.3-43.1 2.4c-12.9-.6-21.5-.9-26.6-.9-.6-.6-.9-1.2-2.1-2.1-.3 0-.6-.3-.9-.3zM1536.2 90.1c9 .6 29.3 1.2 43.1.9 18.6-.3 29.3.3 29.3.3s-17.7 3-43.1 2.1c-16.5-.6-25.7-.6-30.2-.6l.9-2.7zM1529.9 99.7c8.7.9 28.4 2.4 37.1 1.8 11.4-.9 16.2-1.2 16.2-1.2s-10.5 3.6-25.4 3.3-31.1-1.5-31.1-1.5c1.1-.9 2.3-1.5 3.2-2.4zM1682.2 79.6s-32.6 1.2-42.5.6c-10.2-.6-38.9 1.5-44.9 1.2-6-.6 12 1.5 24.8.6 13.2-.9 28.1.3 43.4.6 15.6.3 20.6-1.5 20.6-1.5l-1.4-1.5zM1672.6 652.3s85.9 0 144.8-7.5l58.9-7.2s-15.6 4.2-67.6 10.5c-52.4 6.6-92.8 7.5-136.7 7.5h-1.5c0-.6.3-1.5.6-2.1.3-.3 0-.6-.3-.9l1.8-.3zM1672 660.4c5.4.6 29 3 45.2 2.7 18.6-.3 30.8-1.5 30.8-1.5s-24.8 4.5-50 3.6c-13.5-.6-20.3-1.2-23.6-1.5-.9-1.2-1.8-2.1-2.4-3.3zM1676.8 670.6c9.6.9 23 1.5 29.6 1.2 11.1-.9 16.2-1.2 16.2-1.2s-10.8 3.6-25.4 3.3c-7.5-.3-15-.6-20.9-.9.3-.6.3-1.2.6-1.8-.1-.3-.1-.3-.1-.6zM1677.1 375c9 .6 19.4 1.2 25.1.6 11.1-.6 16.2-.9 16.2-.9s-10.5 3.3-25.4 3c-5.1 0-10.2-.3-15-.6-.3-.6-.6-1.5-.9-2.1zM1669.9 364.8c10.2.3 23 .9 33.2.6 18.3-.3 29 .3 29 .3s-17.7 3-42.8 2.1c-6.9-.3-12.6-.6-17.1-.6-.6-.9-1.5-1.5-2.1-2.1l-.2-.3zM1685.2 410.6c10.2.3 23.9.6 34.4.3 18.3-.3 29.3.3 29.3.3s-18 3-43.1 2.1c-8.1-.3-14.4-.3-19.4-.6-.3-.6-.6-1.5-1.2-2.1zM1616.7 273.5c9.9.3 29.3.9 36.8.3 9.9-.6 38.6 1.5 44.6 1.2s-12 1.5-24.8.9c-13.2-.9-27.8 0-43.4.3-5.7.3-10.2 0-13.2-.3v-2.4zM1751 111c6.6.6 35.9 3.3 96.9-1.5 55.4-4.5 73.6-8.4 78.7-9.6-5.7 1.8-23.6 7.2-54.2 10.5-18.9 1.8-42.5 4.2-61.9 5.1s-34.7.6-42.2-.3c-14.4-1.2-13.8-.9-17.1-.9-.2-1.2-.2-2.1-.2-3.3zM1875.5 620.9l51.2-6c-12 1.8-41.9 6.3-66.4 9.9-31.1 4.5-120.3 3.6-120.3 3.6 2.4-3.9 26.6-1.8 53.9-2.4 34-.9 73.2-3.9 81.6-5.1zM1719.6 609.2c11.7 0 38-.3 42.8 0 6 .3 13.8 0 13.8 0s-46.7 1.8-57.2 2.1c.3-.6.6-1.5.6-2.1zM1720.2 587.7c20.6-.3 77.5-.6 87.4 0 12.3.6 27.5-.3 27.5-.3s-98.1 4.2-114.3 4.8c-.3-1.5-.3-3-.6-4.5zM1538.3 819.9c9.9.3 34.1 1.2 50.9.9 21.2-.3 33.8.3 33.8.3s-20.6 3-50 2.1c-12-.3-20.9-.6-26.9-.6-3.6-.9-6.3-1.8-7.8-2.7zM1635.2 772.6s-32.6 1.5-42.5.9c-4.5-.3-12.3 0-20.3.3-.9.6-2.4 1.2-3.9 1.8 1.5-.3 3-.3 4.2-.3 13.2-.9 28.1.3 43.4.6 15.6.3 20.6-1.5 20.6-1.5l-1.5-1.8zM1900.6 464.7c-2.7.6-8.7 1.5-18.6 2.1-15.6 1.2-41 2.4-78.1 1.2-70.3-2.1-80.8-6.3-80.8-6.3s18.9 6.6 56.3 8.4c18.6.9 41.3.3 60.7.3 19.4 0 27.5.3 34.7-.6 3.4-.6 15.7.9 25.8-5.1zM1658.3 501.2c10.2.3 28.7.9 35.6.3 9.9-.6 38.6 1.5 44.6 1.2s-11.7 1.5-24.8.9c-12.9-.9-27.8 0-43.4.3-2.7.3-5.1.3-7.2 0-1.2-1.2-3-1.8-4.8-2.7zM1598.4 743.6c18.3.9 47.3 2.1 69.1 1.8 34.4-.3 57.5-1.5 57.5-1.5s-46.4 4.5-93.4 3.6c-22.1-.3-34.4-.9-41.3-1.5 2.4-.9 5.1-1.5 8.1-2.4zM1581.7 752.6c9.3.6 26.9 2.1 35 1.5 11.1-.9 16.2-1.2 16.2-1.2s-10.8 3.6-25.4 3.3c-10.2-.3-20.6-.9-26.6-1.2.2-.9.5-1.8.8-2.4zM1712.4 837s86.2 0 144.8-7.5l58.9-7.2s-15.3 4.2-67.6 10.5c-52.1 6.6-92.8 7.5-136.7 7.5s.6-3.3.6-3.3zM1781 869.3s-32.6 1.2-42.5.6c-2.7-.3-6.3-.3-10.2 0 .9.3 1.5.9 2.1 1.2l.6.3c9.9 0 20.3.6 30.8.9 15.6.3 20.6-1.5 20.6-1.5l-1.4-1.5zM1817.2 720.3s29.9 3 41.3 2.1c11.1-.9 15.9-1.2 15.9-1.2s-10.5 3.6-25.4 3.3c-14.7-.3-31.1-1.5-31.1-1.5l-.7-2.7zM1530.2 792.1c14.7.6 49.1 2.1 64 1.5 19.2-.6 27.5-.9 27.5-.9s-18.3 3.3-43.7 3c-20.3-.3-42.5-.9-50.6-1.2.6-.9 1.5-1.5 2.4-2.1.1-.3.4-.3.4-.3z"/></g><path fill="#71584B" d="M860.5 775.9s2.1-1.2 4.5-4.5c2.4-3 6-13.2 7.2-21.8 1.2-6.9-2.4-15-1.5-23.3.3-3.9-4.5-15.6-4.8-26.9-.9-12 3.3-26.9-4.8-33.8-3.3-2.7-10.8-7.5-19.2-5.4-4.8 1.2-8.1 2.4-11.7 5.4-2.7 2.1-6.6 5.1-8.7 9.6-6 13.5-11.7 23-9.9 44.9 1.8 21.5 13.2 35 11.1 45.2-2.1 10.5 6.3 12 16.8 9 2.7-.9 5.4 1.8 7.8 1.8 7.6.1 13.2-.2 13.2-.2z"/><path fill="#433A34" d="M832.4 768.4c-1.2-2.1-2.1-3.9-2.7-6-.9 1.5-1.8 2.1-2.4.9-.9-1.8-1.5-9.9-1.5-14.7-.6-3-.9-6-1.2-9-1.5.9-3.3 2.1-3.3-.9 0-3.3 1.8-12.3 2.7-17.1v-2.7c-1.2 0-2.4-.6-2.4-1.8 0-2.1 2.1-10.5 3-15 .3-3 .9-6.3 2.1-9 1.2-3.9 4.2-4.5 6.9-5.7 3.3-.9 6.6-1.5 10.5 1.8 3.3 3 5.1 7.8 5.7 11.7 0 2.1-.9 6-.6 8.7.6 6 2.1 10.8-3.6 12.3.3 1.2.6 5.1 1.2 7.2.9 4.2-1.8 2.7-2.1 3.9-.3 2.1 5.7 10.8 0 10.8.9 4.2 2.1 6.3-1.2 11.7-.9 1.8 1.5 3.6.9 6-.3 1.2-4.5 4.2-5.1 5.7-2.7 6-2.7 8.7-6.9 1.2z"/><path fill="#F1D6C4" d="M851.6 673.3l.9.9c6.6 5.1 13.8 6.3 20 5.4.6-.3 1.5-.3 2.4-.6 1.8 1.8 3.6 3 3.6-1.2 6.6-3 4.5-7.5 8.7-12.9 4.8-6.9 9.9-9 10.2-15 0-3 .9-8.1-2.7-12.3-1.8-1.8-3-2.4-4.5-3.3 0-.3-.3-.9 1.2-1.8 1.2-.6 3.3-.6 3.3-.6s-3-.9-3.9 0c-1.2.9-1.8.9-1.8.9s-1.2-2.7-2.7-3-2.4.3-2.4.3 3 .3 3.6 2.4c.6 1.8-2.1-1.5-4.2.6s.9-.9 3.3.6c-.9.3-1.8.9-2.4 1.5-1.8 1.2-3.6 1.5-4.8 2.1-2.4.9-5.7 6.6-4.5 13.2.6 2.7 4.2 3.3 5.1 5.1 1.8 3.3.9 7.8-.3 12s-1.5 3.9-4.8 5.7c-6.3 3-14.4.3-20.6-4.2-.3 0 .3-.9.3-.9-1.8-1.2-2.4 1.8-3 2.1s-1.5 2.1-1.2 3c0 .6 1.2 0 1.2 0z"/><path fill="#FFF56E" d="M891.7 658.9c4.8-1.5 10.5 5.7 7.5 8.7 4.5-1.5 7.8-6 5.4-12-2.1-4.5-8.1-6-8.1-6s-.9-2.1-1.8.6c-.9 2.4-4.8 7.8-4.2 9.3.3 1.5 1.2-.6 1.2-.6z"/><path fill="#231F20" d="M894.4 642.2c.3-.3.6-.3.6 0 .3 0 0 .3 0 .6 0 0-.6.6-1.8.9-.9.6-2.1.6-3 .6-1.8-.3-2.4-.9-3.6-2.1 0-.3-.3-.6 0-.6 0-.3.3-.3.6 0 1.2 1.2 2.1 1.5 3 1.8.9 0 1.5-.3 2.1-.3 1.2-.3 2.1-.9 2.1-.9zM907.2 642.5s.6-.3.6 0c.3.3 0 .6 0 .6s-.6.6-1.8 1.2c-.9.6-2.1.6-3 .6-1.8-.3-2.4-.9-3.6-2.1-.3-.3-.3-.6-.3-.9.3 0 .6 0 .9.3 1.2.9 2.1 1.5 3 1.5s1.5 0 2.1-.3c1.2-.3 2.1-.9 2.1-.9z"/><path fill="#71584B" d="M1608.6 743.6s-1.5-.9-3-3-3.9-9-4.8-14.7c-.9-4.8 1.5-10.2.9-15.9 0-2.7 3-10.5 3.3-18 .6-8.1-2.1-18.3 3.3-23 2.1-1.8 7.2-5.1 12.9-3.6 3.3.9 5.4 1.8 7.8 3.6 2.1 1.5 4.5 3.6 5.7 6.6 4.2 9 8.1 15.6 6.9 30.2-1.2 14.7-10.2 26.3-8.7 33.2 1.5 7.2-3 5.1-10.2 3.3-1.8-.6-3.6 1.2-5.1 1.2-5.1.1-9 .1-9 .1z"/><path fill="#433A34" d="M1627.7 738.5c.6-1.2 1.2-2.7 1.8-3.9.6.9 1.2 1.5 1.5.6.6-1.2.9-6.6 1.2-9.9.3-2.1.6-4.2.6-6.3.9.9 2.1 1.5 2.1-.6s-1.2-8.1-1.8-11.4v-1.8c.9 0 1.8-.3 1.8-1.2 0-1.5-1.5-6.9-2.1-9.9-.3-2.4-.6-4.5-1.2-6.3-1.2-2.7-3-3-4.8-3.6-2.4-.9-4.5-1.2-6.9.9-2.4 2.1-3.9 5.4-3.9 8.1-.3 1.2.6 3.9.3 5.7-.3 4.2-1.5 7.2 2.4 8.4-.3.6-.3 3.3-.9 4.8-.6 2.7 1.2 1.8 1.5 2.7.3 1.2-3.9 7.2 0 7.2-.6 2.7-1.2 4.2.9 7.8.6 1.2-1.2 2.4-.9 3.9.3.9 3.3 3 3.6 3.9 1.9 4.2 1.9 6 4.8.9z"/><path fill="#F1D6C4" d="M1614.9 674.5c-.3.3-.6.3-.6.6-4.5 3.3-9.6 4.2-13.5 3.6-.6-.3-1.2-.3-1.8-.3-1.2 1.2-2.4 1.8-2.4-.9-4.5-2.1-3.3-5.1-6-8.7-3-4.5-6.6-6-6.6-10.2-.3-1.8-.6-5.4 1.8-8.1 1.2-1.5 2.1-1.8 3.3-2.7.9-.3 2.1 0 3.6.9 1.2.9 2.4 1.2 3.3 1.5 1.5.6 3.9 4.5 3 8.7-.3 1.8-2.7 2.4-3.6 3.6-.9 2.4-.6 5.4.3 8.1.9 2.7 1.2 2.7 3.3 3.9 4.2 2.1 9.9 0 13.8-2.7.3-.3-.3-.6 0-.9.9-.6 1.5 1.5 1.8 1.5.6.3.9 1.5.9 2.1 0 .3-.6 0-.6 0z"/><path fill="#FFF56E" d="M1587.7 664.9c-3-1.2-6.9 3.6-4.8 5.7-3-1.2-5.4-3.9-3.9-8.1 1.5-3 5.7-3.9 5.7-3.9s.3-1.5 1.2.3c.6 1.5 3 5.4 2.7 6.3-.3.9-.9-.3-.9-.3z"/><path fill="#231F20" d="M1585.9 653.5c0-.3-.3-.3-.3 0-.3 0-.3 0 0 .3 0 0 .3.3 1.2.6.6.6 1.2.6 1.8.6 1.5-.3 1.8-.6 2.4-1.5.3-.3.3-.3.3-.6-.3 0-.3 0-.6.3-.6.6-1.5.9-2.1.9h-1.2c-.9-.3-1.5-.6-1.5-.6zM1577.2 653.8c0-.3-.3-.3-.3 0-.3 0 0 .3 0 .3s.3.3 1.2.9c.6.3 1.2.3 2.1.3 1.2-.3 1.5-.6 2.1-1.5.3 0 .6-.3.3-.6 0 0-.3 0-.6.3-.6.6-1.2.9-2.1.9-.3.3-.9 0-1.2 0-.9-.3-1.5-.6-1.5-.6z"/><path fill="#B28972" d="M906.9 780.4c-4.2-3-38-3.6-40.7-5.7-.9-.3-27.2 1.2-37.1-1.8-17.4-5.4-23-16.5-27.8-17.4-6-1.5 4.2-5.7-2.1-7.5-8.4-2.4 5.1-1.8-3.6-3.6-11.7-2.7-8.1-9.3-15-16.2-12.9-12.3-23-27.8-28.4-44.9-1.5-5.1 1.8-11.1 0-15.9-1.5-4.5-7.5-9.9-6-15.9 1.2-4.8 9.9-10.2 9.9-14.4 0-2.1-3-4.2-3.6-6.3-1.8-6 0-12.3-1.5-17.4-1.2-3.3-5.4-5.7-7.2-8.4-3-3.9-11.7-6-13.2-9.9-1.2-2.7-.9-6.6-1.5-9.6-.3-3.9 3.3-10.5 3.6-16.2 0-5.7-3-10.2-1.5-14.4 2.1-5.1 7.2-4.2 8.4-8.4 2.1-6.9-.9-11.1-1.2-14.4-.6-5.4 1.5-15 1.2-24.5-.3-7.8-3.3-15.3-1.8-21.2 1.2-6.3 8.4-9.6 9.9-13.5s-3-8.7-3.3-14.4c0-2.4 2.1-4.8 1.2-6.9-2.4-7.5-9.6-13.8-6-20 3.9-6.6 4.5-12.3 14.7-15.3 7.8-2.7 25.1-3.6 29.6-3 5.1 1.2 26.6 4.2 36.5 3s8.7-6.6 15.3-8.4c17.4-4.8-28.7-12.3-16.5-17.1 6-2.4 7.8-5.1 12.6-5.1 10.5 0 44-2.1 59.5-4.8 15.9-2.4 7.2-7.5 14.7-13.2 15-11.4-70.6-13.5-67.9-29.3 1.5-7.2.9-12.9-10.2-16.2-12.9-3.9-38-5.1-62.2-6.6-4.5-.3 1.8-3.6-7.2-5.1-14.7-2.1-40.4-6.6-47.3-10.8-11.4-7.8-9.3-10.5-13.2-20.9-3.3-8.4-17.7-20.3-26.6-27.8-8.1-6.9-16.5-13.8-25.1-20-6.3-4.5 3.9-7.5-3-9.9-17.1-6-52.7-6.3-72.7-10.8-5.4-.9-9.9-2.4-14.7-4.2-9-3.3-18.3-8.1-32.3-14.1-6.6-2.7-17.1-4.5-20.6-7.8-3.6-3.6-.3-8.7-8.1-10.8-5.4-1.5-24.2-9.3-30.2-9.3-13.2-.3-23-3.3-43.1-13.8-8.4-4.2-18.6-4.2-24.2-11.1-5.1-6-4.5-16.8-12.3-20.3-5.1-2.3-40.1-31.9-47.1-63-12.4-55 2.6-124.8-5.2-128.1-16.8-7.2-32.9 23.9-48.8 16.8-87.4-37.7-272 0-272 0L-99.2 70.9l-5.5 1136.4 983.2-13.9-2.7-115.7c-.9-6-2.4-12.6-4.5-19.7-2.7-8.1-13.5-14.1-19.7-23.9-4.8-6.9-9-17.7-7.2-24.5 1.2-5.1-6.3-10.2-7.2-14.7-.9-5.7 2.1-11.4.3-16.8-1.8-5.1-8.7-10.2-7.8-14.7 2.1-12 13.8-21.2 14.1-26 .6-3.3 12.9-9 6-16.5-5.4-5.7-30.2-12.6-33.2-19.4-3.6-6.9 3-14.4 3.3-21.2 0-5.7-10.8-10.2-5.4-14.7 6.9-5.7 30.5-11.1 32.6-18.6 1.8-6-4.5-10.8 3.9-15.3s31.7-9 31.4-14.7c-.3-6.3 15-15.9 12-21.5-2.1-3.7 19.7-10 12.5-15.1zM664.5 566.8c-6.9 2.4-24.2 3-29 4.8-3.3 1.5 2.7 3 1.2 3.9-8.1 4.2-32.6 5.4-42.5 7.5-7.2 1.5-12.9 5.1-14.7 11.7-.6 3-4.5 7.8-4.5 12.6 0 3.3 4.5 6.3 3.6 11.1-1.5 9-8.7 22.7-8.4 31.7 0 6.6-6.9 12.9-5.7 18.6 1.8 7.8 11.4 15 12 21.2.6 6.6-4.2 11.4-2.1 16.2 3.9 8.7 15.3 13.5 15.3 13.5s8.1 5.4 4.2 19.7c-.6 2.1-8.1 2.7-9 5.1-1.5 4.8-15.9 8.7-29 11.1-9 1.8-17.7 3-21.2 3.3-13.5 1.5.6-4.5-12.3-14.4-3.9-3-21.8-6.3-24.8-9.6-6.3-7.5 0-18.6 0-28.1 0-5.1-12.3-12.3-14.4-17.7-2.1-4.8 6-8.1 4.5-14.4-1.5-5.7-6.6-10.5-8.1-15.6-1.5-5.4-.9-12.3-2.1-17.4-1.8-7.8-9-11.7-11.1-18.9-1.8-6.3-1.5-14.4-2.4-22.7 0-1.5 1.8-3.9 1.5-5.4-.3-1.8-7.2-3-8.1-4.8-1.8-3.9 1.2-8.1 0-12.3-.6-3.9-11.4-6.9-12.6-10.5-.6-2.1 12-5.4 11.4-7.5-1.8-4.8-12.3-9.3-13.5-13.2-.6-2.1 7.2-4.2 8.1-6 .9-2.4-2.1-3.3 2.4-4.2 3.3-.9 14.1-1.5 16.2-2.4 6.6-2.4 22.1-1.5 30.2-2.1 8.4-.6 34.7-2.7 41.3-2.7 5.4.3-9.6 2.4-2.7 3.3 5.4.6 11.4.6 17.7.3 9.3-.3 19.2-1.8 28.1-2.7 8.1-.9 8.4-2.4 16.5-2.4 2.7-.3 11.7.9 14.7.6 3.6 0 17.7-.6 20.6.6 5.4 1.5-1.5 6 .9 9.9.9 1.8 12 3.3 13.2 5.7 1.8 4.2 19.7 8.4 18.6 12.9-1 3.1 2.9 7.3-4 9.7z"/><g fill="#9B7461"><path d="M471.8 428.8s-105-2.1-136.7-10.8l-32-8.4s35.9 15 84.4 18.6c25.7 1.8 61.6 3.9 76.9 3.6 13.4-.3 7.4-3 7.4-3zM443.7 667s-105-2.1-136.7-10.5l-31.7-8.7s35.6 15.3 84.1 18.6c25.7 1.8 61.9 3.9 76.9 3.6 13.4-.3 7.4-3 7.4-3zM525.1 922.2s-105-1.8-136.7-10.5l-31.7-8.7s35.6 15.3 84.1 18.6c25.7 2.1 61.9 4.2 76.9 3.9 13.4-.3 7.4-3.3 7.4-3.3zM581.1 939.6c-6.6 1.2-35.6 5.1-96.6 3.3-70.3-2.1-80.8-6.3-80.8-6.3s18.9 6.3 56.3 8.4c18.6.9 42.5 2.1 61.9 2.1s34.7-1.2 42.2-2.4c14.4-1.8 13.8-1.5 17.1-1.8.2-1.2.2-2.1-.1-3.3zM844.1 346.5c-20.6 1.5-50.9 3.3-87.1 4.5-34.7 1.2-72.4 5.4-115.2 5.1-33.5-.3-62.8-5.4-82.9-5.4-57.5-.9-65.8-1.5-65.8-1.5s50.9 4.2 75.1 4.8c10.2 0 41.9 4.8 76.9 4.8 47.6.3 101.4-3 114.3-3.9 15.3-.9 63.1-3.6 93.1-5.4-3-.9-6-1.8-8.4-3zM709.4 299c-29 3-81.1 7.8-111 6.3-42.8-2.7-160.1-27.5-160.1-27.5s69.1 14.1 104.7 16.5c35.3 2.4 38.3 12 118.8 4.8 17.7-1.5 31.7-2.7 42.8-3.9 1.2 1.1 2.7 2.6 4.8 3.8zM645.1 375s-11.1 2.1-71.2 1.2c-13.5-.3-28.7 1.5-47.9 1.2-11.1-.6-18.6.9-28.4.6-80.8-3.6-120.6-12.9-120.6-12.9s55.7 15.6 132 16.2c76.3.2 136.1-6.3 136.1-6.3zM644.2 228.3c-10.2-.3-22.7-.9-28.1-1.5-9.9-1.2-38.9-.6-44.9-1.5-5.7-.9 12 2.4 24.8 2.1 13.2 0 27.8 2.1 43.4 3.3 2.1 0 4.2.3 6 .3-.9-.9-1.2-1.8-1.2-2.7zM671.7 252c-16.2 0-89.5-.9-141.5-7.5l-58.9-7.2s15.6 4.2 67.6 10.5c52.4 6.3 92.8 7.5 136.7 7.5l-3.9-3.3zM480.5 198.1s-54.5-.3-91.9-6l-37.4-5.7s9.9 3.3 43.1 8.4c32.9 5.1 58.6 6 86.5 5.7 28.2 0-.3-2.4-.3-2.4zM444.6 161.6c-5.4 0-10.8-.3-14.4-.3-4.8-.6-17.7-.6-30.5-1.2-15-.9-28.7-3-28.7-3s18.6.3 38 .9c6 0 17.7.6 27.5.6 3 1.2 5.7 2.1 8.1 3zM397.3 140.4c-9 .6-19.7 1.2-25.4.9-11.1-.9-16.2-1.2-16.2-1.2s10.8 3.3 25.4 3c6.3 0 12.9-.3 18.6-.6-.9-.6-1.5-1.2-2.4-2.1zM739.4 481.2s-85.9-.3-144.8-7.8l-58.9-7.2s15.6 4.2 67.6 10.5c51.8 6.6 91.9 7.5 135.5 7.5.6-.9 1.2-2.1 2.1-3h-1.5zM744.7 460.2c-2.7 0-4.8 0-6.6-.3-4.8-.3-18-.6-30.8-1.2-14.7-.6-28.7-3-28.7-3s18.6.6 38 1.2c6 0 18.3.3 28.1.3 0 .6-.3 1.2-.3 1.8 0 .3.3.9.3 1.2zM833.6 971.9c-15.6 0-89.5-.9-141.8-7.5l-58.9-7.2s15.6 4.2 67.6 10.5c51.8 6.6 91.9 7.5 135.5 7.5-.9-.9-1.5-2.1-2.4-3.3zM837.8 980c-3.6.3-28.7 3-45.8 2.7-18.6-.3-30.8-1.5-30.8-1.5s24.8 4.5 50.3 3.6c22.4-.9 26-2.1 26.6-2.1 0-.9 0-1.8-.3-2.7zM837.2 989.9c-9.6.9-26.3 2.1-34.4 1.5-11.1-.9-16.2-1.2-16.2-1.2s10.8 3.6 25.4 3.3c9.3-.3 18.9-.9 25.1-1.2.1-.9.1-1.5.1-2.4zM816.9 890.5c-16.8.6-80.2 2.4-128.4-3.3l-56.3-6.6s40.4 6 71.5 10.5c25.1 3.6 89.2 3.6 111.9 3.6.4-1.5 1-3 1.3-4.2zM818.3 876.5c-12.9 0-33.8-.3-38 0-6.3.3-14.1 0-14.1 0s38 1.5 53 2.1c0-.6-.6-1.5-.9-2.1zM829.7 854.9s-82.6-.6-94.9 0-27.5-.3-27.5-.3 103.5 4.5 115.5 4.8c12 0 6.9-4.5 6.9-4.5zM617.3 795.1s-86.2-.3-144.8-7.5l-58.9-7.5s15.3 4.2 67.6 10.8c52.1 6.3 92.8 7.5 136.7 7.2 44 0-.6-3-.6-3zM727.7 801.4s-104.4 12.9-137.3 9l-32.6-3.9s37.7 9.9 86.2 6.3c25.4-1.8 61.6-4.8 76.6-7.2 13.4-2.2 7.1-4.2 7.1-4.2zM570.3 649.3c7.2.3 29.9 1.2 45.5.9 18.3-.3 29.3.3 29.3.3s-18 3-43.1 2.1c-18.9-.6-28.4-.9-32-.9 0-.6.3-1.2.3-1.8v-.6zM567.3 658.9c9 .9 27.8 2.4 36.2 1.8 11.1-.9 15.9-1.2 15.9-1.2s-10.5 3.3-25.4 3c-10.8 0-22.4-.9-27.8-1.2.2-.6.5-1.5 1.1-2.4zM463.5 593.1c-8.7.6-28.1 2.1-36.8 1.5-11.1-.9-16.2-1.2-16.2-1.2s10.8 3.6 25.7 3.3c12-.3 24.8-1.2 29.3-1.5v-.6c.1-.6-.8-1.2-2-1.5zM457.2 583.8c-9.6.3-21.8.6-31.1.6-18.6-.6-29.3 0-29.3 0s17.7 3 43.1 2.1c6.9 0 12.6-.3 17.1-.3-.1-.9.2-1.5.2-2.4zM450.9 537.1h-7.5c-10.2-.6-38.9 1.2-44.9.9-6-.6 12 1.5 24.8.6 8.7-.3 18-.3 27.5.3.1-.9-.2-1.5.1-1.8zM575.4 608.7c12-.3 35.6 1.5 41 1.2 6-.6-12 1.5-24.8.6-5.1-.3-10.2-.3-15.6-.3-.3-.4-.6-1-.6-1.5zM636.1 575.7c9.9-.6 38.6 1.5 44.6 1.2 6-.6-12 1.5-24.8.6-8.1-.3-16.5-.3-25.4 0 2-.6 4.1-1.2 5.6-1.8zM737.9 601.2c-10.2.3-22.7.3-28.1 0-10.2-.6-38.9 1.5-44.9 1.2-6-.6 12 1.5 24.8.6 13.2-.6 28.1.3 43.4.6h9c-1.3-.9-2.7-1.8-4.2-2.4zM751.9 682c-9 0-23 0-29.9-.3-4.8-.6-17.7-.6-30.5-1.2-15-.9-28.7-3-28.7-3s18.6.3 38 .9c7.5.3 24.8.6 35.6.3 6.3-.3 11.7-.6 15.6-1.2-.4 1.5-.4 3-.1 4.5zM758.2 698.4c-6-.3-14.1-.6-21.8-.9-15-.6-28.7-3-28.7-3s18.6.6 38 .9c2.7.3 6.9.3 11.4.3.5.9.8 1.8 1.1 2.7z"/><g><path d="M577.2 599.7c8.4 0 18 0 23-.3 4.8-.3 17.7-.6 30.8-1.2 14.7-.6 28.7-3 28.7-3s-18.9.3-38.3.9c-7.5.3-24.8.9-35.6.3-2.4 0-4.8-.3-6.9-.3-.2 1.2-1.1 2.4-1.7 3.6zM576.3 694.8c7.5 0 15.6 0 20.3-.3 4.8-.3 17.7-.6 30.8-1.2 14.7-.6 28.7-3 28.7-3s-18.9.3-38.3.9c-7.5.3-24.8.9-35.6.3-1.8 0-3.9 0-5.7-.3.1 1.2.1 2.4-.2 3.6zM496.1 731.6h-11.4c-3.6-.3-12.6-.6-22.1-.9-10.5-.6-20.3-2.1-20.3-2.1s13.2.3 27.2.6c5.4 0 17.7.6 25.4.3h.3c.3.6.3 1.5.9 2.1zM535 758.6zm-5.7 0c-6.3.3-16.5.3-21.2 0-3.6-.3-12.6-.6-22.1-.9-10.5-.6-20.3-2.1-20.3-2.1s13.2.3 27.2.6c5.4 0 17.7.6 25.4.3 3.9-.3 7.2-.6 10.2-.9-.4 1.8-.4 2.7.8 3zM520.3 743c-3.9 0-12.3-.3-20.9-.6-10.5-.6-20.3-2.1-20.3-2.1s13.2.3 27.2.6c2.1 0 5.1.3 8.7.3 2 .6 3.8 1.2 5.3 1.8zM496.7 714.9c-3.6 0-7.5-.3-11.7-.3-10.5-.6-20.3-2.1-20.3-2.1s13.2.3 27.2.6h5.1c-.3.6-.3 1.2-.3 1.8zM485.3 691.8c-4.5 0-11.7-.3-19.2-.6-10.5-.6-20.3-2.1-20.3-2.1s13.2.3 27.2.6c2.4 0 6.6.3 10.8.3.3.6.9 1.2 1.5 1.8z"/></g></g></svg>