<svg xmlns="http://www.w3.org/2000/svg" viewBox="0 0 1920 1080"><path fill-rule="evenodd" clip-rule="evenodd" fill="#A37B62" d="M377.7-108.7L371.3-1.2C368 6 349.2 19.2 346.2 29.4c-2.4 7.2 4.8 11.7 2.7 20-.6 2.7 5.1 4.5 4.5 7.5-.6 2.7-3 15.6-3.3 18.3-1.2 5.1-1.5 12.3-4.5 15-5.1 4.5-13.5 3.6-18.6 8.7-5.7 5.4-8.1 14.7-9.6 30.5-.9 7.5 2.1 12.9 1.8 20-.3 3.9 6.6 7.5 6.3 11.4-.3 6.3-.3 12.9-.6 18.9 0 18-6.3 35-3.9 45.2.9 3.3 9 4.8 9.6 7.8 3 12 12.9 20.9 15.6 30.5 2.1 8.7-5.7 23.3-3.6 30.5 3 10.8 8.4 14.7 10.8 23 3.6 12.6 6.6 23.3 9 33.8 2.4 10.8 3.9 21.5 5.1 34.1.3 4.8.6 10.2.9 15.6.3 7.5.3 14.7.3 21.8 0 6-.3 12.3-.6 18.3 0 5.1-.3 10.5-.6 15.6-.3 6.9-6.3 8.4-6.6 15.3 0 5.7-.3 11.7-.3 17.7 0 3-.3 6.3-.3 9.6s.3 6.9.3 10.2c.3 13.5 4.5 33.2 6.3 49.4 1.2 8.4 4.8 17.4 6.6 26.6.6 3.9-4.8 6-4.5 9.9.9 6 7.2 13.2 7.5 18.9.3 6.6-2.7 7.8-3 14.7 0 6.9 2.4 19.2.9 24.5-3.3 11.7-9.6 18.3-12 30.2-1.8 7.5 2.1 18.9.9 26.6-1.8 10.2-5.7 20-4.8 31.7 0 1.5 4.5 4.5 4.8 6 .9 11.4 3.3 23.6 7.5 37.1 2.4 6.9 13.5 10.5 13.8 17.1.3 7.5-1.5 10.8-3.3 18.9-1.2 6-7.2 13.2-7.5 20.6-.6 9.6 4.8 20 9 29.6 3.6 8.4 22.7 18.6 32.9 30.5 4.8 5.4 2.4 14.1 5.1 18.3.9 1.2 1.8 2.7 2.7 4.2 5.7 7.8 15 15.6 22.4 23.9.9.9-.6 3 0 3.6 4.5 5.1 8.7 9.9 12.9 14.4 8.7 9.9-6 19.4 5.7 29.3 7.8 6.6 43.4 13.2 52.4 19.7 12 9 9.6 17.7 24.5 26.3 10.5 6 39.5 12.3 51.5 18.6 5.7 2.7 50.3 173.5 63.4 181.6h-790V-108.7h511.4z"/><g fill-rule="evenodd" clip-rule="evenodd" fill="#795E4D"><path d="M445.8 950.4c-15.3 3-35.9 6.6-63.1 9.6-69.7 8.4-80.8 6-80.8 6s19.7 3.6 57.2-.3c18.6-1.8 42.2-4.2 61.3-6.9 11.1-1.8 20.6-3.6 28.1-5.1-.9-.9-1.8-1.8-2.7-3v-.3zM274.4 960.8s-105 5.4-137.3-.9l-32.3-6.3s36.8 12.6 85.3 12.6c26 0 62.2-.6 77.2-2.1 13.3-1.2 7.1-3.3 7.1-3.3zM419.8 916.6c-6 .9-32.6 3.6-41.3 3.6-9.9 0-38.6 4.5-44.6 4.5s12 .6 24.8-1.2 27.8-1.8 43.4-2.4c10.2-.6 15.9-1.8 18.6-2.4-.6-.7-.6-1.3-.9-2.1zM531.7 1032.4c-28.1 2.7-120.3 10.2-228.6 11.1-130.2.9-145.4 0-145.4 0s51.2 3.6 75.4 3.6 168.8-1.8 191.2-3.6c18.9-1.5 88.6-5.7 111.3-6.9-1.5-1.6-3-2.8-3.9-4.2zM525.7 1023.7c-6.9.6-27.2 2.1-35.6 2.1-4.8 0-18 .9-30.8 1.2-15 .3-29-.9-29-.9s18.9-.9 38.3-1.8c7.5-.3 24.8-.9 35.3-2.1 8.1-.9 14.1-2.1 18.6-3 1.1 1.5 2 3 3.2 4.5zM373.7 840.2c-12.9.9-89.2 5.4-143 2.4l-59.2-3s15.6 3 68.2 5.7c51.5 2.7 91.3 1.2 134.1-1.8v-3.3zM374.3 848c-8.4 1.2-29.6 3.6-44 4.2-18.6.9-29.3 2.4-29.3 2.4s18 1.8 43.1-.9c17.1-2.1 26.6-2.7 30.8-3-.3-.9-.3-1.8-.6-2.7zM377.3 857.9c-9.3 1.5-26 3.9-34.1 3.9H327s10.8 2.7 25.7 1.2c9.6-.9 19.7-2.1 25.7-3-.5-.6-.8-1.5-1.1-2.1zM371 784.3c-10.8 1.8-44 6-93.1 4.8-59.8-1.5-79.3-1.5-79.3-1.5s68.8 3 94.3 3.9c20.3.3 63.1-2.1 80.5-3.3-1.2-1.2-1.8-2.4-2.4-3.9zM358.4 741.5c-8.7.9-31.4 2.7-69.1 2.7-49.4 0-71.2-2.1-71.2-2.1s29.9 6 83.8 4.5c43.4-1.5 57.2-.6 61-.3-.9-1.5-3.6-3.3-4.5-4.8zM274.4 753.2s-41.3 0-74.2-2.1c-32.9-2.4-53.9-5.4-53.9-5.4s31.4 6 47.9 8.4c16.5 2.1 75.7 2.1 75.7 2.1l4.5-3zM362 684.7c-21.5-1.2-74.5-3.9-84.1-3.9-12 0-26.9-1.5-26.9-1.5s92.2 8.4 111 9.6c-.3-1.6-.3-3 0-4.2zM365.6 672.4c-10.5-.6-39.2-2.1-44.3-2.1-6 0-13.8-.9-13.8-.9s47.3 4.5 57.2 5.1c.3-.6.6-1.2.9-2.1zM368.9 593.4c-15.3-.3-80.2-1.2-129.3-9.6l-55.7-9.6s39.8 8.1 70.6 14.1c26.6 5.1 96.4 8.4 115.2 9.3-.3-1.2-.6-2.4-.9-3.3.1-.3.1-.6.1-.9zM372.2 579.3c-12.3-.6-35.9-1.8-40.4-1.8-6 0-13.8-.9-13.8-.9s41.3 3.9 54.8 5.1c-.3-.9-.3-1.5-.6-2.4zM366.8 557.5c-24.5-1.2-70.3-3.6-79-3.6-12.3 0-27.5-1.5-27.5-1.5s80.2 7.2 107.4 9.6c-.3-1.5-.6-3-.9-4.2v-.3zM362.6 465.3c-14.7-.6-50.6-2.7-57.2-2.7-8.1 0-18.3-.9-18.3-.9s58.6 5.4 74.2 6.6c.4-1.2 1-2.1 1.3-3zM360.5 484.2c-16.2-.9-35.9-1.8-40.7-1.8-8.1 0-18.3-.9-18.3-.9s35.6 3.3 58.9 5.4v-2.7zM403.6 889.3c-1.5.3-3 .3-4.5.3-15 .3-29-.9-29-.9s14.1-.9 30.5-1.5c.9.6 2.1 1.5 3 2.1zM362 714c-4.8.3-10.5.3-15.9.6-15 .3-29-.9-29-.9s18.9-.9 38.3-1.8c1.8 0 4.2-.3 7.2-.3 0 .9-.3 1.5-.6 2.4zM345.9 262.1c-18 0-67.9 0-93.1-1.8-31.1-2.7-37.1-2.7-37.1-2.7s26.9 4.5 58 5.7c24.5.6 59.2 1.8 72.7 2.1 0-.6-.3-1.5-.3-2.4-.2-.3-.2-.6-.2-.9zM342.9 255.9c-12.3-.3-33.2-1.5-55.7-4.2l-34.1-3.9s56.3 4.2 88 5.1c.6 1.2 1.2 2.1 1.8 3zM321 224.1c-12.9 0-55.1-1.2-77.2-5.7-26.6-5.7-33.5-6.6-33.5-6.6s70.6 9.9 110.4 8.7c0 1.3 0 2.7.3 3.6zM320.1 152.3c-13.5 0-91.6 0-130.2-6.6-42.2-7.2-156.2-44.9-156.2-44.9S101 122.3 136 128.6s36.8 16.2 117.6 18c32.9.9 53 1.2 65.5 1.5v1.2c-.2.9.4 1.8 1 3z"/><path d="M318.6 141.6c-15.9-.6-55.4-2.7-82.3-5.1-34.1-3.6-47.6-11.4-47.6-11.4s26.9 6.9 50.6 8.4c18.9 1.5 62.2 3.3 78.4 3.9.3 1.5.6 2.7.9 4.2zM317.1 131.7c-9.3-.6-33.8-2.4-47-4.2-17.1-2.4-19.7-3-19.7-3s51.5 3 67 4.2v.6c0 .9-.3 1.5-.3 2.4zM345.6 31.7c-13.8.6-78.1 3.6-108.9-.9L202.6 26l29.3 2.1s39.2 5.7 83.2 1.5c18.6-2.1 27.2-2.1 31.4-1.2-.3.3-.3.6-.3.9-.3.7-.6 1.5-.6 2.4zM349.2 50.3c-6.3-.3-21.5-.6-40.1 0-24.5 1.2-42.5 1.5-42.5 1.5s37.4 0 53.6 1.2c11.1.6 24.8.9 32 .9-1.2-1.2-2.7-2.4-3-3.6zM352.5 19.2c-7.8-.6-27.8-1.5-42.5.3-18.3 2.7-43.7-3.3-43.7-3.3s24.2 3.3 37.4 1.8c12-1.5 36.2-2.7 51.5-1.8-.9 1.2-1.8 2.1-2.7 3zM213.6 598.5s-56 0-116.7-6.9L36.5 585s56.9 12.6 82.9 13.5c26.3.6 68.2 4.8 78.7 2.7 10.4-2.4 15.5-2.7 15.5-2.7zM312.1 731s-41.3-.9-106.8-5.4-189.4-31.4-189.4-31.4 26.9 10.8 53.9 15.3 114.9 19.7 160.7 20.6c45.7.9 81.6.9 81.6.9zM304.9 906.7s-16.5 3-119.7-1.5-148.1-12-148.1-12 55.4 16.5 131.7 18c76.2 1.5 136.1-4.5 136.1-4.5zM228.6 360.6s-65.8 2.4-121.8-5.1L50.5 348s23.3 6.6 70.3 12c47.3 5.1 79.3 3 79.3 3l28.5-2.4zM11.6 188.8c18.9 4.2 42.8 9.3 65.2 13.5 42.2 8.1 77.2 10.8 77.2 10.8s-88.3-3.9-142.4-20v-4.3zM382.7 813.9c-8.4 1.2-17.4 2.4-22.4 2.4h-16.2s10.8 2.7 25.4 1.2c4.2-.3 8.7-.9 12.6-1.2.3-.9.3-1.5.6-2.4zM365 760.1c-9.3 1.5-26.9 4.2-35 4.2h-16.5s11.1 2.7 25.7 1.2c9.9-.9 20-2.1 26-3 .1-.9-.2-1.5-.2-2.4zM425.8 926.1c-9.3 1.2-21.2 2.7-27.5 2.7h-16.2s10.8 2.7 25.7 1.5c6.9-.6 14.1-1.5 19.7-2.1-.5-.9-1.1-1.5-1.7-2.1zM353.1 315.1c-9.6 1.5-25.7 3.6-33.2 3.6h-16.2s10.8 2.7 25.4 1.5c9-.9 18.6-2.1 24.5-2.7l-.3-.9c.1-.6-.2-.9-.2-1.5zM350.7 70.9c-9.6 1.2-23.9 3.3-30.8 3.3h-16.2s10.8 2.7 25.4 1.2c7.5-.6 15.3-1.5 21.2-2.1l.4-2.4zM545.8 1042.5c-7.5 1.5-16.8 2.7-28.1 4.2-35.9 4.2-41.6 3-41.6 3s10.2 1.8 29.3 0c9.6-.9 21.5-2.1 31.4-3.6 4.5-.9 8.7-1.5 12.3-2.1-1.3-.6-2.4-.9-3.3-1.5z"/></g></svg>