<?xml version="1.0" encoding="UTF-8" standalone="no"?>
<svg viewBox="0 0 2291 1088" version="1.1" xmlns="http://www.w3.org/2000/svg" xmlns:xlink="http://www.w3.org/1999/xlink" xmlns:sketch="http://www.bohemiancoding.com/sketch/ns">
    <!-- Generator: Sketch 3.3 (11970) - http://www.bohemiancoding.com/sketch -->
    <title>2-01-bat</title>
    <desc>Created with Sketch.</desc>
    <defs></defs>
    <g id="Page-1" stroke="none" stroke-width="1" fill="none" fill-rule="evenodd" sketch:type="MSPage">
        <g id="2-01-bat" sketch:type="MSLayerGroup" transform="translate(-0.136426, 0.000000)">
            <g id="Warstwa_2" fill="#142126" sketch:type="MSShapeGroup">
                <path d="M2290.5,604.3 L2290.5,1065.8 L0.8,1087.8 L0.8,630.7 C3,631.3 5.2,631.6 7.6,632 C22.3,633.8 272.6,622.7 294.4,619.4 C301.2,618.3 308.2,616.5 308.9,608.6 C309.1,605.8 308.2,603.5 306.5,602.9 C303.6,601.8 302.5,605.5 302.5,607.5 C302.5,607.5 300.7,607.3 301.4,604 C302.3,600.7 306.2,600 307.8,600.5 C309.1,601.1 310.2,602.5 310.9,604.2 L311.6,588.8 L309.2,542.7 L310.3,487.2 L282.2,438.9 L268.4,431.9 L259.8,417 L250.6,414.2 L260.2,414.6 L269.9,424.5 L278.4,428 L269.8,372.9 L288.5,431.9 L313.3,460.9 L318.1,417.2 L309.5,405.6 L302.7,365.2 L307.5,275.1 L303.5,261.9 L303.8,199 L310.3,118.7 L304.5,55 L304.7,4.7 L359.1,4.7 L359,72.7 L350.3,152.7 L359.4,273.5 L354.6,341.7 L357.7,366 L362.8,359.4 L381.4,348.7 C381.6,345.8 382,342.1 380.8,336.8 C379.7,331.3 369,325.6 367.4,320.4 C365.7,315.3 367,300.5 367,300.5 C367,300.5 375.8,283.6 375.8,281 C375.8,278.2 377.1,283.9 373.6,290.7 C369.9,297.5 368.6,308.5 369,311.8 C369.4,315.1 377.5,322.3 377.5,322.3 L386.7,333 L387.8,344.8 L388.7,344.2 L401.9,318.3 C411.8,315.4 416.8,312.4 421.9,312.8 C427,313 432.6,316.5 441.8,320.7 C441.8,320.7 462.2,324.2 472.9,323.6 C483.4,323 466.5,326.5 455.8,326.5 C445.3,326.5 433.6,324.7 433.6,324.7 L422.4,318.6 L404.4,326 L402.4,332.6 L416.7,330.2 C425,328.7 425,333.3 432.5,338.3 C439.5,342.9 439.5,351.7 441.3,355.8 C443,359.8 437.1,374.5 437.1,374.5 L432.5,379.1 C432.5,379.1 436,371.6 436,366.2 L436,351.1 C436,351.1 426.8,340.8 423.1,337.5 C419.4,334.4 405.8,336.9 400.5,337.9 L400.5,337.9 C394.4,356.8 387.3,355 370.4,366.2 C368.6,367.5 364.3,373.7 359.7,380.5 L366.1,428.8 L362.8,442.4 L358.2,535.8 L365,545.9 L364.6,608.2 C389.2,608.6 457.1,607.3 510.7,608.6 L511.1,600.1 L503.7,554.7 L517.5,428.4 L508.9,416.6 L502.1,376.2 L506.9,286.1 L502.9,272.9 L504.2,257.6 C500.7,253 493.7,243.8 490.4,238.5 C488.6,235.4 482.4,214.4 482.2,207.8 L495.5,230.6 L506,233.9 L507.2,143.8 L512.9,67.1 L509,1.1 L562.9,1.1 L561.8,70.7 L553.5,161.7 L558.5,282.5 L553.9,350.5 L565.5,437.8 L562.2,451.4 L558.7,523.6 C561.5,519.7 563.8,515.7 569.2,514.2 C574.6,512.7 590.2,510.3 590.2,510.3 L599.2,491.9 L614.6,483.6 L620.3,483 C620.3,483 613.7,485.9 608.7,489.2 C605.9,490.9 604.8,493.1 602.8,494.2 C601.9,494.9 601.9,495.9 601.1,497 C596.9,503.2 594.7,515.9 594.7,515.9 C594.7,515.9 573.9,520.7 568,523.4 C562.1,526.1 560.3,539.4 559.2,547.1 L564.2,554.6 L564,609.7 C591,610.3 595.8,610.4 622.1,611 L632.2,486.4 L627.1,393.2 L623.2,379.6 L623.8,363.1 L605.6,348.2 C605.6,348.2 599.4,334.6 596.2,329.6 C593,324.6 590.1,318 589,317.7 L575,314 L593,314 L606.1,328.3 C606.1,328.3 609,339 613.6,340.6 C618.2,342.4 620.6,343.4 624.3,344.8 L625.6,299.8 L625.8,268.6 L614.2,249.3 L608,229.3 L607.3,222.9 L613.4,222.9 L618.7,238.9 L626.1,245.3 L626.3,238.1 L624.3,100.7 L628.7,0.7 L686.8,0.7 L681,60.7 L688.6,122.3 L680.4,184 L692,363.4 L682.3,375 L685.4,467.1 L688.2,516.7 L695.6,505.7 L703.9,479.8 L711.3,483.8 L703,511.7 L689.8,542.6 L693.5,611.3 C709.5,611.5 771.6,614.4 784.3,614.4 L781.9,531.1 L786.3,491 L771,456.9 C767.9,446.2 762,405.8 777.2,446.6 L789,464.8 L795.4,405.4 L786.8,393.8 L781.8,272.8 L753.3,249.6 L753.3,209.7 L760,223.1 C761.7,233.4 763.7,244.4 763.7,244.4 L781.2,255.6 L781,249.9 L782.3,168.7 L787.7,101.7 L784.2,48.7 L784.7,1 L850,1 L848.8,68.8 L839.6,155.8 L845.6,258.7 L840.8,326.9 L842.5,339.2 L850.4,326.5 L863.8,289.2 L868.9,293.4 L858.6,331.6 L846,365.5 L852.6,414.2 L849.1,427.8 L844.5,521.2 L846,553.2 L851.3,548.2 L860.1,533.1 L863.6,535.1 L855.9,555.9 L846.7,570.4 L848.7,612.7 C887.1,611.2 919.5,609.8 931.4,608.7 L933.2,554.8 L928.2,509.4 L928.4,507.4 L919.6,491.2 L914.5,464.2 L919.1,463.6 L924.8,485.8 L929.4,495 L932.5,450.5 C931.9,444.8 930.5,436.9 926.6,434 C920.4,429.4 903.3,420.8 903.3,420.8 L886.2,427 L877,437.1 L885.5,421.5 C906.5,413 906.8,411.9 909.9,413.6 C912.5,414.9 916,419.5 929.6,425.2 L934.2,426.5 L937.5,383.1 L931.8,371.5 L927.4,331.1 L928.5,298.9 C920.8,286.8 907.5,265.6 904.8,260.5 C901.1,253 902.4,235.7 901.1,230.7 C900.7,229 889.7,207.7 888.2,204.7 L905.1,223.1 L907.3,226.2 L914.7,258.6 L929,281.4 L930.5,241 L933.6,133.7 L930.9,75.7 L931.1,6.7 L931.5,2.1 L978.4,2.1 L972.4,41.1 L976.8,105.8 L972.4,173.1 L974.7,237.4 L971.6,305.4 L976.4,360 L991.3,340.7 L996.3,317.7 C996.3,317.7 1003.3,302.8 1013.2,299.1 C1016.9,297.6 1038.2,288.4 1031.8,293 L1017.5,303.3 C1016.2,304.2 1010.1,307.3 1007.4,311.9 C1003.7,318 1003.4,325.7 1003.4,325.7 C1003.4,325.7 1000.8,340.6 997.7,348.1 C995.9,352.5 985.9,365.7 978,375.9 L979.5,392.8 L977.1,406.4 L974.2,499.6 L978.6,509.7 L978.4,593.7 C983.4,593 988.7,596.6 993.5,597 C1005.4,597.9 1015.9,597 1023.8,592 C1034.8,585 1039.2,586.3 1042.5,580.6 C1049.9,568.3 1035.9,560.2 1030.4,566.1 C1024.7,572.2 1031,573.6 1031,573.6 C1031,573.6 1026.6,575.1 1024.9,570.8 C1023.1,566.6 1024.5,559 1035,559.4 C1045.5,559.8 1047.1,562.2 1047.1,562.2 C1047.1,562.2 1043.6,554.5 1044.3,550.6 C1045,546.7 1049.3,541.2 1048.2,538.1 C1047.3,535.2 1046.5,534.1 1046.5,534.1 C1046.5,534.1 1050.2,536.7 1050.9,539.8 C1051.8,543.1 1048,547.2 1049.4,551.4 C1051.1,555.8 1052.5,557.8 1054,562.1 C1055.7,566.3 1056.9,571.7 1062.8,571.3 C1068.7,571.1 1072.9,566 1069,561.6 C1065,557.4 1067.5,553.5 1071.8,554.2 C1076,554.9 1079.2,551.3 1077.9,548.1 C1076.6,544.8 1072.6,546.1 1073.5,548.5 C1074.4,550.9 1071.8,551.1 1071.8,551.1 C1071.8,551.1 1073.1,551.1 1072.5,548.9 C1071.9,546.7 1071.8,545.6 1074.7,544.3 C1077.6,543 1080,544.7 1080.8,546.5 C1081.7,548.3 1083.6,552.9 1079,555.9 C1074.6,558.8 1072.9,557 1073.7,559.9 C1074.6,563 1077.2,567.1 1076.5,569.5 C1075.8,571.7 1074.5,578.1 1068.4,581.6 C1064.9,583.4 1066.4,591 1066,594.7 C1065.3,603.2 1074.6,602.2 1085.3,611.1 C1090.4,615.3 1102.2,609.6 1110.1,613.1 C1123.2,619.2 1124.1,610.5 1132.2,613.1 L1133.7,585.5 L1128.6,537.7 L1135.6,454.6 L1123.3,432.7 L1114.1,392.8 L1119.1,390.4 L1127.2,422.8 L1137.9,434.6 L1140.1,413.8 L1139.4,366.4 L1132.6,326 L1129.5,271.8 L1136.7,164.5 L1134.7,72.8 L1136.4,7.9 L1130.7,1.1 L1190,1 L1196.6,34.8 L1193.4,66.5 L1196.7,108.8 L1191.4,178.4 L1196.9,268.1 L1194.9,297.7 L1201.7,292.9 L1209.8,261.1 L1214.9,261.8 L1206.1,300.2 L1193,322.8 L1192.1,336 L1197.6,411 L1200.4,437.1 L1185,528.8 L1191.8,538.9 L1191.4,612.2 C1194.3,612 1197.1,611.6 1200,611.5 C1204.2,611.3 1303.3,605.3 1317.1,604.9 C1333.3,604.5 1349.1,607.7 1359.2,606.9 L1359.6,592.2 C1358.1,592 1356.8,592.4 1355.7,593.1 C1356.1,591.3 1357.5,590.2 1359.6,589.6 L1359.8,576.7 C1358.7,574.1 1358.9,571.4 1360,569 L1356.1,497.9 L1357,493.7 L1339.4,461.2 L1337.4,424.8 L1331.2,396.9 L1323.8,387.5 L1335.7,396.3 L1344.5,409.4 L1346.5,443.6 L1353.9,466.4 L1360.5,473.9 L1361.6,467.8 L1353.9,316.5 L1356.5,257.3 C1353.5,252.9 1342.7,246.9 1332.6,231.4 C1323.8,217.9 1315.7,194.9 1312.7,189.7 L1329,190.7 L1340.5,216.7 L1356.4,232.1 L1357.3,176.6 L1364.8,111 L1369.6,52.3 L1360.3,4.3 L1446.2,4.3 L1452.1,58.6 L1443.6,134.3 L1449,248.1 L1452.1,262.8 L1449.2,402.7 L1457.3,395.9 L1465.9,376.6 L1466.6,349.2 L1472.8,348.6 L1471.5,379.7 L1465.3,404.5 L1448.9,419.4 L1447.2,497.3 L1452.5,505.4 L1454.7,604.8 C1457.3,605.5 1460,606.3 1462.6,606.5 C1489.8,609.4 1469.4,608.5 1486.1,604.3 C1499.7,601 1486.1,597.3 1501.7,597.9 C1517.3,598.5 1531.5,602.1 1539.4,597.3 C1557.4,586.5 1562.4,611.8 1565.1,602.3 C1567.3,594 1565.1,587.4 1562.3,582.6 C1559.9,578 1557,575.1 1553.7,573.6 C1551.3,572.7 1548.7,573.6 1547.5,573.8 C1544,574.4 1541.3,577.7 1543.5,580.4 C1549.2,587.2 1543.9,590.7 1543.9,590.7 C1543.9,590.7 1545.7,584.6 1541.9,582.2 C1538,580 1537.9,573 1543.4,568.6 C1545.8,566.6 1550.2,564.7 1554.4,565.1 C1559.5,565.3 1564.9,568.2 1567.3,572.3 C1567.5,572.9 1570.6,565.7 1567.5,562.2 C1564.6,558.7 1562.7,555.6 1564.2,551 C1565.9,546.6 1572.3,545.1 1574.3,549.2 L1576.1,553.1 C1576.1,553.1 1572.2,547.8 1569.3,550 C1566.4,552 1569.1,557 1571.7,558.8 C1574.1,560.5 1577.4,565.2 1575.6,568.9 C1574.7,570.6 1576.7,572.4 1579.3,573.1 C1578.6,549.8 1577.5,531.4 1579.5,516.1 L1581.3,350.7 L1584.1,311.9 L1581.3,308.4 L1581.9,274.4 L1562.9,228.8 L1551.9,185.7 L1566.4,195.3 L1571.3,208.9 L1582.5,239.9 L1582.8,155.7 L1589,77.7 L1583.4,1.1 L1629,1.1 L1623.5,155.2 L1630.8,374.2 C1630.8,402.1 1627.3,531.7 1628.2,574 C1629.1,616.5 1629.3,599.6 1630.6,610.6 C1638.5,614.3 1658.7,618.5 1669.2,620.2 C1689.2,623.5 1698.8,614.1 1722.7,611.2 C1722.5,606.2 1722.3,600.9 1722.5,595.4 C1724,545.6 1719.4,513.1 1722.5,488.1 C1724.9,469.4 1727.6,387 1728.4,329.3 L1717.4,301 L1698.1,281.7 L1703.1,278 L1721.8,292.9 L1728.8,306 C1728.8,297.2 1728.8,289.6 1728.6,283.8 L1725.5,277.6 L1734,91.9 L1728.8,13.4 L1728.1,4.6 L1779.4,4.6 L1779.4,13.4 L1782.7,18 L1774,155.9 L1786.3,346.3 C1786.3,374.4 1774.4,494.3 1775.3,544.3 C1776.4,594.3 1779.3,596 1783,613.8 C1791.1,614.4 1799,614.7 1806.7,614.4 C1819.4,614 1834.6,614.4 1849,614 C1847.3,604.6 1846.4,593.8 1846.8,581.6 C1847.7,556.6 1851.6,534.2 1851,516.5 C1850.3,499 1845.3,486.7 1846.8,474.2 L1851.9,390.2 L1846.4,273.7 L1851.5,270.2 L1850.9,101.9 L1842.1,4.6 L1896.3,4.6 L1897.8,153.9 L1910,320.6 C1911.8,314.4 1914.6,305.5 1916.8,299.3 C1919.2,292.1 1928.9,288.8 1935.5,287.2 L1941.9,284.1 L1950.2,259.7 L1947.1,246.1 L1940.9,238.6 L1943.7,236.9 C1943.7,236.9 1948.8,242 1951.2,245.5 C1953.6,248.8 1954.3,253.8 1954.7,261.7 C1955.1,268.7 1949,285 1947.5,289.1 L1969.6,301.2 L1969,304.9 L1941.6,295 L1929.8,298.7 L1923.7,309.9 L1914,344.6 L1914.4,362.1 C1914.2,364.5 1911.1,360.3 1910.7,362.5 C1908.7,373.7 1902.1,401.1 1903.3,436 C1903.3,438.6 1907.7,432.5 1907.9,435.1 C1909.9,465.4 1913.2,508.8 1913.8,530.5 C1914.4,559.7 1911.6,585.6 1915.5,603.5 C1916.1,603.5 1916.8,603.5 1917.3,603.3 C1926.4,602.1 2250.6,601.1 2290.5,604.3 L2290.5,604.3 Z" id="Shape"></path>
            </g>
            <g class="bat" transform="translate(875.000000, 206.000000)" sketch:type="MSShapeGroup">
                <path d="M20.4,68.3 C21.7,67.9 24.1,67 25.5,65 C27.2,63 29.4,60.2 28.8,54.7 C28.6,53 27,48.5 27.9,43.7 C26.8,41.1 18.5,35.2 20.4,29.2 C19.7,27.7 19.8,25.9 17.8,20 C15.8,14.1 14.9,5.1 14.3,1.3 L14.3,0.7 C14.5,0.3 15,0.7 14.9,0.7 C14.9,0.7 14.9,0.3 14.7,0.1 C14.5,0.1 14.3,-0.1 14.1,0.3 C13.9,0.5 13.9,0.9 13.7,1.4 C13.3,5.3 12.2,15 9.8,21.1 C7.6,27.3 8.9,31.2 8.1,32.3 C8.7,37.8 4.2,38.7 0.6,44.6 C1.7,49.7 1.13686838e-13,53.1 1.13686838e-13,55.4 C0.6,62.9 0.9,67 9.6,68.6 C9.4,71.5 10.7,75 10.5,78.2 C10.3,79.9 9.4,81 9.4,81 C9.4,81 13.3,79 13.8,76.8 C14.4,76.8 14.7,77 15.3,77 C16,79 19.9,80.9 19.9,80.9 C19.9,80.9 19,79.8 18.6,78.1 C18.2,74.6 20.2,72.2 20.4,68.3 L20.4,68.3 Z" id="Shape" fill="#000000"></path>
                <g class="oczy" transform="translate(12.000000, 72.000000)" fill="#FFFFFF">
                    <path d="M1.3,1.3 C1.3,1.1 1.1,0.7 0.7,0.7 C0.3,0.7 0.1,1.1 0.1,1.3 C0.1,1.7 0.3,2 0.7,2 C1.1,2 1.3,1.7 1.3,1.3 L1.3,1.3 Z" id="Shape"></path>
                    <path d="M5.5,1.3 C5.5,1.1 5.1,0.7 4.8,0.7 C4.5,0.7 4.2,1.1 4.2,1.3 C4.2,1.7 4.4,2 4.8,2 C5.2,2 5.5,1.7 5.5,1.3 L5.5,1.3 Z" id="Shape"></path>
                </g>
            </g>
        </g>
    </g>
</svg>
