<?xml version="1.0" encoding="UTF-8" standalone="no"?>
<svg viewBox="0 0 2285 1134" version="1.1" xmlns="http://www.w3.org/2000/svg" xmlns:xlink="http://www.w3.org/1999/xlink" xmlns:sketch="http://www.bohemiancoding.com/sketch/ns">
    <!-- Generator: Sketch 3.3 (11970) - http://www.bohemiancoding.com/sketch -->
    <title>6-01-bat</title>
    <desc>Created with Sketch.</desc>
    <defs></defs>
    <g id="Page-1" stroke="none" stroke-width="1" fill="none" fill-rule="evenodd" sketch:type="MSPage">
        <g id="6-01-bat" sketch:type="MSLayerGroup" transform="translate(-0.136426, -1.000000)">
            <g id="Warstwa_4" sketch:type="MSShapeGroup">
                <g id="Group">
                    <path d="M1319.6,691.5 C1330.4,694.1 1342,690.2 1355.3,692.2 C1375.2,695.5 1403.6,693.7 1425.1,694.6 C1451.2,695.7 1479.5,742.4 1502.9,744 C1532.9,745.8 1553.4,715.9 1577,712 C1589.5,710 1598.5,704.3 1608.2,700.1 C1611.5,698.6 1615.6,697.2 1620,695.7 L1627.9,545.9 L1635.6,534.3 L1638.4,478.8 C1625,461.3 1602.2,456.7 1600.5,446.8 C1598.8,436.9 1593,415.2 1593,415.2 L1598,376.8 L1607.2,378.6 L1603.9,411 L1611.4,432 L1629.4,441.2 L1637.5,441.4 L1633.8,308 L1637.5,306.9 L1619,4.3 L1730.8,4.3 L1733.7,245.1 L1733.5,244.7 L1731.3,329.8 L1764.2,313.2 L1820.2,306.1 L1768.7,320.8 L1735.5,346.7 L1734.1,445.4 C1734.1,445.4 1738.3,443.6 1738.3,460.1 C1738.3,468.2 1739,485.7 1738.3,561.6 C1738.3,569.1 1744.9,555.4 1744.9,562.9 C1744.9,611.1 1751,661.2 1750.6,691.8 L1742.3,691.1 C1726.1,689.3 1776.5,693.5 1790.6,697 C1808.1,701.2 1840.6,703.2 1868.9,700.1 C1881.8,698.8 1893.7,689.3 1902.9,690.9 C1914.8,692.9 1947,704.1 1948.3,689.1 C1948.9,685.1 1947.2,681.6 1944.8,680.6 C1940.8,679.3 1939.1,684.6 1938.9,687.4 C1938.9,687.4 1936.3,687 1937.6,682.3 C1938.7,677.5 1944.4,676.4 1946.8,677.3 C1950.8,679 1953,686.9 1953.6,690.9 C1953.2,679.7 1955.1,676.9 1959.3,674.2 C1962.6,672 1967,672 1970,670.5 C1974.8,668.1 1973.7,662 1971.3,660.6 C1968.9,658.9 1966.3,661.3 1967.1,662.6 C1967.8,663.7 1967.8,665.9 1967.8,665.9 C1967.8,665.9 1967.4,665.2 1964.5,663 C1961.6,660.6 1969.1,654.2 1973.7,658.2 C1978.3,662.4 1978.3,672 1968.7,675.1 C1959,678.4 1963,688.5 1963,688.5 C1964.3,681 1978.8,679.9 1980.1,686.1 C1975.1,683 1966.9,687.6 1966.9,693.8 C1966.9,695.3 1967.6,698 1970.2,699.1 C1975.3,701.1 2275.3,692.4 2284.6,691.6 L2284.6,1062.2 L1385.8,1134.9 L1266,1070.4 L1266,1100 L569,1125.6 L0.7,1090.4 L0.7,720.3 C15.8,719.9 87.3,753.8 160.7,760 C222.9,765.3 288.7,743.2 299,741.5 C311.7,739.5 320.5,734 330.4,729.7 C342.3,724.4 411.5,719.4 421.8,710 C424.2,708 429.3,705.4 430.4,701.7 C431.9,695.8 428.4,688.3 426.7,683.5 C423.9,675.2 416.4,675 419.3,662.5 C420.2,659 417.8,657.5 416,657.9 C414.2,658.1 413.6,662.1 413.6,662.1 C413.6,662.1 413,661.7 414,658.4 C415.1,655.1 418.6,656 418.6,656 C418.6,656 423.7,656.6 423.7,665.9 C423.7,675.1 438,670.1 436.2,666.3 C434.2,662.3 437.7,657.3 440.2,655.6 C442.8,653.8 445.7,648.6 442.6,646.4 C439.5,644.2 435.4,649.7 435.4,649.7 C435.4,649.7 435.4,649.7 437.4,645.5 C439.6,641.5 446.2,642.9 447.7,647.5 C449.4,652.3 447.5,655.6 444.4,659.3 C441.1,663 444.6,670.3 444.6,669.8 C447.2,665.6 452.7,662.6 458,662.3 C462.6,661.9 467,664 469.6,666 C475.3,670.6 475.1,677.8 471.1,680.2 C467.1,682.8 469.1,689 469.1,689 C469.1,689 463.4,685.3 469.3,678.3 C471.7,675.5 468.9,672.1 465.3,671.5 C463.8,671.1 461.3,670.2 458.9,671.3 C455.2,672.6 452.3,675.7 449.7,680.5 C446.9,685.6 444.6,692.4 446.9,701.1 C449.7,711 451.5,709.4 470.2,720.8 C478.5,725.8 493.2,721.9 509.5,721.4 C525.7,720.8 498.5,722.9 512.8,726.4 C530.3,730.8 562.8,732.6 591.1,729.7 C603.8,728.2 615.9,718.9 625.1,720.5 C636.9,722.3 698.3,731 699.7,715.9 C700.1,711.7 698.4,708.2 696,707.4 C692,705.9 690.3,711.3 690.1,714.2 C690.1,714.2 687.7,713.8 688.8,708.9 C689.9,704.3 695.8,703.2 698,704.1 C698.7,704.3 699.5,704.8 700.2,705.6 L703.3,647 L703.3,643.1 L671.3,635 L643.4,595.1 L599.7,586.3 L598,582.4 L643.8,588.5 L681.5,616.6 L702.8,622.1 L698.4,368.6 L706.7,352.1 L711.1,100.6 L703.5,7.6 L704.1,1 L813.7,1 L820.2,243.7 L811.9,305.8 L814.1,377.3 L834,368.5 L842.3,327 L859.8,308.6 L889,300.3 L900.6,302.7 L865.7,314.5 L855.8,332.7 L846.6,380.3 L814.8,399.6 L820.3,577.7 L828.6,587.4 L843.9,748.3 C860.3,752.2 874,754.7 880.1,752.3 C889.8,748.6 890.4,735.8 904.5,729.1 C937.2,714 961.9,699.5 946,690.7 C939.8,687.2 938.5,680.4 937.5,678 C936.8,675.6 939.5,671.4 940.4,668.3 C941.1,665.2 939.5,667 934.7,663.9 C930.1,661 931.9,656 932.9,654.2 C933.6,652.4 936.2,650.7 939.3,652 C942.4,653.3 942.1,654.4 941.5,656.8 C940.9,659 942.2,659.2 942.2,659.2 C942.2,659.2 939.6,658.8 940.5,656.3 C941.6,653.9 937.2,652.6 935.9,655.9 C934.4,659.4 937.9,663.1 942.3,662.3 C946.5,661.6 949.3,665.6 945.1,670 C941.1,674.6 945.5,679.7 951.5,680.1 C957.6,680.5 959,675 960.7,670.5 C962.4,666.1 963.8,663.9 965.5,659.5 C967.2,654.9 963.1,650.9 964,647.4 C964.7,644.1 968.6,641.3 968.6,641.3 C968.6,641.3 967.9,642.6 966.8,645.7 C965.9,648.8 970.3,654.5 971,658.6 C971.7,662.6 967.9,670.7 967.9,670.7 C967.9,670.7 969.9,668.1 980.8,667.8 C991.6,667.4 993.1,675.3 991.3,679.7 C989.6,684.1 985.1,682.5 985.1,682.5 C985.1,682.5 991.5,681 985.7,674.8 C979.8,668.6 965.5,677.2 972.8,689.9 C976.5,696 982.7,712.7 994.1,720 C1005.5,727.3 1012.7,712.3 1031.2,715.4 C1041.1,717.1 1060.8,726.1 1072.2,728.6 C1087.1,731.7 1076.1,721.8 1092.6,724 C1102.7,725.3 1113.4,727.5 1124,729.9 C1137.8,733 1135,726.8 1130.6,724.2 C1128.4,723.1 1125.3,724.2 1124.5,724.6 C1125.4,720.2 1135.9,720.9 1136.8,726.3 C1136.8,726.3 1139.7,719.1 1132.8,716.7 C1125.8,714.5 1125.8,707.5 1129.1,704.6 C1130.9,702.9 1133.3,703.3 1134.8,704.6 C1138.3,707.2 1135.7,710.8 1133.3,710.1 C1133.3,710.1 1134.6,709.5 1134.8,708.6 C1135,706.8 1133.5,705.1 1130.9,706.2 C1128.9,706.9 1128.3,711.7 1131.8,713.4 C1133.8,714.5 1136.9,714.5 1139.3,716 C1142.4,718 1143.7,720 1143.5,728.1 C1143.9,725.2 1145.3,719.5 1148.5,718.4 C1150.2,717.7 1154.2,718.4 1155.1,721.9 C1155.8,725.4 1154,725.8 1154,725.8 C1154,723.6 1152.7,719.7 1149.8,720.8 C1148.1,721.4 1147,723.9 1147.2,726.9 C1148.1,735.2 1155.5,737 1162.3,738.1 C1171.1,739.4 1204.8,715.9 1212.3,717.7 L1212.5,713.8 C1234.9,706.1 1296,695.2 1319.3,691.2 L1319.3,691.5 L1319.6,691.5 Z" id="Shape" fill="#1E2F3A"></path>
                    <g transform="translate(1647.000000, 571.000000)" id="Shape" fill="#1F1A17">
                        <path d="M35.6,27.4 C39.8,27.4 43.3,30.9 43.3,35.1 C43.3,38.4 41.3,41.2 38.5,42.3 L39.1,45.6 L42.8,63.8 L35.6,63.8 L28.2,63.8 L31.9,45.6 L32.5,42.3 C29.9,41 27.9,38.3 27.9,35.1 C27.9,30.9 31.4,27.6 35.6,27.4 L35.6,27.4 L35.6,27.4 Z"></path>
                        <path d="M7.3,1 C15.9,1.6 25.3,2.5 34,2.5 C39.7,2.3 47.1,1.8 52.6,1.6 C59.2,1.2 64.5,0.9 71.5,0.1 L72.2,34.1 L71.5,54.5 L71.9,77.3 C71.3,98.8 70.1,92.2 70.2,76.2 L70,55 L70.6,29.4 L69.9,17.5 L70.1,1.9 C64.8,2.5 59.8,2.8 54.7,3.2 C48.3,3.4 40.4,3.8 33.9,3.8 C30,3.8 25.3,4 21.8,3.8 C16.7,3.6 12.6,2.9 7.1,2.5 C-2.4,1.9 -2.1,0.4 7.3,1 L7.3,1 Z"></path>
                    </g>
                    <path d="M519.2,716 C517,715.6 516.3,715.1 514.8,715.8 C513.9,716.2 512.8,716.4 511.9,717.1 C510.8,717.8 509.1,719.1 508.8,720.4 C508.2,721.5 507,721.3 505.7,723.3 C505.9,720.9 505.5,721.3 506.1,719.6 C506.7,718.1 507.4,716.1 508.5,715.2 C509.8,714.1 511.6,713.2 513.5,712.4 C516.6,710.9 519.7,710.6 519.7,710.6 C529.3,706.2 539,711.9 539,711.9 C539,711.9 537,712.3 535.9,713.4 C535,714.1 534.8,715.4 534.8,716.2 C534.8,717.1 535.7,718.4 536.8,719.7 C537.7,720.8 539,721.9 539.4,722.8 C539.8,724.1 540,725.6 539.8,727.8 C539.8,728.7 539.8,729.8 539.6,730.7 C539,733.8 538.1,733.6 537.4,734.6 C537,734.8 535.7,737 535.7,736.6 C535.7,734.9 535,733.5 535.5,729.6 C535.7,727.9 535.5,725.7 535.3,724.8 C534.7,723.1 532.5,722.6 532.5,722.6 C532.5,722.6 532.5,727.7 533.1,730.1 C533.5,732.7 531.3,732.3 530.2,736.3 C529.1,740.3 527.8,742.7 526.9,742.9 C526.5,743.1 524.7,744.7 524.3,744.6 C525.4,741.8 524.3,741.5 525,740 C525.9,738.5 526.3,736.3 527.2,734.3 C527.8,733 528.7,731.9 528.9,730.6 C529.3,729.5 528.9,728.2 528.7,727.3 C528.5,725.6 528.3,724.7 528.3,724.7 C528.3,724.7 527.2,726.5 526.8,728.7 C526.2,730.9 524.8,732.9 524,735.3 C523.4,737.1 521.1,739.7 517.8,742.5 C516.9,743.2 515.8,743.4 515.2,743.8 C513.5,744.7 512.3,744.4 510.4,745.1 C511.1,743.6 512.2,742.5 513.2,741.4 C513.8,740.8 514.3,739.9 515.6,739 C518.4,737.3 520.4,732.4 521.7,730 C523.2,727.6 523.5,723.2 523.5,723.2 C523.5,723.2 521.7,725.8 520.9,727.8 C520.2,729.8 516.9,733.7 512.1,736.1 C509.9,737.2 507.3,736.8 504.7,737.4 C506,735.4 507.1,734.1 509.3,733.2 C511.1,732.3 514.3,730.6 516.1,728.2 C517.8,725.8 517.8,723.1 518.5,721.8 C519.9,719.2 519.2,716 519.2,716 L519.2,716 Z" id="Shape" fill="#000000"></path>
                    <path d="M376.4,725.6 C378.6,725.2 379.3,724.9 380.8,725.4 C381.7,726 382.8,726.1 383.7,726.9 C384.6,727.6 386.3,728.9 386.6,730 C387.2,731.1 388.4,730.9 389.7,732.9 C389.3,730.5 389.9,730.9 389.1,729.2 C388.7,727.7 388,725.9 386.9,725 C385.6,723.9 384,723 381.9,722.2 C379,720.9 376,720.4 376,720.4 C366.6,716.2 357.1,721.7 357.1,721.7 C357.1,721.7 359.1,722.1 360.2,723.2 C361.1,723.9 361.1,725.2 361.1,726 C361.1,726.9 360.4,728.2 359.3,729.5 C358.4,730.4 357.1,731.5 356.7,732.4 C356.3,733.7 356.1,735.2 356.3,737.4 C356.3,738.1 356.3,739.2 356.5,740.2 C357.1,743.1 358,743.1 358.7,743.9 C359.1,744.1 360.4,746.3 360.4,745.9 C360.4,744.2 361.1,742.8 360.6,739.1 C360.4,737.4 360.4,735.2 360.8,734.5 C361.4,732.8 363.4,732.3 363.4,732.3 C363.4,732.3 363.4,737.3 363,739.7 C362.4,742.1 364.7,741.7 365.8,745.8 C366.9,749.8 368,752 368.9,752.2 C369.5,752.4 371.1,753.9 371.5,753.9 C370.4,751.1 371.5,751 370.8,749.5 C370.1,747.8 369.5,745.8 368.8,743.8 C368.2,742.5 367.3,741.4 367,740.3 C366.6,739 367.2,737.9 367.2,737 C367.6,735.3 367.8,734.4 367.8,734.4 C367.8,734.4 368.7,736.2 369.3,738.4 C369.7,740.4 371.1,742.4 371.9,744.8 C372.5,746.6 374.7,749.2 378,751.8 C378.9,752.5 380,752.7 380.6,753.1 C382.3,754 383.4,753.7 385.4,754.2 C384.5,752.9 383.6,751.8 382.5,750.7 C382.1,750.1 381.6,749.4 380.3,748.5 C377.7,746.8 375.7,742.1 374.2,739.7 C372.9,737.5 372.5,732.9 372.5,732.9 C372.5,732.9 374.2,735.7 375.1,737.5 C375.8,739.5 379,743.2 383.6,745.6 C385.8,746.7 388.4,746.3 390.8,746.9 C389.5,744.9 388.4,743.6 386.4,742.7 C384.6,741.8 381.4,740.1 379.8,737.9 C378.1,735.7 378.1,732.9 377.4,731.7 C375.8,728.9 376.4,725.6 376.4,725.6 L376.4,725.6 Z" id="Shape" fill="#000000"></path>
                    <path d="M814.6,255.1 C815.2,252.9 815.7,252.2 815.2,250.7 C814.8,249.6 815.6,246.5 814.8,245.6 C814.1,244.5 812.2,244.9 810.9,244.3 C809.8,243.7 810.2,242.3 808.1,241 C810.5,241.4 810.7,241.6 812.3,242.3 C813.8,242.9 815.6,242.1 816.3,243.2 C816.7,243.6 817,243.9 817.2,244.9 C817.4,246.4 817.4,248.6 817.9,249.9 C819,253 821.8,256.5 821.8,256.5 C824,262.2 823.3,269 820.7,272.7 C819.2,275.3 815.9,276.2 815.9,276.2 C815.9,276.2 816.8,273.1 815.9,271.8 C815.2,270.9 813.9,270.7 813.1,270.7 C812.2,270.5 810.9,271.3 809.4,272.4 C808.3,273.3 807.2,274.4 806.1,274.8 C804.8,275 803.7,273.1 801.5,272.8 C800.6,272.8 799.8,272.8 798.7,272.6 C795.8,271.9 795.4,272.8 794.7,271.9 C794.5,271.7 792.3,270.1 792.7,270.1 C794.4,270.3 796.4,269.5 800.2,270.5 C801.9,270.7 803.5,270.9 804.4,270.7 C806.1,270.1 806.8,268.1 806.8,268.1 C806.8,268.1 801.8,267.7 799.3,267.9 C796.7,268.3 797.1,266.6 793.2,265.1 C789.2,263.8 785.3,261.8 785.1,260.9 C785.1,260.3 783.6,258.5 783.6,258.1 C786.4,259.4 786.7,258.3 788.2,259.2 C789.7,260.1 793,261.6 795,262.5 C796.3,263.1 797.8,263.4 798.9,263.8 C800.2,264.4 801.5,264 802.4,263.8 C804.1,263.8 805,263.6 805,263.6 C805,263.6 803.3,262.5 801.1,261.8 C798.9,261.2 796.3,260 794.1,259 C792.1,258.3 791.7,257.9 789.1,254.2 C788.5,253.5 788.4,252.4 788,251.6 C787.3,249.9 787.8,248.7 787.3,246.6 C788.6,247.7 789.5,248.6 790.6,249.7 C791.2,250.3 791.9,250.8 792.8,252.3 C793.5,253.8 793.5,254.1 795.4,255.4 C797.1,256.3 798.9,256.7 799.8,257.2 C800.7,257.9 801.5,257.6 802.6,257.8 C804.4,258.2 806.8,258.7 806.8,258.7 C806.8,258.7 804.2,256.9 802.2,255.9 C801.1,255.3 798.3,252.8 796.5,249.8 C795.2,247.8 795,245.4 794.3,243.6 C793.4,241.2 793.7,238.6 793.6,236.1 C795.4,237.6 796.5,238.9 797.5,240.9 C798.1,242 797.9,245.1 798.8,247.3 C799.7,249.1 801.4,250.2 802.5,251 C804.7,253 807.5,253.2 808.7,253.9 C811.5,255.4 814.6,255.1 814.6,255.1 L814.6,255.1 Z" id="Shape" fill="#000000"></path>
                    <g transform="translate(709.000000, 223.000000)" id="Shape" fill="#18262D">
                        <path d="M1016.1,350.2 L1018.3,324.1 L1018.3,295.1 L1015.1,275.2 L1015.1,297.1 L1015.1,329.3 L1016.1,350.2 Z"></path>
                        <path d="M1014.8,241.6 L1016.6,208.7 L1015.7,156.1 L1012.9,201.5 L1014.8,241.6 Z"></path>
                        <path d="M1014,133.9 L1016.1,81 L1017.2,45.5 L1012.9,79.9 L1014,133.9 Z"></path>
                        <path d="M1006,117.3 L1003.6,139.2 L1005,160.2 L1000.4,138.3 L1006,117.3 Z"></path>
                        <path d="M1007.1,51.4 L1010.2,37.6 L1008.9,8.3 L1007.1,38.9 L1007.1,51.4 Z"></path>
                        <path d="M937.6,354.3 L935.4,328.4 L935.4,299.1 L938.5,279.5 L938.5,301.3 L938.5,333.5 L937.6,354.3 Z"></path>
                        <path d="M938.9,245.7 L937,212.7 L937.9,160.2 L940.7,205.6 L938.9,245.7 Z"></path>
                        <path d="M939.6,138.1 L937.6,85 L936.5,49.7 L940.7,83.9 L939.6,138.1 Z"></path>
                        <path d="M950.4,165.1 L952.8,187 L951.2,208.2 L956,186.3 L950.4,165.1 Z"></path>
                        <path d="M946.6,55.4 L943.5,41.8 L944.7,12.4 L946.6,42.9 L946.6,55.4 Z"></path>
                        <path d="M947.5,305.9 L945.5,280 L945.5,251 L948.6,231.1 L948.6,253 L948.6,285.2 L947.5,305.9 Z"></path>
                        <path d="M21.1,0.6 L19.8,32.1 L13.7,55.2 L12.6,94.2 L17.4,57.6 L24.8,33.3 L21.1,0.6 Z"></path>
                        <path d="M1.8,141.6 L1.8,176.2 L0.9,235.4 L7.3,176.2 L1.8,141.6 Z"></path>
                        <path d="M0.5,243.4 L1.8,273.8 L3.6,313.3 L4.2,273.2 L0.5,243.4 Z"></path>
                        <path d="M11.5,331.1 L3.2,378.4 L3.2,444 L8.8,378.4 L11.5,331.1 Z"></path>
                        <path d="M11.9,468.6 L13.2,459.2 L13.2,433.5 L16.5,457.2 L11.9,468.6 Z"></path>
                        <path d="M12.8,147.7 L8,126.2 L8,100.3 L10.8,126.9 L12.8,147.7 Z"></path>
                        <path d="M11.9,51.2 L7.3,29.9 L7.3,3.8 L9.9,30.6 L11.9,51.2 Z"></path>
                        <path d="M13,215.5 L14.6,256.7 L17,310.2 L17.9,255.9 L13,215.5 Z"></path>
                        <path d="M1.4,507 L2.7,497.8 L2.7,471.9 L6,495.8 L1.4,507 Z"></path>
                        <path d="M17.8,470.6 L9.5,518.1 L9.5,583.7 L15,518.1 L17.8,470.6 Z"></path>
                        <path d="M93.9,369.2 L96.4,321.6 L95.2,245.8 L91.3,311.3 L93.9,369.2 Z"></path>
                        <path d="M92.9,213.9 L95.9,137.2 L97.4,86.3 L91.5,135.7 L92.9,213.9 Z"></path>
                        <path d="M86.1,191.4 L82.7,223 L85,253.4 L78.2,221.9 L86.1,191.4 Z"></path>
                        <path d="M82.8,94.6 L87.4,74.7 L85.6,32.4 L82.8,76.5 L82.8,94.6 Z"></path>
                        <path d="M925.1,424.1 L922.9,398 L922.9,369 L926,349.1 L926,371 L926,403.2 L925.1,424.1 Z"></path>
                        <path d="M936.5,498.9 L934.5,473 L934.5,444 L937.6,424.1 L937.6,446 L937.6,478.2 L936.5,498.9 Z"></path>
                        <path d="M107.7,358.5 L109.3,399.7 L111.7,453 L112.6,398.8 L107.7,358.5 Z"></path>
                        <path d="M102.5,457.8 L103.8,448.4 L103.8,422.7 L107.1,446.4 L102.5,457.8 Z"></path>
                    </g>
                    <g transform="translate(755.000000, 413.000000)" id="Shape">
                        <path d="M15.1,0.8 C16.5,0.8 17.8,0.3 19.1,1.2 C21,2.6 24.2,6.3 25.6,9.5 C26.6,11.7 26.6,16.2 27.2,19 C27.4,20 28,18.7 28.1,19.6 C28.8,23.5 29,29.3 29,34.8 C29,39 28.4,46.1 27.8,49.9 C26.8,56.7 25.3,64.2 22.9,67.3 C20.8,70 17.9,70.7 15.1,70.7 C13.5,70.7 11.2,68.7 9.8,67.5 C8.1,66.1 6.7,63.9 5.5,61.1 C5.2,60.4 4.8,61.6 4.5,60.8 C2.4,54.7 0.2,43.8 0.1,34.8 C0.1,34.5 1.2,35 1.2,34.7 C1.2,29.7 1.8,20.1 2.6,15.8 C2.9,14.3 2.7,16.5 3,15.3 C5.4,6.9 10.2,0.8 15.1,0.8 L15.1,0.8 L15.1,0.8 Z" fill="#010202"></path>
                        <path d="M15.1,0.8 C15.6,0.8 16.2,0.7 16.7,0.7 C18.6,2.2 21.7,5.8 23,8.9 C24,11.1 24,15.6 24.6,18.4 C24.8,19.4 25.4,18.1 25.5,19 C26.2,22.9 26.4,28.7 26.4,34.2 C26.4,38.4 25.8,45.5 25.2,49.3 C24.2,56.1 22.7,63.6 20.3,66.7 C18.3,69.3 15.6,70 13,70.1 C11.8,69.4 10.6,68.4 9.7,67.7 C8,66.3 6.6,64.1 5.4,61.3 C5.1,60.6 4.7,61.8 4.4,61 C2.3,54.9 0.1,44 1.13686838e-13,35 C1.13686838e-13,34.7 1.1,35.2 1.1,34.9 C1.1,29.9 1.7,20.3 2.5,16 C2.8,14.5 2.6,16.7 2.9,15.5 C5.4,6.9 10.2,0.8 15.1,0.8 L15.1,0.8 L15.1,0.8 Z" fill="#162128"></path>
                    </g>
                </g>
            </g>
            <g class="bat" transform="translate(1773.000000, 306.000000)" sketch:type="MSShapeGroup">
                <path d="M16.2,129 C13.8,128.4 9.6,126.4 6.6,122.8 C3.5,118.9 -0.4,113.6 0.7,103.3 C0.9,100.2 4.2,91.5 2.5,82.5 C4.5,77.7 20.5,66.9 17,55.3 C18.7,52.7 18.1,49.1 22.1,38.2 C26.1,27 28,10.1 29.1,3.1 L29.1,2 C28.9,1.1 28,1.8 28,1.8 C28,1.8 28.2,1.2 28.6,1.1 C29,0.9 29.3,0.7 29.7,1.1 C29.9,1.5 30.1,2.4 30.1,3.3 C30.8,10.8 32.7,29 36.9,40.6 C41.1,52 38.6,59.5 39.8,61.4 C38.7,71.9 47.2,73.7 53.6,84.9 C51.6,94.5 54.5,100.9 54.5,105.1 C53.2,119.4 52.3,127.2 36.1,130.1 C36.3,135.4 33.9,142 34.3,147.9 C34.5,150.8 36.1,152.9 36.1,152.9 C36.1,152.9 29.1,149.2 28,144.8 C27.1,145 26.2,145.2 25.4,145.2 C23.7,149.2 16.6,152.4 16.6,152.4 C16.6,152.4 18.4,150.6 18.8,147.4 C20.1,140.8 16.6,136.4 16.2,129 L16.2,129 Z" id="Shape" fill="#000000"></path>
                <g class="oczy" transform="translate(21.000000, 136.000000)" fill="#FFFFFF">
                    <g id="Group">
                        <path d="M7.2,1.4 L10.6,1.6 L13.2,2.5 L11,0.7 L7.2,1.4 Z" id="Shape"></path>
                        <path d="M5.9,1.6 L2.6,2.2 L0,3.5 L2,1.4 L5.9,1.6 Z" id="Shape"></path>
                    </g>
                </g>
            </g>
        </g>
    </g>
</svg>
