<?xml version="1.0" encoding="UTF-8" standalone="no"?>
<svg viewBox="0 0 2285 1337" version="1.1" xmlns="http://www.w3.org/2000/svg" xmlns:xlink="http://www.w3.org/1999/xlink" xmlns:sketch="http://www.bohemiancoding.com/sketch/ns">
    <!-- Generator: Sketch 3.3 (11970) - http://www.bohemiancoding.com/sketch -->
    <title>7-01-bat</title>
    <desc>Created with Sketch.</desc>
    <defs></defs>
    <g id="Page-1" stroke="none" stroke-width="1" fill="none" fill-rule="evenodd" sketch:type="MSPage">
        <g id="7-01-bat" sketch:type="MSLayerGroup" transform="translate(-0.136426, 0.000000)">
            <g id="Warstwa_4" sketch:type="MSShapeGroup">
                <g id="Group">
                    <path d="M2284.7,801.1 L2284.7,1313.9 C2284.7,1314.5 2284.2,1315 2283.6,1315 L1.8,1336.7 C1.2,1336.7 0.7,1336.2 0.7,1335.6 L0.7,873.8 C0.7,873.2 1.2,872.7 1.8,872.7 C14.1,872.2 74.3,891 128.7,872.8 C207.5,846.6 286.7,779 302.9,780.6 C322.8,782.4 333,792.9 354.4,796.4 C382,800.8 421.1,798.4 450.7,799.5 C486.7,801 525.7,865.3 557.9,867.3 C599.3,869.9 627.6,828.7 659.9,823.6 C677.4,820.7 689.7,813.1 703.1,807.1 C719.8,799.7 752.9,791.8 767.1,779.2 C770.2,776.3 777.6,772.8 778.9,767.6 C781.1,759.5 776.3,749.2 774.1,742.4 C770.2,731.2 759.9,730.8 763.8,713.7 C765.1,708.7 761.8,706.9 759.2,707.3 C756.6,707.7 755.9,713.2 755.9,713.2 C755.9,713.2 755.2,712.8 756.6,708.2 C757.9,703.6 762.7,704.9 762.7,704.9 C762.7,704.9 769.9,705.5 769.9,718.3 C769.9,731.1 789.8,724.4 787,718.9 C784.4,713.4 789.2,706.8 792.7,704.2 C796.2,701.8 800.2,694.6 796,691.5 C794.3,690.3 792.3,690.8 790.6,691.9 C789.6,692.5 788.5,691.4 789,690.4 L789,690.4 C791.9,684.9 801.1,686.7 803.2,693.2 C805.4,699.6 803,704.4 798.6,709.4 C794.2,714.4 798.8,724.7 799,723.7 C802.3,718.2 810,714 817.4,713.4 C823.6,713 829.7,715.6 833.4,718.5 C841.3,724.7 840.9,734.7 835.4,738.2 C832.4,740 831.8,743.4 831.9,746.1 C831.9,747.4 830.2,747.8 829.7,746.6 C828.7,744.1 828.7,740.4 832.9,735.5 C836.2,731.6 832.3,726.9 827.4,726.1 C825.4,725.7 821.9,724.4 818.4,725.7 C813.4,727.7 809.4,731.9 805.7,738.6 C801.8,745.6 798.7,755 802,766.9 C805.9,780.5 808.2,778.3 834.2,793.9 C845.4,800.7 865.8,795.4 888.2,794.6 C910.6,794 935.3,797.9 954.9,802.9 C979,808.8 1014.8,831.4 1053.8,827.2 C1071.4,825.4 1096.8,792.5 1109.7,794.5 C1118.5,796.1 1151.8,803.6 1166.6,804.9 C1167.2,805 1167.8,804.5 1167.8,803.8 L1176.2,562.3 C1176.2,562 1176.4,561.6 1176.7,561.4 L1184.8,555.3 C1185.1,555.1 1185.3,554.7 1185.3,554.4 L1184.4,472.6 L1183.5,365.6 C1183.5,365.2 1183.3,364.9 1183,364.7 L1147.5,338.7 C1147.2,338.5 1147.1,338.2 1147,337.9 L1141.5,258.1 C1141.5,258 1141.5,257.8 1141.4,257.7 L1129,232.3 C1128.5,231.3 1129.6,230.2 1130.6,230.8 L1138.4,235.5 C1138.6,235.6 1138.7,235.8 1138.8,236 L1145.4,249.4 C1145.4,249.5 1145.5,249.6 1145.5,249.6 L1160.8,315.8 C1160.9,316 1161,316.3 1161.2,316.4 L1181.1,332.8 C1181.8,333.4 1183,332.9 1183,331.9 L1182.5,267.3 C1182.5,267 1182.6,266.7 1182.8,266.5 L1189,259.6 C1189.2,259.4 1189.3,259.1 1189.3,258.9 L1192,1.1 C1192,0.5 1192.5,0 1193.1,0 L1339.5,0 C1340.1,0 1340.6,0.5 1340.6,1.2 L1336.6,220.1 C1336.6,221 1337.6,221.6 1338.4,221.1 L1342.3,218.3 C1342.5,218.2 1375.8,211 1376,211 L1381.3,212.2 C1382,212.2 1372.8,215.9 1372.7,216.5 L1367.9,218.7 C1367.9,219 1362.7,222 1362.5,222.2 L1335.1,264 C1334.9,264.2 1334.8,264.5 1334.8,264.8 L1328.6,390.8 L1328.6,390.9 L1331,465.9 L1329.9,521.5 C1329.9,521.8 1330,522.1 1330.2,522.3 L1338.5,531.9 C1338.7,532.1 1338.8,532.4 1338.8,532.7 L1334.4,708.4 C1334.4,709.1 1334.9,709.6 1335.6,709.6 L1368.2,708.7 C1368.6,708.7 1368.9,708.5 1369.1,708.2 L1389.5,679.1 C1389.5,679.1 1389.5,679.1 1389.6,679 L1409,655.4 C1409.1,655.3 1409.1,655.3 1409.2,655.2 L1425.5,643 C1425.7,642.9 1425.9,642.8 1426.2,642.8 L1438,642.8 C1439.1,642.8 1439.5,644.1 1438.7,644.8 L1416.3,663.6 C1416.2,663.7 1416.1,663.8 1416,663.9 L1405.1,682.9 C1405.1,683 1405,683 1405,683.1 L1387,731.7 C1386.9,731.9 1386.7,732.1 1386.5,732.3 L1341.8,759.5 C1341.5,759.7 1341.3,760 1341.3,760.4 L1337.7,845 C1337.7,845.6 1338.1,846.1 1338.6,846.2 C1346.2,847.7 1355.5,848.4 1365.6,848.6 C1403.3,849.2 1451.4,841.8 1460.6,838.1 C1474,833.1 1474.8,815.3 1494.4,806.3 C1539.4,785.5 1573.3,765.5 1551.4,753.2 C1542.8,748.4 1540.9,739.2 1540,735.9 C1538.9,732.6 1542.6,726.7 1543.9,722.3 C1545,718.1 1542.6,720.6 1536.2,716.4 C1529.8,712.2 1532.3,705.6 1533.4,703 C1534.7,700.4 1538.2,698 1542.4,699.9 C1546.6,701.7 1546.3,703.2 1545.5,706.3 C1544.8,709.6 1546.4,709.6 1546.4,709.6 C1546.4,709.6 1542.9,709.2 1544.2,705.7 C1545.5,702.4 1539.8,700.6 1537.8,705.3 C1536,709.9 1540.6,714.9 1546.6,713.9 C1552.7,712.8 1556.3,718.3 1550.6,724.6 C1544.9,730.8 1550.8,738.2 1559.2,738.6 C1567.8,739.2 1569.7,731.4 1571.9,725.4 C1574.1,719.3 1576.3,716.4 1578.5,710.1 C1580.7,703.8 1575.2,698.2 1576.5,693.6 C1576.9,692 1577.7,690.5 1578.7,689.2 C1579.5,688.2 1581.1,689 1580.7,690.3 C1580.6,690.6 1580.5,690.9 1580.4,691.2 C1579.1,695.4 1585.2,703.3 1586.1,709 C1586.8,712.6 1584.8,718.8 1583.4,722.5 C1583,723.4 1584,724.3 1584.9,723.9 C1587.3,722.9 1591.8,721.7 1599.5,721.4 C1614.6,720.8 1616.6,731.9 1614,737.9 C1612.9,740.6 1611.1,741.6 1609.5,742 C1608.4,742.2 1607.7,740.9 1608.5,740.1 C1610,738.6 1610.6,735.8 1606.2,731.1 C1598.1,722.5 1578.3,734.2 1588.7,751.9 C1593.5,760.2 1602.3,783.3 1617.9,793.4 C1633.7,803.5 1643.5,782.7 1669,787.2 C1682.6,789.4 1709.8,801.9 1725.6,805.2 C1746,809.6 1730.9,796 1753.5,799 C1767.5,800.8 1782.2,803.8 1796.9,807.1 C1815.8,811.5 1812.2,802.9 1805.9,799.4 C1804.5,798.6 1802.8,798.5 1801.2,798.7 C1799.9,798.9 1799.4,797 1800.6,796.5 C1804.4,794.9 1810.7,795.9 1813.5,799.4 C1814.1,800.2 1815.4,799.7 1815.5,798.7 C1815.8,795.5 1815,790.9 1809.1,788.8 C1799.5,785.7 1799.5,776.1 1804.1,772.1 C1806.5,769.9 1809.8,770.4 1811.8,771.9 C1816.8,775.8 1813.1,780.7 1810,779.6 C1809.8,779.6 1811.7,778.9 1811.8,777.8 C1812.2,775.2 1810.1,772.8 1806.5,774.3 C1803.9,775.4 1803,782 1807.8,784.2 C1810.7,785.9 1815,785.7 1818.3,787.9 C1821.5,789.9 1823.2,791.9 1823.8,797 C1823.9,798.2 1825.6,798.4 1826,797.3 C1827.1,794.4 1828.7,791.8 1830.8,791.1 C1833.2,790.2 1838.9,791.3 1840,796.1 C1840.2,796.8 1840.2,797.4 1840.3,797.9 C1840.4,799.2 1838.5,799.5 1838.1,798.3 C1837.3,795.9 1835.7,793.6 1832.9,794.5 C1830.5,795.4 1828.9,798.7 1829.4,803 C1830.3,814.2 1840.4,817 1850.2,818.4 C1881.4,823.2 1907,834.9 1928.3,832.4 C1955.6,829.2 2268.3,804.6 2284.7,801.1 L2284.7,801.1 L2284.7,801.1 Z" id="Shape" fill="#223442"></path>
                    <g transform="translate(1221.000000, 337.000000)" id="Shape" fill="#1F1A17">
                        <path d="M33,25.6 C36.9,25.6 40,28.8 40,32.8 C40,35.8 38.2,38.3 35.7,39.4 L36.2,42.3 L39.6,59.1 L32.8,59.1 L26.2,59.1 L29.6,42.3 L30.1,39.3 C27.6,38.2 25.8,35.7 25.8,32.9 C25.8,29 29,25.9 32.8,25.7 L32.8,25.7 L33,25.7 L33,25.6 Z"></path>
                        <path d="M6.9,1.3 C15,1.8 23.4,2.6 31.4,2.6 C36.6,2.6 43.4,2.1 48.4,1.7 C54.5,1.5 59.5,1.2 65.9,0.6 L66.6,31.7 L65.9,50.3 L66.3,71.2 C65.8,91.2 64.5,85 64.7,70.3 L64.5,50.8 L65,27.5 L64.3,16.4 L64.5,2.1 C59.7,2.5 55.2,3 50.4,3.2 C44.3,3.4 37.2,3.7 31.3,3.7 C27.7,3.7 23.4,3.9 20.2,3.7 C15.4,3.5 11.8,2.8 6.6,2.6 C-2.1,2.2 -1.7,0.7 6.9,1.3 L6.9,1.3 Z"></path>
                    </g>
                    <g transform="translate(1174.000000, 224.000000)" id="Shape" fill="#1C2B35">
                        <path d="M142,633.2 L146.8,612.6 L149.2,583.5 L140.7,613.9 L142,633.2 Z"></path>
                        <path d="M148.1,514.2 L146.8,474.2 L149.2,413.3 L142,474.2 L148.1,514.2 Z"></path>
                        <path d="M144.4,400.1 L146.8,369.6 L146.8,335.6 L143.1,312.6 L143.1,338 L143.1,375.6 L144.4,400.1 Z"></path>
                        <path d="M134.7,386.7 L137,412.2 L137,436.5 L133.4,452.3 L134.7,425.5 L134.7,386.7 Z"></path>
                        <path d="M142.7,273.1 L144.8,234.7 L143.9,173.1 L140.7,226.2 L142.7,273.1 Z"></path>
                        <path d="M142,147.3 L144.4,85.2 L145.5,44 L140.7,84.1 L142,147.3 Z"></path>
                        <path d="M21.6,8.7 L20.5,40.4 L14.4,63.3 L13.2,102.3 L17.9,65.9 L25.3,41.5 L21.6,8.7 Z"></path>
                        <path d="M13.9,149.7 L13.9,184.5 L13,243.7 L19.4,184.5 L13.9,149.7 Z"></path>
                        <path d="M20.5,159.5 L17.2,143.9 L17.2,124.9 L19,144.4 L20.5,159.5 Z"></path>
                        <path d="M12.6,253.8 L13.7,284.1 L15.5,323.6 L16.3,283.6 L12.6,253.8 Z"></path>
                        <path d="M12.1,339.2 L4,386.7 L4,452.3 L9.5,386.7 L12.1,339.2 Z"></path>
                        <path d="M3.2,473.1 L0.1,522 L0.1,571 L1.2,600.1 L6.4,571 L4.3,518.8 L3.2,473.1 Z"></path>
                        <path d="M12.4,476.7 L13.7,467.5 L13.7,441.6 L17,465.5 L12.4,476.7 Z"></path>
                        <path d="M13,592.5 L10.4,610.7 L15.7,596.2 L13,570.7 L13,592.5 Z"></path>
                        <path d="M132.5,127.9 L129.7,153.4 L131.5,178 L126,152.5 L132.5,127.9 Z"></path>
                        <path d="M133.7,50.7 L137.4,34.7 L135.9,0.5 L133.7,36.1 L133.7,50.7 Z"></path>
                        <path d="M138.2,549.7 L139.4,540.3 L139.4,514.4 L142.7,538.3 L138.2,549.7 Z"></path>
                    </g>
                    <path d="M1315.8,423.5 C1315.4,420 1315.8,418.7 1314.3,416.9 C1313.2,415.6 1312.3,414 1310.8,412.9 C1309.3,411.8 1306.8,410 1304.7,409.8 C1302.9,409.6 1302.5,407.4 1299,406.5 C1302.5,405.8 1301.9,405.4 1304.7,405.6 C1307.1,405.6 1310.2,406 1312.1,407.1 C1314.3,408.6 1316.3,411 1318.5,413.3 C1321.8,417.3 1323.6,421.8 1323.6,421.8 C1334.3,433.9 1330,451 1330,451 C1330,451 1328.5,448.1 1326.5,446.8 C1324.8,445.7 1323,446.2 1321.9,446.4 C1320.4,447 1319,448.6 1317.5,451 C1316.4,452.8 1314.2,458.2 1312.9,459.1 C1311.1,460.2 1308.9,460.9 1305.5,461.9 C1304.2,462.1 1302.7,462.6 1301.1,462.8 C1296.3,463.2 1296.1,461.9 1294.7,461 C1294.1,460.8 1290.5,459.7 1290.8,459.5 C1293.2,458.8 1295.2,457.1 1301.1,456.2 C1303.7,455.8 1307,454.7 1308.1,454 C1310.3,452.3 1311.6,446.1 1311.6,446.1 C1311.6,446.1 1303.9,450.3 1300.4,452.2 C1296.9,454 1296.5,450.4 1290.1,450.5 C1287.7,450.5 1286.6,448.8 1285,448.3 C1282.1,447.4 1279.3,447.2 1278.9,446.3 C1278.5,445.6 1275.4,443.7 1275.2,443.2 C1280,443.6 1279.8,441.9 1282.4,442.3 C1285,442.9 1288.5,445.1 1291.8,445.2 C1294,445.6 1296,446.5 1297.9,446.5 C1299.9,446.5 1301.6,443 1303,442.3 C1305.2,441.4 1306.5,440.6 1306.5,440.6 C1306.5,440.6 1303.4,439.9 1299.9,440 C1296.4,440.2 1291.3,440.4 1287.6,440.2 C1284.3,440 1281,436.5 1275.5,432.7 C1274.2,431.8 1273.5,430.3 1272.7,429.6 C1270.5,427.4 1270.7,425.4 1268.8,422.8 C1271.2,423.5 1273.2,424.5 1275.4,425.6 C1276.5,426.2 1277.8,426.5 1279.6,428.2 C1282,430.2 1284,433.7 1287.7,434.6 C1289.9,435 1294.1,434.4 1295.6,434.8 C1299.6,435.9 1306.6,433 1306.6,433 C1306.6,433 1301.8,431.5 1298.5,431.3 C1296.1,430.9 1290.4,428.5 1286.2,424.9 C1284.2,423.4 1283.4,421.2 1281.8,419.4 C1279.2,416.6 1278.7,412.6 1276.8,409.1 C1280.3,410.2 1282.7,411.3 1285.1,413.9 C1286.2,415.4 1287.3,419 1289.5,421.3 C1291.3,423 1294.1,423.7 1295.9,424.2 C1300.1,425.7 1304.2,424.8 1306.6,425.1 C1311.4,425.7 1315.8,423.5 1315.8,423.5 L1315.8,423.5 Z" id="Shape" fill="#000000"></path>
                    <path d="M1260.5,640.3 C1263.1,640.3 1265.4,639.3 1267.7,641.1 C1271.1,643.6 1276.8,650.3 1279.5,656.2 C1281.4,660.3 1281.4,668.5 1282.3,673.4 C1282.6,675.1 1283.7,672.9 1284,674.5 C1285.3,681.6 1285.6,692.1 1285.6,702 C1285.6,709.7 1284.5,722.5 1283.5,729.3 C1281.6,741.7 1279,755.2 1274.6,760.9 C1270.8,765.9 1265.5,767.1 1260.4,767.1 C1257.6,767.1 1253.4,763.5 1250.8,761.4 C1247.8,758.9 1245.2,754.9 1243,749.9 C1242.5,748.7 1241.7,750.7 1241.2,749.4 C1237.3,738.3 1233.4,718.6 1233.3,702.3 C1233.3,701.8 1235.3,702.7 1235.3,702.2 C1235.3,693.1 1236.3,675.7 1237.8,668 C1238.3,665.3 1237.9,669.3 1238.5,667.1 C1243,651.4 1251.6,640.3 1260.5,640.3 L1260.5,640.3 L1260.5,640.3 Z" id="Shape" fill="#0D1619"></path>
                    <path d="M1261.4,640.3 C1263.7,640.2 1265.7,639.5 1267.7,641.1 C1271.1,643.6 1276.8,650.3 1279.5,656.2 C1281.4,660.3 1281.4,668.5 1282.3,673.4 C1282.6,675.1 1283.7,672.9 1284,674.5 C1285.3,681.6 1285.6,692.1 1285.6,702 C1285.6,709.7 1284.5,722.5 1283.5,729.3 C1281.6,741.7 1279,755.2 1274.6,760.9 C1272.2,764.1 1269.1,765.7 1265.9,766.5 L1264.7,766.5 C1261.9,766.5 1257.7,762.9 1255.1,760.8 C1252.1,758.3 1249.5,754.3 1247.3,749.3 C1246.8,748.1 1246,750.1 1245.5,748.8 C1241.6,737.7 1237.7,718 1237.6,701.7 C1237.6,701.2 1239.6,702.1 1239.6,701.6 C1239.6,692.5 1240.6,675.1 1242.1,667.4 C1242.6,664.7 1242.2,668.7 1242.8,666.5 C1246.8,652.8 1253.8,642.8 1261.4,640.3 L1261.4,640.3 L1261.4,640.3 Z" id="Shape" fill="#142126"></path>
                    <g id="_129332016_1_" transform="translate(1253.000000, 733.000000)" fill="#FFFFFF">
                        <path d="M10.2,3.2 L4.7,2.2 L0.6,0.3 L3.9,3.7 L10.2,3.2 Z" id="_128072336_1_"></path>
                        <path d="M12.4,3.2 L17.9,2.7 L22.3,1.1 L18.6,4.2 L12.4,3.2 Z" id="_131731016_1_"></path>
                    </g>
                </g>
            </g>
            <g class="bat" transform="translate(1354.000000, 213.000000)" sketch:type="MSShapeGroup">
                <path d="M22.3,169.5 C19,168.8 13.3,166.4 9.2,161.8 C5,157 -0.5,150.2 0.2,136.6 C0.4,132.6 4.2,120.8 1.5,109.2 C3.9,102.8 23.9,87.5 18.8,72.6 C20.6,69.1 19.7,64.1 24.3,49.8 C28.9,34.9 30.4,12.5 31.1,3.3 C31.3,2.7 31.3,2 31.1,1.6 C30.7,0.7 29.6,1.6 29.8,1.6 C29.8,1.6 29.8,0.9 30.4,0.5 C30.8,0.3 31.5,-0.1 31.9,0.5 C32.3,1.1 32.5,2.2 32.6,3.4 C34.1,13.1 37.6,36.9 43.8,51.7 C50.2,66.6 47.1,76.5 48.9,78.9 C48.2,92.7 59.4,94.5 68.6,108.9 C66.6,121.6 70.8,129.9 71.2,135.6 C70.3,154.3 69.7,164.6 48.8,169.4 C49.4,176.4 46.4,185.2 47.3,192.9 C47.9,196.9 50.1,199.5 50.1,199.5 C50.1,199.5 40.7,194.9 38.9,189.2 C37.8,189.6 36.7,189.8 35.6,189.9 C33.8,195.2 24.6,199.6 24.6,199.6 C24.6,199.6 26.8,197.2 27.4,193.2 C28.2,184.5 23.2,178.8 22.3,169.5 L22.3,169.5 Z" id="Shape" fill="#000000"></path>
                <g class="oczy" transform="translate(28.000000, 179.000000)" fill="#FFFFFF">
                    <g id="Group">
                        <path d="M9.5,2.1 L14.1,2.1 L17.7,3.2 L14.4,0.8 L9.5,2.1 Z" id="Shape"></path>
                        <path d="M7.8,2.3 L3.6,3.5 L0.3,5.4 L2.7,2.3 L7.8,2.3 Z" id="Shape"></path>
                    </g>
                </g>
            </g>
        </g>
    </g>
</svg>
