<?xml version="1.0" encoding="utf-8"?>
<!-- Generator: Adobe Illustrator 18.1.1, SVG Export Plug-In . SVG Version: 6.00 Build 0)  -->
<svg version="1.1" id="Warstwa_1" xmlns="http://www.w3.org/2000/svg" xmlns:xlink="http://www.w3.org/1999/xlink" x="0px" y="0px"
	 viewBox="0 0 2287.4 1491.4" enable-background="new 0 0 2287.4 1491.4" xml:space="preserve">
<path fill-rule="evenodd" clip-rule="evenodd" fill="#253849" d="M2287.4,1016.7c-6.9-8.5-109.4,7.5-178,0.7
	c-74.4-7.4-151.4-37.2-160.1-36.5c-20.2,1.5-30.9,9.9-52.8,12.9c-75,9.6-87.5,37.5-131.4,36.6c-34.4-0.7-102.6-25.2-138.6-50.7
	c-3.3-2.4-10.7-5.1-12.1-9.4c-2.4-6.4,2.8-14.9,5-20.4c3.9-9,14.5-9.4,10.5-23.3c-1.1-3.9,2.2-5.5,4.8-5.1s3.3,4.8,3.3,4.8
	s0.7-0.4-0.6-4c-1.5-3.9-6.4-2.8-6.4-2.8s-7.4,0.6-7.4,11s-20.4,4.8-17.6,0.4c2.9-4.4-2-9.9-5.7-11.9c-3.7-2-7.7-7.7-3.5-10.3
	c4.4-2.4,10.3,3.7,10.3,3.7s0,0-3.1-4.4c-2.9-4.6-12.3-3.1-14.5,2.2c-2.4,5.1,0.2,9,4.8,13.1s-0.2,12.3-0.4,11.6
	c-3.5-4.6-11.4-7.9-18.9-8.3c-6.4-0.4-12.7,1.8-16.4,4c-8.3,5.1-7.9,13.2-2.2,16c5.7,2.8,2.9,9.7,2.9,9.7s7.9-4-0.4-11.9
	c-3.3-3.1,0.7-7,5.9-7.5c2-0.4,5.5-1.5,9.2-0.4c5,1.7,9.2,5.1,12.9,10.5c4,5.7,7.4,13.4,3.9,23c-3.9,11-6.4,9.2-32.9,21.9
	c-11.8,5.7-32.7,1.3-55.9,0.7c-10.8-0.2-56.2-12.7-103.3-11.6c-53.5,1.1-109.4,16.2-120.2,18.2c-23.3,4.6-57.7,21.3-95.4,20.2
	c-9-2-18.4-3.9-27.9-5.5c-16-2.4-32.7-6.6-34.4-25.2c-0.7-6.6,1.8-12.1,5.7-13.6c6.8-2.2,9.6,6.4,9.7,11c0,0,4.2-0.6,2.2-8.5
	c-1.8-7.7-11.4-9.4-15.1-7.9c-6.8,2.6-10.3,15.4-11.2,21.9c0.6-18.2-2.4-22.4-9.6-27c-5.5-3.5-12.5-3.5-17.5-5.9
	c-7.7-3.9-6.2-14.3-2-16.2c6.1-2.6,9.4,1.5,8.8,5.5c-0.4,1.8-3.3,3.1-3.1,3.1c5.1,1.8,11.2-6.4,3.1-12.5c-3.3-2.6-8.8-3.3-12.9,0.2
	c-7.5,6.6-7.5,22.2,8.3,27.4c15.8,5.1,9.4,21.5,9.4,21.5c-2.2-11.9-26.1-13.8-28.3-3.9c1.7-1.1,9.2-3.5,13.8-0.7
	c9.6,5.3,5.3,22.8-11.9,30.5c-17.5,7.7-47.6,5.9-54.6,7.4c-13.8,2.9-38.4-4.6-53.1-4.4c-19.5,0.4-56.1,9.9-76.3,10.8
	c-60.5,2.6-106.1-4.4-163.4-25.2c-46.5-16.9-81.2-33.3-58.8-43.2c8.8-3.9,10.8-11.4,11.9-14.2c1.1-2.8-2.9-7.4-4-11
	c-1.3-3.5,1.3-1.3,7.9-4.8c6.6-3.3,4-8.8,2.8-10.8c-1.3-2-4.8-4-9.2-2.6c-4.4,1.5-4,2.8-3.1,5.3c0.7,2.6-1.1,2.6-1.1,2.6
	s3.7-0.2,2.2-3.1c-1.3-2.8,4.8-4,6.6-0.4c2,3.9-2.8,7.9-9,7.2c-6.2-0.9-9.9,3.5-4,8.6c5.9,5-0.4,11-9,11.4
	c-8.8,0.4-10.8-5.9-13.1-10.8c-2.4-5-4.4-7.4-6.8-12.3c-2.2-5.1,3.5-9.7,2.2-13.6c-1.3-3.7-6.6-6.6-6.6-6.6s1.1,1.3,2.4,4.8
	c1.5,3.5-4.8,9.9-5.7,14.3c-1.1,4.6,4.2,13.8,4.2,13.8s-2.8-3.1-18.2-3.5c-15.4-0.4-17.5,8.5-14.9,13.4c2.4,5,9,3.1,9,3.1
	s-9.2-1.7-0.9-8.6c8.5-7,28.9,2.6,18.2,16.9c-5,6.6-14.2,25.6-30.3,33.6c-16.2,8.3-26.3-8.6-52.6-5c-14,1.8-41.9,11.9-58.3,14.7
	c-21,3.5-5.3-7.7-28.9-5.1c-14.2,1.5-29.4,3.9-44.5,6.6c-19.7,3.5-15.8-3.5-9.4-6.4c2.9-1.3,7.5,0,8.6,0.4c-1.5-5-16.2-4-17.6,2
	c0,0-4-8.1,5.9-10.8c9.7-2.6,9.9-10.3,5.1-13.6c-2.6-1.7-5.9-1.3-8.1,0c-5,2.9-1.3,7.2,2,6.2c0-0.2-1.8-0.7-2-1.7
	c-0.4-2,1.7-4,5.5-2.8c2.8,0.9,3.7,6.2-1.3,8.1c-3.1,1.3-7.4,1.1-10.8,2.9c-4.4,2.2-6.2,4.4-5.9,13.6c-0.6-3.3-2.8-9.7-7-11
	c-2.4-0.7-8.3,0.2-9.4,3.9c-1.3,4,1.3,4.4,1.3,4.4c0.2-2.4,2-6.8,6.1-5.5c2.6,0.6,4,3.5,3.7,6.6c-1.1,9.4-11.6,11.4-21.5,12.7
	c-16.3,2-93.6,22.4-164.9,25c-69.5,2.5-133.2-12.6-144.1-13.6c-17.1-1.7-31.4-7.9-43.9-13.2v481.5h2284V1016.7z"/>
</svg>
