<svg xmlns="http://www.w3.org/2000/svg" viewBox="0 0 1763.5 1101.4"><g fill-rule="evenodd" clip-rule="evenodd"><path fill="#F1EEBE" d="M332.3 104.8c5.7 0 12.3 2.4 18.4 3.1 7.7 1.1 15.1 3.3 22.1 6.1 7.5 2.9 13.1 7.7 19.1 12.3 5.7 4.2 9.4 9.6 13.8 14.7 5.9 6.8 11 13.1 14.3 21.7 3.7 9.6 4.2 23.9 4.2 34.7 0 13.1-3.7 25.4-8.3 36.4-3.7 8.5-8.1 16.9-14.2 24.1-7.2 8.5-18 15.8-28.1 21-11.4 5.7-25.6 10.1-39.5 10.1-7.7 0-18.7-1.5-25.9-2.8-13.8-2.6-27.6-8.8-38.2-17.6-10.3-8.5-17.3-22.4-22.8-34.9-4.6-10.7-6.8-23.9-6.8-36.2 0-9 .6-17.1 2.4-25.2 1.7-8.1 5.7-15.8 9.9-22.8 2.2-3.5 5.9-6.6 8.3-9.9 2.9-4.2 6.8-8.5 11.2-12.1 3.5-2.8 9-6.6 12.9-8.8 6.1-3.7 10.8-6.8 18.4-9.6 8.6-3.2 20-4.3 28.8-4.3z"/><path fill="#E0DEB9" d="M373.5 257.7s2-4.2 6.4-8.3c1.3-1.1 5.5-2.2 7-3.7 2.6-2 .6-4.4 2.2-6.6 1.1-1.5 4.4-2 6.2-3.5 1.7-1.5 2-3.9 2.6-5.3.6-2.2 4-5.5 5.3-8.8.9-2.8 0-6.4.7-9.7.6-2.8 4.2-7.5 4.6-10.3.2-4-3.5-8.6-5.7-11.4-2.6-3.1-3.9-4.2-9.7-6.1-2.4-.7-6.4-1.5-9-2-3.5-.9-7.7-4.2-11-4.8-5.9-1.1-11.2-3.7-15.6-3.7-9.7 0-14.7 4.8-9 9.7 3.3 2.9 9 4.4 13.2 7.2 3.3 2.2 6.4 6.8 9.6 9 2.6 1.7 5.5.9 7 2.8 2 2.8 1.7 5.9 1.8 8.5 0 2 2.9 4.2 2.8 6.8-.2 2-3.5 4-4.6 6.1-1.1 1.8-.2 3.7-1.1 5.1-2.8 4.8-5.1 10.1-5.5 17.5-.8 14.8 1.8 11.5 1.8 11.5zM262.8 168.8c-2.2 4.4-4.2 12.5-5 18.9-.6 5 .7 10.8 1.1 16.7.4 5.1 5.3 12.1 6.4 15.4.7 2 2.4 4 3.5 6.2 1.5 2.8 6.1 6.2 7.5 8.6 1.5 2.4 3.5 1.7 5.1 2.9 3.5 2.8 5.3 3.3 2.6-1.7-.4-.9.4-2.2-.7-4.2s-3.9-5-4.8-6.1c-1.5-2 0-4.8-.2-6.4-.2-1.8-2.2-2.6-2.8-4.2-1.1-2.4-1.5-6.1-1.1-8.3.4-1.5 3.5-2.8 4-4.2.6-1.7.2-4.8.9-6.4.9-1.5 2.9-1.5 3.3-3.1.4-2-.6-4.4-1.5-6.4-.4-.9-2.6-.2-3.3-1.3-.6-.7-2-.6-2.8-1.8-.6-1.1-.7-3.9-.9-5.3 0-1.7 1.5-2.9 2-4.4.4-1.1-.6-2.2-.4-2.9.2-2 1.7-1.5 1.7-2.9 0-2.4-2.4-2.4-3.1-2.8-3-1.5-10 .9-11.5 3.7z"/></g></svg>