<svg viewBox="0 0 2291 1088" xmlns="http://www.w3.org/2000/svg"><title>2-01-bat</title><g fill="none" fill-rule="evenodd"><g fill="#142126"><path d="M2290.364 604.3v461.5l-2289.7 22V630.7c2.2.6 4.4.9 6.8 1.3 14.7 1.8 265-9.3 286.8-12.6 6.8-1.1 13.8-2.9 14.5-10.8.2-2.8-.7-5.1-2.4-5.7-2.9-1.1-4 2.6-4 4.6 0 0-1.8-.2-1.1-3.5.9-3.3 4.8-4 6.4-3.5 1.3.6 2.4 2 3.1 3.7l.7-15.4-2.4-46.1 1.1-55.5-28.1-48.3-13.8-7-8.6-14.9-9.2-2.8 9.6.4 9.7 9.9 8.5 3.5-8.6-55.1 18.7 59 24.8 29 4.8-43.7-8.6-11.6-6.8-40.4 4.8-90.1-4-13.2.3-62.9 6.5-80.3-5.8-63.7.2-50.3h54.4l-.1 68-8.7 80 9.1 120.8-4.8 68.2 3.1 24.3 5.1-6.6 18.6-10.7c.2-2.9.6-6.6-.6-11.9-1.1-5.5-11.8-11.2-13.4-16.4-1.7-5.1-.4-19.9-.4-19.9s8.8-16.9 8.8-19.5c0-2.8 1.3 2.9-2.2 9.7-3.7 6.8-5 17.8-4.6 21.1.4 3.3 8.5 10.5 8.5 10.5l9.2 10.7 1.1 11.8.9-.6 13.2-25.9c9.9-2.9 14.9-5.9 20-5.5 5.1.2 10.7 3.7 19.9 7.9 0 0 20.4 3.5 31.1 2.9 10.5-.6-6.4 2.9-17.1 2.9-10.5 0-22.2-1.8-22.2-1.8l-11.2-6.1-18 7.4-2 6.6 14.3-2.4c8.3-1.5 8.3 3.1 15.8 8.1 7 4.6 7 13.4 8.8 17.5 1.7 4-4.2 18.7-4.2 18.7l-4.6 4.6s3.5-7.5 3.5-12.9v-15.1s-9.2-10.3-12.9-13.6c-3.7-3.1-17.3-.6-22.6.4-6.1 18.9-13.2 17.1-30.1 28.3-1.8 1.3-6.1 7.5-10.7 14.3l6.4 48.3-3.3 13.6-4.6 93.4 6.8 10.1-.4 62.3c24.6.4 92.5-.9 146.1.4l.4-8.5-7.4-45.4 13.8-126.3-8.6-11.8-6.8-40.4 4.8-90.1-4-13.2 1.3-15.3c-3.5-4.6-10.5-13.8-13.8-19.1-1.8-3.1-8-24.1-8.2-30.7l13.3 22.8 10.5 3.3 1.2-90.1 5.7-76.7-3.9-66h53.9l-1.1 69.6-8.3 91 5 120.8-4.6 68 11.6 87.3-3.3 13.6-3.5 72.2c2.8-3.9 5.1-7.9 10.5-9.4s21-3.9 21-3.9l9-18.4 15.4-8.3 5.7-.6s-6.6 2.9-11.6 6.2c-2.8 1.7-3.9 3.9-5.9 5-.9.7-.9 1.7-1.7 2.8-4.2 6.2-6.4 18.9-6.4 18.9s-20.8 4.8-26.7 7.5c-5.9 2.7-7.7 16-8.8 23.7l5 7.5-.2 55.1c27 .6 31.8.7 58.1 1.3l10.1-124.6-5.1-93.2-3.9-13.6.6-16.5-18.2-14.9s-6.2-13.6-9.4-18.6c-3.2-5-6.1-11.6-7.2-11.9l-14-3.7h18l13.1 14.3s2.9 10.7 7.5 12.3c4.6 1.8 7 2.8 10.7 4.2l1.3-45 .2-31.2-11.6-19.3-6.2-20-.7-6.4h6.1l5.3 16 7.4 6.4.2-7.2-2-137.4 4.4-100h58.1l-5.8 60 7.6 61.6-8.2 61.7 11.6 179.4-9.7 11.6 3.1 92.1 2.8 49.6 7.4-11 8.3-25.9 7.4 4-8.3 27.9-13.2 30.9 3.7 68.7c16 .2 78.1 3.1 90.8 3.1l-2.4-83.3 4.4-40.1-15.3-34.1c-3.1-10.7-9-51.1 6.2-10.3l11.8 18.2 6.4-59.4-8.6-11.6-5-121-28.5-23.2v-39.9l6.7 13.4c1.7 10.3 3.7 21.3 3.7 21.3l17.5 11.2-.2-5.7 1.3-81.2 5.4-67-3.5-53 .5-47.7h65.3l-1.2 67.8-9.2 87 6 102.9-4.8 68.2 1.7 12.3 7.9-12.7 13.4-37.3 5.1 4.2-10.3 38.2-12.6 33.9 6.6 48.7-3.5 13.6-4.6 93.4 1.5 32 5.3-5 8.8-15.1 3.5 2-7.7 20.8-9.2 14.5 2 42.3c38.4-1.5 70.8-2.9 82.7-4l1.8-53.9-5-45.4.2-2-8.8-16.2-5.1-27 4.6-.6 5.7 22.2 4.6 9.2 3.1-44.5c-.6-5.7-2-13.6-5.9-16.5-6.2-4.6-23.3-13.2-23.3-13.2l-17.1 6.2-9.2 10.1 8.5-15.6c21-8.5 21.3-9.6 24.4-7.9 2.6 1.3 6.1 5.9 19.7 11.6l4.6 1.3 3.3-43.4-5.7-11.6-4.4-40.4 1.1-32.2c-7.7-12.1-21-33.3-23.7-38.4-3.7-7.5-2.4-24.8-3.7-29.8-.4-1.7-11.4-23-12.9-26l16.9 18.4 2.2 3.1 7.4 32.4 14.3 22.8 1.5-40.4 3.1-107.3-2.7-58 .2-69 .4-4.6h46.9l-6 39 4.4 64.7-4.4 67.3 2.3 64.3-3.1 68 4.8 54.6 14.9-19.3 5-23s7-14.9 16.9-18.6c3.7-1.5 25-10.7 18.6-6.1l-14.3 10.3c-1.3.9-7.4 4-10.1 8.6-3.7 6.1-4 13.8-4 13.8s-2.6 14.9-5.7 22.4c-1.8 4.4-11.8 17.6-19.7 27.8l1.5 16.9-2.4 13.6-2.9 93.2 4.4 10.1-.2 84c5-.7 10.3 2.9 15.1 3.3 11.9.9 22.4 0 30.3-5 11-7 15.4-5.7 18.7-11.4 7.4-12.3-6.6-20.4-12.1-14.5-5.7 6.1.6 7.5.6 7.5s-4.4 1.5-6.1-2.8c-1.8-4.2-.4-11.8 10.1-11.4 10.5.4 12.1 2.8 12.1 2.8s-3.5-7.7-2.8-11.6c.7-3.9 5-9.4 3.9-12.5-.9-2.9-1.7-4-1.7-4s3.7 2.6 4.4 5.7c.9 3.3-2.9 7.4-1.5 11.6 1.7 4.4 3.1 6.4 4.6 10.7 1.7 4.2 2.9 9.6 8.8 9.2 5.9-.2 10.1-5.3 6.2-9.7-4-4.2-1.5-8.1 2.8-7.4 4.2.7 7.4-2.9 6.1-6.1-1.3-3.3-5.3-2-4.4.4.9 2.4-1.7 2.6-1.7 2.6s1.3 0 .7-2.2c-.6-2.2-.7-3.3 2.2-4.6 2.9-1.3 5.3.4 6.1 2.2.9 1.8 2.8 6.4-1.8 9.4-4.4 2.9-6.1 1.1-5.3 4 .9 3.1 3.5 7.2 2.8 9.6-.7 2.2-2 8.6-8.1 12.1-3.5 1.8-2 9.4-2.4 13.1-.7 8.5 8.6 7.5 19.3 16.4 5.1 4.2 16.9-1.5 24.8 2 13.1 6.1 14-2.6 22.1 0l1.5-27.6-5.1-47.8 7-83.1-12.3-21.9-9.2-39.9 5-2.4 8.1 32.4 10.7 11.8 2.2-20.8-.7-47.4-6.8-40.4-3.1-54.2 7.2-107.3-2-91.7 1.7-64.9-5.7-6.8 59.3-.1 6.6 33.8-3.2 31.7 3.3 42.3-5.3 69.6 5.5 89.7-2 29.6 6.8-4.8 8.1-31.8 5.1.7-8.8 38.4-13.1 22.6-.9 13.2 5.5 75 2.8 26.1-15.4 91.7 6.8 10.1-.4 73.3c2.9-.2 5.7-.6 8.6-.7 4.2-.2 103.3-6.2 117.1-6.6 16.2-.4 32 2.8 42.1 2l.4-14.7c-1.5-.2-2.8.2-3.9.9.4-1.8 1.8-2.9 3.9-3.5l.2-12.9c-1.1-2.6-.9-5.3.2-7.7l-3.9-71.1.9-4.2-17.6-32.5-2-36.4-6.2-27.9-7.4-9.4 11.9 8.8 8.8 13.1 2 34.2 7.4 22.8 6.6 7.5 1.1-6.1-7.7-151.3 2.6-59.2c-3-4.4-13.8-10.4-23.9-25.9-8.8-13.5-16.9-36.5-19.9-41.7l16.3 1 11.5 26 15.9 15.4.9-55.5 7.5-65.6 4.8-58.7-9.3-48h85.9l5.9 54.3-8.5 75.7 5.4 113.8 3.1 14.7-2.9 139.9 8.1-6.8 8.6-19.3.7-27.4 6.2-.6-1.3 31.1-6.2 24.8-16.4 14.9-1.7 77.9 5.3 8.1 2.2 99.4c2.6.7 5.3 1.5 7.9 1.7 27.2 2.9 6.8 2 23.5-2.2 13.6-3.3 0-7 15.6-6.4 15.6.6 29.8 4.2 37.7-.6 18-10.8 23 14.5 25.7 5 2.2-8.3 0-14.9-2.8-19.7-2.4-4.6-5.3-7.5-8.6-9-2.4-.9-5 0-6.2.2-3.5.6-6.2 3.9-4 6.6 5.7 6.8.4 10.3.4 10.3s1.8-6.1-2-8.5c-3.9-2.2-4-9.2 1.5-13.6 2.4-2 6.8-3.9 11-3.5 5.1.2 10.5 3.1 12.9 7.2.2.6 3.3-6.6.2-10.1-2.9-3.5-4.8-6.6-3.3-11.2 1.7-4.4 8.1-5.9 10.1-1.8l1.8 3.9s-3.9-5.3-6.8-3.1c-2.9 2-.2 7 2.4 8.8 2.4 1.7 5.7 6.4 3.9 10.1-.9 1.7 1.1 3.5 3.7 4.2-.7-23.3-1.8-41.7.2-57l1.8-165.4 2.8-38.8-2.8-3.5.6-34-19-45.6-11-43.1 14.5 9.6 4.9 13.6 11.2 31 .3-84.2 6.2-78-5.6-76.6h45.6l-5.5 154.1 7.3 219c0 27.9-3.5 157.5-2.6 199.8.9 42.5 1.1 25.6 2.4 36.6 7.9 3.7 28.1 7.9 38.6 9.6 20 3.3 29.6-6.1 53.5-9-.2-5-.4-10.3-.2-15.8 1.5-49.8-3.1-82.3 0-107.3 2.4-18.7 5.1-101.1 5.9-158.8l-11-28.3-19.3-19.3 5-3.7 18.7 14.9 7 13.1c0-8.8 0-16.4-.2-22.2l-3.1-6.2 8.5-185.7-5.2-78.5-.7-8.8h51.3v8.8l3.3 4.6-8.7 137.9 12.3 190.4c0 28.1-11.9 148-11 198 1.1 50 4 51.7 7.7 69.5 8.1.6 16 .9 23.7.6 12.7-.4 27.9 0 42.3-.4-1.7-9.4-2.6-20.2-2.2-32.4.9-25 4.8-47.4 4.2-65.1-.7-17.5-5.7-29.8-4.2-42.3l5.1-84-5.5-116.5 5.1-3.5-.6-168.3-8.8-97.3h54.2l1.5 149.3 12.2 166.7c1.8-6.2 4.6-15.1 6.8-21.3 2.4-7.2 12.1-10.5 18.7-12.1l6.4-3.1 8.3-24.4-3.1-13.6-6.2-7.5 2.8-1.7s5.1 5.1 7.5 8.6c2.4 3.3 3.1 8.3 3.5 16.2.4 7-5.7 23.3-7.2 27.4l22.1 12.1-.6 3.7-27.4-9.9-11.8 3.7-6.1 11.2-9.7 34.7.4 17.5c-.2 2.4-3.3-1.8-3.7.4-2 11.2-8.6 38.6-7.4 73.5 0 2.6 4.4-3.5 4.6-.9 2 30.3 5.3 73.7 5.9 95.4.6 29.2-2.2 55.1 1.7 73 .6 0 1.3 0 1.8-.2 9.1-1.2 333.3-2.2 373.2 1z" id="Shape"/></g><g class="bat"><path d="M895.264 274.3c1.3-.4 3.7-1.3 5.1-3.3 1.7-2 3.9-4.8 3.3-10.3-.2-1.7-1.8-6.2-.9-11-1.1-2.6-9.4-8.5-7.5-14.5-.7-1.5-.6-3.3-2.6-9.2-2-5.9-2.9-14.9-3.5-18.7v-.6c.2-.4.7 0 .6 0 0 0 0-.4-.2-.6-.2 0-.4-.2-.6.2-.2.2-.2.6-.4 1.1-.4 3.9-1.5 13.6-3.9 19.7-2.2 6.2-.9 10.1-1.7 11.2.6 5.5-3.9 6.4-7.5 12.3 1.1 5.1-.6 8.5-.6 10.8.6 7.5.9 11.6 9.6 13.2-.2 2.9 1.1 6.4.9 9.6-.2 1.7-1.1 2.8-1.1 2.8s3.9-2 4.4-4.2c.6 0 .9.2 1.5.2.7 2 4.6 3.9 4.6 3.9s-.9-1.1-1.3-2.8c-.4-3.5 1.6-5.9 1.8-9.8z" id="Shape" fill="#000"/><g class="oczy" fill="#FFF"><path d="M888.164 279.3c0-.2-.2-.6-.6-.6-.4 0-.6.4-.6.6 0 .4.2.7.6.7.4 0 .6-.3.6-.7z" id="Shape"/><path d="M892.364 279.3c0-.2-.4-.6-.7-.6-.3 0-.6.4-.6.6 0 .4.2.7.6.7.4 0 .7-.3.7-.7z"/></g></g></g></svg>