<svg viewBox="0 0 2289 1065" xmlns="http://www.w3.org/2000/svg"><title>4-01-bat</title><g fill="none" fill-rule="evenodd"><path d="M2288.864 623.9V978l-1710.7 86.7-573.3-68-4.5-295.4c2.9.7 5.9 1.3 9 1.7 6.1.7 43.4-20 85.1-20.6 38.1-.6 83.6 21.7 123 20.6 44.3-1.3 80.9-26.1 90.1-27.6 7.9-1.3 16.4-3.5 17.3-13.1.4-3.3-.9-6.2-2.9-7-3.3-1.1-4.8 3.3-4.8 5.7 0 0-2.2-.4-1.3-4.4 1.1-3.9 5.9-4.8 7.7-4 3.5 1.3 5.1 7.9 5.7 11.4-.4-9.4 1.1-11.6 4.8-14 2.8-1.8 6.2-1.8 8.8-2.9 3.9-2 3.1-7.5 1.1-8.5-3.1-1.3-4.8.7-4.6 2.9.2.9 1.7 1.5 1.7 1.5-2.6 1.1-5.7-3.3-1.7-6.2 1.7-1.5 4.4-1.8 6.4 0 4 3.5 3.9 11.4-4 14-8.1 2.8-4.8 11-4.8 11 1.1-6.1 13.2-7 14.3-1.8-.9-.6-4.6-1.8-7-.4-5.1 2.9-8.5 10.1 7.5 6.4 12.3-2.8 12.1 4.4 23.7 2.9 8.5-1.1 16.2-2 23.3-2.8l6.8-147.2-5.5 8.2.2-37.1-24.3-17-20-41-15.8-11.8 4.8-.9 16.9 10.7 21.9 34.6 16.7 4.6.4-101.3-6.4-87.3-7.6-262.9-10.1-17.7h17.3l2.2 2.4 4.4 9.4.9-11.8h80c-1.1 15.3-2.4 28.7-2.4 28.7s-6.7 320.6-6.7 334.6c0 5 .7 27.8 1.8 54.6l9.2-3.3 8.3-26.3 25-18.2 19.5 4.2 11 4.2h-23.5l-15.3 12.5-13.8 40.3-19.3 16.7c1.5 39.7 3.1 78.1 3.1 78.1l6.4 3.7s-1.1 18.3-2.4 52.1c-1.1 33.6-.9 44.3.2 71 13.4-3.7 53.3 8.1 64 6.2 21.3-3.7 47.2-14.3 60.5-22.8 13.1-8.5 20.4-20.6 24.4-27.4 8.6-14.7-7.9-24.6-14.7-17.5-6.8 7.4.7 9 .7 9s-5.3 1.8-7.4-3.3c-2-5-.4-14.2 12.1-13.8 12.7.6 14.7 3.5 14.7 3.5s-4.2-9.4-3.3-14c.7-4.6 5.9-11.2 4.6-14.9-1.1-3.7 10.8-13.2 10.8-13.2s-8.5 11.4-7.4 15.3c.9 3.9-3.7 8.6-1.8 13.8 1.8 5.3 3.7 7.7 5.5 12.9 1.8 5 3.5 11.6 10.5 11 7.2-.4 12.1-6.4 7.4-11.8-4.8-5.1-1.7-9.7 3.3-8.8 5.1.7 9-3.5 7.4-7.4-1.5-3.9-6.4-2.4-5.3.6 1.1 2.8-1.8 3.1-1.8 3.1s1.5 0 .9-2.8c-.7-2.6-.9-4 2.6-5.5s6.4.6 7.4 2.8c1.1 2 3.1 7.7-2.2 11.2-5.3 3.5-7.4 1.3-6.4 5 .9 3.5 4.2 8.5 3.3 11.2-.9 2.9-2.4 10.5-9.7 14.5-18.2 10.3 10.1 19.9 47.8 37.1 42.3 19.5 54 27.4 82.9 25.7 9.4-.6 52.9-6.1 76.1-12.7 13.8-4 7-10.8 18.2-11 28.7-.4 14 26.7 46.7 30.9 27.2 3.5 44.3-.6 63.2-4.8l2-58.1-15.4-7.2-11.5-44.7-21.7-1.5-21.9-4 3.9-2.8 23 3.3 22.2-2 9.2 26.1 13.1 8.1 4.4-133.2-27-29.2-10.3-43-16-16 22.8 11.2 12.5 40.3 18.7 14.5.6-15.6 5.3-2.8-.9-90.3-1.1-328.1h73l-1.1 259.6 11.1-15.1 7-57.2 16.3-43.5 1.8-1.8h10.8c-1 2.2-19.3 42.2-19.3 42.2s-4.7 56.7-4.7 58.5c0 4-2.8 19.1-2.8 19.1l-20.4 18.9.2 54.4 3.7 3.9-7.4 130.9 4 9-2.9 57.1 2 3.7-.9 57.7 16.5-16.4 7.4-30.5 9-14.3 6.1 1.1-9.4 15.4-3.7 35.1-26.1 32.7-.7 45.8c3.3.2 11.8 1.8 18.4 1.5 11-.7 21-3.9 24.1-5.1 3.1-1.3 3.9-4.4 3.9-6.1 0-7.2-9.4-12.5-15.3-9 1.7-7 18.2-5.9 19.9 2.8 0 0 4.6-11.6-6.4-15.3-11.2-3.7-11.2-14.9-5.9-19.5 5.3-4.8 14 2.6 10.7 5.3-3.3 2.6-3.9 3.3-3.9 3.3s0-2.4.7-3.9c.9-1.3-2-4-4.8-2.2-2.8 1.8-4 8.8 1.5 11.6 3.5 1.7 8.3 1.7 12.1 4 5.1 3.3 7.2 6.4 6.8 19.3.6-4.6 2.9-13.8 7.7-15.6 2.8-.9 9.4.2 10.7 5.7 1.3 5.7-1.7 6.1-1.7 6.1 0-3.3-2-9.6-6.6-7.9-2.9.9-4.6 5-4.2 9.7 1.7 17.5 38.8 4.4 52.4 2 10.7-1.8 41 11 55.9 12.7 32.5 3.5 70 1.3 90.1-3.7 16.4-4 70.2-7.4 89-6.8 12.7.4 24.4 2.6 33.8 2.2l12.7-109.5-2.2-24.8-29.8-11.3s-4-16.7-2.9-27.4c1.3-10.8-14.9-46-14.9-46l7.2-5.9s1.3 16.7 8.5 29.8c7.2 13.2 11.9 39.7 11.9 39.7l19.1 7.4-.1-12.7-7-177.4 5.9-10.3-7.2-69.8c-4.5-2.7-3.1-92.4-7.6-158.6-2.9-42.8-12.1-71.8-14.1-74h84.2l-8.9 82 11.3 153.1 4.4 11.9.4 48.3 6.6-5.1 9-24.6 20.2-31.8 7.5-16.9h7l-20.8 45.2-10.7 40.6-20 15.8-1.3 100.2 5.1 7.9 1.5 136.6 8.8 103.5c11.9-2.2 27-12.1 36.9-7.7 11.4 5-11.8 11.4 2.9 13.8 27 4.4 50.5-7.2 85.3-9.4 26.8-1.7 59.6-27.6 89.5-28.9 24.8-.9 57.5 1.1 80.5-2.6 17.8-2.9 26.5-11.6 43-13.2 11.6-.9 351.2-5.1 399-1.4z" id="Shape" fill="#182830"/><g id="Shape" fill="#121E23"><path d="M468.364 227.6l-.8 19.9-3.6 14.5-.9 24.2 3.1-22.8 4.6-15.2-2.4-20.6zM456.364 316.2v21.7l-.5 37.1 3.8-37.1-3.3-21.7zM455.464 380.2l.8 19.1 1.2 24.8.4-25.2-2.4-18.7zM462.664 521.7l.9-5.9v-16.3l2 15-2.9 7.2zM463.164 319.9l-2.9-13.4v-16.4l1.6 16.9 1.3 12.9zM462.664 259.4l-3-13.4v-16.4l1.9 16.7 1.1 13.1zM463.364 362.7l1.1 25.7 1.5 33.7.5-34.2-3.1-25.2zM456.064 545.8l.9-5.7v-16.4l2 15.1-2.9 7zM466.364 523l-5.2 29.8v41.1l3.5-41.1 1.7-29.8zM473.664 595l-.7 19.9-3.9 14.5-.7 24.5 2.9-22.8 4.6-15.3-2.2-20.8zM468.364 687.5l-3-13.4v-16.4l1.9 16.8 1.1 13zM467.964 627l-2.9-13.4v-16.3l1.6 16.7 1.3 13zM407.664 228.3l.8 19.9-2.8 14.9 1.1 24.2 1.3-22.9 3.5-15.7-3.9-20.4zM402.364 317.7l1.5 21.7 2.2 37.1 1.3-37.3-5-21.5zM409.364 321l-3.9-13.3-1.3-16.3 3 16.7 2.2 12.9zM410.764 373.2l.8 19.8-2.8 14.7 1.1 24.5 1.3-23.2 3.5-15.4-3.9-20.4zM405.464 469.5l1.3 19.1 2 32.7 1.1-32.9-4.4-18.9zM412.464 465.6l-3.9-13.2-1.2-16.2 2.9 16.6 2.2 12.8zM413.164 556.6l.4 11.4-1.6 8.5.7 14 .7-13.3 1.9-8.8-2.1-11.8zM403.964 629.8l1.3 17.5 1.7 29.7 1.1-29.9-4.1-17.3zM415.564 623.9l-3.8-13-1.3-16.4 2.9 16.5 2.2 12.9zM410.664 563.6l-3.9-13.2-1.3-16.4 3 16.7 2.2 12.9zM464.264 470.2l1-5.8v-16.2l2 14.9-3 7.1zM1072.364 225.4l-.7 19.8-3.9 14.6-.7 24.4 3.1-23 4.6-15.2-2.4-20.6zM1060.464 314v21.9l-.6 37.1 3.9-37.1-3.3-21.9zM1067.264 317.9l-3-13.5v-16.3l1.7 16.7 1.3 13.1zM1067.964 370.1l.7 19.8-2.7 14.7 1.1 24.5 1.3-23.2 3.4-15.4-3.8-20.4zM1008.364 519.7l1.7 21.7 2.2 37.1 1.1-37.3-5-21.5zM1069.564 462.5l-3.8-13.2-1.3-16.2 2.9 16.5 2.2 12.9zM1019.764 257.4l-3.8-13.1-1.3-16.3 2.9 16.5 2.2 12.9zM1071.064 514.7l.7 19.9-2.7 14.7 1.1 24.4 1.3-23 3.5-15.6-3.9-20.4zM1072.764 607.4l-3.9-13.3-1.3-16.3 3 16.7 2.2 12.9zM1014.664 471l-3.9-13.3-1.3-16.3 3 16.7 2.2 12.9zM1062.764 461.6l.8 19.8-2.8 14.9 1.1 24.3 1.3-23 3.5-15.6-3.9-20.4zM1057.264 550.9l1.7 21.7 2.2 37.2 1.3-37.4-5.2-21.5zM1012.464 610.5l-4.1-13.2-1.1-16.4 3 16.7 2.2 12.9zM1008.364 502.2l4.1-13.2 1.1-16.4-3 16.8-2.2 12.8zM1065.964 606.4l.7 19.9-2.8 14.7 1.1 24.4 1.3-23.1 3.5-15.5-3.8-20.4zM1067.564 698.9l-3.8-13-1.3-16.4 2.9 16.5 2.2 12.9zM1007.264 664.7l-3.8-13.2-1.3-16.4 2.9 16.6 2.2 13zM1015.564 355.2l1.7 21.7 2.2 37.1 1.2-37.5-5.1-21.3zM1025.864 343.8l-3.9-13.1-1.3-16.3 3 16.5 2.2 12.9zM1530.964 287.2l-.7 19.8-3.9 14.5-.7 24.5 3.1-23 4.6-15.3-2.4-20.5zM1519.064 375.8v21.6l-.6 37.4 3.9-37.4-3.3-21.6zM1525.864 379.6l-3-13.4v-16.4l1.7 16.8 1.3 13zM1526.564 431.6l.7 19.9-2.7 14.9 1.1 24.4 1.3-23.1 3.5-15.7-3.9-20.4zM1528.264 524.3l-3.9-13.3-1.3-16.3 3 16.7 2.2 12.9zM1532.464 619.7l.7 19.8-2.7 14.7 1.1 24.5 1.3-23 3.4-15.6-3.8-20.4zM1530.964 540.3l.8 19.8-2.8 14.7.9 24.5 1.5-23.2 3.3-15.6-3.7-20.2zM1484.464 371l-5.3-24.1v-29.4l2.9 30.1 2.4 23.4zM1480.964 610.9l1.7 21.6 2.2 37.2 1.3-37.5-5.2-21.3zM1477.164 271.7l-3.9-13.2-1.3-16.4 3 16.7 2.2 12.9zM1487.264 562.1l-3.9-13.2-1.3-16.4 3 16.6 2.2 13zM1485.064 701.5l-3.9-13.1-1.3-16.3 3 16.5 2.2 12.9zM1481.164 593.4l3.9-13.2 1.3-16.4-3 16.5-2.2 13.1zM1476.964 439l1.6 21.7 2.2 37.1 1.3-37.3-5.1-21.5zM1483.964 415.5l-3.9-13.1-1.3-16.4 3 16.6 2.2 12.9z"/></g><path d="M404.364 260.5l-3.8-13-1.3-16.4 2.9 16.5 2.2 12.9zM407.464 405.3l-3.8-13.2-1.3-16.3 2.9 16.7 2.2 12.8z" id="Shape" fill="#242F42"/><g class="bat"><path d="M362.564 551c2.6-.6 6.8-2.6 9.7-6.1 3.1-3.9 7.2-9 6.2-19.5-.4-2.9-3.5-11.8-1.7-20.8-2-4.8-17.8-16-14.2-27.4-1.7-2.6-1.1-6.2-5-17.1-3.9-11.2-5.5-28.1-6.4-35.1v-1.3c.2-.7 1.1-.2 1.1-.2 0 .2-.2-.6-.6-.7-.4-.2-.7-.4-1.1 0-.2.4-.4 1.3-.6 2.2-.7 7.5-2.8 25.7-7.2 37.1-4.4 11.6-1.8 18.9-3.1 21 .9 10.3-7.5 12.1-14.2 23.2 1.8 9.7-1.1 16-1.3 20.4 1.3 14.3 1.8 21.9 18 25-.2 5.3 2.2 11.9 1.8 17.8-.4 3.1-2 5.1-2 5.1s7-3.7 8.3-8.1c.7.4 1.7.4 2.6.4 1.7 4.2 8.6 7.4 8.6 7.4s-1.8-2-2.2-5c-.7-6.8 3-11 3.3-18.3z" id="Shape" fill="#000"/><g class="oczy" fill="#FFF"><path d="M349.664 560.5c0-.6-.4-1.1-1.1-1.1-.6 0-1.1.6-1.1 1.1 0 .7.6 1.1 1.1 1.1.7 0 1.1-.3 1.1-1.1z" id="Shape"/><path d="M357.364 560.5c0-.6-.4-1.1-1.1-1.1-.6 0-1.1.6-1.1 1.1 0 .7.6 1.1 1.1 1.1.7 0 1.1-.3 1.1-1.1z"/></g></g></g></svg>