<svg xmlns="http://www.w3.org/2000/svg" viewBox="0 0 2287.4 1491.4"><path fill-rule="evenodd" clip-rule="evenodd" d="M1884.2 660c1.8-1.5 2.6-1.8 2.9-3.3.2-1.1.7-2.2.7-3.3 0-1.3-.2-3.3-.7-4.4-.7-1.1.2-2-.6-4.4 1.7 1.7 1.7 1.1 2.8 2.6.7 1.3 1.8 3.1 2 4.4 0 1.8-.4 3.9-.7 5.9-.7 3.3-2.2 6.1-2.2 6.1-2.2 10.3-.2 15.4 4.6 27-.9 13.4-.2 16.9 3.1 27 3.5 9.9-10.1 6.2-10.1 6.2s-.2-20-.2-31.4c-1.3-3.9-4.2-13.4-7-18.2-1.3-2.2-3.3-1.5-4-1.8-.7-.7-2.2-.7-4-.6-1.5 0-5.1 1.1-6.1.7-1.3-.6-2.6-1.3-4.2-2.8-.7-.6-1.5-1.1-2.2-1.8-2.2-2.4-1.5-2.9-1.7-4.2 0-.2-.9-2.6-.7-2.4 1.3.9 2.9 1.3 5.7 4 1.3 1.1 3.1 2.4 3.9 2.6 1.8.6 5.5-1.3 5.5-1.3s-5.1-2.2-7.5-3.3c-2.2-1.1-.6-2.8-3.1-6.1-.9-1.1-.6-2.4-.9-3.5-.7-1.8-1.7-3.5-1.3-4 .2-.4 0-2.8.2-2.9 1.7 2.6 2.4 1.8 3.1 3.3.9 1.5 1.1 4.2 2.2 5.9.7 1.3 1.1 2.8 1.8 3.7.7 1.1 3.3.6 4 1.1 1.5.7 2.4 1.1 2.4 1.1s-.9-1.8-2.4-3.7c-1.5-1.7-3.5-4.2-5-6.2-1.1-1.8-.6-4.8-.7-9.2 0-1.1.4-2 .6-2.8.2-1.8 1.3-2.6 1.8-4.6.7 1.5.9 2.9 1.3 4.4.2.7.6 1.7.4 3.3-.2 2-1.1 4.4-.2 6.6.7 1.5 2.6 3.3 2.9 4.2 1.1 2.6 5.3 5 5.3 5s-1.1-2.9-2.2-4.8c-.9-1.3-1.8-5.1-1.7-9 .2-1.5.9-2.8 1.1-4.4.6-2.4 2.4-4.2 3.5-6.6.7 2.4 1.1 3.9.7 6.2-.4 1.1-1.8 3.1-2 5.1-.2 1.7.6 3.3.9 4.6.9 2.8 3.1 4.4 3.7 5.7 1.3 2.8 4.3 4.3 4.3 4.3z"/><path opacity=".17" fill="#FFF" d="M1185.8 512.6s-39.1-24.5-87-25.7c-48-1.1-97.6 31.7-157.9 22.8-60.2-8.9-65.8-18.5-105.4-6.1 39.8-7.6 58.7 7.5 89.4 17.4 66.7 21.4 110.8-22.7 180.5-22.9 53-2.4 80.4 14.5 80.4 14.5z"/></svg>