<svg viewBox="0 0 2285 1134" xmlns="http://www.w3.org/2000/svg"><title>6-01-bat</title><g fill="none" fill-rule="evenodd"><g id="Group"><path d="M1319.464 690.5c10.8 2.6 22.4-1.3 35.7.7 19.9 3.3 48.3 1.5 69.8 2.4 26.1 1.1 54.4 47.8 77.8 49.4 30 1.8 50.5-28.1 74.1-32 12.5-2 21.5-7.7 31.2-11.9 3.3-1.5 7.4-2.9 11.8-4.4l7.9-149.8 7.7-11.6 2.8-55.5c-13.4-17.5-36.2-22.1-37.9-32-1.7-9.9-7.5-31.6-7.5-31.6l5-38.4 9.2 1.8-3.3 32.4 7.5 21 18 9.2 8.1.2-3.7-133.4 3.7-1.1-18.5-302.6h111.8l2.9 240.8-.2-.4-2.2 85.1 32.9-16.6 56-7.1-51.5 14.7-33.2 25.9-1.4 98.7s4.2-1.8 4.2 14.7c0 8.1.7 25.6 0 101.5 0 7.5 6.6-6.2 6.6 1.3 0 48.2 6.1 98.3 5.7 128.9l-8.3-.7c-16.2-1.8 34.2 2.4 48.3 5.9 17.5 4.2 50 6.2 78.3 3.1 12.9-1.3 24.8-10.8 34-9.2 11.9 2 44.1 13.2 45.4-1.8.6-4-1.1-7.5-3.5-8.5-4-1.3-5.7 4-5.9 6.8 0 0-2.6-.4-1.3-5.1 1.1-4.8 6.8-5.9 9.2-5 4 1.7 6.2 9.6 6.8 13.6-.4-11.2 1.5-14 5.7-16.7 3.3-2.2 7.7-2.2 10.7-3.7 4.8-2.4 3.7-8.5 1.3-9.9-2.4-1.7-5 .7-4.2 2 .7 1.1.7 3.3.7 3.3s-.4-.7-3.3-2.9c-2.9-2.4 4.6-8.8 9.2-4.8 4.6 4.2 4.6 13.8-5 16.9-9.7 3.3-5.7 13.4-5.7 13.4 1.3-7.5 15.8-8.6 17.1-2.4-5-3.1-13.2 1.5-13.2 7.7 0 1.5.7 4.2 3.3 5.3 5.1 2 305.1-6.7 314.4-7.5v370.6l-898.8 72.7-119.8-64.5v29.6l-697 25.6-568.3-35.2V719.3c15.1-.4 86.6 33.5 160 39.7 62.2 5.3 128-16.8 138.3-18.5 12.7-2 21.5-7.5 31.4-11.8 11.9-5.3 81.1-10.3 91.4-19.7 2.4-2 7.5-4.6 8.6-8.3 1.5-5.9-2-13.4-3.7-18.2-2.8-8.3-10.3-8.5-7.4-21 .9-3.5-1.5-5-3.3-4.6-1.8.2-2.4 4.2-2.4 4.2s-.6-.4.4-3.7c1.1-3.3 4.6-2.4 4.6-2.4s5.1.6 5.1 9.9c0 9.2 14.3 4.2 12.5.4-2-4 1.5-9 4-10.7 2.6-1.8 5.5-7 2.4-9.2-3.1-2.2-7.2 3.3-7.2 3.3l2-4.2c2.2-4 8.8-2.6 10.3 2 1.7 4.8-.2 8.1-3.3 11.8-3.3 3.7.2 11 .2 10.5 2.6-4.2 8.1-7.2 13.4-7.5 4.6-.4 9 1.7 11.6 3.7 5.7 4.6 5.5 11.8 1.5 14.2-4 2.6-2 8.8-2 8.8s-5.7-3.7.2-10.7c2.4-2.8-.4-6.2-4-6.8-1.5-.4-4-1.3-6.4-.2-3.7 1.3-6.6 4.4-9.2 9.2-2.8 5.1-5.1 11.9-2.8 20.6 2.8 9.9 4.6 8.3 23.3 19.7 8.3 5 23 1.1 39.3.6 16.2-.6-11 1.5 3.3 5 17.5 4.4 50 6.2 78.3 3.3 12.7-1.5 24.8-10.8 34-9.2 11.8 1.8 73.2 10.5 74.6-4.6.4-4.2-1.3-7.7-3.7-8.5-4-1.5-5.7 3.9-5.9 6.8 0 0-2.4-.4-1.3-5.3 1.1-4.6 7-5.7 9.2-4.8.7.2 1.5.7 2.2 1.5l3.1-58.6v-3.9l-32-8.1-27.9-39.9-43.7-8.8-1.7-3.9 45.8 6.1 37.7 28.1 21.3 5.5-4.4-253.5 8.3-16.5 4.4-251.5-7.6-93 .6-6.6h109.6l6.5 242.7-8.3 62.1 2.2 71.5 19.9-8.8 8.3-41.5 17.5-18.4 29.2-8.3 11.6 2.4-34.9 11.8-9.9 18.2-9.2 47.6-31.8 19.3 5.5 178.1 8.3 9.7 15.3 160.9c16.4 3.9 30.1 6.4 36.2 4 9.7-3.7 10.3-16.5 24.4-23.2 32.7-15.1 57.4-29.6 41.5-38.4-6.2-3.5-7.5-10.3-8.5-12.7-.7-2.4 2-6.6 2.9-9.7.7-3.1-.9-1.3-5.7-4.4-4.6-2.9-2.8-7.9-1.8-9.7.7-1.8 3.3-3.5 6.4-2.2 3.1 1.3 2.8 2.4 2.2 4.8-.6 2.2.7 2.4.7 2.4s-2.6-.4-1.7-2.9c1.1-2.4-3.3-3.7-4.6-.4-1.5 3.5 2 7.2 6.4 6.4 4.2-.7 7 3.3 2.8 7.7-4 4.6.4 9.7 6.4 10.1 6.1.4 7.5-5.1 9.2-9.6 1.7-4.4 3.1-6.6 4.8-11 1.7-4.6-2.4-8.6-1.5-12.1.7-3.3 4.6-6.1 4.6-6.1s-.7 1.3-1.8 4.4c-.9 3.1 3.5 8.8 4.2 12.9.7 4-3.1 12.1-3.1 12.1s2-2.6 12.9-2.9c10.8-.4 12.3 7.5 10.5 11.9-1.7 4.4-6.2 2.8-6.2 2.8s6.4-1.5.6-7.7c-5.9-6.2-20.2 2.4-12.9 15.1 3.7 6.1 9.9 22.8 21.3 30.1 11.4 7.3 18.6-7.7 37.1-4.6 9.9 1.7 29.6 10.7 41 13.2 14.9 3.1 3.9-6.8 20.4-4.6 10.1 1.3 20.8 3.5 31.4 5.9 13.8 3.1 11-3.1 6.6-5.7-2.2-1.1-5.3 0-6.1.4.9-4.4 11.4-3.7 12.3 1.7 0 0 2.9-7.2-4-9.6-7-2.2-7-9.2-3.7-12.1 1.8-1.7 4.2-1.3 5.7 0 3.5 2.6.9 6.2-1.5 5.5 0 0 1.3-.6 1.5-1.5.2-1.8-1.3-3.5-3.9-2.4-2 .7-2.6 5.5.9 7.2 2 1.1 5.1 1.1 7.5 2.6 3.1 2 4.4 4 4.2 12.1.4-2.9 1.8-8.6 5-9.7 1.7-.7 5.7 0 6.6 3.5.7 3.5-1.1 3.9-1.1 3.9 0-2.2-1.3-6.1-4.2-5-1.7.6-2.8 3.1-2.6 6.1.9 8.3 8.3 10.1 15.1 11.2 8.8 1.3 42.5-22.2 50-20.4l.2-3.9c22.4-7.7 83.5-18.6 106.8-22.6v.3h.3z" id="Shape" fill="#1E2F3A"/><g id="Shape" fill="#1F1A17"><path d="M1682.464 597.4c4.2 0 7.7 3.5 7.7 7.7 0 3.3-2 6.1-4.8 7.2l.6 3.3 3.7 18.2H1675.064l3.7-18.2.6-3.3c-2.6-1.3-4.6-4-4.6-7.2 0-4.2 3.5-7.5 7.7-7.7z"/><path d="M1654.164 571c8.6.6 18 1.5 26.7 1.5 5.7-.2 13.1-.7 18.6-.9 6.6-.4 11.9-.7 18.9-1.5l.7 34-.7 20.4.4 22.8c-.6 21.5-1.8 14.9-1.7-1.1l-.2-21.2.6-25.6-.7-11.9.2-15.6c-5.3.6-10.3.9-15.4 1.3-6.4.2-14.3.6-20.8.6-3.9 0-8.6.2-12.1 0-5.1-.2-9.2-.9-14.7-1.3-9.5-.6-9.2-2.1.2-1.5z"/></g><path d="M519.064 715c-2.2-.4-2.9-.9-4.4-.2-.9.4-2 .6-2.9 1.3-1.1.7-2.8 2-3.1 3.3-.6 1.1-1.8.9-3.1 2.9.2-2.4-.2-2 .4-3.7.6-1.5 1.3-3.5 2.4-4.4 1.3-1.1 3.1-2 5-2.8 3.1-1.5 6.2-1.8 6.2-1.8 9.6-4.4 19.3 1.3 19.3 1.3s-2 .4-3.1 1.5c-.9.7-1.1 2-1.1 2.8 0 .9.9 2.2 2 3.5.9 1.1 2.2 2.2 2.6 3.1.4 1.3.6 2.8.4 5 0 .9 0 2-.2 2.9-.6 3.1-1.5 2.9-2.2 3.9-.4.2-1.7 2.4-1.7 2 0-1.7-.7-3.1-.2-7 .2-1.7 0-3.9-.2-4.8-.6-1.7-2.8-2.2-2.8-2.2s0 5.1.6 7.5c.4 2.6-1.8 2.2-2.9 6.2-1.1 4-2.4 6.4-3.3 6.6-.4.2-2.2 1.8-2.6 1.7 1.1-2.8 0-3.1.7-4.6.9-1.5 1.3-3.7 2.2-5.7.6-1.3 1.5-2.4 1.7-3.7.4-1.1 0-2.4-.2-3.3-.2-1.7-.4-2.6-.4-2.6s-1.1 1.8-1.5 4c-.6 2.2-2 4.2-2.8 6.6-.6 1.8-2.9 4.4-6.2 7.2-.9.7-2 .9-2.6 1.3-1.7.9-2.9.6-4.8 1.3.7-1.5 1.8-2.6 2.8-3.7.6-.6 1.1-1.5 2.4-2.4 2.8-1.7 4.8-6.6 6.1-9 1.5-2.4 1.8-6.8 1.8-6.8s-1.8 2.6-2.6 4.6c-.7 2-4 5.9-8.8 8.3-2.2 1.1-4.8.7-7.4 1.3 1.3-2 2.4-3.3 4.6-4.2 1.8-.9 5-2.6 6.8-5 1.7-2.4 1.7-5.1 2.4-6.4 1.4-2.6.7-5.8.7-5.8zM376.264 724.6c2.2-.4 2.9-.7 4.4-.2.9.6 2 .7 2.9 1.5.9.7 2.6 2 2.9 3.1.6 1.1 1.8.9 3.1 2.9-.4-2.4.2-2-.6-3.7-.4-1.5-1.1-3.3-2.2-4.2-1.3-1.1-2.9-2-5-2.8-2.9-1.3-5.9-1.8-5.9-1.8-9.4-4.2-18.9 1.3-18.9 1.3s2 .4 3.1 1.5c.9.7.9 2 .9 2.8 0 .9-.7 2.2-1.8 3.5-.9.9-2.2 2-2.6 2.9-.4 1.3-.6 2.8-.4 5 0 .7 0 1.8.2 2.8.6 2.9 1.5 2.9 2.2 3.7.4.2 1.7 2.4 1.7 2 0-1.7.7-3.1.2-6.8-.2-1.7-.2-3.9.2-4.6.6-1.7 2.6-2.2 2.6-2.2s0 5-.4 7.4c-.6 2.4 1.7 2 2.8 6.1 1.1 4 2.2 6.2 3.1 6.4.6.2 2.2 1.7 2.6 1.7-1.1-2.8 0-2.9-.7-4.4-.7-1.7-1.3-3.7-2-5.7-.6-1.3-1.5-2.4-1.8-3.5-.4-1.3.2-2.4.2-3.3.4-1.7.6-2.6.6-2.6s.9 1.8 1.5 4c.4 2 1.8 4 2.6 6.4.6 1.8 2.8 4.4 6.1 7 .9.7 2 .9 2.6 1.3 1.7.9 2.8.6 4.8 1.1-.9-1.3-1.8-2.4-2.9-3.5-.4-.6-.9-1.3-2.2-2.2-2.6-1.7-4.6-6.4-6.1-8.8-1.3-2.2-1.7-6.8-1.7-6.8s1.7 2.8 2.6 4.6c.7 2 3.9 5.7 8.5 8.1 2.2 1.1 4.8.7 7.2 1.3-1.3-2-2.4-3.3-4.4-4.2-1.8-.9-5-2.6-6.6-4.8-1.7-2.2-1.7-5-2.4-6.2-1.6-2.8-1-6.1-1-6.1zM814.464 254.1c.6-2.2 1.1-2.9.6-4.4-.4-1.1.4-4.2-.4-5.1-.7-1.1-2.6-.7-3.9-1.3-1.1-.6-.7-2-2.8-3.3 2.4.4 2.6.6 4.2 1.3 1.5.6 3.3-.2 4 .9.4.4.7.7.9 1.7.2 1.5.2 3.7.7 5 1.1 3.1 3.9 6.6 3.9 6.6 2.2 5.7 1.5 12.5-1.1 16.2-1.5 2.6-4.8 3.5-4.8 3.5s.9-3.1 0-4.4c-.7-.9-2-1.1-2.8-1.1-.9-.2-2.2.6-3.7 1.7-1.1.9-2.2 2-3.3 2.4-1.3.2-2.4-1.7-4.6-2-.9 0-1.7 0-2.8-.2-2.9-.7-3.3.2-4-.7-.2-.2-2.4-1.8-2-1.8 1.7.2 3.7-.6 7.5.4 1.7.2 3.3.4 4.2.2 1.7-.6 2.4-2.6 2.4-2.6s-5-.4-7.5-.2c-2.6.4-2.2-1.3-6.1-2.8-4-1.3-7.9-3.3-8.1-4.2 0-.6-1.5-2.4-1.5-2.8 2.8 1.3 3.1.2 4.6 1.1 1.5.9 4.8 2.4 6.8 3.3 1.3.6 2.8.9 3.9 1.3 1.3.6 2.6.2 3.5 0 1.7 0 2.6-.2 2.6-.2s-1.7-1.1-3.9-1.8c-2.2-.6-4.8-1.8-7-2.8-2-.7-2.4-1.1-5-4.8-.6-.7-.7-1.8-1.1-2.6-.7-1.7-.2-2.9-.7-5 1.3 1.1 2.2 2 3.3 3.1.6.6 1.3 1.1 2.2 2.6.7 1.5.7 1.8 2.6 3.1 1.7.9 3.5 1.3 4.4 1.8.9.7 1.7.4 2.8.6 1.8.4 4.2.9 4.2.9s-2.6-1.8-4.6-2.8c-1.1-.6-3.9-3.1-5.7-6.1-1.3-2-1.5-4.4-2.2-6.2-.9-2.4-.6-5-.7-7.5 1.8 1.5 2.9 2.8 3.9 4.8.6 1.1.4 4.2 1.3 6.4.9 1.8 2.6 2.9 3.7 3.7 2.2 2 5 2.2 6.2 2.9 2.8 1.5 5.9 1.2 5.9 1.2z" id="Shape" fill="#000"/><g id="Shape" fill="#18262D"><path d="M1724.964 572.2l2.2-26.1v-29l-3.2-19.9v54.1l1 20.9zM1723.664 463.6l1.8-32.9-.9-52.6-2.8 45.4 1.9 40.1zM1722.864 355.9l2.1-52.9 1.1-35.5-4.3 34.4 1.1 54zM1714.864 339.3l-2.4 21.9 1.4 21-4.6-21.9 5.6-21zM1715.964 273.4l3.1-13.8-1.3-29.3-1.8 30.6v12.5zM1646.464 576.3l-2.2-25.9v-29.3l3.1-19.6v54l-.9 20.8zM1647.764 467.7l-1.9-33 .9-52.5 2.8 45.4-1.8 40.1zM1648.464 360.1l-2-53.1-1.1-35.3 4.2 34.2-1.1 54.2zM1659.264 387.1l2.4 21.9-1.6 21.2 4.8-21.9-5.6-21.2zM1655.464 277.4l-3.1-13.6 1.2-29.4 1.9 30.5v12.5zM1656.364 527.9l-2-25.9v-29l3.1-19.9v54.1l-1.1 20.7zM729.964 222.6l-1.3 31.5-6.1 23.1-1.1 39 4.8-36.6 7.4-24.3-3.7-32.7zM710.664 363.6v34.6l-.9 59.2 6.4-59.2-5.5-34.6zM709.364 465.4l1.3 30.4 1.8 39.5.6-40.1-3.7-29.8zM720.364 553.1l-8.3 47.3V666l5.6-65.6 2.7-47.3zM720.764 690.6l1.3-9.4v-25.7l3.3 23.7-4.6 11.4zM721.664 369.7l-4.8-21.5v-25.9l2.8 26.6 2 20.8zM720.764 273.2l-4.6-21.3v-26.1l2.6 26.8 2 20.6zM721.864 437.5l1.6 41.2 2.4 53.5.9-54.3-4.9-40.4zM710.264 729l1.3-9.2v-25.9l3.3 23.9-4.6 11.2zM726.664 692.6l-8.3 47.5v65.6l5.5-65.6 2.8-47.5zM802.764 591.2l2.5-47.6-1.2-75.8-3.9 65.5 2.6 57.9zM801.764 435.9l3-76.7 1.5-50.9-5.9 49.4 1.4 78.2zM794.964 413.4l-3.4 31.6 2.3 30.4-6.8-31.5 7.9-30.5zM791.664 316.6l4.6-19.9-1.8-42.3-2.8 44.1v18.1zM1633.964 646.1l-2.2-26.1v-29l3.1-19.9v54.1l-.9 20.9zM1645.364 720.9l-2-25.9v-29l3.1-19.9v54.1l-1.1 20.7zM816.564 580.5l1.6 41.2 2.4 53.3.9-54.2-4.9-40.3zM811.364 679.8l1.3-9.4v-25.7l3.3 23.7-4.6 11.4z"/></g><g id="Shape"><path d="M769.964 412.8c1.4 0 2.7-.5 4 .4 1.9 1.4 5.1 5.1 6.5 8.3 1 2.2 1 6.7 1.6 9.5.2 1 .8-.3.9.6.7 3.9.9 9.7.9 15.2 0 4.2-.6 11.3-1.2 15.1-1 6.8-2.5 14.3-4.9 17.4-2.1 2.7-5 3.4-7.8 3.4-1.6 0-3.9-2-5.3-3.2-1.7-1.4-3.1-3.6-4.3-6.4-.3-.7-.7.5-1-.3-2.1-6.1-4.3-17-4.4-26 0-.3 1.1.2 1.1-.1 0-5 .6-14.6 1.4-18.9.3-1.5.1.7.4-.5 2.4-8.4 7.2-14.5 12.1-14.5z" fill="#010202"/><path d="M769.964 412.8c.5 0 1.1-.1 1.6-.1 1.9 1.5 5 5.1 6.3 8.2 1 2.2 1 6.7 1.6 9.5.2 1 .8-.3.9.6.7 3.9.9 9.7.9 15.2 0 4.2-.6 11.3-1.2 15.1-1 6.8-2.5 14.3-4.9 17.4-2 2.6-4.7 3.3-7.3 3.4-1.2-.7-2.4-1.7-3.3-2.4-1.7-1.4-3.1-3.6-4.3-6.4-.3-.7-.7.5-1-.3-2.1-6.1-4.3-17-4.4-26 0-.3 1.1.2 1.1-.1 0-5 .6-14.6 1.4-18.9.3-1.5.1.7.4-.5 2.5-8.6 7.3-14.7 12.2-14.7z" fill="#162128"/></g></g><g class="bat"><path d="M1789.064 434c-2.4-.6-6.6-2.6-9.6-6.2-3.1-3.9-7-9.2-5.9-19.5.2-3.1 3.5-11.8 1.8-20.8 2-4.8 18-15.6 14.5-27.2 1.7-2.6 1.1-6.2 5.1-17.1 4-11.2 5.9-28.1 7-35.1V307c-.2-.9-1.1-.2-1.1-.2s.2-.6.6-.7c.4-.2.7-.4 1.1 0 .2.4.4 1.3.4 2.2.7 7.5 2.6 25.7 6.8 37.3 4.2 11.4 1.7 18.9 2.9 20.8-1.1 10.5 7.4 12.3 13.8 23.5-2 9.6.9 16 .9 20.2-1.3 14.3-2.2 22.1-18.4 25 .2 5.3-2.2 11.9-1.8 17.8.2 2.9 1.8 5 1.8 5s-7-3.7-8.1-8.1c-.9.2-1.8.4-2.6.4-1.7 4-8.8 7.2-8.8 7.2s1.8-1.8 2.2-5c1.3-6.6-2.2-11-2.6-18.4z" id="Shape" fill="#000"/><g class="oczy" fill="#FFF"><path d="M1801.064 442.4l3.4.2 2.6.9-2.2-1.8-3.8.7z" id="Shape"/><path d="M1799.764 442.6l-3.3.6-2.6 1.3 2-2.1 3.9.2z"/></g></g></g></svg>