<?xml version="1.0" encoding="UTF-8" standalone="no"?>
<svg width="530px" height="139px" viewBox="0 0 530 139" version="1.1" xmlns="http://www.w3.org/2000/svg" xmlns:xlink="http://www.w3.org/1999/xlink" xmlns:sketch="http://www.bohemiancoding.com/sketch/ns">
    <!-- Generator: Sketch 3.3.2 (12043) - http://www.bohemiancoding.com/sketch -->
    <title>_agora</title>
    <desc>Created with Sketch.</desc>
    <defs></defs>
    <g id="Page-1" stroke="none" stroke-width="1" fill="none" fill-rule="evenodd" sketch:type="MSPage">
        <g id="MAPA-grecja-2" sketch:type="MSLayerGroup" transform="translate(-3368.000000, -2233.000000)">
            <g id="Warstwa_2-+-Warstwa_3-+-Layer_1" transform="translate(2801.000000, 1644.000000)" sketch:type="MSShapeGroup">
                <g id="Warstwa_3-+-Layer_1" transform="translate(0.500000, 0.000000)">
                    <g id="Layer_1" transform="translate(60.500000, 0.000000)">
                        <g id="_agora" transform="translate(507.000000, 589.500000)">
                            <g id="Group" transform="translate(150.000000, 12.500000)">
                                <path d="M0.75,7.45 L0.7,7.45 L0.7,45.6 L39.35,45.6 L39.35,7.45 L0.75,7.45 Z" id="Shape" stroke="#DC7D27" stroke-width="0.165" fill="#321512"></path>
                                <rect id="Rectangle-path" stroke="#DC7D27" stroke-width="0.165" fill="#290C07" x="25.35" y="11.9" width="6.2" height="8.9"></rect>
                                <rect id="Rectangle-path" stroke="#DC7D27" stroke-width="0.165" fill="#290C07" x="8" y="31" width="6.55" height="14.55"></rect>
                                <path d="M39.75,26.3 L0.25,26.3 C0.1,26.3 0,26.2 0,26.05 C0,25.9 0.1,25.8 0.25,25.8 L39.75,25.8 C39.9,25.8 40,25.9 40,26.05 C40,26.2 39.9,26.3 39.75,26.3 L39.75,26.3 Z" id="Shape" stroke="#DC7D27" stroke-width="0.165" fill="#321512"></path>
                                <path id="Shape" stroke="#DC7D27" stroke-width="0.165" fill="#321512" d="M20,26.3 L0.2,26.3 C0.2,26.3 0.65,26.4 0.65,26.75 L19.95,26.75 L39.25,26.75 C39.25,26.4 39.7,26.3 39.7,26.3 L20,26.3 L20,26.3 Z"></path>
                                <path d="M40,9.2 L0.05,9.2 L1.4,0.3 L38.6,0.3 L40,9.2 Z" id="Shape" stroke="#DC7D27" stroke-width="0.165" fill="#321512"></path>
                                <path d="M40,9.2 L0.05,9.2 L1.4,0.3 L38.6,0.3 L40,9.2 Z" id="Shape" fill="#000000"></path>
                            </g>
                            <g id="Group" transform="translate(424.000000, 42.500000)">
                                <rect id="Rectangle-path" stroke="#DC7D27" stroke-width="0.165" fill="#321512" x="1.3" y="14.65" width="62.9" height="27"></rect>
                                <rect id="Rectangle-path" stroke="#DC7D27" stroke-width="0.165" fill="#321512" x="0.25" y="0.4" width="103.05" height="14.3"></rect>
                                <rect id="Rectangle-path" fill="#000000" x="0.25" y="0.4" width="103.05" height="14.3"></rect>
                                <rect id="Rectangle-path" stroke="#DC7D27" stroke-width="0.165" fill="#321512" x="1.3" y="41.65" width="62.95" height="29.1"></rect>
                                <path d="M83.8,1.2 L64.3,11.7 L64.25,11.7 L64.25,70.75 L103.3,70.75 L103.3,11.7 L83.8,1.2 Z" id="Shape" stroke="#DC7D27" stroke-width="0.165" fill="#321512"></path>
                                <path d="M63.75,12.05 L63.5,11.4 L83.65,0.45 C83.75,0.4 83.8,0.4 83.9,0.45 L104.05,11.4 L103.8,12.05 L83.75,1.15 L63.75,12.05 L63.75,12.05 Z" id="Shape" stroke="#DC7D27" stroke-width="0.165" fill="#DC7D27"></path>
                                <rect id="Rectangle-path" stroke="#DC7D27" stroke-width="0.165" fill="#290C07" x="79.35" y="18.6" width="8.8" height="9.05"></rect>
                                <rect id="Rectangle-path" stroke="#DC7D27" stroke-width="0.165" fill="#290C07" x="79.55" y="50.45" width="8.4" height="20.3"></rect>
                                <rect id="Rectangle-path" stroke="#DC7D27" stroke-width="0.165" fill="#290C07" x="13.85" y="50.45" width="8.4" height="20.3"></rect>
                                <rect id="Rectangle-path" stroke="#DC7D27" stroke-width="0.165" fill="#9E451F" x="43.85" y="47.95" width="12.9" height="22.8"></rect>
                                <g transform="translate(41.000000, 20.500000)" stroke="#DC7D27" id="Rectangle-path" stroke-width="0.165" fill="#290C07">
                                    <rect x="0.05" y="0.4" width="4.45" height="11.4"></rect>
                                    <rect x="6.05" y="0.4" width="4.45" height="11.4"></rect>
                                </g>
                                <g transform="translate(13.000000, 20.500000)" stroke="#DC7D27" id="Rectangle-path" stroke-width="0.165" fill="#290C07">
                                    <rect x="0.35" y="0.4" width="4.45" height="11.4"></rect>
                                    <rect x="6.35" y="0.4" width="4.45" height="11.4"></rect>
                                </g>
                                <path d="M18.05,36 L1.3,41.65 L18.05,41.65 L34.8,41.65 L18.05,36 Z" id="Shape" stroke="#DC7D27" stroke-width="0.165" fill="#321512"></path>
                                <path d="M18.05,36 L1.3,41.65 L18.05,41.65 L34.8,41.65 L18.05,36 Z" id="Shape" fill="#000000"></path>
                                <path d="M42.85,70.75 L42.85,47.15 L57.75,47.15 L57.75,70.75" id="Shape" stroke="#DC7D27" stroke-width="0.165" fill="#290C07"></path>
                                <path d="M41.85,70.75 L41.85,46.1 L58.75,46.1 L58.75,70.75" id="Shape" stroke="#DC7D27" stroke-width="0.165"></path>
                                <path d="M41.85,46.1 L42.85,47.15" id="Shape" stroke="#DC7D27" stroke-width="0.165" fill="#321512"></path>
                                <path d="M58.75,46.1 L57.75,47.15" id="Shape" stroke="#DC7D27" stroke-width="0.165" fill="#321512"></path>
                            </g>
                            <g id="Group" transform="translate(302.500000, 9.500000)">
                                <rect id="Rectangle-path" stroke="#DC7D27" stroke-width="0.165" fill="#321512" x="0.9" y="9.85" width="52.85" height="17.95"></rect>
                                <rect id="Rectangle-path" stroke="#DC7D27" stroke-width="0.165" fill="#321512" x="0.05" y="0.4" width="79.65" height="9.5"></rect>
                                <rect id="Rectangle-path" fill="#000000" x="0.05" y="0.4" width="79.65" height="9.5"></rect>
                                <path d="M66.75,0.95 L53.8,7.9 L53.8,47.1 L79.7,47.1 L79.7,7.9 L66.75,0.95 Z" id="Shape" stroke="#DC7D27" stroke-width="0.165" fill="#321512"></path>
                                <path d="M53.45,8.15 L53.3,7.7 L66.7,0.45 C66.75,0.4 66.8,0.4 66.85,0.45 L80.25,7.7 L80.1,8.15 L66.8,0.95 L53.45,8.15 L53.45,8.15 Z" id="Shape" stroke="#DC7D27" stroke-width="0.165" fill="#DC7D27"></path>
                                <rect id="Rectangle-path" stroke="#DC7D27" stroke-width="0.165" fill="#290C07" x="58.9" y="12.45" width="5.85" height="6"></rect>
                                <rect id="Rectangle-path" stroke="#DC7D27" stroke-width="0.165" fill="#290C07" x="14.75" y="13.15" width="5.6" height="4.6"></rect>
                                <path d="M23.15,27.8 L12.05,24 L0.9,27.8 L0.9,47.1 L53.8,47.1 L53.8,27.8 L23.15,27.8 Z" id="Shape" stroke="#DC7D27" stroke-width="0.165" fill="#321512"></path>
                                <rect id="Rectangle-path" stroke="#DC7D27" stroke-width="0.165" fill="#290C07" x="6.15" y="33.65" width="11.4" height="13.5"></rect>
                                <rect id="Rectangle-path" stroke="#DC7D27" stroke-width="0.165" fill="#290C07" x="35.65" y="13.15" width="5.6" height="12.05"></rect>
                                <path id="Shape" stroke="#DC7D27" stroke-width="0.165" fill="#321512" d="M23.15,27.8 L23.15,9.9"></path>
                                <g transform="translate(23.000000, 20.500000)" id="Rectangle-path" stroke-width="0.165" stroke="#DC7D27" fill="#321512">
                                    <g>
                                        <g>
                                            <rect x="0.15" y="0.1" width="0.75" height="4.65"></rect>
                                            <rect x="0.9" y="0.1" width="0.75" height="4.65"></rect>
                                            <rect x="1.65" y="0.1" width="0.75" height="4.65"></rect>
                                            <rect x="2.4" y="0.1" width="0.75" height="4.65"></rect>
                                            <rect x="3.15" y="0.1" width="0.75" height="4.65"></rect>
                                            <rect x="3.9" y="0.1" width="0.75" height="4.65"></rect>
                                            <rect x="4.65" y="0.1" width="0.75" height="4.65"></rect>
                                            <rect x="5.4" y="0.1" width="0.75" height="4.65"></rect>
                                        </g>
                                        <g transform="translate(6.000000, 0.000000)">
                                            <rect x="0.15" y="0.1" width="0.75" height="4.65"></rect>
                                            <rect x="0.85" y="0.1" width="0.75" height="4.65"></rect>
                                            <rect x="1.6" y="0.1" width="0.75" height="4.65"></rect>
                                            <rect x="3.1" y="0.1" width="0.75" height="4.65"></rect>
                                            <rect x="3.85" y="0.1" width="0.75" height="4.65"></rect>
                                            <rect x="4.6" y="0.1" width="0.75" height="4.65"></rect>
                                            <rect x="5.35" y="0.1" width="0.75" height="4.65"></rect>
                                        </g>
                                    </g>
                                    <g transform="translate(12.000000, 0.000000)">
                                        <g>
                                            <rect x="0.1" y="0.1" width="0.75" height="4.65"></rect>
                                            <rect x="0.85" y="0.1" width="0.75" height="4.65"></rect>
                                            <rect x="1.6" y="0.1" width="0.75" height="4.65"></rect>
                                            <rect x="2.35" y="0.1" width="0.75" height="4.65"></rect>
                                            <rect x="3.1" y="0.1" width="0.75" height="4.65"></rect>
                                            <rect x="3.85" y="0.1" width="0.75" height="4.65"></rect>
                                            <rect x="4.6" y="0.1" width="0.75" height="4.65"></rect>
                                            <rect x="5.35" y="0.1" width="0.75" height="4.65"></rect>
                                        </g>
                                        <g transform="translate(6.000000, 0.000000)">
                                            <rect x="0.1" y="0.1" width="0.75" height="4.65"></rect>
                                            <rect x="0.85" y="0.1" width="0.75" height="4.65"></rect>
                                            <rect x="1.6" y="0.1" width="0.75" height="4.65"></rect>
                                            <rect x="2.35" y="0.1" width="0.75" height="4.65"></rect>
                                            <rect x="3.05" y="0.1" width="0.75" height="4.65"></rect>
                                            <rect x="3.8" y="0.1" width="0.75" height="4.65"></rect>
                                            <rect x="4.55" y="0.1" width="0.75" height="4.65"></rect>
                                            <rect x="5.3" y="0.1" width="0.75" height="4.65"></rect>
                                        </g>
                                    </g>
                                    <g transform="translate(24.000000, 0.000000)">
                                        <g>
                                            <rect x="0.05" y="0.1" width="0.75" height="4.65"></rect>
                                            <rect x="0.8" y="0.1" width="0.75" height="4.65"></rect>
                                            <rect x="1.55" y="0.1" width="0.75" height="4.65"></rect>
                                            <rect x="2.3" y="0.1" width="0.75" height="4.65"></rect>
                                            <rect x="3.05" y="0.1" width="0.75" height="4.65"></rect>
                                            <rect x="3.8" y="0.1" width="0.75" height="4.65"></rect>
                                            <rect x="4.55" y="0.1" width="0.75" height="4.65"></rect>
                                            <rect x="5.3" y="0.1" width="0.75" height="4.65"></rect>
                                        </g>
                                        <rect x="6.05" y="0.1" width="0.75" height="4.65"></rect>
                                    </g>
                                </g>
                                <g transform="translate(30.000000, 9.500000)" stroke="#DC7D27" stroke-width="0.165" fill="#321512">
                                    <path d="M2.7,1.8 L1.8,1.8 L1.75,1.8 L1.7,1.8 L0.8,1.8 L0.7,18.3 L1.7,18.3 L1.75,18.3 L1.8,18.3 L2.8,18.3 L2.7,1.8 Z" id="Shape"></path>
                                    <g>
                                        <rect id="Rectangle-path" x="0.1" y="0.4" width="3.35" height="0.65"></rect>
                                        <path d="M1.75,1.05 L0.1,1.05 L0.1,1.2 C0.4,1.5 0.65,1.6 0.65,1.6 L1.75,1.6 L2.85,1.6 C2.85,1.6 3.1,1.5 3.4,1.2 L3.4,1.05 L1.75,1.05 L1.75,1.05 Z" id="Shape"></path>
                                        <path id="Shape" d="M1.75,1.6 L0.65,1.6 L0.65,1.65 L0.8,1.8 L1.75,1.8 L2.7,1.8 L2.85,1.65 L2.85,1.6 L1.75,1.6 Z"></path>
                                    </g>
                                </g>
                                <g transform="translate(43.500000, 9.500000)" stroke="#DC7D27" stroke-width="0.165" fill="#321512">
                                    <path d="M2.65,1.8 L1.75,1.8 L1.7,1.8 L1.65,1.8 L0.75,1.8 L0.65,18.3 L1.65,18.3 L1.7,18.3 L1.75,18.3 L2.75,18.3 L2.65,1.8 Z" id="Shape"></path>
                                    <g>
                                        <rect id="Rectangle-path" x="0.05" y="0.4" width="3.35" height="0.65"></rect>
                                        <path d="M1.7,1.05 L0.05,1.05 L0.05,1.2 C0.35,1.5 0.6,1.6 0.6,1.6 L1.7,1.6 L2.8,1.6 C2.8,1.6 3.05,1.5 3.35,1.2 L3.35,1.05 L1.7,1.05 L1.7,1.05 Z" id="Shape"></path>
                                        <path id="Shape" d="M1.7,1.6 L0.6,1.6 L0.6,1.65 L0.75,1.8 L1.7,1.8 L2.65,1.8 L2.8,1.65 L2.8,1.6 L1.7,1.6 Z"></path>
                                    </g>
                                </g>
                                <g transform="translate(34.000000, 32.000000)" stroke="#DC7D27" stroke-width="0.165">
                                    <rect id="Rectangle-path" fill="#290C07" x="1.25" y="1.35" width="6.4" height="13.75"></rect>
                                    <path d="M8.55,0.55 L0.4,0.55 C0.25,0.55 0.15,0.45 0.15,0.3 C0.15,0.15 0.25,0.05 0.4,0.05 L8.55,0.05 C8.7,0.05 8.8,0.15 8.8,0.3 C8.8,0.45 8.7,0.55 8.55,0.55 L8.55,0.55 Z" id="Shape" fill="#321512"></path>
                                    <path d="M6.25,0.55 L0.35,0.55 C0.35,0.55 0.85,0.65 0.85,1.05 L6.3,1.05 L8.15,1.05 C8.15,0.65 8.65,0.55 8.65,0.55 L6.25,0.55 L6.25,0.55 Z" id="Shape" fill="#321512"></path>
                                </g>
                                <path d="M23.15,27.8 L12.05,24.05 L0.95,27.8 L0.95,27.75 L12.05,24 L12.05,24 L23.15,27.8 L23.15,27.8 Z" id="Shape" stroke="#DC7D27" stroke-width="0.165" fill="#321512"></path>
                                <path d="M23.15,27.8 L12.05,24.05 L0.75,27.85 L0.6,27.4 L12.05,23.55 L12.1,23.55 L23.3,27.35 L23.15,27.8 Z" id="Shape" stroke="#DC7D27" stroke-width="0.165" fill="#DC7D27"></path>
                            </g>
                            <g id="Group" transform="translate(263.000000, 0.000000)" stroke-width="0.165" stroke="#DC7D27">
                                <g>
                                    <path d="M17.4,0.65 L0.7,8.15 L0.65,8.15 L0.65,34.15 L34.15,34.15 L34.15,8.15 L17.4,0.65 Z" id="Shape" fill="#321512"></path>
                                    <path d="M0.25,8.4 L0.05,7.95 L17.35,0.15 C17.4,0.1 17.5,0.1 17.55,0.15 L34.8,7.95 L34.6,8.4 L17.45,0.6 L0.25,8.4 L0.25,8.4 Z" id="Shape" fill="#DC7D27"></path>
                                    <rect id="Rectangle-path" fill="#290C07" x="13.7" y="18.1" width="7.4" height="16.15"></rect>
                                </g>
                                <path d="M3.2,7.05 L3.2,34.15" id="Shape" fill="#B14D26"></path>
                                <path d="M31.6,7.05 L31.6,34.15" id="Shape" fill="#B14D26"></path>
                                <path d="M17.35,16.85 L12.95,16.85 L13.35,17.7 L17.35,17.7 L21.4,17.7 L21.8,16.85 L17.35,16.85 Z" id="Shape" fill="#321512"></path>
                            </g>
                            <g id="Group" transform="translate(191.000000, 0.500000)">
                                <path d="M17.4,0.7 L0.7,8.2 L0.65,8.2 L0.65,34.15 L34.1,34.15 L34.1,8.2 L17.4,0.7 Z" id="Shape" stroke="#DC7D27" stroke-width="0.165" fill="#321512"></path>
                                <path d="M0.25,8.4 L0.05,7.95 L17.3,0.15 C17.35,0.1 17.45,0.1 17.5,0.15 L34.75,7.95 L34.55,8.4 L17.4,0.65 L0.25,8.4 L0.25,8.4 Z" id="Shape" stroke="#DC7D27" stroke-width="0.165" fill="#DC7D27"></path>
                                <rect id="Rectangle-path" stroke="#DC7D27" stroke-width="0.165" fill="#290C07" x="13.65" y="12.3" width="7.35" height="7.35"></rect>
                                <g transform="translate(0.000000, 0.500000)" id="Shape">
                                    <path d="M0.25,7.9 L17.45,0.2 L34.55,7.9" fill="#321512"></path>
                                    <g fill="#DC7D27">
                                        <path d="M1,7.55 L1,7.55 L0.95,7.55 L0.9,7.6 L0.85,7.6 L0.8,7.65 L0.75,7.65 L0.7,7.65 L0.7,7.7 L0.65,7.7 L0.6,7.7 L0.55,7.75 L0.5,7.75 L0.5,7.8 L0.45,7.8 L0.4,7.8 L0.35,7.85 L0.3,7.85 L0.25,7.85 L0.25,7.9 L0.25,7.95 L0.3,7.95 L0.3,7.9 L0.35,7.9 L0.35,7.85 L0.4,7.85 L0.4,7.9 L0.4,7.85 L0.45,7.85 L0.5,7.85 L0.45,7.8 L0.5,7.8 L0.5,7.85 L0.55,7.8 L0.6,7.8 L0.6,7.75 L0.65,7.8 L0.65,7.75 L0.7,7.75 L0.7,7.7 L0.75,7.7 L0.8,7.7 L0.75,7.7 L0.8,7.65 L0.8,7.7 L0.85,7.7 L0.85,7.65 L0.9,7.65 L0.9,7.6 L0.95,7.65 L0.95,7.6 L1,7.6 L1.05,7.55 L1,7.55 Z"></path>
                                        <path d="M1.8,7.2 L1.75,7.2 L1.7,7.2 L1.7,7.25 L1.65,7.25 L1.6,7.25 L1.6,7.3 L1.55,7.3 L1.5,7.3 L1.45,7.35 L1.4,7.35 L1.35,7.4 L1.3,7.4 L1.25,7.4 L1.25,7.45 L1.2,7.45 L1.15,7.45 L1.15,7.5 L1.1,7.5 L1.05,7.5 L1,7.55 L1.05,7.55 L1.05,7.6 L1.1,7.6 L1.05,7.55 L1.1,7.55 L1.15,7.55 L1.15,7.5 L1.15,7.55 L1.2,7.5 L1.25,7.5 L1.25,7.45 L1.3,7.45 L1.3,7.5 L1.3,7.45 L1.35,7.45 L1.4,7.45 L1.35,7.4 L1.4,7.4 L1.4,7.45 L1.45,7.4 L1.45,7.35 L1.45,7.4 L1.5,7.4 L1.5,7.35 L1.55,7.35 L1.6,7.3 L1.6,7.35 L1.6,7.3 L1.65,7.3 L1.7,7.3 L1.65,7.3 L1.7,7.25 L1.7,7.3 L1.75,7.3 L1.75,7.25 L1.8,7.25 L1.8,7.2 L1.8,7.2 Z"></path>
                                        <path d="M2.6,6.85 L2.55,6.85 L2.5,6.85 L2.45,6.9 L2.4,6.9 L2.35,6.95 L2.3,6.95 L2.25,7 L2.2,7 L2.15,7 L2.15,7.05 L2.1,7.05 L2.05,7.05 L2,7.1 L1.95,7.1 L1.95,7.15 L1.9,7.15 L1.85,7.15 L1.8,7.2 L1.85,7.25 L1.85,7.2 L1.9,7.2 L1.9,7.15 L1.95,7.15 L1.95,7.2 L2,7.15 L1.95,7.15 L2,7.15 L2.05,7.15 L2.05,7.1 L2.05,7.15 L2.1,7.1 L2.15,7.1 L2.15,7.05 L2.2,7.05 L2.2,7.1 L2.2,7.05 L2.25,7 L2.25,7.05 L2.3,7.05 L2.25,7 L2.3,7 L2.35,7 L2.35,6.95 L2.35,7 L2.4,7 L2.4,6.95 L2.45,6.95 L2.5,6.9 L2.5,6.95 L2.5,6.9 L2.55,6.9 L2.6,6.9 L2.55,6.85 L2.6,6.85 L2.6,6.85 Z"></path>
                                        <path d="M3.35,6.5 L3.35,6.5 L3.3,6.5 L3.25,6.55 L3.2,6.55 L3.15,6.55 L3.15,6.6 L3.1,6.6 L3.05,6.6 L3.05,6.65 L3,6.65 L2.95,6.65 L2.9,6.7 L2.85,6.7 L2.8,6.75 L2.75,6.75 L2.7,6.8 L2.65,6.8 L2.6,6.8 L2.6,6.85 L2.6,6.9 L2.65,6.85 L2.7,6.85 L2.7,6.8 L2.75,6.85 L2.75,6.8 L2.8,6.8 L2.8,6.75 L2.85,6.75 L2.85,6.8 L2.9,6.75 L2.85,6.75 L2.9,6.75 L2.95,6.75 L2.95,6.7 L3,6.7 L3,6.65 L3.05,6.7 L3.05,6.65 L3.1,6.65 L3.15,6.6 L3.15,6.65 L3.2,6.65 L3.15,6.6 L3.2,6.6 L3.25,6.6 L3.25,6.55 L3.25,6.6 L3.3,6.55 L3.35,6.55 L3.35,6.5 L3.4,6.5 L3.35,6.5 Z"></path>
                                        <path d="M4.15,6.15 L4.1,6.15 L4.05,6.15 L4.05,6.2 L4,6.2 L3.95,6.2 L3.9,6.25 L3.85,6.25 L3.8,6.3 L3.75,6.3 L3.7,6.35 L3.65,6.35 L3.6,6.35 L3.6,6.4 L3.55,6.4 L3.5,6.4 L3.45,6.45 L3.4,6.45 L3.35,6.5 L3.4,6.5 L3.4,6.55 L3.4,6.5 L3.45,6.5 L3.5,6.5 L3.45,6.45 L3.5,6.45 L3.5,6.5 L3.55,6.45 L3.6,6.45 L3.6,6.4 L3.65,6.45 L3.65,6.4 L3.7,6.35 L3.7,6.4 L3.7,6.35 L3.75,6.35 L3.8,6.35 L3.75,6.35 L3.8,6.3 L3.8,6.35 L3.85,6.35 L3.85,6.3 L3.9,6.3 L3.9,6.25 L3.95,6.3 L3.95,6.25 L4,6.25 L4.05,6.2 L4.05,6.25 L4.1,6.2 L4.05,6.2 L4.1,6.2 L4.15,6.2 L4.15,6.15 L4.15,6.15 Z"></path>
                                        <path d="M4.95,5.8 L4.9,5.8 L4.85,5.8 L4.8,5.85 L4.75,5.85 L4.7,5.85 L4.7,5.9 L4.65,5.9 L4.6,5.9 L4.55,5.95 L4.5,5.95 L4.5,6 L4.45,6 L4.4,6 L4.35,6.05 L4.3,6.05 L4.25,6.05 L4.25,6.1 L4.2,6.1 L4.15,6.15 L4.15,6.2 L4.2,6.15 L4.25,6.15 L4.25,6.1 L4.3,6.1 L4.3,6.15 L4.3,6.1 L4.35,6.1 L4.4,6.1 L4.35,6.05 L4.4,6.05 L4.45,6.05 L4.45,6 L4.45,6.05 L4.5,6.05 L4.5,6 L4.55,6 L4.6,5.95 L4.6,6 L4.6,5.95 L4.65,5.95 L4.7,5.95 L4.65,5.95 L4.7,5.9 L4.7,5.95 L4.75,5.95 L4.75,5.9 L4.8,5.9 L4.8,5.85 L4.85,5.9 L4.85,5.85 L4.9,5.85 L4.9,5.8 L4.95,5.8 L4.95,5.8 Z"></path>
                                        <path d="M5.7,5.4 L5.7,5.45 L5.65,5.45 L5.6,5.45 L5.6,5.5 L5.55,5.5 L5.5,5.5 L5.45,5.55 L5.4,5.55 L5.35,5.6 L5.3,5.6 L5.25,5.65 L5.2,5.65 L5.15,5.65 L5.15,5.7 L5.1,5.7 L5.05,5.7 L5,5.75 L4.95,5.75 L4.95,5.8 L4.95,5.85 L5,5.8 L4.95,5.8 L5,5.8 L5.05,5.8 L5.05,5.75 L5.05,5.8 L5.1,5.75 L5.15,5.75 L5.15,5.7 L5.2,5.7 L5.25,5.65 L5.25,5.7 L5.3,5.7 L5.25,5.65 L5.3,5.65 L5.35,5.65 L5.35,5.6 L5.35,5.65 L5.4,5.65 L5.4,5.6 L5.45,5.6 L5.5,5.55 L5.5,5.6 L5.5,5.55 L5.55,5.55 L5.6,5.55 L5.55,5.5 L5.6,5.5 L5.6,5.55 L5.65,5.5 L5.7,5.5 L5.7,5.45 L5.7,5.4 Z"></path>
                                        <path d="M6.5,5.05 L6.45,5.1 L6.4,5.1 L6.35,5.15 L6.3,5.15 L6.25,5.2 L6.2,5.2 L6.15,5.2 L6.15,5.25 L6.1,5.25 L6.05,5.25 L6.05,5.3 L6,5.3 L5.95,5.3 L5.9,5.35 L5.85,5.35 L5.8,5.4 L5.75,5.4 L5.7,5.4 L5.7,5.45 L5.75,5.5 L5.75,5.45 L5.8,5.45 L5.8,5.4 L5.85,5.4 L5.85,5.45 L5.9,5.4 L5.85,5.4 L5.9,5.35 L5.9,5.4 L5.95,5.4 L5.95,5.35 L6,5.35 L6,5.3 L6.05,5.35 L6.05,5.3 L6.1,5.3 L6.15,5.25 L6.15,5.3 L6.2,5.3 L6.15,5.25 L6.2,5.25 L6.25,5.25 L6.25,5.2 L6.25,5.25 L6.3,5.2 L6.35,5.2 L6.35,5.15 L6.4,5.15 L6.4,5.2 L6.4,5.15 L6.45,5.15 L6.5,5.15 L6.45,5.1 L6.5,5.1 L6.5,5.05 Z"></path>
                                        <path d="M7.25,4.7 L7.25,4.75 L7.2,4.75 L7.15,4.8 L7.1,4.8 L7.05,4.8 L7.05,4.85 L7,4.85 L6.95,4.85 L6.9,4.9 L6.85,4.9 L6.8,4.9 L6.8,4.95 L6.75,4.95 L6.7,5 L6.65,5 L6.6,5 L6.6,5.05 L6.55,5.05 L6.5,5.05 L6.5,5.1 L6.5,5.15 L6.55,5.1 L6.6,5.1 L6.6,5.05 L6.65,5.05 L6.7,5 L6.7,5.05 L6.75,5.05 L6.7,5 L6.75,5 L6.8,5 L6.75,5 L6.8,4.95 L6.8,5 L6.85,5 L6.85,4.95 L6.9,4.95 L6.9,4.9 L6.95,4.95 L6.95,4.9 L7,4.9 L7.05,4.9 L7,4.85 L7.05,4.85 L7.05,4.9 L7.1,4.85 L7.05,4.85 L7.1,4.85 L7.15,4.85 L7.15,4.8 L7.2,4.85 L7.2,4.8 L7.25,4.8 L7.25,4.75 L7.3,4.75 L7.25,4.7 Z"></path>
                                        <path d="M8.05,4.35 L8,4.4 L7.95,4.4 L7.9,4.45 L7.85,4.45 L7.8,4.5 L7.75,4.5 L7.7,4.5 L7.7,4.55 L7.65,4.55 L7.6,4.55 L7.55,4.6 L7.5,4.6 L7.5,4.65 L7.45,4.65 L7.4,4.65 L7.35,4.7 L7.3,4.7 L7.25,4.7 L7.3,4.75 L7.3,4.8 L7.35,4.75 L7.3,4.75 L7.35,4.7 L7.35,4.75 L7.4,4.75 L7.35,4.7 L7.4,4.7 L7.45,4.7 L7.45,4.65 L7.5,4.7 L7.5,4.65 L7.55,4.65 L7.6,4.6 L7.6,4.65 L7.65,4.65 L7.6,4.6 L7.65,4.6 L7.7,4.6 L7.65,4.6 L7.7,4.55 L7.7,4.6 L7.75,4.55 L7.8,4.55 L7.8,4.5 L7.85,4.55 L7.85,4.5 L7.9,4.5 L7.95,4.5 L7.9,4.45 L7.95,4.45 L7.95,4.5 L8,4.45 L8.05,4.45 L8.05,4.4 L8.05,4.35 Z"></path>
                                        <path d="M8.85,4 L8.8,4.05 L8.75,4.05 L8.7,4.05 L8.7,4.1 L8.65,4.1 L8.6,4.1 L8.6,4.15 L8.55,4.15 L8.5,4.15 L8.45,4.2 L8.4,4.2 L8.35,4.25 L8.3,4.25 L8.25,4.25 L8.25,4.3 L8.2,4.3 L8.15,4.3 L8.15,4.35 L8.1,4.35 L8.05,4.35 L8.05,4.4 L8.1,4.45 L8.1,4.4 L8.15,4.35 L8.15,4.4 L8.15,4.35 L8.2,4.35 L8.25,4.35 L8.2,4.35 L8.25,4.3 L8.25,4.35 L8.3,4.35 L8.3,4.3 L8.35,4.3 L8.35,4.25 L8.4,4.3 L8.4,4.25 L8.45,4.25 L8.45,4.2 L8.5,4.2 L8.5,4.25 L8.55,4.2 L8.5,4.2 L8.55,4.2 L8.6,4.2 L8.6,4.15 L8.6,4.2 L8.65,4.15 L8.7,4.15 L8.7,4.1 L8.75,4.1 L8.75,4.15 L8.75,4.1 L8.8,4.1 L8.85,4.1 L8.8,4.05 L8.85,4.05 L8.85,4 Z"></path>
                                        <path d="M9.6,3.65 L9.6,3.7 L9.55,3.7 L9.5,3.7 L9.45,3.75 L9.4,3.75 L9.35,3.75 L9.35,3.8 L9.3,3.8 L9.25,3.85 L9.2,3.85 L9.15,3.85 L9.15,3.9 L9.1,3.9 L9.05,3.9 L9,3.95 L8.95,3.95 L8.9,4 L8.85,4 L8.85,4.05 L8.9,4.05 L8.9,4 L8.9,4.05 L8.95,4.05 L8.95,4 L9,4 L9.05,3.95 L9.05,4 L9.05,3.95 L9.1,3.95 L9.15,3.95 L9.1,3.95 L9.15,3.9 L9.15,3.95 L9.2,3.95 L9.2,3.9 L9.25,3.9 L9.25,3.85 L9.3,3.9 L9.3,3.85 L9.35,3.85 L9.35,3.8 L9.4,3.8 L9.4,3.85 L9.45,3.8 L9.4,3.8 L9.45,3.8 L9.5,3.8 L9.5,3.75 L9.5,3.8 L9.55,3.75 L9.55,3.7 L9.6,3.75 L9.6,3.7 L9.65,3.7 L9.6,3.65 Z"></path>
                                        <path d="M10.4,3.3 L10.35,3.35 L10.3,3.35 L10.25,3.35 L10.25,3.4 L10.2,3.4 L10.15,3.4 L10.1,3.45 L10.05,3.45 L10.05,3.5 L10,3.5 L9.95,3.5 L9.9,3.55 L9.85,3.55 L9.8,3.55 L9.8,3.6 L9.75,3.6 L9.7,3.65 L9.65,3.65 L9.6,3.65 L9.65,3.7 L9.7,3.65 L9.7,3.7 L9.75,3.7 L9.7,3.65 L9.75,3.65 L9.8,3.65 L9.8,3.6 L9.8,3.65 L9.85,3.65 L9.85,3.6 L9.9,3.6 L9.95,3.55 L9.95,3.6 L9.95,3.55 L10,3.55 L10.05,3.55 L10,3.5 L10.05,3.5 L10.05,3.55 L10.1,3.5 L10.15,3.5 L10.15,3.45 L10.2,3.5 L10.2,3.45 L10.25,3.45 L10.25,3.4 L10.3,3.4 L10.3,3.45 L10.35,3.4 L10.3,3.4 L10.35,3.35 L10.35,3.4 L10.4,3.4 L10.4,3.35 L10.4,3.3 Z"></path>
                                        <path d="M11.15,2.95 L11.15,3 L11.1,3 L11.05,3 L11,3.05 L10.95,3.05 L10.9,3.1 L10.85,3.1 L10.8,3.15 L10.75,3.15 L10.7,3.15 L10.7,3.2 L10.65,3.2 L10.6,3.2 L10.55,3.25 L10.5,3.25 L10.45,3.3 L10.4,3.3 L10.4,3.35 L10.45,3.35 L10.45,3.3 L10.5,3.35 L10.5,3.3 L10.55,3.3 L10.6,3.25 L10.6,3.3 L10.65,3.3 L10.6,3.25 L10.65,3.25 L10.7,3.25 L10.7,3.2 L10.7,3.25 L10.75,3.2 L10.8,3.2 L10.8,3.15 L10.85,3.15 L10.85,3.2 L10.85,3.15 L10.9,3.15 L10.95,3.15 L10.9,3.1 L10.95,3.1 L10.95,3.15 L11,3.1 L11.05,3.1 L11.05,3.05 L11.1,3.05 L11.15,3 L11.15,3.05 L11.15,3 L11.2,3 L11.15,2.95 Z"></path>
                                        <path d="M11.95,2.6 L11.95,2.65 L11.9,2.65 L11.85,2.65 L11.8,2.7 L11.75,2.7 L11.7,2.7 L11.7,2.75 L11.65,2.75 L11.6,2.75 L11.55,2.8 L11.5,2.8 L11.45,2.85 L11.4,2.85 L11.35,2.9 L11.3,2.9 L11.25,2.9 L11.25,2.95 L11.2,2.95 L11.15,2.95 L11.2,3 L11.25,3 L11.2,3 L11.25,2.95 L11.25,3 L11.3,3 L11.3,2.95 L11.35,2.95 L11.35,2.9 L11.4,2.95 L11.4,2.9 L11.45,2.9 L11.45,2.85 L11.5,2.85 L11.5,2.9 L11.55,2.85 L11.5,2.85 L11.55,2.85 L11.6,2.85 L11.6,2.8 L11.6,2.85 L11.65,2.8 L11.7,2.8 L11.7,2.75 L11.75,2.75 L11.75,2.8 L11.75,2.75 L11.8,2.7 L11.8,2.75 L11.85,2.75 L11.8,2.7 L11.85,2.7 L11.9,2.7 L11.9,2.65 L11.9,2.7 L11.95,2.7 L11.95,2.65 L11.95,2.6 Z"></path>
                                        <path d="M12.75,2.25 L12.7,2.25 L12.7,2.3 L12.65,2.3 L12.6,2.3 L12.6,2.35 L12.55,2.35 L12.5,2.35 L12.45,2.4 L12.4,2.4 L12.35,2.45 L12.3,2.45 L12.25,2.5 L12.2,2.5 L12.15,2.5 L12.15,2.55 L12.1,2.55 L12.05,2.55 L12,2.6 L11.95,2.6 L11.95,2.65 L12,2.65 L12.05,2.6 L12.05,2.65 L12.05,2.6 L12.1,2.6 L12.15,2.6 L12.1,2.6 L12.15,2.55 L12.15,2.6 L12.2,2.55 L12.25,2.55 L12.25,2.5 L12.3,2.55 L12.3,2.5 L12.35,2.5 L12.35,2.45 L12.4,2.45 L12.4,2.5 L12.45,2.45 L12.4,2.45 L12.45,2.45 L12.5,2.45 L12.5,2.4 L12.5,2.45 L12.55,2.4 L12.55,2.35 L12.6,2.4 L12.6,2.35 L12.65,2.35 L12.7,2.3 L12.7,2.35 L12.75,2.35 L12.7,2.3 L12.75,2.3 L12.75,2.25 Z"></path>
                                        <path d="M13.5,1.9 L13.5,1.9 L13.45,1.95 L13.4,1.95 L13.35,2 L13.3,2 L13.25,2.05 L13.2,2.05 L13.15,2.05 L13.15,2.1 L13.1,2.1 L13.05,2.1 L13.05,2.15 L13,2.15 L12.95,2.15 L12.9,2.2 L12.85,2.2 L12.8,2.25 L12.75,2.25 L12.75,2.3 L12.8,2.3 L12.8,2.25 L12.8,2.3 L12.85,2.3 L12.85,2.25 L12.9,2.25 L12.9,2.2 L12.95,2.2 L12.95,2.25 L12.95,2.2 L13,2.2 L13.05,2.2 L13,2.15 L13.05,2.15 L13.05,2.2 L13.1,2.15 L13.15,2.15 L13.15,2.1 L13.2,2.15 L13.2,2.1 L13.25,2.1 L13.25,2.05 L13.3,2.05 L13.35,2.05 L13.3,2.05 L13.35,2 L13.35,2.05 L13.4,2.05 L13.4,2 L13.45,2 L13.45,1.95 L13.5,2 L13.5,1.95 L13.55,1.95 L13.5,1.9 Z"></path>
                                        <path d="M14.3,1.55 L14.25,1.55 L14.25,1.6 L14.2,1.6 L14.15,1.65 L14.1,1.65 L14.05,1.65 L14.05,1.7 L14,1.7 L13.95,1.7 L13.9,1.75 L13.85,1.75 L13.8,1.75 L13.8,1.8 L13.75,1.8 L13.7,1.85 L13.65,1.85 L13.6,1.85 L13.6,1.9 L13.55,1.9 L13.5,1.9 L13.55,1.95 L13.6,1.9 L13.6,1.95 L13.65,1.95 L13.6,1.9 L13.65,1.9 L13.7,1.9 L13.7,1.85 L13.7,1.9 L13.75,1.85 L13.8,1.85 L13.8,1.8 L13.85,1.8 L13.85,1.85 L13.85,1.8 L13.9,1.8 L13.95,1.8 L13.9,1.75 L13.95,1.75 L13.95,1.8 L14,1.75 L14,1.7 L14,1.75 L14.05,1.75 L14.05,1.7 L14.1,1.7 L14.15,1.65 L14.15,1.7 L14.15,1.65 L14.2,1.65 L14.25,1.65 L14.2,1.65 L14.25,1.6 L14.25,1.65 L14.3,1.65 L14.3,1.6 L14.3,1.55 Z"></path>
                                        <path d="M15.1,1.2 L15.05,1.2 L15,1.25 L14.95,1.25 L14.9,1.3 L14.85,1.3 L14.8,1.35 L14.75,1.35 L14.7,1.35 L14.7,1.4 L14.65,1.4 L14.6,1.4 L14.55,1.45 L14.5,1.45 L14.5,1.5 L14.45,1.5 L14.4,1.5 L14.35,1.55 L14.3,1.55 L14.3,1.6 L14.35,1.6 L14.35,1.55 L14.4,1.6 L14.4,1.55 L14.45,1.55 L14.45,1.5 L14.5,1.5 L14.5,1.55 L14.55,1.5 L14.5,1.5 L14.55,1.5 L14.6,1.5 L14.6,1.45 L14.6,1.5 L14.65,1.45 L14.7,1.45 L14.7,1.4 L14.75,1.4 L14.75,1.45 L14.75,1.4 L14.8,1.35 L14.8,1.4 L14.85,1.4 L14.8,1.35 L14.85,1.35 L14.9,1.35 L14.9,1.3 L14.9,1.35 L14.95,1.35 L14.95,1.3 L15,1.3 L15.05,1.25 L15.05,1.3 L15.05,1.25 L15.1,1.25 L15.1,1.2 Z"></path>
                                        <path d="M15.85,0.85 L15.85,0.85 L15.8,0.9 L15.75,0.9 L15.7,0.9 L15.7,0.95 L15.65,0.95 L15.6,0.95 L15.6,1 L15.55,1 L15.5,1 L15.45,1.05 L15.4,1.05 L15.35,1.1 L15.3,1.1 L15.25,1.15 L15.2,1.15 L15.15,1.15 L15.15,1.2 L15.1,1.2 L15.1,1.25 L15.15,1.25 L15.1,1.2 L15.15,1.2 L15.15,1.25 L15.2,1.2 L15.25,1.2 L15.25,1.15 L15.3,1.2 L15.3,1.15 L15.35,1.15 L15.35,1.1 L15.4,1.1 L15.4,1.15 L15.45,1.1 L15.4,1.1 L15.45,1.1 L15.5,1.1 L15.5,1.05 L15.55,1.05 L15.55,1 L15.6,1.05 L15.6,1 L15.65,1 L15.7,0.95 L15.7,1 L15.75,1 L15.7,0.95 L15.75,0.95 L15.8,0.95 L15.8,0.9 L15.8,0.95 L15.85,0.95 L15.85,0.9 L15.85,0.85 Z"></path>
                                        <path d="M16.65,0.5 L16.6,0.5 L16.6,0.55 L16.55,0.55 L16.5,0.55 L16.45,0.6 L16.4,0.6 L16.35,0.65 L16.3,0.65 L16.25,0.7 L16.2,0.7 L16.15,0.7 L16.15,0.75 L16.1,0.75 L16.05,0.75 L16,0.8 L15.95,0.8 L15.9,0.85 L15.85,0.85 L15.85,0.9 L15.9,0.9 L15.9,0.85 L15.95,0.85 L15.95,0.9 L15.95,0.85 L16,0.85 L16.05,0.85 L16,0.8 L16.05,0.8 L16.05,0.85 L16.1,0.8 L16.15,0.8 L16.15,0.75 L16.2,0.8 L16.2,0.75 L16.25,0.7 L16.25,0.75 L16.25,0.7 L16.3,0.7 L16.35,0.7 L16.3,0.7 L16.35,0.65 L16.35,0.7 L16.4,0.7 L16.4,0.65 L16.45,0.65 L16.45,0.6 L16.5,0.65 L16.5,0.6 L16.55,0.6 L16.6,0.55 L16.6,0.6 L16.65,0.55 L16.6,0.55 L16.65,0.55 L16.65,0.5 Z"></path>
                                        <path d="M17.45,0.15 L17.4,0.15 L17.35,0.2 L17.3,0.2 L17.25,0.2 L17.25,0.25 L17.2,0.25 L17.15,0.25 L17.1,0.3 L17.05,0.3 L17.05,0.35 L17,0.35 L16.95,0.35 L16.9,0.4 L16.85,0.4 L16.8,0.4 L16.8,0.45 L16.75,0.45 L16.7,0.5 L16.65,0.5 L16.65,0.55 L16.7,0.55 L16.7,0.5 L16.75,0.55 L16.75,0.5 L16.8,0.5 L16.8,0.45 L16.85,0.45 L16.85,0.5 L16.9,0.45 L16.85,0.45 L16.9,0.45 L16.95,0.45 L16.9,0.4 L16.95,0.4 L16.95,0.45 L17,0.4 L17,0.35 L17.05,0.4 L17.05,0.35 L17.1,0.35 L17.15,0.3 L17.15,0.35 L17.2,0.35 L17.15,0.3 L17.2,0.3 L17.25,0.3 L17.2,0.3 L17.25,0.25 L17.25,0.3 L17.3,0.3 L17.3,0.25 L17.35,0.25 L17.35,0.2 L17.4,0.25 L17.4,0.2 L17.45,0.2 L17.45,0.15 Z"></path>
                                        <path d="M18.2,0.5 L18.2,0.5 L18.15,0.5 L18.15,0.45 L18.1,0.45 L18.05,0.45 L18.05,0.4 L18,0.4 L17.95,0.4 L17.95,0.35 L17.9,0.35 L17.85,0.35 L17.8,0.3 L17.75,0.3 L17.7,0.25 L17.65,0.25 L17.6,0.2 L17.55,0.2 L17.5,0.2 L17.5,0.15 L17.45,0.15 L17.45,0.2 L17.5,0.2 L17.5,0.25 L17.5,0.2 L17.55,0.25 L17.55,0.3 L17.6,0.25 L17.6,0.3 L17.65,0.3 L17.7,0.35 L17.7,0.3 L17.75,0.3 L17.7,0.35 L17.75,0.35 L17.8,0.35 L17.8,0.4 L17.8,0.35 L17.85,0.35 L17.85,0.4 L17.9,0.4 L17.9,0.45 L17.95,0.45 L17.95,0.4 L17.95,0.45 L18,0.45 L18.05,0.45 L18,0.5 L18.05,0.5 L18.05,0.45 L18.1,0.5 L18.15,0.5 L18.15,0.55 L18.2,0.5 L18.2,0.55 L18.2,0.5 Z"></path>
                                        <path d="M19,0.85 L18.95,0.85 L18.9,0.8 L18.85,0.8 L18.8,0.75 L18.75,0.75 L18.7,0.7 L18.65,0.7 L18.6,0.7 L18.6,0.65 L18.55,0.65 L18.5,0.65 L18.45,0.6 L18.4,0.6 L18.35,0.55 L18.3,0.55 L18.25,0.5 L18.2,0.5 L18.2,0.55 L18.25,0.55 L18.25,0.6 L18.3,0.6 L18.35,0.6 L18.3,0.6 L18.35,0.65 L18.35,0.6 L18.4,0.6 L18.4,0.65 L18.45,0.65 L18.45,0.7 L18.5,0.65 L18.5,0.7 L18.55,0.7 L18.6,0.75 L18.6,0.7 L18.65,0.7 L18.6,0.75 L18.65,0.75 L18.7,0.75 L18.7,0.8 L18.7,0.75 L18.75,0.8 L18.8,0.8 L18.8,0.85 L18.85,0.85 L18.85,0.8 L18.85,0.85 L18.9,0.85 L18.95,0.85 L18.9,0.9 L18.95,0.9 L18.95,0.85 L19,0.9 L19,0.85 Z"></path>
                                        <path d="M19.8,1.2 L19.75,1.2 L19.7,1.2 L19.7,1.15 L19.65,1.15 L19.6,1.15 L19.55,1.1 L19.5,1.1 L19.5,1.05 L19.45,1.05 L19.4,1.05 L19.35,1 L19.3,1 L19.25,1 L19.25,0.95 L19.2,0.95 L19.15,0.9 L19.1,0.9 L19.05,0.9 L19.05,0.85 L19,0.85 L19,0.9 L19,0.95 L19,0.9 L19.05,0.9 L19.05,0.95 L19.1,0.95 L19.15,1 L19.15,0.95 L19.15,1 L19.2,1 L19.25,1 L19.2,1 L19.25,1.05 L19.25,1 L19.3,1 L19.3,1.05 L19.35,1.05 L19.35,1.1 L19.4,1.05 L19.4,1.1 L19.45,1.1 L19.45,1.15 L19.5,1.15 L19.5,1.1 L19.55,1.15 L19.5,1.15 L19.55,1.15 L19.6,1.15 L19.6,1.2 L19.6,1.15 L19.65,1.2 L19.7,1.2 L19.7,1.25 L19.75,1.25 L19.75,1.2 L19.75,1.25 L19.8,1.2 Z"></path>
                                        <path d="M20.55,1.55 L20.55,1.55 L20.5,1.55 L20.45,1.5 L20.4,1.5 L20.35,1.45 L20.3,1.45 L20.25,1.4 L20.2,1.4 L20.15,1.4 L20.15,1.35 L20.1,1.35 L20.05,1.35 L20,1.3 L19.95,1.3 L19.95,1.25 L19.9,1.25 L19.85,1.25 L19.8,1.2 L19.75,1.25 L19.8,1.3 L19.8,1.25 L19.85,1.25 L19.8,1.3 L19.85,1.3 L19.9,1.3 L19.9,1.35 L19.9,1.3 L19.95,1.3 L19.95,1.35 L20,1.35 L20.05,1.4 L20.05,1.35 L20.05,1.4 L20.1,1.4 L20.15,1.4 L20.1,1.45 L20.15,1.45 L20.15,1.4 L20.2,1.45 L20.25,1.45 L20.25,1.5 L20.3,1.45 L20.3,1.5 L20.35,1.5 L20.35,1.55 L20.4,1.55 L20.4,1.5 L20.45,1.55 L20.4,1.55 L20.45,1.55 L20.5,1.55 L20.5,1.6 L20.55,1.6 L20.55,1.55 Z"></path>
                                        <path d="M21.35,1.9 L21.3,1.9 L21.25,1.85 L21.2,1.85 L21.15,1.85 L21.15,1.8 L21.1,1.8 L21.05,1.8 L21.05,1.75 L21,1.75 L20.95,1.75 L20.9,1.7 L20.85,1.7 L20.8,1.65 L20.75,1.65 L20.7,1.65 L20.7,1.6 L20.65,1.6 L20.6,1.6 L20.6,1.55 L20.55,1.55 L20.55,1.6 L20.55,1.65 L20.6,1.6 L20.6,1.65 L20.65,1.65 L20.7,1.7 L20.7,1.65 L20.75,1.65 L20.7,1.7 L20.75,1.7 L20.8,1.7 L20.75,1.7 L20.8,1.75 L20.8,1.7 L20.85,1.7 L20.85,1.75 L20.9,1.75 L20.9,1.8 L20.95,1.75 L20.95,1.8 L21,1.8 L21.05,1.8 L21,1.85 L21.05,1.85 L21.05,1.8 L21.1,1.85 L21.05,1.85 L21.1,1.85 L21.15,1.85 L21.15,1.9 L21.2,1.85 L21.2,1.9 L21.2,1.95 L21.25,1.9 L21.25,1.95 L21.3,1.95 L21.35,1.95 L21.35,1.9 Z"></path>
                                        <path d="M22.1,2.25 L22.1,2.25 L22.05,2.25 L22.05,2.2 L22,2.2 L21.95,2.2 L21.9,2.15 L21.85,2.15 L21.8,2.15 L21.8,2.1 L21.75,2.1 L21.7,2.05 L21.65,2.05 L21.6,2.05 L21.6,2 L21.55,2 L21.5,2 L21.45,1.95 L21.4,1.95 L21.35,1.9 L21.35,1.95 L21.3,1.95 L21.35,2 L21.35,1.95 L21.4,1.95 L21.35,2 L21.4,2 L21.45,2 L21.45,2.05 L21.5,2 L21.5,2.05 L21.55,2.05 L21.6,2.1 L21.6,2.05 L21.6,2.1 L21.65,2.1 L21.7,2.1 L21.65,2.15 L21.7,2.15 L21.7,2.1 L21.75,2.15 L21.8,2.15 L21.8,2.2 L21.85,2.15 L21.85,2.2 L21.9,2.2 L21.9,2.25 L21.95,2.25 L21.95,2.2 L22,2.25 L21.95,2.25 L22,2.3 L22,2.25 L22.05,2.25 L22.05,2.3 L22.1,2.3 L22.1,2.25 Z"></path>
                                        <path d="M22.9,2.6 L22.85,2.6 L22.8,2.55 L22.75,2.55 L22.7,2.55 L22.7,2.5 L22.65,2.5 L22.6,2.5 L22.55,2.45 L22.5,2.45 L22.5,2.4 L22.45,2.4 L22.4,2.4 L22.35,2.35 L22.3,2.35 L22.25,2.35 L22.25,2.3 L22.2,2.3 L22.15,2.25 L22.1,2.25 L22.1,2.3 L22.1,2.35 L22.15,2.3 L22.15,2.35 L22.2,2.35 L22.25,2.4 L22.25,2.35 L22.3,2.35 L22.25,2.4 L22.3,2.4 L22.35,2.4 L22.35,2.45 L22.35,2.4 L22.4,2.45 L22.45,2.45 L22.45,2.5 L22.5,2.5 L22.5,2.45 L22.5,2.5 L22.55,2.5 L22.6,2.5 L22.55,2.55 L22.6,2.55 L22.6,2.5 L22.65,2.55 L22.7,2.55 L22.7,2.6 L22.75,2.6 L22.8,2.65 L22.8,2.6 L22.8,2.65 L22.85,2.65 L22.9,2.65 L22.9,2.6 Z"></path>
                                        <path d="M23.7,2.95 L23.65,2.95 L23.6,2.95 L23.6,2.9 L23.55,2.9 L23.5,2.9 L23.45,2.85 L23.4,2.85 L23.35,2.8 L23.3,2.8 L23.25,2.75 L23.2,2.75 L23.15,2.75 L23.15,2.7 L23.1,2.7 L23.05,2.7 L23,2.65 L22.95,2.65 L22.9,2.6 L22.9,2.65 L22.85,2.65 L22.9,2.7 L22.9,2.65 L22.95,2.65 L22.95,2.7 L23,2.7 L23,2.75 L23.05,2.7 L23.05,2.75 L23.1,2.75 L23.1,2.8 L23.15,2.8 L23.15,2.75 L23.2,2.8 L23.15,2.8 L23.2,2.8 L23.25,2.8 L23.25,2.85 L23.25,2.8 L23.3,2.85 L23.35,2.85 L23.35,2.9 L23.4,2.9 L23.4,2.85 L23.4,2.9 L23.45,2.95 L23.45,2.9 L23.5,2.9 L23.45,2.95 L23.5,2.95 L23.55,2.95 L23.55,3 L23.55,2.95 L23.6,2.95 L23.6,3 L23.65,3 L23.7,2.95 Z"></path>
                                        <path d="M24.45,3.3 L24.4,3.3 L24.35,3.25 L24.3,3.25 L24.25,3.25 L24.25,3.2 L24.2,3.2 L24.15,3.2 L24.1,3.15 L24.05,3.15 L24,3.1 L23.95,3.1 L23.9,3.05 L23.85,3.05 L23.8,3 L23.75,3 L23.7,3 L23.7,2.95 L23.65,3 L23.7,3.05 L23.7,3 L23.7,3.05 L23.75,3.05 L23.8,3.05 L23.75,3.05 L23.8,3.1 L23.8,3.05 L23.85,3.1 L23.9,3.1 L23.9,3.15 L23.95,3.1 L23.95,3.15 L24,3.15 L24,3.2 L24.05,3.2 L24.05,3.15 L24.1,3.2 L24.05,3.2 L24.1,3.2 L24.15,3.2 L24.15,3.25 L24.15,3.2 L24.2,3.25 L24.2,3.3 L24.25,3.25 L24.25,3.3 L24.3,3.3 L24.35,3.35 L24.35,3.3 L24.4,3.3 L24.35,3.35 L24.4,3.35 L24.45,3.35 L24.45,3.3 Z"></path>
                                        <path d="M25.25,3.65 L25.2,3.65 L25.15,3.65 L25.1,3.6 L25.05,3.6 L25,3.55 L24.95,3.55 L24.9,3.5 L24.85,3.5 L24.8,3.5 L24.8,3.45 L24.75,3.45 L24.7,3.45 L24.7,3.4 L24.65,3.4 L24.6,3.4 L24.55,3.35 L24.5,3.35 L24.45,3.3 L24.45,3.35 L24.45,3.4 L24.45,3.35 L24.5,3.35 L24.5,3.4 L24.55,3.4 L24.55,3.45 L24.6,3.45 L24.6,3.4 L24.6,3.45 L24.65,3.45 L24.7,3.45 L24.65,3.5 L24.7,3.5 L24.7,3.45 L24.75,3.5 L24.8,3.5 L24.8,3.55 L24.85,3.5 L24.85,3.55 L24.9,3.55 L24.9,3.6 L24.95,3.6 L25,3.6 L24.95,3.6 L25,3.65 L25,3.6 L25.05,3.6 L25.05,3.65 L25.1,3.65 L25.1,3.7 L25.15,3.65 L25.15,3.7 L25.2,3.7 L25.25,3.65 Z"></path>
                                        <path d="M26,4 L26,4 L25.95,4 L25.9,4 L25.9,3.95 L25.85,3.95 L25.8,3.9 L25.75,3.9 L25.7,3.9 L25.7,3.85 L25.65,3.85 L25.6,3.85 L25.55,3.8 L25.5,3.8 L25.45,3.75 L25.4,3.75 L25.35,3.7 L25.3,3.7 L25.25,3.7 L25.25,3.65 L25.2,3.7 L25.25,3.75 L25.25,3.7 L25.3,3.7 L25.25,3.75 L25.3,3.75 L25.35,3.75 L25.35,3.8 L25.35,3.75 L25.4,3.8 L25.45,3.8 L25.45,3.85 L25.5,3.85 L25.5,3.8 L25.5,3.85 L25.55,3.85 L25.6,3.85 L25.55,3.9 L25.6,3.9 L25.6,3.85 L25.65,3.9 L25.65,3.95 L25.65,3.9 L25.7,3.9 L25.7,3.95 L25.75,3.95 L25.8,4 L25.8,3.95 L25.8,4 L25.85,4 L25.9,4 L25.85,4 L25.9,4.05 L25.9,4 L25.95,4 L25.95,4.05 L26,4.05 L26,4 Z"></path>
                                        <path d="M26.8,4.35 L26.75,4.35 L26.7,4.35 L26.65,4.3 L26.6,4.3 L26.6,4.25 L26.55,4.25 L26.5,4.25 L26.45,4.2 L26.4,4.2 L26.35,4.2 L26.35,4.15 L26.3,4.15 L26.25,4.15 L26.2,4.1 L26.15,4.1 L26.15,4.05 L26.1,4.05 L26.05,4.05 L26,4 L26,4.05 L26,4.1 L26.05,4.05 L26.05,4.1 L26.1,4.1 L26.1,4.15 L26.15,4.15 L26.15,4.1 L26.2,4.15 L26.15,4.15 L26.2,4.15 L26.25,4.15 L26.25,4.2 L26.25,4.15 L26.3,4.2 L26.35,4.2 L26.35,4.25 L26.4,4.25 L26.4,4.2 L26.4,4.25 L26.45,4.3 L26.45,4.25 L26.5,4.25 L26.45,4.3 L26.5,4.3 L26.55,4.3 L26.55,4.35 L26.55,4.3 L26.6,4.3 L26.6,4.35 L26.65,4.35 L26.65,4.4 L26.7,4.35 L26.7,4.4 L26.75,4.4 L26.8,4.4 L26.8,4.35 Z"></path>
                                        <path d="M27.55,4.7 L27.55,4.7 L27.5,4.7 L27.45,4.65 L27.4,4.65 L27.35,4.65 L27.35,4.6 L27.3,4.6 L27.25,4.6 L27.25,4.55 L27.2,4.55 L27.15,4.55 L27.1,4.5 L27.05,4.5 L27,4.45 L26.95,4.45 L26.9,4.4 L26.85,4.4 L26.8,4.4 L26.8,4.35 L26.8,4.4 L26.75,4.45 L26.8,4.45 L26.8,4.4 L26.85,4.45 L26.8,4.45 L26.85,4.45 L26.9,4.45 L26.9,4.5 L26.95,4.45 L26.95,4.5 L27,4.5 L27,4.55 L27.05,4.55 L27.05,4.5 L27.1,4.55 L27.05,4.55 L27.1,4.55 L27.15,4.55 L27.1,4.6 L27.15,4.6 L27.2,4.6 L27.2,4.65 L27.25,4.6 L27.25,4.65 L27.3,4.65 L27.35,4.7 L27.35,4.65 L27.4,4.65 L27.35,4.7 L27.4,4.7 L27.45,4.7 L27.4,4.7 L27.45,4.75 L27.45,4.7 L27.5,4.7 L27.5,4.75 L27.55,4.75 L27.55,4.7 Z"></path>
                                        <path d="M28.35,5.05 L28.3,5.05 L28.25,5.05 L28.25,5 L28.2,5 L28.15,5 L28.1,4.95 L28.05,4.95 L28,4.9 L27.95,4.9 L27.9,4.85 L27.85,4.85 L27.8,4.85 L27.8,4.8 L27.75,4.8 L27.7,4.8 L27.65,4.75 L27.6,4.75 L27.55,4.7 L27.55,4.75 L27.55,4.8 L27.6,4.75 L27.6,4.8 L27.65,4.8 L27.65,4.85 L27.7,4.85 L27.7,4.8 L27.75,4.85 L27.7,4.85 L27.75,4.85 L27.8,4.85 L27.8,4.9 L27.8,4.85 L27.85,4.9 L27.85,4.95 L27.9,4.9 L27.9,4.95 L27.95,4.95 L28,5 L28,4.95 L28.05,4.95 L28,5 L28.05,5 L28.1,5 L28.1,5.05 L28.1,5 L28.15,5 L28.15,5.05 L28.2,5.05 L28.25,5.1 L28.25,5.05 L28.25,5.1 L28.3,5.1 L28.35,5.1 L28.35,5.05 Z"></path>
                                        <path d="M29.15,5.4 L29.1,5.4 L29.05,5.4 L29,5.35 L28.95,5.35 L28.9,5.35 L28.9,5.3 L28.85,5.3 L28.8,5.3 L28.75,5.25 L28.7,5.25 L28.7,5.2 L28.65,5.2 L28.6,5.2 L28.55,5.15 L28.5,5.15 L28.45,5.15 L28.45,5.1 L28.4,5.1 L28.35,5.05 L28.35,5.1 L28.3,5.15 L28.35,5.15 L28.35,5.1 L28.4,5.15 L28.45,5.15 L28.45,5.2 L28.5,5.15 L28.5,5.2 L28.55,5.2 L28.55,5.25 L28.6,5.25 L28.6,5.2 L28.65,5.25 L28.6,5.25 L28.65,5.3 L28.65,5.25 L28.7,5.25 L28.7,5.3 L28.75,5.3 L28.75,5.35 L28.8,5.3 L28.8,5.35 L28.85,5.35 L28.9,5.4 L28.9,5.35 L28.95,5.35 L28.9,5.4 L28.95,5.4 L29,5.4 L29,5.45 L29,5.4 L29.05,5.45 L29.1,5.45 L29.15,5.4 Z"></path>
                                        <path d="M29.9,5.8 L29.9,5.75 L29.85,5.75 L29.8,5.75 L29.8,5.7 L29.75,5.7 L29.7,5.7 L29.65,5.65 L29.6,5.65 L29.55,5.6 L29.5,5.6 L29.45,5.55 L29.4,5.55 L29.35,5.55 L29.35,5.5 L29.3,5.5 L29.25,5.5 L29.2,5.45 L29.15,5.45 L29.15,5.4 L29.1,5.45 L29.1,5.5 L29.15,5.5 L29.15,5.45 L29.15,5.5 L29.2,5.5 L29.25,5.5 L29.2,5.55 L29.25,5.55 L29.25,5.5 L29.3,5.55 L29.35,5.55 L29.35,5.6 L29.4,5.6 L29.45,5.65 L29.45,5.6 L29.45,5.65 L29.5,5.65 L29.55,5.65 L29.5,5.65 L29.55,5.7 L29.55,5.65 L29.6,5.65 L29.6,5.7 L29.65,5.7 L29.65,5.75 L29.7,5.7 L29.7,5.75 L29.75,5.75 L29.75,5.8 L29.8,5.8 L29.8,5.75 L29.85,5.8 L29.8,5.8 L29.85,5.8 L29.9,5.8 L29.9,5.8 Z"></path>
                                        <path d="M30.7,6.15 L30.65,6.1 L30.6,6.1 L30.55,6.05 L30.5,6.05 L30.45,6.05 L30.45,6 L30.4,6 L30.35,6 L30.3,5.95 L30.25,5.95 L30.25,5.9 L30.2,5.9 L30.15,5.9 L30.1,5.85 L30.05,5.85 L30,5.85 L30,5.8 L29.95,5.8 L29.9,5.8 L29.9,5.85 L29.9,5.8 L29.95,5.85 L30,5.85 L30,5.9 L30.05,5.9 L30.05,5.85 L30.05,5.9 L30.1,5.95 L30.1,5.9 L30.15,5.9 L30.1,5.95 L30.15,5.95 L30.2,5.95 L30.2,6 L30.2,5.95 L30.25,5.95 L30.25,6 L30.3,6 L30.35,6.05 L30.35,6 L30.35,6.05 L30.4,6.05 L30.45,6.05 L30.4,6.05 L30.45,6.1 L30.45,6.05 L30.5,6.1 L30.55,6.1 L30.55,6.15 L30.6,6.1 L30.6,6.15 L30.65,6.15 L30.7,6.15 Z"></path>
                                        <path d="M31.45,6.5 L31.45,6.45 L31.4,6.45 L31.35,6.45 L31.35,6.4 L31.3,6.4 L31.25,6.4 L31.2,6.35 L31.15,6.35 L31.1,6.3 L31.05,6.3 L31,6.3 L31,6.25 L30.95,6.25 L30.9,6.25 L30.9,6.2 L30.85,6.2 L30.8,6.2 L30.75,6.15 L30.7,6.15 L30.65,6.15 L30.65,6.2 L30.7,6.2 L30.7,6.15 L30.75,6.2 L30.7,6.2 L30.75,6.2 L30.8,6.2 L30.8,6.25 L30.85,6.25 L30.85,6.3 L30.9,6.25 L30.9,6.3 L30.95,6.3 L31,6.35 L31,6.3 L31.05,6.3 L31,6.35 L31.05,6.35 L31.1,6.35 L31.1,6.4 L31.1,6.35 L31.15,6.35 L31.15,6.4 L31.2,6.4 L31.2,6.45 L31.25,6.45 L31.25,6.4 L31.25,6.45 L31.3,6.45 L31.35,6.45 L31.3,6.5 L31.35,6.5 L31.35,6.45 L31.4,6.5 L31.45,6.5 L31.45,6.5 Z"></path>
                                        <path d="M32.25,6.85 L32.2,6.8 L32.15,6.8 L32.1,6.8 L32.1,6.75 L32.05,6.75 L32,6.7 L31.95,6.7 L31.9,6.7 L31.9,6.65 L31.85,6.65 L31.8,6.65 L31.75,6.6 L31.7,6.6 L31.65,6.55 L31.6,6.55 L31.55,6.5 L31.5,6.5 L31.45,6.5 L31.45,6.55 L31.5,6.5 L31.5,6.55 L31.55,6.55 L31.55,6.6 L31.6,6.6 L31.65,6.6 L31.6,6.6 L31.65,6.65 L31.65,6.6 L31.7,6.6 L31.7,6.65 L31.75,6.65 L31.75,6.7 L31.8,6.65 L31.8,6.7 L31.85,6.7 L31.9,6.75 L31.9,6.7 L31.95,6.75 L31.9,6.75 L31.95,6.75 L32,6.75 L32,6.8 L32,6.75 L32.05,6.8 L32.1,6.8 L32.1,6.85 L32.15,6.85 L32.15,6.8 L32.15,6.85 L32.2,6.85 L32.25,6.85 L32.25,6.85 Z"></path>
                                        <path d="M33,7.2 L33,7.15 L32.95,7.15 L32.9,7.15 L32.85,7.1 L32.8,7.1 L32.8,7.05 L32.75,7.05 L32.7,7.05 L32.65,7 L32.6,7 L32.55,7 L32.55,6.95 L32.5,6.95 L32.45,6.9 L32.4,6.9 L32.35,6.9 L32.35,6.85 L32.3,6.85 L32.25,6.85 L32.2,6.9 L32.25,6.9 L32.25,6.85 L32.3,6.9 L32.3,6.95 L32.3,6.9 L32.35,6.9 L32.35,6.95 L32.4,6.95 L32.45,7 L32.45,6.95 L32.45,7 L32.5,7 L32.55,7 L32.5,7 L32.55,7.05 L32.55,7 L32.6,7 L32.55,7.05 L32.6,7.05 L32.65,7.05 L32.65,7.1 L32.7,7.05 L32.7,7.1 L32.75,7.1 L32.75,7.15 L32.8,7.15 L32.8,7.1 L32.85,7.15 L32.8,7.15 L32.85,7.15 L32.9,7.15 L32.85,7.2 L32.9,7.2 L32.9,7.15 L32.95,7.2 L33,7.2 L33,7.2 Z"></path>
                                        <path d="M33.8,7.55 L33.75,7.5 L33.7,7.5 L33.65,7.45 L33.6,7.45 L33.55,7.4 L33.5,7.4 L33.45,7.4 L33.45,7.35 L33.4,7.35 L33.35,7.35 L33.3,7.3 L33.25,7.3 L33.2,7.25 L33.15,7.25 L33.1,7.2 L33.05,7.2 L33,7.2 L33,7.25 L33.05,7.25 L33.1,7.3 L33.1,7.25 L33.15,7.25 L33.1,7.3 L33.15,7.3 L33.2,7.3 L33.15,7.3 L33.2,7.35 L33.2,7.3 L33.25,7.3 L33.25,7.35 L33.3,7.35 L33.3,7.4 L33.35,7.35 L33.35,7.4 L33.4,7.4 L33.45,7.4 L33.4,7.45 L33.45,7.45 L33.45,7.4 L33.5,7.45 L33.45,7.45 L33.5,7.45 L33.55,7.45 L33.55,7.5 L33.55,7.45 L33.6,7.5 L33.65,7.5 L33.65,7.55 L33.7,7.55 L33.7,7.5 L33.7,7.55 L33.75,7.6 L33.75,7.55 L33.8,7.55 L33.8,7.55 Z"></path>
                                        <path d="M34.6,7.9 L34.55,7.85 L34.5,7.85 L34.45,7.85 L34.45,7.8 L34.4,7.8 L34.35,7.8 L34.3,7.75 L34.25,7.75 L34.2,7.7 L34.15,7.7 L34.1,7.65 L34.05,7.65 L34,7.65 L34,7.6 L33.95,7.6 L33.9,7.6 L33.9,7.55 L33.85,7.55 L33.8,7.55 L33.75,7.6 L33.8,7.6 L33.85,7.6 L33.85,7.65 L33.85,7.6 L33.9,7.6 L33.9,7.65 L33.95,7.65 L34,7.7 L34,7.65 L34,7.7 L34.05,7.7 L34.1,7.7 L34.05,7.7 L34.1,7.75 L34.1,7.7 L34.15,7.75 L34.2,7.75 L34.2,7.8 L34.25,7.75 L34.25,7.8 L34.3,7.8 L34.3,7.85 L34.35,7.85 L34.35,7.8 L34.4,7.85 L34.35,7.85 L34.4,7.85 L34.45,7.85 L34.45,7.9 L34.45,7.85 L34.5,7.9 L34.5,7.95 L34.55,7.9 L34.6,7.9 Z"></path>
                                    </g>
                                </g>
                            </g>
                            <g id="Group" transform="translate(225.500000, 23.500000)">
                                <rect id="Rectangle-path" stroke="#DC7D27" stroke-width="0.165" fill="#321512" x="1.45" y="8.3" width="35.25" height="27.4"></rect>
                                <path d="M19.05,0.4 L0.05,8.3 L19.05,8.3 L38,8.3 L19.05,0.4 Z" id="Shape" stroke="#DC7D27" stroke-width="0.165" fill="#321512"></path>
                                <path d="M19.05,0.4 L0.05,8.3 L19.05,8.3 L38,8.3 L19.05,0.4 Z" id="Shape" fill="#000000"></path>
                                <g transform="translate(13.500000, 17.000000)" stroke="#DC7D27" stroke-width="0.165">
                                    <rect id="Rectangle-path" fill="#290C07" x="1.45" y="1.7" width="7.75" height="17"></rect>
                                    <path d="M10.4,18.7 L10.4,0.45 L0.3,0.45 L0.3,18.7" id="Shape"></path>
                                    <rect id="Rectangle-path" fill="#321512" x="9.2" y="0.15" width="1.45" height="1.65"></rect>
                                    <rect id="Rectangle-path" fill="#321512" x="0" y="0.15" width="1.45" height="1.65"></rect>
                                </g>
                            </g>
                            <g id="Group" transform="translate(97.500000, 27.000000)">
                                <rect id="Rectangle-path" stroke="#DC7D27" stroke-width="0.165" fill="#321512" x="1.55" y="8.85" width="33.6" height="26.1"></rect>
                                <rect id="Rectangle-path" stroke="#DC7D27" stroke-width="0.165" fill="#321512" x="0.25" y="8" width="36.15" height="0.9"></rect>
                                <path d="M18.35,0.45 L0.25,7.95 L18.35,7.95 L36.4,7.95 L18.35,0.45 Z" id="Shape" stroke="#DC7D27" stroke-width="0.165" fill="#321512"></path>
                                <path d="M18.35,0.45 L0.25,7.95 L18.35,7.95 L36.4,7.95 L18.35,0.45 Z" id="Shape" fill="#000000"></path>
                                <rect id="Rectangle-path" stroke="#DC7D27" stroke-width="0.165" fill="#290C07" x="15.25" y="14.6" width="5.85" height="10.7"></rect>
                            </g>
                            <g id="Group" transform="translate(0.000000, 49.500000)" stroke="#DC7D27">
                                <path d="M32.1,1.4 L1.3,25 L1.2,25 L1.2,78.5 L62.9,78.5 L62.9,25 L32.1,1.4 Z" id="Shape" stroke-width="0.165" fill="#321512"></path>
                                <path d="M0.45,25.65 L0.05,24.7 L31.9,0.4 C32,0.35 32.15,0.35 32.3,0.4 L64.1,24.7 L63.7,25.65 L32.05,1.45 L0.45,25.65 L0.45,25.65 Z" id="Shape" stroke-width="0.165" fill="#DC7D27"></path>
                                <g transform="translate(13.000000, 35.500000)" id="Rectangle-path" stroke-width="0.165" fill="#290C07">
                                    <rect x="0.4" y="0.45" width="9.1" height="10.15"></rect>
                                    <rect x="28.6" y="0.45" width="9.1" height="10.15"></rect>
                                </g>
                                <g transform="translate(1.000000, 25.000000)" id="Rectangle-path" stroke-width="0.08249438" fill="#321512">
                                    <rect x="0.2" y="0" width="6.15" height="5.7"></rect>
                                    <rect x="0.2" y="37.35" width="6.15" height="5.7"></rect>
                                    <rect x="0.2" y="5.7" width="9.25" height="4.85"></rect>
                                    <rect x="0.2" y="10.5" width="7.75" height="10.4"></rect>
                                    <rect x="0.2" y="43.05" width="7.75" height="10.4"></rect>
                                    <rect x="0.2" y="20.9" width="6.15" height="4.55"></rect>
                                    <rect x="0.2" y="25.45" width="7.15" height="6.55"></rect>
                                    <rect x="0.2" y="32" width="9.25" height="5.35"></rect>
                                </g>
                                <g transform="translate(53.500000, 25.000000)" id="Rectangle-path" stroke-width="0.08249438" fill="#321512">
                                    <rect x="3.25" y="0" width="6.15" height="5.7"></rect>
                                    <rect x="3.25" y="37.35" width="6.15" height="5.7"></rect>
                                    <rect x="0.15" y="5.7" width="9.25" height="4.85"></rect>
                                    <rect x="1.65" y="10.5" width="7.75" height="10.4"></rect>
                                    <rect x="1.65" y="43.05" width="7.75" height="10.4"></rect>
                                    <rect x="3.25" y="20.9" width="6.15" height="4.55"></rect>
                                    <rect x="2.25" y="25.45" width="7.15" height="6.55"></rect>
                                    <rect x="0.15" y="32" width="9.25" height="5.35"></rect>
                                </g>
                            </g>
                            <g id="Group" transform="translate(77.000000, 63.000000)">
                                <g transform="translate(0.000000, 0.500000)">
                                    <rect id="Rectangle-path" fill="#321512" x="8.4" y="68.45" width="324.2" height="2.95"></rect>
                                    <rect id="Rectangle-path" fill="#321512" x="0" y="71.7" width="341" height="2.95"></rect>
                                    <rect id="Rectangle-path" fill="#321512" x="9.75" y="22.3" width="321.5" height="2"></rect>
                                    <rect id="Rectangle-path" fill="#321512" x="9.75" y="17.05" width="321.5" height="4.95"></rect>
                                    <path d="M8.3,15.3 C8.3,15.3 9.75,15.6 9.75,16.75 L331.3,16.75 C331.3,15.6 332.75,15.3 332.75,15.3 L8.3,15.3 L8.3,15.3 Z" id="Shape" fill="#321512"></path>
                                    <rect id="Rectangle-path" fill="#321512" x="8.25" y="13.45" width="324.45" height="1.6"></rect>
                                    <rect id="Rectangle-path" fill="#321512" x="9.55" y="0.25" width="321.9" height="12.9"></rect>
                                    <rect id="Rectangle-path" fill="#000000" x="9.55" y="0.25" width="321.9" height="12.9"></rect>
                                    <g transform="translate(9.500000, 24.500000)" fill="#321512">
                                        <rect id="Rectangle-path" x="0.25" y="0.2" width="9" height="1.35"></rect>
                                        <path d="M4.75,1.75 L0.25,1.75 L0.25,2.1 C1.1,2.85 1.85,2.85 1.85,2.85 L7.8,2.85 C7.8,2.85 8.35,2.85 9.2,2.1 L9.2,1.75 L4.75,1.75 L4.75,1.75 Z" id="Shape"></path>
                                        <path id="Shape" d="M4.75,3.15 L1.75,3.15 L1.75,3.3 L2.2,3.55 L4.75,3.55 L7.35,3.55 L7.75,3.3 L7.75,3.15 L4.75,3.15 Z"></path>
                                        <path d="M2.2,3.8 L1.9,43.65 L4.6,43.65 L4.75,43.65 L4.9,43.65 L7.6,43.65 L7.3,3.8 L2.2,3.8 Z" id="Shape"></path>
                                    </g>
                                    <g transform="translate(33.500000, 24.500000)" fill="#321512">
                                        <rect id="Rectangle-path" x="0.3" y="0.2" width="9" height="1.35"></rect>
                                        <path d="M4.8,1.75 L0.3,1.75 L0.3,2.1 C1.15,2.85 1.9,2.85 1.9,2.85 L7.85,2.85 C7.85,2.85 8.4,2.85 9.25,2.1 L9.25,1.75 L4.8,1.75 L4.8,1.75 Z" id="Shape"></path>
                                        <path id="Shape" d="M4.8,3.15 L1.8,3.15 L1.8,3.3 L2.2,3.55 L4.8,3.55 L7.35,3.55 L7.8,3.3 L7.8,3.15 L4.8,3.15 Z"></path>
                                        <path d="M2.2,3.8 L1.9,43.65 L4.65,43.65 L4.8,43.65 L4.9,43.65 L7.65,43.65 L7.35,3.8 L2.2,3.8 Z" id="Shape"></path>
                                    </g>
                                    <g transform="translate(57.500000, 24.500000)" fill="#321512">
                                        <rect id="Rectangle-path" x="0.35" y="0.2" width="9" height="1.35"></rect>
                                        <path d="M4.85,1.75 L0.35,1.75 L0.35,2.1 C1.2,2.85 1.95,2.85 1.95,2.85 L7.9,2.85 C7.9,2.85 8.45,2.85 9.3,2.1 L9.3,1.75 L4.85,1.75 L4.85,1.75 Z" id="Shape"></path>
                                        <path id="Shape" d="M4.85,3.15 L1.85,3.15 L1.85,3.3 L2.25,3.55 L4.85,3.55 L7.4,3.55 L7.8,3.3 L7.8,3.15 L4.85,3.15 Z"></path>
                                        <path d="M2.25,3.8 L1.95,43.65 L4.7,43.65 L4.8,43.65 L4.95,43.65 L7.7,43.65 L7.4,3.8 L2.25,3.8 Z" id="Shape"></path>
                                    </g>
                                    <g transform="translate(81.500000, 24.500000)" fill="#321512">
                                        <rect id="Rectangle-path" x="0.35" y="0.2" width="9" height="1.35"></rect>
                                        <path d="M4.85,1.75 L0.35,1.75 L0.35,2.1 C1.2,2.85 1.95,2.85 1.95,2.85 L7.9,2.85 C7.9,2.85 8.45,2.85 9.3,2.1 L9.3,1.75 L4.85,1.75 L4.85,1.75 Z" id="Shape"></path>
                                        <path id="Shape" d="M4.85,3.15 L1.9,3.15 L1.9,3.3 L2.3,3.55 L4.85,3.55 L7.45,3.55 L7.85,3.3 L7.85,3.15 L4.85,3.15 Z"></path>
                                        <path d="M2.3,3.8 L2,43.65 L4.75,43.65 L4.85,43.65 L5,43.65 L7.7,43.65 L7.4,3.8 L2.3,3.8 Z" id="Shape"></path>
                                    </g>
                                    <g transform="translate(105.500000, 24.500000)" fill="#321512">
                                        <rect id="Rectangle-path" x="0.4" y="0.2" width="9" height="1.35"></rect>
                                        <path d="M4.9,1.75 L0.4,1.75 L0.4,2.1 C1.25,2.85 2,2.85 2,2.85 L7.95,2.85 C7.95,2.85 8.5,2.85 9.35,2.1 L9.35,1.75 L4.9,1.75 L4.9,1.75 Z" id="Shape"></path>
                                        <path id="Shape" d="M4.9,3.15 L1.9,3.15 L1.9,3.3 L2.35,3.55 L4.9,3.55 L7.5,3.55 L7.9,3.3 L7.9,3.15 L4.9,3.15 Z"></path>
                                        <path d="M2.35,3.8 L2.05,43.65 L4.75,43.65 L4.9,43.65 L5.05,43.65 L7.75,43.65 L7.45,3.8 L2.35,3.8 Z" id="Shape"></path>
                                    </g>
                                    <g transform="translate(129.500000, 24.500000)" fill="#321512">
                                        <rect id="Rectangle-path" x="0.45" y="0.2" width="9" height="1.35"></rect>
                                        <path d="M4.95,1.75 L0.45,1.75 L0.45,2.1 C1.3,2.85 2.05,2.85 2.05,2.85 L8,2.85 C8,2.85 8.55,2.85 9.4,2.1 L9.4,1.75 L4.95,1.75 L4.95,1.75 Z" id="Shape"></path>
                                        <path id="Shape" d="M4.95,3.15 L1.95,3.15 L1.95,3.3 L2.35,3.55 L4.95,3.55 L7.5,3.55 L7.95,3.3 L7.95,3.15 L4.95,3.15 Z"></path>
                                        <path d="M2.35,3.8 L2.05,43.65 L4.8,43.65 L4.95,43.65 L5.05,43.65 L7.8,43.65 L7.5,3.8 L2.35,3.8 Z" id="Shape"></path>
                                    </g>
                                    <g transform="translate(154.000000, 24.500000)" fill="#321512">
                                        <rect id="Rectangle-path" x="0" y="0.2" width="9" height="1.35"></rect>
                                        <path d="M4.5,1.75 L0,1.75 L0,2.1 C0.85,2.85 1.6,2.85 1.6,2.85 L7.55,2.85 C7.55,2.85 8.1,2.85 8.95,2.1 L8.95,1.75 L4.5,1.75 L4.5,1.75 Z" id="Shape"></path>
                                        <path id="Shape" d="M4.5,3.15 L1.5,3.15 L1.5,3.3 L1.9,3.55 L4.5,3.55 L7.05,3.55 L7.45,3.3 L7.45,3.15 L4.5,3.15 Z"></path>
                                        <path d="M1.9,3.8 L1.6,43.65 L4.35,43.65 L4.45,43.65 L4.6,43.65 L7.35,43.65 L7.05,3.8 L1.9,3.8 Z" id="Shape"></path>
                                    </g>
                                    <g transform="translate(178.000000, 24.500000)" fill="#321512">
                                        <rect id="Rectangle-path" x="0" y="0.2" width="9" height="1.35"></rect>
                                        <path d="M4.5,1.75 L0,1.75 L0,2.1 C0.85,2.85 1.6,2.85 1.6,2.85 L7.55,2.85 C7.55,2.85 8.1,2.85 8.95,2.1 L8.95,1.75 L4.5,1.75 L4.5,1.75 Z" id="Shape"></path>
                                        <path id="Shape" d="M4.5,3.15 L1.55,3.15 L1.55,3.3 L1.95,3.55 L4.5,3.55 L7.1,3.55 L7.5,3.3 L7.5,3.15 L4.5,3.15 Z"></path>
                                        <path d="M1.95,3.8 L1.65,43.65 L4.4,43.65 L4.5,43.65 L4.65,43.65 L7.35,43.65 L7.05,3.8 L1.95,3.8 Z" id="Shape"></path>
                                    </g>
                                    <g transform="translate(202.000000, 24.500000)" fill="#321512">
                                        <rect id="Rectangle-path" x="0.05" y="0.2" width="9" height="1.35"></rect>
                                        <path d="M4.55,1.75 L0.05,1.75 L0.05,2.1 C0.9,2.85 1.65,2.85 1.65,2.85 L7.6,2.85 C7.6,2.85 8.15,2.85 9,2.1 L9,1.75 L4.55,1.75 L4.55,1.75 Z" id="Shape"></path>
                                        <path id="Shape" d="M4.55,3.15 L1.55,3.15 L1.55,3.3 L2,3.55 L4.55,3.55 L7.15,3.55 L7.55,3.3 L7.55,3.15 L4.55,3.15 Z"></path>
                                        <path d="M2,3.8 L1.7,43.65 L4.4,43.65 L4.55,43.65 L4.7,43.65 L7.4,43.65 L7.1,3.8 L2,3.8 Z" id="Shape"></path>
                                    </g>
                                    <g transform="translate(226.000000, 24.500000)" fill="#321512">
                                        <rect id="Rectangle-path" x="0.1" y="0.2" width="9" height="1.35"></rect>
                                        <path d="M4.6,1.75 L0.1,1.75 L0.1,2.1 C0.95,2.85 1.7,2.85 1.7,2.85 L7.65,2.85 C7.65,2.85 8.2,2.85 9.05,2.1 L9.05,1.75 L4.6,1.75 L4.6,1.75 Z" id="Shape"></path>
                                        <path id="Shape" d="M4.6,3.15 L1.6,3.15 L1.6,3.3 L2,3.55 L4.6,3.55 L7.15,3.55 L7.6,3.3 L7.6,3.15 L4.6,3.15 Z"></path>
                                        <path d="M2,3.8 L1.7,43.65 L4.45,43.65 L4.6,43.65 L4.7,43.65 L7.45,43.65 L7.15,3.8 L2,3.8 Z" id="Shape"></path>
                                    </g>
                                    <g transform="translate(250.000000, 24.500000)" fill="#321512">
                                        <rect id="Rectangle-path" x="0.15" y="0.2" width="9" height="1.35"></rect>
                                        <path d="M4.65,1.75 L0.15,1.75 L0.15,2.1 C1,2.85 1.75,2.85 1.75,2.85 L7.7,2.85 C7.7,2.85 8.25,2.85 9.1,2.1 L9.1,1.75 L4.65,1.75 L4.65,1.75 Z" id="Shape"></path>
                                        <path id="Shape" d="M4.65,3.15 L1.65,3.15 L1.65,3.3 L2.05,3.55 L4.65,3.55 L7.2,3.55 L7.6,3.3 L7.6,3.15 L4.65,3.15 Z"></path>
                                        <path d="M2.05,3.8 L1.75,43.65 L4.5,43.65 L4.6,43.65 L4.75,43.65 L7.5,43.65 L7.2,3.8 L2.05,3.8 Z" id="Shape"></path>
                                    </g>
                                    <g transform="translate(274.000000, 24.500000)" fill="#321512">
                                        <rect id="Rectangle-path" x="0.15" y="0.2" width="9" height="1.35"></rect>
                                        <path d="M4.65,1.75 L0.15,1.75 L0.15,2.1 C1,2.85 1.75,2.85 1.75,2.85 L7.7,2.85 C7.7,2.85 8.25,2.85 9.1,2.1 L9.1,1.75 L4.65,1.75 L4.65,1.75 Z" id="Shape"></path>
                                        <path id="Shape" d="M4.65,3.15 L1.7,3.15 L1.7,3.3 L2.1,3.55 L4.65,3.55 L7.25,3.55 L7.65,3.3 L7.65,3.15 L4.65,3.15 Z"></path>
                                        <path d="M2.1,3.8 L1.8,43.65 L4.55,43.65 L4.65,43.65 L4.8,43.65 L7.5,43.65 L7.2,3.8 L2.1,3.8 Z" id="Shape"></path>
                                    </g>
                                    <g transform="translate(298.000000, 24.500000)" fill="#321512">
                                        <rect id="Rectangle-path" x="0.2" y="0.2" width="9" height="1.35"></rect>
                                        <path d="M4.7,1.75 L0.2,1.75 L0.2,2.1 C1.05,2.85 1.8,2.85 1.8,2.85 L7.75,2.85 C7.75,2.85 8.3,2.85 9.15,2.1 L9.15,1.75 L4.7,1.75 L4.7,1.75 Z" id="Shape"></path>
                                        <path id="Shape" d="M4.7,3.15 L1.7,3.15 L1.7,3.3 L2.15,3.55 L4.7,3.55 L7.3,3.55 L7.7,3.3 L7.7,3.15 L4.7,3.15 Z"></path>
                                        <path d="M2.15,3.8 L1.85,43.65 L4.55,43.65 L4.7,43.65 L4.85,43.65 L7.55,43.65 L7.25,3.8 L2.15,3.8 Z" id="Shape"></path>
                                    </g>
                                    <g transform="translate(322.000000, 24.500000)" fill="#321512">
                                        <rect id="Rectangle-path" x="0.25" y="0.2" width="9" height="1.35"></rect>
                                        <path d="M4.75,1.75 L0.25,1.75 L0.25,2.1 C1.1,2.85 1.85,2.85 1.85,2.85 L7.8,2.85 C7.8,2.85 8.35,2.85 9.2,2.1 L9.2,1.75 L4.75,1.75 L4.75,1.75 Z" id="Shape"></path>
                                        <path id="Shape" d="M4.75,3.15 L1.75,3.15 L1.75,3.3 L2.15,3.55 L4.75,3.55 L7.3,3.55 L7.75,3.3 L7.75,3.15 L4.75,3.15 Z"></path>
                                        <path d="M2.15,3.8 L1.85,43.65 L4.6,43.65 L4.75,43.65 L4.85,43.65 L7.6,43.65 L7.3,3.8 L2.15,3.8 Z" id="Shape"></path>
                                    </g>
                                </g>
                                <path d="M9.1,0.25 L7.3,0.25 L8.2,13.6 L9.1,13.6 L9.1,0.25 Z" id="Shape" fill="#321512"></path>
                                <path d="M331.75,0.25 L333.6,0.25 L332.65,13.6 L331.75,13.6 L331.75,0.25 Z" id="Shape" fill="#321512"></path>
                            </g>
                        </g>
                    </g>
                </g>
            </g>
        </g>
    </g>
</svg>