<?xml version="1.0" encoding="UTF-8" standalone="no"?>
<svg width="258px" height="161px" viewBox="0 0 258 161" version="1.1" xmlns="http://www.w3.org/2000/svg" xmlns:xlink="http://www.w3.org/1999/xlink" xmlns:sketch="http://www.bohemiancoding.com/sketch/ns">
    <!-- Generator: Sketch 3.3.2 (12043) - http://www.bohemiancoding.com/sketch -->
    <title>_akropol</title>
    <desc>Created with Sketch.</desc>
    <defs></defs>
    <g id="Page-1" stroke="none" stroke-width="1" fill="none" fill-rule="evenodd" sketch:type="MSPage">
        <g id="MAPA-grecja-2" sketch:type="MSLayerGroup" transform="translate(-3406.000000, -1673.000000)" fill="#321512">
            <g id="Warstwa_2-+-Warstwa_3-+-Layer_1" transform="translate(2801.000000, 1644.000000)" sketch:type="MSShapeGroup">
                <g id="Warstwa_3-+-Layer_1" transform="translate(0.500000, 0.000000)">
                    <g id="Layer_1" transform="translate(60.500000, 0.000000)">
                        <g id="_akropol" transform="translate(544.000000, 29.500000)">
                            <rect id="Rectangle-path" x="0.2" y="157.8" width="257.2" height="2.7"></rect>
                            <g id="Group" transform="translate(5.500000, 0.000000)">
                                <rect id="Rectangle-path" x="9.8" y="68" width="227" height="7.7"></rect>
                                <rect id="Rectangle-path" x="9.8" y="57.3" width="227" height="10.05"></rect>
                                <rect id="Rectangle-path" x="9.8" y="55.4" width="227" height="1.25"></rect>
                                <path d="M240.7,50.5 L123.3,20.2 L5.9,50.5 L4.9,46.5 L123.3,15.65 L241.75,46.5 L240.7,50.5 Z" id="Shape"></path>
                                <rect id="Rectangle-path" x="5.9" y="50.5" width="234.8" height="4.35"></rect>
                                <rect id="Rectangle-path" x="5.9" y="152.4" width="234.8" height="2.2"></rect>
                                <rect id="Rectangle-path" x="0.35" y="155.1" width="245.95" height="2.15"></rect>
                                <g transform="translate(117.500000, 0.000000)" id="Shape">
                                    <path d="M7.4,7.9 C7.7,7.7 7.95,7.5 8.15,7.4 L8.2,7.35 C8.3,7.3 8.4,7.25 8.5,7.25 C8.55,7.25 8.55,7.25 8.6,7.2 C8.65,7.15 8.75,7.15 8.85,7.15 C9.15,7.05 9.4,7.1 9.5,7.1 L9.5,7.1 C9.85,7.05 10.1,6.7 10.05,6.35 C10,6 9.65,5.75 9.3,5.8 C9.3,5.8 9.2,5.85 9.05,5.9 C8.85,5.95 8.65,6.05 8.4,6.2 C8.3,6.25 8.25,6.3 8.15,6.35 C8.1,6.4 8.05,6.4 8.05,6.45 C7.95,6.5 7.85,6.6 7.75,6.7 L7.7,6.75 C7.5,6.95 7.25,7.2 7,7.55 C6.55,8.2 6.25,8.85 6.1,9.35 C6.15,9.3 6.15,9.25 6.2,9.25 C6.4,8.9 6.85,8.35 7.4,7.9 L7.4,7.9 Z"></path>
                                    <path d="M2.1,7.1 L2.1,7.1 C2.2,7.1 2.45,7.1 2.75,7.2 C2.8,7.2 2.9,7.25 2.95,7.25 C3,7.25 3,7.25 3.05,7.3 C3.15,7.35 3.25,7.35 3.35,7.4 L3.45,7.45 C3.7,7.55 3.9,7.7 4.2,7.95 C4.75,8.4 5.2,8.95 5.4,9.25 C5.45,9.3 5.45,9.35 5.5,9.35 C5.35,8.85 5.05,8.2 4.6,7.55 C4.35,7.2 4.15,6.95 3.9,6.75 L3.85,6.7 C3.75,6.6 3.65,6.5 3.55,6.45 C3.5,6.4 3.45,6.4 3.45,6.35 C3.35,6.3 3.3,6.2 3.2,6.2 C2.95,6.05 2.75,5.95 2.55,5.9 C2.4,5.85 2.3,5.8 2.3,5.8 L2.2,5.8 C1.9,5.8 1.6,6.05 1.55,6.35 C1.5,6.7 1.75,7 2.1,7.1 L2.1,7.1 Z"></path>
                                    <path d="M4.6,5.7 C4.95,6 5.3,6.35 5.55,6.7 C5.6,6.75 5.6,6.75 5.65,6.8 C5.65,6.75 5.65,6.7 5.6,6.7 C5.45,6.3 5.3,5.8 5.05,5.4 C4.6,4.45 3.8,3.65 3.8,3.65 L3.75,3.6 C3.7,3.55 3.6,3.5 3.55,3.45 C3.45,3.4 3.35,3.4 3.25,3.4 C3,3.4 2.75,3.55 2.65,3.8 C2.6,3.95 2.55,4.15 2.65,4.3 C2.7,4.45 2.85,4.6 3,4.7 C3.05,4.7 3.85,5.05 4.6,5.7 L4.6,5.7 Z"></path>
                                    <path d="M7.1,5.7 C7.85,5.05 8.65,4.65 8.7,4.65 C8.8,4.6 8.85,4.55 8.9,4.5 C9.15,4.25 9.15,3.8 8.9,3.55 C8.75,3.45 8.6,3.35 8.45,3.35 C8.25,3.35 8.1,3.4 7.95,3.55 L7.9,3.6 C7.9,3.6 7.1,4.4 6.65,5.35 C6.45,5.8 6.25,6.25 6.1,6.65 C6.1,6.7 6.1,6.75 6.05,6.75 C6.05,6.7 6.1,6.7 6.15,6.65 C6.4,6.35 6.75,6 7.1,5.7 L7.1,5.7 Z"></path>
                                    <path d="M6.5,1.7 L6.5,1.45 C6.45,1.15 6.15,0.9 5.85,0.9 L5.7,0.9 C5.35,0.95 5.1,1.3 5.15,1.7 L5.8,5.3 L6.5,1.7 L6.5,1.7 Z"></path>
                                    <path d="M5.85,0.3 C3.7,0.3 -0.05,5.75 0.15,10.65 C4,10.65 5.05,13.7 5.3,15.3 L5.8,15.3 L6.3,15.3 C6.55,13.7 7.6,10.65 11.45,10.65 C11.7,5.75 8,0.3 5.85,0.3 L5.85,0.3 Z M5.65,0.75 C6.1,0.65 6.55,1 6.65,1.45 L6.65,1.75 L5.9,5.85 C5.9,5.9 5.85,5.95 5.8,5.95 C5.75,5.95 5.7,5.9 5.7,5.85 L4.95,1.75 C4.9,1.25 5.2,0.8 5.65,0.75 L5.65,0.75 Z M2.5,3.7 C2.65,3.4 2.95,3.2 3.3,3.2 C3.4,3.2 3.55,3.25 3.65,3.3 C3.75,3.35 3.85,3.4 3.9,3.5 L3.95,3.55 C4,3.6 4.75,4.4 5.2,5.35 C5.4,5.8 5.65,6.25 5.75,6.7 C5.8,6.8 5.8,6.85 5.8,6.95 C5.8,6.85 5.85,6.8 5.85,6.7 C6,6.3 6.2,5.8 6.4,5.35 C6.85,4.4 7.65,3.6 7.65,3.55 L7.7,3.5 C8,3.15 8.6,3.15 8.95,3.45 C9.3,3.8 9.3,4.35 9,4.7 C8.9,4.8 8.85,4.85 8.75,4.9 C8.75,4.9 7.9,5.3 7.2,5.9 C6.85,6.2 6.5,6.55 6.25,6.85 C6,7.15 5.9,7.35 5.9,7.35 C5.9,7.4 5.85,7.4 5.85,7.4 L5.85,7.4 L5.85,7.4 L5.85,7.4 C5.85,7.4 5.85,7.4 5.8,7.4 L5.8,7.4 L5.75,7.4 C5.75,7.4 5.6,7.2 5.4,6.9 C5.15,6.6 4.8,6.2 4.45,5.95 C3.75,5.3 2.9,4.95 2.9,4.95 C2.7,4.85 2.5,4.7 2.45,4.45 C2.35,4.15 2.4,3.9 2.5,3.7 L2.5,3.7 Z M2.35,5.6 C2.35,5.6 2.45,5.65 2.65,5.7 C2.85,5.75 3.05,5.85 3.3,6 C3.4,6.05 3.5,6.1 3.6,6.2 C3.65,6.25 3.65,6.25 3.7,6.3 C3.8,6.4 3.95,6.5 4.05,6.55 L4.1,6.6 C4.35,6.8 4.55,7.05 4.8,7.4 C5.35,8.2 5.7,9.05 5.8,9.55 C5.95,9.05 6.25,8.2 6.8,7.4 C7.05,7.05 7.3,6.8 7.5,6.6 L7.55,6.55 C7.65,6.45 7.75,6.35 7.9,6.3 C7.95,6.25 8,6.25 8,6.2 C8.1,6.15 8.2,6.05 8.3,6 C8.55,5.85 8.8,5.75 8.95,5.7 C9.1,5.65 9.2,5.6 9.2,5.6 L9.35,5.6 C9.75,5.6 10.1,5.9 10.2,6.3 C10.3,6.75 9.95,7.2 9.5,7.3 L9.4,7.3 C9.3,7.3 9.1,7.3 8.85,7.35 C8.8,7.35 8.7,7.4 8.65,7.4 C8.6,7.4 8.55,7.45 8.55,7.45 C8.45,7.45 8.35,7.5 8.3,7.55 L8.25,7.6 C8.05,7.7 7.8,7.85 7.5,8.05 C6.95,8.5 6.55,9 6.3,9.3 C6,9.7 5.85,10 5.85,10 C5.85,10.05 5.8,10.05 5.8,10.05 L5.8,10.05 L5.8,10.05 C5.8,10.05 5.8,10.05 5.75,10.05 L5.75,10.05 L5.7,10.05 C5.7,10.05 5.55,9.75 5.25,9.35 C5.05,9.05 4.6,8.5 4.05,8.1 C3.75,7.9 3.55,7.75 3.3,7.65 L3.2,7.6 C3.1,7.55 3,7.5 2.95,7.5 C2.9,7.5 2.85,7.45 2.85,7.45 C2.8,7.45 2.7,7.4 2.65,7.4 C2.35,7.35 2.15,7.35 2.05,7.35 L1.95,7.35 C1.5,7.25 1.2,6.85 1.25,6.35 C1.45,5.85 1.9,5.5 2.35,5.6 L2.35,5.6 Z M10.3,9.75 L10.2,9.75 L10.15,9.75 C10,9.75 9.75,9.75 9.5,9.8 C9.25,9.85 9,9.9 8.7,10 C8.4,10.1 8.1,10.25 7.85,10.45 C7.2,10.85 6.7,11.45 6.45,11.75 C6.1,12.15 5.95,12.5 5.95,12.5 C5.95,12.55 5.9,12.55 5.9,12.55 L5.9,12.55 L5.9,12.55 L5.9,12.55 C5.9,12.55 5.9,12.55 5.85,12.55 L5.85,12.55 L5.8,12.55 C5.8,12.55 5.6,12.2 5.3,11.8 C5.05,11.5 4.55,10.9 3.9,10.5 C3.6,10.3 3.3,10.15 3.05,10.05 C2.75,9.95 2.5,9.85 2.25,9.85 C1.95,9.8 1.75,9.8 1.55,9.8 L1.5,9.7 L1.5,9.8 L1.4,9.8 C1.2,9.75 1,9.65 0.85,9.5 C0.7,9.3 0.65,9.1 0.7,8.85 C0.75,8.4 1.2,8.05 1.65,8.1 C1.65,8.1 1.75,8.15 1.95,8.2 C2.2,8.25 2.45,8.35 2.7,8.45 C3,8.55 3.3,8.75 3.65,9 C3.95,9.2 4.25,9.5 4.55,9.8 C5.1,10.4 5.5,11.1 5.7,11.6 C5.8,11.85 5.9,12.05 5.95,12.2 C6,12.05 6.05,11.85 6.2,11.6 C6.4,11.1 6.8,10.4 7.35,9.8 C7.65,9.5 7.95,9.2 8.25,9 C8.55,8.75 8.9,8.6 9.2,8.45 C9.45,8.35 9.65,8.25 9.95,8.2 L10.25,8.1 L10.4,8.1 C10.85,8.1 11.2,8.4 11.25,8.85 C11.1,9.25 10.75,9.7 10.3,9.75 L10.3,9.75 Z"></path>
                                    <path d="M10.2,8.25 L10.1,8.25 L9.85,8.35 C9.6,8.4 9.35,8.5 9.15,8.6 C8.85,8.7 8.55,8.9 8.25,9.15 C7.95,9.35 7.65,9.6 7.4,9.95 C6.85,10.55 6.5,11.25 6.3,11.7 C6.3,11.75 6.25,11.8 6.25,11.85 C6.3,11.8 6.3,11.75 6.35,11.7 C6.6,11.4 7.15,10.8 7.8,10.35 C8.1,10.15 8.4,10 8.7,9.9 C9,9.8 9.3,9.7 9.55,9.65 C9.9,9.6 10.15,9.6 10.25,9.6 L10.25,9.65 L10.25,9.65 L10.25,9.65 L10.3,9.65 L10.3,9.65 C10.65,9.6 10.9,9.25 10.85,8.9 C10.8,8.5 10.5,8.25 10.2,8.25 L10.2,8.25 Z"></path>
                                    <path d="M4.3,9.9 C4.05,9.6 3.75,9.35 3.45,9.1 C3.15,8.9 2.85,8.7 2.55,8.55 C2.35,8.45 2.1,8.35 1.85,8.3 C1.65,8.25 1.55,8.2 1.55,8.2 L1.5,8.2 C1.15,8.2 0.9,8.45 0.85,8.75 C0.85,8.9 0.85,9.1 1,9.25 C1.1,9.4 1.25,9.5 1.45,9.5 L1.5,9.5 L1.5,9.5 L1.55,9.5 C1.65,9.5 1.9,9.5 2.25,9.55 C2.5,9.6 2.8,9.65 3.1,9.8 C3.4,9.9 3.7,10.05 4,10.25 C4.7,10.7 5.2,11.3 5.45,11.6 C5.5,11.65 5.5,11.7 5.55,11.75 C5.55,11.7 5.5,11.65 5.5,11.6 C5.2,11.2 4.85,10.5 4.3,9.9 L4.3,9.9 Z"></path>
                                </g>
                                <path d="M129.65,16.5 C130.7,16.75 131.3,16.35 131.65,16 C132.25,15.35 132.5,14.2 132.15,13.2 C131.85,12.35 131.25,11.75 130.35,11.6 C127.25,11 125.1,13.35 124.6,15.2 L128.75,16.25 C128.6,16.1 128.45,15.95 128.35,15.8 C128.1,15.35 128,14.8 128.15,14.3 C128.35,13.45 129.25,12.9 130.1,13.15 C130.8,13.35 131.2,14.05 131.05,14.75 C130.9,15.3 130.3,15.65 129.75,15.5 L129.8,15.3 C130,15.35 130.25,15.3 130.45,15.2 C130.65,15.1 130.8,14.9 130.85,14.65 C131,14.05 130.65,13.45 130.05,13.3 C129.95,13.25 129.8,13.25 129.7,13.25 C129.05,13.25 128.5,13.7 128.35,14.3 C128.25,14.75 128.3,15.25 128.55,15.65 C128.8,16.1 129.2,16.4 129.65,16.5 L129.65,16.5 Z" id="Shape"></path>
                                <path d="M117.25,11.5 C116.95,11.5 116.6,11.55 116.3,11.6 C115.4,11.75 114.8,12.35 114.5,13.2 C114.2,14.15 114.4,15.3 115,16 C115.35,16.4 116,16.75 117,16.5 C117.45,16.4 117.85,16.1 118.1,15.7 C118.35,15.3 118.4,14.8 118.3,14.35 C118.2,14 118,13.7 117.65,13.5 C117.35,13.3 116.95,13.25 116.6,13.35 C116,13.5 115.65,14.1 115.8,14.7 C115.85,14.9 116,15.1 116.2,15.25 C116.4,15.35 116.65,15.4 116.85,15.35 L116.9,15.55 C116.6,15.6 116.35,15.6 116.1,15.45 C115.85,15.3 115.7,15.05 115.6,14.8 C115.4,14.1 115.85,13.4 116.55,13.2 C116.95,13.1 117.4,13.15 117.75,13.4 C118.1,13.6 118.4,13.95 118.5,14.4 C118.65,14.9 118.55,15.45 118.3,15.9 C118.2,16.1 118.05,16.25 117.9,16.35 L122.05,15.3 C121.6,13.55 119.8,11.5 117.25,11.5 L117.25,11.5 Z" id="Shape"></path>
                                <g transform="translate(9.500000, 76.000000)">
                                    <rect id="Rectangle-path" x="0.3" y="0.45" width="15.75" height="2.35"></rect>
                                    <path d="M8.15,3.15 L0.3,3.15 L0.3,3.8 C1.8,5.1 3.1,5.15 3.1,5.15 L13.55,5.15 C13.55,5.15 14.55,5.1 16.05,3.8 L16.05,3.15 L8.15,3.15 L8.15,3.15 Z" id="Shape"></path>
                                    <path d="M8.15,5.55 L2.95,5.55 L2.95,5.85 L3.65,6.3 L8.15,6.3 L12.65,6.3 L13.4,5.85 L13.4,5.55 L8.15,5.55 Z" id="Shape"></path>
                                    <path d="M3.65,6.75 L3.15,76.4 L7.9,76.4 L8.15,76.4 L8.4,76.4 L13.15,76.4 L12.6,6.75 L3.65,6.75 Z" id="Shape"></path>
                                </g>
                                <g transform="translate(40.000000, 76.000000)">
                                    <rect id="Rectangle-path" x="0" y="0.45" width="15.75" height="2.35"></rect>
                                    <path d="M7.85,3.15 L0,3.15 L0,3.8 C1.5,5.1 2.8,5.15 2.8,5.15 L13.25,5.15 C13.25,5.15 14.25,5.1 15.75,3.8 L15.75,3.15 L7.85,3.15 L7.85,3.15 Z" id="Shape"></path>
                                    <path d="M7.85,5.55 L2.65,5.55 L2.65,5.85 L3.35,6.3 L7.85,6.3 L12.35,6.3 L13.05,5.85 L13.05,5.55 L7.85,5.55 Z" id="Shape"></path>
                                    <path d="M3.35,6.75 L2.85,76.4 L7.6,76.4 L7.8,76.4 L8.05,76.4 L12.8,76.4 L12.3,6.75 L3.35,6.75 Z" id="Shape"></path>
                                </g>
                                <g transform="translate(70.000000, 76.000000)">
                                    <rect id="Rectangle-path" x="0.15" y="0.45" width="15.75" height="2.35"></rect>
                                    <path d="M8,3.15 L0.15,3.15 L0.15,3.8 C1.65,5.1 2.95,5.15 2.95,5.15 L13.4,5.15 C13.4,5.15 14.4,5.1 15.9,3.8 L15.9,3.15 L8,3.15 L8,3.15 Z" id="Shape"></path>
                                    <path d="M8,5.55 L2.8,5.55 L2.8,5.85 L3.55,6.3 L8,6.3 L12.5,6.3 L13.25,5.85 L13.25,5.55 L8,5.55 Z" id="Shape"></path>
                                    <path d="M3.55,6.75 L3,76.4 L7.75,76.4 L8,76.4 L8.25,76.4 L13,76.4 L12.5,6.75 L3.55,6.75 Z" id="Shape"></path>
                                </g>
                                <g transform="translate(100.000000, 76.000000)">
                                    <rect id="Rectangle-path" x="0.35" y="0.45" width="15.75" height="2.35"></rect>
                                    <path d="M8.2,3.15 L0.35,3.15 L0.35,3.8 C1.85,5.1 3.15,5.15 3.15,5.15 L13.6,5.15 C13.6,5.15 14.6,5.1 16.1,3.8 L16.1,3.15 L8.2,3.15 L8.2,3.15 Z" id="Shape"></path>
                                    <path d="M8.2,5.55 L3,5.55 L3,5.85 L3.7,6.3 L8.2,6.3 L12.7,6.3 L13.4,5.85 L13.4,5.55 L8.2,5.55 Z" id="Shape"></path>
                                    <path d="M3.7,6.75 L3.2,76.4 L7.95,76.4 L8.2,76.4 L8.4,76.4 L13.15,76.4 L12.65,6.75 L3.7,6.75 Z" id="Shape"></path>
                                </g>
                                <g transform="translate(130.500000, 76.000000)">
                                    <rect id="Rectangle-path" x="0" y="0.45" width="15.75" height="2.35"></rect>
                                    <path d="M7.85,3.15 L0,3.15 L0,3.8 C1.5,5.1 2.8,5.15 2.8,5.15 L13.25,5.15 C13.25,5.15 14.25,5.1 15.75,3.8 L15.75,3.15 L7.85,3.15 L7.85,3.15 Z" id="Shape"></path>
                                    <path d="M7.85,5.55 L2.65,5.55 L2.65,5.85 L3.4,6.3 L7.85,6.3 L12.35,6.3 L13.1,5.85 L13.1,5.55 L7.85,5.55 Z" id="Shape"></path>
                                    <path d="M3.4,6.75 L2.85,76.4 L7.6,76.4 L7.85,76.4 L8.1,76.4 L12.85,76.4 L12.35,6.75 L3.4,6.75 Z" id="Shape"></path>
                                </g>
                                <g transform="translate(160.500000, 76.000000)">
                                    <rect id="Rectangle-path" x="0.2" y="0.45" width="15.75" height="2.35"></rect>
                                    <path d="M8.05,3.15 L0.2,3.15 L0.2,3.8 C1.7,5.1 3,5.15 3,5.15 L13.45,5.15 C13.45,5.15 14.45,5.1 15.95,3.8 L15.95,3.15 L8.05,3.15 L8.05,3.15 Z" id="Shape"></path>
                                    <path d="M8.05,5.55 L2.85,5.55 L2.85,5.85 L3.55,6.3 L8.05,6.3 L12.55,6.3 L13.25,5.85 L13.25,5.55 L8.05,5.55 Z" id="Shape"></path>
                                    <path d="M3.55,6.75 L3.05,76.4 L7.8,76.4 L8.05,76.4 L8.25,76.4 L13.05,76.4 L12.5,6.75 L3.55,6.75 Z" id="Shape"></path>
                                </g>
                                <g transform="translate(190.500000, 76.000000)">
                                    <rect id="Rectangle-path" x="0.35" y="0.45" width="15.75" height="2.35"></rect>
                                    <path d="M8.25,3.15 L0.4,3.15 L0.4,3.8 C1.9,5.1 3.2,5.15 3.2,5.15 L13.65,5.15 C13.65,5.15 14.65,5.1 16.15,3.8 L16.15,3.15 L8.25,3.15 L8.25,3.15 Z" id="Shape"></path>
                                    <path d="M8.25,5.55 L3,5.55 L3,5.85 L3.75,6.3 L8.25,6.3 L12.7,6.3 L13.45,5.85 L13.45,5.55 L8.25,5.55 Z" id="Shape"></path>
                                    <path d="M3.75,6.75 L3.2,76.4 L8,76.4 L8.2,76.4 L8.45,76.4 L13.2,76.4 L12.7,6.75 L3.75,6.75 Z" id="Shape"></path>
                                </g>
                                <g transform="translate(221.000000, 76.000000)">
                                    <rect id="Rectangle-path" x="0.05" y="0.45" width="15.75" height="2.35"></rect>
                                    <path d="M7.9,3.15 L0.05,3.15 L0.05,3.8 C1.55,5.1 2.85,5.15 2.85,5.15 L13.3,5.15 C13.3,5.15 14.3,5.1 15.8,3.8 L15.8,3.15 L7.9,3.15 L7.9,3.15 Z" id="Shape"></path>
                                    <path d="M7.9,5.55 L2.7,5.55 L2.7,5.85 L3.4,6.3 L7.9,6.3 L12.4,6.3 L13.1,5.85 L13.1,5.55 L7.9,5.55 Z" id="Shape"></path>
                                    <path d="M3.4,6.75 L2.9,76.4 L7.65,76.4 L7.9,76.4 L8.1,76.4 L12.9,76.4 L12.35,6.75 L3.4,6.75 Z" id="Shape"></path>
                                </g>
                                <path d="M123.3,22.05 L17.35,49.1 L229.25,49.1 L123.3,22.05 Z" id="Shape"></path>
                            </g>
                        </g>
                    </g>
                </g>
            </g>
        </g>
    </g>
</svg>