<?xml version="1.0" encoding="UTF-8" standalone="no"?>
<svg width="717px" height="120px" viewBox="0 0 717 120" version="1.1" xmlns="http://www.w3.org/2000/svg" xmlns:xlink="http://www.w3.org/1999/xlink" xmlns:sketch="http://www.bohemiancoding.com/sketch/ns">
    <!-- Generator: Sketch 3.3.2 (12043) - http://www.bohemiancoding.com/sketch -->
    <title>_gimnazjon</title>
    <desc>Created with Sketch.</desc>
    <defs></defs>
    <g id="Page-1" stroke="none" stroke-width="1" fill="none" fill-rule="evenodd" sketch:type="MSPage">
        <g id="MAPA-grecja-2" sketch:type="MSLayerGroup" transform="translate(-2864.000000, -2053.000000)">
            <g id="Warstwa_2-+-Warstwa_3-+-Layer_1" transform="translate(2801.000000, 1644.000000)" sketch:type="MSShapeGroup">
                <g id="Warstwa_3-+-Layer_1" transform="translate(0.500000, 0.000000)">
                    <g id="Layer_1" transform="translate(60.500000, 0.000000)">
                        <g id="_gimnazjon" transform="translate(2.500000, 409.500000)">
                            <path d="M351,72.85 L351,68.8 L350.6,68.55 L350.6,68.3 C350.25,68.2 349.8,68 349.3,67.55 L349.15,67.45 L349.15,67.1 L349.15,66.5 L349.15,65.45 L330.9,65.45 L330.9,72.85 L351,72.85 L351,72.85 Z" id="Shape" fill="#290C07"></path>
                            <rect id="Rectangle-path" fill="#321512" x="545.95" y="67.9" width="169.8" height="11.65"></rect>
                            <rect id="Rectangle-path" fill="#000000" x="545.95" y="67.9" width="169.8" height="11.65"></rect>
                            <rect id="Rectangle-path" fill="#321512" x="273.9" y="77.95" width="56.7" height="41.45"></rect>
                            <rect id="Rectangle-path" fill="#321512" x="487.85" y="77.95" width="56.7" height="41.45"></rect>
                            <path d="M330.55,72.85 L273.9,72.85 L273.9,12.65 L311.15,12.65 L311.15,59.5 L330.55,59.5 L330.55,72.85 Z" id="Shape" fill="#321512"></path>
                            <rect id="Rectangle-path" fill="#321512" x="330.95" y="59.5" width="156.5" height="2.85"></rect>
                            <rect id="Rectangle-path" fill="#321512" x="330.9" y="63.2" width="156.5" height="1.75"></rect>
                            <rect id="Rectangle-path" fill="#321512" x="311.55" y="13.2" width="20.25" height="2.35"></rect>
                            <path d="M329.4,17.85 L311.55,17.85 L311.55,16.45 L330.55,16.45 L329.4,17.85 Z" id="Shape" fill="#321512"></path>
                            <path d="M487.85,72.85 L544.55,72.85 L544.55,12.65 L507.25,12.65 L507.25,59.5 L487.85,59.5 L487.85,72.85 Z" id="Shape" fill="#321512"></path>
                            <rect id="Rectangle-path" fill="#321512" x="545.95" y="80.95" width="169.8" height="38.4"></rect>
                            <path d="M374.2,77.55 L273.9,77.55 L273.9,76.6 L375.4,76.6 L374.2,77.55 Z" id="Shape" fill="#321512"></path>
                            <rect id="Rectangle-path" fill="#321512" x="273.9" y="73.2" width="101.5" height="3"></rect>
                            <path d="M444.2,77.55 L544.55,77.55 L544.55,76.6 L443.05,76.6 L444.2,77.55 Z" id="Shape" fill="#321512"></path>
                            <rect id="Rectangle-path" fill="#321512" x="443.05" y="73.2" width="101.5" height="3"></rect>
                            <rect id="Rectangle-path" fill="#321512" x="378.25" y="13.2" width="61.9" height="2.35"></rect>
                            <g id="Group" transform="translate(329.500000, 16.000000)" fill="#321512">
                                <path d="M49.35,0.45 L1.5,0.45 L0.35,1.85 L50.55,1.85 L49.35,0.45 Z" id="Shape"></path>
                                <path d="M110.05,0.45 L108.85,1.85 L159.1,1.85 L158,0.45 L110.05,0.45 Z" id="Shape"></path>
                            </g>
                            <path d="M379.4,16.45 L380.55,17.85 L437.85,17.85 L439.05,16.45 L379.4,16.45 Z" id="Shape" fill="#321512"></path>
                            <path d="M135,79.25 L165.15,79.25 L150.1,72.25 L135,79.25 Z" id="Shape" fill="#321512"></path>
                            <path d="M0.4,67.6 L0.4,79.25 L134.75,79.25 L134.25,78.2 L149.8,71 C149.95,70.9 150.15,70.9 150.3,71 L165.85,78.2 L165.35,79.25 L272.1,79.25 L272.1,67.6 L0.4,67.6 L0.4,67.6 Z" id="Shape" fill="#321512"></path>
                            <path d="M0.4,67.6 L0.4,79.25 L134.75,79.25 L134.25,78.2 L149.8,71 C149.95,70.9 150.15,70.9 150.3,71 L165.85,78.2 L165.35,79.25 L272.1,79.25 L272.1,67.6 L0.4,67.6 L0.4,67.6 Z" id="Shape" fill="#000000"></path>
                            <rect id="Rectangle-path" fill="#290C07" x="140.8" y="86.55" width="18.6" height="32.85"></rect>
                            <path d="M171.5,80.95 L167.5,80.95 L165.35,80.95 L165.35,79.2 L134.8,79.2 L134.8,80.95 L0.55,80.95 L0.55,119.35 L134.8,119.35 L139.75,119.35 L139.75,85.8 L160.35,85.8 L160.35,119.35 L165.3,119.35 L272.1,119.35 L272.1,80.95 L171.5,80.95 L171.5,80.95 Z M160.35,85.4 L139.8,85.4 L139.2,84 L160.95,84 L160.35,85.4 L160.35,85.4 Z" id="Shape" fill="#321512"></path>
                            <path d="M412.1,1.2 L440.35,11.85 L440.25,12.25 L544.55,12.25 L544.55,1.2 L412.1,1.2 Z" id="Shape" fill="#321512"></path>
                            <path d="M412.1,1.2 L440.35,11.85 L440.25,12.25 L544.55,12.25 L544.55,1.2 L412.1,1.2 Z" id="Shape" fill="#000000"></path>
                            <path d="M434.55,10.1 C437.9,11.35 440.2,12.25 440.2,12.25 L434.6,12.25 C434.55,12.25 434.5,12.2 434.5,12.2 L409.2,2.6 C409.2,2.6 383.95,12.15 383.85,12.2 L378.2,12.2 L409.2,0.45 C409.2,0.5 425.6,6.7 434.55,10.1 L434.55,10.1 Z" id="Shape" fill="#321512"></path>
                            <path d="M378.1,11.85 L406.3,1.2 L273.9,1.2 L273.9,12.25 L378.15,12.25 L378.1,11.85 Z" id="Shape" fill="#321512"></path>
                            <path d="M378.1,11.85 L406.3,1.2 L273.9,1.2 L273.9,12.25 L378.15,12.25 L378.1,11.85 Z" id="Shape" fill="#000000"></path>
                            <rect id="Rectangle-path" fill="#321512" x="332.2" y="13.2" width="45.75" height="2.35"></rect>
                            <rect id="Rectangle-path" fill="#321512" x="440.6" y="13.2" width="45.75" height="2.35"></rect>
                            <g id="Group" transform="translate(486.500000, 13.000000)" fill="#321512">
                                <rect id="Rectangle-path" x="0.2" y="0.2" width="20.15" height="2.35"></rect>
                                <path d="M2.6,4.85 L20.35,4.85 L20.35,3.45 L1.4,3.45 L2.6,4.85 Z" id="Shape"></path>
                            </g>
                            <rect id="Rectangle-path" fill="#FFFFFF" x="481.5" y="66.85" width="0.4" height="4.2"></rect>
                            <path d="M319.75,21.55 L319.35,21.3 L319.35,21.05 C319,20.95 318.55,20.75 318.05,20.3 L317.9,20.2 L317.9,19.85 L317.9,19.25 L317.9,18.2 L311.55,18.2 L311.55,59.25 L319.45,59.25 L319.75,21.55 L319.75,21.55 Z" id="Shape" fill="#290C07"></path>
                            <g id="Group" transform="translate(318.000000, 18.000000)" fill="#321512">
                                <rect id="Rectangle-path" x="0.3" y="0.2" width="8.5" height="1.25"></rect>
                                <path d="M4.55,1.65 L0.3,1.65 L0.3,2 C1.1,2.7 1.85,2.75 1.85,2.75 L7.5,2.75 C7.5,2.75 8.05,2.75 8.85,2 L8.85,1.65 L4.55,1.65 L4.55,1.65 Z" id="Shape"></path>
                                <path id="Shape" d="M4.55,2.95 L1.75,2.95 L1.75,3.1 L2.1,3.35 L4.55,3.35 L7,3.35 L7.35,3.1 L7.35,2.95 L4.55,2.95 Z"></path>
                                <path d="M2.1,3.55 L1.85,41.25 L4.4,41.25 L4.55,41.25 L4.65,41.25 L7.25,41.25 L6.95,3.55 L2.1,3.55 Z" id="Shape"></path>
                            </g>
                            <path d="M351.3,21.55 L350.9,21.3 L350.9,21.05 C350.55,20.95 350.1,20.75 349.6,20.3 L349.45,20.2 L349.45,19.85 L349.45,19.25 L349.45,18.2 L327.15,18.2 L327.15,19.25 L327.15,19.85 L327.15,20.2 L327,20.3 C326.45,20.8 326,21 325.7,21.05 L325.7,21.3 L325.3,21.55 L325.6,59.2 L351,59.2 L351.3,21.55 L351.3,21.55 Z" id="Shape" fill="#290C07"></path>
                            <g id="Group" transform="translate(349.500000, 18.000000)" fill="#321512">
                                <rect id="Rectangle-path" x="0.4" y="0.2" width="8.5" height="1.25"></rect>
                                <path d="M4.65,1.65 L0.4,1.65 L0.4,2 C1.2,2.7 1.95,2.75 1.95,2.75 L7.6,2.75 C7.6,2.75 8.15,2.75 8.95,2 L8.95,1.65 L4.65,1.65 L4.65,1.65 Z" id="Shape"></path>
                                <path id="Shape" d="M4.65,2.95 L1.85,2.95 L1.85,3.1 L2.2,3.35 L4.65,3.35 L7.05,3.35 L7.45,3.1 L7.45,2.95 L4.65,2.95 Z"></path>
                                <path d="M2.2,3.55 L1.95,41.25 L4.5,41.25 L4.65,41.25 L4.75,41.25 L7.35,41.25 L7.05,3.55 L2.2,3.55 Z" id="Shape"></path>
                            </g>
                            <g id="Group" transform="translate(356.500000, 78.000000)">
                                <rect id="Rectangle-path" fill="#321512" x="6.15" y="0" width="8.5" height="1.25"></rect>
                                <path d="M10.4,1.45 L6.15,1.45 L6.15,1.8 C6.95,2.5 7.7,2.55 7.7,2.55 L13.35,2.55 C13.35,2.55 13.9,2.55 14.7,1.8 L14.7,1.45 L10.4,1.45 L10.4,1.45 Z" id="Shape" fill="#321512"></path>
                                <path id="Shape" fill="#321512" d="M10.4,2.75 L7.6,2.75 L7.6,2.9 L7.95,3.15 L10.4,3.15 L12.85,3.15 L13.2,2.9 L13.2,2.75 L10.4,2.75 Z"></path>
                                <path d="M7.6,3.4 L7.2,3.15 L7.2,2.9 C6.85,2.8 6.4,2.6 5.9,2.15 L5.75,2.05 L5.75,1.7 L5.75,1.1 L5.75,0.05 L0.2,0.05 L0.45,41.4 L7.3,41.4 L7.6,3.4 L7.6,3.4 Z" id="Shape" fill="#290C07"></path>
                                <path d="M7.95,3.4 L7.7,41.4 L13.1,41.4 L12.8,3.4 L7.95,3.4 Z" id="Shape" fill="#321512"></path>
                            </g>
                            <g id="Group" transform="translate(475.000000, 78.000000)" fill="#321512">
                                <rect id="Rectangle-path" x="0.15" y="0" width="8.5" height="1.25"></rect>
                                <path d="M4.4,1.45 L0.15,1.45 L0.15,1.8 C0.95,2.5 1.7,2.55 1.7,2.55 L7.35,2.55 C7.35,2.55 7.9,2.55 8.7,1.8 L8.7,1.45 L4.4,1.45 L4.4,1.45 Z" id="Shape"></path>
                                <path id="Shape" d="M4.4,2.75 L1.6,2.75 L1.6,2.9 L1.95,3.15 L4.4,3.15 L6.85,3.15 L7.2,2.9 L7.2,2.75 L4.4,2.75 Z"></path>
                                <path d="M1.95,3.4 L1.7,41.4 L7.1,41.4 L6.8,3.4 L1.95,3.4 Z" id="Shape"></path>
                            </g>
                            <g id="Group" transform="translate(330.500000, 78.000000)">
                                <rect id="Rectangle-path" fill="#321512" x="4.25" y="0" width="8.5" height="1.25"></rect>
                                <path d="M8.5,1.45 L4.25,1.45 L4.25,1.8 C5.05,2.5 5.8,2.55 5.8,2.55 L11.45,2.55 C11.45,2.55 12,2.55 12.8,1.8 L12.8,1.45 L8.5,1.45 L8.5,1.45 Z" id="Shape" fill="#321512"></path>
                                <path id="Shape" fill="#321512" d="M8.5,2.75 L5.7,2.75 L5.7,2.9 L6.1,3.15 L8.5,3.15 L10.95,3.15 L11.35,2.9 L11.35,2.75 L8.5,2.75 Z"></path>
                                <g id="Shape" fill="#290C07">
                                    <path d="M5.7,3.4 L5.3,3.15 L5.3,2.9 C4.95,2.8 4.5,2.6 4,2.15 L3.85,2.05 L3.85,1.7 L3.85,1.1 L3.85,0.05 L0.45,0.05 L0.45,41.4 L5.4,41.4 L5.7,3.4 L5.7,3.4 Z"></path>
                                    <path d="M13.15,0.05 L13.15,1.1 L13.15,1.7 L13.15,2.05 L13,2.15 C12.45,2.65 12,2.85 11.7,2.9 L11.7,3.15 L11.3,3.4 L11.55,41.4 L20.2,41.4 L20.4,0.05 L13.15,0.05 L13.15,0.05 Z"></path>
                                </g>
                                <path d="M6.1,3.4 L5.8,41.4 L11.2,41.4 L10.9,3.4 L6.1,3.4 Z" id="Shape" fill="#321512"></path>
                            </g>
                            <rect id="Rectangle-path" fill="#321512" x="380.5" y="18.2" width="8.5" height="1.25"></rect>
                            <path d="M384.75,19.65 L380.5,19.65 L380.5,20 C381.3,20.7 382.05,20.75 382.05,20.75 L387.7,20.75 C387.7,20.75 388.25,20.75 389.05,20 L389.05,19.65 L384.75,19.65 L384.75,19.65 Z" id="Shape" fill="#321512"></path>
                            <path id="Shape" fill="#321512" d="M384.75,20.95 L381.95,20.95 L381.95,21.1 L382.35,21.35 L384.75,21.35 L387.2,21.35 L387.6,21.1 L387.6,20.95 L384.75,20.95 Z"></path>
                            <path d="M381.95,21.55 L381.55,21.3 L381.55,21.05 C381.2,20.95 380.75,20.75 380.25,20.3 L380.1,20.2 L380.1,19.85 L380.1,19.25 L380.1,18.2 L358.8,18.2 L358.8,19.25 L358.8,19.85 L358.8,20.2 L358.65,20.3 C358.1,20.8 357.65,21 357.35,21.05 L357.35,21.3 L356.95,21.55 L357.25,59.2 L381.7,59.2 L381.95,21.55 L381.95,21.55 Z" id="Shape" fill="#290C07"></path>
                            <path d="M382.35,21.55 L382.05,59.25 L384.65,59.25 L384.75,59.25 L384.9,59.25 L387.45,59.25 L387.2,21.55 L382.35,21.55 Z" id="Shape" fill="#321512"></path>
                            <path d="M381.95,68.8 L381.55,68.55 L381.55,68.3 C381.2,68.2 380.75,68 380.25,67.55 L380.1,67.45 L380.1,67.1 L380.1,66.5 L380.1,65.45 L358.5,65.45 L358.5,66.5 L358.5,67.1 L358.5,67.45 L358.35,67.55 C357.8,68.05 357.35,68.25 357.05,68.3 L357.05,68.55 L356.65,68.8 L356.65,72.75 L375.9,72.75 L375.9,76.6 L374.1,78.05 L371.55,78.05 L371.55,79.1 L371.55,79.7 L371.55,80.05 L371.4,80.15 C370.85,80.65 370.4,80.85 370.1,80.9 L370.1,81.15 L369.7,81.4 L370,119.4 L381.65,119.4 L381.95,68.8 L381.95,68.8 Z" id="Shape" fill="#290C07"></path>
                            <path d="M430.75,21.55 L430.35,21.3 L430.35,21.05 C430,20.95 429.55,20.75 429.05,20.3 L428.9,20.2 L428.9,19.85 L428.9,19.25 L428.9,18.2 L389.35,18.2 L389.35,19.25 L389.35,19.85 L389.35,20.2 L389.2,20.3 C388.65,20.8 388.2,21 387.9,21.05 L387.9,21.3 L387.5,21.55 L387.8,59.2 L430.45,59.2 L430.75,21.55 L430.75,21.55 Z" id="Shape" fill="#290C07"></path>
                            <g id="Group" transform="translate(429.000000, 18.000000)" fill="#321512">
                                <rect id="Rectangle-path" x="0.35" y="0.2" width="8.5" height="1.25"></rect>
                                <path d="M4.6,1.65 L0.35,1.65 L0.35,2 C1.15,2.7 1.9,2.75 1.9,2.75 L7.55,2.75 C7.55,2.75 8.1,2.75 8.9,2 L8.9,1.65 L4.6,1.65 L4.6,1.65 Z" id="Shape"></path>
                                <path id="Shape" d="M4.6,2.95 L1.8,2.95 L1.8,3.1 L2.15,3.35 L4.6,3.35 L7.05,3.35 L7.4,3.1 L7.4,2.95 L4.6,2.95 Z"></path>
                                <path d="M2.15,3.55 L1.9,41.25 L4.45,41.25 L4.6,41.25 L4.7,41.25 L7.3,41.25 L7,3.55 L2.15,3.55 Z" id="Shape"></path>
                            </g>
                            <g id="Group" transform="translate(459.500000, 18.000000)" fill="#321512">
                                <rect id="Rectangle-path" x="0.45" y="0.2" width="8.5" height="1.25"></rect>
                                <path d="M4.7,1.65 L0.45,1.65 L0.45,2 C1.25,2.7 2,2.75 2,2.75 L7.65,2.75 C7.65,2.75 8.2,2.75 9,2 L9,1.65 L4.7,1.65 L4.7,1.65 Z" id="Shape"></path>
                                <path id="Shape" d="M4.7,2.95 L1.85,2.95 L1.85,3.1 L2.25,3.35 L4.7,3.35 L7.1,3.35 L7.5,3.1 L7.5,2.95 L4.7,2.95 Z"></path>
                                <path d="M2.25,3.55 L1.95,41.25 L4.55,41.25 L4.65,41.25 L4.8,41.25 L7.35,41.25 L7.1,3.55 L2.25,3.55 Z" id="Shape"></path>
                            </g>
                            <path d="M461.35,21.55 L460.95,21.3 L460.95,21.05 C460.6,20.95 460.15,20.75 459.65,20.3 L459.5,20.2 L459.5,19.85 L459.5,19.25 L459.5,18.2 L438.2,18.2 L438.2,19.25 L438.2,19.85 L438.2,20.2 L438.05,20.3 C437.5,20.8 437.05,21 436.75,21.05 L436.75,21.3 L436.35,21.55 L436.65,59.2 L461.05,59.2 L461.35,21.55 L461.35,21.55 Z" id="Shape" fill="#290C07"></path>
                            <path d="M491.95,21.55 L491.55,21.3 L491.55,21.05 C491.2,20.95 490.75,20.75 490.25,20.3 L490.1,20.2 L490.1,19.85 L490.1,19.25 L490.1,18.2 L468.8,18.2 L468.8,19.25 L468.8,19.85 L468.8,20.2 L468.65,20.3 C468.1,20.8 467.65,21 467.35,21.05 L467.35,21.3 L466.95,21.55 L467.25,59.2 L491.65,59.2 L491.95,21.55 L491.95,21.55 Z" id="Shape" fill="#290C07"></path>
                            <g id="Group" transform="translate(490.500000, 18.000000)" fill="#290C07">
                                <rect id="Rectangle-path" x="0.05" y="0.2" width="8.5" height="1.25"></rect>
                                <path d="M4.3,1.65 L0.05,1.65 L0.05,2 C0.85,2.7 1.6,2.75 1.6,2.75 L7.25,2.75 C7.25,2.75 7.8,2.75 8.6,2 L8.6,1.65 L4.3,1.65 L4.3,1.65 Z" id="Shape"></path>
                                <path id="Shape" d="M4.3,2.95 L1.45,2.95 L1.45,3.1 L1.85,3.35 L4.3,3.35 L6.7,3.35 L7.1,3.1 L7.1,2.95 L4.3,2.95 Z"></path>
                                <path d="M8.95,0.2 L8.95,1.25 L8.95,1.85 L8.95,2.2 L8.8,2.3 C8.25,2.8 7.8,3 7.5,3.05 L7.5,3.3 L7.1,3.55 L7.4,41.2 L16.4,41.2 L16.4,0.15 L8.95,0.15 L8.95,0.2 Z" id="Shape"></path>
                                <path d="M1.85,3.55 L1.55,41.25 L4.15,41.25 L4.25,41.25 L4.4,41.25 L6.95,41.25 L6.7,3.55 L1.85,3.55 Z" id="Shape"></path>
                            </g>
                            <g id="Group" transform="translate(459.500000, 65.000000)" fill="#321512">
                                <rect id="Rectangle-path" x="0.4" y="0.4" width="8.5" height="1.25"></rect>
                                <path d="M4.65,1.85 L0.4,1.85 L0.4,2.2 C1.2,2.9 1.95,2.95 1.95,2.95 L7.6,2.95 C7.6,2.95 8.15,2.95 8.95,2.2 L8.95,1.85 L4.65,1.85 L4.65,1.85 Z" id="Shape"></path>
                                <path id="Shape" d="M4.65,3.15 L1.85,3.15 L1.85,3.3 L2.25,3.55 L4.65,3.55 L7.1,3.55 L7.5,3.3 L7.5,3.15 L4.65,3.15 Z"></path>
                                <path d="M7.1,7.75 L7.1,3.8 L2.25,3.8 L2.2,7.75 L7.1,7.75 Z" id="Shape"></path>
                                <path d="M2.2,13.05 L1.95,54.4 L7.35,54.4 L7.15,13.05 L2.2,13.05 Z" id="Shape"></path>
                            </g>
                            <rect id="Rectangle-path" fill="#321512" x="349.6" y="65.4" width="8.5" height="1.25"></rect>
                            <path d="M353.85,66.85 L349.6,66.85 L349.6,67.2 C350.4,67.9 351.15,67.95 351.15,67.95 L356.8,67.95 C356.8,67.95 357.35,67.95 358.15,67.2 L358.15,66.85 L353.85,66.85 L353.85,66.85 Z" id="Shape" fill="#321512"></path>
                            <path id="Shape" fill="#321512" d="M353.85,68.15 L351.05,68.15 L351.05,68.3 L351.4,68.55 L353.85,68.55 L356.3,68.55 L356.65,68.3 L356.65,68.15 L353.85,68.15 Z"></path>
                            <path d="M356.3,72.75 L356.25,68.8 L351.4,68.8 L351.4,72.75 L356.3,72.75 Z" id="Shape" fill="#321512"></path>
                            <path d="M351.35,78.05 L351.15,119.4 L356.55,119.4 L356.3,78.05 L351.35,78.05 Z" id="Shape" fill="#321512"></path>
                            <g id="Group" transform="translate(274.000000, 73.500000)" fill="#DC7D27">
                                <path d="M5.2,2.35 L4.7,2.35 L4.65,2.35 L3.3,2.35 L3.3,0.55 L4.8,0.55 L4.8,1.55 L4.05,1.55 L4.05,1.25 L4.5,1.25 L4.5,1.25 L4.5,0.9 L4.5,0.9 L3.65,0.9 L3.65,0.9 L3.65,1.95 L3.65,1.95 L5.2,1.95 L5.2,1.95 L5.2,0.05 L5.2,0.05 L2.9,0.05 L2.9,0.05 L2.9,2.35 L2.1,2.35 L2.05,2.35 L0.7,2.35 L0.7,0.55 L2.2,0.55 L2.2,1.55 L1.45,1.55 L1.45,1.25 L1.9,1.25 L1.9,1.25 L1.9,0.9 L1.9,0.9 L1.05,0.9 L1.05,0.9 L1.05,1.95 L1.05,1.95 L2.6,1.95 L2.6,1.95 L2.6,0.05 L2.6,0.05 L0.3,0.05 L0.3,0.05 L0.3,2.35 L6.82121026e-13,2.35 L6.82121026e-13,2.4 L0.35,2.4 L0.35,2.4 L0.35,0.1 L2.6,0.1 L2.6,1.95 L1.1,1.95 L1.1,0.95 L1.95,0.95 L1.95,1.25 L1.5,1.25 L1.5,1.25 L1.5,1.6 L1.5,1.6 L2.3,1.6 L2.3,1.6 L2.3,0.55 L2.3,0.55 L0.75,0.55 L0.75,0.55 L0.75,2.4 L0.75,2.4 L2.15,2.4 L2.2,2.4 L3.05,2.4 L3.05,2.4 L3.05,0.1 L5.3,0.1 L5.3,1.95 L3.8,1.95 L3.8,0.95 L4.65,0.95 L4.65,1.25 L4.2,1.25 L4.2,1.25 L4.2,1.6 L4.2,1.6 L5,1.6 L5,1.6 L5,0.55 L5,0.55 L3.45,0.55 L3.45,0.55 L3.45,2.4 L3.45,2.4 L4.85,2.4 L4.9,2.4 L5.2,2.35 L5.2,2.35 Z" id="Shape"></path>
                                <path d="M10.55,2.35 L10.05,2.35 L10,2.35 L8.65,2.35 L8.65,0.55 L10.15,0.55 L10.15,1.55 L9.4,1.55 L9.4,1.25 L9.85,1.25 L9.85,1.25 L9.85,0.9 L9.85,0.9 L9,0.9 L9,0.9 L9,1.95 L9,1.95 L10.55,1.95 L10.55,1.95 L10.55,0.05 L10.55,0.05 L8.25,0.05 L8.25,0.05 L8.25,2.35 L7.45,2.35 L7.4,2.35 L6.05,2.35 L6.05,0.55 L7.55,0.55 L7.55,1.55 L6.8,1.55 L6.8,1.25 L7.25,1.25 L7.25,1.25 L7.25,0.9 L7.25,0.9 L6.4,0.9 L6.4,0.9 L6.4,1.95 L6.4,1.95 L7.95,1.95 L7.95,1.95 L7.95,0.05 L7.95,0.05 L5.65,0.05 L5.65,0.05 L5.65,2.35 L5.35,2.35 L5.35,2.4 L5.7,2.4 L5.7,2.4 L5.7,0.1 L7.95,0.1 L7.95,1.95 L6.45,1.95 L6.45,0.95 L7.3,0.95 L7.3,1.25 L6.85,1.25 L6.85,1.25 L6.85,1.6 L6.85,1.6 L7.65,1.6 L7.65,1.6 L7.65,0.55 L7.65,0.55 L6.1,0.55 L6.1,0.55 L6.1,2.4 L6.1,2.4 L7.5,2.4 L7.55,2.4 L8.4,2.4 L8.4,2.4 L8.4,0.1 L10.65,0.1 L10.65,1.95 L9.15,1.95 L9.15,0.95 L10,0.95 L10,1.25 L9.55,1.25 L9.55,1.25 L9.55,1.6 L9.55,1.6 L10.35,1.6 L10.35,1.6 L10.35,0.55 L10.35,0.55 L8.8,0.55 L8.8,0.55 L8.8,2.4 L8.8,2.4 L10.2,2.4 L10.25,2.4 L10.55,2.35 L10.55,2.35 Z" id="Shape"></path>
                                <path d="M15.9,2.35 L15.4,2.35 L15.35,2.35 L14,2.35 L14,0.55 L15.5,0.55 L15.5,1.55 L14.75,1.55 L14.75,1.25 L15.2,1.25 L15.2,1.25 L15.2,0.9 L15.2,0.9 L14.35,0.9 L14.35,0.9 L14.35,1.95 L14.35,1.95 L15.9,1.95 L15.9,1.95 L15.9,0.05 L15.9,0.05 L13.6,0.05 L13.6,0.05 L13.6,2.35 L12.8,2.35 L12.75,2.35 L11.4,2.35 L11.4,0.55 L12.9,0.55 L12.9,1.55 L12.15,1.55 L12.15,1.25 L12.6,1.25 L12.6,1.25 L12.6,0.9 L12.6,0.9 L11.75,0.9 L11.75,0.9 L11.75,1.95 L11.75,1.95 L13.3,1.95 L13.3,1.95 L13.3,0.05 L13.3,0.05 L11,0.05 L11,0.05 L11,2.35 L10.7,2.35 L10.7,2.4 L11.05,2.4 L11.05,2.4 L11.05,0.1 L13.3,0.1 L13.3,1.95 L11.8,1.95 L11.8,0.95 L12.65,0.95 L12.65,1.25 L12.2,1.25 L12.2,1.25 L12.2,1.6 L12.2,1.6 L13,1.6 L13,1.6 L13,0.55 L13,0.55 L11.45,0.55 L11.45,0.55 L11.45,2.4 L11.45,2.4 L12.85,2.4 L12.9,2.4 L13.75,2.4 L13.75,2.4 L13.75,0.1 L16,0.1 L16,1.95 L14.5,1.95 L14.5,0.95 L15.35,0.95 L15.35,1.25 L14.9,1.25 L14.9,1.25 L14.9,1.6 L14.9,1.6 L15.7,1.6 L15.7,1.6 L15.7,0.55 L15.7,0.55 L14.15,0.55 L14.15,0.55 L14.15,2.4 L14.15,2.4 L15.55,2.4 L15.6,2.4 L15.9,2.35 L15.9,2.35 Z" id="Shape"></path>
                                <path d="M21.25,2.35 L20.75,2.35 L20.7,2.35 L19.35,2.35 L19.35,0.55 L20.85,0.55 L20.85,1.55 L20.1,1.55 L20.1,1.25 L20.55,1.25 L20.55,1.25 L20.55,0.9 L20.55,0.9 L19.7,0.9 L19.7,0.9 L19.7,1.95 L19.7,1.95 L21.25,1.95 L21.25,1.95 L21.25,0.05 L21.25,0.05 L18.95,0.05 L18.95,0.05 L18.95,2.35 L18.15,2.35 L18.1,2.35 L16.75,2.35 L16.75,0.55 L18.25,0.55 L18.25,1.55 L17.5,1.55 L17.5,1.25 L17.95,1.25 L17.95,1.25 L17.95,0.9 L17.95,0.9 L17.1,0.9 L17.1,0.9 L17.1,1.95 L17.1,1.95 L18.65,1.95 L18.65,1.95 L18.65,0.05 L18.65,0.05 L16.35,0.05 L16.35,0.05 L16.35,2.35 L16.05,2.35 L16.05,2.4 L16.4,2.4 L16.4,2.4 L16.4,0.1 L18.65,0.1 L18.65,1.95 L17.15,1.95 L17.15,0.95 L18,0.95 L18,1.25 L17.55,1.25 L17.55,1.25 L17.55,1.6 L17.55,1.6 L18.35,1.6 L18.35,1.6 L18.35,0.55 L18.35,0.55 L16.8,0.55 L16.8,0.55 L16.8,2.4 L16.8,2.4 L18.2,2.4 L18.25,2.4 L19.1,2.4 L19.1,2.4 L19.1,0.1 L21.35,0.1 L21.35,1.95 L19.85,1.95 L19.85,0.95 L20.7,0.95 L20.7,1.25 L20.25,1.25 L20.25,1.25 L20.25,1.6 L20.25,1.6 L21.05,1.6 L21.05,1.6 L21.05,0.55 L21.05,0.55 L19.5,0.55 L19.5,0.55 L19.5,2.4 L19.5,2.4 L20.9,2.4 L20.95,2.4 L21.25,2.35 L21.25,2.35 Z" id="Shape"></path>
                                <path d="M26.6,2.35 L26.1,2.35 L26.05,2.35 L24.7,2.35 L24.7,0.55 L26.2,0.55 L26.2,1.55 L25.45,1.55 L25.45,1.25 L25.9,1.25 L25.9,1.25 L25.9,0.9 L25.9,0.9 L25.05,0.9 L25.05,0.9 L25.05,1.95 L25.05,1.95 L26.6,1.95 L26.6,1.95 L26.6,0.05 L26.6,0.05 L24.3,0.05 L24.3,0.05 L24.3,2.35 L23.5,2.35 L23.45,2.35 L22.1,2.35 L22.1,0.55 L23.6,0.55 L23.6,1.55 L22.85,1.55 L22.85,1.25 L23.3,1.25 L23.3,1.25 L23.3,0.9 L23.3,0.9 L22.45,0.9 L22.45,0.9 L22.45,1.95 L22.45,1.95 L24,1.95 L24,1.95 L24,0.05 L24,0.05 L21.7,0.05 L21.7,0.05 L21.7,2.35 L21.4,2.35 L21.4,2.4 L21.75,2.4 L21.75,2.4 L21.75,0.1 L24,0.1 L24,1.95 L22.5,1.95 L22.5,0.95 L23.35,0.95 L23.35,1.25 L22.9,1.25 L22.9,1.25 L22.9,1.6 L22.9,1.6 L23.7,1.6 L23.7,1.6 L23.7,0.55 L23.7,0.55 L22.15,0.55 L22.15,0.55 L22.15,2.4 L22.15,2.4 L23.55,2.4 L23.6,2.4 L24.45,2.4 L24.45,2.4 L24.45,0.1 L26.7,0.1 L26.7,1.95 L25.2,1.95 L25.2,0.95 L26.05,0.95 L26.05,1.25 L25.6,1.25 L25.6,1.25 L25.6,1.6 L25.6,1.6 L26.4,1.6 L26.4,1.6 L26.4,0.55 L26.4,0.55 L24.85,0.55 L24.85,0.55 L24.85,2.4 L24.85,2.4 L26.25,2.4 L26.3,2.4 L26.6,2.35 L26.6,2.35 Z" id="Shape"></path>
                                <path d="M31.95,2.35 L31.45,2.35 L31.4,2.35 L30.05,2.35 L30.05,0.55 L31.55,0.55 L31.55,1.55 L30.8,1.55 L30.8,1.25 L31.25,1.25 L31.25,1.25 L31.25,0.9 L31.25,0.9 L30.4,0.9 L30.4,0.9 L30.4,1.95 L30.4,1.95 L31.95,1.95 L31.95,1.95 L31.95,0.05 L31.95,0.05 L29.65,0.05 L29.65,0.05 L29.65,2.35 L28.85,2.35 L28.8,2.35 L27.45,2.35 L27.45,0.55 L28.95,0.55 L28.95,1.55 L28.2,1.55 L28.2,1.25 L28.65,1.25 L28.65,1.25 L28.65,0.9 L28.65,0.9 L27.8,0.9 L27.8,0.9 L27.8,1.95 L27.8,1.95 L29.35,1.95 L29.35,1.95 L29.35,0.05 L29.35,0.05 L27.05,0.05 L27.05,0.05 L27.05,2.35 L26.75,2.35 L26.75,2.4 L27.1,2.4 L27.1,2.4 L27.1,0.1 L29.35,0.1 L29.35,1.95 L27.85,1.95 L27.85,0.95 L28.7,0.95 L28.7,1.25 L28.25,1.25 L28.25,1.25 L28.25,1.6 L28.25,1.6 L29.05,1.6 L29.05,1.6 L29.05,0.55 L29.05,0.55 L27.5,0.55 L27.5,0.55 L27.5,2.4 L27.5,2.4 L28.9,2.4 L28.95,2.4 L29.8,2.4 L29.8,2.4 L29.8,0.1 L32.05,0.1 L32.05,1.95 L30.55,1.95 L30.55,0.95 L31.4,0.95 L31.4,1.25 L30.95,1.25 L30.95,1.25 L30.95,1.6 L30.95,1.6 L31.75,1.6 L31.75,1.6 L31.75,0.55 L31.75,0.55 L30.2,0.55 L30.2,0.55 L30.2,2.4 L30.2,2.4 L31.6,2.4 L31.65,2.4 L31.95,2.35 L31.95,2.35 Z" id="Shape"></path>
                                <path d="M37.25,2.35 L36.75,2.35 L36.7,2.35 L35.35,2.35 L35.35,0.55 L36.85,0.55 L36.85,1.55 L36.1,1.55 L36.1,1.25 L36.55,1.25 L36.55,1.25 L36.55,0.9 L36.55,0.9 L35.7,0.9 L35.7,0.9 L35.7,1.95 L35.7,1.95 L37.25,1.95 L37.25,1.95 L37.25,0.05 L37.25,0.05 L34.95,0.05 L34.95,0.05 L34.95,2.35 L34.15,2.35 L34.1,2.35 L32.75,2.35 L32.75,0.55 L34.25,0.55 L34.25,1.55 L33.5,1.55 L33.5,1.25 L33.95,1.25 L33.95,1.25 L33.95,0.9 L33.95,0.9 L33.1,0.9 L33.1,0.9 L33.1,1.95 L33.1,1.95 L34.65,1.95 L34.65,1.95 L34.65,0.05 L34.65,0.05 L32.35,0.05 L32.35,0.05 L32.35,2.35 L32.05,2.35 L32.05,2.4 L32.4,2.4 L32.4,2.4 L32.4,0.1 L34.65,0.1 L34.65,1.95 L33.15,1.95 L33.15,0.95 L34,0.95 L34,1.25 L33.55,1.25 L33.55,1.25 L33.55,1.6 L33.55,1.6 L34.35,1.6 L34.35,1.6 L34.35,0.55 L34.35,0.55 L32.8,0.55 L32.8,0.55 L32.8,2.4 L32.8,2.4 L34.2,2.4 L34.25,2.4 L35.1,2.4 L35.1,2.4 L35.1,0.1 L37.35,0.1 L37.35,1.95 L35.85,1.95 L35.85,0.95 L36.7,0.95 L36.7,1.25 L36.25,1.25 L36.25,1.25 L36.25,1.6 L36.25,1.6 L37.05,1.6 L37.05,1.6 L37.05,0.55 L37.05,0.55 L35.5,0.55 L35.5,0.55 L35.5,2.4 L35.5,2.4 L36.9,2.4 L36.95,2.4 L37.25,2.35 L37.25,2.35 Z" id="Shape"></path>
                                <path d="M42.6,2.35 L42.1,2.35 L42.05,2.35 L40.7,2.35 L40.7,0.55 L42.2,0.55 L42.2,1.55 L41.45,1.55 L41.45,1.25 L41.9,1.25 L41.9,1.25 L41.9,0.9 L41.9,0.9 L41.05,0.9 L41.05,0.9 L41.05,1.95 L41.05,1.95 L42.6,1.95 L42.6,1.95 L42.6,0.05 L42.6,0.05 L40.3,0.05 L40.3,0.05 L40.3,2.35 L39.5,2.35 L39.45,2.35 L38.1,2.35 L38.1,0.55 L39.6,0.55 L39.6,1.55 L38.85,1.55 L38.85,1.25 L39.3,1.25 L39.3,1.25 L39.3,0.9 L39.3,0.9 L38.45,0.9 L38.45,0.9 L38.45,1.95 L38.45,1.95 L40,1.95 L40,1.95 L40,0.05 L40,0.05 L37.7,0.05 L37.7,0.05 L37.7,2.35 L37.4,2.35 L37.4,2.4 L37.75,2.4 L37.75,2.4 L37.75,0.1 L40,0.1 L40,1.95 L38.5,1.95 L38.5,0.95 L39.35,0.95 L39.35,1.25 L38.9,1.25 L38.9,1.25 L38.9,1.6 L38.9,1.6 L39.7,1.6 L39.7,1.6 L39.7,0.55 L39.7,0.55 L38.15,0.55 L38.15,0.55 L38.15,2.4 L38.15,2.4 L39.55,2.4 L39.6,2.4 L40.45,2.4 L40.45,2.4 L40.45,0.1 L42.7,0.1 L42.7,1.95 L41.2,1.95 L41.2,0.95 L42.05,0.95 L42.05,1.25 L41.6,1.25 L41.6,1.25 L41.6,1.6 L41.6,1.6 L42.4,1.6 L42.4,1.6 L42.4,0.55 L42.4,0.55 L40.85,0.55 L40.85,0.55 L40.85,2.4 L40.85,2.4 L42.25,2.4 L42.3,2.4 L42.6,2.35 L42.6,2.35 Z" id="Shape"></path>
                                <path d="M47.95,2.35 L47.45,2.35 L47.4,2.35 L46.05,2.35 L46.05,0.55 L47.55,0.55 L47.55,1.55 L46.8,1.55 L46.8,1.25 L47.25,1.25 L47.25,1.25 L47.25,0.9 L47.25,0.9 L46.4,0.9 L46.4,0.9 L46.4,1.95 L46.4,1.95 L47.95,1.95 L47.95,1.95 L47.95,0.05 L47.95,0.05 L45.65,0.05 L45.65,0.05 L45.65,2.35 L44.85,2.35 L44.8,2.35 L43.45,2.35 L43.45,0.55 L44.95,0.55 L44.95,1.55 L44.2,1.55 L44.2,1.25 L44.65,1.25 L44.65,1.25 L44.65,0.9 L44.65,0.9 L43.8,0.9 L43.8,0.9 L43.8,1.95 L43.8,1.95 L45.35,1.95 L45.35,1.95 L45.35,0.05 L45.35,0.05 L43.05,0.05 L43.05,0.05 L43.05,2.35 L42.75,2.35 L42.75,2.4 L43.1,2.4 L43.1,2.4 L43.1,0.1 L45.35,0.1 L45.35,1.95 L43.85,1.95 L43.85,0.95 L44.7,0.95 L44.7,1.25 L44.25,1.25 L44.25,1.25 L44.25,1.6 L44.25,1.6 L45.05,1.6 L45.05,1.6 L45.05,0.55 L45.05,0.55 L43.5,0.55 L43.5,0.55 L43.5,2.4 L43.5,2.4 L44.9,2.4 L44.95,2.4 L45.8,2.4 L45.8,2.4 L45.8,0.1 L48.05,0.1 L48.05,1.95 L46.55,1.95 L46.55,0.95 L47.4,0.95 L47.4,1.25 L46.95,1.25 L46.95,1.25 L46.95,1.6 L46.95,1.6 L47.75,1.6 L47.75,1.6 L47.75,0.55 L47.75,0.55 L46.2,0.55 L46.2,0.55 L46.2,2.4 L46.2,2.4 L47.6,2.4 L47.65,2.4 L47.95,2.35 L47.95,2.35 Z" id="Shape"></path>
                                <path d="M53.3,2.35 L52.8,2.35 L52.75,2.35 L51.4,2.35 L51.4,0.55 L52.9,0.55 L52.9,1.55 L52.15,1.55 L52.15,1.25 L52.6,1.25 L52.6,1.25 L52.6,0.9 L52.6,0.9 L51.75,0.9 L51.75,0.9 L51.75,1.95 L51.75,1.95 L53.3,1.95 L53.3,1.95 L53.3,0.05 L53.3,0.05 L51,0.05 L51,0.05 L51,2.35 L50.2,2.35 L50.15,2.35 L48.8,2.35 L48.8,0.55 L50.3,0.55 L50.3,1.55 L49.55,1.55 L49.55,1.25 L50,1.25 L50,1.25 L50,0.9 L50,0.9 L49.15,0.9 L49.15,0.9 L49.15,1.95 L49.15,1.95 L50.7,1.95 L50.7,1.95 L50.7,0.05 L50.7,0.05 L48.4,0.05 L48.4,0.05 L48.4,2.35 L48.1,2.35 L48.1,2.4 L48.45,2.4 L48.45,2.4 L48.45,0.1 L50.7,0.1 L50.7,1.95 L49.2,1.95 L49.2,0.95 L50.05,0.95 L50.05,1.25 L49.6,1.25 L49.6,1.25 L49.6,1.6 L49.6,1.6 L50.4,1.6 L50.4,1.6 L50.4,0.55 L50.4,0.55 L48.85,0.55 L48.85,0.55 L48.85,2.4 L48.85,2.4 L50.25,2.4 L50.3,2.4 L51.15,2.4 L51.15,2.4 L51.15,0.1 L53.4,0.1 L53.4,1.95 L51.9,1.95 L51.9,0.95 L52.75,0.95 L52.75,1.25 L52.3,1.25 L52.3,1.25 L52.3,1.6 L52.3,1.6 L53.1,1.6 L53.1,1.6 L53.1,0.55 L53.1,0.55 L51.55,0.55 L51.55,0.55 L51.55,2.4 L51.55,2.4 L52.95,2.4 L53,2.4 L53.3,2.35 L53.3,2.35 Z" id="Shape"></path>
                                <path d="M58.65,2.35 L58.15,2.35 L58.1,2.35 L56.75,2.35 L56.75,0.55 L58.25,0.55 L58.25,1.55 L57.5,1.55 L57.5,1.25 L57.95,1.25 L57.95,1.25 L57.95,0.9 L57.95,0.9 L57.1,0.9 L57.1,0.9 L57.1,1.95 L57.1,1.95 L58.65,1.95 L58.65,1.95 L58.65,0.05 L58.65,0.05 L56.35,0.05 L56.35,0.05 L56.35,2.35 L55.55,2.35 L55.5,2.35 L54.15,2.35 L54.15,0.55 L55.65,0.55 L55.65,1.55 L54.9,1.55 L54.9,1.25 L55.35,1.25 L55.35,1.25 L55.35,0.9 L55.35,0.9 L54.5,0.9 L54.5,0.9 L54.5,1.95 L54.5,1.95 L56.05,1.95 L56.05,1.95 L56.05,0.05 L56.05,0.05 L53.75,0.05 L53.75,0.05 L53.75,2.35 L53.45,2.35 L53.45,2.4 L53.8,2.4 L53.8,2.4 L53.8,0.1 L56.05,0.1 L56.05,1.95 L54.55,1.95 L54.55,0.95 L55.4,0.95 L55.4,1.25 L54.95,1.25 L54.95,1.25 L54.95,1.6 L54.95,1.6 L55.75,1.6 L55.75,1.6 L55.75,0.55 L55.75,0.55 L54.2,0.55 L54.2,0.55 L54.2,2.4 L54.2,2.4 L55.6,2.4 L55.65,2.4 L56.5,2.4 L56.5,2.4 L56.5,0.1 L58.75,0.1 L58.75,1.95 L57.25,1.95 L57.25,0.95 L58.1,0.95 L58.1,1.25 L57.65,1.25 L57.65,1.25 L57.65,1.6 L57.65,1.6 L58.45,1.6 L58.45,1.6 L58.45,0.55 L58.45,0.55 L56.9,0.55 L56.9,0.55 L56.9,2.4 L56.9,2.4 L58.3,2.4 L58.35,2.4 L58.65,2.35 L58.65,2.35 Z" id="Shape"></path>
                                <path d="M64,2.35 L63.5,2.35 L63.45,2.35 L62.1,2.35 L62.1,0.55 L63.6,0.55 L63.6,1.55 L62.85,1.55 L62.85,1.25 L63.3,1.25 L63.3,1.25 L63.3,0.9 L63.3,0.9 L62.45,0.9 L62.45,0.9 L62.45,1.95 L62.45,1.95 L64,1.95 L64,1.95 L64,0.05 L64,0.05 L61.7,0.05 L61.7,0.05 L61.7,2.35 L60.9,2.35 L60.85,2.35 L59.5,2.35 L59.5,0.55 L61,0.55 L61,1.55 L60.25,1.55 L60.25,1.25 L60.7,1.25 L60.7,1.25 L60.7,0.9 L60.7,0.9 L59.85,0.9 L59.85,0.9 L59.85,1.95 L59.85,1.95 L61.4,1.95 L61.4,1.95 L61.4,0.05 L61.4,0.05 L59.1,0.05 L59.1,0.05 L59.1,2.35 L58.8,2.35 L58.8,2.4 L59.15,2.4 L59.15,2.4 L59.15,0.1 L61.4,0.1 L61.4,1.95 L59.9,1.95 L59.9,0.95 L60.75,0.95 L60.75,1.25 L60.3,1.25 L60.3,1.25 L60.3,1.6 L60.3,1.6 L61.1,1.6 L61.1,1.6 L61.1,0.55 L61.1,0.55 L59.55,0.55 L59.55,0.55 L59.55,2.4 L59.55,2.4 L60.95,2.4 L61,2.4 L61.85,2.4 L61.85,2.4 L61.85,0.1 L64.1,0.1 L64.1,1.95 L62.6,1.95 L62.6,0.95 L63.45,0.95 L63.45,1.25 L63,1.25 L63,1.25 L63,1.6 L63,1.6 L63.8,1.6 L63.8,1.6 L63.8,0.55 L63.8,0.55 L62.25,0.55 L62.25,0.55 L62.25,2.4 L62.25,2.4 L63.65,2.4 L63.7,2.4 L64,2.35 L64,2.35 Z" id="Shape"></path>
                                <path d="M69.3,2.35 L68.8,2.35 L68.75,2.35 L67.4,2.35 L67.4,0.55 L68.9,0.55 L68.9,1.55 L68.15,1.55 L68.15,1.25 L68.6,1.25 L68.6,1.25 L68.6,0.9 L68.6,0.9 L67.75,0.9 L67.75,0.9 L67.75,1.95 L67.75,1.95 L69.3,1.95 L69.3,1.95 L69.3,0.05 L69.3,0.05 L67,0.05 L67,0.05 L67,2.35 L66.2,2.35 L66.15,2.35 L64.8,2.35 L64.8,0.55 L66.3,0.55 L66.3,1.55 L65.55,1.55 L65.55,1.25 L66,1.25 L66,1.25 L66,0.9 L66,0.9 L65.15,0.9 L65.15,0.9 L65.15,1.95 L65.15,1.95 L66.7,1.95 L66.7,1.95 L66.7,0.05 L66.7,0.05 L64.4,0.05 L64.4,0.05 L64.4,2.35 L64.1,2.35 L64.1,2.4 L64.45,2.4 L64.45,2.4 L64.45,0.1 L66.7,0.1 L66.7,1.95 L65.2,1.95 L65.2,0.95 L66.05,0.95 L66.05,1.25 L65.6,1.25 L65.6,1.25 L65.6,1.6 L65.6,1.6 L66.4,1.6 L66.4,1.6 L66.4,0.55 L66.4,0.55 L64.85,0.55 L64.85,0.55 L64.85,2.4 L64.85,2.4 L66.25,2.4 L66.3,2.4 L67.15,2.4 L67.15,2.4 L67.15,0.1 L69.4,0.1 L69.4,1.95 L67.9,1.95 L67.9,0.95 L68.75,0.95 L68.75,1.25 L68.3,1.25 L68.3,1.25 L68.3,1.6 L68.3,1.6 L69.1,1.6 L69.1,1.6 L69.1,0.55 L69.1,0.55 L67.55,0.55 L67.55,0.55 L67.55,2.4 L67.55,2.4 L68.95,2.4 L69,2.4 L69.3,2.35 L69.3,2.35 Z" id="Shape"></path>
                                <path d="M74.65,2.35 L74.15,2.35 L74.1,2.35 L72.75,2.35 L72.75,0.55 L74.25,0.55 L74.25,1.55 L73.5,1.55 L73.5,1.25 L73.95,1.25 L73.95,1.25 L73.95,0.9 L73.95,0.9 L73.1,0.9 L73.1,0.9 L73.1,1.95 L73.1,1.95 L74.65,1.95 L74.65,1.95 L74.65,0.05 L74.65,0.05 L72.35,0.05 L72.35,0.05 L72.35,2.35 L71.55,2.35 L71.5,2.35 L70.15,2.35 L70.15,0.55 L71.65,0.55 L71.65,1.55 L70.9,1.55 L70.9,1.25 L71.35,1.25 L71.35,1.25 L71.35,0.9 L71.35,0.9 L70.5,0.9 L70.5,0.9 L70.5,1.95 L70.5,1.95 L72.05,1.95 L72.05,1.95 L72.05,0.05 L72.05,0.05 L69.75,0.05 L69.75,0.05 L69.75,2.35 L69.45,2.35 L69.45,2.4 L69.8,2.4 L69.8,2.4 L69.8,0.1 L72.05,0.1 L72.05,1.95 L70.55,1.95 L70.55,0.95 L71.4,0.95 L71.4,1.25 L70.95,1.25 L70.95,1.25 L70.95,1.6 L70.95,1.6 L71.75,1.6 L71.75,1.6 L71.75,0.55 L71.75,0.55 L70.2,0.55 L70.2,0.55 L70.2,2.4 L70.2,2.4 L71.6,2.4 L71.65,2.4 L72.5,2.4 L72.5,2.4 L72.5,0.1 L74.75,0.1 L74.75,1.95 L73.25,1.95 L73.25,0.95 L74.1,0.95 L74.1,1.25 L73.65,1.25 L73.65,1.25 L73.65,1.6 L73.65,1.6 L74.45,1.6 L74.45,1.6 L74.45,0.55 L74.45,0.55 L72.9,0.55 L72.9,0.55 L72.9,2.4 L72.9,2.4 L74.3,2.4 L74.35,2.4 L74.65,2.35 L74.65,2.35 Z" id="Shape"></path>
                                <path d="M80,2.35 L79.5,2.35 L79.45,2.35 L78.1,2.35 L78.1,0.55 L79.6,0.55 L79.6,1.55 L78.85,1.55 L78.85,1.25 L79.3,1.25 L79.3,1.25 L79.3,0.9 L79.3,0.9 L78.45,0.9 L78.45,0.9 L78.45,1.95 L78.45,1.95 L80,1.95 L80,1.95 L80,0.05 L80,0.05 L77.7,0.05 L77.7,0.05 L77.7,2.35 L76.9,2.35 L76.85,2.35 L75.5,2.35 L75.5,0.55 L77,0.55 L77,1.55 L76.25,1.55 L76.25,1.25 L76.7,1.25 L76.7,1.25 L76.7,0.9 L76.7,0.9 L75.85,0.9 L75.85,0.9 L75.85,1.95 L75.85,1.95 L77.4,1.95 L77.4,1.95 L77.4,0.05 L77.4,0.05 L75.1,0.05 L75.1,0.05 L75.1,2.35 L74.8,2.35 L74.8,2.4 L75.15,2.4 L75.15,2.4 L75.15,0.1 L77.4,0.1 L77.4,1.95 L75.9,1.95 L75.9,0.95 L76.75,0.95 L76.75,1.25 L76.3,1.25 L76.3,1.25 L76.3,1.6 L76.3,1.6 L77.1,1.6 L77.1,1.6 L77.1,0.55 L77.1,0.55 L75.55,0.55 L75.55,0.55 L75.55,2.4 L75.55,2.4 L76.95,2.4 L77,2.4 L77.85,2.4 L77.85,2.4 L77.85,0.1 L80.1,0.1 L80.1,1.95 L78.6,1.95 L78.6,0.95 L79.45,0.95 L79.45,1.25 L79,1.25 L79,1.25 L79,1.6 L79,1.6 L79.8,1.6 L79.8,1.6 L79.8,0.55 L79.8,0.55 L78.25,0.55 L78.25,0.55 L78.25,2.4 L78.25,2.4 L79.65,2.4 L79.7,2.4 L80,2.35 L80,2.35 Z" id="Shape"></path>
                                <path d="M85.35,2.35 L84.85,2.35 L84.8,2.35 L83.45,2.35 L83.45,0.55 L84.95,0.55 L84.95,1.55 L84.2,1.55 L84.2,1.25 L84.65,1.25 L84.65,1.25 L84.65,0.9 L84.65,0.9 L83.8,0.9 L83.8,0.9 L83.8,1.95 L83.8,1.95 L85.35,1.95 L85.35,1.95 L85.35,0.05 L85.35,0.05 L83.05,0.05 L83.05,0.05 L83.05,2.35 L82.25,2.35 L82.2,2.35 L80.85,2.35 L80.85,0.55 L82.35,0.55 L82.35,1.55 L81.6,1.55 L81.6,1.25 L82.05,1.25 L82.05,1.25 L82.05,0.9 L82.05,0.9 L81.2,0.9 L81.2,0.9 L81.2,1.95 L81.2,1.95 L82.75,1.95 L82.75,1.95 L82.75,0.05 L82.75,0.05 L80.45,0.05 L80.45,0.05 L80.45,2.35 L80.15,2.35 L80.15,2.4 L80.5,2.4 L80.5,2.4 L80.5,0.1 L82.75,0.1 L82.75,1.95 L81.25,1.95 L81.25,0.95 L82.1,0.95 L82.1,1.25 L81.65,1.25 L81.65,1.25 L81.65,1.6 L81.65,1.6 L82.45,1.6 L82.45,1.6 L82.45,0.55 L82.45,0.55 L80.9,0.55 L80.9,0.55 L80.9,2.4 L80.9,2.4 L82.3,2.4 L82.35,2.4 L83.2,2.4 L83.2,2.4 L83.2,0.1 L85.45,0.1 L85.45,1.95 L83.95,1.95 L83.95,0.95 L84.8,0.95 L84.8,1.25 L84.35,1.25 L84.35,1.25 L84.35,1.6 L84.35,1.6 L85.15,1.6 L85.15,1.6 L85.15,0.55 L85.15,0.55 L83.6,0.55 L83.6,0.55 L83.6,2.4 L83.6,2.4 L85,2.4 L85.05,2.4 L85.35,2.35 L85.35,2.35 Z" id="Shape"></path>
                                <path d="M90.7,2.35 L90.2,2.35 L90.15,2.35 L88.8,2.35 L88.8,0.55 L90.3,0.55 L90.3,1.55 L89.55,1.55 L89.55,1.25 L90,1.25 L90,1.25 L90,0.9 L90,0.9 L89.15,0.9 L89.15,0.9 L89.15,1.95 L89.15,1.95 L90.7,1.95 L90.7,1.95 L90.7,0.05 L90.7,0.05 L88.4,0.05 L88.4,0.05 L88.4,2.35 L87.6,2.35 L87.55,2.35 L86.2,2.35 L86.2,0.55 L87.7,0.55 L87.7,1.55 L86.95,1.55 L86.95,1.25 L87.4,1.25 L87.4,1.25 L87.4,0.9 L87.4,0.9 L86.55,0.9 L86.55,0.9 L86.55,1.95 L86.55,1.95 L88.1,1.95 L88.1,1.95 L88.1,0.05 L88.1,0.05 L85.8,0.05 L85.8,0.05 L85.8,2.35 L85.5,2.35 L85.5,2.4 L85.85,2.4 L85.85,2.4 L85.85,0.1 L88.1,0.1 L88.1,1.95 L86.6,1.95 L86.6,0.95 L87.45,0.95 L87.45,1.25 L87,1.25 L87,1.25 L87,1.6 L87,1.6 L87.8,1.6 L87.8,1.6 L87.8,0.55 L87.8,0.55 L86.25,0.55 L86.25,0.55 L86.25,2.4 L86.25,2.4 L87.65,2.4 L87.7,2.4 L88.55,2.4 L88.55,2.4 L88.55,0.1 L90.8,0.1 L90.8,1.95 L89.3,1.95 L89.3,0.95 L90.15,0.95 L90.15,1.25 L89.7,1.25 L89.7,1.25 L89.7,1.6 L89.7,1.6 L90.5,1.6 L90.5,1.6 L90.5,0.55 L90.5,0.55 L88.95,0.55 L88.95,0.55 L88.95,2.4 L88.95,2.4 L90.35,2.4 L90.4,2.4 L90.7,2.35 L90.7,2.35 Z" id="Shape"></path>
                                <path d="M96.05,2.35 L95.55,2.35 L95.5,2.35 L94.15,2.35 L94.15,0.55 L95.65,0.55 L95.65,1.55 L94.9,1.55 L94.9,1.25 L95.35,1.25 L95.35,1.25 L95.35,0.9 L95.35,0.9 L94.5,0.9 L94.5,0.9 L94.5,1.95 L94.5,1.95 L96.05,1.95 L96.05,1.95 L96.05,0.05 L96.05,0.05 L93.75,0.05 L93.75,0.05 L93.75,2.35 L92.95,2.35 L92.9,2.35 L91.55,2.35 L91.55,0.55 L93.05,0.55 L93.05,1.55 L92.3,1.55 L92.3,1.25 L92.75,1.25 L92.75,1.25 L92.75,0.9 L92.75,0.9 L91.9,0.9 L91.9,0.9 L91.9,1.95 L91.9,1.95 L93.45,1.95 L93.45,1.95 L93.45,0.05 L93.45,0.05 L91.15,0.05 L91.15,0.05 L91.15,2.35 L90.85,2.35 L90.85,2.4 L91.2,2.4 L91.2,2.4 L91.2,0.1 L93.45,0.1 L93.45,1.95 L91.95,1.95 L91.95,0.95 L92.8,0.95 L92.8,1.25 L92.35,1.25 L92.35,1.25 L92.35,1.6 L92.35,1.6 L93.15,1.6 L93.15,1.6 L93.15,0.55 L93.15,0.55 L91.6,0.55 L91.6,0.55 L91.6,2.4 L91.6,2.4 L93,2.4 L93.05,2.4 L93.9,2.4 L93.9,2.4 L93.9,0.1 L96.15,0.1 L96.15,1.95 L94.65,1.95 L94.65,0.95 L95.5,0.95 L95.5,1.25 L95.05,1.25 L95.05,1.25 L95.05,1.6 L95.05,1.6 L95.85,1.6 L95.85,1.6 L95.85,0.55 L95.85,0.55 L94.3,0.55 L94.3,0.55 L94.3,2.4 L94.3,2.4 L95.7,2.4 L95.75,2.4 L96.05,2.35 L96.05,2.35 Z" id="Shape"></path>
                                <path d="M101.4,2.35 L100.9,2.35 L100.85,2.35 L99.5,2.35 L99.5,0.55 L101,0.55 L101,1.55 L100.25,1.55 L100.25,1.25 L100.7,1.25 L100.7,1.25 L100.7,0.9 L100.7,0.9 L99.85,0.9 L99.85,0.9 L99.85,1.95 L99.85,1.95 L101.4,1.95 L101.4,1.95 L101.4,0.05 L101.4,0.05 L99.1,0.05 L99.1,0.05 L99.1,2.35 L98.3,2.35 L98.25,2.35 L96.9,2.35 L96.9,0.55 L98.4,0.55 L98.4,1.55 L97.65,1.55 L97.65,1.25 L98.1,1.25 L98.1,1.25 L98.1,0.9 L98.1,0.9 L97.25,0.9 L97.25,0.9 L97.25,1.95 L97.25,1.95 L98.8,1.95 L98.8,1.95 L98.8,0.05 L98.8,0.05 L96.5,0.05 L96.5,0.05 L96.5,2.35 L96.2,2.35 L96.2,2.4 L96.55,2.4 L96.55,2.4 L96.55,0.1 L98.8,0.1 L98.8,1.95 L97.3,1.95 L97.3,0.95 L98.15,0.95 L98.15,1.25 L97.7,1.25 L97.7,1.25 L97.7,1.6 L97.7,1.6 L98.5,1.6 L98.5,1.6 L98.5,0.55 L98.5,0.55 L96.95,0.55 L96.95,0.55 L96.95,2.4 L96.95,2.4 L98.35,2.4 L98.4,2.4 L99.25,2.4 L99.25,2.4 L99.25,0.1 L101.5,0.1 L101.5,1.95 L100,1.95 L100,0.95 L100.85,0.95 L100.85,1.25 L100.4,1.25 L100.4,1.25 L100.4,1.6 L100.4,1.6 L101.2,1.6 L101.2,1.6 L101.2,0.55 L101.2,0.55 L99.65,0.55 L99.65,0.55 L99.65,2.4 L99.65,2.4 L101.05,2.4 L101.1,2.4 L101.4,2.35 L101.4,2.35 Z" id="Shape"></path>
                            </g>
                            <g id="Group" transform="translate(443.000000, 73.500000)" fill="#DC7D27">
                                <path d="M5.35,2.35 L4.85,2.35 L4.8,2.35 L3.45,2.35 L3.45,0.55 L4.95,0.55 L4.95,1.55 L4.2,1.55 L4.2,1.25 L4.65,1.25 L4.65,1.25 L4.65,0.9 L4.65,0.9 L3.8,0.9 L3.8,0.9 L3.8,1.95 L3.8,1.95 L5.35,1.95 L5.35,1.95 L5.35,0.05 L5.35,0.05 L3.05,0.05 L3.05,0.05 L3.05,2.35 L2.25,2.35 L2.2,2.35 L0.85,2.35 L0.85,0.55 L2.35,0.55 L2.35,1.55 L1.6,1.55 L1.6,1.25 L2.05,1.25 L2.05,1.25 L2.05,0.9 L2.05,0.9 L1.2,0.9 L1.2,0.9 L1.2,1.95 L1.2,1.95 L2.75,1.95 L2.75,1.95 L2.75,0.05 L2.75,0.05 L0.45,0.05 L0.45,0.05 L0.45,2.35 L0.15,2.35 L0.15,2.4 L0.5,2.4 L0.5,2.4 L0.5,0.1 L2.75,0.1 L2.75,1.95 L1.25,1.95 L1.25,0.95 L2.1,0.95 L2.1,1.25 L1.65,1.25 L1.65,1.25 L1.65,1.6 L1.65,1.6 L2.45,1.6 L2.45,1.6 L2.45,0.55 L2.45,0.55 L0.9,0.55 L0.9,0.55 L0.9,2.4 L0.9,2.4 L2.3,2.4 L2.35,2.4 L3.2,2.4 L3.2,2.4 L3.2,0.1 L5.45,0.1 L5.45,1.95 L3.95,1.95 L3.95,0.95 L4.8,0.95 L4.8,1.25 L4.35,1.25 L4.35,1.25 L4.35,1.6 L4.35,1.6 L5.15,1.6 L5.15,1.6 L5.15,0.55 L5.15,0.55 L3.6,0.55 L3.6,0.55 L3.6,2.4 L3.6,2.4 L5,2.4 L5.05,2.4 L5.35,2.35 L5.35,2.35 Z" id="Shape"></path>
                                <path d="M10.7,2.35 L10.2,2.35 L10.15,2.35 L8.8,2.35 L8.8,0.55 L10.3,0.55 L10.3,1.55 L9.55,1.55 L9.55,1.25 L10,1.25 L10,1.25 L10,0.9 L10,0.9 L9.15,0.9 L9.15,0.9 L9.15,1.95 L9.15,1.95 L10.7,1.95 L10.7,1.95 L10.7,0.05 L10.7,0.05 L8.4,0.05 L8.4,0.05 L8.4,2.35 L7.6,2.35 L7.55,2.35 L6.2,2.35 L6.2,0.55 L7.7,0.55 L7.7,1.55 L6.95,1.55 L6.95,1.25 L7.4,1.25 L7.4,1.25 L7.4,0.9 L7.4,0.9 L6.55,0.9 L6.55,0.9 L6.55,1.95 L6.55,1.95 L8.1,1.95 L8.1,1.95 L8.1,0.05 L8.1,0.05 L5.8,0.05 L5.8,0.05 L5.8,2.35 L5.5,2.35 L5.5,2.4 L5.85,2.4 L5.85,2.4 L5.85,0.1 L8.1,0.1 L8.1,1.95 L6.6,1.95 L6.6,0.95 L7.45,0.95 L7.45,1.25 L7,1.25 L7,1.25 L7,1.6 L7,1.6 L7.8,1.6 L7.8,1.6 L7.8,0.55 L7.8,0.55 L6.25,0.55 L6.25,0.55 L6.25,2.4 L6.25,2.4 L7.65,2.4 L7.7,2.4 L8.55,2.4 L8.55,2.4 L8.55,0.1 L10.8,0.1 L10.8,1.95 L9.3,1.95 L9.3,0.95 L10.15,0.95 L10.15,1.25 L9.7,1.25 L9.7,1.25 L9.7,1.6 L9.7,1.6 L10.5,1.6 L10.5,1.6 L10.5,0.55 L10.5,0.55 L8.95,0.55 L8.95,0.55 L8.95,2.4 L8.95,2.4 L10.35,2.4 L10.4,2.4 L10.7,2.35 L10.7,2.35 Z" id="Shape"></path>
                                <path d="M16.05,2.35 L15.55,2.35 L15.5,2.35 L14.15,2.35 L14.15,0.55 L15.65,0.55 L15.65,1.55 L14.9,1.55 L14.9,1.25 L15.35,1.25 L15.35,1.25 L15.35,0.9 L15.35,0.9 L14.5,0.9 L14.5,0.9 L14.5,1.95 L14.5,1.95 L16.05,1.95 L16.05,1.95 L16.05,0.05 L16.05,0.05 L13.75,0.05 L13.75,0.05 L13.75,2.35 L12.95,2.35 L12.9,2.35 L11.55,2.35 L11.55,0.55 L13.05,0.55 L13.05,1.55 L12.3,1.55 L12.3,1.25 L12.75,1.25 L12.75,1.25 L12.75,0.9 L12.75,0.9 L11.9,0.9 L11.9,0.9 L11.9,1.95 L11.9,1.95 L13.45,1.95 L13.45,1.95 L13.45,0.05 L13.45,0.05 L11.15,0.05 L11.15,0.05 L11.15,2.35 L10.85,2.35 L10.85,2.4 L11.2,2.4 L11.2,2.4 L11.2,0.1 L13.45,0.1 L13.45,1.95 L11.95,1.95 L11.95,0.95 L12.8,0.95 L12.8,1.25 L12.35,1.25 L12.35,1.25 L12.35,1.6 L12.35,1.6 L13.15,1.6 L13.15,1.6 L13.15,0.55 L13.15,0.55 L11.6,0.55 L11.6,0.55 L11.6,2.4 L11.6,2.4 L13,2.4 L13.05,2.4 L13.9,2.4 L13.9,2.4 L13.9,0.1 L16.15,0.1 L16.15,1.95 L14.65,1.95 L14.65,0.95 L15.5,0.95 L15.5,1.25 L15.05,1.25 L15.05,1.25 L15.05,1.6 L15.05,1.6 L15.85,1.6 L15.85,1.6 L15.85,0.55 L15.85,0.55 L14.3,0.55 L14.3,0.55 L14.3,2.4 L14.3,2.4 L15.7,2.4 L15.75,2.4 L16.05,2.35 L16.05,2.35 Z" id="Shape"></path>
                                <path d="M21.4,2.35 L20.9,2.35 L20.85,2.35 L19.5,2.35 L19.5,0.55 L21,0.55 L21,1.55 L20.25,1.55 L20.25,1.25 L20.7,1.25 L20.7,1.25 L20.7,0.9 L20.7,0.9 L19.85,0.9 L19.85,0.9 L19.85,1.95 L19.85,1.95 L21.4,1.95 L21.4,1.95 L21.4,0.05 L21.4,0.05 L19.1,0.05 L19.1,0.05 L19.1,2.35 L18.3,2.35 L18.25,2.35 L16.9,2.35 L16.9,0.55 L18.4,0.55 L18.4,1.55 L17.65,1.55 L17.65,1.25 L18.1,1.25 L18.1,1.25 L18.1,0.9 L18.1,0.9 L17.25,0.9 L17.25,0.9 L17.25,1.95 L17.25,1.95 L18.8,1.95 L18.8,1.95 L18.8,0.05 L18.8,0.05 L16.5,0.05 L16.5,0.05 L16.5,2.35 L16.2,2.35 L16.2,2.4 L16.55,2.4 L16.55,2.4 L16.55,0.1 L18.8,0.1 L18.8,1.95 L17.3,1.95 L17.3,0.95 L18.15,0.95 L18.15,1.25 L17.7,1.25 L17.7,1.25 L17.7,1.6 L17.7,1.6 L18.5,1.6 L18.5,1.6 L18.5,0.55 L18.5,0.55 L16.95,0.55 L16.95,0.55 L16.95,2.4 L16.95,2.4 L18.35,2.4 L18.4,2.4 L19.25,2.4 L19.25,2.4 L19.25,0.1 L21.5,0.1 L21.5,1.95 L20,1.95 L20,0.95 L20.85,0.95 L20.85,1.25 L20.4,1.25 L20.4,1.25 L20.4,1.6 L20.4,1.6 L21.2,1.6 L21.2,1.6 L21.2,0.55 L21.2,0.55 L19.65,0.55 L19.65,0.55 L19.65,2.4 L19.65,2.4 L21.05,2.4 L21.1,2.4 L21.4,2.35 L21.4,2.35 Z" id="Shape"></path>
                                <path d="M26.75,2.35 L26.25,2.35 L26.2,2.35 L24.85,2.35 L24.85,0.55 L26.35,0.55 L26.35,1.55 L25.6,1.55 L25.6,1.25 L26.05,1.25 L26.05,1.25 L26.05,0.9 L26.05,0.9 L25.2,0.9 L25.2,0.9 L25.2,1.95 L25.2,1.95 L26.75,1.95 L26.75,1.95 L26.75,0.05 L26.75,0.05 L24.45,0.05 L24.45,0.05 L24.45,2.35 L23.65,2.35 L23.6,2.35 L22.25,2.35 L22.25,0.55 L23.75,0.55 L23.75,1.55 L23,1.55 L23,1.25 L23.45,1.25 L23.45,1.25 L23.45,0.9 L23.45,0.9 L22.6,0.9 L22.6,0.9 L22.6,1.95 L22.6,1.95 L24.15,1.95 L24.15,1.95 L24.15,0.05 L24.15,0.05 L21.85,0.05 L21.85,0.05 L21.85,2.35 L21.55,2.35 L21.55,2.4 L21.9,2.4 L21.9,2.4 L21.9,0.1 L24.15,0.1 L24.15,1.95 L22.65,1.95 L22.65,0.95 L23.5,0.95 L23.5,1.25 L23.05,1.25 L23.05,1.25 L23.05,1.6 L23.05,1.6 L23.85,1.6 L23.85,1.6 L23.85,0.55 L23.85,0.55 L22.3,0.55 L22.3,0.55 L22.3,2.4 L22.3,2.4 L23.7,2.4 L23.75,2.4 L24.6,2.4 L24.6,2.4 L24.6,0.1 L26.85,0.1 L26.85,1.95 L25.35,1.95 L25.35,0.95 L26.2,0.95 L26.2,1.25 L25.75,1.25 L25.75,1.25 L25.75,1.6 L25.75,1.6 L26.55,1.6 L26.55,1.6 L26.55,0.55 L26.55,0.55 L25,0.55 L25,0.55 L25,2.4 L25,2.4 L26.4,2.4 L26.45,2.4 L26.75,2.35 L26.75,2.35 Z" id="Shape"></path>
                                <path d="M32.1,2.35 L31.6,2.35 L31.55,2.35 L30.2,2.35 L30.2,0.55 L31.7,0.55 L31.7,1.55 L30.95,1.55 L30.95,1.25 L31.4,1.25 L31.4,1.25 L31.4,0.9 L31.4,0.9 L30.55,0.9 L30.55,0.9 L30.55,1.95 L30.55,1.95 L32.1,1.95 L32.1,1.95 L32.1,0.05 L32.1,0.05 L29.8,0.05 L29.8,0.05 L29.8,2.35 L29,2.35 L28.95,2.35 L27.6,2.35 L27.6,0.55 L29.1,0.55 L29.1,1.55 L28.35,1.55 L28.35,1.25 L28.8,1.25 L28.8,1.25 L28.8,0.9 L28.8,0.9 L27.95,0.9 L27.95,0.9 L27.95,1.95 L27.95,1.95 L29.5,1.95 L29.5,1.95 L29.5,0.05 L29.5,0.05 L27.2,0.05 L27.2,0.05 L27.2,2.35 L26.9,2.35 L26.9,2.4 L27.25,2.4 L27.25,2.4 L27.25,0.1 L29.5,0.1 L29.5,1.95 L28,1.95 L28,0.95 L28.85,0.95 L28.85,1.25 L28.4,1.25 L28.4,1.25 L28.4,1.6 L28.4,1.6 L29.2,1.6 L29.2,1.6 L29.2,0.55 L29.2,0.55 L27.65,0.55 L27.65,0.55 L27.65,2.4 L27.65,2.4 L29.05,2.4 L29.1,2.4 L29.95,2.4 L29.95,2.4 L29.95,0.1 L32.2,0.1 L32.2,1.95 L30.7,1.95 L30.7,0.95 L31.55,0.95 L31.55,1.25 L31.1,1.25 L31.1,1.25 L31.1,1.6 L31.1,1.6 L31.9,1.6 L31.9,1.6 L31.9,0.55 L31.9,0.55 L30.35,0.55 L30.35,0.55 L30.35,2.4 L30.35,2.4 L31.75,2.4 L31.8,2.4 L32.1,2.35 L32.1,2.35 Z" id="Shape"></path>
                                <path d="M37.4,2.35 L36.9,2.35 L36.85,2.35 L35.5,2.35 L35.5,0.55 L37,0.55 L37,1.55 L36.25,1.55 L36.25,1.25 L36.7,1.25 L36.7,1.25 L36.7,0.9 L36.7,0.9 L35.85,0.9 L35.85,0.9 L35.85,1.95 L35.85,1.95 L37.4,1.95 L37.4,1.95 L37.4,0.05 L37.4,0.05 L35.1,0.05 L35.1,0.05 L35.1,2.35 L34.3,2.35 L34.25,2.35 L32.9,2.35 L32.9,0.55 L34.4,0.55 L34.4,1.55 L33.65,1.55 L33.65,1.25 L34.1,1.25 L34.1,1.25 L34.1,0.9 L34.1,0.9 L33.25,0.9 L33.25,0.9 L33.25,1.95 L33.25,1.95 L34.8,1.95 L34.8,1.95 L34.8,0.05 L34.8,0.05 L32.5,0.05 L32.5,0.05 L32.5,2.35 L32.2,2.35 L32.2,2.4 L32.55,2.4 L32.55,2.4 L32.55,0.1 L34.8,0.1 L34.8,1.95 L33.3,1.95 L33.3,0.95 L34.15,0.95 L34.15,1.25 L33.7,1.25 L33.7,1.25 L33.7,1.6 L33.7,1.6 L34.5,1.6 L34.5,1.6 L34.5,0.55 L34.5,0.55 L32.95,0.55 L32.95,0.55 L32.95,2.4 L32.95,2.4 L34.35,2.4 L34.4,2.4 L35.25,2.4 L35.25,2.4 L35.25,0.1 L37.5,0.1 L37.5,1.95 L36,1.95 L36,0.95 L36.85,0.95 L36.85,1.25 L36.4,1.25 L36.4,1.25 L36.4,1.6 L36.4,1.6 L37.2,1.6 L37.2,1.6 L37.2,0.55 L37.2,0.55 L35.65,0.55 L35.65,0.55 L35.65,2.4 L35.65,2.4 L37.05,2.4 L37.1,2.4 L37.4,2.35 L37.4,2.35 Z" id="Shape"></path>
                                <path d="M42.75,2.35 L42.25,2.35 L42.2,2.35 L40.85,2.35 L40.85,0.55 L42.35,0.55 L42.35,1.55 L41.6,1.55 L41.6,1.25 L42.05,1.25 L42.05,1.25 L42.05,0.9 L42.05,0.9 L41.2,0.9 L41.2,0.9 L41.2,1.95 L41.2,1.95 L42.75,1.95 L42.75,1.95 L42.75,0.05 L42.75,0.05 L40.45,0.05 L40.45,0.05 L40.45,2.35 L39.65,2.35 L39.6,2.35 L38.25,2.35 L38.25,0.55 L39.75,0.55 L39.75,1.55 L39,1.55 L39,1.25 L39.45,1.25 L39.45,1.25 L39.45,0.9 L39.45,0.9 L38.6,0.9 L38.6,0.9 L38.6,1.95 L38.6,1.95 L40.15,1.95 L40.15,1.95 L40.15,0.05 L40.15,0.05 L37.85,0.05 L37.85,0.05 L37.85,2.35 L37.55,2.35 L37.55,2.4 L37.9,2.4 L37.9,2.4 L37.9,0.1 L40.15,0.1 L40.15,1.95 L38.65,1.95 L38.65,0.95 L39.5,0.95 L39.5,1.25 L39.05,1.25 L39.05,1.25 L39.05,1.6 L39.05,1.6 L39.85,1.6 L39.85,1.6 L39.85,0.55 L39.85,0.55 L38.3,0.55 L38.3,0.55 L38.3,2.4 L38.3,2.4 L39.7,2.4 L39.75,2.4 L40.6,2.4 L40.6,2.4 L40.6,0.1 L42.85,0.1 L42.85,1.95 L41.35,1.95 L41.35,0.95 L42.2,0.95 L42.2,1.25 L41.75,1.25 L41.75,1.25 L41.75,1.6 L41.75,1.6 L42.55,1.6 L42.55,1.6 L42.55,0.55 L42.55,0.55 L41,0.55 L41,0.55 L41,2.4 L41,2.4 L42.4,2.4 L42.45,2.4 L42.75,2.35 L42.75,2.35 Z" id="Shape"></path>
                                <path d="M48.1,2.35 L47.6,2.35 L47.55,2.35 L46.2,2.35 L46.2,0.55 L47.7,0.55 L47.7,1.55 L46.95,1.55 L46.95,1.25 L47.4,1.25 L47.4,1.25 L47.4,0.9 L47.4,0.9 L46.55,0.9 L46.55,0.9 L46.55,1.95 L46.55,1.95 L48.1,1.95 L48.1,1.95 L48.1,0.05 L48.1,0.05 L45.8,0.05 L45.8,0.05 L45.8,2.35 L45,2.35 L44.95,2.35 L43.6,2.35 L43.6,0.55 L45.1,0.55 L45.1,1.55 L44.35,1.55 L44.35,1.25 L44.8,1.25 L44.8,1.25 L44.8,0.9 L44.8,0.9 L43.95,0.9 L43.95,0.9 L43.95,1.95 L43.95,1.95 L45.5,1.95 L45.5,1.95 L45.5,0.05 L45.5,0.05 L43.2,0.05 L43.2,0.05 L43.2,2.35 L42.9,2.35 L42.9,2.4 L43.25,2.4 L43.25,2.4 L43.25,0.1 L45.5,0.1 L45.5,1.95 L44,1.95 L44,0.95 L44.85,0.95 L44.85,1.25 L44.4,1.25 L44.4,1.25 L44.4,1.6 L44.4,1.6 L45.2,1.6 L45.2,1.6 L45.2,0.55 L45.2,0.55 L43.65,0.55 L43.65,0.55 L43.65,2.4 L43.65,2.4 L45.05,2.4 L45.1,2.4 L45.95,2.4 L45.95,2.4 L45.95,0.1 L48.2,0.1 L48.2,1.95 L46.7,1.95 L46.7,0.95 L47.55,0.95 L47.55,1.25 L47.1,1.25 L47.1,1.25 L47.1,1.6 L47.1,1.6 L47.9,1.6 L47.9,1.6 L47.9,0.55 L47.9,0.55 L46.35,0.55 L46.35,0.55 L46.35,2.4 L46.35,2.4 L47.75,2.4 L47.8,2.4 L48.1,2.35 L48.1,2.35 Z" id="Shape"></path>
                                <path d="M53.45,2.35 L52.95,2.35 L52.9,2.35 L51.55,2.35 L51.55,0.55 L53.05,0.55 L53.05,1.55 L52.3,1.55 L52.3,1.25 L52.75,1.25 L52.75,1.25 L52.75,0.9 L52.75,0.9 L51.9,0.9 L51.9,0.9 L51.9,1.95 L51.9,1.95 L53.45,1.95 L53.45,1.95 L53.45,0.05 L53.45,0.05 L51.15,0.05 L51.15,0.05 L51.15,2.35 L50.35,2.35 L50.3,2.35 L48.95,2.35 L48.95,0.55 L50.45,0.55 L50.45,1.55 L49.7,1.55 L49.7,1.25 L50.15,1.25 L50.15,1.25 L50.15,0.9 L50.15,0.9 L49.3,0.9 L49.3,0.9 L49.3,1.95 L49.3,1.95 L50.85,1.95 L50.85,1.95 L50.85,0.05 L50.85,0.05 L48.55,0.05 L48.55,0.05 L48.55,2.35 L48.25,2.35 L48.25,2.4 L48.6,2.4 L48.6,2.4 L48.6,0.1 L50.85,0.1 L50.85,1.95 L49.35,1.95 L49.35,0.95 L50.2,0.95 L50.2,1.25 L49.75,1.25 L49.75,1.25 L49.75,1.6 L49.75,1.6 L50.55,1.6 L50.55,1.6 L50.55,0.55 L50.55,0.55 L49,0.55 L49,0.55 L49,2.4 L49,2.4 L50.4,2.4 L50.45,2.4 L51.3,2.4 L51.3,2.4 L51.3,0.1 L53.55,0.1 L53.55,1.95 L52.05,1.95 L52.05,0.95 L52.9,0.95 L52.9,1.25 L52.45,1.25 L52.45,1.25 L52.45,1.6 L52.45,1.6 L53.25,1.6 L53.25,1.6 L53.25,0.55 L53.25,0.55 L51.7,0.55 L51.7,0.55 L51.7,2.4 L51.7,2.4 L53.1,2.4 L53.15,2.4 L53.45,2.35 L53.45,2.35 Z" id="Shape"></path>
                                <path d="M58.8,2.35 L58.3,2.35 L58.25,2.35 L56.9,2.35 L56.9,0.55 L58.4,0.55 L58.4,1.55 L57.65,1.55 L57.65,1.25 L58.1,1.25 L58.1,1.25 L58.1,0.9 L58.1,0.9 L57.25,0.9 L57.25,0.9 L57.25,1.95 L57.25,1.95 L58.8,1.95 L58.8,1.95 L58.8,0.05 L58.8,0.05 L56.5,0.05 L56.5,0.05 L56.5,2.35 L55.7,2.35 L55.65,2.35 L54.3,2.35 L54.3,0.55 L55.8,0.55 L55.8,1.55 L55.05,1.55 L55.05,1.25 L55.5,1.25 L55.5,1.25 L55.5,0.9 L55.5,0.9 L54.65,0.9 L54.65,0.9 L54.65,1.95 L54.65,1.95 L56.2,1.95 L56.2,1.95 L56.2,0.05 L56.2,0.05 L53.9,0.05 L53.9,0.05 L53.9,2.35 L53.6,2.35 L53.6,2.4 L53.95,2.4 L53.95,2.4 L53.95,0.1 L56.2,0.1 L56.2,1.95 L54.7,1.95 L54.7,0.95 L55.55,0.95 L55.55,1.25 L55.1,1.25 L55.1,1.25 L55.1,1.6 L55.1,1.6 L55.9,1.6 L55.9,1.6 L55.9,0.55 L55.9,0.55 L54.35,0.55 L54.35,0.55 L54.35,2.4 L54.35,2.4 L55.75,2.4 L55.8,2.4 L56.65,2.4 L56.65,2.4 L56.65,0.1 L58.9,0.1 L58.9,1.95 L57.4,1.95 L57.4,0.95 L58.25,0.95 L58.25,1.25 L57.8,1.25 L57.8,1.25 L57.8,1.6 L57.8,1.6 L58.6,1.6 L58.6,1.6 L58.6,0.55 L58.6,0.55 L57.05,0.55 L57.05,0.55 L57.05,2.4 L57.05,2.4 L58.45,2.4 L58.5,2.4 L58.8,2.35 L58.8,2.35 Z" id="Shape"></path>
                                <path d="M64.15,2.35 L63.65,2.35 L63.6,2.35 L62.25,2.35 L62.25,0.55 L63.75,0.55 L63.75,1.55 L63,1.55 L63,1.25 L63.45,1.25 L63.45,1.25 L63.45,0.9 L63.45,0.9 L62.6,0.9 L62.6,0.9 L62.6,1.95 L62.6,1.95 L64.15,1.95 L64.15,1.95 L64.15,0.05 L64.15,0.05 L61.85,0.05 L61.85,0.05 L61.85,2.35 L61.05,2.35 L61,2.35 L59.65,2.35 L59.65,0.55 L61.15,0.55 L61.15,1.55 L60.4,1.55 L60.4,1.25 L60.85,1.25 L60.85,1.25 L60.85,0.9 L60.85,0.9 L60,0.9 L60,0.9 L60,1.95 L60,1.95 L61.55,1.95 L61.55,1.95 L61.55,0.05 L61.55,0.05 L59.25,0.05 L59.25,0.05 L59.25,2.35 L58.95,2.35 L58.95,2.4 L59.3,2.4 L59.3,2.4 L59.3,0.1 L61.55,0.1 L61.55,1.95 L60.05,1.95 L60.05,0.95 L60.9,0.95 L60.9,1.25 L60.45,1.25 L60.45,1.25 L60.45,1.6 L60.45,1.6 L61.25,1.6 L61.25,1.6 L61.25,0.55 L61.25,0.55 L59.7,0.55 L59.7,0.55 L59.7,2.4 L59.7,2.4 L61.1,2.4 L61.15,2.4 L62,2.4 L62,2.4 L62,0.1 L64.25,0.1 L64.25,1.95 L62.75,1.95 L62.75,0.95 L63.6,0.95 L63.6,1.25 L63.15,1.25 L63.15,1.25 L63.15,1.6 L63.15,1.6 L63.95,1.6 L63.95,1.6 L63.95,0.55 L63.95,0.55 L62.4,0.55 L62.4,0.55 L62.4,2.4 L62.4,2.4 L63.8,2.4 L63.85,2.4 L64.15,2.35 L64.15,2.35 Z" id="Shape"></path>
                                <path d="M69.5,2.35 L69,2.35 L68.95,2.35 L67.6,2.35 L67.6,0.55 L69.1,0.55 L69.1,1.55 L68.35,1.55 L68.35,1.25 L68.8,1.25 L68.8,1.25 L68.8,0.9 L68.8,0.9 L67.95,0.9 L67.95,0.9 L67.95,1.95 L67.95,1.95 L69.5,1.95 L69.5,1.95 L69.5,0.05 L69.5,0.05 L67.2,0.05 L67.2,0.05 L67.2,2.35 L66.4,2.35 L66.35,2.35 L65,2.35 L65,0.55 L66.5,0.55 L66.5,1.55 L65.75,1.55 L65.75,1.25 L66.2,1.25 L66.2,1.25 L66.2,0.9 L66.2,0.9 L65.35,0.9 L65.35,0.9 L65.35,1.95 L65.35,1.95 L66.9,1.95 L66.9,1.95 L66.9,0.05 L66.9,0.05 L64.6,0.05 L64.6,0.05 L64.6,2.35 L64.3,2.35 L64.3,2.4 L64.65,2.4 L64.65,2.4 L64.65,0.1 L66.9,0.1 L66.9,1.95 L65.4,1.95 L65.4,0.95 L66.25,0.95 L66.25,1.25 L65.8,1.25 L65.8,1.25 L65.8,1.6 L65.8,1.6 L66.6,1.6 L66.6,1.6 L66.6,0.55 L66.6,0.55 L65.05,0.55 L65.05,0.55 L65.05,2.4 L65.05,2.4 L66.45,2.4 L66.5,2.4 L67.35,2.4 L67.35,2.4 L67.35,0.1 L69.6,0.1 L69.6,1.95 L68.1,1.95 L68.1,0.95 L68.95,0.95 L68.95,1.25 L68.5,1.25 L68.5,1.25 L68.5,1.6 L68.5,1.6 L69.3,1.6 L69.3,1.6 L69.3,0.55 L69.3,0.55 L67.75,0.55 L67.75,0.55 L67.75,2.4 L67.75,2.4 L69.15,2.4 L69.2,2.4 L69.5,2.35 L69.5,2.35 Z" id="Shape"></path>
                                <path d="M74.8,2.35 L74.3,2.35 L74.25,2.35 L72.9,2.35 L72.9,0.55 L74.4,0.55 L74.4,1.55 L73.65,1.55 L73.65,1.25 L74.1,1.25 L74.1,1.25 L74.1,0.9 L74.1,0.9 L73.25,0.9 L73.25,0.9 L73.25,1.95 L73.25,1.95 L74.8,1.95 L74.8,1.95 L74.8,0.05 L74.8,0.05 L72.5,0.05 L72.5,0.05 L72.5,2.35 L71.7,2.35 L71.65,2.35 L70.3,2.35 L70.3,0.55 L71.8,0.55 L71.8,1.55 L71.05,1.55 L71.05,1.25 L71.5,1.25 L71.5,1.25 L71.5,0.9 L71.5,0.9 L70.65,0.9 L70.65,0.9 L70.65,1.95 L70.65,1.95 L72.2,1.95 L72.2,1.95 L72.2,0.05 L72.2,0.05 L69.9,0.05 L69.9,0.05 L69.9,2.35 L69.6,2.35 L69.6,2.4 L69.95,2.4 L69.95,2.4 L69.95,0.1 L72.2,0.1 L72.2,1.95 L70.7,1.95 L70.7,0.95 L71.55,0.95 L71.55,1.25 L71.1,1.25 L71.1,1.25 L71.1,1.6 L71.1,1.6 L71.9,1.6 L71.9,1.6 L71.9,0.55 L71.9,0.55 L70.35,0.55 L70.35,0.55 L70.35,2.4 L70.35,2.4 L71.75,2.4 L71.8,2.4 L72.65,2.4 L72.65,2.4 L72.65,0.1 L74.9,0.1 L74.9,1.95 L73.4,1.95 L73.4,0.95 L74.25,0.95 L74.25,1.25 L73.8,1.25 L73.8,1.25 L73.8,1.6 L73.8,1.6 L74.6,1.6 L74.6,1.6 L74.6,0.55 L74.6,0.55 L73.05,0.55 L73.05,0.55 L73.05,2.4 L73.05,2.4 L74.45,2.4 L74.5,2.4 L74.8,2.35 L74.8,2.35 Z" id="Shape"></path>
                                <path d="M80.15,2.35 L79.65,2.35 L79.6,2.35 L78.25,2.35 L78.25,0.55 L79.75,0.55 L79.75,1.55 L79,1.55 L79,1.25 L79.45,1.25 L79.45,1.25 L79.45,0.9 L79.45,0.9 L78.6,0.9 L78.6,0.9 L78.6,1.95 L78.6,1.95 L80.15,1.95 L80.15,1.95 L80.15,0.05 L80.15,0.05 L77.85,0.05 L77.85,0.05 L77.85,2.35 L77.05,2.35 L77,2.35 L75.65,2.35 L75.65,0.55 L77.15,0.55 L77.15,1.55 L76.4,1.55 L76.4,1.25 L76.85,1.25 L76.85,1.25 L76.85,0.9 L76.85,0.9 L76,0.9 L76,0.9 L76,1.95 L76,1.95 L77.55,1.95 L77.55,1.95 L77.55,0.05 L77.55,0.05 L75.25,0.05 L75.25,0.05 L75.25,2.35 L74.95,2.35 L74.95,2.4 L75.3,2.4 L75.3,2.4 L75.3,0.1 L77.55,0.1 L77.55,1.95 L76.05,1.95 L76.05,0.95 L76.9,0.95 L76.9,1.25 L76.45,1.25 L76.45,1.25 L76.45,1.6 L76.45,1.6 L77.25,1.6 L77.25,1.6 L77.25,0.55 L77.25,0.55 L75.7,0.55 L75.7,0.55 L75.7,2.4 L75.7,2.4 L77.1,2.4 L77.15,2.4 L78,2.4 L78,2.4 L78,0.1 L80.25,0.1 L80.25,1.95 L78.75,1.95 L78.75,0.95 L79.6,0.95 L79.6,1.25 L79.15,1.25 L79.15,1.25 L79.15,1.6 L79.15,1.6 L79.95,1.6 L79.95,1.6 L79.95,0.55 L79.95,0.55 L78.4,0.55 L78.4,0.55 L78.4,2.4 L78.4,2.4 L79.8,2.4 L79.85,2.4 L80.15,2.35 L80.15,2.35 Z" id="Shape"></path>
                                <path d="M85.5,2.35 L85,2.35 L84.95,2.35 L83.6,2.35 L83.6,0.55 L85.1,0.55 L85.1,1.55 L84.35,1.55 L84.35,1.25 L84.8,1.25 L84.8,1.25 L84.8,0.9 L84.8,0.9 L83.95,0.9 L83.95,0.9 L83.95,1.95 L83.95,1.95 L85.5,1.95 L85.5,1.95 L85.5,0.05 L85.5,0.05 L83.2,0.05 L83.2,0.05 L83.2,2.35 L82.4,2.35 L82.35,2.35 L81,2.35 L81,0.55 L82.5,0.55 L82.5,1.55 L81.75,1.55 L81.75,1.25 L82.2,1.25 L82.2,1.25 L82.2,0.9 L82.2,0.9 L81.35,0.9 L81.35,0.9 L81.35,1.95 L81.35,1.95 L82.9,1.95 L82.9,1.95 L82.9,0.05 L82.9,0.05 L80.6,0.05 L80.6,0.05 L80.6,2.35 L80.3,2.35 L80.3,2.4 L80.65,2.4 L80.65,2.4 L80.65,0.1 L82.9,0.1 L82.9,1.95 L81.4,1.95 L81.4,0.95 L82.25,0.95 L82.25,1.25 L81.8,1.25 L81.8,1.25 L81.8,1.6 L81.8,1.6 L82.6,1.6 L82.6,1.6 L82.6,0.55 L82.6,0.55 L81.05,0.55 L81.05,0.55 L81.05,2.4 L81.05,2.4 L82.45,2.4 L82.5,2.4 L83.35,2.4 L83.35,2.4 L83.35,0.1 L85.6,0.1 L85.6,1.95 L84.1,1.95 L84.1,0.95 L84.95,0.95 L84.95,1.25 L84.5,1.25 L84.5,1.25 L84.5,1.6 L84.5,1.6 L85.3,1.6 L85.3,1.6 L85.3,0.55 L85.3,0.55 L83.75,0.55 L83.75,0.55 L83.75,2.4 L83.75,2.4 L85.15,2.4 L85.2,2.4 L85.5,2.35 L85.5,2.35 Z" id="Shape"></path>
                                <path d="M90.85,2.35 L90.35,2.35 L90.3,2.35 L88.95,2.35 L88.95,0.55 L90.45,0.55 L90.45,1.55 L89.7,1.55 L89.7,1.25 L90.15,1.25 L90.15,1.25 L90.15,0.9 L90.15,0.9 L89.3,0.9 L89.3,0.9 L89.3,1.95 L89.3,1.95 L90.85,1.95 L90.85,1.95 L90.85,0.05 L90.85,0.05 L88.55,0.05 L88.55,0.05 L88.55,2.35 L87.75,2.35 L87.7,2.35 L86.35,2.35 L86.35,0.55 L87.85,0.55 L87.85,1.55 L87.1,1.55 L87.1,1.25 L87.55,1.25 L87.55,1.25 L87.55,0.9 L87.55,0.9 L86.7,0.9 L86.7,0.9 L86.7,1.95 L86.7,1.95 L88.25,1.95 L88.25,1.95 L88.25,0.05 L88.25,0.05 L85.95,0.05 L85.95,0.05 L85.95,2.35 L85.65,2.35 L85.65,2.4 L86,2.4 L86,2.4 L86,0.1 L88.25,0.1 L88.25,1.95 L86.75,1.95 L86.75,0.95 L87.6,0.95 L87.6,1.25 L87.15,1.25 L87.15,1.25 L87.15,1.6 L87.15,1.6 L87.95,1.6 L87.95,1.6 L87.95,0.55 L87.95,0.55 L86.4,0.55 L86.4,0.55 L86.4,2.4 L86.4,2.4 L87.8,2.4 L87.85,2.4 L88.7,2.4 L88.7,2.4 L88.7,0.1 L90.95,0.1 L90.95,1.95 L89.45,1.95 L89.45,0.95 L90.3,0.95 L90.3,1.25 L89.85,1.25 L89.85,1.25 L89.85,1.6 L89.85,1.6 L90.65,1.6 L90.65,1.6 L90.65,0.55 L90.65,0.55 L89.1,0.55 L89.1,0.55 L89.1,2.4 L89.1,2.4 L90.5,2.4 L90.55,2.4 L90.85,2.35 L90.85,2.35 Z" id="Shape"></path>
                                <path d="M96.2,2.35 L95.7,2.35 L95.65,2.35 L94.3,2.35 L94.3,0.55 L95.8,0.55 L95.8,1.55 L95.05,1.55 L95.05,1.25 L95.5,1.25 L95.5,1.25 L95.5,0.9 L95.5,0.9 L94.65,0.9 L94.65,0.9 L94.65,1.95 L94.65,1.95 L96.2,1.95 L96.2,1.95 L96.2,0.05 L96.2,0.05 L93.9,0.05 L93.9,0.05 L93.9,2.35 L93.1,2.35 L93.05,2.35 L91.7,2.35 L91.7,0.55 L93.2,0.55 L93.2,1.55 L92.45,1.55 L92.45,1.25 L92.9,1.25 L92.9,1.25 L92.9,0.9 L92.9,0.9 L92.05,0.9 L92.05,0.9 L92.05,1.95 L92.05,1.95 L93.6,1.95 L93.6,1.95 L93.6,0.05 L93.6,0.05 L91.3,0.05 L91.3,0.05 L91.3,2.35 L91,2.35 L91,2.4 L91.35,2.4 L91.35,2.4 L91.35,0.1 L93.6,0.1 L93.6,1.95 L92.1,1.95 L92.1,0.95 L92.95,0.95 L92.95,1.25 L92.5,1.25 L92.5,1.25 L92.5,1.6 L92.5,1.6 L93.3,1.6 L93.3,1.6 L93.3,0.55 L93.3,0.55 L91.75,0.55 L91.75,0.55 L91.75,2.4 L91.75,2.4 L93.15,2.4 L93.2,2.4 L94.05,2.4 L94.05,2.4 L94.05,0.1 L96.3,0.1 L96.3,1.95 L94.8,1.95 L94.8,0.95 L95.65,0.95 L95.65,1.25 L95.2,1.25 L95.2,1.25 L95.2,1.6 L95.2,1.6 L96,1.6 L96,1.6 L96,0.55 L96,0.55 L94.45,0.55 L94.45,0.55 L94.45,2.4 L94.45,2.4 L95.85,2.4 L95.9,2.4 L96.2,2.35 L96.2,2.35 Z" id="Shape"></path>
                                <path d="M101.55,2.35 L101.05,2.35 L101,2.35 L99.65,2.35 L99.65,0.55 L101.15,0.55 L101.15,1.55 L100.4,1.55 L100.4,1.25 L100.85,1.25 L100.85,1.25 L100.85,0.9 L100.85,0.9 L100,0.9 L100,0.9 L100,1.95 L100,1.95 L101.55,1.95 L101.55,1.95 L101.55,0.05 L101.55,0.05 L99.25,0.05 L99.25,0.05 L99.25,2.35 L98.45,2.35 L98.4,2.35 L97.05,2.35 L97.05,0.55 L98.55,0.55 L98.55,1.55 L97.8,1.55 L97.8,1.25 L98.25,1.25 L98.25,1.25 L98.25,0.9 L98.25,0.9 L97.4,0.9 L97.4,0.9 L97.4,1.95 L97.4,1.95 L98.95,1.95 L98.95,1.95 L98.95,0.05 L98.95,0.05 L96.65,0.05 L96.65,0.05 L96.65,2.35 L96.35,2.35 L96.35,2.4 L96.7,2.4 L96.7,2.4 L96.7,0.1 L98.95,0.1 L98.95,1.95 L97.45,1.95 L97.45,0.95 L98.3,0.95 L98.3,1.25 L97.85,1.25 L97.85,1.25 L97.85,1.6 L97.85,1.6 L98.65,1.6 L98.65,1.6 L98.65,0.55 L98.65,0.55 L97.1,0.55 L97.1,0.55 L97.1,2.4 L97.1,2.4 L98.5,2.4 L98.55,2.4 L99.4,2.4 L99.4,2.4 L99.4,0.1 L101.65,0.1 L101.65,1.95 L100.15,1.95 L100.15,0.95 L101,0.95 L101,1.25 L100.55,1.25 L100.55,1.25 L100.55,1.6 L100.55,1.6 L101.35,1.6 L101.35,1.6 L101.35,0.55 L101.35,0.55 L99.8,0.55 L99.8,0.55 L99.8,2.4 L99.8,2.4 L101.2,2.4 L101.25,2.4 L101.55,2.35 L101.55,2.35 Z" id="Shape"></path>
                            </g>
                            <g id="Group" transform="translate(380.500000, 65.000000)" fill="#321512">
                                <rect id="Rectangle-path" x="0" y="0.4" width="8.5" height="1.25"></rect>
                                <path d="M4.25,1.85 L0,1.85 L0,2.2 C0.8,2.9 1.55,2.95 1.55,2.95 L7.2,2.95 C7.2,2.95 7.75,2.95 8.55,2.2 L8.55,1.85 L4.25,1.85 L4.25,1.85 Z" id="Shape"></path>
                                <path id="Shape" d="M4.25,3.15 L1.45,3.15 L1.45,3.3 L1.85,3.55 L4.25,3.55 L6.7,3.55 L7.1,3.3 L7.1,3.15 L4.25,3.15 Z"></path>
                                <path d="M1.85,3.8 L1.55,54.4 L6.95,54.4 L6.7,3.8 L1.85,3.8 Z" id="Shape"></path>
                            </g>
                            <g id="Group" transform="translate(429.000000, 65.000000)" fill="#321512">
                                <rect id="Rectangle-path" x="0.35" y="0.4" width="8.5" height="1.25"></rect>
                                <path d="M4.6,1.85 L0.35,1.85 L0.35,2.2 C1.15,2.9 1.9,2.95 1.9,2.95 L7.55,2.95 C7.55,2.95 8.1,2.95 8.9,2.2 L8.9,1.85 L4.6,1.85 L4.6,1.85 Z" id="Shape"></path>
                                <path id="Shape" d="M4.6,3.15 L1.75,3.15 L1.75,3.3 L2.15,3.55 L4.6,3.55 L7,3.55 L7.4,3.3 L7.4,3.15 L4.6,3.15 Z"></path>
                                <path d="M2.15,3.8 L1.85,54.4 L7.3,54.4 L7,3.8 L2.15,3.8 Z" id="Shape"></path>
                            </g>
                            <path d="M430.35,68.5 L430.35,68.25 C430,68.15 429.55,67.95 429.05,67.5 L428.9,67.4 L428.9,67.05 L428.9,66.45 L428.9,65.4 L389.4,65.4 L389.4,66.45 L389.4,67.05 L389.4,67.4 L389.25,67.5 C388.7,68 388.25,68.2 387.95,68.25 L387.95,68.5 L387.55,68.75 L387.85,119.35 L390.75,119.35 L390.75,71.6 L393,73.95 L393,119.35 L425.5,119.35 L425.5,74 L427.75,71.65 L427.75,119.4 L430.55,119.4 L430.85,68.8 L430.35,68.5 L430.35,68.5 Z M424.9,73.45 L393.45,73.45 L391.25,71.05 L427.2,71.05 L424.9,73.45 L424.9,73.45 Z" id="Shape" fill="#290C07"></path>
                            <g id="Group" transform="translate(436.000000, 65.000000)">
                                <rect id="Rectangle-path" fill="#321512" x="11.25" y="13" width="8.5" height="1.25"></rect>
                                <path d="M15.5,14.45 L11.25,14.45 L11.25,14.8 C12.05,15.5 12.8,15.55 12.8,15.55 L18.45,15.55 C18.45,15.55 19,15.55 19.8,14.8 L19.8,14.45 L15.5,14.45 L15.5,14.45 Z" id="Shape" fill="#321512"></path>
                                <path id="Shape" fill="#321512" d="M15.5,15.75 L12.65,15.75 L12.65,15.9 L13.05,16.15 L15.5,16.15 L17.9,16.15 L18.3,15.9 L18.3,15.75 L15.5,15.75 Z"></path>
                                <g id="Shape" fill="#290C07">
                                    <path d="M20.15,14.05 L20.15,14.65 L20.15,15 L20,15.1 C19.45,15.6 19,15.8 18.7,15.85 L18.7,16.1 L18.3,16.35 L18.6,54.35 L25.1,54.35 L25.35,12.9 L20.2,12.9 L20.2,14.05 L20.15,14.05 Z"></path>
                                    <path d="M24.95,3.5 L24.95,3.25 C24.6,3.15 24.15,2.95 23.65,2.5 L23.5,2.4 L23.5,2.05 L23.5,1.45 L23.5,0.4 L2.2,0.4 L2.2,1.45 L2.2,2.05 L2.2,2.4 L2.05,2.5 C1.5,3 1.05,3.2 0.75,3.25 L0.75,3.5 L0.35,3.75 L0.65,54.35 L12.35,54.35 L12.65,16.35 L12.25,16.1 L12.25,15.85 C11.9,15.75 11.45,15.55 10.95,15.1 L10.8,15 L10.8,14.65 L10.8,14.05 L10.8,12.95 L8.15,12.95 L6.55,11.6 L6.55,7.75 L25.3,7.75 L25.3,3.8 L24.95,3.5 L24.95,3.5 Z"></path>
                                </g>
                                <path d="M13.05,16.4 L12.8,54.4 L18.2,54.4 L17.9,16.4 L13.05,16.4 Z" id="Shape" fill="#321512"></path>
                            </g>
                            <g id="Group" transform="translate(467.000000, 65.000000)" fill="#290C07">
                                <path d="M20.45,7.75 L20.45,0.45 L1.85,0.45 L1.85,1.5 L1.85,2.1 L1.85,2.45 L1.7,2.55 C1.15,3.05 0.7,3.25 0.4,3.3 L0.4,3.55 L0,3.8 L0,7.75 L20.45,7.75 L20.45,7.75 Z" id="Shape"></path>
                                <path d="M17.05,13 L17.05,14.05 L17.05,14.65 L17.05,15 L16.9,15.1 C16.35,15.6 15.9,15.8 15.6,15.85 L15.6,16.1 L15.2,16.35 L15.5,54.35 L20.45,54.35 L20.45,13 L17.05,13 L17.05,13 Z" id="Shape"></path>
                                <path d="M9.2,15.85 C8.85,15.75 8.4,15.55 7.9,15.1 L7.75,15 L7.75,14.65 L7.75,14.05 L7.75,13 L0,13 L0.25,54.4 L9.3,54.4 L9.6,16.4 L9.2,16.15 L9.2,15.85 L9.2,15.85 Z" id="Shape"></path>
                            </g>
                            <path d="M409.25,3.6 L385.95,12.25 L431.85,12.25 L409.25,3.6 Z" id="Shape" fill="#321512"></path>
                            <rect id="Rectangle-path" fill="#321512" x="137.75" y="35.55" width="134.35" height="4.25"></rect>
                            <rect id="Rectangle-path" fill="#321512" x="0.4" y="35.55" width="136.4" height="4.25"></rect>
                            <rect id="Rectangle-path" fill="#321512" x="77.45" y="40.75" width="116.3" height="4.25"></rect>
                            <rect id="Rectangle-path" fill="#321512" x="0.4" y="40.75" width="75.9" height="4.25"></rect>
                            <rect id="Rectangle-path" fill="#321512" x="194.95" y="40.75" width="77.15" height="4.25"></rect>
                            <rect id="Rectangle-path" fill="#321512" x="137.75" y="46.2" width="134.35" height="4.25"></rect>
                            <rect id="Rectangle-path" fill="#321512" x="0.4" y="46.2" width="136.4" height="4.25"></rect>
                            <rect id="Rectangle-path" fill="#321512" x="77.45" y="51.4" width="116.3" height="4.25"></rect>
                            <rect id="Rectangle-path" fill="#321512" x="0.4" y="51.4" width="75.9" height="4.25"></rect>
                            <rect id="Rectangle-path" fill="#321512" x="194.95" y="51.4" width="77.15" height="4.25"></rect>
                            <rect id="Rectangle-path" fill="#321512" x="137.75" y="56.8" width="134.35" height="4.25"></rect>
                            <rect id="Rectangle-path" fill="#321512" x="0.4" y="56.8" width="136.4" height="4.25"></rect>
                            <rect id="Rectangle-path" fill="#321512" x="77.45" y="62" width="116.3" height="4.25"></rect>
                            <rect id="Rectangle-path" fill="#321512" x="0.4" y="62" width="75.9" height="4.25"></rect>
                            <rect id="Rectangle-path" fill="#321512" x="194.95" y="62" width="77.15" height="4.25"></rect>
                        </g>
                    </g>
                </g>
            </g>
        </g>
    </g>
</svg>