<?xml version="1.0" encoding="UTF-8" standalone="no"?>
<svg width="349px" height="178px" viewBox="0 0 349 178" version="1.1" xmlns="http://www.w3.org/2000/svg" xmlns:xlink="http://www.w3.org/1999/xlink" xmlns:sketch="http://www.bohemiancoding.com/sketch/ns">
    <!-- Generator: Sketch 3.3.2 (12043) - http://www.bohemiancoding.com/sketch -->
    <title>_teatr</title>
    <desc>Created with Sketch.</desc>
    <defs></defs>
    <g id="Page-1" stroke="none" stroke-width="1" fill="none" fill-rule="evenodd" sketch:type="MSPage">
        <g id="MAPA-grecja-2" sketch:type="MSLayerGroup" transform="translate(-3635.000000, -1913.000000)">
            <g id="Warstwa_2-+-Warstwa_3-+-Layer_1" transform="translate(2801.000000, 1644.000000)" sketch:type="MSShapeGroup">
                <g id="Warstwa_3-+-Layer_1" transform="translate(0.500000, 0.000000)">
                    <g id="Layer_1" transform="translate(60.500000, 0.000000)">
                        <g id="_teatr" transform="translate(773.500000, 269.500000)">
                            <g id="Group">
                                <g transform="translate(24.000000, 0.000000)" id="Shape" fill="#321512">
                                    <path d="M148.15,55.25 C137.7,55.3 127.1,55.55 116.35,55.95 L116.45,59.5 C127.1,59.1 137.7,58.85 148.1,58.8 C158.55,58.85 169.1,59.1 179.8,59.5 L179.9,55.95 C169.2,55.6 158.6,55.35 148.15,55.25 L148.15,55.25 Z"></path>
                                    <path d="M148.15,44.45 C137.6,44.5 126.9,44.75 116.1,45.15 L116.2,48.65 C126.95,48.25 137.65,48 148.15,47.95 C158.7,48 169.35,48.25 180.15,48.65 L180.25,45.15 C169.4,44.75 158.7,44.5 148.15,44.45 L148.15,44.45 Z"></path>
                                    <path d="M181.7,61.5 L181.6,65 C195.1,65.5 208.75,66.35 222.55,67.35 L222.95,63.9 C209.05,62.85 195.25,62 181.7,61.5 L181.7,61.5 Z"></path>
                                    <path d="M148.15,49.85 C137.65,49.9 127,50.15 116.2,50.55 L116.3,54.05 C127,53.65 137.65,53.4 148.1,53.35 C158.6,53.4 169.2,53.65 179.95,54.05 L180.05,50.55 C169.3,50.15 158.65,49.9 148.15,49.85 L148.15,49.85 Z"></path>
                                    <path d="M148.15,39 C137.55,39.05 126.8,39.3 115.95,39.7 L116.05,43.2 C126.85,42.8 137.6,42.55 148.15,42.5 C158.75,42.55 169.45,42.8 180.3,43.2 L180.4,39.7 C169.5,39.3 158.75,39.05 148.15,39 L148.15,39 Z"></path>
                                    <path d="M182.4,34.35 L182.3,37.85 C196.55,38.4 211,39.3 225.6,40.4 L226,36.95 C211.3,35.8 196.75,34.9 182.4,34.35 L182.4,34.35 Z"></path>
                                    <path d="M225.4,42.35 C210.85,41.2 196.45,40.35 182.25,39.8 L182.15,43.3 C196.25,43.85 210.55,44.7 225,45.85 L225.4,42.35 L225.4,42.35 Z"></path>
                                    <path d="M148.15,22.7 C137.4,22.75 126.5,23 115.5,23.45 L115.6,26.95 C126.55,26.55 137.4,26.3 148.15,26.2 C158.85,26.25 169.75,26.5 180.7,26.95 L180.8,23.45 C169.75,23.05 158.9,22.8 148.15,22.7 L148.15,22.7 Z"></path>
                                    <path d="M61.2,19.45 C78.85,17.95 96.25,16.8 113.4,16.15 L113.3,12.65 C96.05,13.35 78.55,14.45 60.8,16 L61.2,19.45 L61.2,19.45 Z"></path>
                                    <path d="M148.15,17.3 C137.35,17.35 126.4,17.6 115.35,18.05 L115.45,21.55 C126.45,21.15 137.35,20.9 148.15,20.8 C158.9,20.85 169.85,21.1 180.85,21.55 L180.95,18.05 C169.85,17.6 158.95,17.35 148.15,17.3 L148.15,17.3 Z"></path>
                                    <path d="M113.5,21.6 L113.4,18.1 C96.3,18.8 78.95,19.9 61.35,21.4 L61.75,24.85 C79.25,23.35 96.55,22.25 113.5,21.6 L113.5,21.6 Z"></path>
                                    <path d="M148.15,11.85 C137.3,11.9 126.3,12.2 115.2,12.6 L115.3,16.1 C126.35,15.7 137.3,15.4 148.1,15.35 C158.9,15.4 169.9,15.65 180.95,16.1 L181.05,12.6 C169.95,12.2 158.95,11.9 148.15,11.85 L148.15,11.85 Z"></path>
                                    <path d="M113.65,27 L113.55,23.5 C96.6,24.15 79.4,25.25 62,26.75 L62.4,30.2 C79.7,28.75 96.85,27.65 113.65,27 L113.65,27 Z"></path>
                                    <path d="M113.95,37.85 L113.85,34.35 C97.2,35 80.3,36.05 63.25,37.5 L63.65,40.95 C80.6,39.55 97.4,38.5 113.95,37.85 L113.95,37.85 Z"></path>
                                    <path d="M113.8,32.45 L113.7,28.95 C96.9,29.6 79.85,30.7 62.6,32.15 L63,35.6 C80.15,34.15 97.15,33.1 113.8,32.45 L113.8,32.45 Z"></path>
                                    <path d="M59.45,4.3 L59.95,8.7 C77.9,7.15 95.65,6 113.1,5.3 L113,0.85 C96.1,1.55 78.25,2.65 59.45,4.3 L59.45,4.3 Z"></path>
                                    <path d="M113.25,10.75 L113.15,7.25 C95.75,7.95 78.1,9.1 60.2,10.65 L60.6,14.1 C78.35,12.55 95.95,11.45 113.25,10.75 L113.25,10.75 Z"></path>
                                    <path d="M114.1,43.3 L114,39.8 C97.55,40.45 80.8,41.5 63.85,42.9 L64.25,46.35 C81.05,44.95 97.7,43.9 114.1,43.3 L114.1,43.3 Z"></path>
                                    <path d="M115.85,37.8 C126.7,37.4 137.5,37.15 148.1,37.1 C158.75,37.15 169.5,37.4 180.35,37.8 L180.45,34.3 C169.55,33.9 158.75,33.65 148.1,33.6 C137.45,33.65 126.65,33.9 115.75,34.3 L115.85,37.8 L115.85,37.8 Z"></path>
                                    <path d="M288.6,54.35 C267.75,51.6 247.05,49.5 226.7,47.9 L226.3,51.35 C246.6,52.95 267.15,55.05 287.95,57.75 L288.6,54.35 L288.6,54.35 Z"></path>
                                    <path d="M148.15,28.15 C137.45,28.2 126.6,28.45 115.65,28.9 L115.75,32.4 C126.65,32 137.45,31.75 148.15,31.7 C158.85,31.75 169.65,32 180.55,32.4 L180.65,28.9 C169.7,28.45 158.85,28.2 148.15,28.15 L148.15,28.15 Z"></path>
                                    <path d="M183.3,0.85 L183.2,5.3 C198.35,5.9 213.75,6.85 229.3,8.15 L229.8,3.7 C213.6,2.4 198.05,1.45 183.3,0.85 L183.3,0.85 Z"></path>
                                    <path d="M148.15,66.15 C137.8,66.2 127.25,66.45 116.65,66.85 L116.75,70.35 C127.3,69.95 137.8,69.75 148.15,69.65 C158.5,69.7 169,69.95 179.55,70.35 L179.65,66.85 C169,66.45 158.5,66.2 148.15,66.15 L148.15,66.15 Z"></path>
                                    <path d="M228.7,13.55 L229.1,10.1 C213.6,8.85 198.25,7.9 183.15,7.3 L183.05,10.8 C198.05,11.35 213.3,12.3 228.7,13.55 L228.7,13.55 Z"></path>
                                    <path d="M114.25,48.7 L114.15,45.2 C97.85,45.85 81.25,46.85 64.45,48.25 L64.85,51.7 C81.55,50.35 98,49.3 114.25,48.7 L114.25,48.7 Z"></path>
                                    <path d="M182.55,28.95 L182.45,32.45 C196.85,33 211.45,33.9 226.2,35.05 L226.6,31.6 C211.75,30.4 197.05,29.5 182.55,28.95 L182.55,28.95 Z"></path>
                                    <path d="M114.65,65 L114.55,61.5 C98.7,62.1 82.55,63.1 66.3,64.45 L66.7,67.9 C82.9,66.55 98.9,65.6 114.65,65 L114.65,65 Z"></path>
                                    <path d="M114.5,59.55 L114.4,56 C98.4,56.6 82.1,57.65 65.65,59 L66.05,62.5 C82.45,61.15 98.6,60.2 114.5,59.55 L114.5,59.55 Z"></path>
                                    <path d="M114.4,54.1 L114.3,50.6 C98.15,51.25 81.7,52.25 65.1,53.65 L65.5,57.1 C82,55.75 98.3,54.75 114.4,54.1 L114.4,54.1 Z"></path>
                                    <path d="M116.5,61.4 L116.6,64.9 C127.2,64.5 137.75,64.25 148.15,64.2 C158.55,64.25 169.1,64.5 179.7,64.9 L179.8,61.4 C169.15,61 158.6,60.75 148.15,60.7 C137.7,60.8 127.15,61.05 116.5,61.4 L116.5,61.4 Z"></path>
                                    <path d="M285.85,70.3 C265.3,67.65 244.95,65.6 224.9,64.05 L224.5,67.5 C244.5,69.05 264.75,71.1 285.2,73.7 L285.85,70.3 L285.85,70.3 Z"></path>
                                    <path d="M181.95,50.6 L181.85,54.1 C195.65,54.65 209.65,55.45 223.75,56.55 L224.15,53.1 C209.95,52 195.85,51.15 181.95,50.6 L181.95,50.6 Z"></path>
                                    <path d="M293.25,27.8 C271.85,24.95 250.65,22.65 229.8,20.95 L229.4,24.4 C250.2,26.1 271.3,28.3 292.65,31.15 L293.25,27.8 L293.25,27.8 Z"></path>
                                    <path d="M231,10.2 L230.6,13.65 C251.6,15.4 272.95,17.65 294.5,20.6 L295.1,17.2 C273.45,14.25 252.1,11.95 231,10.2 L231,10.2 Z"></path>
                                    <path d="M114.9,0.8 L115,5.25 C126.15,4.85 137.2,4.55 148.1,4.5 C159,4.55 170.05,4.85 181.25,5.25 L181.35,0.8 L182.4,0.85 C170.5,0.4 159.05,0.15 148.1,0.05 L148.1,0.05 C137.15,0.1 125.7,0.35 113.8,0.85 L114.9,0.8 L114.9,0.8 Z"></path>
                                    <path d="M294.15,22.5 C272.65,19.6 251.35,17.3 230.35,15.6 L229.95,19.05 C250.85,20.75 272.05,23 293.5,25.9 L294.15,22.5 L294.15,22.5 Z"></path>
                                    <path d="M296.15,10.95 C273.55,7.85 252.1,5.55 231.7,3.85 L231.2,8.3 C252.3,10.05 273.7,12.35 295.35,15.3 L296.15,10.95 L296.15,10.95 Z"></path>
                                    <path d="M226.1,53.25 L225.7,56.7 C245.9,58.25 266.35,60.35 287.05,63.05 L287.7,59.65 C266.9,56.95 246.35,54.8 226.1,53.25 L226.1,53.25 Z"></path>
                                    <path d="M0.9,15.3 C20.15,12.7 39.2,10.55 58.05,8.9 L57.55,4.5 C39.25,6.15 20.1,8.25 0.1,11 L1,16.25 L0.9,15.3 L0.9,15.3 Z"></path>
                                    <path d="M181.75,59.55 C195.4,60.1 209.2,60.9 223.2,61.95 L223.6,58.45 C209.55,57.4 195.6,56.55 181.85,56 L181.75,59.55 L181.75,59.55 Z"></path>
                                    <path d="M286.75,64.95 C266.1,62.3 245.65,60.2 225.45,58.6 L225.05,62.1 C245.15,63.65 265.5,65.7 286.1,68.35 L286.75,64.95 L286.75,64.95 Z"></path>
                                    <path d="M182.1,45.2 L182,48.7 C195.95,49.25 210.1,50.1 224.35,51.2 L224.75,47.75 C210.4,46.6 196.15,45.75 182.1,45.2 L182.1,45.2 Z"></path>
                                    <path d="M292.3,33.1 C271,30.25 249.95,28 229.15,26.35 L228.75,29.8 C249.45,31.45 270.45,33.7 291.65,36.5 L292.3,33.1 L292.3,33.1 Z"></path>
                                    <path d="M291.4,38.4 C270.2,35.6 249.25,33.4 228.55,31.7 L228.15,35.15 C248.75,36.8 269.65,39 290.75,41.75 L291.4,38.4 L291.4,38.4 Z"></path>
                                    <path d="M289.55,49.05 C268.55,46.3 247.8,44.15 227.35,42.5 L226.95,45.95 C247.35,47.55 268.05,49.7 288.9,52.45 L289.55,49.05 L289.55,49.05 Z"></path>
                                    <path d="M182.7,23.5 L182.6,27 C197.15,27.55 211.95,28.5 226.85,29.65 L227.25,26.2 C212.2,25 197.35,24.1 182.7,23.5 L182.7,23.5 Z"></path>
                                    <path d="M290.45,43.75 C269.35,40.95 248.5,38.8 227.9,37.15 L227.5,40.6 C248,42.25 268.8,44.4 289.75,47.15 L290.45,43.75 L290.45,43.75 Z"></path>
                                    <path d="M8.3,57.75 C26.7,55.35 44.95,53.4 62.95,51.9 L62.55,48.45 C44.45,50 26.15,51.95 7.65,54.35 L8.4,58.65 L8.3,57.75 L8.3,57.75 Z"></path>
                                    <path d="M7.35,52.45 C25.85,50.05 44.2,48.05 62.3,46.5 L61.9,43.05 C43.7,44.6 25.3,46.6 6.7,49.05 L7.45,53.4 L7.35,52.45 L7.35,52.45 Z"></path>
                                    <path d="M5.5,41.85 C24.2,39.4 42.75,37.35 61.1,35.8 L60.7,32.35 C42.3,33.95 23.65,36 4.85,38.5 L5.6,42.85 L5.5,41.85 L5.5,41.85 Z"></path>
                                    <path d="M6.45,47.15 C25.05,44.7 43.5,42.7 61.75,41.15 L61.35,37.7 C43.05,39.25 24.5,41.3 5.85,43.75 L6.6,48.1 L6.45,47.15 L6.45,47.15 Z"></path>
                                    <path d="M9.2,63.05 C27.5,60.7 45.6,58.75 63.55,57.25 L63.15,53.8 C45.15,55.3 26.95,57.25 8.55,59.65 L9.2,63.05 L9.2,63.05 Z"></path>
                                    <path d="M10.15,68.4 C28.35,66.05 46.35,64.15 64.15,62.7 L63.75,59.2 C45.85,60.7 27.75,62.65 9.5,65 L10.15,68.4 L10.15,68.4 Z"></path>
                                    <path d="M11.05,73.7 C29.1,71.4 47.05,69.5 64.75,68.05 L64.35,64.6 C46.55,66.1 28.55,68 10.4,70.3 L11.05,73.7 L11.05,73.7 Z"></path>
                                    <path d="M183,12.65 L182.9,16.15 C197.75,16.75 212.85,17.7 228.1,18.9 L228.5,15.45 C213.1,14.2 197.95,13.25 183,12.65 L183,12.65 Z"></path>
                                    <path d="M115.05,7.15 L115.15,10.65 C126.25,10.25 137.25,9.95 148.1,9.9 C158.95,9.95 170,10.25 181.1,10.65 L181.2,7.15 C170.05,6.75 159,6.45 148.15,6.4 C137.25,6.5 126.2,6.75 115.05,7.15 L115.05,7.15 Z"></path>
                                    <path d="M182.85,18.1 L182.75,21.6 C197.45,22.2 212.4,23.1 227.45,24.3 L227.85,20.85 C212.65,19.6 197.65,18.65 182.85,18.1 L182.85,18.1 Z"></path>
                                    <path d="M3.65,31.2 C22.6,28.65 41.35,26.6 59.85,25 L59.45,21.55 C40.85,23.2 22,25.25 3,27.8 L3.75,32.15 L3.65,31.2 L3.65,31.2 Z"></path>
                                    <path d="M4.6,36.5 C23.4,34 42.1,31.95 60.5,30.35 L60.1,26.9 C41.6,28.5 22.85,30.6 3.95,33.1 L4.7,37.45 L4.6,36.5 L4.6,36.5 Z"></path>
                                    <path d="M1.95,21.55 L1.8,20.6 C20.95,18 39.9,15.9 58.65,14.25 L58.25,10.8 C39.45,12.45 20.4,14.6 1.15,17.2 L1.95,21.55 L1.95,21.55 Z"></path>
                                    <path d="M2.75,25.9 C21.8,23.35 40.65,21.25 59.3,19.6 L58.9,16.15 C40.2,17.8 21.25,19.9 2.15,22.5 L2.9,26.85 L2.75,25.9 L2.75,25.9 Z"></path>
                                    <path d="M56.15,123.1 L56.15,119.6 C44.1,120.7 31.95,121.95 19.7,123.45 L20.4,127.25 L20.35,126.9 C32.35,125.4 44.3,124.15 56.15,123.1 L56.15,123.1 Z"></path>
                                    <path d="M56.15,114.15 C43.8,115.25 31.3,116.55 18.75,118.1 L19.4,121.5 C31.7,120 43.95,118.75 56.15,117.65 L56.15,114.15 L56.15,114.15 Z"></path>
                                    <path d="M56.15,108.75 C43.45,109.9 30.7,111.25 17.85,112.8 L18.5,116.2 C31.15,114.65 43.7,113.35 56.15,112.25 L56.15,108.75 L56.15,108.75 Z"></path>
                                    <path d="M56.15,103.3 C43.15,104.45 30.1,105.85 16.9,107.45 L17.55,110.85 C30.5,109.25 43.35,107.9 56.15,106.75 L56.15,103.3 L56.15,103.3 Z"></path>
                                    <path d="M56.15,97.9 C42.85,99.1 29.45,100.5 16,102.2 L16.65,105.6 C29.9,103.95 43.1,102.6 56.15,101.4 L56.15,97.9 L56.15,97.9 Z"></path>
                                    <path d="M56.15,92.45 C42.55,93.65 28.85,95.1 15.05,96.85 L15.7,100.25 C29.3,98.55 42.75,97.15 56.15,95.95 L56.15,92.45 L56.15,92.45 Z"></path>
                                    <path d="M56.15,87.05 C42.25,88.3 28.25,89.8 14.15,91.55 L14.8,94.95 C28.7,93.2 42.5,91.75 56.15,90.55 L56.15,87.05 L56.15,87.05 Z"></path>
                                    <path d="M56.15,81.6 C41.95,82.9 27.65,84.4 13.2,86.2 L13.85,89.6 C28.05,87.8 42.15,86.3 56.15,85.05 L56.15,81.6 L56.15,81.6 Z"></path>
                                    <path d="M56.15,76.15 C41.65,77.45 27,79 12.3,80.9 L12.95,84.3 C27.45,82.45 41.9,80.95 56.15,79.65 L56.15,76.15 L56.15,76.15 Z"></path>
                                    <path d="M56.15,70.75 C41.35,72.1 26.4,73.7 11.35,75.6 L12,79 C26.85,77.1 41.55,75.55 56.15,74.25 L56.15,70.75 L56.15,70.75 Z"></path>
                                    <path d="M243.95,120 L243.95,123.5 C254.55,124.5 265.2,125.6 275.9,126.9 L276.55,123.5 C265.65,122.1 254.75,121 243.95,120 L243.95,120 Z"></path>
                                    <path d="M277.5,118.1 C266.25,116.75 255.1,115.55 243.95,114.55 L243.95,118.05 C254.85,119.05 265.8,120.2 276.85,121.55 L277.5,118.1 L277.5,118.1 Z"></path>
                                    <path d="M278.4,112.8 C266.85,111.4 255.35,110.2 243.95,109.1 L243.95,112.6 C255.15,113.65 266.4,114.8 277.75,116.2 L278.4,112.8 L278.4,112.8 Z"></path>
                                    <path d="M279.35,107.5 C267.5,106.05 255.7,104.8 243.95,103.7 L243.95,107.2 C255.45,108.25 267.05,109.5 278.7,110.9 L279.35,107.5 L279.35,107.5 Z"></path>
                                    <path d="M280.25,102.15 C268.05,100.65 255.95,99.35 243.95,98.25 L243.95,101.75 C255.75,102.85 267.65,104.1 279.6,105.55 L280.25,102.15 L280.25,102.15 Z"></path>
                                    <path d="M281.2,96.85 C268.7,95.3 256.3,93.95 243.95,92.85 L243.95,96.35 C256.05,97.45 268.25,98.75 280.55,100.3 L281.2,96.85 L281.2,96.85 Z"></path>
                                    <path d="M282.1,91.55 C269.3,89.95 256.55,88.6 243.95,87.4 L243.95,90.9 C256.35,92.05 268.9,93.4 281.45,94.95 L282.1,91.55 L282.1,91.55 Z"></path>
                                    <path d="M283.05,86.2 C269.95,84.55 256.9,83.15 243.95,81.95 L243.95,85.45 C256.7,86.65 269.5,88 282.4,89.6 L283.05,86.2 L283.05,86.2 Z"></path>
                                    <path d="M284,80.9 C270.55,79.2 257.2,77.75 244,76.55 L244,80.05 C257.05,81.25 270.15,82.65 283.35,84.35 L284,80.9 L284,80.9 Z"></path>
                                    <path d="M284.9,75.6 C271.15,73.85 257.5,72.35 243.95,71.1 L243.95,74.6 C257.3,75.85 270.7,77.3 284.25,79 L284.9,75.6 L284.9,75.6 Z"></path>
                                    <path d="M106.15,70.8 C109.05,70.65 111.9,70.55 114.8,70.4 L114.7,66.9 C99,67.5 83.05,68.5 66.9,69.8 L67,70.8 L106.15,70.8 L106.15,70.8 Z"></path>
                                    <path d="M222.15,70.75 L222.3,69.25 C208.55,68.2 194.95,67.4 181.5,66.9 L181.4,70.4 C184.05,70.5 186.75,70.6 189.45,70.75 L222.15,70.75 L222.15,70.75 Z"></path>
                                </g>
                                <g transform="translate(0.000000, 71.500000)">
                                    <g>
                                        <rect id="Rectangle-path" fill="#321512" x="83.1" y="62.05" width="181.95" height="43.7"></rect>
                                        <rect id="Rectangle-path" fill="#321512" x="83.1" y="56.3" width="181.95" height="5.2"></rect>
                                        <rect id="Rectangle-path" fill="#321512" x="85" y="2.2" width="178.15" height="15.4"></rect>
                                        <rect id="Rectangle-path" fill="#000000" x="85" y="2.2" width="178.15" height="15.4"></rect>
                                        <path d="M265,20.6 L83.1,20.6 L82.4,18.2 L265.65,18.2 L265,20.6 Z" id="Shape" fill="#321512"></path>
                                        <rect id="Rectangle-path" fill="#321512" x="82.4" y="0.45" width="1.9" height="17.2"></rect>
                                        <rect id="Rectangle-path" fill="#321512" x="263.75" y="0.45" width="1.9" height="17.2"></rect>
                                        <rect id="Rectangle-path" fill="#321512" x="0.1" y="56.3" width="82.35" height="5.2"></rect>
                                        <rect id="Rectangle-path" fill="#321512" x="265.6" y="56.3" width="82.35" height="5.2"></rect>
                                        <path d="M0.1,62.05 L0.1,105.75 L34.9,105.75 L34.9,78.95 L53.8,78.95 L53.8,105.75 L82.45,105.75 L82.45,62.05 L0.1,62.05 L0.1,62.05 Z M55.05,78.35 L33.85,78.35 L32.65,77.15 L56.3,77.15 L55.05,78.35 L55.05,78.35 Z" id="Shape" fill="#321512"></path>
                                        <path d="M265.6,62.05 L265.6,105.75 L294.25,105.75 L294.25,78.95 L313.15,78.95 L313.15,105.75 L347.95,105.75 L347.95,62.05 L265.6,62.05 L265.6,62.05 Z M291.8,77.15 L315.45,77.15 L314.25,78.35 L293,78.35 L291.8,77.15 L291.8,77.15 Z" id="Shape" fill="#321512"></path>
                                        <rect id="Rectangle-path" fill="#321512" x="83.1" y="24.6" width="181.95" height="1.15"></rect>
                                        <rect id="Rectangle-path" fill="#321512" x="83.1" y="21.15" width="181.95" height="2.85"></rect>
                                        <rect id="Rectangle-path" fill="#321512" x="83.1" y="26.3" width="8.85" height="29.4"></rect>
                                        <rect id="Rectangle-path" fill="#321512" x="256.2" y="26.3" width="8.85" height="29.4"></rect>
                                        <rect id="Rectangle-path" fill="#321512" x="96.45" y="26.3" width="13.25" height="29.4"></rect>
                                        <rect id="Rectangle-path" fill="#321512" x="114.2" y="26.3" width="13.25" height="29.4"></rect>
                                        <rect id="Rectangle-path" fill="#321512" x="131.95" y="26.3" width="13.25" height="29.4"></rect>
                                        <rect id="Rectangle-path" fill="#321512" x="149.7" y="26.3" width="13.25" height="29.4"></rect>
                                        <rect id="Rectangle-path" fill="#321512" x="167.45" y="26.3" width="13.25" height="29.4"></rect>
                                        <rect id="Rectangle-path" fill="#321512" x="185.2" y="26.3" width="13.25" height="29.4"></rect>
                                        <rect id="Rectangle-path" fill="#321512" x="202.95" y="26.3" width="13.25" height="29.4"></rect>
                                        <rect id="Rectangle-path" fill="#321512" x="220.7" y="26.3" width="13.25" height="29.4"></rect>
                                        <rect id="Rectangle-path" fill="#321512" x="238.45" y="26.3" width="13.25" height="29.4"></rect>
                                    </g>
                                    <rect id="Rectangle-path" fill="#321512" x="35.85" y="80.05" width="16.85" height="25.75"></rect>
                                    <rect id="Rectangle-path" fill="#321512" x="295.25" y="80.05" width="16.85" height="25.75"></rect>
                                </g>
                            </g>
                            <g id="Group" transform="translate(74.000000, 129.000000)" fill="#DC7D27">
                                <path d="M5.45,2.3 L4.95,2.3 L4.9,2.3 L3.55,2.3 L3.55,0.5 L5,0.5 L5,1.5 L4.25,1.5 L4.25,1.2 L4.7,1.2 L4.7,1.2 L4.7,0.85 L4.7,0.85 L3.85,0.85 L3.85,0.85 L3.85,1.9 L3.85,1.9 L5.4,1.9 L5.4,1.9 L5.4,0 L5.4,0 L3.1,0 L3.1,0 L3.1,2.3 L2.3,2.3 L2.25,2.3 L0.9,2.3 L0.9,0.5 L2.35,0.5 L2.35,1.5 L1.6,1.5 L1.6,1.2 L2.05,1.2 L2.05,1.2 L2.05,0.85 L2.05,0.85 L1.2,0.85 L1.2,0.85 L1.2,1.9 L1.2,1.9 L2.75,1.9 L2.75,1.9 L2.75,0 L2.75,0 L0.45,0 L0.45,0 L0.45,2.3 L0.15,2.3 L0.15,2.35 L0.5,2.35 L0.5,2.35 L0.5,0.05 L2.75,0.05 L2.75,1.9 L1.25,1.9 L1.25,0.9 L2.05,0.9 L2.05,1.2 L1.6,1.2 L1.6,1.2 L1.6,1.55 L1.6,1.55 L2.35,1.55 L2.35,1.55 L2.35,0.5 L2.35,0.5 L0.85,0.5 L0.85,0.5 L0.85,2.35 L0.85,2.35 L2.2,2.35 L2.25,2.35 L3.1,2.35 L3.1,2.35 L3.1,0.05 L5.35,0.05 L5.35,1.9 L3.85,1.9 L3.85,0.9 L4.7,0.9 L4.7,1.2 L4.25,1.2 L4.25,1.2 L4.25,1.55 L4.25,1.55 L5.05,1.55 L5.05,1.55 L5.05,0.5 L5.05,0.5 L3.55,0.5 L3.55,0.5 L3.55,2.35 L3.55,2.35 L4.95,2.35 L5,2.35 L5.45,2.3 L5.45,2.3 Z" id="Shape"></path>
                                <path d="M10.75,2.3 L10.25,2.3 L10.2,2.3 L8.85,2.3 L8.85,0.5 L10.3,0.5 L10.3,1.5 L9.55,1.5 L9.55,1.2 L10,1.2 L10,1.2 L10,0.85 L10,0.85 L9.15,0.85 L9.15,0.85 L9.15,1.9 L9.15,1.9 L10.7,1.9 L10.7,1.9 L10.7,0 L10.7,0 L8.4,0 L8.4,0 L8.4,2.3 L7.6,2.3 L7.55,2.3 L6.2,2.3 L6.2,0.5 L7.7,0.5 L7.7,1.5 L6.95,1.5 L6.95,1.2 L7.4,1.2 L7.4,1.2 L7.4,0.85 L7.4,0.85 L6.55,0.85 L6.55,0.85 L6.55,1.9 L6.55,1.9 L8.1,1.9 L8.1,1.9 L8.1,0 L8.1,0 L5.8,0 L5.8,0 L5.8,2.3 L5.5,2.3 L5.5,2.35 L5.85,2.35 L5.85,2.35 L5.85,0.05 L8.1,0.05 L8.1,1.9 L6.6,1.9 L6.6,0.9 L7.45,0.9 L7.45,1.2 L7,1.2 L7,1.2 L7,1.55 L7,1.55 L7.8,1.55 L7.8,1.55 L7.8,0.5 L7.8,0.5 L6.3,0.5 L6.3,0.5 L6.3,2.35 L6.3,2.35 L7.65,2.35 L7.7,2.35 L8.55,2.35 L8.55,2.35 L8.55,0.05 L10.8,0.05 L10.8,1.9 L9.3,1.9 L9.3,0.9 L10.1,0.9 L10.1,1.2 L9.65,1.2 L9.65,1.2 L9.65,1.55 L9.65,1.55 L10.4,1.55 L10.4,1.55 L10.4,0.5 L10.4,0.5 L8.9,0.5 L8.9,0.5 L8.9,2.35 L8.9,2.35 L10.3,2.35 L10.35,2.35 L10.75,2.3 L10.75,2.3 Z" id="Shape"></path>
                                <path d="M16.05,2.3 L15.55,2.3 L15.5,2.3 L14.15,2.3 L14.15,0.5 L15.6,0.5 L15.6,1.5 L14.85,1.5 L14.85,1.2 L15.3,1.2 L15.3,1.2 L15.3,0.85 L15.3,0.85 L14.45,0.85 L14.45,0.85 L14.45,1.9 L14.45,1.9 L16,1.9 L16,1.9 L16,0 L16,0 L13.7,0 L13.7,0 L13.7,2.3 L12.9,2.3 L12.85,2.3 L11.5,2.3 L11.5,0.5 L12.95,0.5 L12.95,1.5 L12.2,1.5 L12.2,1.2 L12.65,1.2 L12.65,1.2 L12.65,0.85 L12.65,0.85 L11.8,0.85 L11.8,0.85 L11.8,1.9 L11.8,1.9 L13.35,1.9 L13.35,1.9 L13.35,0 L13.35,0 L11.05,0 L11.05,0 L11.05,2.3 L10.75,2.3 L10.75,2.35 L11.1,2.35 L11.1,2.35 L11.1,0.05 L13.35,0.05 L13.35,1.9 L11.85,1.9 L11.85,0.9 L12.65,0.9 L12.65,1.2 L12.2,1.2 L12.2,1.2 L12.2,1.55 L12.2,1.55 L12.95,1.55 L12.95,1.55 L12.95,0.5 L12.95,0.5 L11.45,0.5 L11.45,0.5 L11.45,2.35 L11.45,2.35 L12.8,2.35 L12.85,2.35 L13.7,2.35 L13.7,2.35 L13.7,0.05 L15.95,0.05 L15.95,1.9 L14.45,1.9 L14.45,0.9 L15.3,0.9 L15.3,1.2 L14.85,1.2 L14.85,1.2 L14.85,1.55 L14.85,1.55 L15.65,1.55 L15.65,1.55 L15.65,0.5 L15.65,0.5 L14.15,0.5 L14.15,0.5 L14.15,2.35 L14.15,2.35 L15.55,2.35 L15.6,2.35 L16.05,2.3 L16.05,2.3 Z" id="Shape"></path>
                                <path d="M21.35,2.3 L20.85,2.3 L20.8,2.3 L19.45,2.3 L19.45,0.5 L20.9,0.5 L20.9,1.5 L20.15,1.5 L20.15,1.2 L20.6,1.2 L20.6,1.2 L20.6,0.85 L20.6,0.85 L19.75,0.85 L19.75,0.85 L19.75,1.9 L19.75,1.9 L21.3,1.9 L21.3,1.9 L21.3,0 L21.3,0 L19,0 L19,0 L19,2.3 L18.2,2.3 L18.15,2.3 L16.8,2.3 L16.8,0.5 L18.3,0.5 L18.3,1.5 L17.55,1.5 L17.55,1.2 L18,1.2 L18,1.2 L18,0.85 L18,0.85 L17.15,0.85 L17.15,0.85 L17.15,1.9 L17.15,1.9 L18.7,1.9 L18.7,1.9 L18.7,0 L18.7,0 L16.4,0 L16.4,0 L16.4,2.3 L16.1,2.3 L16.1,2.35 L16.45,2.35 L16.45,2.35 L16.45,0.05 L18.7,0.05 L18.7,1.9 L17.2,1.9 L17.2,0.9 L18.05,0.9 L18.05,1.2 L17.6,1.2 L17.6,1.2 L17.6,1.55 L17.6,1.55 L18.4,1.55 L18.4,1.55 L18.4,0.5 L18.4,0.5 L16.9,0.5 L16.9,0.5 L16.9,2.35 L16.9,2.35 L18.25,2.35 L18.3,2.35 L19.15,2.35 L19.15,2.35 L19.15,0.05 L21.4,0.05 L21.4,1.9 L19.9,1.9 L19.9,0.9 L20.7,0.9 L20.7,1.2 L20.25,1.2 L20.25,1.2 L20.25,1.55 L20.25,1.55 L21,1.55 L21,1.55 L21,0.5 L21,0.5 L19.5,0.5 L19.5,0.5 L19.5,2.35 L19.5,2.35 L20.9,2.35 L20.95,2.35 L21.35,2.3 L21.35,2.3 Z" id="Shape"></path>
                                <path d="M26.65,2.3 L26.15,2.3 L26.1,2.3 L24.75,2.3 L24.75,0.5 L26.2,0.5 L26.2,1.5 L25.45,1.5 L25.45,1.2 L25.9,1.2 L25.9,1.2 L25.9,0.85 L25.9,0.85 L25.05,0.85 L25.05,0.85 L25.05,1.9 L25.05,1.9 L26.6,1.9 L26.6,1.9 L26.6,0 L26.6,0 L24.3,0 L24.3,0 L24.3,2.3 L23.5,2.3 L23.45,2.3 L22.1,2.3 L22.1,0.5 L23.55,0.5 L23.55,1.5 L22.8,1.5 L22.8,1.2 L23.25,1.2 L23.25,1.2 L23.25,0.85 L23.25,0.85 L22.4,0.85 L22.4,0.85 L22.4,1.9 L22.4,1.9 L23.95,1.9 L23.95,1.9 L23.95,0 L23.95,0 L21.65,0 L21.65,0 L21.65,2.3 L21.35,2.3 L21.35,2.35 L21.7,2.35 L21.7,2.35 L21.7,0.05 L23.95,0.05 L23.95,1.9 L22.45,1.9 L22.45,0.9 L23.25,0.9 L23.25,1.2 L22.8,1.2 L22.8,1.2 L22.8,1.55 L22.8,1.55 L23.55,1.55 L23.55,1.55 L23.55,0.5 L23.55,0.5 L22.05,0.5 L22.05,0.5 L22.05,2.35 L22.05,2.35 L23.4,2.35 L23.45,2.35 L24.3,2.35 L24.3,2.35 L24.3,0.05 L26.55,0.05 L26.55,1.9 L25.05,1.9 L25.05,0.9 L25.9,0.9 L25.9,1.2 L25.45,1.2 L25.45,1.2 L25.45,1.55 L25.45,1.55 L26.25,1.55 L26.25,1.55 L26.25,0.5 L26.25,0.5 L24.75,0.5 L24.75,0.5 L24.75,2.35 L24.75,2.35 L26.15,2.35 L26.2,2.35 L26.65,2.3 L26.65,2.3 Z" id="Shape"></path>
                                <path d="M31.95,2.3 L31.45,2.3 L31.4,2.3 L30.05,2.3 L30.05,0.5 L31.5,0.5 L31.5,1.5 L30.75,1.5 L30.75,1.2 L31.2,1.2 L31.2,1.2 L31.2,0.85 L31.2,0.85 L30.35,0.85 L30.35,0.85 L30.35,1.9 L30.35,1.9 L31.9,1.9 L31.9,1.9 L31.9,0 L31.9,0 L29.6,0 L29.6,0 L29.6,2.3 L28.8,2.3 L28.75,2.3 L27.4,2.3 L27.4,0.5 L28.85,0.5 L28.85,1.5 L28.1,1.5 L28.1,1.2 L28.55,1.2 L28.55,1.2 L28.55,0.85 L28.55,0.85 L27.7,0.85 L27.7,0.85 L27.7,1.9 L27.7,1.9 L29.25,1.9 L29.25,1.9 L29.25,0 L29.25,0 L26.95,0 L26.95,0 L26.95,2.3 L26.65,2.3 L26.65,2.35 L27,2.35 L27,2.35 L27,0.05 L29.25,0.05 L29.25,1.9 L27.75,1.9 L27.75,0.9 L28.6,0.9 L28.6,1.2 L28.15,1.2 L28.15,1.2 L28.15,1.55 L28.15,1.55 L28.95,1.55 L28.95,1.55 L28.95,0.5 L28.95,0.5 L27.45,0.5 L27.45,0.5 L27.45,2.35 L27.45,2.35 L28.8,2.35 L28.85,2.35 L29.7,2.35 L29.7,2.35 L29.7,0.05 L31.95,0.05 L31.95,1.9 L30.45,1.9 L30.45,0.9 L31.25,0.9 L31.25,1.2 L30.8,1.2 L30.8,1.2 L30.8,1.55 L30.8,1.55 L31.55,1.55 L31.55,1.55 L31.55,0.5 L31.55,0.5 L30.05,0.5 L30.05,0.5 L30.05,2.35 L30.05,2.35 L31.45,2.35 L31.5,2.35 L31.95,2.3 L31.95,2.3 Z" id="Shape"></path>
                                <path d="M37.25,2.3 L36.75,2.3 L36.7,2.3 L35.35,2.3 L35.35,0.5 L36.8,0.5 L36.8,1.5 L36.05,1.5 L36.05,1.2 L36.5,1.2 L36.5,1.2 L36.5,0.85 L36.5,0.85 L35.65,0.85 L35.65,0.85 L35.65,1.9 L35.65,1.9 L37.2,1.9 L37.2,1.9 L37.2,0 L37.2,0 L34.9,0 L34.9,0 L34.9,2.3 L34.1,2.3 L34.05,2.3 L32.7,2.3 L32.7,0.5 L34.15,0.5 L34.15,1.5 L33.4,1.5 L33.4,1.2 L33.85,1.2 L33.85,1.2 L33.85,0.85 L33.85,0.85 L33,0.85 L33,0.85 L33,1.9 L33,1.9 L34.55,1.9 L34.55,1.9 L34.55,0 L34.55,0 L32.25,0 L32.25,0 L32.25,2.3 L31.95,2.3 L31.95,2.35 L32.3,2.35 L32.3,2.35 L32.3,0.05 L34.55,0.05 L34.55,1.9 L33.05,1.9 L33.05,0.9 L33.85,0.9 L33.85,1.2 L33.4,1.2 L33.4,1.2 L33.4,1.55 L33.4,1.55 L34.15,1.55 L34.15,1.55 L34.15,0.5 L34.15,0.5 L32.65,0.5 L32.65,0.5 L32.65,2.35 L32.65,2.35 L34,2.35 L34.05,2.35 L34.9,2.35 L34.9,2.35 L34.9,0.05 L37.15,0.05 L37.15,1.9 L35.65,1.9 L35.65,0.9 L36.5,0.9 L36.5,1.2 L36.05,1.2 L36.05,1.2 L36.05,1.55 L36.05,1.55 L36.85,1.55 L36.85,1.55 L36.85,0.5 L36.85,0.5 L35.35,0.5 L35.35,0.5 L35.35,2.35 L35.35,2.35 L36.75,2.35 L36.8,2.35 L37.25,2.3 L37.25,2.3 Z" id="Shape"></path>
                                <path d="M42.55,2.3 L42.05,2.3 L42,2.3 L40.65,2.3 L40.65,0.5 L42.1,0.5 L42.1,1.5 L41.35,1.5 L41.35,1.2 L41.8,1.2 L41.8,1.2 L41.8,0.85 L41.8,0.85 L40.95,0.85 L40.95,0.85 L40.95,1.9 L40.95,1.9 L42.5,1.9 L42.5,1.9 L42.5,0 L42.5,0 L40.2,0 L40.2,0 L40.2,2.3 L39.4,2.3 L39.35,2.3 L38,2.3 L38,0.5 L39.45,0.5 L39.45,1.5 L38.7,1.5 L38.7,1.2 L39.15,1.2 L39.15,1.2 L39.15,0.85 L39.15,0.85 L38.3,0.85 L38.3,0.85 L38.3,1.9 L38.3,1.9 L39.85,1.9 L39.85,1.9 L39.85,0 L39.85,0 L37.55,0 L37.55,0 L37.55,2.3 L37.25,2.3 L37.25,2.35 L37.6,2.35 L37.6,2.35 L37.6,0.05 L39.85,0.05 L39.85,1.9 L38.35,1.9 L38.35,0.9 L39.2,0.9 L39.2,1.2 L38.75,1.2 L38.75,1.2 L38.75,1.55 L38.75,1.55 L39.55,1.55 L39.55,1.55 L39.55,0.5 L39.55,0.5 L38.05,0.5 L38.05,0.5 L38.05,2.35 L38.05,2.35 L39.4,2.35 L39.45,2.35 L40.3,2.35 L40.3,2.35 L40.3,0.05 L42.55,0.05 L42.55,1.9 L41.05,1.9 L41.05,0.9 L41.85,0.9 L41.85,1.2 L41.4,1.2 L41.4,1.2 L41.4,1.55 L41.4,1.55 L42.15,1.55 L42.15,1.55 L42.15,0.5 L42.15,0.5 L40.65,0.5 L40.65,0.5 L40.65,2.35 L40.65,2.35 L42.05,2.35 L42.1,2.35 L42.55,2.3 L42.55,2.3 Z" id="Shape"></path>
                                <path d="M47.85,2.3 L47.35,2.3 L47.3,2.3 L45.95,2.3 L45.95,0.5 L47.4,0.5 L47.4,1.5 L46.65,1.5 L46.65,1.2 L47.1,1.2 L47.1,1.2 L47.1,0.85 L47.1,0.85 L46.25,0.85 L46.25,0.85 L46.25,1.9 L46.25,1.9 L47.8,1.9 L47.8,1.9 L47.8,0 L47.8,0 L45.5,0 L45.5,0 L45.5,2.3 L44.7,2.3 L44.65,2.3 L43.3,2.3 L43.3,0.5 L44.75,0.5 L44.75,1.5 L44,1.5 L44,1.2 L44.45,1.2 L44.45,1.2 L44.45,0.85 L44.45,0.85 L43.6,0.85 L43.6,0.85 L43.6,1.9 L43.6,1.9 L45.15,1.9 L45.15,1.9 L45.15,0 L45.15,0 L42.85,0 L42.85,0 L42.85,2.3 L42.55,2.3 L42.55,2.35 L42.9,2.35 L42.9,2.35 L42.9,0.05 L45.15,0.05 L45.15,1.9 L43.65,1.9 L43.65,0.9 L44.45,0.9 L44.45,1.2 L44,1.2 L44,1.2 L44,1.55 L44,1.55 L44.8,1.55 L44.8,1.55 L44.8,0.5 L44.8,0.5 L43.3,0.5 L43.3,0.5 L43.3,2.35 L43.3,2.35 L44.65,2.35 L44.7,2.35 L45.55,2.35 L45.55,2.35 L45.55,0.05 L47.8,0.05 L47.8,1.9 L46.3,1.9 L46.3,0.9 L47.15,0.9 L47.15,1.2 L46.7,1.2 L46.7,1.2 L46.7,1.55 L46.7,1.55 L47.5,1.55 L47.5,1.55 L47.5,0.5 L47.5,0.5 L46,0.5 L46,0.5 L46,2.35 L46,2.35 L47.4,2.35 L47.45,2.35 L47.85,2.3 L47.85,2.3 Z" id="Shape"></path>
                                <path d="M53.15,2.3 L52.65,2.3 L52.6,2.3 L51.25,2.3 L51.25,0.5 L52.7,0.5 L52.7,1.5 L51.95,1.5 L51.95,1.2 L52.4,1.2 L52.4,1.2 L52.4,0.85 L52.4,0.85 L51.55,0.85 L51.55,0.85 L51.55,1.9 L51.55,1.9 L53.1,1.9 L53.1,1.9 L53.1,0 L53.1,0 L50.8,0 L50.8,0 L50.8,2.3 L50,2.3 L49.95,2.3 L48.6,2.3 L48.6,0.5 L50.05,0.5 L50.05,1.5 L49.3,1.5 L49.3,1.2 L49.75,1.2 L49.75,1.2 L49.75,0.85 L49.75,0.85 L48.9,0.85 L48.9,0.85 L48.9,1.9 L48.9,1.9 L50.45,1.9 L50.45,1.9 L50.45,0 L50.45,0 L48.15,0 L48.15,0 L48.15,2.3 L47.85,2.3 L47.85,2.35 L48.2,2.35 L48.2,2.35 L48.2,0.05 L50.45,0.05 L50.45,1.9 L48.95,1.9 L48.95,0.9 L49.8,0.9 L49.8,1.2 L49.35,1.2 L49.35,1.2 L49.35,1.55 L49.35,1.55 L50.15,1.55 L50.15,1.55 L50.15,0.5 L50.15,0.5 L48.65,0.5 L48.65,0.5 L48.65,2.35 L48.65,2.35 L50,2.35 L50.05,2.35 L50.9,2.35 L50.9,2.35 L50.9,0.05 L53.15,0.05 L53.15,1.9 L51.65,1.9 L51.65,0.9 L52.45,0.9 L52.45,1.2 L52,1.2 L52,1.2 L52,1.55 L52,1.55 L52.8,1.55 L52.8,1.55 L52.8,0.5 L52.8,0.5 L51.3,0.5 L51.3,0.5 L51.3,2.35 L51.3,2.35 L52.7,2.35 L52.75,2.35 L53.15,2.3 L53.15,2.3 Z" id="Shape"></path>
                                <path d="M58.45,2.3 L57.95,2.3 L57.9,2.3 L56.55,2.3 L56.55,0.5 L58,0.5 L58,1.5 L57.25,1.5 L57.25,1.2 L57.7,1.2 L57.7,1.2 L57.7,0.85 L57.7,0.85 L56.85,0.85 L56.85,0.85 L56.85,1.9 L56.85,1.9 L58.4,1.9 L58.4,1.9 L58.4,0 L58.4,0 L56.1,0 L56.1,0 L56.1,2.3 L55.3,2.3 L55.25,2.3 L53.9,2.3 L53.9,0.5 L55.4,0.5 L55.4,1.5 L54.65,1.5 L54.65,1.2 L55.1,1.2 L55.1,1.2 L55.1,0.85 L55.1,0.85 L54.25,0.85 L54.25,0.85 L54.25,1.9 L54.25,1.9 L55.8,1.9 L55.8,1.9 L55.8,0 L55.8,0 L53.5,0 L53.5,0 L53.5,2.3 L53.2,2.3 L53.2,2.35 L53.55,2.35 L53.55,2.35 L53.55,0.05 L55.8,0.05 L55.8,1.9 L54.3,1.9 L54.3,0.9 L55.1,0.9 L55.1,1.2 L54.65,1.2 L54.65,1.2 L54.65,1.55 L54.65,1.55 L55.45,1.55 L55.45,1.55 L55.45,0.5 L55.45,0.5 L53.95,0.5 L53.95,0.5 L53.95,2.35 L53.95,2.35 L55.3,2.35 L55.35,2.35 L56.2,2.35 L56.2,2.35 L56.2,0.05 L58.45,0.05 L58.45,1.9 L56.95,1.9 L56.95,0.9 L57.8,0.9 L57.8,1.2 L57.35,1.2 L57.35,1.2 L57.35,1.55 L57.35,1.55 L58.15,1.55 L58.15,1.55 L58.15,0.5 L58.15,0.5 L56.65,0.5 L56.65,0.5 L56.65,2.35 L56.65,2.35 L58.05,2.35 L58.1,2.35 L58.45,2.3 L58.45,2.3 Z" id="Shape"></path>
                                <path d="M63.75,2.3 L63.25,2.3 L63.2,2.3 L61.85,2.3 L61.85,0.5 L63.3,0.5 L63.3,1.5 L62.55,1.5 L62.55,1.2 L63,1.2 L63,1.2 L63,0.85 L63,0.85 L62.15,0.85 L62.15,0.85 L62.15,1.9 L62.15,1.9 L63.7,1.9 L63.7,1.9 L63.7,0 L63.7,0 L61.4,0 L61.4,0 L61.4,2.3 L60.6,2.3 L60.55,2.3 L59.2,2.3 L59.2,0.5 L60.65,0.5 L60.65,1.5 L59.9,1.5 L59.9,1.2 L60.35,1.2 L60.35,1.2 L60.35,0.85 L60.35,0.85 L59.5,0.85 L59.5,0.85 L59.5,1.9 L59.5,1.9 L61.05,1.9 L61.05,1.9 L61.05,0 L61.05,0 L58.75,0 L58.75,0 L58.75,2.3 L58.45,2.3 L58.45,2.35 L58.8,2.35 L58.8,2.35 L58.8,0.05 L61.05,0.05 L61.05,1.9 L59.55,1.9 L59.55,0.9 L60.4,0.9 L60.4,1.2 L59.95,1.2 L59.95,1.2 L59.95,1.55 L59.95,1.55 L60.75,1.55 L60.75,1.55 L60.75,0.5 L60.75,0.5 L59.25,0.5 L59.25,0.5 L59.25,2.35 L59.25,2.35 L60.6,2.35 L60.65,2.35 L61.5,2.35 L61.5,2.35 L61.5,0.05 L63.75,0.05 L63.75,1.9 L62.25,1.9 L62.25,0.9 L63.05,0.9 L63.05,1.2 L62.6,1.2 L62.6,1.2 L62.6,1.55 L62.6,1.55 L63.4,1.55 L63.4,1.55 L63.4,0.5 L63.4,0.5 L61.9,0.5 L61.9,0.5 L61.9,2.35 L61.9,2.35 L63.3,2.35 L63.35,2.35 L63.75,2.3 L63.75,2.3 Z" id="Shape"></path>
                                <path d="M69.05,2.3 L68.55,2.3 L68.5,2.3 L67.15,2.3 L67.15,0.5 L68.6,0.5 L68.6,1.5 L67.85,1.5 L67.85,1.2 L68.3,1.2 L68.3,1.2 L68.3,0.85 L68.3,0.85 L67.45,0.85 L67.45,0.85 L67.45,1.9 L67.45,1.9 L69,1.9 L69,1.9 L69,0 L69,0 L66.7,0 L66.7,0 L66.7,2.3 L65.9,2.3 L65.85,2.3 L64.5,2.3 L64.5,0.5 L66,0.5 L66,1.5 L65.25,1.5 L65.25,1.2 L65.7,1.2 L65.7,1.2 L65.7,0.85 L65.7,0.85 L64.85,0.85 L64.85,0.85 L64.85,1.9 L64.85,1.9 L66.4,1.9 L66.4,1.9 L66.4,0 L66.4,0 L64.1,0 L64.1,0 L64.1,2.3 L63.8,2.3 L63.8,2.35 L64.15,2.35 L64.15,2.35 L64.15,0.05 L66.4,0.05 L66.4,1.9 L64.9,1.9 L64.9,0.9 L65.7,0.9 L65.7,1.2 L65.25,1.2 L65.25,1.2 L65.25,1.55 L65.25,1.55 L66.05,1.55 L66.05,1.55 L66.05,0.5 L66.05,0.5 L64.55,0.5 L64.55,0.5 L64.55,2.35 L64.55,2.35 L65.9,2.35 L65.95,2.35 L66.8,2.35 L66.8,2.35 L66.8,0.05 L69.05,0.05 L69.05,1.9 L67.55,1.9 L67.55,0.9 L68.4,0.9 L68.4,1.2 L67.95,1.2 L67.95,1.2 L67.95,1.55 L67.95,1.55 L68.75,1.55 L68.75,1.55 L68.75,0.5 L68.75,0.5 L67.25,0.5 L67.25,0.5 L67.25,2.35 L67.25,2.35 L68.65,2.35 L68.7,2.35 L69.05,2.3 L69.05,2.3 Z" id="Shape"></path>
                                <path d="M74.35,2.3 L73.85,2.3 L73.8,2.3 L72.45,2.3 L72.45,0.5 L73.9,0.5 L73.9,1.5 L73.15,1.5 L73.15,1.2 L73.6,1.2 L73.6,1.2 L73.6,0.85 L73.6,0.85 L72.75,0.85 L72.75,0.85 L72.75,1.9 L72.75,1.9 L74.3,1.9 L74.3,1.9 L74.3,0 L74.3,0 L72,0 L72,0 L72,2.3 L71.2,2.3 L71.15,2.3 L69.8,2.3 L69.8,0.5 L71.25,0.5 L71.25,1.5 L70.5,1.5 L70.5,1.2 L70.95,1.2 L70.95,1.2 L70.95,0.85 L70.95,0.85 L70.1,0.85 L70.1,0.85 L70.1,1.9 L70.1,1.9 L71.65,1.9 L71.65,1.9 L71.65,0 L71.65,0 L69.35,0 L69.35,0 L69.35,2.3 L69.05,2.3 L69.05,2.35 L69.4,2.35 L69.4,2.35 L69.4,0.05 L71.65,0.05 L71.65,1.9 L70.15,1.9 L70.15,0.9 L71,0.9 L71,1.2 L70.55,1.2 L70.55,1.2 L70.55,1.55 L70.55,1.55 L71.35,1.55 L71.35,1.55 L71.35,0.5 L71.35,0.5 L69.85,0.5 L69.85,0.5 L69.85,2.35 L69.85,2.35 L71.2,2.35 L71.25,2.35 L72.1,2.35 L72.1,2.35 L72.1,0.05 L74.35,0.05 L74.35,1.9 L72.85,1.9 L72.85,0.9 L73.65,0.9 L73.65,1.2 L73.2,1.2 L73.2,1.2 L73.2,1.55 L73.2,1.55 L74,1.55 L74,1.55 L74,0.5 L74,0.5 L72.5,0.5 L72.5,0.5 L72.5,2.35 L72.5,2.35 L73.9,2.35 L73.95,2.35 L74.35,2.3 L74.35,2.3 Z" id="Shape"></path>
                                <path d="M79.7,2.3 L79.2,2.3 L79.15,2.3 L77.8,2.3 L77.8,0.5 L79.25,0.5 L79.25,1.5 L78.5,1.5 L78.5,1.2 L78.95,1.2 L78.95,1.2 L78.95,0.85 L78.95,0.85 L78.1,0.85 L78.1,0.85 L78.1,1.9 L78.1,1.9 L79.65,1.9 L79.65,1.9 L79.65,0 L79.65,0 L77.35,0 L77.35,0 L77.35,2.3 L76.55,2.3 L76.5,2.3 L75.15,2.3 L75.15,0.5 L76.65,0.5 L76.65,1.5 L75.9,1.5 L75.9,1.2 L76.35,1.2 L76.35,1.2 L76.35,0.85 L76.35,0.85 L75.5,0.85 L75.5,0.85 L75.5,1.9 L75.5,1.9 L77.05,1.9 L77.05,1.9 L77.05,0 L77.05,0 L74.75,0 L74.75,0 L74.75,2.3 L74.45,2.3 L74.45,2.35 L74.8,2.35 L74.8,2.35 L74.8,0.05 L77.05,0.05 L77.05,1.9 L75.55,1.9 L75.55,0.9 L76.4,0.9 L76.4,1.2 L75.95,1.2 L75.95,1.2 L75.95,1.55 L75.95,1.55 L76.75,1.55 L76.75,1.55 L76.75,0.5 L76.75,0.5 L75.25,0.5 L75.25,0.5 L75.25,2.35 L75.25,2.35 L76.6,2.35 L76.65,2.35 L77.5,2.35 L77.5,2.35 L77.5,0.05 L79.75,0.05 L79.75,1.9 L78.25,1.9 L78.25,0.9 L79.1,0.9 L79.1,1.2 L78.65,1.2 L78.65,1.2 L78.65,1.55 L78.65,1.55 L79.45,1.55 L79.45,1.55 L79.45,0.5 L79.45,0.5 L77.95,0.5 L77.95,0.5 L77.95,2.35 L77.95,2.35 L79.35,2.35 L79.4,2.35 L79.7,2.3 L79.7,2.3 Z" id="Shape"></path>
                                <path d="M85,2.3 L84.5,2.3 L84.45,2.3 L83.1,2.3 L83.1,0.5 L84.55,0.5 L84.55,1.5 L83.8,1.5 L83.8,1.2 L84.25,1.2 L84.25,1.2 L84.25,0.85 L84.25,0.85 L83.4,0.85 L83.4,0.85 L83.4,1.9 L83.4,1.9 L84.95,1.9 L84.95,1.9 L84.95,0 L84.95,0 L82.65,0 L82.65,0 L82.65,2.3 L81.85,2.3 L81.8,2.3 L80.45,2.3 L80.45,0.5 L81.9,0.5 L81.9,1.5 L81.15,1.5 L81.15,1.2 L81.6,1.2 L81.6,1.2 L81.6,0.85 L81.6,0.85 L80.75,0.85 L80.75,0.85 L80.75,1.9 L80.75,1.9 L82.3,1.9 L82.3,1.9 L82.3,0 L82.3,0 L80,0 L80,0 L80,2.3 L79.7,2.3 L79.7,2.35 L80.05,2.35 L80.05,2.35 L80.05,0.05 L82.3,0.05 L82.3,1.9 L80.8,1.9 L80.8,0.9 L81.65,0.9 L81.65,1.2 L81.2,1.2 L81.2,1.2 L81.2,1.55 L81.2,1.55 L81.95,1.55 L81.95,1.55 L81.95,0.5 L81.95,0.5 L80.45,0.5 L80.45,0.5 L80.45,2.35 L80.45,2.35 L81.8,2.35 L81.85,2.35 L82.7,2.35 L82.7,2.35 L82.7,0.05 L84.95,0.05 L84.95,1.9 L83.45,1.9 L83.45,0.9 L84.25,0.9 L84.25,1.2 L83.8,1.2 L83.8,1.2 L83.8,1.55 L83.8,1.55 L84.6,1.55 L84.6,1.55 L84.6,0.5 L84.6,0.5 L83.1,0.5 L83.1,0.5 L83.1,2.35 L83.1,2.35 L84.5,2.35 L84.55,2.35 L85,2.3 L85,2.3 Z" id="Shape"></path>
                                <path d="M90.3,2.3 L89.8,2.3 L89.75,2.3 L88.4,2.3 L88.4,0.5 L89.85,0.5 L89.85,1.5 L89.1,1.5 L89.1,1.2 L89.55,1.2 L89.55,1.2 L89.55,0.85 L89.55,0.85 L88.7,0.85 L88.7,0.85 L88.7,1.9 L88.7,1.9 L90.25,1.9 L90.25,1.9 L90.25,0 L90.25,0 L87.95,0 L87.95,0 L87.95,2.3 L87.15,2.3 L87.1,2.3 L85.75,2.3 L85.75,0.5 L87.25,0.5 L87.25,1.5 L86.5,1.5 L86.5,1.2 L86.95,1.2 L86.95,1.2 L86.95,0.85 L86.95,0.85 L86.1,0.85 L86.1,0.85 L86.1,1.9 L86.1,1.9 L87.65,1.9 L87.65,1.9 L87.65,0 L87.65,0 L85.35,0 L85.35,0 L85.35,2.3 L85.05,2.3 L85.05,2.35 L85.4,2.35 L85.4,2.35 L85.4,0.05 L87.65,0.05 L87.65,1.9 L86.15,1.9 L86.15,0.9 L87,0.9 L87,1.2 L86.55,1.2 L86.55,1.2 L86.55,1.55 L86.55,1.55 L87.35,1.55 L87.35,1.55 L87.35,0.5 L87.35,0.5 L85.85,0.5 L85.85,0.5 L85.85,2.35 L85.85,2.35 L87.2,2.35 L87.25,2.35 L88.1,2.35 L88.1,2.35 L88.1,0.05 L90.35,0.05 L90.35,1.9 L88.85,1.9 L88.85,0.9 L89.7,0.9 L89.7,1.2 L89.25,1.2 L89.25,1.2 L89.25,1.55 L89.25,1.55 L90.05,1.55 L90.05,1.55 L90.05,0.5 L90.05,0.5 L88.55,0.5 L88.55,0.5 L88.55,2.35 L88.55,2.35 L89.95,2.35 L90,2.35 L90.3,2.3 L90.3,2.3 Z" id="Shape"></path>
                                <path d="M95.6,2.3 L95.1,2.3 L95.05,2.3 L93.7,2.3 L93.7,0.5 L95.15,0.5 L95.15,1.5 L94.4,1.5 L94.4,1.2 L94.85,1.2 L94.85,1.2 L94.85,0.85 L94.85,0.85 L94,0.85 L94,0.85 L94,1.9 L94,1.9 L95.55,1.9 L95.55,1.9 L95.55,0 L95.55,0 L93.25,0 L93.25,0 L93.25,2.3 L92.45,2.3 L92.4,2.3 L91.05,2.3 L91.05,0.5 L92.5,0.5 L92.5,1.5 L91.75,1.5 L91.75,1.2 L92.2,1.2 L92.2,1.2 L92.2,0.85 L92.2,0.85 L91.35,0.85 L91.35,0.85 L91.35,1.9 L91.35,1.9 L92.9,1.9 L92.9,1.9 L92.9,0 L92.9,0 L90.6,0 L90.6,0 L90.6,2.3 L90.3,2.3 L90.3,2.35 L90.65,2.35 L90.65,2.35 L90.65,0.05 L92.9,0.05 L92.9,1.9 L91.4,1.9 L91.4,0.9 L92.2,0.9 L92.2,1.2 L91.75,1.2 L91.75,1.2 L91.75,1.55 L91.75,1.55 L92.5,1.55 L92.5,1.55 L92.5,0.5 L92.5,0.5 L91,0.5 L91,0.5 L91,2.35 L91,2.35 L92.35,2.35 L92.4,2.35 L93.25,2.35 L93.25,2.35 L93.25,0.05 L95.5,0.05 L95.5,1.9 L94,1.9 L94,0.9 L94.85,0.9 L94.85,1.2 L94.4,1.2 L94.4,1.2 L94.4,1.55 L94.4,1.55 L95.2,1.55 L95.2,1.55 L95.2,0.5 L95.2,0.5 L93.7,0.5 L93.7,0.5 L93.7,2.35 L93.7,2.35 L95.1,2.35 L95.15,2.35 L95.6,2.3 L95.6,2.3 Z" id="Shape"></path>
                                <path d="M100.9,2.3 L100.4,2.3 L100.35,2.3 L99,2.3 L99,0.5 L100.45,0.5 L100.45,1.5 L99.7,1.5 L99.7,1.2 L100.15,1.2 L100.15,1.2 L100.15,0.85 L100.15,0.85 L99.3,0.85 L99.3,0.85 L99.3,1.9 L99.3,1.9 L100.85,1.9 L100.85,1.9 L100.85,0 L100.85,0 L98.55,0 L98.55,0 L98.55,2.3 L97.75,2.3 L97.7,2.3 L96.35,2.3 L96.35,0.5 L97.85,0.5 L97.85,1.5 L97.1,1.5 L97.1,1.2 L97.55,1.2 L97.55,1.2 L97.55,0.85 L97.55,0.85 L96.7,0.85 L96.7,0.85 L96.7,1.9 L96.7,1.9 L98.25,1.9 L98.25,1.9 L98.25,0 L98.25,0 L95.95,0 L95.95,0 L95.95,2.3 L95.65,2.3 L95.65,2.35 L96,2.35 L96,2.35 L96,0.05 L98.25,0.05 L98.25,1.9 L96.75,1.9 L96.75,0.9 L97.6,0.9 L97.6,1.2 L97.15,1.2 L97.15,1.2 L97.15,1.55 L97.15,1.55 L97.95,1.55 L97.95,1.55 L97.95,0.5 L97.95,0.5 L96.45,0.5 L96.45,0.5 L96.45,2.35 L96.45,2.35 L97.8,2.35 L97.85,2.35 L98.7,2.35 L98.7,2.35 L98.7,0.05 L100.95,0.05 L100.95,1.9 L99.45,1.9 L99.45,0.9 L100.3,0.9 L100.3,1.2 L99.85,1.2 L99.85,1.2 L99.85,1.55 L99.85,1.55 L100.6,1.55 L100.6,1.55 L100.6,0.5 L100.6,0.5 L99.1,0.5 L99.1,0.5 L99.1,2.35 L99.1,2.35 L100.5,2.35 L100.55,2.35 L100.9,2.3 L100.9,2.3 Z" id="Shape"></path>
                                <path d="M106.2,2.3 L105.7,2.3 L105.65,2.3 L104.3,2.3 L104.3,0.5 L105.75,0.5 L105.75,1.5 L105,1.5 L105,1.2 L105.45,1.2 L105.45,1.2 L105.45,0.85 L105.45,0.85 L104.6,0.85 L104.6,0.85 L104.6,1.9 L104.6,1.9 L106.15,1.9 L106.15,1.9 L106.15,0 L106.15,0 L103.85,0 L103.85,0 L103.85,2.3 L103.05,2.3 L103,2.3 L101.65,2.3 L101.65,0.5 L103.1,0.5 L103.1,1.5 L102.35,1.5 L102.35,1.2 L102.8,1.2 L102.8,1.2 L102.8,0.85 L102.8,0.85 L101.95,0.85 L101.95,0.85 L101.95,1.9 L101.95,1.9 L103.5,1.9 L103.5,1.9 L103.5,0 L103.5,0 L101.2,0 L101.2,0 L101.2,2.3 L100.9,2.3 L100.9,2.35 L101.25,2.35 L101.25,2.35 L101.25,0.05 L103.5,0.05 L103.5,1.9 L102,1.9 L102,0.9 L102.8,0.9 L102.8,1.2 L102.35,1.2 L102.35,1.2 L102.35,1.55 L102.35,1.55 L103.1,1.55 L103.1,1.55 L103.1,0.5 L103.1,0.5 L101.6,0.5 L101.6,0.5 L101.6,2.35 L101.6,2.35 L102.95,2.35 L103,2.35 L103.85,2.35 L103.85,2.35 L103.85,0.05 L106.1,0.05 L106.1,1.9 L104.6,1.9 L104.6,0.9 L105.45,0.9 L105.45,1.2 L105,1.2 L105,1.2 L105,1.55 L105,1.55 L105.8,1.55 L105.8,1.55 L105.8,0.5 L105.8,0.5 L104.3,0.5 L104.3,0.5 L104.3,2.35 L104.3,2.35 L105.7,2.35 L105.75,2.35 L106.2,2.3 L106.2,2.3 Z" id="Shape"></path>
                                <path d="M111.5,2.3 L111,2.3 L110.95,2.3 L109.6,2.3 L109.6,0.5 L111.05,0.5 L111.05,1.5 L110.3,1.5 L110.3,1.2 L110.75,1.2 L110.75,1.2 L110.75,0.85 L110.75,0.85 L109.9,0.85 L109.9,0.85 L109.9,1.9 L109.9,1.9 L111.45,1.9 L111.45,1.9 L111.45,0 L111.45,0 L109.15,0 L109.15,0 L109.15,2.3 L108.35,2.3 L108.3,2.3 L106.95,2.3 L106.95,0.5 L108.45,0.5 L108.45,1.5 L107.7,1.5 L107.7,1.2 L108.15,1.2 L108.15,1.2 L108.15,0.85 L108.15,0.85 L107.3,0.85 L107.3,0.85 L107.3,1.9 L107.3,1.9 L108.85,1.9 L108.85,1.9 L108.85,0 L108.85,0 L106.55,0 L106.55,0 L106.55,2.3 L106.25,2.3 L106.25,2.35 L106.6,2.35 L106.6,2.35 L106.6,0.05 L108.85,0.05 L108.85,1.9 L107.35,1.9 L107.35,0.9 L108.2,0.9 L108.2,1.2 L107.75,1.2 L107.75,1.2 L107.75,1.55 L107.75,1.55 L108.55,1.55 L108.55,1.55 L108.55,0.5 L108.55,0.5 L107.05,0.5 L107.05,0.5 L107.05,2.35 L107.05,2.35 L108.4,2.35 L108.45,2.35 L109.3,2.35 L109.3,2.35 L109.3,0.05 L111.55,0.05 L111.55,1.9 L110.05,1.9 L110.05,0.9 L110.85,0.9 L110.85,1.2 L110.4,1.2 L110.4,1.2 L110.4,1.55 L110.4,1.55 L111.15,1.55 L111.15,1.55 L111.15,0.5 L111.15,0.5 L109.65,0.5 L109.65,0.5 L109.65,2.35 L109.65,2.35 L111.05,2.35 L111.1,2.35 L111.5,2.3 L111.5,2.3 Z" id="Shape"></path>
                                <path d="M116.8,2.3 L116.3,2.3 L116.25,2.3 L114.9,2.3 L114.9,0.5 L116.35,0.5 L116.35,1.5 L115.6,1.5 L115.6,1.2 L116.05,1.2 L116.05,1.2 L116.05,0.85 L116.05,0.85 L115.2,0.85 L115.2,0.85 L115.2,1.9 L115.2,1.9 L116.75,1.9 L116.75,1.9 L116.75,0 L116.75,0 L114.45,0 L114.45,0 L114.45,2.3 L113.65,2.3 L113.6,2.3 L112.25,2.3 L112.25,0.5 L113.7,0.5 L113.7,1.5 L112.95,1.5 L112.95,1.2 L113.4,1.2 L113.4,1.2 L113.4,0.85 L113.4,0.85 L112.55,0.85 L112.55,0.85 L112.55,1.9 L112.55,1.9 L114.1,1.9 L114.1,1.9 L114.1,0 L114.1,0 L111.8,0 L111.8,0 L111.8,2.3 L111.5,2.3 L111.5,2.35 L111.85,2.35 L111.85,2.35 L111.85,0.05 L114.1,0.05 L114.1,1.9 L112.6,1.9 L112.6,0.9 L113.4,0.9 L113.4,1.2 L112.95,1.2 L112.95,1.2 L112.95,1.55 L112.95,1.55 L113.7,1.55 L113.7,1.55 L113.7,0.5 L113.7,0.5 L112.2,0.5 L112.2,0.5 L112.2,2.35 L112.2,2.35 L113.55,2.35 L113.6,2.35 L114.45,2.35 L114.45,2.35 L114.45,0.05 L116.7,0.05 L116.7,1.9 L115.2,1.9 L115.2,0.9 L116.05,0.9 L116.05,1.2 L115.6,1.2 L115.6,1.2 L115.6,1.55 L115.6,1.55 L116.4,1.55 L116.4,1.55 L116.4,0.5 L116.4,0.5 L114.9,0.5 L114.9,0.5 L114.9,2.35 L114.9,2.35 L116.3,2.35 L116.35,2.35 L116.8,2.3 L116.8,2.3 Z" id="Shape"></path>
                                <path d="M122.1,2.3 L121.6,2.3 L121.55,2.3 L120.2,2.3 L120.2,0.5 L121.65,0.5 L121.65,1.5 L120.9,1.5 L120.9,1.2 L121.35,1.2 L121.35,1.2 L121.35,0.85 L121.35,0.85 L120.5,0.85 L120.5,0.85 L120.5,1.9 L120.5,1.9 L122.05,1.9 L122.05,1.9 L122.05,0 L122.05,0 L119.75,0 L119.75,0 L119.75,2.3 L118.95,2.3 L118.9,2.3 L117.55,2.3 L117.55,0.5 L119.05,0.5 L119.05,1.5 L118.3,1.5 L118.3,1.2 L118.75,1.2 L118.75,1.2 L118.75,0.85 L118.75,0.85 L117.9,0.85 L117.9,0.85 L117.9,1.9 L117.9,1.9 L119.45,1.9 L119.45,1.9 L119.45,0 L119.45,0 L117.15,0 L117.15,0 L117.15,2.3 L116.85,2.3 L116.85,2.35 L117.2,2.35 L117.2,2.35 L117.2,0.05 L119.45,0.05 L119.45,1.9 L117.95,1.9 L117.95,0.9 L118.8,0.9 L118.8,1.2 L118.35,1.2 L118.35,1.2 L118.35,1.55 L118.35,1.55 L119.15,1.55 L119.15,1.55 L119.15,0.5 L119.15,0.5 L117.65,0.5 L117.65,0.5 L117.65,2.35 L117.65,2.35 L119,2.35 L119.05,2.35 L119.9,2.35 L119.9,2.35 L119.9,0.05 L122.15,0.05 L122.15,1.9 L120.65,1.9 L120.65,0.9 L121.45,0.9 L121.45,1.2 L121,1.2 L121,1.2 L121,1.55 L121,1.55 L121.75,1.55 L121.75,1.55 L121.75,0.5 L121.75,0.5 L120.25,0.5 L120.25,0.5 L120.25,2.35 L120.25,2.35 L121.65,2.35 L121.7,2.35 L122.1,2.3 L122.1,2.3 Z" id="Shape"></path>
                                <path d="M127.4,2.3 L126.9,2.3 L126.85,2.3 L125.5,2.3 L125.5,0.5 L126.95,0.5 L126.95,1.5 L126.2,1.5 L126.2,1.2 L126.65,1.2 L126.65,1.2 L126.65,0.85 L126.65,0.85 L125.8,0.85 L125.8,0.85 L125.8,1.9 L125.8,1.9 L127.35,1.9 L127.35,1.9 L127.35,0 L127.35,0 L125.05,0 L125.05,0 L125.05,2.3 L124.25,2.3 L124.2,2.3 L122.85,2.3 L122.85,0.5 L124.3,0.5 L124.3,1.5 L123.55,1.5 L123.55,1.2 L124,1.2 L124,1.2 L124,0.85 L124,0.85 L123.15,0.85 L123.15,0.85 L123.15,1.9 L123.15,1.9 L124.7,1.9 L124.7,1.9 L124.7,0 L124.7,0 L122.4,0 L122.4,0 L122.4,2.3 L122.1,2.3 L122.1,2.35 L122.45,2.35 L122.45,2.35 L122.45,0.05 L124.7,0.05 L124.7,1.9 L123.2,1.9 L123.2,0.9 L124,0.9 L124,1.2 L123.55,1.2 L123.55,1.2 L123.55,1.55 L123.55,1.55 L124.3,1.55 L124.3,1.55 L124.3,0.5 L124.3,0.5 L122.8,0.5 L122.8,0.5 L122.8,2.35 L122.8,2.35 L124.15,2.35 L124.2,2.35 L125.05,2.35 L125.05,2.35 L125.05,0.05 L127.3,0.05 L127.3,1.9 L125.8,1.9 L125.8,0.9 L126.65,0.9 L126.65,1.2 L126.2,1.2 L126.2,1.2 L126.2,1.55 L126.2,1.55 L127,1.55 L127,1.55 L127,0.5 L127,0.5 L125.5,0.5 L125.5,0.5 L125.5,2.35 L125.5,2.35 L126.9,2.35 L126.95,2.35 L127.4,2.3 L127.4,2.3 Z" id="Shape"></path>
                                <path d="M132.7,2.3 L132.2,2.3 L132.15,2.3 L130.8,2.3 L130.8,0.5 L132.25,0.5 L132.25,1.5 L131.5,1.5 L131.5,1.2 L131.95,1.2 L131.95,1.2 L131.95,0.85 L131.95,0.85 L131.1,0.85 L131.1,0.85 L131.1,1.9 L131.1,1.9 L132.65,1.9 L132.65,1.9 L132.65,0 L132.65,0 L130.35,0 L130.35,0 L130.35,2.3 L129.55,2.3 L129.5,2.3 L128.15,2.3 L128.15,0.5 L129.6,0.5 L129.6,1.5 L128.85,1.5 L128.85,1.2 L129.3,1.2 L129.3,1.2 L129.3,0.85 L129.3,0.85 L128.45,0.85 L128.45,0.85 L128.45,1.9 L128.45,1.9 L130,1.9 L130,1.9 L130,0 L130,0 L127.7,0 L127.7,0 L127.7,2.3 L127.4,2.3 L127.4,2.35 L127.75,2.35 L127.75,2.35 L127.75,0.05 L130,0.05 L130,1.9 L128.5,1.9 L128.5,0.9 L129.35,0.9 L129.35,1.2 L128.9,1.2 L128.9,1.2 L128.9,1.55 L128.9,1.55 L129.7,1.55 L129.7,1.55 L129.7,0.5 L129.7,0.5 L128.2,0.5 L128.2,0.5 L128.2,2.35 L128.2,2.35 L129.55,2.35 L129.6,2.35 L130.45,2.35 L130.45,2.35 L130.45,0.05 L132.7,0.05 L132.7,1.9 L131.2,1.9 L131.2,0.9 L132,0.9 L132,1.2 L131.55,1.2 L131.55,1.2 L131.55,1.55 L131.55,1.55 L132.3,1.55 L132.3,1.55 L132.3,0.5 L132.3,0.5 L130.8,0.5 L130.8,0.5 L130.8,2.35 L130.8,2.35 L132.2,2.35 L132.25,2.35 L132.7,2.3 L132.7,2.3 Z" id="Shape"></path>
                                <path d="M138,2.3 L137.5,2.3 L137.45,2.3 L136.1,2.3 L136.1,0.5 L137.55,0.5 L137.55,1.5 L136.8,1.5 L136.8,1.2 L137.25,1.2 L137.25,1.2 L137.25,0.85 L137.25,0.85 L136.4,0.85 L136.4,0.85 L136.4,1.9 L136.4,1.9 L137.95,1.9 L137.95,1.9 L137.95,0 L137.95,0 L135.65,0 L135.65,0 L135.65,2.3 L134.85,2.3 L134.8,2.3 L133.45,2.3 L133.45,0.5 L134.9,0.5 L134.9,1.5 L134.15,1.5 L134.15,1.2 L134.6,1.2 L134.6,1.2 L134.6,0.85 L134.6,0.85 L133.75,0.85 L133.75,0.85 L133.75,1.9 L133.75,1.9 L135.3,1.9 L135.3,1.9 L135.3,0 L135.3,0 L133,0 L133,0 L133,2.3 L132.7,2.3 L132.7,2.35 L133.05,2.35 L133.05,2.35 L133.05,0.05 L135.3,0.05 L135.3,1.9 L133.8,1.9 L133.8,0.9 L134.6,0.9 L134.6,1.2 L134.15,1.2 L134.15,1.2 L134.15,1.55 L134.15,1.55 L134.9,1.55 L134.9,1.55 L134.9,0.5 L134.9,0.5 L133.4,0.5 L133.4,0.5 L133.4,2.35 L133.4,2.35 L134.75,2.35 L134.8,2.35 L135.65,2.35 L135.65,2.35 L135.65,0.05 L137.9,0.05 L137.9,1.9 L136.4,1.9 L136.4,0.9 L137.25,0.9 L137.25,1.2 L136.8,1.2 L136.8,1.2 L136.8,1.55 L136.8,1.55 L137.6,1.55 L137.6,1.55 L137.6,0.5 L137.6,0.5 L136.1,0.5 L136.1,0.5 L136.1,2.35 L136.1,2.35 L137.5,2.35 L137.55,2.35 L138,2.3 L138,2.3 Z" id="Shape"></path>
                                <path d="M143.3,2.3 L142.8,2.3 L142.75,2.3 L141.4,2.3 L141.4,0.5 L142.85,0.5 L142.85,1.5 L142.1,1.5 L142.1,1.2 L142.55,1.2 L142.55,1.2 L142.55,0.85 L142.55,0.85 L141.7,0.85 L141.7,0.85 L141.7,1.9 L141.7,1.9 L143.25,1.9 L143.25,1.9 L143.25,0 L143.25,0 L140.95,0 L140.95,0 L140.95,2.3 L140.15,2.3 L140.1,2.3 L138.75,2.3 L138.75,0.5 L140.2,0.5 L140.2,1.5 L139.45,1.5 L139.45,1.2 L139.9,1.2 L139.9,1.2 L139.9,0.85 L139.9,0.85 L139.05,0.85 L139.05,0.85 L139.05,1.9 L139.05,1.9 L140.6,1.9 L140.6,1.9 L140.6,0 L140.6,0 L138.3,0 L138.3,0 L138.3,2.3 L138,2.3 L138,2.35 L138.35,2.35 L138.35,2.35 L138.35,0.05 L140.6,0.05 L140.6,1.9 L139.1,1.9 L139.1,0.9 L139.95,0.9 L139.95,1.2 L139.5,1.2 L139.5,1.2 L139.5,1.55 L139.5,1.55 L140.3,1.55 L140.3,1.55 L140.3,0.5 L140.3,0.5 L138.8,0.5 L138.8,0.5 L138.8,2.35 L138.8,2.35 L140.15,2.35 L140.2,2.35 L141.05,2.35 L141.05,2.35 L141.05,0.05 L143.3,0.05 L143.3,1.9 L141.8,1.9 L141.8,0.9 L142.6,0.9 L142.6,1.2 L142.15,1.2 L142.15,1.2 L142.15,1.55 L142.15,1.55 L142.9,1.55 L142.9,1.55 L142.9,0.5 L142.9,0.5 L141.4,0.5 L141.4,0.5 L141.4,2.35 L141.4,2.35 L142.8,2.35 L142.85,2.35 L143.3,2.3 L143.3,2.3 Z" id="Shape"></path>
                                <path d="M148.6,2.3 L148.1,2.3 L148.05,2.3 L146.7,2.3 L146.7,0.5 L148.15,0.5 L148.15,1.5 L147.4,1.5 L147.4,1.2 L147.85,1.2 L147.85,1.2 L147.85,0.85 L147.85,0.85 L147,0.85 L147,0.85 L147,1.9 L147,1.9 L148.55,1.9 L148.55,1.9 L148.55,0 L148.55,0 L146.25,0 L146.25,0 L146.25,2.3 L145.45,2.3 L145.4,2.3 L144.05,2.3 L144.05,0.5 L145.5,0.5 L145.5,1.5 L144.75,1.5 L144.75,1.2 L145.2,1.2 L145.2,1.2 L145.2,0.85 L145.2,0.85 L144.35,0.85 L144.35,0.85 L144.35,1.9 L144.35,1.9 L145.9,1.9 L145.9,1.9 L145.9,0 L145.9,0 L143.6,0 L143.6,0 L143.6,2.3 L143.3,2.3 L143.3,2.35 L143.65,2.35 L143.65,2.35 L143.65,0.05 L145.9,0.05 L145.9,1.9 L144.4,1.9 L144.4,0.9 L145.2,0.9 L145.2,1.2 L144.75,1.2 L144.75,1.2 L144.75,1.55 L144.75,1.55 L145.55,1.55 L145.55,1.55 L145.55,0.5 L145.55,0.5 L144.05,0.5 L144.05,0.5 L144.05,2.35 L144.05,2.35 L145.4,2.35 L145.45,2.35 L146.3,2.35 L146.3,2.35 L146.3,0.05 L148.55,0.05 L148.55,1.9 L147.05,1.9 L147.05,0.9 L147.9,0.9 L147.9,1.2 L147.45,1.2 L147.45,1.2 L147.45,1.55 L147.45,1.55 L148.25,1.55 L148.25,1.55 L148.25,0.5 L148.25,0.5 L146.75,0.5 L146.75,0.5 L146.75,2.35 L146.75,2.35 L148.15,2.35 L148.2,2.35 L148.6,2.3 L148.6,2.3 Z" id="Shape"></path>
                                <path d="M153.9,2.3 L153.4,2.3 L153.35,2.3 L152,2.3 L152,0.5 L153.45,0.5 L153.45,1.5 L152.7,1.5 L152.7,1.2 L153.15,1.2 L153.15,1.2 L153.15,0.85 L153.15,0.85 L152.3,0.85 L152.3,0.85 L152.3,1.9 L152.3,1.9 L153.85,1.9 L153.85,1.9 L153.85,0 L153.85,0 L151.55,0 L151.55,0 L151.55,2.3 L150.75,2.3 L150.7,2.3 L149.35,2.3 L149.35,0.5 L150.8,0.5 L150.8,1.5 L150.05,1.5 L150.05,1.2 L150.5,1.2 L150.5,1.2 L150.5,0.85 L150.5,0.85 L149.65,0.85 L149.65,0.85 L149.65,1.9 L149.65,1.9 L151.2,1.9 L151.2,1.9 L151.2,0 L151.2,0 L148.9,0 L148.9,0 L148.9,2.3 L148.6,2.3 L148.6,2.35 L148.95,2.35 L148.95,2.35 L148.95,0.05 L151.2,0.05 L151.2,1.9 L149.7,1.9 L149.7,0.9 L150.55,0.9 L150.55,1.2 L150.1,1.2 L150.1,1.2 L150.1,1.55 L150.1,1.55 L150.9,1.55 L150.9,1.55 L150.9,0.5 L150.9,0.5 L149.4,0.5 L149.4,0.5 L149.4,2.35 L149.4,2.35 L150.75,2.35 L150.8,2.35 L151.65,2.35 L151.65,2.35 L151.65,0.05 L153.9,0.05 L153.9,1.9 L152.4,1.9 L152.4,0.9 L153.2,0.9 L153.2,1.2 L152.75,1.2 L152.75,1.2 L152.75,1.55 L152.75,1.55 L153.55,1.55 L153.55,1.55 L153.55,0.5 L153.55,0.5 L152.05,0.5 L152.05,0.5 L152.05,2.35 L152.05,2.35 L153.45,2.35 L153.5,2.35 L153.9,2.3 L153.9,2.3 Z" id="Shape"></path>
                                <path d="M159.2,2.3 L158.7,2.3 L158.65,2.3 L157.3,2.3 L157.3,0.5 L158.75,0.5 L158.75,1.5 L158,1.5 L158,1.2 L158.45,1.2 L158.45,1.2 L158.45,0.85 L158.45,0.85 L157.6,0.85 L157.6,0.85 L157.6,1.9 L157.6,1.9 L159.15,1.9 L159.15,1.9 L159.15,0 L159.15,0 L156.85,0 L156.85,0 L156.85,2.3 L156.05,2.3 L156,2.3 L154.65,2.3 L154.65,0.5 L156.15,0.5 L156.15,1.5 L155.4,1.5 L155.4,1.2 L155.85,1.2 L155.85,1.2 L155.85,0.85 L155.85,0.85 L155,0.85 L155,0.85 L155,1.9 L155,1.9 L156.55,1.9 L156.55,1.9 L156.55,0 L156.55,0 L154.25,0 L154.25,0 L154.25,2.3 L153.95,2.3 L153.95,2.35 L154.3,2.35 L154.3,2.35 L154.3,0.05 L156.55,0.05 L156.55,1.9 L155.05,1.9 L155.05,0.9 L155.85,0.9 L155.85,1.2 L155.4,1.2 L155.4,1.2 L155.4,1.55 L155.4,1.55 L156.2,1.55 L156.2,1.55 L156.2,0.5 L156.2,0.5 L154.7,0.5 L154.7,0.5 L154.7,2.35 L154.7,2.35 L156.05,2.35 L156.1,2.35 L156.95,2.35 L156.95,2.35 L156.95,0.05 L159.2,0.05 L159.2,1.9 L157.7,1.9 L157.7,0.9 L158.55,0.9 L158.55,1.2 L158.1,1.2 L158.1,1.2 L158.1,1.55 L158.1,1.55 L158.9,1.55 L158.9,1.55 L158.9,0.5 L158.9,0.5 L157.4,0.5 L157.4,0.5 L157.4,2.35 L157.4,2.35 L158.8,2.35 L158.85,2.35 L159.2,2.3 L159.2,2.3 Z" id="Shape"></path>
                                <path d="M164.5,2.3 L164,2.3 L163.95,2.3 L162.6,2.3 L162.6,0.5 L164.05,0.5 L164.05,1.5 L163.3,1.5 L163.3,1.2 L163.75,1.2 L163.75,1.2 L163.75,0.85 L163.75,0.85 L162.9,0.85 L162.9,0.85 L162.9,1.9 L162.9,1.9 L164.45,1.9 L164.45,1.9 L164.45,0 L164.45,0 L162.15,0 L162.15,0 L162.15,2.3 L161.35,2.3 L161.3,2.3 L159.95,2.3 L159.95,0.5 L161.4,0.5 L161.4,1.5 L160.65,1.5 L160.65,1.2 L161.1,1.2 L161.1,1.2 L161.1,0.85 L161.1,0.85 L160.25,0.85 L160.25,0.85 L160.25,1.9 L160.25,1.9 L161.8,1.9 L161.8,1.9 L161.8,0 L161.8,0 L159.5,0 L159.5,0 L159.5,2.3 L159.2,2.3 L159.2,2.35 L159.55,2.35 L159.55,2.35 L159.55,0.05 L161.8,0.05 L161.8,1.9 L160.3,1.9 L160.3,0.9 L161.15,0.9 L161.15,1.2 L160.7,1.2 L160.7,1.2 L160.7,1.55 L160.7,1.55 L161.5,1.55 L161.5,1.55 L161.5,0.5 L161.5,0.5 L160,0.5 L160,0.5 L160,2.35 L160,2.35 L161.35,2.35 L161.4,2.35 L162.25,2.35 L162.25,2.35 L162.25,0.05 L164.5,0.05 L164.5,1.9 L163,1.9 L163,0.9 L163.8,0.9 L163.8,1.2 L163.35,1.2 L163.35,1.2 L163.35,1.55 L163.35,1.55 L164.15,1.55 L164.15,1.55 L164.15,0.5 L164.15,0.5 L162.65,0.5 L162.65,0.5 L162.65,2.35 L162.65,2.35 L164.05,2.35 L164.1,2.35 L164.5,2.3 L164.5,2.3 Z" id="Shape"></path>
                                <path d="M169.8,2.3 L169.3,2.3 L169.25,2.3 L167.9,2.3 L167.9,0.5 L169.35,0.5 L169.35,1.5 L168.6,1.5 L168.6,1.2 L169.05,1.2 L169.05,1.2 L169.05,0.85 L169.05,0.85 L168.2,0.85 L168.2,0.85 L168.2,1.9 L168.2,1.9 L169.75,1.9 L169.75,1.9 L169.75,0 L169.75,0 L167.45,0 L167.45,0 L167.45,2.3 L166.65,2.3 L166.6,2.3 L165.25,2.3 L165.25,0.5 L166.75,0.5 L166.75,1.5 L166,1.5 L166,1.2 L166.45,1.2 L166.45,1.2 L166.45,0.85 L166.45,0.85 L165.6,0.85 L165.6,0.85 L165.6,1.9 L165.6,1.9 L167.15,1.9 L167.15,1.9 L167.15,0 L167.15,0 L164.85,0 L164.85,0 L164.85,2.3 L164.55,2.3 L164.55,2.35 L164.9,2.35 L164.9,2.35 L164.9,0.05 L167.15,0.05 L167.15,1.9 L165.65,1.9 L165.65,0.9 L166.45,0.9 L166.45,1.2 L166,1.2 L166,1.2 L166,1.55 L166,1.55 L166.8,1.55 L166.8,1.55 L166.8,0.5 L166.8,0.5 L165.3,0.5 L165.3,0.5 L165.3,2.35 L165.3,2.35 L166.65,2.35 L166.7,2.35 L167.55,2.35 L167.55,2.35 L167.55,0.05 L169.8,0.05 L169.8,1.9 L168.3,1.9 L168.3,0.9 L169.15,0.9 L169.15,1.2 L168.7,1.2 L168.7,1.2 L168.7,1.55 L168.7,1.55 L169.5,1.55 L169.5,1.55 L169.5,0.5 L169.5,0.5 L168,0.5 L168,0.5 L168,2.35 L168,2.35 L169.4,2.35 L169.45,2.35 L169.8,2.3 L169.8,2.3 Z" id="Shape"></path>
                                <path d="M175.1,2.3 L174.6,2.3 L174.55,2.3 L173.2,2.3 L173.2,0.5 L174.65,0.5 L174.65,1.5 L173.9,1.5 L173.9,1.2 L174.35,1.2 L174.35,1.2 L174.35,0.85 L174.35,0.85 L173.5,0.85 L173.5,0.85 L173.5,1.9 L173.5,1.9 L175.05,1.9 L175.05,1.9 L175.05,0 L175.05,0 L172.75,0 L172.75,0 L172.75,2.3 L171.95,2.3 L171.9,2.3 L170.55,2.3 L170.55,0.5 L172,0.5 L172,1.5 L171.25,1.5 L171.25,1.2 L171.7,1.2 L171.7,1.2 L171.7,0.85 L171.7,0.85 L170.85,0.85 L170.85,0.85 L170.85,1.9 L170.85,1.9 L172.4,1.9 L172.4,1.9 L172.4,0 L172.4,0 L170.1,0 L170.1,0 L170.1,2.3 L169.8,2.3 L169.8,2.35 L170.15,2.35 L170.15,2.35 L170.15,0.05 L172.4,0.05 L172.4,1.9 L170.9,1.9 L170.9,0.9 L171.75,0.9 L171.75,1.2 L171.3,1.2 L171.3,1.2 L171.3,1.55 L171.3,1.55 L172.1,1.55 L172.1,1.55 L172.1,0.5 L172.1,0.5 L170.6,0.5 L170.6,0.5 L170.6,2.35 L170.6,2.35 L171.95,2.35 L172,2.35 L172.85,2.35 L172.85,2.35 L172.85,0.05 L175.1,0.05 L175.1,1.9 L173.6,1.9 L173.6,0.9 L174.4,0.9 L174.4,1.2 L173.95,1.2 L173.95,1.2 L173.95,1.55 L173.95,1.55 L174.75,1.55 L174.75,1.55 L174.75,0.5 L174.75,0.5 L173.25,0.5 L173.25,0.5 L173.25,2.35 L173.25,2.35 L174.65,2.35 L174.7,2.35 L175.1,2.3 L175.1,2.3 Z" id="Shape"></path>
                                <path d="M180.45,2.3 L179.95,2.3 L179.9,2.3 L178.55,2.3 L178.55,0.5 L180,0.5 L180,1.5 L179.25,1.5 L179.25,1.2 L179.7,1.2 L179.7,1.2 L179.7,0.85 L179.7,0.85 L178.85,0.85 L178.85,0.85 L178.85,1.9 L178.85,1.9 L180.4,1.9 L180.4,1.9 L180.4,0 L180.4,0 L178.1,0 L178.1,0 L178.1,2.3 L177.3,2.3 L177.25,2.3 L175.9,2.3 L175.9,0.5 L177.4,0.5 L177.4,1.5 L176.65,1.5 L176.65,1.2 L177.1,1.2 L177.1,1.2 L177.1,0.85 L177.1,0.85 L176.25,0.85 L176.25,0.85 L176.25,1.9 L176.25,1.9 L177.8,1.9 L177.8,1.9 L177.8,0 L177.8,0 L175.5,0 L175.5,0 L175.5,2.3 L175.2,2.3 L175.2,2.35 L175.55,2.35 L175.55,2.35 L175.55,0.05 L177.8,0.05 L177.8,1.9 L176.3,1.9 L176.3,0.9 L177.1,0.9 L177.1,1.2 L176.65,1.2 L176.65,1.2 L176.65,1.55 L176.65,1.55 L177.45,1.55 L177.45,1.55 L177.45,0.5 L177.45,0.5 L175.95,0.5 L175.95,0.5 L175.95,2.35 L175.95,2.35 L177.3,2.35 L177.35,2.35 L178.2,2.35 L178.2,2.35 L178.2,0.05 L180.45,0.05 L180.45,1.9 L178.95,1.9 L178.95,0.9 L179.8,0.9 L179.8,1.2 L179.35,1.2 L179.35,1.2 L179.35,1.55 L179.35,1.55 L180.15,1.55 L180.15,1.55 L180.15,0.5 L180.15,0.5 L178.65,0.5 L178.65,0.5 L178.65,2.35 L178.65,2.35 L180.05,2.35 L180.1,2.35 L180.45,2.3 L180.45,2.3 Z" id="Shape"></path>
                                <path d="M185.75,2.3 L185.25,2.3 L185.2,2.3 L183.85,2.3 L183.85,0.5 L185.3,0.5 L185.3,1.5 L184.55,1.5 L184.55,1.2 L185,1.2 L185,1.2 L185,0.85 L185,0.85 L184.15,0.85 L184.15,0.85 L184.15,1.9 L184.15,1.9 L185.7,1.9 L185.7,1.9 L185.7,0 L185.7,0 L183.4,0 L183.4,0 L183.4,2.3 L182.6,2.3 L182.55,2.3 L181.2,2.3 L181.2,0.5 L182.65,0.5 L182.65,1.5 L181.9,1.5 L181.9,1.2 L182.35,1.2 L182.35,1.2 L182.35,0.85 L182.35,0.85 L181.5,0.85 L181.5,0.85 L181.5,1.9 L181.5,1.9 L183.05,1.9 L183.05,1.9 L183.05,0 L183.05,0 L180.75,0 L180.75,0 L180.75,2.3 L180.45,2.3 L180.45,2.35 L180.8,2.35 L180.8,2.35 L180.8,0.05 L183.05,0.05 L183.05,1.9 L181.55,1.9 L181.55,0.9 L182.4,0.9 L182.4,1.2 L181.95,1.2 L181.95,1.2 L181.95,1.55 L181.95,1.55 L182.7,1.55 L182.7,1.55 L182.7,0.5 L182.7,0.5 L181.2,0.5 L181.2,0.5 L181.2,2.35 L181.2,2.35 L182.55,2.35 L182.6,2.35 L183.45,2.35 L183.45,2.35 L183.45,0.05 L185.7,0.05 L185.7,1.9 L184.2,1.9 L184.2,0.9 L185,0.9 L185,1.2 L184.55,1.2 L184.55,1.2 L184.55,1.55 L184.55,1.55 L185.35,1.55 L185.35,1.55 L185.35,0.5 L185.35,0.5 L183.85,0.5 L183.85,0.5 L183.85,2.35 L183.85,2.35 L185.25,2.35 L185.3,2.35 L185.75,2.3 L185.75,2.3 Z" id="Shape"></path>
                                <path d="M191.05,2.3 L190.55,2.3 L190.5,2.3 L189.15,2.3 L189.15,0.5 L190.6,0.5 L190.6,1.5 L189.85,1.5 L189.85,1.2 L190.3,1.2 L190.3,1.2 L190.3,0.85 L190.3,0.85 L189.45,0.85 L189.45,0.85 L189.45,1.9 L189.45,1.9 L191,1.9 L191,1.9 L191,0 L191,0 L188.7,0 L188.7,0 L188.7,2.3 L187.9,2.3 L187.85,2.3 L186.5,2.3 L186.5,0.5 L188,0.5 L188,1.5 L187.25,1.5 L187.25,1.2 L187.7,1.2 L187.7,1.2 L187.7,0.85 L187.7,0.85 L186.85,0.85 L186.85,0.85 L186.85,1.9 L186.85,1.9 L188.4,1.9 L188.4,1.9 L188.4,0 L188.4,0 L186.1,0 L186.1,0 L186.1,2.3 L185.8,2.3 L185.8,2.35 L186.15,2.35 L186.15,2.35 L186.15,0.05 L188.4,0.05 L188.4,1.9 L186.9,1.9 L186.9,0.9 L187.75,0.9 L187.75,1.2 L187.3,1.2 L187.3,1.2 L187.3,1.55 L187.3,1.55 L188.1,1.55 L188.1,1.55 L188.1,0.5 L188.1,0.5 L186.6,0.5 L186.6,0.5 L186.6,2.35 L186.6,2.35 L187.95,2.35 L188,2.35 L188.85,2.35 L188.85,2.35 L188.85,0.05 L191.1,0.05 L191.1,1.9 L189.6,1.9 L189.6,0.9 L190.45,0.9 L190.45,1.2 L190,1.2 L190,1.2 L190,1.55 L190,1.55 L190.8,1.55 L190.8,1.55 L190.8,0.5 L190.8,0.5 L189.3,0.5 L189.3,0.5 L189.3,2.35 L189.3,2.35 L190.7,2.35 L190.75,2.35 L191.05,2.3 L191.05,2.3 Z" id="Shape"></path>
                            </g>
                            <g id="Group" transform="translate(0.000000, 129.000000)" fill="#DC7D27">
                                <path d="M68.35,0.05 L68.85,0.05 L68.9,0.05 L70.25,0.05 L70.25,1.85 L68.8,1.85 L68.8,0.85 L69.55,0.85 L69.55,1.15 L69.1,1.15 L69.1,1.15 L69.1,1.5 L69.1,1.5 L69.95,1.5 L69.95,1.5 L69.95,0.45 L69.95,0.45 L68.45,0.45 L68.45,0.45 L68.45,2.35 L68.45,2.35 L70.7,2.35 L70.7,2.35 L70.7,0.05 L71.5,0.05 L71.55,0.05 L72.9,0.05 L72.9,1.85 L71.45,1.85 L71.45,0.85 L72.2,0.85 L72.2,1.15 L71.75,1.15 L71.75,1.15 L71.75,1.5 L71.75,1.5 L72.6,1.5 L72.6,1.5 L72.6,0.45 L72.6,0.45 L71.1,0.45 L71.1,0.45 L71.1,2.35 L71.1,2.35 L73.35,2.35 L73.35,2.35 L73.35,0.05 L73.65,0.05 L73.65,0 L73.3,0 L73.3,0 L73.3,2.3 L71.05,2.3 L71.05,0.45 L72.55,0.45 L72.55,1.45 L71.75,1.45 L71.75,1.15 L72.2,1.15 L72.2,1.15 L72.2,0.8 L72.2,0.8 L71.45,0.8 L71.45,0.8 L71.45,1.85 L71.45,1.85 L72.95,1.85 L72.95,1.85 L72.95,2.27373675e-13 L72.95,2.27373675e-13 L71.6,2.27373675e-13 L71.55,2.27373675e-13 L70.75,2.27373675e-13 L70.75,2.27373675e-13 L70.75,2.3 L68.5,2.3 L68.5,0.45 L70,0.45 L70,1.45 L69.2,1.45 L69.2,1.15 L69.65,1.15 L69.65,1.15 L69.65,0.8 L69.65,0.8 L68.9,0.8 L68.9,0.8 L68.9,1.85 L68.9,1.85 L70.4,1.85 L70.4,1.85 L70.4,4.54747351e-13 L70.4,4.54747351e-13 L69.05,4.54747351e-13 L69,4.54747351e-13 L68.35,0.05 L68.35,0.05 Z" id="Shape"></path>
                                <path d="M63.1,0.05 L63.6,0.05 L63.65,0.05 L65,0.05 L65,1.85 L63.55,1.85 L63.55,0.85 L64.3,0.85 L64.3,1.15 L63.85,1.15 L63.85,1.15 L63.85,1.5 L63.85,1.5 L64.7,1.5 L64.7,1.5 L64.7,0.45 L64.7,0.45 L63.2,0.45 L63.2,0.45 L63.2,2.35 L63.2,2.35 L65.45,2.35 L65.45,2.35 L65.45,0.05 L66.25,0.05 L66.3,0.05 L67.65,0.05 L67.65,1.85 L66.2,1.85 L66.2,0.85 L66.95,0.85 L66.95,1.15 L66.5,1.15 L66.5,1.15 L66.5,1.5 L66.5,1.5 L67.35,1.5 L67.35,1.5 L67.35,0.45 L67.35,0.45 L65.85,0.45 L65.85,0.45 L65.85,2.35 L65.85,2.35 L68.1,2.35 L68.1,2.35 L68.1,0.05 L68.4,0.05 L68.4,0 L68.05,0 L68.05,0 L68.05,2.3 L65.8,2.3 L65.8,0.45 L67.3,0.45 L67.3,1.45 L66.5,1.45 L66.5,1.15 L66.95,1.15 L66.95,1.15 L66.95,0.8 L66.95,0.8 L66.2,0.8 L66.2,0.8 L66.2,1.85 L66.2,1.85 L67.7,1.85 L67.7,1.85 L67.7,2.27373675e-13 L67.7,2.27373675e-13 L66.35,2.27373675e-13 L66.3,2.27373675e-13 L65.5,2.27373675e-13 L65.5,2.27373675e-13 L65.5,2.3 L63.25,2.3 L63.25,0.45 L64.75,0.45 L64.75,1.45 L63.95,1.45 L63.95,1.15 L64.4,1.15 L64.4,1.15 L64.4,0.8 L64.4,0.8 L63.65,0.8 L63.65,0.8 L63.65,1.85 L63.65,1.85 L65.15,1.85 L65.15,1.85 L65.15,4.54747351e-13 L65.15,4.54747351e-13 L63.8,4.54747351e-13 L63.75,4.54747351e-13 L63.1,0.05 L63.1,0.05 Z" id="Shape"></path>
                                <path d="M57.85,0.05 L58.35,0.05 L58.4,0.05 L59.75,0.05 L59.75,1.85 L58.3,1.85 L58.3,0.85 L59.05,0.85 L59.05,1.15 L58.6,1.15 L58.6,1.15 L58.6,1.5 L58.6,1.5 L59.45,1.5 L59.45,1.5 L59.45,0.45 L59.45,0.45 L57.95,0.45 L57.95,0.45 L57.95,2.35 L57.95,2.35 L60.2,2.35 L60.2,2.35 L60.2,0.05 L61,0.05 L61.05,0.05 L62.4,0.05 L62.4,1.85 L60.95,1.85 L60.95,0.85 L61.7,0.85 L61.7,1.15 L61.25,1.15 L61.25,1.15 L61.25,1.5 L61.25,1.5 L62.1,1.5 L62.1,1.5 L62.1,0.45 L62.1,0.45 L60.6,0.45 L60.6,0.45 L60.6,2.35 L60.6,2.35 L62.85,2.35 L62.85,2.35 L62.85,0.05 L63.15,0.05 L63.15,0 L62.8,0 L62.8,0 L62.8,2.3 L60.55,2.3 L60.55,0.45 L62.05,0.45 L62.05,1.45 L61.25,1.45 L61.25,1.15 L61.7,1.15 L61.7,1.15 L61.7,0.8 L61.7,0.8 L60.95,0.8 L60.95,0.8 L60.95,1.85 L60.95,1.85 L62.45,1.85 L62.45,1.85 L62.45,2.27373675e-13 L62.45,2.27373675e-13 L61.1,2.27373675e-13 L61.05,2.27373675e-13 L60.25,2.27373675e-13 L60.25,2.27373675e-13 L60.25,2.3 L58,2.3 L58,0.45 L59.5,0.45 L59.5,1.45 L58.7,1.45 L58.7,1.15 L59.15,1.15 L59.15,1.15 L59.15,0.8 L59.15,0.8 L58.4,0.8 L58.4,0.8 L58.4,1.85 L58.4,1.85 L59.9,1.85 L59.9,1.85 L59.9,4.54747351e-13 L59.9,4.54747351e-13 L58.55,4.54747351e-13 L58.5,4.54747351e-13 L57.85,0.05 L57.85,0.05 Z" id="Shape"></path>
                                <path d="M52.6,0.05 L53.1,0.05 L53.15,0.05 L54.5,0.05 L54.5,1.85 L53.05,1.85 L53.05,0.85 L53.8,0.85 L53.8,1.15 L53.35,1.15 L53.35,1.15 L53.35,1.5 L53.35,1.5 L54.2,1.5 L54.2,1.5 L54.2,0.45 L54.2,0.45 L52.7,0.45 L52.7,0.45 L52.7,2.35 L52.7,2.35 L54.95,2.35 L54.95,2.35 L54.95,0.05 L55.75,0.05 L55.8,0.05 L57.15,0.05 L57.15,1.85 L55.7,1.85 L55.7,0.85 L56.45,0.85 L56.45,1.15 L56,1.15 L56,1.15 L56,1.5 L56,1.5 L56.85,1.5 L56.85,1.5 L56.85,0.45 L56.85,0.45 L55.35,0.45 L55.35,0.45 L55.35,2.35 L55.35,2.35 L57.6,2.35 L57.6,2.35 L57.6,0.05 L57.9,0.05 L57.9,0 L57.55,0 L57.55,0 L57.55,2.3 L55.3,2.3 L55.3,0.45 L56.8,0.45 L56.8,1.45 L56,1.45 L56,1.15 L56.45,1.15 L56.45,1.15 L56.45,0.8 L56.45,0.8 L55.7,0.8 L55.7,0.8 L55.7,1.85 L55.7,1.85 L57.2,1.85 L57.2,1.85 L57.2,2.27373675e-13 L57.2,2.27373675e-13 L55.85,2.27373675e-13 L55.8,2.27373675e-13 L55,2.27373675e-13 L55,2.27373675e-13 L55,2.3 L52.75,2.3 L52.75,0.45 L54.25,0.45 L54.25,1.45 L53.45,1.45 L53.45,1.15 L53.9,1.15 L53.9,1.15 L53.9,0.8 L53.9,0.8 L53.15,0.8 L53.15,0.8 L53.15,1.85 L53.15,1.85 L54.65,1.85 L54.65,1.85 L54.65,4.54747351e-13 L54.65,4.54747351e-13 L53.3,4.54747351e-13 L53.25,4.54747351e-13 L52.6,0.05 L52.6,0.05 Z" id="Shape"></path>
                                <path d="M47.35,0.05 L47.85,0.05 L47.9,0.05 L49.25,0.05 L49.25,1.85 L47.8,1.85 L47.8,0.85 L48.55,0.85 L48.55,1.15 L48.1,1.15 L48.1,1.15 L48.1,1.5 L48.1,1.5 L48.95,1.5 L48.95,1.5 L48.95,0.45 L48.95,0.45 L47.45,0.45 L47.45,0.45 L47.45,2.35 L47.45,2.35 L49.7,2.35 L49.7,2.35 L49.7,0.05 L50.5,0.05 L50.55,0.05 L51.9,0.05 L51.9,1.85 L50.45,1.85 L50.45,0.85 L51.2,0.85 L51.2,1.15 L50.75,1.15 L50.75,1.15 L50.75,1.5 L50.75,1.5 L51.6,1.5 L51.6,1.5 L51.6,0.45 L51.6,0.45 L50.1,0.45 L50.1,0.45 L50.1,2.35 L50.1,2.35 L52.35,2.35 L52.35,2.35 L52.35,0.05 L52.65,0.05 L52.65,0 L52.3,0 L52.3,0 L52.3,2.3 L50.05,2.3 L50.05,0.45 L51.55,0.45 L51.55,1.45 L50.75,1.45 L50.75,1.15 L51.2,1.15 L51.2,1.15 L51.2,0.8 L51.2,0.8 L50.45,0.8 L50.45,0.8 L50.45,1.85 L50.45,1.85 L51.95,1.85 L51.95,1.85 L51.95,2.27373675e-13 L51.95,2.27373675e-13 L50.6,2.27373675e-13 L50.55,2.27373675e-13 L49.75,2.27373675e-13 L49.75,2.27373675e-13 L49.75,2.3 L47.5,2.3 L47.5,0.45 L49,0.45 L49,1.45 L48.2,1.45 L48.2,1.15 L48.65,1.15 L48.65,1.15 L48.65,0.8 L48.65,0.8 L47.9,0.8 L47.9,0.8 L47.9,1.85 L47.9,1.85 L49.4,1.85 L49.4,1.85 L49.4,4.54747351e-13 L49.4,4.54747351e-13 L48.05,4.54747351e-13 L48,4.54747351e-13 L47.35,0.05 L47.35,0.05 Z" id="Shape"></path>
                                <path d="M42.1,0.05 L42.6,0.05 L42.65,0.05 L44,0.05 L44,1.85 L42.55,1.85 L42.55,0.85 L43.3,0.85 L43.3,1.15 L42.85,1.15 L42.85,1.15 L42.85,1.5 L42.85,1.5 L43.7,1.5 L43.7,1.5 L43.7,0.45 L43.7,0.45 L42.2,0.45 L42.2,0.45 L42.2,2.35 L42.2,2.35 L44.45,2.35 L44.45,2.35 L44.45,0.05 L45.25,0.05 L45.3,0.05 L46.65,0.05 L46.65,1.85 L45.2,1.85 L45.2,0.85 L45.95,0.85 L45.95,1.15 L45.5,1.15 L45.5,1.15 L45.5,1.5 L45.5,1.5 L46.35,1.5 L46.35,1.5 L46.35,0.45 L46.35,0.45 L44.85,0.45 L44.85,0.45 L44.85,2.35 L44.85,2.35 L47.1,2.35 L47.1,2.35 L47.1,0.05 L47.4,0.05 L47.4,0 L47.05,0 L47.05,0 L47.05,2.3 L44.8,2.3 L44.8,0.45 L46.3,0.45 L46.3,1.45 L45.5,1.45 L45.5,1.15 L45.95,1.15 L45.95,1.15 L45.95,0.8 L45.95,0.8 L45.2,0.8 L45.2,0.8 L45.2,1.85 L45.2,1.85 L46.7,1.85 L46.7,1.85 L46.7,2.27373675e-13 L46.7,2.27373675e-13 L45.35,2.27373675e-13 L45.3,2.27373675e-13 L44.5,2.27373675e-13 L44.5,2.27373675e-13 L44.5,2.3 L42.25,2.3 L42.25,0.45 L43.75,0.45 L43.75,1.45 L42.95,1.45 L42.95,1.15 L43.4,1.15 L43.4,1.15 L43.4,0.8 L43.4,0.8 L42.65,0.8 L42.65,0.8 L42.65,1.85 L42.65,1.85 L44.15,1.85 L44.15,1.85 L44.15,4.54747351e-13 L44.15,4.54747351e-13 L42.8,4.54747351e-13 L42.75,4.54747351e-13 L42.1,0.05 L42.1,0.05 Z" id="Shape"></path>
                                <path d="M36.85,0.05 L37.35,0.05 L37.4,0.05 L38.75,0.05 L38.75,1.85 L37.3,1.85 L37.3,0.85 L38.05,0.85 L38.05,1.15 L37.6,1.15 L37.6,1.15 L37.6,1.5 L37.6,1.5 L38.45,1.5 L38.45,1.5 L38.45,0.45 L38.45,0.45 L36.95,0.45 L36.95,0.45 L36.95,2.35 L36.95,2.35 L39.2,2.35 L39.2,2.35 L39.2,0.05 L40,0.05 L40.05,0.05 L41.4,0.05 L41.4,1.85 L39.95,1.85 L39.95,0.85 L40.7,0.85 L40.7,1.15 L40.25,1.15 L40.25,1.15 L40.25,1.5 L40.25,1.5 L41.1,1.5 L41.1,1.5 L41.1,0.45 L41.1,0.45 L39.6,0.45 L39.6,0.45 L39.6,2.35 L39.6,2.35 L41.85,2.35 L41.85,2.35 L41.85,0.05 L42.15,0.05 L42.15,0 L41.8,0 L41.8,0 L41.8,2.3 L39.55,2.3 L39.55,0.45 L41.05,0.45 L41.05,1.45 L40.25,1.45 L40.25,1.15 L40.7,1.15 L40.7,1.15 L40.7,0.8 L40.7,0.8 L39.95,0.8 L39.95,0.8 L39.95,1.85 L39.95,1.85 L41.45,1.85 L41.45,1.85 L41.45,2.27373675e-13 L41.45,2.27373675e-13 L40.1,2.27373675e-13 L40.05,2.27373675e-13 L39.25,2.27373675e-13 L39.25,2.27373675e-13 L39.25,2.3 L37,2.3 L37,0.45 L38.5,0.45 L38.5,1.45 L37.7,1.45 L37.7,1.15 L38.15,1.15 L38.15,1.15 L38.15,0.8 L38.15,0.8 L37.4,0.8 L37.4,0.8 L37.4,1.85 L37.4,1.85 L38.9,1.85 L38.9,1.85 L38.9,4.54747351e-13 L38.9,4.54747351e-13 L37.55,4.54747351e-13 L37.5,4.54747351e-13 L36.85,0.05 L36.85,0.05 Z" id="Shape"></path>
                                <path d="M31.6,0.05 L32.1,0.05 L32.15,0.05 L33.5,0.05 L33.5,1.85 L32.05,1.85 L32.05,0.85 L32.8,0.85 L32.8,1.15 L32.35,1.15 L32.35,1.15 L32.35,1.5 L32.35,1.5 L33.2,1.5 L33.2,1.5 L33.2,0.45 L33.2,0.45 L31.7,0.45 L31.7,0.45 L31.7,2.35 L31.7,2.35 L33.95,2.35 L33.95,2.35 L33.95,0.05 L34.75,0.05 L34.8,0.05 L36.15,0.05 L36.15,1.85 L34.7,1.85 L34.7,0.85 L35.45,0.85 L35.45,1.15 L35,1.15 L35,1.15 L35,1.5 L35,1.5 L35.85,1.5 L35.85,1.5 L35.85,0.45 L35.85,0.45 L34.35,0.45 L34.35,0.45 L34.35,2.35 L34.35,2.35 L36.6,2.35 L36.6,2.35 L36.6,0.05 L36.9,0.05 L36.9,0 L36.55,0 L36.55,0 L36.55,2.3 L34.3,2.3 L34.3,0.45 L35.8,0.45 L35.8,1.45 L35,1.45 L35,1.15 L35.45,1.15 L35.45,1.15 L35.45,0.8 L35.45,0.8 L34.7,0.8 L34.7,0.8 L34.7,1.85 L34.7,1.85 L36.2,1.85 L36.2,1.85 L36.2,2.27373675e-13 L36.2,2.27373675e-13 L34.85,2.27373675e-13 L34.8,2.27373675e-13 L34,2.27373675e-13 L34,2.27373675e-13 L34,2.3 L31.75,2.3 L31.75,0.45 L33.25,0.45 L33.25,1.45 L32.45,1.45 L32.45,1.15 L32.9,1.15 L32.9,1.15 L32.9,0.8 L32.9,0.8 L32.15,0.8 L32.15,0.8 L32.15,1.85 L32.15,1.85 L33.65,1.85 L33.65,1.85 L33.65,4.54747351e-13 L33.65,4.54747351e-13 L32.3,4.54747351e-13 L32.25,4.54747351e-13 L31.6,0.05 L31.6,0.05 Z" id="Shape"></path>
                                <path d="M26.35,0.05 L26.85,0.05 L26.9,0.05 L28.25,0.05 L28.25,1.85 L26.8,1.85 L26.8,0.85 L27.55,0.85 L27.55,1.15 L27.1,1.15 L27.1,1.15 L27.1,1.5 L27.1,1.5 L27.95,1.5 L27.95,1.5 L27.95,0.45 L27.95,0.45 L26.45,0.45 L26.45,0.45 L26.45,2.35 L26.45,2.35 L28.7,2.35 L28.7,2.35 L28.7,0.05 L29.5,0.05 L29.55,0.05 L30.9,0.05 L30.9,1.85 L29.45,1.85 L29.45,0.85 L30.2,0.85 L30.2,1.15 L29.75,1.15 L29.75,1.15 L29.75,1.5 L29.75,1.5 L30.6,1.5 L30.6,1.5 L30.6,0.45 L30.6,0.45 L29.1,0.45 L29.1,0.45 L29.1,2.35 L29.1,2.35 L31.35,2.35 L31.35,2.35 L31.35,0.05 L31.65,0.05 L31.65,0 L31.3,0 L31.3,0 L31.3,2.3 L29.05,2.3 L29.05,0.45 L30.55,0.45 L30.55,1.45 L29.75,1.45 L29.75,1.15 L30.2,1.15 L30.2,1.15 L30.2,0.8 L30.2,0.8 L29.45,0.8 L29.45,0.8 L29.45,1.85 L29.45,1.85 L30.95,1.85 L30.95,1.85 L30.95,2.27373675e-13 L30.95,2.27373675e-13 L29.6,2.27373675e-13 L29.55,2.27373675e-13 L28.75,2.27373675e-13 L28.75,2.27373675e-13 L28.75,2.3 L26.5,2.3 L26.5,0.45 L28,0.45 L28,1.45 L27.2,1.45 L27.2,1.15 L27.65,1.15 L27.65,1.15 L27.65,0.8 L27.65,0.8 L26.9,0.8 L26.9,0.8 L26.9,1.85 L26.9,1.85 L28.4,1.85 L28.4,1.85 L28.4,4.54747351e-13 L28.4,4.54747351e-13 L27.05,4.54747351e-13 L27,4.54747351e-13 L26.35,0.05 L26.35,0.05 Z" id="Shape"></path>
                                <path d="M21.1,0.05 L21.6,0.05 L21.65,0.05 L23,0.05 L23,1.85 L21.55,1.85 L21.55,0.85 L22.3,0.85 L22.3,1.15 L21.85,1.15 L21.85,1.15 L21.85,1.5 L21.85,1.5 L22.7,1.5 L22.7,1.5 L22.7,0.45 L22.7,0.45 L21.2,0.45 L21.2,0.45 L21.2,2.35 L21.2,2.35 L23.45,2.35 L23.45,2.35 L23.45,0.05 L24.25,0.05 L24.3,0.05 L25.65,0.05 L25.65,1.85 L24.2,1.85 L24.2,0.85 L24.95,0.85 L24.95,1.15 L24.5,1.15 L24.5,1.15 L24.5,1.5 L24.5,1.5 L25.35,1.5 L25.35,1.5 L25.35,0.45 L25.35,0.45 L23.85,0.45 L23.85,0.45 L23.85,2.35 L23.85,2.35 L26.1,2.35 L26.1,2.35 L26.1,0.05 L26.4,0.05 L26.4,0 L26.05,0 L26.05,0 L26.05,2.3 L23.8,2.3 L23.8,0.45 L25.3,0.45 L25.3,1.45 L24.5,1.45 L24.5,1.15 L24.95,1.15 L24.95,1.15 L24.95,0.8 L24.95,0.8 L24.2,0.8 L24.2,0.8 L24.2,1.85 L24.2,1.85 L25.7,1.85 L25.7,1.85 L25.7,2.27373675e-13 L25.7,2.27373675e-13 L24.35,2.27373675e-13 L24.3,2.27373675e-13 L23.5,2.27373675e-13 L23.5,2.27373675e-13 L23.5,2.3 L21.25,2.3 L21.25,0.45 L22.75,0.45 L22.75,1.45 L21.95,1.45 L21.95,1.15 L22.4,1.15 L22.4,1.15 L22.4,0.8 L22.4,0.8 L21.65,0.8 L21.65,0.8 L21.65,1.85 L21.65,1.85 L23.15,1.85 L23.15,1.85 L23.15,4.54747351e-13 L23.15,4.54747351e-13 L21.8,4.54747351e-13 L21.75,4.54747351e-13 L21.1,0.05 L21.1,0.05 Z" id="Shape"></path>
                                <path d="M15.85,0.05 L16.35,0.05 L16.4,0.05 L17.75,0.05 L17.75,1.85 L16.3,1.85 L16.3,0.85 L17.05,0.85 L17.05,1.15 L16.6,1.15 L16.6,1.15 L16.6,1.5 L16.6,1.5 L17.45,1.5 L17.45,1.5 L17.45,0.45 L17.45,0.45 L15.95,0.45 L15.95,0.45 L15.95,2.35 L15.95,2.35 L18.2,2.35 L18.2,2.35 L18.2,0.05 L19,0.05 L19.05,0.05 L20.4,0.05 L20.4,1.85 L18.95,1.85 L18.95,0.85 L19.7,0.85 L19.7,1.15 L19.25,1.15 L19.25,1.15 L19.25,1.5 L19.25,1.5 L20.1,1.5 L20.1,1.5 L20.1,0.45 L20.1,0.45 L18.6,0.45 L18.6,0.45 L18.6,2.35 L18.6,2.35 L20.85,2.35 L20.85,2.35 L20.85,0.05 L21.15,0.05 L21.15,0 L20.8,0 L20.8,0 L20.8,2.3 L18.55,2.3 L18.55,0.45 L20.05,0.45 L20.05,1.45 L19.25,1.45 L19.25,1.15 L19.7,1.15 L19.7,1.15 L19.7,0.8 L19.7,0.8 L18.95,0.8 L18.95,0.8 L18.95,1.85 L18.95,1.85 L20.45,1.85 L20.45,1.85 L20.45,2.27373675e-13 L20.45,2.27373675e-13 L19.1,2.27373675e-13 L19.05,2.27373675e-13 L18.25,2.27373675e-13 L18.25,2.27373675e-13 L18.25,2.3 L16,2.3 L16,0.45 L17.5,0.45 L17.5,1.45 L16.7,1.45 L16.7,1.15 L17.15,1.15 L17.15,1.15 L17.15,0.8 L17.15,0.8 L16.4,0.8 L16.4,0.8 L16.4,1.85 L16.4,1.85 L17.9,1.85 L17.9,1.85 L17.9,4.54747351e-13 L17.9,4.54747351e-13 L16.55,4.54747351e-13 L16.5,4.54747351e-13 L15.85,0.05 L15.85,0.05 Z" id="Shape"></path>
                                <path d="M10.6,0.05 L11.1,0.05 L11.15,0.05 L12.5,0.05 L12.5,1.85 L11.05,1.85 L11.05,0.85 L11.8,0.85 L11.8,1.15 L11.35,1.15 L11.35,1.15 L11.35,1.5 L11.35,1.5 L12.2,1.5 L12.2,1.5 L12.2,0.45 L12.2,0.45 L10.7,0.45 L10.7,0.45 L10.7,2.35 L10.7,2.35 L12.95,2.35 L12.95,2.35 L12.95,0.05 L13.75,0.05 L13.8,0.05 L15.15,0.05 L15.15,1.85 L13.7,1.85 L13.7,0.85 L14.45,0.85 L14.45,1.15 L14,1.15 L14,1.15 L14,1.5 L14,1.5 L14.85,1.5 L14.85,1.5 L14.85,0.45 L14.85,0.45 L13.35,0.45 L13.35,0.45 L13.35,2.35 L13.35,2.35 L15.6,2.35 L15.6,2.35 L15.6,0.05 L15.9,0.05 L15.9,0 L15.55,0 L15.55,0 L15.55,2.3 L13.3,2.3 L13.3,0.45 L14.8,0.45 L14.8,1.45 L14,1.45 L14,1.15 L14.45,1.15 L14.45,1.15 L14.45,0.8 L14.45,0.8 L13.7,0.8 L13.7,0.8 L13.7,1.85 L13.7,1.85 L15.2,1.85 L15.2,1.85 L15.2,2.27373675e-13 L15.2,2.27373675e-13 L13.85,2.27373675e-13 L13.8,2.27373675e-13 L13,2.27373675e-13 L13,2.27373675e-13 L13,2.3 L10.75,2.3 L10.75,0.45 L12.25,0.45 L12.25,1.45 L11.45,1.45 L11.45,1.15 L11.9,1.15 L11.9,1.15 L11.9,0.8 L11.9,0.8 L11.15,0.8 L11.15,0.8 L11.15,1.85 L11.15,1.85 L12.65,1.85 L12.65,1.85 L12.65,4.54747351e-13 L12.65,4.54747351e-13 L11.3,4.54747351e-13 L11.25,4.54747351e-13 L10.6,0.05 L10.6,0.05 Z" id="Shape"></path>
                                <path d="M5.35,0.05 L5.85,0.05 L5.9,0.05 L7.25,0.05 L7.25,1.85 L5.8,1.85 L5.8,0.85 L6.55,0.85 L6.55,1.15 L6.1,1.15 L6.1,1.15 L6.1,1.5 L6.1,1.5 L6.95,1.5 L6.95,1.5 L6.95,0.45 L6.95,0.45 L5.45,0.45 L5.45,0.45 L5.45,2.35 L5.45,2.35 L7.7,2.35 L7.7,2.35 L7.7,0.05 L8.5,0.05 L8.55,0.05 L9.9,0.05 L9.9,1.85 L8.45,1.85 L8.45,0.85 L9.2,0.85 L9.2,1.15 L8.75,1.15 L8.75,1.15 L8.75,1.5 L8.75,1.5 L9.6,1.5 L9.6,1.5 L9.6,0.45 L9.6,0.45 L8.1,0.45 L8.1,0.45 L8.1,2.35 L8.1,2.35 L10.35,2.35 L10.35,2.35 L10.35,0.05 L10.65,0.05 L10.65,0 L10.3,0 L10.3,0 L10.3,2.3 L8.05,2.3 L8.05,0.45 L9.55,0.45 L9.55,1.45 L8.75,1.45 L8.75,1.15 L9.2,1.15 L9.2,1.15 L9.2,0.8 L9.2,0.8 L8.45,0.8 L8.45,0.8 L8.45,1.85 L8.45,1.85 L9.95,1.85 L9.95,1.85 L9.95,2.27373675e-13 L9.95,2.27373675e-13 L8.6,2.27373675e-13 L8.55,2.27373675e-13 L7.75,2.27373675e-13 L7.75,2.27373675e-13 L7.75,2.3 L5.5,2.3 L5.5,0.45 L7,0.45 L7,1.45 L6.2,1.45 L6.2,1.15 L6.65,1.15 L6.65,1.15 L6.65,0.8 L6.65,0.8 L5.9,0.8 L5.9,0.8 L5.9,1.85 L5.9,1.85 L7.4,1.85 L7.4,1.85 L7.4,4.54747351e-13 L7.4,4.54747351e-13 L6.05,4.54747351e-13 L6,4.54747351e-13 L5.35,0.05 L5.35,0.05 Z" id="Shape"></path>
                                <path d="M0.1,0.05 L0.6,0.05 L0.65,0.05 L2,0.05 L2,1.85 L0.55,1.85 L0.55,0.85 L1.3,0.85 L1.3,1.15 L0.85,1.15 L0.85,1.15 L0.85,1.5 L0.85,1.5 L1.7,1.5 L1.7,1.5 L1.7,0.45 L1.7,0.45 L0.2,0.45 L0.2,0.45 L0.2,2.35 L0.2,2.35 L2.45,2.35 L2.45,2.35 L2.45,0.05 L3.25,0.05 L3.3,0.05 L4.65,0.05 L4.65,1.85 L3.2,1.85 L3.2,0.85 L3.95,0.85 L3.95,1.15 L3.5,1.15 L3.5,1.15 L3.5,1.5 L3.5,1.5 L4.35,1.5 L4.35,1.5 L4.35,0.45 L4.35,0.45 L2.85,0.45 L2.85,0.45 L2.85,2.35 L2.85,2.35 L5.1,2.35 L5.1,2.35 L5.1,0.05 L5.4,0.05 L5.4,0 L5.05,0 L5.05,0 L5.05,2.3 L2.8,2.3 L2.8,0.45 L4.3,0.45 L4.3,1.45 L3.5,1.45 L3.5,1.15 L3.95,1.15 L3.95,1.15 L3.95,0.8 L3.95,0.8 L3.2,0.8 L3.2,0.8 L3.2,1.85 L3.2,1.85 L4.7,1.85 L4.7,1.85 L4.7,2.27373675e-13 L4.7,2.27373675e-13 L3.35,2.27373675e-13 L3.3,2.27373675e-13 L2.5,2.27373675e-13 L2.5,2.27373675e-13 L2.5,2.3 L0.25,2.3 L0.25,0.45 L1.75,0.45 L1.75,1.45 L0.95,1.45 L0.95,1.15 L1.4,1.15 L1.4,1.15 L1.4,0.8 L1.4,0.8 L0.65,0.8 L0.65,0.8 L0.65,1.85 L0.65,1.85 L2.15,1.85 L2.15,1.85 L2.15,4.54747351e-13 L2.15,4.54747351e-13 L0.8,4.54747351e-13 L0.75,4.54747351e-13 L0.1,0.05 L0.1,0.05 Z" id="Shape"></path>
                            </g>
                            <g id="Group" transform="translate(265.500000, 129.000000)" fill="#DC7D27">
                                <path d="M5.6,2.3 L5.1,2.3 L5.05,2.3 L3.65,2.3 L3.65,0.5 L5.2,0.5 L5.2,1.5 L4.45,1.5 L4.45,1.2 L4.9,1.2 L4.9,1.2 L4.9,0.85 L4.9,0.85 L4,0.85 L4,0.85 L4,1.9 L4,1.9 L5.6,1.9 L5.6,1.9 L5.6,0 L5.6,0 L3.25,0 L3.25,0 L3.25,2.3 L2.4,2.3 L2.35,2.3 L0.95,2.3 L0.95,0.5 L2.5,0.5 L2.5,1.5 L1.75,1.5 L1.75,1.2 L2.2,1.2 L2.2,1.2 L2.2,0.85 L2.2,0.85 L1.3,0.85 L1.3,0.85 L1.3,1.9 L1.3,1.9 L2.9,1.9 L2.9,1.9 L2.9,0 L2.9,0 L0.55,0 L0.55,0 L0.55,2.3 L0.2,2.3 L0.2,2.35 L0.55,2.35 L0.55,2.35 L0.55,0.05 L2.9,0.05 L2.9,1.9 L1.35,1.9 L1.35,0.9 L2.2,0.9 L2.2,1.2 L1.75,1.2 L1.75,1.2 L1.75,1.55 L1.75,1.55 L2.55,1.55 L2.55,1.55 L2.55,0.5 L2.55,0.5 L1,0.5 L1,0.5 L1,2.35 L1,2.35 L2.4,2.35 L2.45,2.35 L3.3,2.35 L3.3,2.35 L3.3,0.05 L5.65,0.05 L5.65,1.9 L4.1,1.9 L4.1,0.9 L4.95,0.9 L4.95,1.2 L4.5,1.2 L4.5,1.2 L4.5,1.55 L4.5,1.55 L5.3,1.55 L5.3,1.55 L5.3,0.5 L5.3,0.5 L3.75,0.5 L3.75,0.5 L3.75,2.35 L3.75,2.35 L5.2,2.35 L5.25,2.35 L5.6,2.3 L5.6,2.3 Z" id="Shape"></path>
                                <path d="M11.1,2.3 L10.6,2.3 L10.55,2.3 L9.15,2.3 L9.15,0.5 L10.7,0.5 L10.7,1.5 L9.95,1.5 L9.95,1.2 L10.4,1.2 L10.4,1.2 L10.4,0.85 L10.4,0.85 L9.5,0.85 L9.5,0.85 L9.5,1.9 L9.5,1.9 L11.1,1.9 L11.1,1.9 L11.1,0 L11.1,0 L8.75,0 L8.75,0 L8.75,2.3 L7.9,2.3 L7.85,2.3 L6.45,2.3 L6.45,0.5 L8,0.5 L8,1.5 L7.25,1.5 L7.25,1.2 L7.7,1.2 L7.7,1.2 L7.7,0.85 L7.7,0.85 L6.8,0.85 L6.8,0.85 L6.8,1.9 L6.8,1.9 L8.4,1.9 L8.4,1.9 L8.4,0 L8.4,0 L6.05,0 L6.05,0 L6.05,2.3 L5.7,2.3 L5.7,2.35 L6.05,2.35 L6.05,2.35 L6.05,0.05 L8.4,0.05 L8.4,1.9 L6.85,1.9 L6.85,0.9 L7.7,0.9 L7.7,1.2 L7.25,1.2 L7.25,1.2 L7.25,1.55 L7.25,1.55 L8.05,1.55 L8.05,1.55 L8.05,0.5 L8.05,0.5 L6.5,0.5 L6.5,0.5 L6.5,2.35 L6.5,2.35 L7.9,2.35 L7.95,2.35 L8.8,2.35 L8.8,2.35 L8.8,0.05 L11.15,0.05 L11.15,1.9 L9.6,1.9 L9.6,0.9 L10.45,0.9 L10.45,1.2 L10,1.2 L10,1.2 L10,1.55 L10,1.55 L10.8,1.55 L10.8,1.55 L10.8,0.5 L10.8,0.5 L9.25,0.5 L9.25,0.5 L9.25,2.35 L9.25,2.35 L10.7,2.35 L10.75,2.35 L11.1,2.3 L11.1,2.3 Z" id="Shape"></path>
                                <path d="M16.6,2.3 L16.1,2.3 L16.05,2.3 L14.65,2.3 L14.65,0.5 L16.2,0.5 L16.2,1.5 L15.45,1.5 L15.45,1.2 L15.9,1.2 L15.9,1.2 L15.9,0.85 L15.9,0.85 L15,0.85 L15,0.85 L15,1.9 L15,1.9 L16.6,1.9 L16.6,1.9 L16.6,0 L16.6,0 L14.25,0 L14.25,0 L14.25,2.3 L13.4,2.3 L13.35,2.3 L11.95,2.3 L11.95,0.5 L13.5,0.5 L13.5,1.5 L12.75,1.5 L12.75,1.2 L13.2,1.2 L13.2,1.2 L13.2,0.85 L13.2,0.85 L12.3,0.85 L12.3,0.85 L12.3,1.9 L12.3,1.9 L13.9,1.9 L13.9,1.9 L13.9,0 L13.9,0 L11.55,0 L11.55,0 L11.55,2.3 L11.2,2.3 L11.2,2.35 L11.55,2.35 L11.55,2.35 L11.55,0.05 L13.9,0.05 L13.9,1.9 L12.35,1.9 L12.35,0.9 L13.2,0.9 L13.2,1.2 L12.75,1.2 L12.75,1.2 L12.75,1.55 L12.75,1.55 L13.55,1.55 L13.55,1.55 L13.55,0.5 L13.55,0.5 L12,0.5 L12,0.5 L12,2.35 L12,2.35 L13.4,2.35 L13.45,2.35 L14.3,2.35 L14.3,2.35 L14.3,0.05 L16.65,0.05 L16.65,1.9 L15.1,1.9 L15.1,0.9 L15.95,0.9 L15.95,1.2 L15.5,1.2 L15.5,1.2 L15.5,1.55 L15.5,1.55 L16.3,1.55 L16.3,1.55 L16.3,0.5 L16.3,0.5 L14.75,0.5 L14.75,0.5 L14.75,2.35 L14.75,2.35 L16.15,2.35 L16.2,2.35 L16.6,2.3 L16.6,2.3 Z" id="Shape"></path>
                                <path d="M22.1,2.3 L21.6,2.3 L21.55,2.3 L20.15,2.3 L20.15,0.5 L21.7,0.5 L21.7,1.5 L20.95,1.5 L20.95,1.2 L21.4,1.2 L21.4,1.2 L21.4,0.85 L21.4,0.85 L20.5,0.85 L20.5,0.85 L20.5,1.9 L20.5,1.9 L22.1,1.9 L22.1,1.9 L22.1,0 L22.1,0 L19.75,0 L19.75,0 L19.75,2.3 L18.9,2.3 L18.85,2.3 L17.45,2.3 L17.45,0.5 L19,0.5 L19,1.5 L18.25,1.5 L18.25,1.2 L18.7,1.2 L18.7,1.2 L18.7,0.85 L18.7,0.85 L17.8,0.85 L17.8,0.85 L17.8,1.9 L17.8,1.9 L19.4,1.9 L19.4,1.9 L19.4,0 L19.4,0 L17.05,0 L17.05,0 L17.05,2.3 L16.7,2.3 L16.7,2.35 L17.05,2.35 L17.05,2.35 L17.05,0.05 L19.4,0.05 L19.4,1.9 L17.85,1.9 L17.85,0.9 L18.7,0.9 L18.7,1.2 L18.25,1.2 L18.25,1.2 L18.25,1.55 L18.25,1.55 L19.05,1.55 L19.05,1.55 L19.05,0.5 L19.05,0.5 L17.5,0.5 L17.5,0.5 L17.5,2.35 L17.5,2.35 L18.9,2.35 L18.95,2.35 L19.8,2.35 L19.8,2.35 L19.8,0.05 L22.15,0.05 L22.15,1.9 L20.6,1.9 L20.6,0.9 L21.45,0.9 L21.45,1.2 L21,1.2 L21,1.2 L21,1.55 L21,1.55 L21.8,1.55 L21.8,1.55 L21.8,0.5 L21.8,0.5 L20.25,0.5 L20.25,0.5 L20.25,2.35 L20.25,2.35 L21.65,2.35 L21.7,2.35 L22.1,2.3 L22.1,2.3 Z" id="Shape"></path>
                                <path d="M27.55,2.3 L27.05,2.3 L27,2.3 L25.6,2.3 L25.6,0.5 L27.15,0.5 L27.15,1.5 L26.4,1.5 L26.4,1.2 L26.85,1.2 L26.85,1.2 L26.85,0.85 L26.85,0.85 L25.95,0.85 L25.95,0.85 L25.95,1.9 L25.95,1.9 L27.55,1.9 L27.55,1.9 L27.55,0 L27.55,0 L25.2,0 L25.2,0 L25.2,2.3 L24.35,2.3 L24.3,2.3 L22.9,2.3 L22.9,0.5 L24.45,0.5 L24.45,1.5 L23.7,1.5 L23.7,1.2 L24.15,1.2 L24.15,1.2 L24.15,0.85 L24.15,0.85 L23.25,0.85 L23.25,0.85 L23.25,1.9 L23.25,1.9 L24.85,1.9 L24.85,1.9 L24.85,0 L24.85,0 L22.5,0 L22.5,0 L22.5,2.3 L22.15,2.3 L22.15,2.35 L22.5,2.35 L22.5,2.35 L22.5,0.05 L24.85,0.05 L24.85,1.9 L23.3,1.9 L23.3,0.9 L24.15,0.9 L24.15,1.2 L23.7,1.2 L23.7,1.2 L23.7,1.55 L23.7,1.55 L24.5,1.55 L24.5,1.55 L24.5,0.5 L24.5,0.5 L22.95,0.5 L22.95,0.5 L22.95,2.35 L22.95,2.35 L24.35,2.35 L24.4,2.35 L25.25,2.35 L25.25,2.35 L25.25,0.05 L27.6,0.05 L27.6,1.9 L26.05,1.9 L26.05,0.9 L26.9,0.9 L26.9,1.2 L26.45,1.2 L26.45,1.2 L26.45,1.55 L26.45,1.55 L27.25,1.55 L27.25,1.55 L27.25,0.5 L27.25,0.5 L25.7,0.5 L25.7,0.5 L25.7,2.35 L25.7,2.35 L27.1,2.35 L27.15,2.35 L27.55,2.3 L27.55,2.3 Z" id="Shape"></path>
                                <path d="M33.05,2.3 L32.55,2.3 L32.5,2.3 L31.1,2.3 L31.1,0.5 L32.65,0.5 L32.65,1.5 L31.9,1.5 L31.9,1.2 L32.35,1.2 L32.35,1.2 L32.35,0.85 L32.35,0.85 L31.45,0.85 L31.45,0.85 L31.45,1.9 L31.45,1.9 L33.05,1.9 L33.05,1.9 L33.05,0 L33.05,0 L30.7,0 L30.7,0 L30.7,2.3 L29.85,2.3 L29.8,2.3 L28.4,2.3 L28.4,0.5 L29.95,0.5 L29.95,1.5 L29.2,1.5 L29.2,1.2 L29.65,1.2 L29.65,1.2 L29.65,0.85 L29.65,0.85 L28.75,0.85 L28.75,0.85 L28.75,1.9 L28.75,1.9 L30.35,1.9 L30.35,1.9 L30.35,0 L30.35,0 L28,0 L28,0 L28,2.3 L27.65,2.3 L27.65,2.35 L28,2.35 L28,2.35 L28,0.05 L30.35,0.05 L30.35,1.9 L28.8,1.9 L28.8,0.9 L29.65,0.9 L29.65,1.2 L29.2,1.2 L29.2,1.2 L29.2,1.55 L29.2,1.55 L30,1.55 L30,1.55 L30,0.5 L30,0.5 L28.45,0.5 L28.45,0.5 L28.45,2.35 L28.45,2.35 L29.85,2.35 L29.9,2.35 L30.75,2.35 L30.75,2.35 L30.75,0.05 L33.1,0.05 L33.1,1.9 L31.55,1.9 L31.55,0.9 L32.4,0.9 L32.4,1.2 L31.95,1.2 L31.95,1.2 L31.95,1.55 L31.95,1.55 L32.75,1.55 L32.75,1.55 L32.75,0.5 L32.75,0.5 L31.2,0.5 L31.2,0.5 L31.2,2.35 L31.2,2.35 L32.65,2.35 L32.7,2.35 L33.05,2.3 L33.05,2.3 Z" id="Shape"></path>
                                <path d="M38.55,2.3 L38.05,2.3 L38,2.3 L36.6,2.3 L36.6,0.5 L38.15,0.5 L38.15,1.5 L37.4,1.5 L37.4,1.2 L37.85,1.2 L37.85,1.2 L37.85,0.85 L37.85,0.85 L36.95,0.85 L36.95,0.85 L36.95,1.9 L36.95,1.9 L38.55,1.9 L38.55,1.9 L38.55,0 L38.55,0 L36.2,0 L36.2,0 L36.2,2.3 L35.35,2.3 L35.3,2.3 L33.9,2.3 L33.9,0.5 L35.45,0.5 L35.45,1.5 L34.7,1.5 L34.7,1.2 L35.15,1.2 L35.15,1.2 L35.15,0.85 L35.15,0.85 L34.25,0.85 L34.25,0.85 L34.25,1.9 L34.25,1.9 L35.85,1.9 L35.85,1.9 L35.85,0 L35.85,0 L33.5,0 L33.5,0 L33.5,2.3 L33.15,2.3 L33.15,2.35 L33.5,2.35 L33.5,2.35 L33.5,0.05 L35.85,0.05 L35.85,1.9 L34.3,1.9 L34.3,0.9 L35.15,0.9 L35.15,1.2 L34.7,1.2 L34.7,1.2 L34.7,1.55 L34.7,1.55 L35.5,1.55 L35.5,1.55 L35.5,0.5 L35.5,0.5 L33.95,0.5 L33.95,0.5 L33.95,2.35 L33.95,2.35 L35.35,2.35 L35.4,2.35 L36.25,2.35 L36.25,2.35 L36.25,0.05 L38.6,0.05 L38.6,1.9 L37.05,1.9 L37.05,0.9 L37.9,0.9 L37.9,1.2 L37.45,1.2 L37.45,1.2 L37.45,1.55 L37.45,1.55 L38.25,1.55 L38.25,1.55 L38.25,0.5 L38.25,0.5 L36.7,0.5 L36.7,0.5 L36.7,2.35 L36.7,2.35 L38.15,2.35 L38.2,2.35 L38.55,2.3 L38.55,2.3 Z" id="Shape"></path>
                                <path d="M44.05,2.3 L43.55,2.3 L43.5,2.3 L42.1,2.3 L42.1,0.5 L43.65,0.5 L43.65,1.5 L42.9,1.5 L42.9,1.2 L43.35,1.2 L43.35,1.2 L43.35,0.85 L43.35,0.85 L42.45,0.85 L42.45,0.85 L42.45,1.9 L42.45,1.9 L44.05,1.9 L44.05,1.9 L44.05,0 L44.05,0 L41.7,0 L41.7,0 L41.7,2.3 L40.85,2.3 L40.8,2.3 L39.4,2.3 L39.4,0.5 L40.95,0.5 L40.95,1.5 L40.2,1.5 L40.2,1.2 L40.65,1.2 L40.65,1.2 L40.65,0.85 L40.65,0.85 L39.75,0.85 L39.75,0.85 L39.75,1.9 L39.75,1.9 L41.35,1.9 L41.35,1.9 L41.35,0 L41.35,0 L39,0 L39,0 L39,2.3 L38.65,2.3 L38.65,2.35 L39,2.35 L39,2.35 L39,0.05 L41.35,0.05 L41.35,1.9 L39.8,1.9 L39.8,0.9 L40.65,0.9 L40.65,1.2 L40.2,1.2 L40.2,1.2 L40.2,1.55 L40.2,1.55 L41,1.55 L41,1.55 L41,0.5 L41,0.5 L39.45,0.5 L39.45,0.5 L39.45,2.35 L39.45,2.35 L40.85,2.35 L40.9,2.35 L41.75,2.35 L41.75,2.35 L41.75,0.05 L44.1,0.05 L44.1,1.9 L42.55,1.9 L42.55,0.9 L43.4,0.9 L43.4,1.2 L42.95,1.2 L42.95,1.2 L42.95,1.55 L42.95,1.55 L43.75,1.55 L43.75,1.55 L43.75,0.5 L43.75,0.5 L42.2,0.5 L42.2,0.5 L42.2,2.35 L42.2,2.35 L43.65,2.35 L43.7,2.35 L44.05,2.3 L44.05,2.3 Z" id="Shape"></path>
                                <path d="M49.55,2.3 L49.05,2.3 L49,2.3 L47.6,2.3 L47.6,0.5 L49.15,0.5 L49.15,1.5 L48.4,1.5 L48.4,1.2 L48.85,1.2 L48.85,1.2 L48.85,0.85 L48.85,0.85 L47.95,0.85 L47.95,0.85 L47.95,1.9 L47.95,1.9 L49.55,1.9 L49.55,1.9 L49.55,0 L49.55,0 L47.2,0 L47.2,0 L47.2,2.3 L46.35,2.3 L46.3,2.3 L44.9,2.3 L44.9,0.5 L46.45,0.5 L46.45,1.5 L45.7,1.5 L45.7,1.2 L46.15,1.2 L46.15,1.2 L46.15,0.85 L46.15,0.85 L45.25,0.85 L45.25,0.85 L45.25,1.9 L45.25,1.9 L46.85,1.9 L46.85,1.9 L46.85,0 L46.85,0 L44.5,0 L44.5,0 L44.5,2.3 L44.15,2.3 L44.15,2.35 L44.5,2.35 L44.5,2.35 L44.5,0.05 L46.85,0.05 L46.85,1.9 L45.3,1.9 L45.3,0.9 L46.15,0.9 L46.15,1.2 L45.7,1.2 L45.7,1.2 L45.7,1.55 L45.7,1.55 L46.5,1.55 L46.5,1.55 L46.5,0.5 L46.5,0.5 L44.95,0.5 L44.95,0.5 L44.95,2.35 L44.95,2.35 L46.35,2.35 L46.4,2.35 L47.25,2.35 L47.25,2.35 L47.25,0.05 L49.6,0.05 L49.6,1.9 L48.05,1.9 L48.05,0.9 L48.9,0.9 L48.9,1.2 L48.45,1.2 L48.45,1.2 L48.45,1.55 L48.45,1.55 L49.25,1.55 L49.25,1.55 L49.25,0.5 L49.25,0.5 L47.7,0.5 L47.7,0.5 L47.7,2.35 L47.7,2.35 L49.1,2.35 L49.15,2.35 L49.55,2.3 L49.55,2.3 Z" id="Shape"></path>
                                <path d="M55,2.3 L54.5,2.3 L54.45,2.3 L53.05,2.3 L53.05,0.5 L54.6,0.5 L54.6,1.5 L53.85,1.5 L53.85,1.2 L54.3,1.2 L54.3,1.2 L54.3,0.85 L54.3,0.85 L53.4,0.85 L53.4,0.85 L53.4,1.9 L53.4,1.9 L55,1.9 L55,1.9 L55,0 L55,0 L52.65,0 L52.65,0 L52.65,2.3 L51.8,2.3 L51.75,2.3 L50.35,2.3 L50.35,0.5 L51.9,0.5 L51.9,1.5 L51.15,1.5 L51.15,1.2 L51.6,1.2 L51.6,1.2 L51.6,0.85 L51.6,0.85 L50.7,0.85 L50.7,0.85 L50.7,1.9 L50.7,1.9 L52.3,1.9 L52.3,1.9 L52.3,0 L52.3,0 L49.95,0 L49.95,0 L49.95,2.3 L49.6,2.3 L49.6,2.35 L49.95,2.35 L49.95,2.35 L49.95,0.05 L52.3,0.05 L52.3,1.9 L50.75,1.9 L50.75,0.9 L51.6,0.9 L51.6,1.2 L51.15,1.2 L51.15,1.2 L51.15,1.55 L51.15,1.55 L51.95,1.55 L51.95,1.55 L51.95,0.5 L51.95,0.5 L50.4,0.5 L50.4,0.5 L50.4,2.35 L50.4,2.35 L51.8,2.35 L51.85,2.35 L52.7,2.35 L52.7,2.35 L52.7,0.05 L55.05,0.05 L55.05,1.9 L53.5,1.9 L53.5,0.9 L54.35,0.9 L54.35,1.2 L53.9,1.2 L53.9,1.2 L53.9,1.55 L53.9,1.55 L54.7,1.55 L54.7,1.55 L54.7,0.5 L54.7,0.5 L53.15,0.5 L53.15,0.5 L53.15,2.35 L53.15,2.35 L54.55,2.35 L54.6,2.35 L55,2.3 L55,2.3 Z" id="Shape"></path>
                                <path d="M60.5,2.3 L60,2.3 L59.95,2.3 L58.55,2.3 L58.55,0.5 L60.1,0.5 L60.1,1.5 L59.35,1.5 L59.35,1.2 L59.8,1.2 L59.8,1.2 L59.8,0.85 L59.8,0.85 L58.9,0.85 L58.9,0.85 L58.9,1.9 L58.9,1.9 L60.5,1.9 L60.5,1.9 L60.5,0 L60.5,0 L58.15,0 L58.15,0 L58.15,2.3 L57.3,2.3 L57.25,2.3 L55.85,2.3 L55.85,0.5 L57.4,0.5 L57.4,1.5 L56.65,1.5 L56.65,1.2 L57.1,1.2 L57.1,1.2 L57.1,0.85 L57.1,0.85 L56.2,0.85 L56.2,0.85 L56.2,1.9 L56.2,1.9 L57.8,1.9 L57.8,1.9 L57.8,0 L57.8,0 L55.45,0 L55.45,0 L55.45,2.3 L55.1,2.3 L55.1,2.35 L55.45,2.35 L55.45,2.35 L55.45,0.05 L57.8,0.05 L57.8,1.9 L56.25,1.9 L56.25,0.9 L57.1,0.9 L57.1,1.2 L56.65,1.2 L56.65,1.2 L56.65,1.55 L56.65,1.55 L57.45,1.55 L57.45,1.55 L57.45,0.5 L57.45,0.5 L55.9,0.5 L55.9,0.5 L55.9,2.35 L55.9,2.35 L57.3,2.35 L57.35,2.35 L58.2,2.35 L58.2,2.35 L58.2,0.05 L60.55,0.05 L60.55,1.9 L59,1.9 L59,0.9 L59.85,0.9 L59.85,1.2 L59.4,1.2 L59.4,1.2 L59.4,1.55 L59.4,1.55 L60.2,1.55 L60.2,1.55 L60.2,0.5 L60.2,0.5 L58.65,0.5 L58.65,0.5 L58.65,2.35 L58.65,2.35 L60.05,2.35 L60.1,2.35 L60.5,2.3 L60.5,2.3 Z" id="Shape"></path>
                                <path d="M66,2.3 L65.5,2.3 L65.45,2.3 L64.05,2.3 L64.05,0.5 L65.6,0.5 L65.6,1.5 L64.85,1.5 L64.85,1.2 L65.3,1.2 L65.3,1.2 L65.3,0.85 L65.3,0.85 L64.4,0.85 L64.4,0.85 L64.4,1.9 L64.4,1.9 L66,1.9 L66,1.9 L66,0 L66,0 L63.65,0 L63.65,0 L63.65,2.3 L62.8,2.3 L62.75,2.3 L61.35,2.3 L61.35,0.5 L62.9,0.5 L62.9,1.5 L62.15,1.5 L62.15,1.2 L62.6,1.2 L62.6,1.2 L62.6,0.85 L62.6,0.85 L61.7,0.85 L61.7,0.85 L61.7,1.9 L61.7,1.9 L63.3,1.9 L63.3,1.9 L63.3,0 L63.3,0 L60.95,0 L60.95,0 L60.95,2.3 L60.6,2.3 L60.6,2.35 L60.95,2.35 L60.95,2.35 L60.95,0.05 L63.3,0.05 L63.3,1.9 L61.75,1.9 L61.75,0.9 L62.6,0.9 L62.6,1.2 L62.15,1.2 L62.15,1.2 L62.15,1.55 L62.15,1.55 L62.95,1.55 L62.95,1.55 L62.95,0.5 L62.95,0.5 L61.4,0.5 L61.4,0.5 L61.4,2.35 L61.4,2.35 L62.8,2.35 L62.85,2.35 L63.7,2.35 L63.7,2.35 L63.7,0.05 L66.05,0.05 L66.05,1.9 L64.5,1.9 L64.5,0.9 L65.35,0.9 L65.35,1.2 L64.9,1.2 L64.9,1.2 L64.9,1.55 L64.9,1.55 L65.7,1.55 L65.7,1.55 L65.7,0.5 L65.7,0.5 L64.15,0.5 L64.15,0.5 L64.15,2.35 L64.15,2.35 L65.55,2.35 L65.6,2.35 L66,2.3 L66,2.3 Z" id="Shape"></path>
                                <path d="M71.5,2.3 L71,2.3 L70.95,2.3 L69.55,2.3 L69.55,0.5 L71.1,0.5 L71.1,1.5 L70.35,1.5 L70.35,1.2 L70.8,1.2 L70.8,1.2 L70.8,0.85 L70.8,0.85 L69.9,0.85 L69.9,0.85 L69.9,1.9 L69.9,1.9 L71.5,1.9 L71.5,1.9 L71.5,0 L71.5,0 L69.15,0 L69.15,0 L69.15,2.3 L68.3,2.3 L68.25,2.3 L66.85,2.3 L66.85,0.5 L68.4,0.5 L68.4,1.5 L67.65,1.5 L67.65,1.2 L68.1,1.2 L68.1,1.2 L68.1,0.85 L68.1,0.85 L67.2,0.85 L67.2,0.85 L67.2,1.9 L67.2,1.9 L68.8,1.9 L68.8,1.9 L68.8,0 L68.8,0 L66.45,0 L66.45,0 L66.45,2.3 L66.1,2.3 L66.1,2.35 L66.45,2.35 L66.45,2.35 L66.45,0.05 L68.8,0.05 L68.8,1.9 L67.25,1.9 L67.25,0.9 L68.1,0.9 L68.1,1.2 L67.65,1.2 L67.65,1.2 L67.65,1.55 L67.65,1.55 L68.45,1.55 L68.45,1.55 L68.45,0.5 L68.45,0.5 L66.9,0.5 L66.9,0.5 L66.9,2.35 L66.9,2.35 L68.3,2.35 L68.35,2.35 L69.2,2.35 L69.2,2.35 L69.2,0.05 L71.55,0.05 L71.55,1.9 L70,1.9 L70,0.9 L70.85,0.9 L70.85,1.2 L70.4,1.2 L70.4,1.2 L70.4,1.55 L70.4,1.55 L71.2,1.55 L71.2,1.55 L71.2,0.5 L71.2,0.5 L69.65,0.5 L69.65,0.5 L69.65,2.35 L69.65,2.35 L71.1,2.35 L71.15,2.35 L71.5,2.3 L71.5,2.3 Z" id="Shape"></path>
                                <path d="M77,2.3 L76.5,2.3 L76.45,2.3 L75.05,2.3 L75.05,0.5 L76.6,0.5 L76.6,1.5 L75.85,1.5 L75.85,1.2 L76.3,1.2 L76.3,1.2 L76.3,0.85 L76.3,0.85 L75.4,0.85 L75.4,0.85 L75.4,1.9 L75.4,1.9 L77,1.9 L77,1.9 L77,0 L77,0 L74.65,0 L74.65,0 L74.65,2.3 L73.8,2.3 L73.75,2.3 L72.35,2.3 L72.35,0.5 L73.9,0.5 L73.9,1.5 L73.15,1.5 L73.15,1.2 L73.6,1.2 L73.6,1.2 L73.6,0.85 L73.6,0.85 L72.7,0.85 L72.7,0.85 L72.7,1.9 L72.7,1.9 L74.3,1.9 L74.3,1.9 L74.3,0 L74.3,0 L71.95,0 L71.95,0 L71.95,2.3 L71.6,2.3 L71.6,2.35 L71.95,2.35 L71.95,2.35 L71.95,0.05 L74.3,0.05 L74.3,1.9 L72.75,1.9 L72.75,0.9 L73.6,0.9 L73.6,1.2 L73.15,1.2 L73.15,1.2 L73.15,1.55 L73.15,1.55 L73.95,1.55 L73.95,1.55 L73.95,0.5 L73.95,0.5 L72.4,0.5 L72.4,0.5 L72.4,2.35 L72.4,2.35 L73.8,2.35 L73.85,2.35 L74.7,2.35 L74.7,2.35 L74.7,0.05 L77.05,0.05 L77.05,1.9 L75.5,1.9 L75.5,0.9 L76.35,0.9 L76.35,1.2 L75.9,1.2 L75.9,1.2 L75.9,1.55 L75.9,1.55 L76.7,1.55 L76.7,1.55 L76.7,0.5 L76.7,0.5 L75.15,0.5 L75.15,0.5 L75.15,2.35 L75.15,2.35 L76.6,2.35 L76.65,2.35 L77,2.3 L77,2.3 Z" id="Shape"></path>
                                <path d="M82.45,2.3 L81.95,2.3 L81.9,2.3 L80.5,2.3 L80.5,0.5 L82.05,0.5 L82.05,1.5 L81.3,1.5 L81.3,1.2 L81.75,1.2 L81.75,1.2 L81.75,0.85 L81.75,0.85 L80.85,0.85 L80.85,0.85 L80.85,1.9 L80.85,1.9 L82.45,1.9 L82.45,1.9 L82.45,0 L82.45,0 L80.1,0 L80.1,0 L80.1,2.3 L79.25,2.3 L79.2,2.3 L77.8,2.3 L77.8,0.5 L79.35,0.5 L79.35,1.5 L78.6,1.5 L78.6,1.2 L79.05,1.2 L79.05,1.2 L79.05,0.85 L79.05,0.85 L78.15,0.85 L78.15,0.85 L78.15,1.9 L78.15,1.9 L79.75,1.9 L79.75,1.9 L79.75,0 L79.75,0 L77.4,0 L77.4,0 L77.4,2.3 L77.05,2.3 L77.05,2.35 L77.4,2.35 L77.4,2.35 L77.4,0.05 L79.75,0.05 L79.75,1.9 L78.2,1.9 L78.2,0.9 L79.05,0.9 L79.05,1.2 L78.6,1.2 L78.6,1.2 L78.6,1.55 L78.6,1.55 L79.4,1.55 L79.4,1.55 L79.4,0.5 L79.4,0.5 L77.85,0.5 L77.85,0.5 L77.85,2.35 L77.85,2.35 L79.25,2.35 L79.3,2.35 L80.15,2.35 L80.15,2.35 L80.15,0.05 L82.5,0.05 L82.5,1.9 L80.95,1.9 L80.95,0.9 L81.8,0.9 L81.8,1.2 L81.35,1.2 L81.35,1.2 L81.35,1.55 L81.35,1.55 L82.15,1.55 L82.15,1.55 L82.15,0.5 L82.15,0.5 L80.6,0.5 L80.6,0.5 L80.6,2.35 L80.6,2.35 L82.05,2.35 L82.1,2.35 L82.45,2.3 L82.45,2.3 Z" id="Shape"></path>
                            </g>
                        </g>
                    </g>
                </g>
            </g>
        </g>
    </g>
</svg>