<?xml version="1.0" encoding="utf-8"?>
<!-- Generator: Adobe Illustrator 18.1.1, SVG Export Plug-In . SVG Version: 6.00 Build 0)  -->
<svg version="1.1" id="Warstwa_1" xmlns="http://www.w3.org/2000/svg" xmlns:xlink="http://www.w3.org/1999/xlink" x="0px" y="0px"
	 viewBox="0 0 1920 1080" enable-background="new 0 0 1920 1080" xml:space="preserve">
<g id="krolik">
	<path fill-rule="evenodd" clip-rule="evenodd" fill="#FFFFFF" d="M327.7,736.6l35.1-2.4c1.8,0,6-14.4,1.2-24c-1.2-2.7-4.8-6-8.1-6
		c-0.6,0,2.1-24.6,3.6-41.4c1.8-20.7-7.8-16.8-9-2.7c-1.8,17.4-2.1,43.2-2.1,43.2c0.6-0.3-10.8,0-12.6,1.2c0,0-1.5-7.8-6.6-27.3
		c-5.1-19.5-13.5-15.3-11.4-3.3c2.1,12,12.6,33.6,12.3,33.6C316.9,718.3,327.7,736.6,327.7,736.6z"/>
	<path fill-rule="evenodd" clip-rule="evenodd" d="M355.3,716.8c0.9,0,1.8-0.9,1.8-2.1c0-0.9-0.9-1.8-1.8-1.8
		c-1.2,0-2.1,0.9-2.1,1.8C353.2,715.9,354.1,716.8,355.3,716.8z"/>
	<path fill-rule="evenodd" clip-rule="evenodd" d="M337,718.3c1.2,0,2.1-0.9,2.1-1.8c0-1.2-0.9-2.1-2.1-2.1c-0.9,0-1.8,0.9-1.8,2.1
		C335.2,717.4,336.1,718.3,337,718.3z"/>
</g>
<path fill-rule="evenodd" clip-rule="evenodd" fill="#2B2B2B" d="M2212.7,820.2c0,0,104.4-138-24.6-185.8
	c-98.1-36.3-181.3,16.5-310.6,9.6c-53.4-3-118.2-30.6-183.4-36.3c-57.6-4.8-115.2,12-166.2,15c-116.4,7.2-177.7-9-295.3-10.5
	c-66.3-0.9-170.1,36.9-234.4,30c-60.6-6.6-128.4-12.6-193.6-18c-83.7-6.9-139.8,15.6-207.4,16.5c-41.1,0.6-93.9-17.4-135-14.1
	c-46.5,3.6-148.5,28.5-186.7,40.2C206.3,687.6,21.2,606.2-55,639.6C-190.7,699-249.5,790.8-249.5,790.8s-63,191.8,179.2,198.1
	c595.7,15.3,1976.8-45,1990.3-45C1939.5,943.9,2212.7,820.2,2212.7,820.2z"/>
</svg>
