<?xml version="1.0" encoding="utf-8"?>
<!-- Generator: Adobe Illustrator 18.1.1, SVG Export Plug-In . SVG Version: 6.00 Build 0)  -->
<svg version="1.1" id="Warstwa_1" xmlns="http://www.w3.org/2000/svg" xmlns:xlink="http://www.w3.org/1999/xlink" x="0px" y="0px"
	 viewBox="0 0 1920 1080" enable-background="new 0 0 1920 1080" xml:space="preserve">
<g>
	<path fill="#FFFFB8" d="M538.2,559.1l3,1.8l3-2.4l-0.9,3.6l3,2.1l-3.6,0.3l-0.9,3.6l-1.5-3.6l-3.6,0.3l2.7-2.4L538.2,559.1
		L538.2,559.1z M539.7,560 M542.7,559.7 M543.6,560.3 M544.8,563.3 M544.5,564.2 M542.1,566.3 M540.9,566.3 M538.5,564.8
		 M538.2,563.6 M538.8,560.6"/>
	<path fill="#FFFFB8" d="M563.7,515.6l6.3,3.9l6-4.8l-1.8,7.5l6.3,4.2l-7.5,0.3l-2.1,7.5l-2.7-7.2l-7.5,0.6l5.7-5.1L563.7,515.6
		L563.7,515.6z M567.1,517.7 M573.1,517.1 M575.2,518.6 M577.3,524.3 M576.7,526.4 M571.9,530.3 M569.8,530.6 M564.3,527.3
		 M563.4,524.9 M565.3,519.2"/>
	<path fill="#FFFFB8" d="M527.7,465.2l4.8,6.6l7.8-2.4l-5.1,6.6l4.8,6.6l-7.8-2.4l-4.8,6.6v-8.1l-7.8-2.7l7.8-2.4L527.7,465.2
		L527.7,465.2z M530.1,468.5 M536.4,470.6 M537.6,472.7 M537.6,479.3 M536.1,481.4 M529.8,483.5 M527.4,482.6 M523.5,477.2
		 M523.5,474.8 M527.4,469.4"/>
	<path fill="#FFFFB8" d="M519,514.1l3.6,2.4l3.3-2.7l-1.2,4.2l3.9,2.1l-4.5,0.3l-1.2,4.2l-1.5-3.9l-4.2,0.3l3.3-3L519,514.1
		L519,514.1z M520.8,515.3 M524.1,515 M525.3,515.9 M526.5,519.2 M526.2,520.4 M523.5,522.5 M522.3,522.8 M519.3,520.7 M518.7,519.5
		 M519.6,516.2"/>
	<path fill="#FFFFB8" d="M546.6,405.5l6,8.1l9.3-3l-5.7,8.1l5.7,8.1l-9.6-3.3l-5.7,8.1v-9.9l-9.6-3l9.6-3V405.5L546.6,405.5z
		 M549.6,409.7 M557.1,412.1 M558.9,414.8 M558.9,422.6 M557.1,425.3 M549.6,427.7 M546.6,426.8 M541.8,420.2 M541.8,417.2
		 M546.6,410.6"/>
	<path fill="#FFFFB8" d="M484.5,420.8l3,2.1l3-2.4l-0.9,3.6l3,1.8l-3.6,0.3l-0.9,3.6l-1.5-3.6l-3.6,0.3l3-2.4L484.5,420.8
		L484.5,420.8z M486,421.7 M489,421.7 M489.9,422.3 M491.1,425 M490.8,426.2 M488.4,428 M487.5,428 M484.8,426.5 M484.5,425.3
		 M485.1,422.6"/>
	<path fill="#FFFFB8" d="M489.6,338.9l4.8,6.6l7.8-2.4l-5.1,6.6l4.8,6.6l-7.8-2.7l-4.8,6.9v-8.4l-7.8-2.4l7.8-2.7L489.6,338.9
		L489.6,338.9z M492,342.2 M498.3,344.3 M499.5,346.4 M499.5,353 M498,355.1 M491.7,356.9 M489.3,356.3 M485.4,350.9 M485.4,348.5
		 M489.6,343.1"/>
	<path fill="#FFFFB8" d="M450.9,446.9l8.4,5.4l7.8-6.3l-2.4,9.6l8.4,5.4l-10.2,0.6l-2.4,9.6l-3.6-9.3l-10.2,0.6l7.8-6.3L450.9,446.9
		L450.9,446.9z M455.1,449.6 M463.2,449 M465.9,450.8 M468.9,458.3 M468,461.3 M461.7,466.4 M458.7,466.7 M451.8,462.2 M450.6,459.2
		 M452.7,451.4"/>
	<path fill="#FFFFB8" d="M706.6,579.5l5.7,7.8l9-3l-5.7,7.8l5.7,7.8l-9-3l-5.7,7.5v-9.3l-9-3l9-3V579.5L706.6,579.5z M709.6,583.4
		 M716.8,585.8 M718.6,588.2 M718.6,596 M716.8,598.4 M709.6,600.5 M706.6,599.6 M702.1,593.6 M702.1,590.6 M706.6,584.3"/>
	<path fill="#FFFFB8" d="M640.3,496.4l3,2.1l3-2.4l-0.9,3.6l3,2.1h-3.6l-0.9,3.6l-1.5-3.3h-3.6l3-2.1L640.3,496.4L640.3,496.4z
		 M641.8,497.3 M644.8,497.3 M645.7,497.9 M646.9,500.6 M646.6,501.8 M644.2,503.6 M643,503.6 M640.6,502.1 M640.3,500.9
		 M640.9,498.2"/>
	<g>
		<polygon fill-rule="evenodd" clip-rule="evenodd" points="1132.1,536.3 1234.1,574.7 1235.9,568.4 1133.6,530 		"/>
		<g>
			<path fill="#FFFFFF" d="M1132.7,534l0.9-4l-22.2-8.1c-1.5-0.6-3.3,0-3.9,1.8h-0.3c-0.6,1.8,0.3,3.6,2.1,4.2l22.2,8.3L1132.7,534z
				"/>
			<path fill="#FFFFFF" d="M1265.3,579.5l-29.4-11.1l-1.8,6.3l28.8,10.8c1.5,0.6,3.3,0,4.2-1.8
				C1267.7,581.9,1266.8,580.1,1265.3,579.5z"/>
			<polygon fill="#FFFFFF" points="1233.8,574.6 1234.1,574.7 1233.8,574.6 			"/>
		</g>
	</g>
</g>
</svg>
