<?xml version="1.0" encoding="utf-8"?>
<!-- Generator: Adobe Illustrator 18.1.1, SVG Export Plug-In . SVG Version: 6.00 Build 0)  -->
<svg version="1.1" id="Warstwa_1" xmlns="http://www.w3.org/2000/svg" xmlns:xlink="http://www.w3.org/1999/xlink" x="0px" y="0px"
	 viewBox="0 0 1920 1080" enable-background="new 0 0 1920 1080" xml:space="preserve">
<path fill-rule="evenodd" clip-rule="evenodd" fill="#2B2B2B" d="M2212.7,820.2c0,0,104.4-138-24.6-185.8
	c-98.1-36.3-181.3,16.5-310.6,9.6c-53.4-3-118.2-30.6-183.4-36.3c-57.6-4.8-115.2,12-166.2,15c-116.4,7.2-177.7-9-295.3-10.5
	c-66.3-0.9-170.1,36.9-234.4,30c-60.6-6.6-128.4-12.6-193.6-18c-83.7-6.9-139.8,15.6-207.4,16.5c-41.1,0.6-93.9-17.4-135-14.1
	c-46.5,3.6-148.5,28.5-186.7,40.2C206.3,687.6,21.2,606.2-55,639.6C-190.7,699-249.5,790.8-249.5,790.8s-60.3,102,181.9,108.3
	c595.7,15.3,1976.4-63.9,1989.9-63.9C1941.7,835.2,2212.7,820.2,2212.7,820.2z"/>
<path opacity="0.2" fill-rule="evenodd" clip-rule="evenodd" fill="#FFFFFF" d="M1098.8,501.5c14.7-2.4,51.9-11.4,44.4-63.6
	c-2.7-18.3-21.9-38.1-3.6-73.2c30.9-59.1,129.9-27.3,177-13.5c38.1,10.8,87.3-9.9,91.8-51.3c4.2-36.9-27.6-75.3-72.9-65.7
	c-21.6,4.5-42,9.3-58.5,7.5c-39-4.2-56.1-36-48.9-69.9c10.5-50.4,55.5-70.5,109.2-45.3c54,24.9,42.3-32.7,42.3-32.7
	c26.1,16.2,8.7,57.3-13.5,68.4c-11.7,5.7-31.2,8.1-48.6,2.7c-34.8-10.5-43.8,25.2-18,23.7c11.4-0.6,22.2-2.1,33.6-3.3
	c39.3-3.6,85.2-4.8,111.9,32.1c18.6,25.2,27.9,55.5,26.4,84.6c-3.3,72.6-70.2,121.5-140.4,104.1c-34.2-8.4-59.4-32.7-96-40.2
	c-41.4-8.1-61.8,5.7-69,27.9c-4.5,13.2-1.2,28.8-3,45.6c-3.3,29.1-9.3,50.1-33.6,59.7C1121.3,503,1098.8,501.5,1098.8,501.5z"/>
</svg>
