<?xml version="1.0" encoding="utf-8"?>
<!-- Generator: Adobe Illustrator 18.1.1, SVG Export Plug-In . SVG Version: 6.00 Build 0)  -->
<svg version="1.1" id="Warstwa_1" xmlns="http://www.w3.org/2000/svg" xmlns:xlink="http://www.w3.org/1999/xlink" x="0px" y="0px"
	 viewBox="0 0 1920 1080" enable-background="new 0 0 1920 1080" xml:space="preserve">
<g>
	<path fill-rule="evenodd" clip-rule="evenodd" fill="#FFFFFF" d="M1589.7,598.4c0,0,0.6,6.3,9,12c5.1,3.6,8.1,4.8,13.5,8.4
		c3,2.4,6.9,4.8,10.2,11.1c4.2,8.1-2.1,9.6-4.8,3.9c-2.4-4.8-9.6-9.6-9.6-9.6s7.5,8.4,10.2,19.2c1.8,8.1-5.1,9-6.6,1.5
		c-1.2-5.4-3.9-14.7-8.7-16.2c-1.5-0.3,5.1,4.5,6.3,19.2c0.9,14.4-7.5,9.9-7.2,0.6c0-8.4-6.9-16.5-6.9-16.5s2.4,7.5,3,15
		c0.6,7.2-6,11.4-6.3,1.5c0-4.2-1.5-9.6-4.2-13.2c-1.8-2.7-4.8-4.2-4.8-4.2c0-1.5-6.3,0.3-9.6,6c-1.8,3.3-5.7,2.1-4.2-1.8
		c0.6-2.1,1.5-5.4,3-8.1c1.8-3,6.9-6.3,3.9-10.5c-1.2-2.1-4.2-5.7-4.2-5.7s-7.8,1.2-2.1-5.7c6-6.9,16.8-10.2,19.8-10.2
		C1592.7,595.1,1589.7,598.4,1589.7,598.4z"/>
	<path fill-rule="evenodd" clip-rule="evenodd" fill="#FFFFFF" d="M1346.1,635.7c0,0-0.6,6.3-9,12c-5.4,3.3-8.1,4.8-13.5,8.4
		c-3.3,2.1-6.9,4.8-10.2,10.8c-4.2,8.1,2.1,9.9,4.8,4.2c2.1-4.8,9.6-9.6,9.6-9.6s-7.8,8.1-10.2,18.9c-2.1,8.1,5.1,9.3,6.6,1.5
		c1.2-5.4,3.9-14.4,8.7-15.9c1.5-0.6-5.1,4.5-6.3,19.2c-0.9,14.4,7.5,9.9,7.2,0.6c-0.3-8.4,6.9-16.5,6.9-16.5s-2.7,7.2-3,14.7
		c-0.6,7.2,6,11.7,6.3,1.5c0-3.9,1.5-9.3,3.9-12.9c2.1-2.7,4.8-4.2,4.8-4.2c0-1.5,6.6,0,9.6,5.7c1.8,3.6,6,2.1,4.5-1.8
		c-0.6-1.8-1.8-5.1-3.3-8.1c-1.5-3-6.9-6-3.9-10.5c1.5-1.8,4.5-5.4,4.5-5.4s7.8,1.2,1.8-5.7c-5.7-6.9-16.5-10.2-19.5-10.2
		C1343.1,632.4,1346.1,635.7,1346.1,635.7z"/>
	<g>
		<path fill="#FFFFB8" d="M544.8,595.4l3.6,2.4l3.6-2.7l-1.2,4.2l3.6,2.4l-4.2,0.3l-1.2,4.2l-1.5-4.2l-4.5,0.3l3.3-2.7L544.8,595.4
			L544.8,595.4z M546.6,596.6 M550.2,596.3 M551.4,597.2 M552.6,600.5 M552.3,601.7 M549.6,604.1 M548.1,604.1 M545.1,602
			 M544.8,600.8 M545.7,597.5"/>
		<path fill="#FFFFB8" d="M575.2,590.9l3.6,4.8l5.7-1.8l-3.6,4.8l3.6,4.8l-5.7-1.8l-3.6,4.8v-6l-5.7-1.8l5.7-1.8V590.9L575.2,590.9z
			 M577,593.3 M581.5,594.8 M582.7,596.3 M582.7,601.1 M581.5,602.6 M577,604.1 M575.2,603.5 M572.2,599.6 M572.2,597.8
			 M575.2,593.9"/>
		<path fill="#FFFFB8" d="M566.2,615.3l4.8,6.9l8.1-2.7l-5.1,6.9l5.1,6.9l-8.1-2.7l-5.1,6.9l0.3-8.4l-8.1-2.7l8.1-2.7V615.3
			L566.2,615.3z M568.6,618.9 M575.2,621 M576.7,623.1 M576.7,630 M575.2,632.1 M568.6,634.2 M566.2,633.3 M561.9,627.6
			 M561.9,625.2 M566.2,619.5"/>
		<path fill="#FFFFB8" d="M619.3,617.4l4.8,6.6l7.8-2.4l-4.8,6.6l4.8,6.6l-7.8-2.4l-4.8,6.6v-8.4l-7.8-2.4l7.8-2.4V617.4
			L619.3,617.4z M621.7,620.7 M628,622.8 M629.5,624.9 M629.5,631.5 M628,633.6 M621.7,635.7 M619.3,634.8 M615.4,629.4 M615.4,627
			 M619.3,621.6"/>
		<path fill="#FFFFB8" d="M595,658.2l4.8,6.3l7.5-2.4l-4.8,6.3l4.8,6.3l-7.5-2.4l-4.8,6.3v-7.8l-7.5-2.4l7.5-2.4V658.2L595,658.2z
			 M597.4,661.2 M603.4,663.3 M604.9,665.1 M604.9,671.7 M603.4,673.5 M597.4,675.6 M595,674.7 M591.4,669.6 M591.4,667.2
			 M595,662.1"/>
		<path fill="#FFFFB8" d="M641.2,682.2l6.9,9.6l11.1-3.6l-6.9,9.3l6.9,9.6l-11.1-3.6l-6.9,9.3v-11.7l-11.1-3.6l11.1-3.6V682.2
			L641.2,682.2z M644.8,687 M653.8,690 M655.9,693 M655.6,702.3 M653.5,705.3 M644.8,708 M641.2,707.1 M635.8,699.3 M635.8,695.7
			 M641.2,688.2"/>
		<path fill="#FFFFB8" d="M586.9,713.4l1.8,1.2l1.5-1.5l-0.6,2.1l1.8,1.2h-2.1l-0.3,2.1l-0.9-1.8H586l1.5-1.2L586.9,713.4
			L586.9,713.4z M587.8,714 M589.3,714 M589.9,714.3 M590.5,715.8 M590.5,716.4 M589,717.6 M588.4,717.6 M587.2,716.7 M586.9,716.1
			 M587.2,714.3"/>
		<path fill="#FFFFB8" d="M690.4,663.9l3,1.8l3-2.4l-1.2,3.6l3.3,2.1l-3.6,0.3l-1.2,3.6l-1.2-3.6l-3.6,0.3l2.7-2.4L690.4,663.9
			L690.4,663.9z M691.9,664.8 M694.9,664.5 M695.8,665.1 M697,668.1 M696.7,669 M694.3,671.1 M693.1,671.1 M690.7,669.3
			 M690.1,668.4 M691,665.4"/>
		<path fill="#FFFFB8" d="M652.6,640.5l3,2.1l3-2.4l-0.9,3.6l3,1.8l-3.6,0.3l-0.9,3.6l-1.5-3.6l-3.6,0.3l2.7-2.4L652.6,640.5
			L652.6,640.5z M654.1,641.4 M657.1,641.4 M658,642 M659.2,644.7 M658.9,645.9 M656.5,647.7 M655.3,647.7 M652.9,646.2 M652.6,645
			 M653.2,642.3"/>
		<path fill="#FFFFB8" d="M632.8,745.2l6.9,9.9l11.7-3.6l-7.2,9.6l7.2,9.9l-11.7-3.9l-6.9,9.9v-12l-11.7-3.9l11.7-3.6V745.2
			L632.8,745.2z M636.4,750.3 M645.7,753.3 M647.8,756.3 M647.8,766.2 M645.4,769.2 M636.1,772.2 M632.8,771 M627.1,762.9
			 M627.1,759.3 M632.8,751.5"/>
		<path fill="#FFFFB8" d="M691.3,759.3l4.8,6.6l7.8-2.4l-4.8,6.6l4.8,6.6l-7.8-2.7l-4.8,6.6v-8.1l-7.8-2.7l7.8-2.4V759.3
			L691.3,759.3z M693.7,762.6 M700,764.7 M701.5,766.8 M701.5,773.4 M700,775.2 M693.7,777.3 M691.3,776.7 M687.4,771.3
			 M687.4,768.6 M691.3,763.2"/>
		<path fill="#FFFFB8" d="M661.9,803.1l3.6,2.4l3.6-2.7l-1.2,4.2l3.6,2.4l-4.2,0.3l-1.2,4.2l-1.5-4.2l-4.5,0.3l3.3-2.7L661.9,803.1
			L661.9,803.1z M663.7,804.3 M667.3,804 M668.5,804.9 M669.7,808.2 M669.4,809.4 M666.7,811.8 M665.2,811.8 M662.2,809.7
			 M661.9,808.5 M662.8,805.2"/>
		<path fill="#FFFFB8" d="M728.8,839.7l3.6,5.1l5.7-1.8l-3.6,4.8l3.6,4.8l-5.7-1.8l-3.6,4.8v-6l-5.7-1.8l5.7-2.1V839.7L728.8,839.7z
			 M730.6,842.4 M735.1,843.9 M736.3,845.4 M736.3,850.2 M735.1,851.7 M730.6,853.2 M728.8,852.6 M725.8,848.7 M725.8,846.6
			 M728.8,842.7"/>
		<path fill="#FFFFB8" d="M767.5,878.4l3.3,4.8l5.7-1.8l-3.3,4.8l3.3,4.8l-5.7-1.8l-3.3,4.8v-6l-5.7-1.8l5.7-1.8V878.4L767.5,878.4z
			 M769.3,880.8 M773.8,882.3 M774.7,883.8 M774.7,888.6 M773.8,890.1 M769,891.6 M767.5,891 M764.5,887.1 M764.5,885.3
			 M767.5,881.4"/>
		<path fill="#FFFFB8" d="M617.8,884.7l3.3,1.8l2.7-2.1l-0.9,3.3l3.3,2.1l-3.9,0.3l-0.9,3.6l-1.2-3.6l-3.9,0.3l3-2.4L617.8,884.7
			L617.8,884.7z M619.6,885.6 M622.6,885.3 M623.5,886.2 M624.4,888.9 M624.1,889.8 M622,891.9 M620.8,891.9 M618.4,890.4
			 M617.8,889.2 M618.7,886.2"/>
		<path fill="#FFFFB8" d="M537.6,781.5l6,8.4l9.9-3l-6,8.4l6,8.4l-9.9-3.3l-6.3,8.4v-10.5l-9.6-3.3l9.9-3V781.5L537.6,781.5z
			 M540.6,785.7 M548.4,788.4 M550.5,791.1 M550.5,799.5 M548.4,801.9 M540.6,804.6 M537.3,803.7 M532.5,796.8 M532.5,793.5
			 M537.6,786.9"/>
		<path fill="#FFFFB8" d="M450.6,828.9l4.8,6.6l7.8-2.4l-4.8,6.6l4.8,6.6l-7.8-2.4l-4.8,6.6v-8.4l-7.8-2.4l7.8-2.4V828.9
			L450.6,828.9z M453,832.2 M459.3,834.3 M460.8,836.4 M460.8,843 M459.3,845.1 M453,847.2 M450.6,846.3 M446.7,840.9 M446.7,838.5
			 M450.6,833.1"/>
		<path fill="#FFFFB8" d="M500.7,871.2l3.3,1.8l2.7-2.1l-0.9,3.3l3.3,2.1l-3.9,0.3l-0.9,3.6l-1.2-3.6l-3.9,0.3l3-2.4L500.7,871.2
			L500.7,871.2z M502.5,872.1 M505.5,871.8 M506.4,872.7 M507.3,875.4 M507,876.3 M504.9,878.4 M503.7,878.4 M501.3,876.9
			 M500.7,875.7 M501.6,872.7"/>
	</g>
</g>
</svg>
