<?xml version="1.0" encoding="utf-8"?>
<!-- Generator: Adobe Illustrator 18.1.1, SVG Export Plug-In . SVG Version: 6.00 Build 0)  -->
<svg version="1.1" id="Warstwa_1" xmlns="http://www.w3.org/2000/svg" xmlns:xlink="http://www.w3.org/1999/xlink" x="0px" y="0px"
	 viewBox="0 0 1920 1080" enable-background="new 0 0 1920 1080" xml:space="preserve">
<path fill-rule="evenodd" clip-rule="evenodd" fill="#636363" d="M823.3-110.7L583.6-108V74.8l14.7,37.2v64.2l-6.9-66l-7.8-23.4
	v144.3c9.6-13.2,36.9-50.4,67.5-82.2l-6-23.1l12.3-88.2l-6.6,88.2l6,17.4c8.1-7.8,16.2-15.6,24.3-22.2L671.2,6.4l17.4-67.5L675.1,7
	l3.9,52.5l4.2,51.3l1.5,7.8c6.6-4.8,18.3-12.9,24.6-15.9c9.9-4.5,37.8-11.4,46.5-19.5c14.1-12.9,8.1-32.1,14.7-47.4
	c10.5-25.5,27.9-45,27.9-45L823.3-110.7z M583.6-108l-346.3,3.9V16.3l6.3-39.3l-6.3,53.7v89.7l11.4,59.1l-11.4-46.2v239.2l4.2,16.5
	l4.8,2.4l-1.2-43.8l9.6,47.4l1.5,0.9l76.5-90c0,0-0.3-3.6-0.3-9.9l-13.5-97.8l13.2,66.9c2.1-18.3,8.1-56.4,15.6-70.8l-3.3-23.7
	l-15.3-42l24.6,55.8c3-3.9,6.6-7.2,10.5-9.6l0,0l5.7-8.7l-3.9-9l9.9,10.2c2.1-1.5,4.2-3,6.6-4.8l1.8-56.4l3.6,38.4l9.3,7.2
	c5.4-3.9,11.1-8.4,16.8-12.9l-3-10.2l12-198.4l-4.8,157.5l-1.2,28.5l1.8,20.7c11.7-10.2,26.1-28.8,38.4-29.4
	c12-0.6,11.7,19.8,21.9,28.5c17.1,14.4,42,20.4,42.6,21.3l43.2,58.2l4.2-18L556.8,63.4l17.4,135.3l-5.7,21l11.7,16.2
	c0,0,1.2-1.8,3.3-4.8V86.8l-14.7-44.1l8.7-100.5l-6,102l12,30.6V-108z M237.3-104.1l-208.6,2.4l18,178c0,0,54.3,171.9,74.4,209.2
	c20.1,37.5,27,38.4,36.6,49.5l-15-36.6L155,136.6l-8.4,157.8l9.9,27l17.7,30.3c13.5,11.7,23.4,17.1,23.4,17.1l9.9,7.5l9.3-12.6
	l-8.4-59.4l17.1,77.4l5.7,2.4l-12.6-135l13.5,102.6l5.1,20.7V133.3l-11.1-46.2l11.1-70.8V-104.1L237.3-104.1z M237.3,30.7v89.7
	L231,86.5L237.3,30.7z"/>
<path fill-rule="evenodd" clip-rule="evenodd" fill="#636363" d="M1531.2-115.5l232,2.7l-18,211.6c0,0-73.8,22.8-93.9,60
	c-20.1,37.5-18.6,30-28.2,41.1l6.3-28.2l-12-161.7l7.2,147.3l1.8,13.5l-6.9,30.3c-13.5,11.4-44.7,41.1-44.7,41.1l-21.3,9.6
	l-1.2-10.8l11.7-63.3l-17.1,77.4l-5.7,2.4l-1.8-22.8l14.4-112.2l-18,109.2l1.5,18.3l-6,11.4V6.1l7.5-47.1l-5.1-32.1l3.6,33.3
	l-6,40.8V-115.5z M1296.6-118.2l234.7,2.7V1l-7.5,51.9l7.5-46.8v255.4l-0.6,0.9l-4.5,2.4l0.9-43.8l-3.3,32.7l-6,14.7l-1.5,0.9
	l-76.5-83.7c0,0-2.1-16.8-1.8-22.8l8.7-51.3l-12.9,52.5l0.6,18.3l-23.7-7.5c-0.6-5.4-6.6-11.4-6.6-17.4c0.6-11.1,5.4-25.5,8.7-37.5
	c7.2-28.5,17.4-55.5,23.7-78l-34.5,102c-2.7-3.3-4.2-89.1-5.4-103.2c-2.1-1.5,0-8.4-2.4-9.9l-6-85.2l7.8,128.4l-0.9,100.2
	c-5.7-3.9-11.4-8.4-16.8-12.9l3-10.2l-6-44.1l-6.3-188.2l3.3,190l4.5,39.9l-2.4,9.3c-11.7-9.9-27.3-27.3-39.6-27.9
	c-11.7-0.6-11.7,19.8-21.9,28.5c-4.8,4.2-10.5,7.5-16.2,10.5V-4.1l6.9,25.8l-6.9-56.4V-118.2z M1208.3-119.1l88.2,0.9v83.4
	l-2.1-56.1l-4.5,60.6l6.6,26.1V169c-13.2,6.9-25.8,10.2-26.1,10.8l-43.5,58.2l-0.3-15.3l8.4-136.8l-12.6,134.4l-3.3,28.2l-7.2,9.9
	c0,0-1.5-1.8-3.6-4.8V109.3l14.7-44.1l-8.7-134.1l3.6,136.8l-9.6,26.4V-119.1z M968.9-121.8l239.5,2.7V94.3l-14.7,40.2v64.2l6.9-66
	l7.8-23.4v144.3c-9.3-13.2-36.9-50.4-67.5-82.2l6-23.1l-12-88.2l6.9,85.5l-6.3,20.1c-8.1-7.8-20.1-19.2-28.2-25.5L1121,28.9
	l-17.4-101.4l13.2,104.4l-13.2,97.5l-1.5,7.5c-6.6-4.8-13.2-8.7-19.2-11.7c-10.2-4.5-38.1-11.4-46.8-19.5
	c-14.1-12.9-8.1-32.1-14.4-47.4c-10.8-25.5-28.2-45-28.2-45L968.9-121.8z"/>
</svg>
