<?xml version="1.0" encoding="utf-8"?>
<!-- Generator: Adobe Illustrator 18.1.1, SVG Export Plug-In . SVG Version: 6.00 Build 0)  -->
<svg version="1.1" id="Warstwa_1" xmlns="http://www.w3.org/2000/svg" xmlns:xlink="http://www.w3.org/1999/xlink" x="0px" y="0px"
	 viewBox="0 0 1920 1080" enable-background="new 0 0 1920 1080" xml:space="preserve">
<path fill-rule="evenodd" clip-rule="evenodd" fill="#694D3C" d="M1069.2,654.5c0,0,0.3,34.1,1.5,35.9c0.9,1.8,0.9,3,0.9,3
	s0,28.3,1.2,41.7c1.5,13.4,0.3,8.2,0.3,8.2s1.2,3.3,1.8,14.6c0,3,0.3,7.3,0.6,12.2l5.8-11.6l3.7-14.9l2.4-14l3-0.9l-2.1,22.2
	l-3.3,15.8l-8.5,18.6c0.6,9.1,4.3,76.4,4.3,76.4l6.4,31.1c0,0,10.7,3-2.7,5.8c-4.9,1.2-9.1,1.2-12.5,1.2c-6.1,0-10.7-1.2-16.4-1.2
	c-9.1,0-10.4,1.5-16.1,0.6c-6.1-0.9-3.7-5.2-3.3-19.8c0.6-14.9,0.6-105.7,0.6-105.7l-0.3-7.3v-5.2l-6.7-17.1l-4-21.6l-0.3-12.8
	l2.4,0.3v7.3l3.7,14.3l4.6,9.7v-3.7l-1.8-4.3l1.2-22.8l0.6-18.6l-1.8-37.1L1069.2,654.5z"/>
<g>
	<path fill-rule="evenodd" clip-rule="evenodd" fill="#F8F3DE" d="M1129.2,570.8c23.4,39.6,8.2,91.6-31.4,114.8
		c-23.4,14-47.2,14.3-69.4,6.7c-19.5-7-38.4-20.1-49.9-42c-4.6-9.1-7.9-18.6-9.1-27.4c-1.2-11.3,2.4-22.5,5.2-32.9
		c5.8-20.4,18.9-37.1,38.4-48.7C1056.1,516,1104.9,529.1,1129.2,570.8z"/>
	<path fill-rule="evenodd" clip-rule="evenodd" fill="#F0EAD2" d="M1016,668.2c13.7,7.9,10.7-0.3,7-15.5c-1.5-5.8,7.9-8.2,9.7-10.7
		c1.8-2.7,2.1-8.8-3.7-13.4c-2.4-1.8-7.9-0.3-11.3-3c-1.8-1.5-1.8-3.3-1.2-5.2c3.3-9.4,0.3-14.6-11.9-13.1c-4,0.3-7.3,2.4-9.1,5.2
		C986.4,628.6,1002.3,660.6,1016,668.2z"/>
	<path fill-rule="evenodd" clip-rule="evenodd" fill="#F0EAD2" d="M1119.5,620.4c0.6-25.3-10.4-42.9-17.4-49.9
		c-7-6.7-18.6-7.9-22.5,4.3c-3.7,12.2,8.8,25.3,2.1,34.1c-7,9.1,3.7,18.3,10.7,29.5c7.3,11-5.8,20.1,3.3,24.7
		c8.8,4.9,17.1-8.2,20.7-21C1119.5,632,1119.5,622.6,1119.5,620.4z"/>
	<path fill="#DDD4B0" d="M974.8,562.6c-6.4-1.2-21.9-3-35.3,3.7c-8.2,4-12.5,10.4-11.6,18c1.2,8.2,7.6,19.8,25.3,35
		c10,8.5,24.1,15.8,37.8,23.1c14,7.3,29.2,13.7,44.1,19.8c27.7,10.7,57.5,20.7,88,20.7c9.1,0,16.1-0.6,25.3-2.4
		c8.5-1.8,15.2-4.3,19.2-7.6c15.2-12.8,3.3-35-19.2-45.4c-7-3-6.4-4.3,0.3-1.2c21.3,10,35,26.2,30.1,40.2
		c-2.7,7.6-11,15.2-30.1,19.5c-9.4,1.8-18.6,1.5-28.3,1.5c-30.4,0.3-58.5-9.4-86.8-20.4c-14.9-5.8-30.1-12.5-44.5-19.8
		c-14.3-7.3-28.6-14.9-38.7-23.7c-18.6-15.8-26.8-29.5-28-38.7c-3.7-27.4,34.1-26.8,52.7-22.8C979.1,562.6,979.1,563.5,974.8,562.6z
		"/>
	<path fill-rule="evenodd" clip-rule="evenodd" fill="#DDD4B0" d="M975.5,568.7c-7,0-19.2,2.4-15.8,17.4
		c4,19.2,47.5,44.8,101.7,62.1c30.8,9.7,63,12.8,83.1,9.4c13.7-2.1,13.1-14.9-0.6-26.2c-13.1-10.4,32.3,9.1,25,30.4
		c-4.3,11.6-21.6,18.3-46,18.3c-20.1,0-46-6.1-67.3-13.4c-38.1-13.4-81.9-31.7-106.3-55.1c-6.4-5.8-17.4-16.1-18.3-28.6
		c-0.9-14,17.4-19.2,28.9-19.2c5.2,0,11.3,0,15.8,2.1C981.9,568.4,980.6,568.4,975.5,568.7z"/>
	<path fill-rule="evenodd" clip-rule="evenodd" fill="#F0EAD2" d="M1009.6,567.1c-7.3,11.3,0.9,14,13.7,11.6
		c13.1-2.1,19.5,12.5,33.5-2.4c14-15.2,6.7-18.3,0.3-22.8C1044.3,544.9,1016.6,556.5,1009.6,567.1z"/>
</g>
</svg>
