<?xml version="1.0" encoding="utf-8"?>
<!-- Generator: Adobe Illustrator 18.1.1, SVG Export Plug-In . SVG Version: 6.00 Build 0)  -->
<svg version="1.1" id="Warstwa_1" xmlns="http://www.w3.org/2000/svg" xmlns:xlink="http://www.w3.org/1999/xlink" x="0px" y="0px"
	 viewBox="0 0 1920 1080" enable-background="new 0 0 1920 1080" xml:space="preserve">
<path fill-rule="evenodd" clip-rule="evenodd" fill="#4C3A30" d="M1430.9,424.3c2.7-0.3,11.9-1.5,16.7-0.3c2.7,0.6,0.6,4,3.7,4
	c2.4,0.3,4.6-3,7.3-3c6.1,0.3,11.9,0.3,15.8,0c8.2-0.9,3-4.9,9.4-4.9c5.8,0.3,7.3-35.6,11.3-51.8c2.4-11,7.9-4.3,10-4
	c16.1,3,21.9-5.5,24.1,3.3c1.2,5.2,1.2,26.8,1.2,32.6c0,15.2-0.9,24.4-0.6,28c0.3,4-4.6,104.4-4.6,104.4s0-33.5,2.1-64.5
	c0.9-11.3,4.3-20.4,4.9-30.1c0-2.7,1.2-7.9,1.2-10.4c0.6-10.7,0.6-19.2,0.6-21.3c0.3-4,10-1.5,15.8-2.7c1.5-0.3-1.5,21.9,0.3,21.6
	c1.2,0,1.2-21.9,2.1-22.2c3-0.3,6.1-0.6,8.8-0.6c4-0.3,6.4-0.6,7.9-0.3c1.2,0,3.3,3.3,4.6,3.7c2.1,0.6,6.1,0.3,7.6,3.7
	c0.9,1.8,0.3,3.3,0.3,7.6c0.3,2.7,0,8.2,0,11.9c0.3,1.8,2.1,0.6,2.1,2.4c0,3-0.9,8.8-0.9,12.5c0,1.5,2.1,2.1,2.1,4
	c-0.3,35.9-3.7,92.9-3.7,92.9s6.1-102.6,7.3-117.2c1.5-14.3,18-10.4,19.8-1.8c2.1,8.5-1.2,49-1.2,49s0.9-40.5,8.2-45.1
	c7.3-4.9,15.2-0.9,15.2-0.9s2.1,0.9-0.3,64.2c-2.4,63,0.9,72.5,0.9,72.5s5.8,0.9,11,2.1c3,0.9,6.1,0,7.6,4.6
	c1.5,5.2,0.9,106.6,0.9,124.5c0,2.1,2.7-84.9,4.3-84c1.8,0.9,3.3,1.8,3.3,4c0,18.3,0,132.1,0,154.1c0,1.5,4.3-77.9,6.4-77.9
	c2.4,0,4.9,0.6,5.2,3.7c0,11.3,0.3,27.4,0.6,47.2c3-0.9,7.6-2.4,12.8-6.1v-7.6l1.2-10l-0.9-7.6l3.3,7.3l-1.5,5.8l0.9,10l0.6-0.6
	c12.2-9.4,14-17.4,14-30.4s-2.7-20.1,3.3-27.1c6.1-7,13.1-7,13.1-7s-11.3,5.8-12.5,14.3c-1.2,8.5,0,12.2,0.6,18.9
	c0.3,5.2,0.9,11.9-0.6,18h4.3l7.6-6.7h5.8l-6.4,2.1l-8.2,8.2l-4.6,0.3c-0.3,0.6-0.9,1.5-1.2,2.1c-5.2,6.7-11,15.8-15.5,17.1
	c-2.7,0.6-10.4,4.3-15.8,6.7c0.6,49.3,1.8,118.1,2.7,188.2c0.3,17.4,15.2,32.9,15.5,50.2c1.5,122.1-11.9,235-11.9,235l-329.7-1.8
	L1332.6,980l12.5-23.4l-1.8-224.1l3-28.6l6.1,88.9l-0.9-135.2l4.9-71.5l1.2-18.3l5.2-8.2l1.2,90.4l2.1-100.5
	c-4.3-1.8-11.6-5.2-14-5.8c-3.7-0.9-8.2-8.2-12.2-13.4c-0.3-0.6-0.6-0.9-0.9-1.5l-3.7-0.3l-6.4-6.7l-4.9-1.5h4.6l5.8,5.2h3.3
	c-1.2-4.6-0.9-10-0.3-13.7c0.3-5.5,1.2-8.2,0.3-14.9c-0.9-6.1-9.7-11-9.7-11s5.5,0,10,5.5c4.9,5.2,2.7,10.7,2.7,21
	c0,10,1.5,16.1,11,23.7l0.3,0.3l0.9-7.6l-1.2-4.6l2.4-5.8l-0.6,6.1l1.2,7.9v5.8c4.9,3.3,9.1,4.6,11.3,5.2l1.2-56.3l6.7-9.4l1.2,18
	c0.9-9.7,3.7-20.1,4.6-27.7c0.6-4.6,4.9-3,5.5-6.7c2.1-12.8,4.9-21,7.9-26.5c3.3-5.2,7.9-8.2,16.7-9.4c4-0.6,8.2-0.6,14.6-0.9
	c0.9,0,0.9,72.2,1.8,72.2C1427.6,496.5,1429.7,424.3,1430.9,424.3z"/>
<g>
	<path fill-rule="evenodd" clip-rule="evenodd" fill="#C6E9FA" d="M1474.8,784.2c0,0,0.9,23.1-1.2,29.2c-1.2,3.3-4.3,6.1-4,1.5
		c0.3-2.7,0.9-2.4,1.5-4.3c1.2-4.6,2.1-9.7,2.4-13.7C1473.9,791.5,1474.8,784.2,1474.8,784.2z"/>
	<path fill-rule="evenodd" clip-rule="evenodd" fill="#C6E9FA" d="M1539.3,404.9c0,0-2.1,2.7-4.6,26.5c-1.2,11.9-4.6,26.8-5.5,41.1
		c-1.5,26.8,0.3,52.7-1.5,54.2c-1.2,1.2-2.7-28.9-0.9-56.9c0.9-17.1,4.6-30.4,4.9-43.8c0.3-5.2,0.9-5.5,0.6-9.4
		c-0.6-11.9-9.4,10-10.7,14.6c-10.7,32-13.1,61.5-12.2,83.4c0,7-1.5,25.3-1.8,29.2c-1.2,9.4-2.1,0-2.1,0s1.5,10.7,2.4,38.7
		c0.3,11.6,5.5,30.4,5.8,51.2c0,14.3-2.7,0.9-4.3,14.6c-1.5,15.2-1.8,57.2-3,64.9c-1.2,6.4-0.6,19.2,3,73.1
		c0.3,6.7-0.6,21.6,0.9,31.7c0.9,6.4,2.7,14.9,4.3,23.1c1.8,8.2,1.5,14.6,1.8,19.2c0,11.6-5.8-3.3-7,8.2c-1.2,11-5.2,46.9-2.7,74.6
		c1.5,19.2,8.2,21.9,8.2,27.7c-0.6,12.8-7.6,0.9-7.9,5.5c-1.5,23.7-8.2,32.6-7.6,49.9c0.3,8.8,5.2,25,8.5,36.2
		c2.1,7.3-4.6,18-8.8,2.1c-0.6-3-1.8-4.6-2.4-8.8c-1.2,10.4-3,20.1-2.4,32.6c0.6,7.9,4.6,20.1,4,26.2c0,2.4-6.7-4.6-7-2.4
		c-7.9,81.3-14.9,143.4-14.9,143.4l-36.8-7.6c0,0,4.6,0,11-40.2c1.5-9.4,0.9-32.9,2.7-45.4c2.1-12.2,5.2-14,7.9-26.2
		c1.5-7,3-24.4,4-31.7c1.5-9.4-8.2,0.9-7-8.8c0.9-6.7,7.6-18.6,10.4-30.1c3.3-14.9,5.5-28.9,6.7-38.4c3.7-34.4-0.6-71.2,2.4-105
		c0.9-12.2,1.5-27.4-0.6-21.3c-0.6,2.1-1.2,7.3-1.5,9.7c-0.9,8.5-1.8,16.1-3,19.8c-3.3,11-11,18.6-6.1-9.7c4-21.9,6.4-28.9,10-50.8
		c3-19.2,3.7-38.7,4.9-58.2c4.6-63.6,2.4-93.5,2.7-101.7c1.2-32.3-0.6-49.9,2.4-52.7c3-2.4-4.6-11.9-1.5-20.7
		c3.3-9.1,5.5-42.9,5.5-42.9s0-19.8,1.2-29.8c1.2-10.4,2.7-29.5,2.7-29.5s-4,2.7-2.7-3c1.2-5.8,7.6-44.1,7.6-44.1s5.2-22.8,7-35.6
		c1.8-12.8,4.9-17.7,11.3-30.4c4.6-9.4,11-16.1,13.4-18.3c0.3-0.3,4-0.9,5.5,0.6C1538.4,404.6,1539.3,404.9,1539.3,404.9z"/>
	<path fill-rule="evenodd" clip-rule="evenodd" fill="#C6E9FA" d="M1525.9,426.2c0-0.9-6.1,14.9-5.5,24.7c0.3,9.7-3.7,11.9-3.7,5.8
		c0-5.8,1.5-15.5,4.9-22.8C1525,426.8,1525.9,427.1,1525.9,426.2z"/>
	<path fill-rule="evenodd" clip-rule="evenodd" fill="#C6E9FA" d="M1509.2,435.6c0,0-4.6,16.1-6.7,25.9c-2.1,9.7-3.3,19.5-5.5,24.1
		s0.3-10,2.4-20.7C1501.6,454.2,1509.2,435.6,1509.2,435.6z"/>
	<path fill-rule="evenodd" clip-rule="evenodd" fill="#C6E9FA" d="M1511.9,492.5c0,0-1.2,24.1-0.6,29.8c0.6,5.5,2.7,9.7,2.4-4.6
		C1513.1,503.5,1511.9,492.5,1511.9,492.5z"/>
	<path fill-rule="evenodd" clip-rule="evenodd" fill="#C6E9FA" d="M1510.4,414.9c0,0-11.9,22.5-12.8,27.4c-0.9,5.2,0,9.4,3.7-2.7
		C1504.9,427.7,1510.4,414.9,1510.4,414.9z"/>
	<path fill-rule="evenodd" clip-rule="evenodd" fill="#C6E9FA" d="M1487.6,573.8c0,0,0.9,22.8-1.2,29.2c-0.9,3-4.3,6.1-3.7,1.2
		c0-2.7,0.9-2.4,1.5-4.3c1.2-4.6,1.8-9.7,2.1-13.7C1487,580.8,1487.6,573.8,1487.6,573.8z"/>
	<path fill-rule="evenodd" clip-rule="evenodd" fill="#C6E9FA" d="M1486.1,538.8c0,0-4,14.6-4,18.3c0,3.7,1.5,6.4,2.7-2.4
		C1486.1,545.5,1486.1,538.8,1486.1,538.8z"/>
	<path fill-rule="evenodd" clip-rule="evenodd" fill="#C6E9FA" d="M1514.1,577.5c0,0,0,14.9,1.2,18.6c0.9,3.3,3,5.8,1.8-3
		C1515.9,583.9,1514.1,577.5,1514.1,577.5z"/>
	<path fill-rule="evenodd" clip-rule="evenodd" fill="#C6E9FA" d="M1478.1,571.1c0,0-2.4,6.4-4.6,13.4c-2.4,7-4,2.1,0.6-6.7
		C1478.4,569.3,1478.1,571.1,1478.1,571.1z"/>
	<path fill-rule="evenodd" clip-rule="evenodd" fill="#C6E9FA" d="M1540.9,411.3c0,0-3.7,4.9-5.8,13.7c-1.8,8.5-4.3,4-1.5-2.4
		S1540.9,411.3,1540.9,411.3z"/>
	<path fill-rule="evenodd" clip-rule="evenodd" fill="#C6E9FA" d="M1483.6,726.4c0,0,0.6,22.8-1.5,29.2c-0.9,3-4.3,6.1-3.7,1.2
		c0.3-2.7,0.9-2.4,1.5-4.3c1.2-4.6,2.1-9.7,2.1-13.7C1482.7,733.4,1483.6,726.4,1483.6,726.4z"/>
	<path fill-rule="evenodd" clip-rule="evenodd" fill="#C6E9FA" d="M1489.7,684.4c0,0,0.9,22.8-1.2,29.2c-1.2,3-4.6,6.1-4,1.2
		c0.3-2.4,0.9-2.4,1.5-4.3c1.2-4.6,2.1-9.4,2.4-13.4C1488.8,691.7,1489.7,684.4,1489.7,684.4z"/>
	<path fill-rule="evenodd" clip-rule="evenodd" fill="#C6E9FA" d="M1516.2,688c0,0,0,14.9,0.9,18.6c0.9,3.7,3.3,6.1,2.1-3
		C1518,694.7,1516.2,688,1516.2,688z"/>
	<path fill-rule="evenodd" clip-rule="evenodd" fill="#C6E9FA" d="M1487.9,677.7c0,0-2.7,6.7-4.9,13.7c-2.1,7-3.7,1.8,0.6-6.7
		C1488.2,676.1,1487.9,677.7,1487.9,677.7z"/>
	<path fill-rule="evenodd" clip-rule="evenodd" fill="#C6E9FA" d="M1509.2,720.6c0,0-1.5,23.7-0.6,29.5c0.6,5.8,2.7,9.7,2.1-4.6
		C1510.4,731.2,1509.2,720.6,1509.2,720.6z"/>
	<path fill-rule="evenodd" clip-rule="evenodd" fill="#C6E9FA" d="M1516.2,631.7c0,0,0,15.2,0.9,18.6c0.9,3.7,3.3,6.1,2.1-3
		C1518,638.4,1516.2,631.7,1516.2,631.7z"/>
	<path fill-rule="evenodd" clip-rule="evenodd" fill="#C6E9FA" d="M1507.7,848.5c0,0,0,71.5,2.4,88.3c2.1,16.7,7.6,28.3,4.9-14.3
		C1511.9,880.1,1507.7,848.5,1507.7,848.5z"/>
	<path fill-rule="evenodd" clip-rule="evenodd" fill="#C6E9FA" d="M1472.4,956.9c0,0,2.1,52.1-2.7,66.7c-2.4,7.3-9.7,14-8.8,3
		c0.6-6.1,2.1-5.8,3.3-9.7c3-10.4,4.9-21.9,5.5-31.1C1470.5,973.3,1472.4,956.9,1472.4,956.9z"/>
</g>
<path fill-rule="evenodd" clip-rule="evenodd" fill="#EC766A" d="M1329.6,487.4c0,0,10.7-2.4,11.6-4.3c0.9-2.1-7.9-3.3-7.9-3.3
	s2.7-7.3,1.8-9.4c-0.6-2.1-7.3,4-7.3,4s-1.8-5.5-4-7.9c-2.1-2.7-1.8,7-0.6,9.7c1.2,3-4.3-0.6-7.6,0c-3,0.9,4.6,5.5,4.6,5.5
	s-7,4.9-5.8,6.4c1.5,1.5,7-2.1,7-2.1s-0.3,3,0.9,6.4c1.5,3.3,3.3-2.1,3.3-2.1s3.7,2.4,6.4,3.3
	C1334.4,494.7,1329.6,487.4,1329.6,487.4z"/>
<path fill-rule="evenodd" clip-rule="evenodd" fill="#EC766A" d="M1719.3,668.2c0,0,11.9-2.1,12.8-4.6c0.9-2.1-8.5-3.7-8.5-3.7
	s2.7-7.9,1.8-10c-0.9-2.4-7.9,4-7.9,4s-2.1-5.8-4.6-8.5c-2.1-3-1.8,7.6-0.6,10.7c1.2,3.3-4.9-0.6-8.2,0.3c-3.7,0.6,5.2,5.8,5.2,5.8
	s-7.9,5.5-6.4,7c1.2,1.8,7.6-2.4,7.6-2.4s-0.6,3.3,0.9,7.3c1.8,3.7,3.7-2.4,3.7-2.4s4,2.4,7,4
	C1724.8,677.1,1719.3,668.2,1719.3,668.2z"/>
</svg>
