<?xml version="1.0" encoding="utf-8"?>
<!-- Generator: Adobe Illustrator 18.1.1, SVG Export Plug-In . SVG Version: 6.00 Build 0)  -->
<svg version="1.1" id="Warstwa_1" xmlns="http://www.w3.org/2000/svg" xmlns:xlink="http://www.w3.org/1999/xlink" x="0px" y="0px"
	 viewBox="0 0 1920 1080" enable-background="new 0 0 1920 1080" xml:space="preserve">
<path fill-rule="evenodd" clip-rule="evenodd" fill="#A27E6A" d="M1854.5,194.5c-1.2,0-6.1-0.6-8.5,0c-1.5,0.3-0.3,1.8-2.1,1.8
	c-1.2,0.3-2.4-1.5-3.7-1.2c-3.3,0-6.4,0-8.5,0c-4.3-0.6-1.5-2.4-4.9-2.4c-5.5,0-7.9,1.5-10.7,1.8c-13.4,2.4-13.4,0.9-13.1,7.9
	c0.3,7,0.9,11.3,0.6,13.1c0,1.8-7.3,49.9-7.3,49.9s2.4,29.5,0.6,12.5c0-1.2-0.6-3.7-0.9-4.9c-0.3-4.9-0.6-8.8-0.6-9.7
	c0-1.8-5.2-0.9-8.2-1.2c-0.9-0.3,1.2,10,0,10c-0.6,0-0.9-10.4-1.5-10.4c-1.5-0.3-3-0.3-4.6-0.3c-2.1-0.3-3.3-0.3-4.3-0.3
	c-0.6,0.3-1.5,1.5-2.1,1.8c-1.2,0.3-3.3,0-4,1.8c-0.6,0.6-0.3,1.5-0.3,3.3c0,1.2,0.3,4,0.3,5.5c0,0.9-0.9,0.3-0.9,1.2
	c0,1.5,0.6,4,0.6,5.8c0,0.9-1.2,0.9-1.2,1.8c0.6,16.7,1.8,20.7,1.8,20.7s-3-25.3-4.3-32c-0.9-6.7-9.4-4.9-10.4-0.9
	s1.2,22.8,1.2,22.8s-0.9-18.9-4.9-21c-4-2.1-7.9-0.3-7.9-0.3s-1.2,0.3,0.9,29.8c2.4,29.2-5.2-22.8-5.2-22.8s-3,0.3-5.8,0.9
	c-1.5,0.6-3.3,0.3-4,2.1c-0.6,2.7,1.2,49.6,1.5,58.2c0,0.9-2.7-39.6-3.7-39.3c-0.9,0.6-1.5,0.9-1.5,1.8c0.3,8.5,1.8,61.5,2.1,71.9
	c0,0.6-3.3-36.2-4.6-36.2c-1.2,0-2.4,0-2.4,1.5c0,16.4-4.6,63.6-11.6,102.3c-3,16.1-10,19.2-11.6,36.8
	c-5.5,52.1,0.9,110.2,0.9,110.2c25.6,2.1,19.2,11.6,37.4,13.1c6.1,0.6,34.7-7.6,41.7-7c6.7,0.9,17.4,8.5,25,8.5
	c5.8,0.3,29.2-7.6,35-7.6c6.4,0,16.1,4,22.8,3.7c21.9-0.9,47.2-2.7,54.2-2.4c7.3,0.3-3.3,2.4-15.8-28.3l-6.4-97.1l1.5-113.6
	l-2.1-13.1l-1.8,41.1l-1.5-62.7c-2.1-18.6,0.3-27.1,0-32.3c-0.9-8.8-3-10.7,0.6-48.7l-4-4.3l-1.5-10.4c-0.6-4.9-2.1-9.4-2.7-13.1
	c-0.6-2.1-2.7-1.2-3-3c-1.5-6.1-3-9.7-4.6-12.2c-1.8-2.4-4.6-4-9.1-4.6c-2.1-0.3-4.3-0.3-7.6-0.3c-0.6,0,0.6,33.5,0,33.5
	C1857.5,228.3,1855.4,194.8,1854.5,194.5z"/>
<path fill-rule="evenodd" clip-rule="evenodd" fill="#A27E6A" d="M607.4,200.6c-0.9-0.3-3.7-0.6-5.2-0.3c-0.6,0.3,0,1.2-0.9,1.2
	s-1.5-0.9-2.1-0.9c-2.1,0-3.7,0.3-4.9,0c-2.4,0-0.9-1.2-3-1.2c-3,0-4.3,0.9-6.1,1.2c-7.6,1.2-7.6,0.3-7.6,4.3
	c0.3,4.3,0.6,6.7,0.6,7.6c0,0.9-4.3,28.9-4.3,28.9s1.5,16.7,0.3,7c0-0.6-0.3-2.1-0.6-2.7c0-2.7-0.3-5.2-0.3-5.8c0-0.9-3-0.3-4.6-0.6
	c-0.6,0,0.6,5.8,0,5.8c-0.3,0-0.6-6.1-0.9-6.1c-0.9,0-1.8,0-2.7,0c-1.2-0.3-1.8-0.3-2.4-0.3c-0.3,0.3-0.9,0.9-1.2,1.2
	c-0.6,0-1.8,0-2.4,0.9c-0.3,0.6,0,0.9,0,2.1c0,0.6,0,2.1,0,3c0,0.6-0.3,0-0.3,0.6c0,0.9,0.3,2.4,0.3,3.3c0,0.6-0.6,0.6-0.6,1.2
	c0.3,9.4,0.9,11.6,0.9,11.6s-1.8-14.3-2.4-18.3c-0.3-3.7-5.5-2.7-6.1-0.3c-0.3,2.1,0.9,13.1,0.9,13.1s-0.6-11-2.7-12.2
	c-2.4-1.2-4.6-0.3-4.6-0.3s-0.9,0.3,0.6,17.4c1.2,16.7-3-13.1-3-13.1s-1.8,0-3.3,0.6c-0.9,0-1.8,0-2.4,1.2
	c-0.3,1.2,0.9,28.3,0.9,33.2c0,0.6-1.5-22.8-2.1-22.5c-0.3,0.3-0.9,0.6-0.9,1.2c0.3,4.9,1.2,35.3,1.5,41.1c0,0.3-2.1-20.7-2.7-20.7
	c-0.9,0-1.5,0-1.5,0.9c0,9.4-2.4,36.5-6.7,58.8c-1.8,9.4-5.8,11-6.7,21.3c-3,30.1,0.6,63.3,0.6,63.3c14.6,1.2,11,6.7,21.6,7.6
	c3.3,0.3,19.8-4.3,24.1-4c3.7,0.3,10,4.9,14.3,4.9c3.3,0,16.7-4.6,20.1-4.6c3.7,0,9.4,2.4,13.1,2.1c12.8-0.6,20.1-0.3,24.1,0
	c4.3,0,5.2,0-2.1-17.4l-2.7-121.5l-1.2-7.6l-0.9,23.7l-0.9-36.2c-1.2-10.7,0.3-15.5,0-18.6c-0.6-5.2-1.8-6.1,0.3-28l-2.1-2.4
	l-0.9-6.1c-0.3-2.4-1.5-5.2-1.8-7.3c0-1.2-1.5-0.9-1.5-1.8c-0.9-3.3-1.8-5.5-2.7-7s-2.4-2.1-5.2-2.7c-1.2,0-2.4,0-4.6,0
	c0,0,0.6,19.2,0.3,19.2C608.9,219.7,607.7,200.6,607.4,200.6z"/>
</svg>
