<?xml version="1.0" encoding="utf-8"?>
<!-- Generator: Adobe Illustrator 18.1.1, SVG Export Plug-In . SVG Version: 6.00 Build 0)  -->
<svg version="1.1" id="Warstwa_1" xmlns="http://www.w3.org/2000/svg" xmlns:xlink="http://www.w3.org/1999/xlink" x="0px" y="0px"
	 viewBox="0 0 1920 1080" enable-background="new 0 0 1920 1080" xml:space="preserve">
<path fill-rule="evenodd" clip-rule="evenodd" fill="#876151" d="M1045.2,558.9c0,0,0.9-40.2,1.5-61.5c0.6-24.4,1.2-55.7,2.4-78.2
	c2.1-42.3,5.8-45.7,14.6-45.7c0,0-1.5-41.7,4.3-55.7c9.4-24.1,6.7-107.2,9.7-151.3c1.2-14.9,10.4,7.9,11-5.5
	c0.6-9.7,2.7-46.9,3-55.1c0.3-17.7-2.1-16.1,8.8-18.3l1.5,49L1103,91l8.2,99.3l-3.7-103.5h0.9c5.5-0.6,16.4,1.2,25,0.6
	c4.9-0.3,12.2-0.6,20.4-1.2l4.9,33.2l0.9-33.5c4-0.3,7.9-0.3,12.2-0.6c3.3-0.3,4.6,10,7.6,9.7c2.1,0,6.4-10.7,8.5-10.7
	c4,0,0.6,69.1,3.7,69.1c4,0,3.3-68.8,5.8-68.8c3,0.3,7.9,8.8,13.7,8.8c7.6,0,15.2,11,18.3,11.9c9.1,2.1,14,16.4,16.4,22.2
	c4.6,9.4,2.4,13.7,2.1,29.5c0,12.8-0.6,30.8,0,49.6c0,0.3-4.3,71.2,1.8,0.3c0.3-1.8,4.6-0.6,4.6,0c0.6,30.4-3.3,114.5,4.6,132.1
	c0.9,2.1,1.8-44.1,2.4-41.7c6.1,21.3,6.1,55.4,7.3,63.3c1.5,8.8,3-4.9,3,13.7c0,18.3-0.9,23.7-0.9,23.7s16.1,3,16.7,20.7
	c0.9,17.4,0,97.7-1.2,114.2c-0.9,9.4-75.2,18.9-141,19.5c-9.4,0-19.5,2.4-28,2.1c-7.3,0-14.9-12.8-20.7-9.7
	c-6.7,3.3-17.4,14.3-20.7,3.3C1071.1,531.2,1045.2,558.9,1045.2,558.9z"/>
<g>
	<path fill-rule="evenodd" clip-rule="evenodd" fill="#C6E9FA" d="M1190.7,317.8c0,0-0.6,14,0.9,18c0.6,1.8,2.4,3.7,2.1,0.9
		c0-1.8-0.6-1.5-0.9-2.7c-0.6-2.7-1.2-5.8-1.2-8.2C1191.3,322.3,1190.7,317.8,1190.7,317.8z"/>
	<path fill-rule="evenodd" clip-rule="evenodd" fill="#C6E9FA" d="M1151.1,85.2c0,0,1.5,1.8,2.7,16.1c0.9,7.3,3,16.4,3.3,25.3
		c0.9,16.7,0,32.6,0.9,33.5c0.9,0.6,1.5-18,0.6-35.3c-0.6-10.4-2.7-18.6-3-26.8c0-3-0.3-3.3-0.3-5.8c0.3-7,5.8,6.4,6.7,8.8
		c6.4,19.8,7.9,38.1,7.3,51.5c0,4.3,0.9,15.5,1.2,18c0.6,5.8,1.2,0,1.2,0s-0.9,6.4-1.5,23.7c0,7-3.3,18.6-3.3,31.4
		c-0.3,8.8,1.5,0.6,2.4,8.8c0.9,9.4,1.2,35,1.8,39.9c0.9,3.7,0.3,11.6-1.8,44.8c-0.3,4,0.3,13.1-0.6,19.2c-0.6,4-1.5,9.4-2.7,14.3
		c-0.9,5.2-0.9,8.8-0.9,11.9c0,7,3.7-2.1,4.3,4.9c0.9,6.7,3,28.6,1.8,45.7c-0.9,11.9-5.2,13.7-5.2,17.1c0.3,7.9,4.6,0.6,4.9,3.3
		c0.9,14.6,5.2,20.1,4.6,30.4c0,5.5-3,15.5-5.2,22.5c-1.2,4.3,2.7,10.7,5.5,0.9c0.3-1.8,0.9-2.4,1.5-5.2c0.6,6.4,1.8,11.9,1.2,19.5
		c-0.3,4.9-2.7,12.5-2.4,16.1c0.3,1.5,4.3-2.7,4.6-1.5c4.9,49.9,9.1,88,9.1,88l22.5-4.6c0,0-2.7,0-6.7-24.7
		c-0.9-5.8-0.6-20.4-1.8-28c-1.2-7.3-3-8.5-4.6-15.8c-1.2-4.6-2.1-14.9-2.7-19.5c-0.6-5.8,5.2,0.6,4.3-5.5c-0.3-4-4.6-11.3-6.1-18
		c-2.1-9.4-3.7-18-4.3-23.7c-2.1-21,0.3-43.5-1.2-64.2c-0.9-7.6-1.2-16.7,0.3-13.1c0.3,1.2,0.6,4.6,0.9,6.1
		c0.3,5.2,0.9,9.7,1.8,11.9c1.8,7,6.7,11.6,3.7-5.8c-2.4-13.4-4-18-6.1-31.1c-1.8-11.9-2.4-23.7-3-35.9c-2.7-38.7-1.5-57.2-1.8-62.1
		c-0.6-19.8,0.6-30.8-1.2-32.3s2.7-7.3,0.6-12.8c-1.8-5.5-3-26.2-3-26.2s0-12.2-0.9-18.3c-0.6-6.4-1.5-18.3-1.5-18.3
		s2.4,1.8,1.5-1.8c-0.6-3.3-4.6-27.1-4.6-27.1s-3-14-4.3-21.9c-1.2-7.6-3-11-7-18.6c-2.7-5.8-6.7-10-8.2-11.3
		c-0.3,0-2.4-0.6-3.3,0.3C1151.7,84.9,1151.1,85.2,1151.1,85.2z"/>
	<path fill-rule="evenodd" clip-rule="evenodd" fill="#C6E9FA" d="M1159.4,98.3c0-0.6,3.7,9.1,3.3,14.9c-0.3,6.1,2.1,7.3,2.1,3.7
		s-0.9-9.4-2.7-14C1160,98.6,1159.4,98.9,1159.4,98.3z"/>
	<path fill-rule="evenodd" clip-rule="evenodd" fill="#C6E9FA" d="M1169.4,104c0,0,3,9.7,4.3,15.8c1.2,5.8,2.1,11.9,3.3,14.6
		c1.2,3-0.3-6.1-1.5-12.5C1174.3,115.3,1169.4,104,1169.4,104z"/>
	<path fill-rule="evenodd" clip-rule="evenodd" fill="#C6E9FA" d="M1167.9,139.1c0,0,0.9,14.6,0.3,18.3c-0.3,3.3-1.5,6.1-1.2-2.7
		C1167.3,145.8,1167.9,139.1,1167.9,139.1z"/>
	<path fill-rule="evenodd" clip-rule="evenodd" fill="#C6E9FA" d="M1168.8,91.3c0,0,7.3,14,7.9,17.1c0.6,3,0,5.5-2.4-1.8
		C1172.1,99.2,1168.8,91.3,1168.8,91.3z"/>
	<path fill-rule="evenodd" clip-rule="evenodd" fill="#C6E9FA" d="M1182.8,188.7c0,0-0.6,14,0.6,18c0.9,2.1,2.7,4,2.4,0.9
		c0-1.5-0.6-1.5-0.9-2.7c-0.9-2.7-1.2-5.8-1.5-8.2C1183.4,193.3,1182.8,188.7,1182.8,188.7z"/>
	<path fill-rule="evenodd" clip-rule="evenodd" fill="#C6E9FA" d="M1183.7,167.4c0,0,2.4,8.8,2.4,11.3c0,2.1-0.9,4-1.5-1.5
		C1183.7,171.6,1183.7,167.4,1183.7,167.4z"/>
	<path fill-rule="evenodd" clip-rule="evenodd" fill="#C6E9FA" d="M1166.7,191.1c0,0,0,9.1-0.6,11.3c-0.6,2.1-2.1,3.7-1.5-1.8
		C1165.4,195.1,1166.7,191.1,1166.7,191.1z"/>
	<path fill-rule="evenodd" clip-rule="evenodd" fill="#C6E9FA" d="M1188.6,187.2c0,0,1.5,4,2.7,8.2c1.5,4.3,2.4,1.2-0.3-4
		C1188.3,186.2,1188.6,187.2,1188.6,187.2z"/>
	<path fill-rule="evenodd" clip-rule="evenodd" fill="#C6E9FA" d="M1150.2,89.1c0,0,2.1,3,3.3,8.2c1.2,5.5,2.7,2.4,1.2-1.5
		C1153,92.2,1150.2,89.1,1150.2,89.1z"/>
	<path fill-rule="evenodd" clip-rule="evenodd" fill="#C6E9FA" d="M1185.2,282.2c0,0-0.3,14,0.9,18c0.6,2.1,2.7,4,2.4,0.9
		c-0.3-1.5-0.6-1.5-0.9-2.7c-0.9-2.7-1.5-5.8-1.5-8.2C1185.8,286.7,1185.2,282.2,1185.2,282.2z"/>
	<path fill-rule="evenodd" clip-rule="evenodd" fill="#C6E9FA" d="M1181.6,256.6c0,0-0.6,14,0.9,18c0.6,1.8,2.4,3.7,2.1,0.6
		c0-1.5-0.6-1.5-0.9-2.4c-0.6-2.7-1.2-5.8-1.2-8.2C1182.2,260.8,1181.6,256.6,1181.6,256.6z"/>
	<path fill-rule="evenodd" clip-rule="evenodd" fill="#C6E9FA" d="M1165.4,258.7c0,0,0,9.4-0.6,11.6c-0.6,2.1-2.1,3.7-1.2-1.8
		C1164.2,263,1165.4,258.7,1165.4,258.7z"/>
	<path fill-rule="evenodd" clip-rule="evenodd" fill="#C6E9FA" d="M1182.8,252.6c0,0,1.5,4,2.7,8.2c1.5,4.3,2.4,1.2-0.3-4
		C1182.5,251.4,1182.8,252.6,1182.8,252.6z"/>
	<path fill-rule="evenodd" clip-rule="evenodd" fill="#C6E9FA" d="M1169.7,278.8c0,0,0.6,14.6,0.3,18c-0.3,3.7-1.5,6.1-1.5-2.7
		C1168.8,285.2,1169.7,278.8,1169.7,278.8z"/>
	<path fill-rule="evenodd" clip-rule="evenodd" fill="#C6E9FA" d="M1165.4,224.3c0,0,0,9.1-0.6,11.6c-0.6,2.1-2.1,3.7-1.2-1.8
		C1164.2,228.3,1165.4,224.3,1165.4,224.3z"/>
	<path fill-rule="evenodd" clip-rule="evenodd" fill="#C6E9FA" d="M1170.6,357.4c0,0,0,43.5-1.5,53.9c-1.2,10-4.6,17.4-3-8.8
		C1167.9,376.5,1170.6,357.4,1170.6,357.4z"/>
	<path fill-rule="evenodd" clip-rule="evenodd" fill="#C6E9FA" d="M1192.2,423.7c0,0-1.2,31.7,1.5,40.8c1.5,4.3,6.1,8.5,5.5,1.8
		c-0.3-3.7-1.2-3.7-2.1-6.1c-1.8-6.4-2.7-13.4-3.3-18.9C1193.2,433.8,1192.2,423.7,1192.2,423.7z"/>
	<path fill-rule="evenodd" clip-rule="evenodd" fill="#C6E9FA" d="M1195.9,522.7c0,0,5.2,23.1,10,28.6c2.1,2.7,7.3,4.6,5.5,0
		c-0.9-2.7-2.1-2.1-3.3-3.7c-3-4.3-5.5-9.1-7-12.8C1198.9,529.4,1195.9,522.7,1195.9,522.7z"/>
</g>
<path fill-rule="evenodd" clip-rule="evenodd" fill="#876151" d="M785.8,613.4c0,0,0.6-35,0.9-53.9c0.3-21.6,2.4-38.1,2.7-57.8
	c1.2-36.8,1.5-50.5,6.1-50.5c0,0-0.9-36.5,2.1-48.7c4.9-21,3.3-94.1,5.2-132.4c0.6-13.1,5.2,7,5.5-4.9c0.3-8.5,1.5-41.1,1.5-48.1
	c0.3-15.5-0.9-14,4.9-16.1l0.6,42.9l0.6-39.9l4.3,87.1l-2.1-91h0.6c2.7-0.3,8.5,1.2,13.1,0.6c2.4,0,6.1-0.6,10.4-0.9l2.4,28.9
	l0.6-29.2c2.1-0.3,4.3-0.3,6.4-0.6c1.5-0.3,2.1,8.8,3.7,8.5c1.2,0,3.7-9.1,4.6-9.1c2.1-0.3,0.3,60.3,2.1,60.3
	c1.8,0,1.5-60.3,2.7-60.3c1.8,0.3,4.3,7.9,7.3,7.9c4,0,8.5-7.6,10-6.7c11,4.9,8.5-2.7,7.9,14.6c-0.3,8.5,1.2,36.2,0.9,47.5
	c0,11.6-0.3,27.1,0,43.8c0,0.3-2.1,62.1,1.2,0c0-1.5,2.1-0.6,2.1,0c0.3,26.8-1.5,100.5,2.4,115.7c0.3,1.8,0.9-38.7,1.2-36.5
	c1.2,7.9,2.1,17.7,2.4,26.8l0.3-0.6l0.9-5.2l0.9,5.5l-1.8,3c0,2.1,0.3,4.6,0.3,6.7c8.8-4.3,11.6-9.1,13.7-17.7
	c2.4-8.8,2.1-14,7.3-17.4c5.5-3.7,10.4-2.4,10.4-2.4s-8.8,1.8-11.3,7.3c-2.4,5.8-2.1,8.2-3,12.8c-0.6,3.7-1.5,8.2-3.7,12.2l2.7,0.6
	l6.4-3l4,0.9l-4.6,0.3l-7.3,4.3l-3-0.6c-0.6,0.3-0.9,0.6-1.2,0.9c-3.3,2.7-7,6.1-10,7.6c0,6.4,0.3,11.3,0.3,13.4
	c0.9,7.9,1.8-4.3,1.8,11.9c0,16.4-0.6,21-0.6,21s8.5,2.7,8.8,18c0.3,10-4.6,55.7,0,83.1c2.1,14.3,8.8,18.9,8.5,23.7
	c0,3.7-8.2,7.3-21.3,8.8c-8.5,0.9-18.9-3.7-29.8-3.7c-5.2,0-3.3,3.7-15.8,2.4c-5.5-0.6-10.7,2.4-15.2,2.4c-4.9,0-10,2.1-14.6,2.1
	c-3.7-0.3-7.6-11.3-10.7-8.5c-3.3,2.7-9.1,12.5-10.7,2.7C799.2,589.1,785.8,613.4,785.8,613.4z"/>
<g>
	<path fill="#694D3C" d="M1071.4,215.5c-7,0.3-24.1,1.5-36.2,7.9c-7.3,3.7-10.4,8.2-7.3,12.8c3,5.2,13.1,11.6,35.6,18.3
		c12.8,4,29.2,6.1,46,8.5c16.4,2.4,34.1,4.3,51.5,5.5c32,2.4,65.8,4.3,97.7-0.6c9.7-1.5,17.1-3,26.2-5.5c8.2-2.4,14.6-5.2,18-7.9
		c12.5-10.4-5.8-22.5-32.3-25.6c-7.9-0.9-7.6-1.5,0.3-0.6c25,2.7,43.8,11,42,20.4c-0.9,5.2-7.3,11.3-26.5,17.1
		c-9.4,2.7-19.2,4-29.2,5.5c-32.3,4.9-64.2,3-96.5,0.6c-17.4-1.2-35.3-3-52.1-5.5c-16.7-2.4-33.8-4.9-46.9-8.8
		c-23.4-7-35.6-14.3-39.6-20.1c-11-16.4,28.9-21.9,49.6-22.5C1075.6,214.9,1076.2,215.2,1071.4,215.5z"/>
	<path fill-rule="evenodd" clip-rule="evenodd" fill="#694D3C" d="M1073.5,219.1c-7.3,1.2-19.5,4.6-12.2,13.4
		c9.4,11.6,61.8,20.7,123.3,23.1c35,1.5,69.4-1.8,89.8-7c13.7-3.7,10-11.6-7.6-16.4c-16.1-4.6,36.5,0.6,34.4,15.2
		c-1.2,7.9-18,14.9-43.5,18.6c-21,3.3-49.9,3.3-74.3,2.1c-43.5-2.4-94.4-7-126.4-18c-7.9-2.7-22.2-7.3-26.5-14.9
		c-4.6-8.8,13.4-14.9,25.6-16.7c5.2-0.9,11.6-1.8,17.1-1.2C1080.2,217.9,1079,218.2,1073.5,219.1z"/>
</g>
</svg>
