<?xml version="1.0" encoding="utf-8"?>
<!-- Generator: Adobe Illustrator 18.1.1, SVG Export Plug-In . SVG Version: 6.00 Build 0)  -->
<svg version="1.1" id="Warstwa_1" xmlns="http://www.w3.org/2000/svg" xmlns:xlink="http://www.w3.org/1999/xlink" x="0px" y="0px"
	 viewBox="0 0 1920 1080" enable-background="new 0 0 1920 1080" xml:space="preserve">
<path fill-rule="evenodd" clip-rule="evenodd" fill="#775949" d="M1704.1,889.9c-0.9-34.4,4.3-389.4,2.1-420.8
	c-4.3-60-11.3-64.5-27.7-64.5c0,0,2.4-58.8-8.2-78.9c-11.3-20.7-18.6-59.7-28.3-80.1c-3.7-7.6-7.9-11.9-11.6-15.8
	c-2.7-3-3.7,88.6-5.5,84.6c-1.2-2.7-1.2-87.1-1.2-91.9c-0.3-12.8-0.6-23.1-1.2-32.3c-1.2-20.4,5.8-26.2-4.6-27.1
	c-1.2-0.3-4,6.1-7,6.1c-5.2,0-11.6-5.8-15.2-5.8l1.5,83.7v38.1l-7.6-114.8L1589,203l-7.6-39.6c-4.3-0.3-10.4,0.6-16.7,0
	c-4-0.6-7.3-2.4-11.6-3l-0.6,26.8l-1.5,87.7l-1.5-84.9c0-6.7-2.7-18-2.4-22.2c0.3-9.7,2.1-7.9-13.4-9.1c-4.9-0.6-11.9,2.4-16.7,2.1
	c-11-0.3-20.1-3-29.8-1.2l2.4,68.8l-6.4-67.9h-0.3l-0.9,8.8l-2.1-8.2c-0.6,0-0.9-0.3-1.2-0.3l0.6,35.9l-3.7-44.1l0,0
	c-0.9-8.8-0.3-22.5-2.1-28.3c-1.2-3.7-3.3,1.5-5.2,0.9c-4.3-1.5-8.2-3.3-8.2,0.9c0,7.9,0.9,75.2,0.9,85.6c0,4.3-4.6,0.3-4.3,24.7
	c0.6,15.2,6.4,63.6,7.3,148.9c0,10.4-9.1-3-8.8,9.4c0.6,42.6,2.1,134,1.5,166.8c-0.6,53.3-4.9,106.6-5.2,106.9
	c-1.5,1.2-6.4-435.1-12.2-434.2c-5.2,0.9-6.4-0.6-14.9,2.1c-2.1,0.6,0.3,35.3-1.8,35.9c-1.5,0.3-3.7-34.1-5.2-33.5
	c-3,0.6-8.2,107.5-11.3,108.4c-1.5,0.3,0.9-63.9,0.3-95c-0.3-15.2-3-9.7-3.7-9.7c-5.8,1.2-11.9,2.4-17.4,3
	c-5.2,0.6-10.4,4.9-15.8,5.8c-5.8,0.9-11.6-1.5-17.4-0.9c-0.9,0-2.1,25.9-3,25.9c-1.2,0.3-2.1-25.3-3.3-25.3c-1.5,0-4,44.8-5.5,44.8
	c-0.9,0-0.6-44.8-1.5-44.8c-2.1,0-4.6,0-6.7-0.3c-5.2-0.3-11.6,2.7-16.4,2.7c-5.2,0-8.8-3-11.3,0.9c-1.8,3.3-0.9-0.9-0.9,6.4
	c-0.3,11-0.9,34.1-1.5,41.4c-1.8,28.6-1.5,78.2-3.3,87.1c-2.7,12.5-19.5-9.7-19.5,16.4s2.1,34.1,2.1,34.1s-31.1,4-32.3,28.9
	c-1.5,24.7-7,448.8-4.3,472.2c0.3,3.3,3.3-9.1,16.7-7.9c4,0.3,8.5,18.3,13.7,19.5c15.8,3.7,37.4,0.9,62.1,0
	c14.6-0.3,30.1,1.2,46.9,1.2c4.9,0,9.7-2.7,14.9-2.7c6.1,0,19.2,6.1,25.6,6.1c2.7,0,13.4-7,16.4-7s6.7-2.4,9.7-1.2
	c4.9,1.5,8.8,7.3,14,7c5.5,0,19.2-7.9,24.4-8.2c6.4,0,18.6,7,25,6.7c4.6,0,16.1-8.5,20.7-8.5c6.4-0.3,14,2.1,20.4,1.8
	c4.3,0,8.5-8.5,12.8-8.5c6.7-0.3,5.5,5.5,12.5,7c2.7,0.6,6.4-5.8,9.4-5.8c9.4,0.6,19.2,6.1,24.4,6.1c7.6-0.6,19.2-10.7,26.2-11
	c3,0,6.1,10.7,8.8,10.4c7.6-0.3,9.1-4.6,14.9-8.2c6.7-4.3,17.4-7.9,22.5-8.5C1705.3,927,1705.9,953.8,1704.1,889.9z"/>
<path fill-rule="evenodd" clip-rule="evenodd" fill="#775949" d="M552.2,888c0,0-4.3-74.3-4-95.9c0.6-24.4,1.5-55.7,2.7-78.2
	c2.1-42.6,5.8-45.7,14.3-45.7c0,0-1.2-41.7,4.3-55.7c9.7-24.1,6.7-107.5,10-151c0.3-4.9,1.5-5.8,2.7-5.2c1.5,0.6,2.7,43.8,4.3,45.1
	c1.8,1.2-0.9-54.8-0.6-60c0.3-9.1,0.6-39.6,0.9-46.3c1.2-16.4,4-8.8,19.5-10c4-0.6,9.4-0.3,14.9-0.9c4.6-0.3,7-25.9,12.5-26.2
	c5.5-0.3,13.4-4.3,22.8-4.6c4.9-0.3,10.4,2.7,15.5,2.4c3.3-0.3,4.6,10,7.6,9.7c2.1,0,6.4-10.7,8.5-10.7c4,0,0.6,69.1,3.7,69.1
	c4,0,3.3-69.1,5.8-68.8c4.3,0.3,9.7,0.3,14.9,0.3l2.1,157.7l3.3-81l-0.6-52.1c2.1,0,4,0.3,5.5,0.6c13.7,3.7,14.9-3.7,18.9,6.1
	c1.8,4.6,0.9,8.2,1.5,15.5c0.6,6.1-0.3,10.4,0,18.3c0,7.9,1.2,19.5,1.2,26.5c-0.6,36.2,6.1,63.6,9.4,101.7c1.5,18.6-3,48.4,0.9,65.8
	c1.8,8.2,3-35,5.5-29.5c8.8,19.5,1.5,63.3,3,72.2c1.5,8.8,10-7,10,11.6s-1.2,24.1-1.2,24.1s16.4,3,17.1,20.7
	c0.6,17.4,4.6,157.7,3,174.2c-0.9,13.1-147.1,7-211,3.7C563.8,890.5,552.2,888,552.2,888z"/>
<path fill-rule="evenodd" clip-rule="evenodd" fill="#775949" d="M208.8,231.6c-1.8,0-7.9-0.9-11.3,0c-1.8,0.3-0.3,2.1-2.4,2.1
	c-1.8,0-3-1.8-4.9-1.8c-4.3,0.3-8.2,0.3-10.7,0c-5.8-0.3-2.1-2.7-6.7-2.7c-6.7,0.3-9.7,1.8-13.4,2.4c-17.4,2.7-17.4,0.6-16.7,9.1
	c0.3,8.8,0.9,13.7,0.9,15.8c-0.3,2.1,5.2,58.5,5.2,58.5s-13.4-123.9-15.5-144.3c-0.3-1.5-1.2-4.6-1.2-5.8
	c-0.6-6.1-0.9-10.7-0.9-12.2c-0.3-2.1-6.7-0.6-10.7-1.2c-1.2-0.3,1.5,12.2,0.3,11.9c-0.9,0-1.2-12.2-2.1-12.2
	c-1.8-0.3-4-0.3-5.8-0.6c-2.7,0-4.3,0-5.5,0c-0.6,0-2.1,1.8-3,1.8c-1.5,0.3-4,0.3-4.9,2.1c-0.6,1.2-0.3,2.1-0.3,4.3
	c0,1.5,0.3,4.9,0.3,6.7c0,0.9-1.2,0.3-1.2,1.5c0,1.5,0.6,4.9,0.9,6.7c0,0.9-1.5,1.2-1.5,2.4c0.9,20.1,2.1,24.7,2.1,24.7
	s-4-30.1-5.2-38.4c-1.2-7.9-12.2-5.8-13.4-0.9c-1.2,4.6,1.8,27.1,1.8,27.1s-1.5-22.5-6.4-25c-5.2-2.7-10.4-0.6-10.4-0.6
	s-1.5,0.6,1.5,35.9c2.7,35.3,9.7,132.1,9.7,132.1s-4,0.3-7.6,1.2c-1.8,0.3-4,0-4.9,2.4c-0.9,3,1.5,59.7,1.8,69.7
	c0,0.9-3.7-47.5-4.6-47.2c-1.2,0.6-2.1,1.2-2.1,2.4c0.3,10,2.7,73.7,3,86.2c0,0.6-4.3-43.8-6.1-43.8c-1.5,0.3-3.3,0.3-3,2.1
	c0.3,53,5.2,295,5.2,295l223.5,5.5l-6.7-278l-2.7-16.1l-2.4,49.6l-1.8-75.2l-4.9-40.2l-1.2-10.4l-3.7-4.3l0.9,50.5l-5.5-91.3
	l-4.6-5.5l-2.1-12.5c-0.9-5.5-3-11.3-3.7-15.5c-0.6-2.4-3.3-1.8-4-3.7c-1.8-7.3-3.7-11.9-5.8-14.9c-2.4-2.7-5.5-4.6-11.6-5.2
	c-2.7-0.3-5.5-0.3-9.7-0.6c-0.6,0,0.6,40.5,0,40.5C212.5,272.1,209.7,231.6,208.8,231.6z"/>
<g>
	<path fill-rule="evenodd" clip-rule="evenodd" fill="#C6E9FA" d="M700.2,608.9c0,0-0.6,15.2,0.9,19.5c0.6,2.4,2.7,4.3,2.4,0.9
		c0-1.5-0.6-1.5-0.9-2.7c-0.9-3-1.2-6.4-1.5-9.1C700.8,613.7,700.2,608.9,700.2,608.9z"/>
	<path fill-rule="evenodd" clip-rule="evenodd" fill="#C6E9FA" d="M656.4,352.5c0,0,1.8,1.8,3.3,17.7c0.9,8.2,3,18,3.7,27.7
		c0.9,18.6,0,35.9,0.9,36.8c0.9,0.9,1.8-19.5,0.9-38.7c-0.6-11.3-3.3-20.4-3.7-29.5c0-3.7-0.3-3.7-0.3-6.4c0.3-7.9,6.4,7,7.3,9.7
		c7.3,21.9,8.8,42,8.2,56.9c0,4.6,0.9,16.7,1.2,19.8c0.9,6.1,1.5-0.3,1.5-0.3s-1.2,7.3-1.5,26.2c-0.3,7.9-4,20.1-4,34.4
		c-0.3,9.7,1.8,0.6,2.7,9.7c0.9,10.4,1.2,38.7,2.1,43.8c0.9,4.3,0.3,12.8-2.1,49.6c-0.3,4.3,0.3,14.3-0.6,21.3
		c-0.6,4.3-1.8,10-3,15.5c-0.9,5.5-0.9,9.7-0.9,13.1c-0.3,7.6,3.7-2.4,4.6,5.5c0.9,7.3,3.3,31.7,1.8,50.2
		c-0.9,13.1-5.5,14.9-5.5,18.9c0.3,8.5,5.2,0.6,5.2,3.7c1.2,16.1,5.8,22.2,5.2,33.8c0,6.1-3.3,17.1-5.5,24.7
		c-1.5,4.9,2.7,12.2,5.8,1.2c0.3-2.1,1.2-3,1.5-5.8c0.9,6.7,2.1,13.4,1.5,21.9c-0.3,5.5-3,13.4-2.4,17.7c0,1.8,4.6-3,4.6-1.5
		c5.5,54.8,10.4,96.8,10.4,96.8l24.7-5.2c0,0-3,0-7.3-27.1c-0.9-6.4-0.6-22.2-1.8-30.8c-1.5-8.2-3.3-9.4-5.5-17.7
		c-0.9-4.9-1.8-16.4-2.7-21.3c-0.9-6.4,5.8,0.6,4.9-6.1c-0.6-4.6-5.2-12.5-7-20.4c-2.1-10-3.7-19.5-4.6-25.9
		c-2.4-23.1,0.3-48.1-1.5-70.9c-0.6-8.2-0.9-18.6,0.3-14.6c0.6,1.5,0.9,5.2,1.2,6.7c0.3,5.8,1.2,11,1.8,13.4
		c2.4,7.6,7.6,12.5,4.3-6.7c-2.7-14.6-4.3-19.5-6.7-34.1c-2.1-13.1-2.7-26.2-3.7-39.6c-2.7-42.9-1.5-63-1.5-68.5
		c-0.9-21.9,0.3-33.8-1.8-35.6c-1.8-1.8,3-8.2,0.9-14c-2.1-6.1-3.3-28.9-3.3-28.9s0-13.1-0.9-20.1c-0.9-6.7-1.8-19.8-1.8-19.8
		s2.7,1.8,1.8-2.1c-0.9-4-5.2-30.1-5.2-30.1s-3.3-15.2-4.9-24.1c-1.2-8.5-3-11.9-7.3-20.4c-3.3-6.7-7.6-11-9.1-12.5
		c-0.3,0-2.7-0.6-4,0.3C657.3,352.2,656.4,352.5,656.4,352.5z"/>
	<path fill-rule="evenodd" clip-rule="evenodd" fill="#C6E9FA" d="M665.8,366.8c0-0.6,4,10,3.7,16.4c-0.3,6.7,2.1,8.2,2.1,4.3
		c0-4.3-0.6-10.7-3-15.5C666.4,367.1,665.8,367.4,665.8,366.8z"/>
	<path fill-rule="evenodd" clip-rule="evenodd" fill="#C6E9FA" d="M676.8,373.2c0,0,3.3,10.7,4.6,17.4c1.5,6.7,2.4,13.1,4,16.4
		c1.2,3-0.3-7-1.8-14.3C682,385.7,676.8,373.2,676.8,373.2z"/>
	<path fill-rule="evenodd" clip-rule="evenodd" fill="#C6E9FA" d="M674.9,411.9c0,0,0.9,16.1,0.6,20.1c-0.6,3.7-1.8,6.7-1.5-3
		C674.3,419.2,674.9,411.9,674.9,411.9z"/>
	<path fill-rule="evenodd" clip-rule="evenodd" fill="#C6E9FA" d="M676.2,359.2c0,0,7.9,15.2,8.5,18.6c0.9,3.3,0,6.1-2.4-1.8
		C679.8,367.7,676.2,359.2,676.2,359.2z"/>
	<path fill-rule="evenodd" clip-rule="evenodd" fill="#C6E9FA" d="M691.4,466.7c0,0-0.6,15.5,0.9,19.8c0.6,2.1,3,4.3,2.7,0.9
		c-0.3-1.8-0.9-1.8-1.2-3c-0.9-3-1.2-6.4-1.5-9.1C692,471.5,691.4,466.7,691.4,466.7z"/>
	<path fill-rule="evenodd" clip-rule="evenodd" fill="#C6E9FA" d="M692.6,442.9c0,0,2.7,10,2.7,12.5s-1.2,4.6-1.8-1.5
		C692.6,447.8,692.6,442.9,692.6,442.9z"/>
	<path fill-rule="evenodd" clip-rule="evenodd" fill="#C6E9FA" d="M673.7,469.1c0,0-0.3,10.4-0.9,12.5c-0.6,2.4-2.1,4.3-1.2-1.8
		C672.2,473.7,673.7,469.1,673.7,469.1z"/>
	<path fill-rule="evenodd" clip-rule="evenodd" fill="#C6E9FA" d="M697.8,464.8c0,0,1.8,4.6,3.3,9.1c1.5,4.9,2.4,1.2-0.6-4.6
		C697.8,463.6,697.8,464.8,697.8,464.8z"/>
	<path fill-rule="evenodd" clip-rule="evenodd" fill="#C6E9FA" d="M655.5,356.8c0,0,2.4,3.3,4,9.1c1.2,5.8,3,2.7,1.2-1.5
		C658.5,359.8,655.5,356.8,655.5,356.8z"/>
	<path fill-rule="evenodd" clip-rule="evenodd" fill="#C6E9FA" d="M694.4,569.6c0,0-0.6,15.5,0.6,19.8c0.9,2.1,3,4,2.7,0.9
		c-0.3-1.8-0.6-1.8-0.9-3c-0.9-3-1.5-6.4-1.8-9.1C694.7,574.4,694.4,569.6,694.4,569.6z"/>
	<path fill-rule="evenodd" clip-rule="evenodd" fill="#C6E9FA" d="M690.2,541.3c0,0-0.6,15.2,0.9,19.5c0.6,2.4,2.7,4.3,2.4,0.9
		c0-1.5-0.6-1.5-0.9-2.7c-0.9-3-1.2-6.4-1.5-9.1C690.8,546.1,690.2,541.3,690.2,541.3z"/>
	<path fill-rule="evenodd" clip-rule="evenodd" fill="#C6E9FA" d="M672.2,543.7c0,0,0,10-0.6,12.5c-0.6,2.4-2.1,4-1.2-2.1
		C671,548,672.2,543.7,672.2,543.7z"/>
	<path fill-rule="evenodd" clip-rule="evenodd" fill="#C6E9FA" d="M691.4,536.7c0,0,1.8,4.6,3.3,9.1c1.5,4.9,2.4,1.2-0.6-4.6
		S691.4,536.7,691.4,536.7z"/>
	<path fill-rule="evenodd" clip-rule="evenodd" fill="#C6E9FA" d="M677.1,565.6c0,0,0.9,16.1,0.3,20.1c-0.3,3.7-1.8,6.7-1.5-3
		C676.2,572.9,677.1,565.6,677.1,565.6z"/>
	<path fill-rule="evenodd" clip-rule="evenodd" fill="#C6E9FA" d="M672.2,505.6c0,0,0,10-0.6,12.5c-0.6,2.4-2.1,4-1.2-2.1
		C671,510.2,672.2,505.6,672.2,505.6z"/>
	<path fill-rule="evenodd" clip-rule="evenodd" fill="#C6E9FA" d="M678,652.1c0,0,0,48.4-1.5,59.7s-5.2,19.2-3.3-9.4
		C674.9,673.4,678,652.1,678,652.1z"/>
	<path fill-rule="evenodd" clip-rule="evenodd" fill="#C6E9FA" d="M701.7,725.5c0,0-1.2,35,2.1,45.1c1.5,4.9,6.4,9.4,5.8,1.8
		c-0.3-4-1.5-3.7-2.4-6.4c-1.8-7-3-14.9-3.3-21C703,736.4,701.7,725.5,701.7,725.5z"/>
	<path fill-rule="evenodd" clip-rule="evenodd" fill="#C6E9FA" d="M706,834.8c0,0,5.8,25.9,11,32c2.4,3,8.2,4.9,6.1-0.3
		c-1.2-2.7-2.1-2.1-3.7-4c-3.3-4.6-6.1-9.7-7.6-14C709.4,842.4,706,834.8,706,834.8z"/>
</g>
</svg>
