<?xml version="1.0" encoding="utf-8"?>
<!-- Generator: Adobe Illustrator 18.1.1, SVG Export Plug-In . SVG Version: 6.00 Build 0)  -->
<svg version="1.1" id="Warstwa_1" xmlns="http://www.w3.org/2000/svg" xmlns:xlink="http://www.w3.org/1999/xlink" x="0px" y="0px"
	 viewBox="0 0 1920 1080" enable-background="new 0 0 1920 1080" xml:space="preserve">
<path fill-rule="evenodd" clip-rule="evenodd" fill="#694D3C" d="M1774.7,389c-2.1-0.3-9.7-0.9-13.7-0.3c-2.4,0.6-0.9,2.7-3.3,3
	c-2.1,0-3.7-2.4-5.8-2.1c-5.2,0-10,0-13.4-0.3c-6.7-0.3-2.4-3-7.6-3c-8.5,0-12.2,1.8-17.1,2.7c-21.3,3-21,0.9-21,11.3
	c-0.3,10.7,0.3,16.7,0,19.5c-0.6,2.4,1.8,71.9,1.8,71.9s-5.2-114.8-7.3-161.4c2.7,0,5.5,0.3,6.7,0.6c4,0.9,11.9-3.7,18.6-6.7
	c0.6-0.3,1.2-0.9,1.8-1.2l3.3,1.5l10-3l5.5,0.9l-4.6-2.1l-8.2,2.1l-3.3-1.8c3.7-4,5.8-9.4,7.6-13.4c2.1-5.5,2.7-8.5,7-14.6
	c4.3-5.8,15.2-5.8,15.2-5.8s-5.2-2.7-12.8,0c-7.3,3-8.2,9.4-13.4,19.2c-5.2,10-9.4,15.2-22.8,17.7l-0.3,0.3l3-8.2l3.7-3.7l0.3-6.7
	l-2.4,6.1l-5.2,7l-3,5.8c-2.7,0.3-5.2,0.3-7,0.3c-0.3-4.3-0.6-7.9-0.6-10.4c0-1.8-0.9-5.2-0.9-7c-0.3-7.3,0-13.1-0.3-14.6
	c0-2.7-7.9-1.2-12.8-1.8c-1.5-0.3,0.9,14.9-0.6,14.9c-0.9-0.3-0.6-15.2-1.5-15.2c-2.4-0.3-5.2-0.6-7.3-0.6c-3.3-0.3-5.2-0.3-6.4-0.3
	c-1.2,0.3-3,2.4-4,2.7c-1.8,0.3-4.9,0-6.4,2.4c-0.9,1.2-0.3,2.4-0.6,5.2c0,1.8,0,5.8-0.3,8.2c0,1.2-1.5,0.3-1.5,1.8
	c0,1.8,0.6,5.8,0.6,8.2c0,1.2-1.8,1.5-1.8,2.7c-0.6,24.7,0.9,30.4,0.9,30.4s-2.7-37.1-3.7-46.9c-0.9-10-14.6-7.3-16.4-1.5
	c-1.8,6.1,0,33.8,0,33.8s0-27.7-5.8-31.1c-6.1-3.3-12.8-0.6-12.8-0.6s-1.8,0.6-0.9,44.1c0.9,43.2,2.1,161.7,2.1,161.7
	s-4.9,0.6-9.1,1.5c-2.7,0.6-5.2,0-6.4,3c-1.5,3.7-2.7,73.1-3,85.6c0,1.2-0.9-58.5-2.1-57.8c-1.2,0.6-2.7,1.2-2.7,2.7
	c-0.3,12.5-2.4,90.7-2.7,105.7c0,1.2-2.1-53.3-4.3-53.3c-1.8,0-4,0.3-4,2.4c-3.7,65.2-15.8,362-15.8,362l273.7,7.3l12.8-341.9
	l-2.1-19.5l-6.4,60.9l3-92.6l-2.7-49.3l-0.9-12.5l-4-5.5l-2.7,62.1l0.3-111.7l-5.5-6.4l-1.5-15.5c-0.6-7-2.7-14-3.3-19.2
	c-0.3-3-4-2.1-4.6-4.6c-1.5-8.8-3.3-14.3-6.1-18c-2.4-3.7-6.4-5.8-13.4-6.7c-3.3-0.3-7-0.3-12.2-0.6c-0.9,0-2.1,49.6-3,49.6
	C1776.2,438.7,1775.6,389,1774.7,389z"/>
<path fill-rule="evenodd" clip-rule="evenodd" fill="#694D3C" d="M267,146.1c3,0,13.7-1.2,19.2,0c3.3,0.6,0.9,3.7,4.3,3.7
	c3.3,0.3,5.5-3,8.5-3c7.3,0.3,13.1-24.4,17.7-24.7c9.4-0.9,3.3-4.6,11-4.6c11.6,0,17.1,2.7,23.4,3.7c29.8,4.6,29.5,1.5,29.8,16.1
	c0.3,14.9-0.6,23.4,0,27.1c0.6,3.7-2.7,100.5-2.7,100.5s4-55.7,5.8-91c0.3-2.7,1.2-7.6,1.5-10c0.3-10.4,0-18.3,0-20.7
	c0-3.7,11.6-1.5,18-2.4c2.1-0.3-0.9,21,1.2,21c1.2-0.3,0.6-21.3,1.8-21.3c3.7-0.6,7.3-0.9,10.4-0.9c4.6-0.3,7.3-0.3,9.1-0.3
	c1.2,0.3,4.3,3.3,5.5,3.7c2.7,0.3,7,0.3,8.8,3.3c1.2,1.8,0.6,3.3,0.9,7.6c0,2.4,0,7.9,0.3,11.3c0,1.8,2.1,0.6,2.1,2.4
	c0.3,2.7-0.6,8.2-0.6,11.9c0,1.5,2.4,2.1,2.4,3.7c0.9,34.7-1.8,89.8-1.8,89.8s4.6-99.3,5.8-113c1.2-14,21.3,14.6,23.7,22.8
	c2.7,8.5,0,47.2,0,47.2s0-38.7,8.2-43.2c8.5-4.9,17.7-0.9,17.7-0.9s2.7,0.9,1.2,61.8c-0.6,26.5,0.6,64.9,3,70c0,0,6.7,0.6,12.8,1.8
	c3.7,0.9,7.3,0.3,8.8,4.3c2.1,5.2,4,102.6,4.6,120c0,1.8,0.9-81.9,2.7-81c2.1,0.9,4,1.8,4,4c0.3,17.4,3.3,126.7,4,147.7
	c0,1.5,2.7-74.6,5.5-74.6c3,0,5.8,0.6,5.8,3.7c4.9,90.7,22.2,507.2,22.2,507.2l-383.6,10l-18-478.9l3-27.4l9.1,85.3l-4.6-129.7
	l0.3-5.2c-3.7-0.9-9.4-6.1-14.3-9.7c-0.6-0.6-0.9-0.9-1.5-1.5l-3.3,0.9l-8.5-4.9L147,389l4.6-1.2l7.3,3.7l3-0.9
	c-2.4-4.3-3.3-9.7-4-13.7c-1.2-5.5-0.9-8.2-3.7-14.6c-2.7-6.4-12.8-8.5-12.8-8.5s5.2-1.5,11.6,2.4c6.1,4.3,5.8,10,8.5,20.4
	c2.7,10,5.8,15.8,17.4,20.7l0.3,0.3l-1.2-7.9l-2.4-4.3l0.9-6.4l1.2,6.1l3,7.3l2.7-51.5l1.2-17.4l5.5-7.9l4,86.8l-0.6-156.8l7.9-9.1
	l2.1-21.6c0.6-9.7,4-19.5,4.6-26.8c0.6-4.3,5.8-3,6.4-6.4c2.1-12.5,4.9-20.4,8.5-25.6c3.7-4.9,8.8-7.9,19.2-9.1
	c4.6-0.6,9.4-0.3,17.1-0.6c0.9,0,3,69.4,4,69.4C264.8,215.8,265.4,146.1,267,146.1z"/>
<path fill-rule="evenodd" clip-rule="evenodd" fill="#C6E9FA" d="M370.5,388.4c0,0-0.9,25,1.5,32c0.9,3.3,4.6,6.4,4,1.2
	c0-2.7-0.9-2.7-1.5-4.6c-1.5-4.9-2.1-10.4-2.4-14.6C371.4,396.3,370.5,388.4,370.5,388.4z"/>
<path fill-rule="evenodd" clip-rule="evenodd" fill="#C6E9FA" d="M298.3,146.4c0,0,2.1,1.5,6.7,5.8c3.7,3.7,11,7.6,16.4,24.1
	c11.6,34.7,14,67,13.1,91c-0.3,7.6,1.5,27.1,2.1,31.7c1.2,10,2.1-0.3,2.1-0.3s-1.8,11.6-2.4,42.3c-0.9,30.8-3.3,115.1,1.5,141.6
	c4.9,26.2,38.8,502.5,38.8,502.5l39.9-8.5c0,0-53.1-462.6-54.3-497.6c-1.2-35,0.6-54.2-2.7-56.9c-3-2.7,5.2-13.1,1.5-22.8
	c-3.3-9.4-5.8-46.3-5.8-46.3s0-21.6-1.2-32.6c-1.5-11-3-32-3-32s4.3,3,3-3.3c-1.5-6.1-8.5-48.1-8.5-48.1s-5.5-25-7.3-38.7
	c-2.1-13.7-5.2-19.2-12.2-33.2c-5.2-10.4-16.4-24.1-19.2-26.2c-0.3-0.3-3.3,2.1-5.2,3.7C299.5,143.9,298.3,146.4,298.3,146.4z"/>
<path fill-rule="evenodd" clip-rule="evenodd" fill="#694D3C" d="M1325.6,396.6c-2.1-0.3-9.1-0.9-12.8,0c-2.1,0.3-0.6,2.4-3,2.4
	c-2.1,0-3.7-2.1-5.5-2.1c-4.9,0.3-9.4,0.3-12.5,0c-6.4-0.3-2.1-3-7.3-3c-7.9,0-11.6,1.8-15.8,2.7c-19.8,3-19.5,0.9-19.8,10.7
	c-0.3,9.7,0.3,15.5,0,18c-0.3,2.7,1.8,67.3,1.8,67.3s-2.7-37.1-4-60.9c0-1.8-0.9-5.2-0.9-6.7c0-7,0-12.2,0-13.7
	c0-2.4-7.6-0.9-12.2-1.8c-1.2,0,0.9,14.3-0.6,14c-0.9,0-0.6-14-1.2-14.3c-2.4,0-4.9-0.3-7-0.3c-3-0.3-4.9-0.3-6.1-0.3
	c-0.9,0-2.7,2.1-3.7,2.4c-1.8,0.3-4.6,0-6.1,2.4c-0.6,1.2-0.3,2.1-0.3,4.9c0,1.5,0,5.2-0.3,7.6c0,0.9-1.5,0.3-1.5,1.5
	c0,1.8,0.6,5.5,0.6,7.9c0,1.2-1.8,1.5-1.8,2.7c-0.6,22.8,1.2,59.4,1.2,59.4s-2.7-65.8-3.7-75.2c-0.9-9.1-13.7-6.7-15.5-1.2
	c-1.8,5.8,0,31.7,0,31.7s0.3-25.9-5.5-29.2c-5.5-3-11.6-0.6-11.6-0.6s-2.1,0.6-0.9,41.4c0.9,40.5-2.1,46.6-2.1,46.6
	s-4.6,0.3-8.5,1.2c-2.4,0.6-4.9,0.3-5.8,3c-1.5,3.3-2.7,68.5-3,80.1c0,1.2-0.9-54.8-2.1-54.2c-1.2,0.6-2.4,1.2-2.4,2.7
	c-0.3,11.6-2.1,84.9-2.7,99c0,0.9-1.8-50.2-3.7-50.2s-3.7,0.3-4,2.4c-3.3,60.9-14.6,339.5-14.6,339.5l256.4,6.4l11.9-320l-1.8-18.6
	l-6.1,57.2l3-86.8l-2.7-46l-0.6-11.9l-4-5.2l-2.4,58.2l0.3-104.7l-5.2-6.1l-1.5-14.3c-0.6-6.4-2.4-13.1-3-18c-0.6-3-4-1.8-4.3-4.3
	c-1.5-8.2-3.3-13.7-5.8-17.1c-2.4-3.3-6.1-5.2-12.8-6.1c-3-0.3-6.4-0.3-11.3-0.6c-0.9,0-2.1,46.6-2.7,46.6
	C1327.1,443.2,1326.5,396.6,1325.6,396.6z"/>
<path fill-rule="evenodd" clip-rule="evenodd" fill="#C6E9FA" d="M316.6,171c0-0.9,6.7,16.1,6.1,26.8c-0.3,10.4,3.7,12.8,3.7,6.4
	c0-6.4-1.2-17.1-4.9-25C317.5,171.6,316.6,171.9,316.6,171z"/>
<path fill-rule="evenodd" clip-rule="evenodd" fill="#C6E9FA" d="M334.6,181.1c0,0,5.2,17.7,7.3,28c2.4,10.7,4,21.3,6.1,26.2
	c2.4,5.2-0.3-11-2.7-22.5C342.8,201.5,334.6,181.1,334.6,181.1z"/>
<path fill-rule="evenodd" clip-rule="evenodd" fill="#C6E9FA" d="M331.8,243.5c0,0,1.2,25.9,0.6,32c-0.6,6.4-3,11-2.4-4.9
	C330.3,255.1,331.8,243.5,331.8,243.5z"/>
<path fill-rule="evenodd" clip-rule="evenodd" fill="#C6E9FA" d="M333.3,158.5c0,0,13.1,24.7,14,30.1c1.2,5.2,0,10-4-3
	C339.4,172.5,333.3,158.5,333.3,158.5z"/>
<path fill-rule="evenodd" clip-rule="evenodd" fill="#C6E9FA" d="M358,331.5c0,0-0.9,24.7,1.5,31.7c1.2,3.3,4.6,6.7,4.3,1.5
	c-0.3-3-1.2-2.7-1.8-4.6c-1.2-5.2-2.1-10.7-2.4-14.9C358.9,339.4,358,331.5,358,331.5z"/>
<path fill-rule="evenodd" clip-rule="evenodd" fill="#C6E9FA" d="M360.1,293.4c0,0,4.3,15.8,4.3,19.8c0,4-1.8,7.3-3-2.4
	C359.8,301,360.1,293.4,360.1,293.4z"/>
<path fill-rule="evenodd" clip-rule="evenodd" fill="#C6E9FA" d="M329.4,335.4c0,0,0,16.4-0.9,20.1c-1.2,4-3.7,6.7-2.4-3
	C327.2,342.4,329.4,335.4,329.4,335.4z"/>
<path fill-rule="evenodd" clip-rule="evenodd" fill="#C6E9FA" d="M368.4,328.4c0,0,2.7,7.3,5.2,14.6c2.4,7.6,4.3,2.1-0.6-7
	C368,326.6,368.4,328.4,368.4,328.4z"/>
<path fill-rule="evenodd" clip-rule="evenodd" fill="#C6E9FA" d="M300.5,154.9c0,0,4,5.5,6.1,14.6c2.1,9.4,4.9,4.6,1.8-2.4
	S300.5,154.9,300.5,154.9z"/>
<path fill-rule="evenodd" clip-rule="evenodd" fill="#EC766A" d="M136.3,357.4c0,0-7.9-3.7-8.2-5.5c-0.3-1.8,6.7-1.2,6.7-1.2
	s-0.9-6.1,0-7.6c1.2-1.2,5.2,4.3,5.2,4.3s2.4-4,4.6-5.5s0.3,5.8-1.2,7.9c-1.5,2.1,3.3,0.3,5.8,1.2c2.4,1.2-4.6,3.3-4.6,3.3
	s4.9,5.2,3.3,6.1c-1.2,0.9-4.9-2.7-4.9-2.7s-0.3,2.1-1.8,4.9c-1.8,2.4-2.1-2.4-2.1-2.4s-3.3,1.2-5.8,1.8
	C131.2,362.5,136.3,357.4,136.3,357.4z"/>
</svg>
