<?xml version="1.0" encoding="utf-8"?>
<!-- Generator: Adobe Illustrator 18.1.1, SVG Export Plug-In . SVG Version: 6.00 Build 0)  -->
<svg version="1.1" id="Warstwa_1" xmlns="http://www.w3.org/2000/svg" xmlns:xlink="http://www.w3.org/1999/xlink" x="0px" y="0px"
	 viewBox="0 0 77 190" enable-background="new 0 0 77 190" xml:space="preserve">
<g>
	<path fill="#34110D" d="M53.3,118.2c-0.1-3,2.2-7.1,2.6-7.7c0.6-0.6-0.3-10.6-0.4-10.8c0,0,0,0,0,0l0,0C54.4,93,54.4,87,58.2,86.8
		c-3.4-5.5-7.8-12.7-7.8-18.8c0-6.1,1.3-12.7,6.1-13.4l0.4-0.1c12.8,0,4.3,44.3,2.2,55.8l1.2,6.4c0.3,0.9-0.6,5.4-1.2,5.9
		c-0.4-0.4-0.7-1-0.2-2c0,0,0-0.1,0-0.1c-0.2,0.8-0.5,1.8-1.1,2.7c-0.2-0.3-0.5-0.6-0.5-1.1c-0.2,0.6-0.5,1.2-0.8,1.8
		c-0.5-0.5-0.9-1.3-0.2-2.5c0-0.1,0-0.1-0.1-0.2c-0.2,0.6-0.5,1.2-0.8,1.8c-0.4-0.5-0.8-1.1-0.2-2.2c-0.6-1.3-0.1-2.9,0.2-3.6
		l-0.5-0.7c0,0,0.1,2.7-1.5,3.8c-0.5-0.1-0.9-0.6-0.1-1.7L53.3,118.2z"/>
	<path fill="none" stroke="#FFFFFF" stroke-width="0.75" stroke-miterlimit="10" d="M58.6,83.1c-7.7-12.5-6.3-21.8-3.6-24
		c1.3-1.1,3.2-1.2,4.4,0c1,1,1,2.6,0,3.5c-0.8,0.8-2,0.8-2.9,0c-0.6-0.6-0.6-1.7,0-2.3"/>
	
		<path fill="none" stroke="#FFFFFF" stroke-width="0.75" stroke-linecap="round" stroke-linejoin="round" stroke-miterlimit="10" d="
		M53.3,118.2c-0.1-3,2.2-7.1,2.6-7.7c0.6-0.6-0.2-8.8-0.4-10.8c0,0,0,0,0,0l0,0C54.4,93,54.4,87,58.2,86.8
		c-3.4-5.5-7.8-12.7-7.8-18.8c0-6.1,1.3-12.7,6.1-13.4l0.4-0.1c12.7,0,4.5,44.7,2.2,55.8l1.2,6.4c0.3,0.9-0.6,5.4-1.2,5.9
		c-0.4-0.4-0.7-1-0.2-2c0,0,0-0.1,0-0.1c-0.2,0.8-0.5,1.8-1.1,2.7c-0.2-0.3-0.5-0.6-0.5-1.1c-0.2,0.6-0.5,1.2-0.8,1.8
		c-0.5-0.5-0.9-1.3-0.2-2.5c0-0.1,0-0.1-0.1-0.2c-0.2,0.6-0.5,1.2-0.8,1.8c-0.4-0.5-0.8-1.1-0.2-2.2c-0.6-1.3-0.1-2.9,0.2-3.6
		l-0.5-0.7c0,0,0.1,2.7-1.5,3.8c-0.5-0.1-0.9-0.6-0.1-1.7L53.3,118.2z"/>
	<g>
		<path fill="#34110D" stroke="#FFFFFF" stroke-width="0.5" stroke-miterlimit="10" d="M60.6,117.9"/>
		<path fill="#34110D" stroke="#FFFFFF" stroke-width="0.5" stroke-miterlimit="10" d="M59.4,119.6"/>
		<path fill="#34110D" stroke="#FFFFFF" stroke-width="0.5" stroke-miterlimit="10" d="M59.1,122.6"/>
		<line fill="none" stroke="#FFFFFF" stroke-width="0.5" stroke-miterlimit="10" x1="58.9" y1="120.6" x2="58.9" y2="120.6"/>
		<path fill="#34110D" stroke="#FFFFFF" stroke-width="0.5" stroke-linecap="round" stroke-miterlimit="10" d="M59.3,116.9
			c-0.2,0,0.3,3.2-1.5,6.3l0,0c-0.4-0.5-0.8-1.1-0.2-2.2l0,0c-0.9-2.1,0.5-4.1,0.5-4.1"/>
		<path fill="#34110D" stroke="#FFFFFF" stroke-width="0.5" stroke-linecap="round" stroke-miterlimit="10" d="M58.1,116.9
			c-0.2,0,0.4,3.6-1.6,7.1l0,0c-0.5-0.5-0.9-1.3-0.2-2.5l0,0c-1-2.4,0.6-4.5,0.5-4.5"/>
		<path fill="#34110D" stroke="#FFFFFF" stroke-width="0.5" stroke-linecap="round" stroke-miterlimit="10" d="M56.9,116.8
			c-0.2,0,0.3,3.2-1.5,6.3l0,0c-0.4-0.5-0.8-1.1-0.2-2.2l0,0c-0.6-1.3-0.1-2.9,0.3-3.7"/>
	</g>
	
		<line fill="none" stroke="#FFFFFF" stroke-width="0.75" stroke-linecap="round" stroke-miterlimit="10" x1="61.2" y1="99" x2="55.9" y2="110.5"/>
</g>
<path fill="#34110D" stroke="#FFFFFF" stroke-width="0.75" stroke-linecap="round" stroke-miterlimit="10" d="M22.4,54.6
	c6.6,0,11.8-3.9,11.8-8.7l5.3-1.8l2.2,5.3c0,2.9,6.6,5.2,14.7,5.2"/>
<path fill="#34110D" stroke="#FFFFFF" stroke-width="0.75" stroke-linecap="round" stroke-miterlimit="10" d="M41.9,163.5
	c0,0,0-6.3-0.3-15.2l3.5-0.6L44.8,163c3,0.8,6.9,2.8,10.6,4.2l1.7,2.4H39.6C39.6,167.1,39.5,164.1,41.9,163.5"/>
<polyline fill="none" stroke="#221E20" stroke-width="0.75" stroke-linecap="round" stroke-miterlimit="10" points="55.5,167.1 
	57.1,169.6 39.6,169.6 "/>
<path fill="#34110D" stroke="#FFFFFF" stroke-width="0.75" stroke-linecap="round" stroke-miterlimit="10" d="M38.3,171h24.5
	c0.1,0,0.2-0.1,0.2-0.2c0,0-1-1.3-1.1-1.3H38.3V171z"/>
<path fill="#34110D" stroke="#FFFFFF" stroke-width="0.75" stroke-linecap="round" stroke-miterlimit="10" d="M60.7,169.6
	c1-0.4,1.2-1.5,0.2-1.9c-0.2-0.1-2.5,0.5-2.7,0.4c-1.1-0.4-2.1-0.8-2.7-0.9l1.7,2.4L60.7,169.6L60.7,169.6z"/>
<polygon fill="#34110D" stroke="#FFFFFF" stroke-width="0.75" stroke-linecap="round" stroke-miterlimit="10" points="39.7,167.4 
	47.7,163.8 55.5,167.1 57.1,169.6 39.6,169.6 "/>
<path fill="#34110D" stroke="#FFFFFF" stroke-width="0.75" stroke-linecap="round" stroke-miterlimit="10" d="M33.1,163.5
	c0,0,0-5.3-0.3-14.3l3.5-1.5l-0.3,15.2c3,0.8,6.9,2.8,10.6,4.2l1.7,2.4H30.9C30.9,167.1,30.7,164,33.1,163.5"/>
<polyline fill="#FFFFFF" stroke="#221E20" stroke-width="0.75" stroke-linecap="round" stroke-miterlimit="10" points="46.7,167.1 
	48.4,169.6 30.9,169.6 "/>
<path fill="none" stroke="#221E20" stroke-width="0.75" stroke-linecap="round" stroke-miterlimit="10" d="M57.4,117.9"/>
<path fill="#FFFFFF" stroke="#221E20" stroke-width="0.75" stroke-linecap="round" stroke-miterlimit="10" d="M56.2,119.6"/>
<path fill="#34110D" stroke="#FFFFFF" stroke-width="0.75" stroke-linecap="round" stroke-linejoin="round" stroke-miterlimit="10" d="
	M48.2,88.8h-7.4c-3.2,0.8-5.7,5-5.7,9.4c0,4.4,2.5,8,5.7,8.9c-6.8,2.2-1.2,16.6,4.7,22.9c-10.7-0.3-2.5,21.5-0.7,33
	c1.4-5.7,7.4-31.6,9.4-47.7C55.7,102.6,50.6,92.7,48.2,88.8"/>
<path fill="none" stroke="#FFFFFF" stroke-width="0.75" stroke-linecap="round" stroke-miterlimit="10" d="M40.5,111.9
	c0.6,10.3,5.6,15.9,8,16.1c1.2,0.1,2.4-0.6,2.6-1.8c0.2-1-0.5-1.9-1.4-2c-0.8-0.1-1.5,0.4-1.7,1.1c-0.1,0.6,0.3,1.2,0.9,1.3"/>
<path fill="#34110D" stroke="#FFFFFF" stroke-width="0.75" stroke-linecap="round" stroke-miterlimit="10" d="M28.1,90.8
	c2.1-1.2,1.6-8.4-1.1-12.3l-4.7-5.8l7.1-5.7l12.8,12.2l-1.8,8.1l-2,3.6L32,95.4L28.1,90.8z"/>
<path fill="#34110D" stroke="#FFFFFF" stroke-width="0.75" stroke-linecap="round" stroke-miterlimit="10" d="M22.3,54.6
	C20,65.3,22,72.4,25.2,73.1c7.8,1.8,13.5,16.2,15,18.5l1.6,3.3l1.3,3.8c1.5-2.3,15.1-30.6,13.6-44.2"/>
<path fill="#34110D" stroke="#FFFFFF" stroke-width="0.75" stroke-linecap="round" stroke-linejoin="round" stroke-miterlimit="10" d="
	M38.7,88.9l-7.5-0.1c-3.2,0.8-5.7,5-5.7,9.4c0,4.4,2.5,8,5.7,8.9c-6.8,2.2-1.2,16.6,4.7,22.9c-10.7-0.3-1.7,21.5,0.1,33
	c1.4-5.7,6.6-31.6,8.5-47.7C46.1,102.6,41.1,92.8,38.7,88.9"/>
<polygon fill="#34110D" stroke="#FFFFFF" stroke-width="0.75" stroke-linecap="round" stroke-miterlimit="10" points="33.8,45.4 
	39.1,54.6 41.8,54.6 41.8,48.3 "/>
<path fill="#34110D" stroke="#FFFFFF" stroke-width="0.75" stroke-linecap="round" stroke-miterlimit="10" d="M41.8,48.7v5.8
	c-0.6,0-3.2-2.6-3.2-6L41.8,48.7z"/>
<path fill="#34110D" stroke="#FFFFFF" stroke-width="0.75" stroke-linecap="round" stroke-miterlimit="10" d="M46,32.5
	c-0.7-2.3-2.3-4-5.2-4.1c-2.9-0.1-5.3,2.2-5.3,5v0.4c0,1.2-1,2.1-2.2,2.1c-1.2,0-2.3-0.9-1.9-2.1l-0.1,0.7v2.6
	c-0.1,2.5-0.1,4.5,1.9,7.4c2.2,3.3,6.5,4.9,9.8,4.8c3-0.1,3.4-1.9,2.8-2.9c-0.5-0.7-1.3-1.1-1.6-1.3l0.8-0.5l-1-0.6l1.1-1l-0.4-0.7
	h2.4L46,32.5"/>
<path fill="none" stroke="#FFFFFF" stroke-width="0.75" stroke-linecap="round" stroke-miterlimit="10" d="M44.1,40.8
	c0.2,0.2,0.5,0.1,0.6,0c0.2-0.2,0.2-0.6-0.1-0.7c-0.3-0.2-0.7-0.2-0.9,0.1c-0.3,0.4-0.3,0.9,0.1,1.2c0.4,0.4,1,0.3,1.5-0.1
	c0.4-0.3,0.3-1,0.3-1l-0.5-5.8"/>
<path fill="none" stroke="#FFFFFF" stroke-width="0.75" stroke-linecap="round" stroke-miterlimit="10" d="M36.4,33.2
	c3.9-2.6,6.3,0.5,6.7,0.3c1-0.6,1.7,0,1.9,0.1"/>
<path fill="none" stroke="#FFFFFF" stroke-width="0.75" stroke-linecap="round" stroke-miterlimit="10" d="M34.7,42.9L34.7,42.9
	c-3.1,0.5-4-4.3-2.7-5.7l0,0c0.9-1.1,2.3-1,3.1-0.2c0.6,0.6,0.6,1.9-0.1,2.6c-0.5,0.5-1.4,0.5-1.9,0c-0.4-0.4-0.4-1.1,0-1.5
	c0.3-0.3,0.9-0.3,1.2,0c0.3,0.3,0.3,0.7,0,1"/>
<path fill="#34110D" stroke="#FFFFFF" stroke-width="0.75" stroke-linecap="round" stroke-miterlimit="10" d="M45.9,73.5
	c9-2.1,10.8-9.4,10.8-18.9H22.3c0,9.6,5.1,18.5,19.1,19.2c0.3,0,2.1-5,2.1-5L45.9,73.5z"/>
<path fill="none" stroke="#221E20" stroke-width="0.75" stroke-linecap="round" stroke-miterlimit="10" d="M18.3,75"/>
<line fill="none" stroke="#FFFFFF" stroke-width="0.75" stroke-linecap="round" stroke-miterlimit="10" x1="43.4" y1="62.3" x2="43.6" y2="68.8"/>
<path fill="none" stroke="#FFFFFF" stroke-width="0.75" stroke-linecap="round" stroke-miterlimit="10" d="M43.4,62.3
	c0.3-0.7,0.7-1.4,1.3-1.9c1.8-1.8,4.8-1.8,6.6,0c1.5,1.5,1.5,3.8,0,5.3c-1.2,1.2-3,1.2-4.2,0c-0.9-0.9-0.9-2.5,0-3.4
	c0.7-0.7,1.9-0.7,2.7,0"/>
<path fill="none" stroke="#FFFFFF" stroke-width="0.75" stroke-linecap="round" stroke-miterlimit="10" d="M43.4,62.3
	c-0.3-0.7-0.7-1.4-1.3-1.9c-1.8-1.8-4.8-1.8-6.6,0c-1.5,1.5-1.5,3.8,0,5.3c1.2,1.2,3,1.2,4.2,0c0.9-0.9,0.9-2.5,0-3.4
	c-0.7-0.7-1.9-0.7-2.7,0"/>
<path fill="none" stroke="#221E20" stroke-width="0.75" stroke-linecap="round" stroke-miterlimit="10" d="M44.1,74.4
	c2,5.9,0.9,13-0.7,19.1"/>
<path fill="none" stroke="#FFFFFF" stroke-width="0.75" stroke-linecap="round" stroke-miterlimit="10" d="M30.6,111.6
	c0.6,10.3,5.6,15.9,8,16.1c1.2,0.1,2.4-0.6,2.6-1.8c0.2-1-0.5-1.9-1.4-2c-0.8-0.1-1.5,0.4-1.7,1.1c-0.1,0.6,0.3,1.2,0.9,1.3"/>
<path fill="#34110D" stroke="#FFFFFF" stroke-width="0.75" stroke-linecap="round" stroke-miterlimit="10" d="M29.6,171h24.5
	c0.1,0,0.2-0.1,0.2-0.2c0,0-1-1.3-1.1-1.3H29.6V171z"/>
<path fill="none" stroke="#221E20" stroke-width="0.75" stroke-linecap="round" stroke-miterlimit="10" d="M45.9,169.6"/>
<path fill="#34110D" stroke="#FFFFFF" stroke-width="0.75" stroke-linecap="round" stroke-miterlimit="10" d="M52,169.6
	c1-0.4,1.2-1.5,0.2-1.9c-0.2-0.1-2.5,0.5-2.7,0.4c-1.1-0.4-2.1-0.8-2.7-0.9l1.7,2.4L52,169.6L52,169.6z"/>
<line fill="none" stroke="#221E20" stroke-width="0.75" stroke-linecap="round" stroke-miterlimit="10" x1="24.2" y1="116.1" x2="23.9" y2="117"/>
<polygon fill="#34110D" stroke="#FFFFFF" stroke-width="0.75" stroke-linecap="round" stroke-miterlimit="10" points="31,167.4 
	38.9,163.8 46.7,167.1 48.4,169.6 30.9,169.6 "/>
<path fill="none" stroke="#221E20" stroke-width="0.75" stroke-linecap="round" stroke-miterlimit="10" d="M54.6,169.6"/>
<line fill="none" stroke="#FFFFFF" stroke-width="0.75" stroke-linecap="round" stroke-miterlimit="10" x1="44" y1="44.1" x2="42.9" y2="44.4"/>
<g>
	<path fill="#34110D" stroke="#FFFFFF" stroke-width="0.75" stroke-linecap="round" stroke-miterlimit="10" d="M43.1,35
		c0,0.1-1.3,1.1-2.9,1.1c-1.6,0-2.9-0.9-2.9-1.1c0-0.2,1.3-1.1,2.9-1.1C41.8,33.9,43.1,35,43.1,35z"/>
	
		<circle fill="#34110D" stroke="#FFFFFF" stroke-width="0.75" stroke-linecap="round" stroke-miterlimit="10" cx="40.2" cy="35" r="0.7"/>
</g>
<path fill="none" stroke="#FFFFFF" stroke-width="0.75" stroke-linecap="round" stroke-miterlimit="10" d="M37.9,22.3"/>
<path fill="none" stroke="#221E20" stroke-width="0.75" stroke-linecap="round" stroke-miterlimit="10" d="M50.9,52.8"/>
<path fill="#34110D" stroke="#FFFFFF" stroke-width="0.75" stroke-linecap="round" stroke-miterlimit="10" d="M56.1,105.8
	c0.4-10-4-15.7-7.7-16.7h-16c0,34.8-3.7,26.6,23,27.3l0,0L56.1,105.8z"/>
<path fill="#34110D" stroke="#FFFFFF" stroke-width="0.75" stroke-linecap="round" stroke-miterlimit="10" d="M22.7,105.8
	c-0.4-10,2.8-15.8,6.5-16.8L49,89.1c0,34.8-14.1,37-25.6,37l0,0L22.7,105.8z"/>
<path fill="#34110D" stroke="#FFFFFF" stroke-width="0.75" stroke-linecap="round" stroke-miterlimit="10" d="M48.4,89.1
	c5,0,10.4-34,8-34.5L29.2,89L48.4,89.1z"/>
<path fill="none" stroke="#FFFFFF" stroke-width="0.75" stroke-linecap="round" stroke-miterlimit="10" d="M45.8,89
	c-0.4,5.8-1.8,15.1-7,25"/>
<path fill="none" stroke="#FFFFFF" stroke-width="0.75" stroke-linecap="round" stroke-miterlimit="10" d="M37.9,89
	c-0.2,2.9-0.9,7.6-3.5,12.5c-1.4,2.6-3,4.7-4.4,6.2"/>
<path fill="none" stroke="#FFFFFF" stroke-width="0.75" stroke-linecap="round" stroke-miterlimit="10" d="M51.2,70.7
	c-0.3,4.8-5.7,15.1-10,18.4"/>
<path fill="none" stroke="#FFFFFF" stroke-width="0.75" stroke-linecap="round" stroke-miterlimit="10" d="M20.6,83.1
	c7.7-12.5,6.3-21.8,3.6-24c-1.3-1.1-3.2-1.2-4.4,0c-1,1-1,2.6,0,3.5c0.8,0.8,2,0.8,2.9,0c0.6-0.6,0.6-1.7,0-2.3"/>
<path fill="#34110D" d="M25.9,118.2c0.1-3-2.2-7.1-2.6-7.7c-0.6-0.6,0.3-10.6,0.4-10.8c0,0,0,0,0,0l0,0C24.8,93,24.8,87,21,86.8
	c3.4-5.5,7.8-12.7,7.8-18.8c0-6.1-1.3-12.7-6.1-13.4l-0.4-0.1c-12.5,0-4.3,44.3-2.2,55.8l-1.2,6.4c-0.3,0.9,0.6,5.4,1.2,5.9
	c0.4-0.4,0.7-1,0.2-2c0,0,0-0.1,0-0.1c0.2,0.8,0.5,1.8,1.1,2.7c0.2-0.3,0.5-0.6,0.5-1.1c0.2,0.6,0.5,1.2,0.8,1.8
	c0.5-0.5,0.9-1.3,0.2-2.5c0-0.1,0-0.1,0.1-0.2c0.2,0.6,0.5,1.2,0.8,1.8c0.4-0.5,0.8-1.1,0.2-2.2c0.6-1.3,0.1-2.9-0.2-3.6l0.5-0.7
	c0,0-0.1,2.7,1.5,3.8c0.5-0.1,0.9-0.6,0.1-1.7L25.9,118.2z"/>
<path fill="none" stroke="#FFFFFF" stroke-width="0.75" stroke-miterlimit="10" d="M20.6,83.1c7.7-12.5,6.3-21.8,3.6-24
	c-1.3-1.1-3.2-1.2-4.4,0c-1,1-1,2.6,0,3.5c0.8,0.8,2,0.8,2.9,0c0.6-0.6,0.6-1.7,0-2.3"/>
<path fill="none" stroke="#FFFFFF" stroke-width="0.75" stroke-linecap="round" stroke-linejoin="round" stroke-miterlimit="10" d="
	M25.9,118.2c0.1-3-2.2-7.1-2.6-7.7c-0.6-0.6,0.2-8.8,0.4-10.8c0,0,0,0,0,0l0,0C24.8,93,24.8,87,21,86.8c3.4-5.5,7.8-12.7,7.8-18.8
	c0-6.1-1.3-12.7-6.1-13.4l-0.4-0.1c-12.7,0-4.5,44.7-2.2,55.8l-1.2,6.4c-0.3,0.9,0.6,5.4,1.2,5.9c0.4-0.4,0.7-1,0.2-2
	c0,0,0-0.1,0-0.1c0.2,0.8,0.5,1.8,1.1,2.7c0.2-0.3,0.5-0.6,0.5-1.1c0.2,0.6,0.5,1.2,0.8,1.8c0.5-0.5,0.9-1.3,0.2-2.5
	c0-0.1,0-0.1,0.1-0.2c0.2,0.6,0.5,1.2,0.8,1.8c0.4-0.5,0.8-1.1,0.2-2.2c0.6-1.3,0.1-2.9-0.2-3.6l0.5-0.7c0,0-0.1,2.7,1.5,3.8
	c0.5-0.1,0.9-0.6,0.1-1.7L25.9,118.2z"/>
<g>
	<path fill="#34110D" stroke="#FFFFFF" stroke-width="0.5" stroke-miterlimit="10" d="M18.6,117.9"/>
	<path fill="#34110D" stroke="#FFFFFF" stroke-width="0.5" stroke-miterlimit="10" d="M19.7,119.6"/>
	<path fill="#34110D" stroke="#FFFFFF" stroke-width="0.5" stroke-miterlimit="10" d="M20.1,122.6"/>
	<line fill="none" stroke="#FFFFFF" stroke-width="0.5" stroke-miterlimit="10" x1="20.3" y1="120.6" x2="20.3" y2="120.6"/>
	<path fill="#34110D" stroke="#FFFFFF" stroke-width="0.5" stroke-linecap="round" stroke-miterlimit="10" d="M19.9,116.9
		c0.2,0-0.3,3.2,1.5,6.3l0,0c0.4-0.5,0.8-1.1,0.2-2.2l0,0c0.9-2.1-0.5-4.1-0.5-4.1"/>
	<path fill="#34110D" stroke="#FFFFFF" stroke-width="0.5" stroke-linecap="round" stroke-miterlimit="10" d="M21.1,116.9
		c0.2,0-0.4,3.6,1.6,7.1l0,0c0.5-0.5,0.9-1.3,0.2-2.5l0,0c1-2.4-0.6-4.5-0.5-4.5"/>
	<path fill="#34110D" stroke="#FFFFFF" stroke-width="0.5" stroke-linecap="round" stroke-miterlimit="10" d="M22.3,116.8
		c0.2,0-0.3,3.2,1.5,6.3l0,0c0.4-0.5,0.8-1.1,0.2-2.2l0,0c0.6-1.3,0.1-2.9-0.3-3.7"/>
</g>
<line fill="none" stroke="#FFFFFF" stroke-width="0.75" stroke-linecap="round" stroke-miterlimit="10" x1="18" y1="99" x2="23.3" y2="110.5"/>
<path fill="none" stroke="#FFFFFF" stroke-width="0.75" stroke-miterlimit="10" d="M38.1,48.6c-0.9,0-1.6-0.7-1.6-1.6
	c0-0.7,0.6-1.3,1.3-1.3c0.6,0,1,0.5,1,1c0,0.5-0.4,0.8-0.8,0.8c-0.4,0-0.7-0.3-0.7-0.7c0-0.3,0.2-0.6,0.6-0.6c0.2,0,0.4,0.2,0.4,0.4
	c0,0.2-0.2,0.4-0.4,0.4"/>
<path fill="none" stroke="#FFFFFF" stroke-width="0.75" stroke-miterlimit="10" d="M40,49.6c-0.8,0-1.5-0.6-1.5-1.5
	c0-0.6,0.5-1.2,1.2-1.2c0.5,0,0.9,0.4,0.9,0.9c0,0.4-0.3,0.7-0.7,0.7c-0.3,0-0.6-0.3-0.6-0.6c0-0.3,0.2-0.5,0.5-0.5
	c0.2,0,0.4,0.2,0.4,0.4c0,0.2-0.1,0.3-0.3,0.3"/>
<path fill="none" stroke="#FFFFFF" stroke-width="0.75" stroke-miterlimit="10" d="M42.4,50c-0.8,0-1.4-0.6-1.4-1.4
	c0-0.6,0.5-1.1,1.1-1.1c0.5,0,0.9,0.4,0.9,0.9c0,0.4-0.3,0.7-0.7,0.7c-0.3,0-0.6-0.3-0.6-0.6c0-0.3,0.2-0.5,0.5-0.5
	c0.2,0,0.4,0.2,0.4,0.4c0,0.2-0.1,0.3-0.3,0.3"/>
<path fill="none" stroke="#FFFFFF" stroke-width="0.75" stroke-miterlimit="10" d="M44.7,49.6c-0.8,0-1.5-0.7-1.5-1.5
	c0-0.7,0.6-1.2,1.2-1.2c0.6,0,1,0.4,1,1c0,0.4-0.4,0.8-0.8,0.8c-0.4,0-0.6-0.3-0.6-0.6c0-0.3,0.2-0.5,0.5-0.5c0.2,0,0.4,0.2,0.4,0.4
	c0,0.2-0.1,0.3-0.3,0.3"/>
<path fill="none" stroke="#FFFFFF" stroke-width="0.75" stroke-miterlimit="10" d="M44.4,46.1c1.3-1.3,3.5-1.3,4.8,0
	c1.1,1.1,1.1,2.8,0,3.9c-0.8,0.8-2.2,0.8-3.1,0c-0.7-0.7-0.7-1.8,0-2.5c0.6-0.6,1.4-0.6,2,0c0.4,0.4,0.4,1.1,0,1.6
	c-0.4,0.4-0.9,0.4-1.3,0c-0.3-0.3-0.3-0.7,0-1"/>
<path fill="none" stroke="#FFFFFF" stroke-width="0.75" stroke-miterlimit="10" d="M32.2,32.4c0.9,0,1.6,0.7,1.6,1.6
	c0,0.7-0.6,1.3-1.3,1.3c-0.6,0-1-0.5-1-1c0-0.5,0.4-0.8,0.8-0.8c0.4,0,0.7,0.3,0.7,0.7c0,0.3-0.2,0.6-0.6,0.6
	c-0.2,0-0.4-0.2-0.4-0.4c0-0.2,0.2-0.4,0.4-0.4"/>
<path fill="none" stroke="#FFFFFF" stroke-width="0.75" stroke-miterlimit="10" d="M34.3,32.7c0.6,0,1,0.5,1,1
	c0,0.4-0.4,0.8-0.8,0.8c-0.4,0-0.6-0.3-0.6-0.6c0-0.3,0.2-0.5,0.5-0.5c0.2,0,0.4,0.2,0.4,0.4c0,0.2-0.1,0.3-0.3,0.3"/>
<path fill="none" stroke="#FFFFFF" stroke-width="0.75" stroke-miterlimit="10" d="M33.4,29.9c0.9,0,1.6,0.7,1.6,1.6
	c0,0.7-0.6,1.3-1.3,1.3c-0.6,0-1-0.5-1-1c0-0.5,0.4-0.8,0.8-0.8c0.4,0,0.7,0.3,0.7,0.7c0,0.3-0.2,0.6-0.6,0.6
	c-0.2,0-0.4-0.2-0.4-0.4c0-0.2,0.2-0.4,0.4-0.4"/>
<path fill="none" stroke="#FFFFFF" stroke-width="0.75" stroke-miterlimit="10" d="M35.1,27.7c0.9,0,1.6,0.7,1.6,1.6
	c0,0.7-0.6,1.3-1.3,1.3c-0.6,0-1-0.5-1-1c0-0.5,0.4-0.8,0.8-0.8c0.4,0,0.7,0.3,0.7,0.7c0,0.3-0.2,0.6-0.6,0.6
	c-0.2,0-0.4-0.2-0.4-0.4c0-0.2,0.2-0.4,0.4-0.4"/>
<path fill="none" stroke="#FFFFFF" stroke-width="0.75" stroke-linecap="round" stroke-miterlimit="10" d="M46.9,50.5
	c0,1-0.8,1.8-1.8,1.8c-0.8,0-1.4-0.6-1.4-1.4c0-0.6,0.5-1.1,1.1-1.1c0.5,0,0.9,0.4,0.9,0.9c0,0.4-0.3,0.7-0.7,0.7
	c-0.3,0-0.6-0.3-0.6-0.6c0-0.3,0.2-0.5,0.5-0.5c0.2,0,0.4,0.2,0.4,0.4"/>
<g>
	
		<path fill="#C3996C" stroke="#FFFFFF" stroke-width="0.75" stroke-linecap="round" stroke-linejoin="round" stroke-miterlimit="10" d="
		M31.5,38.7c0.1-0.5,0.3-1,0.6-1.5C31.7,37.6,31.5,38.1,31.5,38.7z"/>
	
		<path fill="#C3996C" stroke="#FFFFFF" stroke-width="0.75" stroke-linecap="round" stroke-linejoin="round" stroke-miterlimit="10" d="
		M49.2,46.1c-1.1-1.1-2.9-1.3-4.2-0.5c0,0-0.5,0.6-0.5,0.6c-0.9,1.1-2.3,1-3.7,0.4c0.1-0.9,0.1-1.7,0.6-2.7c0.6-1.3,1.8-1.5,1.8-1.5
		s-2.5-0.5-3.5,3.4c0,0.1,0-0.1,0,0c-0.7-0.6-1.4-1.2-1.8-1.8c0.5-0.8,0.5-2.4-1.5-4.1c0.5,1.5-0.8,2.8-1.7,2.9
		c-2.4,0.4-3.4-2.3-3.2-4.2c-0.8,5.3,7.3,14,14.2,10.5c0.1,0.3,0.2,0.5,0.4,0.7c0.8,0.8,2.2,0.8,3.1,0
		C50.3,48.9,50.3,47.2,49.2,46.1z"/>
</g>
<path fill="#C3996C" stroke="#FFFFFF" stroke-width="0.75" stroke-miterlimit="10" d="M29.1,28.1"/>
<path fill="#C3996C" stroke="#FFFFFF" stroke-width="0.75" stroke-linecap="round" stroke-miterlimit="10" d="M46.7,30.8l-2.4-3.1
	v-0.7c-1.9-3.1-3.5-6.7-6.8-8.4c-9.1-4.8-16,4-13,9.3c1.8,3.2,6.8,11.5,6.8,11.5l2.3-9.6l3.4,1.4c3.6-0.5,12.3-2.8,8.9,1.2"/>
<path fill="none" stroke="#FFFFFF" stroke-width="0.75" stroke-linecap="round" stroke-miterlimit="10" d="M37.5,31.2
	c0-0.1,0-0.3,0.1-0.6c0.2-0.6,0.5-0.7,0.6-1.2c0.1-0.4,0-0.8-0.1-1.1c-0.2-0.7-0.6-0.8-0.9-1.4c-0.1-0.3-0.2-0.8,0-1.6"/>
<path fill="none" stroke="#FFFFFF" stroke-width="0.75" stroke-linecap="round" stroke-miterlimit="10" d="M37,18.3
	c-0.4,3-1.9,5.5-3.1,6.7c-0.6,0.6-1.6,1.4-2.6,2.9c-1.1,1.5-1.7,2.7-1.8,3.1c-0.6,1.4-1,2.3-1.2,3.3"/>
<polyline fill="none" stroke="#FFFFFF" stroke-width="0.75" stroke-linecap="round" stroke-miterlimit="10" points="44.3,26.9 
	44.3,27.6 43.2,27.3 40.8,23.2 39.9,23.7 42.7,27.4 44.8,28.4 44.3,27.6 "/>
<path fill="#C3996C" stroke="#FFFFFF" stroke-width="0.75" stroke-linecap="round" stroke-miterlimit="10" d="M40.7,23.1
	c0,0.1-0.2,1.2-1.3,1.8c-1,0.6-2.2,0.5-2.3,0.4c-0.1-0.1,0.4-1.2,1.5-1.8C39.6,22.9,40.7,23.1,40.7,23.1z"/>
<circle fill="#C3996C" stroke="#FFFFFF" stroke-width="0.75" stroke-linecap="round" stroke-miterlimit="10" cx="38.9" cy="24.2" r="0.6"/>
<path fill="none" stroke="#FFFFFF" stroke-width="0.75" stroke-linecap="round" stroke-miterlimit="10" d="M40.8,23.2
	c-0.2-0.4-1.1-1-1.9-1.1c-2.2-0.1-2.6,2.1-2.7,2.2"/>
<path fill="none" stroke="#FFFFFF" stroke-width="0.75" stroke-linecap="round" stroke-miterlimit="10" d="M37.9,44.1
	c0.8,0.8,0.7,2.1-0.2,2.8c-0.7,0.6-1.8,0.6-2.4-0.1c-0.5-0.6-0.5-1.4,0.1-1.9c0.5-0.4,1.1-0.4,1.5,0.1c0.3,0.4,0.3,0.9-0.1,1.2
	c-0.3,0.3-0.7,0.2-1-0.1c-0.2-0.2-0.2-0.6,0-0.8c0.2-0.2,0.5-0.2,0.6,0"/>
<path fill="none" stroke="#FFFFFF" stroke-width="0.75" stroke-linecap="round" stroke-miterlimit="10" d="M47.1,45.9
	c1.2,0,2.1,0.9,2.1,2.1c0,0.9-0.8,1.7-1.7,1.7c-0.7,0-1.4-0.6-1.4-1.4c0-0.6,0.5-1.1,1.1-1.1c0.5,0,0.9,0.4,0.9,0.9
	c0,0.4-0.3,0.7-0.7,0.7c-0.3,0-0.6-0.3-0.6-0.6c0-0.3,0.2-0.5,0.5-0.5"/>
</svg>
