<?xml version="1.0" encoding="utf-8"?>
<!-- Generator: Adobe Illustrator 18.1.1, SVG Export Plug-In . SVG Version: 6.00 Build 0)  -->
<svg version="1.1" id="Warstwa_1" xmlns="http://www.w3.org/2000/svg" xmlns:xlink="http://www.w3.org/1999/xlink" x="0px" y="0px"
	 viewBox="0 0 77 190" enable-background="new 0 0 77 190" xml:space="preserve">
<g>
	<path fill="#34110D" d="M49.3,86.4c-3-5.7-7.6-11.1-7.2-17.2c0.4-6,2.1-12.6,7-12.9l0.4,0c7.1,0.3,6.6,13.6,4,27.6
		C52.5,90.1,45.5,86.4,49.3,86.4z"/>
	<path fill="none" stroke="#FFFFFF" stroke-width="0.75" stroke-linecap="round" stroke-miterlimit="10" d="M49.3,84.9
		c-6.8-13-4.8-22.2-2-24.2c1.4-1,3.3-1,4.4,0.3c0.9,1.1,0.8,2.6-0.2,3.5c-0.8,0.7-2.1,0.6-2.8-0.2c-0.6-0.7-0.5-1.7,0.1-2.3"/>
	
		<path fill="none" stroke="#FFFFFF" stroke-width="0.75" stroke-linecap="round" stroke-linejoin="round" stroke-miterlimit="10" d="
		M48.3,86.4c-3.1-5.7-6.6-11-6.2-17.1c0.4-6,2.1-12.6,7-13l0.4,0c7.4,0.6,6.6,13.3,3.8,29.4C52.7,89.3,46.2,86.3,48.3,86.4z"/>
</g>
<path fill="#34110D" stroke="#FFFFFF" stroke-width="0.75" stroke-linecap="round" stroke-miterlimit="10" d="M19.8,56.2
	c6.6,0,12.1-7.5,12.1-12.4l5.1,1.8l2.2,5.3c0,2.9,0.1,5.1,8.2,5.1"/>
<path fill="#34110D" stroke="#FFFFFF" stroke-width="0.75" stroke-linecap="round" stroke-miterlimit="10" d="M39.3,165.1
	c0,0,0-6.3-0.3-15.2l3.5-0.6l-0.3,15.2c3,0.8,6.9,2.8,10.6,4.2l1.7,2.4H37.1C37.1,168.7,36.9,165.6,39.3,165.1"/>
<polyline fill="none" stroke="#221E20" stroke-width="0.75" stroke-linecap="round" stroke-miterlimit="10" points="52.9,168.7 
	54.5,171.1 37.1,171.1 "/>
<path fill="#34110D" stroke="#FFFFFF" stroke-width="0.75" stroke-linecap="round" stroke-miterlimit="10" d="M35.8,172.6h24.5
	c0.1,0,0.2-0.1,0.2-0.2c0,0-1-1.3-1.1-1.3H35.8V172.6z"/>
<path fill="#34110D" stroke="#FFFFFF" stroke-width="0.75" stroke-linecap="round" stroke-miterlimit="10" d="M58.1,171.1
	c1-0.4,1.2-1.5,0.2-1.9c-0.2-0.1-2.5,0.5-2.7,0.4c-1.1-0.4-2.1-0.8-2.7-0.9l1.7,2.4L58.1,171.1L58.1,171.1z"/>
<polygon fill="#34110D" stroke="#FFFFFF" stroke-width="0.75" stroke-linecap="round" stroke-miterlimit="10" points="37.2,168.9 
	45.1,165.4 52.9,168.7 54.5,171.1 37.1,171.1 "/>
<path fill="#34110D" stroke="#FFFFFF" stroke-width="0.75" stroke-linecap="round" stroke-miterlimit="10" d="M30.6,165.1
	c0,0,0-5.3-0.3-14.3l3.5-1.5l-0.3,15.2c3,0.8,6.9,2.8,10.6,4.2l1.7,2.4H28.3C28.3,168.6,28.1,165.6,30.6,165.1"/>
<polyline fill="#FFFFFF" stroke="#221E20" stroke-width="0.75" stroke-linecap="round" stroke-miterlimit="10" points="44.1,168.7 
	45.8,171.1 28.3,171.1 "/>
<path fill="none" stroke="#221E20" stroke-width="0.75" stroke-linecap="round" stroke-miterlimit="10" d="M54.8,119.5"/>
<path fill="#FFFFFF" stroke="#221E20" stroke-width="0.75" stroke-linecap="round" stroke-miterlimit="10" d="M53.7,121.2"/>
<path fill="#34110D" stroke="#FFFFFF" stroke-width="0.75" stroke-linecap="round" stroke-linejoin="round" stroke-miterlimit="10" d="
	M45.6,90.3h-7.4c-3.2,0.8-5.7,5-5.7,9.4c0,4.4,2.5,8,5.7,8.9c-6.8,2.2-1.2,16.6,4.7,22.9c-10.7-0.3-2.5,21.5-0.7,33
	c1.4-5.7,7.4-31.6,9.4-47.7C53.1,104.2,48,94.3,45.6,90.3"/>
<path fill="none" stroke="#FFFFFF" stroke-width="0.75" stroke-linecap="round" stroke-miterlimit="10" d="M38,113.5
	c0.6,10.3,5.6,15.9,8,16.1c1.2,0.1,2.4-0.6,2.6-1.8c0.2-1-0.5-1.9-1.4-2c-0.8-0.1-1.5,0.4-1.7,1.1c-0.1,0.6,0.3,1.2,0.9,1.3"/>
<path fill="#34110D" stroke="#FFFFFF" stroke-width="0.75" stroke-linecap="round" stroke-miterlimit="10" d="M25.6,92.3
	c2.1-1.2,1.6-8.4-1.1-12.3l-4.7-5.8l7.1-5.7l12.8,12.2l-1.8,8.1L36,92.5L29.5,97L25.6,92.3z"/>
<path fill="#34110D" stroke="#FFFFFF" stroke-width="0.75" stroke-linecap="round" stroke-miterlimit="10" d="M19.7,56.2
	c-2.3,10.7-0.3,17.8,2.9,18.5c7.8,1.8,13.5,16.2,15,18.5l1.6,3.3l1.3,3.8c1.5-2.3,8.6-30.6,7.1-44.2"/>
<path fill="#34110D" stroke="#FFFFFF" stroke-width="0.75" stroke-linecap="round" stroke-linejoin="round" stroke-miterlimit="10" d="
	M36.1,90.4l-7.5-0.1c-3.2,0.8-5.7,5-5.7,9.4c0,4.4,2.5,8,5.7,8.9c-6.8,2.2-1.2,16.6,4.7,22.9c-10.7-0.3-1.7,21.5,0.1,33
	c1.4-5.7,6.6-31.6,8.5-47.7C43.5,104.2,38.5,94.3,36.1,90.4"/>
<polygon fill="#34110D" stroke="#FFFFFF" stroke-width="0.75" stroke-linecap="round" stroke-miterlimit="10" points="32.2,46.5 
	36.6,56.2 39.2,56.2 39.2,49.9 "/>
<path fill="#34110D" stroke="#FFFFFF" stroke-width="0.75" stroke-linecap="round" stroke-miterlimit="10" d="M39.2,50.3v5.8
	c-0.6,0-3.2-2.6-3.2-6L39.2,50.3z"/>
<path fill="#34110D" stroke="#FFFFFF" stroke-width="0.75" stroke-linecap="round" stroke-miterlimit="10" d="M41.3,72.7
	c8.1,0.3,6.6-12.6,6.4-16.6H19.8c0,9.6,5.1,15.9,19.1,16.6c0.3,0,1.5-6.3,1.5-6.3L41.3,72.7z"/>
<path fill="none" stroke="#221E20" stroke-width="0.75" stroke-linecap="round" stroke-miterlimit="10" d="M23.2,76.3"/>
<line fill="none" stroke="#FFFFFF" stroke-width="0.75" stroke-linecap="round" stroke-miterlimit="10" x1="40.2" y1="60.2" x2="40.4" y2="66.7"/>
<path fill="none" stroke="#FFFFFF" stroke-width="0.75" stroke-linecap="round" stroke-miterlimit="10" d="M40.8,63.9"/>
<path fill="none" stroke="#FFFFFF" stroke-width="0.75" stroke-linecap="round" stroke-miterlimit="10" d="M40.8,63.9"/>
<path fill="#34110D" stroke="#FFFFFF" stroke-width="0.75" stroke-linecap="round" stroke-miterlimit="10" d="M41.5,76
	c2,5.9,0.9,13-0.7,19.1"/>
<path fill="#34110D" stroke="#FFFFFF" stroke-width="0.75" stroke-linecap="round" stroke-miterlimit="10" d="M28,113.1
	c0.6,10.3,5.6,15.9,8,16.1c1.2,0.1,2.4-0.6,2.6-1.8c0.2-1-0.5-1.9-1.4-2c-0.8-0.1-1.5,0.4-1.7,1.1c-0.1,0.6,0.3,1.2,0.9,1.3"/>
<path fill="#34110D" stroke="#FFFFFF" stroke-width="0.75" stroke-linecap="round" stroke-miterlimit="10" d="M27,172.6h24.5
	c0.1,0,0.2-0.1,0.2-0.2c0,0-1-1.3-1.1-1.3H27V172.6z"/>
<path fill="none" stroke="#221E20" stroke-width="0.75" stroke-linecap="round" stroke-miterlimit="10" d="M43.3,171.1"/>
<path fill="#34110D" stroke="#FFFFFF" stroke-width="0.75" stroke-linecap="round" stroke-miterlimit="10" d="M49.4,171.1
	c1-0.4,1.2-1.5,0.2-1.9c-0.2-0.1-2.5,0.5-2.7,0.4c-1.1-0.4-2.1-0.8-2.7-0.9l1.7,2.4L49.4,171.1L49.4,171.1z"/>
<polygon fill="#34110D" stroke="#FFFFFF" stroke-width="0.75" stroke-linecap="round" stroke-miterlimit="10" points="28.4,168.9 
	36.3,165.4 44.1,168.7 45.8,171.1 28.3,171.1 "/>
<path fill="none" stroke="#221E20" stroke-width="0.75" stroke-linecap="round" stroke-miterlimit="10" d="M52.1,171.1"/>
<g>
	<path fill="none" stroke="#FFFFFF" stroke-width="0.75" stroke-linecap="round" stroke-miterlimit="10" d="M44.6,35.2
		c-0.5,0.7-0.5,1.3,0.1,1.8c0.4,0.4,1.1,0.4,1.5,0c0.3-0.3,0.3-0.9,0-1.2c-0.3-0.3-0.7-0.3-0.9,0"/>
	<path fill="#F8AE42" stroke="#FFFFFF" stroke-width="0.75" stroke-miterlimit="10" d="M47.8,39.3L47.8,39.3
		C47.8,39.3,47.8,39.3,47.8,39.3c0-0.6-0.2-1.1-0.5-1.4c-0.1,0-0.1-0.1-0.1-0.1c0.1-0.3,0.2-0.7,0.2-1.1c0-0.8-0.4-1.6-0.9-2.1
		c0.3-0.7,0.4-1.5,0.5-2.3c0.3-4.3-2.9-8-7.1-8.3c-2.1-0.1-4,0.6-5.4,1.8c0,0,0,0-0.1,0c-3.5-0.5-6.8,2-7.2,5.5
		c-0.1,0.9,0,1.9,0.2,2.7c-0.8,0.4-1.3,1.1-1.5,2.1c0,0.4,0,0.8,0.1,1.1c-0.1,0-0.1,0.1-0.1,0.1c-0.4,0.3-0.7,0.7-0.7,1.3
		c0,0,0,0,0,0c0,0,0,0,0,0c-0.2,1.1,0.6,2.1,1.6,2.4l0,0l0,0c0.1,0,0.2,0,0.2,0c0,0,0,0,0,0c2,0.3,4.3-2.7,4.6-4
		c0.1,0.1,0,0.8-0.1,1.2c-0.3,1.2,3.2,6.2,3.4,4.7c0.1-0.8-0.1-1.5-0.6-2c0-0.1,0-0.2-0.1-0.3l1.5-2.1c0.8,0.4,1.7,0.8,2.6,0.9
		l0.3,0.6c0,0.1-0.1,0.1-0.1,0.2c-0.5,0.5-0.8,1.2-0.8,1.9c0,1.1,2.5-1.2,3.5-2.9c0.4-0.1,0.9-0.3,1.3-0.5c0.8,1.3,2,2.6,3.3,2.5
		c0,0,0,0,0,0c0.1,0,0.1,0,0.2,0l0,0l0,0C47,41.3,47.8,40.4,47.8,39.3z"/>
	<path fill="none" stroke="#FFFFFF" stroke-width="0.75" stroke-linecap="round" stroke-miterlimit="10" d="M38.2,29.6
		c-1.8-2.5-5.3-2.9-7.8-1.1s-2.9,5.3-1.1,7.8l0,0c1.5,2.7-0.7,3.9-1.7,4.1c-0.8,0.1-1.5-0.4-1.6-1.2c-0.1-0.6,0.3-1.2,0.9-1.3
		c0.5-0.1,1,0.3,1.1,0.7c0.1,0.4-0.2,0.8-0.6,0.8"/>
	<path fill="none" stroke="#FFFFFF" stroke-width="0.75" stroke-linecap="round" stroke-miterlimit="10" d="M28.7,35.1
		c0.4,0.7,0.3,1.4-0.3,1.8c-0.5,0.3-1.1,0.3-1.5-0.2c-0.3-0.4-0.2-0.9,0.2-1.2c0.3-0.2,0.7-0.2,0.9,0.1"/>
	<path fill="#34110D" stroke="#FFFFFF" stroke-width="0.75" stroke-linecap="round" stroke-miterlimit="10" d="M46.4,34.7
		c-0.5-2.4-2-4.1-4.9-4.4c-2.8-0.3-5.4,1.8-5.6,4.7l0,0.4c-0.1,1.2-1.1,2.1-2.3,2c-1.2-0.1-2-0.9-1.9-2.2l0,0.7l-0.2,2.5
		c-0.3,2.5-0.3,4.5,1.4,7.5c2,3.5,6.1,5.3,9.5,5.4c2.9,0.1,3.5-1.7,2.9-2.7c-0.4-0.7-1.2-1.1-1.5-1.5l0.8-0.4l-1-0.7l1.1-0.9
		l-0.4-0.7l2.4,0.2L46.4,34.7"/>
	<path fill="none" stroke="#FFFFFF" stroke-width="0.75" stroke-linecap="round" stroke-miterlimit="10" d="M43.8,42.9
		c0.2,0.2,0.4,0.2,0.6,0c0.2-0.2,0.2-0.5,0-0.7c-0.2-0.2-0.7-0.3-0.9,0c-0.3,0.3-0.3,0.8,0,1.2c0.4,0.4,1,0.3,1.5,0
		c0.4-0.3,0.4-1,0.4-1l-0.1-5.8"/>
	<path fill="none" stroke="#FFFFFF" stroke-width="0.75" stroke-linecap="round" stroke-miterlimit="10" d="M36.6,34.8
		c4.1-2.4,6.2,0.9,6.7,0.7c1-0.6,1.7,0.1,1.9,0.2"/>
	<path fill="none" stroke="#FFFFFF" stroke-width="0.75" stroke-linecap="round" stroke-miterlimit="10" d="M34.3,44.4L34.3,44.4
		c-3.2,0.2-3.7-4.5-2.3-5.9l0,0c1-1.1,2.3-0.9,3.1,0c0.6,0.7,0.4,1.9-0.3,2.6c-0.6,0.5-1.4,0.4-1.9-0.1c-0.4-0.4-0.3-1.1,0.1-1.5
		c0.4-0.3,0.9-0.3,1.2,0.1c0.3,0.3,0.2,0.7-0.1,1"/>
	
		<line fill="none" stroke="#FFFFFF" stroke-width="0.75" stroke-linecap="round" stroke-miterlimit="10" x1="43.5" y1="46.2" x2="42.4" y2="46.4"/>
	<g>
		<path fill="#34110D" stroke="#FFFFFF" stroke-width="0.75" stroke-linecap="round" stroke-miterlimit="10" d="M43.2,37
			c0,0.1-1.4,1-2.9,0.9c-1.6-0.1-2.8-1.1-2.8-1.3c0-0.1,1.4-1,2.9-0.9C42,35.8,43.2,37,43.2,37z"/>
		
			<circle fill="#34110D" stroke="#FFFFFF" stroke-width="0.75" stroke-linecap="round" stroke-miterlimit="10" cx="40.3" cy="36.8" r="0.7"/>
	</g>
	<path fill="none" stroke="#FFFFFF" stroke-width="0.75" stroke-linecap="round" stroke-miterlimit="10" d="M41.6,34.1"/>
	<path fill="none" stroke="#FFFFFF" stroke-width="0.75" stroke-linecap="round" stroke-miterlimit="10" d="M34.3,25.9
		c2.9-1.1,6.1,0.4,7.1,3.3"/>
</g>
<path fill="none" stroke="#221E20" stroke-width="0.75" stroke-linecap="round" stroke-miterlimit="10" d="M48.3,54.3"/>
<path fill="#34110D" stroke="#FFFFFF" stroke-width="0.75" stroke-linecap="round" stroke-miterlimit="10" d="M53.5,107.4
	c0.4-10-4-15.7-7.7-16.7h-16c0,34.8,11.5,37,23,37l0,0L53.5,107.4z"/>
<path fill="#34110D" stroke="#FFFFFF" stroke-width="0.75" stroke-linecap="round" stroke-miterlimit="10" d="M26.6,90.6l19.8,0.1
	c0,34.8-25.3,23.3-25.6,20.8l0,0C20.8,111.5,17.2,90.8,26.6,90.6z"/>
<path fill="#34110D" stroke="#FFFFFF" stroke-width="0.75" stroke-linecap="round" stroke-miterlimit="10" d="M26.6,90.6
	c-6.5,0.2-8.7-33.9-6.2-34.4h1.7l24.3,34.5L26.6,90.6z"/>
<path fill="none" stroke="#FFFFFF" stroke-width="0.75" stroke-linecap="round" stroke-miterlimit="10" d="M35.4,90.6
	c-0.2,2.9-0.9,7.6-3.5,12.5c-1.4,2.6-3,4.7-4.4,6.2"/>
<path fill="none" stroke="#FFFFFF" stroke-width="0.75" stroke-linecap="round" stroke-miterlimit="10" d="M35.2,84.6
	c1.6,2.6,3.4,4.8,5,6"/>
<path fill="none" stroke="#FFFFFF" stroke-width="0.75" stroke-linecap="round" stroke-miterlimit="10" d="M28.7,82.8
	c1.8-14.6-3.3-22.4-6.7-23.3c-1.7-0.4-3.4,0.2-4,1.8c-0.5,1.3,0.2,2.8,1.5,3.2c1,0.4,2.2-0.1,2.6-1.2c0.3-0.8-0.1-1.8-0.9-2.1"/>
<path fill="none" stroke="#FFFFFF" stroke-width="0.75" stroke-linecap="round" stroke-miterlimit="10" d="M46.4,90.6"/>
<g>
	<g>
		<path fill="#34110D" stroke="#FFFFFF" stroke-width="0.75" stroke-linecap="round" stroke-miterlimit="10" d="M53.9,82.3
			c0.7,9.8,1.3,18.6,1.4,22.9l2.5,6c0.4,0.8,0.5,5.4,0.1,6c-0.4-0.3-0.9-0.8-0.6-1.9c0-0.1,0-0.1-0.1-0.1c0,0.9-0.1,1.8-0.5,2.8
			c-0.3-0.2-0.6-0.5-0.7-0.9c-0.1,0.6-0.2,1.3-0.4,2c-0.5-0.4-1.1-1.1-0.7-2.4c0-0.1-0.1-0.1-0.1-0.2c-0.1,0.6-0.2,1.3-0.4,2
			c-0.5-0.4-1-0.9-0.6-2.2c-0.8-1.1-0.7-2.8-0.6-3.6l-0.6-0.6c0,0,0.6,2.5-0.7,4.1c-0.5,0-1-0.4-0.4-1.6l-0.2-0.4
			c-0.8-2.9,0.6-7.4,0.9-8.1c0.5-0.7-9.5-21.6-2.9-24.2L53.9,82.3z"/>
		<g>
			<path fill="#34110D" stroke="#FFFFFF" stroke-width="0.5" stroke-miterlimit="10" d="M58.3,112.2"/>
			<path fill="#34110D" stroke="#FFFFFF" stroke-width="0.5" stroke-miterlimit="10" d="M57.5,114.2"/>
			<path fill="#34110D" stroke="#FFFFFF" stroke-width="0.5" stroke-miterlimit="10" d="M57.8,117.2"/>
			<line fill="none" stroke="#FFFFFF" stroke-width="0.5" stroke-miterlimit="10" x1="57.2" y1="115.2" x2="57.2" y2="115.2"/>
			<path fill="#34110D" stroke="#FFFFFF" stroke-width="0.5" stroke-linecap="round" stroke-miterlimit="10" d="M55.6,111.7
				c0,0-0.9,2.2,0.4,4.1l0,0c-0.4,1.2,0.2,1.8,0.6,2.2l0,0c1.1-3.4-0.1-6.5,0.1-6.5"/>
			<path fill="#34110D" stroke="#FFFFFF" stroke-width="0.5" stroke-linecap="round" stroke-miterlimit="10" d="M54.3,112
				c0,0-1,2.4,0.4,4.5l0,0c-0.4,1.4,0.2,2,0.7,2.4l0,0c1.3-3.8-0.1-7.2,0.1-7.2"/>
			<path fill="#34110D" stroke="#FFFFFF" stroke-width="0.5" stroke-linecap="round" stroke-miterlimit="10" d="M53.1,112.6
				c-0.1,0.8-0.3,2.5,0.5,3.6l0,0c-0.4,1.2,0.2,1.8,0.6,2.2l0,0c1.1-3.4-0.1-6.5,0.1-6.5"/>
		</g>
	</g>
	
		<line fill="none" stroke="#FFFFFF" stroke-width="0.75" stroke-linecap="round" stroke-miterlimit="10" x1="52.1" y1="106" x2="53.9" y2="94.1"/>
	<path fill="none" stroke="#FFFFFF" stroke-width="0.75" stroke-linecap="round" stroke-miterlimit="10" d="M50.2,84.1
		c0.3-0.2,0.2-0.6,0-0.9c-0.3-0.3-0.8-0.3-1.1,0c-0.4,0.4-0.4,1,0,1.4c0.5,0.5,1.2,0.5,1.7,0c0.6-0.6,0.6-1.5,0-2.1
		c-0.7-0.8-1.9-0.8-2.7,0"/>
</g>
<g>
	<path fill="#34110D" d="M25.3,88.3c2-6.1,4.5-14.3,3-20.1c-1.5-5.9-4.3-12-9.2-11.5l-0.4,0c-8,2-3.2,18.6,1.8,32
		C22.6,94.5,29.1,87.6,25.3,88.3z"/>
	<path fill="none" stroke="#FFFFFF" stroke-width="0.75" stroke-linecap="round" stroke-miterlimit="10" d="M22.6,84.8
		c6-13.4,3.4-22.4,0.4-24.3c-1.5-0.9-3.3-0.8-4.4,0.6c-0.8,1.1-0.6,2.7,0.5,3.5c0.9,0.7,2.1,0.5,2.8-0.4c0.5-0.7,0.4-1.7-0.3-2.3"/>
	
		<path fill="none" stroke="#FFFFFF" stroke-width="0.75" stroke-linecap="round" stroke-linejoin="round" stroke-miterlimit="10" d="
		M23.5,88.4c2.7-5.9,6-13.7,5.2-19.7c-0.8-6-2.9-12.4-7.9-12.5l-0.4,0c-8.1,1.1-5.3,18-1.4,33.8C20,93.6,25.6,88.2,23.5,88.4z"/>
	<g>
		<path fill="#34110D" stroke="#FFFFFF" stroke-width="0.75" stroke-linecap="round" stroke-miterlimit="10" d="M23.2,86
			c3.8,0.7,3,6.8,1,13.2c0,0-2.5,10.5-2,11.2c0.3,0.6,2.1,5,1.6,8l-0.2,0.5c0.7,1.2,0.2,1.6-0.3,1.6c-1.4-1.4-1-4-1-4l-0.6,0.7
			c0.2,0.8,0.5,2.4-0.3,3.6c0.5,1.2,0,1.8-0.5,2.2c-0.3-0.7-0.4-1.3-0.6-1.9c0,0.1,0,0.1-0.1,0.2c0.5,1.3,0,2-0.5,2.4
			c-0.3-0.6-0.5-1.3-0.6-1.9c-0.1,0.5-0.3,0.7-0.6,1c-0.4-1-0.6-1.9-0.7-2.8c0,0,0,0.1,0,0.1c0.4,1.1,0,1.6-0.4,2
			c-0.5-0.6-0.8-5.1-0.4-6l2-6.1c-0.3-4.3-0.5-13.5-0.6-23.4L23.2,86z"/>
		<g>
			<path fill="#34110D" stroke="#FFFFFF" stroke-width="0.5" stroke-miterlimit="10" d="M16.6,117.1"/>
			<path fill="#34110D" stroke="#FFFFFF" stroke-width="0.5" stroke-miterlimit="10" d="M17.6,118.9"/>
			<path fill="#34110D" stroke="#FFFFFF" stroke-width="0.5" stroke-miterlimit="10" d="M17.5,122"/>
			<line fill="none" stroke="#FFFFFF" stroke-width="0.5" stroke-miterlimit="10" x1="17.9" y1="120" x2="17.9" y2="120"/>
			<path fill="#34110D" stroke="#FFFFFF" stroke-width="0.5" stroke-linecap="round" stroke-miterlimit="10" d="M18.1,116.2
				c0.2,0-0.8,3.2,0.6,6.4l0,0c0.4-0.4,0.9-1,0.5-2.2l0,0c1.2-2,0-4.1,0.1-4.1"/>
			<path fill="#34110D" stroke="#FFFFFF" stroke-width="0.5" stroke-linecap="round" stroke-miterlimit="10" d="M19.2,116.4
				c0.2,0-0.9,3.5,0.7,7.2l0,0c0.5-0.5,1-1.1,0.5-2.4l0,0c1.3-2.2,0.1-4.6,0.1-4.6"/>
			<path fill="#34110D" stroke="#FFFFFF" stroke-width="0.5" stroke-linecap="round" stroke-miterlimit="10" d="M20.5,116.5
				c0.2,0-0.8,3.2,0.6,6.4l0,0c0.4-0.4,0.9-1,0.5-2.2l0,0c0.7-1.2,0.4-2.9,0.2-3.7"/>
		</g>
		
			<line fill="none" stroke="#FFFFFF" stroke-width="0.75" stroke-linecap="round" stroke-miterlimit="10" x1="18.7" y1="98.7" x2="22.2" y2="110.4"/>
	</g>
</g>
<path fill="none" stroke="#FFFFFF" stroke-width="0.75" stroke-linecap="round" stroke-miterlimit="10" d="M28.9,85.9
	c-1,0.3-1.6,1.3-1.3,2.3c0.2,0.8,1,1.3,1.9,1.1c0.6-0.2,1-0.8,0.9-1.5c-0.1-0.5-0.7-0.8-1.2-0.7c-0.4,0.1-0.7,0.5-0.5,1
	c0.1,0.3,0.4,0.5,0.8,0.4"/>
</svg>
