<?xml version="1.0" encoding="utf-8"?>
<!-- Generator: Adobe Illustrator 18.1.1, SVG Export Plug-In . SVG Version: 6.00 Build 0)  -->
<svg version="1.1" id="Warstwa_1" xmlns="http://www.w3.org/2000/svg" xmlns:xlink="http://www.w3.org/1999/xlink" x="0px" y="0px"
	 viewBox="0 0 391.3 190" enable-background="new 0 0 391.3 190" xml:space="preserve">
<path fill="#34110D" stroke="#FFFFFF" stroke-width="0.75" stroke-linecap="round" stroke-miterlimit="10" d="M37.5,171.1H62
	c0.1,0,0.2-0.1,0.2-0.2c0,0-1-1.3-1.1-1.3H37.5V171.1z"/>
<path fill="#34110D" stroke="#FFFFFF" stroke-width="0.75" stroke-linecap="round" stroke-miterlimit="10" d="M28.8,171.1h24.5
	c0.1,0,0.2-0.1,0.2-0.2c0,0-1-1.3-1.1-1.3H28.8V171.1z"/>
<path fill="none" stroke="#221E20" stroke-width="0.75" stroke-linecap="round" stroke-miterlimit="10" d="M45.1,169.6"/>
<path fill="none" stroke="#221E20" stroke-width="0.75" stroke-linecap="round" stroke-miterlimit="10" d="M53.8,169.6"/>
<g>
	<g>
		<path fill="#34110D" d="M52.5,118.3c-0.1-3,2.2-7.1,2.6-7.7c0.6-0.6-0.3-10.6-0.4-10.8c0,0,0,0,0,0l0,0
			c-1.1-6.7-1.2-12.7,2.7-12.8c-3.4-5.5-7.8-12.7-7.8-18.8c0-6.1,1.3-12.7,6.1-13.4l0.4-0.1c12.6,0,4.3,44.3,2.2,55.8l1.2,6.4
			c0.3,0.9-0.6,5.4-1.2,5.9c-0.4-0.4-0.7-1-0.2-2c0,0,0-0.1,0-0.1c-0.2,0.8-0.5,1.8-1.1,2.7c-0.2-0.3-0.5-0.6-0.5-1.1
			c-0.2,0.6-0.5,1.2-0.8,1.8c-0.5-0.5-0.9-1.3-0.2-2.5c0-0.1,0-0.1-0.1-0.2c-0.2,0.6-0.5,1.2-0.8,1.8c-0.4-0.5-0.8-1.1-0.2-2.2
			c-0.6-1.3-0.1-2.9,0.2-3.6l-0.5-0.7c0,0,0.1,2.7-1.5,3.8c-0.5-0.1-0.9-0.6-0.1-1.7L52.5,118.3z"/>
		<path fill="none" stroke="#FFFFFF" stroke-width="0.75" stroke-miterlimit="10" d="M57.8,83.2c-7.7-12.5-6.3-21.8-3.6-24
			c1.3-1.1,3.2-1.2,4.4,0c1,1,1,2.6,0,3.5c-0.8,0.8-2,0.8-2.9,0c-0.6-0.6-0.6-1.7,0-2.3"/>
		
			<path fill="none" stroke="#FFFFFF" stroke-width="0.75" stroke-linecap="round" stroke-linejoin="round" stroke-miterlimit="10" d="
			M52.5,118.3c-0.1-3,2.2-7.1,2.6-7.7c0.6-0.6-0.2-8.8-0.4-10.8c0,0,0,0,0,0l0,0c-1.1-6.7-1.2-12.7,2.7-12.8
			c-3.4-5.5-7.8-12.7-7.8-18.8c0-6.1,1.3-12.7,6.1-13.4l0.4-0.1c12.7,0,4.5,44.7,2.2,55.8l1.2,6.4c0.3,0.9-0.6,5.4-1.2,5.9
			c-0.4-0.4-0.7-1-0.2-2c0,0,0-0.1,0-0.1c-0.2,0.8-0.5,1.8-1.1,2.7c-0.2-0.3-0.5-0.6-0.5-1.1c-0.2,0.6-0.5,1.2-0.8,1.8
			c-0.5-0.5-0.9-1.3-0.2-2.5c0-0.1,0-0.1-0.1-0.2c-0.2,0.6-0.5,1.2-0.8,1.8c-0.4-0.5-0.8-1.1-0.2-2.2c-0.6-1.3-0.1-2.9,0.2-3.6
			l-0.5-0.7c0,0,0.1,2.7-1.5,3.8c-0.5-0.1-0.9-0.6-0.1-1.7L52.5,118.3z"/>
		<g>
			<path fill="#34110D" stroke="#FFFFFF" stroke-width="0.5" stroke-miterlimit="10" d="M59.8,118"/>
			<path fill="#34110D" stroke="#FFFFFF" stroke-width="0.5" stroke-miterlimit="10" d="M58.6,119.7"/>
			<path fill="#34110D" stroke="#FFFFFF" stroke-width="0.5" stroke-miterlimit="10" d="M58.3,122.7"/>
			<line fill="none" stroke="#FFFFFF" stroke-width="0.5" stroke-miterlimit="10" x1="58.1" y1="120.7" x2="58.1" y2="120.7"/>
			<path fill="#34110D" stroke="#FFFFFF" stroke-width="0.5" stroke-linecap="round" stroke-miterlimit="10" d="M58.5,117
				c-0.2,0,0.3,3.2-1.5,6.3l0,0c-0.4-0.5-0.8-1.1-0.2-2.2l0,0c-0.9-2.1,0.5-4.1,0.5-4.1"/>
			<path fill="#34110D" stroke="#FFFFFF" stroke-width="0.5" stroke-linecap="round" stroke-miterlimit="10" d="M57.3,117
				c-0.2,0,0.4,3.6-1.6,7.1l0,0c-0.5-0.5-0.9-1.3-0.2-2.5l0,0c-1-2.4,0.6-4.5,0.5-4.5"/>
			<path fill="#34110D" stroke="#FFFFFF" stroke-width="0.5" stroke-linecap="round" stroke-miterlimit="10" d="M56.1,116.9
				c-0.2,0,0.3,3.2-1.5,6.3l0,0c-0.4-0.5-0.8-1.1-0.2-2.2l0,0c-0.6-1.3-0.1-2.9,0.3-3.7"/>
		</g>
		
			<line fill="none" stroke="#FFFFFF" stroke-width="0.75" stroke-linecap="round" stroke-miterlimit="10" x1="60.4" y1="99.1" x2="55.1" y2="110.6"/>
	</g>
	<path fill="#34110D" stroke="#FFFFFF" stroke-width="0.75" stroke-linecap="round" stroke-miterlimit="10" d="M54.7,67.1l0.5-12.4
		h8.1v0.7C59.7,58.2,55.8,59.9,54.7,67.1"/>
	<path fill="#D32B27" stroke="#FFFFFF" stroke-width="0.75" stroke-miterlimit="10" d="M16.7,52.8c3.8-2.5,9.9-19.4,9.9-19.4
		l14.8-5.8l7.6-2.8c0,0-6.7-9.7-16.9-7.1c-11.5,3-11.3,13.7-11.6,16.9c-0.7,10.1-4.2,15.2-9.2,21L16.7,52.8z"/>
	<path fill="#34110D" stroke="#FFFFFF" stroke-width="0.75" stroke-linecap="round" stroke-miterlimit="10" d="M29.3,32.1
		c-1.3-3.3,0.5-7.1,3.8-8.3c3.3-1.3,7.1,0.5,8.3,3.8"/>
	<path fill="#34110D" stroke="#FFFFFF" stroke-width="0.75" stroke-linecap="round" stroke-miterlimit="10" d="M21.6,54.7
		c6.6,0,11.8-3.9,11.8-8.7l5.3-1.8l2.2,5.3c0,2.9,6.6,5.2,14.7,5.2"/>
	<path fill="#34110D" stroke="#FFFFFF" stroke-width="0.75" stroke-linecap="round" stroke-miterlimit="10" d="M41.1,163.6
		c0,0,0-6.3-0.3-15.2l3.5-0.6L44,163.1c3,0.8,6.9,2.8,10.6,4.2l1.7,2.4H38.8C38.8,167.2,38.7,164.2,41.1,163.6"/>
	<polyline fill="none" stroke="#221E20" stroke-width="0.75" stroke-linecap="round" stroke-miterlimit="10" points="54.7,167.2 
		56.3,169.6 38.8,169.6 	"/>
	<path fill="#34110D" stroke="#FFFFFF" stroke-width="0.75" stroke-linecap="round" stroke-miterlimit="10" d="M59.9,169.6
		c1-0.4,1.2-1.5,0.2-1.9c-0.2-0.1-2.5,0.5-2.7,0.4c-1.1-0.4-2.1-0.8-2.7-0.9l1.7,2.4L59.9,169.6L59.9,169.6z"/>
	<polygon fill="#34110D" stroke="#FFFFFF" stroke-width="0.75" stroke-linecap="round" stroke-miterlimit="10" points="38.9,167.5 
		46.9,163.9 54.7,167.2 56.3,169.6 38.8,169.6 	"/>
	<path fill="#34110D" stroke="#FFFFFF" stroke-width="0.75" stroke-linecap="round" stroke-miterlimit="10" d="M32.3,163.6
		c0,0,0-5.3-0.3-14.3l3.5-1.5L35.3,163c3,0.8,6.9,2.8,10.6,4.2l1.7,2.4H30.1C30.1,167.2,29.9,164.1,32.3,163.6"/>
	<polyline fill="#FFFFFF" stroke="#221E20" stroke-width="0.75" stroke-linecap="round" stroke-miterlimit="10" points="45.9,167.2 
		47.5,169.6 30.1,169.6 	"/>
	<path fill="none" stroke="#221E20" stroke-width="0.75" stroke-linecap="round" stroke-miterlimit="10" d="M56.6,118"/>
	<path fill="#FFFFFF" stroke="#221E20" stroke-width="0.75" stroke-linecap="round" stroke-miterlimit="10" d="M55.4,119.7"/>
	
		<path fill="#34110D" stroke="#FFFFFF" stroke-width="0.75" stroke-linecap="round" stroke-linejoin="round" stroke-miterlimit="10" d="
		M47.4,88.9H40c-3.2,0.8-5.7,5-5.7,9.4c0,4.4,2.5,8,5.7,8.9c-6.8,2.2-1.2,16.6,4.7,22.9c-10.7-0.3-2.5,21.5-0.7,33
		c1.4-5.7,7.4-31.6,9.4-47.7C54.9,102.7,49.8,92.8,47.4,88.9"/>
	<path fill="none" stroke="#FFFFFF" stroke-width="0.75" stroke-linecap="round" stroke-miterlimit="10" d="M39.7,112
		c0.6,10.3,5.6,15.9,8,16.1c1.2,0.1,2.4-0.6,2.6-1.8c0.2-1-0.5-1.9-1.4-2c-0.8-0.1-1.5,0.4-1.7,1.1c-0.1,0.6,0.3,1.2,0.9,1.3"/>
	<path fill="#34110D" stroke="#FFFFFF" stroke-width="0.75" stroke-linecap="round" stroke-miterlimit="10" d="M27.3,90.8
		c2.1-1.2,1.6-8.4-1.1-12.3l-8.8-15l11.2,3.4l12.8,12.2l-1.8,8.1l-2,3.6l-6.5,4.5L27.3,90.8z"/>
	<path fill="#34110D" stroke="#FFFFFF" stroke-width="0.75" stroke-linecap="round" stroke-miterlimit="10" d="M21.5,54.7
		c-2.3,10.7,16.3,34.7,17.8,37l1.6,3.3l1.3,3.8c1.5-2.3,15.1-30.6,13.6-44.2"/>
	
		<path fill="#34110D" stroke="#FFFFFF" stroke-width="0.75" stroke-linecap="round" stroke-linejoin="round" stroke-miterlimit="10" d="
		M37.9,88.9l-7.5-0.1c-3.2,0.8-5.7,5-5.7,9.4c0,4.4,2.5,8,5.7,8.9c-6.8,2.2-1.2,16.6,4.7,22.9c-10.7-0.3-1.7,21.5,0.1,33
		c1.4-5.7,6.6-31.6,8.5-47.7C45.3,102.7,40.2,92.9,37.9,88.9"/>
	<polygon fill="#34110D" stroke="#FFFFFF" stroke-width="0.75" stroke-linecap="round" stroke-miterlimit="10" points="33,45.5 
		38.3,54.7 41,54.7 41,48.4 	"/>
	<path fill="#34110D" stroke="#FFFFFF" stroke-width="0.75" stroke-linecap="round" stroke-miterlimit="10" d="M41,48.8v5.8
		c-0.6,0-3.2-2.6-3.2-6L41,48.8z"/>
	<path fill="#34110D" stroke="#FFFFFF" stroke-width="0.75" stroke-linecap="round" stroke-miterlimit="10" d="M45.2,32.6
		c-0.7-2.3-2.3-4-5.2-4.1c-2.9-0.1-5.3,2.2-5.3,5V34c0,1.2-1,2.1-2.2,2.1s-2.3-0.9-1.9-2.1l-0.1,0.7v2.6c-0.1,2.5-0.1,4.5,1.9,7.4
		c2.2,3.3,6.5,4.9,9.8,4.8c3-0.1,3.4-1.9,2.8-2.9c-0.5-0.7-1.3-1.1-1.6-1.3l0.8-0.5l-1-0.6l1.1-1l-0.4-0.7h2.4L45.2,32.6"/>
	<path fill="#34110D" stroke="#FFFFFF" stroke-width="0.75" stroke-linecap="round" stroke-miterlimit="10" d="M41.6,35.1
		c0,0.1-1.3,1.1-2.9,1.1c-1.6,0-2.9-0.9-2.9-1.1c0-0.2,1.3-1.1,2.9-1.1C40.3,34,41.6,35.1,41.6,35.1z"/>
	<path fill="none" stroke="#FFFFFF" stroke-width="0.75" stroke-linecap="round" stroke-miterlimit="10" d="M43.3,40.9
		c0.2,0.2,0.5,0.1,0.6,0c0.2-0.2,0.2-0.6-0.1-0.7c-0.3-0.2-0.7-0.2-0.9,0.1c-0.3,0.4-0.3,0.9,0.1,1.2c0.4,0.4,1,0.3,1.5-0.1
		c0.4-0.3,0.3-1,0.3-1l-0.5-5.8"/>
	<path fill="none" stroke="#FFFFFF" stroke-width="0.75" stroke-linecap="round" stroke-miterlimit="10" d="M35.6,33.3
		c3.9-2.6,6.3,0.5,6.7,0.3c1-0.6,1.7,0,1.9,0.1"/>
	<path fill="none" stroke="#FFFFFF" stroke-width="0.75" stroke-linecap="round" stroke-miterlimit="10" d="M33.9,43L33.9,43
		c-3.1,0.5-4-4.3-2.7-5.7l0,0c0.9-1.1,2.3-1,3.1-0.2c0.6,0.6,0.6,1.9-0.1,2.6c-0.5,0.5-1.4,0.5-1.9,0c-0.4-0.4-0.4-1.1,0-1.5
		c0.3-0.3,0.9-0.3,1.2,0c0.3,0.3,0.3,0.7,0,1"/>
	<path fill="#34110D" stroke="#FFFFFF" stroke-width="0.75" stroke-linecap="round" stroke-miterlimit="10" d="M45.1,73.6
		c9-2.1,11.2-9.6,10.8-18.9H39.3H21.5c0,9.6,5.1,18.5,19.1,19.2c0.3,0,2.1-5,2.1-5L45.1,73.6z"/>
	<path fill="none" stroke="#221E20" stroke-width="0.75" stroke-linecap="round" stroke-miterlimit="10" d="M17.5,75.1"/>
	<path fill="none" stroke="#FFFFFF" stroke-width="0.75" stroke-linecap="round" stroke-miterlimit="10" d="M29.8,111.7
		c0.6,10.3,5.6,15.9,8,16.1c1.2,0.1,2.4-0.6,2.6-1.8c0.2-1-0.5-1.9-1.4-2c-0.8-0.1-1.5,0.4-1.7,1.1c-0.1,0.6,0.3,1.2,0.9,1.3"/>
	<path fill="#34110D" stroke="#FFFFFF" stroke-width="0.75" stroke-linecap="round" stroke-miterlimit="10" d="M51.1,169.6
		c1-0.4,1.2-1.5,0.2-1.9c-0.2-0.1-2.5,0.5-2.7,0.4c-1.1-0.4-2.1-0.8-2.7-0.9l1.7,2.4L51.1,169.6L51.1,169.6z"/>
	<polygon fill="#34110D" stroke="#FFFFFF" stroke-width="0.75" stroke-linecap="round" stroke-miterlimit="10" points="30.2,167.5 
		38.1,163.9 45.9,167.2 47.5,169.6 30.1,169.6 	"/>
	
		<line fill="none" stroke="#FFFFFF" stroke-width="0.75" stroke-linecap="round" stroke-miterlimit="10" x1="43.2" y1="44.2" x2="42.1" y2="44.5"/>
	
		<circle fill="#34110D" stroke="#FFFFFF" stroke-width="0.75" stroke-linecap="round" stroke-miterlimit="10" cx="38.7" cy="35" r="0.7"/>
	<path fill="none" stroke="#FFFFFF" stroke-width="0.75" stroke-linecap="round" stroke-miterlimit="10" d="M37.9,23.1"/>
	<path fill="none" stroke="#221E20" stroke-width="0.75" stroke-linecap="round" stroke-miterlimit="10" d="M50.1,52.9"/>
	<path fill="#C3996C" stroke="#FFFFFF" stroke-width="0.75" stroke-miterlimit="10" d="M28.2,28.2"/>
	<path fill="#34110D" stroke="#FFFFFF" stroke-width="0.75" stroke-linecap="round" stroke-miterlimit="10" d="M45.7,37.5l1.4,1.5
		L45,31.3l-0.6-1.9c0,0-9.5-7.3-15.1,2.7L28,45.7c0,0,2.9,0.8,4.8-2.5c1.5,4.2,4.3,3.5,12.4,3.5l-2.9-11c0,0-4.7,1.5-6.6-0.7
		C37.7,33.4,41.7,33.7,45.7,37.5z"/>
	<polygon fill="#34110D" stroke="#FFFFFF" stroke-width="0.75" stroke-linecap="round" stroke-miterlimit="10" points="28.6,87.8 
		23.4,95.1 23.4,112 37,100.1 	"/>
	<polygon fill="#34110D" stroke="#FFFFFF" stroke-width="0.75" stroke-linecap="round" stroke-miterlimit="10" points="47.4,87.8 
		52.5,95.1 54.1,111.7 39,100.1 	"/>
	<polygon fill="#34110D" stroke="#FFFFFF" stroke-width="0.75" stroke-linecap="round" stroke-miterlimit="10" points="28.6,87.8 
		47.5,87.8 44.1,110.6 	"/>
	
		<path fill="#34110D" stroke="#FFFFFF" stroke-width="0.75" stroke-linecap="round" stroke-linejoin="round" stroke-miterlimit="10" d="
		M52.4,122c0,0-6.7,15.5-11,16c-3.4,5.5-0.2,24.6-0.2,24.6s1.7,1.8,3,0.7C44.3,163.3,55.5,131.9,52.4,122z"/>
	
		<path fill="#34110D" stroke="#FFFFFF" stroke-width="0.75" stroke-linecap="round" stroke-linejoin="round" stroke-miterlimit="10" d="
		M42.4,122c0,0-5.5,15.5-9.8,16c-3.4,5.5-0.2,24.6-0.2,24.6s1.7,1.8,3,0.7C35.4,163.3,45.4,131.9,42.4,122z"/>
	<g>
		<polygon fill="#34110D" stroke="#FFFFFF" stroke-width="0.75" stroke-linecap="round" stroke-miterlimit="10" points="110.8,63.4 
			110.6,61.7 25.7,72.3 25.9,74.1 		"/>
		<path fill="#34110D" stroke="#FFFFFF" stroke-width="0.75" stroke-linecap="round" stroke-miterlimit="10" d="M125,60.9l-16.6,2
			l0.2,1.2l3.6-0.7c0,0,0.6,1,2.4,0.6C120.9,62.5,125,60.9,125,60.9z"/>
		<path fill="#34110D" stroke="#FFFFFF" stroke-width="0.75" stroke-linecap="round" stroke-miterlimit="10" d="M125,60.9l-16.6,2
			l-0.1-1.2l3.7-0.2c0,0,0.3-1.1,2.2-1.1C120.7,60.3,125,60.9,125,60.9z"/>
	</g>
	<g>
		<path fill="#34110D" d="M77.4,65.2c-3-0.6-7.4,1.1-8,1.4c-0.6,0.5-10.4-1.9-10.6-2c0,0,0,0,0,0l0,0c-6.4-2.1-12.4-3-13.1,0.7
			c-4.9-4.2-11.5-9.6-17.4-10.5c-6-0.9-12.8-0.6-14.1,4.1l-0.1,0.3c-1.9,12.5,43.1,10.9,54.9,10.5l6.1,2.1c0.8,0.4,5.4,0.2,6-0.3
			c-0.4-0.4-0.9-0.9-2-0.5c0,0-0.1,0-0.1-0.1c0.9-0.1,1.8-0.3,2.8-0.6c-0.2-0.3-0.6-0.6-1-0.6c0.6-0.1,1.3-0.3,1.9-0.6
			c-0.5-0.5-1.1-1-2.5-0.6c-0.1,0-0.1-0.1-0.2-0.1c0.6-0.1,1.3-0.3,2-0.6c-0.4-0.5-1-0.9-2.2-0.5c-1.2-0.7-2.8-0.5-3.6-0.3l-0.6-0.6
			c0,0,2.6,0.5,4-0.9c0-0.5-0.4-1-1.6-0.3L77.4,65.2z"/>
		<path fill="none" stroke="#FFFFFF" stroke-width="0.75" stroke-linecap="round" stroke-miterlimit="10" d="M41.9,65.2
			c-11.2-9.4-20.6-9.5-23.2-7.2c-1.3,1.2-1.7,3-0.6,4.4c0.8,1.1,2.4,1.4,3.5,0.5c0.9-0.6,1.1-1.9,0.4-2.8c-0.5-0.7-1.5-0.9-2.2-0.3"
			/>
		
			<path fill="none" stroke="#FFFFFF" stroke-width="0.75" stroke-linecap="round" stroke-linejoin="round" stroke-miterlimit="10" d="
			M77.4,65.2c-3-0.6-7.4,1.1-8,1.4c-0.6,0.5-8.7-1.5-10.6-2c0,0,0,0,0,0l0,0c-6.4-2.1-12.4-3-13.1,0.7c-4.9-4.2-11.5-9.6-17.4-10.5
			c-6-0.9-12.8-0.6-14.1,4.1l-0.1,0.3c-1.9,12.5,43.6,11.1,54.9,10.5l6.1,2.1c0.8,0.4,5.4,0.2,6-0.3c-0.4-0.4-0.9-0.9-2-0.5
			c0,0-0.1,0-0.1-0.1c0.9-0.1,1.8-0.3,2.8-0.6c-0.2-0.3-0.6-0.6-1-0.6c0.6-0.1,1.3-0.3,1.9-0.6c-0.5-0.5-1.1-1-2.5-0.6
			c-0.1,0-0.1-0.1-0.2-0.1c0.6-0.1,1.3-0.3,2-0.6c-0.4-0.5-1-0.9-2.2-0.5c-1.2-0.7-2.8-0.5-3.6-0.3l-0.6-0.6c0,0,2.6,0.5,4-0.9
			c0-0.5-0.4-1-1.6-0.3L77.4,65.2z"/>
		<g>
			<path fill="#34110D" stroke="#FFFFFF" stroke-width="0.5" stroke-miterlimit="10" d="M76,72.3"/>
			<path fill="#34110D" stroke="#FFFFFF" stroke-width="0.5" stroke-miterlimit="10" d="M77.9,71.4"/>
			<path fill="#34110D" stroke="#FFFFFF" stroke-width="0.5" stroke-miterlimit="10" d="M80.9,71.5"/>
			<line fill="none" stroke="#FFFFFF" stroke-width="0.5" stroke-miterlimit="10" x1="78.9" y1="71.1" x2="78.9" y2="71.1"/>
			<path fill="#34110D" stroke="#FFFFFF" stroke-width="0.5" stroke-linecap="round" stroke-miterlimit="10" d="M75.2,70.9
				c0-0.2,3.1,0.8,6.5-0.5l0,0c-0.4-0.5-1-0.9-2.2-0.5l0,0c-1.9-1.2-4.1-0.1-4.1-0.1"/>
			<path fill="#34110D" stroke="#FFFFFF" stroke-width="0.5" stroke-linecap="round" stroke-miterlimit="10" d="M75.3,69.7
				c0-0.2,3.5,0.9,7.2-0.6l0,0c-0.5-0.5-1.1-1-2.5-0.6l0,0c-2.2-1.3-4.6-0.1-4.6-0.2"/>
			<path fill="#34110D" stroke="#FFFFFF" stroke-width="0.5" stroke-linecap="round" stroke-miterlimit="10" d="M75.4,68.5
				c0-0.2,3.1,0.8,6.5-0.5l0,0c-0.4-0.5-1-0.9-2.2-0.5l0,0c-1.2-0.7-2.9-0.5-3.7-0.3"/>
		</g>
		
			<line fill="none" stroke="#FFFFFF" stroke-width="0.75" stroke-linecap="round" stroke-miterlimit="10" x1="57.2" y1="70.1" x2="69.4" y2="66.6"/>
	</g>
	
		<line fill="none" stroke="#FFFFFF" stroke-width="0.75" stroke-linecap="round" stroke-miterlimit="10" x1="42.5" y1="75.9" x2="42.5" y2="84"/>
	
		<ellipse fill="#34110D" stroke="#FFFFFF" stroke-width="0.75" stroke-linecap="round" stroke-miterlimit="10" cx="60" cy="104.9" rx="35.2" ry="35.3"/>
	
		<ellipse fill="#34110D" stroke="#FFFFFF" stroke-width="0.75" stroke-linecap="round" stroke-miterlimit="10" cx="60" cy="104.9" rx="31.5" ry="31.6"/>
	<path fill="none" stroke="#FFFFFF" stroke-width="0.75" stroke-linecap="round" stroke-miterlimit="10" d="M28.6,102.5
		c0,15.7,12.7,28.4,28.4,28.4c12.6,0,22.7-10.2,22.7-22.7c0-10-8.1-18.2-18.2-18.2c-8,0-14.5,6.5-14.5,14.5
		c0,6.4,5.2,11.6,11.6,11.6c5.1,0,9.3-4.2,9.3-9.3c0-4.1-3.3-7.4-7.4-7.4c-3.3,0-6,2.7-6,6c0,2.6,2.1,4.8,4.8,4.8
		c2.1,0,3.8-1.7,3.8-3.8c0-1.7-1.4-3-3-3c-1.4,0-2.4,1.1-2.4,2.4c0,1.1,0.9,1.9,1.9,1.9c0.9,0,1.6-0.7,1.6-1.6
		c0-0.7-0.6-1.2-1.2-1.2c-0.6,0-1,0.5-1,1c0,0.5,0.4,0.8,0.8,0.8"/>
	<polyline fill="none" stroke="#FFFFFF" stroke-width="0.75" stroke-linecap="round" stroke-miterlimit="10" points="53.3,54.7 
		44.3,59.2 28.8,54.7 	"/>
</g>
<path fill="#34110D" stroke="#FFFFFF" stroke-width="0.75" stroke-linecap="round" stroke-miterlimit="10" d="M167,171.1h24.5
	c0.1,0,0.2-0.1,0.2-0.2c0,0-1-1.3-1.1-1.3H167V171.1z"/>
<path fill="#34110D" stroke="#FFFFFF" stroke-width="0.75" stroke-linecap="round" stroke-miterlimit="10" d="M158.2,171.1h24.5
	c0.1,0,0.2-0.1,0.2-0.2c0,0-1-1.3-1.1-1.3h-23.5V171.1z"/>
<path fill="none" stroke="#221E20" stroke-width="0.75" stroke-linecap="round" stroke-miterlimit="10" d="M174.6,169.6"/>
<path fill="none" stroke="#221E20" stroke-width="0.75" stroke-linecap="round" stroke-miterlimit="10" d="M183.3,169.6"/>
<g>
	<g>
		<path fill="#34110D" d="M181.9,118.3c-0.1-3,2.2-7.1,2.6-7.7c0.6-0.6-0.3-10.6-0.4-10.8c0,0,0,0,0,0l0,0
			c-1.1-6.7-1.2-12.7,2.7-12.8c-3.4-5.5-7.8-12.7-7.8-18.8c0-6.1,1.3-12.7,6.1-13.4l0.4-0.1c12.6,0,4.3,44.3,2.2,55.8l1.2,6.4
			c0.3,0.9-0.6,5.4-1.2,5.9c-0.4-0.4-0.7-1-0.2-2c0,0,0-0.1,0-0.1c-0.2,0.8-0.5,1.8-1.1,2.7c-0.2-0.3-0.5-0.6-0.5-1.1
			c-0.2,0.6-0.5,1.2-0.8,1.8c-0.5-0.5-0.9-1.3-0.2-2.5c0-0.1,0-0.1-0.1-0.2c-0.2,0.6-0.5,1.2-0.8,1.8c-0.4-0.5-0.8-1.1-0.2-2.2
			c-0.6-1.3-0.1-2.9,0.2-3.6l-0.5-0.7c0,0,0.1,2.7-1.5,3.8c-0.5-0.1-0.9-0.6-0.1-1.7L181.9,118.3z"/>
		<path fill="none" stroke="#FFFFFF" stroke-width="0.75" stroke-miterlimit="10" d="M187.3,83.2c-7.7-12.5-6.3-21.8-3.6-24
			c1.3-1.1,3.2-1.2,4.4,0c1,1,1,2.6,0,3.5c-0.8,0.8-2,0.8-2.9,0c-0.6-0.6-0.6-1.7,0-2.3"/>
		
			<path fill="none" stroke="#FFFFFF" stroke-width="0.75" stroke-linecap="round" stroke-linejoin="round" stroke-miterlimit="10" d="
			M181.9,118.3c-0.1-3,2.2-7.1,2.6-7.7c0.6-0.6-0.2-8.8-0.4-10.8c0,0,0,0,0,0l0,0c-1.1-6.7-1.2-12.7,2.7-12.8
			c-3.4-5.5-7.8-12.7-7.8-18.8c0-6.1,1.3-12.7,6.1-13.4l0.4-0.1c12.7,0,4.5,44.7,2.2,55.8l1.2,6.4c0.3,0.9-0.6,5.4-1.2,5.9
			c-0.4-0.4-0.7-1-0.2-2c0,0,0-0.1,0-0.1c-0.2,0.8-0.5,1.8-1.1,2.7c-0.2-0.3-0.5-0.6-0.5-1.1c-0.2,0.6-0.5,1.2-0.8,1.8
			c-0.5-0.5-0.9-1.3-0.2-2.5c0-0.1,0-0.1-0.1-0.2c-0.2,0.6-0.5,1.2-0.8,1.8c-0.4-0.5-0.8-1.1-0.2-2.2c-0.6-1.3-0.1-2.9,0.2-3.6
			l-0.5-0.7c0,0,0.1,2.7-1.5,3.8c-0.5-0.1-0.9-0.6-0.1-1.7L181.9,118.3z"/>
		<g>
			<path fill="#34110D" stroke="#FFFFFF" stroke-width="0.5" stroke-miterlimit="10" d="M189.2,118"/>
			<path fill="#34110D" stroke="#FFFFFF" stroke-width="0.5" stroke-miterlimit="10" d="M188.1,119.7"/>
			<path fill="#34110D" stroke="#FFFFFF" stroke-width="0.5" stroke-miterlimit="10" d="M187.8,122.7"/>
			<line fill="none" stroke="#FFFFFF" stroke-width="0.5" stroke-miterlimit="10" x1="187.6" y1="120.7" x2="187.6" y2="120.7"/>
			<path fill="#34110D" stroke="#FFFFFF" stroke-width="0.5" stroke-linecap="round" stroke-miterlimit="10" d="M187.9,117
				c-0.2,0,0.3,3.2-1.5,6.3l0,0c-0.4-0.5-0.8-1.1-0.2-2.2l0,0c-0.9-2.1,0.5-4.1,0.5-4.1"/>
			<path fill="#34110D" stroke="#FFFFFF" stroke-width="0.5" stroke-linecap="round" stroke-miterlimit="10" d="M186.8,117
				c-0.2,0,0.4,3.6-1.6,7.1l0,0c-0.5-0.5-0.9-1.3-0.2-2.5l0,0c-1-2.4,0.6-4.5,0.5-4.5"/>
			<path fill="#34110D" stroke="#FFFFFF" stroke-width="0.5" stroke-linecap="round" stroke-miterlimit="10" d="M185.5,116.9
				c-0.2,0,0.3,3.2-1.5,6.3l0,0c-0.4-0.5-0.8-1.1-0.2-2.2l0,0c-0.6-1.3-0.1-2.9,0.3-3.7"/>
		</g>
		
			<line fill="none" stroke="#FFFFFF" stroke-width="0.75" stroke-linecap="round" stroke-miterlimit="10" x1="189.9" y1="99.1" x2="184.6" y2="110.6"/>
	</g>
	<path fill="#34110D" stroke="#FFFFFF" stroke-width="0.75" stroke-linecap="round" stroke-miterlimit="10" d="M184.2,67.1l0.5-12.4
		h8.1v0.7C189.2,58.2,185.2,59.9,184.2,67.1"/>
	<path fill="#D32B27" stroke="#FFFFFF" stroke-width="0.75" stroke-miterlimit="10" d="M146.1,52.8c3.8-2.5,9.9-19.4,9.9-19.4
		l14.8-5.8l7.6-2.8c0,0-6.7-9.7-16.9-7.1c-11.5,3-11.3,13.7-11.6,16.9c-0.7,10.1-4.2,15.2-9.2,21L146.1,52.8z"/>
	<path fill="#34110D" stroke="#FFFFFF" stroke-width="0.75" stroke-linecap="round" stroke-miterlimit="10" d="M158.7,32.1
		c-1.3-3.3,0.5-7.1,3.8-8.3c3.3-1.3,7.1,0.5,8.3,3.8"/>
	<path fill="#34110D" stroke="#FFFFFF" stroke-width="0.75" stroke-linecap="round" stroke-miterlimit="10" d="M151,54.7
		c6.6,0,11.8-3.9,11.8-8.7l5.3-1.8l2.2,5.3c0,2.9,6.6,5.2,14.7,5.2"/>
	<path fill="#34110D" stroke="#FFFFFF" stroke-width="0.75" stroke-linecap="round" stroke-miterlimit="10" d="M170.6,163.6
		c0,0,0-6.3-0.3-15.2l3.5-0.6l-0.3,15.2c3,0.8,6.9,2.8,10.6,4.2l1.7,2.4h-17.5C168.3,167.2,168.1,164.2,170.6,163.6"/>
	<polyline fill="none" stroke="#221E20" stroke-width="0.75" stroke-linecap="round" stroke-miterlimit="10" points="184.1,167.2 
		185.8,169.6 168.3,169.6 	"/>
	<path fill="#34110D" stroke="#FFFFFF" stroke-width="0.75" stroke-linecap="round" stroke-miterlimit="10" d="M189.4,169.6
		c1-0.4,1.2-1.5,0.2-1.9c-0.2-0.1-2.5,0.5-2.7,0.4c-1.1-0.4-2.1-0.8-2.7-0.9l1.7,2.4L189.4,169.6L189.4,169.6z"/>
	<polygon fill="#34110D" stroke="#FFFFFF" stroke-width="0.75" stroke-linecap="round" stroke-miterlimit="10" points="168.4,167.5 
		176.3,163.9 184.1,167.2 185.8,169.6 168.3,169.6 	"/>
	<path fill="#34110D" stroke="#FFFFFF" stroke-width="0.75" stroke-linecap="round" stroke-miterlimit="10" d="M161.8,163.6
		c0,0,0-5.3-0.3-14.3l3.5-1.5l-0.3,15.2c3,0.8,6.9,2.8,10.6,4.2l1.7,2.4h-17.5C159.5,167.2,159.4,164.1,161.8,163.6"/>
	<polyline fill="#FFFFFF" stroke="#221E20" stroke-width="0.75" stroke-linecap="round" stroke-miterlimit="10" points="
		175.4,167.2 177,169.6 159.5,169.6 	"/>
	<path fill="none" stroke="#221E20" stroke-width="0.75" stroke-linecap="round" stroke-miterlimit="10" d="M186,118"/>
	<path fill="#FFFFFF" stroke="#221E20" stroke-width="0.75" stroke-linecap="round" stroke-miterlimit="10" d="M184.9,119.7"/>
	
		<path fill="#34110D" stroke="#FFFFFF" stroke-width="0.75" stroke-linecap="round" stroke-linejoin="round" stroke-miterlimit="10" d="
		M176.9,88.9h-7.4c-3.2,0.8-5.7,5-5.7,9.4c0,4.4,2.5,8,5.7,8.9c-6.8,2.2-1.2,16.6,4.7,22.9c-10.7-0.3-2.5,21.5-0.7,33
		c1.4-5.7,7.4-31.6,9.4-47.7C184.4,102.7,179.2,92.8,176.9,88.9"/>
	<path fill="none" stroke="#FFFFFF" stroke-width="0.75" stroke-linecap="round" stroke-miterlimit="10" d="M169.2,112
		c0.6,10.3,5.6,15.9,8,16.1c1.2,0.1,2.4-0.6,2.6-1.8c0.2-1-0.5-1.9-1.4-2c-0.8-0.1-1.5,0.4-1.7,1.1c-0.1,0.6,0.3,1.2,0.9,1.3"/>
	<path fill="#34110D" stroke="#FFFFFF" stroke-width="0.75" stroke-linecap="round" stroke-miterlimit="10" d="M156.8,90.8
		c2.1-1.2,1.6-8.4-1.1-12.3l-8.8-15l11.2,3.4L171,79.2l-1.8,8.1l-2,3.6l-6.5,4.5L156.8,90.8z"/>
	<path fill="#34110D" stroke="#FFFFFF" stroke-width="0.75" stroke-linecap="round" stroke-miterlimit="10" d="M151,54.7
		c-2.3,10.7,16.3,34.7,17.8,37l1.6,3.3l1.3,3.8c1.5-2.3,15.1-30.6,13.6-44.2"/>
	
		<path fill="#34110D" stroke="#FFFFFF" stroke-width="0.75" stroke-linecap="round" stroke-linejoin="round" stroke-miterlimit="10" d="
		M167.3,88.9l-7.5-0.1c-3.2,0.8-5.7,5-5.7,9.4c0,4.4,2.5,8,5.7,8.9c-6.8,2.2-1.2,16.6,4.7,22.9c-10.7-0.3-1.7,21.5,0.1,33
		c1.4-5.7,6.6-31.6,8.5-47.7C174.8,102.7,169.7,92.9,167.3,88.9"/>
	<polygon fill="#34110D" stroke="#FFFFFF" stroke-width="0.75" stroke-linecap="round" stroke-miterlimit="10" points="162.5,45.5 
		167.8,54.7 170.4,54.7 170.4,48.4 	"/>
	<path fill="#34110D" stroke="#FFFFFF" stroke-width="0.75" stroke-linecap="round" stroke-miterlimit="10" d="M170.4,48.8v5.8
		c-0.6,0-3.2-2.6-3.2-6L170.4,48.8z"/>
	<path fill="#34110D" stroke="#FFFFFF" stroke-width="0.75" stroke-linecap="round" stroke-miterlimit="10" d="M174.7,32.6
		c-0.7-2.3-2.3-4-5.2-4.1c-2.9-0.1-5.3,2.2-5.3,5V34c0,1.2-1,2.1-2.2,2.1c-1.2,0-2.3-0.9-1.9-2.1l-0.1,0.7v2.6
		c-0.1,2.5-0.1,4.5,1.9,7.4c2.2,3.3,6.5,4.9,9.8,4.8c3-0.1,3.4-1.9,2.8-2.9c-0.5-0.7-1.3-1.1-1.6-1.3l0.8-0.5l-1-0.6l1.1-1l-0.4-0.7
		h2.4L174.7,32.6"/>
	<path fill="#34110D" stroke="#FFFFFF" stroke-width="0.75" stroke-linecap="round" stroke-miterlimit="10" d="M171.1,35.1
		c0,0.1-1.3,1.1-2.9,1.1c-1.6,0-2.9-0.9-2.9-1.1c0-0.2,1.3-1.1,2.9-1.1C169.8,34,171.1,35.1,171.1,35.1z"/>
	<path fill="none" stroke="#FFFFFF" stroke-width="0.75" stroke-linecap="round" stroke-miterlimit="10" d="M172.8,40.9
		c0.2,0.2,0.5,0.1,0.6,0c0.2-0.2,0.2-0.6-0.1-0.7c-0.3-0.2-0.7-0.2-0.9,0.1c-0.3,0.4-0.3,0.9,0.1,1.2c0.4,0.4,1,0.3,1.5-0.1
		c0.4-0.3,0.3-1,0.3-1l-0.5-5.8"/>
	<path fill="none" stroke="#FFFFFF" stroke-width="0.75" stroke-linecap="round" stroke-miterlimit="10" d="M165,33.3
		c3.9-2.6,6.3,0.5,6.7,0.3c1-0.6,1.7,0,1.9,0.1"/>
	<path fill="none" stroke="#FFFFFF" stroke-width="0.75" stroke-linecap="round" stroke-miterlimit="10" d="M163.4,43L163.4,43
		c-3.1,0.5-4-4.3-2.7-5.7l0,0c0.9-1.1,2.3-1,3.1-0.2c0.6,0.6,0.6,1.9-0.1,2.6c-0.5,0.5-1.4,0.5-1.9,0c-0.4-0.4-0.4-1.1,0-1.5
		c0.3-0.3,0.9-0.3,1.2,0c0.3,0.3,0.3,0.7,0,1"/>
	<path fill="#34110D" stroke="#FFFFFF" stroke-width="0.75" stroke-linecap="round" stroke-miterlimit="10" d="M174.6,73.6
		c9-2.1,11.2-9.6,10.8-18.9h-16.6H151c0,9.6,5.1,18.5,19.1,19.2c0.3,0,2.1-5,2.1-5L174.6,73.6z"/>
	<path fill="none" stroke="#221E20" stroke-width="0.75" stroke-linecap="round" stroke-miterlimit="10" d="M147,75.1"/>
	<path fill="none" stroke="#FFFFFF" stroke-width="0.75" stroke-linecap="round" stroke-miterlimit="10" d="M159.3,111.7
		c0.6,10.3,5.6,15.9,8,16.1c1.2,0.1,2.4-0.6,2.6-1.8c0.2-1-0.5-1.9-1.4-2c-0.8-0.1-1.5,0.4-1.7,1.1c-0.1,0.6,0.3,1.2,0.9,1.3"/>
	<path fill="#34110D" stroke="#FFFFFF" stroke-width="0.75" stroke-linecap="round" stroke-miterlimit="10" d="M180.6,169.6
		c1-0.4,1.2-1.5,0.2-1.9c-0.2-0.1-2.5,0.5-2.7,0.4c-1.1-0.4-2.1-0.8-2.7-0.9l1.7,2.4L180.6,169.6L180.6,169.6z"/>
	<polygon fill="#34110D" stroke="#FFFFFF" stroke-width="0.75" stroke-linecap="round" stroke-miterlimit="10" points="159.6,167.5 
		167.6,163.9 175.4,167.2 177,169.6 159.5,169.6 	"/>
	
		<line fill="none" stroke="#FFFFFF" stroke-width="0.75" stroke-linecap="round" stroke-miterlimit="10" x1="172.6" y1="44.2" x2="171.6" y2="44.5"/>
	
		<circle fill="#34110D" stroke="#FFFFFF" stroke-width="0.75" stroke-linecap="round" stroke-miterlimit="10" cx="168.2" cy="35" r="0.7"/>
	<path fill="none" stroke="#FFFFFF" stroke-width="0.75" stroke-linecap="round" stroke-miterlimit="10" d="M167.4,23.1"/>
	<path fill="none" stroke="#221E20" stroke-width="0.75" stroke-linecap="round" stroke-miterlimit="10" d="M179.5,52.9"/>
	<path fill="#C3996C" stroke="#FFFFFF" stroke-width="0.75" stroke-miterlimit="10" d="M157.7,28.2"/>
	<path fill="#34110D" stroke="#FFFFFF" stroke-width="0.75" stroke-linecap="round" stroke-miterlimit="10" d="M175.2,37.5l1.4,1.5
		l-2.1-7.8l-0.6-1.9c0,0-9.5-7.3-15.1,2.7l-1.2,13.7c0,0,2.9,0.8,4.8-2.5c1.5,4.2,4.3,3.5,12.4,3.5l-2.9-11c0,0-4.7,1.5-6.6-0.7
		C167.2,33.4,171.1,33.7,175.2,37.5z"/>
	<polygon fill="#34110D" stroke="#FFFFFF" stroke-width="0.75" stroke-linecap="round" stroke-miterlimit="10" points="158.1,87.8 
		152.9,95.1 152.9,112 166.4,100.1 	"/>
	<polygon fill="#34110D" stroke="#FFFFFF" stroke-width="0.75" stroke-linecap="round" stroke-miterlimit="10" points="176.9,87.8 
		182,95.1 183.6,111.7 168.5,100.1 	"/>
	<polygon fill="#34110D" stroke="#FFFFFF" stroke-width="0.75" stroke-linecap="round" stroke-miterlimit="10" points="158.1,87.8 
		177,87.8 173.5,110.6 	"/>
	
		<path fill="#34110D" stroke="#FFFFFF" stroke-width="0.75" stroke-linecap="round" stroke-linejoin="round" stroke-miterlimit="10" d="
		M181.9,122c0,0-6.7,15.5-11,16c-3.4,5.5-0.2,24.6-0.2,24.6s1.7,1.8,3,0.7C173.8,163.3,184.9,131.9,181.9,122z"/>
	
		<path fill="#34110D" stroke="#FFFFFF" stroke-width="0.75" stroke-linecap="round" stroke-linejoin="round" stroke-miterlimit="10" d="
		M171.9,122c0,0-5.5,15.5-9.8,16c-3.4,5.5-0.2,24.6-0.2,24.6s1.7,1.8,3,0.7C164.9,163.3,174.9,131.9,171.9,122z"/>
	<g>
		<polygon fill="#34110D" stroke="#FFFFFF" stroke-width="0.75" stroke-linecap="round" stroke-miterlimit="10" points="240.3,63.4 
			240,61.7 155.2,72.3 155.3,74.1 		"/>
		<path fill="#34110D" stroke="#FFFFFF" stroke-width="0.75" stroke-linecap="round" stroke-miterlimit="10" d="M254.5,60.9l-16.6,2
			l0.2,1.2l3.6-0.7c0,0,0.6,1,2.4,0.6C250.4,62.5,254.5,60.9,254.5,60.9z"/>
		<path fill="#34110D" stroke="#FFFFFF" stroke-width="0.75" stroke-linecap="round" stroke-miterlimit="10" d="M254.5,60.9l-16.6,2
			l-0.1-1.2l3.7-0.2c0,0,0.3-1.1,2.2-1.1C250.1,60.3,254.5,60.9,254.5,60.9z"/>
	</g>
	<g>
		<path fill="#34110D" d="M206.9,65.2c-3-0.6-7.4,1.1-8,1.4c-0.6,0.5-10.4-1.9-10.6-2c0,0,0,0,0,0l0,0c-6.4-2.1-12.4-3-13.1,0.7
			c-4.9-4.2-11.5-9.6-17.4-10.5c-6-0.9-12.8-0.6-14.1,4.1l-0.1,0.3c-1.9,12.5,43.1,10.9,54.9,10.5l6.1,2.1c0.8,0.4,5.4,0.2,6-0.3
			c-0.4-0.4-0.9-0.9-2-0.5c0,0-0.1,0-0.1-0.1c0.9-0.1,1.8-0.3,2.8-0.6c-0.2-0.3-0.6-0.6-1-0.6c0.6-0.1,1.3-0.3,1.9-0.6
			c-0.5-0.5-1.1-1-2.5-0.6c-0.1,0-0.1-0.1-0.2-0.1c0.6-0.1,1.3-0.3,2-0.6c-0.4-0.5-1-0.9-2.2-0.5c-1.2-0.7-2.8-0.5-3.6-0.3l-0.6-0.6
			c0,0,2.6,0.5,4-0.9c0-0.5-0.4-1-1.6-0.3L206.9,65.2z"/>
		<path fill="none" stroke="#FFFFFF" stroke-width="0.75" stroke-linecap="round" stroke-miterlimit="10" d="M171.4,65.2
			c-11.2-9.4-20.6-9.5-23.2-7.2c-1.3,1.2-1.7,3-0.6,4.4c0.8,1.1,2.4,1.4,3.5,0.5c0.9-0.6,1.1-1.9,0.4-2.8c-0.5-0.7-1.5-0.9-2.2-0.3"
			/>
		
			<path fill="none" stroke="#FFFFFF" stroke-width="0.75" stroke-linecap="round" stroke-linejoin="round" stroke-miterlimit="10" d="
			M206.9,65.2c-3-0.6-7.4,1.1-8,1.4c-0.6,0.5-8.7-1.5-10.6-2c0,0,0,0,0,0l0,0c-6.4-2.1-12.4-3-13.1,0.7c-4.9-4.2-11.5-9.6-17.4-10.5
			c-6-0.9-12.8-0.6-14.1,4.1l-0.1,0.3c-1.9,12.5,43.6,11.1,54.9,10.5l6.1,2.1c0.8,0.4,5.4,0.2,6-0.3c-0.4-0.4-0.9-0.9-2-0.5
			c0,0-0.1,0-0.1-0.1c0.9-0.1,1.8-0.3,2.8-0.6c-0.2-0.3-0.6-0.6-1-0.6c0.6-0.1,1.3-0.3,1.9-0.6c-0.5-0.5-1.1-1-2.5-0.6
			c-0.1,0-0.1-0.1-0.2-0.1c0.6-0.1,1.3-0.3,2-0.6c-0.4-0.5-1-0.9-2.2-0.5c-1.2-0.7-2.8-0.5-3.6-0.3l-0.6-0.6c0,0,2.6,0.5,4-0.9
			c0-0.5-0.4-1-1.6-0.3L206.9,65.2z"/>
		<g>
			<path fill="#34110D" stroke="#FFFFFF" stroke-width="0.5" stroke-miterlimit="10" d="M205.5,72.3"/>
			<path fill="#34110D" stroke="#FFFFFF" stroke-width="0.5" stroke-miterlimit="10" d="M207.3,71.4"/>
			<path fill="#34110D" stroke="#FFFFFF" stroke-width="0.5" stroke-miterlimit="10" d="M210.4,71.5"/>
			<line fill="none" stroke="#FFFFFF" stroke-width="0.5" stroke-miterlimit="10" x1="208.4" y1="71.1" x2="208.4" y2="71.1"/>
			<path fill="#34110D" stroke="#FFFFFF" stroke-width="0.5" stroke-linecap="round" stroke-miterlimit="10" d="M204.6,70.9
				c0-0.2,3.1,0.8,6.5-0.5l0,0c-0.4-0.5-1-0.9-2.2-0.5l0,0c-1.9-1.2-4.1-0.1-4.1-0.1"/>
			<path fill="#34110D" stroke="#FFFFFF" stroke-width="0.5" stroke-linecap="round" stroke-miterlimit="10" d="M204.8,69.7
				c0-0.2,3.5,0.9,7.2-0.6l0,0c-0.5-0.5-1.1-1-2.5-0.6l0,0c-2.2-1.3-4.6-0.1-4.6-0.2"/>
			<path fill="#34110D" stroke="#FFFFFF" stroke-width="0.5" stroke-linecap="round" stroke-miterlimit="10" d="M204.9,68.5
				c0-0.2,3.1,0.8,6.5-0.5l0,0c-0.4-0.5-1-0.9-2.2-0.5l0,0c-1.2-0.7-2.9-0.5-3.7-0.3"/>
		</g>
		
			<line fill="none" stroke="#FFFFFF" stroke-width="0.75" stroke-linecap="round" stroke-miterlimit="10" x1="186.7" y1="70.1" x2="198.8" y2="66.6"/>
	</g>
	
		<line fill="none" stroke="#FFFFFF" stroke-width="0.75" stroke-linecap="round" stroke-miterlimit="10" x1="172" y1="75.9" x2="172" y2="84"/>
	
		<ellipse fill="#34110D" stroke="#FFFFFF" stroke-width="0.75" stroke-linecap="round" stroke-miterlimit="10" cx="189.5" cy="104.9" rx="35.2" ry="35.3"/>
	
		<ellipse fill="#34110D" stroke="#FFFFFF" stroke-width="0.75" stroke-linecap="round" stroke-miterlimit="10" cx="189.5" cy="104.9" rx="31.5" ry="31.6"/>
	<path fill="none" stroke="#FFFFFF" stroke-width="0.75" stroke-linecap="round" stroke-miterlimit="10" d="M158,102.5
		c0,15.7,12.7,28.4,28.4,28.4c12.6,0,22.7-10.2,22.7-22.7c0-10-8.1-18.2-18.2-18.2c-8,0-14.5,6.5-14.5,14.5
		c0,6.4,5.2,11.6,11.6,11.6c5.1,0,9.3-4.2,9.3-9.3c0-4.1-3.3-7.4-7.4-7.4c-3.3,0-6,2.7-6,6c0,2.6,2.1,4.8,4.8,4.8
		c2.1,0,3.8-1.7,3.8-3.8c0-1.7-1.4-3-3-3c-1.4,0-2.4,1.1-2.4,2.4c0,1.1,0.9,1.9,1.9,1.9c0.9,0,1.6-0.7,1.6-1.6
		c0-0.7-0.6-1.2-1.2-1.2c-0.6,0-1,0.5-1,1c0,0.5,0.4,0.8,0.8,0.8"/>
	<polyline fill="none" stroke="#FFFFFF" stroke-width="0.75" stroke-linecap="round" stroke-miterlimit="10" points="182.8,54.7 
		173.8,59.2 158.3,54.7 	"/>
</g>
<path fill="#34110D" stroke="#FFFFFF" stroke-width="0.75" stroke-linecap="round" stroke-miterlimit="10" d="M295,171.1h24.5
	c0.1,0,0.2-0.1,0.2-0.2c0,0-1-1.3-1.1-1.3H295V171.1z"/>
<path fill="#34110D" stroke="#FFFFFF" stroke-width="0.75" stroke-linecap="round" stroke-miterlimit="10" d="M286.3,171.1h24.5
	c0.1,0,0.2-0.1,0.2-0.2c0,0-1-1.3-1.1-1.3h-23.5V171.1z"/>
<path fill="none" stroke="#221E20" stroke-width="0.75" stroke-linecap="round" stroke-miterlimit="10" d="M302.6,169.6"/>
<path fill="none" stroke="#221E20" stroke-width="0.75" stroke-linecap="round" stroke-miterlimit="10" d="M311.4,169.6"/>
<g>
	<g>
		<path fill="#34110D" d="M310,118.3c-0.1-3,2.2-7.1,2.6-7.7c0.6-0.6-0.3-10.6-0.4-10.8c0,0,0,0,0,0l0,0c-1.1-6.7-1.2-12.7,2.7-12.8
			c-3.4-5.5-7.8-12.7-7.8-18.8c0-6.1,1.3-12.7,6.1-13.4l0.4-0.1c12.6,0,4.3,44.3,2.2,55.8l1.2,6.4c0.3,0.9-0.6,5.4-1.2,5.9
			c-0.4-0.4-0.7-1-0.2-2c0,0,0-0.1,0-0.1c-0.2,0.8-0.5,1.8-1.1,2.7c-0.2-0.3-0.5-0.6-0.5-1.1c-0.2,0.6-0.5,1.2-0.8,1.8
			c-0.5-0.5-0.9-1.3-0.2-2.5c0-0.1,0-0.1-0.1-0.2c-0.2,0.6-0.5,1.2-0.8,1.8c-0.4-0.5-0.8-1.1-0.2-2.2c-0.6-1.3-0.1-2.9,0.2-3.6
			l-0.5-0.7c0,0,0.1,2.7-1.5,3.8c-0.5-0.1-0.9-0.6-0.1-1.7L310,118.3z"/>
		<path fill="none" stroke="#FFFFFF" stroke-width="0.75" stroke-miterlimit="10" d="M315.3,83.2c-7.7-12.5-6.3-21.8-3.6-24
			c1.3-1.1,3.2-1.2,4.4,0c1,1,1,2.6,0,3.5c-0.8,0.8-2,0.8-2.9,0c-0.6-0.6-0.6-1.7,0-2.3"/>
		
			<path fill="none" stroke="#FFFFFF" stroke-width="0.75" stroke-linecap="round" stroke-linejoin="round" stroke-miterlimit="10" d="
			M310,118.3c-0.1-3,2.2-7.1,2.6-7.7c0.6-0.6-0.2-8.8-0.4-10.8c0,0,0,0,0,0l0,0c-1.1-6.7-1.2-12.7,2.7-12.8
			c-3.4-5.5-7.8-12.7-7.8-18.8c0-6.1,1.3-12.7,6.1-13.4l0.4-0.1c12.7,0,4.5,44.7,2.2,55.8l1.2,6.4c0.3,0.9-0.6,5.4-1.2,5.9
			c-0.4-0.4-0.7-1-0.2-2c0,0,0-0.1,0-0.1c-0.2,0.8-0.5,1.8-1.1,2.7c-0.2-0.3-0.5-0.6-0.5-1.1c-0.2,0.6-0.5,1.2-0.8,1.8
			c-0.5-0.5-0.9-1.3-0.2-2.5c0-0.1,0-0.1-0.1-0.2c-0.2,0.6-0.5,1.2-0.8,1.8c-0.4-0.5-0.8-1.1-0.2-2.2c-0.6-1.3-0.1-2.9,0.2-3.6
			l-0.5-0.7c0,0,0.1,2.7-1.5,3.8c-0.5-0.1-0.9-0.6-0.1-1.7L310,118.3z"/>
		<g>
			<path fill="#34110D" stroke="#FFFFFF" stroke-width="0.5" stroke-miterlimit="10" d="M317.3,118"/>
			<path fill="#34110D" stroke="#FFFFFF" stroke-width="0.5" stroke-miterlimit="10" d="M316.1,119.7"/>
			<path fill="#34110D" stroke="#FFFFFF" stroke-width="0.5" stroke-miterlimit="10" d="M315.8,122.7"/>
			<line fill="none" stroke="#FFFFFF" stroke-width="0.5" stroke-miterlimit="10" x1="315.6" y1="120.7" x2="315.6" y2="120.7"/>
			<path fill="#34110D" stroke="#FFFFFF" stroke-width="0.5" stroke-linecap="round" stroke-miterlimit="10" d="M316,117
				c-0.2,0,0.3,3.2-1.5,6.3l0,0c-0.4-0.5-0.8-1.1-0.2-2.2l0,0c-0.9-2.1,0.5-4.1,0.5-4.1"/>
			<path fill="#34110D" stroke="#FFFFFF" stroke-width="0.5" stroke-linecap="round" stroke-miterlimit="10" d="M314.8,117
				c-0.2,0,0.4,3.6-1.6,7.1l0,0c-0.5-0.5-0.9-1.3-0.2-2.5l0,0c-1-2.4,0.6-4.5,0.5-4.5"/>
			<path fill="#34110D" stroke="#FFFFFF" stroke-width="0.5" stroke-linecap="round" stroke-miterlimit="10" d="M313.6,116.9
				c-0.2,0,0.3,3.2-1.5,6.3l0,0c-0.4-0.5-0.8-1.1-0.2-2.2l0,0c-0.6-1.3-0.1-2.9,0.3-3.7"/>
		</g>
		
			<line fill="none" stroke="#FFFFFF" stroke-width="0.75" stroke-linecap="round" stroke-miterlimit="10" x1="317.9" y1="99.1" x2="312.6" y2="110.6"/>
	</g>
	<path fill="#34110D" stroke="#FFFFFF" stroke-width="0.75" stroke-linecap="round" stroke-miterlimit="10" d="M312.2,67.1l0.5-12.4
		h8.1v0.7C317.2,58.2,313.3,59.9,312.2,67.1"/>
	<path fill="#D32B27" stroke="#FFFFFF" stroke-width="0.75" stroke-miterlimit="10" d="M274.2,52.8c3.8-2.5,9.9-19.4,9.9-19.4
		l14.8-5.8l7.6-2.8c0,0-6.7-9.7-16.9-7.1c-11.5,3-11.3,13.7-11.6,16.9c-0.7,10.1-4.2,15.2-9.2,21L274.2,52.8z"/>
	<path fill="#34110D" stroke="#FFFFFF" stroke-width="0.75" stroke-linecap="round" stroke-miterlimit="10" d="M286.8,32.1
		c-1.3-3.3,0.5-7.1,3.8-8.3c3.3-1.3,7.1,0.5,8.3,3.8"/>
	<path fill="#34110D" stroke="#FFFFFF" stroke-width="0.75" stroke-linecap="round" stroke-miterlimit="10" d="M279.1,54.7
		c6.6,0,11.8-3.9,11.8-8.7l5.3-1.8l2.2,5.3c0,2.9,6.6,5.2,14.7,5.2"/>
	<path fill="#34110D" stroke="#FFFFFF" stroke-width="0.75" stroke-linecap="round" stroke-miterlimit="10" d="M298.6,163.6
		c0,0,0-6.3-0.3-15.2l3.5-0.6l-0.3,15.2c3,0.8,6.9,2.8,10.6,4.2l1.7,2.4h-17.5C296.3,167.2,296.2,164.2,298.6,163.6"/>
	<polyline fill="none" stroke="#221E20" stroke-width="0.75" stroke-linecap="round" stroke-miterlimit="10" points="312.2,167.2 
		313.8,169.6 296.3,169.6 	"/>
	<path fill="#34110D" stroke="#FFFFFF" stroke-width="0.75" stroke-linecap="round" stroke-miterlimit="10" d="M317.4,169.6
		c1-0.4,1.2-1.5,0.2-1.9c-0.2-0.1-2.5,0.5-2.7,0.4c-1.1-0.4-2.1-0.8-2.7-0.9l1.7,2.4L317.4,169.6L317.4,169.6z"/>
	<polygon fill="#34110D" stroke="#FFFFFF" stroke-width="0.75" stroke-linecap="round" stroke-miterlimit="10" points="296.4,167.5 
		304.4,163.9 312.2,167.2 313.8,169.6 296.3,169.6 	"/>
	<path fill="#34110D" stroke="#FFFFFF" stroke-width="0.75" stroke-linecap="round" stroke-miterlimit="10" d="M289.8,163.6
		c0,0,0-5.3-0.3-14.3l3.5-1.5l-0.3,15.2c3,0.8,6.9,2.8,10.6,4.2l1.7,2.4h-17.5C287.6,167.2,287.4,164.1,289.8,163.6"/>
	<polyline fill="#FFFFFF" stroke="#221E20" stroke-width="0.75" stroke-linecap="round" stroke-miterlimit="10" points="
		303.4,167.2 305.1,169.6 287.6,169.6 	"/>
	<path fill="none" stroke="#221E20" stroke-width="0.75" stroke-linecap="round" stroke-miterlimit="10" d="M314.1,118"/>
	<path fill="#FFFFFF" stroke="#221E20" stroke-width="0.75" stroke-linecap="round" stroke-miterlimit="10" d="M312.9,119.7"/>
	
		<path fill="#34110D" stroke="#FFFFFF" stroke-width="0.75" stroke-linecap="round" stroke-linejoin="round" stroke-miterlimit="10" d="
		M304.9,88.9h-7.4c-3.2,0.8-5.7,5-5.7,9.4c0,4.4,2.5,8,5.7,8.9c-6.8,2.2-1.2,16.6,4.7,22.9c-10.7-0.3-2.5,21.5-0.7,33
		c1.4-5.7,7.4-31.6,9.4-47.7C312.4,102.7,307.3,92.8,304.9,88.9"/>
	<path fill="none" stroke="#FFFFFF" stroke-width="0.75" stroke-linecap="round" stroke-miterlimit="10" d="M297.2,112
		c0.6,10.3,5.6,15.9,8,16.1c1.2,0.1,2.4-0.6,2.6-1.8c0.2-1-0.5-1.9-1.4-2c-0.8-0.1-1.5,0.4-1.7,1.1c-0.1,0.6,0.3,1.2,0.9,1.3"/>
	<path fill="#34110D" stroke="#FFFFFF" stroke-width="0.75" stroke-linecap="round" stroke-miterlimit="10" d="M284.8,90.8
		c2.1-1.2,1.6-8.4-1.1-12.3l-8.8-15l11.2,3.4L299,79.2l-1.8,8.1l-2,3.6l-6.5,4.5L284.8,90.8z"/>
	<path fill="#34110D" stroke="#FFFFFF" stroke-width="0.75" stroke-linecap="round" stroke-miterlimit="10" d="M279,54.7
		c-2.3,10.7,16.3,34.7,17.8,37l1.6,3.3l1.3,3.8c1.5-2.3,15.1-30.6,13.6-44.2"/>
	
		<path fill="#34110D" stroke="#FFFFFF" stroke-width="0.75" stroke-linecap="round" stroke-linejoin="round" stroke-miterlimit="10" d="
		M295.4,88.9l-7.5-0.1c-3.2,0.8-5.7,5-5.7,9.4c0,4.4,2.5,8,5.7,8.9c-6.8,2.2-1.2,16.6,4.7,22.9c-10.7-0.3-1.7,21.5,0.1,33
		c1.4-5.7,6.6-31.6,8.5-47.7C302.8,102.7,297.8,92.9,295.4,88.9"/>
	<polygon fill="#34110D" stroke="#FFFFFF" stroke-width="0.75" stroke-linecap="round" stroke-miterlimit="10" points="290.5,45.5 
		295.8,54.7 298.5,54.7 298.5,48.4 	"/>
	<path fill="#34110D" stroke="#FFFFFF" stroke-width="0.75" stroke-linecap="round" stroke-miterlimit="10" d="M298.5,48.8v5.8
		c-0.6,0-3.2-2.6-3.2-6L298.5,48.8z"/>
	<path fill="#34110D" stroke="#FFFFFF" stroke-width="0.75" stroke-linecap="round" stroke-miterlimit="10" d="M302.8,32.6
		c-0.7-2.3-2.3-4-5.2-4.1c-2.9-0.1-5.3,2.2-5.3,5V34c0,1.2-1,2.1-2.2,2.1c-1.2,0-2.3-0.9-1.9-2.1l-0.1,0.7v2.6
		c-0.1,2.5-0.1,4.5,1.9,7.4c2.2,3.3,6.5,4.9,9.8,4.8c3-0.1,3.4-1.9,2.8-2.9c-0.5-0.7-1.3-1.1-1.6-1.3l0.8-0.5l-1-0.6l1.1-1l-0.4-0.7
		h2.4L302.8,32.6"/>
	<path fill="#34110D" stroke="#FFFFFF" stroke-width="0.75" stroke-linecap="round" stroke-miterlimit="10" d="M299.2,35.1
		c0,0.1-1.3,1.1-2.9,1.1s-2.9-0.9-2.9-1.1c0-0.2,1.3-1.1,2.9-1.1S299.2,35.1,299.2,35.1z"/>
	<path fill="none" stroke="#FFFFFF" stroke-width="0.75" stroke-linecap="round" stroke-miterlimit="10" d="M300.8,40.9
		c0.2,0.2,0.5,0.1,0.6,0c0.2-0.2,0.2-0.6-0.1-0.7c-0.3-0.2-0.7-0.2-0.9,0.1c-0.3,0.4-0.3,0.9,0.1,1.2c0.4,0.4,1,0.3,1.5-0.1
		c0.4-0.3,0.3-1,0.3-1l-0.5-5.8"/>
	<path fill="none" stroke="#FFFFFF" stroke-width="0.75" stroke-linecap="round" stroke-miterlimit="10" d="M293.1,33.3
		c3.9-2.6,6.3,0.5,6.7,0.3c1-0.6,1.7,0,1.9,0.1"/>
	<path fill="none" stroke="#FFFFFF" stroke-width="0.75" stroke-linecap="round" stroke-miterlimit="10" d="M291.4,43L291.4,43
		c-3.1,0.5-4-4.3-2.7-5.7l0,0c0.9-1.1,2.3-1,3.1-0.2c0.6,0.6,0.6,1.9-0.1,2.6c-0.5,0.5-1.4,0.5-1.9,0c-0.4-0.4-0.4-1.1,0-1.5
		c0.3-0.3,0.9-0.3,1.2,0c0.3,0.3,0.3,0.7,0,1"/>
	<path fill="#34110D" stroke="#FFFFFF" stroke-width="0.75" stroke-linecap="round" stroke-miterlimit="10" d="M302.6,73.6
		c9-2.1,11.2-9.6,10.8-18.9h-16.6H279c0,9.6,5.1,18.5,19.1,19.2c0.3,0,2.1-5,2.1-5L302.6,73.6z"/>
	<path fill="none" stroke="#221E20" stroke-width="0.75" stroke-linecap="round" stroke-miterlimit="10" d="M275,75.1"/>
	<path fill="none" stroke="#FFFFFF" stroke-width="0.75" stroke-linecap="round" stroke-miterlimit="10" d="M287.3,111.7
		c0.6,10.3,5.6,15.9,8,16.1c1.2,0.1,2.4-0.6,2.6-1.8c0.2-1-0.5-1.9-1.4-2c-0.8-0.1-1.5,0.4-1.7,1.1c-0.1,0.6,0.3,1.2,0.9,1.3"/>
	<path fill="#34110D" stroke="#FFFFFF" stroke-width="0.75" stroke-linecap="round" stroke-miterlimit="10" d="M308.7,169.6
		c1-0.4,1.2-1.5,0.2-1.9c-0.2-0.1-2.5,0.5-2.7,0.4c-1.1-0.4-2.1-0.8-2.7-0.9l1.7,2.4L308.7,169.6L308.7,169.6z"/>
	<polygon fill="#34110D" stroke="#FFFFFF" stroke-width="0.75" stroke-linecap="round" stroke-miterlimit="10" points="287.7,167.5 
		295.6,163.9 303.4,167.2 305.1,169.6 287.6,169.6 	"/>
	
		<line fill="none" stroke="#FFFFFF" stroke-width="0.75" stroke-linecap="round" stroke-miterlimit="10" x1="300.7" y1="44.2" x2="299.6" y2="44.5"/>
	
		<circle fill="#34110D" stroke="#FFFFFF" stroke-width="0.75" stroke-linecap="round" stroke-miterlimit="10" cx="296.2" cy="35" r="0.7"/>
	<path fill="none" stroke="#FFFFFF" stroke-width="0.75" stroke-linecap="round" stroke-miterlimit="10" d="M295.5,23.1"/>
	<path fill="none" stroke="#221E20" stroke-width="0.75" stroke-linecap="round" stroke-miterlimit="10" d="M307.6,52.9"/>
	<path fill="#C3996C" stroke="#FFFFFF" stroke-width="0.75" stroke-miterlimit="10" d="M285.8,28.2"/>
	<path fill="#34110D" stroke="#FFFFFF" stroke-width="0.75" stroke-linecap="round" stroke-miterlimit="10" d="M303.2,37.5l1.4,1.5
		l-2.1-7.8l-0.6-1.9c0,0-9.5-7.3-15.1,2.7l-1.2,13.7c0,0,2.9,0.8,4.8-2.5c1.5,4.2,4.3,3.5,12.4,3.5l-2.9-11c0,0-4.7,1.5-6.6-0.7
		C295.2,33.4,299.2,33.7,303.2,37.5z"/>
	<polygon fill="#34110D" stroke="#FFFFFF" stroke-width="0.75" stroke-linecap="round" stroke-miterlimit="10" points="286.1,87.8 
		281,95.1 281,112 294.5,100.1 	"/>
	<polygon fill="#34110D" stroke="#FFFFFF" stroke-width="0.75" stroke-linecap="round" stroke-miterlimit="10" points="304.9,87.8 
		310.1,95.1 311.6,111.7 296.5,100.1 	"/>
	<polygon fill="#34110D" stroke="#FFFFFF" stroke-width="0.75" stroke-linecap="round" stroke-miterlimit="10" points="286.1,87.8 
		305,87.8 301.6,110.6 	"/>
	
		<path fill="#34110D" stroke="#FFFFFF" stroke-width="0.75" stroke-linecap="round" stroke-linejoin="round" stroke-miterlimit="10" d="
		M310,122c0,0-6.7,15.5-11,16c-3.4,5.5-0.2,24.6-0.2,24.6s1.7,1.8,3,0.7C301.8,163.3,313,131.9,310,122z"/>
	
		<path fill="#34110D" stroke="#FFFFFF" stroke-width="0.75" stroke-linecap="round" stroke-linejoin="round" stroke-miterlimit="10" d="
		M299.9,122c0,0-5.5,15.5-9.8,16c-3.4,5.5-0.2,24.6-0.2,24.6s1.7,1.8,3,0.7C292.9,163.3,302.9,131.9,299.9,122z"/>
	<g>
		<polygon fill="#34110D" stroke="#FFFFFF" stroke-width="0.75" stroke-linecap="round" stroke-miterlimit="10" points="368.3,63.4 
			368.1,61.7 283.2,72.3 283.4,74.1 		"/>
		<path fill="#34110D" stroke="#FFFFFF" stroke-width="0.75" stroke-linecap="round" stroke-miterlimit="10" d="M382.5,60.9l-16.6,2
			l0.2,1.2l3.6-0.7c0,0,0.6,1,2.4,0.6C378.4,62.5,382.5,60.9,382.5,60.9z"/>
		<path fill="#34110D" stroke="#FFFFFF" stroke-width="0.75" stroke-linecap="round" stroke-miterlimit="10" d="M382.5,60.9l-16.6,2
			l-0.1-1.2l3.7-0.2c0,0,0.3-1.1,2.2-1.1C378.2,60.3,382.5,60.9,382.5,60.9z"/>
	</g>
	<g>
		<path fill="#34110D" d="M334.9,65.2c-3-0.6-7.4,1.1-8,1.4c-0.6,0.5-10.4-1.9-10.6-2c0,0,0,0,0,0l0,0c-6.4-2.1-12.4-3-13.1,0.7
			c-4.9-4.2-11.5-9.6-17.4-10.5c-6-0.9-12.8-0.6-14.1,4.1l-0.1,0.3c-1.9,12.5,43.1,10.9,54.9,10.5l6.1,2.1c0.8,0.4,5.4,0.2,6-0.3
			c-0.4-0.4-0.9-0.9-2-0.5c0,0-0.1,0-0.1-0.1c0.9-0.1,1.8-0.3,2.8-0.6c-0.2-0.3-0.6-0.6-1-0.6c0.6-0.1,1.3-0.3,1.9-0.6
			c-0.5-0.5-1.1-1-2.5-0.6c-0.1,0-0.1-0.1-0.2-0.1c0.6-0.1,1.3-0.3,2-0.6c-0.4-0.5-1-0.9-2.2-0.5c-1.2-0.7-2.8-0.5-3.6-0.3l-0.6-0.6
			c0,0,2.6,0.5,4-0.9c0-0.5-0.4-1-1.6-0.3L334.9,65.2z"/>
		<path fill="none" stroke="#FFFFFF" stroke-width="0.75" stroke-linecap="round" stroke-miterlimit="10" d="M299.4,65.2
			c-11.2-9.4-20.6-9.5-23.2-7.2c-1.3,1.2-1.7,3-0.6,4.4c0.8,1.1,2.4,1.4,3.5,0.5c0.9-0.6,1.1-1.9,0.4-2.8c-0.5-0.7-1.5-0.9-2.2-0.3"
			/>
		
			<path fill="none" stroke="#FFFFFF" stroke-width="0.75" stroke-linecap="round" stroke-linejoin="round" stroke-miterlimit="10" d="
			M334.9,65.2c-3-0.6-7.4,1.1-8,1.4c-0.6,0.5-8.7-1.5-10.6-2c0,0,0,0,0,0l0,0c-6.4-2.1-12.4-3-13.1,0.7c-4.9-4.2-11.5-9.6-17.4-10.5
			c-6-0.9-12.8-0.6-14.1,4.1l-0.1,0.3c-1.9,12.5,43.6,11.1,54.9,10.5l6.1,2.1c0.8,0.4,5.4,0.2,6-0.3c-0.4-0.4-0.9-0.9-2-0.5
			c0,0-0.1,0-0.1-0.1c0.9-0.1,1.8-0.3,2.8-0.6c-0.2-0.3-0.6-0.6-1-0.6c0.6-0.1,1.3-0.3,1.9-0.6c-0.5-0.5-1.1-1-2.5-0.6
			c-0.1,0-0.1-0.1-0.2-0.1c0.6-0.1,1.3-0.3,2-0.6c-0.4-0.5-1-0.9-2.2-0.5c-1.2-0.7-2.8-0.5-3.6-0.3l-0.6-0.6c0,0,2.6,0.5,4-0.9
			c0-0.5-0.4-1-1.6-0.3L334.9,65.2z"/>
		<g>
			<path fill="#34110D" stroke="#FFFFFF" stroke-width="0.5" stroke-miterlimit="10" d="M333.5,72.3"/>
			<path fill="#34110D" stroke="#FFFFFF" stroke-width="0.5" stroke-miterlimit="10" d="M335.4,71.4"/>
			<path fill="#34110D" stroke="#FFFFFF" stroke-width="0.5" stroke-miterlimit="10" d="M338.4,71.5"/>
			<line fill="none" stroke="#FFFFFF" stroke-width="0.5" stroke-miterlimit="10" x1="336.4" y1="71.1" x2="336.4" y2="71.1"/>
			<path fill="#34110D" stroke="#FFFFFF" stroke-width="0.5" stroke-linecap="round" stroke-miterlimit="10" d="M332.7,70.9
				c0-0.2,3.1,0.8,6.5-0.5l0,0c-0.4-0.5-1-0.9-2.2-0.5l0,0c-1.9-1.2-4.1-0.1-4.1-0.1"/>
			<path fill="#34110D" stroke="#FFFFFF" stroke-width="0.5" stroke-linecap="round" stroke-miterlimit="10" d="M332.9,69.7
				c0-0.2,3.5,0.9,7.2-0.6l0,0c-0.5-0.5-1.1-1-2.5-0.6l0,0c-2.2-1.3-4.6-0.1-4.6-0.2"/>
			<path fill="#34110D" stroke="#FFFFFF" stroke-width="0.5" stroke-linecap="round" stroke-miterlimit="10" d="M333,68.5
				c0-0.2,3.1,0.8,6.5-0.5l0,0c-0.4-0.5-1-0.9-2.2-0.5l0,0c-1.2-0.7-2.9-0.5-3.7-0.3"/>
		</g>
		
			<line fill="none" stroke="#FFFFFF" stroke-width="0.75" stroke-linecap="round" stroke-miterlimit="10" x1="314.7" y1="70.1" x2="326.9" y2="66.6"/>
	</g>
	
		<line fill="none" stroke="#FFFFFF" stroke-width="0.75" stroke-linecap="round" stroke-miterlimit="10" x1="300" y1="75.9" x2="300" y2="84"/>
	
		<ellipse fill="#34110D" stroke="#FFFFFF" stroke-width="0.75" stroke-linecap="round" stroke-miterlimit="10" cx="317.5" cy="104.9" rx="35.2" ry="35.3"/>
	
		<ellipse fill="#34110D" stroke="#FFFFFF" stroke-width="0.75" stroke-linecap="round" stroke-miterlimit="10" cx="317.5" cy="104.9" rx="31.5" ry="31.6"/>
	<path fill="none" stroke="#FFFFFF" stroke-width="0.75" stroke-linecap="round" stroke-miterlimit="10" d="M286.1,102.5
		c0,15.7,12.7,28.4,28.4,28.4c12.6,0,22.7-10.2,22.7-22.7c0-10-8.1-18.2-18.2-18.2c-8,0-14.5,6.5-14.5,14.5
		c0,6.4,5.2,11.6,11.6,11.6c5.1,0,9.3-4.2,9.3-9.3c0-4.1-3.3-7.4-7.4-7.4c-3.3,0-6,2.7-6,6c0,2.6,2.1,4.8,4.8,4.8
		c2.1,0,3.8-1.7,3.8-3.8c0-1.7-1.4-3-3-3c-1.4,0-2.4,1.1-2.4,2.4c0,1.1,0.9,1.9,1.9,1.9c0.9,0,1.6-0.7,1.6-1.6
		c0-0.7-0.6-1.2-1.2-1.2c-0.6,0-1,0.5-1,1c0,0.5,0.4,0.8,0.8,0.8"/>
	<polyline fill="none" stroke="#FFFFFF" stroke-width="0.75" stroke-linecap="round" stroke-miterlimit="10" points="310.8,54.7 
		301.8,59.2 286.3,54.7 	"/>
</g>
</svg>
