<?xml version="1.0" encoding="utf-8"?>
<!-- Generator: Adobe Illustrator 18.1.1, SVG Export Plug-In . SVG Version: 6.00 Build 0)  -->
<svg version="1.1" id="Warstwa_1" xmlns="http://www.w3.org/2000/svg" xmlns:xlink="http://www.w3.org/1999/xlink" x="0px" y="0px"
	 viewBox="0 0 1919.7 996.7" enable-background="new 0 0 1919.7 996.7" xml:space="preserve">
<g>
	<g>
		<g>
			<g>
				<g>
					<path fill="#88775B" d="M-0.2,481.1h119.5v-53.7c-4.7,4.3-11.9,6.7-22.7,1.5c-13.9-6.8-18.7-28.3-0.7-39.4
						c-41.3-3.5-84.1,27.5-96,37.9"/>
					<path fill="none" stroke="#FFFFFF" stroke-width="0.375" stroke-miterlimit="10" d="M119.4,427.4c-4.7,4.3-11.9,6.7-22.7,1.5
						c-13.9-6.8-18.7-28.3-0.7-39.4C54.7,386,11.9,417,0,427.4"/>
				</g>
			</g>
			<g>
				<g>
					<path fill="#88775B" d="M119.8,481.1h119.5v-53.7c-4.7,4.3-11.9,6.7-22.7,1.5c-13.9-6.8-18.7-28.3-0.7-39.4
						c-41.3-3.5-84.1,27.5-96,37.9"/>
					<path fill="none" stroke="#FFFFFF" stroke-width="0.375" stroke-miterlimit="10" d="M239.4,427.4c-4.7,4.3-11.9,6.7-22.7,1.5
						c-13.9-6.8-18.7-28.3-0.7-39.4c-41.3-3.5-84.1,27.5-96,37.9"/>
				</g>
			</g>
			<g>
				<g>
					<path fill="#88775B" d="M239.8,481.1h119.5v-53.7c-4.7,4.3-11.9,6.7-22.7,1.5c-13.9-6.8-18.7-28.3-0.7-39.4
						c-41.3-3.5-84.1,27.5-96,37.9"/>
					<path fill="none" stroke="#FFFFFF" stroke-width="0.375" stroke-miterlimit="10" d="M359.4,427.4c-4.7,4.3-11.9,6.7-22.7,1.5
						c-13.9-6.8-18.7-28.3-0.7-39.4c-41.3-3.5-84.1,27.5-96,37.9"/>
				</g>
			</g>
			<g>
				<g>
					<path fill="#88775B" d="M359.8,481.1h119.5v-53.7c-4.7,4.3-11.9,6.7-22.7,1.5c-13.9-6.8-18.7-28.3-0.7-39.4
						c-41.3-3.5-84.1,27.5-96,37.9"/>
					<path fill="none" stroke="#FFFFFF" stroke-width="0.375" stroke-miterlimit="10" d="M479.4,427.4c-4.7,4.3-11.9,6.7-22.7,1.5
						c-13.9-6.8-18.7-28.3-0.7-39.4c-41.3-3.5-84.1,27.5-96,37.9"/>
				</g>
			</g>
			<g>
				<g>
					<path fill="#88775B" d="M479.8,481.1h119.5v-53.7c-4.7,4.3-11.9,6.7-22.7,1.5c-13.9-6.8-18.7-28.3-0.7-39.4
						c-41.3-3.5-84.1,27.5-96,37.9"/>
					<path fill="none" stroke="#FFFFFF" stroke-width="0.375" stroke-miterlimit="10" d="M599.4,427.4c-4.7,4.3-11.9,6.7-22.7,1.5
						c-13.9-6.8-18.7-28.3-0.7-39.4c-41.3-3.5-84.1,27.5-96,37.9"/>
				</g>
			</g>
			<g>
				<g>
					<path fill="#88775B" d="M599.8,481.1h119.5v-53.7c-4.7,4.3-11.9,6.7-22.7,1.5c-13.9-6.8-18.7-28.3-0.7-39.4
						c-41.3-3.5-84.1,27.5-96,37.9"/>
					<path fill="none" stroke="#FFFFFF" stroke-width="0.375" stroke-miterlimit="10" d="M719.4,427.4c-4.7,4.3-11.9,6.7-22.7,1.5
						c-13.9-6.8-18.7-28.3-0.7-39.4c-41.3-3.5-84.1,27.5-96,37.9"/>
				</g>
			</g>
			<g>
				<g>
					<path fill="#88775B" d="M719.8,481.1h119.5v-53.7c-4.7,4.3-11.9,6.7-22.7,1.5c-13.9-6.8-18.7-28.3-0.7-39.4
						c-41.3-3.5-84.1,27.5-96,37.9"/>
					<path fill="none" stroke="#FFFFFF" stroke-width="0.375" stroke-miterlimit="10" d="M839.4,427.4c-4.7,4.3-11.9,6.7-22.7,1.5
						c-13.9-6.8-18.7-28.3-0.7-39.4c-41.3-3.5-84.1,27.5-96,37.9"/>
				</g>
			</g>
			<g>
				<g>
					<path fill="#88775B" d="M839.8,481.1h119.5v-53.7c-4.7,4.3-11.9,6.7-22.7,1.5c-13.9-6.8-18.7-28.3-0.7-39.4
						c-41.3-3.5-84.1,27.5-96,37.9"/>
					<path fill="none" stroke="#FFFFFF" stroke-width="0.375" stroke-miterlimit="10" d="M959.4,427.4c-4.7,4.3-11.9,6.7-22.7,1.5
						c-13.9-6.8-18.7-28.3-0.7-39.4c-41.3-3.5-84.1,27.5-96,37.9"/>
				</g>
			</g>
			<g>
				<g>
					<path fill="#88775B" d="M959.8,481.1h119.5v-53.7c-4.7,4.3-11.9,6.7-22.7,1.5c-13.9-6.8-18.7-28.3-0.7-39.4
						c-41.3-3.5-84.1,27.5-96,37.9"/>
					<path fill="none" stroke="#FFFFFF" stroke-width="0.375" stroke-miterlimit="10" d="M1079.4,427.4c-4.7,4.3-11.9,6.7-22.7,1.5
						c-13.9-6.8-18.7-28.3-0.7-39.4c-41.3-3.5-84.1,27.5-96,37.9"/>
				</g>
			</g>
			<g>
				<g>
					<path fill="#88775B" d="M1079.8,481.1h119.5v-53.7c-4.7,4.3-11.9,6.7-22.7,1.5c-13.9-6.8-18.7-28.3-0.7-39.4
						c-41.3-3.5-84.1,27.5-96,37.9"/>
					<path fill="none" stroke="#FFFFFF" stroke-width="0.375" stroke-miterlimit="10" d="M1199.4,427.4c-4.7,4.3-11.9,6.7-22.7,1.5
						c-13.9-6.8-18.7-28.3-0.7-39.4c-41.3-3.5-84.1,27.5-96,37.9"/>
				</g>
			</g>
			<g>
				<g>
					<path fill="#88775B" d="M1199.8,481.1h119.5v-53.7c-4.7,4.3-11.9,6.7-22.7,1.5c-13.9-6.8-18.7-28.3-0.7-39.4
						c-41.3-3.5-84.1,27.5-96,37.9"/>
					<path fill="none" stroke="#FFFFFF" stroke-width="0.375" stroke-miterlimit="10" d="M1319.4,427.4c-4.7,4.3-11.9,6.7-22.7,1.5
						c-13.9-6.8-18.7-28.3-0.7-39.4c-41.3-3.5-84.1,27.5-96,37.9"/>
				</g>
			</g>
			<g>
				<g>
					<path fill="#88775B" d="M1319.8,481.1h119.5v-53.7c-4.7,4.3-11.9,6.7-22.7,1.5c-13.9-6.8-18.7-28.3-0.7-39.4
						c-41.3-3.5-84.1,27.5-96,37.9"/>
					<path fill="none" stroke="#FFFFFF" stroke-width="0.375" stroke-miterlimit="10" d="M1439.4,427.4c-4.7,4.3-11.9,6.7-22.7,1.5
						c-13.9-6.8-18.7-28.3-0.7-39.4c-41.3-3.5-84.1,27.5-96,37.9"/>
				</g>
			</g>
			<g>
				<g>
					<path fill="#88775B" d="M1439.8,481.1h119.5v-53.7c-4.7,4.3-11.9,6.7-22.7,1.5c-13.9-6.8-18.7-28.3-0.7-39.4
						c-41.3-3.5-84.1,27.5-96,37.9"/>
					<path fill="none" stroke="#FFFFFF" stroke-width="0.375" stroke-miterlimit="10" d="M1559.4,427.4c-4.7,4.3-11.9,6.7-22.7,1.5
						c-13.9-6.8-18.7-28.3-0.7-39.4c-41.3-3.5-84.1,27.5-96,37.9"/>
				</g>
			</g>
			<g>
				<g>
					<path fill="#88775B" d="M1559.8,481.1h119.5v-53.7c-4.7,4.3-11.9,6.7-22.7,1.5c-13.9-6.8-18.7-28.3-0.7-39.4
						c-41.3-3.5-84.1,27.5-96,37.9"/>
					<path fill="none" stroke="#FFFFFF" stroke-width="0.375" stroke-miterlimit="10" d="M1679.4,427.4c-4.7,4.3-11.9,6.7-22.7,1.5
						c-13.9-6.8-18.7-28.3-0.7-39.4c-41.3-3.5-84.1,27.5-96,37.9"/>
				</g>
			</g>
			<g>
				<g>
					<path fill="#88775B" d="M1679.8,481.1h119.5v-53.7c-4.7,4.3-11.9,6.7-22.7,1.5c-13.9-6.8-18.7-28.3-0.7-39.4
						c-41.3-3.5-84.1,27.5-96,37.9"/>
					<path fill="none" stroke="#FFFFFF" stroke-width="0.375" stroke-miterlimit="10" d="M1799.4,427.4c-4.7,4.3-11.9,6.7-22.7,1.5
						c-13.9-6.8-18.7-28.3-0.7-39.4c-41.3-3.5-84.1,27.5-96,37.9"/>
				</g>
			</g>
			<g>
				<g>
					<path fill="#88775B" d="M1799.8,481.1h119.5v-53.7c-4.7,4.3-11.9,6.7-22.7,1.5c-13.9-6.8-18.7-28.3-0.7-39.4
						c-41.3-3.5-84.1,27.5-96,37.9"/>
					<path fill="none" stroke="#FFFFFF" stroke-width="0.375" stroke-miterlimit="10" d="M1919.4,427.4c-4.7,4.3-11.9,6.7-22.7,1.5
						c-13.9-6.8-18.7-28.3-0.7-39.4c-41.3-3.5-84.1,27.5-96,37.9"/>
				</g>
			</g>
		</g>
	</g>
</g>
<rect x="-0.4" y="472.7" fill="#88775B" width="1920" height="524"/>
<g>
	
		<path fill="#88775B" stroke="#FFFFFF" stroke-width="0.5" stroke-linecap="round" stroke-linejoin="round" stroke-miterlimit="10" d="
		M1285.3,227.5c0-5-5.1-9.1-11.3-9.1c-4.2,0-7.9,1.9-9.9,4.7c-4.7,1.1-8.1,4.6-8.1,8.7c0,5,5.1,9.1,11.3,9.1c4.2,0,7.9-1.9,9.9-4.7
		C1281.8,235.1,1285.3,231.6,1285.3,227.5z"/>
	<g>
		<path fill="#88775B" d="M1292.7,358.1c-0.2-4.3,3.1-10.2,3.7-11c0.8-0.8-0.5-15.1-0.5-15.5l0,0l0,0c-1.6-9.5-1.7-18.2,3.8-18.4
			c-4.9-7.9-11.1-18.2-11.1-26.9c0-8.7,1.8-18.2,8.8-19.2l0.5-0.1c18.4,0,6.2,63.4,3.2,79.9l1.7,9.1c0.4,1.3-0.9,7.7-1.7,8.4
			c-0.5-0.6-1.1-1.4-0.3-2.9c0-0.1,0-0.1-0.1-0.2c-0.3,1.2-0.8,2.5-1.5,3.8c-0.3-0.4-0.6-0.9-0.7-1.5c-0.3,0.9-0.7,1.7-1.2,2.6
			c-0.6-0.8-1.2-1.8-0.3-3.6c0-0.1-0.1-0.2-0.1-0.3c-0.3,0.9-0.7,1.8-1.2,2.7c-0.6-0.7-1.1-1.6-0.2-3.2c-0.8-1.8-0.1-4.1,0.3-5.2
			l-0.7-1.1c0,0,0.1,3.8-2.2,5.5c-0.7-0.2-1.3-0.8-0.1-2.4L1292.7,358.1z"/>
		
			<path fill="none" stroke="#FFFFFF" stroke-width="0.5" stroke-linecap="round" stroke-linejoin="round" stroke-miterlimit="10" d="
			M1300.3,307.8c-11-17.9-9.1-31.2-5.2-34.4c1.9-1.6,4.6-1.8,6.4,0c1.4,1.4,1.4,3.7,0,5.1c-1.1,1.1-2.9,1.1-4.1,0
			c-0.9-0.9-0.9-2.4,0-3.3"/>
		
			<path fill="none" stroke="#FFFFFF" stroke-width="0.5" stroke-linecap="round" stroke-linejoin="round" stroke-miterlimit="10" d="
			M1292.7,358.1c-0.2-4.3,3.1-10.2,3.7-11c0.8-0.8-0.3-12.7-0.5-15.5l0,0l0,0c-1.6-9.5-1.7-18.2,3.8-18.4
			c-4.9-7.9-11.1-18.2-11.1-26.9c0-8.7,1.8-18.4,8.8-19.3h0.4c18.1,0,6.6,64.2,3.3,80l1.7,9.1c0.4,1.3-0.9,7.7-1.7,8.4
			c-0.5-0.6-1.1-1.4-0.3-2.9c0-0.1,0-0.1-0.1-0.2c-0.3,1.2-0.8,2.5-1.5,3.8c-0.3-0.4-0.6-0.9-0.7-1.5c-0.3,0.9-0.7,1.7-1.2,2.6
			c-0.6-0.8-1.2-1.8-0.3-3.6c0-0.1-0.1-0.2-0.1-0.3c-0.3,0.9-0.7,1.8-1.2,2.7c-0.6-0.7-1.1-1.6-0.2-3.2c-0.8-1.8-0.1-4.1,0.3-5.2
			l-0.7-1.1c0,0,0.1,3.8-2.2,5.5c-0.7-0.2-1.3-0.8-0.1-2.4L1292.7,358.1z"/>
		<g>
			
				<path fill="#35120E" stroke="#FFFFFF" stroke-width="0.5" stroke-linecap="round" stroke-linejoin="round" stroke-miterlimit="10" d="
				M1303.1,357.6"/>
			
				<path fill="#35120E" stroke="#FFFFFF" stroke-width="0.5" stroke-linecap="round" stroke-linejoin="round" stroke-miterlimit="10" d="
				M1301.5,360.1"/>
			
				<path fill="#35120E" stroke="#FFFFFF" stroke-width="0.5" stroke-linecap="round" stroke-linejoin="round" stroke-miterlimit="10" d="
				M1301,364.4"/>
			
				<line fill="none" stroke="#FFFFFF" stroke-width="0.5" stroke-linecap="round" stroke-linejoin="round" stroke-miterlimit="10" x1="1300.8" y1="361.5" x2="1300.8" y2="361.5"/>
			
				<path fill="#88775B" stroke="#FFFFFF" stroke-width="0.5" stroke-linecap="round" stroke-linejoin="round" stroke-miterlimit="10" d="
				M1301.3,356.1c-0.2,0,0.5,4.6-2.1,9l0,0c-0.6-0.7-1.1-1.6-0.2-3.2l0,0c-1.3-3,0.7-5.8,0.7-5.8"/>
			
				<path fill="#88775B" stroke="#FFFFFF" stroke-width="0.5" stroke-linecap="round" stroke-linejoin="round" stroke-miterlimit="10" d="
				M1299.6,356.1c-0.3,0,0.5,5.2-2.3,10.1l0,0c-0.6-0.8-1.2-1.8-0.3-3.6l0,0c-1.4-3.4,0.8-6.5,0.8-6.5"/>
			
				<path fill="#88775B" stroke="#FFFFFF" stroke-width="0.5" stroke-linecap="round" stroke-linejoin="round" stroke-miterlimit="10" d="
				M1297.8,356c-0.2,0,0.5,4.6-2.1,9l0,0c-0.6-0.7-1.1-1.6-0.2-3.2l0,0c-0.8-1.8-0.1-4.2,0.3-5.3"/>
		</g>
		
			<line fill="none" stroke="#FFFFFF" stroke-width="0.5" stroke-linecap="round" stroke-linejoin="round" stroke-miterlimit="10" x1="1304" y1="330.5" x2="1296.4" y2="347"/>
	</g>
	
		<path fill="#88775B" stroke="#FFFFFF" stroke-width="0.5" stroke-linecap="round" stroke-linejoin="round" stroke-miterlimit="10" d="
		M1248.4,266.9c9.4,0,17-5.6,17-12.5l7.6-2.6l3.2,7.6c0,4.1,9.8,7.4,21.4,7.4"/>
	
		<path fill="#88775B" stroke="#FFFFFF" stroke-width="0.5" stroke-linecap="round" stroke-linejoin="round" stroke-miterlimit="10" d="
		M1276.4,422.9c0,0,0-9-0.4-21.8l5-0.8l-0.4,21.7c4.2,1.2,9.9,3.9,15.2,6l2.4,3.5h-25C1273.1,428.1,1272.9,423.7,1276.4,422.9"/>
	
		<polyline fill="none" stroke="#231E21" stroke-width="0.5" stroke-linecap="round" stroke-linejoin="round" stroke-miterlimit="10" points="
		1295.8,428.1 1298.2,431.6 1273.1,431.6 	"/>
	
		<path fill="#35120E" stroke="#FFFFFF" stroke-width="0.5" stroke-linecap="round" stroke-linejoin="round" stroke-miterlimit="10" d="
		M1271.3,433.7h35.1c0.1,0,0.2-0.1,0.2-0.2c0,0-1.5-1.9-1.6-1.9h-33.7V433.7z"/>
	
		<path fill="#88775B" stroke="#FFFFFF" stroke-width="0.5" stroke-linecap="round" stroke-linejoin="round" stroke-miterlimit="10" d="
		M1303.3,431.6c1.4-0.6,1.7-2.2,0.2-2.7c-0.3-0.1-3.5,0.7-3.9,0.5c-1.6-0.5-3.1-1.1-3.9-1.3l2.4,3.5H1303.3z"/>
	
		<polygon fill="#88775B" stroke="#FFFFFF" stroke-width="0.5" stroke-linecap="round" stroke-linejoin="round" stroke-miterlimit="10" points="
		1273.2,428.5 1284.6,423.4 1295.8,428.1 1298.2,431.6 1273.1,431.6 	"/>
	
		<path fill="#88775B" stroke="#FFFFFF" stroke-width="0.5" stroke-linecap="round" stroke-linejoin="round" stroke-miterlimit="10" d="
		M1263.8,422.9c0,0,0-7.6-0.4-20.4l5-2.1l-0.4,21.7c4.2,1.2,9.9,3.9,15.2,6l2.4,3.5h-25C1260.6,428.1,1260.4,423.7,1263.8,422.9"/>
	
		<polyline fill="#FFFFFF" stroke="#231E21" stroke-width="0.5" stroke-linecap="round" stroke-linejoin="round" stroke-miterlimit="10" points="
		1283.2,428.1 1285.6,431.6 1260.6,431.6 	"/>
	<path fill="none" stroke="#231E21" stroke-width="0.5" stroke-linecap="round" stroke-linejoin="round" stroke-miterlimit="10" d="
		M1298.5,357.6"/>
	
		<path fill="#FFFFFF" stroke="#231E21" stroke-width="0.5" stroke-linecap="round" stroke-linejoin="round" stroke-miterlimit="10" d="
		M1296.9,360.1"/>
	
		<path fill="#35120E" stroke="#FFFFFF" stroke-width="0.5" stroke-linecap="round" stroke-linejoin="round" stroke-miterlimit="10" d="
		M1285.4,315.9h-10.6c-4.7,1.2-8.2,7.2-8.2,13.4c0,6.3,3.5,11.5,8.2,12.7c-9.7,3.2-1.8,23.8,6.8,32.8c-15.4-0.4-3.6,30.8-1,47.3
		c2-8.2,10.6-45.2,13.4-68.3C1296.2,335.7,1288.8,321.5,1285.4,315.9"/>
	<path fill="none" stroke="#FFFFFF" stroke-width="0.5" stroke-linecap="round" stroke-linejoin="round" stroke-miterlimit="10" d="
		M1274.4,349c0.8,14.8,8,22.8,11.5,23.1c1.7,0.1,3.4-0.8,3.7-2.5c0.3-1.4-0.7-2.7-2-2.9c-1.1-0.2-2.2,0.5-2.4,1.6
		c-0.2,0.9,0.4,1.7,1.3,1.9"/>
	
		<path fill="#35120E" stroke="#FFFFFF" stroke-width="0.5" stroke-linecap="round" stroke-linejoin="round" stroke-miterlimit="10" d="
		M1256.7,318.7c3-1.8,2.3-12.1-1.5-17.5l-6.7-8.4l10.2-8.1l18.3,17.4l-2.6,11.6l-2.9,5.2l-9.3,6.5L1256.7,318.7z"/>
	
		<path fill="#88775B" stroke="#FFFFFF" stroke-width="0.5" stroke-linecap="round" stroke-linejoin="round" stroke-miterlimit="10" d="
		M1248.3,266.9c-3.3,15.3-0.4,25.5,4.1,26.5c11.2,2.7,19.3,23.2,21.5,26.5l2.3,4.8l1.9,5.4c2.2-3.4,21.6-43.8,19.5-63.2"/>
	
		<path fill="#88775B" stroke="#FFFFFF" stroke-width="0.5" stroke-linecap="round" stroke-linejoin="round" stroke-miterlimit="10" d="
		M1271.8,316l-10.7-0.1c-4.7,1.2-8.2,7.2-8.2,13.4c0,6.3,3.5,11.5,8.2,12.7c-9.7,3.2-1.8,23.8,6.8,32.8c-15.4-0.4-2.4,30.8,0.2,47.3
		c2-8.2,9.4-45.2,12.2-68.3C1282.4,335.7,1275.2,321.6,1271.8,316"/>
	
		<polygon fill="#88775B" stroke="#FFFFFF" stroke-width="0.5" stroke-linecap="round" stroke-linejoin="round" stroke-miterlimit="10" points="
		1264.8,253.7 1271.9,270.1 1278.4,271 1276.2,257.9 	"/>
	
		<path fill="#88775B" stroke="#FFFFFF" stroke-width="0.5" stroke-linecap="round" stroke-linejoin="round" stroke-miterlimit="10" d="
		M1276.2,258.6l2.2,12.5c-0.9,0-6.9-7.8-6.9-12.7L1276.2,258.6z"/>
	
		<path fill="#88775B" stroke="#FFFFFF" stroke-width="0.5" stroke-linecap="round" stroke-linejoin="round" stroke-miterlimit="10" d="
		M1282.3,235.3c-1-3.3-3.3-5.7-7.4-5.8c-4.1-0.1-7.5,3.1-7.6,7.2v0.6c0,1.7-1.4,3.1-3.2,3.1c-1.7,0-2.9-1.2-2.9-3l0,0v4.6
		c-0.1,3.6-0.1,6.5,2.7,10.7c3.2,4.8,9.3,7,14.1,6.8c4.2-0.1,4.8-2.8,4-4.1c-0.6-1-1.8-1.5-2.3-1.9l1.1-0.6l-1.5-0.9l1.5-1.4l-0.6-1
		h3.5L1282.3,235.3"/>
	<path fill="none" stroke="#FFFFFF" stroke-width="0.5" stroke-linecap="round" stroke-linejoin="round" stroke-miterlimit="10" d="
		M1279.5,247.1c0.3,0.2,0.6,0.2,0.9-0.1c0.3-0.3,0.2-0.8-0.1-1.1c-0.4-0.3-1-0.3-1.3,0.1c-0.4,0.5-0.4,1.3,0.1,1.7
		c0.6,0.5,1.5,0.4,2.1-0.2c0.5-0.5,0.4-1.5,0.4-1.5l-0.6-8.3"/>
	<path fill="none" stroke="#FFFFFF" stroke-width="0.5" stroke-linecap="round" stroke-linejoin="round" stroke-miterlimit="10" d="
		M1268.5,236.3c5.6-3.7,9,0.7,9.6,0.3c1.4-0.9,2.4,0,2.8,0.1"/>
	
		<path fill="#88775B" stroke="#FFFFFF" stroke-width="0.5" stroke-linecap="round" stroke-linejoin="round" stroke-miterlimit="10" d="
		M1282.1,298.6c12.9-3,15.5-18.1,15.5-31.7l-18.9,4.1l-30.4-4.1c0,13.8,7.3,31.1,27.4,32.1c0.5,0,3-7.1,3-7.1L1282.1,298.6z"/>
	<path fill="none" stroke="#231E21" stroke-width="0.5" stroke-linecap="round" stroke-linejoin="round" stroke-miterlimit="10" d="
		M1242.6,296.1"/>
	
		<line fill="none" stroke="#FFFFFF" stroke-width="0.5" stroke-linecap="round" stroke-linejoin="round" stroke-miterlimit="10" x1="1278.4" y1="281.7" x2="1278.7" y2="291"/>
	<path fill="none" stroke="#FFFFFF" stroke-width="0.5" stroke-linecap="round" stroke-linejoin="round" stroke-miterlimit="10" d="
		M1278.4,281.8c0.4-1,1-2,1.8-2.8c2.6-2.6,6.9-2.6,9.5,0c2.1,2.1,2.1,5.5,0,7.6c-1.7,1.7-4.4,1.7-6.1,0c-1.3-1.3-1.3-3.5,0-4.8
		c1.1-1.1,2.8-1.1,3.9,0"/>
	<path fill="none" stroke="#FFFFFF" stroke-width="0.5" stroke-linecap="round" stroke-linejoin="round" stroke-miterlimit="10" d="
		M1278.4,281.8c-0.4-1-1-2-1.8-2.8c-2.6-2.6-6.9-2.6-9.5,0c-2.1,2.1-2.1,5.5,0,7.6c1.7,1.7,4.4,1.7,6.1,0c1.3-1.3,1.3-3.5,0-4.8
		c-1.1-1.1-2.8-1.1-3.9,0"/>
	<path fill="none" stroke="#231E21" stroke-width="0.5" stroke-linecap="round" stroke-linejoin="round" stroke-miterlimit="10" d="
		M1279.5,295.4c2.9,8.5,1.3,18.7-1,27.4"/>
	<path fill="none" stroke="#FFFFFF" stroke-width="0.5" stroke-linecap="round" stroke-linejoin="round" stroke-miterlimit="10" d="
		M1260.2,348.6c0.8,14.8,8,22.8,11.5,23.1c1.7,0.1,3.4-0.8,3.7-2.5c0.3-1.4-0.7-2.7-2-2.9c-1.1-0.2-2.2,0.5-2.4,1.6
		c-0.2,0.9,0.4,1.7,1.3,1.9"/>
	
		<path fill="#35120E" stroke="#FFFFFF" stroke-width="0.5" stroke-linecap="round" stroke-linejoin="round" stroke-miterlimit="10" d="
		M1258.7,433.7h35.1c0.1,0,0.2-0.1,0.2-0.2c0,0-1.5-1.9-1.6-1.9h-33.7V433.7z"/>
	<path fill="none" stroke="#231E21" stroke-width="0.5" stroke-linecap="round" stroke-linejoin="round" stroke-miterlimit="10" d="
		M1282.1,431.6"/>
	
		<path fill="#88775B" stroke="#FFFFFF" stroke-width="0.5" stroke-linecap="round" stroke-linejoin="round" stroke-miterlimit="10" d="
		M1290.8,431.6c1.4-0.6,1.7-2.2,0.2-2.7c-0.3-0.1-3.5,0.7-3.9,0.5c-1.6-0.5-3.1-1.1-3.9-1.3l2.4,3.5H1290.8z"/>
	
		<line fill="none" stroke="#231E21" stroke-width="0.5" stroke-linecap="round" stroke-linejoin="round" stroke-miterlimit="10" x1="1251" y1="355" x2="1250.5" y2="356.3"/>
	
		<polygon fill="#88775B" stroke="#FFFFFF" stroke-width="0.5" stroke-linecap="round" stroke-linejoin="round" stroke-miterlimit="10" points="
		1260.7,428.5 1272.1,423.4 1283.2,428.1 1285.6,431.6 1260.6,431.6 	"/>
	<path fill="none" stroke="#231E21" stroke-width="0.5" stroke-linecap="round" stroke-linejoin="round" stroke-miterlimit="10" d="
		M1294.6,431.6"/>
	
		<line fill="none" stroke="#FFFFFF" stroke-width="0.5" stroke-linecap="round" stroke-linejoin="round" stroke-miterlimit="10" x1="1279.4" y1="252" x2="1277.9" y2="252.3"/>
	<g>
		
			<path fill="#88775B" stroke="#FFFFFF" stroke-width="0.5" stroke-linecap="round" stroke-linejoin="round" stroke-miterlimit="10" d="
			M1278.1,238.8c0,0.1-1.8,1.5-4.1,1.5s-4.1-1.4-4.1-1.5c0-0.2,1.8-1.5,4.1-1.5S1278.1,238.8,1278.1,238.8z"/>
		
			<circle fill="#88775B" stroke="#FFFFFF" stroke-width="0.5" stroke-linecap="round" stroke-linejoin="round" stroke-miterlimit="10" cx="1273.9" cy="238.8" r="1"/>
	</g>
	<path fill="none" stroke="#FFFFFF" stroke-width="0.5" stroke-linecap="round" stroke-linejoin="round" stroke-miterlimit="10" d="
		M1270.7,220.7"/>
	
		<path fill="#88775B" stroke="#FFFFFF" stroke-width="0.5" stroke-linecap="round" stroke-linejoin="round" stroke-miterlimit="10" d="
		M1289.3,264.3"/>
	
		<path fill="#88775B" stroke="#FFFFFF" stroke-width="0.5" stroke-linecap="round" stroke-linejoin="round" stroke-miterlimit="10" d="
		M1296.7,340.3c0.5-14.2-5.7-22.4-11-23.9h-22.9c0,49.8-5.2,107.7,33,108.8v-69.7L1296.7,340.3z"/>
	
		<path fill="#88775B" stroke="#FFFFFF" stroke-width="0.5" stroke-linecap="round" stroke-linejoin="round" stroke-miterlimit="10" d="
		M1248.9,340.3c-0.5-14.2,4-22.6,9.3-24.1l28.3,0.1c0,49.8-20.2,113.4-36.7,113.4v-60.4L1248.9,340.3z"/>
	
		<path fill="#88775B" stroke="#FFFFFF" stroke-width="0.5" stroke-linecap="round" stroke-linejoin="round" stroke-miterlimit="10" d="
		M1285.7,316.3c7.1,0,15-48.7,11.5-49.4l-19.6,24.7l-19.5,24.6L1285.7,316.3z"/>
	<path fill="none" stroke="#FFFFFF" stroke-width="0.5" stroke-linecap="round" stroke-linejoin="round" stroke-miterlimit="10" d="
		M1282,316.3c-0.5,8.3-2.5,21.6-10,35.8"/>
	<path fill="none" stroke="#FFFFFF" stroke-width="0.5" stroke-linecap="round" stroke-linejoin="round" stroke-miterlimit="10" d="
		M1270.7,316.3c-0.3,4.2-1.3,10.8-5,17.9c-2,3.8-4.3,6.7-6.3,8.9"/>
	<path fill="none" stroke="#FFFFFF" stroke-width="0.5" stroke-linecap="round" stroke-linejoin="round" stroke-miterlimit="10" d="
		M1289.6,290c-0.4,6.9-8.2,21.6-14.3,26.3"/>
	<path fill="none" stroke="#FFFFFF" stroke-width="0.5" stroke-linecap="round" stroke-linejoin="round" stroke-miterlimit="10" d="
		M1270.9,258.3c-1.3,0-2.3-1-2.3-2.3c0-1,0.8-1.9,1.9-1.9c0.8,0,1.5,0.7,1.5,1.5c0,0.7-0.5,1.2-1.2,1.2c-0.5,0-1-0.4-1-1
		c0-0.4,0.3-0.8,0.8-0.8c0.3,0,0.6,0.3,0.6,0.6c0,0.3-0.2,0.5-0.5,0.5"/>
	<path fill="none" stroke="#FFFFFF" stroke-width="0.5" stroke-linecap="round" stroke-linejoin="round" stroke-miterlimit="10" d="
		M1273.7,259.7c-1.2,0-2.1-0.9-2.1-2.1c0-0.9,0.8-1.7,1.7-1.7c0.7,0,1.4,0.6,1.4,1.4c0,0.6-0.5,1.1-1.1,1.1c-0.5,0-0.9-0.4-0.9-0.9
		c0-0.4,0.3-0.7,0.7-0.7c0.3,0,0.6,0.2,0.6,0.6c0,0.2-0.2,0.4-0.4,0.4"/>
	<path fill="none" stroke="#FFFFFF" stroke-width="0.5" stroke-linecap="round" stroke-linejoin="round" stroke-miterlimit="10" d="
		M1277.2,260.3c-1.1,0-2-0.9-2-2c0-0.9,0.7-1.6,1.6-1.6c0.7,0,1.3,0.6,1.3,1.3c0,0.6-0.5,1-1,1s-0.8-0.4-0.8-0.8s0.3-0.7,0.7-0.7
		c0.3,0,0.5,0.2,0.5,0.5c0,0.2-0.2,0.4-0.4,0.4"/>
	<path fill="none" stroke="#FFFFFF" stroke-width="0.5" stroke-linecap="round" stroke-linejoin="round" stroke-miterlimit="10" d="
		M1280.3,259.7c-1.2,0-2.2-1-2.2-2.2c0-1,0.8-1.7,1.7-1.7c0.8,0,1.4,0.6,1.4,1.4c0,0.6-0.5,1.1-1.1,1.1c-0.5,0-0.9-0.4-0.9-0.9
		c0-0.4,0.3-0.7,0.7-0.7c0.3,0,0.6,0.3,0.6,0.6c0,0.3-0.2,0.5-0.5,0.5"/>
	
		<path fill="#C3996C" stroke="#FFFFFF" stroke-width="0.5" stroke-linecap="round" stroke-linejoin="round" stroke-miterlimit="10" d="
		M1258,229"/>
	<g>
		
			<path fill="#B24B17" stroke="#FFFFFF" stroke-width="0.5" stroke-linecap="round" stroke-linejoin="round" stroke-miterlimit="10" d="
			M1261.4,244.2c0.1-0.8,0.4-1.5,0.8-2.1C1261.8,242.6,1261.5,243.3,1261.4,244.2z"/>
		
			<path fill="#88775B" stroke="#FFFFFF" stroke-width="0.5" stroke-linecap="round" stroke-linejoin="round" stroke-miterlimit="10" d="
			M1283.7,253.8c-0.6,0-1.3,0-1.9,0.2c-0.4,0.1-1.8,1-2,1.2c-8.5-0.3-1.6-5.7-1.6-5.7s-3.2-2.4-6.8,3.3c3.5-4.8,0.8-10.5-4.7-14.1
			c0.7,2.1,5,9.9-0.8,11.4c-3.4,0.8-4.9-3.3-4.7-6c-0.4,2.3,0.4,5,2,7.5c-0.7,0.8-1.2,1.9-1.2,3.1c0,2.5,2,4.6,4.5,4.6
			c0.4,2.1,2.3,3.7,4.5,3.7c0.8,0,1.6-0.2,2.3-0.6c0.7,1.7,2.3,3,4.3,3c2.1,0,3.8-1.4,4.4-3.3c0.5,0.1,0.9,0.2,1.4,0.2
			c2.6,0,4.2-2.1,4.2-4.6C1287.6,255.2,1285.2,253.9,1283.7,253.8z"/>
	</g>
	<path fill="none" stroke="#FFFFFF" stroke-width="0.5" stroke-linecap="round" stroke-linejoin="round" stroke-miterlimit="10" d="
		M1271.6,252.9c-0.7,1.1-0.3,2.6,0.8,3.3c0.9,0.5,2.1,0.2,2.6-0.7c0.4-0.7,0.2-1.7-0.5-2.1c-0.6-0.3-1.3-0.1-1.7,0.4
		c-0.3,0.5-0.1,1.1,0.3,1.3c0.4,0.2,0.9,0.1,1.1-0.3c0.2-0.3,0.1-0.7-0.2-0.9"/>
	<path fill="none" stroke="#FFFFFF" stroke-width="0.5" stroke-linecap="round" stroke-linejoin="round" stroke-miterlimit="10" d="
		M1279.9,255.2c1.9-1.9,5-1.9,6.9,0c1.5,1.5,1.5,4,0,5.5c-1.2,1.2-3.2,1.2-4.4,0c-1-1-1-2.6,0-3.5c0.8-0.8,2-0.8,2.8,0
		c0.6,0.6,0.6,1.6,0,2.3c-0.5,0.5-1.3,0.5-1.8,0c-0.4-0.4-0.4-1,0-1.4"/>
	<path fill="none" stroke="#FFFFFF" stroke-width="0.5" stroke-linecap="round" stroke-linejoin="round" stroke-miterlimit="10" d="
		M1273.6,262.6c1.1,0.7,2.6,0.3,3.3-0.8c0.5-0.9,0.2-2.1-0.7-2.6c-0.7-0.4-1.7-0.2-2.1,0.5c-0.3,0.6-0.1,1.3,0.4,1.7
		c0.5,0.3,1.1,0.1,1.3-0.3c0.2-0.4,0.1-0.9-0.3-1.1c-0.3-0.2-0.7-0.1-0.9,0.2"/>
	<path fill="none" stroke="#FFFFFF" stroke-width="0.5" stroke-linecap="round" stroke-linejoin="round" stroke-miterlimit="10" d="
		M1263.3,251.8c-0.7,1.1-0.3,2.6,0.8,3.3c0.9,0.5,2.1,0.2,2.6-0.7c0.4-0.7,0.2-1.7-0.5-2.1c-0.6-0.3-1.3-0.1-1.7,0.4
		c-0.3,0.5-0.1,1.1,0.3,1.3c0.4,0.2,0.9,0.1,1.1-0.3c0.2-0.3,0.1-0.7-0.2-0.9"/>
	
		<path fill="#88775B" stroke="#FFFFFF" stroke-width="0.5" stroke-linecap="round" stroke-linejoin="round" stroke-miterlimit="10" d="
		M1266.1,250.2L1266.1,250.2c-4.5,0.7-5.7-6.1-3.9-8.1l0,0c1.3-1.6,3.2-1.5,4.4-0.3c0.9,0.9,0.8,2.7-0.2,3.7c-0.7,0.7-2,0.7-2.7,0
		c-0.6-0.6-0.6-1.6,0-2.2c0.5-0.5,1.3-0.5,1.7,0c0.4,0.4,0.4,1,0,1.4"/>
	<path fill="none" stroke="#FFFFFF" stroke-width="0.5" stroke-linecap="round" stroke-linejoin="round" stroke-miterlimit="10" d="
		M1264.2,223.1c1.1-2,3.7-2.7,5.7-1.6c1.6,0.9,2.2,3,1.3,4.6c-0.7,1.3-2.4,1.7-3.6,1c-1-0.6-1.4-1.9-0.8-2.9
		c0.5-0.8,1.5-1.1,2.3-0.6c0.7,0.4,0.9,1.2,0.5,1.9c-0.3,0.5-1,0.7-1.5,0.4c-0.4-0.2-0.6-0.8-0.3-1.2c0.2-0.3,0.6-0.5,1-0.3"/>
	<path fill="none" stroke="#FFFFFF" stroke-width="0.5" stroke-linecap="round" stroke-linejoin="round" stroke-miterlimit="10" d="
		M1261.3,237.5c2-1.2,2.6-3.7,1.5-5.7"/>
	<path fill="none" stroke="#FFFFFF" stroke-width="0.5" stroke-linecap="round" stroke-linejoin="round" stroke-miterlimit="10" d="
		M1279.5,230.9c-2.6-1.5-3.5-4.8-2-7.4"/>
	<g>
		<g>
			
				<path fill="#88775B" stroke="#FFFFFF" stroke-width="0.5" stroke-linecap="round" stroke-linejoin="round" stroke-miterlimit="10" d="
				M1246.7,358.1c0.6-4.3-2.2-10.5-2.7-11.3c-0.8-0.9,1.9-15,2-15.4l0,0l0,0c2.5-9.3,3.4-17.9-2.1-18.7c5.6-7.4,12.8-17.1,13.6-25.8
				c0.8-8.6-0.1-18.3-7-19.9l-0.5-0.1c-17.8-1.7-12.1,62.6-10.6,79.3l-2.5,8.9c-0.5,1.2,0.2,7.8,0.9,8.5c0.6-0.6,1.2-1.3,0.5-2.9
				c0-0.1,0-0.1,0.1-0.2c0.2,1.2,0.5,2.6,1.2,4c0.4-0.4,0.7-0.8,0.8-1.5c0.2,0.9,0.5,1.8,1,2.7c0.7-0.7,1.4-1.7,0.6-3.6
				c0-0.1,0.1-0.2,0.1-0.3c0.2,0.9,0.5,1.8,0.9,2.8c0.6-0.6,1.2-1.5,0.5-3.2c0.9-1.7,0.5-4.1,0.2-5.2l0.8-1c0,0-0.5,3.8,1.7,5.7
				c0.7-0.1,1.4-0.7,0.3-2.3L1246.7,358.1z"/>
			
				<path fill="#88775B" stroke="#FFFFFF" stroke-width="0.5" stroke-linecap="round" stroke-linejoin="round" stroke-miterlimit="10" d="
				M1246.7,358.1c0.6-4.3-2.2-10.5-2.7-11.3c-0.8-0.9,1.5-12.6,2-15.4l0,0l0,0c2.5-9.3,3.4-17.9-2.1-18.7
				c5.6-7.4,12.8-17.1,13.6-25.8c0.8-8.6-0.1-18.3-7-19.9l-0.5-0.1c-18-1.7-12.4,63.2-10.6,79.3l-2.5,8.9c-0.5,1.2,0.2,7.8,0.9,8.5
				c0.6-0.6,1.2-1.3,0.5-2.9c0-0.1,0-0.1,0.1-0.2c0.2,1.2,0.5,2.6,1.2,4c0.4-0.4,0.7-0.8,0.8-1.5c0.2,0.9,0.5,1.8,1,2.7
				c0.7-0.7,1.4-1.7,0.6-3.6c0-0.1,0.1-0.2,0.1-0.3c0.2,0.9,0.5,1.8,0.9,2.8c0.6-0.6,1.2-1.5,0.5-3.2c0.9-1.7,0.5-4.1,0.2-5.2l0.8-1
				c0,0-0.5,3.8,1.7,5.7c0.7-0.1,1.4-0.7,0.3-2.3L1246.7,358.1z"/>
			<g>
				
					<path fill="#35120E" stroke="#FFFFFF" stroke-width="0.5" stroke-linecap="round" stroke-linejoin="round" stroke-miterlimit="10" d="
					M1236.3,356.7"/>
				
					<path fill="#35120E" stroke="#FFFFFF" stroke-width="0.5" stroke-linecap="round" stroke-linejoin="round" stroke-miterlimit="10" d="
					M1237.7,359.3"/>
				
					<path fill="#35120E" stroke="#FFFFFF" stroke-width="0.5" stroke-linecap="round" stroke-linejoin="round" stroke-miterlimit="10" d="
					M1237.8,363.6"/>
				
					<line fill="none" stroke="#FFFFFF" stroke-width="0.5" stroke-linecap="round" stroke-linejoin="round" stroke-miterlimit="10" x1="1238.3" y1="360.8" x2="1238.3" y2="360.8"/>
				
					<path fill="#88775B" stroke="#FFFFFF" stroke-width="0.5" stroke-linecap="round" stroke-linejoin="round" stroke-miterlimit="10" d="
					M1238.3,355.4c0.2,0-0.9,4.6,1.2,9.2l0,0c0.6-0.6,1.2-1.5,0.5-3.2l0,0c1.6-2.9-0.2-5.9-0.1-5.9"/>
				
					<path fill="#88775B" stroke="#FFFFFF" stroke-width="0.5" stroke-linecap="round" stroke-linejoin="round" stroke-miterlimit="10" d="
					M1239.9,355.5c0.3,0-1,5.1,1.4,10.3l0,0c0.7-0.7,1.4-1.7,0.6-3.6l0,0c1.7-3.2-0.2-6.6-0.1-6.6"/>
				
					<path fill="#88775B" stroke="#FFFFFF" stroke-width="0.5" stroke-linecap="round" stroke-linejoin="round" stroke-miterlimit="10" d="
					M1241.7,355.6c0.2,0-0.9,4.6,1.2,9.2l0,0c0.6-0.6,1.2-1.5,0.5-3.2l0,0c0.9-1.7,0.5-4.1,0.1-5.3"/>
			</g>
			
				<line fill="none" stroke="#FFFFFF" stroke-width="0.5" stroke-linecap="round" stroke-linejoin="round" stroke-miterlimit="10" x1="1237.9" y1="329.6" x2="1244" y2="346.8"/>
		</g>
		
			<path fill="none" stroke="#FFFFFF" stroke-width="0.5" stroke-linecap="round" stroke-linejoin="round" stroke-miterlimit="10" d="
			M1243.8,307.4c12.6-16.8,11.9-30.2,8.4-33.7c-1.8-1.7-4.4-2.2-6.3-0.6c-1.5,1.3-1.7,3.5-0.5,5.1c1,1.2,2.8,1.4,4,0.4
			c1-0.8,1.1-2.3,0.3-3.2"/>
	</g>
	
		<path fill="#88775B" stroke="#FFFFFF" stroke-width="0.5" stroke-linecap="round" stroke-linejoin="round" stroke-miterlimit="10" d="
		M1258.9,316.3c-7.1,0-15.1-49.4-4.2-50.3l31.7,50.2L1258.9,316.3z"/>
	<path fill="none" stroke="#FFFFFF" stroke-width="0.5" stroke-linecap="round" stroke-linejoin="round" stroke-miterlimit="10" d="
		M1255,290c0.4,6.9,8.2,21.6,14.3,26.3"/>
</g>
<g>
	<g>
		<g>
			<g>
				<g>
					<path fill="none" stroke="#FFFFFF" stroke-width="0.5" stroke-miterlimit="10" d="M-0.4,499.5C42.5,483,49.5,428,94.2,428
						c6.4,0,11.9,1.3,16.5,3.5c0.5,0.2,0.9,0.4,1.4,0.7c0.9,0.5,1.7,1,2.5,1.5c2,1.3,3.8,2.9,5.4,4.5c1.9,2,3.4,4.2,4.6,6.5
						c0.2,0.4,0.4,0.8,0.6,1.2c0.4,0.8,0.7,1.6,1,2.4c1,2.8,1.5,5.7,1.5,8.6c0,1.6-0.1,3.3-0.5,4.9c-1,5.2-3.9,9.9-8.1,13.2
						c-4.8,3.7-24.7,10.2-28.3-8.8c2.4,2.4,5.7,4,9.1,4.3c4.4,0.4,9.3-0.9,11-5.3c1.6-4.3-1-8.9-4-11.8c-4.5-4.4-11-6.3-17.3-5.8
						c-10.1,0.7-19.5,7.5-23.3,16.7c-3.1,7.4-2.6,16.2,1.1,23.2c2.9,5.5,10.7,10.7,16.2,13.3c1.1,0.5,2.2,0.9,3.4,1.4
						c4.1,1.4,9,2.2,14.5,2.2c10.2,0,18.7-1.9,26.2-4.8 M51,502.9c0-2.8-2.3-5-5-5c-2.8,0-5,2.2-5,5s2.3,5,5,5
						C48.8,507.9,51,505.6,51,502.9z"/>
				</g>
			</g>
			<g>
				<g>
					<path fill="none" stroke="#FFFFFF" stroke-width="0.5" stroke-miterlimit="10" d="M127.6,499.5c42.9-16.5,49.9-71.5,94.6-71.5
						c6.4,0,11.9,1.3,16.5,3.5c0.5,0.2,0.9,0.4,1.4,0.7c0.9,0.5,1.7,1,2.5,1.5c2,1.3,3.8,2.9,5.4,4.5c1.9,2,3.4,4.2,4.6,6.5
						c0.2,0.4,0.4,0.8,0.6,1.2c0.4,0.8,0.7,1.6,1,2.4c1,2.8,1.5,5.7,1.5,8.6c0,1.6-0.1,3.3-0.5,4.9c-1,5.2-3.9,9.9-8.1,13.2
						c-4.8,3.7-24.7,10.2-28.3-8.8c2.4,2.4,5.7,4,9.1,4.3c4.4,0.4,9.3-0.9,11-5.3c1.6-4.3-1-8.9-4-11.8c-4.5-4.4-11-6.3-17.3-5.8
						c-10.1,0.7-19.5,7.5-23.3,16.7c-3.1,7.4-2.6,16.2,1.1,23.2c2.9,5.5,10.7,10.7,16.2,13.3c1.1,0.5,2.2,0.9,3.4,1.4
						c4.1,1.4,9,2.2,14.5,2.2c10.2,0,18.7-1.9,26.2-4.8 M179,502.9c0-2.8-2.3-5-5-5c-2.8,0-5,2.2-5,5s2.3,5,5,5
						C176.8,507.9,179,505.6,179,502.9z"/>
				</g>
			</g>
			<g>
				<g>
					<path fill="none" stroke="#FFFFFF" stroke-width="0.5" stroke-miterlimit="10" d="M255.6,499.5c42.9-16.5,49.9-71.5,94.6-71.5
						c6.4,0,11.9,1.3,16.5,3.5c0.5,0.2,0.9,0.4,1.4,0.7c0.9,0.5,1.7,1,2.5,1.5c2,1.3,3.8,2.9,5.4,4.5c1.9,2,3.4,4.2,4.6,6.5
						c0.2,0.4,0.4,0.8,0.6,1.2c0.4,0.8,0.7,1.6,1,2.4c1,2.8,1.5,5.7,1.5,8.6c0,1.6-0.1,3.3-0.5,4.9c-1,5.2-3.9,9.9-8.1,13.2
						c-4.8,3.7-24.7,10.2-28.3-8.8c2.4,2.4,5.7,4,9.1,4.3c4.4,0.4,9.3-0.9,11-5.3c1.6-4.3-1-8.9-4-11.8c-4.5-4.4-11-6.3-17.3-5.8
						c-10.1,0.7-19.5,7.5-23.3,16.7c-3.1,7.4-2.6,16.2,1.1,23.2c2.9,5.5,10.7,10.7,16.2,13.3c1.1,0.5,2.2,0.9,3.4,1.4
						c4.1,1.4,9,2.2,14.5,2.2c10.2,0,18.7-1.9,26.2-4.8 M307,502.9c0-2.8-2.3-5-5-5c-2.8,0-5,2.2-5,5s2.3,5,5,5
						C304.8,507.9,307,505.6,307,502.9z"/>
				</g>
			</g>
			<g>
				<g>
					<path fill="none" stroke="#FFFFFF" stroke-width="0.5" stroke-miterlimit="10" d="M383.6,499.5c42.9-16.5,49.9-71.5,94.6-71.5
						c6.4,0,11.9,1.3,16.5,3.5c0.5,0.2,0.9,0.4,1.4,0.7c0.9,0.5,1.7,1,2.5,1.5c2,1.3,3.8,2.9,5.4,4.5c1.9,2,3.4,4.2,4.6,6.5
						c0.2,0.4,0.4,0.8,0.6,1.2c0.4,0.8,0.7,1.6,1,2.4c1,2.8,1.5,5.7,1.5,8.6c0,1.6-0.1,3.3-0.5,4.9c-1,5.2-3.9,9.9-8.1,13.2
						c-4.8,3.7-24.7,10.2-28.3-8.8c2.4,2.4,5.7,4,9.1,4.3c4.4,0.4,9.3-0.9,11-5.3c1.6-4.3-1-8.9-4-11.8c-4.5-4.4-11-6.3-17.3-5.8
						c-10.1,0.7-19.5,7.5-23.3,16.7c-3.1,7.4-2.6,16.2,1.1,23.2c2.9,5.5,10.7,10.7,16.2,13.3c1.1,0.5,2.2,0.9,3.4,1.4
						c4.1,1.4,9,2.2,14.5,2.2c10.2,0,18.7-1.9,26.2-4.8 M435,502.9c0-2.8-2.3-5-5-5c-2.8,0-5,2.2-5,5s2.3,5,5,5
						C432.8,507.9,435,505.6,435,502.9z"/>
				</g>
			</g>
			<g>
				<g>
					<path fill="none" stroke="#FFFFFF" stroke-width="0.5" stroke-miterlimit="10" d="M511.6,499.5c42.9-16.5,49.9-71.5,94.6-71.5
						c6.4,0,11.9,1.3,16.5,3.5c0.5,0.2,0.9,0.4,1.4,0.7c0.9,0.5,1.7,1,2.5,1.5c2,1.3,3.8,2.9,5.4,4.5c1.9,2,3.4,4.2,4.6,6.5
						c0.2,0.4,0.4,0.8,0.6,1.2c0.4,0.8,0.7,1.6,1,2.4c1,2.8,1.5,5.7,1.5,8.6c0,1.6-0.1,3.3-0.5,4.9c-1,5.2-3.9,9.9-8.1,13.2
						c-4.8,3.7-24.7,10.2-28.3-8.8c2.4,2.4,5.7,4,9.1,4.3c4.4,0.4,9.3-0.9,11-5.3c1.6-4.3-1-8.9-4-11.8c-4.5-4.4-11-6.3-17.3-5.8
						c-10.1,0.7-19.5,7.5-23.3,16.7c-3.1,7.4-2.6,16.2,1.1,23.2c2.9,5.5,10.7,10.7,16.2,13.3c1.1,0.5,2.2,0.9,3.4,1.4
						c4.1,1.4,9,2.2,14.5,2.2c10.2,0,18.7-1.9,26.2-4.8 M563,502.9c0-2.8-2.3-5-5-5s-5,2.2-5,5s2.3,5,5,5S563,505.6,563,502.9z"/>
				</g>
			</g>
			<g>
				<g>
					<path fill="none" stroke="#FFFFFF" stroke-width="0.5" stroke-miterlimit="10" d="M639.6,499.5c42.9-16.5,49.9-71.5,94.6-71.5
						c6.4,0,11.9,1.3,16.5,3.5c0.5,0.2,0.9,0.4,1.4,0.7c0.9,0.5,1.7,1,2.5,1.5c2,1.3,3.8,2.9,5.4,4.5c1.9,2,3.4,4.2,4.6,6.5
						c0.2,0.4,0.4,0.8,0.6,1.2c0.4,0.8,0.7,1.6,1,2.4c1,2.8,1.5,5.7,1.5,8.6c0,1.6-0.1,3.3-0.5,4.9c-1,5.2-3.9,9.9-8.1,13.2
						c-4.8,3.7-24.7,10.2-28.3-8.8c2.4,2.4,5.7,4,9.1,4.3c4.4,0.4,9.3-0.9,11-5.3c1.6-4.3-1-8.9-4-11.8c-4.5-4.4-11-6.3-17.3-5.8
						c-10.1,0.7-19.5,7.5-23.3,16.7c-3.1,7.4-2.6,16.2,1.1,23.2c2.9,5.5,10.7,10.7,16.2,13.3c1.1,0.5,2.2,0.9,3.4,1.4
						c4.1,1.4,9,2.2,14.5,2.2c10.2,0,18.7-1.9,26.2-4.8 M691,502.9c0-2.8-2.3-5-5-5s-5,2.2-5,5s2.3,5,5,5S691,505.6,691,502.9z"/>
				</g>
			</g>
			<g>
				<g>
					<path fill="none" stroke="#FFFFFF" stroke-width="0.5" stroke-miterlimit="10" d="M767.6,499.5c42.9-16.5,49.9-71.5,94.6-71.5
						c6.4,0,11.9,1.3,16.5,3.5c0.5,0.2,0.9,0.4,1.4,0.7c0.9,0.5,1.7,1,2.5,1.5c2,1.3,3.8,2.9,5.4,4.5c1.9,2,3.4,4.2,4.6,6.5
						c0.2,0.4,0.4,0.8,0.6,1.2c0.4,0.8,0.7,1.6,1,2.4c1,2.8,1.5,5.7,1.5,8.6c0,1.6-0.1,3.3-0.5,4.9c-1,5.2-3.9,9.9-8.1,13.2
						c-4.8,3.7-24.7,10.2-28.3-8.8c2.4,2.4,5.7,4,9.1,4.3c4.4,0.4,9.3-0.9,11-5.3c1.6-4.3-1-8.9-4-11.8c-4.5-4.4-11-6.3-17.3-5.8
						c-10.1,0.7-19.5,7.5-23.3,16.7c-3.1,7.4-2.6,16.2,1.1,23.2c2.9,5.5,10.7,10.7,16.2,13.3c1.1,0.5,2.2,0.9,3.4,1.4
						c4.1,1.4,9,2.2,14.5,2.2c10.2,0,18.7-1.9,26.2-4.8 M819,502.9c0-2.8-2.3-5-5-5s-5,2.2-5,5s2.3,5,5,5S819,505.6,819,502.9z"/>
				</g>
			</g>
			<g>
				<g>
					<path fill="none" stroke="#FFFFFF" stroke-width="0.5" stroke-miterlimit="10" d="M895.6,499.5c42.9-16.5,49.9-71.5,94.6-71.5
						c6.4,0,11.9,1.3,16.5,3.5c0.5,0.2,0.9,0.4,1.4,0.7c0.9,0.5,1.7,1,2.5,1.5c2,1.3,3.8,2.9,5.4,4.5c1.9,2,3.4,4.2,4.6,6.5
						c0.2,0.4,0.4,0.8,0.6,1.2c0.4,0.8,0.7,1.6,1,2.4c1,2.8,1.5,5.7,1.5,8.6c0,1.6-0.1,3.3-0.5,4.9c-1,5.2-3.9,9.9-8.1,13.2
						c-4.8,3.7-24.7,10.2-28.3-8.8c2.4,2.4,5.7,4,9.1,4.3c4.4,0.4,9.3-0.9,11-5.3c1.6-4.3-1-8.9-4-11.8c-4.5-4.4-11-6.3-17.3-5.8
						c-10.1,0.7-19.5,7.5-23.3,16.7c-3.1,7.4-2.6,16.2,1.1,23.2c2.9,5.5,10.7,10.7,16.2,13.3c1.1,0.5,2.2,0.9,3.4,1.4
						c4.1,1.4,9,2.2,14.5,2.2c10.2,0,18.7-1.9,26.2-4.8 M947,502.9c0-2.8-2.3-5-5-5s-5,2.2-5,5s2.3,5,5,5S947,505.6,947,502.9z"/>
				</g>
			</g>
			<g>
				<g>
					<path fill="none" stroke="#FFFFFF" stroke-width="0.5" stroke-miterlimit="10" d="M1023.6,499.5c42.9-16.5,49.9-71.5,94.6-71.5
						c6.4,0,11.9,1.3,16.5,3.5c0.5,0.2,0.9,0.4,1.4,0.7c0.9,0.5,1.7,1,2.5,1.5c2,1.3,3.8,2.9,5.4,4.5c1.9,2,3.4,4.2,4.6,6.5
						c0.2,0.4,0.4,0.8,0.6,1.2c0.4,0.8,0.7,1.6,1,2.4c1,2.8,1.5,5.7,1.5,8.6c0,1.6-0.1,3.3-0.5,4.9c-1,5.2-3.9,9.9-8.1,13.2
						c-4.8,3.7-24.7,10.2-28.3-8.8c2.4,2.4,5.7,4,9.1,4.3c4.4,0.4,9.3-0.9,11-5.3c1.6-4.3-1-8.9-4-11.8c-4.5-4.4-11-6.3-17.3-5.8
						c-10.1,0.7-19.5,7.5-23.3,16.7c-3.1,7.4-2.6,16.2,1.1,23.2c2.9,5.5,10.7,10.7,16.2,13.3c1.1,0.5,2.2,0.9,3.4,1.4
						c4.1,1.4,9,2.2,14.5,2.2c10.2,0,18.7-1.9,26.2-4.8 M1075,502.9c0-2.8-2.3-5-5-5s-5,2.2-5,5s2.3,5,5,5S1075,505.6,1075,502.9z"
						/>
				</g>
			</g>
			<g>
				<g>
					<path fill="none" stroke="#FFFFFF" stroke-width="0.5" stroke-miterlimit="10" d="M1151.6,499.5c42.9-16.5,49.9-71.5,94.6-71.5
						c6.4,0,11.9,1.3,16.5,3.5c0.5,0.2,0.9,0.4,1.4,0.7c0.9,0.5,1.7,1,2.5,1.5c2,1.3,3.8,2.9,5.4,4.5c1.9,2,3.4,4.2,4.6,6.5
						c0.2,0.4,0.4,0.8,0.6,1.2c0.4,0.8,0.7,1.6,1,2.4c1,2.8,1.5,5.7,1.5,8.6c0,1.6-0.1,3.3-0.5,4.9c-1,5.2-3.9,9.9-8.1,13.2
						c-4.8,3.7-24.7,10.2-28.3-8.8c2.4,2.4,5.7,4,9.1,4.3c4.4,0.4,9.3-0.9,11-5.3c1.6-4.3-1-8.9-4-11.8c-4.5-4.4-11-6.3-17.3-5.8
						c-10.1,0.7-19.5,7.5-23.3,16.7c-3.1,7.4-2.6,16.2,1.1,23.2c2.9,5.5,10.7,10.7,16.2,13.3c1.1,0.5,2.2,0.9,3.4,1.4
						c4.1,1.4,9,2.2,14.5,2.2c10.2,0,18.7-1.9,26.2-4.8 M1203,502.9c0-2.8-2.3-5-5-5s-5,2.2-5,5s2.3,5,5,5S1203,505.6,1203,502.9z"
						/>
				</g>
			</g>
			<g>
				<g>
					<path fill="none" stroke="#FFFFFF" stroke-width="0.5" stroke-miterlimit="10" d="M1279.6,499.5c42.9-16.5,49.9-71.5,94.6-71.5
						c6.4,0,11.9,1.3,16.5,3.5c0.5,0.2,0.9,0.4,1.4,0.7c0.9,0.5,1.7,1,2.5,1.5c2,1.3,3.8,2.9,5.4,4.5c1.9,2,3.4,4.2,4.6,6.5
						c0.2,0.4,0.4,0.8,0.6,1.2c0.4,0.8,0.7,1.6,1,2.4c1,2.8,1.5,5.7,1.5,8.6c0,1.6-0.1,3.3-0.5,4.9c-1,5.2-3.9,9.9-8.1,13.2
						c-4.8,3.7-24.7,10.2-28.3-8.8c2.4,2.4,5.7,4,9.1,4.3c4.4,0.4,9.3-0.9,11-5.3c1.6-4.3-1-8.9-4-11.8c-4.5-4.4-11-6.3-17.3-5.8
						c-10.1,0.7-19.5,7.5-23.3,16.7c-3.1,7.4-2.6,16.2,1.1,23.2c2.9,5.5,10.7,10.7,16.2,13.3c1.1,0.5,2.2,0.9,3.4,1.4
						c4.1,1.4,9,2.2,14.5,2.2c10.2,0,18.7-1.9,26.2-4.8 M1331,502.9c0-2.8-2.3-5-5-5s-5,2.2-5,5s2.3,5,5,5S1331,505.6,1331,502.9z"
						/>
				</g>
			</g>
			<g>
				<g>
					<path fill="none" stroke="#FFFFFF" stroke-width="0.5" stroke-miterlimit="10" d="M1407.6,499.5c42.9-16.5,49.9-71.5,94.6-71.5
						c6.4,0,11.9,1.3,16.5,3.5c0.5,0.2,0.9,0.4,1.4,0.7c0.9,0.5,1.7,1,2.5,1.5c2,1.3,3.8,2.9,5.4,4.5c1.9,2,3.4,4.2,4.6,6.5
						c0.2,0.4,0.4,0.8,0.6,1.2c0.4,0.8,0.7,1.6,1,2.4c1,2.8,1.5,5.7,1.5,8.6c0,1.6-0.1,3.3-0.5,4.9c-1,5.2-3.9,9.9-8.1,13.2
						c-4.8,3.7-24.7,10.2-28.3-8.8c2.4,2.4,5.7,4,9.1,4.3c4.4,0.4,9.3-0.9,11-5.3c1.6-4.3-1-8.9-4-11.8c-4.5-4.4-11-6.3-17.3-5.8
						c-10.1,0.7-19.5,7.5-23.3,16.7c-3.1,7.4-2.6,16.2,1.1,23.2c2.9,5.5,10.7,10.7,16.2,13.3c1.1,0.5,2.2,0.9,3.4,1.4
						c4.1,1.4,9,2.2,14.5,2.2c10.2,0,18.7-1.9,26.2-4.8 M1459,502.9c0-2.8-2.3-5-5-5s-5,2.2-5,5s2.3,5,5,5S1459,505.6,1459,502.9z"
						/>
				</g>
			</g>
			<g>
				<g>
					<path fill="none" stroke="#FFFFFF" stroke-width="0.5" stroke-miterlimit="10" d="M1535.6,499.5c42.9-16.5,49.9-71.5,94.6-71.5
						c6.4,0,11.9,1.3,16.5,3.5c0.5,0.2,0.9,0.4,1.4,0.7c0.9,0.5,1.7,1,2.5,1.5c2,1.3,3.8,2.9,5.4,4.5c1.9,2,3.4,4.2,4.6,6.5
						c0.2,0.4,0.4,0.8,0.6,1.2c0.4,0.8,0.7,1.6,1,2.4c1,2.8,1.5,5.7,1.5,8.6c0,1.6-0.1,3.3-0.5,4.9c-1,5.2-3.9,9.9-8.1,13.2
						c-4.8,3.7-24.7,10.2-28.3-8.8c2.4,2.4,5.7,4,9.1,4.3c4.4,0.4,9.3-0.9,11-5.3c1.6-4.3-1-8.9-4-11.8c-4.5-4.4-11-6.3-17.3-5.8
						c-10.1,0.7-19.5,7.5-23.3,16.7c-3.1,7.4-2.6,16.2,1.1,23.2c2.9,5.5,10.7,10.7,16.2,13.3c1.1,0.5,2.2,0.9,3.4,1.4
						c4.1,1.4,9,2.2,14.5,2.2c10.2,0,18.7-1.9,26.2-4.8 M1587,502.9c0-2.8-2.3-5-5-5s-5,2.2-5,5s2.3,5,5,5S1587,505.6,1587,502.9z"
						/>
				</g>
			</g>
			<g>
				<g>
					<path fill="none" stroke="#FFFFFF" stroke-width="0.5" stroke-miterlimit="10" d="M1663.6,499.5c42.9-16.5,49.9-71.5,94.6-71.5
						c6.4,0,11.9,1.3,16.5,3.5c0.5,0.2,0.9,0.4,1.4,0.7c0.9,0.5,1.7,1,2.5,1.5c2,1.3,3.8,2.9,5.4,4.5c1.9,2,3.4,4.2,4.6,6.5
						c0.2,0.4,0.4,0.8,0.6,1.2c0.4,0.8,0.7,1.6,1,2.4c1,2.8,1.5,5.7,1.5,8.6c0,1.6-0.1,3.3-0.5,4.9c-1,5.2-3.9,9.9-8.1,13.2
						c-4.8,3.7-24.7,10.2-28.3-8.8c2.4,2.4,5.7,4,9.1,4.3c4.4,0.4,9.3-0.9,11-5.3c1.6-4.3-1-8.9-4-11.8c-4.5-4.4-11-6.3-17.3-5.8
						c-10.1,0.7-19.5,7.5-23.3,16.7c-3.1,7.4-2.6,16.2,1.1,23.2c2.9,5.5,10.7,10.7,16.2,13.3c1.1,0.5,2.2,0.9,3.4,1.4
						c4.1,1.4,9,2.2,14.5,2.2c10.2,0,18.7-1.9,26.2-4.8 M1715,502.9c0-2.8-2.3-5-5-5s-5,2.2-5,5s2.3,5,5,5S1715,505.6,1715,502.9z"
						/>
				</g>
			</g>
			<g>
				<g>
					<path fill="none" stroke="#FFFFFF" stroke-width="0.5" stroke-miterlimit="10" d="M1791.6,499.5c42.9-16.5,49.9-71.5,94.6-71.5
						c6.4,0,11.9,1.3,16.5,3.5c0.5,0.2,0.9,0.4,1.4,0.7c0.9,0.5,1.7,1,2.5,1.5c2,1.3,3.8,2.9,5.4,4.5c1.9,2,3.4,4.2,4.6,6.5
						c0.2,0.4,0.4,0.8,0.6,1.2c0.4,0.8,0.7,1.6,1,2.4c1,2.8,1.5,5.7,1.5,8.6c0,1.6-0.1,3.3-0.5,4.9c-1,5.2-3.9,9.9-8.1,13.2
						c-4.8,3.7-24.7,10.2-28.3-8.8c2.4,2.4,5.7,4,9.1,4.3c4.4,0.4,9.3-0.9,11-5.3c1.6-4.3-1-8.9-4-11.8c-4.5-4.4-11-6.3-17.3-5.8
						c-10.1,0.7-19.5,7.5-23.3,16.7c-3.1,7.4-2.6,16.2,1.1,23.2c2.9,5.5,10.7,10.7,16.2,13.3c1.1,0.5,2.2,0.9,3.4,1.4
						c4.1,1.4,9,2.2,14.5,2.2c10.2,0,18.7-1.9,26.2-4.8 M1843,502.9c0-2.8-2.3-5-5-5s-5,2.2-5,5s2.3,5,5,5S1843,505.6,1843,502.9z"
						/>
				</g>
			</g>
		</g>
	</g>
</g>
<g>
	<g>
		<path fill="#88775B" stroke="#FFFFFF" stroke-width="0.75" stroke-linecap="round" stroke-miterlimit="10" d="M305.2,324.9
			c-2.4,0.1-4.7-0.6-6.6-2.1c-2.2-1.7-3.6-4.1-4-6.8c-0.3-2.3,0.3-4.5,1.6-6.4c1.4-1.8,3.4-3,5.7-3.3c1.9-0.3,3.8,0.2,5.3,1.4
			c1.5,1.2,2.5,2.8,2.8,4.7c0.2,1.6-0.2,3.2-1.2,4.5s-2.4,2.1-4,2.3c-0.8,0.1-1.6-0.5-1.7-1.3c-0.1-0.8,0.5-1.6,1.3-1.7
			s1.5-0.5,2-1.2c0.5-0.6,0.7-1.4,0.6-2.2c-0.2-1.1-0.7-2.1-1.6-2.7c-0.9-0.7-1.9-0.9-3.1-0.8c-1.5,0.2-2.8,1-3.6,2.1
			c-0.9,1.2-1.3,2.6-1.1,4.1c0.3,1.9,1.3,3.6,2.8,4.8c1.6,1.2,3.5,1.7,5.4,1.4c5.2-0.7,8.8-5.5,8.1-10.7
			c-0.9-6.6-7.2-11.3-13.9-10.4c-8,1-12.5,10.1-13.9,15.3c-0.2,0.8-1.1,1.3-1.9,1.1c-0.8-0.2-1.3-1.1-1.1-1.9
			c1.6-5.9,6.9-16.3,16.5-17.5c8.4-1.1,16.1,4.8,17.3,13c1,6.9-3.8,13.2-10.7,14.2C305.9,324.9,305.6,324.9,305.2,324.9z"/>
	</g>
	<path fill="#88775B" stroke="#FFFFFF" stroke-width="0.75" stroke-linecap="round" stroke-miterlimit="10" d="M1153.1,99.2
		c0,0-111.7,133.7-31.4,282.6c-145.5-44.1-486.5-32.1-579.9,13.1C483,349.5,481,170.3,508.9,115.8C564.9,93.9,1103,70.3,1153.1,99.2
		z"/>
	<g>
		<path fill="#88775B" stroke="#FFFFFF" stroke-width="0.75" stroke-linecap="round" stroke-miterlimit="10" d="M833.7,487.6
			c-4.2,0.1-7.8-3.2-7.9-7.4l-14.7-417c-0.1-4.2,3.2-7.8,7.4-7.9s7.8,3.2,7.9,7.4l14.7,417C841.2,483.9,837.9,487.5,833.7,487.6z"/>
	</g>
	<polyline fill="none" stroke="#FFFFFF" stroke-width="0.75" stroke-linecap="round" stroke-miterlimit="10" points="1071.1,87.6 
		846.2,459.1 980,83.2 	"/>
	<polyline fill="none" stroke="#FFFFFF" stroke-width="0.75" stroke-linecap="round" stroke-miterlimit="10" points="917,91.2 
		846.2,459.1 833.2,88.4 	"/>
	<polyline fill="none" stroke="#FFFFFF" stroke-width="0.75" stroke-linecap="round" stroke-miterlimit="10" points="803.6,89.5 
		824.8,452.6 738.3,91.8 	"/>
	<polyline fill="none" stroke="#FFFFFF" stroke-width="0.75" stroke-linecap="round" stroke-miterlimit="10" points="671.1,96.5 
		824.8,452.6 600.8,102.1 	"/>
	
		<line fill="none" stroke="#FFFFFF" stroke-width="0.75" stroke-linecap="round" stroke-miterlimit="10" x1="538.5" y1="109.3" x2="825" y2="459.9"/>
	<g>
		<path fill="#88775B" stroke="#FFFFFF" stroke-width="0.75" stroke-linecap="round" stroke-miterlimit="10" d="M1491.3,296.3
			c-10.5,0.4-20.4-6-24.1-16.3c-5.7-15.8,2.6-33.3,18.4-39c9.5-3.4,19.7-2.9,28.8,1.4c9.1,4.3,15.9,14.3,19.3,23.8
			c0.3,0.8,1.3,3.1,0.5,3.3c-0.8,0.3-2.2-1.6-2.5-2.4c-3.1-8.7-10.2-18-18.6-22s-17.8-4.4-26.5-1.3c-14.2,5.1-21.7,20.8-16.6,35.1
			c4,11.2,16.4,17.1,27.7,13.1c8.8-3.2,13.4-12.9,10.3-21.7c-1.2-3.3-3.6-6-6.8-7.5c-3.2-1.5-6.8-1.7-10.2-0.5
			c-5.4,1.9-8.2,7.8-6.2,13.2c1.5,4.1,6,6.3,10.2,4.8c1.5-0.5,2.7-1.7,3.4-3.1c0.7-1.5,0.8-3.1,0.2-4.6c-0.8-2.4-3.4-3.6-5.8-2.7
			c-0.8,0.3-1.7-0.1-2-0.9s0.1-1.7,0.9-2c3.9-1.4,8.3,0.6,9.7,4.6c0.8,2.3,0.7,4.8-0.3,7s-2.9,3.9-5.2,4.7c-5.7,2-12-0.9-14.1-6.7
			c-2.5-7,1.1-14.6,8.1-17.1c8.5-3,17.9,1.4,20.9,9.9c3.7,10.4-1.7,21.9-12.1,25.7C1496.3,295.7,1493.8,296.2,1491.3,296.3z"/>
	</g>
	
		<rect x="543.6" y="447.3" transform="matrix(-0.9994 3.525495e-02 -3.525495e-02 -0.9994 1110.4344 902.4667)" fill="#88775B" stroke="#FFFFFF" stroke-width="0.75" stroke-linecap="round" stroke-miterlimit="10" width="7.3" height="27.4"/>
	
		<rect x="581.7" y="446" transform="matrix(-0.9994 3.525495e-02 -3.525495e-02 -0.9994 1186.5698 898.5229)" fill="#88775B" stroke="#FFFFFF" stroke-width="0.75" stroke-linecap="round" stroke-miterlimit="10" width="7.3" height="27.4"/>
	
		<rect x="625.1" y="443.2" transform="matrix(-0.9994 3.525495e-02 -3.525495e-02 -0.9994 1273.2472 891.3947)" fill="#88775B" stroke="#FFFFFF" stroke-width="0.75" stroke-linecap="round" stroke-miterlimit="10" width="7.3" height="27.4"/>
	
		<rect x="669.8" y="440.4" transform="matrix(-0.9994 3.525495e-02 -3.525495e-02 -0.9994 1362.5168 884.2203)" fill="#88775B" stroke="#FFFFFF" stroke-width="0.75" stroke-linecap="round" stroke-miterlimit="10" width="7.3" height="27.4"/>
	
		<rect x="715.2" y="436.2" transform="matrix(-0.9994 3.525495e-02 -3.525495e-02 -0.9994 1453.1479 874.2263)" fill="#88775B" stroke="#FFFFFF" stroke-width="0.75" stroke-linecap="round" stroke-miterlimit="10" width="7.3" height="27.4"/>
	
		<rect x="771.1" y="433.9" transform="matrix(-0.9994 3.525495e-02 -3.525495e-02 -0.9994 1564.8856 870.7539)" fill="#88775B" stroke="#FFFFFF" stroke-width="0.75" stroke-linecap="round" stroke-miterlimit="10" width="7.3" height="30.5"/>
	
		<rect x="809.7" y="432.6" transform="matrix(-0.9994 3.525495e-02 -3.525495e-02 -0.9994 1642.0219 866.7948)" fill="#88775B" stroke="#FFFFFF" stroke-width="0.75" stroke-linecap="round" stroke-miterlimit="10" width="7.3" height="30.5"/>
	
		<rect x="870.1" y="428.8" transform="matrix(-0.9994 3.525495e-02 -3.525495e-02 -0.9994 1762.6501 857.0641)" fill="#88775B" stroke="#FFFFFF" stroke-width="0.75" stroke-linecap="round" stroke-miterlimit="10" width="7.3" height="30.5"/>
	
		<rect x="910.2" y="426.2" transform="matrix(-0.9994 3.525495e-02 -3.525495e-02 -0.9994 1842.735 850.4523)" fill="#88775B" stroke="#FFFFFF" stroke-width="0.75" stroke-linecap="round" stroke-miterlimit="10" width="7.3" height="30.5"/>
	
		<rect x="957.1" y="421.4" transform="matrix(-0.9994 3.525495e-02 -3.525495e-02 -0.9994 1936.3361 839.2054)" fill="#88775B" stroke="#FFFFFF" stroke-width="0.75" stroke-linecap="round" stroke-miterlimit="10" width="7.3" height="30.5"/>
	
		<rect x="1009.9" y="419.6" transform="matrix(-0.9994 3.525495e-02 -3.525495e-02 -0.9994 2041.8464 833.7423)" fill="#88775B" stroke="#FFFFFF" stroke-width="0.75" stroke-linecap="round" stroke-miterlimit="10" width="7.3" height="30.5"/>
	
		<rect x="1057.6" y="417.9" transform="matrix(-0.9994 3.525495e-02 -3.525495e-02 -0.9994 2137.158 828.6647)" fill="#88775B" stroke="#FFFFFF" stroke-width="0.75" stroke-linecap="round" stroke-miterlimit="10" width="7.3" height="30.5"/>
	
		<rect x="1109.5" y="413" transform="matrix(-0.9994 3.525495e-02 -3.525495e-02 -0.9994 2240.7522 817.0373)" fill="#88775B" stroke="#FFFFFF" stroke-width="0.75" stroke-linecap="round" stroke-miterlimit="10" width="7.3" height="30.5"/>
	
		<rect x="1157.3" y="411.3" transform="matrix(-0.9994 3.525495e-02 -3.525495e-02 -0.9994 2336.2632 811.9526)" fill="#88775B" stroke="#FFFFFF" stroke-width="0.75" stroke-linecap="round" stroke-miterlimit="10" width="7.3" height="30.5"/>
	
		<rect x="1202" y="407.9" transform="matrix(-0.9994 3.525495e-02 -3.525495e-02 -0.9994 2425.5203 803.5764)" fill="#88775B" stroke="#FFFFFF" stroke-width="0.75" stroke-linecap="round" stroke-miterlimit="10" width="7.3" height="30.5"/>
	
		<rect x="1245.6" y="408.2" transform="matrix(-0.9994 3.525495e-02 -3.525495e-02 -0.9994 2512.7043 802.6428)" fill="#88775B" stroke="#FFFFFF" stroke-width="0.75" stroke-linecap="round" stroke-miterlimit="10" width="7.3" height="30.5"/>
	
		<rect x="1300.9" y="404.4" transform="matrix(-0.9994 3.525495e-02 -3.525495e-02 -0.9994 2623.1389 793.091)" fill="#88775B" stroke="#FFFFFF" stroke-width="0.75" stroke-linecap="round" stroke-miterlimit="10" width="7.3" height="30.5"/>
	
		<rect x="1343.6" y="398.4" transform="matrix(-0.9994 3.525495e-02 -3.525495e-02 -0.9994 2708.3816 784.0908)" fill="#88775B" stroke="#FFFFFF" stroke-width="0.75" stroke-linecap="round" stroke-miterlimit="10" width="7.3" height="35"/>
	
		<rect x="1385.3" y="388.3" transform="matrix(-0.9994 3.525495e-02 -3.525495e-02 -0.9994 2791.5107 768.4217)" fill="#88775B" stroke="#FFFFFF" stroke-width="0.75" stroke-linecap="round" stroke-miterlimit="10" width="7.3" height="41"/>
	
		<rect x="1423.6" y="379.2" transform="matrix(-0.9994 3.525495e-02 -3.525495e-02 -0.9994 2867.7649 748.8795)" fill="#88775B" stroke="#FFFFFF" stroke-width="0.75" stroke-linecap="round" stroke-miterlimit="10" width="7.3" height="41"/>
	
		<rect x="1462.3" y="366.8" transform="matrix(-0.9994 3.525495e-02 -3.525495e-02 -0.9994 2944.7109 722.7192)" fill="#88775B" stroke="#FFFFFF" stroke-width="0.75" stroke-linecap="round" stroke-miterlimit="10" width="7.3" height="41"/>
	<g>
		<path fill="#88775B" stroke="#FFFFFF" stroke-width="0.75" stroke-linecap="round" stroke-miterlimit="10" d="M520.9,452.2
			l-0.3-6.1l741.1-44.2c0.6,0,62.2-4.2,124.9-16.8c82-16.4,131-39.6,137.5-66.9l3.9,1.5c-17,71.1-255.7,87.6-265.9,88.2L520.9,452.2
			z"/>
	</g>
	<path fill="#88775B" stroke="#FFFFFF" stroke-width="0.75" stroke-linecap="round" stroke-miterlimit="10" d="M1532.5,263.4
		c0,0,64.3,129.4-98.1,213.2c-331,170.8-1209.3,99.3-1235.5,92.6c-2.4-0.9,6-28.7,6-28.7c39.4,3.7,93.4-1.8,101.7-35.4
		c19.5-79.1-62-76.1-23.3-190.1l3,0.8c3,44.8,19.1,97.8,107.2,118.1c76.4,17.6,127.3,12.1,127.3,12.1l0.5,20.9l827.3-39.4
		c0,0,188.8-15.1,183-161.4C1531.3,265.3,1532.5,264.3,1532.5,263.4z"/>
	<path fill="none" stroke="#FFFFFF" stroke-width="0.75" stroke-linecap="round" stroke-miterlimit="10" d="M204.8,540.5
		c97.6,37.9,227.3,15.1,254.2-22.4c11.1-15.5,11.4-36-2.8-48.6c-11.4-10.1-28.8-9.1-38.9,2.3c-8.1,9.1-7.3,23,1.8,31.1
		c7.3,6.5,18.4,5.8,24.9-1.4c5.2-5.8,4.7-14.7-1.2-19.9c-4.7-4.1-11.8-3.7-15.9,0.9c-3.3,3.7-3,9.4,0.7,12.8"/>
	<polygon fill="#88775B" stroke="#FFFFFF" stroke-width="0.75" stroke-linecap="round" stroke-miterlimit="10" points="
		1122.2,470.5 1233.6,564.2 1240,574.8 1279.7,605.4 1279.1,590.3 1248.2,567.3 1236.5,560.5 1125.8,468.6 	"/>
	<polygon fill="#88775B" stroke="#FFFFFF" stroke-width="0.75" stroke-linecap="round" stroke-miterlimit="10" points="
		1070.8,472.3 1182.2,566 1188.6,576.6 1228.3,607.2 1227.7,592.1 1196.8,569.1 1185.1,562.3 1074.4,470.4 	"/>
	<polygon fill="#88775B" stroke="#FFFFFF" stroke-width="0.75" stroke-linecap="round" stroke-miterlimit="10" points="
		1017.2,474.2 1128.6,567.9 1135,578.5 1174.7,609.1 1174.1,594 1143.2,571 1131.5,564.2 1020.8,472.3 	"/>
	<polygon fill="#88775B" stroke="#FFFFFF" stroke-width="0.75" stroke-linecap="round" stroke-miterlimit="10" points="960.9,476.2 
		1072.3,569.9 1078.7,580.5 1118.4,611.1 1117.8,596 1086.9,573 1075.2,566.2 964.6,474.3 	"/>
	<polygon fill="#88775B" stroke="#FFFFFF" stroke-width="0.75" stroke-linecap="round" stroke-miterlimit="10" points="907.9,478.1 
		1019.3,571.8 1025.7,582.4 1065.4,612.9 1064.8,597.9 1033.9,574.9 1022.2,568 911.6,476.2 	"/>
	<polygon fill="#88775B" stroke="#FFFFFF" stroke-width="0.75" stroke-linecap="round" stroke-miterlimit="10" points="852.6,480 
		964,573.7 970.4,584.3 1010,614.9 1009.5,599.8 978.6,576.8 966.9,570 856.2,478.1 	"/>
	<polygon fill="#88775B" stroke="#FFFFFF" stroke-width="0.75" stroke-linecap="round" stroke-miterlimit="10" points="800.1,481.9 
		911.5,575.6 917.9,586.2 957.6,616.7 957,601.7 926.1,578.7 914.4,571.8 803.7,480 	"/>
	<polygon fill="#88775B" stroke="#FFFFFF" stroke-width="0.75" stroke-linecap="round" stroke-miterlimit="10" points="747.8,483.7 
		859.2,577.4 865.6,588 905.3,618.6 904.7,603.5 873.8,580.5 862.1,573.7 751.4,481.8 	"/>
	<polygon fill="#88775B" stroke="#FFFFFF" stroke-width="0.75" stroke-linecap="round" stroke-miterlimit="10" points="693.8,485.6 
		805.2,579.3 811.6,589.9 851.3,620.5 850.7,605.4 819.8,582.4 808.1,575.6 697.4,483.7 	"/>
	<g>
		<polygon fill="#88775B" stroke="#FFFFFF" stroke-width="0.75" stroke-linecap="round" stroke-miterlimit="10" points="
			1134.1,455.8 1245.5,549.5 1251.9,560.1 1291.5,590.7 1291,575.6 1260.1,552.6 1248.4,545.8 1137.7,453.9 		"/>
		<polygon fill="#88775B" stroke="#FFFFFF" stroke-width="0.75" stroke-linecap="round" stroke-miterlimit="10" points="
			1080.5,457.7 1191.9,551.4 1198.3,562 1237.9,592.6 1237.4,577.5 1206.4,554.5 1194.7,547.7 1084.1,455.8 		"/>
		<polygon fill="#88775B" stroke="#FFFFFF" stroke-width="0.75" stroke-linecap="round" stroke-miterlimit="10" points="
			1026.8,459.6 1138.2,553.3 1144.6,563.9 1184.3,594.5 1183.7,579.4 1152.8,556.4 1141.1,549.6 1030.5,457.7 		"/>
		<polygon fill="#88775B" stroke="#FFFFFF" stroke-width="0.75" stroke-linecap="round" stroke-miterlimit="10" points="
			973.2,461.5 1084.6,555.2 1091,565.8 1130.6,596.4 1130.1,581.3 1099.2,558.3 1087.5,551.5 976.8,459.6 		"/>
		<polygon fill="#88775B" stroke="#FFFFFF" stroke-width="0.75" stroke-linecap="round" stroke-miterlimit="10" points="
			919.6,463.4 1031,557.1 1037.4,567.7 1077,598.3 1076.5,583.2 1045.5,560.2 1033.8,553.4 923.2,461.5 		"/>
		<polygon fill="#88775B" stroke="#FFFFFF" stroke-width="0.75" stroke-linecap="round" stroke-miterlimit="10" points="
			865.9,465.3 977.3,559 983.7,569.6 1023.4,600.2 1022.8,585.1 991.9,562.1 980.2,555.3 869.6,463.4 		"/>
		<polygon fill="#88775B" stroke="#FFFFFF" stroke-width="0.75" stroke-linecap="round" stroke-miterlimit="10" points="
			812.3,467.2 923.7,560.9 930.1,571.5 969.7,602 969.2,587 938.3,564 926.6,557.2 815.9,465.3 		"/>
		<polygon fill="#88775B" stroke="#FFFFFF" stroke-width="0.75" stroke-linecap="round" stroke-miterlimit="10" points="
			758.7,469.1 870.1,562.8 876.5,573.4 916.1,603.9 915.6,588.9 884.6,565.9 872.9,559.1 762.3,467.2 		"/>
		<polygon fill="#88775B" stroke="#FFFFFF" stroke-width="0.75" stroke-linecap="round" stroke-miterlimit="10" points="705,471 
			816.4,564.7 822.8,575.3 862.5,605.8 861.9,590.8 831,567.8 819.3,560.9 708.7,469.1 		"/>
		<polygon fill="#88775B" stroke="#FFFFFF" stroke-width="0.75" stroke-linecap="round" stroke-miterlimit="10" points="
			651.4,472.9 762.8,566.6 769.2,577.2 808.8,607.7 808.3,592.7 777.4,569.7 765.7,562.8 655,471 		"/>
		<polygon fill="#88775B" stroke="#FFFFFF" stroke-width="0.75" stroke-linecap="round" stroke-miterlimit="10" points="
			597.8,474.7 709.2,568.4 715.6,579.1 755.2,609.6 754.7,594.6 723.7,571.5 712,564.7 601.4,472.8 		"/>
		<polygon fill="#88775B" stroke="#FFFFFF" stroke-width="0.75" stroke-linecap="round" stroke-miterlimit="10" points="
			544.1,476.6 655.5,570.3 661.9,581 701.6,611.5 701,596.5 670.1,573.4 658.4,566.6 547.8,474.7 		"/>
	</g>
	<polygon fill="#88775B" stroke="#FFFFFF" stroke-width="0.75" stroke-linecap="round" stroke-miterlimit="10" points="642.1,487.4 
		753.5,581.1 759.9,591.8 799.6,622.3 799.1,607.3 768.1,584.2 756.4,577.4 645.8,485.5 	"/>
	<polygon fill="#88775B" stroke="#FFFFFF" stroke-width="0.75" stroke-linecap="round" stroke-miterlimit="10" points="591,493 
		702.4,586.7 708.8,597.3 748.5,627.9 747.9,612.8 717,589.8 705.3,583 594.6,491.1 	"/>
</g>
<g>
	<g>
		<g>
			<g>
				<g>
					<path fill="#88775B" d="M-0.2,609.3h119.5v-53.7c-4.7,4.3-11.9,6.7-22.7,1.5c-13.9-6.8-18.7-28.3-0.7-39.4
						c-41.3-3.5-84.1,27.5-96,37.9"/>
					<path fill="none" stroke="#FFFFFF" stroke-width="0.375" stroke-miterlimit="10" d="M119.4,555.6c-4.7,4.3-11.9,6.7-22.7,1.5
						c-13.9-6.8-18.7-28.3-0.7-39.4c-41.3-3.5-84.1,27.5-96,37.9"/>
				</g>
			</g>
			<g>
				<g>
					<path fill="#88775B" d="M119.8,609.3h119.5v-53.7c-4.7,4.3-11.9,6.7-22.7,1.5c-13.9-6.8-18.7-28.3-0.7-39.4
						c-41.3-3.5-84.1,27.5-96,37.9"/>
					<path fill="none" stroke="#FFFFFF" stroke-width="0.375" stroke-miterlimit="10" d="M239.4,555.6c-4.7,4.3-11.9,6.7-22.7,1.5
						c-13.9-6.8-18.7-28.3-0.7-39.4c-41.3-3.5-84.1,27.5-96,37.9"/>
				</g>
			</g>
			<g>
				<g>
					<path fill="#88775B" d="M239.8,609.3h119.5v-53.7c-4.7,4.3-11.9,6.7-22.7,1.5c-13.9-6.8-18.7-28.3-0.7-39.4
						c-41.3-3.5-84.1,27.5-96,37.9"/>
					<path fill="none" stroke="#FFFFFF" stroke-width="0.375" stroke-miterlimit="10" d="M359.4,555.6c-4.7,4.3-11.9,6.7-22.7,1.5
						c-13.9-6.8-18.7-28.3-0.7-39.4c-41.3-3.5-84.1,27.5-96,37.9"/>
				</g>
			</g>
			<g>
				<g>
					<path fill="#88775B" d="M359.8,609.3h119.5v-53.7c-4.7,4.3-11.9,6.7-22.7,1.5c-13.9-6.8-18.7-28.3-0.7-39.4
						c-41.3-3.5-84.1,27.5-96,37.9"/>
					<path fill="none" stroke="#FFFFFF" stroke-width="0.375" stroke-miterlimit="10" d="M479.4,555.6c-4.7,4.3-11.9,6.7-22.7,1.5
						c-13.9-6.8-18.7-28.3-0.7-39.4c-41.3-3.5-84.1,27.5-96,37.9"/>
				</g>
			</g>
			<g>
				<g>
					<path fill="#88775B" d="M479.8,609.3h119.5v-53.7c-4.7,4.3-11.9,6.7-22.7,1.5c-13.9-6.8-18.7-28.3-0.7-39.4
						c-41.3-3.5-84.1,27.5-96,37.9"/>
					<path fill="none" stroke="#FFFFFF" stroke-width="0.375" stroke-miterlimit="10" d="M599.4,555.6c-4.7,4.3-11.9,6.7-22.7,1.5
						c-13.9-6.8-18.7-28.3-0.7-39.4c-41.3-3.5-84.1,27.5-96,37.9"/>
				</g>
			</g>
			<g>
				<g>
					<path fill="#88775B" d="M599.8,609.3h119.5v-53.7c-4.7,4.3-11.9,6.7-22.7,1.5c-13.9-6.8-18.7-28.3-0.7-39.4
						c-41.3-3.5-84.1,27.5-96,37.9"/>
					<path fill="none" stroke="#FFFFFF" stroke-width="0.375" stroke-miterlimit="10" d="M719.4,555.6c-4.7,4.3-11.9,6.7-22.7,1.5
						c-13.9-6.8-18.7-28.3-0.7-39.4c-41.3-3.5-84.1,27.5-96,37.9"/>
				</g>
			</g>
			<g>
				<g>
					<path fill="#88775B" d="M719.8,609.3h119.5v-53.7c-4.7,4.3-11.9,6.7-22.7,1.5c-13.9-6.8-18.7-28.3-0.7-39.4
						c-41.3-3.5-84.1,27.5-96,37.9"/>
					<path fill="none" stroke="#FFFFFF" stroke-width="0.375" stroke-miterlimit="10" d="M839.4,555.6c-4.7,4.3-11.9,6.7-22.7,1.5
						c-13.9-6.8-18.7-28.3-0.7-39.4c-41.3-3.5-84.1,27.5-96,37.9"/>
				</g>
			</g>
			<g>
				<g>
					<path fill="#88775B" d="M839.8,609.3h119.5v-53.7c-4.7,4.3-11.9,6.7-22.7,1.5c-13.9-6.8-18.7-28.3-0.7-39.4
						c-41.3-3.5-84.1,27.5-96,37.9"/>
					<path fill="none" stroke="#FFFFFF" stroke-width="0.375" stroke-miterlimit="10" d="M959.4,555.6c-4.7,4.3-11.9,6.7-22.7,1.5
						c-13.9-6.8-18.7-28.3-0.7-39.4c-41.3-3.5-84.1,27.5-96,37.9"/>
				</g>
			</g>
			<g>
				<g>
					<path fill="#88775B" d="M959.8,609.3h119.5v-53.7c-4.7,4.3-11.9,6.7-22.7,1.5c-13.9-6.8-18.7-28.3-0.7-39.4
						c-41.3-3.5-84.1,27.5-96,37.9"/>
					<path fill="none" stroke="#FFFFFF" stroke-width="0.375" stroke-miterlimit="10" d="M1079.4,555.6c-4.7,4.3-11.9,6.7-22.7,1.5
						c-13.9-6.8-18.7-28.3-0.7-39.4c-41.3-3.5-84.1,27.5-96,37.9"/>
				</g>
			</g>
			<g>
				<g>
					<path fill="#88775B" d="M1079.8,609.3h119.5v-53.7c-4.7,4.3-11.9,6.7-22.7,1.5c-13.9-6.8-18.7-28.3-0.7-39.4
						c-41.3-3.5-84.1,27.5-96,37.9"/>
					<path fill="none" stroke="#FFFFFF" stroke-width="0.375" stroke-miterlimit="10" d="M1199.4,555.6c-4.7,4.3-11.9,6.7-22.7,1.5
						c-13.9-6.8-18.7-28.3-0.7-39.4c-41.3-3.5-84.1,27.5-96,37.9"/>
				</g>
			</g>
			<g>
				<g>
					<path fill="#88775B" d="M1199.8,609.3h119.5v-53.7c-4.7,4.3-11.9,6.7-22.7,1.5c-13.9-6.8-18.7-28.3-0.7-39.4
						c-41.3-3.5-84.1,27.5-96,37.9"/>
					<path fill="none" stroke="#FFFFFF" stroke-width="0.375" stroke-miterlimit="10" d="M1319.4,555.6c-4.7,4.3-11.9,6.7-22.7,1.5
						c-13.9-6.8-18.7-28.3-0.7-39.4c-41.3-3.5-84.1,27.5-96,37.9"/>
				</g>
			</g>
			<g>
				<g>
					<path fill="#88775B" d="M1319.8,609.3h119.5v-53.7c-4.7,4.3-11.9,6.7-22.7,1.5c-13.9-6.8-18.7-28.3-0.7-39.4
						c-41.3-3.5-84.1,27.5-96,37.9"/>
					<path fill="none" stroke="#FFFFFF" stroke-width="0.375" stroke-miterlimit="10" d="M1439.4,555.6c-4.7,4.3-11.9,6.7-22.7,1.5
						c-13.9-6.8-18.7-28.3-0.7-39.4c-41.3-3.5-84.1,27.5-96,37.9"/>
				</g>
			</g>
			<g>
				<g>
					<path fill="#88775B" d="M1439.8,609.3h119.5v-53.7c-4.7,4.3-11.9,6.7-22.7,1.5c-13.9-6.8-18.7-28.3-0.7-39.4
						c-41.3-3.5-84.1,27.5-96,37.9"/>
					<path fill="none" stroke="#FFFFFF" stroke-width="0.375" stroke-miterlimit="10" d="M1559.4,555.6c-4.7,4.3-11.9,6.7-22.7,1.5
						c-13.9-6.8-18.7-28.3-0.7-39.4c-41.3-3.5-84.1,27.5-96,37.9"/>
				</g>
			</g>
			<g>
				<g>
					<path fill="#88775B" d="M1559.8,609.3h119.5v-53.7c-4.7,4.3-11.9,6.7-22.7,1.5c-13.9-6.8-18.7-28.3-0.7-39.4
						c-41.3-3.5-84.1,27.5-96,37.9"/>
					<path fill="none" stroke="#FFFFFF" stroke-width="0.375" stroke-miterlimit="10" d="M1679.4,555.6c-4.7,4.3-11.9,6.7-22.7,1.5
						c-13.9-6.8-18.7-28.3-0.7-39.4c-41.3-3.5-84.1,27.5-96,37.9"/>
				</g>
			</g>
			<g>
				<g>
					<path fill="#88775B" d="M1679.8,609.3h119.5v-53.7c-4.7,4.3-11.9,6.7-22.7,1.5c-13.9-6.8-18.7-28.3-0.7-39.4
						c-41.3-3.5-84.1,27.5-96,37.9"/>
					<path fill="none" stroke="#FFFFFF" stroke-width="0.375" stroke-miterlimit="10" d="M1799.4,555.6c-4.7,4.3-11.9,6.7-22.7,1.5
						c-13.9-6.8-18.7-28.3-0.7-39.4c-41.3-3.5-84.1,27.5-96,37.9"/>
				</g>
			</g>
			<g>
				<g>
					<path fill="#88775B" d="M1799.8,609.3h119.5v-53.7c-4.7,4.3-11.9,6.7-22.7,1.5c-13.9-6.8-18.7-28.3-0.7-39.4
						c-41.3-3.5-84.1,27.5-96,37.9"/>
					<path fill="none" stroke="#FFFFFF" stroke-width="0.375" stroke-miterlimit="10" d="M1919.4,555.6c-4.7,4.3-11.9,6.7-22.7,1.5
						c-13.9-6.8-18.7-28.3-0.7-39.4c-41.3-3.5-84.1,27.5-96,37.9"/>
				</g>
			</g>
		</g>
	</g>
</g>
<g>
	<g>
		<g>
			<g>
				<g>
					<path fill="none" stroke="#FFFFFF" stroke-width="0.5" stroke-miterlimit="10" d="M-0.4,662.6c42.9-16.5,49.9-71.5,94.6-71.5
						c6.4,0,11.9,1.3,16.5,3.5c0.5,0.2,0.9,0.4,1.4,0.7c0.9,0.5,1.7,1,2.5,1.5c2,1.3,3.8,2.9,5.4,4.5c1.9,2,3.4,4.2,4.6,6.5
						c0.2,0.4,0.4,0.8,0.6,1.2c0.4,0.8,0.7,1.6,1,2.4c1,2.8,1.5,5.7,1.5,8.6c0,1.6-0.1,3.3-0.5,4.9c-1,5.2-3.9,9.9-8.1,13.2
						c-4.8,3.7-24.7,10.2-28.3-8.8c2.4,2.4,5.7,4,9.1,4.3c4.4,0.4,9.3-0.9,11-5.3c1.6-4.3-1-8.9-4-11.8c-4.5-4.4-11-6.3-17.3-5.8
						c-10.1,0.7-19.5,7.5-23.3,16.7c-3.1,7.4-2.6,16.2,1.1,23.2c2.9,5.5,10.7,10.7,16.2,13.3c1.1,0.5,2.2,0.9,3.4,1.4
						c4.1,1.4,9,2.2,14.5,2.2c10.2,0,18.7-1.9,26.2-4.8 M51,665.9c0-2.8-2.3-5-5-5c-2.8,0-5,2.2-5,5s2.3,5,5,5
						C48.8,670.9,51,668.7,51,665.9z"/>
				</g>
			</g>
			<g>
				<g>
					<path fill="none" stroke="#FFFFFF" stroke-width="0.5" stroke-miterlimit="10" d="M127.6,662.6c42.9-16.5,49.9-71.5,94.6-71.5
						c6.4,0,11.9,1.3,16.5,3.5c0.5,0.2,0.9,0.4,1.4,0.7c0.9,0.5,1.7,1,2.5,1.5c2,1.3,3.8,2.9,5.4,4.5c1.9,2,3.4,4.2,4.6,6.5
						c0.2,0.4,0.4,0.8,0.6,1.2c0.4,0.8,0.7,1.6,1,2.4c1,2.8,1.5,5.7,1.5,8.6c0,1.6-0.1,3.3-0.5,4.9c-1,5.2-3.9,9.9-8.1,13.2
						c-4.8,3.7-24.7,10.2-28.3-8.8c2.4,2.4,5.7,4,9.1,4.3c4.4,0.4,9.3-0.9,11-5.3c1.6-4.3-1-8.9-4-11.8c-4.5-4.4-11-6.3-17.3-5.8
						c-10.1,0.7-19.5,7.5-23.3,16.7c-3.1,7.4-2.6,16.2,1.1,23.2c2.9,5.5,10.7,10.7,16.2,13.3c1.1,0.5,2.2,0.9,3.4,1.4
						c4.1,1.4,9,2.2,14.5,2.2c10.2,0,18.7-1.9,26.2-4.8 M179,665.9c0-2.8-2.3-5-5-5c-2.8,0-5,2.2-5,5s2.3,5,5,5
						C176.8,670.9,179,668.7,179,665.9z"/>
				</g>
			</g>
			<g>
				<g>
					<path fill="none" stroke="#FFFFFF" stroke-width="0.5" stroke-miterlimit="10" d="M255.6,662.6c42.9-16.5,49.9-71.5,94.6-71.5
						c6.4,0,11.9,1.3,16.5,3.5c0.5,0.2,0.9,0.4,1.4,0.7c0.9,0.5,1.7,1,2.5,1.5c2,1.3,3.8,2.9,5.4,4.5c1.9,2,3.4,4.2,4.6,6.5
						c0.2,0.4,0.4,0.8,0.6,1.2c0.4,0.8,0.7,1.6,1,2.4c1,2.8,1.5,5.7,1.5,8.6c0,1.6-0.1,3.3-0.5,4.9c-1,5.2-3.9,9.9-8.1,13.2
						c-4.8,3.7-24.7,10.2-28.3-8.8c2.4,2.4,5.7,4,9.1,4.3c4.4,0.4,9.3-0.9,11-5.3c1.6-4.3-1-8.9-4-11.8c-4.5-4.4-11-6.3-17.3-5.8
						c-10.1,0.7-19.5,7.5-23.3,16.7c-3.1,7.4-2.6,16.2,1.1,23.2c2.9,5.5,10.7,10.7,16.2,13.3c1.1,0.5,2.2,0.9,3.4,1.4
						c4.1,1.4,9,2.2,14.5,2.2c10.2,0,18.7-1.9,26.2-4.8 M307,665.9c0-2.8-2.3-5-5-5c-2.8,0-5,2.2-5,5s2.3,5,5,5
						C304.8,670.9,307,668.7,307,665.9z"/>
				</g>
			</g>
			<g>
				<g>
					<path fill="none" stroke="#FFFFFF" stroke-width="0.5" stroke-miterlimit="10" d="M383.6,662.6c42.9-16.5,49.9-71.5,94.6-71.5
						c6.4,0,11.9,1.3,16.5,3.5c0.5,0.2,0.9,0.4,1.4,0.7c0.9,0.5,1.7,1,2.5,1.5c2,1.3,3.8,2.9,5.4,4.5c1.9,2,3.4,4.2,4.6,6.5
						c0.2,0.4,0.4,0.8,0.6,1.2c0.4,0.8,0.7,1.6,1,2.4c1,2.8,1.5,5.7,1.5,8.6c0,1.6-0.1,3.3-0.5,4.9c-1,5.2-3.9,9.9-8.1,13.2
						c-4.8,3.7-24.7,10.2-28.3-8.8c2.4,2.4,5.7,4,9.1,4.3c4.4,0.4,9.3-0.9,11-5.3c1.6-4.3-1-8.9-4-11.8c-4.5-4.4-11-6.3-17.3-5.8
						c-10.1,0.7-19.5,7.5-23.3,16.7c-3.1,7.4-2.6,16.2,1.1,23.2c2.9,5.5,10.7,10.7,16.2,13.3c1.1,0.5,2.2,0.9,3.4,1.4
						c4.1,1.4,9,2.2,14.5,2.2c10.2,0,18.7-1.9,26.2-4.8 M435,665.9c0-2.8-2.3-5-5-5c-2.8,0-5,2.2-5,5s2.3,5,5,5
						C432.8,670.9,435,668.7,435,665.9z"/>
				</g>
			</g>
			<g>
				<g>
					<path fill="none" stroke="#FFFFFF" stroke-width="0.5" stroke-miterlimit="10" d="M511.6,662.6c42.9-16.5,49.9-71.5,94.6-71.5
						c6.4,0,11.9,1.3,16.5,3.5c0.5,0.2,0.9,0.4,1.4,0.7c0.9,0.5,1.7,1,2.5,1.5c2,1.3,3.8,2.9,5.4,4.5c1.9,2,3.4,4.2,4.6,6.5
						c0.2,0.4,0.4,0.8,0.6,1.2c0.4,0.8,0.7,1.6,1,2.4c1,2.8,1.5,5.7,1.5,8.6c0,1.6-0.1,3.3-0.5,4.9c-1,5.2-3.9,9.9-8.1,13.2
						c-4.8,3.7-24.7,10.2-28.3-8.8c2.4,2.4,5.7,4,9.1,4.3c4.4,0.4,9.3-0.9,11-5.3c1.6-4.3-1-8.9-4-11.8c-4.5-4.4-11-6.3-17.3-5.8
						c-10.1,0.7-19.5,7.5-23.3,16.7c-3.1,7.4-2.6,16.2,1.1,23.2c2.9,5.5,10.7,10.7,16.2,13.3c1.1,0.5,2.2,0.9,3.4,1.4
						c4.1,1.4,9,2.2,14.5,2.2c10.2,0,18.7-1.9,26.2-4.8 M563,665.9c0-2.8-2.3-5-5-5s-5,2.2-5,5s2.3,5,5,5S563,668.7,563,665.9z"/>
				</g>
			</g>
			<g>
				<g>
					<path fill="none" stroke="#FFFFFF" stroke-width="0.5" stroke-miterlimit="10" d="M639.6,662.6c42.9-16.5,49.9-71.5,94.6-71.5
						c6.4,0,11.9,1.3,16.5,3.5c0.5,0.2,0.9,0.4,1.4,0.7c0.9,0.5,1.7,1,2.5,1.5c2,1.3,3.8,2.9,5.4,4.5c1.9,2,3.4,4.2,4.6,6.5
						c0.2,0.4,0.4,0.8,0.6,1.2c0.4,0.8,0.7,1.6,1,2.4c1,2.8,1.5,5.7,1.5,8.6c0,1.6-0.1,3.3-0.5,4.9c-1,5.2-3.9,9.9-8.1,13.2
						c-4.8,3.7-24.7,10.2-28.3-8.8c2.4,2.4,5.7,4,9.1,4.3c4.4,0.4,9.3-0.9,11-5.3c1.6-4.3-1-8.9-4-11.8c-4.5-4.4-11-6.3-17.3-5.8
						c-10.1,0.7-19.5,7.5-23.3,16.7c-3.1,7.4-2.6,16.2,1.1,23.2c2.9,5.5,10.7,10.7,16.2,13.3c1.1,0.5,2.2,0.9,3.4,1.4
						c4.1,1.4,9,2.2,14.5,2.2c10.2,0,18.7-1.9,26.2-4.8 M691,665.9c0-2.8-2.3-5-5-5s-5,2.2-5,5s2.3,5,5,5S691,668.7,691,665.9z"/>
				</g>
			</g>
			<g>
				<g>
					<path fill="none" stroke="#FFFFFF" stroke-width="0.5" stroke-miterlimit="10" d="M767.6,662.6c42.9-16.5,49.9-71.5,94.6-71.5
						c6.4,0,11.9,1.3,16.5,3.5c0.5,0.2,0.9,0.4,1.4,0.7c0.9,0.5,1.7,1,2.5,1.5c2,1.3,3.8,2.9,5.4,4.5c1.9,2,3.4,4.2,4.6,6.5
						c0.2,0.4,0.4,0.8,0.6,1.2c0.4,0.8,0.7,1.6,1,2.4c1,2.8,1.5,5.7,1.5,8.6c0,1.6-0.1,3.3-0.5,4.9c-1,5.2-3.9,9.9-8.1,13.2
						c-4.8,3.7-24.7,10.2-28.3-8.8c2.4,2.4,5.7,4,9.1,4.3c4.4,0.4,9.3-0.9,11-5.3c1.6-4.3-1-8.9-4-11.8c-4.5-4.4-11-6.3-17.3-5.8
						c-10.1,0.7-19.5,7.5-23.3,16.7c-3.1,7.4-2.6,16.2,1.1,23.2c2.9,5.5,10.7,10.7,16.2,13.3c1.1,0.5,2.2,0.9,3.4,1.4
						c4.1,1.4,9,2.2,14.5,2.2c10.2,0,18.7-1.9,26.2-4.8 M819,665.9c0-2.8-2.3-5-5-5s-5,2.2-5,5s2.3,5,5,5S819,668.7,819,665.9z"/>
				</g>
			</g>
			<g>
				<g>
					<path fill="none" stroke="#FFFFFF" stroke-width="0.5" stroke-miterlimit="10" d="M895.6,662.6c42.9-16.5,49.9-71.5,94.6-71.5
						c6.4,0,11.9,1.3,16.5,3.5c0.5,0.2,0.9,0.4,1.4,0.7c0.9,0.5,1.7,1,2.5,1.5c2,1.3,3.8,2.9,5.4,4.5c1.9,2,3.4,4.2,4.6,6.5
						c0.2,0.4,0.4,0.8,0.6,1.2c0.4,0.8,0.7,1.6,1,2.4c1,2.8,1.5,5.7,1.5,8.6c0,1.6-0.1,3.3-0.5,4.9c-1,5.2-3.9,9.9-8.1,13.2
						c-4.8,3.7-24.7,10.2-28.3-8.8c2.4,2.4,5.7,4,9.1,4.3c4.4,0.4,9.3-0.9,11-5.3c1.6-4.3-1-8.9-4-11.8c-4.5-4.4-11-6.3-17.3-5.8
						c-10.1,0.7-19.5,7.5-23.3,16.7c-3.1,7.4-2.6,16.2,1.1,23.2c2.9,5.5,10.7,10.7,16.2,13.3c1.1,0.5,2.2,0.9,3.4,1.4
						c4.1,1.4,9,2.2,14.5,2.2c10.2,0,18.7-1.9,26.2-4.8 M947,665.9c0-2.8-2.3-5-5-5s-5,2.2-5,5s2.3,5,5,5S947,668.7,947,665.9z"/>
				</g>
			</g>
			<g>
				<g>
					<path fill="none" stroke="#FFFFFF" stroke-width="0.5" stroke-miterlimit="10" d="M1023.6,662.6c42.9-16.5,49.9-71.5,94.6-71.5
						c6.4,0,11.9,1.3,16.5,3.5c0.5,0.2,0.9,0.4,1.4,0.7c0.9,0.5,1.7,1,2.5,1.5c2,1.3,3.8,2.9,5.4,4.5c1.9,2,3.4,4.2,4.6,6.5
						c0.2,0.4,0.4,0.8,0.6,1.2c0.4,0.8,0.7,1.6,1,2.4c1,2.8,1.5,5.7,1.5,8.6c0,1.6-0.1,3.3-0.5,4.9c-1,5.2-3.9,9.9-8.1,13.2
						c-4.8,3.7-24.7,10.2-28.3-8.8c2.4,2.4,5.7,4,9.1,4.3c4.4,0.4,9.3-0.9,11-5.3c1.6-4.3-1-8.9-4-11.8c-4.5-4.4-11-6.3-17.3-5.8
						c-10.1,0.7-19.5,7.5-23.3,16.7c-3.1,7.4-2.6,16.2,1.1,23.2c2.9,5.5,10.7,10.7,16.2,13.3c1.1,0.5,2.2,0.9,3.4,1.4
						c4.1,1.4,9,2.2,14.5,2.2c10.2,0,18.7-1.9,26.2-4.8 M1075,665.9c0-2.8-2.3-5-5-5s-5,2.2-5,5s2.3,5,5,5S1075,668.7,1075,665.9z"
						/>
				</g>
			</g>
			<g>
				<g>
					<path fill="none" stroke="#FFFFFF" stroke-width="0.5" stroke-miterlimit="10" d="M1151.6,662.6c42.9-16.5,49.9-71.5,94.6-71.5
						c6.4,0,11.9,1.3,16.5,3.5c0.5,0.2,0.9,0.4,1.4,0.7c0.9,0.5,1.7,1,2.5,1.5c2,1.3,3.8,2.9,5.4,4.5c1.9,2,3.4,4.2,4.6,6.5
						c0.2,0.4,0.4,0.8,0.6,1.2c0.4,0.8,0.7,1.6,1,2.4c1,2.8,1.5,5.7,1.5,8.6c0,1.6-0.1,3.3-0.5,4.9c-1,5.2-3.9,9.9-8.1,13.2
						c-4.8,3.7-24.7,10.2-28.3-8.8c2.4,2.4,5.7,4,9.1,4.3c4.4,0.4,9.3-0.9,11-5.3c1.6-4.3-1-8.9-4-11.8c-4.5-4.4-11-6.3-17.3-5.8
						c-10.1,0.7-19.5,7.5-23.3,16.7c-3.1,7.4-2.6,16.2,1.1,23.2c2.9,5.5,10.7,10.7,16.2,13.3c1.1,0.5,2.2,0.9,3.4,1.4
						c4.1,1.4,9,2.2,14.5,2.2c10.2,0,18.7-1.9,26.2-4.8 M1203,665.9c0-2.8-2.3-5-5-5s-5,2.2-5,5s2.3,5,5,5S1203,668.7,1203,665.9z"
						/>
				</g>
			</g>
			<g>
				<g>
					<path fill="none" stroke="#FFFFFF" stroke-width="0.5" stroke-miterlimit="10" d="M1279.6,662.6c42.9-16.5,49.9-71.5,94.6-71.5
						c6.4,0,11.9,1.3,16.5,3.5c0.5,0.2,0.9,0.4,1.4,0.7c0.9,0.5,1.7,1,2.5,1.5c2,1.3,3.8,2.9,5.4,4.5c1.9,2,3.4,4.2,4.6,6.5
						c0.2,0.4,0.4,0.8,0.6,1.2c0.4,0.8,0.7,1.6,1,2.4c1,2.8,1.5,5.7,1.5,8.6c0,1.6-0.1,3.3-0.5,4.9c-1,5.2-3.9,9.9-8.1,13.2
						c-4.8,3.7-24.7,10.2-28.3-8.8c2.4,2.4,5.7,4,9.1,4.3c4.4,0.4,9.3-0.9,11-5.3c1.6-4.3-1-8.9-4-11.8c-4.5-4.4-11-6.3-17.3-5.8
						c-10.1,0.7-19.5,7.5-23.3,16.7c-3.1,7.4-2.6,16.2,1.1,23.2c2.9,5.5,10.7,10.7,16.2,13.3c1.1,0.5,2.2,0.9,3.4,1.4
						c4.1,1.4,9,2.2,14.5,2.2c10.2,0,18.7-1.9,26.2-4.8 M1331,665.9c0-2.8-2.3-5-5-5s-5,2.2-5,5s2.3,5,5,5S1331,668.7,1331,665.9z"
						/>
				</g>
			</g>
			<g>
				<g>
					<path fill="none" stroke="#FFFFFF" stroke-width="0.5" stroke-miterlimit="10" d="M1407.6,662.6c42.9-16.5,49.9-71.5,94.6-71.5
						c6.4,0,11.9,1.3,16.5,3.5c0.5,0.2,0.9,0.4,1.4,0.7c0.9,0.5,1.7,1,2.5,1.5c2,1.3,3.8,2.9,5.4,4.5c1.9,2,3.4,4.2,4.6,6.5
						c0.2,0.4,0.4,0.8,0.6,1.2c0.4,0.8,0.7,1.6,1,2.4c1,2.8,1.5,5.7,1.5,8.6c0,1.6-0.1,3.3-0.5,4.9c-1,5.2-3.9,9.9-8.1,13.2
						c-4.8,3.7-24.7,10.2-28.3-8.8c2.4,2.4,5.7,4,9.1,4.3c4.4,0.4,9.3-0.9,11-5.3c1.6-4.3-1-8.9-4-11.8c-4.5-4.4-11-6.3-17.3-5.8
						c-10.1,0.7-19.5,7.5-23.3,16.7c-3.1,7.4-2.6,16.2,1.1,23.2c2.9,5.5,10.7,10.7,16.2,13.3c1.1,0.5,2.2,0.9,3.4,1.4
						c4.1,1.4,9,2.2,14.5,2.2c10.2,0,18.7-1.9,26.2-4.8 M1459,665.9c0-2.8-2.3-5-5-5s-5,2.2-5,5s2.3,5,5,5S1459,668.7,1459,665.9z"
						/>
				</g>
			</g>
			<g>
				<g>
					<path fill="none" stroke="#FFFFFF" stroke-width="0.5" stroke-miterlimit="10" d="M1535.6,662.6c42.9-16.5,49.9-71.5,94.6-71.5
						c6.4,0,11.9,1.3,16.5,3.5c0.5,0.2,0.9,0.4,1.4,0.7c0.9,0.5,1.7,1,2.5,1.5c2,1.3,3.8,2.9,5.4,4.5c1.9,2,3.4,4.2,4.6,6.5
						c0.2,0.4,0.4,0.8,0.6,1.2c0.4,0.8,0.7,1.6,1,2.4c1,2.8,1.5,5.7,1.5,8.6c0,1.6-0.1,3.3-0.5,4.9c-1,5.2-3.9,9.9-8.1,13.2
						c-4.8,3.7-24.7,10.2-28.3-8.8c2.4,2.4,5.7,4,9.1,4.3c4.4,0.4,9.3-0.9,11-5.3c1.6-4.3-1-8.9-4-11.8c-4.5-4.4-11-6.3-17.3-5.8
						c-10.1,0.7-19.5,7.5-23.3,16.7c-3.1,7.4-2.6,16.2,1.1,23.2c2.9,5.5,10.7,10.7,16.2,13.3c1.1,0.5,2.2,0.9,3.4,1.4
						c4.1,1.4,9,2.2,14.5,2.2c10.2,0,18.7-1.9,26.2-4.8 M1587,665.9c0-2.8-2.3-5-5-5s-5,2.2-5,5s2.3,5,5,5S1587,668.7,1587,665.9z"
						/>
				</g>
			</g>
			<g>
				<g>
					<path fill="none" stroke="#FFFFFF" stroke-width="0.5" stroke-miterlimit="10" d="M1663.6,662.6c42.9-16.5,49.9-71.5,94.6-71.5
						c6.4,0,11.9,1.3,16.5,3.5c0.5,0.2,0.9,0.4,1.4,0.7c0.9,0.5,1.7,1,2.5,1.5c2,1.3,3.8,2.9,5.4,4.5c1.9,2,3.4,4.2,4.6,6.5
						c0.2,0.4,0.4,0.8,0.6,1.2c0.4,0.8,0.7,1.6,1,2.4c1,2.8,1.5,5.7,1.5,8.6c0,1.6-0.1,3.3-0.5,4.9c-1,5.2-3.9,9.9-8.1,13.2
						c-4.8,3.7-24.7,10.2-28.3-8.8c2.4,2.4,5.7,4,9.1,4.3c4.4,0.4,9.3-0.9,11-5.3c1.6-4.3-1-8.9-4-11.8c-4.5-4.4-11-6.3-17.3-5.8
						c-10.1,0.7-19.5,7.5-23.3,16.7c-3.1,7.4-2.6,16.2,1.1,23.2c2.9,5.5,10.7,10.7,16.2,13.3c1.1,0.5,2.2,0.9,3.4,1.4
						c4.1,1.4,9,2.2,14.5,2.2c10.2,0,18.7-1.9,26.2-4.8 M1715,665.9c0-2.8-2.3-5-5-5s-5,2.2-5,5s2.3,5,5,5S1715,668.7,1715,665.9z"
						/>
				</g>
			</g>
			<g>
				<g>
					<path fill="none" stroke="#FFFFFF" stroke-width="0.5" stroke-miterlimit="10" d="M1791.6,662.6c42.9-16.5,49.9-71.5,94.6-71.5
						c6.4,0,11.9,1.3,16.5,3.5c0.5,0.2,0.9,0.4,1.4,0.7c0.9,0.5,1.7,1,2.5,1.5c2,1.3,3.8,2.9,5.4,4.5c1.9,2,3.4,4.2,4.6,6.5
						c0.2,0.4,0.4,0.8,0.6,1.2c0.4,0.8,0.7,1.6,1,2.4c1,2.8,1.5,5.7,1.5,8.6c0,1.6-0.1,3.3-0.5,4.9c-1,5.2-3.9,9.9-8.1,13.2
						c-4.8,3.7-24.7,10.2-28.3-8.8c2.4,2.4,5.7,4,9.1,4.3c4.4,0.4,9.3-0.9,11-5.3c1.6-4.3-1-8.9-4-11.8c-4.5-4.4-11-6.3-17.3-5.8
						c-10.1,0.7-19.5,7.5-23.3,16.7c-3.1,7.4-2.6,16.2,1.1,23.2c2.9,5.5,10.7,10.7,16.2,13.3c1.1,0.5,2.2,0.9,3.4,1.4
						c4.1,1.4,9,2.2,14.5,2.2c10.2,0,18.7-1.9,26.2-4.8 M1843,665.9c0-2.8-2.3-5-5-5s-5,2.2-5,5s2.3,5,5,5S1843,668.7,1843,665.9z"
						/>
				</g>
			</g>
		</g>
	</g>
</g>
<g>
	<g>
		<g>
			<g>
				<g>
					<g>
						<path fill="none" stroke="#FFFFFF" stroke-width="0.375" stroke-miterlimit="10" d="M119.4,741.6c-4.7,4.3-11.9,6.7-22.7,1.5
							c-13.9-6.8-18.7-28.3-0.7-39.4c-41.3-3.5-84.1,27.5-96,37.9"/>
					</g>
				</g>
			</g>
			<g>
				<g>
					<g>
						<path fill="none" stroke="#FFFFFF" stroke-width="0.375" stroke-miterlimit="10" d="M239.4,741.6c-4.7,4.3-11.9,6.7-22.7,1.5
							c-13.9-6.8-18.7-28.3-0.7-39.4c-41.3-3.5-84.1,27.5-96,37.9"/>
					</g>
				</g>
			</g>
			<g>
				<g>
					<g>
						<path fill="none" stroke="#FFFFFF" stroke-width="0.375" stroke-miterlimit="10" d="M359.4,741.6c-4.7,4.3-11.9,6.7-22.7,1.5
							c-13.9-6.8-18.7-28.3-0.7-39.4c-41.3-3.5-84.1,27.5-96,37.9"/>
					</g>
				</g>
			</g>
			<g>
				<g>
					<g>
						<path fill="none" stroke="#FFFFFF" stroke-width="0.375" stroke-miterlimit="10" d="M479.4,741.6c-4.7,4.3-11.9,6.7-22.7,1.5
							c-13.9-6.8-18.7-28.3-0.7-39.4c-41.3-3.5-84.1,27.5-96,37.9"/>
					</g>
				</g>
			</g>
			<g>
				<g>
					<g>
						<path fill="none" stroke="#FFFFFF" stroke-width="0.375" stroke-miterlimit="10" d="M599.4,741.6c-4.7,4.3-11.9,6.7-22.7,1.5
							c-13.9-6.8-18.7-28.3-0.7-39.4c-41.3-3.5-84.1,27.5-96,37.9"/>
					</g>
				</g>
			</g>
			<g>
				<g>
					<g>
						<path fill="none" stroke="#FFFFFF" stroke-width="0.375" stroke-miterlimit="10" d="M719.4,741.6c-4.7,4.3-11.9,6.7-22.7,1.5
							c-13.9-6.8-18.7-28.3-0.7-39.4c-41.3-3.5-84.1,27.5-96,37.9"/>
					</g>
				</g>
			</g>
			<g>
				<g>
					<g>
						<path fill="none" stroke="#FFFFFF" stroke-width="0.375" stroke-miterlimit="10" d="M839.4,741.6c-4.7,4.3-11.9,6.7-22.7,1.5
							c-13.9-6.8-18.7-28.3-0.7-39.4c-41.3-3.5-84.1,27.5-96,37.9"/>
					</g>
				</g>
			</g>
			<g>
				<g>
					<g>
						<path fill="none" stroke="#FFFFFF" stroke-width="0.375" stroke-miterlimit="10" d="M959.4,741.6c-4.7,4.3-11.9,6.7-22.7,1.5
							c-13.9-6.8-18.7-28.3-0.7-39.4c-41.3-3.5-84.1,27.5-96,37.9"/>
					</g>
				</g>
			</g>
			<g>
				<g>
					<g>
						<path fill="none" stroke="#FFFFFF" stroke-width="0.375" stroke-miterlimit="10" d="M1079.4,741.6c-4.7,4.3-11.9,6.7-22.7,1.5
							c-13.9-6.8-18.7-28.3-0.7-39.4c-41.3-3.5-84.1,27.5-96,37.9"/>
					</g>
				</g>
			</g>
			<g>
				<g>
					<g>
						<path fill="none" stroke="#FFFFFF" stroke-width="0.375" stroke-miterlimit="10" d="M1199.4,741.6c-4.7,4.3-11.9,6.7-22.7,1.5
							c-13.9-6.8-18.7-28.3-0.7-39.4c-41.3-3.5-84.1,27.5-96,37.9"/>
					</g>
				</g>
			</g>
			<g>
				<g>
					<g>
						<path fill="none" stroke="#FFFFFF" stroke-width="0.375" stroke-miterlimit="10" d="M1319.4,741.6c-4.7,4.3-11.9,6.7-22.7,1.5
							c-13.9-6.8-18.7-28.3-0.7-39.4c-41.3-3.5-84.1,27.5-96,37.9"/>
					</g>
				</g>
			</g>
			<g>
				<g>
					<g>
						<path fill="none" stroke="#FFFFFF" stroke-width="0.375" stroke-miterlimit="10" d="M1439.4,741.6c-4.7,4.3-11.9,6.7-22.7,1.5
							c-13.9-6.8-18.7-28.3-0.7-39.4c-41.3-3.5-84.1,27.5-96,37.9"/>
					</g>
				</g>
			</g>
			<g>
				<g>
					<g>
						<path fill="none" stroke="#FFFFFF" stroke-width="0.375" stroke-miterlimit="10" d="M1559.4,741.6c-4.7,4.3-11.9,6.7-22.7,1.5
							c-13.9-6.8-18.7-28.3-0.7-39.4c-41.3-3.5-84.1,27.5-96,37.9"/>
					</g>
				</g>
			</g>
			<g>
				<g>
					<g>
						<path fill="none" stroke="#FFFFFF" stroke-width="0.375" stroke-miterlimit="10" d="M1679.4,741.6c-4.7,4.3-11.9,6.7-22.7,1.5
							c-13.9-6.8-18.7-28.3-0.7-39.4c-41.3-3.5-84.1,27.5-96,37.9"/>
					</g>
				</g>
			</g>
			<g>
				<g>
					<g>
						<path fill="none" stroke="#FFFFFF" stroke-width="0.375" stroke-miterlimit="10" d="M1799.4,741.6c-4.7,4.3-11.9,6.7-22.7,1.5
							c-13.9-6.8-18.7-28.3-0.7-39.4c-41.3-3.5-84.1,27.5-96,37.9"/>
					</g>
				</g>
			</g>
			<g>
				<g>
					<g>
						<path fill="none" stroke="#FFFFFF" stroke-width="0.375" stroke-miterlimit="10" d="M1919.4,741.6c-4.7,4.3-11.9,6.7-22.7,1.5
							c-13.9-6.8-18.7-28.3-0.7-39.4c-41.3-3.5-84.1,27.5-96,37.9"/>
					</g>
				</g>
			</g>
		</g>
	</g>
</g>
<g>
	<g>
		<g>
			<g>
				<g>
					<path fill="none" stroke="#FFFFFF" stroke-width="0.5" stroke-miterlimit="10" d="M-0.4,833.6c42.9-16.5,49.9-71.5,94.6-71.5
						c6.4,0,11.9,1.3,16.5,3.5c0.5,0.2,0.9,0.4,1.4,0.7c0.9,0.5,1.7,1,2.5,1.5c2,1.3,3.8,2.9,5.4,4.5c1.9,2,3.4,4.2,4.6,6.5
						c0.2,0.4,0.4,0.8,0.6,1.2c0.4,0.8,0.7,1.6,1,2.4c1,2.8,1.5,5.7,1.5,8.6c0,1.6-0.1,3.3-0.5,4.9c-1,5.2-3.9,9.9-8.1,13.2
						c-4.8,3.7-24.7,10.2-28.3-8.8c2.4,2.4,5.7,4,9.1,4.3c4.4,0.4,9.3-0.9,11-5.3c1.6-4.3-1-8.9-4-11.8c-4.5-4.4-11-6.3-17.3-5.8
						c-10.1,0.7-19.5,7.5-23.3,16.7c-3.1,7.4-2.6,16.2,1.1,23.2c2.9,5.5,10.7,10.7,16.2,13.3c1.1,0.5,2.2,0.9,3.4,1.4
						c4.1,1.4,9,2.2,14.5,2.2c10.2,0,18.7-1.9,26.2-4.8 M51,837c0-2.8-2.3-5-5-5c-2.8,0-5,2.2-5,5s2.3,5,5,5
						C48.8,842,51,839.7,51,837z"/>
				</g>
			</g>
			<g>
				<g>
					<path fill="none" stroke="#FFFFFF" stroke-width="0.5" stroke-miterlimit="10" d="M127.6,833.6c42.9-16.5,49.9-71.5,94.6-71.5
						c6.4,0,11.9,1.3,16.5,3.5c0.5,0.2,0.9,0.4,1.4,0.7c0.9,0.5,1.7,1,2.5,1.5c2,1.3,3.8,2.9,5.4,4.5c1.9,2,3.4,4.2,4.6,6.5
						c0.2,0.4,0.4,0.8,0.6,1.2c0.4,0.8,0.7,1.6,1,2.4c1,2.8,1.5,5.7,1.5,8.6c0,1.6-0.1,3.3-0.5,4.9c-1,5.2-3.9,9.9-8.1,13.2
						c-4.8,3.7-24.7,10.2-28.3-8.8c2.4,2.4,5.7,4,9.1,4.3c4.4,0.4,9.3-0.9,11-5.3c1.6-4.3-1-8.9-4-11.8c-4.5-4.4-11-6.3-17.3-5.8
						c-10.1,0.7-19.5,7.5-23.3,16.7c-3.1,7.4-2.6,16.2,1.1,23.2c2.9,5.5,10.7,10.7,16.2,13.3c1.1,0.5,2.2,0.9,3.4,1.4
						c4.1,1.4,9,2.2,14.5,2.2c10.2,0,18.7-1.9,26.2-4.8 M179,837c0-2.8-2.3-5-5-5c-2.8,0-5,2.2-5,5s2.3,5,5,5
						C176.8,842,179,839.7,179,837z"/>
				</g>
			</g>
			<g>
				<g>
					<path fill="none" stroke="#FFFFFF" stroke-width="0.5" stroke-miterlimit="10" d="M255.6,833.6c42.9-16.5,49.9-71.5,94.6-71.5
						c6.4,0,11.9,1.3,16.5,3.5c0.5,0.2,0.9,0.4,1.4,0.7c0.9,0.5,1.7,1,2.5,1.5c2,1.3,3.8,2.9,5.4,4.5c1.9,2,3.4,4.2,4.6,6.5
						c0.2,0.4,0.4,0.8,0.6,1.2c0.4,0.8,0.7,1.6,1,2.4c1,2.8,1.5,5.7,1.5,8.6c0,1.6-0.1,3.3-0.5,4.9c-1,5.2-3.9,9.9-8.1,13.2
						c-4.8,3.7-24.7,10.2-28.3-8.8c2.4,2.4,5.7,4,9.1,4.3c4.4,0.4,9.3-0.9,11-5.3c1.6-4.3-1-8.9-4-11.8c-4.5-4.4-11-6.3-17.3-5.8
						c-10.1,0.7-19.5,7.5-23.3,16.7c-3.1,7.4-2.6,16.2,1.1,23.2c2.9,5.5,10.7,10.7,16.2,13.3c1.1,0.5,2.2,0.9,3.4,1.4
						c4.1,1.4,9,2.2,14.5,2.2c10.2,0,18.7-1.9,26.2-4.8 M307,837c0-2.8-2.3-5-5-5c-2.8,0-5,2.2-5,5s2.3,5,5,5
						C304.8,842,307,839.7,307,837z"/>
				</g>
			</g>
			<g>
				<g>
					<path fill="none" stroke="#FFFFFF" stroke-width="0.5" stroke-miterlimit="10" d="M383.6,833.6c42.9-16.5,49.9-71.5,94.6-71.5
						c6.4,0,11.9,1.3,16.5,3.5c0.5,0.2,0.9,0.4,1.4,0.7c0.9,0.5,1.7,1,2.5,1.5c2,1.3,3.8,2.9,5.4,4.5c1.9,2,3.4,4.2,4.6,6.5
						c0.2,0.4,0.4,0.8,0.6,1.2c0.4,0.8,0.7,1.6,1,2.4c1,2.8,1.5,5.7,1.5,8.6c0,1.6-0.1,3.3-0.5,4.9c-1,5.2-3.9,9.9-8.1,13.2
						c-4.8,3.7-24.7,10.2-28.3-8.8c2.4,2.4,5.7,4,9.1,4.3c4.4,0.4,9.3-0.9,11-5.3c1.6-4.3-1-8.9-4-11.8c-4.5-4.4-11-6.3-17.3-5.8
						c-10.1,0.7-19.5,7.5-23.3,16.7c-3.1,7.4-2.6,16.2,1.1,23.2c2.9,5.5,10.7,10.7,16.2,13.3c1.1,0.5,2.2,0.9,3.4,1.4
						c4.1,1.4,9,2.2,14.5,2.2c10.2,0,18.7-1.9,26.2-4.8 M435,837c0-2.8-2.3-5-5-5c-2.8,0-5,2.2-5,5s2.3,5,5,5
						C432.8,842,435,839.7,435,837z"/>
				</g>
			</g>
			<g>
				<g>
					<path fill="none" stroke="#FFFFFF" stroke-width="0.5" stroke-miterlimit="10" d="M511.6,833.6c42.9-16.5,49.9-71.5,94.6-71.5
						c6.4,0,11.9,1.3,16.5,3.5c0.5,0.2,0.9,0.4,1.4,0.7c0.9,0.5,1.7,1,2.5,1.5c2,1.3,3.8,2.9,5.4,4.5c1.9,2,3.4,4.2,4.6,6.5
						c0.2,0.4,0.4,0.8,0.6,1.2c0.4,0.8,0.7,1.6,1,2.4c1,2.8,1.5,5.7,1.5,8.6c0,1.6-0.1,3.3-0.5,4.9c-1,5.2-3.9,9.9-8.1,13.2
						c-4.8,3.7-24.7,10.2-28.3-8.8c2.4,2.4,5.7,4,9.1,4.3c4.4,0.4,9.3-0.9,11-5.3c1.6-4.3-1-8.9-4-11.8c-4.5-4.4-11-6.3-17.3-5.8
						c-10.1,0.7-19.5,7.5-23.3,16.7c-3.1,7.4-2.6,16.2,1.1,23.2c2.9,5.5,10.7,10.7,16.2,13.3c1.1,0.5,2.2,0.9,3.4,1.4
						c4.1,1.4,9,2.2,14.5,2.2c10.2,0,18.7-1.9,26.2-4.8 M563,837c0-2.8-2.3-5-5-5s-5,2.2-5,5s2.3,5,5,5S563,839.7,563,837z"/>
				</g>
			</g>
			<g>
				<g>
					<path fill="none" stroke="#FFFFFF" stroke-width="0.5" stroke-miterlimit="10" d="M639.6,833.6c42.9-16.5,49.9-71.5,94.6-71.5
						c6.4,0,11.9,1.3,16.5,3.5c0.5,0.2,0.9,0.4,1.4,0.7c0.9,0.5,1.7,1,2.5,1.5c2,1.3,3.8,2.9,5.4,4.5c1.9,2,3.4,4.2,4.6,6.5
						c0.2,0.4,0.4,0.8,0.6,1.2c0.4,0.8,0.7,1.6,1,2.4c1,2.8,1.5,5.7,1.5,8.6c0,1.6-0.1,3.3-0.5,4.9c-1,5.2-3.9,9.9-8.1,13.2
						c-4.8,3.7-24.7,10.2-28.3-8.8c2.4,2.4,5.7,4,9.1,4.3c4.4,0.4,9.3-0.9,11-5.3c1.6-4.3-1-8.9-4-11.8c-4.5-4.4-11-6.3-17.3-5.8
						c-10.1,0.7-19.5,7.5-23.3,16.7c-3.1,7.4-2.6,16.2,1.1,23.2c2.9,5.5,10.7,10.7,16.2,13.3c1.1,0.5,2.2,0.9,3.4,1.4
						c4.1,1.4,9,2.2,14.5,2.2c10.2,0,18.7-1.9,26.2-4.8 M691,837c0-2.8-2.3-5-5-5s-5,2.2-5,5s2.3,5,5,5S691,839.7,691,837z"/>
				</g>
			</g>
			<g>
				<g>
					<path fill="none" stroke="#FFFFFF" stroke-width="0.5" stroke-miterlimit="10" d="M767.6,833.6c42.9-16.5,49.9-71.5,94.6-71.5
						c6.4,0,11.9,1.3,16.5,3.5c0.5,0.2,0.9,0.4,1.4,0.7c0.9,0.5,1.7,1,2.5,1.5c2,1.3,3.8,2.9,5.4,4.5c1.9,2,3.4,4.2,4.6,6.5
						c0.2,0.4,0.4,0.8,0.6,1.2c0.4,0.8,0.7,1.6,1,2.4c1,2.8,1.5,5.7,1.5,8.6c0,1.6-0.1,3.3-0.5,4.9c-1,5.2-3.9,9.9-8.1,13.2
						c-4.8,3.7-24.7,10.2-28.3-8.8c2.4,2.4,5.7,4,9.1,4.3c4.4,0.4,9.3-0.9,11-5.3c1.6-4.3-1-8.9-4-11.8c-4.5-4.4-11-6.3-17.3-5.8
						c-10.1,0.7-19.5,7.5-23.3,16.7c-3.1,7.4-2.6,16.2,1.1,23.2c2.9,5.5,10.7,10.7,16.2,13.3c1.1,0.5,2.2,0.9,3.4,1.4
						c4.1,1.4,9,2.2,14.5,2.2c10.2,0,18.7-1.9,26.2-4.8 M819,837c0-2.8-2.3-5-5-5s-5,2.2-5,5s2.3,5,5,5S819,839.7,819,837z"/>
				</g>
			</g>
			<g>
				<g>
					<path fill="none" stroke="#FFFFFF" stroke-width="0.5" stroke-miterlimit="10" d="M895.6,833.6c42.9-16.5,49.9-71.5,94.6-71.5
						c6.4,0,11.9,1.3,16.5,3.5c0.5,0.2,0.9,0.4,1.4,0.7c0.9,0.5,1.7,1,2.5,1.5c2,1.3,3.8,2.9,5.4,4.5c1.9,2,3.4,4.2,4.6,6.5
						c0.2,0.4,0.4,0.8,0.6,1.2c0.4,0.8,0.7,1.6,1,2.4c1,2.8,1.5,5.7,1.5,8.6c0,1.6-0.1,3.3-0.5,4.9c-1,5.2-3.9,9.9-8.1,13.2
						c-4.8,3.7-24.7,10.2-28.3-8.8c2.4,2.4,5.7,4,9.1,4.3c4.4,0.4,9.3-0.9,11-5.3c1.6-4.3-1-8.9-4-11.8c-4.5-4.4-11-6.3-17.3-5.8
						c-10.1,0.7-19.5,7.5-23.3,16.7c-3.1,7.4-2.6,16.2,1.1,23.2c2.9,5.5,10.7,10.7,16.2,13.3c1.1,0.5,2.2,0.9,3.4,1.4
						c4.1,1.4,9,2.2,14.5,2.2c10.2,0,18.7-1.9,26.2-4.8 M947,837c0-2.8-2.3-5-5-5s-5,2.2-5,5s2.3,5,5,5S947,839.7,947,837z"/>
				</g>
			</g>
			<g>
				<g>
					<path fill="none" stroke="#FFFFFF" stroke-width="0.5" stroke-miterlimit="10" d="M1023.6,833.6c42.9-16.5,49.9-71.5,94.6-71.5
						c6.4,0,11.9,1.3,16.5,3.5c0.5,0.2,0.9,0.4,1.4,0.7c0.9,0.5,1.7,1,2.5,1.5c2,1.3,3.8,2.9,5.4,4.5c1.9,2,3.4,4.2,4.6,6.5
						c0.2,0.4,0.4,0.8,0.6,1.2c0.4,0.8,0.7,1.6,1,2.4c1,2.8,1.5,5.7,1.5,8.6c0,1.6-0.1,3.3-0.5,4.9c-1,5.2-3.9,9.9-8.1,13.2
						c-4.8,3.7-24.7,10.2-28.3-8.8c2.4,2.4,5.7,4,9.1,4.3c4.4,0.4,9.3-0.9,11-5.3c1.6-4.3-1-8.9-4-11.8c-4.5-4.4-11-6.3-17.3-5.8
						c-10.1,0.7-19.5,7.5-23.3,16.7c-3.1,7.4-2.6,16.2,1.1,23.2c2.9,5.5,10.7,10.7,16.2,13.3c1.1,0.5,2.2,0.9,3.4,1.4
						c4.1,1.4,9,2.2,14.5,2.2c10.2,0,18.7-1.9,26.2-4.8 M1075,837c0-2.8-2.3-5-5-5s-5,2.2-5,5s2.3,5,5,5S1075,839.7,1075,837z"/>
				</g>
			</g>
			<g>
				<g>
					<path fill="none" stroke="#FFFFFF" stroke-width="0.5" stroke-miterlimit="10" d="M1151.6,833.6c42.9-16.5,49.9-71.5,94.6-71.5
						c6.4,0,11.9,1.3,16.5,3.5c0.5,0.2,0.9,0.4,1.4,0.7c0.9,0.5,1.7,1,2.5,1.5c2,1.3,3.8,2.9,5.4,4.5c1.9,2,3.4,4.2,4.6,6.5
						c0.2,0.4,0.4,0.8,0.6,1.2c0.4,0.8,0.7,1.6,1,2.4c1,2.8,1.5,5.7,1.5,8.6c0,1.6-0.1,3.3-0.5,4.9c-1,5.2-3.9,9.9-8.1,13.2
						c-4.8,3.7-24.7,10.2-28.3-8.8c2.4,2.4,5.7,4,9.1,4.3c4.4,0.4,9.3-0.9,11-5.3c1.6-4.3-1-8.9-4-11.8c-4.5-4.4-11-6.3-17.3-5.8
						c-10.1,0.7-19.5,7.5-23.3,16.7c-3.1,7.4-2.6,16.2,1.1,23.2c2.9,5.5,10.7,10.7,16.2,13.3c1.1,0.5,2.2,0.9,3.4,1.4
						c4.1,1.4,9,2.2,14.5,2.2c10.2,0,18.7-1.9,26.2-4.8 M1203,837c0-2.8-2.3-5-5-5s-5,2.2-5,5s2.3,5,5,5S1203,839.7,1203,837z"/>
				</g>
			</g>
			<g>
				<g>
					<path fill="none" stroke="#FFFFFF" stroke-width="0.5" stroke-miterlimit="10" d="M1279.6,833.6c42.9-16.5,49.9-71.5,94.6-71.5
						c6.4,0,11.9,1.3,16.5,3.5c0.5,0.2,0.9,0.4,1.4,0.7c0.9,0.5,1.7,1,2.5,1.5c2,1.3,3.8,2.9,5.4,4.5c1.9,2,3.4,4.2,4.6,6.5
						c0.2,0.4,0.4,0.8,0.6,1.2c0.4,0.8,0.7,1.6,1,2.4c1,2.8,1.5,5.7,1.5,8.6c0,1.6-0.1,3.3-0.5,4.9c-1,5.2-3.9,9.9-8.1,13.2
						c-4.8,3.7-24.7,10.2-28.3-8.8c2.4,2.4,5.7,4,9.1,4.3c4.4,0.4,9.3-0.9,11-5.3c1.6-4.3-1-8.9-4-11.8c-4.5-4.4-11-6.3-17.3-5.8
						c-10.1,0.7-19.5,7.5-23.3,16.7c-3.1,7.4-2.6,16.2,1.1,23.2c2.9,5.5,10.7,10.7,16.2,13.3c1.1,0.5,2.2,0.9,3.4,1.4
						c4.1,1.4,9,2.2,14.5,2.2c10.2,0,18.7-1.9,26.2-4.8 M1331,837c0-2.8-2.3-5-5-5s-5,2.2-5,5s2.3,5,5,5S1331,839.7,1331,837z"/>
				</g>
			</g>
			<g>
				<g>
					<path fill="none" stroke="#FFFFFF" stroke-width="0.5" stroke-miterlimit="10" d="M1407.6,833.6c42.9-16.5,49.9-71.5,94.6-71.5
						c6.4,0,11.9,1.3,16.5,3.5c0.5,0.2,0.9,0.4,1.4,0.7c0.9,0.5,1.7,1,2.5,1.5c2,1.3,3.8,2.9,5.4,4.5c1.9,2,3.4,4.2,4.6,6.5
						c0.2,0.4,0.4,0.8,0.6,1.2c0.4,0.8,0.7,1.6,1,2.4c1,2.8,1.5,5.7,1.5,8.6c0,1.6-0.1,3.3-0.5,4.9c-1,5.2-3.9,9.9-8.1,13.2
						c-4.8,3.7-24.7,10.2-28.3-8.8c2.4,2.4,5.7,4,9.1,4.3c4.4,0.4,9.3-0.9,11-5.3c1.6-4.3-1-8.9-4-11.8c-4.5-4.4-11-6.3-17.3-5.8
						c-10.1,0.7-19.5,7.5-23.3,16.7c-3.1,7.4-2.6,16.2,1.1,23.2c2.9,5.5,10.7,10.7,16.2,13.3c1.1,0.5,2.2,0.9,3.4,1.4
						c4.1,1.4,9,2.2,14.5,2.2c10.2,0,18.7-1.9,26.2-4.8 M1459,837c0-2.8-2.3-5-5-5s-5,2.2-5,5s2.3,5,5,5S1459,839.7,1459,837z"/>
				</g>
			</g>
			<g>
				<g>
					<path fill="none" stroke="#FFFFFF" stroke-width="0.5" stroke-miterlimit="10" d="M1535.6,833.6c42.9-16.5,49.9-71.5,94.6-71.5
						c6.4,0,11.9,1.3,16.5,3.5c0.5,0.2,0.9,0.4,1.4,0.7c0.9,0.5,1.7,1,2.5,1.5c2,1.3,3.8,2.9,5.4,4.5c1.9,2,3.4,4.2,4.6,6.5
						c0.2,0.4,0.4,0.8,0.6,1.2c0.4,0.8,0.7,1.6,1,2.4c1,2.8,1.5,5.7,1.5,8.6c0,1.6-0.1,3.3-0.5,4.9c-1,5.2-3.9,9.9-8.1,13.2
						c-4.8,3.7-24.7,10.2-28.3-8.8c2.4,2.4,5.7,4,9.1,4.3c4.4,0.4,9.3-0.9,11-5.3c1.6-4.3-1-8.9-4-11.8c-4.5-4.4-11-6.3-17.3-5.8
						c-10.1,0.7-19.5,7.5-23.3,16.7c-3.1,7.4-2.6,16.2,1.1,23.2c2.9,5.5,10.7,10.7,16.2,13.3c1.1,0.5,2.2,0.9,3.4,1.4
						c4.1,1.4,9,2.2,14.5,2.2c10.2,0,18.7-1.9,26.2-4.8 M1587,837c0-2.8-2.3-5-5-5s-5,2.2-5,5s2.3,5,5,5S1587,839.7,1587,837z"/>
				</g>
			</g>
			<g>
				<g>
					<path fill="none" stroke="#FFFFFF" stroke-width="0.5" stroke-miterlimit="10" d="M1663.6,833.6c42.9-16.5,49.9-71.5,94.6-71.5
						c6.4,0,11.9,1.3,16.5,3.5c0.5,0.2,0.9,0.4,1.4,0.7c0.9,0.5,1.7,1,2.5,1.5c2,1.3,3.8,2.9,5.4,4.5c1.9,2,3.4,4.2,4.6,6.5
						c0.2,0.4,0.4,0.8,0.6,1.2c0.4,0.8,0.7,1.6,1,2.4c1,2.8,1.5,5.7,1.5,8.6c0,1.6-0.1,3.3-0.5,4.9c-1,5.2-3.9,9.9-8.1,13.2
						c-4.8,3.7-24.7,10.2-28.3-8.8c2.4,2.4,5.7,4,9.1,4.3c4.4,0.4,9.3-0.9,11-5.3c1.6-4.3-1-8.9-4-11.8c-4.5-4.4-11-6.3-17.3-5.8
						c-10.1,0.7-19.5,7.5-23.3,16.7c-3.1,7.4-2.6,16.2,1.1,23.2c2.9,5.5,10.7,10.7,16.2,13.3c1.1,0.5,2.2,0.9,3.4,1.4
						c4.1,1.4,9,2.2,14.5,2.2c10.2,0,18.7-1.9,26.2-4.8 M1715,837c0-2.8-2.3-5-5-5s-5,2.2-5,5s2.3,5,5,5S1715,839.7,1715,837z"/>
				</g>
			</g>
			<g>
				<g>
					<path fill="none" stroke="#FFFFFF" stroke-width="0.5" stroke-miterlimit="10" d="M1791.6,833.6c42.9-16.5,49.9-71.5,94.6-71.5
						c6.4,0,11.9,1.3,16.5,3.5c0.5,0.2,0.9,0.4,1.4,0.7c0.9,0.5,1.7,1,2.5,1.5c2,1.3,3.8,2.9,5.4,4.5c1.9,2,3.4,4.2,4.6,6.5
						c0.2,0.4,0.4,0.8,0.6,1.2c0.4,0.8,0.7,1.6,1,2.4c1,2.8,1.5,5.7,1.5,8.6c0,1.6-0.1,3.3-0.5,4.9c-1,5.2-3.9,9.9-8.1,13.2
						c-4.8,3.7-24.7,10.2-28.3-8.8c2.4,2.4,5.7,4,9.1,4.3c4.4,0.4,9.3-0.9,11-5.3c1.6-4.3-1-8.9-4-11.8c-4.5-4.4-11-6.3-17.3-5.8
						c-10.1,0.7-19.5,7.5-23.3,16.7c-3.1,7.4-2.6,16.2,1.1,23.2c2.9,5.5,10.7,10.7,16.2,13.3c1.1,0.5,2.2,0.9,3.4,1.4
						c4.1,1.4,9,2.2,14.5,2.2c10.2,0,18.7-1.9,26.2-4.8 M1843,837c0-2.8-2.3-5-5-5s-5,2.2-5,5s2.3,5,5,5S1843,839.7,1843,837z"/>
				</g>
			</g>
		</g>
	</g>
</g>
</svg>
