<?xml version="1.0" encoding="utf-8"?>
<!-- Generator: Adobe Illustrator 18.1.1, SVG Export Plug-In . SVG Version: 6.00 Build 0)  -->
<svg version="1.1" id="Warstwa_1" xmlns="http://www.w3.org/2000/svg" xmlns:xlink="http://www.w3.org/1999/xlink" x="0px" y="0px"
	 viewBox="0 0 508 637.9" enable-background="new 0 0 508 637.9" xml:space="preserve">
<g>
	
		<path fill="#5A534A" stroke="#FFFFFF" stroke-width="0.2513" stroke-linecap="round" stroke-linejoin="round" stroke-miterlimit="10" d="
		M226.5,196.6c3.9-12.1,4.5-20.2-9.6-31.8l39.8-22.3c-3,15,4.8,29.3,17.7,35.9c2.7,1.4,5.2,2.5,10.7,1.1L226.5,196.6"/>
	
		<path fill="#5A534A" stroke="#FFFFFF" stroke-width="0.2513" stroke-linecap="round" stroke-linejoin="round" stroke-miterlimit="10" d="
		M237.2,89.7c0,0-23-0.2-33.2,5.5c-18.7,11.4-13.9,45.5-13.9,45.5h9.1v3.6l-2.3,3l3,1.6l-1.4,2.3l3.6,1.4c0,0-6.1,14.3,0,17.7
		c8.4,4.8,36.2-11.1,39.1-13.4c0,0,14.8-9.6,15.9-15.9C257.9,134.3,237.2,89.7,237.2,89.7"/>
	<path fill="#9B9690" stroke="#FFFFFF" stroke-width="0.2513" stroke-linecap="round" stroke-miterlimit="10" d="M202.9,94
		c-7.5-15.2,6.6-20.7,11.4-20.2c-0.2,2.3,2.3,4.1,5.5,3.9l5.7-4.5c4.1-2.5,9.6-2.5,14.1-0.2c5.2,2.5,6.4,8.2,6.4,8.2
		c0.9,0,3.6,0.9,5-4.8c8.9-0.2,14.6,3,16.4,5.7c5.2-1.1,11.8-2.7,17.3-1.6c-0.2,4.3,3.2,8.4,2.5,12.7c-0.5,3.4-2.5,6.8-5.2,8.9
		c-0.7,6.1,1.8,12.7,6.8,16.6c0.5,0.2,0.7,0.7,0.9,1.1c0,0.2,0,0.7-0.2,0.9c-0.9,2.3-2.5,4.5-4.8,5.7c-0.9,0.5-1.6,0.7-2.5,0.7
		c0.9,2.5,5.5,6.1,5.5,6.1c1.8,1.8,4.3,3.2,6.8,3.9c0,0-1.1,10.7-11.6,9.8c-1.4,0.9-2,2.7-1.6,4.3c0.2,1.6,1.1,5.5,6.1,5.5
		c3,6.6-0.5,16.6-12.3,14.3c-7.3-1.4-10-8.4-11.6-14.3c-0.5,0-0.9,0.2-1.1,0.5c-2.3,1.1-3.4,4.3-2.3,6.6c-2-0.2-3.6-2-4.3-3.9
		c-0.7-1.8-0.7-4.1-0.7-5.9s0.2-4.1,0-6.1c-0.2-1.4-0.2-3.4-0.2-3.4c-9.8-2.7-8.9-11.4-8-14.8l-9.1-10.2c-4.5-2.7-7.1-2.5-10.2-3.2
		c-3.2-0.5-6.6-0.2-10-1.1c-4.3-1.1-8-3.9-12.1-5.7c-4.1-1.8-9.1-2.5-12.7,0.2c-0.9-4.8,2.7-10,7.5-11.1"/>
	<g>
		<path fill="#5A534A" stroke="#FFFFFF" stroke-width="0.2513" stroke-linecap="round" stroke-miterlimit="10" d="M55.9,301.7
			c-0.7,0.5-8-12.5-23.2-18.2l0,0c0,2.7,0.5,6.1,5.9,8.4l0,0c3,10,13.4,13,13.4,13.2"/>
		<path fill="#5A534A" stroke="#FFFFFF" stroke-width="0.2513" stroke-linecap="round" stroke-miterlimit="10" d="M54.1,299.9
			c-0.5,0.5-9.1-11.8-24.6-16.4l0,0c0.2,2.7,0.9,6.1,6.6,8l0,0c2.3,5.9,8.9,9.8,12.3,11.4"/>
		<path fill="#DBC6AB" stroke="#FFFFFF" stroke-width="0.1675" stroke-linecap="round" stroke-miterlimit="10" d="M36.8,302.8"/>
		<path fill="#DBC6AB" stroke="#FFFFFF" stroke-width="0.1675" stroke-linecap="round" stroke-miterlimit="10" d="M31.4,308.1"/>
		<path fill="#DBC6AB" stroke="#FFFFFF" stroke-width="0.1675" stroke-linecap="round" stroke-miterlimit="10" d="M20.4,311"/>
		
			<line fill="none" stroke="#FFFFFF" stroke-width="0.1675" stroke-linecap="round" stroke-miterlimit="10" x1="28" y1="310.6" x2="28" y2="310.6"/>
		<path fill="#5A534A" stroke="#FFFFFF" stroke-width="0.2513" stroke-linecap="round" stroke-miterlimit="10" d="M56.4,301
			c-0.7,0.7-11.1-12.3-28.9-16.2l0,0c0.5,3.2,1.6,6.8,8,8.2l0,0c5,10.7,17.1,12.1,17.1,12.1"/>
		<path fill="#5A534A" stroke="#FFFFFF" stroke-width="0.2513" stroke-linecap="round" stroke-miterlimit="10" d="M216.8,207.5
			l-0.9-0.9c-21.8-15-53,27.1-79.2,73.5l-68.2,22.5c-4.5,1.1-11.6-0.5-15.2-3.2c-8.2-6.1-15.7-10.5-25.9-10.9c0,0,2.5,5.2,7.7,5.7
			c1.8,3.2,9.1,8.9,12.3,9.6c0,0-3.4,0.5-5-0.5c-1.4-0.9-7.5-5-11.1-5c-3.6,3.6,6.8,6.8,13,13c4.1,4.3,10.2,7.3,15.9,6.1
			c2.3-0.5,3.9-1.1,5.7-1.8h0.2c-0.2,0,55.5-6.4,55.5-6.4c15.7-0.9,24.6-4.8,28.9-10.7c20.7-9.1,45-21.2,56.6-37.8
			C220,242.5,230,219.8,216.8,207.5z"/>
	</g>
	<path fill="#5A534A" stroke="#FFFFFF" stroke-width="0.2513" stroke-linecap="round" stroke-miterlimit="10" d="M221.3,274.8
		c0.2,0.2,12.7,30.3,5.7,60.5h43.7l-17.5-60.5H221.3z"/>
	<path fill="#5A534A" stroke="#FFFFFF" stroke-width="0.2513" stroke-linecap="round" stroke-miterlimit="10" d="M324.4,232.5
		c0,0-4.3,85.3,14.8,103.1h-59.4l-2-71L324.4,232.5z"/>
	
		<path fill="none" stroke="#FFFFFF" stroke-width="0.335" stroke-linecap="round" stroke-linejoin="round" stroke-miterlimit="10" d="
		M199.5,138.4c-1.1,0-1.8-0.9-1.6-2c0-1.4,1.1-2.3,2.5-2c1.6,0.2,2.7,1.6,2.7,3.2c-0.2,2-2,3.4-3.9,3.4"/>
	
		<path fill="none" stroke="#FFFFFF" stroke-width="0.287" stroke-linecap="round" stroke-linejoin="round" stroke-miterlimit="10" d="
		M207.7,124c2.7-0.7,4.5-3.6,3.9-6.4l-10.2,2.7C202,123.1,204.9,124.7,207.7,124z"/>
	
		<path fill="none" stroke="#FFFFFF" stroke-width="0.2513" stroke-linecap="round" stroke-linejoin="round" stroke-miterlimit="10" d="
		M243.6,117.4c-1.8,10.5,12.5,8.2,16.2,12.3c2.7,3.2,2.5,8-0.7,10.9c-2.5,2.3-6.4,2-8.6-0.7c-1.8-2-1.6-5.2,0.5-7.1
		c1.6-1.4,4.1-1.4,5.5,0.5c1.1,1.4,0.9,3.2-0.2,4.5"/>
	
		<path fill="none" stroke="#FFFFFF" stroke-width="0.2513" stroke-linecap="round" stroke-linejoin="round" stroke-miterlimit="10" d="
		M259.5,119.9c-0.2,12.3,15.7,7.3,20.2,11.1c3.6,3.2,4.1,8.6,0.9,12.5c-2.5,3-7.1,3.4-10,0.7c-2.3-2-2.7-5.7-0.7-8
		c1.6-1.8,4.5-2,6.4-0.5c1.6,1.4,1.6,3.6,0.5,5"/>
	
		<path fill="none" stroke="#FFFFFF" stroke-width="0.2513" stroke-linecap="round" stroke-linejoin="round" stroke-miterlimit="10" d="
		M264.1,132c8,17.3-1.1,17.7,2.7,29.6c1.6,4.5,6.8,7.5,11.4,5.7c3.6-1.6,5.2-5.7,3.9-9.1c-1.1-3-4.5-4.3-7.3-3
		c-2.3,0.9-3.4,3.6-2.5,5.9c0.7,1.8,3,2.7,4.8,2"/>
	
		<path fill="none" stroke="#FFFFFF" stroke-width="0.2513" stroke-linecap="round" stroke-linejoin="round" stroke-miterlimit="10" d="
		M252,117.4c9.8,0.9,15.5-9.6,20.2-10.2c4.8-0.5,9.1,3,9.6,8c0.5,3.9-2.5,7.3-6.4,7.7c-3.2,0.2-5.9-2-6.1-5c-0.2-2.5,1.6-4.8,4.1-5
		c2-0.2,3.6,1.4,3.9,3.2"/>
	
		<path fill="none" stroke="#FFFFFF" stroke-width="0.2513" stroke-linecap="round" stroke-linejoin="round" stroke-miterlimit="10" d="
		M207.2,97.9c5.5,0.7,10.5-3.2,11.4-8.6c0.7-4.3-2.5-8.4-6.8-9.1c-3.4-0.5-6.8,2-7.3,5.5c-0.5,2.7,1.6,5.5,4.3,5.7
		c2.3,0.2,4.3-1.4,4.5-3.6"/>
	
		<path fill="none" stroke="#FFFFFF" stroke-width="0.2513" stroke-linecap="round" stroke-linejoin="round" stroke-miterlimit="10" d="
		M206.5,97.4c7.5,2.5,10.5-3.9,16.2-6.1c4.5-1.8,9.6,0.2,11.4,4.8c1.4,3.6-0.2,7.7-3.9,9.1c-3,1.1-6.1-0.2-7.3-3.2
		c-0.9-2.3,0.2-5,2.5-5.9c1.8-0.7,3.9,0.2,4.8,2"/>
	
		<path fill="none" stroke="#FFFFFF" stroke-width="0.2513" stroke-linecap="round" stroke-linejoin="round" stroke-miterlimit="10" d="
		M230.4,107.4c3.9-0.2,8.4,1.1,10.2,1.8c3.4,1.1,7.3,0.5,10.2-1.8c3.9-3,4.5-8.6,1.4-12.3c-2.5-3-6.8-3.6-10-1.1c-2.5,2-3,5.5-0.9,8
		c1.6,2,4.3,2.3,6.4,0.7"/>
	
		<path fill="none" stroke="#FFFFFF" stroke-width="0.2513" stroke-linecap="round" stroke-linejoin="round" stroke-miterlimit="10" d="
		M260.7,99.9c5.5-2.5,8-9.1,5.2-14.6c-2-4.3-7.3-6.4-11.8-4.3c-3.4,1.6-5,5.9-3.4,9.3c1.4,2.7,4.8,4.1,7.5,2.7
		c2.3-1.1,3.2-3.6,2-5.9"/>
	
		<path fill="none" stroke="#FFFFFF" stroke-width="0.2513" stroke-linecap="round" stroke-linejoin="round" stroke-miterlimit="10" d="
		M256.6,105.6c2.7-11.8,16.8-3.2,22.3-5.9c4.3-2,6.1-7.5,4.1-11.8c-1.8-3.4-5.9-5-9.3-3.2c-2.7,1.4-3.9,4.8-2.5,7.5
		c1.1,2.3,3.9,3.2,6.1,2c1.8-0.9,2.5-3,1.6-4.8"/>
	
		<path fill="none" stroke="#FFFFFF" stroke-width="0.2513" stroke-linecap="round" stroke-linejoin="round" stroke-miterlimit="10" d="
		M222.7,86.9c-0.7-5.7,3.2-10.9,8.9-11.6c4.5-0.7,8.6,2.5,9.3,7.1c0.5,3.6-2,6.8-5.7,7.5c-3,0.5-5.5-1.6-5.9-4.5
		c-0.2-2.3,1.4-4.3,3.6-4.8"/>
	<path fill="#9B9690" stroke="#FFFFFF" stroke-width="0.2513" stroke-linecap="round" stroke-miterlimit="10" d="M234.7,121.5
		c-0.9,3-5,11.8-5.2,12.1c-3.2,5.5-11.8,8.4-17.5,9.3c-6.4,0.9-8.2-0.9-10.7-1.4c-0.7,0-1.1,0-1.4,0.2c-0.9,0.5-0.7,1.8-0.7,1.8
		c2.5,0,5.9,0.5,6.1,4.5c0.2,2.7-1.1,3.4-3.4,4.3c0,0-3.2,9.8-5.9,18.2c-2.7,0-5,2.5-5.7,4.5c-0.9,2.5,0,5.5,2,7.3
		c3.9,3.9,18.9,7.3,25.5-7.3c6.4,0.5,24.6-3.2,25.7-21.8C244.5,142.2,239.7,128.6,234.7,121.5z"/>
	
		<path fill="none" stroke="#FFFFFF" stroke-width="0.2513" stroke-linecap="round" stroke-linejoin="round" stroke-miterlimit="10" d="
		M218.1,175c-4.1-0.7-7.1-4.5-6.6-8.6c0.2-3.6,3.4-6.1,7.1-5.9c3,0.2,5,2.7,4.8,5.7c-0.2,2.3-2.3,3.9-4.5,3.9
		c-1.8-0.2-3.2-1.8-3-3.6"/>
	
		<path fill="none" stroke="#FFFFFF" stroke-width="0.2513" stroke-linecap="round" stroke-linejoin="round" stroke-miterlimit="10" d="
		M192.7,182.3c-0.9-0.9-1.8-2-2.3-3.6c-0.9-3.4,0.9-7.1,4.3-8c2.7-0.9,5.7,0.7,6.4,3.4c0.7,2.3-0.7,4.5-2.7,5.2
		c-1.8,0.5-3.6-0.5-4.1-2.3"/>
	
		<path fill="none" stroke="#FFFFFF" stroke-width="0.2513" stroke-linecap="round" stroke-linejoin="round" stroke-miterlimit="10" d="
		M229.5,133.6c0,0-6.4,8.4-4.1,15c0.5,1.4,1.4,2.5,2.7,3.2c2,0.9,4.1-0.2,5-2c0.7-1.6-0.2-3.4-1.8-3.9c-1.1-0.5-2.7,0-3.2,1.4"/>
	<path fill="#5A534A" stroke="#FFFFFF" stroke-width="0.2513" stroke-linecap="round" stroke-miterlimit="10" d="M309.8,172.2
		c18.9,35.5,18.9,49.4,14.6,60.3c-10.2,25.5-37.1,102.1-37.1,102.1l-5.7,14.8c-7.7-6.8-90.1-88.7-80.5-145.4"/>
	
		<path fill="#5A534A" stroke="#FFFFFF" stroke-width="0.2513" stroke-linecap="round" stroke-linejoin="round" stroke-miterlimit="10" d="
		M245.9,263c-34.1,1.8-48-24.1-44.8-58.9l108.5-31.8c9.8,33.9,0.9,70.5-47.8,87.4c-1.1,0.5-12.5-15.5-12.5-15.5L245.9,263z"/>
	<path fill="none" stroke="#19181C" stroke-width="0.2513" stroke-linecap="round" stroke-miterlimit="10" d="M328.7,282.1"/>
	
		<line fill="none" stroke="#FFFFFF" stroke-width="0.2513" stroke-linecap="round" stroke-miterlimit="10" x1="243.4" y1="220.9" x2="249.3" y2="244.1"/>
	<path fill="#DBC6AB" stroke="#19181C" stroke-width="0.2513" stroke-linecap="round" stroke-miterlimit="10" d="M208.8,200.5"/>
	<path fill="#5A534A" stroke="#FFFFFF" stroke-width="0.2513" stroke-miterlimit="10" d="M407.2,159.7L304.8,172
		c-9.6,5-14.8,11.8-13.9,20.9l0.5,1.1c4.1,17.5,29.8,23.4,51.2,17.5c32.5-8.9,46.6-19.3,65.5-33.9c-0.2-3.2-0.9-4.8,0.5-8
		C409.7,167.5,407.9,162.7,407.2,159.7z"/>
	
		<path fill="none" stroke="#FFFFFF" stroke-width="0.2513" stroke-linecap="round" stroke-linejoin="round" stroke-miterlimit="10" d="
		M200.8,207.7c0,0-14.1,53.9-50.3,90.8"/>
	<path fill="none" stroke="#FFFFFF" stroke-width="0.2513" stroke-miterlimit="10" d="M304.8,172.2c0,0,70.3,13.2,96.9,8.4"/>
	
		<path fill="none" stroke="#FFFFFF" stroke-width="0.2513" stroke-linecap="round" stroke-linejoin="round" stroke-miterlimit="10" d="
		M243.4,221.2c-5.7-9.8-27.5-6.1-33,1.6l4.5,14.8"/>
	
		<path fill="none" stroke="#FFFFFF" stroke-width="0.2513" stroke-linecap="round" stroke-linejoin="round" stroke-miterlimit="10" d="
		M243.6,221.2c-0.2-11.4,29.1-24.3,38-20.7l4.1,15"/>
	
		<path fill="none" stroke="#FFFFFF" stroke-width="0.335" stroke-linecap="round" stroke-linejoin="round" stroke-miterlimit="10" d="
		M237.2,89.7"/>
	<path fill="none" stroke="#FFFFFF" stroke-width="0.2513" stroke-linecap="round" stroke-miterlimit="10" d="M262.5,156.6
		c-1.6-5.7-2.5-10.9-6.1-11.4"/>
	
		<path fill="none" stroke="#F15A29" stroke-width="0.335" stroke-linecap="round" stroke-linejoin="round" stroke-miterlimit="10" d="
		M204,95.1"/>
	<path fill="#F9AC1A" stroke="#FFFFFF" stroke-width="0.2513" stroke-miterlimit="10" d="M262,114.2c-18.4,5.2-47.8,1.1-64.2-16.4
		c1.6-2,5-4.1,5-4.1c13.6,15.2,46.2,22.1,63.9,16.4L262,114.2z"/>
	<path fill="none" stroke="#FFFFFF" stroke-width="0.2513" stroke-linecap="round" stroke-miterlimit="10" d="M245.4,80.8
		c0,0,0.5,2.5-1.1,4.8"/>
	<path fill="none" stroke="#FFFFFF" stroke-width="0.2513" stroke-linecap="round" stroke-miterlimit="10" d="M281.6,127
		c-1.6,0-3.4-0.2-4.5-1.4"/>
	<g>
		<path fill="#5A534A" stroke="#FFFFFF" stroke-width="0.2513" stroke-miterlimit="10" d="M384,167.5l-7.5-62.8
			c-0.2-2.5-2.3-5.2-4.5-6.1c-3.2-1.4-4.5-2.7-8.4-8c-3.6-4.8,3.6-15,3.6-15s18.9-9.1,18.7-5.7l1.6,23.7c0,0,16.4,36.4,23.2,58.7
			c2.7,8.6,7.1,25.7-8.6,28.4C394.4,181.8,386.7,178.8,384,167.5z"/>
		<polygon fill="#F9AC1A" stroke="#FFFFFF" stroke-width="0.2513" stroke-miterlimit="10" points="434.9,35.8 452.7,60.5 
			352.3,91.3 367.4,102.4 270.5,141.5 333.5,100.6 319.6,95.4 		"/>
		<path fill="#DBC6AB" stroke="#FFFFFF" stroke-width="0.1675" stroke-miterlimit="10" d="M342.8,74.7"/>
		<path fill="#DBC6AB" stroke="#FFFFFF" stroke-width="0.1675" stroke-miterlimit="10" d="M348.5,79.9"/>
		<path fill="#DBC6AB" stroke="#FFFFFF" stroke-width="0.1675" stroke-miterlimit="10" d="M369.4,83.3"/>
		<line fill="none" stroke="#FFFFFF" stroke-width="0.1675" stroke-miterlimit="10" x1="349.2" y1="82.8" x2="349.2" y2="82.8"/>
		<path fill="#5A534A" stroke="#FFFFFF" stroke-width="0.2513" stroke-miterlimit="10" d="M358.9,75.1c1.6,4.1,4.1,8.9,8.2,13.2l0,0
			c0.9-2,1.8-4.8-1.4-8.2l0,0c0.5-3.2-0.2-5.9-1.1-8.2C364.9,72.2,359.6,70.1,358.9,75.1z"/>
		<path fill="#5A534A" stroke="#FFFFFF" stroke-width="0.2513" stroke-miterlimit="10" d="M363.5,72.6c1.6,4.5,4.5,10.7,9.6,15.9
			l0,0c1.1-2.3,2-5.2-1.6-9.1l0,0c0.7-3.9-0.5-7.3-1.6-10C369.9,69.4,364,66.7,363.5,72.6z"/>
		<path fill="#5A534A" stroke="#FFFFFF" stroke-width="0.2513" stroke-miterlimit="10" d="M374.2,66.9c1.6,3.2,1.8,5.5,1.4,8.2l0,0
			c3.2,3.4,2.5,6.1,1.4,8.2l0,0c-4.3-4.3-6.8-9.3-8.2-13.2C368.7,69.9,369.2,65.3,374.2,66.9z"/>
		<path fill="#5A534A" stroke="#FFFFFF" stroke-width="0.2513" stroke-miterlimit="10" d="M373.3,67.6c1.4,3.6,3.9,8,7.5,11.6l0,0
			c0.9-2,1.8-4.8-1.4-8.2l0,0c0.2-2,0-4.3-0.7-6.4C379,64.6,374,63.5,373.3,67.6z"/>
		<path fill="#5A534A" stroke="#FFFFFF" stroke-width="0.2513" stroke-miterlimit="10" d="M370.3,91.5c5.2-1.4,3.4-6.4,3.4-6.4
			s8.9-3.9,10.2-11.1c-1.1-1.4-3.4-2-5.5,2.5l-1.8,0c-4.8,2-9.6,6.6-13.4,10.9c-0.2,0.5-0.7,0.7-0.9,1.1"/>
		
			<path fill="none" stroke="#FFFFFF" stroke-width="0.2513" stroke-linecap="round" stroke-linejoin="round" stroke-miterlimit="10" d="
			M404.9,179.8c-8.2,1.6-11.8-8.6-11.1-11.8c1.4-2.3,8.4-3,8.4-3l1.6,5.9"/>
	</g>
	<g>
		
			<rect x="193.8" y="387.9" fill="#9B9690" stroke="#FFFFFF" stroke-width="0.2513" stroke-linecap="round" stroke-miterlimit="10" width="182.7" height="248"/>
		
			<rect x="183.3" y="335.6" fill="#9B9690" stroke="#FFFFFF" stroke-width="0.2513" stroke-linecap="round" stroke-miterlimit="10" width="204.5" height="52.3"/>
	</g>
</g>
</svg>
