<?xml version="1.0" encoding="utf-8"?>
<!-- Generator: Adobe Illustrator 18.1.1, SVG Export Plug-In . SVG Version: 6.00 Build 0)  -->
<svg version="1.1" id="Warstwa_1" xmlns="http://www.w3.org/2000/svg" xmlns:xlink="http://www.w3.org/1999/xlink" x="0px" y="0px"
	 viewBox="0 0 706.7 481.3" enable-background="new 0 0 706.7 481.3" xml:space="preserve">
<path fill="#88715A" stroke="#FFFFFF" stroke-width="0.75" stroke-linecap="round" stroke-miterlimit="10" d="M81.6,211.2
	c0-6.1-6.2-11.1-13.8-11.1c-5.2,0-9.7,2.3-12,5.7c-5.7,1.4-9.9,5.6-9.9,10.7c0,6.1,6.2,11.1,13.8,11.1c5.2,0,9.7-2.3,12-5.7
	C77.4,220.6,81.6,216.3,81.6,211.2z"/>
<g>
	<path fill="#88715A" stroke="#FFFFFF" stroke-width="0.75" stroke-linecap="round" stroke-miterlimit="10" d="M90.7,370.8
		c-0.2-5.2,3.9-12.5,4.6-13.5c1-1-0.6-18.5-0.7-18.9c0,0,0,0,0-0.1l0,0c-2-11.6-2-22.2,4.7-22.5c-6-9.6-13.6-22.3-13.6-32.9
		c0-10.6,2.2-22.3,10.7-23.4l0.6-0.1c22.5,0,7.6,77.5,3.9,97.7l2,11.1c0.5,1.5-1.1,9.4-2.1,10.3c-0.6-0.7-1.3-1.8-0.3-3.5
		c-0.1-0.1-0.1-0.1-0.1-0.2c-0.3,1.5-0.9,3.1-1.9,4.7c-0.4-0.5-0.8-1.1-0.9-1.9c-0.4,1-0.9,2.1-1.5,3.2c-0.8-0.9-1.5-2.2-0.3-4.4
		c-0.1-0.1-0.1-0.2-0.1-0.3c-0.3,1.1-0.8,2.2-1.5,3.2c-0.7-0.9-1.4-2-0.3-3.9c-1-2.2-0.2-5,0.4-6.4l-0.9-1.3c0,0,0.2,4.7-2.7,6.7
		c-0.8-0.2-1.6-1-0.1-2.9L90.7,370.8z"/>
	<path fill="none" stroke="#FFFFFF" stroke-width="0.75" stroke-miterlimit="10" d="M100,309.3c-13.5-21.9-11.1-38.1-6.4-42
		c2.3-1.9,5.6-2.2,7.8,0c1.7,1.7,1.7,4.5,0,6.2c-1.4,1.4-3.6,1.4-5,0c-1.1-1.1-1.1-2.9,0-4"/>
	
		<path fill="none" stroke="#FFFFFF" stroke-width="0.75" stroke-linecap="round" stroke-linejoin="round" stroke-miterlimit="10" d="
		M90.7,370.8c-0.2-5.2,3.9-12.5,4.6-13.5c1-1-0.3-15.4-0.7-18.9c0,0,0,0,0-0.1l0,0c-2-11.6-2-22.2,4.7-22.5
		c-6-9.6-13.6-22.3-13.6-32.9c0-10.6,2.3-22.5,10.7-23.6h0.5c22.1,0,8,78.5,4,97.8l2,11.1c0.5,1.5-1.1,9.4-2.1,10.3
		c-0.6-0.7-1.3-1.8-0.3-3.5c-0.1-0.1-0.1-0.1-0.1-0.2c-0.3,1.5-0.9,3.1-1.9,4.7c-0.4-0.5-0.8-1.1-0.9-1.9c-0.4,1-0.9,2.1-1.5,3.2
		c-0.8-0.9-1.5-2.2-0.3-4.4c-0.1-0.1-0.1-0.2-0.1-0.3c-0.3,1.1-0.8,2.2-1.5,3.2c-0.7-0.9-1.4-2-0.3-3.9c-1-2.2-0.2-5,0.4-6.4
		l-0.9-1.3c0,0,0.2,4.7-2.7,6.7c-0.8-0.2-1.6-1-0.1-2.9L90.7,370.8z"/>
	<g>
		<path fill="#34110D" stroke="#FFFFFF" stroke-width="0.5" stroke-miterlimit="10" d="M103.4,370.2"/>
		<path fill="#34110D" stroke="#FFFFFF" stroke-width="0.5" stroke-miterlimit="10" d="M101.5,373.3"/>
		<path fill="#34110D" stroke="#FFFFFF" stroke-width="0.5" stroke-miterlimit="10" d="M100.9,378.5"/>
		<line fill="none" stroke="#FFFFFF" stroke-width="0.5" stroke-miterlimit="10" x1="100.6" y1="375" x2="100.6" y2="375"/>
		<path fill="#88715A" stroke="#FFFFFF" stroke-width="0.75" stroke-linecap="round" stroke-miterlimit="10" d="M101.2,368.4
			c-0.3,0,0.6,5.6-2.6,11l0,0c-0.7-0.9-1.4-2-0.3-3.9l0,0c-1.6-3.7,0.9-7.1,0.9-7.1"/>
		<path fill="#88715A" stroke="#FFFFFF" stroke-width="0.75" stroke-linecap="round" stroke-miterlimit="10" d="M99.2,368.4
			c-0.3,0,0.7,6.3-2.8,12.4l0,0c-0.8-0.9-1.5-2.2-0.3-4.4l0,0c-1.8-4.1,1-7.9,0.9-7.9"/>
		<path fill="#88715A" stroke="#FFFFFF" stroke-width="0.75" stroke-linecap="round" stroke-miterlimit="10" d="M97,368.3
			c-0.3,0,0.6,5.6-2.6,11l0,0c-0.7-0.9-1.4-2-0.3-3.9l0,0c-1-2.2-0.1-5.1,0.5-6.4"/>
	</g>
	
		<line fill="none" stroke="#FFFFFF" stroke-width="0.75" stroke-linecap="round" stroke-miterlimit="10" x1="104.5" y1="337.1" x2="95.3" y2="357.3"/>
</g>
<path fill="#88715A" stroke="#FFFFFF" stroke-width="0.75" stroke-linecap="round" stroke-miterlimit="10" d="M36.6,259.4
	c11.5,0,20.7-6.8,20.7-15.2l9.3-3.2l3.9,9.3c0,5.1,12,9,26.2,9"/>
<path fill="#88715A" stroke="#FFFFFF" stroke-width="0.75" stroke-linecap="round" stroke-miterlimit="10" d="M70.7,450
	c-0.1,0,0-11-0.5-26.6l6.1-1L75.9,449c5.2,1.5,12.1,4.8,18.6,7.3l2.9,4.3H66.8C66.8,456.3,66.5,451,70.7,450"/>
<polyline fill="#88715A" stroke="#FFFFFF" stroke-width="0.75" stroke-linecap="round" stroke-miterlimit="10" points="94.5,456.4 
	97.4,460.6 66.8,460.6 "/>
<path fill="#88715A" stroke="#FFFFFF" stroke-width="0.75" stroke-linecap="round" stroke-miterlimit="10" d="M64.5,463.2h42.9
	c0.2,0,0.3-0.1,0.3-0.3c0,0-1.8-2.3-2-2.3H64.5V463.2z"/>
<path fill="#88715A" stroke="#FFFFFF" stroke-width="0.75" stroke-linecap="round" stroke-miterlimit="10" d="M103.7,460.6
	c1.8-0.7,2.1-2.7,0.3-3.3c-0.4-0.2-4.3,0.8-4.8,0.7c-2-0.6-3.7-1.4-4.8-1.6l2.9,4.3L103.7,460.6L103.7,460.6z"/>
<polygon fill="#88715A" stroke="#FFFFFF" stroke-width="0.75" stroke-linecap="round" stroke-miterlimit="10" points="66.9,456.8 
	80.9,450.6 94.5,456.4 97.4,460.6 66.8,460.6 "/>
<path fill="#88715A" stroke="#FFFFFF" stroke-width="0.75" stroke-linecap="round" stroke-miterlimit="10" d="M55.4,450
	c-0.1,0,0-9.3-0.5-25l6.1-2.6L60.5,449c5.2,1.5,12.1,4.8,18.6,7.3l2.9,4.3H51.4c0-4.3-0.3-9.7,4-10.7"/>
<polyline fill="#88715A" stroke="#FFFFFF" stroke-width="0.75" stroke-linecap="round" stroke-miterlimit="10" points="79.2,456.4 
	82,460.6 51.4,460.6 "/>
<path fill="none" stroke="#221E20" stroke-width="0.75" stroke-linecap="round" stroke-miterlimit="10" d="M97.8,370.2"/>
<path fill="#FFFFFF" stroke="#221E20" stroke-width="0.75" stroke-linecap="round" stroke-miterlimit="10" d="M95.8,373.3"/>
<path fill="#34110D" stroke="#FFFFFF" stroke-width="0.75" stroke-linecap="round" stroke-linejoin="round" stroke-miterlimit="10" d="
	M81.8,319.2H68.8c-5.7,1.5-10,8.7-10,16.4c0,7.7,4.3,14,10,15.5c-11.9,3.9-2.2,29.1,8.3,40.1c-18.8-0.5-4.4,37.6-1.2,57.8
	c2.4-10,13-55.2,16.4-83.4C94.9,343.4,85.9,326.1,81.8,319.2"/>
<path fill="none" stroke="#FFFFFF" stroke-width="0.75" stroke-linecap="round" stroke-miterlimit="10" d="M68.4,359.7
	c1,18.1,9.8,27.9,14,28.2c2.2,0.2,4.1-1,4.5-3.1c0.3-1.7-0.8-3.3-2.5-3.6c-1.4-0.2-2.6,0.6-2.9,2c-0.2,1.1,0.5,2.1,1.6,2.3"/>
<path fill="#34110D" stroke="#FFFFFF" stroke-width="0.75" stroke-linecap="round" stroke-miterlimit="10" d="M46.7,322.7
	c3.7-2.2,2.8-14.8-1.9-21.5l-8.2-10.2l12.5-9.9l22.4,21.3l-3.1,14.2l-3.5,6.4l-11.4,7.9L46.7,322.7z"/>
<path fill="#88715A" stroke="#FFFFFF" stroke-width="0.75" stroke-linecap="round" stroke-miterlimit="10" d="M36.5,259.4
	c-4,18.7-0.5,31.1,5.1,32.4c13.7,3.2,23.6,28.3,26.2,32.4l2.8,5.8l2.3,6.6c2.7-4.1,26.4-53.5,23.8-77.3"/>
<path fill="#88715A" stroke="#FFFFFF" stroke-width="0.75" stroke-linecap="round" stroke-miterlimit="10" d="M65.2,319.4l-13.1-0.2
	c-5.7,1.5-10,8.7-10,16.4c0,7.7,4.3,14,10,15.5c-11.9,3.9-2.2,29.1,8.3,40.1c-18.8-0.5-3,37.6,0.2,57.8c2.4-10,11.5-55.2,14.9-83.4
	C78.1,343.4,69.3,326.3,65.2,319.4"/>
<polygon fill="#88715A" stroke="#FFFFFF" stroke-width="0.75" stroke-linecap="round" stroke-miterlimit="10" points="56.6,243.3 
	65.3,263.4 73.3,264.4 70.5,248.4 "/>
<path fill="#88715A" stroke="#FFFFFF" stroke-width="0.75" stroke-linecap="round" stroke-miterlimit="10" d="M70.5,249.2l2.7,15.2
	c-1.1,0-8.4-9.5-8.4-15.4L70.5,249.2z"/>
<path fill="#88715A" stroke="#FFFFFF" stroke-width="0.75" stroke-linecap="round" stroke-miterlimit="10" d="M78,220.8
	c-1.2-4-4-6.9-9-7.1c-5-0.1-9.2,3.8-9.3,8.8v0.7c-0.1,2.1-1.8,3.7-3.9,3.7c-2.1,0-3.5-1.5-3.5-3.7l0,0v5.7c-0.1,4.4-0.1,7.9,3.3,13
	c3.9,5.8,11.4,8.5,17.2,8.3c5.2-0.2,5.9-3.4,4.8-5.1c-0.8-1.2-2.2-1.9-2.8-2.3l1.4-0.8l-1.8-1l1.9-1.7l-0.7-1.2h4.3L78,220.8"/>
<path fill="none" stroke="#FFFFFF" stroke-width="0.75" stroke-linecap="round" stroke-miterlimit="10" d="M74.6,235.3
	c0.3,0.3,0.8,0.2,1.1-0.1c0.3-0.4,0.3-1-0.1-1.3c-0.5-0.4-1.2-0.3-1.6,0.1c-0.5,0.6-0.5,1.5,0.2,2c0.7,0.7,1.8,0.5,2.6-0.2
	c0.6-0.6,0.5-1.8,0.5-1.8l-0.8-10.2"/>
<path fill="none" stroke="#FFFFFF" stroke-width="0.75" stroke-linecap="round" stroke-miterlimit="10" d="M61.1,222
	c6.8-4.6,11,0.9,11.7,0.5c1.8-1.1,3,0,3.4,0.2"/>
<path fill="#88715A" stroke="#FFFFFF" stroke-width="0.75" stroke-linecap="round" stroke-miterlimit="10" d="M77.7,298.2
	c15.8-3.7,19-22.1,19-38.8l-23,5.1l-37.1-5.1c0,16.9,8.9,38,33.4,39.2c0.6,0.1,3.6-8.7,3.6-8.7L77.7,298.2z"/>
<path fill="none" stroke="#221E20" stroke-width="0.75" stroke-linecap="round" stroke-miterlimit="10" d="M29.5,295.1"/>
<line fill="none" stroke="#FFFFFF" stroke-width="0.75" stroke-linecap="round" stroke-miterlimit="10" x1="73.3" y1="277.4" x2="73.6" y2="288.8"/>
<path fill="none" stroke="#FFFFFF" stroke-width="0.75" stroke-linecap="round" stroke-miterlimit="10" d="M73.3,277.5
	c0.5-1.2,1.2-2.4,2.3-3.4c3.2-3.2,8.3-3.2,11.6,0c2.6,2.6,2.6,6.7,0,9.3c-2,2-5.3,2-7.4,0c-1.6-1.6-1.6-4.3,0-5.9
	c1.3-1.3,3.4-1.3,4.7,0"/>
<path fill="none" stroke="#FFFFFF" stroke-width="0.75" stroke-linecap="round" stroke-miterlimit="10" d="M73.3,277.5
	c-0.5-1.2-1.2-2.4-2.3-3.4c-3.2-3.2-8.3-3.2-11.6,0c-2.6,2.6-2.6,6.7,0,9.3c2,2,5.3,2,7.4,0c1.6-1.6,1.6-4.3,0-5.9
	c-1.3-1.3-3.4-1.3-4.7,0"/>
<path fill="none" stroke="#221E20" stroke-width="0.75" stroke-linecap="round" stroke-miterlimit="10" d="M74.6,294.2
	c3.5,10.3,1.6,22.8-1.2,33.5"/>
<path fill="none" stroke="#FFFFFF" stroke-width="0.75" stroke-linecap="round" stroke-miterlimit="10" d="M51,359.2
	c1,18.1,9.8,27.9,14,28.2c2.2,0.2,4.1-1,4.5-3.1c0.3-1.7-0.8-3.3-2.5-3.6c-1.4-0.2-2.6,0.6-2.9,2c-0.2,1.1,0.5,2.1,1.6,2.3"/>
<path fill="#88715A" stroke="#FFFFFF" stroke-width="0.75" stroke-linecap="round" stroke-miterlimit="10" d="M49.2,463.2H92
	c0.2,0,0.3-0.1,0.3-0.3c0,0-1.8-2.3-2-2.3H49.2V463.2z"/>
<path fill="#88715A" stroke="#FFFFFF" stroke-width="0.75" stroke-linecap="round" stroke-miterlimit="10" d="M77.7,460.6"/>
<path fill="#88715A" stroke="#FFFFFF" stroke-width="0.75" stroke-linecap="round" stroke-miterlimit="10" d="M88.3,460.6
	c1.8-0.7,2.1-2.7,0.3-3.3c-0.4-0.2-4.3,0.8-4.8,0.7c-2-0.6-3.7-1.4-4.8-1.6l2.9,4.3L88.3,460.6L88.3,460.6z"/>
<line fill="none" stroke="#221E20" stroke-width="0.75" stroke-linecap="round" stroke-miterlimit="10" x1="39.8" y1="367" x2="39.2" y2="368.7"/>
<polygon fill="#88715A" stroke="#FFFFFF" stroke-width="0.75" stroke-linecap="round" stroke-miterlimit="10" points="51.6,456.8 
	65.5,450.6 79.2,456.4 82,460.6 51.4,460.6 "/>
<path fill="#88715A" stroke="#FFFFFF" stroke-width="0.75" stroke-linecap="round" stroke-miterlimit="10" d="M93.1,460.6"/>
<line fill="none" stroke="#FFFFFF" stroke-width="0.75" stroke-linecap="round" stroke-miterlimit="10" x1="74.4" y1="241.1" x2="72.6" y2="241.6"/>
<g>
	<g>
		<path fill="#88715A" d="M72.8,225c0,0.1-2.3,1.9-5.1,1.9c-2.8,0-5.1-1.6-5.1-1.9c0-0.3,2.3-1.9,5.1-1.9
			C70.6,223.2,72.8,225,72.8,225z"/>
		<circle fill="#88715A" cx="67.7" cy="225" r="1.2"/>
	</g>
	<g>
		<path fill="#88715A" stroke="#FFFFFF" stroke-width="0.75" stroke-linecap="round" stroke-miterlimit="10" d="M72.8,225
			c0,0.1-2.3,1.9-5.1,1.9c-2.8,0-5.1-1.6-5.1-1.9c0-0.3,2.3-1.9,5.1-1.9C70.6,223.2,72.8,225,72.8,225z"/>
		
			<circle fill="#88715A" stroke="#FFFFFF" stroke-width="0.75" stroke-linecap="round" stroke-miterlimit="10" cx="67.7" cy="225" r="1.2"/>
	</g>
	<g>
		<path fill="none" stroke="#FFFFFF" stroke-width="0.75" stroke-linecap="round" stroke-miterlimit="10" d="M72.8,225
			c0,0.1-2.3,1.9-5.1,1.9c-2.8,0-5.1-1.6-5.1-1.9c0-0.3,2.3-1.9,5.1-1.9C70.6,223.2,72.8,225,72.8,225z"/>
		
			<circle fill="none" stroke="#FFFFFF" stroke-width="0.75" stroke-linecap="round" stroke-miterlimit="10" cx="67.7" cy="225" r="1.2"/>
	</g>
</g>
<path fill="none" stroke="#FFFFFF" stroke-width="0.75" stroke-linecap="round" stroke-miterlimit="10" d="M63.8,203"/>
<path fill="none" stroke="#221E20" stroke-width="0.75" stroke-linecap="round" stroke-miterlimit="10" d="M86.5,256.3"/>
<path fill="#88715A" stroke="#FFFFFF" stroke-width="0.75" stroke-linecap="round" stroke-miterlimit="10" d="M95.6,349.1
	c0.6-17.4-6.9-27.4-13.4-29.2h-28c0,60.9-6.4,131.6,40.2,132.9v-85.2L95.6,349.1z"/>
<path fill="#88715A" stroke="#FFFFFF" stroke-width="0.75" stroke-linecap="round" stroke-miterlimit="10" d="M37.2,349.1
	c-0.6-17.4,4.9-27.6,11.4-29.4l34.6,0.2c0,60.9-24.6,138.6-44.8,138.6v-73.8L37.2,349.1z"/>
<path fill="#88715A" stroke="#FFFFFF" stroke-width="0.75" stroke-linecap="round" stroke-miterlimit="10" d="M82.2,319.8
	c8.7,0,18.3-59.5,14-60.3l-23.9,30.2l-23.8,30L82.2,319.8z"/>
<path fill="none" stroke="#FFFFFF" stroke-width="0.75" stroke-linecap="round" stroke-miterlimit="10" d="M77.6,319.7
	c-0.6,10.2-3.1,26.4-12.2,43.7"/>
<path fill="none" stroke="#FFFFFF" stroke-width="0.75" stroke-linecap="round" stroke-miterlimit="10" d="M63.8,319.7
	c-0.3,5.1-1.5,13.2-6.1,21.9c-2.4,4.6-5.2,8.2-7.7,10.9"/>
<path fill="none" stroke="#FFFFFF" stroke-width="0.75" stroke-linecap="round" stroke-miterlimit="10" d="M87,287.6
	c-0.5,8.5-10,26.5-17.5,32.1"/>
<path fill="none" stroke="#FFFFFF" stroke-width="0.75" stroke-miterlimit="10" d="M64.1,248.9c-1.6,0-2.8-1.3-2.8-2.8
	c0-1.2,1-2.3,2.3-2.3c1,0,1.8,0.8,1.8,1.8c0,0.8-0.7,1.5-1.5,1.5c-0.6,0-1.2-0.5-1.2-1.2c0-0.5,0.4-1,1-1c0.4,0,0.7,0.3,0.7,0.7
	c0,0.3-0.3,0.6-0.6,0.6"/>
<path fill="none" stroke="#FFFFFF" stroke-width="0.75" stroke-miterlimit="10" d="M67.5,250.6c-1.4,0-2.6-1.1-2.6-2.6
	c0-1.1,0.9-2,2-2c0.9,0,1.6,0.7,1.6,1.6c0,0.7-0.6,1.3-1.3,1.3c-0.6,0-1.1-0.5-1.1-1.1c0-0.5,0.4-0.9,0.9-0.9c0.4,0,0.7,0.3,0.7,0.7
	c0,0.3-0.2,0.6-0.6,0.6"/>
<path fill="none" stroke="#FFFFFF" stroke-width="0.75" stroke-miterlimit="10" d="M71.7,251.4c-1.4,0-2.5-1.1-2.5-2.5
	c0-1.1,0.9-2,2-2c0.9,0,1.6,0.7,1.6,1.6c0,0.7-0.6,1.3-1.3,1.3c-0.6,0-1-0.5-1-1c0-0.5,0.3-0.8,0.8-0.8c0.3,0,0.7,0.3,0.7,0.7
	c0,0.3-0.2,0.5-0.5,0.5"/>
<path fill="none" stroke="#FFFFFF" stroke-width="0.75" stroke-miterlimit="10" d="M75.6,250.6c-1.5,0-2.7-1.2-2.7-2.7
	c0-1.2,1-2.2,2.2-2.2c1,0,1.7,0.7,1.7,1.7c0,0.7-0.6,1.4-1.4,1.4c-0.6,0-1.1-0.5-1.1-1.1c0-0.5,0.4-0.9,0.9-0.9
	c0.4,0,0.7,0.3,0.7,0.7c0,0.3-0.2,0.6-0.6,0.6"/>
<path fill="#C3996C" stroke="#FFFFFF" stroke-width="0.75" stroke-miterlimit="10" d="M48.3,213"/>
<g>
	
		<path fill="#B14A17" stroke="#FFFFFF" stroke-width="0.75" stroke-linecap="round" stroke-linejoin="round" stroke-miterlimit="10" d="
		M52.5,231.6c0.2-0.9,0.5-1.8,1-2.6C52.9,229.6,52.6,230.5,52.5,231.6z"/>
	<path fill="#88715A" stroke="#FFFFFF" stroke-width="0.75" stroke-linecap="round" stroke-miterlimit="10" d="M79.7,243.4
		c-0.7-0.1-1.6,0.1-2.3,0.3c-0.5,0.2-2.2,1.2-2.4,1.5c-10.4-0.3-1.9-7-1.9-7s-3.9-3-8.2,4.1c4.2-5.8,0.9-12.8-5.7-17.2
		c0.9,2.6,6.1,12.1-1,13.9c-4.1,1-6-4-5.7-7.3c-0.5,2.8,0.5,6.1,2.4,9.1c-0.9,1-1.5,2.3-1.5,3.7c0,3.1,2.4,5.6,5.6,5.7
		c0.5,2.6,2.8,4.5,5.6,4.5c1,0,1.9-0.3,2.7-0.7c0.8,2.1,2.9,3.6,5.3,3.6c2.6,0,4.7-1.7,5.4-4c0.6,0.2,1.1,0.3,1.8,0.3
		c3.1,0,5.2-2.6,5.2-5.7C84.9,245.2,81.5,243.5,79.7,243.4z"/>
</g>
<path fill="none" stroke="#FFFFFF" stroke-width="0.75" stroke-linecap="round" stroke-miterlimit="10" d="M64.9,242.2
	c-0.8,1.4-0.3,3.2,1,4c1.1,0.7,2.6,0.3,3.2-0.9c0.5-0.9,0.2-2-0.7-2.6c-0.7-0.4-1.6-0.2-2,0.5c-0.3,0.6-0.2,1.3,0.4,1.6
	c0.5,0.3,1,0.1,1.3-0.3c0.2-0.3,0.1-0.9-0.3-1"/>
<path fill="none" stroke="#FFFFFF" stroke-width="0.75" stroke-linecap="round" stroke-miterlimit="10" d="M75.1,245.1
	c2.3-2.3,6.1-2.3,8.4,0c1.9,1.9,1.9,4.9,0,6.8c-1.5,1.5-3.9,1.5-5.4,0c-1.2-1.2-1.2-3.1,0-4.3c1-1,2.5-1,3.5,0c0.7,0.7,0.7,2,0,2.8
	c-0.6,0.6-1.6,0.6-2.2,0c-0.5-0.5-0.5-1.3,0-1.8"/>
<path fill="none" stroke="#FFFFFF" stroke-width="0.75" stroke-linecap="round" stroke-miterlimit="10" d="M67.3,254.2
	c1.4,0.8,3.2,0.3,4-1c0.7-1.1,0.3-2.6-0.9-3.2c-0.9-0.5-2-0.2-2.6,0.7c-0.4,0.7-0.2,1.6,0.5,2c0.6,0.3,1.3,0.2,1.6-0.4
	c0.3-0.5,0.1-1-0.3-1.3c-0.3-0.2-0.9-0.1-1,0.3"/>
<path fill="none" stroke="#FFFFFF" stroke-width="0.75" stroke-linecap="round" stroke-miterlimit="10" d="M54.9,240.9
	c-0.8,1.4-0.3,3.2,1,4c1.1,0.7,2.6,0.3,3.2-0.9c0.5-0.9,0.2-2-0.7-2.6c-0.7-0.4-1.6-0.2-2,0.5c-0.3,0.6-0.2,1.3,0.4,1.6
	c0.5,0.3,1,0.1,1.3-0.3c0.2-0.3,0.1-0.9-0.3-1"/>
<path fill="#88715A" stroke="#FFFFFF" stroke-width="0.75" stroke-linecap="round" stroke-miterlimit="10" d="M58.2,238.9
	L58.2,238.9c-5.5,0.8-6.9-7.5-4.7-9.9l0,0c1.5-1.9,4-1.8,5.4-0.3c1.1,1.1,1,3.3-0.2,4.5c-0.9,0.9-2.4,0.9-3.3,0
	c-0.7-0.7-0.7-1.9,0-2.7c0.6-0.6,1.5-0.6,2.1,0c0.5,0.5,0.5,1.2,0,1.7"/>
<path fill="none" stroke="#FFFFFF" stroke-width="0.75" stroke-linecap="round" stroke-linejoin="round" stroke-miterlimit="10" d="
	M55.8,205.8c1.4-2.4,4.5-3.3,7-1.9c2,1.1,2.7,3.6,1.5,5.6c-0.9,1.6-2.9,2.1-4.5,1.2c-1.2-0.7-1.7-2.3-1-3.6c0.6-1,1.9-1.4,2.8-0.8
	c0.8,0.5,1.1,1.5,0.6,2.3c-0.3,0.6-1.2,0.9-1.8,0.5c-0.5-0.3-0.7-1-0.4-1.5c0.2-0.4,0.7-0.6,1.2-0.3"/>
<path fill="none" stroke="#FFFFFF" stroke-width="0.75" stroke-linecap="round" stroke-linejoin="round" stroke-miterlimit="10" d="
	M52.4,223.4c2.4-1.4,3.2-4.6,1.8-7"/>
<path fill="none" stroke="#FFFFFF" stroke-width="0.75" stroke-linecap="round" stroke-linejoin="round" stroke-miterlimit="10" d="
	M74.5,215.4c-3.2-1.8-4.3-5.8-2.4-9"/>
<g>
	<g>
		<path fill="#88715A" stroke="#FFFFFF" stroke-width="0.75" stroke-linecap="round" stroke-miterlimit="10" d="M17.8,186.4
			c1.8,4.9,0,13.1-0.3,14.2c-0.7,1.2,6,17.5,6.2,17.9c0,0,0,0,0,0.1l0,0c5.3,10.6,8.5,20.6,2.2,22.9c8.6,7.4,19.6,17.3,22.8,27.4
			c3.1,10.1,4.5,21.9-3.3,25.5l-0.6,0.3c-20.9,6.5-30.3-71.8-32.8-92.1l-5.3-10c-1-1.3-1.8-9.3-1.1-10.4c0.8,0.5,1.8,1.3,1.4,3.3
			c0.1,0.1,0.1,0.1,0.1,0.2c-0.1-1.5,0-3.2,0.4-5c0.5,0.3,1.1,0.8,1.4,1.5c0.1-1.1,0.2-2.3,0.5-3.5c1,0.7,2.1,1.6,1.6,4.1
			c0.1,0.1,0.1,0.2,0.2,0.3c0-1.1,0.1-2.3,0.4-3.5c0.9,0.6,1.9,1.5,1.4,3.6c1.6,1.9,1.6,4.7,1.5,6.2l1.2,1c0,0-1.5-4.4,0.6-7.2
			c0.9-0.1,1.8,0.5,1,2.7L17.8,186.4z"/>
		
			<path fill="none" stroke="#FFFFFF" stroke-width="0.75" stroke-linecap="round" stroke-linejoin="round" stroke-miterlimit="10" d="
			M17.8,186.4c1.8,4.9,0,13.1-0.3,14.2c-0.7,1.2,4.9,14.6,6.2,17.9c0,0,0,0,0,0.1l0,0c5.3,10.6,8.5,20.6,2.2,22.9
			c8.6,7.4,19.6,17.3,22.8,27.4c3.1,10.1,4.5,21.9-3.3,25.5l-0.6,0.3c-21.1,6.6-30.8-72.4-32.8-92.1l-5.3-10
			c-1-1.3-1.8-9.3-1.1-10.4c0.8,0.5,1.8,1.3,1.4,3.3c0.1,0.1,0.1,0.1,0.1,0.2c-0.1-1.5,0-3.2,0.4-5c0.5,0.3,1.1,0.8,1.4,1.5
			c0.1-1.1,0.2-2.3,0.5-3.5c1,0.7,2.1,1.6,1.6,4.1c0.1,0.1,0.1,0.2,0.2,0.3c0-1.1,0.1-2.3,0.4-3.5c0.9,0.6,1.9,1.5,1.4,3.6
			c1.6,1.9,1.6,4.7,1.5,6.2l1.2,1c0,0-1.5-4.4,0.6-7.2c0.9-0.1,1.8,0.5,1,2.7L17.8,186.4z"/>
		<g>
			<g>
				<path fill="#88715A" d="M5.7,190.8"/>
				<path fill="#88715A" d="M6.8,187.3"/>
				<path fill="#88715A" d="M5.7,182.1"/>
				<line fill="none" x1="7.1" y1="185.4" x2="7.1" y2="185.4"/>
				<path fill="#88715A" d="M10.4,191.3c0.3-0.1-2.5-5.8-1-12.7l0,0c1,0.7,2.1,1.6,1.6,4.1l0,0"/>
				<path fill="#88715A" d="M12.5,190.7c0.3-0.1-2.2-5.2-0.9-11.3l0,0c0.9,0.6,1.9,1.5,1.4,3.6l0,0c1.6,1.9,1.6,4.8,1.5,6.2"/>
				<path fill="#88715A" d="M8.5,191.8c0.3-0.1-2.2-5.2-0.9-11.3l0,0c0.9,0.6,1.9,1.5,1.4,3.6l0,0"/>
			</g>
			<g>
				<path fill="#34110D" stroke="#FFFFFF" stroke-width="0.5" stroke-miterlimit="10" d="M5.7,190.8"/>
				<path fill="#34110D" stroke="#FFFFFF" stroke-width="0.5" stroke-miterlimit="10" d="M6.8,187.3"/>
				<path fill="#34110D" stroke="#FFFFFF" stroke-width="0.5" stroke-miterlimit="10" d="M5.7,182.1"/>
				<line fill="none" stroke="#FFFFFF" stroke-width="0.5" stroke-miterlimit="10" x1="7.1" y1="185.4" x2="7.1" y2="185.4"/>
				<path fill="#88715A" stroke="#FFFFFF" stroke-width="0.75" stroke-linecap="round" stroke-miterlimit="10" d="M10.4,191.3
					c0.3-0.1-2.5-5.8-1-12.7l0,0c1,0.7,2.1,1.6,1.6,4.1l0,0"/>
				<path fill="#88715A" stroke="#FFFFFF" stroke-width="0.75" stroke-linecap="round" stroke-miterlimit="10" d="M12.5,190.7
					c0.3-0.1-2.2-5.2-0.9-11.3l0,0c0.9,0.6,1.9,1.5,1.4,3.6l0,0c1.6,1.9,1.6,4.8,1.5,6.2"/>
				<path fill="#88715A" stroke="#FFFFFF" stroke-width="0.75" stroke-linecap="round" stroke-miterlimit="10" d="M8.5,191.8
					c0.3-0.1-2.2-5.2-0.9-11.3l0,0c0.9,0.6,1.9,1.5,1.4,3.6l0,0"/>
			</g>
			<g>
				<path fill="none" stroke="#FFFFFF" stroke-width="0.75" stroke-linecap="round" stroke-miterlimit="10" d="M5.7,190.8"/>
				<path fill="none" stroke="#FFFFFF" stroke-width="0.75" stroke-linecap="round" stroke-miterlimit="10" d="M6.8,187.3"/>
				<path fill="none" stroke="#FFFFFF" stroke-width="0.75" stroke-linecap="round" stroke-miterlimit="10" d="M5.7,182.1"/>
				
					<line fill="none" stroke="#FFFFFF" stroke-width="0.75" stroke-linecap="round" stroke-miterlimit="10" x1="7.1" y1="185.4" x2="7.1" y2="185.4"/>
				<path fill="none" stroke="#FFFFFF" stroke-width="0.75" stroke-linecap="round" stroke-miterlimit="10" d="M10.4,191.3
					c0.3-0.1-2.5-5.8-1-12.7l0,0c1,0.7,2.1,1.6,1.6,4.1l0,0"/>
				<path fill="none" stroke="#FFFFFF" stroke-width="0.75" stroke-linecap="round" stroke-miterlimit="10" d="M12.5,190.7
					c0.3-0.1-2.2-5.2-0.9-11.3l0,0c0.9,0.6,1.9,1.5,1.4,3.6l0,0c1.6,1.9,1.6,4.8,1.5,6.2"/>
				<path fill="none" stroke="#FFFFFF" stroke-width="0.75" stroke-linecap="round" stroke-miterlimit="10" d="M8.5,191.8
					c0.3-0.1-2.2-5.2-0.9-11.3l0,0c0.9,0.6,1.9,1.5,1.4,3.6l0,0"/>
			</g>
		</g>
		
			<line fill="none" stroke="#FFFFFF" stroke-width="0.75" stroke-linecap="round" stroke-miterlimit="10" x1="14.5" y1="222.7" x2="17.4" y2="200.7"/>
	</g>
	<path fill="none" stroke="#FFFFFF" stroke-width="0.75" stroke-miterlimit="10" d="M27.2,247.9c19.3,16.9,21.9,33.2,18.5,38.2
		c-1.7,2.5-4.7,3.7-7.4,2.3c-2.2-1.1-3-3.8-1.8-5.9c0.9-1.7,3-2.4,4.8-1.5c1.4,0.7,1.9,2.4,1.2,3.8"/>
</g>
<path fill="#88715A" stroke="#FFFFFF" stroke-width="0.75" stroke-linecap="round" stroke-miterlimit="10" d="M49.4,319.8
	c-8.7,0-18.4-60.3-5.2-61.5L83,319.6L49.4,319.8z"/>
<path fill="none" stroke="#FFFFFF" stroke-width="0.75" stroke-linecap="round" stroke-miterlimit="10" d="M44.6,287.6
	c0.5,8.5,10,26.5,17.5,32.1"/>
<path fill="#88715A" stroke="#FFFFFF" stroke-width="0.75" stroke-linecap="round" stroke-miterlimit="10" d="M427.2,268.6
	c6.9,1.9,6,14.2,5.5,21.3c-0.6,7.9-21.1,127.2-12.7,128.6c3.5,0.6,3.6,3.5,3.6,6c0.1,2-1,12.6-1.5,14.6c-0.9,3.9,46.9,6.9,44.6,2.9
	c-4.8-8.3-27.5-27.1-31-30.9c-1.8-1.9-2.7-5.2-2.8-7.9c-0.6-11.3,32.3-105.3,39.9-119.9c2.9-5.6,7.7-11.1,12.9-14.3L427.2,268.6z"/>
<path fill="#88715A" stroke="#FFFFFF" stroke-width="0.75" stroke-linecap="round" stroke-miterlimit="10" d="M246.2,258.6
	c3.9,7,10.5,21.2,10,28.3c-0.6,7.9-21.1,127.2-12.7,128.6c3.5,0.6,3.6,3.5,3.6,6c0.1,2-1,12.6-1.5,14.6c-0.9,3.9,46.9,6.9,44.6,2.9
	c-4.8-8.3-27.5-27.1-31-30.9c-1.8-1.9-2.7-5.2-2.8-7.9c-0.6-11.3,32.3-105.3,39.9-119.9c2.9-5.6,7.7-11.1,12.9-14.3L246.2,258.6z"/>
<path fill="#88715A" stroke="#FFFFFF" stroke-width="0.75" stroke-linecap="round" stroke-miterlimit="10" d="M620.4,70.2H690v36.8
	v10.3h-67.2V70.2h3.4c-9.4-5-20-7.7-31.3-8.9c-28.8-3.2-53.1,7.4-75.3,24.5c-0.6,0.4-1.1,0.9-1.6,1.3c1.1-38.3,39.9-69,87.5-69
	c40.5,0,74.5,22.1,84.6,52.2l0,0l0,0"/>
<line fill="none" stroke="#FFFFFF" stroke-width="0.75" stroke-linecap="round" stroke-miterlimit="10" x1="549.7" y1="34.2" x2="548.4" y2="75.3"/>
<path fill="#88715A" stroke="#FFFFFF" stroke-width="0.75" stroke-linecap="round" stroke-miterlimit="10" d="M179.8,243
	c1.7,20.1,7.9,38,23.8,51.4l-60.4-1.5c-4.7-12.1-7.3-25.9-6.9-40.4c1.2-47.7,32.9-85.7,71.2-85.8c-0.5,0.5-0.9,1-1.3,1.6
	C188.6,190.1,177.4,214.1,179.8,243z"/>
<path fill="#998379" stroke="#FFFFFF" stroke-width="0.75" stroke-linecap="round" stroke-miterlimit="10" d="M248.8,261.3"/>
<line fill="none" stroke="#FFFFFF" stroke-width="0.75" stroke-linecap="round" stroke-miterlimit="10" x1="462.3" y1="427.4" x2="484.1" y2="426.7"/>
<polyline fill="#998379" stroke="#FFFFFF" stroke-width="0.75" stroke-linecap="round" stroke-miterlimit="10" points="580.7,138 
	645.9,86.6 657,117.3 "/>
<path fill="#998379" stroke="#FFFFFF" stroke-width="0.75" stroke-linecap="round" stroke-miterlimit="10" d="M623,113.9
	c0.3-0.2,8.8,3,13.4,10.4c4.6,7.4,3.9,16.3,3.3,16.6c-0.7,0.5-8.8-3-13.4-10.4C621.7,123.1,623,113.9,623,113.9z"/>
<circle fill="#998379" stroke="#FFFFFF" stroke-width="0.75" stroke-linecap="round" stroke-miterlimit="10" cx="631.3" cy="127.8" r="4"/>
<path fill="#998379" stroke="#FFFFFF" stroke-width="0.75" stroke-linecap="round" stroke-miterlimit="10" d="M599.3,167.9
	c-3.6-3.6-3.6-9.5,0-13.2c2.9-2.9,7.7-2.9,10.6,0c2.3,2.3,2.3,6.1,0,8.5c-1.9,1.9-4.9,1.9-6.8,0c-1.5-1.5-1.5-3.9,0-5.4
	c1.2-1.2,3.1-1.2,4.3,0"/>
<path fill="#88715A" stroke="#FFFFFF" stroke-width="0.75" stroke-linecap="round" stroke-miterlimit="10" d="M286.8,264.7
	c5,3.5,9.6,19.4,9.1,26.5c-0.6,7.9-21.1,127.2-12.7,128.6c3.5,0.6,3.6,3.5,3.6,6c0.1,2-1,12.6-1.5,14.6c-0.9,3.9,17.1-24.2,13.6-28
	c-1.8-1.9-2.7-5.2-2.8-7.9c-0.6-11.3,32.3-105.3,39.9-119.9c2.9-5.6,6.4-8.5,11.7-11.8"/>
<polygon fill="#998379" points="347.1,272.7 340.2,272.7 340.2,269.2 351.4,269.8 "/>
<g>
	<g>
		<circle fill="#88715A" cx="246.4" cy="423.8" r="26.2"/>
		<circle fill="#88715A" cx="246.4" cy="423.8" r="13.1"/>
	</g>
	<g>
		
			<circle fill="#88715A" stroke="#FFFFFF" stroke-width="0.75" stroke-linecap="round" stroke-miterlimit="10" cx="246.4" cy="423.8" r="26.2"/>
		
			<circle fill="#88715A" stroke="#FFFFFF" stroke-width="0.75" stroke-linecap="round" stroke-miterlimit="10" cx="246.4" cy="423.8" r="13.1"/>
	</g>
	<g>
		
			<circle fill="none" stroke="#FFFFFF" stroke-width="0.75" stroke-linecap="round" stroke-miterlimit="10" cx="246.4" cy="423.8" r="26.2"/>
		
			<circle fill="none" stroke="#FFFFFF" stroke-width="0.75" stroke-linecap="round" stroke-miterlimit="10" cx="246.4" cy="423.8" r="13.1"/>
	</g>
</g>
<g>
	<g>
		<circle fill="#88715A" cx="291.7" cy="427.4" r="32.3"/>
		<circle fill="#88715A" cx="291.7" cy="427.4" r="16.1"/>
	</g>
	<g>
		
			<circle fill="#88715A" stroke="#FFFFFF" stroke-width="0.75" stroke-linecap="round" stroke-miterlimit="10" cx="291.7" cy="427.4" r="32.3"/>
		
			<circle fill="#88715A" stroke="#FFFFFF" stroke-width="0.75" stroke-linecap="round" stroke-miterlimit="10" cx="291.7" cy="427.4" r="16.1"/>
	</g>
	<g>
		
			<circle fill="none" stroke="#FFFFFF" stroke-width="0.75" stroke-linecap="round" stroke-miterlimit="10" cx="291.7" cy="427.4" r="32.3"/>
		
			<circle fill="none" stroke="#FFFFFF" stroke-width="0.75" stroke-linecap="round" stroke-miterlimit="10" cx="291.7" cy="427.4" r="16.1"/>
	</g>
</g>
<g>
	<g>
		<circle fill="#88715A" cx="423" cy="427.5" r="26.2"/>
		<circle fill="#88715A" cx="423" cy="427.5" r="13.1"/>
	</g>
	<g>
		
			<circle fill="#88715A" stroke="#FFFFFF" stroke-width="0.75" stroke-linecap="round" stroke-miterlimit="10" cx="423" cy="427.5" r="26.2"/>
		
			<circle fill="#88715A" stroke="#FFFFFF" stroke-width="0.75" stroke-linecap="round" stroke-miterlimit="10" cx="423" cy="427.5" r="13.1"/>
	</g>
	<g>
		
			<circle fill="none" stroke="#FFFFFF" stroke-width="0.75" stroke-linecap="round" stroke-miterlimit="10" cx="423" cy="427.5" r="26.2"/>
		
			<circle fill="none" stroke="#FFFFFF" stroke-width="0.75" stroke-linecap="round" stroke-miterlimit="10" cx="423" cy="427.5" r="13.1"/>
	</g>
</g>
<path fill="#88715A" stroke="#FFFFFF" stroke-width="0.75" stroke-linecap="round" stroke-miterlimit="10" d="M641.1,207
	c7.6-24.6,17.2-63.7,15.9-89.7c-0.3-6.1,14.8-23.7,19.8-32c-17.5,1.1-29.3,3.3-30.9,1.3c-13.1-16.3-30.8-23.1-51-25.3
	c-28.8-3.2-53.1,7.4-75.3,24.5c-11.1,8.5-34.3,30.5-37.3,33.3H255.7l-48.1,48.2l48.5,119.6l78.9-0.3l137,1.9
	c0.1,3-21.4,135.6-13,137c3.5,0.6,3.6,3.5,3.6,6c0.1,2-1,12.6-1.5,14.6c-0.9,3.9,17.1-24.2,13.6-28c-1.8-1.9-2.7-5.2-2.8-7.9
	c-0.6-11.3,107.2-270.7,109.1-272.3c-0.4,1.8-0.6,3.7-0.6,5.7c0,11.8,8.1,21.7,19.1,24.5c4.5,14.1,8.1,19.8,9.9,26.2L641.1,207z"/>
<g>
	<g>
		<circle fill="#88715A" cx="465.6" cy="430.9" r="32.3"/>
		<circle fill="#88715A" cx="465.6" cy="430.9" r="16.1"/>
	</g>
	<g>
		
			<circle fill="#88715A" stroke="#FFFFFF" stroke-width="0.75" stroke-linecap="round" stroke-miterlimit="10" cx="465.6" cy="430.9" r="32.3"/>
		
			<circle fill="#88715A" stroke="#FFFFFF" stroke-width="0.75" stroke-linecap="round" stroke-miterlimit="10" cx="465.6" cy="430.9" r="16.1"/>
	</g>
	<g>
		
			<circle fill="none" stroke="#FFFFFF" stroke-width="0.75" stroke-linecap="round" stroke-miterlimit="10" cx="465.6" cy="430.9" r="32.3"/>
		
			<circle fill="none" stroke="#FFFFFF" stroke-width="0.75" stroke-linecap="round" stroke-miterlimit="10" cx="465.6" cy="430.9" r="16.1"/>
	</g>
</g>
<rect x="262.4" y="141.5" fill="#88715A" stroke="#FFFFFF" stroke-width="0.75" stroke-linecap="round" stroke-miterlimit="10" width="36.7" height="36.7"/>
<rect x="318.8" y="141.5" fill="#88715A" stroke="#FFFFFF" stroke-width="0.75" stroke-linecap="round" stroke-miterlimit="10" width="36.7" height="36.7"/>
<rect x="375.2" y="141.5" fill="#88715A" stroke="#FFFFFF" stroke-width="0.75" stroke-linecap="round" stroke-miterlimit="10" width="36.7" height="36.7"/>
<rect x="431.6" y="141.5" fill="#88715A" stroke="#FFFFFF" stroke-width="0.75" stroke-linecap="round" stroke-miterlimit="10" width="36.7" height="36.7"/>
<line fill="none" stroke="#FFFFFF" stroke-width="0.75" stroke-linecap="round" stroke-miterlimit="10" x1="482.2" y1="119.2" x2="543.3" y2="226.6"/>
<circle fill="#88715A" stroke="#FFFFFF" stroke-width="0.75" stroke-linecap="round" stroke-miterlimit="10" cx="602.5" cy="145.6" r="23.5"/>
<line fill="none" stroke="#FFFFFF" stroke-width="0.75" stroke-linecap="round" stroke-miterlimit="10" x1="645.9" y1="86.6" x2="657" y2="117.3"/>
<line fill="none" stroke="#FFFFFF" stroke-width="0.75" stroke-linecap="round" stroke-miterlimit="10" x1="580.7" y1="138" x2="580.7" y2="60.8"/>
<polygon fill="#88715A" stroke="#FFFFFF" stroke-width="0.75" stroke-linecap="round" stroke-miterlimit="10" points="649.2,136.5 
	635.2,127.8 635.2,119.1 649.2,119.1 "/>
<rect x="262.4" y="186.6" fill="#88715A" stroke="#FFFFFF" stroke-width="0.75" stroke-linecap="round" stroke-miterlimit="10" width="36.7" height="79.9"/>
<rect x="318.8" y="186.6" fill="#88715A" stroke="#FFFFFF" stroke-width="0.75" stroke-linecap="round" stroke-miterlimit="10" width="36.7" height="79.9"/>
<rect x="375.2" y="186.6" fill="#88715A" stroke="#FFFFFF" stroke-width="0.75" stroke-linecap="round" stroke-miterlimit="10" width="36.7" height="79.9"/>
<rect x="431.1" y="186.6" fill="#88715A" stroke="#FFFFFF" stroke-width="0.75" stroke-linecap="round" stroke-miterlimit="10" width="36.7" height="79.9"/>
</svg>
