<?xml version="1.0" encoding="utf-8"?>
<!-- Generator: Adobe Illustrator 18.1.1, SVG Export Plug-In . SVG Version: 6.00 Build 0)  -->
<svg version="1.1" id="Warstwa_1" xmlns="http://www.w3.org/2000/svg" xmlns:xlink="http://www.w3.org/1999/xlink" x="0px" y="0px"
	 viewBox="0 0 435 354" enable-background="new 0 0 435 354" xml:space="preserve">
<g>
	<polyline fill="#88715A" stroke="#FFFFFF" stroke-width="0.75" stroke-linecap="round" stroke-miterlimit="10" points="
		157.2,137.9 111.1,137.8 100.5,122.7 	"/>
	<path fill="#88715A" stroke="#FFFFFF" stroke-width="0.75" stroke-linecap="round" stroke-miterlimit="10" d="M146.7,81.9
		c-0.1,0-2-9.9-12.4-10.1c-5.9-0.1-10.8,4.2-11.9,9.8c-0.6-0.1-1.1-0.2-1.8-0.2c-6,0-10.9,4.9-10.9,10.9c0,3.3,1.5,6.4,3.9,8.3
		c-1.2,0.8-1.9,2.1-1.9,3.6c0,2.1,1.5,3.8,3.5,4.2c-0.7,0.5-1.2,1.4-1.2,2.3c0,1,0.6,1.9,1.4,2.4c-0.5,0.5-0.7,1.1-0.7,1.9
		c0,1.5,1.2,2.8,2.8,2.8c0.3,0,0.6-0.1,0.9-0.2c-0.5,0.5-0.7,1.1-0.7,1.8c0,1.5,1.2,2.8,2.8,2.8c1.5,0,2.8-1.2,2.8-2.8
		c0-0.9-0.4-1.6-1-2.1c1.8-0.5,3.2-2.2,3.2-4.1c0-0.5-0.1-0.9-0.2-1.2c2.1-0.9,3.6-3,3.6-5.4c0-0.3-0.1-0.7-0.1-1
		c2.2-1.3,3.6-3.6,3.6-6.4c0-0.2,0-0.3,0-0.4c1.6-0.6,2.9-1.6,3.7-3c0.1,0,0.3,0.1,0.4,0.1c1,2.9,3.7,4.5,7,5.1
		C158.7,103.2,158.3,81.4,146.7,81.9z"/>
	<polyline fill="#34110D" stroke="#FFFFFF" stroke-width="0.75" stroke-linecap="round" stroke-miterlimit="10" points="80,310.6 
		77.2,315 65.4,286.7 	"/>
	<path fill="none" stroke="#221E20" stroke-width="0.75" stroke-linecap="round" stroke-miterlimit="10" d="M75.5,310.9"/>
	<path fill="#88715A" stroke="#FFFFFF" stroke-width="0.75" stroke-linecap="round" stroke-miterlimit="10" d="M82.7,319.8
		c0-0.5-2.4-3.7-2.4-4.1c-0.2-2.1-0.1-19.6-0.7-25l24.7-9.8l-4.7-4.6c-13.3,6.1-21.7,9.5-22.8,10c-2.6-3.5-7.4-1.2-11.4,0.5
		L77.1,315l2.4,5.8C80.9,322.1,82.9,321.7,82.7,319.8z"/>
	<path fill="#88715A" stroke="#FFFFFF" stroke-width="0.75" stroke-linecap="round" stroke-miterlimit="10" d="M127.3,278.1
		c-24.2,5.6-40.3,11.4-47.7,12.5C97,280,126.1,243,132.8,260.5L127.3,278.1z"/>
	<path fill="#88715A" stroke="#FFFFFF" stroke-width="0.75" stroke-linecap="round" stroke-miterlimit="10" d="M178.2,185.5
		c-19.8-2.4-28-7.9-33.3-17.1c-5.3-9.1-4.3-24.8,2.4-30.1l0,0c15-5.9,25.2,12.1,37.4,41.8c1.4,3.3,1.5,3.4-0.1,4.6
		C181.4,187.1,174.4,187.9,178.2,185.5z"/>
	<path fill="none" stroke="#FFFFFF" stroke-width="0.75" stroke-miterlimit="10" d="M173.4,179.7c-24.8-6.6-26.7-27.5-24.5-33.3
		c1.1-2.8,3.7-4.7,6.7-3.9c2.3,0.6,3.7,3,3.1,5.4c-0.5,1.9-2.4,3-4.3,2.5c-1.5-0.4-2.8-1.9-2.4-3.3"/>
	
		<path fill="none" stroke="#FFFFFF" stroke-width="0.75" stroke-linecap="round" stroke-linejoin="round" stroke-miterlimit="10" d="
		M178.2,185.5c-11.3-1.9-26.3-3.4-33.9-18.3c-5.8-11.3-3.7-23.6,3.1-28.9l0,0c17.4-7,26.8,18.3,38.5,44.3
		C186.8,184.8,180.7,184.4,178.2,185.5z"/>
	<path fill="none" stroke="#221E20" stroke-width="0.75" stroke-linecap="round" stroke-miterlimit="10" d="M132.1,220.9"/>
	<path fill="none" stroke="#FFFFFF" stroke-width="0.75" stroke-linecap="round" stroke-miterlimit="10" d="M138.9,213.9"/>
	<g>
		<g>
			<path fill="#88715A" d="M128.2,257.8c-13.3-9.4-29.4-29.1-19.1-36.2c-5.9,0.2-11.8-4.8-13.9-12.1c-2.1-7.3,0-15.6,5.1-18.5
				l17.2-3.5c5.8,5.4,14.5,19.5,18.2,41.5c2.4,15.1,3,20.7,3.5,25.7l1.2,11.2L128.2,257.8"/>
			<path fill="#88715A" d="M110.2,229.6c6,17.1,17.1,24.1,21.3,23.2c2.1-0.5,3.7-2.1,3.5-4.3c-0.2-1.7-1.7-3-3.4-2.8
				c-1.4,0.1-2.3,1.4-2.2,2.7c0.1,1.1,1.1,1.9,2.2,1.8"/>
		</g>
		<g>
			<path fill="#88715A" stroke="#FFFFFF" stroke-width="0.75" stroke-linecap="round" stroke-miterlimit="10" d="M128.2,257.8
				c-13.3-9.4-29.4-29.1-19.1-36.2c-5.9,0.2-11.8-4.8-13.9-12.1c-2.1-7.3,0-15.6,5.1-18.5l17.2-3.5c5.8,5.4,14.5,19.5,18.2,41.5
				c2.4,15.1,3,20.7,3.5,25.7l1.2,11.2L128.2,257.8"/>
			<path fill="none" stroke="#FFFFFF" stroke-width="0.75" stroke-linecap="round" stroke-miterlimit="10" d="M110.2,229.6
				c6,17.1,17.1,24.1,21.3,23.2c2.1-0.5,3.7-2.1,3.5-4.3c-0.2-1.7-1.7-3-3.4-2.8c-1.4,0.1-2.3,1.4-2.2,2.7c0.1,1.1,1.1,1.9,2.2,1.8"
				/>
		</g>
		<g>
			<path fill="none" stroke="#FFFFFF" stroke-width="0.75" stroke-linecap="round" stroke-miterlimit="10" d="M128.2,257.8
				c-13.3-9.4-29.4-29.1-19.1-36.2c-5.9,0.2-11.8-4.8-13.9-12.1c-2.1-7.3,0-15.6,5.1-18.5l17.2-3.5c5.8,5.4,14.5,19.5,18.2,41.5
				c2.4,15.1,3,20.7,3.5,25.7l1.2,11.2L128.2,257.8"/>
			<path fill="none" stroke="#FFFFFF" stroke-width="0.75" stroke-linecap="round" stroke-miterlimit="10" d="M110.2,229.6
				c6,17.1,17.1,24.1,21.3,23.2c2.1-0.5,3.7-2.1,3.5-4.3c-0.2-1.7-1.7-3-3.4-2.8c-1.4,0.1-2.3,1.4-2.2,2.7c0.1,1.1,1.1,1.9,2.2,1.8"
				/>
		</g>
	</g>
	<polyline fill="#34110D" stroke="#FFFFFF" stroke-width="0.75" stroke-linecap="round" stroke-miterlimit="10" points="
		147.6,318.8 150.3,323.2 119.8,321.9 	"/>
	<path fill="none" stroke="#221E20" stroke-width="0.75" stroke-linecap="round" stroke-miterlimit="10" d="M146,323"/>
	<path fill="#88715A" stroke="#FFFFFF" stroke-width="0.75" stroke-linecap="round" stroke-miterlimit="10" d="M157.1,320.2
		c-0.4-0.2-4.3,0.6-4.8,0.5c-2-0.7-17.8-8.2-22.9-9.9l1.6-26.5l-6.2,2.3c-0.1,14.6-0.5,23.7-0.5,24.9c-4.3,0.9-4.3,6.2-4.4,10.5
		l30.5,1.3l6.3,0.3C158.4,322.8,158.8,320.9,157.1,320.2z"/>
	<path fill="#88715A" stroke="#FFFFFF" stroke-width="0.75" stroke-linecap="round" stroke-miterlimit="10" d="M140.2,265.9
		c-5.1,24.3-8.9,37.7-11,44.8c-2.3-20.3-16.5-59,2.2-57.7L140.2,265.9z"/>
	<path fill="#88715A" stroke="#FFFFFF" stroke-width="0.75" stroke-linecap="round" stroke-miterlimit="10" d="M100.5,122.7
		c11.1,2.8,20.4-0.7,22.5-8.9l9.8-0.8l3.8,10.5c-1.2,4.9,1.9,11.4,20.4,14.6"/>
	<path fill="#88715A" stroke="#FFFFFF" stroke-width="0.75" stroke-linecap="round" stroke-miterlimit="10" d="M89.7,184.7
		c11.5-16.7,9.5-30.4,5.8-41.4l3.6-0.4l6.8,4.7l16.5,26.1l-6.5,13l-5,5.3L98,197L89.7,184.7z"/>
	<path fill="#88715A" stroke="#FFFFFF" stroke-width="0.75" stroke-linecap="round" stroke-miterlimit="10" d="M99,123.5
		c-5.4,14.4,4.1,29.3,5.7,31.1c10.8,12.1,7,34.8,8.6,39.4l1.3,6.4l0.6,6.9c3.6-3.3,38.5-45.8,41.8-69.4"/>
	<path fill="#88715A" stroke="#FFFFFF" stroke-width="0.75" stroke-linecap="round" stroke-miterlimit="10" d="M126.8,256.8
		c-14.1-8.1-32.5-26.7-27-34.7c-6.6,0.5-10.5-3.6-13.3-10.7c-2.8-7.1-1-15.4,3.8-19l17.3-4.1c6.4,4.9,18.1,17.5,23.8,39.1
		c3.9,14.8,4.9,20.3,6,25.3l2.7,12.4L126.8,256.8"/>
	<polygon fill="#88715A" stroke="#FFFFFF" stroke-width="0.75" stroke-linecap="round" stroke-miterlimit="10" points="122.5,112.8 
		127.6,130.7 132.1,131.8 134.8,121.2 	"/>
	<path fill="#88715A" stroke="#FFFFFF" stroke-width="0.75" stroke-linecap="round" stroke-miterlimit="10" d="M134.6,121.9
		l-2.5,9.9c-1.1-0.3-4.4-5.8-2.9-11.5L134.6,121.9z"/>
	<path fill="#88715A" stroke="#FFFFFF" stroke-width="0.75" stroke-linecap="round" stroke-miterlimit="10" d="M148.9,96.2
		c0.6-4.1-15.4-11.7-19.6,0.5c-0.7,2-6.2-3.2-6.2-3.2l-1.1,4.3c-1.2,4.3-2,7.7,0,13.5c2.3,6.6,8.9,11.1,14.6,12.3
		c5.1,1.1,6.6-1.9,6-3.7c-0.5-1.4-1.7-2.4-2.2-3l1.5-0.4l-1.5-1.5l2.3-1.2l-0.4-1.4l4.1,1.1L148.9,96.2"/>
	<path fill="#88715A" stroke="#FFFFFF" stroke-width="0.75" stroke-linecap="round" stroke-miterlimit="10" d="M143.3,99.2
		c-0.1,0.1-2.7,1.2-5.3,0.6c-2.7-0.7-4.5-2.8-4.4-3.1c0.1-0.3,2.7-1.2,5.3-0.6C141.6,96.9,143.3,99.2,143.3,99.2z"/>
	<path fill="none" stroke="#FFFFFF" stroke-width="0.75" stroke-linecap="round" stroke-miterlimit="10" d="M142,109.4
		c0.2,0.3,0.7,0.4,1,0.2c0.4-0.3,0.5-0.9,0.2-1.3c-0.4-0.5-1.1-0.6-1.6-0.3c-0.7,0.5-0.8,1.4-0.3,2c0.6,0.8,1.6,0.9,2.6,0.5
		c0.7-0.4,1-1.6,1-1.6l2-11.2"/>
	
		<path fill="none" stroke="#FFFFFF" stroke-width="0.75" stroke-linecap="round" stroke-linejoin="round" stroke-miterlimit="10" d="
		M125.1,108.9L125.1,108.9c-5.6-0.6-4.9-9-2.2-10.8l0,0c2-1.5,4.3-0.7,5.3,1c0.9,1.4,0.1,3.5-1.3,4.3c-1.1,0.7-2.6,0.3-3.2-0.8
		c-0.5-0.9-0.2-2,0.6-2.6c0.7-0.4,1.6-0.2,2,0.5c0.3,0.6,0.2,1.3-0.4,1.6"/>
	<path fill="#88715A" stroke="#FFFFFF" stroke-width="0.75" stroke-linecap="round" stroke-miterlimit="10" d="M130.9,165.7
		c16.2,0.3,22.2-11.7,26.3-27.8l-58.1-14.4c-4.1,16.3-1.8,34.1,24.2,40.8c0.6,0.2,5.7-7.5,5.7-7.5L130.9,165.7z"/>
	
		<line fill="none" stroke="#FFFFFF" stroke-width="0.75" stroke-linecap="round" stroke-miterlimit="10" x1="131.5" y1="145.6" x2="129" y2="156.7"/>
	<path fill="none" stroke="#FFFFFF" stroke-width="0.75" stroke-linecap="round" stroke-miterlimit="10" d="M131.4,145.7"/>
	<path fill="none" stroke="#FFFFFF" stroke-width="0.75" stroke-linecap="round" stroke-miterlimit="10" d="M131.4,145.7"/>
	<path fill="none" stroke="#FFFFFF" stroke-width="0.75" stroke-linecap="round" stroke-miterlimit="10" d="M127.5,166.5
		c0.9,10.9-4.1,22.5-9.5,32.1"/>
	<path fill="none" stroke="#FFFFFF" stroke-width="0.75" stroke-linecap="round" stroke-miterlimit="10" d="M106.2,230.4
		c7.6,16.4,19.4,22.3,23.4,21c2-0.6,3.5-2.4,3-4.5c-0.3-1.7-2-2.8-3.6-2.4c-1.4,0.3-2.2,1.6-1.9,2.9c0.2,1.1,1.2,1.8,2.3,1.5"/>
	
		<line fill="none" stroke="#FFFFFF" stroke-width="0.75" stroke-linecap="round" stroke-miterlimit="10" x1="140.3" y1="115.1" x2="138.4" y2="115"/>
	
		<circle fill="#88715A" stroke="#FFFFFF" stroke-width="0.75" stroke-linecap="round" stroke-miterlimit="10" cx="138.4" cy="98" r="1.2"/>
	<path fill="none" stroke="#221E20" stroke-width="0.75" stroke-linecap="round" stroke-miterlimit="10" d="M148.4,132.7"/>
	<path fill="#88715A" stroke="#FFFFFF" stroke-width="0.75" stroke-linecap="round" stroke-miterlimit="10" d="M92.1,181l35.3,9.9
		c-8.7,33.6-52,18.9-52,18.9S85.8,191,92.1,181z"/>
	<path fill="none" stroke="#FFFFFF" stroke-width="0.75" stroke-linecap="round" stroke-miterlimit="10" d="M109.7,187.2
		c-3.1,8.1-4.9,12.4-10.7,18.2"/>
	<path fill="none" stroke="#FFFFFF" stroke-width="0.75" stroke-linecap="round" stroke-miterlimit="10" d="M129.4,193.5"/>
	<path fill="none" stroke="#FFFFFF" stroke-width="0.75" stroke-linecap="round" stroke-miterlimit="10" d="M131.4,145.6
		c-0.2-1.3-0.6-2.6-1.4-3.8c-2.3-3.9-7.3-5.2-11.2-2.8c-3.1,1.9-4.1,5.8-2.3,9c1.5,2.5,4.7,3.3,7.2,1.8c2-1.2,2.6-3.7,1.5-5.7
		c-1-1.6-3-2.1-4.6-1.2"/>
	<path fill="none" stroke="#FFFFFF" stroke-width="0.75" stroke-linecap="round" stroke-miterlimit="10" d="M131.4,145.6
		c0.7-0.9,1.5-1.7,2.6-2.3c3.3-2,7.6-0.9,9.5,2.4c1.6,2.6,0.7,6-1.9,7.6c-2.1,1.2-4.8,0.6-6.1-1.5c-1-1.7-0.5-3.9,1.2-4.9
		c1.4-0.8,3.1-0.3,3.9,1"/>
	<path fill="#88715A" stroke="#FFFFFF" stroke-width="0.75" stroke-linecap="round" stroke-miterlimit="10" d="M139.1,266.2
		c-0.1-0.5-0.6-0.9-1.1-0.7c-0.6,0.1-1.1,0.7-1,1.3c0.1,0.8,0.9,1.3,1.6,1.2c0.5-0.1,1-0.4,1.2-0.8c0.2-0.3,0.3-0.8,0.3-1.3
		c-0.2-1.2-1.4-2-2.6-1.9c-1.5,0.2-2.6,1.7-2.3,3.2c0.3,1.9,1.8,3.1,3.7,3.1l0.9-3.2"/>
	<path fill="none" stroke="#221E20" stroke-width="0.75" stroke-linecap="round" stroke-miterlimit="10" d="M154.2,300.9"/>
	<path fill="none" stroke="#221E20" stroke-width="0.75" stroke-linecap="round" stroke-miterlimit="10" d="M159.8,163.4"/>
	<path fill="none" stroke="#FFFFFF" stroke-width="0.75" stroke-linecap="round" stroke-miterlimit="10" d="M139.5,165.5"/>
	<path fill="none" stroke="#FFFFFF" stroke-width="0.75" stroke-linecap="round" stroke-miterlimit="10" d="M139.5,165.5"/>
	<path fill="none" stroke="#221E20" stroke-width="0.75" stroke-linecap="round" stroke-miterlimit="10" d="M121.5,156.4"/>
	<path fill="none" d="M116,100.9"/>
	<path fill="none" d="M120.8,108.9"/>
	<path fill="#34110D" stroke="#FFFFFF" stroke-width="0.5" stroke-miterlimit="10" d="M139.3,146.6"/>
	<path fill="none" stroke="#221E20" stroke-width="0.75" stroke-linecap="round" stroke-miterlimit="10" d="M174.4,196.5"/>
	<path fill="none" stroke="#FFFFFF" stroke-width="0.75" stroke-linecap="round" stroke-miterlimit="10" d="M122.3,81.6
		c-1.6,3.8,0.1,8.2,3.9,9.9c3.1,1.3,6.6-0.1,7.9-3.1c1-2.4-0.1-5.3-2.5-6.3c-1.9-0.9-4.2,0.1-5.1,2c-0.7,1.5,0.1,3.3,1.6,4
		c1.2,0.5,2.7-0.1,3.2-1.3c0.5-1-0.1-2.2-1-2.6c-0.8-0.3-1.7,0-2,0.9c-0.3,0.6,0,1.4,0.7,1.6c0.5,0.2,1.1,0,1.3-0.5"/>
	<path fill="none" stroke="#FFFFFF" stroke-width="0.75" stroke-linecap="round" stroke-miterlimit="10" d="M146.7,81.9
		c-0.7-2.1-3-3.2-5.1-2.5c-1.7,0.6-2.6,2.4-2,4.1c0.5,1.4,1.9,2,3.3,1.6c1.1-0.4,1.6-1.5,1.2-2.6c-0.3-0.9-1.2-1.3-2.1-1
		c-0.7,0.2-1.1,1-0.8,1.7c0.2,0.6,0.8,0.9,1.4,0.6c0.5-0.2,0.7-0.6,0.5-1.1c-0.1-0.3-0.5-0.5-0.9-0.4c-0.3,0.1-0.5,0.4-0.3,0.7"/>
	<path fill="none" stroke="#FFFFFF" stroke-width="0.75" stroke-linecap="round" stroke-miterlimit="10" d="M113.6,100.6
		c2,1,4.4,0.1,5.4-1.9c0.8-1.6,0.1-3.5-1.5-4.3c-1.3-0.6-2.8-0.1-3.5,1.2c-0.5,1-0.1,2.3,1,2.7c0.8,0.4,1.8,0.1,2.2-0.8
		c0.3-0.7,0.1-1.4-0.6-1.8c-0.5-0.2-1.1-0.1-1.4,0.5c-0.2,0.4,0,0.9,0.4,1.1c0.3,0.2,0.7,0,0.9-0.3c0.1-0.3,0-0.6-0.2-0.7"/>
	<path fill="none" stroke="#FFFFFF" stroke-width="0.75" stroke-linecap="round" stroke-miterlimit="10" d="M173.4,175.2
		c-2.2,1.3-3.3,4.1-1.9,6.4c1.1,1.8,3.3,2.3,5.1,1.3c1.4-0.9,1.9-2.7,1-4.1c-0.7-1.1-2.2-1.5-3.3-0.9c-0.9,0.5-1.2,1.7-0.7,2.6
		c0.5,0.7,1.4,1,2.1,0.5"/>
	<g>
		<polygon fill="#88715A" stroke="#FFFFFF" stroke-width="0.75" stroke-linecap="round" stroke-miterlimit="10" points="
			196.7,251.3 190.1,276.1 172,310.6 165.3,306.5 164.4,301.8 179.6,245.8 		"/>
		<path fill="#88715A" stroke="#FFFFFF" stroke-width="0.75" stroke-linecap="round" stroke-miterlimit="10" d="M142.3,231
			c13.6-1.3,31.7,14.8,31.7,14.8l22.7,5.5l1.4,9l83.3-23.3l2.2-37.2l-76.9-8.7c0,0-52.5-0.5-58.3-2.2c-12.4-3.7-25.1,5.9-25.1,5.9
			l-10.4,12.8l12.1,27.6L142.3,231z"/>
		<path fill="#88715A" stroke="#FFFFFF" stroke-width="0.75" stroke-linecap="round" stroke-miterlimit="10" d="M296.8,267.8
			l24,20.5l-0.2,14.8l8.7,7.7l4.3-6.8v-22.5c0,0-23.7-30.4-23.7-49.8"/>
		<path fill="#88715A" stroke="#FFFFFF" stroke-width="0.75" stroke-linecap="round" stroke-miterlimit="10" d="M188.7,251.3
			l22,56.3l9,8.9l3.4-8.9l-9.1-51.7l-21.6-57.4C182.9,203.5,188.7,251.3,188.7,251.3z"/>
		<g>
			<path fill="none" stroke="#FFFFFF" stroke-width="0.75" stroke-linecap="round" stroke-miterlimit="10" d="M115.6,208.5
				c-0.1-0.2,0.7-2.8,2.4-3.4c1.8-0.6,3.9,1.1,4,1.4c0.1,0.3-0.7,2.8-2.4,3.4C117.8,210.4,115.6,208.5,115.6,208.5z"/>
			<path fill="none" stroke="#FFFFFF" stroke-width="0.75" stroke-linecap="round" stroke-miterlimit="10" d="M119.3,209.4
				c-0.1,0-1.1-0.5-1.4-1.5c-0.3-1,0.2-2,0.3-2c0.1-0.1,1.1,0.5,1.4,1.5C120,208.3,119.3,209.4,119.3,209.4z"/>
		</g>
		<path fill="#88715A" stroke="#FFFFFF" stroke-width="0.75" stroke-linecap="round" stroke-miterlimit="10" d="M194.4,250.1
			c0,0.1,0,0.2,0,0.3c-0.1,0.7-0.3,1.5-0.5,2.2c3.9-0.2,7.7-1.7,9.5-5.4c1.1,0.5,2.2,1.2,2.9,2.3c0.7,1.1,0.9,2.4,0.5,3.6
			c2.4-0.6,5.2-2.6,6.5-4.7c1.5-2.3,2.2-7-0.2-9c-0.8-0.7-1.7-1.3-2.7-1.7c1.2-1.6,4.7-0.2,5.8,0.9c0.1,0.1,1.2-3.6,1.2-4
			c0.1-1.3,0.3-2.9,0-4.2c-0.7-2.3-3-5.4-5.1-6.5c2.6-0.5,6.1-1.4,7.3,1.8c1.3-3.4,1.4-7.1,0-10.5c-1.1-2.8-3.5-5.3-6.5-5.9
			c1.6-3.2,1.4-7.3-0.6-10.3c-0.3,0.6-0.7,1.3-1.4,1.6c-0.6,0.3-1.6,0.2-1.9-0.4c-0.2-0.3-0.1-0.7-0.1-1.1c0.3-2,0.4-4.1-0.1-6.1
			c-0.5-2-1.7-3.6-3.5-4.7c1.7-1.4,4.7-1.9,6.8-1.1c0.2-2.5-0.7-5.6-2.7-7.3c-1.9-1.6-4.3-2.2-6.8-2.4c-0.6-0.1-1.1-0.2-1.6-0.5
			c-0.7-0.6-0.7-1.8-0.2-2.6c0.5-0.8,1.4-1.2,2.2-1.7c-3.1-2.2-6.9-3-10.6-2.5c-0.6,0.1-1.1,0.2-1.6,0.3c-1.4,0.4-2.8,1-4.3,1.2
			c-3.6,0.5-4.5-2.5-7.3-3.9c-3.3-1.6-7.2-2.1-10.8-1.2c0.3,1.7-0.1,3.5-1.2,4.8c-1.1,1.3-3,1.9-4.7,1.4c-1.2-0.5-2.2-1.4-2.3-2.8
			c-0.1-0.9,0.3-1.8,0.9-2.4c-2.9,0.1-6,0.4-8.6,1.7c-0.5,0.2-3.6,2.1-3.4,2.7c-0.7-1.6-2-2.8-3.6-3.6c-1.7-0.9-3.6-1.2-5.3-2
			c0.1,0.7-0.3,2-0.8,2.6c-0.5,0.7-1.5,1.5-2.5,1.3c-1.7-0.4-2.8-3.4-2.4-4.9c-2.1,0.9-4.3,1.9-6.1,3.2c-1.6,1.2-3.1,2.8-3.9,4.7
			c-0.1,0.2-0.5,3.7-1.6,4.6c-0.9,0.7-3.9,1.4-6.5,5.4c-1,1.5-1,3.4-1.2,5.2c1.4-0.3,3,0.1,4.1,1.1c2,2,0.9,4.6,1.5,7
			c0.3,1,0.9,1.9,1.7,2.6c0.3,0.2,2.3,1,2.4,1.1c1.5,4.1,6.8,9.8,4,14.4c-0.8,1.3-2.3,1.9-3.4,3c-2.5,2.4-2.4,6.5-0.7,9.5
			c0.2,0.3,0.3,0.5,0.3,0.9c0.1,0.5-0.2,1-0.5,1.4c-2.2,4-2.4,9.1-0.3,13.2c-0.5-1,3.7-2.6,4.2-0.2c0.2,0.7-1.6,4.9-2,4.7
			c2.6,2,6.4,2.6,9.6,1.7c3-0.8,5.4-3.9,5.1-7c1.2,0.8,2.5,1.4,3.9,1.6s3,0,4.1-0.9c-0.9,0.7-0.9,3.5-0.9,4.5
			c0.1,1.6,0.6,2.9,1.6,4.1c2.1,2.6,6.1,3.6,9.3,3.6c1.4,0,3-0.3,3.7-1.4c0.9,1.9,0.6,4.1-0.2,6.1c-0.9,1.9-2.3,3.5-3.7,5.1
			c4.7,3.2,13.7,5.2,17.2-0.9c0.3-0.6,2.4-5.2,1.6-5.6c3.6,1.9,8.3,1.1,11.2-1.8c0.2-0.2,0.4-0.4,0.4-0.7c0.1-0.3-0.1-0.5-0.2-0.8
			c-0.8-1.8-0.9-6.1,0.9-7.4c0.4-0.3,1-0.1,1.5,0.1c0.4,0.2,0.9,0.4,1.1,0.7C194.2,248.9,194.4,249.5,194.4,250.1z"/>
		<g>
			<g>
				<path fill="#88715A" d="M353.5,236.9c-2.8,0-5.6-1.4-7.4-3.6c-1.5-2-2-4.3-2.3-6c-1.1-6.6,0.1-13.1,1.1-19.4
					c0.3-1.7,0.6-3.5,0.9-5.2c1.4-9.4,0.3-16.2-3.5-20.7c-1-1.2-2.1-2-3.2-2.4c-1-0.3-2.1-0.5-3.3-0.3c-2.7,0.3-5.2,1.9-7,4.4
					c-1.8,2.4-2.5,5.3-2,7.9c0.6,3.1,2.6,5.9,4.8,8.9c0.5,0.6,0.9,1.2,1.4,1.9c3.9,5.6,5.3,10.4,4.3,14.8c-1.7,7.3-10,11.1-16.7,10
					c-7.3-1.2-13.9-12.2-14.5-12.8l-4.7-10c1,1,14.4,16.5,20.1,17.4c4.1,0.7,9.4-1.5,10.4-5.8c0.6-2.8-0.5-6.2-3.4-10.4
					c-0.4-0.6-0.9-1.2-1.3-1.8c-2.4-3.3-4.8-6.7-5.7-11c-0.9-4.1,0.2-8.6,2.9-12.3c2.7-3.7,6.6-6.1,10.8-6.6c2.2-0.3,4.1-0.1,6,0.6
					c2,0.7,3.9,2.1,5.5,4.1c4.8,5.7,6.4,13.9,4.7,25c-0.3,1.8-0.6,3.6-0.9,5.4c-1.1,6.1-2.2,11.8-1.1,17.4c0.3,1.6,0.7,2.7,1.2,3.5
					c0.7,1,1.9,1.5,3.1,1.5l0.2,5.5C353.7,236.9,353.6,236.9,353.5,236.9z"/>
			</g>
			<g>
				<path fill="#88715A" stroke="#FFFFFF" stroke-width="0.75" stroke-linecap="round" stroke-miterlimit="10" d="M353.5,236.9
					c-2.8,0-5.6-1.4-7.4-3.6c-1.5-2-2-4.3-2.3-6c-1.1-6.6,0.1-13.1,1.1-19.4c0.3-1.7,0.6-3.5,0.9-5.2c1.4-9.4,0.3-16.2-3.5-20.7
					c-1-1.2-2.1-2-3.2-2.4c-1-0.3-2.1-0.5-3.3-0.3c-2.7,0.3-5.2,1.9-7,4.4c-1.8,2.4-2.5,5.3-2,7.9c0.6,3.1,2.6,5.9,4.8,8.9
					c0.5,0.6,0.9,1.2,1.4,1.9c3.9,5.6,5.3,10.4,4.3,14.8c-1.7,7.3-10,11.1-16.7,10c-7.3-1.2-13.9-12.2-14.5-12.8l-4.7-10
					c1,1,14.4,16.5,20.1,17.4c4.1,0.7,9.4-1.5,10.4-5.8c0.6-2.8-0.5-6.2-3.4-10.4c-0.4-0.6-0.9-1.2-1.3-1.8c-2.4-3.3-4.8-6.7-5.7-11
					c-0.9-4.1,0.2-8.6,2.9-12.3c2.7-3.7,6.6-6.1,10.8-6.6c2.2-0.3,4.1-0.1,6,0.6c2,0.7,3.9,2.1,5.5,4.1c4.8,5.7,6.4,13.9,4.7,25
					c-0.3,1.8-0.6,3.6-0.9,5.4c-1.1,6.1-2.2,11.8-1.1,17.4c0.3,1.6,0.7,2.7,1.2,3.5c0.7,1,1.9,1.5,3.1,1.5l0.2,5.5
					C353.7,236.9,353.6,236.9,353.5,236.9z"/>
			</g>
			<g>
				<path fill="none" stroke="#FFFFFF" stroke-width="0.75" stroke-linecap="round" stroke-miterlimit="10" d="M353.5,236.9
					c-2.8,0-5.6-1.4-7.4-3.6c-1.5-2-2-4.3-2.3-6c-1.1-6.6,0.1-13.1,1.1-19.4c0.3-1.7,0.6-3.5,0.9-5.2c1.4-9.4,0.3-16.2-3.5-20.7
					c-1-1.2-2.1-2-3.2-2.4c-1-0.3-2.1-0.5-3.3-0.3c-2.7,0.3-5.2,1.9-7,4.4c-1.8,2.4-2.5,5.3-2,7.9c0.6,3.1,2.6,5.9,4.8,8.9
					c0.5,0.6,0.9,1.2,1.4,1.9c3.9,5.6,5.3,10.4,4.3,14.8c-1.7,7.3-10,11.1-16.7,10c-7.3-1.2-13.9-12.2-14.5-12.8l-4.7-10
					c1,1,14.4,16.5,20.1,17.4c4.1,0.7,9.4-1.5,10.4-5.8c0.6-2.8-0.5-6.2-3.4-10.4c-0.4-0.6-0.9-1.2-1.3-1.8c-2.4-3.3-4.8-6.7-5.7-11
					c-0.9-4.1,0.2-8.6,2.9-12.3c2.7-3.7,6.6-6.1,10.8-6.6c2.2-0.3,4.1-0.1,6,0.6c2,0.7,3.9,2.1,5.5,4.1c4.8,5.7,6.4,13.9,4.7,25
					c-0.3,1.8-0.6,3.6-0.9,5.4c-1.1,6.1-2.2,11.8-1.1,17.4c0.3,1.6,0.7,2.7,1.2,3.5c0.7,1,1.9,1.5,3.1,1.5l0.2,5.5
					C353.7,236.9,353.6,236.9,353.5,236.9z"/>
			</g>
		</g>
		<path fill="#88715A" stroke="#FFFFFF" stroke-width="0.75" stroke-linecap="round" stroke-miterlimit="10" d="M363.1,228.6
			c0.8,0.3,1.5,0.9,2.3,1.2c0.8,0.3,1.8,0.5,2.4-0.1c0.1,0.6-0.1,0.7-0.3,1.1c-0.3,0.5-0.1,1.1,0.4,1.4c0.5,0.3,1,0.4,1.5,0.5
			c1.9,0.2,3.7,0.5,5.6,0.7c-0.2,1.8-1.9,3-3.6,3.3c-2,0.5,1.7,3.7,1.4,5.5c-1.9-0.9-7.1,0.2-6.8,2.2c-4.3,0.9-8.1-0.7-9.5-1.5
			c0.1,0.5,0.1,1,0.1,1.5c-1.8,0.3-1.5-2.8-3.3-4.3c-2.4-1.8-3.2-4.3-2.5-6.9C351.8,229.3,359.1,227,363.1,228.6z"/>
		<path fill="none" stroke="#FFFFFF" stroke-width="0.75" stroke-linecap="round" stroke-miterlimit="10" d="M353,235.7
			c3.2,1,8.1-0.3,10.4-1.2c1.9-0.8,4.1,0.2,4.9,2c0.6,1.5-0.1,3.3-1.6,3.9c-1.2,0.5-2.6-0.1-3.1-1.3c-0.4-1,0.1-2.1,1.1-2.5
			c0.8-0.3,1.7,0.1,2,0.9"/>
		<path fill="none" stroke="#FFFFFF" stroke-width="0.75" stroke-linecap="round" stroke-miterlimit="10" d="M353,235.7
			c3.5,1.1,7.7,1.2,8.7,2.9c0.9,1.3,0.5,3.1-0.9,3.9c-1,0.7-2.4,0.4-3.1-0.7c-0.6-0.9-0.3-1.9,0.5-2.5c0.7-0.5,1.6-0.2,2,0.5"/>
		<path fill="none" stroke="#FFFFFF" stroke-width="0.75" stroke-linecap="round" stroke-miterlimit="10" d="M353,235.7
			c2.2,1.2,9.2-1.8,9.8-2.4c1-1.2,0.8-3-0.4-3.9c-1-0.8-2.4-0.7-3.2,0.3c-0.6,0.7-0.5,1.9,0.2,2.5"/>
		<path fill="none" stroke="#FFFFFF" stroke-width="0.75" stroke-linecap="round" stroke-miterlimit="10" d="M165.7,204.5
			c1.9,5.6,8.3,0.7,11.1,1.8c2.2,0.9,3.3,3.3,2.5,5.5c-0.7,1.8-2.6,2.7-4.4,2c-1.4-0.5-2.2-2.1-1.6-3.5c0.4-1.1,1.7-1.7,2.8-1.3
			c0.9,0.3,1.4,1.4,1,2.3"/>
		<path fill="none" stroke="#FFFFFF" stroke-width="0.75" stroke-linecap="round" stroke-miterlimit="10" d="M194.9,225.9
			c6.8,3.2,12.3-2.2,16-0.7c3,1.1,4.4,4.4,3.3,7.3c-0.9,2.3-3.5,3.5-5.8,2.7c-1.9-0.7-2.8-2.8-2.2-4.7c0.6-1.5,2.2-2.3,3.7-1.7
			c1.2,0.5,1.8,1.8,1.4,3"/>
		<path fill="none" stroke="#FFFFFF" stroke-width="0.75" stroke-linecap="round" stroke-miterlimit="10" d="M154.6,204.4
			c-0.2,5.7,13.3,9.7,15.4,11.6c1.7,1.5,1.9,4.1,0.4,5.8c-1.2,1.4-3.3,1.5-4.7,0.3c-1.1-1-1.2-2.6-0.3-3.7c0.7-0.9,2.1-1,3-0.2
			c0.7,0.6,0.8,1.6,0.2,2.4"/>
		<path fill="none" stroke="#FFFFFF" stroke-width="0.75" stroke-linecap="round" stroke-miterlimit="10" d="M180.6,240.5
			c-6.4,2.3-4.9,19-6,22.2c-0.9,2.6-3.7,3.9-6.2,3c-2-0.7-3.1-3-2.4-5c0.6-1.6,2.4-2.5,4-1.9c1.3,0.5,2,1.9,1.5,3.2
			c-0.3,1-1.5,1.6-2.6,1.2"/>
		<path fill="none" stroke="#FFFFFF" stroke-width="0.75" stroke-linecap="round" stroke-miterlimit="10" d="M156.3,197.3
			c5.4,1.3,9.4-4,12.1-3.9c2.7,0.2,4.8,2.5,4.7,5.2c-0.1,2.2-2,3.9-4.2,3.7c-1.8-0.1-3.1-1.6-3-3.3c0.1-1.4,1.3-2.5,2.7-2.4
			c1.1,0.1,2,1,1.9,2.2"/>
		<path fill="none" stroke="#FFFFFF" stroke-width="0.75" stroke-linecap="round" stroke-miterlimit="10" d="M162.3,191
			c8.3-6,8.7-19.7,10.9-21.5c2.2-1.8,5.4-1.5,7.3,0.7c1.5,1.8,1.2,4.3-0.5,5.8c-1.4,1.1-3.5,1-4.7-0.5c-0.9-1.1-0.8-2.8,0.3-3.7
			c0.9-0.7,2.2-0.6,3,0.3"/>
		<path fill="none" stroke="#FFFFFF" stroke-width="0.75" stroke-linecap="round" stroke-miterlimit="10" d="M140.5,224.4
			c1.4,5.7,8.3,6.9,9.5,9.5c1.2,2.6,0,5.7-2.6,6.9c-2.1,1-4.6,0-5.6-2.1c-0.7-1.7,0-3.7,1.7-4.4c1.4-0.6,3,0,3.5,1.4
			c0.5,1.1,0,2.3-1.1,2.8"/>
		<path fill="none" stroke="#FFFFFF" stroke-width="0.75" stroke-linecap="round" stroke-miterlimit="10" d="M142.2,214.7
			c-4.3,4.4-11.1,1.7-13.6,3.4c-2.4,1.8-3.1,5.1-1.3,7.6c1.4,2,4.1,2.4,6.1,1.1c1.6-1.1,2-3.3,0.9-4.9c-0.9-1.2-2.6-1.6-3.9-0.7
			c-1,0.7-1.2,2.1-0.6,3.1"/>
		<path fill="none" stroke="#FFFFFF" stroke-width="0.75" stroke-linecap="round" stroke-miterlimit="10" d="M139.1,225.8
			c-3.7,4.6-9.7,3.1-11.8,4.9c-2.2,1.9-2.4,5.2-0.6,7.4c1.5,1.8,4.1,1.9,5.9,0.5c1.4-1.2,1.6-3.3,0.3-4.7c-1-1.1-2.7-1.2-3.8-0.3
			c-0.9,0.8-1,2.1-0.2,3"/>
		<path fill="none" stroke="#FFFFFF" stroke-width="0.75" stroke-linecap="round" stroke-miterlimit="10" d="M150.5,205.8
			c-0.5,3,7,8.5,7.6,10.6c0.6,2.2-0.7,4.4-3,5.1c-1.8,0.5-3.6-0.6-4-2.3c-0.4-1.4,0.5-2.8,1.9-3.2c1.1-0.3,2.3,0.4,2.6,1.5
			c0.2,0.9-0.3,1.8-1.2,2"/>
		<path fill="none" stroke="#FFFFFF" stroke-width="0.75" stroke-linecap="round" stroke-miterlimit="10" d="M182.2,215.8
			c2.9-0.6,8.7,6.7,11,7.2c2.2,0.5,4.4-0.9,4.9-3.1c0.4-1.8-0.7-3.5-2.5-3.9c-1.4-0.3-2.8,0.6-3.1,2c-0.2,1.1,0.5,2.3,1.6,2.5
			c0.9,0.2,1.8-0.4,2-1.3"/>
		<path fill="none" stroke="#FFFFFF" stroke-width="0.75" stroke-linecap="round" stroke-miterlimit="10" d="M161.2,225.2
			c2,2.8,12.7,1.3,14.9,2.7c2.3,1.4,3,4.3,1.6,6.5c-1.1,1.8-3.4,2.4-5.2,1.3c-1.4-0.9-1.9-2.7-1-4.2c0.7-1.1,2.2-1.5,3.3-0.9
			c0.9,0.6,1.2,1.8,0.7,2.7"/>
		<path fill="none" stroke="#FFFFFF" stroke-width="0.75" stroke-linecap="round" stroke-miterlimit="10" d="M161.2,225.2
			c8.2,10,3.6,22.3,4.1,24.9c0.5,2.6,3,4.3,5.6,3.7c2-0.4,3.4-2.4,3-4.5c-0.3-1.6-1.9-2.7-3.6-2.4c-1.3,0.3-2.2,1.5-1.9,2.9
			c0.2,1.1,1.2,1.8,2.3,1.5"/>
		<path fill="none" stroke="#FFFFFF" stroke-width="0.75" stroke-linecap="round" stroke-miterlimit="10" d="M151.3,231.1
			c4.7,5.2,1,13.2,1.3,16.3c0.4,3.1,3.2,5.3,6.3,4.9c2.5-0.3,4.3-2.6,4-5.1c-0.2-2-2-3.4-4-3.2c-1.6,0.2-2.7,1.6-2.6,3.2
			c0.2,1.2,1.3,2.2,2.6,2"/>
		<path fill="none" stroke="#FFFFFF" stroke-width="0.75" stroke-linecap="round" stroke-miterlimit="10" d="M133.6,188.8
			c7.8-5.2,5-11,5.4-14.4c0.3-2.7,2.8-4.7,5.6-4.3c2.2,0.3,3.7,2.3,3.5,4.4c-0.2,1.8-1.8,3-3.5,2.8c-1.4-0.2-2.4-1.4-2.2-2.8
			c0.1-1.1,1.1-1.9,2.3-1.8"/>
		<path fill="none" stroke="#FFFFFF" stroke-width="0.75" stroke-linecap="round" stroke-miterlimit="10" d="M190.4,207.5
			c5.9,6.8,17.9,4.9,19.8,2.2c1.5-2.2,1-5.2-1.2-6.7c-1.8-1.2-4.1-0.8-5.3,1c-1,1.4-0.6,3.3,0.8,4.3c1.1,0.8,2.7,0.5,3.4-0.6"/>
		<path fill="none" stroke="#FFFFFF" stroke-width="0.75" stroke-linecap="round" stroke-miterlimit="10" d="M190.1,207
			c4.2,7.2,18,4.5,21.6,4.8c2.9,0.2,5.1,2.8,4.8,5.7c-0.2,2.3-2.2,4-4.5,3.9c-1.9-0.2-3.2-1.8-3.1-3.6c0.1-1.5,1.4-2.6,2.9-2.4
			c1.2,0.1,2,1.1,2,2.3"/>
		<path fill="none" stroke="#FFFFFF" stroke-width="0.75" stroke-linecap="round" stroke-miterlimit="10" d="M156.8,192.7
			c-0.5-4.2-1-7.1,2.4-10.6c1.4-1.5,2.1-3.6,1.6-5.7c-0.6-2.7-3.3-4.5-6.1-3.9c-2.2,0.5-3.6,2.7-3.1,4.9c0.4,1.8,2.1,2.9,3.9,2.5
			c1.4-0.3,2.3-1.7,2-3.1"/>
		<path fill="none" stroke="#FFFFFF" stroke-width="0.75" stroke-linecap="round" stroke-miterlimit="10" d="M133.6,188.8
			c4.4-5.9-5.1-9-6-12.6c-0.7-2.8,1-5.7,3.9-6.4c2.3-0.6,4.6,0.8,5.2,3.1c0.5,1.8-0.6,3.6-2.4,4.1c-1.5,0.3-3-0.5-3.3-2
			c-0.3-1.2,0.4-2.3,1.6-2.6"/>
		<path fill="none" stroke="#FFFFFF" stroke-width="0.75" stroke-linecap="round" stroke-miterlimit="10" d="M140.5,224.4
			c-6,4,0.3,14.6-0.1,18.2c-0.3,2.9-2.8,5-5.7,4.7c-2.3-0.2-4-2.3-3.7-4.6c0.2-1.8,1.8-3.2,3.7-3c1.5,0.2,2.6,1.5,2.4,3
			c-0.1,1.2-1.2,2-2.3,1.9"/>
		<path fill="none" stroke="#FFFFFF" stroke-width="0.75" stroke-linecap="round" stroke-miterlimit="10" d="M145.2,184.8"/>
		<path fill="none" stroke="#FFFFFF" stroke-width="0.75" stroke-linecap="round" stroke-miterlimit="10" d="M140.5,170.5"/>
		<path fill="none" stroke="#FFFFFF" stroke-width="0.75" stroke-linecap="round" stroke-miterlimit="10" d="M185.2,237.6
			c2.6,7.6-8.1,7.7-6.9,15c0.5,2.7,2.7,4.7,5.4,4.4c2.2-0.2,3.7-2.2,3.5-4.4c-0.2-1.8-1.8-3-3.5-2.8c-1.4,0.2-2.4,1.4-2.3,2.8"/>
		<path fill="none" stroke="#FFFFFF" stroke-width="0.75" stroke-linecap="round" stroke-miterlimit="10" d="M182.8,229.1
			c3.2,11.6,16.9,11.3,18.6,13.7c1.4,1.9,1,4.5-1,5.8c-1.5,1.1-3.6,0.7-4.7-0.7c-0.9-1.2-0.6-2.9,0.6-3.7c1-0.7,2.3-0.5,3,0.5"/>
		<path fill="none" stroke="#FFFFFF" stroke-width="0.75" stroke-linecap="round" stroke-miterlimit="10" d="M200.8,235.4
			c1.1,3,9.5,3,11.2,5.6c1.4,2.2,0.7,5-1.4,6.4c-1.7,1.1-4,0.6-5.1-1.1c-0.9-1.4-0.5-3.2,0.9-4.1c1.1-0.7,2.6-0.4,3.3,0.7"/>
		<path fill="none" stroke="#FFFFFF" stroke-width="0.75" stroke-linecap="round" stroke-miterlimit="10" d="M186.8,188.3
			c4.9,5.8,15.4,2,18.4,3.2c2.4,0.9,3.6,3.6,2.7,6c-0.7,1.9-2.9,3-4.8,2.2c-1.5-0.6-2.3-2.3-1.8-3.9c0.5-1.2,1.9-1.9,3.1-1.4
			c1,0.4,1.5,1.5,1.1,2.5"/>
		<path fill="none" stroke="#FFFFFF" stroke-width="0.75" stroke-linecap="round" stroke-miterlimit="10" d="M176.8,187
			c7.6-3.3,13.6-13,15.8-14.2s5.1-0.3,6.2,2c1,1.8,0.2,4-1.6,5c-1.5,0.7-3.2,0.2-4-1.2c-0.6-1.1-0.2-2.6,1-3.2
			c0.9-0.5,2.1-0.1,2.6,0.8"/>
		<path fill="none" stroke="#FFFFFF" stroke-width="0.75" stroke-linecap="round" stroke-miterlimit="10" d="M187.4,186.8
			c8.7,1.2,14.1-4.1,15.8-5.8c1.3-1.3,3.4-1.3,4.7,0c1,1,1,2.7,0,3.8c-0.9,0.9-2.2,0.9-3,0c-0.7-0.7-0.7-1.8,0-2.4"/>
		<path fill="none" stroke="#FFFFFF" stroke-width="0.75" stroke-linecap="round" stroke-miterlimit="10" d="M132.8,192.5
			c-2.4-1.4-1.8-6.6-3.4-9.7c-1.3-2.4-4.3-3.3-6.7-2c-1.9,1-2.7,3.5-1.6,5.4c0.9,1.5,2.7,2.1,4.3,1.3c1.2-0.7,1.7-2.2,1-3.5
			c-0.5-1-1.8-1.4-2.7-0.9"/>
		<path fill="#88715A" stroke="#FFFFFF" stroke-width="0.75" stroke-linecap="round" stroke-miterlimit="10" d="M150.4,199.9
			l-13.2-3.9l-6.5,4.2C142.2,208.5,150.4,199.9,150.4,199.9z"/>
		<path fill="#88715A" stroke="#FFFFFF" stroke-width="0.75" stroke-linecap="round" stroke-miterlimit="10" d="M275.7,198.8
			l19.7,2.3c17.2,2.2,14.4,30.5,14.4,30.5l-10.4,34.8l1.4,28.3l-17.6,21.7l-7.9-7.2l9.6-15.8l-16.1-36.3c0,0-7.4-16.6,5.3-37.7"/>
		<path fill="#88715A" stroke="#FFFFFF" stroke-width="0.75" stroke-linecap="round" stroke-miterlimit="10" d="M276.3,307.6
			c0,0-10.2-1.1-14.9,7.9c0,0,12.6-0.5,15.8-4"/>
		<path fill="#88715A" stroke="#FFFFFF" stroke-width="0.75" stroke-linecap="round" stroke-miterlimit="10" d="M279,309.7
			c0,0-9.9-1-14.6,7.9c0,0,12.6-0.5,15.8-4"/>
		<path fill="#88715A" stroke="#FFFFFF" stroke-width="0.75" stroke-linecap="round" stroke-miterlimit="10" d="M281.7,311.5
			c0,0-9.7-0.7-14.4,8.3c0,0,12.6,0.1,15.8-3.4"/>
		<path fill="#88715A" stroke="#FFFFFF" stroke-width="0.75" stroke-linecap="round" stroke-miterlimit="10" d="M212.7,307.6
			c0,0-10.2-1.1-14.9,7.9c0,0,12.6-0.5,15.8-4"/>
		<path fill="#88715A" stroke="#FFFFFF" stroke-width="0.75" stroke-linecap="round" stroke-miterlimit="10" d="M215.5,309.7
			c0,0-9.9-1-14.6,7.9c0,0,12.6-0.5,15.8-4"/>
		<path fill="#88715A" stroke="#FFFFFF" stroke-width="0.75" stroke-linecap="round" stroke-miterlimit="10" d="M218.2,311.5
			c0,0-9.7-0.7-14.4,8.3c0,0,12.6,0.1,15.8-3.4"/>
		<path fill="#88715A" stroke="#FFFFFF" stroke-width="0.75" stroke-linecap="round" stroke-miterlimit="10" d="M322.4,301.8
			c0,0-10.2-1.1-14.9,7.9c0,0,12.6-0.5,15.8-4"/>
		<path fill="#88715A" stroke="#FFFFFF" stroke-width="0.75" stroke-linecap="round" stroke-miterlimit="10" d="M325.1,303.9
			c0,0-9.9-1-14.6,7.9c0,0,12.6-0.5,15.8-4"/>
		<path fill="#88715A" stroke="#FFFFFF" stroke-width="0.75" stroke-linecap="round" stroke-miterlimit="10" d="M327.9,305.8
			c0,0-9.7-0.7-14.4,8.3c0,0,12.6,0.1,15.8-3.4"/>
		<path fill="#88715A" stroke="#FFFFFF" stroke-width="0.75" stroke-linecap="round" stroke-miterlimit="10" d="M165,301.8
			c0,0-10.2-1.1-14.9,7.9c0,0,12.6-0.5,15.8-4"/>
		<path fill="#88715A" stroke="#FFFFFF" stroke-width="0.75" stroke-linecap="round" stroke-miterlimit="10" d="M167.7,303.9
			c0,0-9.9-1-14.6,7.9c0,0,12.6-0.5,15.8-4"/>
		<path fill="#88715A" stroke="#FFFFFF" stroke-width="0.75" stroke-linecap="round" stroke-miterlimit="10" d="M170.5,305.8
			c0,0-9.7-0.7-14.4,8.3c0,0,12.6,0.1,15.8-3.4"/>
		<polygon fill="#88715A" stroke="#FFFFFF" stroke-width="0.75" stroke-linecap="round" stroke-miterlimit="10" points="
			107.2,232.7 107.8,237.5 109.7,236.3 		"/>
		<polygon fill="#88715A" stroke="#FFFFFF" stroke-width="0.75" stroke-linecap="round" stroke-miterlimit="10" points="
			112.2,231.2 112.9,236.1 114.8,234.7 		"/>
		<polygon fill="#88715A" stroke="#FFFFFF" stroke-width="0.75" stroke-linecap="round" stroke-miterlimit="10" points="
			112.8,226.5 113,221.5 111,222.4 		"/>
		<path fill="#88715A" stroke="#FFFFFF" stroke-width="0.75" stroke-linecap="round" stroke-miterlimit="10" d="M125.1,235.1
			l-10.7,7.4c-7.2-1.1-7.9-6.3-7.9-6.3s12.5,0.7,13.4-12.3L125.1,235.1z"/>
		<polygon fill="#88715A" stroke="#FFFFFF" stroke-width="0.75" stroke-linecap="round" stroke-miterlimit="10" points="
			103.9,223.2 111.7,236.3 109.9,222.7 		"/>
		<path fill="#88715A" stroke="#FFFFFF" stroke-width="0.75" stroke-linecap="round" stroke-miterlimit="10" d="M112.9,207.5
			c0,0-11.2,3.3-15.3,8.5l4.8,8.2c0,0,6.2-3.2,17.5-0.1L112.9,207.5z"/>
		<polyline fill="#88715A" stroke="#FFFFFF" stroke-width="0.75" stroke-linecap="round" stroke-miterlimit="10" points="
			102.5,212.5 103.9,216 102.4,224.1 		"/>
		<path fill="none" stroke="#FFFFFF" stroke-width="0.75" stroke-linecap="round" stroke-miterlimit="10" d="M150.4,199.9
			c0,0-12.9-2-19.7,0.3"/>
	</g>
	<g>
		<path fill="#88715A" stroke="#FFFFFF" stroke-width="0.75" stroke-linecap="round" stroke-miterlimit="10" d="M97.5,177.3
			c4.7-8.7,11.9-22.8,12.5-33c0.6-10.6-4.4-21.9-13-22.3l-0.6-0.1c-24.7,1.8-21.5,41.8-4.6,60.1c1.4,1.5,0.3-3.7,1.5-3.4
			C99,180,103,177,97.5,177.3z"/>
		<path fill="none" stroke="#FFFFFF" stroke-width="0.75" stroke-linecap="round" stroke-miterlimit="10" d="M92.7,171.8
			c13.3-20.5,12.9-38.8,7.8-42.2c-2.6-1.6-5.8-1.6-7.7,0.8c-1.5,1.9-1.2,4.7,0.6,6.2c1.5,1.2,3.7,1,4.9-0.5c1-1.2,1.1-3.1-0.1-4.1"
			/>
		
			<path fill="none" stroke="#FFFFFF" stroke-width="0.75" stroke-linecap="round" stroke-linejoin="round" stroke-miterlimit="10" d="
			M99.8,178.4c0.7-10.8,9.9-23.5,10.3-34.1c0.5-13.5-7-23.2-15.2-22.1l0,0c-21.1,1.9-21.4,38.8-3,59.9c1.6,1.8,9.9-3.9,7-2.6
			C97.5,180.1,97.1,179,99.8,178.4z"/>
		<g>
			<g>
				<path fill="#88715A" stroke="#FFFFFF" stroke-width="0.75" stroke-linecap="round" stroke-miterlimit="10" d="M88.1,177.1
					c19.5-26.2,29.1,8.7,48.3,11.4c1.2-0.3,9.5-1.2,14.2,1.1l0.7,0.5c2.3-0.6,2.7,0.4,2.6,1.2c-3,1.8-7.2-0.2-7.2-0.2l0.9,1.3
					c1.4,0,4.3,0.4,6,2.1c2.2-0.2,3,0.9,3.5,1.8c-1.2,0.2-2.4,0.2-3.6,0.1c0.1,0.1,0.2,0.2,0.2,0.2c2.5-0.2,3.3,1,3.9,2
					c-1.2,0.2-2.4,0.2-3.5,0.1c0.7,0.3,1.1,1,1.4,1.5c-1.8,0.2-3.5,0.1-5.1-0.1c0.1,0.1,0.1,0.1,0.2,0.2c2-0.2,2.7,0.8,3.1,1.7
					c-1.1,0.6-9-1-10.3-2.1l-9.5-6.2c-7.4-1.5-25-6.7-41.7-11.1L88.1,177.1z"/>
				<g>
					<path fill="#34110D" stroke="#FFFFFF" stroke-width="0.75" stroke-miterlimit="10" d="M145,201.1"/>
					<path fill="#34110D" stroke="#FFFFFF" stroke-width="0.75" stroke-miterlimit="10" d="M148.6,200.5"/>
					<path fill="#34110D" stroke="#FFFFFF" stroke-width="0.75" stroke-miterlimit="10" d="M153.6,202"/>
					<line fill="none" stroke="#FFFFFF" stroke-width="0.75" stroke-miterlimit="10" x1="150.5" y1="200.3" x2="150.5" y2="200.3"/>
					<path fill="#88715A" stroke="#FFFFFF" stroke-width="0.75" stroke-linecap="round" stroke-miterlimit="10" d="M144.2,198.3
						c0.1-0.3,4.9,2.7,11.2,2l0,0c-0.5-1-1.3-2-3.5-1.8l0,0c-2.8-2.9-6.9-2-6.9-2"/>
					<path fill="#88715A" stroke="#FFFFFF" stroke-width="0.75" stroke-linecap="round" stroke-miterlimit="10" d="M145,196.4
						c0.1-0.3,5.6,3.1,12.5,2.2l0,0c-0.6-1.1-1.4-2.3-3.9-2l0,0c-3.1-3.2-7.7-2.2-7.7-2.3"/>
					<path fill="#88715A" stroke="#FFFFFF" stroke-width="0.75" stroke-linecap="round" stroke-miterlimit="10" d="M145.8,194.4
						c0.1-0.3,4.9,2.7,11.2,2l0,0c-0.5-1-1.3-2-3.5-1.8l0,0c-1.7-1.8-4.7-2.1-6.1-2.1"/>
				</g>
				
					<line fill="none" stroke="#FFFFFF" stroke-width="0.75" stroke-linecap="round" stroke-miterlimit="10" x1="116" y1="189" x2="136.3" y2="188.5"/>
			</g>
			<path fill="none" stroke="#FFFFFF" stroke-width="0.75" stroke-linecap="round" stroke-miterlimit="10" d="M92.5,182.5
				c-1.9-1.7-2.2-4.7-0.5-6.6c1.4-1.5,3.7-1.7,5.3-0.3c1.2,1.1,1.4,3,0.3,4.2c-0.9,1-2.4,1.1-3.3,0.2c-0.8-0.7-0.9-1.9-0.2-2.7
				c0.6-0.6,1.5-0.7,2.2-0.1"/>
		</g>
	</g>
</g>
</svg>
