<?xml version="1.0" encoding="utf-8"?>
<!-- Generator: Adobe Illustrator 18.1.1, SVG Export Plug-In . SVG Version: 6.00 Build 0)  -->
<svg version="1.1" id="Warstwa_1" xmlns="http://www.w3.org/2000/svg" xmlns:xlink="http://www.w3.org/1999/xlink" x="0px" y="0px"
	 viewBox="495.2 0 932.9 1080" enable-background="new 495.2 0 932.9 1080" xml:space="preserve">
<g>
	
		<rect x="754.6" y="72.6" fill="none" stroke="#FFFFFF" stroke-width="0.75" stroke-linecap="round" stroke-miterlimit="10" width="118.1" height="952"/>
	<polygon fill="none" stroke="#FFFFFF" stroke-width="0.75" stroke-linecap="round" stroke-miterlimit="10" points="872.7,72.6 
		754.6,72.6 744.6,51.4 882.8,51.4 	"/>
	
		<rect x="744.6" y="32.3" fill="none" stroke="#FFFFFF" stroke-width="0.75" stroke-linecap="round" stroke-miterlimit="10" width="138.2" height="19.1"/>
	<g>
		<path fill="none" stroke="#FFFFFF" stroke-width="0.75" stroke-linecap="round" stroke-miterlimit="10" d="M776.5,86.8
			c-3.3,0-6,2.7-6,6v930.4h12.1V92.8C782.6,89.5,780,86.8,776.5,86.8z"/>
		<path fill="none" stroke="#FFFFFF" stroke-width="0.75" stroke-linecap="round" stroke-miterlimit="10" d="M801.3,86.8
			c-3.3,0-6,2.7-6,6v930.4h12.1V92.8C807.3,89.5,804.6,86.8,801.3,86.8z"/>
		<path fill="none" stroke="#FFFFFF" stroke-width="0.75" stroke-linecap="round" stroke-miterlimit="10" d="M826,86.8
			c-3.3,0-6,2.7-6,6v930.4h12.1V92.8C832,89.5,829.3,86.8,826,86.8z"/>
		<path fill="none" stroke="#FFFFFF" stroke-width="0.75" stroke-linecap="round" stroke-miterlimit="10" d="M850.7,86.8
			c-3.3,0-6,2.7-6,6v930.4h12.1V92.8C856.9,89.5,854.2,86.8,850.7,86.8z"/>
	</g>
</g>
<g>
	<path fill="#FAAC18" stroke="#FFFFFF" stroke-width="0.75" stroke-miterlimit="10" d="M861.2,176.9c0.4-0.1,0.8,0,1.2-0.2
		c0,0,0,0,0.2-0.1c17.1-3,20.4-14.5,29.5-18.5c2.9-1.1,4-2.5,4.5-1.5c-9.3,3.2-24.9,23.7-20.2,38.2l0.1,0.2c0.2,0.6,0.3,1,0.5,1.6
		l0,0l0,0c3.1,7.4,11.4,11.4,19.2,9.1l0.2-0.1l0.2-0.1c3.7-1.1,6.8-3.8,8.7-6.9c0.3-0.3,0.4-0.8,0.6-1c2.7,0.3,5.6,0,8.4-0.8
		c6.7-2,11.8-7.2,13.8-13.4c6.7,1,13.7,0.4,20.4-1.6c25.6-7.7,40.1-34.6,32.4-60.2c-2.7-9.1-14.3-38.3-42.3-39.3
		c-16.6-0.6-27.6,7.4-32.6,10.4c-19.2,11.8-35.5,47.6-35.5,47.6c-0.7-0.2-1.2-0.3-1.8-0.3c-4.7-2.7-10-3.4-15.6-1.8
		c-10.4,3.1-16.6,14.2-13.4,24.8C842.7,172.3,851.9,177.9,861.2,176.9z"/>
	<path fill="none" stroke="#FFFFFF" stroke-width="0.75" stroke-linecap="round" stroke-miterlimit="10" d="M901.5,115.6
		c57-44,75.6,17.1,64.7,37.4c-10.9,20.2-36.1,27.8-56.4,16.9l0,0c-21.7-8.1-28.4,10-28.5,17.5c-0.2,5.9,4.5,10.9,10.5,10.8
		c4.7,0.1,8.6-3.6,8.7-8.4c0.2-3.7-2.9-6.9-6.8-7c-3,0-5.5,2.3-5.5,5.3"/>
	<path fill="none" stroke="#FFFFFF" stroke-width="0.75" stroke-linecap="round" stroke-miterlimit="10" d="M918.9,173.6
		c-5.7-1.9-10.7-0.5-13.3,4.4c-2.1,3.8-0.7,8.6,3.2,10.6c3.1,1.7,6.8,0.5,8.5-2.5c1.4-2.6,0.5-5.5-2.1-6.9"/>
	<path fill="none" stroke="#FFFFFF" stroke-width="0.75" stroke-linecap="round" stroke-miterlimit="10" d="M876.4,162.2
		c-4.6,8.5-15.2,11.6-23.6,7.1c-6.7-3.6-9.2-12.1-5.7-18.9c2.9-5.4,9.6-7.4,15.2-4.5c4.4,2.3,5.9,7.7,3.6,12
		c-1.9,3.6-6.3,4.9-9.7,2.9c-2.8-1.5-3.8-4.9-2.3-7.7"/>
</g>
<g>
	<path fill="#FAAC18" stroke="#FFFFFF" stroke-width="0.75" stroke-miterlimit="10" d="M858.2,221.9c0.4-0.1,0.8,0,1.2-0.2
		c0,0,0,0,0.2-0.1c17.1-3,20.4-14.5,29.5-18.5c2.9-1.1,4-2.5,4.5-1.5c-9.3,3.2-24.9,23.7-20.2,38.2l0.1,0.2c0.2,0.6,0.3,1,0.5,1.6
		l0,0l0,0c3.1,7.4,11.4,11.4,19.2,9.1l0.2-0.1l0.2-0.1c3.7-1.1,6.8-3.8,8.7-6.9c0.3-0.3,0.4-0.8,0.6-1c2.7,0.3,5.6,0,8.4-0.8
		c6.7-2,11.8-7.2,13.8-13.4c6.7,1,13.7,0.4,20.4-1.6c25.6-7.7,40.1-34.6,32.4-60.2c-2.7-9.1-14.3-38.3-42.3-39.3
		c-16.6-0.6-27.6,7.4-32.6,10.4c-19.2,11.8-35.5,47.6-35.5,47.6c-0.7-0.2-1.2-0.3-1.8-0.3c-4.7-2.7-10-3.4-15.6-1.8
		c-10.4,3.1-16.6,14.2-13.4,24.8C839.7,217.3,848.9,223,858.2,221.9z"/>
	<path fill="none" stroke="#FFFFFF" stroke-width="0.75" stroke-linecap="round" stroke-miterlimit="10" d="M912.6,151.3
		c47.2-30.7,61.4,26.4,50.5,46.6c-10.9,20.2-36.1,27.8-56.4,16.9l0,0c-21.7-8.1-28.4,10-28.5,17.5c-0.2,5.9,4.5,10.9,10.5,10.8
		c4.7,0.1,8.6-3.6,8.7-8.4c0.2-3.7-2.9-6.9-6.8-7c-3,0-5.5,2.3-5.5,5.3"/>
	<path fill="none" stroke="#FFFFFF" stroke-width="0.75" stroke-linecap="round" stroke-miterlimit="10" d="M873.4,207.2
		c-4.6,8.5-15.2,11.6-23.6,7.1c-6.7-3.6-9.2-12.1-5.7-18.9c2.9-5.4,9.6-7.4,15.2-4.5c4.4,2.3,5.9,7.7,3.6,12
		c-1.9,3.6-6.3,4.9-9.7,2.9c-2.8-1.5-3.8-4.9-2.3-7.7"/>
</g>
<path fill="#380800" stroke="#FFFFFF" stroke-width="0.75" stroke-linecap="round" stroke-miterlimit="10" d="M845.2,286.4
	c41.6,0,75.1-24.7,75.1-55.1l33.5-11.5l14.2,33.5c0,18.3,41.6,33.1,93.2,33.1"/>
<path fill="#380800" stroke="#FFFFFF" stroke-width="0.75" stroke-linecap="round" stroke-miterlimit="10" d="M969,977.2
	c-0.2,0,0-39.7-1.9-96.3l22-3.5l-1.6,96.3c18.7,5.3,43.8,17.5,67.5,26.5l10.5,15.4H954.6c0-15.6-1-35,14.4-38.7"/>
<polyline fill="none" stroke="#231F20" stroke-width="0.75" stroke-linecap="round" stroke-miterlimit="10" points="1054.8,1000 
	1065.5,1015.4 954.6,1015.4 "/>
<path fill="#380800" stroke="#FFFFFF" stroke-width="0.75" stroke-linecap="round" stroke-miterlimit="10" d="M946.4,1024.9h155.3
	c0.6,0,1-0.4,1-1c0,0-6.6-8.4-7.2-8.4H946.4V1024.9z"/>
<path fill="#380800" stroke="#FFFFFF" stroke-width="0.75" stroke-linecap="round" stroke-miterlimit="10" d="M1088.1,1015.4
	c6.4-2.7,7.6-9.7,1-11.9c-1.4-0.6-15.6,2.9-17.3,2.5c-7.2-2.3-13.6-4.9-17.3-5.8l10.5,15.4h23V1015.4z"/>
<polygon fill="#380800" stroke="#FFFFFF" stroke-width="0.75" stroke-linecap="round" stroke-miterlimit="10" points="955,1001.6 
	1005.6,979.2 1054.8,1000 1065.5,1015.4 954.6,1015.4 "/>
<path fill="#380800" stroke="#FFFFFF" stroke-width="0.75" stroke-linecap="round" stroke-miterlimit="10" d="M913.5,977.2
	c-0.2,0,0-33.7-1.9-90.5l22-9.5l-1.6,96.3c18.7,5.3,43.8,17.5,67.5,26.5l10.5,15.4H899.1c0-15.6-1-35,14.4-38.7"/>
<polyline fill="#FFFFFF" stroke="#231F20" stroke-width="0.75" stroke-linecap="round" stroke-miterlimit="10" points="999.2,1000 
	1009.9,1015.4 899.1,1015.4 "/>
<path fill="none" stroke="#231F20" stroke-width="0.75" stroke-linecap="round" stroke-miterlimit="10" d="M1067.1,688.1"/>
<path fill="#FFFFFF" stroke="#231F20" stroke-width="0.75" stroke-linecap="round" stroke-miterlimit="10" d="M1059.7,698.8"/>
<path fill="#380800" stroke="#FFFFFF" stroke-width="0.75" stroke-linecap="round" stroke-linejoin="round" stroke-miterlimit="10" d="
	M1008.9,503.2H962c-20.6,5.3-36.2,31.7-36.2,59.5s15.6,50.8,36.2,56.2c-43,14.2-7.8,105.3,30,145.2c-68.1-1.6-16,136.4-4.5,209.4
	c8.8-36.2,47.1-200.2,59.5-302.4C1056.6,590.8,1023.7,528.1,1008.9,503.2"/>
<path fill="none" stroke="#FFFFFF" stroke-width="0.75" stroke-linecap="round" stroke-miterlimit="10" d="M960.4,649.9
	c3.5,65.4,35.4,101,50.8,102.2c7.8,0.6,15-3.7,16.3-11.3c1-6.2-2.9-11.9-9.1-13c-4.9-0.8-9.5,2.3-10.5,7.2c-0.6,3.9,1.9,7.6,5.8,8.4
	"/>
<path fill="#380800" stroke="#FFFFFF" stroke-width="0.75" stroke-linecap="round" stroke-miterlimit="10" d="M881.8,515.7
	c13.4-7.8,10.3-53.5-6.8-77.8l-29.8-37l45.3-36l81.1,77.1l-11.3,51.4l-12.8,23l-41.1,28.8L881.8,515.7z"/>
<path fill="#380800" stroke="#FFFFFF" stroke-width="0.75" stroke-linecap="round" stroke-miterlimit="10" d="M844.5,286.4
	c-14.4,67.9-1.9,112.7,18.3,117.5c49.6,11.7,85.4,102.7,95,117.5l10.3,21.2l8.4,23.9c9.7-14.8,95.7-193.8,86.4-280"/>
<path fill="#380800" stroke="#FFFFFF" stroke-width="0.75" stroke-linecap="round" stroke-linejoin="round" stroke-miterlimit="10" d="
	M948.6,503.8l-47.5-0.6c-20.6,5.3-36.2,31.7-36.2,59.5s15.6,50.8,36.2,56.2c-43,14.2-7.8,105.3,30,145.2
	c-68.1-1.6-10.7,136.4,0.8,209.4c8.8-36.2,41.8-200.2,54.1-302.4C995.7,590.8,963.7,528.7,948.6,503.8"/>
<polygon fill="#380800" stroke="#FFFFFF" stroke-width="0.75" stroke-linecap="round" stroke-miterlimit="10" points="917.6,227.9 
	951.3,286.4 968.2,286.4 968.2,246.5 "/>
<path fill="#380800" stroke="#FFFFFF" stroke-width="0.75" stroke-linecap="round" stroke-miterlimit="10" d="M968.2,249.3v37
	c-4.1,0-20.6-16.5-20.6-38.1L968.2,249.3z"/>
<path fill="#380800" stroke="#FFFFFF" stroke-width="0.75" stroke-linecap="round" stroke-miterlimit="10" d="M995.7,146.3
	c-4.3-14.6-14.6-25.1-32.7-25.7c-18.1-0.4-33.3,13.8-33.7,31.9v2.7c-0.2,7.6-6.4,13.6-14,13.6c-7.6-0.2-13.2-5.1-13-13.4v4.5v16.3
	c-0.4,16-0.4,28.8,11.9,47.1c14,21.2,36,29.5,57.2,28.8c8.2,0,11.2-2.8,12.8-7.6c2.2-6.6-0.8-9.3-2.1-15.5l5.9-2.2l-5.9-6.7l7.6-1.7
	l-3.3-9l15.4-4.1L995.7,146.3"/>
<path fill="none" stroke="#FFFFFF" stroke-width="0.75" stroke-linecap="round" stroke-miterlimit="10" d="M983,198.9
	c1.2,1,2.9,0.8,3.9-0.2c1.2-1.4,1-3.5-0.4-4.7c-1.9-1.4-4.5-1.2-6,0.4c-1.9,2.3-1.6,5.6,0.6,7.4c2.7,2.5,6.6,1.6,9.3-0.6
	c2.3-2.1,1.9-6.6,1.9-6.6l-2.9-36.8"/>
<path fill="none" stroke="#FFFFFF" stroke-width="0.75" stroke-linecap="round" stroke-miterlimit="10" d="M934,151
	c24.7-16.7,39.9,3.1,42.4,1.6"/>
<path fill="none" stroke="#FFFFFF" stroke-width="0.75" stroke-linecap="round" stroke-miterlimit="10" d="M923.3,212.3L923.3,212.3
	c-20,2.9-25.1-27.2-17.1-36l0,0c5.6-7,14.4-6.4,19.5-1.2c4.1,4.1,3.5,12.1-0.8,16.3c-3.3,3.3-8.6,3.3-11.9,0c-2.7-2.7-2.7-7,0-9.7
	c2.1-2.1,5.6-2.1,7.6,0c1.6,1.6,1.6,4.5,0,6.2"/>
<path fill="#380800" stroke="#FFFFFF" stroke-width="0.75" stroke-linecap="round" stroke-miterlimit="10" d="M994.1,406.3
	c57.2-13.4,68.7-59.7,68.7-119.9H844.8c0,61.1,32.3,117.1,121.2,121.6c2.1,0.2,13.2-31.5,13.2-31.5L994.1,406.3z"/>
<path fill="none" stroke="#231F20" stroke-width="0.75" stroke-linecap="round" stroke-miterlimit="10" d="M819.4,415.8"/>
<line fill="none" stroke="#FFFFFF" stroke-width="0.75" stroke-linecap="round" stroke-miterlimit="10" x1="978.1" y1="335.3" x2="979.3" y2="376.7"/>
<path fill="none" stroke="#FFFFFF" stroke-width="0.75" stroke-linecap="round" stroke-miterlimit="10" d="M978.1,335.7"/>
<path fill="none" stroke="#FFFFFF" stroke-width="0.75" stroke-linecap="round" stroke-miterlimit="10" d="M978.1,335.7"/>
<path fill="none" stroke="#231F20" stroke-width="0.75" stroke-linecap="round" stroke-miterlimit="10" d="M983,412.5
	c12.8,37.4,5.8,82.7-4.5,121.4"/>
<path fill="none" stroke="#231F20" stroke-width="0.75" stroke-linecap="round" stroke-miterlimit="10" d="M897.2,647.8
	c3.5,65.4,35.4,101,50.8,102.2c7.8,0.6,15-3.7,16.3-11.3c1-6.2-2.9-11.9-9.1-13c-4.9-0.8-9.5,2.3-10.5,7.2c-0.6,3.9,1.9,7.6,5.8,8.4
	"/>
<path fill="#380800" stroke="#FFFFFF" stroke-width="0.75" stroke-linecap="round" stroke-miterlimit="10" d="M890.8,1024.9h155.3
	c0.6,0,1-0.4,1-1c0,0-6.6-8.4-7.2-8.4H890.8V1024.9z"/>
<path fill="none" stroke="#231F20" stroke-width="0.75" stroke-linecap="round" stroke-miterlimit="10" d="M994.1,1015.4"/>
<path fill="#380800" stroke="#FFFFFF" stroke-width="0.75" stroke-linecap="round" stroke-miterlimit="10" d="M1032.6,1015.4
	c6.4-2.7,7.6-9.7,1-11.9c-1.4-0.6-15.6,2.9-17.3,2.5c-7.2-2.3-13.6-4.9-17.3-5.8l10.5,15.4h23V1015.4z"/>
<line fill="none" stroke="#231F20" stroke-width="0.75" stroke-linecap="round" stroke-miterlimit="10" x1="856.7" y1="676.2" x2="854.6" y2="682.4"/>
<polygon fill="#380800" stroke="#FFFFFF" stroke-width="0.75" stroke-linecap="round" stroke-miterlimit="10" points="899.5,1001.6 
	950.1,979.2 999.2,1000 1009.9,1015.4 899.1,1015.4 "/>
<path fill="none" stroke="#231F20" stroke-width="0.75" stroke-linecap="round" stroke-miterlimit="10" d="M1049.6,1015.4"/>
<line fill="none" stroke="#FFFFFF" stroke-width="0.75" stroke-linecap="round" stroke-miterlimit="10" x1="982.2" y1="220.1" x2="975.6" y2="221.6"/>
<g>
	<path fill="#380800" stroke="#FFFFFF" stroke-width="0.75" stroke-linecap="round" stroke-miterlimit="10" d="M976.4,161.9
		c0,0.4-8.2,6.8-18.3,6.8c-10.1,0-18.3-6-18.3-6.8c0-1,8.2-6.8,18.3-6.8C968.4,155.1,976.4,161.9,976.4,161.9z"/>
	
		<circle fill="#380800" stroke="#FFFFFF" stroke-width="0.75" stroke-linecap="round" stroke-miterlimit="10" cx="957.9" cy="161.9" r="4.5"/>
</g>
<g>
	<path fill="#380800" d="M1157.8,469.3c-34.4-22.4-78.8-52.5-95-87.2s-26.7-76.5-0.6-93.4l1.9-1.2c47.7-22.2,89.9,79,118.9,164.6
		C1195.9,489,1136.2,480.4,1157.8,469.3z"/>
	<path fill="none" stroke="#FFFFFF" stroke-width="0.75" stroke-linecap="round" stroke-miterlimit="10" d="M1150.2,446.8
		c-77.6-51.2-94.6-108.4-85-128.2c4.7-9.9,15.2-15.6,25.5-11.9c8.2,3.1,12.5,12.1,9.5,20.4c-2.5,6.6-9.7,10.1-16.3,7.6
		c-5.3-1.9-8-7.8-6.2-13"/>
	
		<path fill="none" stroke="#FFFFFF" stroke-width="0.75" stroke-linecap="round" stroke-linejoin="round" stroke-miterlimit="10" d="
		M1157.8,469.3c-34.4-22.4-78.8-52.5-95-87.2s-26.7-76.5-0.6-93.4l1.9-1.2c46.9-21.8,89.5,78,122.8,175.9
		C1194.5,485.1,1145.7,475.6,1157.8,469.3z"/>
	<g>
		<path fill="#380800" stroke="#FFFFFF" stroke-width="0.75" stroke-linecap="round" stroke-miterlimit="10" d="M1180.1,443.1
			c-14-20-46.9,1-78.6,30c0,0-53.7,42.4-58.8,41.1c-4.5-0.2-34.6,1.4-50.2,12.5l-2.1,2.3c-8.6-0.8-9.5,3.1-8.4,6
			c11.9,4.5,25.7-4.9,25.7-4.9l-2.3,5.1c-5.1,1-15.2,3.9-20.2,11.3c-8,0.6-10.3,4.7-11.3,8.6c4.5-0.2,8.8-1,12.8-1.9
			c-0.2,0.4-0.4,0.6-0.8,1c-9.1,0.6-11.5,5.3-12.8,9.7c4.5-0.2,8.6-0.8,12.5-1.6c-2.3,1.6-3.3,4.1-4.1,6.2
			c6.6-0.2,12.8-1.6,17.9-3.5c-0.2,0.2-0.4,0.4-0.4,0.6c-7.2,0.6-9.1,4.5-10.1,8c4.5,1.4,31.7-9.3,35.4-13.8l30-28
			c25.5-9.9,79-33.5,135.8-59.5L1180.1,443.1z"/>
		<g>
			<path fill="#380800" stroke="#FFFFFF" stroke-width="0.5" stroke-miterlimit="10" d="M1019.2,564.9"/>
			<path fill="#380800" stroke="#FFFFFF" stroke-width="0.5" stroke-miterlimit="10" d="M1006.2,564.5"/>
			<path fill="#380800" stroke="#FFFFFF" stroke-width="0.5" stroke-miterlimit="10" d="M989,573.1"/>
			<line fill="none" stroke="#FFFFFF" stroke-width="0.5" stroke-miterlimit="10" x1="999.2" y1="565.1" x2="999.2" y2="565.1"/>
			<path fill="#380800" stroke="#FFFFFF" stroke-width="0.5" stroke-linecap="round" stroke-miterlimit="10" d="M1020.4,554.2
				c-0.6-0.8-16,12.8-38.7,13.8l0,0c1.2-3.7,3.3-8,11.3-8.6l0,0c8.2-12.1,23.5-11.3,23.2-11.5"/>
			<path fill="#380800" stroke="#FFFFFF" stroke-width="0.5" stroke-linecap="round" stroke-miterlimit="10" d="M1016.5,548
				c-0.6-1-17.9,14.4-43.2,15.4l0,0c1.2-4.1,3.7-8.8,12.8-9.7l0,0c9.3-13.4,26.1-12.5,26.1-12.8"/>
			<path fill="#380800" stroke="#FFFFFF" stroke-width="0.5" stroke-linecap="round" stroke-miterlimit="10" d="M1012.6,541
				c-0.6-0.8-16,12.8-38.7,13.8l0,0c1.2-3.7,3.3-8,11.3-8.6l0,0c4.9-7.2,15.2-10.3,20.4-11.3"/>
		</g>
		
			<line fill="none" stroke="#FFFFFF" stroke-width="0.75" stroke-linecap="round" stroke-miterlimit="10" x1="1119.4" y1="503.6" x2="1042.6" y2="514.5"/>
	</g>
	<path fill="none" stroke="#FFFFFF" stroke-width="0.75" stroke-linecap="round" stroke-miterlimit="10" d="M1142.6,442.1
		c6.2,2.3,9.5,9.1,7.2,15.4c-1.9,4.9-7.4,7.6-12.3,5.8c-3.9-1.4-6-5.8-4.5-9.9c1.2-3.1,4.7-4.7,7.8-3.7c2.5,1,3.9,3.7,2.9,6.4
		c-0.8,2.1-3.1,3.1-4.9,2.3"/>
</g>
<path fill="none" stroke="#231F20" stroke-width="0.75" stroke-linecap="round" stroke-miterlimit="10" d="M1026,274.9"/>
<path fill="#380800" stroke="#FFFFFF" stroke-width="0.75" stroke-linecap="round" stroke-miterlimit="10" d="M1058.7,611.2
	c2.3-63.2-25.1-99.4-48.5-105.9H908.7c0,220.7,72.8,378.7,145.9,378.7V740L1058.7,611.2z"/>
<path fill="#380800" stroke="#FFFFFF" stroke-width="0.75" stroke-linecap="round" stroke-miterlimit="10" d="M847.2,611.2
	c-2.3-63.2,17.7-100,41.1-106.6l125.3,0.6c0,220.7-89.3,275.9-162.3,275.9l0,0L847.2,611.2z"/>
<path fill="#380800" stroke="#FFFFFF" stroke-width="0.75" stroke-linecap="round" stroke-miterlimit="10" d="M1010.1,505.3
	c46.7,1,66.2-215.8,50.8-218.7L888.4,504.8L1010.1,505.3z"/>
<path fill="#380800" stroke="#FFFFFF" stroke-width="0.75" stroke-linecap="round" stroke-miterlimit="10" d="M888.4,504.6
	c-60.7-2.9-54.9-215.2-39.5-218.3h10.5l154.1,218.9L888.4,504.6z"/>
<path fill="none" stroke="#FFFFFF" stroke-width="0.75" stroke-linecap="round" stroke-miterlimit="10" d="M993.7,505
	c-2.3,37-11.1,95.7-44.2,158.4c-17.7,33.5-37.9,59.7-55.5,79.2"/>
<path fill="none" stroke="#FFFFFF" stroke-width="0.75" stroke-linecap="round" stroke-miterlimit="10" d="M943.7,505
	c-1.2,18.5-5.6,47.9-22.2,79.2c-8.8,16.7-18.9,29.8-27.8,39.5"/>
<path fill="none" stroke="#FFFFFF" stroke-width="0.75" stroke-linecap="round" stroke-miterlimit="10" d="M942.7,466.8
	c10.3,16.3,21.6,30.4,31.9,38.3"/>
<path fill="none" stroke="#FFFFFF" stroke-width="0.75" stroke-linecap="round" stroke-miterlimit="10" d="M833.8,467.4
	c48.8-79.2,40.1-138.2,23-152.2c-8.4-7-20.4-7.8-28.2,0c-6.2,6.2-6.2,16.3,0,22.4c4.9,4.9,13,4.9,18.1,0c3.9-3.9,3.9-10.5,0-14.4"/>
<path fill="#380800" d="M836.3,490.9c21.6-34.8,49.4-80.8,49.4-119.1c0-38.5-8-80.6-38.9-85l-2.3-0.4c-52.7,0-48.1,109.6-38.5,199.3
	C810.4,524.8,860.6,491.9,836.3,490.9z"/>
<path fill="none" stroke="#FFFFFF" stroke-width="0.75" stroke-linecap="round" stroke-miterlimit="10" d="M833.8,467.4
	c48.8-79.2,40.1-138.2,23-152.2c-8.4-7-20.4-7.8-28.2,0c-6.2,6.2-6.2,16.3,0,22.4c4.9,4.9,13,4.9,18.1,0c3.9-3.9,3.9-10.5,0-14.4"/>
<path fill="none" stroke="#FFFFFF" stroke-width="0.75" stroke-linecap="round" stroke-linejoin="round" stroke-miterlimit="10" d="
	M836.3,490.9c21.6-34.8,49.4-80.8,49.4-119.1c0-38.5-8-80.6-38.9-85l-2.3-0.4c-51.6,0-48.1,108.4-37.2,211.3
	C810,520.7,850.1,491.5,836.3,490.9z"/>
<path fill="none" stroke="#FFFFFF" stroke-width="0.75" stroke-linecap="round" stroke-miterlimit="10" d="M1013.6,505.3"/>
<g>
	<line fill="none" stroke="#FFFFFF" stroke-width="0.75" stroke-miterlimit="10" x1="1024.8" y1="376.7" x2="1024.8" y2="551.7"/>
	<line fill="none" stroke="#FFFFFF" stroke-width="0.75" stroke-miterlimit="10" x1="1037.7" y1="376.7" x2="1037.7" y2="551.7"/>
	<line fill="none" stroke="#FFFFFF" stroke-width="0.75" stroke-miterlimit="10" x1="1050.7" y1="376.7" x2="1050.7" y2="551.7"/>
	<line fill="none" stroke="#FFFFFF" stroke-width="0.75" stroke-miterlimit="10" x1="1063.6" y1="376.7" x2="1063.6" y2="551.7"/>
	<line fill="none" stroke="#FFFFFF" stroke-width="0.75" stroke-miterlimit="10" x1="1076.6" y1="376.7" x2="1076.6" y2="551.7"/>
	<rect x="1006.9" y="374" fill="#FAAC18" stroke="#FFFFFF" stroke-width="0.75" stroke-miterlimit="10" width="90.9" height="4.9"/>
	<path fill="#FAAC18" d="M993.3,382.9l0.4-3.1l-21.8,94.4l0,0c0,1.9-10.5,56.6,18.5,84.3c10.7,10.1,25.7,24.9,61.1,26.1l0,0
		c34.4-0.8,46.3-13,61.3-27.2c29.2-27.8,19.7-79.4,18.1-83.3l0,0l-22.8-94.4l1.4,3.1l11.7-10.5c-1.4-1.4-3.9-1.4-5.3,0
		c-1.9,1.9-1.9,4.9,0,6.8c2.3,2.3,6.2,2.3,8.4,0c2.9-2.9,2.9-7.6,0-10.5c-3.7-3.7-9.5-3.7-13.2,0c-4.5,4.5-4.5,11.9,0,16.5
		c5.8,5.8,14.8,5.8,20.6,0c7-7,7-18.5,0-25.7c-8.8-8.8-23.2-8.8-32.1,0l0,0c-6.6,7.6-7.6,15.2-6.6,22.8l0,0l23.2,90.9l0,0
		c2.3,5.3,6.8,45.1-28.4,64.2c-16.7,9.1-29.2,9.5-36.2,9.5l0,0c-7.4,0-19.5-0.2-36.2-9.5c-35.4-19.3-29.2-59.7-28.4-64.2l-0.2,0.8
		l23.5-91.7l0,0c1-7.4,0-15-6.6-22.8l0,0c-8.8-8.8-23.2-8.8-32.1,0c-7,7-7,18.5,0,25.7c5.8,5.8,14.8,5.8,20.6,0
		c4.5-4.5,4.5-11.9,0-16.5c-3.7-3.7-9.5-3.7-13.2,0c-2.9,2.9-2.9,7.6,0,10.5c2.3,2.3,6.2,2.3,8.4,0c1.9-1.9,1.9-4.9,0-6.8
		c-1.4-1.4-3.9-1.4-5.3,0L993.3,382.9z"/>
	<path fill="none" stroke="#FFFFFF" stroke-width="0.75" stroke-miterlimit="10" d="M1121.4,372.4c-1.4-1.4-3.9-1.4-5.3,0
		c-1.9,1.9-1.9,4.9,0,6.8c2.3,2.3,6.2,2.3,8.4,0c2.9-2.9,2.9-7.6,0-10.5c-3.7-3.7-9.5-3.7-13.2,0c-4.5,4.5-4.5,11.9,0,16.5
		c5.8,5.8,14.8,5.8,20.6,0c7-7,7-18.5,0-25.7c-8.8-8.8-23.2-8.8-32.1,0l0,0c-6.6,7.6-7.6,15.2-6.6,22.8l0,0l23.2,90.9l0,0
		c1.9,7.4,6.8,45.1-28.4,64.2c-16.7,9.1-29.2,9.5-36.2,9.5l0,0c-7.4,0-19.5-0.2-36.2-9.5c-35.4-19.3-29.8-59.7-28.4-64.2l0,0
		l23.2-90.9l0,0c1-7.4,0-15-6.6-22.8l0,0c-8.8-8.8-23.2-8.8-32.1,0c-7,7-7,18.5,0,25.7c5.8,5.8,14.8,5.8,20.6,0
		c4.5-4.5,4.5-11.9,0-16.5c-3.7-3.7-9.5-3.7-13.2,0c-2.9,2.9-2.9,7.6,0,10.5c2.3,2.3,6.2,2.3,8.4,0c1.9-1.9,1.9-4.9,0-6.8
		c-1.4-1.4-3.9-1.4-5.3,0"/>
	<path fill="none" stroke="#FFFFFF" stroke-width="0.75" stroke-miterlimit="10" d="M993.3,382.9l-21.4,91.3
		c-4.3,23.5-3.1,53.1,9.9,73c15.4,24.1,42,36.6,69.9,37.2c37.4,0.8,73.2-26.9,79.8-64c2.7-15.2,3.7-31.1-0.4-46.1v-0.2l-22.8-94.4"
		/>
</g>
<g>
	<path fill="#380800" stroke="#FFFFFF" stroke-width="0.75" stroke-linecap="round" stroke-miterlimit="10" d="M805.3,476.7
		c4.3-23.9,43-18.7,83.7-6c0,0,66.7,15.8,70.8,12.5c4.1-2.1,32.1-13.2,50.6-9.9l2.9,1c7.4-4.3,9.9-1.2,10.3,1.9
		c-8.8,9.1-25.5,6.4-25.5,6.4l4.1,3.7c5.1-1.2,15.4-2.9,23,1.6c7.6-2.9,11.3,0,14,2.9c-4.3,1.6-8.4,2.9-12.3,3.7
		c0.4,0.2,0.8,0.4,1,0.6c8.4-3.1,12.8,0,15.6,3.3c-4.1,1.6-8.2,2.9-12.1,3.7c2.9,0.6,4.7,2.3,6.2,3.9c-6.2,2.5-12.1,3.9-17.7,4.3
		c0.2,0.2,0.4,0.2,0.6,0.4c6.8-2.5,10.1,0.4,12.5,2.9c-3.5,3.1-32.5,4.9-37.9,2.5L956,503.4c-27.4,1.9-85.8,2.9-148.1,3.3
		L805.3,476.7z"/>
	<g>
		<path fill="#380800" stroke="#FFFFFF" stroke-width="0.5" stroke-miterlimit="10" d="M1002.3,519"/>
		<path fill="#380800" stroke="#FFFFFF" stroke-width="0.5" stroke-miterlimit="10" d="M1014.1,513.3"/>
		<path fill="#380800" stroke="#FFFFFF" stroke-width="0.5" stroke-miterlimit="10" d="M1033.4,513.9"/>
		<line fill="none" stroke="#FFFFFF" stroke-width="0.5" stroke-miterlimit="10" x1="1020.8" y1="511" x2="1020.8" y2="511"/>
		<path fill="#380800" stroke="#FFFFFF" stroke-width="0.5" stroke-linecap="round" stroke-miterlimit="10" d="M996.8,510
			c0.2-1,20,4.9,40.9-3.7l0,0c-2.7-2.9-6.4-5.8-14-2.9l0,0c-12.5-7.4-25.9-0.4-25.9-0.6"/>
		<path fill="#380800" stroke="#FFFFFF" stroke-width="0.5" stroke-linecap="round" stroke-miterlimit="10" d="M997.8,502.8
			c0.2-1.2,22.4,5.6,45.7-4.1l0,0c-2.9-3.3-7.2-6.6-15.6-3.3l0,0c-14-8.4-29-0.4-29-0.6"/>
		<path fill="#380800" stroke="#FFFFFF" stroke-width="0.5" stroke-linecap="round" stroke-miterlimit="10" d="M998.4,494.8
			c0.2-1,20,4.9,40.9-3.7l0,0c-2.7-2.9-6.4-5.8-14-2.9l0,0c-7.6-4.5-18.1-2.9-23.2-1.6"/>
	</g>
	
		<line fill="none" stroke="#FFFFFF" stroke-width="0.75" stroke-linecap="round" stroke-miterlimit="10" x1="885.7" y1="505.9" x2="959.7" y2="483.2"/>
</g>
<path fill="none" stroke="#FFFFFF" stroke-width="0.75" stroke-linecap="round" stroke-miterlimit="10" d="M838.8,459.8
	c-4.7,4.7-4.7,12.3,0,16.9c3.7,3.7,9.9,3.7,13.6,0c3.1-3.1,3.1-7.8,0-10.9c-2.5-2.5-6.4-2.5-8.6,0c-1.9,1.9-1.9,4.9,0,7
	c1.4,1.4,4.1,1.4,5.6,0"/>
<g>
	<g>
		<path fill="#380800" stroke="#FFFFFF" stroke-width="0.75" stroke-linecap="round" stroke-miterlimit="10" d="M1180.1,443.1
			c-14-20-46.9,1-78.6,30c0,0-53.7,42.4-58.8,41.1c-4.5-0.2-34.6,1.4-50.2,12.5l-2.1,2.3c-8.6-0.8-9.5,3.1-8.4,6
			c11.9,4.5,25.7-4.9,25.7-4.9l-2.3,5.1c-5.1,1-15.2,3.9-20.2,11.3c-8,0.6-10.3,4.7-11.3,8.6c4.5-0.2,8.8-1,12.8-1.9
			c-0.2,0.4-0.4,0.6-0.8,1c-9.1,0.6-11.5,5.3-12.8,9.7c4.5-0.2,8.6-0.8,12.5-1.6c-2.3,1.6-3.3,4.1-4.1,6.2
			c6.6-0.2,12.8-1.6,17.9-3.5c-0.2,0.2-0.4,0.4-0.4,0.6c-7.2,0.6-9.1,4.5-10.1,8c4.5,1.4,31.7-9.3,35.4-13.8l30-28
			c25.5-9.9,79-33.5,135.8-59.5L1180.1,443.1z"/>
		<g>
			<path fill="#380800" stroke="#FFFFFF" stroke-width="0.5" stroke-miterlimit="10" d="M1019.2,564.9"/>
			<path fill="#380800" stroke="#FFFFFF" stroke-width="0.5" stroke-miterlimit="10" d="M1006.2,564.5"/>
			<path fill="#380800" stroke="#FFFFFF" stroke-width="0.5" stroke-miterlimit="10" d="M989,573.1"/>
			<line fill="none" stroke="#FFFFFF" stroke-width="0.5" stroke-miterlimit="10" x1="999.2" y1="565.1" x2="999.2" y2="565.1"/>
			<path fill="#380800" stroke="#FFFFFF" stroke-width="0.5" stroke-linecap="round" stroke-miterlimit="10" d="M1020.4,554.2
				c-0.6-0.8-16,12.8-38.7,13.8l0,0c1.2-3.7,3.3-8,11.3-8.6l0,0c8.2-12.1,23.5-11.3,23.2-11.5"/>
			<path fill="#380800" stroke="#FFFFFF" stroke-width="0.5" stroke-linecap="round" stroke-miterlimit="10" d="M1016.5,548
				c-0.6-1-17.9,14.4-43.2,15.4l0,0c1.2-4.1,3.7-8.8,12.8-9.7l0,0c9.3-13.4,26.1-12.5,26.1-12.8"/>
			<path fill="#380800" stroke="#FFFFFF" stroke-width="0.5" stroke-linecap="round" stroke-miterlimit="10" d="M1012.6,541
				c-0.6-0.8-16,12.8-38.7,13.8l0,0c1.2-3.7,3.3-8,11.3-8.6l0,0c4.9-7.2,15.2-10.3,20.4-11.3"/>
		</g>
		
			<line fill="none" stroke="#FFFFFF" stroke-width="0.75" stroke-linecap="round" stroke-miterlimit="10" x1="1119.4" y1="503.6" x2="1042.6" y2="514.5"/>
	</g>
	<path fill="none" stroke="#FFFFFF" stroke-width="0.75" stroke-linecap="round" stroke-miterlimit="10" d="M1142.6,442.1
		c6.2,2.3,9.5,9.1,7.2,15.4c-1.9,4.9-7.4,7.6-12.3,5.8c-3.9-1.4-6-5.8-4.5-9.9c1.2-3.1,4.7-4.7,7.8-3.7c2.5,1,3.9,3.7,2.9,6.4
		c-0.8,2.1-3.1,3.1-4.9,2.3"/>
</g>
</svg>
