<?xml version="1.0" encoding="utf-8"?>
<!-- Generator: Adobe Illustrator 18.1.1, SVG Export Plug-In . SVG Version: 6.00 Build 0)  -->
<svg version="1.1" id="Warstwa_1" xmlns="http://www.w3.org/2000/svg" xmlns:xlink="http://www.w3.org/1999/xlink" x="0px" y="0px"
	 viewBox="0 0 508 637.9" enable-background="new 0 0 508 637.9" xml:space="preserve">
<g>
	<path fill="#5A534A" stroke="#FFFFFF" stroke-width="0.2513" stroke-miterlimit="10" d="M333,265.1l-62.6-80.8
		c-8.9-8.2-19.1,1.1-19.1,1.1c-10.2,10.7-4.3,31.2,11.4,46.9c23.7,23.7,36.2,35,56.4,45c2.3-1.4,5.7-6.6,8.6-6.6
		C330,270.8,331.4,266.9,333,265.1z"/>
	<path fill="none" stroke="#FFFFFF" stroke-width="0.2513" stroke-miterlimit="10" d="M262.7,194.6c0,0,28,16.2,52.1,66.7"/>
	<path fill="#5A534A" stroke="#FFFFFF" stroke-width="0.2513" stroke-linecap="round" stroke-miterlimit="10" d="M179.9,254.4
		c0,0,18.2,51.9,11.6,83.3H265l-30.5-69.2L179.9,254.4z"/>
	<path fill="#5A534A" stroke="#FFFFFF" stroke-width="0.2513" stroke-linecap="round" stroke-miterlimit="10" d="M236.3,186.6
		l25.9-5.5c18.4,23.4,18.4,45.5,15,72.1l0,0c-2,22.3-1.6,66.4,7.5,84.4h-25c0,0-62.8-44.4-79.8-83.3c-5.7-12.1-10-14.3-10-53.7
		L236.3,186.6"/>
	<path fill="#5A534A" stroke="#FFFFFF" stroke-width="0.2513" stroke-linecap="round" stroke-miterlimit="10" d="M216.3,155.4
		c3.4,1.1,30.5,4.3,37.5-2c2.3-2,3-6.4,0.7-10c-1.6-2.3,0.7-3,0.7-3.9c0.2-1.6-0.7-3.2-1.8-3.9c0.9-0.7,1.1-2.5,0-4.1
		s-0.2-2.5-0.2-2.5l0,0c1.4-0.5,5.7-2.3,5.7-2.3s-4.1-11.4-11.1-22.3c-4.5-7.1-13.2-13.4-21.6-15.5c-35.7-4.1-47.1,30-47.1,30
		l19.1,28.9c0,0,0.2,0.5,0.7,0.9c8.4,16.2,12.1,41.6-26.6,58.9l52.3,4.8l12.3-25.7c-5.7-7.3-9.3-16.2-1.8-29.3"/>
	
		<path fill="#5A534A" stroke="#FFFFFF" stroke-width="0.2513" stroke-linecap="round" stroke-linejoin="round" stroke-miterlimit="10" d="
		M278.6,221.6c-1.4-13.2-5.9-31.8-16.4-40.5c0,0-28.2,3.9-30-1.6l0,0c0,0,6.8,33.7-38.4,16.2l-3.2-4.8l-20,9.3l9.1,40.9"/>
	<path fill="#5A534A" stroke="#FFFFFF" stroke-width="0.2513" stroke-linecap="round" stroke-miterlimit="10" d="M186.9,70.8
		c0,0,1.4-7.1,7.7-9.1c-3.6-8-13.9-12.3-28.9-7.7c-25,7.5-35.9,34.6-28.2,52.1c10.7,23.7,25,19.8,32.8,36.9
		c8.4,19.1-9.6,24.8,9.1,48c-3-12.7,7.3-29.8,3.4-43.5c-4.5-16.2-16.6-25.9-23.4-33.9c-5-5.7-3.4-23.2,6.8-23.7
		C176.5,89.5,186.9,70.8,186.9,70.8z"/>
	
		<path fill="none" stroke="#FFFFFF" stroke-width="0.2513" stroke-linecap="round" stroke-linejoin="round" stroke-miterlimit="10" d="
		M252.9,129.3c-1.8,0.7-4.1,0-4.8-2c-0.7-1.6,0-3.2,1.6-3.9c1.1-0.5,2.5,0,3,1.4c0.5,0.9,0,2-0.9,2.5"/>
	
		<path fill="none" stroke="#FFFFFF" stroke-width="0.2513" stroke-linecap="round" stroke-linejoin="round" stroke-miterlimit="10" d="
		M239.7,118.1c-3,0.7-5.7-1.4-6.1-4.1l10.5-2C244.5,114.9,242.7,117.7,239.7,118.1z"/>
	
		<path fill="#DBC6AB" stroke="#FFFFFF" stroke-width="0.2513" stroke-linecap="round" stroke-linejoin="round" stroke-miterlimit="10" d="
		M253.6,135.9c-0.5-0.2-1.1-0.2-1.8,0c-1.4,0.7-2.7,1.6-4.1,2c-0.2,0-0.2,0-0.5,0"/>
	<path fill="none" stroke="#19181C" stroke-width="0.2513" stroke-linecap="round" stroke-miterlimit="10" d="M183.1,311.3"/>
	<path fill="none" stroke="#19181C" stroke-width="0.2513" stroke-linecap="round" stroke-miterlimit="10" d="M249.7,182.5"/>
	<path fill="none" stroke="#FFFFFF" stroke-width="0.2513" stroke-linecap="round" stroke-miterlimit="10" d="M218.6,142.2
		c-7.1,1.4-10.2-7.5-9.8-10.2c1.1-2,7.3-2.7,7.3-2.7l1.4,5.2"/>
	<path fill="none" stroke="#FFFFFF" stroke-width="0.2513" stroke-linecap="round" stroke-miterlimit="10" d="M177.6,205.5
		c0,0,10.9,78.9,75.3,115.3"/>
	<path fill="#5A534A" stroke="#FFFFFF" stroke-width="0.2513" stroke-miterlimit="10" d="M139.6,305.3l24.3-98.7
		c5-11.1,18-6.6,18-6.6c13.6,5.7,16.6,26.8,8.4,47.5c-12.1,31.2-23,44.4-37.5,61.4c-2.5-0.5-3.9-1.4-6.6-0.2
		C144.2,309.7,141.7,306.5,139.6,305.3z"/>
	<path fill="none" stroke="#FFFFFF" stroke-width="0.2513" stroke-miterlimit="10" d="M217.6,268.3c0,0,14.3,31.6,39.4,41.9"/>
	<path fill="none" stroke="#FFFFFF" stroke-width="0.2513" stroke-miterlimit="10" d="M248.4,190.7c0,0,6.1,37.1-17.1,55.3"/>
	<path fill="none" stroke="#FFFFFF" stroke-width="0.2513" stroke-miterlimit="10" d="M260,192.1c0,0,10,48.5-7.3,78"/>
	<g>
		<path fill="#5A534A" stroke="#FFFFFF" stroke-width="0.2513" stroke-miterlimit="10" d="M140.3,301.9c0,0-1.8,6.4-1.8,7.7
			c1.4,15.9,18.9,13.6,27.8,11.8c19.6-4.1,50.3-14.1,58.5-16.8l20,1.1c3,0.7,17.3-4.1,18.7-6.1c-1.6-0.9-3.6-2-6.6,0.2
			c-0.2,0-0.2,0-0.5,0c2.7-0.9,5.5-2.5,8.2-4.5c-0.9-0.7-2.3-1.1-3.6-1.1c1.8-0.9,3.6-2,5.5-3.4c-1.8-1.1-4.3-2.3-8.2,0.5
			c-0.2,0-0.5,0-0.7-0.2c1.8-0.9,3.9-2,5.7-3.4c-1.6-1.1-3.9-2-7.3,0.2c-4.3-1.4-9.3,0.9-11.6,2l-2.5-1.4c0,0,8.6-0.7,11.8-6.4
			c-0.5-1.4-2.3-2.7-5.5,0.5l-1.6-0.2c-9.8,0.7-22.3,10-24.1,11.6l-61.2-0.2"/>
		<path fill="none" stroke="#FFFFFF" stroke-width="0.2513" stroke-miterlimit="10" d="M166.9,293.7h-8c-7.3,0.9-11.4,4.1-13.2,8.2"
			/>
		<g>
			<path fill="#DBC6AB" stroke="#FFFFFF" stroke-width="0.2513" stroke-miterlimit="10" d="M248.8,306.3"/>
			<path fill="#DBC6AB" stroke="#FFFFFF" stroke-width="0.2513" stroke-miterlimit="10" d="M254,301.7"/>
			<path fill="#DBC6AB" stroke="#FFFFFF" stroke-width="0.2513" stroke-miterlimit="10" d="M263.8,299.7"/>
			<line fill="none" stroke="#FFFFFF" stroke-width="0.2513" stroke-miterlimit="10" x1="257" y1="299.7" x2="257" y2="299.7"/>
			<path fill="#5A534A" stroke="#FFFFFF" stroke-width="0.2513" stroke-miterlimit="10" d="M244.9,302.4c0-0.5,10.7,0,20-7.1l0,0
				c-1.6-1.1-3.9-2-7.3,0.2l0,0c-7.3-2-13,3.2-13,3"/>
			<path fill="#5A534A" stroke="#FFFFFF" stroke-width="0.2513" stroke-miterlimit="10" d="M244.5,298.5c0-0.7,11.8,0,22.3-8l0,0
				c-1.8-1.1-4.3-2.3-8.2,0.2l0,0c-8-2.5-14.6,3.4-14.6,3.4"/>
			<path fill="#5A534A" stroke="#FFFFFF" stroke-width="0.2513" stroke-miterlimit="10" d="M243.8,294.4c0-0.5,10.7,0,20-7.1l0,0
				c-1.6-1.1-3.9-2-7.3,0.2l0,0c-4.3-1.4-9.6,0.9-11.8,2"/>
		</g>
	</g>
	<path fill="none" stroke="#FFFFFF" stroke-width="0.2513" stroke-miterlimit="10" d="M164,206.8c0,0,5.7,64.2,0.7,87.8"/>
	<path fill="#5A534A" stroke="#FFFFFF" stroke-width="0.2513" stroke-miterlimit="10" d="M323.7,246.9l53-33
		C378,213,388,198.7,388,198c-0.7-2.3,14.1,13,14.1,13l-14.1,8.6c0,0-27.5,34.1-45.3,48.9c-5.7,4.8-15.9,12.5-24.1,8.2"/>
	<path fill="#5A534A" stroke="#FFFFFF" stroke-width="0.2513" stroke-miterlimit="10" d="M315.7,263.7c-1.8-5,1.1-12.1,7.1-16.4
		l5.7-3.4"/>
	<path fill="#9B9690" stroke="#FFFFFF" stroke-width="0.2513" stroke-linecap="round" stroke-miterlimit="10" d="M202.9,205.5
		c-6.1,1.8-13.6,0-18.4-4.3c-3.9-3.6-7.3,0.2-5.7,4.5c0.9,3,3,5.7,5.7,7.3c-3.4,0.7-6.8-0.7-9.6-2.7c-2.5-2.3-4.3-5.2-5.5-8.4
		c-3-8.6-1.8-18.2,2-26.4c3.9-8.2,10-15,17.1-20.9c4.1-3.4,5-9.3,5.5-14.6c0.2-5.5-4.1-9.8-7.5-13.4c-4.1-4.8-7.5-11.4-5.9-17.5
		c1.1-4.1,4.1-7.3,7.1-10.2c4.8-4.8,10-9.3,16.6-10.7c10.9-2,20.7,6.1,31.6,8.2c3.4,0.7,6.8,0.7,10,2.3c3.2,1.6,5.5,5,4.3,8.2
		c-3.2-3.6-9.1-2.5-13.2,0c-3.2,1.8-5.7,4.8-8.9,6.4c-1.6,0.7-2.7,1.4-3.9,2c-2.7,2-3.6,4.3-2,9.3c1.1,3.4,3.2,6.6,3.6,10.2
		c0.5,3.6-0.9,8-4.5,8.9c1.6-0.5-1.6-12.5-2.3-13.4c-1.6-2.3-4.3-3.4-6.8-2.5c-2.7,0.7-4.8,3.2-5.7,5.9c-0.9,2.7,1.1,10.5,1.6,13.4
		c1.6,8.4,8.2,17.5,11.6,18.4c-2.7,1.6-4.5,4.8-4.3,7.7c0.2,2,1.8,5,4.1,5.5c1.4,0.2,2.5-0.7,3.6-0.9c0.2,2-1.6,3.6-3.4,4.3
		c-1.8,0.7-3.9,0.5-5.7,0c-1.8-0.5-3.9-0.9-5.7-1.1c-1.1,0-2.3,0-3.2,0.7s-1.6,1.6-1.6,2.7c0.2,1.8,2,2.7,3.6,3
		c1.8,0.2,4.1,0,5.7-0.7c0.7,4.1,0.7,8.9-1.6,12.5C209.5,202.5,206.3,204.6,202.9,205.5z"/>
	<path fill="#5A534A" stroke="#FFFFFF" stroke-width="0.2513" stroke-linecap="round" stroke-miterlimit="10" d="M187.6,76.7
		l-0.7-5.9c0,0-15.7,2-20.7,19.1l5.2,3.2L187.6,76.7z"/>
	<path fill="#5A534A" stroke="#FFFFFF" stroke-width="0.2513" stroke-linecap="round" stroke-miterlimit="10" d="M254,101.3
		c0,0-16.4,0.2-33.2,11.6c-5.9,10.7-28.9,32.5-28.9,32.5s-0.2-8.4-5.5-10c-10,0-27.3-25-13.4-45.3c18-26.2,40-13.9,43.7-7.1
		C222.6,83.8,251.8,100.2,254,101.3z"/>
	<path fill="none" stroke="#FFFFFF" stroke-width="0.2513" stroke-linecap="round" stroke-miterlimit="10" d="M186.5,135.2
		c0,0,33-32.1,30.3-52.3"/>
	<path fill="none" stroke="#FFFFFF" stroke-width="0.2513" stroke-linecap="round" stroke-miterlimit="10" d="M221.1,97
		c0,0,3.9-0.5,5.7-3.2c1.8-2.7,0.7-6.6,0.7-6.6s-3.9,0.5-5.7,3.2C219.9,93.1,221.1,97,221.1,97z"/>
	<g>
		<path fill="#F9AC1A" stroke="#FFFFFF" stroke-width="0.2513" stroke-miterlimit="10" d="M381.2,195.5l1.6,2.3c0,0-2,2.3-4.1,1.8
			c-2-1.1-3.6-7.1,1.1-10.7l4.3-2.7l4.3-2.7c5.5-2.5,9.8,1.8,10,4.1c-0.5,1.8-3.6,2.7-3.6,2.7l-1.4-2.5c0,0-0.9-0.2-4.1,1.6
			c-3,1.8-5.2,3.2-5.2,3.2S381.7,194.3,381.2,195.5z"/>
		<path fill="#F9AC1A" stroke="#FFFFFF" stroke-width="0.2513" stroke-miterlimit="10" d="M333.2,85.1C318.6,60.8,307.5,59,307.5,59
			s-3.6,10.5,11.1,35c17.7,29.6,61,85.1,62.8,94.4l2.7-1.6l2.7-1.6C379.6,178.9,351,114.5,333.2,85.1z"/>
		<path fill="#F9AC1A" stroke="#FFFFFF" stroke-width="0.2513" stroke-miterlimit="10" d="M389.4,189.6l-2,1.4l-0.9,0.5l-2,1.4
			c3.9,3.2,14.6,26.4,14.6,26.4l3-1.8l0.9-0.5l3-1.8C406,215,390.5,194.6,389.4,189.6z"/>
		<path fill="#F9AC1A" stroke="#FFFFFF" stroke-width="0.2513" stroke-miterlimit="10" d="M378.3,196.4c0,0,1.1-1.6,2.7-0.7"/>
		<path fill="#F9AC1A" stroke="#FFFFFF" stroke-width="0.2513" stroke-miterlimit="10" d="M395.3,186.1c0,0-2,0.2-2,2"/>
	</g>
	<path fill="#5A534A" stroke="#FFFFFF" stroke-width="0.2513" stroke-miterlimit="10" d="M396.5,190.2c-3.4,1.6-7.3,4.1-10.9,8.4
		l0,0c1.8,0.9,4.3,1.6,7.1-1.6l0,0c2.7,0.5,5-0.2,6.8-1.1C399.6,195.7,401,190.7,396.5,190.2z"/>
	<path fill="#5A534A" stroke="#FFFFFF" stroke-width="0.2513" stroke-miterlimit="10" d="M399,194.6c-3.9,1.6-8.9,4.5-13,9.8l0,0
		c2,1.1,4.8,1.8,7.7-1.6l0,0c3.4,0.5,6.4-0.5,8.4-1.8C402.4,200.9,404.2,194.8,399,194.6z"/>
	<path fill="#5A534A" stroke="#FFFFFF" stroke-width="0.2513" stroke-miterlimit="10" d="M404.9,205c-2.5,1.6-4.5,1.8-7.1,1.6l0,0
		c-2.7,3.2-5,2.5-7.1,1.6l0,0c3.4-4.3,7.5-6.8,10.9-8.4C401.7,199.8,405.8,200,404.9,205z"/>
	<path fill="#5A534A" stroke="#FFFFFF" stroke-width="0.2513" stroke-miterlimit="10" d="M404.2,204.3c-3.2,1.4-6.6,4.1-9.6,7.7l0,0
		c1.8,0.9,4.3,1.6,7.1-1.6l0,0c1.8,0.2,3.6-0.5,5.2-2.7C406.9,207.8,406.9,204.8,404.2,204.3z"/>
	<path fill="#5A534A" stroke="#FFFFFF" stroke-width="0.2513" stroke-miterlimit="10" d="M381.2,208.4c1.4-2.3,1.6-1.8,2.5-5.5
		c1.4-4.8,3.6-10.9,6.6-13.6c2.3,2,2,5.5,0.2,7.3c0.2,3.9-0.9,10.7-3.9,12.5"/>
	<g>
		<path fill="#F9AC1A" stroke="#FFFFFF" stroke-width="0.2513" stroke-miterlimit="10" d="M180.3,245.3c-0.9,5-2,10.9-2.5,17.5
			c-1.1,15,2,25.5,12.1,31.2h20.7c11.6-11.6,14.8-27.1,7.5-50.5C218.1,243.5,198.3,230,180.3,245.3z"/>
		<polygon fill="#F9AC1A" stroke="#FFFFFF" stroke-width="0.2513" stroke-miterlimit="10" points="199.7,249.6 196.9,250.3 
			199.7,258 202.4,250.3 		"/>
		<path fill="#F9AC1A" stroke="#FFFFFF" stroke-width="0.2513" stroke-miterlimit="10" d="M196.9,250.3c0,0-2.7-10.9-17.3-1.1"/>
		<path fill="#F9AC1A" stroke="#FFFFFF" stroke-width="0.2513" stroke-miterlimit="10" d="M202.4,250.3c0,0,2.7-10.9,17.3-1.1"/>
		<path fill="#FFFFFF" stroke="#FFFFFF" stroke-width="0.2513" stroke-miterlimit="10" d="M190.3,252.8c0,0-1.1,0.9-2.7,0.9
			c-1.6,0-2.7-0.9-2.7-0.9c0-0.2,1.1-0.9,2.7-0.9C189.2,251.9,190.3,252.8,190.3,252.8z"/>
		<path fill="#FFFFFF" stroke="#FFFFFF" stroke-width="0.2513" stroke-miterlimit="10" d="M214.5,252.8c0,0-1.1,0.9-2.7,0.9
			c-1.6,0-2.7-0.9-2.7-0.9c0-0.2,1.1-0.9,2.7-0.9C213.3,251.9,214.5,252.8,214.5,252.8z"/>
		<g>
			<path fill="#F9AC1A" stroke="#FFFFFF" stroke-width="0.2513" stroke-miterlimit="10" d="M180.3,313.3c0,0-2,15.7-10.9,23.2
				l4.8-38L180.3,313.3z"/>
			<path fill="#F9AC1A" stroke="#FFFFFF" stroke-width="0.2513" stroke-miterlimit="10" d="M177.6,262.8l-11.1,70.3
				c0,0,23.7-13.6,18.7-33.2C198.5,288.7,192.6,263,177.6,262.8z"/>
			<path fill="#F9AC1A" stroke="#FFFFFF" stroke-width="0.2513" stroke-miterlimit="10" d="M175.1,304.4c0,0,5.5-0.5,10-4.3"/>
		</g>
	</g>
	<path fill="none" stroke="#FFFFFF" stroke-width="0.2513" stroke-linecap="round" stroke-miterlimit="10" d="M194.7,145.2
		c0.9,2.5-0.2,7.3-2.7,11.1c-1.6,2.3-3.2,4.3-4.8,6.1c-5.2,5.9-10,12.3-12.7,19.8c-2.7,7.3-3.4,15.7-0.7,23.2"/>
	<path fill="none" stroke="#FFFFFF" stroke-width="0.2513" stroke-linecap="round" stroke-miterlimit="10" d="M198.1,152.9
		c-0.5,1.8-1.1,3.4-1.8,5.2c-2.5,5.2-5.7,10-8,15.2c-2.3,5.2-3.9,11.1-2.7,16.8c1.1,5.7,5.5,10.9,11.1,11.8c3.6,0.5,7.7-1.4,8.2-5"
		/>
	<path fill="none" stroke="#FFFFFF" stroke-width="0.2513" stroke-linecap="round" stroke-miterlimit="10" d="M201.7,145.7
		c0.9,0.7,1.1,1.6,1.4,2.7c1.8,7.5-0.7,15.5-4.1,22.5c-1.4,2.7-2.7,5.2-3.6,8.2c-0.9,3-0.9,6.1,0.5,8.6c1.4,2.7,4.3,4.5,7.3,4.1"/>
	<path fill="none" stroke="#FFFFFF" stroke-width="0.2513" stroke-linecap="round" stroke-miterlimit="10" d="M215.4,180
		c-3.4-0.5-6.4-3.2-7.1-6.6c-0.5-1.8-0.2-3.9-0.2-5.9c0.7-8.4-0.5-12.1-1.6-14.6"/>
	<g>
		
			<rect x="145.5" y="390" fill="#9B9690" stroke="#FFFFFF" stroke-width="0.2513" stroke-linecap="round" stroke-miterlimit="10" width="182.7" height="248"/>
		
			<rect x="135.1" y="337.7" fill="#9B9690" stroke="#FFFFFF" stroke-width="0.2513" stroke-linecap="round" stroke-miterlimit="10" width="204.5" height="52.3"/>
	</g>
</g>
</svg>
