<?xml version="1.0" encoding="utf-8"?>
<!-- Generator: Adobe Illustrator 18.1.1, SVG Export Plug-In . SVG Version: 6.00 Build 0)  -->
<svg version="1.1" id="Warstwa_1" xmlns="http://www.w3.org/2000/svg" xmlns:xlink="http://www.w3.org/1999/xlink" x="0px" y="0px"
	 viewBox="0 0 508 637.9" enable-background="new 0 0 508 637.9" xml:space="preserve">
<g>
	<path fill="#5A534A" stroke="#FFFFFF" stroke-width="0.2513" stroke-linecap="round" stroke-miterlimit="10" d="M293.1,189
		c0,0-25.5,2.3-33.2-6.6c-7.7-8.9,0.7,7.3,0.7,7.3L293.1,189z"/>
	<g>
		<path fill="#5A534A" stroke="#FFFFFF" stroke-width="0.2513" stroke-miterlimit="10" d="M381.6,231.4l-88.3-42.1
			c0,0-18.9,1.8-23,10l-0.5,1.1c-6.1,17.1,12.3,35.7,33.4,42.5c29.1,9.3,46.4,9.3,67.1,7.7C372.5,250.5,381.6,231.4,381.6,231.4z"/>
		<path fill="#5A534A" stroke="#FFFFFF" stroke-width="0.2513" stroke-miterlimit="10" d="M293.4,189c0,0,51.9,49.4,76.7,59.6"/>
	</g>
	<path fill="#5A534A" stroke="#FFFFFF" stroke-width="0.2513" stroke-linecap="round" stroke-miterlimit="10" d="M252.9,157.4
		c3,2,28,14.1,36.4,9.6c5-2.7,4.8-8.4,3.4-12.3c-1.4-2.5,0.9-2,1.4-2.7c0.7-1.4,0.5-3.2-0.7-4.3c1.1-0.5,1.8-2,1.1-3.9
		c-0.5-1.8,0.5-2.5,0.5-2.5l0,0c1.6,0,6.8,0,6.8,0s0-13.2-4.3-25.9c-2.7-8.2-5.2-16.4-12.5-20.7c-32.8-14.8-57.6,14.6-57.6,14.6
		l9.3,33.2c0,0,0.2,0.5,0.2,1.1c3.2,18-1.4,43.5-55.3,48L262,190c-3.2-8.6-5.7-15.2,5.5-25.7"/>
	<path fill="#9B9690" stroke="#FFFFFF" stroke-width="0.2513" stroke-linecap="round" stroke-miterlimit="10" d="M216,116.7
		c0.5,1.4,0.5,2.7,0,4.3c-0.5,1.6-1.4,3.2-1.6,5c-0.2,1.8,0.5,3.6,1.8,4.8c0.9,0.9,6.1,2.7,4.3,6.4c-0.9,1.6-2,1.8-3.2,1.1
		c-0.2,2,0.7,4.1,2.3,5.2c1.1,0.9,3,2.3,2,3.6c-0.2,0.5-0.5,0.7-0.9,0.9c-1.4,1.1-1.8,3.4-1.1,5c0.7,1.6,2.7,3,4.5,2.7
		c-1.4,0.7-1.4,2.7-1.4,4.3c-0.2,1.6-2,3.4-3,2.3c-0.9,1.4,0.2,3.4,1.8,3.9c1.6,0.5,3.2,0,5-0.2c0.5,0,0,2.7-3.6,2.7
		c-0.2,1.4,1.4,2.5,2.7,3c3.2,0.9,6.8,0.5,9.6-1.4c5-3,9.1-14.6,3.2-21.2c6.4-1.6,8.9-8.4,8.6-10.7c-6.6-3-7.5-11.1-6.8-13
		c0.9-2.5,7.1-5,12.5-5.2c0.9,5.7,6.4,4.8,8.2,6.4c0.9,0.7,1.1,2,0.7,3s-1.6,1.6-2.7,1.6c1.4,1.4,3.6,1.4,5.2,0.2
		c1.6-1.1,1.8-3.6,0.7-5c-1.4-1.4-3.6-1.6-5-2.7c-1.8-1.6-1.8-4.1-1.4-6.4c0-0.2,0.2-0.7,0.5-0.9c0.5,0,0.7-0.2,1.1-0.2
		c2.3-0.2,4.3-2,5.2-4.3c0.9-2.3-2-0.2-2.5-2.5c-0.2-1.1-0.5-2.5,0.2-3.2c0.7-0.5,1.4-0.5,2.3-0.5c4.3,0.2,9.3-0.9,10.9-4.8
		c0.5-0.9,0.5-2,1.1-3c1.1-2,3.6-2.7,5.9-3.4c3-0.7,4.3,1.1,9.1,5.9c2-1.8,2-7.7,0.2-9.8c-0.5-0.5-1.1-0.9-1.4-1.6
		c-0.5-1.4,0.5-2.7,0.5-4.3c-0.2-3-4.8-4.3-4.3-7.3c0.2-0.9,0.7-1.6,1.1-2.3c0.7-1.4,0.7-3.2,0-4.5c-0.9,0.2-2-0.5-2.3-1.6
		c1.6,0.9,3.6-1.4,3-3.2c-0.7-1.8-2.5-2.7-4.3-3.2c-0.7-0.2-1.6-0.2-2.3-0.9c-0.9-0.7-1.1-1.8-1.6-2.7c-0.5-0.9-1.4-2-2.5-1.8
		c-0.2,1.4-2,2.3-3.4,1.8c-1.4-0.2-2.7-1.1-3.9-1.8c-2.3-1.1-5.2-1.4-7.3,0c-1.6,0.9-2.7,2.7-4.5,3.2c-1.1,0.2-2-0.2-3.2,0.2
		c-2.5,1.1-0.9,5.7-3.4,7.1c-0.9,0.5-2,0.5-3.2,0.5c-1.1,0.2-2.3,1.1-1.8,2c-7.5,1.1-14.1,5-20.5,9.1c-4.5,3-9.1,6.1-12.3,10.7
		c-3.2,4.3-5,10.2-3.6,15.5C212.6,109.6,215.1,113.3,216,116.7z"/>
	<path fill="none" stroke="#FFFFFF" stroke-width="0.2513" stroke-linecap="round" stroke-miterlimit="10" d="M259.7,150.1
		c-5.9-5.7-11.8,3.6-6.8,7.3"/>
	
		<path fill="none" stroke="#FFFFFF" stroke-width="0.2513" stroke-linecap="round" stroke-linejoin="round" stroke-miterlimit="10" d="
		M295,141.3c-2,0.2-3.9-1.4-3.9-3.4c-0.2-1.6,1.1-3,2.7-3.2c1.4,0,2.5,0.9,2.5,2c0,1.1-0.7,2-1.6,2"/>
	
		<path fill="none" stroke="#FFFFFF" stroke-width="0.2513" stroke-linecap="round" stroke-linejoin="round" stroke-miterlimit="10" d="
		M288.6,124.4c-2.5,1.4-5.7,0.5-7.3-2.3l9.3-5C292.2,119.9,291.1,123.1,288.6,124.4z"/>
	<path fill="#2E0005" stroke="#FFFFFF" stroke-width="0.1675" stroke-miterlimit="10" d="M281.8,236.4"/>
	<path fill="#2E0005" stroke="#FFFFFF" stroke-width="0.1675" stroke-miterlimit="10" d="M288.4,240.5"/>
	<line fill="none" stroke="#FFFFFF" stroke-width="0.1675" stroke-miterlimit="10" x1="291.3" y1="240.2" x2="291.3" y2="240.2"/>
	<path fill="none" stroke="#19181C" stroke-width="0.2513" stroke-linecap="round" stroke-miterlimit="10" d="M282,199.7"/>
	<g>
		<path fill="#5A534A" stroke="#FFFFFF" stroke-width="0.2513" stroke-linecap="round" stroke-miterlimit="10" d="M295.2,262.7
			c0,0.2-17.3,46.6-1.4,73.5l-26.8,4.1l-2-68L295.2,262.7z"/>
		<path fill="#5A534A" stroke="#FFFFFF" stroke-width="0.2513" stroke-linecap="round" stroke-miterlimit="10" d="M184.2,253.2
			c0,0,20.7,61.6,13,83h60.3L238.1,270L184.2,253.2z"/>
		<g>
			<path fill="#5A534A" stroke="#FFFFFF" stroke-width="0.2513" stroke-linecap="round" stroke-miterlimit="10" d="M179.9,191.3
				c-7.5,39.6-3.2,52.5,4.3,61.9c17.3,21.2,66,86.4,66,86.4s71.7-101,42.8-150.4"/>
			<path fill="#5A534A" stroke="#FFFFFF" stroke-width="0.2513" stroke-linecap="round" stroke-miterlimit="10" d="M268.1,258.9
				c33-8.6,40.5-38.7,25.3-69.8l-113.5,2.3c0.9,35.5,20.2,67.3,71.9,68.9c1.1,0,7.3-18.4,7.3-18.4L268.1,258.9z"/>
			
				<line fill="none" stroke="#FFFFFF" stroke-width="0.2513" stroke-linecap="round" stroke-miterlimit="10" x1="257.9" y1="217.9" x2="259.2" y2="241.8"/>
			<path fill="none" stroke="#FFFFFF" stroke-width="0.2513" stroke-linecap="round" stroke-miterlimit="10" d="M257.9,218.2
				c2.5-11.1,24.3-14.1,32.1-8.4l0.2,15.5"/>
			<path fill="none" stroke="#FFFFFF" stroke-width="0.2513" stroke-linecap="round" stroke-miterlimit="10" d="M257.9,218.2
				c-3.2-10.9-35-14.6-42.5-8.2l0.7,15.5"/>
		</g>
	</g>
	
		<path fill="none" stroke="#FFFFFF" stroke-width="0.2513" stroke-linecap="round" stroke-linejoin="round" stroke-miterlimit="10" d="
		M293.6,147.9c-0.5-0.7-1.4-0.7-2-0.7c-2,0.2-3.9,1.1-5.9,0.9c-0.2,0-0.5,0-0.5-0.2"/>
	<path fill="none" stroke="#FFFFFF" stroke-width="0.2513" stroke-linecap="round" stroke-miterlimit="10" d="M253.8,137.9
		c-8.2,1.6-11.8-8.6-11.1-11.8c1.4-2.3,8.4-3,8.4-3l1.6,5.9"/>
	<path fill="none" stroke="#FFFFFF" stroke-width="0.2513" stroke-linecap="round" stroke-miterlimit="10" d="M269.9,105.6
		c-5.2,1.1-8.4-0.5-10.5-3.9c-2-3.4-0.9-7.7,2.5-9.8c2.7-1.6,6.1-0.7,7.7,2c1.4,2,0.5,5-1.6,6.1c-1.8,0.9-3.9,0.5-5-1.4
		c-0.9-1.4-0.5-3.2,1.1-3.9"/>
	<path fill="none" stroke="#FFFFFF" stroke-width="0.2513" stroke-linecap="round" stroke-miterlimit="10" d="M268.3,57.1
		c1.6,0.2,3,0.9,4.1,2c2,2.3,2,5.7-0.2,8c-1.8,1.6-4.5,1.6-6.4-0.2c-1.4-1.4-1.4-3.6,0.2-5c1.1-1.1,3-1.1,4.1,0
		c0.9,0.9,0.9,2.3,0,3.2"/>
	<path fill="none" stroke="#FFFFFF" stroke-width="0.2513" stroke-linecap="round" stroke-miterlimit="10" d="M230.6,80.1
		c-19.6,11.8-17.5,21.2-13.4,24.3c2.5,1.8,5.9,2,8-0.2c1.8-1.8,1.6-4.8-0.2-6.4c-1.4-1.4-3.6-1.4-5,0.2c-1.1,1.1-1.1,3,0,4.1"/>
	<path fill="none" stroke="#FFFFFF" stroke-width="0.2513" stroke-linecap="round" stroke-miterlimit="10" d="M241.5,148.1
		c-3.9,2.3-6.6,1.8-9.1-0.2s-2.7-5.7-0.7-8c1.6-1.8,4.5-2.3,6.4-0.7c1.6,1.4,1.8,3.6,0.5,5c-1.1,1.1-3,1.4-4.1,0.5"/>
	<path fill="none" stroke="#FFFFFF" stroke-width="0.2513" stroke-linecap="round" stroke-miterlimit="10" d="M213.8,105.3
		c4.5,7.1,6.6,12.3,4.1,16.8c-1.6,2.7-0.7,6.1,1.6,7.3c1.8,0.9,4.1,0.2,5.2-1.6c0.7-1.6,0.2-3.4-1.4-4.1c-1.1-0.7-2.7-0.2-3.2,1.1"
		/>
	<path fill="none" stroke="#FFFFFF" stroke-width="0.2513" stroke-linecap="round" stroke-miterlimit="10" d="M237.6,152
		c3.4,6.8,0.2,20.5-7.3,16.8c-1.6-0.9-2.5-2.7-1.6-4.5c0.7-1.4,2.3-1.8,3.6-1.4c1.1,0.5,1.6,1.8,1.1,3"/>
	<path fill="#2E0005" stroke="#FFFFFF" stroke-width="0.1675" stroke-miterlimit="10" d="M297.7,259.3"/>
	<path fill="#5A534A" stroke="#FFFFFF" stroke-width="0.2513" stroke-miterlimit="10" d="M297.2,266.2c0,0-5.5-14.3-12.3-16.8
		c-1.6,0.9-2.7,3,1.4,5.9v1.8c1.1,5.2,6.8,9.6,12.5,12.3"/>
	<g>
		<polygon fill="#F9AC1A" stroke="#FFFFFF" stroke-width="0.2513" stroke-miterlimit="10" points="229.7,315.8 241.7,212.7 
			276.8,215.4 264.9,317.6 		"/>
		<line fill="none" stroke="#FFFFFF" stroke-width="0.2513" stroke-miterlimit="10" x1="243.8" y1="212" x2="231.9" y2="313.9"/>
		<line fill="none" stroke="#FFFFFF" stroke-width="0.2513" stroke-miterlimit="10" x1="251.3" y1="212.7" x2="239.5" y2="314.8"/>
		<line fill="none" stroke="#FFFFFF" stroke-width="0.2513" stroke-miterlimit="10" x1="259" y1="213.6" x2="247.2" y2="315.8"/>
		<line fill="none" stroke="#FFFFFF" stroke-width="0.2513" stroke-miterlimit="10" x1="266.5" y1="214.5" x2="254.7" y2="316.7"/>
		<line fill="none" stroke="#FFFFFF" stroke-width="0.2513" stroke-miterlimit="10" x1="274" y1="215.4" x2="262.2" y2="317.6"/>
		
			<rect x="233.1" y="212.3" transform="matrix(-0.9934 -0.115 0.115 -0.9934 493.2997 455.9461)" fill="#F9AC1A" stroke="#FFFFFF" stroke-width="0.2513" stroke-miterlimit="10" width="53.5" height="3"/>
		<path fill="#F9AC1A" stroke="#FFFFFF" stroke-width="0.2513" stroke-miterlimit="10" d="M309.1,206.8c-4.8-3.2-23-3.6-25.7,10.2
			l7.5,57.3c0.9,3.2,0.9,26.6-20.9,35.5c-10.2,4.1-17.5,3.4-21.8,3c-4.1-0.5-11.4-1.6-20.5-8c-19.3-13.6-13.9-36.4-12.3-39.4
			l20.2-54.1c0.5-14.3-17.3-17.7-22.7-15.9c-3.4,3-3.2,15-3.2,15l15,1.8L206.5,265c-1.1,2.3-10.2,31.6,5,49.8
			c7.7,9.3,13.9,17.1,33.9,20l0,0l0,0c20,1.8,28-4.3,37.5-11.6c18.9-14.1,16.8-44.8,16.2-47.3l-5.7-55.7l15,1.8
			C308.6,222,311.8,210.4,309.1,206.8z"/>
		<path fill="#F9AC1A" stroke="#FFFFFF" stroke-width="0.2513" stroke-miterlimit="10" d="M229.7,209.1c0.2-8.4-10.2-10.5-13.2-9.3
			c-2,1.8-1.8,8.9-1.8,8.9l6.1,0.7"/>
		<path fill="#F9AC1A" stroke="#FFFFFF" stroke-width="0.2513" stroke-miterlimit="10" d="M289.5,215.9c1.6-8.2,12.3-8,15-6.1
			c1.6,2-0.2,9.1-0.2,9.1l-6.1-0.7"/>
	</g>
	<g>
		<path fill="#5A534A" stroke="#FFFFFF" stroke-width="0.2513" stroke-miterlimit="10" d="M367.3,229.8l-68,25.7
			c-1.6,0.7,2.3-0.7-3.4-1.1c-2.5-0.2,2,15.9,2,15.9l4.1-0.9c0,0,42.1-4.1,64.8-9.1c8.9-1.8,25.7-6.4,20.5-21.6
			C384.8,232,378.5,226.6,367.3,229.8z"/>
		<path fill="none" stroke="#FFFFFF" stroke-width="0.2513" stroke-linecap="round" stroke-miterlimit="10" d="M388,242
			c-2.7-8-13.2-6.1-15.7-3.9c-1.4,2.3,1.6,8.9,1.6,8.9l5.9-1.6"/>
	</g>
	<g>
		<path fill="#5A534A" stroke="#FFFFFF" stroke-width="0.2513" stroke-miterlimit="10" d="M296.8,251.4c-4.3,0.5-9.6,1.8-14.8,5l0,0
			c1.8,1.4,4.1,2.7,8.2,0.5l0,0c3,1.1,5.7,1.1,8.2,0.9C298.1,257.7,301.3,253,296.8,251.4z"/>
		<path fill="#5A534A" stroke="#FFFFFF" stroke-width="0.2513" stroke-miterlimit="10" d="M297.9,256.4c-5,0.5-11.4,1.8-17.7,5.7
			l0,0c2,1.6,4.5,3.2,9.3,0.7l0,0c3.6,1.6,7.3,1.4,10,0.7C299.7,263.4,303.6,258,297.9,256.4z"/>
		<path fill="#5A534A" stroke="#FFFFFF" stroke-width="0.2513" stroke-miterlimit="10" d="M300.9,268c-3.4,0.9-5.7,0.5-8.2-0.5l0,0
			c-4.1,2.3-6.6,0.9-8.2-0.5l0,0c5.2-3.2,10.7-4.3,14.8-5C299.3,262.1,303.8,263.4,300.9,268z"/>
		<path fill="#5A534A" stroke="#FFFFFF" stroke-width="0.2513" stroke-miterlimit="10" d="M300.7,267.1c-3.9,0.5-8.6,2-13.2,4.8l0,0
			c1.8,1.4,4.1,2.7,8.2,0.5l0,0c2,0.9,4.1,0.5,6.8-1.1C302.5,271.2,303.4,268.4,300.7,267.1z"/>
	</g>
	<g>
		
			<path fill="#5A534A" stroke="#FFFFFF" stroke-width="0.2513" stroke-linecap="round" stroke-linejoin="round" stroke-miterlimit="10" d="
			M126.4,295.5l32.1-94c6.8-8.2,14.6-12.1,23.4-9.3l1.1,0.7c16.4,7.7,16.8,33.9,6.6,53.7c-15.2,30-28.7,41.6-46.6,57.1
			c-3.2-0.9-4.5-1.8-8-1.1C132.3,303,126.4,295.5,126.4,295.5z"/>
		
			<path fill="none" stroke="#FFFFFF" stroke-width="0.2513" stroke-linecap="round" stroke-linejoin="round" stroke-miterlimit="10" d="
			M158.5,201.6c0,0-1.8,71.7-11.8,96.5"/>
	</g>
	
		<line fill="none" stroke="#FFFFFF" stroke-width="0.1675" stroke-linecap="round" stroke-linejoin="round" stroke-miterlimit="10" x1="127.8" y1="299.8" x2="127.8" y2="299.8"/>
	
		<path fill="#5A534A" stroke="#FFFFFF" stroke-width="0.2513" stroke-linecap="round" stroke-linejoin="round" stroke-miterlimit="10" d="
		M126.4,295.5c-0.2,1.6-0.7,4.1-0.5,5.9c1.6,15.9,18.7,13,27.5,11.1c19.6-4.3,50-14.8,58.2-17.7l20.2,0.9c3,0.5,17.3-4.3,18.4-6.4
		c-1.6-0.9-3.6-2-6.6,0.2c-0.2,0-0.2,0-0.5,0c2.7-1.1,5.5-2.5,8.2-4.5c-0.9-0.7-2.3-1.1-3.6-1.1c1.8-0.9,3.6-2,5.5-3.4
		c-1.8-1.1-4.5-2.3-8.2,0.5c-0.2,0-0.5,0-0.7-0.2c1.8-0.9,3.9-2,5.7-3.4c-1.8-1.1-3.9-2-7.3,0.5c-4.3-1.1-9.3,0.9-11.6,2.3l-2.5-1.4
		c0,0,8.6-0.9,11.8-6.6c-0.7-1.4-2.3-2.7-5.5,0.5l-1.6-0.2c-9.8,0.9-22.1,10.2-23.9,11.8l-57.6,0.7"/>
	<g>
		
			<path fill="#DBC6AB" stroke="#FFFFFF" stroke-width="0.1675" stroke-linecap="round" stroke-linejoin="round" stroke-miterlimit="10" d="
			M235.8,296.2"/>
		
			<path fill="#DBC6AB" stroke="#FFFFFF" stroke-width="0.1675" stroke-linecap="round" stroke-linejoin="round" stroke-miterlimit="10" d="
			M240.8,291.6"/>
		
			<path fill="#DBC6AB" stroke="#FFFFFF" stroke-width="0.1675" stroke-linecap="round" stroke-linejoin="round" stroke-miterlimit="10" d="
			M250.4,289.4"/>
		
			<line fill="none" stroke="#FFFFFF" stroke-width="0.1675" stroke-linecap="round" stroke-linejoin="round" stroke-miterlimit="10" x1="243.8" y1="289.6" x2="243.8" y2="289.6"/>
		<path fill="#5A534A" stroke="#FFFFFF" stroke-width="0.2513" stroke-miterlimit="10" d="M231.7,292.3c0-0.5,10.7-0.2,19.8-7.5l0,0
			c-1.8-1.1-3.9-2-7.3,0.5l0,0c-7.3-2-13,3.4-13,3.4"/>
		<path fill="#5A534A" stroke="#FFFFFF" stroke-width="0.2513" stroke-miterlimit="10" d="M231.3,288.7c0-0.7,11.8-0.5,22.3-8.4l0,0
			c-1.8-1.1-4.5-2.3-8.2,0.5l0,0c-8.2-2.3-14.6,3.9-14.6,3.6"/>
		<path fill="#5A534A" stroke="#FFFFFF" stroke-width="0.2513" stroke-miterlimit="10" d="M230.6,284.6c0-0.5,10.7-0.2,19.8-7.5l0,0
			c-1.8-1.1-3.9-2-7.3,0.5l0,0c-4.3-1.1-9.6,1.1-11.8,2.3"/>
	</g>
	<path fill="#2E0005" stroke="#FFFFFF" stroke-width="0.2513" stroke-linecap="round" stroke-miterlimit="10" d="M157.3,216.1"/>
	<g>
		<path fill="#F9AC1A" stroke="#FFFFFF" stroke-width="0.2513" stroke-miterlimit="10" d="M252.7,104.4c-0.7,2.7-1.8,3.9-3,3.4
			c-1.1-0.2-1.8-1.8-1.1-4.5c0.7-2.7,3.4-5.2,3.4-5.2S253.3,101.7,252.7,104.4z"/>
		<path fill="#F9AC1A" stroke="#FFFFFF" stroke-width="0.2513" stroke-miterlimit="10" d="M253.3,109c-2.7,0.9-4.3,0.2-4.5-0.9
			c-0.5-1.1,0.7-2.5,3.4-3.2c2.7-0.9,6.1,0.2,6.1,0.2S256.1,108.3,253.3,109z"/>
		<path fill="#F9AC1A" stroke="#FFFFFF" stroke-width="0.2513" stroke-miterlimit="10" d="M250.1,106.2c-0.7,2.7-1.8,3.9-3,3.4
			c-1.1-0.2-1.8-1.8-1.1-4.5c0.7-2.7,3.4-5.2,3.4-5.2S250.8,103.5,250.1,106.2z"/>
		<path fill="#F9AC1A" stroke="#FFFFFF" stroke-width="0.2513" stroke-miterlimit="10" d="M250.8,110.8c-2.7,0.9-4.3,0.2-4.5-0.9
			c-0.5-1.1,0.7-2.5,3.4-3.2c2.7-0.9,6.1,0.2,6.1,0.2S253.6,109.9,250.8,110.8z"/>
		<path fill="#F9AC1A" stroke="#FFFFFF" stroke-width="0.2513" stroke-miterlimit="10" d="M247.4,109.2c-0.7,2.7-1.8,3.9-3,3.4
			c-1.1-0.2-1.8-1.8-1.1-4.5c0.7-2.7,3.4-5.2,3.4-5.2S248.1,106.5,247.4,109.2z"/>
		<path fill="#F9AC1A" stroke="#FFFFFF" stroke-width="0.2513" stroke-miterlimit="10" d="M248.1,113.5c-2.7,0.9-4.3,0.2-4.5-0.9
			c-0.5-1.1,0.7-2.5,3.4-3.2c2.7-0.9,6.1,0.2,6.1,0.2S250.8,112.8,248.1,113.5z"/>
		<path fill="#F9AC1A" stroke="#FFFFFF" stroke-width="0.2513" stroke-miterlimit="10" d="M244.9,110.8c-0.7,2.7-1.8,3.9-3,3.4
			c-1.1-0.2-1.8-1.8-1.1-4.5s3.4-5.2,3.4-5.2S245.6,108.3,244.9,110.8z"/>
		<path fill="#F9AC1A" stroke="#FFFFFF" stroke-width="0.2513" stroke-miterlimit="10" d="M245.6,115.3c-2.7,0.9-4.3,0.2-4.5-0.9
			c-0.5-1.1,0.7-2.5,3.4-3.2c2.7-0.9,6.1,0.2,6.1,0.2S248.3,114.7,245.6,115.3z"/>
		<path fill="#F9AC1A" stroke="#FFFFFF" stroke-width="0.2513" stroke-miterlimit="10" d="M242.2,113.3c-0.7,2.7-1.8,3.9-3,3.4
			c-1.1-0.2-1.8-1.8-1.1-4.5c0.7-2.7,3.4-5.2,3.4-5.2S242.9,110.6,242.2,113.3z"/>
		<path fill="#F9AC1A" stroke="#FFFFFF" stroke-width="0.2513" stroke-miterlimit="10" d="M242.9,117.8c-2.7,0.9-4.3,0.2-4.5-0.9
			c-0.5-1.1,0.7-2.5,3.4-3.2c2.7-0.9,6.1,0.2,6.1,0.2S245.4,116.9,242.9,117.8z"/>
		<path fill="#F9AC1A" stroke="#FFFFFF" stroke-width="0.2513" stroke-miterlimit="10" d="M239.7,115.1c-0.7,2.7-1.8,3.9-3,3.4
			c-1.1-0.2-1.8-1.8-1.1-4.5c0.7-2.7,3.4-5.2,3.4-5.2S240.4,112.4,239.7,115.1z"/>
		<path fill="#F9AC1A" stroke="#FFFFFF" stroke-width="0.2513" stroke-miterlimit="10" d="M240.4,119.7c-2.7,0.9-4.3,0.2-4.5-0.9
			c-0.5-1.1,0.7-2.5,3.4-3.2c2.7-0.9,6.1,0.2,6.1,0.2S242.9,118.7,240.4,119.7z"/>
		<path fill="#F9AC1A" stroke="#FFFFFF" stroke-width="0.2513" stroke-miterlimit="10" d="M237,117.8c-0.7,2.7-1.8,3.9-3,3.4
			c-1.1-0.2-1.8-1.8-1.1-4.5c0.7-2.7,3.4-5.2,3.4-5.2S237.6,115.1,237,117.8z"/>
		<path fill="#F9AC1A" stroke="#FFFFFF" stroke-width="0.2513" stroke-miterlimit="10" d="M237.6,122.4c-2.7,0.9-4.3,0.2-4.5-0.9
			c-0.5-1.1,0.7-2.5,3.4-3.2c2.7-0.9,6.1,0.2,6.1,0.2S240.1,121.5,237.6,122.4z"/>
		<path fill="#F9AC1A" stroke="#FFFFFF" stroke-width="0.2513" stroke-miterlimit="10" d="M234.5,119.7c-0.7,2.7-1.8,3.9-3,3.4
			c-1.1-0.2-1.8-1.8-1.1-4.5c0.7-2.7,3.4-5.2,3.4-5.2S234.9,116.9,234.5,119.7z"/>
		<path fill="#F9AC1A" stroke="#FFFFFF" stroke-width="0.2513" stroke-miterlimit="10" d="M235.1,124.2c-2.7,0.9-4.3,0.2-4.5-0.9
			c-0.5-1.1,0.7-2.5,3.4-3.2c2.7-0.9,6.1,0.2,6.1,0.2S237.6,123.3,235.1,124.2z"/>
	</g>
	
		<path fill="none" stroke="#FFFFFF" stroke-width="0.2513" stroke-linecap="round" stroke-linejoin="round" stroke-miterlimit="10" d="
		M155.1,284.8h-6.1c-9.1,1.4-13.2,6.1-14.1,11.6"/>
	<g>
		<g>
			<rect x="153.5" y="388.5" fill="#9B9690" width="182.7" height="248"/>
			<rect x="143" y="336.2" fill="#9B9690" width="204.5" height="52.3"/>
		</g>
		<g>
			
				<rect x="153.5" y="388.5" fill="#9B9690" stroke="#FFFFFF" stroke-width="0.2513" stroke-linecap="round" stroke-miterlimit="10" width="182.7" height="248"/>
			
				<rect x="143" y="336.2" fill="#9B9690" stroke="#FFFFFF" stroke-width="0.2513" stroke-linecap="round" stroke-miterlimit="10" width="204.5" height="52.3"/>
		</g>
		<g>
			
				<rect x="153.5" y="388.5" fill="none" stroke="#FFFFFF" stroke-width="0.2513" stroke-linecap="round" stroke-miterlimit="10" width="182.7" height="248"/>
			
				<rect x="143" y="336.2" fill="none" stroke="#FFFFFF" stroke-width="0.2513" stroke-linecap="round" stroke-miterlimit="10" width="204.5" height="52.3"/>
		</g>
	</g>
</g>
</svg>
