<?xml version="1.0" encoding="utf-8"?>
<!-- Generator: Adobe Illustrator 18.1.1, SVG Export Plug-In . SVG Version: 6.00 Build 0)  -->
<svg version="1.1" id="Warstwa_1" xmlns="http://www.w3.org/2000/svg" xmlns:xlink="http://www.w3.org/1999/xlink" x="0px" y="0px"
	 viewBox="0 0 508 637.9" enable-background="new 0 0 508 637.9" xml:space="preserve">
<g>
	<path fill="#5A534A" stroke="#FFFFFF" stroke-width="0.2513" stroke-linecap="round" stroke-miterlimit="10" d="M241.2,164.6
		c14.1,11.6,10,30.5,4.5,46.6l54.8-20.9c-18-3.4-33.7-30-30.3-48c0,0,4.3-12.7,2.7-20.9c-2.5-13.6-16.6-46.6-55.7-26.4
		c-18.7,11.4-13.9,45.5-13.9,45.5h9.1v3.6l-2.3,3l3,1.6l-1.4,2.3l3.6,1.4c0,0-6.1,14.3,0,17.7c8.4,4.8,36.2-11.1,39.1-13.4"/>
	<g>
		<path fill="#5A534A" stroke="#FFFFFF" stroke-width="0.2513" stroke-miterlimit="10" d="M149,294l40.5-94.2
			c7.3-8,15.2-11.1,23.9-8l1.1,0.7c15.9,8.6,15,34.8,3.6,53.9c-16.8,29.1-30.9,40-49.6,54.6c-3.2-0.9-4.5-2-8-1.6
			C157.9,300.2,149,294,149,294z"/>
		<path fill="none" stroke="#FFFFFF" stroke-width="0.2513" stroke-miterlimit="10" d="M189.5,200.1c0,0-23,70.5-17.1,95.8"/>
	</g>
	<path fill="#5A534A" stroke="#FFFFFF" stroke-width="0.2513" stroke-linecap="round" stroke-miterlimit="10" d="M205.2,271.3
		c0.2,0.2,10,47.3,2.7,77.6h43.7l-17.5-60.5L205.2,271.3z"/>
	<path fill="#5A534A" stroke="#FFFFFF" stroke-width="0.2513" stroke-linecap="round" stroke-miterlimit="10" d="M313.3,240.1
		c0,0-17.5,73.5-3.6,108.7l-68.9,0.2l19.8-78.9L313.3,240.1z"/>
	<path fill="#5A534A" stroke="#FFFFFF" stroke-width="0.2513" stroke-linecap="round" stroke-miterlimit="10" d="M310.6,190.3
		c7.7,39.4,4.1,52.5-3,62.1c-12.3,16.6-46.6,66.4-62.1,88.9c-4.8,7.1-10.7,5.9-13.6,0.2c-14.6-29.3-48.5-107.8-28.4-151.1"/>
	<path fill="#5A534A" stroke="#FFFFFF" stroke-width="0.2513" stroke-linecap="round" stroke-miterlimit="10" d="M230,259.4
		c-33.2-8-39.4-36.6-26.4-69.2h113.1c0,35.5-18.9,67.8-70.5,70.3c-1.1,0-7.7-18.2-7.7-18.2L230,259.4z"/>
	
		<line fill="none" stroke="#FFFFFF" stroke-width="0.2513" stroke-linecap="round" stroke-linejoin="round" stroke-miterlimit="10" x1="239.6" y1="218.3" x2="238.7" y2="242.4"/>
	
		<path fill="#5A534A" stroke="#FFFFFF" stroke-width="0.2513" stroke-linecap="round" stroke-linejoin="round" stroke-miterlimit="10" d="
		M387.7,278.3l-54.8-82.1c-8.6-6.4-17.1-8.4-24.8-3.6l-0.9,0.9c-14.1,11.4-8.4,36.9,6.1,53.9c21.8,25.7,33,37.8,53.9,48.5
		c3-1.6,8.6-6.6,12.1-6.8C381.8,289,385.4,280.1,387.7,278.3z"/>
	<path fill="none" stroke="#FFFFFF" stroke-width="0.2513" stroke-linecap="round" stroke-miterlimit="10" d="M239.6,218.5
		c-2.7-10.9-24.6-13.6-32.1-7.7l0.2,15.5"/>
	
		<path fill="none" stroke="#FFFFFF" stroke-width="0.2513" stroke-linecap="round" stroke-linejoin="round" stroke-miterlimit="10" d="
		M239.6,218.5c3-10.9,34.8-15.2,42.3-9.1l-0.2,15.5"/>
	<path fill="#9B9690" stroke="#FFFFFF" stroke-width="0.2513" stroke-linecap="round" stroke-miterlimit="10" d="M200.2,211
		c-0.5-3-0.9-5.9-0.9-8.9c-0.5-16.8,5.7-36.4,15.7-50c2.3-0.9,3.6-1.6,3.4-4.3c-0.5-4.1-3.6-4.5-6.1-4.5c0,0-0.2-1.4,0.7-1.8
		c0.2-0.2,0.7-0.2,1.4-0.2c2.3,0.2,4.3,2.3,10.7,1.4c5.7-0.9,14.3-3.9,17.5-9.3c0.2-0.2,4.5-9.1,5.2-12.1c5,7.1,9.3,20.7,9.1,31.4
		c0,12.7-1.6,30.3-5.5,42.3c-1.8,5.5-3.9,10.9-6.4,16.2c-1.8,4.3-3.6,8.4-6.1,12.3c-4.3,7.3-10.5,13.6-17.5,18.4
		c-5.7,3.9-13,6.6-19.6,4.5c6.6-5.5,4.1-13.2,2.3-20.2C202.5,221.2,200.9,216.2,200.2,211z"/>
	<path fill="#9B9690" stroke="#FFFFFF" stroke-width="0.2513" stroke-linecap="round" stroke-miterlimit="10" d="M244.4,118.4
		c1.1,0.7,2,1.6,3,2.7c14.3,22.5,10.5,67.1,42.1,68.2c4.1,0.2,10.2-0.2,14.6-2.3c3.4-1.6,6.1-5,5.2-8.6c-2,0.5-4.1,0.9-6.1,0.2
		c-2-0.7-3.6-2.7-3.2-4.5c3,2.3,8,1.6,10.2-1.4c1.8-2.3,1.6-5.5-1.6-6.8c0,5.2-8.4,5-6.8-0.9c3.4-0.7,9.6-6.6,3.6-10.5
		c0.2,2.7-2.3,4.1-5.2,3.2c-5-1.6-27.3-21.6-27.1-35.9c0.5-24.1-10.5-28.9-19.8-33c-9.6-4.1-20.7-4.8-30-0.5
		c-8.2,3.6-13.9,9.8-15.7,18.7C218.4,113.4,234.8,111.6,244.4,118.4z"/>
	<path fill="#F9AC1A" stroke="#FFFFFF" stroke-width="0.2513" stroke-miterlimit="10" d="M273.5,122c-16.4-0.5-45.3-10-63.5-22.1
		l3.6-5c15.7,10.7,31.2,17.1,59.6,20.7L273.5,122z"/>
	<path fill="none" stroke="#FFFFFF" stroke-width="0.2513" stroke-linecap="round" stroke-miterlimit="10" d="M212.5,140.5
		c2,0.2,3.9-1.4,3.9-3.4c0.2-1.6-1.1-3-2.7-3.2c-1.4,0-2.5,0.9-2.5,2s0.7,2,1.6,2"/>
	<path fill="none" stroke="#FFFFFF" stroke-width="0.2513" stroke-linecap="round" stroke-miterlimit="10" d="M221.6,126.1
		c2.7-0.9,4.3-3.9,3.2-6.8l-10,3.4C215.7,125.7,218.9,127,221.6,126.1z"/>
	
		<path fill="none" stroke="#FFFFFF" stroke-width="0.2513" stroke-linecap="round" stroke-linejoin="round" stroke-miterlimit="10" d="
		M332.6,196.2c0,0,4.1,45.5,25.7,87.6"/>
	<path fill="none" stroke="#FFFFFF" stroke-width="0.2513" stroke-linecap="round" stroke-miterlimit="10" d="M252.8,123.9
		c2.3,1.4,4.1,3.6,5.5,5.9c7.5,12.3,8,28.2,15.5,40.5c1.8,3,4.1,5.7,7.1,7.5c3,1.8,6.6,2.5,9.8,1.4c0.7-0.2,1.6-0.7,1.8-1.6"/>
	<path fill="none" stroke="#FFFFFF" stroke-width="0.2513" stroke-linecap="round" stroke-miterlimit="10" d="M263.5,126.6
		c2.7,1.4,4.1,4.8,5,7.7c1.6,4.8,3.2,9.6,4.8,14.1c1.6,4.5,3.2,9.1,5.9,13s7.1,7.1,11.8,7.3c2.3,0.2,5-0.7,5.7-3"/>
	<path fill="none" stroke="#FFFFFF" stroke-width="0.2513" stroke-linecap="round" stroke-miterlimit="10" d="M271.4,131.4
		c3.9,4.5,8.9,16.2,10.5,19.8c1.6,3.6,3.9,7.3,7.5,8.6c0.7,0.2,1.6,0.5,2.3,0.2c0.7-0.2,1.4-0.7,1.6-1.6"/>
	<path fill="none" stroke="#FFFFFF" stroke-width="0.2513" stroke-miterlimit="10" d="M214.8,162.8c-6.1,10.5-8.4,23.2-6.1,35.3
		c1.4,6.8,3.9,13.2,4.8,20c0.9,6.8-0.5,14.6-5.7,18.9"/>
	<path fill="none" stroke="#FFFFFF" stroke-width="0.2513" stroke-miterlimit="10" d="M227.3,155.5c-5.7,6.4-8.2,15.2-8.4,23.9
		c-0.5,8.6,0.9,17.1,1.6,25.7c0.5,6.8,0.5,13.9-1.1,20.5c-1.6,6.6-5.5,13-11.1,16.8"/>
	<path fill="none" stroke="#FFFFFF" stroke-width="0.2513" stroke-miterlimit="10" d="M247.8,150.7c-9.1,12.1-10.7,28-12.1,43
		c-1.6,15-3.6,30.9-13.6,42.3c-1.8,2-9.6,7.1-12.3,7.7"/>
	<path fill="#5A534A" stroke="#FFFFFF" stroke-width="0.2513" stroke-miterlimit="10" d="M172.2,282.6l72.8-13c0.5,0,5-2.5,6.6-1.6
		c4.3,3,8,12.3,8,12.3l-8.4,1.1c0,0-51.6,23.2-73.9,29.3c-8.9,2.5-25.9,6.1-28.2-9.6c-0.5-2.5-0.2-4.8,0.5-7.1"/>
	
		<path fill="#868079" stroke="#FFFFFF" stroke-width="0.2513" stroke-linecap="round" stroke-linejoin="round" stroke-miterlimit="10" d="
		M306.9,317.7c-5,2-6.6-3-6.6-3s-9.6,2.3-15-2.7c0-1.8,1.4-3.6,5.9-1.4l1.6-0.7c5.2-1.4,11.6-0.7,17.3,0.5"/>
	<path fill="#868079" stroke="#FFFFFF" stroke-width="0.2513" stroke-miterlimit="10" d="M252.1,273.5c4.3-3.4,0.7-7.3,0.7-7.3
		s6.6-7.1,5-14.3c-1.6-0.7-3.9-0.7-4.1,4.3l-1.4,1.1c-3.6,3.9-6.4,10-8.2,15.2"/>
	<g>
		
			<rect x="214.1" y="72.9" transform="matrix(-0.7949 0.6068 -0.6068 -0.7949 526.0195 258.2743)" fill="#F9AC1A" stroke="#FFFFFF" stroke-width="0.2513" stroke-miterlimit="10" width="10.5" height="290.3"/>
		<path fill="#F9AC1A" stroke="#FFFFFF" stroke-width="0.2513" stroke-miterlimit="10" d="M131.5,81.8l-6.6,5l-33-35.7l25.7,41.4
			l-6.6,5c0,0-30.3-23.2-36.2-23.2c0,0,7.3,6.1,30.7,34.6c0,0,9.3,6.1,17.7-0.5c0.7-0.5,7.7-5.9,7.7-5.9h0.2h0.2
			c0,0,6.8-5.2,7.7-5.9c8.6-6.6,5-17.1,5-17.1c-21.4-30-25.3-38.7-25.3-38.7C117.2,46.5,131.5,81.8,131.5,81.8z"/>
	</g>
	<path fill="#2E0005" stroke="#FFFFFF" stroke-width="0.1675" stroke-miterlimit="10" d="M290.5,311.5"/>
	<g>
		<path fill="#868079" stroke="#FFFFFF" stroke-width="0.2513" stroke-miterlimit="10" d="M246.2,264c3.2-3,7.5-6.4,13.2-8.4l0,0
			c0,2.3-0.5,5-4.8,6.8l0,0c-0.9,3-2.7,5.2-4.5,6.8C250,269.2,244.6,268.8,246.2,264z"/>
		<path fill="#868079" stroke="#FFFFFF" stroke-width="0.2513" stroke-miterlimit="10" d="M249.4,268.3c3.4-3.4,8.6-7.7,15.5-10.2
			l0,0c0,2.5-0.5,5.5-5.5,7.5l0,0c-1.1,3.9-3.4,6.4-5.9,8.2C253.7,274,247.1,273.5,249.4,268.3z"/>
		<path fill="#868079" stroke="#FFFFFF" stroke-width="0.2513" stroke-miterlimit="10" d="M256.4,277.9c2.7-2,3.9-4.1,4.8-6.8l0,0
			c4.3-1.8,4.8-4.5,4.8-6.8l0,0c-5.7,2-10,5.5-13.2,8.4C252.8,272.9,251.2,277.2,256.4,277.9z"/>
		<path fill="#868079" stroke="#FFFFFF" stroke-width="0.2513" stroke-miterlimit="10" d="M256,276.9c3-2.7,7.1-5.5,11.8-7.3l0,0
			c0,2.3-0.5,5-4.8,6.8l0,0c-0.7,2-2,3.6-5.2,4.5C258,281,255.3,279.9,256,276.9z"/>
	</g>
	
		<path fill="none" stroke="#FFFFFF" stroke-width="0.2513" stroke-linecap="round" stroke-linejoin="round" stroke-miterlimit="10" d="
		M157,293.1c1.4-4.5,5.5-8.6,13.2-10.2l10.2-1.4"/>
	<path fill="none" stroke="#FFFFFF" stroke-width="0.2513" stroke-miterlimit="10" d="M223.2,95c0,0,5-6.8,21.2-5.9"/>
	<path fill="none" stroke="#FFFFFF" stroke-width="0.2513" stroke-miterlimit="10" d="M254.8,92.7c0,0,9.3,3,10.5,15.9"/>
	<path fill="none" stroke="#FFFFFF" stroke-width="0.2513" stroke-miterlimit="10" d="M249.8,92c0,0,8,5,8.2,18.9"/>
	<g>
		
			<path fill="#5A534A" stroke="#FFFFFF" stroke-width="0.2513" stroke-linecap="round" stroke-linejoin="round" stroke-miterlimit="10" d="
			M370.4,275.6c0,0-7.5,0.7-51.6,32.8c-3.6,2.7-19.3,2-23.7,3.2c-3.4,0.9-7.7,5.2-7.7,5.2s11.6,19.6,14.3,17.3
			c2.3-2,3.9-4.1,8.6-4.5c5.5-0.5,14.6-8,14.6-8l53.9-19.6c11.1-4.8,15.2-12.5,11.1-19.8C386.5,275.6,382.9,272.2,370.4,275.6z"/>
		
			<path fill="#868079" stroke="#FFFFFF" stroke-width="0.2513" stroke-linecap="round" stroke-linejoin="round" stroke-miterlimit="10" d="
			M289.2,315.2c-3.6,3-4.5,4.3-5,5.5c1.1,3,3.4,4.5,3.4,4.5l4.1-3"/>
		
			<path fill="#868079" stroke="#FFFFFF" stroke-width="0.2513" stroke-linecap="round" stroke-linejoin="round" stroke-miterlimit="10" d="
			M291.2,320.6c-3,2.5-3.6,4.8-3.6,5.9c1.6,2.3,4.1,3.2,4.1,3.2l4.1-4.5"/>
		
			<path fill="#868079" stroke="#FFFFFF" stroke-width="0.2513" stroke-linecap="round" stroke-linejoin="round" stroke-miterlimit="10" d="
			M295.3,324.3c-3,2.5-3.4,4.8-3.6,6.1c1.6,2.3,4.3,3.4,4.3,3.4l4.1-3.6"/>
		
			<path fill="#868079" stroke="#FFFFFF" stroke-width="0.2513" stroke-linecap="round" stroke-linejoin="round" stroke-miterlimit="10" d="
			M299.9,328.1c-2.7,2.7-3.6,5-4.3,6.1c1.4,2.5,3.2,2.3,3.2,2.3l4.5-3.9"/>
	</g>
	
		<path fill="none" stroke="#FFFFFF" stroke-width="0.2513" stroke-linecap="round" stroke-linejoin="round" stroke-miterlimit="10" d="
		M388.6,279.9c3.2,7.7-6.1,13.2-9.3,13.2c-2.5-0.9-4.5-7.7-4.5-7.7l5.5-2.7"/>
	<g>
		
			<rect x="165.4" y="387.7" fill="#9B9690" stroke="#FFFFFF" stroke-width="0.2513" stroke-linecap="round" stroke-miterlimit="10" width="182.7" height="248"/>
		
			<rect x="155" y="335.4" fill="#9B9690" stroke="#FFFFFF" stroke-width="0.2513" stroke-linecap="round" stroke-miterlimit="10" width="204.5" height="52.3"/>
	</g>
</g>
</svg>
