<?xml version="1.0" encoding="utf-8"?>
<!-- Generator: Adobe Illustrator 18.1.1, SVG Export Plug-In . SVG Version: 6.00 Build 0)  -->
<svg version="1.1" id="Warstwa_1" xmlns="http://www.w3.org/2000/svg" xmlns:xlink="http://www.w3.org/1999/xlink" x="0px" y="0px"
	 viewBox="0 0 706.7 383.3" enable-background="new 0 0 706.7 383.3" xml:space="preserve">
<g>
	<path fill="#88715A" stroke="#FFFFFF" stroke-width="0.75" stroke-linecap="round" stroke-miterlimit="10" d="M170.1,202
		c-3.7-11.6-6.6-23.8-12.5-32c-6.2-8.6-17.7-13.6-24.4-8.2l-0.5,0.3c-17.4,17.6,11.2,45.7,36,48.4c2,0.2-2.3-3-1.1-3.6
		C172.6,204.2,170.8,196,170.1,202z"/>
	<path fill="none" stroke="#FFFFFF" stroke-width="0.75" stroke-linecap="round" stroke-miterlimit="10" d="M162.5,202.7
		c-2.7-22.1-15.7-38.4-21.7-37.6c-3,0.4-5.4,2.6-5.3,5.7c0.1,2.4,2.1,4.3,4.5,4.3c1.9-0.1,3.5-1.7,3.4-3.6c-0.1-1.5-1.2-3.1-2.7-3.1
		"/>
	
		<path fill="none" stroke="#FFFFFF" stroke-width="0.75" stroke-linecap="round" stroke-linejoin="round" stroke-miterlimit="10" d="
		M172.2,202.5c-6.6-8.6-7.8-24.3-14.6-32.5c-8.4-10.2-19.1-14.1-25.9-6.7l0,0c-14.6,15.3,9.3,43.3,37,47.2c2.4,0.3,4.9-9.4,3.6-6.6
		C171.6,205.4,170.5,204.7,172.2,202.5z"/>
</g>
<polygon fill="#88715A" stroke="#FFFFFF" stroke-width="0.75" stroke-linecap="round" stroke-miterlimit="10" points="213.8,229.6 
	237.6,212.3 231.1,204.2 208.8,223.6 "/>
<path fill="#88715A" stroke="#FFFFFF" stroke-width="0.75" stroke-linecap="round" stroke-miterlimit="10" d="M155.5,206.8
	c18.3-27,32.3,4.8,51.5,6.6c1.2-0.3,9.4-1.6,14.2,0.5l0.7,0.5c2.3-0.7,2.7,0.3,2.7,1.1c-3,1.9-7.2,0.1-7.2,0.1l0.9,1.2
	c1.4-0.1,4.3,0.2,6.1,1.9c2.2-0.3,3.1,0.7,3.6,1.6c-1.2,0.2-2.4,0.3-3.6,0.2c0.1,0.1,0.2,0.1,0.3,0.2c2.5-0.3,3.4,0.8,4,1.9
	c-1.2,0.2-2.4,0.3-3.5,0.2c0.7,0.3,1.1,0.9,1.4,1.4c-1.8,0.3-3.5,0.3-5.1,0.1c0.1,0.1,0.1,0.1,0.2,0.1c2-0.3,2.7,0.7,3.2,1.5
	c-1.1,0.6-9.1-0.7-10.3-1.6l-9.7-5.8c-7.5-1.2-25.3-5.6-42.1-9.3L155.5,206.8z"/>
<line fill="none" stroke="#FFFFFF" stroke-width="0.75" stroke-linecap="round" stroke-miterlimit="10" x1="186.7" y1="214.8" x2="207" y2="213.4"/>
<path fill="none" stroke="#FFFFFF" stroke-width="0.75" stroke-linecap="round" stroke-miterlimit="10" d="M162.2,199.4
	c2.6-0.5,4.9,1.2,5.4,3.8c0.3,2-1,4-3.1,4.3c-1.6,0.3-3.2-0.8-3.5-2.4c-0.2-1.3,0.7-2.6,1.9-2.8c1-0.2,2,0.5,2.2,1.6
	c0.1,0.9-0.4,1.6-1.2,1.8"/>
<path fill="none" stroke="#221E20" stroke-width="0.75" stroke-linecap="round" stroke-miterlimit="10" d="M145.3,355.4"/>
<path fill="#88715A" stroke="#FFFFFF" stroke-width="0.75" stroke-linecap="round" stroke-miterlimit="10" d="M152,332.8"/>
<path fill="none" stroke="#221E20" stroke-width="0.75" stroke-linecap="round" stroke-miterlimit="10" d="M155.5,177.1"/>
<polyline fill="#88715A" stroke="#FFFFFF" stroke-width="0.75" stroke-linecap="round" stroke-miterlimit="10" points="350.2,283.2 
	358.8,305.8 319.7,333.8 289.5,338.1 287.4,341.9 288,347.6 315.2,347.6 368.4,323.8 380.4,298.2 "/>
<path fill="#88715A" stroke="#FFFFFF" stroke-width="0.75" stroke-linecap="round" stroke-miterlimit="10" d="M210.1,117.9
	c2.4-4.5,20.6-6.1,20.6-6.1c-9.5-7-25.4-3.8-25.4-3.8L210.1,117.9z"/>
<path fill="#88715A" stroke="#FFFFFF" stroke-width="0.75" stroke-linecap="round" stroke-miterlimit="10" d="M224.2,128.5
	c2.4-4.5,20.6-6.1,20.6-6.1c-9.5-7-25.4-3.8-25.4-3.8L224.2,128.5z"/>
<path fill="#88715A" stroke="#FFFFFF" stroke-width="0.75" stroke-linecap="round" stroke-miterlimit="10" d="M240.6,141.4
	c2.4-4.5,20.6-6.1,20.6-6.1c-9.5-7-25.4-3.8-25.4-3.8L240.6,141.4z"/>
<path fill="#88715A" stroke="#FFFFFF" stroke-width="0.75" stroke-linecap="round" stroke-miterlimit="10" d="M255.1,154
	c2.4-4.5,20.6-6.1,20.6-6.1c-9.5-7-25.4-3.8-25.4-3.8L255.1,154z"/>
<path fill="#88715A" stroke="#FFFFFF" stroke-width="0.75" stroke-linecap="round" stroke-miterlimit="10" d="M270.1,167.2
	c2.4-4.5,20.6-6.1,20.6-6.1c-9.5-7-25.4-3.8-25.4-3.8L270.1,167.2z"/>
<path fill="#88715A" stroke="#FFFFFF" stroke-width="0.75" stroke-linecap="round" stroke-miterlimit="10" d="M288.2,182.3
	c1.9-4.8,19.7-8.5,19.7-8.5c-10.3-5.8-25.7-0.7-25.7-0.7L288.2,182.3z"/>
<path fill="#88715A" stroke="#FFFFFF" stroke-width="0.75" stroke-linecap="round" stroke-miterlimit="10" d="M310.3,196.5
	c1.8-4.8,19.6-8.8,19.6-8.8c-10.4-5.6-25.7-0.3-25.7-0.3L310.3,196.5z"/>
<path fill="#88715A" stroke="#FFFFFF" stroke-width="0.75" stroke-linecap="round" stroke-miterlimit="10" d="M354.7,61.7
	c2.2-4.7,20.3-6.9,20.3-6.9c-9.8-6.6-25.6-2.7-25.6-2.7L354.7,61.7z"/>
<path fill="#88715A" stroke="#FFFFFF" stroke-width="0.75" stroke-linecap="round" stroke-miterlimit="10" d="M365.4,73
	c4.1-3.1,21.3,3,21.3,3c-5.8-10.3-21.6-14-21.6-14L365.4,73z"/>
<path fill="#88715A" stroke="#FFFFFF" stroke-width="0.75" stroke-linecap="round" stroke-miterlimit="10" d="M372.4,90.9
	c4.8-1.8,19.4,9.3,19.4,9.3c-2.4-11.6-16.3-19.9-16.3-19.9L372.4,90.9z"/>
<path fill="#88715A" stroke="#FFFFFF" stroke-width="0.75" stroke-linecap="round" stroke-miterlimit="10" d="M368.5,108.2
	c5.1,0.8,12.6,17.4,12.6,17.4c3.4-11.3-4.9-25.3-4.9-25.3L368.5,108.2z"/>
<path fill="#88715A" stroke="#FFFFFF" stroke-width="0.75" stroke-linecap="round" stroke-miterlimit="10" d="M362.5,131.3
	c5.1,0.8,12.6,17.4,12.6,17.4c3.4-11.3-4.9-25.3-4.9-25.3L362.5,131.3z"/>
<path fill="#88715A" stroke="#FFFFFF" stroke-width="0.75" stroke-linecap="round" stroke-miterlimit="10" d="M352.9,151.3
	c5.1,0.2,14.4,16,14.4,16c2.2-11.6-7.5-24.6-7.5-24.6L352.9,151.3z"/>
<path fill="#88715A" stroke="#FFFFFF" stroke-width="0.75" stroke-linecap="round" stroke-miterlimit="10" d="M347.9,177.9
	c4.6-2.3,20.3,6.9,20.3,6.9c-3.7-11.2-18.6-17.8-18.6-17.8L347.9,177.9z"/>
<path fill="#88715A" stroke="#FFFFFF" stroke-width="0.75" stroke-linecap="round" stroke-miterlimit="10" d="M360.8,202.4
	c2.8-4.3,21.1-4.3,21.1-4.3c-8.9-7.8-25-6-25-6L360.8,202.4z"/>
<path fill="#88715A" stroke="#FFFFFF" stroke-width="0.75" stroke-linecap="round" stroke-miterlimit="10" d="M382.7,217.7
	c1.8-4.8,19.5-9,19.5-9c-10.4-5.6-25.7-0.1-25.7-0.1L382.7,217.7z"/>
<path fill="#88715A" stroke="#FFFFFF" stroke-width="0.75" stroke-linecap="round" stroke-miterlimit="10" d="M538.2,248.4
	c1.8-4.8,19.5-9,19.5-9c-10.4-5.6-25.7-0.1-25.7-0.1L538.2,248.4z"/>
<path fill="#88715A" stroke="#FFFFFF" stroke-width="0.75" stroke-linecap="round" stroke-miterlimit="10" d="M562.2,256.4
	c1.8-4.8,19.5-9,19.5-9c-10.4-5.6-25.7-0.1-25.7-0.1L562.2,256.4z"/>
<path fill="#88715A" stroke="#FFFFFF" stroke-width="0.75" stroke-linecap="round" stroke-miterlimit="10" d="M578.2,266.3
	c1.8-4.8,19.5-9,19.5-9c-10.4-5.6-25.7-0.1-25.7-0.1L578.2,266.3z"/>
<path fill="#88715A" stroke="#FFFFFF" stroke-width="0.75" stroke-linecap="round" stroke-miterlimit="10" d="M595.2,277.8
	c1.8-4.8,19.5-9,19.5-9c-10.4-5.6-25.7-0.1-25.7-0.1L595.2,277.8z"/>
<path fill="#88715A" stroke="#FFFFFF" stroke-width="0.75" stroke-linecap="round" stroke-miterlimit="10" d="M322.9,43.1
	c5.1,0,27.5-7,27.5-7c-12.5,8.7-24.4,9.1-24.4,9.1L322.9,43.1z"/>
<path fill="#88715A" stroke="#FFFFFF" stroke-width="0.75" stroke-linecap="round" stroke-miterlimit="10" d="M326.5,43.6
	c4.9,1.1,28.3-0.6,28.3-0.6c-14.2,5.7-25.8,3.6-25.8,3.6L326.5,43.6z"/>
<g>
	<g>
		<path fill="#88715A" d="M344.7,236.5c-4-9.9-13.8-14.9-30.8-22.8c-13.7-6.4-33.4-12.1-50.4-26.6c-10.6-9-19-17.6-27.1-26
			c-16.2-16.6-41.8-33.5-46.3-35.3c-9.4-17.9,8.9-22.1,8.9-22.1c25.6,13.4,38.2,23.7,54.8,40.8c7.8,8,15.8,16.3,25.6,24.6
			c14.9,12.6,29.9,19.7,43.2,25.9c17.5,8.2,33.9,15.9,41.2,33.8L344.7,236.5z"/>
	</g>
	<g>
		<path fill="#88715A" stroke="#FFFFFF" stroke-width="0.75" stroke-linecap="round" stroke-miterlimit="10" d="M344.7,236.5
			c-4-9.9-13.8-14.9-30.8-22.8c-13.7-6.4-33.4-12.1-50.4-26.6c-10.6-9-19-17.6-27.1-26c-16.2-16.6-41.8-33.5-46.3-35.3
			c-9.4-17.9,8.9-22.1,8.9-22.1c25.6,13.4,38.2,23.7,54.8,40.8c7.8,8,15.8,16.3,25.6,24.6c14.9,12.6,29.9,19.7,43.2,25.9
			c17.5,8.2,33.9,15.9,41.2,33.8L344.7,236.5z"/>
	</g>
	<g>
		<path fill="none" stroke="#FFFFFF" stroke-width="0.75" stroke-linecap="round" stroke-miterlimit="10" d="M344.7,236.5
			c-4-9.9-13.8-14.9-30.8-22.8c-13.7-6.4-33.4-12.1-50.4-26.6c-10.6-9-19-17.6-27.1-26c-16.2-16.6-41.8-33.5-46.3-35.3
			c-9.4-17.9,8.9-22.1,8.9-22.1c25.6,13.4,38.2,23.7,54.8,40.8c7.8,8,15.8,16.3,25.6,24.6c14.9,12.6,29.9,19.7,43.2,25.9
			c17.5,8.2,33.9,15.9,41.2,33.8L344.7,236.5z"/>
	</g>
</g>
<path fill="#88715A" stroke="#FFFFFF" stroke-width="0.75" stroke-linecap="round" stroke-miterlimit="10" d="M674.1,193.7
	c-1.5-1.5-3.8-3.7-7.1-6s-7.7-4.9-13.2-6.6c-5.6-1.7-12.4-2.7-19.9-0.9c-7.6,1.9-15,6.9-20,14.7c-2.5,3.9-4.4,8.5-5,13.6
	c-0.2,1.3-0.3,2.6-0.2,3.9c0,0.6,0.1,1.4,0.1,2.2l0.2,1.7l0.3,2c0.1,0.6,0.2,1.2,0.4,1.9c0.3,1.2,0.6,2.4,1,3.6
	c3,9.5,8.1,17.6,12.8,25.3c2.3,3.9,4.7,7.6,6.6,11.2c1.9,3.6,3.5,7.2,4.2,10.2c0.3,1.5,0.5,2.8,0.4,3.9c-0.1,1.1-0.3,1.8-0.7,2.6
	c-0.7,1.4-1.9,2.8-4.3,4.8c-2.2,1.8-4,2.4-5.5,2.6c-1.5,0.1-3.2-0.1-5.6-0.9c-2.3-0.7-5.2-2-8.1-3.6c-2.9-1.6-5.9-3.5-8.9-5.4
	c-6-4-12.1-8.3-18.1-12.3c-6-4-12-7.6-17.9-10.6c-5.8-3-11-5.7-16-7.6c-9.9-3.7-16.6-4.5-16.6-4.5L393,216.4
	c-19.6-11-42.6-27.4-39.9-46.5c1.6-11,6.8-21.5,12.2-32.5c3.6-7.2,7.2-14.6,10-22.6c3.6-9.9,4.9-18.3,4.1-26.3
	c-1.1-11.8-6.9-23-16.1-31c-6.8-5.9-18.6-8.9-28.2-10.4c-15.7,6.3-8.9,22.1-8.9,22.1c9.3,0.4,18.9,1.7,22.7,4.9
	c4.8,4.2,8.1,10.3,8.6,16.4c0.5,4.7-0.5,10-3,16.9c-2.4,6.8-5.7,13.3-9.1,20.3c-6,12.1-12.1,24.7-14.2,39.1c-3.5,23.9,6,49,24,65.6
	l-22.1,9.4c-5.6,48.4,54.1,58.2,54.1,58.2l142.8-12.3c0,0,9.8-1.8,19,1.5c4.3,1.4,9.4,3.5,15.2,6.1s12.4,6,20,9.6
	c3.8,1.8,7.9,3.6,12.5,5.2c4.6,1.6,9.7,3.2,15.7,4c3,0.4,6.2,0.6,9.7,0.3c3.4-0.2,6.9-1,10.3-2.2s6.6-3,9.4-4.9
	c2.8-2,5.2-4.3,7.2-6.6c0.5-0.6,1-1.2,1.5-1.8l0.7-0.9l0.3-0.3l0.1-0.1l0.1-0.2l0.2-0.3l1.4-2c0.6-0.9,0.9-1.5,1.4-2.3
	c1.6-3.1,3.1-6.5,3.7-10.2c0.7-3.7,0.7-7.5,0.2-11c-0.5-3.5-1.5-6.6-2.7-9.3c-2.4-5.6-5.4-9.9-8.4-13.9c-3-3.9-6-7.4-8.9-10.8
	c-5.7-6.7-11.1-13.1-14.2-19.4c-0.4-0.8-0.7-1.6-1.1-2.4c-0.2-0.4-0.3-0.8-0.5-1.2l-0.2-0.6l-0.1-0.3l-0.1-0.2c-0.1-0.2,0,0.2,0,0.1
	v-0.1l-0.3-1.4c-0.1-0.3-0.2-0.6-0.2-1c-0.2-0.7-0.2-1.5-0.3-2.3c-0.2-3.1,0.5-6.2,1.7-9.1c2.5-5.9,7.3-10.6,12.7-12.9
	c0.7-0.3,1.4-0.6,2-0.8l1.1-0.3l1-0.3c1.4-0.3,2.8-0.6,4.3-0.7c2.8-0.3,5.6-0.2,8.2,0.2c5.2,0.7,9.7,2.4,13.2,4.1s6.1,3.5,7.8,4.7
	c1.7,1.2,2.6,2,2.6,2S675.6,195.1,674.1,193.7z"/>
<polyline fill="#88715A" stroke="#FFFFFF" stroke-width="0.75" stroke-linecap="round" stroke-miterlimit="10" points="530.2,287.6 
	536.9,311.1 557.6,314.5 577.7,340.1 569.1,357.1 561.6,357.1 563.5,347.8 566,344.1 553.7,324.1 520.8,322.4 492.3,308.3 
	489.3,291.1 "/>
<path fill="#88715A" stroke="#FFFFFF" stroke-width="0.75" stroke-linecap="round" stroke-miterlimit="10" d="M563.5,347.8
	c0,0-15-4.4-21.8,5.3c0,0,8.3,0.7,12.3-2.7c2.7,0.5,7.5,2.7,9.1,1.9"/>
<path fill="#88715A" stroke="#FFFFFF" stroke-width="0.75" stroke-linecap="round" stroke-miterlimit="10" d="M563.2,348.9
	c0,0-15.3-3.2-21.3,7c0,0,8.4,0,12.1-3.6c2.7,0.3,7.7,2.1,9.3,1.2"/>
<path fill="#88715A" stroke="#FFFFFF" stroke-width="0.75" stroke-linecap="round" stroke-miterlimit="10" d="M563.2,352.6
	c0,0-15.3-3.2-21.3,7c0,0,8.4,0,12.1-3.6c2.7,0.3,6.8,1.5,9.3,1.2"/>
<path fill="#88715A" stroke="#FFFFFF" stroke-width="0.75" stroke-linecap="round" stroke-miterlimit="10" d="M290,338
	c0,0-10.2-11.9-21.1-7.6c0,0,6.6,5.1,11.8,4.5c2,1.9,4.8,6.4,6.6,6.6"/>
<path fill="#88715A" stroke="#FFFFFF" stroke-width="0.75" stroke-linecap="round" stroke-miterlimit="10" d="M228.6,250.7
	c0.2-5.1,15.7-14.6,15.7-14.6c-11.6-2-24.5,7.9-24.5,7.9L228.6,250.7z"/>
<path fill="#88715A" stroke="#FFFFFF" stroke-width="0.75" stroke-linecap="round" stroke-miterlimit="10" d="M250,251.5
	c-2-4.7,8.3-19.8,8.3-19.8c-11.5,3-19.1,17.3-19.1,17.3L250,251.5z"/>
<path fill="#88715A" stroke="#FFFFFF" stroke-width="0.75" stroke-linecap="round" stroke-miterlimit="10" d="M271.7,235
	c-4.1-3.1-3.1-21.2-3.1-21.2c-8.3,8.4-7.4,24.6-7.4,24.6L271.7,235z"/>
<path fill="#88715A" stroke="#FFFFFF" stroke-width="0.75" stroke-linecap="round" stroke-miterlimit="10" d="M285,222.3
	c-3.8-3.5-0.8-21.5-0.8-21.5c-9.1,7.5-10,23.7-10,23.7L285,222.3z"/>
<path fill="#88715A" stroke="#FFFFFF" stroke-width="0.75" stroke-linecap="round" stroke-miterlimit="10" d="M298,214.7
	c-1.8-4.8,9-19.5,9-19.5c-11.5,2.6-19.6,16.6-19.6,16.6L298,214.7z"/>
<path fill="#88715A" stroke="#FFFFFF" stroke-width="0.75" stroke-linecap="round" stroke-miterlimit="10" d="M314.9,210.7
	c-0.4-5.1,14.1-16.2,14.1-16.2c-11.8-0.8-23.5,10.4-23.5,10.4L314.9,210.7z"/>
<path fill="#88715A" stroke="#FFFFFF" stroke-width="0.75" stroke-linecap="round" stroke-miterlimit="10" d="M331,214.7
	c0.6-5.1,16.9-13.2,16.9-13.2c-11.4-3-25.1,5.8-25.1,5.8L331,214.7z"/>
<path fill="#88715A" stroke="#FFFFFF" stroke-width="0.75" stroke-linecap="round" stroke-miterlimit="10" d="M343.1,223.2
	c2.6-4.4,20.8-5.4,20.8-5.4c-9.3-7.3-25.3-4.6-25.3-4.6L343.1,223.2z"/>
<path fill="#88715A" stroke="#FFFFFF" stroke-width="0.75" stroke-linecap="round" stroke-miterlimit="10" d="M192.3,236
	c5.1,0,27.5-7,27.5-7c-12.5,8.7-24.4,9.1-24.4,9.1L192.3,236z"/>
<path fill="#88715A" stroke="#FFFFFF" stroke-width="0.75" stroke-linecap="round" stroke-miterlimit="10" d="M195.9,236.5
	c4.9,1.1,28.3-0.6,28.3-0.6c-14.2,5.7-25.8,3.6-25.8,3.6L195.9,236.5z"/>
<path fill="#88715A" stroke="#FFFFFF" stroke-width="0.75" stroke-linecap="round" stroke-miterlimit="10" d="M187.5,99.7
	c5.1,0.3,27.9-5.3,27.9-5.3c-13.1,7.9-24.9,7.6-24.9,7.6L187.5,99.7z"/>
<path fill="#88715A" stroke="#FFFFFF" stroke-width="0.75" stroke-linecap="round" stroke-miterlimit="10" d="M191,100
	c4.8,1.4,28.3,1.2,28.3,1.2c-14.5,4.8-26,1.9-26,1.9L191,100z"/>
<path fill="#88715A" stroke="#FFFFFF" stroke-width="0.75" stroke-linecap="round" stroke-miterlimit="10" d="M289.5,339.3
	c0,0-13.3-8.1-22.4-0.6c0,0,7.9,2.8,12.6,0.6c2.5,1.2,6.6,4.5,8.3,4.2"/>
<path fill="#88715A" stroke="#FFFFFF" stroke-width="0.75" stroke-linecap="round" stroke-miterlimit="10" d="M289,343
	c0,0-15.3-3.2-21.3,7c0,0,8.4,0,12.1-3.6c2.7,0.3,7.7,2.1,9.3,1.2"/>
<path fill="#88715A" stroke="#FFFFFF" stroke-width="0.75" stroke-linecap="round" stroke-miterlimit="10" d="M399,287.6L374.7,325
	l-2,17.5l-20,1.9v9h31.3l4.4-24l41.9-31.6L398,244.5c0,0-16.3-16.3-33.2-0.9"/>
<path fill="#88715A" stroke="#FFFFFF" stroke-width="0.75" stroke-linecap="round" stroke-miterlimit="10" d="M355.6,344.4
	c0,0-15-4.4-21.8,5.3c0,0,8.3,0.7,12.3-2.7c2.7,0.5,7.5,2.7,9.1,1.9"/>
<path fill="#88715A" stroke="#FFFFFF" stroke-width="0.75" stroke-linecap="round" stroke-miterlimit="10" d="M355.3,345.5
	c0,0-15.3-3.2-21.3,7c0,0,8.4,0,12.1-3.6c2.7,0.3,7.7,2.1,9.3,1.2"/>
<path fill="#88715A" stroke="#FFFFFF" stroke-width="0.75" stroke-linecap="round" stroke-miterlimit="10" d="M355.3,349.1
	c0,0-15.3-3.2-21.3,7c0,0,8.4,0,12.1-3.6c2.7,0.3,7.7,2.1,9.3,1.2"/>
<g>
	<g>
		<path fill="#88715A" d="M361.8,230.2c-5.8-9.1-14.1-16.3-23.6-21c-5.5-2.7-11.4-4.5-17.5-5.3c-17-2.2-34.8,4-46.4,16.2
			c-2.7,2.9-5,5.8-7.2,8.7c-1.8,2.4-3.6,4.7-5.4,6.8c-15.8,18-44.4,5.6-57.6,4.5c0,0-14.2,6-8.9,22.1c13.9-2.2,33.8,5.2,43.6,6
			c1.9,0.2,3.7,0.2,5.6,0.2c29.8-2.2,35-24.4,44.7-34.1c7.3-7.4,18.2-11.4,28.8-10c10.4,1.4,14.8,7.9,15.1,17.3
			c0,0-0.6,5.2-0.2,10.6"/>
	</g>
	<g>
		<path fill="#88715A" stroke="#FFFFFF" stroke-width="0.75" stroke-linecap="round" stroke-miterlimit="10" d="M361.8,230.2
			c-5.8-9.1-14.1-16.3-23.6-21c-5.5-2.7-11.4-4.5-17.5-5.3c-17-2.2-34.8,4-46.4,16.2c-2.7,2.9-5,5.8-7.2,8.7
			c-1.8,2.4-3.6,4.7-5.4,6.8c-15.8,18-44.4,5.6-57.6,4.5c0,0-14.2,6-8.9,22.1c13.9-2.2,33.8,5.2,43.6,6c1.9,0.2,3.7,0.2,5.6,0.2
			c29.8-2.2,35-24.4,44.7-34.1c7.3-7.4,18.2-11.4,28.8-10c10.4,1.4,14.8,7.9,15.1,17.3c0,0-0.6,5.2-0.2,10.6"/>
	</g>
	<g>
		<path fill="none" stroke="#FFFFFF" stroke-width="0.75" stroke-linecap="round" stroke-miterlimit="10" d="M361.8,230.2
			c-5.8-9.1-14.1-16.3-23.6-21c-5.5-2.7-11.4-4.5-17.5-5.3c-17-2.2-34.8,4-46.4,16.2c-2.7,2.9-5,5.8-7.2,8.7
			c-1.8,2.4-3.6,4.7-5.4,6.8c-15.8,18-44.4,5.6-57.6,4.5c0,0-14.2,6-8.9,22.1c13.9-2.2,33.8,5.2,43.6,6c1.9,0.2,3.7,0.2,5.6,0.2
			c29.8-2.2,35-24.4,44.7-34.1c7.3-7.4,18.2-11.4,28.8-10c10.4,1.4,14.8,7.9,15.1,17.3c0,0-0.6,5.2-0.2,10.6"/>
	</g>
</g>
<path fill="#88715A" stroke="#FFFFFF" stroke-width="0.75" stroke-linecap="round" stroke-miterlimit="10" d="M181.1,254.1
	c0,0-0.1-0.1-0.3-0.2c-0.1-0.1-0.1,0-0.1-0.1c0,0-0.2-0.1-0.3-0.1c-0.6-0.2-1.6-0.4-2.9-0.5c-0.6-0.1-1.4-0.1-2-0.1
	c-0.3,0-0.7,0-1.1,0.1c-0.2,0-0.3,0.1-0.5,0.1h-0.2l-0.3,0.1c-0.5,0.2-1.2,0.5-1.7,1c-0.3,0.2-0.5,0.5-0.7,0.8
	c-0.2,0.3-0.3,0.6-0.6,1c-0.5,0.9-0.9,1.8-1.5,2.6c-0.3,0.4-0.7,0.8-1.1,1.1c-0.2,0.2-0.5,0.3-0.7,0.5c-0.3,0.1-0.4,0.2-0.7,0.2
	c-1,0.3-2,0.2-2.8-0.1c-0.9-0.2-1.5-0.8-2-1.2c-0.5-0.4-1.1-0.7-1.6-0.7c-0.5-0.1-1,0.1-1.2,0.3c-0.3,0.2-0.5,0.5-0.5,0.7
	c-0.1,0.2,0,0.3,0,0.3s-0.1-0.1-0.1-0.3c0-0.2,0.1-0.6,0.4-0.9c0.3-0.3,0.7-0.6,1.4-0.6c0.6-0.1,1.3,0.2,1.9,0.5
	c0.7,0.3,1.2,0.7,1.9,0.7c0.7,0.1,1.4,0,2-0.3c0.1-0.1,0.4-0.2,0.5-0.2c0.1-0.1,0.2-0.2,0.3-0.3c0.2-0.2,0.5-0.6,0.6-0.9
	c0.4-0.7,0.7-1.5,0.9-2.3c0.1-0.4,0.3-1,0.6-1.5c0.2-0.5,0.6-1,0.9-1.4c0.7-0.9,1.5-1.5,2.6-2l0.3-0.2c0.2-0.1,0.3-0.1,0.5-0.2
	c0.3-0.1,0.5-0.1,0.8-0.2c0.5-0.1,0.9-0.2,1.4-0.2c0.9-0.1,1.6-0.1,2.4-0.1c1.5,0,2.7,0.1,3.7,0.3c0.3,0.1,0.5,0.1,0.7,0.2
	c0.2,0.1,0.5,0.2,0.6,0.2c0.2,0.1,0.3,0.1,0.3,0.1L181.1,254.1z"/>
<path fill="#88715A" stroke="#FFFFFF" stroke-width="0.75" stroke-linecap="round" stroke-miterlimit="10" d="M151.2,252.8
	c0,0,0-12.1,26.7-10.4l4,9.1C182,251.4,161.7,247.5,151.2,252.8z"/>
<path fill="#88715A" stroke="#FFFFFF" stroke-width="0.75" stroke-linecap="round" stroke-miterlimit="10" d="M195.4,262.2
	c0,0-23.6,0-30.4,10.1c-0.7-11.8,17-20.9,17-20.9L195.4,262.2z"/>
<path fill="#88715A" stroke="#FFFFFF" stroke-width="0.75" stroke-linecap="round" stroke-miterlimit="10" d="M195.4,262.2
	c0,0,14.7-5.2,8.9-22.1c-17.3-10.8-26.3,2.2-26.3,2.2l4,9.1L195.4,262.2z"/>
<path fill="#88715A" stroke="#FFFFFF" stroke-width="0.75" stroke-linecap="round" stroke-miterlimit="10" d="M190.8,244.2
	c0,0.1-2.3,2-4.7,1.9c-2.4-0.2-4.1-2.4-4.1-2.6C182,243.3,190.8,244.2,190.8,244.2z"/>
<ellipse fill="#7B2A10" stroke="#FFFFFF" stroke-width="0.75" stroke-linecap="round" stroke-linejoin="round" stroke-miterlimit="10" cx="186" cy="245.1" rx="0.6" ry="0.9"/>
<path fill="#88715A" stroke="#FFFFFF" stroke-width="0.75" stroke-linecap="round" stroke-miterlimit="10" d="M312,60.8
	c0,0-0.1-0.1-0.3-0.2c-0.1-0.1-0.1,0-0.1-0.1c0,0-0.2-0.1-0.3-0.1c-0.6-0.2-1.6-0.4-2.9-0.5c-0.6-0.1-1.4-0.1-2-0.1
	c-0.3,0-0.7,0-1.1,0.1c-0.2,0-0.3,0.1-0.5,0.1h-0.2l-0.3,0.1c-0.5,0.2-1.2,0.5-1.7,1c-0.3,0.2-0.5,0.5-0.7,0.8
	c-0.2,0.3-0.3,0.6-0.6,1c-0.5,0.9-0.9,1.8-1.5,2.6c-0.3,0.4-0.7,0.8-1.1,1.1c-0.2,0.2-0.5,0.3-0.7,0.5c-0.3,0.1-0.4,0.2-0.7,0.2
	c-1,0.3-2,0.2-2.8-0.1c-0.9-0.2-1.5-0.8-2-1.2c-0.5-0.4-1.1-0.7-1.6-0.7c-0.5-0.1-1,0.1-1.2,0.3c-0.3,0.2-0.5,0.5-0.5,0.7
	c-0.1,0.2,0,0.3,0,0.3s-0.1-0.1-0.1-0.3c0-0.2,0.1-0.6,0.4-0.9c0.3-0.3,0.7-0.6,1.4-0.6c0.6-0.1,1.3,0.2,1.9,0.5
	c0.7,0.3,1.2,0.7,1.9,0.7c0.7,0.1,1.4,0,2-0.3c0.1-0.1,0.4-0.2,0.5-0.2c0.1-0.1,0.2-0.2,0.3-0.3c0.2-0.2,0.5-0.6,0.6-0.9
	c0.4-0.7,0.7-1.5,0.9-2.3c0.1-0.4,0.3-1,0.6-1.5c0.2-0.5,0.6-1,0.9-1.4c0.7-0.9,1.5-1.5,2.6-2l0.3-0.2c0.2-0.1,0.3-0.1,0.5-0.2
	c0.3-0.1,0.5-0.1,0.8-0.2c0.5-0.1,0.9-0.2,1.4-0.2c0.9-0.1,1.6-0.1,2.4-0.1c1.5,0,2.7,0.1,3.7,0.3c0.3,0.1,0.5,0.1,0.7,0.2
	c0.2,0.1,0.5,0.2,0.6,0.2c0.2,0.1,0.3,0.1,0.3,0.1L312,60.8z"/>
<path fill="#88715A" stroke="#FFFFFF" stroke-width="0.75" stroke-linecap="round" stroke-miterlimit="10" d="M282.2,59.6
	c0,0,0-12.1,26.7-10.4l4,9.1C312.9,58.2,292.6,54.3,282.2,59.6z"/>
<path fill="#88715A" stroke="#FFFFFF" stroke-width="0.75" stroke-linecap="round" stroke-miterlimit="10" d="M326.3,68.9
	c0,0-23.6,0-30.4,10.1c-0.7-11.8,17-20.9,17-20.9L326.3,68.9z"/>
<path fill="#88715A" stroke="#FFFFFF" stroke-width="0.75" stroke-linecap="round" stroke-miterlimit="10" d="M326.3,68.9
	c0,0,14.2-7.3,8.9-22.1c-17.3-10.8-26.3,2.2-26.3,2.2l4,9.1L326.3,68.9z"/>
<path fill="#88715A" stroke="#FFFFFF" stroke-width="0.75" stroke-linecap="round" stroke-miterlimit="10" d="M321.7,50.9
	c0,0.1-2.3,2-4.7,1.9c-2.4-0.2-4.1-2.4-4.1-2.6C312.9,50,321.7,50.9,321.7,50.9z"/>
<ellipse fill="#7B2A10" stroke="#FFFFFF" stroke-width="0.75" stroke-linecap="round" stroke-linejoin="round" stroke-miterlimit="10" cx="316.9" cy="51.9" rx="0.6" ry="0.9"/>
<path fill="#88715A" stroke="#FFFFFF" stroke-width="0.75" stroke-linecap="round" stroke-miterlimit="10" d="M175.9,117.6
	c0,0-0.1-0.1-0.3-0.2c-0.1-0.1-0.1,0-0.1-0.1c0,0-0.2-0.1-0.3-0.1c-0.6-0.2-1.6-0.4-2.9-0.5c-0.6-0.1-1.4-0.1-2-0.1
	c-0.3,0-0.7,0-1.1,0.1c-0.2,0-0.3,0.1-0.5,0.1h-0.2l-0.3,0.1c-0.5,0.2-1.2,0.5-1.7,1c-0.3,0.2-0.5,0.5-0.7,0.8
	c-0.2,0.3-0.3,0.6-0.6,1c-0.5,0.9-0.9,1.8-1.5,2.6c-0.3,0.4-0.7,0.8-1.1,1.1c-0.2,0.2-0.5,0.3-0.7,0.5c-0.3,0.1-0.4,0.2-0.7,0.2
	c-1,0.3-2,0.2-2.8-0.1c-0.9-0.2-1.5-0.8-2-1.2c-0.5-0.4-1.1-0.7-1.6-0.7c-0.5-0.1-1,0.1-1.2,0.3c-0.3,0.2-0.5,0.5-0.5,0.7
	c-0.1,0.2,0,0.3,0,0.3s-0.1-0.1-0.1-0.3c0-0.2,0.1-0.6,0.4-0.9c0.3-0.3,0.7-0.6,1.4-0.6c0.6-0.1,1.3,0.2,1.9,0.5
	c0.7,0.3,1.2,0.7,1.9,0.7c0.7,0.1,1.4,0,2-0.3c0.1-0.1,0.4-0.2,0.5-0.2c0.1-0.1,0.2-0.2,0.3-0.3c0.2-0.2,0.5-0.6,0.6-0.9
	c0.4-0.7,0.7-1.5,0.9-2.3c0.1-0.4,0.3-1,0.6-1.5c0.2-0.5,0.6-1,0.9-1.4c0.7-0.9,1.5-1.5,2.6-2l0.3-0.2c0.2-0.1,0.3-0.1,0.5-0.2
	c0.3-0.1,0.5-0.1,0.8-0.2c0.5-0.1,0.9-0.2,1.4-0.2c0.9-0.1,1.6-0.1,2.4-0.1c1.5,0,2.7,0.1,3.7,0.3c0.3,0.1,0.5,0.1,0.7,0.2
	c0.2,0.1,0.5,0.2,0.6,0.2c0.2,0.1,0.3,0.1,0.3,0.1L175.9,117.6z"/>
<path fill="#88715A" stroke="#FFFFFF" stroke-width="0.75" stroke-linecap="round" stroke-miterlimit="10" d="M146.1,116.3
	c0,0,0-12.1,26.7-10.4l4,9.1C176.8,114.9,156.5,111.1,146.1,116.3z"/>
<path fill="#88715A" stroke="#FFFFFF" stroke-width="0.75" stroke-linecap="round" stroke-miterlimit="10" d="M190.2,125.7
	c0,0-23.6,0-30.4,10.1c-0.7-11.8,17-20.9,17-20.9L190.2,125.7z"/>
<path fill="#88715A" stroke="#FFFFFF" stroke-width="0.75" stroke-linecap="round" stroke-miterlimit="10" d="M190.2,125.7
	c0,0,14.1-5.4,8.9-22.1c-17.3-10.8-26.3,2.2-26.3,2.2l4,9.1L190.2,125.7z"/>
<path fill="#88715A" stroke="#FFFFFF" stroke-width="0.75" stroke-linecap="round" stroke-miterlimit="10" d="M185.6,107.8
	c0,0.1-2.3,2-4.7,1.9c-2.4-0.2-4.1-2.4-4.1-2.6C176.8,106.8,185.6,107.8,185.6,107.8z"/>
<ellipse fill="#88715A" stroke="#FFFFFF" stroke-width="0.75" stroke-linecap="round" stroke-miterlimit="10" cx="180.8" cy="108.7" rx="0.6" ry="0.9"/>
<path fill="#88715A" stroke="#FFFFFF" stroke-width="0.75" stroke-linecap="round" stroke-miterlimit="10" d="M484.6,259.7
	l-23.2,57.9l50.1,6.2l-11.8,20.1l-20.7,1.5l0.3,9.6H509l21.2-41.8l-32-5.9l30.3-28.5c0,0,6.8-31.3-16.4-32"/>
<path fill="#88715A" stroke="#FFFFFF" stroke-width="0.75" stroke-linecap="round" stroke-miterlimit="10" d="M480.1,345.5
	c0,0-15-4.4-21.8,5.3c0,0,8.3,0.7,12.3-2.7c2.7,0.5,7.5,2.7,9.1,1.9"/>
<path fill="#88715A" stroke="#FFFFFF" stroke-width="0.75" stroke-linecap="round" stroke-miterlimit="10" d="M479.9,346.5
	c0,0-15.3-3.2-21.3,7c0,0,8.4,0,12.1-3.6c2.7,0.3,7.7,2.1,9.3,1.2"/>
<path fill="#88715A" stroke="#FFFFFF" stroke-width="0.75" stroke-linecap="round" stroke-miterlimit="10" d="M479.9,350.2
	c0,0-15.3-3.2-21.3,7c0,0,8.4,0,12.1-3.6c2.7,0.3,7.7,2.1,9.3,1.2"/>
<g>
	<path fill="#34110D" stroke="#FFFFFF" stroke-width="0.75" stroke-miterlimit="10" d="M216.3,225.7"/>
	<path fill="#34110D" stroke="#FFFFFF" stroke-width="0.75" stroke-miterlimit="10" d="M219.8,224.8"/>
	<path fill="#34110D" stroke="#FFFFFF" stroke-width="0.75" stroke-miterlimit="10" d="M224.9,226.1"/>
	<line fill="none" stroke="#FFFFFF" stroke-width="0.75" stroke-miterlimit="10" x1="221.8" y1="224.6" x2="221.8" y2="224.6"/>
	<path fill="#88715A" stroke="#FFFFFF" stroke-width="0.75" stroke-linecap="round" stroke-miterlimit="10" d="M215.4,222.8
		c0.5,0.1,5.1,2.6,11.2,1.5l0,0c-0.5-1-1.4-1.9-3.6-1.6l0,0c-2.9-2.8-7-1.7-6.9-1.8"/>
	<path fill="#88715A" stroke="#FFFFFF" stroke-width="0.75" stroke-linecap="round" stroke-miterlimit="10" d="M216.1,221
		c0.1-0.3,5.7,2.8,12.5,1.7l0,0c-0.6-1-1.5-2.2-4-1.9l0,0c-3.2-3.1-7.8-1.9-7.8-1.9"/>
	<path fill="#88715A" stroke="#FFFFFF" stroke-width="0.75" stroke-linecap="round" stroke-miterlimit="10" d="M216.8,218.9
		c0.1-0.3,5.1,2.6,11.2,1.5l0,0c-0.5-1-1.4-1.9-3.6-1.6l0,0c-1.8-1.6-4.7-1.9-6.1-1.9"/>
</g>
<g>
	<g>
		<polygon fill="#88715A" points="304.9,150.9 235.2,207.4 233.3,205.1 293.3,156.4 		"/>
		<polygon fill="#88715A" points="305.1,151.2 235.4,207.7 237.3,210 297.4,161.3 		"/>
	</g>
	<g>
		<polygon fill="#88715A" stroke="#FFFFFF" stroke-width="0.75" stroke-linecap="round" stroke-miterlimit="10" points="
			304.9,150.9 235.2,207.4 233.3,205.1 293.3,156.4 		"/>
		<polygon fill="#88715A" stroke="#FFFFFF" stroke-width="0.75" stroke-linecap="round" stroke-miterlimit="10" points="
			305.1,151.2 235.4,207.7 237.3,210 297.4,161.3 		"/>
	</g>
	<g>
		<polygon fill="none" stroke="#FFFFFF" stroke-width="0.75" stroke-linecap="round" stroke-miterlimit="10" points="304.9,150.9 
			235.2,207.4 233.3,205.1 293.3,156.4 		"/>
		<polygon fill="none" stroke="#FFFFFF" stroke-width="0.75" stroke-linecap="round" stroke-miterlimit="10" points="305.1,151.2 
			235.4,207.7 237.3,210 297.4,161.3 		"/>
	</g>
</g>
<rect x="233.4" y="195.5" transform="matrix(-0.7765 0.6301 -0.6301 -0.7765 550.356 217.9481)" fill="#88715A" stroke="#FFFFFF" stroke-width="0.75" stroke-linecap="round" stroke-miterlimit="10" width="6.2" height="22.1"/>
<path fill="#88715A" stroke="#FFFFFF" stroke-width="0.75" stroke-linecap="round" stroke-miterlimit="10" d="M82.4,89.5
	c-0.2-1-0.6-2.4-1.8-3.3c-1.5-1.1-3-0.5-4.8-1.2c-1.3-0.5-4.4-2.1-5.7-5.4C70,80.8,70,84,71.9,87.4c1.8,3.1,4.2,4.6,5.3,5.2
	L82.4,89.5z"/>
<line fill="none" stroke="#88715A" stroke-width="3" stroke-linecap="round" stroke-miterlimit="10" x1="91" y1="89.6" x2="18.8" y2="104.4"/>
<g>
	<g>
		<path fill="#88715A" d="M115.5,84.6l-28.7,5.7l0.5,2l6.2-1.8c0,0,1.1,1.6,4.3,0.7C108.6,87.9,115.5,84.6,115.5,84.6z"/>
		<path fill="#88715A" d="M115.5,84.6l-28.7,5.7l-0.3-2l6.4-0.8c0,0,0.5-2,3.7-2.3C107.9,84,115.5,84.6,115.5,84.6z"/>
	</g>
	<g>
		<path fill="#88715A" stroke="#FFFFFF" stroke-width="0.75" stroke-linecap="round" stroke-miterlimit="10" d="M115.5,84.6
			l-28.7,5.7l0.5,2l6.2-1.8c0,0,1.1,1.6,4.3,0.7C108.6,87.9,115.5,84.6,115.5,84.6z"/>
		<path fill="#88715A" stroke="#FFFFFF" stroke-width="0.75" stroke-linecap="round" stroke-miterlimit="10" d="M115.5,84.6
			l-28.7,5.7l-0.3-2l6.4-0.8c0,0,0.5-2,3.7-2.3C107.9,84,115.5,84.6,115.5,84.6z"/>
	</g>
	<g>
		<path fill="none" stroke="#FFFFFF" stroke-width="0.75" stroke-linecap="round" stroke-miterlimit="10" d="M115.5,84.6l-28.7,5.7
			l0.5,2l6.2-1.8c0,0,1.1,1.6,4.3,0.7C108.6,87.9,115.5,84.6,115.5,84.6z"/>
		<path fill="none" stroke="#FFFFFF" stroke-width="0.75" stroke-linecap="round" stroke-miterlimit="10" d="M115.5,84.6l-28.7,5.7
			l-0.3-2l6.4-0.8c0,0,0.5-2,3.7-2.3C107.9,84,115.5,84.6,115.5,84.6z"/>
	</g>
</g>
<polyline fill="#88715A" stroke="#FFFFFF" stroke-width="0.75" stroke-linecap="round" stroke-miterlimit="10" points="156.6,345.8 
	160.6,349 131.2,357.7 "/>
<path fill="#88715A" stroke="#FFFFFF" stroke-width="0.75" stroke-linecap="round" stroke-miterlimit="10" d="M165.9,344
	c-0.5-0.1-3.9,2-4.4,2c-2.1-0.1-19.5-2-24.9-2l-7-25.6l-5.1,4.2c4.6,13.9,7.2,22.7,7.5,23.7c-3.7,2.2-2,7.3-0.8,11.4l29.3-8.6l6-1.8
	C168.1,346.1,167.9,344.1,165.9,344z"/>
<path fill="#88715A" stroke="#FFFFFF" stroke-width="0.75" stroke-linecap="round" stroke-miterlimit="10" d="M132.6,298
	c3,24.6,3.7,38.5,4.1,46c-8.7-18.4-34.6-50.5-16.5-55.4L132.6,298z"/>
<path fill="#88715A" stroke="#FFFFFF" stroke-width="0.75" stroke-linecap="round" stroke-miterlimit="10" d="M121.4,290.4
	c-12.3-10.7-26.5-32.7-19.5-39.5c-6.6-0.9-9.5-5.6-10.9-13.2c-1.4-7.5,2.2-15.3,7.5-17.8l17.8-0.6c5.3,6,14.2,20.8,15.5,43.1
	c0.9,15.3,0.8,20.9,0.8,25.9l0.1,12.7L121.4,290.4"/>
<path fill="none" stroke="#FFFFFF" stroke-width="0.75" stroke-linecap="round" stroke-miterlimit="10" d="M106.5,260.5
	c4.1,17.6,14.5,25.7,18.8,25.3c2.1-0.2,3.9-1.7,3.9-3.9c0-1.7-1.4-3.1-3.1-3.1c-1.4,0-2.5,1.1-2.5,2.4c0,1.1,0.9,2,2,2"/>
<path fill="#88715A" stroke="#FFFFFF" stroke-width="0.75" stroke-linecap="round" stroke-miterlimit="10" d="M116.2,104.4
	c-0.1,0.1-5.1-8.7-15.1-5.5c-5.6,1.8-8.9,7.6-8,13.2c-0.6,0.1-1.1,0.2-1.7,0.5c-5.7,2-8.7,8.2-6.7,13.9c1.1,3.2,3.5,5.5,6.4,6.6
	c-0.9,1.1-1.1,2.6-0.7,4c0.7,2,2.7,3.1,4.7,2.8c-0.5,0.7-0.7,1.6-0.4,2.6c0.3,1,1.1,1.6,2.1,1.8c-0.3,0.6-0.3,1.4-0.1,2
	c0.5,1.5,2.1,2.2,3.6,1.7c0.3-0.1,0.6-0.2,0.8-0.5c-0.2,0.6-0.3,1.3-0.1,2c0.5,1.5,2.1,2.2,3.6,1.7c1.5-0.5,2.2-2.1,1.7-3.6
	c-0.3-0.8-0.9-1.4-1.6-1.6c1.6-1.1,2.3-3.1,1.6-4.9c-0.2-0.4-0.3-0.8-0.6-1.1c1.7-1.5,2.4-4,1.6-6.3c-0.1-0.3-0.3-0.7-0.5-1
	c1.6-1.9,2.2-4.6,1.4-7.2c-0.1-0.1-0.1-0.3-0.2-0.4c1.3-1,2.2-2.4,2.6-4c0.1,0,0.3-0.1,0.4-0.1c1.9,2.4,5.1,3.1,8.2,2.4
	C134.6,120.7,127.1,100.2,116.2,104.4z"/>
<path fill="none" stroke="#221E20" stroke-width="0.75" stroke-linecap="round" stroke-miterlimit="10" d="M130.2,246.5"/>
<path fill="none" stroke="#FFFFFF" stroke-width="0.75" stroke-linecap="round" stroke-miterlimit="10" d="M135.9,238.4"/>
<polyline fill="#34110D" stroke="#FFFFFF" stroke-width="0.75" stroke-linecap="round" stroke-miterlimit="10" points="106.4,351.7 
	109.3,356 78.7,355.7 "/>
<path fill="#88715A" stroke="#FFFFFF" stroke-width="0.75" stroke-linecap="round" stroke-miterlimit="10" d="M81.8,157.3
	c11.4,1,21.7-6.8,22.4-15.1l12.1-3.7l1.7,8.9c-0.3,5.1,9.9,11.2,23.8,12.4"/>
<path fill="#88715A" stroke="#FFFFFF" stroke-width="0.75" stroke-linecap="round" stroke-miterlimit="10" d="M82.6,217.5
	c12.1-17.8,4.5-31.6-0.8-41.8l3.6-1l7.4,3.5l20.4,23.2l-4.4,13.9l-4,6.1l-12,6.9L82.6,217.5z"/>
<path fill="#88715A" stroke="#FFFFFF" stroke-width="0.75" stroke-linecap="round" stroke-miterlimit="10" d="M81.8,158.2
	c-3,15,8.7,28.3,10.6,29.8c12.6,10.2,12.5,33.2,14.8,37.5l2.3,6.1l1.7,6.8c9.3-4,29-53.6,30.5-78.7"/>
<polygon fill="#88715A" stroke="#FFFFFF" stroke-width="0.75" stroke-linecap="round" stroke-miterlimit="10" points="103.6,141.2 
	111.5,158.5 116,158.5 117,146.6 "/>
<path fill="#88715A" stroke="#FFFFFF" stroke-width="0.75" stroke-linecap="round" stroke-miterlimit="10" d="M116.9,147.3
	l-0.9,11.2c-1.1-0.1-5.3-6.5-4.8-12.4L116.9,147.3z"/>
<path fill="#88715A" stroke="#FFFFFF" stroke-width="0.75" stroke-linecap="round" stroke-miterlimit="10" d="M123.1,117.2
	c-0.7-4-18.4-6-18.3,6.9c0,2.1-7-1-7-1l0.4,4.4c0.2,4.4,0.6,7.9,4.4,12.7c4.4,5.5,12,7.6,17.8,6.9c5.1-0.6,5.6-3.9,4.4-5.4
	c-0.9-1.1-2.4-1.7-3.1-2.1l1.3-0.9l-1.9-0.9l1.8-1.9l-0.8-1.1l4.3-0.3L123.1,117.2"/>
<path fill="#88715A" stroke="#FFFFFF" stroke-width="0.75" stroke-linecap="round" stroke-miterlimit="10" d="M118.8,122
	c0,0.1-2.1,2-4.9,2.3c-2.8,0.3-5.2-1.2-5.2-1.5c0-0.3,2.1-2,4.9-2.3C116.4,120.3,118.8,122,118.8,122z"/>
<path fill="none" stroke="#FFFFFF" stroke-width="0.75" stroke-linecap="round" stroke-miterlimit="10" d="M120.8,132
	c0.3,0.2,0.8,0.2,1-0.2c0.3-0.4,0.2-1-0.2-1.3c-0.5-0.4-1.2-0.3-1.6,0.3c-0.5,0.6-0.3,1.6,0.3,2c0.8,0.6,1.9,0.3,2.6-0.4
	c0.6-0.6,0.4-1.8,0.4-1.8l-1.8-11.2"/>
<path fill="none" stroke="#FFFFFF" stroke-width="0.75" stroke-linecap="round" stroke-linejoin="round" stroke-miterlimit="10" d="
	M104.8,137.1L104.8,137.1c-5.4,1.2-7.6-6.9-5.6-9.5l0,0c1.4-2.1,3.8-2.1,5.3-0.8c1.2,1,1.2,3.2,0.2,4.5c-0.9,1-2.3,1.1-3.3,0.3
	c-0.8-0.7-0.9-1.9-0.2-2.7c0.5-0.6,1.5-0.7,2.1-0.2c0.5,0.5,0.6,1.2,0.2,1.7"/>
<path fill="#88715A" stroke="#FFFFFF" stroke-width="0.75" stroke-linecap="round" stroke-miterlimit="10" d="M120.3,192.1
	c16.1-2.3,20-16,21.5-32.5l-60-2.3c-1.5,16.7,4,32.1,30.7,34.6c0.6,0.1,4.4-8.3,4.4-8.3L120.3,192.1z"/>
<line fill="none" stroke="#FFFFFF" stroke-width="0.75" stroke-linecap="round" stroke-miterlimit="10" x1="117.5" y1="172.1" x2="116.9" y2="183.6"/>
<path fill="none" stroke="#FFFFFF" stroke-width="0.75" stroke-linecap="round" stroke-miterlimit="10" d="M117.5,172.3"/>
<path fill="none" stroke="#FFFFFF" stroke-width="0.75" stroke-linecap="round" stroke-miterlimit="10" d="M117.5,172.3"/>
<path fill="none" stroke="#FFFFFF" stroke-width="0.75" stroke-linecap="round" stroke-miterlimit="10" d="M117,193.5
	c2.6,10.6-0.4,22.9-4.2,33.3"/>
<line fill="none" stroke="#FFFFFF" stroke-width="0.75" stroke-linecap="round" stroke-miterlimit="10" x1="121.1" y1="137.9" x2="119.3" y2="138.4"/>
<circle fill="#88715A" stroke="#FFFFFF" stroke-width="0.75" stroke-linecap="round" stroke-miterlimit="10" cx="113.7" cy="122.4" r="1.2"/>
<path fill="none" stroke="#221E20" stroke-width="0.75" stroke-linecap="round" stroke-miterlimit="10" d="M132.2,156.8"/>
<path fill="none" stroke="#FFFFFF" stroke-width="0.75" stroke-linecap="round" stroke-miterlimit="10" d="M111.1,216.9
	c-1.7,8.5-2.8,13.1-7.7,19.7"/>
<path fill="none" stroke="#FFFFFF" stroke-width="0.75" stroke-linecap="round" stroke-miterlimit="10" d="M123.2,219.8"/>
<path fill="none" stroke="#FFFFFF" stroke-width="0.75" stroke-linecap="round" stroke-miterlimit="10" d="M117.5,172.3
	c-0.4-1.2-1-2.5-1.9-3.6c-2.9-3.5-8.1-3.9-11.5-1c-2.8,2.3-3.1,6.5-0.8,9.2c1.9,2.2,5.2,2.5,7.4,0.6c1.8-1.5,2-4.1,0.5-5.9
	c-1.2-1.4-3.3-1.6-4.7-0.4"/>
<path fill="none" stroke="#FFFFFF" stroke-width="0.75" stroke-linecap="round" stroke-miterlimit="10" d="M117.6,172.3
	c0.4-1.2,1-2.5,1.9-3.6c2.9-3.5,8.1-3.9,11.5-1c2.8,2.3,3.1,6.5,0.8,9.2c-1.9,2.2-5.2,2.5-7.4,0.6c-1.8-1.5-2-4.1-0.5-5.9
	c1.2-1.4,3.3-1.6,4.7-0.4"/>
<g>
	<path fill="#88715A" stroke="#FFFFFF" stroke-width="0.75" stroke-linecap="round" stroke-miterlimit="10" d="M42.7,154.1
		c11.9-1.3,25.5-2.8,35.3-0.2c10.2,2.8,19,11.8,16.3,20l-0.2,0.6c-10.4,22.5-46.7,5.5-57.9-16.7c-0.9-1.8,3.6,1.1,3.7-0.2
		C40.7,151.8,44.9,149.1,42.7,154.1z"/>
	<path fill="none" stroke="#FFFFFF" stroke-width="0.75" stroke-linecap="round" stroke-miterlimit="10" d="M45.7,160.7
		c21.7-5.3,41.4,1.2,42.8,7.2c0.7,3-0.6,6-3.4,7c-2.3,0.8-4.8-0.5-5.6-2.7c-0.6-1.8,0.3-3.9,2.2-4.5c1.5-0.5,3.3,0,3.9,1.5"/>
	
		<path fill="none" stroke="#FFFFFF" stroke-width="0.75" stroke-linecap="round" stroke-linejoin="round" stroke-miterlimit="10" d="
		M42.5,151.6c10.3,3.1,25.5-1.1,35.5,2.3c12.5,4.3,19.9,13,15.4,21.9l0,0c-9.2,19.1-43.8,6.5-57.2-18.1c-1.1-2.1,7.1-7.9,4.9-5.7
		C40,153.1,40.9,153.9,42.5,151.6z"/>
</g>
<path fill="none" stroke="#FFFFFF" stroke-width="0.75" stroke-linecap="round" stroke-miterlimit="10" d="M128.7,190.6"/>
<path fill="none" stroke="#FFFFFF" stroke-width="0.75" stroke-linecap="round" stroke-miterlimit="10" d="M128.7,190.6"/>
<path fill="none" stroke="#221E20" stroke-width="0.75" stroke-linecap="round" stroke-miterlimit="10" d="M109.5,184.5"/>
<path fill="none" d="M95.2,130.6"/>
<path fill="none" d="M101.2,137.7"/>
<path fill="#34110D" stroke="#FFFFFF" stroke-width="0.5" stroke-miterlimit="10" d="M125.5,172"/>
<path fill="none" stroke="#FFFFFF" stroke-width="0.75" stroke-linecap="round" stroke-miterlimit="10" d="M93.2,112.1
	c-0.3,4.1,2.8,7.7,6.9,8.1c3.3,0.2,6.2-2.3,6.4-5.6c0.2-2.7-1.8-4.9-4.4-5.2c-2.1-0.2-4,1.4-4.1,3.6c-0.1,1.7,1.1,3.2,2.8,3.3
	c1.4,0.1,2.6-0.9,2.6-2.3c0.1-1.1-0.7-2-1.8-2.1c-0.9-0.1-1.6,0.6-1.7,1.5c-0.1,0.7,0.5,1.3,1.2,1.4c0.6,0.1,1-0.4,1.1-0.9"/>
<path fill="none" stroke="#FFFFFF" stroke-width="0.75" stroke-linecap="round" stroke-miterlimit="10" d="M116.3,104.5
	c-1.4-1.8-3.9-2-5.7-0.7c-1.4,1.1-1.6,3.1-0.5,4.5c0.9,1.1,2.5,1.3,3.6,0.4c0.9-0.7,1-2,0.3-2.9c-0.6-0.7-1.6-0.9-2.3-0.3
	c-0.6,0.5-0.7,1.3-0.2,1.9c0.3,0.5,1,0.5,1.5,0.2c0.3-0.3,0.5-0.8,0.1-1.2c-0.2-0.3-0.7-0.3-1-0.1c-0.2,0.2-0.3,0.5-0.1,0.7"/>
<path fill="none" stroke="#FFFFFF" stroke-width="0.75" stroke-linecap="round" stroke-miterlimit="10" d="M91.1,133
	c2.2,0.3,4.2-1.3,4.5-3.5c0.2-1.8-1.1-3.3-2.8-3.6c-1.4-0.2-2.7,0.9-2.8,2.3c-0.1,1.1,0.7,2.2,1.8,2.3c0.9,0.1,1.7-0.6,1.8-1.4
	c0.1-0.7-0.5-1.4-1.1-1.5c-0.6-0.1-1.1,0.3-1.2,0.9c-0.1,0.5,0.3,0.9,0.7,0.9c0.4,0.1,0.7-0.2,0.7-0.6c0.1-0.3-0.2-0.6-0.5-0.6"/>
<path fill="#88715A" stroke="#FFFFFF" stroke-width="0.75" stroke-linecap="round" stroke-miterlimit="10" d="M115.9,352.8
	c-0.4-0.2-4.3,0.7-4.8,0.6c-2-0.7-18.1-7.7-23.3-9.2l0.7-26.6l-6.1,2.6c0.3,14.6,0.2,23.8,0.2,24.9c-4.3,1-4,6.4-4.1,10.7l30.6,0.3
	l6.3,0.1C117.3,355.4,117.7,353.5,115.9,352.8z"/>
<path fill="#88715A" stroke="#FFFFFF" stroke-width="0.75" stroke-linecap="round" stroke-miterlimit="10" d="M97.4,299
	c-4.3,24.5-7.7,37.9-9.5,45.2c-3-20.2-18.3-58.5,0.4-57.8L97.4,299z"/>
<path fill="#88715A" stroke="#FFFFFF" stroke-width="0.75" stroke-linecap="round" stroke-miterlimit="10" d="M88.9,288.5
	c-8.6-13.9-15.8-39-7.2-43.5c-6.1-2.8-7.5-8.2-6.6-15.8c0.9-7.6,6.5-14,12.4-14.8l17.2,4.7c3.3,7.3,7.6,24.1,2.3,45.7
	c-3.6,14.9-5.3,20.2-6.8,25.1L96.6,302L88.9,288.5"/>
<g>
	<g>
		<path fill="#88715A" stroke="#FFFFFF" stroke-width="0.75" stroke-linecap="round" stroke-miterlimit="10" d="M39.5,163
			c31.4-9.1,2-30.3,6.2-49.2c0.7-1.1,4.4-8.5,4-13.7l-0.2-0.8c1.4-1.9,0.6-2.7-0.2-2.8c-2.7,2.2-2.4,6.8-2.4,6.8l-0.9-1.2
			c0.5-1.4,1.1-4.1,0.1-6.4c1-2,0.3-3.1-0.5-3.9c-0.6,1.1-1,2.2-1.3,3.3c-0.1-0.1-0.1-0.2-0.1-0.3c1.1-2.3,0.3-3.5-0.5-4.4
			c-0.6,1.1-1,2.2-1.3,3.2c-0.1-0.8-0.5-1.4-0.9-1.8c-0.9,1.6-1.4,3.2-1.6,4.8c-0.1-0.1-0.1-0.1-0.1-0.2c0.9-1.8,0.2-2.8-0.5-3.5
			c-1,0.9-2.2,8.8-1.6,10.3l2.5,11.1c-1.2,7.5-2.5,25.8-4.2,42.9L39.5,163z"/>
		<g>
			<path fill="#34110D" stroke="#FFFFFF" stroke-width="0.75" stroke-miterlimit="10" d="M37,101.2"/>
			<path fill="#34110D" stroke="#FFFFFF" stroke-width="0.75" stroke-miterlimit="10" d="M38.9,98.2"/>
			<path fill="#34110D" stroke="#FFFFFF" stroke-width="0.75" stroke-miterlimit="10" d="M39.2,92.9"/>
			<line fill="none" stroke="#FFFFFF" stroke-width="0.75" stroke-miterlimit="10" x1="39.8" y1="96.4" x2="39.8" y2="96.4"/>
			<path fill="#88715A" stroke="#FFFFFF" stroke-width="0.75" stroke-linecap="round" stroke-miterlimit="10" d="M39.4,103
				c0.3,0-0.9-5.6,2-11.1l0,0c0.7,0.8,1.4,1.9,0.5,3.9l0,0c1.8,3.6-0.6,7.2-0.5,7.2"/>
			<path fill="#88715A" stroke="#FFFFFF" stroke-width="0.75" stroke-linecap="round" stroke-miterlimit="10" d="M41.4,102.9
				c0.3,0-1-6.3,2.3-12.5l0,0c0.8,0.9,1.6,2.1,0.5,4.4l0,0c1.9,4-0.6,8-0.6,8"/>
			<path fill="#88715A" stroke="#FFFFFF" stroke-width="0.75" stroke-linecap="round" stroke-miterlimit="10" d="M43.6,102.9
				c0.3,0-0.9-5.6,2-11.1l0,0c0.7,0.8,1.4,1.9,0.5,3.9l0,0c1,2.2,0.3,5.1-0.2,6.4"/>
		</g>
		
			<line fill="none" stroke="#FFFFFF" stroke-width="0.75" stroke-linecap="round" stroke-miterlimit="10" x1="38.2" y1="132.7" x2="45.8" y2="113.8"/>
	</g>
	<path fill="none" stroke="#FFFFFF" stroke-width="0.75" stroke-linecap="round" stroke-miterlimit="10" d="M36.1,156.9
		c0.9,2.4,3.6,3.6,6,2.7c1.9-0.7,2.9-2.9,2.2-4.8c-0.6-1.5-2.3-2.3-3.9-1.8c-1.2,0.5-1.9,1.9-1.4,3.1c0.4,1,1.5,1.5,2.4,1.1
		c0.8-0.3,1.2-1.2,0.9-2"/>
</g>
<path fill="none" stroke="#FFFFFF" stroke-width="0.75" stroke-linecap="round" stroke-miterlimit="10" d="M83.4,255.5
	c-1.2,18.1,6.4,28.8,10.6,29.7c2.1,0.4,4.2-0.5,4.8-2.6c0.5-1.6-0.4-3.3-2-3.9c-1.3-0.4-2.7,0.3-3.1,1.6c-0.3,1,0.3,2.2,1.3,2.5"/>
<line fill="none" stroke="#88715A" stroke-width="3" stroke-linecap="round" stroke-miterlimit="10" x1="84.1" y1="91" x2="47.8" y2="98.5"/>
<path fill="#7B2A10" stroke="#FFFFFF" stroke-width="0.75" stroke-linecap="round" stroke-linejoin="round" stroke-miterlimit="10" d="
	M131.5,90.1"/>
<path fill="#88715A" stroke="#FFFFFF" stroke-width="0.75" stroke-linecap="round" stroke-miterlimit="10" d="M88.3,92.9
	c0.2-1.6,0.3-3.8-1-5.6c-1.6-2.3-4-2.2-6.2-4c-1.6-1.3-5.1-5.1-5.3-10.4c-0.7,1.7-2.4,6.2-1.3,12c1,5.2,3.7,8.6,4.9,10L88.3,92.9z"
	/>
<path fill="#88715A" stroke="#FFFFFF" stroke-width="0.75" stroke-linecap="round" stroke-miterlimit="10" d="M85.6,93.5
	c-0.6-0.9-1.2-2.3-0.9-3.7c0.3-1.9,1.9-2.4,2.7-4.1c0.6-1.2,1.8-4.5,0.5-7.8c0.9,0.9,3.1,3.2,4,7c0.8,3.4,0.1,6.2-0.3,7.4L85.6,93.5
	z"/>
<path fill="#88715A" stroke="#FFFFFF" stroke-width="0.75" stroke-linecap="round" stroke-miterlimit="10" d="M81.8,72.7
	c-0.3-0.1-1.5,2.3-1,4.5c0.2,0.6,0.5,2.3,1.8,2.7c1,0.3,2.4-0.4,2.6-1.2c0.3-1.3-3.6-0.5-3.1-5.2C82.2,73.1,82,72.8,81.8,72.7z"/>
<path fill="#88715A" stroke="#FFFFFF" stroke-width="0.75" stroke-linecap="round" stroke-miterlimit="10" d="M85.2,66.3
	c0.2-0.1,0.9,1.4,0.6,2.7c-0.1,0.4-0.3,1.4-1.1,1.6c-0.6,0.2-1.4-0.2-1.5-0.7c-0.2-0.8,2.2-0.3,1.9-3.1
	C85.1,66.6,85.2,66.4,85.2,66.3z"/>
<path fill="#88715A" stroke="#FFFFFF" stroke-width="0.75" stroke-linecap="round" stroke-miterlimit="10" d="M85.9,213.9l38.1,4.7
	c-3.2,34.6-49.1,48.3-49.1,48.3S64.6,219.8,85.9,213.9z"/>
<path fill="none" stroke="#FFFFFF" stroke-width="0.75" stroke-linecap="round" stroke-miterlimit="10" d="M115.7,217.6
	c0,12.6-15.8,29.9-29.3,29.9"/>
</svg>
