<?xml version="1.0" encoding="utf-8"?>
<!-- Generator: Adobe Illustrator 18.1.1, SVG Export Plug-In . SVG Version: 6.00 Build 0)  -->
<svg version="1.1" id="Warstwa_1" xmlns="http://www.w3.org/2000/svg" xmlns:xlink="http://www.w3.org/1999/xlink" x="0px" y="0px"
	 viewBox="0 398.1 1634.1 681.9" enable-background="new 0 398.1 1634.1 681.9" xml:space="preserve">
<g>
	
		<path fill="#5A534A" stroke="#FFFFFF" stroke-width="0.2513" stroke-linecap="round" stroke-linejoin="round" stroke-miterlimit="10" d="
		M584.6,639.8c3.9-12.1,4.5-20.2-9.6-31.8l39.8-22.3c-3,15,4.8,29.3,17.7,35.9c2.7,1.4,5.2,2.5,10.7,1.1L584.6,639.8"/>
	
		<path fill="#5A534A" stroke="#FFFFFF" stroke-width="0.2513" stroke-linecap="round" stroke-linejoin="round" stroke-miterlimit="10" d="
		M595.3,532.8c0,0-23-0.2-33.2,5.5c-18.7,11.4-13.9,45.5-13.9,45.5h9.1v3.6l-2.3,3l3,1.6l-1.4,2.3l3.6,1.4c0,0-6.1,14.3,0,17.7
		c8.4,4.8,36.2-11.1,39.1-13.4c0,0,14.8-9.6,15.9-15.9C616,577.4,595.3,532.8,595.3,532.8"/>
	<path fill="#9B9690" stroke="#FFFFFF" stroke-width="0.2513" stroke-linecap="round" stroke-miterlimit="10" d="M561,537.2
		c-7.5-15.2,6.6-20.7,11.4-20.2c-0.2,2.3,2.3,4.1,5.5,3.9l5.7-4.5c4.1-2.5,9.6-2.5,14.1-0.2c5.2,2.5,6.4,8.2,6.4,8.2
		c0.9,0,3.6,0.9,5-4.8c8.9-0.2,14.6,3,16.4,5.7c5.2-1.1,11.8-2.7,17.3-1.6c-0.2,4.3,3.2,8.4,2.5,12.7c-0.5,3.4-2.5,6.8-5.2,8.9
		c-0.7,6.1,1.8,12.7,6.8,16.6c0.5,0.2,0.7,0.7,0.9,1.1c0,0.2,0,0.7-0.2,0.9c-0.9,2.3-2.5,4.5-4.8,5.7c-0.9,0.5-1.6,0.7-2.5,0.7
		c0.9,2.5,5.5,6.1,5.5,6.1c1.8,1.8,4.3,3.2,6.8,3.9c0,0-1.1,10.7-11.6,9.8c-1.4,0.9-2,2.7-1.6,4.3c0.2,1.6,1.1,5.5,6.1,5.5
		c3,6.6-0.5,16.6-12.3,14.3c-7.3-1.4-10-8.4-11.6-14.3c-0.5,0-0.9,0.2-1.1,0.5c-2.3,1.1-3.4,4.3-2.3,6.6c-2-0.2-3.6-2-4.3-3.9
		c-0.7-1.8-0.7-4.1-0.7-5.9s0.2-4.1,0-6.1c-0.2-1.4-0.2-3.4-0.2-3.4c-9.8-2.7-8.9-11.4-8-14.8l-9.1-10.2c-4.5-2.7-7.1-2.5-10.2-3.2
		c-3.2-0.5-6.6-0.2-10-1.1c-4.3-1.1-8-3.9-12.1-5.7c-4.1-1.8-9.1-2.5-12.7,0.2c-0.9-4.8,2.7-10,7.5-11.1"/>
	<g>
		<path fill="#5A534A" stroke="#FFFFFF" stroke-width="0.2513" stroke-linecap="round" stroke-miterlimit="10" d="M414,744.9
			c-0.7,0.5-8-12.5-23.2-18.2l0,0c0,2.7,0.5,6.1,5.9,8.4l0,0c3,10,13.4,13,13.4,13.2"/>
		<path fill="#5A534A" stroke="#FFFFFF" stroke-width="0.2513" stroke-linecap="round" stroke-miterlimit="10" d="M412.2,743
			c-0.5,0.5-9.1-11.8-24.6-16.4l0,0c0.2,2.7,0.9,6.1,6.6,8l0,0c2.3,5.9,8.9,9.8,12.3,11.4"/>
		<path fill="#DBC6AB" stroke="#FFFFFF" stroke-width="0.1675" stroke-linecap="round" stroke-miterlimit="10" d="M394.9,746"/>
		<path fill="#DBC6AB" stroke="#FFFFFF" stroke-width="0.1675" stroke-linecap="round" stroke-miterlimit="10" d="M389.5,751.2"/>
		<path fill="#DBC6AB" stroke="#FFFFFF" stroke-width="0.1675" stroke-linecap="round" stroke-miterlimit="10" d="M378.5,754.2"/>
		
			<line fill="none" stroke="#FFFFFF" stroke-width="0.1675" stroke-linecap="round" stroke-miterlimit="10" x1="386" y1="753.7" x2="386" y2="753.7"/>
		<path fill="#5A534A" stroke="#FFFFFF" stroke-width="0.2513" stroke-linecap="round" stroke-miterlimit="10" d="M414.5,744.2
			c-0.7,0.7-11.1-12.3-28.9-16.2l0,0c0.5,3.2,1.6,6.8,8,8.2l0,0c5,10.7,17.1,12.1,17.1,12.1"/>
		<path fill="#5A534A" stroke="#FFFFFF" stroke-width="0.2513" stroke-linecap="round" stroke-miterlimit="10" d="M574.9,650.7
			l-0.9-0.9c-21.8-15-53,27.1-79.2,73.5l-68.2,22.5c-4.5,1.1-11.6-0.5-15.2-3.2c-8.2-6.1-15.7-10.5-25.9-10.9c0,0,2.5,5.2,7.7,5.7
			c1.8,3.2,9.1,8.9,12.3,9.6c0,0-3.4,0.5-5-0.5c-1.4-0.9-7.5-5-11.1-5c-3.6,3.6,6.8,6.8,13,13c4.1,4.3,10.2,7.3,15.9,6.1
			c2.3-0.5,3.9-1.1,5.7-1.8h0.2c-0.2,0,55.5-6.4,55.5-6.4c15.7-0.9,24.6-4.8,28.9-10.7c20.7-9.1,45-21.2,56.6-37.8
			C578,685.7,588.1,663,574.9,650.7z"/>
	</g>
	<path fill="#5A534A" stroke="#FFFFFF" stroke-width="0.2513" stroke-linecap="round" stroke-miterlimit="10" d="M579.4,718
		c0.2,0.2,12.7,30.3,5.7,60.5h43.7L611.3,718H579.4z"/>
	<path fill="#5A534A" stroke="#FFFFFF" stroke-width="0.2513" stroke-linecap="round" stroke-miterlimit="10" d="M682.5,675.7
		c0,0-4.3,85.3,14.8,103.1h-59.4l-2-71L682.5,675.7z"/>
	
		<path fill="none" stroke="#FFFFFF" stroke-width="0.335" stroke-linecap="round" stroke-linejoin="round" stroke-miterlimit="10" d="
		M557.6,581.5c-1.1,0-1.8-0.9-1.6-2c0-1.4,1.1-2.3,2.5-2c1.6,0.2,2.7,1.6,2.7,3.2c-0.2,2-2,3.4-3.9,3.4"/>
	
		<path fill="none" stroke="#FFFFFF" stroke-width="0.287" stroke-linecap="round" stroke-linejoin="round" stroke-miterlimit="10" d="
		M565.8,567.2c2.7-0.7,4.5-3.6,3.9-6.4l-10.2,2.7C560.1,566.3,563,567.9,565.8,567.2z"/>
	
		<path fill="none" stroke="#FFFFFF" stroke-width="0.2513" stroke-linecap="round" stroke-linejoin="round" stroke-miterlimit="10" d="
		M601.7,560.6c-1.8,10.5,12.5,8.2,16.2,12.3c2.7,3.2,2.5,8-0.7,10.9c-2.5,2.3-6.4,2-8.6-0.7c-1.8-2-1.6-5.2,0.5-7.1
		c1.6-1.4,4.1-1.4,5.5,0.5c1.1,1.4,0.9,3.2-0.2,4.5"/>
	
		<path fill="none" stroke="#FFFFFF" stroke-width="0.2513" stroke-linecap="round" stroke-linejoin="round" stroke-miterlimit="10" d="
		M617.6,563.1c-0.2,12.3,15.7,7.3,20.2,11.1c3.6,3.2,4.1,8.6,0.9,12.5c-2.5,3-7.1,3.4-10,0.7c-2.3-2-2.7-5.7-0.7-8
		c1.6-1.8,4.5-2,6.4-0.5c1.6,1.4,1.6,3.6,0.5,5"/>
	
		<path fill="none" stroke="#FFFFFF" stroke-width="0.2513" stroke-linecap="round" stroke-linejoin="round" stroke-miterlimit="10" d="
		M622.2,575.1c8,17.3-1.1,17.7,2.7,29.6c1.6,4.5,6.8,7.5,11.4,5.7c3.6-1.6,5.2-5.7,3.9-9.1c-1.1-3-4.5-4.3-7.3-3
		c-2.3,0.9-3.4,3.6-2.5,5.9c0.7,1.8,3,2.7,4.8,2"/>
	
		<path fill="none" stroke="#FFFFFF" stroke-width="0.2513" stroke-linecap="round" stroke-linejoin="round" stroke-miterlimit="10" d="
		M610.1,560.6c9.8,0.9,15.5-9.6,20.2-10.2c4.8-0.5,9.1,3,9.6,8c0.5,3.9-2.5,7.3-6.4,7.7c-3.2,0.2-5.9-2-6.1-5
		c-0.2-2.5,1.6-4.8,4.1-5c2-0.2,3.6,1.4,3.9,3.2"/>
	
		<path fill="none" stroke="#FFFFFF" stroke-width="0.2513" stroke-linecap="round" stroke-linejoin="round" stroke-miterlimit="10" d="
		M565.3,541c5.5,0.7,10.5-3.2,11.4-8.6c0.7-4.3-2.5-8.4-6.8-9.1c-3.4-0.5-6.8,2-7.3,5.5c-0.5,2.7,1.6,5.5,4.3,5.7
		c2.3,0.2,4.3-1.4,4.5-3.6"/>
	
		<path fill="none" stroke="#FFFFFF" stroke-width="0.2513" stroke-linecap="round" stroke-linejoin="round" stroke-miterlimit="10" d="
		M564.6,540.6c7.5,2.5,10.5-3.9,16.2-6.1c4.5-1.8,9.6,0.2,11.4,4.8c1.4,3.6-0.2,7.7-3.9,9.1c-3,1.1-6.1-0.2-7.3-3.2
		c-0.9-2.3,0.2-5,2.5-5.9c1.8-0.7,3.9,0.2,4.8,2"/>
	
		<path fill="none" stroke="#FFFFFF" stroke-width="0.2513" stroke-linecap="round" stroke-linejoin="round" stroke-miterlimit="10" d="
		M588.5,550.6c3.9-0.2,8.4,1.1,10.2,1.8c3.4,1.1,7.3,0.5,10.2-1.8c3.9-3,4.5-8.6,1.4-12.3c-2.5-3-6.8-3.6-10-1.1c-2.5,2-3,5.5-0.9,8
		c1.6,2,4.3,2.3,6.4,0.7"/>
	
		<path fill="none" stroke="#FFFFFF" stroke-width="0.2513" stroke-linecap="round" stroke-linejoin="round" stroke-miterlimit="10" d="
		M618.8,543.1c5.5-2.5,8-9.1,5.2-14.6c-2-4.3-7.3-6.4-11.8-4.3c-3.4,1.6-5,5.9-3.4,9.3c1.4,2.7,4.8,4.1,7.5,2.7
		c2.3-1.1,3.2-3.6,2-5.9"/>
	
		<path fill="none" stroke="#FFFFFF" stroke-width="0.2513" stroke-linecap="round" stroke-linejoin="round" stroke-miterlimit="10" d="
		M614.7,548.8c2.7-11.8,16.8-3.2,22.3-5.9c4.3-2,6.1-7.5,4.1-11.8c-1.8-3.4-5.9-5-9.3-3.2c-2.7,1.4-3.9,4.8-2.5,7.5
		c1.1,2.3,3.9,3.2,6.1,2c1.8-0.9,2.5-3,1.6-4.8"/>
	
		<path fill="none" stroke="#FFFFFF" stroke-width="0.2513" stroke-linecap="round" stroke-linejoin="round" stroke-miterlimit="10" d="
		M580.8,530.1c-0.7-5.7,3.2-10.9,8.9-11.6c4.5-0.7,8.6,2.5,9.3,7.1c0.5,3.6-2,6.8-5.7,7.5c-3,0.5-5.5-1.6-5.9-4.5
		c-0.2-2.3,1.4-4.3,3.6-4.8"/>
	<path fill="#9B9690" stroke="#FFFFFF" stroke-width="0.2513" stroke-linecap="round" stroke-miterlimit="10" d="M592.8,564.7
		c-0.9,3-5,11.8-5.2,12.1c-3.2,5.5-11.8,8.4-17.5,9.3c-6.4,0.9-8.2-0.9-10.7-1.4c-0.7,0-1.1,0-1.4,0.2c-0.9,0.5-0.7,1.8-0.7,1.8
		c2.5,0,5.9,0.5,6.1,4.5c0.2,2.7-1.1,3.4-3.4,4.3c0,0-3.2,9.8-5.9,18.2c-2.7,0-5,2.5-5.7,4.5c-0.9,2.5,0,5.5,2,7.3
		c3.9,3.9,18.9,7.3,25.5-7.3c6.4,0.5,24.6-3.2,25.7-21.8C602.6,585.4,597.8,571.7,592.8,564.7z"/>
	
		<path fill="none" stroke="#FFFFFF" stroke-width="0.2513" stroke-linecap="round" stroke-linejoin="round" stroke-miterlimit="10" d="
		M576.2,618.1c-4.1-0.7-7.1-4.5-6.6-8.6c0.2-3.6,3.4-6.1,7.1-5.9c3,0.2,5,2.7,4.8,5.7c-0.2,2.3-2.3,3.9-4.5,3.9
		c-1.8-0.2-3.2-1.8-3-3.6"/>
	
		<path fill="none" stroke="#FFFFFF" stroke-width="0.2513" stroke-linecap="round" stroke-linejoin="round" stroke-miterlimit="10" d="
		M550.7,625.4c-0.9-0.9-1.8-2-2.3-3.6c-0.9-3.4,0.9-7.1,4.3-8c2.7-0.9,5.7,0.7,6.4,3.4c0.7,2.3-0.7,4.5-2.7,5.2
		c-1.8,0.5-3.6-0.5-4.1-2.3"/>
	
		<path fill="none" stroke="#FFFFFF" stroke-width="0.2513" stroke-linecap="round" stroke-linejoin="round" stroke-miterlimit="10" d="
		M587.6,576.7c0,0-6.4,8.4-4.1,15c0.5,1.4,1.4,2.5,2.7,3.2c2,0.9,4.1-0.2,5-2c0.7-1.6-0.2-3.4-1.8-3.9c-1.1-0.5-2.7,0-3.2,1.4"/>
	<path fill="#5A534A" stroke="#FFFFFF" stroke-width="0.2513" stroke-linecap="round" stroke-miterlimit="10" d="M667.9,615.4
		c18.9,35.5,18.9,49.4,14.6,60.3c-10.2,25.5-37.1,102.1-37.1,102.1l-5.7,14.8c-7.7-6.8-90.1-88.7-80.5-145.4"/>
	
		<path fill="#5A534A" stroke="#FFFFFF" stroke-width="0.2513" stroke-linecap="round" stroke-linejoin="round" stroke-miterlimit="10" d="
		M604,706.2c-34.1,1.8-48-24.1-44.8-58.9l108.5-31.8c9.8,33.9,0.9,70.5-47.8,87.4c-1.1,0.5-12.5-15.5-12.5-15.5L604,706.2z"/>
	<path fill="none" stroke="#19181C" stroke-width="0.2513" stroke-linecap="round" stroke-miterlimit="10" d="M686.8,725.3"/>
	
		<line fill="none" stroke="#FFFFFF" stroke-width="0.2513" stroke-linecap="round" stroke-miterlimit="10" x1="601.5" y1="664.1" x2="607.4" y2="687.3"/>
	<path fill="#DBC6AB" stroke="#19181C" stroke-width="0.2513" stroke-linecap="round" stroke-miterlimit="10" d="M566.9,643.6"/>
	<path fill="#5A534A" stroke="#FFFFFF" stroke-width="0.2513" stroke-miterlimit="10" d="M765.3,602.9l-102.4,12.3
		c-9.6,5-14.8,11.8-13.9,20.9l0.5,1.1c4.1,17.5,29.8,23.4,51.2,17.5c32.5-8.9,46.6-19.3,65.5-33.9c-0.2-3.2-0.9-4.8,0.5-8
		C767.8,610.6,766,605.9,765.3,602.9z"/>
	
		<path fill="none" stroke="#FFFFFF" stroke-width="0.2513" stroke-linecap="round" stroke-linejoin="round" stroke-miterlimit="10" d="
		M558.9,650.9c0,0-14.1,53.9-50.3,90.8"/>
	<path fill="none" stroke="#FFFFFF" stroke-width="0.2513" stroke-miterlimit="10" d="M662.9,615.4c0,0,70.3,13.2,96.9,8.4"/>
	
		<path fill="none" stroke="#FFFFFF" stroke-width="0.2513" stroke-linecap="round" stroke-linejoin="round" stroke-miterlimit="10" d="
		M601.5,664.3c-5.7-9.8-27.5-6.1-33,1.6l4.5,14.8"/>
	
		<path fill="none" stroke="#FFFFFF" stroke-width="0.2513" stroke-linecap="round" stroke-linejoin="round" stroke-miterlimit="10" d="
		M601.7,664.3c-0.2-11.4,29.1-24.3,38-20.7l4.1,15"/>
	
		<path fill="none" stroke="#FFFFFF" stroke-width="0.335" stroke-linecap="round" stroke-linejoin="round" stroke-miterlimit="10" d="
		M595.3,532.8"/>
	<path fill="none" stroke="#FFFFFF" stroke-width="0.2513" stroke-linecap="round" stroke-miterlimit="10" d="M620.6,599.7
		c-1.6-5.7-2.5-10.9-6.1-11.4"/>
	
		<path fill="none" stroke="#F15A29" stroke-width="0.335" stroke-linecap="round" stroke-linejoin="round" stroke-miterlimit="10" d="
		M562.1,538.3"/>
	<path fill="#F9AC1A" stroke="#FFFFFF" stroke-width="0.2513" stroke-miterlimit="10" d="M620.1,557.4c-18.4,5.2-47.8,1.1-64.2-16.4
		c1.6-2,5-4.1,5-4.1c13.6,15.2,46.2,22.1,63.9,16.4L620.1,557.4z"/>
	<path fill="none" stroke="#FFFFFF" stroke-width="0.2513" stroke-linecap="round" stroke-miterlimit="10" d="M603.5,524
		c0,0,0.5,2.5-1.1,4.8"/>
	<path fill="none" stroke="#FFFFFF" stroke-width="0.2513" stroke-linecap="round" stroke-miterlimit="10" d="M639.7,570.1
		c-1.6,0-3.4-0.2-4.5-1.4"/>
	<g>
		<path fill="#5A534A" stroke="#FFFFFF" stroke-width="0.2513" stroke-miterlimit="10" d="M742.1,610.6l-7.5-62.8
			c-0.2-2.5-2.3-5.2-4.5-6.1c-3.2-1.4-4.5-2.7-8.4-8c-3.6-4.8,3.6-15,3.6-15s18.9-9.1,18.7-5.7l1.6,23.7c0,0,16.4,36.4,23.2,58.7
			c2.7,8.6,7.1,25.7-8.6,28.4C752.5,625,744.8,622,742.1,610.6z"/>
		<polygon fill="#F9AC1A" stroke="#FFFFFF" stroke-width="0.2513" stroke-miterlimit="10" points="793,478.9 810.8,503.7 
			710.4,534.4 725.5,545.6 628.5,584.7 691.6,543.8 677.7,538.5 		"/>
		<path fill="#DBC6AB" stroke="#FFFFFF" stroke-width="0.1675" stroke-miterlimit="10" d="M700.9,517.8"/>
		<path fill="#DBC6AB" stroke="#FFFFFF" stroke-width="0.1675" stroke-miterlimit="10" d="M706.6,523.1"/>
		<path fill="#DBC6AB" stroke="#FFFFFF" stroke-width="0.1675" stroke-miterlimit="10" d="M727.5,526.5"/>
		<line fill="none" stroke="#FFFFFF" stroke-width="0.1675" stroke-miterlimit="10" x1="707.3" y1="526" x2="707.3" y2="526"/>
		<path fill="#5A534A" stroke="#FFFFFF" stroke-width="0.2513" stroke-miterlimit="10" d="M717,518.3c1.6,4.1,4.1,8.9,8.2,13.2l0,0
			c0.9-2,1.8-4.8-1.4-8.2l0,0c0.5-3.2-0.2-5.9-1.1-8.2C723,515.3,717.7,513.3,717,518.3z"/>
		<path fill="#5A534A" stroke="#FFFFFF" stroke-width="0.2513" stroke-miterlimit="10" d="M721.6,515.8c1.6,4.5,4.5,10.7,9.6,15.9
			l0,0c1.1-2.3,2-5.2-1.6-9.1l0,0c0.7-3.9-0.5-7.3-1.6-10C728,512.6,722,509.9,721.6,515.8z"/>
		<path fill="#5A534A" stroke="#FFFFFF" stroke-width="0.2513" stroke-miterlimit="10" d="M732.3,510.1c1.6,3.2,1.8,5.5,1.4,8.2l0,0
			c3.2,3.4,2.5,6.1,1.4,8.2l0,0c-4.3-4.3-6.8-9.3-8.2-13.2C726.8,513,727.3,508.5,732.3,510.1z"/>
		<path fill="#5A534A" stroke="#FFFFFF" stroke-width="0.2513" stroke-miterlimit="10" d="M731.4,510.8c1.4,3.6,3.9,8,7.5,11.6l0,0
			c0.9-2,1.8-4.8-1.4-8.2l0,0c0.2-2,0-4.3-0.7-6.4C737.1,507.8,732.1,506.7,731.4,510.8z"/>
		<path fill="#5A534A" stroke="#FFFFFF" stroke-width="0.2513" stroke-miterlimit="10" d="M728.4,534.7c5.2-1.4,3.4-6.4,3.4-6.4
			s8.9-3.9,10.2-11.1c-1.1-1.4-3.4-2-5.5,2.5h-1.8c-4.8,2-9.6,6.6-13.4,10.9c-0.2,0.5-0.7,0.7-0.9,1.1"/>
		
			<path fill="none" stroke="#FFFFFF" stroke-width="0.2513" stroke-linecap="round" stroke-linejoin="round" stroke-miterlimit="10" d="
			M763,622.9c-8.2,1.6-11.8-8.6-11.1-11.8c1.4-2.3,8.4-3,8.4-3l1.6,5.9"/>
	</g>
	<g>
		
			<rect x="551.9" y="831.1" fill="#9B9690" stroke="#FFFFFF" stroke-width="0.2513" stroke-linecap="round" stroke-miterlimit="10" width="182.7" height="248"/>
		
			<rect x="541.4" y="778.7" fill="#9B9690" stroke="#FFFFFF" stroke-width="0.2513" stroke-linecap="round" stroke-miterlimit="10" width="204.5" height="52.3"/>
	</g>
</g>
<g>
	<path fill="#5A534A" stroke="#FFFFFF" stroke-width="0.2513" stroke-linecap="round" stroke-miterlimit="10" d="M231.4,631.6
		c0,0-25.5,2.3-33.2-6.6s0.7,7.3,0.7,7.3L231.4,631.6z"/>
	<g>
		<path fill="#5A534A" stroke="#FFFFFF" stroke-width="0.2513" stroke-miterlimit="10" d="M319.8,673.9l-88.3-42.1
			c0,0-18.9,1.8-23,10l-0.5,1.1c-6.1,17.1,12.3,35.7,33.4,42.5c29.1,9.3,46.4,9.3,67.1,7.7C310.7,693,319.8,673.9,319.8,673.9z"/>
		<path fill="#5A534A" stroke="#FFFFFF" stroke-width="0.2513" stroke-miterlimit="10" d="M231.6,631.6c0,0,51.9,49.4,76.7,59.6"/>
	</g>
	<path fill="#5A534A" stroke="#FFFFFF" stroke-width="0.2513" stroke-linecap="round" stroke-miterlimit="10" d="M191.1,599.9
		c3,2,28,14.1,36.4,9.6c5-2.7,4.8-8.4,3.4-12.3c-1.4-2.5,0.9-2,1.4-2.7c0.7-1.4,0.5-3.2-0.7-4.3c1.1-0.5,1.8-2,1.1-3.9
		c-0.5-1.8,0.5-2.5,0.5-2.5l0,0c1.6,0,6.8,0,6.8,0s0-13.2-4.3-25.9c-2.7-8.2-5.2-16.4-12.5-20.7c-32.8-14.8-57.6,14.6-57.6,14.6
		l9.3,33.2c0,0,0.2,0.5,0.2,1.1c3.2,18-1.4,43.5-55.3,48l80.3-1.6c-3.2-8.6-5.7-15.2,5.5-25.7"/>
	<path fill="#9B9690" stroke="#FFFFFF" stroke-width="0.2513" stroke-linecap="round" stroke-miterlimit="10" d="M154.2,559.2
		c0.5,1.4,0.5,2.7,0,4.3s-1.4,3.2-1.6,5c-0.2,1.8,0.5,3.6,1.8,4.8c0.9,0.9,6.1,2.7,4.3,6.4c-0.9,1.6-2,1.8-3.2,1.1
		c-0.2,2,0.7,4.1,2.3,5.2c1.1,0.9,3,2.3,2,3.6c-0.2,0.5-0.5,0.7-0.9,0.9c-1.4,1.1-1.8,3.4-1.1,5c0.7,1.6,2.7,3,4.5,2.7
		c-1.4,0.7-1.4,2.7-1.4,4.3c-0.2,1.6-2,3.4-3,2.3c-0.9,1.4,0.2,3.4,1.8,3.9s3.2,0,5-0.2c0.5,0,0,2.7-3.6,2.7c-0.2,1.4,1.4,2.5,2.7,3
		c3.2,0.9,6.8,0.5,9.6-1.4c5-3,9.1-14.6,3.2-21.2c6.4-1.6,8.9-8.4,8.6-10.7c-6.6-3-7.5-11.1-6.8-13c0.9-2.5,7.1-5,12.5-5.2
		c0.9,5.7,6.4,4.8,8.2,6.4c0.9,0.7,1.1,2,0.7,3s-1.6,1.6-2.7,1.6c1.4,1.4,3.6,1.4,5.2,0.2c1.6-1.1,1.8-3.6,0.7-5
		c-1.4-1.4-3.6-1.6-5-2.7c-1.8-1.6-1.8-4.1-1.4-6.4c0-0.2,0.2-0.7,0.5-0.9c0.5,0,0.7-0.2,1.1-0.2c2.3-0.2,4.3-2,5.2-4.3
		c0.9-2.3-2-0.2-2.5-2.5c-0.2-1.1-0.5-2.5,0.2-3.2c0.7-0.5,1.4-0.5,2.3-0.5c4.3,0.2,9.3-0.9,10.9-4.8c0.5-0.9,0.5-2,1.1-3
		c1.1-2,3.6-2.7,5.9-3.4c3-0.7,4.3,1.1,9.1,5.9c2-1.8,2-7.7,0.2-9.8c-0.5-0.5-1.1-0.9-1.4-1.6c-0.5-1.4,0.5-2.7,0.5-4.3
		c-0.2-3-4.8-4.3-4.3-7.3c0.2-0.9,0.7-1.6,1.1-2.3c0.7-1.4,0.7-3.2,0-4.5c-0.9,0.2-2-0.5-2.3-1.6c1.6,0.9,3.6-1.4,3-3.2
		c-0.7-1.8-2.5-2.7-4.3-3.2c-0.7-0.2-1.6-0.2-2.3-0.9c-0.9-0.7-1.1-1.8-1.6-2.7s-1.4-2-2.5-1.8c-0.2,1.4-2,2.3-3.4,1.8
		c-1.4-0.2-2.7-1.1-3.9-1.8c-2.3-1.1-5.2-1.4-7.3,0c-1.6,0.9-2.7,2.7-4.5,3.2c-1.1,0.2-2-0.2-3.2,0.2c-2.5,1.1-0.9,5.7-3.4,7.1
		c-0.9,0.5-2,0.5-3.2,0.5c-1.1,0.2-2.3,1.1-1.8,2c-7.5,1.1-14.1,5-20.5,9.1c-4.5,3-9.1,6.1-12.3,10.7c-3.2,4.3-5,10.2-3.6,15.5
		C150.8,552.2,153.3,555.8,154.2,559.2z"/>
	<path fill="none" stroke="#FFFFFF" stroke-width="0.2513" stroke-linecap="round" stroke-miterlimit="10" d="M197.9,592.7
		c-5.9-5.7-11.8,3.6-6.8,7.3"/>
	
		<path fill="none" stroke="#FFFFFF" stroke-width="0.2513" stroke-linecap="round" stroke-linejoin="round" stroke-miterlimit="10" d="
		M233.2,583.8c-2,0.2-3.9-1.4-3.9-3.4c-0.2-1.6,1.1-3,2.7-3.2c1.4,0,2.5,0.9,2.5,2c0,1.1-0.7,2-1.6,2"/>
	
		<path fill="none" stroke="#FFFFFF" stroke-width="0.2513" stroke-linecap="round" stroke-linejoin="round" stroke-miterlimit="10" d="
		M226.8,567c-2.5,1.4-5.7,0.5-7.3-2.3l9.3-5C230.4,562.4,229.3,565.6,226.8,567z"/>
	<path fill="#2E0005" stroke="#FFFFFF" stroke-width="0.1675" stroke-miterlimit="10" d="M220,678.9"/>
	<path fill="#2E0005" stroke="#FFFFFF" stroke-width="0.1675" stroke-miterlimit="10" d="M226.6,683"/>
	<line fill="none" stroke="#FFFFFF" stroke-width="0.1675" stroke-miterlimit="10" x1="229.5" y1="682.7" x2="229.5" y2="682.7"/>
	<path fill="none" stroke="#19181C" stroke-width="0.2513" stroke-linecap="round" stroke-miterlimit="10" d="M220.2,642.3"/>
	<g>
		<path fill="#5A534A" stroke="#FFFFFF" stroke-width="0.2513" stroke-linecap="round" stroke-miterlimit="10" d="M233.4,705.3
			c0,0.2-17.3,46.6-1.4,73.5l-26.8,4.1l-2-68L233.4,705.3z"/>
		<path fill="#5A534A" stroke="#FFFFFF" stroke-width="0.2513" stroke-linecap="round" stroke-miterlimit="10" d="M122.4,695.7
			c0,0,20.7,61.6,13,83h60.3l-19.3-66.2L122.4,695.7z"/>
		<g>
			<path fill="#5A534A" stroke="#FFFFFF" stroke-width="0.2513" stroke-linecap="round" stroke-miterlimit="10" d="M118.1,633.8
				c-7.5,39.6-3.2,52.5,4.3,61.9c17.3,21.2,66,86.4,66,86.4s71.7-101,42.8-150.4"/>
			<path fill="#5A534A" stroke="#FFFFFF" stroke-width="0.2513" stroke-linecap="round" stroke-miterlimit="10" d="M206.3,701.4
				c33-8.6,40.5-38.7,25.3-69.8l-113.5,2.3c0.9,35.5,20.2,67.3,71.9,68.9c1.1,0,7.3-18.4,7.3-18.4L206.3,701.4z"/>
			
				<line fill="none" stroke="#FFFFFF" stroke-width="0.2513" stroke-linecap="round" stroke-miterlimit="10" x1="196.1" y1="660.5" x2="197.5" y2="684.3"/>
			<path fill="none" stroke="#FFFFFF" stroke-width="0.2513" stroke-linecap="round" stroke-miterlimit="10" d="M196.1,660.7
				c2.5-11.1,24.3-14.1,32.1-8.4l0.2,15.5"/>
			<path fill="none" stroke="#FFFFFF" stroke-width="0.2513" stroke-linecap="round" stroke-miterlimit="10" d="M196.1,660.7
				c-3.2-10.9-35-14.6-42.5-8.2l0.7,15.5"/>
		</g>
	</g>
	
		<path fill="none" stroke="#FFFFFF" stroke-width="0.2513" stroke-linecap="round" stroke-linejoin="round" stroke-miterlimit="10" d="
		M231.8,590.4c-0.5-0.7-1.4-0.7-2-0.7c-2,0.2-3.9,1.1-5.9,0.9c-0.2,0-0.5,0-0.5-0.2"/>
	<path fill="none" stroke="#FFFFFF" stroke-width="0.2513" stroke-linecap="round" stroke-miterlimit="10" d="M192,580.4
		c-8.2,1.6-11.8-8.6-11.1-11.8c1.4-2.3,8.4-3,8.4-3l1.6,5.9"/>
	<path fill="none" stroke="#FFFFFF" stroke-width="0.2513" stroke-linecap="round" stroke-miterlimit="10" d="M208.2,548.1
		c-5.2,1.1-8.4-0.5-10.5-3.9c-2-3.4-0.9-7.7,2.5-9.8c2.7-1.6,6.1-0.7,7.7,2c1.4,2,0.5,5-1.6,6.1c-1.8,0.9-3.9,0.5-5-1.4
		c-0.9-1.4-0.5-3.2,1.1-3.9"/>
	<path fill="none" stroke="#FFFFFF" stroke-width="0.2513" stroke-linecap="round" stroke-miterlimit="10" d="M206.6,499.6
		c1.6,0.2,3,0.9,4.1,2c2,2.3,2,5.7-0.2,8c-1.8,1.6-4.5,1.6-6.4-0.2c-1.4-1.4-1.4-3.6,0.2-5c1.1-1.1,3-1.1,4.1,0
		c0.9,0.9,0.9,2.3,0,3.2"/>
	<path fill="none" stroke="#FFFFFF" stroke-width="0.2513" stroke-linecap="round" stroke-miterlimit="10" d="M168.8,522.6
		c-19.6,11.8-17.5,21.2-13.4,24.3c2.5,1.8,5.9,2,8-0.2c1.8-1.8,1.6-4.8-0.2-6.4c-1.4-1.4-3.6-1.4-5,0.2c-1.1,1.1-1.1,3,0,4.1"/>
	<path fill="none" stroke="#FFFFFF" stroke-width="0.2513" stroke-linecap="round" stroke-miterlimit="10" d="M179.7,590.6
		c-3.9,2.3-6.6,1.8-9.1-0.2c-2.5-2-2.7-5.7-0.7-8c1.6-1.8,4.5-2.3,6.4-0.7c1.6,1.4,1.8,3.6,0.5,5c-1.1,1.1-3,1.4-4.1,0.5"/>
	<path fill="none" stroke="#FFFFFF" stroke-width="0.2513" stroke-linecap="round" stroke-miterlimit="10" d="M152,547.8
		c4.5,7.1,6.6,12.3,4.1,16.8c-1.6,2.7-0.7,6.1,1.6,7.3c1.8,0.9,4.1,0.2,5.2-1.6c0.7-1.6,0.2-3.4-1.4-4.1c-1.1-0.7-2.7-0.2-3.2,1.1"
		/>
	<path fill="none" stroke="#FFFFFF" stroke-width="0.2513" stroke-linecap="round" stroke-miterlimit="10" d="M175.8,594.5
		c3.4,6.8,0.2,20.5-7.3,16.8c-1.6-0.9-2.5-2.7-1.6-4.5c0.7-1.4,2.3-1.8,3.6-1.4c1.1,0.5,1.6,1.8,1.1,3"/>
	<path fill="#2E0005" stroke="#FFFFFF" stroke-width="0.1675" stroke-miterlimit="10" d="M235.9,701.9"/>
	<path fill="#5A534A" stroke="#FFFFFF" stroke-width="0.2513" stroke-miterlimit="10" d="M235.5,708.7c0,0-5.5-14.3-12.3-16.8
		c-1.6,0.9-2.7,3,1.4,5.9v1.8c1.1,5.2,6.8,9.6,12.5,12.3"/>
	<g>
		<polygon fill="#F9AC1A" stroke="#FFFFFF" stroke-width="0.2513" stroke-miterlimit="10" points="167.9,758.3 179.9,655.2 215,658 
			203.1,760.1 		"/>
		<line fill="none" stroke="#FFFFFF" stroke-width="0.2513" stroke-miterlimit="10" x1="182" y1="654.5" x2="170.2" y2="756.5"/>
		<line fill="none" stroke="#FFFFFF" stroke-width="0.2513" stroke-miterlimit="10" x1="189.5" y1="655.2" x2="177.7" y2="757.4"/>
		<line fill="none" stroke="#FFFFFF" stroke-width="0.2513" stroke-miterlimit="10" x1="197.2" y1="656.1" x2="185.4" y2="758.3"/>
		<line fill="none" stroke="#FFFFFF" stroke-width="0.2513" stroke-miterlimit="10" x1="204.7" y1="657" x2="192.9" y2="759.2"/>
		<line fill="none" stroke="#FFFFFF" stroke-width="0.2513" stroke-miterlimit="10" x1="212.2" y1="658" x2="200.4" y2="760.1"/>
		
			<rect x="171.3" y="654.8" transform="matrix(-0.9934 -0.115 0.115 -0.9934 319.2448 1330.9495)" fill="#F9AC1A" stroke="#FFFFFF" stroke-width="0.2513" stroke-miterlimit="10" width="53.5" height="3"/>
		<path fill="#F9AC1A" stroke="#FFFFFF" stroke-width="0.2513" stroke-miterlimit="10" d="M247.3,649.3c-4.8-3.2-23-3.6-25.7,10.2
			l7.5,57.3c0.9,3.2,0.9,26.6-20.9,35.5c-10.2,4.1-17.5,3.4-21.8,3c-4.1-0.5-11.4-1.6-20.5-8C146.5,733.7,152,711,153.6,708
			l20.2-54.1c0.5-14.3-17.3-17.7-22.7-15.9c-3.4,3-3.2,15-3.2,15l15,1.8l-18.2,52.8c-1.1,2.3-10.2,31.6,5,49.8
			c7.7,9.3,13.9,17.1,33.9,20l0,0l0,0c20,1.8,28-4.3,37.5-11.6c18.9-14.1,16.8-44.8,16.2-47.3l-5.7-55.7l15,1.8
			C246.8,664.5,250,652.9,247.3,649.3z"/>
		<path fill="#F9AC1A" stroke="#FFFFFF" stroke-width="0.2513" stroke-miterlimit="10" d="M167.9,651.6c0.2-8.4-10.2-10.5-13.2-9.3
			c-2,1.8-1.8,8.9-1.8,8.9l6.1,0.7"/>
		<path fill="#F9AC1A" stroke="#FFFFFF" stroke-width="0.2513" stroke-miterlimit="10" d="M227.7,658.4c1.6-8.2,12.3-8,15-6.1
			c1.6,2-0.2,9.1-0.2,9.1l-6.1-0.7"/>
	</g>
	<g>
		<path fill="#5A534A" stroke="#FFFFFF" stroke-width="0.2513" stroke-miterlimit="10" d="M305.5,672.3l-68,25.7
			c-1.6,0.7,2.3-0.7-3.4-1.1c-2.5-0.2,2,15.9,2,15.9l4.1-0.9c0,0,42.1-4.1,64.8-9.1c8.9-1.8,25.7-6.4,20.5-21.6
			C323,674.6,316.7,669.1,305.5,672.3z"/>
		<path fill="none" stroke="#FFFFFF" stroke-width="0.2513" stroke-linecap="round" stroke-miterlimit="10" d="M326.2,684.6
			c-2.7-8-13.2-6.1-15.7-3.9c-1.4,2.3,1.6,8.9,1.6,8.9l5.9-1.6"/>
	</g>
	<g>
		<path fill="#5A534A" stroke="#FFFFFF" stroke-width="0.2513" stroke-miterlimit="10" d="M235,693.9c-4.3,0.5-9.6,1.8-14.8,5l0,0
			c1.8,1.4,4.1,2.7,8.2,0.5l0,0c3,1.1,5.7,1.1,8.2,0.9C236.4,700.3,239.5,695.5,235,693.9z"/>
		<path fill="#5A534A" stroke="#FFFFFF" stroke-width="0.2513" stroke-miterlimit="10" d="M236.1,698.9c-5,0.5-11.4,1.8-17.7,5.7
			l0,0c2,1.6,4.5,3.2,9.3,0.7l0,0c3.6,1.6,7.3,1.4,10,0.7C238,706,241.8,700.5,236.1,698.9z"/>
		<path fill="#5A534A" stroke="#FFFFFF" stroke-width="0.2513" stroke-miterlimit="10" d="M239.1,710.5c-3.4,0.9-5.7,0.5-8.2-0.5
			l0,0c-4.1,2.3-6.6,0.9-8.2-0.5l0,0c5.2-3.2,10.7-4.3,14.8-5C237.5,704.6,242,706,239.1,710.5z"/>
		<path fill="#5A534A" stroke="#FFFFFF" stroke-width="0.2513" stroke-miterlimit="10" d="M238.9,709.6c-3.9,0.5-8.6,2-13.2,4.8l0,0
			c1.8,1.4,4.1,2.7,8.2,0.5l0,0c2,0.9,4.1,0.5,6.8-1.1C240.7,713.7,241.6,711,238.9,709.6z"/>
	</g>
	<g>
		
			<path fill="#5A534A" stroke="#FFFFFF" stroke-width="0.2513" stroke-linecap="round" stroke-linejoin="round" stroke-miterlimit="10" d="
			M64.6,738l32.1-94c6.8-8.2,14.6-12.1,23.4-9.3l1.1,0.7c16.4,7.7,16.8,33.9,6.6,53.7c-15.2,30-28.7,41.6-46.6,57.1
			c-3.2-0.9-4.5-1.8-8-1.1C70.5,745.5,64.6,738,64.6,738z"/>
		
			<path fill="none" stroke="#FFFFFF" stroke-width="0.2513" stroke-linecap="round" stroke-linejoin="round" stroke-miterlimit="10" d="
			M96.7,644.1c0,0-1.8,71.7-11.8,96.5"/>
	</g>
	
		<line fill="none" stroke="#FFFFFF" stroke-width="0.1675" stroke-linecap="round" stroke-linejoin="round" stroke-miterlimit="10" x1="66" y1="742.4" x2="66" y2="742.4"/>
	
		<path fill="#5A534A" stroke="#FFFFFF" stroke-width="0.2513" stroke-linecap="round" stroke-linejoin="round" stroke-miterlimit="10" d="
		M64.6,738c-0.2,1.6-0.7,4.1-0.5,5.9c1.6,15.9,18.7,13,27.5,11.1c19.6-4.3,50-14.8,58.2-17.7l20.2,0.9c3,0.5,17.3-4.3,18.4-6.4
		c-1.6-0.9-3.6-2-6.6,0.2c-0.2,0-0.2,0-0.5,0c2.7-1.1,5.5-2.5,8.2-4.5c-0.9-0.7-2.3-1.1-3.6-1.1c1.8-0.9,3.6-2,5.5-3.4
		c-1.8-1.1-4.5-2.3-8.2,0.5c-0.2,0-0.5,0-0.7-0.2c1.8-0.9,3.9-2,5.7-3.4c-1.8-1.1-3.9-2-7.3,0.5c-4.3-1.1-9.3,0.9-11.6,2.3l-2.5-1.4
		c0,0,8.6-0.9,11.8-6.6c-0.7-1.4-2.3-2.7-5.5,0.5l-1.6-0.2c-9.8,0.9-22.1,10.2-23.9,11.8l-57.6,0.7"/>
	<g>
		
			<path fill="#DBC6AB" stroke="#FFFFFF" stroke-width="0.1675" stroke-linecap="round" stroke-linejoin="round" stroke-miterlimit="10" d="
			M174,738.7"/>
		
			<path fill="#DBC6AB" stroke="#FFFFFF" stroke-width="0.1675" stroke-linecap="round" stroke-linejoin="round" stroke-miterlimit="10" d="
			M179,734.2"/>
		
			<path fill="#DBC6AB" stroke="#FFFFFF" stroke-width="0.1675" stroke-linecap="round" stroke-linejoin="round" stroke-miterlimit="10" d="
			M188.6,731.9"/>
		
			<line fill="none" stroke="#FFFFFF" stroke-width="0.1675" stroke-linecap="round" stroke-linejoin="round" stroke-miterlimit="10" x1="182" y1="732.1" x2="182" y2="732.1"/>
		<path fill="#5A534A" stroke="#FFFFFF" stroke-width="0.2513" stroke-miterlimit="10" d="M169.9,734.8c0-0.5,10.7-0.2,19.8-7.5l0,0
			c-1.8-1.1-3.9-2-7.3,0.5l0,0c-7.3-2-13,3.4-13,3.4"/>
		<path fill="#5A534A" stroke="#FFFFFF" stroke-width="0.2513" stroke-miterlimit="10" d="M169.5,731.2c0-0.7,11.8-0.5,22.3-8.4l0,0
			c-1.8-1.1-4.5-2.3-8.2,0.5l0,0c-8.2-2.3-14.6,3.9-14.6,3.6"/>
		<path fill="#5A534A" stroke="#FFFFFF" stroke-width="0.2513" stroke-miterlimit="10" d="M168.8,727.1c0-0.5,10.7-0.2,19.8-7.5l0,0
			c-1.8-1.1-3.9-2-7.3,0.5l0,0c-4.3-1.1-9.6,1.1-11.8,2.3"/>
	</g>
	<path fill="#2E0005" stroke="#FFFFFF" stroke-width="0.2513" stroke-linecap="round" stroke-miterlimit="10" d="M95.5,658.6"/>
	<g>
		<path fill="#F9AC1A" stroke="#FFFFFF" stroke-width="0.2513" stroke-miterlimit="10" d="M190.9,546.9c-0.7,2.7-1.8,3.9-3,3.4
			c-1.1-0.2-1.8-1.8-1.1-4.5s3.4-5.2,3.4-5.2S191.5,544.2,190.9,546.9z"/>
		<path fill="#F9AC1A" stroke="#FFFFFF" stroke-width="0.2513" stroke-miterlimit="10" d="M191.5,551.5c-2.7,0.9-4.3,0.2-4.5-0.9
			c-0.5-1.1,0.7-2.5,3.4-3.2c2.7-0.9,6.1,0.2,6.1,0.2S194.3,550.8,191.5,551.5z"/>
		<path fill="#F9AC1A" stroke="#FFFFFF" stroke-width="0.2513" stroke-miterlimit="10" d="M188.4,548.8c-0.7,2.7-1.8,3.9-3,3.4
			c-1.1-0.2-1.8-1.8-1.1-4.5c0.7-2.7,3.4-5.2,3.4-5.2S189,546,188.4,548.8z"/>
		<path fill="#F9AC1A" stroke="#FFFFFF" stroke-width="0.2513" stroke-miterlimit="10" d="M189,553.3c-2.7,0.9-4.3,0.2-4.5-0.9
			c-0.5-1.1,0.7-2.5,3.4-3.2c2.7-0.9,6.1,0.2,6.1,0.2S191.8,552.4,189,553.3z"/>
		<path fill="#F9AC1A" stroke="#FFFFFF" stroke-width="0.2513" stroke-miterlimit="10" d="M185.6,551.7c-0.7,2.7-1.8,3.9-3,3.4
			c-1.1-0.2-1.8-1.8-1.1-4.5c0.7-2.7,3.4-5.2,3.4-5.2S186.3,549,185.6,551.7z"/>
		<path fill="#F9AC1A" stroke="#FFFFFF" stroke-width="0.2513" stroke-miterlimit="10" d="M186.3,556c-2.7,0.9-4.3,0.2-4.5-0.9
			c-0.5-1.1,0.7-2.5,3.4-3.2c2.7-0.9,6.1,0.2,6.1,0.2S189,555.4,186.3,556z"/>
		<path fill="#F9AC1A" stroke="#FFFFFF" stroke-width="0.2513" stroke-miterlimit="10" d="M183.1,553.3c-0.7,2.7-1.8,3.9-3,3.4
			c-1.1-0.2-1.8-1.8-1.1-4.5c0.7-2.7,3.4-5.2,3.4-5.2S183.8,550.8,183.1,553.3z"/>
		<path fill="#F9AC1A" stroke="#FFFFFF" stroke-width="0.2513" stroke-miterlimit="10" d="M183.8,557.9c-2.7,0.9-4.3,0.2-4.5-0.9
			c-0.5-1.1,0.7-2.5,3.4-3.2c2.7-0.9,6.1,0.2,6.1,0.2S186.5,557.2,183.8,557.9z"/>
		<path fill="#F9AC1A" stroke="#FFFFFF" stroke-width="0.2513" stroke-miterlimit="10" d="M180.4,555.8c-0.7,2.7-1.8,3.9-3,3.4
			c-1.1-0.2-1.8-1.8-1.1-4.5c0.7-2.7,3.4-5.2,3.4-5.2S181.1,553.1,180.4,555.8z"/>
		<path fill="#F9AC1A" stroke="#FFFFFF" stroke-width="0.2513" stroke-miterlimit="10" d="M181.1,560.4c-2.7,0.9-4.3,0.2-4.5-0.9
			c-0.5-1.1,0.7-2.5,3.4-3.2c2.7-0.9,6.1,0.2,6.1,0.2S183.6,559.5,181.1,560.4z"/>
		<path fill="#F9AC1A" stroke="#FFFFFF" stroke-width="0.2513" stroke-miterlimit="10" d="M177.9,557.6c-0.7,2.7-1.8,3.9-3,3.4
			c-1.1-0.2-1.8-1.8-1.1-4.5c0.7-2.7,3.4-5.2,3.4-5.2S178.6,554.9,177.9,557.6z"/>
		<path fill="#F9AC1A" stroke="#FFFFFF" stroke-width="0.2513" stroke-miterlimit="10" d="M178.6,562.2c-2.7,0.9-4.3,0.2-4.5-0.9
			c-0.5-1.1,0.7-2.5,3.4-3.2c2.7-0.9,6.1,0.2,6.1,0.2S181.1,561.3,178.6,562.2z"/>
		<path fill="#F9AC1A" stroke="#FFFFFF" stroke-width="0.2513" stroke-miterlimit="10" d="M175.2,560.4c-0.7,2.7-1.8,3.9-3,3.4
			c-1.1-0.2-1.8-1.8-1.1-4.5c0.7-2.7,3.4-5.2,3.4-5.2S175.8,557.6,175.2,560.4z"/>
		<path fill="#F9AC1A" stroke="#FFFFFF" stroke-width="0.2513" stroke-miterlimit="10" d="M175.8,564.9c-2.7,0.9-4.3,0.2-4.5-0.9
			c-0.5-1.1,0.7-2.5,3.4-3.2c2.7-0.9,6.1,0.2,6.1,0.2S178.4,564,175.8,564.9z"/>
		<path fill="#F9AC1A" stroke="#FFFFFF" stroke-width="0.2513" stroke-miterlimit="10" d="M172.7,562.2c-0.7,2.7-1.8,3.9-3,3.4
			c-1.1-0.2-1.8-1.8-1.1-4.5c0.7-2.7,3.4-5.2,3.4-5.2S173.1,559.5,172.7,562.2z"/>
		<path fill="#F9AC1A" stroke="#FFFFFF" stroke-width="0.2513" stroke-miterlimit="10" d="M173.3,566.7c-2.7,0.9-4.3,0.2-4.5-0.9
			c-0.5-1.1,0.7-2.5,3.4-3.2c2.7-0.9,6.1,0.2,6.1,0.2S175.8,565.8,173.3,566.7z"/>
	</g>
	
		<path fill="none" stroke="#FFFFFF" stroke-width="0.2513" stroke-linecap="round" stroke-linejoin="round" stroke-miterlimit="10" d="
		M93.3,727.3h-6.1c-9.1,1.4-13.2,6.1-14.1,11.6"/>
	<g>
		<g>
			<rect x="91.7" y="831.1" fill="#9B9690" width="182.7" height="248"/>
			<rect x="81.2" y="778.7" fill="#9B9690" width="204.5" height="52.3"/>
		</g>
		<g>
			
				<rect x="91.7" y="831.1" fill="#9B9690" stroke="#FFFFFF" stroke-width="0.2513" stroke-linecap="round" stroke-miterlimit="10" width="182.7" height="248"/>
			
				<rect x="81.2" y="778.7" fill="#9B9690" stroke="#FFFFFF" stroke-width="0.2513" stroke-linecap="round" stroke-miterlimit="10" width="204.5" height="52.3"/>
		</g>
		<g>
			
				<rect x="91.7" y="831.1" fill="none" stroke="#FFFFFF" stroke-width="0.2513" stroke-linecap="round" stroke-miterlimit="10" width="182.7" height="248"/>
			
				<rect x="81.2" y="778.7" fill="none" stroke="#FFFFFF" stroke-width="0.2513" stroke-linecap="round" stroke-miterlimit="10" width="204.5" height="52.3"/>
		</g>
	</g>
</g>
<g>
	<path fill="#5A534A" stroke="#FFFFFF" stroke-width="0.2513" stroke-linecap="round" stroke-miterlimit="10" d="M1431.6,607.9
		c14.1,11.6,10,30.5,4.5,46.6l54.8-20.9c-18-3.4-33.7-30-30.3-48c0,0,4.3-12.7,2.7-20.9c-2.5-13.6-16.6-46.6-55.7-26.4
		c-18.7,11.4-13.9,45.5-13.9,45.5h9.1v3.6l-2.3,3l3,1.6l-1.4,2.3l3.6,1.4c0,0-6.1,14.3,0,17.7c8.4,4.8,36.2-11.1,39.1-13.4"/>
	<g>
		<path fill="#5A534A" stroke="#FFFFFF" stroke-width="0.2513" stroke-miterlimit="10" d="M1339.5,737.3l40.5-94.2
			c7.3-8,15.2-11.1,23.9-8l1.1,0.7c15.9,8.6,15,34.8,3.6,53.9c-16.8,29.1-30.9,40-49.6,54.6c-3.2-0.9-4.5-2-8-1.6
			C1348.3,743.5,1339.5,737.3,1339.5,737.3z"/>
		<path fill="none" stroke="#FFFFFF" stroke-width="0.2513" stroke-miterlimit="10" d="M1379.9,643.4c0,0-23,70.5-17.1,95.8"/>
	</g>
	<path fill="#5A534A" stroke="#FFFFFF" stroke-width="0.2513" stroke-linecap="round" stroke-miterlimit="10" d="M1395.6,714.6
		c0.2,0.2,10,47.3,2.7,77.6h43.7l-17.5-60.5L1395.6,714.6z"/>
	<path fill="#5A534A" stroke="#FFFFFF" stroke-width="0.2513" stroke-linecap="round" stroke-miterlimit="10" d="M1503.7,683.4
		c0,0-17.5,73.5-3.6,108.7l-68.9,0.2l19.8-78.9L1503.7,683.4z"/>
	<path fill="#5A534A" stroke="#FFFFFF" stroke-width="0.2513" stroke-linecap="round" stroke-miterlimit="10" d="M1501,633.6
		c7.7,39.4,4.1,52.5-3,62.1c-12.3,16.6-46.6,66.4-62.1,88.9c-4.8,7.1-10.7,5.9-13.6,0.2c-14.6-29.3-48.5-107.8-28.4-151.1"/>
	<path fill="#5A534A" stroke="#FFFFFF" stroke-width="0.2513" stroke-linecap="round" stroke-miterlimit="10" d="M1420.4,702.8
		c-33.2-8-39.4-36.6-26.4-69.2h113.1c0,35.5-18.9,67.8-70.5,70.3c-1.1,0-7.7-18.2-7.7-18.2L1420.4,702.8z"/>
	
		<line fill="none" stroke="#FFFFFF" stroke-width="0.2513" stroke-linecap="round" stroke-linejoin="round" stroke-miterlimit="10" x1="1430" y1="661.6" x2="1429.1" y2="685.7"/>
	
		<path fill="#5A534A" stroke="#FFFFFF" stroke-width="0.2513" stroke-linecap="round" stroke-linejoin="round" stroke-miterlimit="10" d="
		M1578.1,721.6l-54.8-82.1c-8.6-6.4-17.1-8.4-24.8-3.6l-0.9,0.9c-14.1,11.4-8.4,36.9,6.1,53.9c21.8,25.7,33,37.8,53.9,48.5
		c3-1.6,8.6-6.6,12.1-6.8C1572.2,732.3,1575.8,723.5,1578.1,721.6z"/>
	<path fill="none" stroke="#FFFFFF" stroke-width="0.2513" stroke-linecap="round" stroke-miterlimit="10" d="M1430,661.8
		c-2.7-10.9-24.6-13.6-32.1-7.7l0.2,15.5"/>
	
		<path fill="none" stroke="#FFFFFF" stroke-width="0.2513" stroke-linecap="round" stroke-linejoin="round" stroke-miterlimit="10" d="
		M1430,661.8c3-10.9,34.8-15.2,42.3-9.1l-0.2,15.5"/>
	<path fill="#9B9690" stroke="#FFFFFF" stroke-width="0.2513" stroke-linecap="round" stroke-miterlimit="10" d="M1390.6,654.3
		c-0.5-3-0.9-5.9-0.9-8.9c-0.5-16.8,5.7-36.4,15.7-50c2.3-0.9,3.6-1.6,3.4-4.3c-0.5-4.1-3.6-4.5-6.1-4.5c0,0-0.2-1.4,0.7-1.8
		c0.2-0.2,0.7-0.2,1.4-0.2c2.3,0.2,4.3,2.3,10.7,1.4c5.7-0.9,14.3-3.9,17.5-9.3c0.2-0.2,4.5-9.1,5.2-12.1c5,7.1,9.3,20.7,9.1,31.4
		c0,12.7-1.6,30.3-5.5,42.3c-1.8,5.5-3.9,10.9-6.4,16.2c-1.8,4.3-3.6,8.4-6.1,12.3c-4.3,7.3-10.5,13.6-17.5,18.4
		c-5.7,3.9-13,6.6-19.6,4.5c6.6-5.5,4.1-13.2,2.3-20.2C1392.9,664.5,1391.3,659.5,1390.6,654.3z"/>
	<path fill="#9B9690" stroke="#FFFFFF" stroke-width="0.2513" stroke-linecap="round" stroke-miterlimit="10" d="M1434.8,561.7
		c1.1,0.7,2,1.6,3,2.7c14.3,22.5,10.5,67.1,42.1,68.2c4.1,0.2,10.2-0.2,14.6-2.3c3.4-1.6,6.1-5,5.2-8.6c-2,0.5-4.1,0.9-6.1,0.2
		c-2-0.7-3.6-2.7-3.2-4.5c3,2.3,8,1.6,10.2-1.4c1.8-2.3,1.6-5.5-1.6-6.8c0,5.2-8.4,5-6.8-0.9c3.4-0.7,9.6-6.6,3.6-10.5
		c0.2,2.7-2.3,4.1-5.2,3.2c-5-1.6-27.3-21.6-27.1-35.9c0.5-24.1-10.5-28.9-19.8-33c-9.6-4.1-20.7-4.8-30-0.5
		c-8.2,3.6-13.9,9.8-15.7,18.7C1408.8,556.7,1425.2,554.9,1434.8,561.7z"/>
	<path fill="#F9AC1A" stroke="#FFFFFF" stroke-width="0.2513" stroke-miterlimit="10" d="M1463.9,565.4c-16.4-0.5-45.3-10-63.5-22.1
		l3.6-5c15.7,10.7,31.2,17.1,59.6,20.7L1463.9,565.4z"/>
	<path fill="none" stroke="#FFFFFF" stroke-width="0.2513" stroke-linecap="round" stroke-miterlimit="10" d="M1402.9,583.8
		c2,0.2,3.9-1.4,3.9-3.4c0.2-1.6-1.1-3-2.7-3.2c-1.4,0-2.5,0.9-2.5,2c0,1.1,0.7,2,1.6,2"/>
	<path fill="none" stroke="#FFFFFF" stroke-width="0.2513" stroke-linecap="round" stroke-miterlimit="10" d="M1412,569.5
		c2.7-0.9,4.3-3.9,3.2-6.8l-10,3.4C1406.1,569,1409.3,570.4,1412,569.5z"/>
	
		<path fill="none" stroke="#FFFFFF" stroke-width="0.2513" stroke-linecap="round" stroke-linejoin="round" stroke-miterlimit="10" d="
		M1523,639.5c0,0,4.1,45.5,25.7,87.6"/>
	<path fill="none" stroke="#FFFFFF" stroke-width="0.2513" stroke-linecap="round" stroke-miterlimit="10" d="M1443.2,567.2
		c2.3,1.4,4.1,3.6,5.5,5.9c7.5,12.3,8,28.2,15.5,40.5c1.8,3,4.1,5.7,7.1,7.5s6.6,2.5,9.8,1.4c0.7-0.2,1.6-0.7,1.8-1.6"/>
	<path fill="none" stroke="#FFFFFF" stroke-width="0.2513" stroke-linecap="round" stroke-miterlimit="10" d="M1453.9,569.9
		c2.7,1.4,4.1,4.8,5,7.7c1.6,4.8,3.2,9.6,4.8,14.1c1.6,4.5,3.2,9.1,5.9,13c2.7,3.9,7.1,7.1,11.8,7.3c2.3,0.2,5-0.7,5.7-3"/>
	<path fill="none" stroke="#FFFFFF" stroke-width="0.2513" stroke-linecap="round" stroke-miterlimit="10" d="M1461.8,574.7
		c3.9,4.5,8.9,16.2,10.5,19.8c1.6,3.6,3.9,7.3,7.5,8.6c0.7,0.2,1.6,0.5,2.3,0.2c0.7-0.2,1.4-0.7,1.6-1.6"/>
	<path fill="none" stroke="#FFFFFF" stroke-width="0.2513" stroke-miterlimit="10" d="M1405.2,606.1c-6.1,10.5-8.4,23.2-6.1,35.3
		c1.4,6.8,3.9,13.2,4.8,20c0.9,6.8-0.5,14.6-5.7,18.9"/>
	<path fill="none" stroke="#FFFFFF" stroke-width="0.2513" stroke-miterlimit="10" d="M1417.7,598.8c-5.7,6.4-8.2,15.2-8.4,23.9
		c-0.5,8.6,0.9,17.1,1.6,25.7c0.5,6.8,0.5,13.9-1.1,20.5c-1.6,6.6-5.5,13-11.1,16.8"/>
	<path fill="none" stroke="#FFFFFF" stroke-width="0.2513" stroke-miterlimit="10" d="M1438.2,594c-9.1,12.1-10.7,28-12.1,43
		c-1.6,15-3.6,30.9-13.6,42.3c-1.8,2-9.6,7.1-12.3,7.7"/>
	<path fill="#5A534A" stroke="#FFFFFF" stroke-width="0.2513" stroke-miterlimit="10" d="M1362.7,726l72.8-13c0.5,0,5-2.5,6.6-1.6
		c4.3,3,8,12.3,8,12.3l-8.4,1.1c0,0-51.6,23.2-73.9,29.3c-8.9,2.5-25.9,6.1-28.2-9.6c-0.5-2.5-0.2-4.8,0.5-7.1"/>
	
		<path fill="#868079" stroke="#FFFFFF" stroke-width="0.2513" stroke-linecap="round" stroke-linejoin="round" stroke-miterlimit="10" d="
		M1497.3,761c-5,2-6.6-3-6.6-3s-9.6,2.3-15-2.7c0-1.8,1.4-3.6,5.9-1.4l1.6-0.7c5.2-1.4,11.6-0.7,17.3,0.5"/>
	<path fill="#868079" stroke="#FFFFFF" stroke-width="0.2513" stroke-miterlimit="10" d="M1442.5,716.9c4.3-3.4,0.7-7.3,0.7-7.3
		s6.6-7.1,5-14.3c-1.6-0.7-3.9-0.7-4.1,4.3l-1.4,1.1c-3.6,3.9-6.4,10-8.2,15.2"/>
	<g>
		
			<rect x="1404.5" y="516.2" transform="matrix(-0.7949 0.6068 -0.6068 -0.7949 2931.6611 331.6868)" fill="#F9AC1A" stroke="#FFFFFF" stroke-width="0.2513" stroke-miterlimit="10" width="10.5" height="290.3"/>
		<path fill="#F9AC1A" stroke="#FFFFFF" stroke-width="0.2513" stroke-miterlimit="10" d="M1321.9,525.1l-6.6,5l-33-35.7l25.7,41.4
			l-6.6,5c0,0-30.3-23.2-36.2-23.2c0,0,7.3,6.1,30.7,34.6c0,0,9.3,6.1,17.7-0.5c0.7-0.5,7.7-5.9,7.7-5.9h0.2h0.2
			c0,0,6.8-5.2,7.7-5.9c8.6-6.6,5-17.1,5-17.1c-21.4-30-25.3-38.7-25.3-38.7C1307.6,489.8,1321.9,525.1,1321.9,525.1z"/>
	</g>
	<path fill="#2E0005" stroke="#FFFFFF" stroke-width="0.1675" stroke-miterlimit="10" d="M1480.9,754.9"/>
	<g>
		<path fill="#868079" stroke="#FFFFFF" stroke-width="0.2513" stroke-miterlimit="10" d="M1436.6,707.3c3.2-3,7.5-6.4,13.2-8.4l0,0
			c0,2.3-0.5,5-4.8,6.8l0,0c-0.9,3-2.7,5.2-4.5,6.8C1440.5,712.5,1435,712.1,1436.6,707.3z"/>
		<path fill="#868079" stroke="#FFFFFF" stroke-width="0.2513" stroke-miterlimit="10" d="M1439.8,711.6c3.4-3.4,8.6-7.7,15.5-10.2
			l0,0c0,2.5-0.5,5.5-5.5,7.5l0,0c-1.1,3.9-3.4,6.4-5.9,8.2C1444.1,717.3,1437.5,716.9,1439.8,711.6z"/>
		<path fill="#868079" stroke="#FFFFFF" stroke-width="0.2513" stroke-miterlimit="10" d="M1446.8,721.2c2.7-2,3.9-4.1,4.8-6.8l0,0
			c4.3-1.8,4.8-4.5,4.8-6.8l0,0c-5.7,2-10,5.5-13.2,8.4C1443.2,716.2,1441.6,720.5,1446.8,721.2z"/>
		<path fill="#868079" stroke="#FFFFFF" stroke-width="0.2513" stroke-miterlimit="10" d="M1446.4,720.3c3-2.7,7.1-5.5,11.8-7.3l0,0
			c0,2.3-0.5,5-4.8,6.8l0,0c-0.7,2-2,3.6-5.2,4.5C1448.4,724.4,1445.7,723.2,1446.4,720.3z"/>
	</g>
	
		<path fill="none" stroke="#FFFFFF" stroke-width="0.2513" stroke-linecap="round" stroke-linejoin="round" stroke-miterlimit="10" d="
		M1347.4,736.4c1.4-4.5,5.5-8.6,13.2-10.2l10.2-1.4"/>
	<path fill="none" stroke="#FFFFFF" stroke-width="0.2513" stroke-miterlimit="10" d="M1413.6,538.3c0,0,5-6.8,21.2-5.9"/>
	<path fill="none" stroke="#FFFFFF" stroke-width="0.2513" stroke-miterlimit="10" d="M1445.2,536c0,0,9.3,3,10.5,15.9"/>
	<path fill="none" stroke="#FFFFFF" stroke-width="0.2513" stroke-miterlimit="10" d="M1440.2,535.3c0,0,8,5,8.2,18.9"/>
	<g>
		
			<path fill="#5A534A" stroke="#FFFFFF" stroke-width="0.2513" stroke-linecap="round" stroke-linejoin="round" stroke-miterlimit="10" d="
			M1560.8,718.9c0,0-7.5,0.7-51.6,32.8c-3.6,2.7-19.3,2-23.7,3.2c-3.4,0.9-7.7,5.2-7.7,5.2s11.6,19.6,14.3,17.3
			c2.3-2,3.9-4.1,8.6-4.5c5.5-0.5,14.6-8,14.6-8l53.9-19.6c11.1-4.8,15.2-12.5,11.1-19.8C1576.9,718.9,1573.3,715.5,1560.8,718.9z"
			/>
		
			<path fill="#868079" stroke="#FFFFFF" stroke-width="0.2513" stroke-linecap="round" stroke-linejoin="round" stroke-miterlimit="10" d="
			M1479.6,758.5c-3.6,3-4.5,4.3-5,5.5c1.1,3,3.4,4.5,3.4,4.5l4.1-3"/>
		
			<path fill="#868079" stroke="#FFFFFF" stroke-width="0.2513" stroke-linecap="round" stroke-linejoin="round" stroke-miterlimit="10" d="
			M1481.6,764c-3,2.5-3.6,4.8-3.6,5.9c1.6,2.3,4.1,3.2,4.1,3.2l4.1-4.5"/>
		
			<path fill="#868079" stroke="#FFFFFF" stroke-width="0.2513" stroke-linecap="round" stroke-linejoin="round" stroke-miterlimit="10" d="
			M1485.7,767.6c-3,2.5-3.4,4.8-3.6,6.1c1.6,2.3,4.3,3.4,4.3,3.4l4.1-3.6"/>
		
			<path fill="#868079" stroke="#FFFFFF" stroke-width="0.2513" stroke-linecap="round" stroke-linejoin="round" stroke-miterlimit="10" d="
			M1490.3,771.5c-2.7,2.7-3.6,5-4.3,6.1c1.4,2.5,3.2,2.3,3.2,2.3l4.5-3.9"/>
	</g>
	
		<path fill="none" stroke="#FFFFFF" stroke-width="0.2513" stroke-linecap="round" stroke-linejoin="round" stroke-miterlimit="10" d="
		M1579,723.2c3.2,7.7-6.1,13.2-9.3,13.2c-2.5-0.9-4.5-7.7-4.5-7.7l5.5-2.7"/>
	<g>
		
			<rect x="1355.8" y="831.1" fill="#9B9690" stroke="#FFFFFF" stroke-width="0.2513" stroke-linecap="round" stroke-miterlimit="10" width="182.7" height="248"/>
		
			<rect x="1345.4" y="778.7" fill="#9B9690" stroke="#FFFFFF" stroke-width="0.2513" stroke-linecap="round" stroke-miterlimit="10" width="204.5" height="52.3"/>
	</g>
</g>
<g>
	<path fill="#5A534A" stroke="#FFFFFF" stroke-width="0.2513" stroke-miterlimit="10" d="M1142.2,706.2l-62.6-80.8
		c-8.9-8.2-19.1,1.1-19.1,1.1c-10.2,10.7-4.3,31.2,11.4,46.9c23.7,23.7,36.2,35,56.4,45c2.3-1.4,5.7-6.6,8.6-6.6
		C1139.3,711.9,1140.6,708,1142.2,706.2z"/>
	<path fill="none" stroke="#FFFFFF" stroke-width="0.2513" stroke-miterlimit="10" d="M1071.9,635.7c0,0,28,16.2,52.1,66.7"/>
	<path fill="#5A534A" stroke="#FFFFFF" stroke-width="0.2513" stroke-linecap="round" stroke-miterlimit="10" d="M989.1,695.5
		c0,0,18.2,51.9,11.6,83.3h73.5l-30.5-69.2L989.1,695.5z"/>
	<path fill="#5A534A" stroke="#FFFFFF" stroke-width="0.2513" stroke-linecap="round" stroke-miterlimit="10" d="M1045.5,627.7
		l25.9-5.5c18.4,23.4,18.4,45.5,15,72.1l0,0c-2,22.3-1.6,66.4,7.5,84.4h-25c0,0-62.8-44.4-79.8-83.3c-5.7-12.1-10-14.3-10-53.7
		L1045.5,627.7"/>
	<path fill="#5A534A" stroke="#FFFFFF" stroke-width="0.2513" stroke-linecap="round" stroke-miterlimit="10" d="M1025.5,596.5
		c3.4,1.1,30.5,4.3,37.5-2c2.3-2,3-6.4,0.7-10c-1.6-2.3,0.7-3,0.7-3.9c0.2-1.6-0.7-3.2-1.8-3.9c0.9-0.7,1.1-2.5,0-4.1
		s-0.2-2.5-0.2-2.5l0,0c1.4-0.5,5.7-2.3,5.7-2.3s-4.1-11.4-11.1-22.3c-4.5-7.1-13.2-13.4-21.6-15.5c-35.7-4.1-47.1,30-47.1,30
		l19.1,28.9c0,0,0.2,0.5,0.7,0.9c8.4,16.2,12.1,41.6-26.6,58.9l52.3,4.8l12.3-25.7c-5.7-7.3-9.3-16.2-1.8-29.3"/>
	
		<path fill="#5A534A" stroke="#FFFFFF" stroke-width="0.2513" stroke-linecap="round" stroke-linejoin="round" stroke-miterlimit="10" d="
		M1087.8,662.7c-1.4-13.2-5.9-31.8-16.4-40.5c0,0-28.2,3.9-30-1.6l0,0c0,0,6.8,33.7-38.4,16.2l-3.2-4.8l-20,9.3l9.1,40.9"/>
	<path fill="#5A534A" stroke="#FFFFFF" stroke-width="0.2513" stroke-linecap="round" stroke-miterlimit="10" d="M996.2,511.9
		c0,0,1.4-7.1,7.7-9.1c-3.6-8-13.9-12.3-28.9-7.7c-25,7.5-35.9,34.6-28.2,52.1c10.7,23.7,25,19.8,32.8,36.9
		c8.4,19.1-9.6,24.8,9.1,48c-3-12.7,7.3-29.8,3.4-43.5c-4.5-16.2-16.6-25.9-23.4-33.9c-5-5.7-3.4-23.2,6.8-23.7
		C985.7,530.6,996.2,511.9,996.2,511.9z"/>
	
		<path fill="none" stroke="#FFFFFF" stroke-width="0.2513" stroke-linecap="round" stroke-linejoin="round" stroke-miterlimit="10" d="
		M1062.1,570.4c-1.8,0.7-4.1,0-4.8-2c-0.7-1.6,0-3.2,1.6-3.9c1.1-0.5,2.5,0,3,1.4c0.5,0.9,0,2-0.9,2.5"/>
	
		<path fill="none" stroke="#FFFFFF" stroke-width="0.2513" stroke-linecap="round" stroke-linejoin="round" stroke-miterlimit="10" d="
		M1048.9,559.2c-3,0.7-5.7-1.4-6.1-4.1l10.5-2C1053.7,556,1051.9,558.8,1048.9,559.2z"/>
	
		<path fill="#DBC6AB" stroke="#FFFFFF" stroke-width="0.2513" stroke-linecap="round" stroke-linejoin="round" stroke-miterlimit="10" d="
		M1062.8,577c-0.5-0.2-1.1-0.2-1.8,0c-1.4,0.7-2.7,1.6-4.1,2c-0.2,0-0.2,0-0.5,0"/>
	<path fill="none" stroke="#19181C" stroke-width="0.2513" stroke-linecap="round" stroke-miterlimit="10" d="M992.3,752.4"/>
	<path fill="none" stroke="#19181C" stroke-width="0.2513" stroke-linecap="round" stroke-miterlimit="10" d="M1059,623.6"/>
	<path fill="none" stroke="#FFFFFF" stroke-width="0.2513" stroke-linecap="round" stroke-miterlimit="10" d="M1027.8,583.3
		c-7.1,1.4-10.2-7.5-9.8-10.2c1.1-2,7.3-2.7,7.3-2.7l1.4,5.2"/>
	<path fill="none" stroke="#FFFFFF" stroke-width="0.2513" stroke-linecap="round" stroke-miterlimit="10" d="M986.8,646.6
		c0,0,10.9,78.9,75.3,115.3"/>
	<path fill="#5A534A" stroke="#FFFFFF" stroke-width="0.2513" stroke-miterlimit="10" d="M948.9,746.4l24.3-98.7
		c5-11.1,18-6.6,18-6.6c13.6,5.7,16.6,26.8,8.4,47.5c-12.1,31.2-23,44.4-37.5,61.4c-2.5-0.5-3.9-1.4-6.6-0.2
		C953.4,750.8,950.9,747.6,948.9,746.4z"/>
	<path fill="none" stroke="#FFFFFF" stroke-width="0.2513" stroke-miterlimit="10" d="M1026.9,709.4c0,0,14.3,31.6,39.4,41.9"/>
	<path fill="none" stroke="#FFFFFF" stroke-width="0.2513" stroke-miterlimit="10" d="M1057.6,631.8c0,0,6.1,37.1-17.1,55.3"/>
	<path fill="none" stroke="#FFFFFF" stroke-width="0.2513" stroke-miterlimit="10" d="M1069.2,633.2c0,0,10,48.5-7.3,78"/>
	<g>
		<path fill="#5A534A" stroke="#FFFFFF" stroke-width="0.2513" stroke-miterlimit="10" d="M949.5,743c0,0-1.8,6.4-1.8,7.7
			c1.4,15.9,18.9,13.6,27.8,11.8c19.6-4.1,50.3-14.1,58.5-16.8l20,1.1c3,0.7,17.3-4.1,18.7-6.1c-1.6-0.9-3.6-2-6.6,0.2
			c-0.2,0-0.2,0-0.5,0c2.7-0.9,5.5-2.5,8.2-4.5c-0.9-0.7-2.3-1.1-3.6-1.1c1.8-0.9,3.6-2,5.5-3.4c-1.8-1.1-4.3-2.3-8.2,0.5
			c-0.2,0-0.5,0-0.7-0.2c1.8-0.9,3.9-2,5.7-3.4c-1.6-1.1-3.9-2-7.3,0.2c-4.3-1.4-9.3,0.9-11.6,2l-2.5-1.4c0,0,8.6-0.7,11.8-6.4
			c-0.5-1.4-2.3-2.7-5.5,0.5l-1.6-0.2c-9.8,0.7-22.3,10-24.1,11.6l-61.2-0.2"/>
		<path fill="none" stroke="#FFFFFF" stroke-width="0.2513" stroke-miterlimit="10" d="M976.2,734.8h-8c-7.3,0.9-11.4,4.1-13.2,8.2"
			/>
		<g>
			<path fill="#DBC6AB" stroke="#FFFFFF" stroke-width="0.2513" stroke-miterlimit="10" d="M1058,747.4"/>
			<path fill="#DBC6AB" stroke="#FFFFFF" stroke-width="0.2513" stroke-miterlimit="10" d="M1063.3,742.8"/>
			<path fill="#DBC6AB" stroke="#FFFFFF" stroke-width="0.2513" stroke-miterlimit="10" d="M1073.1,740.8"/>
			
				<line fill="none" stroke="#FFFFFF" stroke-width="0.2513" stroke-miterlimit="10" x1="1066.2" y1="740.8" x2="1066.2" y2="740.8"/>
			<path fill="#5A534A" stroke="#FFFFFF" stroke-width="0.2513" stroke-miterlimit="10" d="M1054.2,743.5c0-0.5,10.7,0,20-7.1l0,0
				c-1.6-1.1-3.9-2-7.3,0.2l0,0c-7.3-2-13,3.2-13,3"/>
			<path fill="#5A534A" stroke="#FFFFFF" stroke-width="0.2513" stroke-miterlimit="10" d="M1053.7,739.6c0-0.7,11.8,0,22.3-8l0,0
				c-1.8-1.1-4.3-2.3-8.2,0.2l0,0c-8-2.5-14.6,3.4-14.6,3.4"/>
			<path fill="#5A534A" stroke="#FFFFFF" stroke-width="0.2513" stroke-miterlimit="10" d="M1053,735.5c0-0.5,10.7,0,20-7.1l0,0
				c-1.6-1.1-3.9-2-7.3,0.2l0,0c-4.3-1.4-9.6,0.9-11.8,2"/>
		</g>
	</g>
	<path fill="none" stroke="#FFFFFF" stroke-width="0.2513" stroke-miterlimit="10" d="M973.2,647.9c0,0,5.7,64.2,0.7,87.8"/>
	<path fill="#5A534A" stroke="#FFFFFF" stroke-width="0.2513" stroke-miterlimit="10" d="M1132.9,688l53-33
		c1.4-0.9,11.4-15.2,11.4-15.9c-0.7-2.3,14.1,13,14.1,13l-14.1,8.6c0,0-27.5,34.1-45.3,48.9c-5.7,4.8-15.9,12.5-24.1,8.2"/>
	<path fill="#5A534A" stroke="#FFFFFF" stroke-width="0.2513" stroke-miterlimit="10" d="M1124.9,704.8c-1.8-5,1.1-12.1,7.1-16.4
		l5.7-3.4"/>
	<path fill="#9B9690" stroke="#FFFFFF" stroke-width="0.2513" stroke-linecap="round" stroke-miterlimit="10" d="M1012.1,646.6
		c-6.1,1.8-13.6,0-18.4-4.3c-3.9-3.6-7.3,0.2-5.7,4.5c0.9,3,3,5.7,5.7,7.3c-3.4,0.7-6.8-0.7-9.6-2.7c-2.5-2.3-4.3-5.2-5.5-8.4
		c-3-8.6-1.8-18.2,2-26.4c3.9-8.2,10-15,17.1-20.9c4.1-3.4,5-9.3,5.5-14.6c0.2-5.5-4.1-9.8-7.5-13.4c-4.1-4.8-7.5-11.4-5.9-17.5
		c1.1-4.1,4.1-7.3,7.1-10.2c4.8-4.8,10-9.3,16.6-10.7c10.9-2,20.7,6.1,31.6,8.2c3.4,0.7,6.8,0.7,10,2.3s5.5,5,4.3,8.2
		c-3.2-3.6-9.1-2.5-13.2,0c-3.2,1.8-5.7,4.8-8.9,6.4c-1.6,0.7-2.7,1.4-3.9,2c-2.7,2-3.6,4.3-2,9.3c1.1,3.4,3.2,6.6,3.6,10.2
		c0.5,3.6-0.9,8-4.5,8.9c1.6-0.5-1.6-12.5-2.3-13.4c-1.6-2.3-4.3-3.4-6.8-2.5c-2.7,0.7-4.8,3.2-5.7,5.9c-0.9,2.7,1.1,10.5,1.6,13.4
		c1.6,8.4,8.2,17.5,11.6,18.4c-2.7,1.6-4.5,4.8-4.3,7.7c0.2,2,1.8,5,4.1,5.5c1.4,0.2,2.5-0.7,3.6-0.9c0.2,2-1.6,3.6-3.4,4.3
		c-1.8,0.7-3.9,0.5-5.7,0s-3.9-0.9-5.7-1.1c-1.1,0-2.3,0-3.2,0.7s-1.6,1.6-1.6,2.7c0.2,1.8,2,2.7,3.6,3c1.8,0.2,4.1,0,5.7-0.7
		c0.7,4.1,0.7,8.9-1.6,12.5C1018.7,643.6,1015.5,645.7,1012.1,646.6z"/>
	<path fill="#5A534A" stroke="#FFFFFF" stroke-width="0.2513" stroke-linecap="round" stroke-miterlimit="10" d="M996.9,517.8
		l-0.7-5.9c0,0-15.7,2-20.7,19.1l5.2,3.2L996.9,517.8z"/>
	<path fill="#5A534A" stroke="#FFFFFF" stroke-width="0.2513" stroke-linecap="round" stroke-miterlimit="10" d="M1063.3,542.4
		c0,0-16.4,0.2-33.2,11.6c-5.9,10.7-28.9,32.5-28.9,32.5s-0.2-8.4-5.5-10c-10,0-27.3-25-13.4-45.3c18-26.2,40-13.9,43.7-7.1
		C1031.9,524.9,1061,541.3,1063.3,542.4z"/>
	<path fill="none" stroke="#FFFFFF" stroke-width="0.2513" stroke-linecap="round" stroke-miterlimit="10" d="M995.7,576.3
		c0,0,33-32.1,30.3-52.3"/>
	<path fill="none" stroke="#FFFFFF" stroke-width="0.2513" stroke-linecap="round" stroke-miterlimit="10" d="M1030.3,538.1
		c0,0,3.9-0.5,5.7-3.2c1.8-2.7,0.7-6.6,0.7-6.6s-3.9,0.5-5.7,3.2C1029.2,534.2,1030.3,538.1,1030.3,538.1z"/>
	<g>
		<path fill="#F9AC1A" stroke="#FFFFFF" stroke-width="0.2513" stroke-miterlimit="10" d="M1190.4,636.6l1.6,2.3c0,0-2,2.3-4.1,1.8
			c-2-1.1-3.6-7.1,1.1-10.7l4.3-2.7l4.3-2.7c5.5-2.5,9.8,1.8,10,4.1c-0.5,1.8-3.6,2.7-3.6,2.7l-1.4-2.5c0,0-0.9-0.2-4.1,1.6
			c-3,1.8-5.2,3.2-5.2,3.2S1190.9,635.4,1190.4,636.6z"/>
		<path fill="#F9AC1A" stroke="#FFFFFF" stroke-width="0.2513" stroke-miterlimit="10" d="M1142.4,526.2
			c-14.6-24.3-25.7-26.2-25.7-26.2s-3.6,10.5,11.1,35c17.7,29.6,61,85.1,62.8,94.4l2.7-1.6l2.7-1.6
			C1188.9,620,1160.2,555.6,1142.4,526.2z"/>
		<path fill="#F9AC1A" stroke="#FFFFFF" stroke-width="0.2513" stroke-miterlimit="10" d="M1198.6,630.7l-2,1.4l-0.9,0.5l-2,1.4
			c3.9,3.2,14.6,26.4,14.6,26.4l3-1.8l0.9-0.5l3-1.8C1215.2,656.1,1199.8,635.7,1198.6,630.7z"/>
		<path fill="#F9AC1A" stroke="#FFFFFF" stroke-width="0.2513" stroke-miterlimit="10" d="M1187.5,637.5c0,0,1.1-1.6,2.7-0.7"/>
		<path fill="#F9AC1A" stroke="#FFFFFF" stroke-width="0.2513" stroke-miterlimit="10" d="M1204.5,627.2c0,0-2,0.2-2,2"/>
	</g>
	<path fill="#5A534A" stroke="#FFFFFF" stroke-width="0.2513" stroke-miterlimit="10" d="M1205.7,631.3c-3.4,1.6-7.3,4.1-10.9,8.4
		l0,0c1.8,0.9,4.3,1.6,7.1-1.6l0,0c2.7,0.5,5-0.2,6.8-1.1C1208.9,636.8,1210.2,631.8,1205.7,631.3z"/>
	<path fill="#5A534A" stroke="#FFFFFF" stroke-width="0.2513" stroke-miterlimit="10" d="M1208.2,635.7c-3.9,1.6-8.9,4.5-13,9.8l0,0
		c2,1.1,4.8,1.8,7.7-1.6l0,0c3.4,0.5,6.4-0.5,8.4-1.8C1211.6,642,1213.4,635.9,1208.2,635.7z"/>
	<path fill="#5A534A" stroke="#FFFFFF" stroke-width="0.2513" stroke-miterlimit="10" d="M1214.1,646.1c-2.5,1.6-4.5,1.8-7.1,1.6
		l0,0c-2.7,3.2-5,2.5-7.1,1.6l0,0c3.4-4.3,7.5-6.8,10.9-8.4C1210.9,640.9,1215,641.1,1214.1,646.1z"/>
	<path fill="#5A534A" stroke="#FFFFFF" stroke-width="0.2513" stroke-miterlimit="10" d="M1213.4,645.4c-3.2,1.4-6.6,4.1-9.6,7.7
		l0,0c1.8,0.9,4.3,1.6,7.1-1.6l0,0c1.8,0.2,3.6-0.5,5.2-2.7C1216.2,648.9,1216.2,645.9,1213.4,645.4z"/>
	<path fill="#5A534A" stroke="#FFFFFF" stroke-width="0.2513" stroke-miterlimit="10" d="M1190.4,649.5c1.4-2.3,1.6-1.8,2.5-5.5
		c1.4-4.8,3.6-10.9,6.6-13.6c2.3,2,2,5.5,0.2,7.3c0.2,3.9-0.9,10.7-3.9,12.5"/>
	<g>
		<path fill="#F9AC1A" stroke="#FFFFFF" stroke-width="0.2513" stroke-miterlimit="10" d="M989.6,686.4c-0.9,5-2,10.9-2.5,17.5
			c-1.1,15,2,25.5,12.1,31.2h20.7c11.6-11.6,14.8-27.1,7.5-50.5C1027.3,684.6,1007.5,671.1,989.6,686.4z"/>
		<polygon fill="#F9AC1A" stroke="#FFFFFF" stroke-width="0.2513" stroke-miterlimit="10" points="1008.9,690.7 1006.2,691.4 
			1008.9,699.1 1011.6,691.4 		"/>
		<path fill="#F9AC1A" stroke="#FFFFFF" stroke-width="0.2513" stroke-miterlimit="10" d="M1006.2,691.4c0,0-2.7-10.9-17.3-1.1"/>
		<path fill="#F9AC1A" stroke="#FFFFFF" stroke-width="0.2513" stroke-miterlimit="10" d="M1011.6,691.4c0,0,2.7-10.9,17.3-1.1"/>
		<path fill="#FFFFFF" stroke="#FFFFFF" stroke-width="0.2513" stroke-miterlimit="10" d="M999.6,693.9c0,0-1.1,0.9-2.7,0.9
			c-1.6,0-2.7-0.9-2.7-0.9c0-0.2,1.1-0.9,2.7-0.9C998.4,693,999.6,693.9,999.6,693.9z"/>
		<path fill="#FFFFFF" stroke="#FFFFFF" stroke-width="0.2513" stroke-miterlimit="10" d="M1023.7,693.9c0,0-1.1,0.9-2.7,0.9
			c-1.6,0-2.7-0.9-2.7-0.9c0-0.2,1.1-0.9,2.7-0.9C1022.6,693,1023.7,693.9,1023.7,693.9z"/>
		<g>
			<path fill="#F9AC1A" stroke="#FFFFFF" stroke-width="0.2513" stroke-miterlimit="10" d="M989.6,754.4c0,0-2,15.7-10.9,23.2
				l4.8-38L989.6,754.4z"/>
			<path fill="#F9AC1A" stroke="#FFFFFF" stroke-width="0.2513" stroke-miterlimit="10" d="M986.8,703.9l-11.1,70.3
				c0,0,23.7-13.6,18.7-33.2C1007.8,729.8,1001.9,704.1,986.8,703.9z"/>
			<path fill="#F9AC1A" stroke="#FFFFFF" stroke-width="0.2513" stroke-miterlimit="10" d="M984.3,745.5c0,0,5.5-0.5,10-4.3"/>
		</g>
	</g>
	<path fill="none" stroke="#FFFFFF" stroke-width="0.2513" stroke-linecap="round" stroke-miterlimit="10" d="M1003.9,586.3
		c0.9,2.5-0.2,7.3-2.7,11.1c-1.6,2.3-3.2,4.3-4.8,6.1c-5.2,5.9-10,12.3-12.7,19.8c-2.7,7.3-3.4,15.7-0.7,23.2"/>
	<path fill="none" stroke="#FFFFFF" stroke-width="0.2513" stroke-linecap="round" stroke-miterlimit="10" d="M1007.3,594
		c-0.5,1.8-1.1,3.4-1.8,5.2c-2.5,5.2-5.7,10-8,15.2c-2.3,5.2-3.9,11.1-2.7,16.8c1.1,5.7,5.5,10.9,11.1,11.8c3.6,0.5,7.7-1.4,8.2-5"
		/>
	<path fill="none" stroke="#FFFFFF" stroke-width="0.2513" stroke-linecap="round" stroke-miterlimit="10" d="M1011,586.7
		c0.9,0.7,1.1,1.6,1.4,2.7c1.8,7.5-0.7,15.5-4.1,22.5c-1.4,2.7-2.7,5.2-3.6,8.2c-0.9,3-0.9,6.1,0.5,8.6c1.4,2.7,4.3,4.5,7.3,4.1"/>
	<path fill="none" stroke="#FFFFFF" stroke-width="0.2513" stroke-linecap="round" stroke-miterlimit="10" d="M1024.6,621.1
		c-3.4-0.5-6.4-3.2-7.1-6.6c-0.5-1.8-0.2-3.9-0.2-5.9c0.7-8.4-0.5-12.1-1.6-14.6"/>
	<g>
		
			<rect x="954.8" y="831.1" fill="#9B9690" stroke="#FFFFFF" stroke-width="0.2513" stroke-linecap="round" stroke-miterlimit="10" width="182.7" height="248"/>
		
			<rect x="944.3" y="778.7" fill="#9B9690" stroke="#FFFFFF" stroke-width="0.2513" stroke-linecap="round" stroke-miterlimit="10" width="204.5" height="52.3"/>
	</g>
</g>
</svg>
