<?xml version="1.0" encoding="utf-8"?>
<!-- Generator: Adobe Illustrator 18.1.1, SVG Export Plug-In . SVG Version: 6.00 Build 0)  -->
<svg version="1.1" id="Layer_1" xmlns="http://www.w3.org/2000/svg" xmlns:xlink="http://www.w3.org/1999/xlink" x="0px" y="0px"
	 viewBox="324 425 157.3 245.5" enable-background="new 324 425 157.3 245.5" xml:space="preserve">
<g>
	<g>
		<polygon fill="#34110D" points="443.5,536.1 441.4,536.5 442.9,537.7 449.4,543.6 451.9,542.6 451.1,538.6 		"/>
		<path fill="#34110D" d="M454,543.2"/>
		<path fill="#34110D" d="M441.1,536.2c-1,0.6-23.7-11.6-32.7-6.4c-6.3-6.8-15.9-14.7-24.3-16.9c-8.4-2.2-17-3.7-19.7,2.8l-0.2,0.5
			c-4.7,17.6,59.9,22.3,76.8,23.6l7.5,4c1.1,0.7,6.8,1.3,7.6,0.6"/>
		<path fill="#34110D" d="M456.3,540c-0.1,0-0.1-0.1-0.2-0.1"/>
		<path fill="#34110D" d="M456.8,541.7"/>
		<path fill="#34110D" stroke="#FFFFFF" stroke-width="0.5" stroke-miterlimit="10" d="M452.3,535.6"/>
		<path fill="#34110D" stroke="#FFFFFF" stroke-width="0.5" stroke-miterlimit="10" d="M454.7,537.4"/>
		<line fill="none" stroke="#FFFFFF" stroke-width="0.5" stroke-miterlimit="10" x1="456.1" y1="538.3" x2="456.1" y2="538.3"/>
		<path fill="#34110D" stroke="#FFFFFF" stroke-width="0.75" stroke-linecap="round" stroke-miterlimit="10" d="M455.5,543.6
			c0.6,0.2,1.2,0.6,1.8,1l0,0c-0.5,0.4-1.2,0.7-2.3,0l0,0c-1.4,0.5-5.8-0.5-6.6-0.8l0,0l-7.5-4c-17.5,0.5-81.4-6.1-76.8-23.6
			l0.2-0.5c2.7-6.5,11.3-5,19.7-2.8c8.4,2.2,18,10.2,24.3,16.9c8.3-4.8,32.4,7.3,33.4,6.7"/>
		<path fill="#34110D" d="M450.7,537.4l-0.8-0.9c0,0,3.6,1.1,5.9-0.7c0-0.7-0.5-1.4-2.2-0.7l-0.6-0.3c-4.1-1.3-10.1,1.4-11.1,1.7"/>
		<path fill="#34110D" stroke="#FFFFFF" stroke-width="0.75" stroke-linecap="round" stroke-miterlimit="10" d="M450.4,540.8
			c0,0.2,4.7-0.2,8.9,2.7l0,0c-0.7,0.5-1.7,1-3.2,0l0,0c-2.4,0.3-4-0.2-5.2-0.7"/>
		<path fill="#34110D" stroke="#FFFFFF" stroke-width="0.75" stroke-linecap="round" stroke-miterlimit="10" d="M450.6,539.1
			c0,0.3,5.2-0.2,10,3l0,0c-0.8,0.6-1.9,1.1-3.6,0l0,0c-4.4,0.3-7-1.5-6.5-1.2"/>
		<path fill="#34110D" stroke="#FFFFFF" stroke-width="0.75" stroke-linecap="round" stroke-miterlimit="10" d="M450.6,539.1
			c0,0,2.1,1.3,5.8,1l0,0c1.5,1,2.5,0.5,3.2,0l0,0c-4.2-2.8-9.2-3-9.2-3.2l0,0l-0.5-0.3c0,0,3.6,1.1,5.9-0.7c0-0.7-0.5-1.4-2.2-0.7
			l-0.6-0.3c-5.9-1-10.1,1.4-11.1,1.7"/>
	</g>
	<path fill="none" stroke="#221E20" stroke-width="0.75" stroke-linecap="round" stroke-miterlimit="10" d="M459.8,607.9"/>
	<path fill="#34110D" stroke="#FFFFFF" stroke-width="0.75" stroke-linecap="round" stroke-miterlimit="10" d="M468,598.9
		c-0.3,0.2-1.7,3.2-2.1,3.4c-1.4,0.9-14.2,7.7-17.8,10.3l-16.7-14l-1.5,5.2c9.6,7.3,15.4,12,16.1,12.5c-1.5,3.3,2,5.8,4.8,8.1
		l15.9-19.5l3.3-4C470.5,599.3,469.4,598.1,468,598.9z"/>
	
		<path fill="#34110D" stroke="#FFFFFF" stroke-width="0.75" stroke-linecap="round" stroke-linejoin="round" stroke-miterlimit="10" d="
		M420.5,583.2c13.5,15.3,24.1,24.4,27.8,29.3c-14.5-8.4-49.8-17.9-39.8-29.6L420.5,583.2z"/>
	
		<path fill="#34110D" stroke="#FFFFFF" stroke-width="0.75" stroke-linecap="round" stroke-linejoin="round" stroke-miterlimit="10" d="
		M408.6,587.9c-12.3,5.4-33.5,8.3-36.2,0.7c-2.9,4.6-7.5,5.1-13.6,3.5c-6.1-1.6-11-8-11-12.9l7.6-14.2c6.3-1.8,18.9-1.5,35.9,5.3
		c11.7,4.7,15.8,6.7,19.6,8.4l9,4h-1.6L408.6,587.9"/>
	<path fill="none" stroke="#FFFFFF" stroke-width="0.75" stroke-linecap="round" stroke-miterlimit="10" d="M381.2,588.5
		c14.6,3.1,24.2-1.8,25.4-5.2c0.6-1.6,0.1-3.5-1.5-4.2c-1.3-0.6-2.8,0-3.4,1.2c-0.5,1,0,2.2,1,2.7c0.8,0.4,1.8,0,2.1-0.8"/>
	<path fill="none" stroke="#221E20" stroke-width="0.75" stroke-linecap="round" stroke-miterlimit="10" d="M402.6,641.4"/>
	<polyline fill="#34110D" stroke="#FFFFFF" stroke-width="0.75" stroke-linecap="round" stroke-miterlimit="10" points="
		458.2,609.5 462.4,609.8 446.6,629.3 	"/>
	<path fill="none" stroke="#221E20" stroke-width="0.75" stroke-linecap="round" stroke-miterlimit="10" d="M460.2,612.6"/>
	<path fill="#34110D" stroke="#FFFFFF" stroke-width="0.75" stroke-linecap="round" stroke-miterlimit="10" d="M463.7,603.9
		c-0.3,0.2-1.7,3.2-2.1,3.4c-1.4,0.9-14.2,7.7-17.8,10.3l-16.7-14l-6.2,3.5c9.6,7.3,20.2,13.8,20.9,14.3c-1.5,3.3,2,5.8,4.8,8.1
		l15.9-19.5l3.3-4C466.1,604.3,465.1,603.1,463.7,603.9z"/>
	
		<path fill="#34110D" stroke="#FFFFFF" stroke-width="0.75" stroke-linecap="round" stroke-linejoin="round" stroke-miterlimit="10" d="
		M416.2,588.2c13.5,15.3,24,24.4,27.7,29.3c-14.5-8.4-49.8-17.9-39.8-29.6L416.2,588.2z"/>
	<path fill="none" stroke="#221E20" stroke-width="0.75" stroke-linecap="round" stroke-miterlimit="10" d="M413.7,566.2"/>
	<path fill="#34110D" stroke="#FFFFFF" stroke-width="0.75" stroke-linecap="round" stroke-miterlimit="10" d="M359.4,513.9
		c14.3-1.4,13.1-5.5,13.8-9.7l8,7.4l-1.4,5c-1.8,3.7,3.1,12.1,13.7,17"/>
	<path fill="#34110D" stroke="#FFFFFF" stroke-width="0.75" stroke-linecap="round" stroke-miterlimit="10" d="M340.6,566.2
		c7.9-5,13.4-39.8,15.6-48.2l0,0l1.1,18.7l9.2,23.6l-7.3,9.5l-4.9,3.5l-19.1,14L340.6,566.2z"/>
	<path fill="#34110D" stroke="#FFFFFF" stroke-width="0.75" stroke-linecap="round" stroke-miterlimit="10" d="M357.4,515
		c-1.5,4.7-2.2,8.5-2.9,15.7c-1.2,13.3,1,40.5,1.5,44.4l0,5.4l-0.6,5.7c20-30.2,29.3-33.4,38.3-52.4"/>
	
		<path fill="#34110D" stroke="#FFFFFF" stroke-width="0.75" stroke-linecap="round" stroke-linejoin="round" stroke-miterlimit="10" d="
		M404.3,592.9c-12.3,5.4-37.3,8.6-39.9,1.1c-2.9,4.6-10.8,5.4-16.8,3.7c-6.1-1.6-11.5-8-11.4-12.8l15.1-14.8
		c6.3-1.8,18.9-1.5,35.9,5.3c11.7,4.7,15.8,6.7,19.6,8.4l9,3.9l-1.9,0.1L404.3,592.9"/>
	<polygon fill="#34110D" stroke="#FFFFFF" stroke-width="0.75" stroke-linecap="round" stroke-miterlimit="10" points="373.2,504.2 
		375,525.1 378.5,526.7 380,516.2 	"/>
	<path fill="#34110D" stroke="#FFFFFF" stroke-width="0.75" stroke-linecap="round" stroke-miterlimit="10" d="M380,516.2l-1.5,10.5
		c-0.8-0.4-3.9-9.5-1.8-13.9L380,516.2z"/>
	<path fill="#34110D" stroke="#FFFFFF" stroke-width="0.75" stroke-linecap="round" stroke-miterlimit="10" d="M378.4,556.5
		c10.1-3.5,13.1-11.3,15.4-22.7L357.4,515c-5.9,12.5-3.9,33.5,15.1,39.1c0.5,0.1,5.7-5.2,5.7-5.2L378.4,556.5z"/>
	
		<line fill="none" stroke="#FFFFFF" stroke-width="0.75" stroke-linecap="round" stroke-miterlimit="10" x1="381.9" y1="540.7" x2="378.1" y2="549.3"/>
	<path fill="none" stroke="#FFFFFF" stroke-width="0.75" stroke-linecap="round" stroke-miterlimit="10" d="M378.2,539"/>
	<path fill="none" stroke="#FFFFFF" stroke-width="0.75" stroke-linecap="round" stroke-miterlimit="10" d="M378.2,539"/>
	<path fill="none" stroke="#FFFFFF" stroke-width="0.75" stroke-linecap="round" stroke-miterlimit="10" d="M375.6,555.7
		c-4.6,8.3-10.7,15.5-18,20.8"/>
	<path fill="none" stroke="#FFFFFF" stroke-width="0.75" stroke-linecap="round" stroke-miterlimit="10" d="M369.1,592
		c12.1,4.6,31,1.3,33.2-3.6c0.7-1.6,0.1-3.5-1.5-4.2c-1.3-0.6-2.8,0-3.4,1.2c-0.5,1,0,2.2,1,2.7c0.8,0.4,1.8,0,2.1-0.8"/>
	<path fill="none" stroke="#221E20" stroke-width="0.75" stroke-linecap="round" stroke-miterlimit="10" d="M391.6,529.3"/>
	<path fill="#34110D" stroke="#FFFFFF" stroke-width="0.75" stroke-linecap="round" stroke-miterlimit="10" d="M333.6,576
		c1.6-8.3,5.9-12.3,11.3-11.8l24.2,5.7c-7.5,28.5-38.9,19-38.9,19L333.6,576z"/>
	<path fill="none" stroke="#FFFFFF" stroke-width="0.75" stroke-linecap="round" stroke-miterlimit="10" d="M354.3,566.7
		c-1.2,4-3.6,10.3-8.8,16.4"/>
	<path fill="none" stroke="#FFFFFF" stroke-width="0.75" stroke-linecap="round" stroke-miterlimit="10" d="M384.9,578.1"/>
	<path fill="none" stroke="#FFFFFF" stroke-width="0.75" stroke-linecap="round" stroke-miterlimit="10" d="M381.9,540.7
		c0-1.1-0.1-2.2-0.5-3.3c-1.3-3.5-5.1-5.3-8.6-4.1c-2.8,1-4.2,4.1-3.2,6.9c0.8,2.2,3.3,3.4,5.5,2.6c1.8-0.7,2.7-2.6,2.1-4.4
		c-0.5-1.4-2.1-2.2-3.5-1.7"/>
	<path fill="none" stroke="#FFFFFF" stroke-width="0.75" stroke-linecap="round" stroke-miterlimit="10" d="M381.8,540.9
		c0.4-0.6,0.9-1,1.4-1.4c1.9-1.2,4.4-0.7,5.6,1.2c1,1.5,0.5,3.5-1,4.5c-1.2,0.8-2.8,0.4-3.6-0.8c-0.6-1-0.3-2.3,0.7-2.9
		c0.8-0.5,1.8-0.3,2.3,0.5"/>
	
		<path fill="#B14A17" stroke="#FFFFFF" stroke-width="0.75" stroke-linecap="round" stroke-linejoin="round" stroke-miterlimit="10" d="
		M392.3,486.1L392.3,486.1c0-4.2-2.2-7.2-6.1-8.5c-3.2-1-9.3-0.7-11.6,5.9c-1.9,5.5,0.8,11.6,3.3,12.6c2.3,0.9,6.4-0.7,8.7-1.7
		l0.7,0.2c0.3,0.5,0.6,0.9,1,1.3c0.8,0.9,1.8,1.6,3,2.1l0.1-2l5.6,2C400.3,493.8,395.5,487,392.3,486.1z"/>
	<path fill="none" d="M388.9,483.6"/>
	<path fill="none" stroke="#FFFFFF" stroke-width="0.75" stroke-linecap="round" stroke-miterlimit="10" d="M392.3,484.9
		c0.3,2.4-1.5,4.7-4,4.9c-2,0.2-3.7-1.2-3.9-3.1c-0.2-1.5,0.9-2.9,2.5-3.1c1.3-0.1,2.4,0.7,2.5,2c0.1,1-0.6,1.9-1.6,2
		c-0.8,0.1-1.5-0.5-1.6-1.3c0-0.7,0.4-1.2,1-1.3c0.5,0,1,0.3,1,0.8c0,0.4-0.2,0.8-0.7,0.8"/>
	<path fill="#34110D" stroke="#FFFFFF" stroke-width="0.75" stroke-linecap="round" stroke-miterlimit="10" d="M397.1,498
		c0.3-3.5-13-7.9-14.6-4.1l-0.2,0.6c-0.7,1.6-2.5,2.4-4.1,1.7s-2-2.9-2-2.9l-1.3,3.4c-1.4,3.4-2.4,6.1-1.3,11
		c1.3,5.6,6.2,9.9,10.7,11.4c4,1.4,5.5-0.9,5.2-2.4c-0.2-1.2-1.2-2.1-1.5-2.6l1.3-0.2l-1.1-1.4l2-0.7l-0.2-1.2l3.3,1.3L397.1,498"/>
	<path fill="#34110D" stroke="#FFFFFF" stroke-width="0.75" stroke-linecap="round" stroke-miterlimit="10" d="M392.2,499.8
		c0,0.1-2.3,0.8-4.4,0s-3.4-2.8-3.3-2.9c0.1-0.2,2.3-0.8,4.4,0C391,497.7,392.2,499.8,392.2,499.8z"/>
	<path fill="none" stroke="#FFFFFF" stroke-width="0.75" stroke-linecap="round" stroke-miterlimit="10" d="M390.2,508.1
		c0.1,0.3,0.5,0.4,0.8,0.2c0.4-0.2,0.5-0.7,0.3-1c-0.2-0.5-0.8-0.7-1.3-0.4c-0.6,0.3-0.8,1-0.5,1.6c0.4,0.7,1.3,0.9,2,0.6
		c0.7-0.2,0.9-1.2,0.9-1.2l2.7-8.9"/>
	<path fill="none" stroke="#FFFFFF" stroke-width="0.75" stroke-linecap="round" stroke-miterlimit="10" d="M376.4,506L376.4,506
		c-4.5-1-3.1-7.8-0.7-9l0,0c1.8-1,3.5-0.2,4.2,1.3c0.6,1.2-0.3,2.8-1.5,3.4c-1,0.4-2.1,0-2.6-1c-0.3-0.8,0-1.7,0.8-2.1
		c0.6-0.3,1.4,0,1.6,0.6c0.2,0.5,0,1.1-0.5,1.3"/>
	
		<circle fill="#34110D" stroke="#FFFFFF" stroke-width="0.75" stroke-linecap="round" stroke-miterlimit="10" cx="388.3" cy="498.4" r="1"/>
	<path fill="#34110D" stroke="#FFFFFF" stroke-width="0.75" stroke-linecap="round" stroke-miterlimit="10" d="M374.1,488.4
		c13.7,8.7,23.3,9.2,23.3,9.2c0.8-1.2,1-2.9,0.8-3.7c-4.1-0.1-13.5-3.5-23.8-9.3l0,0c-0.4,1.9-0.2,2.8-0.3,3.4L374.1,488.4z"/>
	<g>
		<path fill="#34110D" d="M445.8,538.6c-4.1-1.5-10.7-0.1-11.7,0.2c-1,0.6-14.4-5-14.7-5.2c0,0,0,0,0,0l0,0
			c-8.6-4.4-16.9-7.1-18.7-1.9c-6-7-15.2-15.4-23.5-18c-8.3-2.6-16.6-5.1-19.9,1.9L357,516c-5.5,17.3,58.8,25.1,75.6,27.2l8.2,4.3
			c1.1,0.8,6.7,1.5,7.6,1c-0.4-0.7-0.1-1.5-1.7-1.2c0,0-0.1-0.1-0.1-0.1c1.3,0.1,2.7,0,4.1-0.3c-0.3-0.4-0.7-0.9-1.3-1.1
			c0.9,0,1.9-0.1,2.8-0.4c-0.5-0.8-1.4-1.7-3.4-1.4c-0.1,0-0.1-0.1-0.2-0.2c0.9,0,1.9-0.1,2.9-0.3c-0.5-0.7-1.2-1.5-3-1.2
			c-1.5-1.3-3.9-1.4-5.1-1.3l-0.8-1c0,0,3.6,1.3,5.9-0.4c0-0.7-0.4-1.5-2.2-0.8L445.8,538.6z"/>
		<path fill="none" stroke="#FFFFFF" stroke-width="0.75" stroke-linecap="round" stroke-miterlimit="10" d="M395.4,530.7
			c-13.8-15.9-27.1-18.1-31.3-15.4c-2.1,1.4-3.1,3.9-1.9,6.1c0.9,1.8,3.1,2.5,4.9,1.5c1.4-0.7,2-2.5,1.2-3.9c-0.6-1.1-2-1.6-3.1-1"
			/>
		
			<path fill="none" stroke="#FFFFFF" stroke-width="0.75" stroke-linecap="round" stroke-linejoin="round" stroke-miterlimit="10" d="
			M445.8,538.6c-4.1-1.5-10.7-0.1-11.7,0.2c-9.1-0.6-29.5-15.6-33.5-7.1c-6-7-15.2-15.4-23.5-18c-8.3-2.6-16.7-5.1-19.9,1.9L357,516
			c-5.5,17.3,59.4,25.6,75.6,27.2l8.2,4.3c1.1,0.8,5.1,1.3,7.6,1c-0.4-0.7-0.3-1.1-1.7-1.2c0,0-0.1-0.1-0.1-0.1
			c1.3,0.1,2.7,0,4.1-0.3c-0.3-0.4-0.7-0.9-1.3-1.1c0.9,0,1.9-0.1,2.8-0.4c-0.5-0.8-1.4-1.7-3.4-1.4c-0.1,0-0.1-0.1-0.2-0.2
			c0.9,0,1.9-0.1,2.9-0.3c-0.5-0.7-1.2-1.5-3-1.2c-1.5-1.3-3.9-1.4-5.1-1.3l-0.8-1c0,0,3.6,1.3,5.9-0.4c0-0.7-0.4-1.5-2.2-0.8
			L445.8,538.6z"/>
		<g>
			<path fill="#34110D" stroke="#FFFFFF" stroke-width="0.75" stroke-miterlimit="10" d="M442.2,548.5"/>
			<path fill="#34110D" stroke="#FFFFFF" stroke-width="0.75" stroke-miterlimit="10" d="M445,547.6"/>
			<path fill="#34110D" stroke="#FFFFFF" stroke-width="0.75" stroke-miterlimit="10" d="M447.4,548.6"/>
			<line fill="none" stroke="#FFFFFF" stroke-width="0.75" stroke-miterlimit="10" x1="446.6" y1="547.4" x2="446.6" y2="547.4"/>
			<path fill="#34110D" stroke="#FFFFFF" stroke-width="0.75" stroke-linecap="round" stroke-miterlimit="10" d="M441.3,546.2
				c0.1-0.2,4.3,1.9,9.3,0.7l0,0c-0.5-0.7-1.2-1.5-3-1.2l0,0c-2.5-2.1-5.8-1.1-5.8-1.1"/>
			<path fill="#34110D" stroke="#FFFFFF" stroke-width="0.75" stroke-linecap="round" stroke-miterlimit="10" d="M441.8,544.7
				c0.1-0.3,4.8,2.1,10.4,0.8l0,0c-0.5-0.8-1.4-1.7-3.4-1.4l0,0c-2.8-2.4-6.5-1.2-6.5-1.3"/>
			<path fill="#34110D" stroke="#FFFFFF" stroke-width="0.75" stroke-linecap="round" stroke-miterlimit="10" d="M442.2,542.9
				c0.1-0.2,4.3,1.9,9.3,0.7l0,0c-0.5-0.7-1.2-1.5-3-1.2l0,0c-1.5-1.3-4-1.4-5.1-1.3"/>
		</g>
		
			<line fill="none" stroke="#FFFFFF" stroke-width="0.75" stroke-linecap="round" stroke-miterlimit="10" x1="416" y1="541.2" x2="434.1" y2="538.9"/>
	</g>
	<path fill="#34110D" stroke="#FFFFFF" stroke-width="0.5" stroke-miterlimit="10" d="M468.9,537.5"/>
	
		<path fill="#34110D" stroke="#FFFFFF" stroke-width="0.75" stroke-linecap="round" stroke-linejoin="round" stroke-miterlimit="10" d="
		M415.3,588.7c-0.4-0.2-0.8,0-1,0.4c-0.2,0.5,0,1,0.5,1.3c0.6,0.2,1.3,0,1.5-0.6c0.2-0.4,0.1-0.8,0-1.2c-0.1-0.3-0.4-0.6-0.7-0.7
		c-0.9-0.4-2,0-2.4,1c-0.5,1.2,0,2.5,1.2,3c1.4,0.6,2.9,0,3.8-1.3l-1.5-1.7"/>
	
		<path fill="#34110D" stroke="#FFFFFF" stroke-width="0.75" stroke-linecap="round" stroke-linejoin="round" stroke-miterlimit="10" d="
		M419.7,583.8c-0.4-0.2-0.8,0-1,0.4c-0.2,0.5,0,1,0.5,1.3c0.6,0.2,1.3,0,1.5-0.6c0.2-0.4,0.1-0.8,0-1.2c-0.1-0.3-0.4-0.6-0.7-0.7
		c-0.9-0.4-2,0-2.4,1c-0.5,1.2,0,2.5,1.2,3c1.4,0.6,2.9,0,3.8-1.3l-1.5-1.7"/>
</g>
</svg>
