<?xml version="1.0" encoding="utf-8"?>
<!-- Generator: Adobe Illustrator 18.1.1, SVG Export Plug-In . SVG Version: 6.00 Build 0)  -->
<svg version="1.1" id="Layer_1" xmlns="http://www.w3.org/2000/svg" xmlns:xlink="http://www.w3.org/1999/xlink" x="0px" y="0px"
	 viewBox="99 425 212.1 245.5" enable-background="new 99 425 212.1 245.5" xml:space="preserve">
<g>
	
		<circle fill="#34110D" stroke="#FFFFFF" stroke-width="0.75" stroke-linecap="round" stroke-linejoin="round" stroke-miterlimit="10" cx="145.1" cy="469.8" r="17.7"/>
	<g>
		
			<path fill="#34110D" stroke="#FFFFFF" stroke-width="0.75" stroke-linecap="round" stroke-linejoin="round" stroke-miterlimit="10" d="
			M233.8,598.2c-10.9-7.7-24.2-23.9-15.7-29.8c-4.9,0.1-9.7-3.9-11.4-9.9c-1.7-6,0-12.8,4.2-15.2l14.1-2.9
			c4.8,4.5,11.9,16,14.9,34.1c2,12.4,2.4,17,2.9,21.1l1,9.2L233.8,598.2"/>
		<path fill="none" stroke="#FFFFFF" stroke-width="0.75" stroke-linecap="round" stroke-miterlimit="10" d="M219.1,575.1
			c4.9,14,14.1,19.8,17.5,19.1c1.7-0.4,3-1.7,2.8-3.5c-0.1-1.4-1.4-2.4-2.8-2.3c-1.1,0.1-1.9,1.1-1.8,2.2c0.1,0.9,0.9,1.5,1.8,1.4"
			/>
	</g>
	<polyline fill="#34110D" stroke="#FFFFFF" stroke-width="0.75" stroke-linecap="round" stroke-miterlimit="10" points="
		194.2,641.7 191.9,645.2 182.3,622 	"/>
	<path fill="none" stroke="#221E20" stroke-width="0.75" stroke-linecap="round" stroke-miterlimit="10" d="M190.6,641.9"/>
	<path fill="#34110D" stroke="#FFFFFF" stroke-width="0.75" stroke-linecap="round" stroke-miterlimit="10" d="M196.5,649.2
		c0-0.4-2-3-2-3.4c-0.1-1.7,0-16.1-0.6-20.5l20.3-8l-3.9-3.8c-11,5-17.9,7.8-18.7,8.2c-2.1-2.9-6.1-1-9.4,0.4l9.6,23.2l2,4.8
		C195,651.1,196.6,650.8,196.5,649.2z"/>
	
		<path fill="#34110D" stroke="#FFFFFF" stroke-width="0.75" stroke-linecap="round" stroke-linejoin="round" stroke-miterlimit="10" d="
		M233.1,614.9c-19.9,4.6-33.1,9.4-39.2,10.3c14.3-8.8,38.1-39.1,43.7-24.8L233.1,614.9z"/>
	<polyline fill="#34110D" stroke="#FFFFFF" stroke-width="0.75" stroke-linecap="round" stroke-miterlimit="10" points="
		249.8,648.4 252,652 226.9,650.9 	"/>
	<path fill="none" stroke="#221E20" stroke-width="0.75" stroke-linecap="round" stroke-miterlimit="10" d="M248.5,651.8"/>
	<path fill="#34110D" stroke="#FFFFFF" stroke-width="0.75" stroke-linecap="round" stroke-miterlimit="10" d="M257.5,649.5
		c-0.3-0.1-3.5,0.5-3.9,0.4c-1.6-0.6-14.6-6.8-18.8-8.1l1.3-21.8l-5.1,1.9c-0.1,12-0.4,19.5-0.4,20.4c-3.5,0.7-3.5,5.1-3.6,8.6
		L252,652l5.2,0.2C258.6,651.7,259,650.1,257.5,649.5z"/>
	
		<path fill="#34110D" stroke="#FFFFFF" stroke-width="0.75" stroke-linecap="round" stroke-linejoin="round" stroke-miterlimit="10" d="
		M243.7,604.9c-4.2,20-7.3,31-9,36.8c-1.9-16.6-13.6-48.5,1.8-47.4L243.7,604.9z"/>
	<path fill="none" stroke="#221E20" stroke-width="0.75" stroke-linecap="round" stroke-miterlimit="10" d="M266.2,527.4"/>
	<path fill="none" stroke="#FFFFFF" stroke-width="0.75" stroke-linecap="round" stroke-miterlimit="10" d="M265.4,539.6
		c-14.5-15.3-15.3-28.8-12.1-32.7c1.6-1.9,4.2-2.7,6.2-1.3c1.7,1.1,2.1,3.3,1,5c-0.9,1.4-2.7,1.7-4,0.8c-1.1-0.7-1.4-2.1-0.7-3.2"/>
	<path fill="#34110D" d="M265.9,544.9c-6.4-6.7-14.7-15.7-16.4-24.2c-1.8-8.5-1.9-18.3,4.7-20.6l0.5-0.2
		c11.7-2.4,15.8,22.1,17.7,42.5C273.3,551.2,260.6,546.2,265.9,544.9z"/>
	<path fill="none" stroke="#FFFFFF" stroke-width="0.75" stroke-linecap="round" stroke-miterlimit="10" d="M265.4,539.6
		c-14.5-15.3-15.3-28.8-12.1-32.7c1.6-1.9,4.2-2.7,6.2-1.3c1.7,1.1,2.1,3.3,1,5c-0.9,1.4-2.7,1.7-4,0.8c-1.1-0.7-1.7-2.2-1-3.2"/>
	
		<path fill="none" stroke="#FFFFFF" stroke-width="0.75" stroke-linecap="round" stroke-linejoin="round" stroke-miterlimit="10" d="
		M265.9,544.9c-6.4-6.7-14.7-15.7-16.4-24.2c-1.8-8.5-1.9-18.3,4.7-20.6l0.5-0.2c11.5-2.4,15.7,21.9,18,45.1c0.2,2-2.5-0.3,0,0
		C274,545.2,268.2,544.7,265.9,544.9z"/>
	
		<path fill="#B14A17" stroke="#FFFFFF" stroke-width="0.75" stroke-linecap="round" stroke-linejoin="round" stroke-miterlimit="10" d="
		M244.8,454.3L244.8,454.3c-0.4-4.2-3-6.9-7-7.7c-3.3-0.7-9.3,0.4-10.8,7.2c-1.3,5.7,2.1,11.5,4.7,12.1c2.4,0.6,6.2-1.4,8.4-2.7
		l0.7,0.1c0.3,0.5,0.7,0.8,1.2,1.2c0.9,0.8,2,1.4,3.2,1.7l-0.1-2l5.8,1.3C253.6,461.1,248,454.9,244.8,454.3z"/>
	<path fill="none" d="M241.1,452.2"/>
	<path fill="none" stroke="#FFFFFF" stroke-width="0.75" stroke-linecap="round" stroke-miterlimit="10" d="M244.6,453.1
		c0.6,2.4-0.9,4.8-3.4,5.4c-1.9,0.4-3.8-0.7-4.2-2.7c-0.4-1.5,0.6-3,2.1-3.4c1.2-0.3,2.4,0.5,2.7,1.7c0.2,1-0.4,2-1.4,2.2
		c-0.8,0.2-1.5-0.3-1.7-1.1c-0.1-0.6,0.2-1.3,0.9-1.4c0.5-0.1,1,0.2,1.1,0.7c0.1,0.4-0.1,0.8-0.6,0.9"/>
	<path fill="#34110D" stroke="#FFFFFF" stroke-width="0.75" stroke-linecap="round" stroke-miterlimit="10" d="M210,488
		c9.1,2.3,17.9-1.2,19.6-7.9l8-0.7l1.2,8.2c-1,4,7.3,9.6,18.6,12.5"/>
	<path fill="#34110D" stroke="#FFFFFF" stroke-width="0.75" stroke-linecap="round" stroke-miterlimit="10" d="M202.2,538.3
		c13.3-0.7,10.4-25.6,4.8-34l3-0.3l5.6,3.8l13.5,21.5l-5.4,10.7l-4.1,4.4l-10.6,4.1L202.2,538.3z"/>
	<path fill="#34110D" stroke="#FFFFFF" stroke-width="0.75" stroke-linecap="round" stroke-miterlimit="10" d="M209.9,487.9
		c-4.4,11.8,3.4,24.1,4.7,25.6c8.9,9.9,5.8,28.6,7.1,32.4l1.1,5.2l0.5,5.7c2.9-2.8,31.8-37.3,34.6-56.7"/>
	
		<path fill="#34110D" stroke="#FFFFFF" stroke-width="0.75" stroke-linecap="round" stroke-linejoin="round" stroke-miterlimit="10" d="
		M232.7,597.4c-11.6-6.6-26.7-22-22.2-28.5c-5.5,0.4-8.6-2.9-10.9-8.8c-2.3-5.8-0.8-12.7,3.1-15.6l14.2-3.4
		c5.2,4,14.9,14.4,19.5,32.1c3.2,12.2,4.1,16.7,4.9,20.8l2.2,10.2L232.7,597.4"/>
	<polygon fill="#34110D" stroke="#FFFFFF" stroke-width="0.75" stroke-linecap="round" stroke-miterlimit="10" points="229.2,479.1 
		233.3,493.9 237,494.8 239.2,486 	"/>
	<path fill="#34110D" stroke="#FFFFFF" stroke-width="0.75" stroke-linecap="round" stroke-miterlimit="10" d="M239.1,486.6
		l-2.1,8.2c-0.9-0.2-3.6-4.8-2.4-9.5L239.1,486.6z"/>
	<path fill="#34110D" stroke="#FFFFFF" stroke-width="0.75" stroke-linecap="round" stroke-miterlimit="10" d="M250.9,465.6
		c-0.1-3.5-13.9-6.3-15-2.3l-0.2,0.6c-0.5,1.7-2.1,2.7-3.8,2.2c-1.7-0.5-2.3-2.7-2.3-2.7l-0.9,3.5c-1,3.5-1.7,6.3,0,11.1
		c1.9,5.5,7.3,9.1,12,10.1c4.2,0.9,5.4-1.5,4.9-3c-0.4-1.1-1.4-2-1.8-2.4l1.3-0.3l-1.3-1.2l1.9-1l-0.3-1.1l3.4,0.9L250.9,465.6"/>
	<path fill="#34110D" stroke="#FFFFFF" stroke-width="0.75" stroke-linecap="round" stroke-miterlimit="10" d="M246.2,468
		c0,0.1-2.2,1-4.4,0.5c-2.2-0.6-3.7-2.3-3.6-2.5c0-0.2,2.2-1,4.4-0.5C244.8,466,246.2,468,246.2,468z"/>
	<path fill="none" stroke="#FFFFFF" stroke-width="0.75" stroke-linecap="round" stroke-miterlimit="10" d="M245.2,476.4
		c0.2,0.3,0.6,0.3,0.8,0.1c0.3-0.2,0.4-0.7,0.2-1.1c-0.3-0.4-0.9-0.5-1.4-0.2c-0.6,0.4-0.7,1.1-0.3,1.7c0.5,0.7,1.4,0.7,2.1,0.4
		c0.6-0.3,0.8-1.4,0.8-1.4l1.7-9.2"/>
	
		<path fill="none" stroke="#FFFFFF" stroke-width="0.75" stroke-linecap="round" stroke-linejoin="round" stroke-miterlimit="10" d="
		M231.3,476L231.3,476c-4.6-0.5-4-7.4-1.8-8.9l0,0c1.6-1.3,3.5-0.6,4.3,0.8c0.7,1.1,0.1,2.8-1.1,3.5c-0.9,0.6-2.1,0.2-2.7-0.7
		c-0.4-0.7-0.2-1.7,0.5-2.1c0.6-0.3,1.4-0.1,1.7,0.4c0.3,0.5,0.1,1.1-0.3,1.4"/>
	<path fill="#34110D" stroke="#FFFFFF" stroke-width="0.75" stroke-linecap="round" stroke-miterlimit="10" d="M236.1,522.6
		c13.3,0.2,18.4-9.3,21.8-22.5L210,487.9c-3.4,13.4-1.5,28,19.9,33.5c0.5,0.1,4.7-6.2,4.7-6.2L236.1,522.6z"/>
	
		<line fill="none" stroke="#FFFFFF" stroke-width="0.75" stroke-linecap="round" stroke-miterlimit="10" x1="236.5" y1="506" x2="234.4" y2="515.2"/>
	<path fill="none" stroke="#FFFFFF" stroke-width="0.75" stroke-linecap="round" stroke-miterlimit="10" d="M236.4,506.1"/>
	<path fill="none" stroke="#FFFFFF" stroke-width="0.75" stroke-linecap="round" stroke-miterlimit="10" d="M236.4,506.1"/>
	<path fill="none" stroke="#FFFFFF" stroke-width="0.75" stroke-linecap="round" stroke-miterlimit="10" d="M233.3,523.3
		c0.7,9-3.4,18.5-7.8,26.4"/>
	<path fill="none" stroke="#FFFFFF" stroke-width="0.75" stroke-linecap="round" stroke-miterlimit="10" d="M215.8,575.8
		c6.2,13.5,15.9,18.3,19.3,17.3c1.7-0.5,2.8-2,2.5-3.7c-0.3-1.4-1.6-2.3-3-2c-1.1,0.2-1.8,1.3-1.6,2.4c0.2,0.9,1,1.4,1.9,1.3"/>
	
		<line fill="none" stroke="#FFFFFF" stroke-width="0.75" stroke-linecap="round" stroke-miterlimit="10" x1="243.8" y1="481" x2="242.2" y2="481"/>
	
		<circle fill="#34110D" stroke="#FFFFFF" stroke-width="0.75" stroke-linecap="round" stroke-miterlimit="10" cx="242.2" cy="467" r="1"/>
	<path fill="none" stroke="#221E20" stroke-width="0.75" stroke-linecap="round" stroke-miterlimit="10" d="M250.4,495.5"/>
	<path fill="#34110D" stroke="#FFFFFF" stroke-width="0.75" stroke-linecap="round" stroke-miterlimit="10" d="M196.6,547.7
		c2.9-8.7,5.3-12.3,10.7-11.8l23.8,11.6c-7.2,27.6-39.3,13-39.3,13L196.6,547.7z"/>
	<path fill="none" stroke="#FFFFFF" stroke-width="0.75" stroke-linecap="round" stroke-miterlimit="10" d="M225,544.3
		c-2.5,6.6-4.2,10.4-9,15.2"/>
	<path fill="none" stroke="#FFFFFF" stroke-width="0.75" stroke-linecap="round" stroke-miterlimit="10" d="M234.8,545.4"/>
	<path fill="#34110D" stroke="#FFFFFF" stroke-width="0.75" stroke-linecap="round" stroke-miterlimit="10" d="M226.9,458.8
		c14.6,7,24.2,6.4,24.2,6.4c0.7-1.3,0.7-3,0.3-3.7c-4.1,0.4-13.8-1.9-24.7-6.4l0,0c-0.2,2,0.1,2.8,0.1,3.4L226.9,458.8z"/>
	<path fill="none" stroke="#FFFFFF" stroke-width="0.75" stroke-linecap="round" stroke-miterlimit="10" d="M236.4,506.1
		c-0.1-1.1-0.5-2.1-1.1-3.1c-1.9-3.2-6-4.2-9.2-2.3c-2.6,1.5-3.4,4.8-1.9,7.4c1.2,2.1,3.9,2.7,5.9,1.5c1.6-1,2.1-3.1,1.2-4.7
		c-0.8-1.3-2.5-1.7-3.8-1"/>
	<path fill="none" stroke="#FFFFFF" stroke-width="0.75" stroke-linecap="round" stroke-miterlimit="10" d="M236.4,506.1
		c0.6-0.7,1.3-1.4,2.1-1.9c2.7-1.6,6.2-0.7,7.8,2c1.3,2.1,0.6,4.9-1.6,6.2c-1.7,1-4,0.5-5-1.3c-0.8-1.4-0.4-3.2,1-4
		c1.1-0.7,2.6-0.3,3.2,0.8"/>
	<g>
		<path fill="#34110D" d="M132.7,471.4c3.9,1.8,10.7,0.8,11.7,0.6c1.1-0.5,14,6,14.3,6.2c0,0,0,0,0,0l0,0c8.3,5,16.4,8.2,18.6,3.2
			c5.5,7.5,14.2,16.4,22.2,19.6c8.1,3.2,16.5,5.6,20-0.5l0.3-0.4c6.6-16.9-57.1-29-73.6-32.3l-7.9-4.9c-1-0.8-7-2-8-1.5
			c0.4,0.7,0.5,1.5,2.1,1.3c0,0,0.1,0.1,0.1,0.1c-1.3-0.2-2.7-0.2-4.2,0c0.2,0.5,0.6,0.9,1.2,1.2c-0.9,0-1.9,0-2.8,0.2
			c0.5,0.9,1.2,1.8,3.3,1.5c0,0,0.1,0.1,0.2,0.2c-0.9,0-1.9,0-2.9,0.1c0.4,0.8,1.1,1.6,2.9,1.4c1.4,1.4,3.8,1.6,5,1.6l0.7,1
			c0,0-3.5-1.5-5.9,0c-0.1,0.7,0.3,1.5,2.1,1L132.7,471.4z"/>
		<path fill="none" stroke="#FFFFFF" stroke-width="0.75" stroke-linecap="round" stroke-miterlimit="10" d="M182.5,482.8
			c12.7,16.8,25.8,19.9,30.2,17.4c2.2-1.2,3.3-3.6,2.3-5.9c-0.8-1.8-2.9-2.7-4.8-1.9c-1.4,0.7-2.1,2.3-1.5,3.8
			c0.5,1.2,1.9,1.7,3,1.2"/>
		
			<path fill="none" stroke="#FFFFFF" stroke-width="0.75" stroke-linecap="round" stroke-linejoin="round" stroke-miterlimit="10" d="
			M132.7,471.4c3.9,1.8,10.7,0.8,11.7,0.6c1.1-0.5,11.7,4.9,14.3,6.2c0,0,0,0,0,0l0,0c8.3,5,16.4,8.2,18.6,3.2
			c5.5,7.5,14.2,16.4,22.2,19.6c8.1,3.2,16.5,5.6,20-0.5l0.3-0.4c6.6-16.9-57.5-29.5-73.5-32.3l-7.9-4.9c-1-0.8-5-1.6-7.5-1.5
			c0.4,0.7,0.2,1.1,1.6,1.3c0,0,0.1,0.1,0.1,0.1c-1.3-0.2-2.7-0.2-4.2,0c0.2,0.5,0.6,0.9,1.2,1.2c-0.9,0-1.9,0-2.8,0.2
			c0.5,0.9,1.2,1.8,3.3,1.5c0,0,0.1,0.1,0.2,0.2c-0.9,0-1.9,0-2.9,0.1c0.4,0.8,1.1,1.6,2.9,1.4c1.4,1.4,3.8,1.6,5,1.6l0.7,1
			c0,0-3.5-1.5-5.9,0c-0.1,0.7,0.3,1.5,2.1,1L132.7,471.4z"/>
		<g>
			<path fill="#34110D" stroke="#FFFFFF" stroke-width="0.75" stroke-miterlimit="10" d="M137,461.8"/>
			<path fill="#34110D" stroke="#FFFFFF" stroke-width="0.75" stroke-miterlimit="10" d="M134,462.4"/>
			<path fill="#34110D" stroke="#FFFFFF" stroke-width="0.75" stroke-miterlimit="10" d="M130.3,461.3"/>
			<line fill="none" stroke="#FFFFFF" stroke-width="0.75" stroke-miterlimit="10" x1="132.4" y1="462.6" x2="132.4" y2="462.6"/>
			<path fill="#34110D" stroke="#FFFFFF" stroke-width="0.75" stroke-linecap="round" stroke-miterlimit="10" d="M137.7,464.1
				c-0.1,0.2-4.2-2.1-9.2-1.4l0,0c0.4,0.8,1.1,1.6,2.9,1.4l0,0c2.4,2.3,5.7,1.5,5.7,1.5"/>
			<path fill="#34110D" stroke="#FFFFFF" stroke-width="0.75" stroke-linecap="round" stroke-miterlimit="10" d="M137.1,465.7
				c-0.1,0.2-4.6-2.4-10.3-1.5l0,0c0.5,0.9,1.2,1.8,3.3,1.5l0,0c2.7,2.6,6.4,1.6,6.3,1.7"/>
			<path fill="#34110D" stroke="#FFFFFF" stroke-width="0.75" stroke-linecap="round" stroke-miterlimit="10" d="M136.5,467.4
				c-0.1,0.2-4.2-2.1-9.2-1.4l0,0c0.4,0.8,1.1,1.6,2.9,1.4l0,0c1.4,1.4,3.9,1.6,5,1.6"/>
		</g>
		
			<line fill="none" stroke="#FFFFFF" stroke-width="0.75" stroke-linecap="round" stroke-miterlimit="10" x1="162.6" y1="470.9" x2="144.4" y2="472"/>
	</g>
	<g>
		<path fill="#34110D" stroke="#FFFFFF" stroke-width="0.75" stroke-linecap="round" stroke-miterlimit="10" d="M272.3,541
			c-13.7-10.9-18.1,14-32.5,20.8c-1,0.1-7.7,1.4-10.9,4.3l-0.4,0.6c-2,0.1-2.1,1-1.7,1.6c2.8,0.7,5.6-1.9,5.6-1.9l-0.4,1.2
			c-1.1,0.4-3.3,1.4-4.2,3.1c-1.8,0.4-2.1,1.4-2.3,2.3c1-0.2,2-0.5,2.8-0.8c0,0.1-0.1,0.1-0.1,0.2c-2,0.4-2.4,1.5-2.6,2.5
			c1-0.2,1.9-0.5,2.8-0.8c-0.5,0.5-0.7,1-0.7,1.5c1.5-0.3,2.8-0.7,3.9-1.3c0,0,0,0.1-0.1,0.1c-1.6,0.3-1.9,1.3-2.1,2.1
			c1,0.2,6.8-3,7.5-4.2l5.9-7.2c5.5-3,18.2-11.8,30.1-19.4L272.3,541z"/>
		<g>
			<path fill="#34110D" stroke="#FFFFFF" stroke-width="0.75" stroke-miterlimit="10" d="M236.1,573.8"/>
			<path fill="#34110D" stroke="#FFFFFF" stroke-width="0.75" stroke-miterlimit="10" d="M233.1,574.2"/>
			<path fill="#34110D" stroke="#FFFFFF" stroke-width="0.75" stroke-miterlimit="10" d="M229.5,576.6"/>
			<line fill="none" stroke="#FFFFFF" stroke-width="0.75" stroke-miterlimit="10" x1="231.5" y1="574.5" x2="231.5" y2="574.5"/>
			<path fill="#34110D" stroke="#FFFFFF" stroke-width="0.75" stroke-linecap="round" stroke-miterlimit="10" d="M236,571.4
				c-0.1-0.2-3.2,3.4-8.3,4.3l0,0c0.1-0.9,0.5-1.9,2.3-2.3l0,0c1.5-2.9,4.9-3.3,4.9-3.3"/>
			<path fill="#34110D" stroke="#FFFFFF" stroke-width="0.75" stroke-linecap="round" stroke-miterlimit="10" d="M234.9,570.2
				c-0.2-0.2-3.6,3.8-9.2,4.8l0,0c0.2-1,0.6-2.1,2.6-2.5l0,0c1.6-3.3,5.5-3.6,5.5-3.7"/>
			<path fill="#34110D" stroke="#FFFFFF" stroke-width="0.75" stroke-linecap="round" stroke-miterlimit="10" d="M233.8,568.7
				c-0.1-0.2-3.2,3.4-8.3,4.3l0,0c0.1-0.9,0.5-1.9,2.3-2.3l0,0c0.9-1.8,3.1-2.8,4.2-3.2"/>
		</g>
		
			<line fill="none" stroke="#FFFFFF" stroke-width="0.75" stroke-linecap="round" stroke-miterlimit="10" x1="255.2" y1="557.4" x2="239.8" y2="561.8"/>
	</g>
	<path fill="none" stroke="#FFFFFF" stroke-width="0.75" stroke-linecap="round" stroke-miterlimit="10" d="M272.9,545.8
		c-0.2-1.5-1.5-2.6-3-2.3c-1.2,0.1-2.1,1.3-1.9,2.4c0.1,0.9,1,1.6,2,1.5c0.7-0.1,1.3-0.8,1.2-1.5c-0.1-0.6-0.7-1-1.3-1
		c-0.5,0-0.8,0.5-0.8,1"/>
	
		<path fill="#34110D" stroke="#FFFFFF" stroke-width="0.75" stroke-linecap="round" stroke-linejoin="round" stroke-miterlimit="10" d="
		M242.8,605.2c0-0.4-0.5-0.7-0.9-0.6c-0.5,0.1-0.9,0.6-0.8,1.1c0.1,0.7,0.7,1.1,1.4,1c0.4,0,0.8-0.3,1-0.7c0.2-0.3,0.3-0.7,0.2-1.1
		c-0.1-1-1.1-1.7-2.1-1.5c-1.3,0.2-2.1,1.4-1.9,2.7c0.2,1.6,1.5,2.5,3.1,2.6l0.7-2.6"/>
</g>
</svg>
