<?xml version="1.0" encoding="utf-8"?>
<!-- Generator: Adobe Illustrator 18.1.1, SVG Export Plug-In . SVG Version: 6.00 Build 0)  -->
<svg version="1.1" id="Layer_1" xmlns="http://www.w3.org/2000/svg" xmlns:xlink="http://www.w3.org/1999/xlink" x="0px" y="0px"
	 viewBox="508 425 156.7 245.5" enable-background="new 508 425 156.7 245.5" xml:space="preserve">
<g>
	<g>
		<path fill="#34110D" stroke="#FFFFFF" stroke-width="0.75" stroke-linecap="round" stroke-miterlimit="10" d="M563.6,517.8
			c9.3-0.5,21.4-1.4,28.5-6.4c7.1-5,13.9-12,10.6-18.3l-0.2-0.5c-5.6-7.8-26.6,5.4-42,18.9C553.9,517.4,566.6,522.5,563.6,517.8z"/>
		<path fill="none" stroke="#FFFFFF" stroke-width="0.75" stroke-miterlimit="10" d="M567.6,514.3c21-1.3,30.9-10.6,31.2-15.6
			c0.2-2.5-1.2-4.8-3.7-5.2c-2-0.3-3.8,1-4.2,2.9c-0.3,1.6,0.8,3.1,2.3,3.4c1.3,0.2,2.7-0.5,2.9-1.7"/>
		<g>
			<g>
				<path fill="#34110D" stroke="#FFFFFF" stroke-width="0.75" stroke-linecap="round" stroke-miterlimit="10" d="M561.6,510.7
					c17.4,1.4,3.6,22.6,9.5,37.4c0.7,0.8,4.7,6.3,5,10.6l-0.1,0.7c1.4,1.4,0.8,2.1,0.1,2.4c-2.5-1.4-2.8-5.2-2.8-5.2l-0.6,1.1
					c0.6,1,1.5,3.2,0.9,5.1c1,1.5,0.6,2.5,0.1,3.2c-0.6-0.8-1.1-1.7-1.5-2.5c0,0.1,0,0.2,0,0.3c1.2,1.7,0.7,2.8,0.1,3.6
					c-0.6-0.8-1.1-1.6-1.5-2.5c0,0.7-0.2,1.2-0.5,1.6c-0.9-1.2-1.5-2.5-2-3.6c0,0,0,0.1,0,0.2c0.9,1.4,0.5,2.2,0,2.9
					c-0.9-0.6-2.9-6.9-2.7-8.2l0.7-9.3c-1.9-5.9-5.2-21.1-8.8-34.7L561.6,510.7z"/>
				<g>
					<path fill="#34110D" stroke="#FFFFFF" stroke-width="0.75" stroke-miterlimit="10" d="M565.6,559.4"/>
					<path fill="#34110D" stroke="#FFFFFF" stroke-width="0.75" stroke-miterlimit="10" d="M567.6,561.6"/>
					<path fill="#34110D" stroke="#FFFFFF" stroke-width="0.75" stroke-miterlimit="10" d="M568.5,565.9"/>
					<line fill="none" stroke="#FFFFFF" stroke-width="0.75" stroke-miterlimit="10" x1="568.4" y1="562.9" x2="568.4" y2="562.9"/>
					<path fill="#34110D" stroke="#FFFFFF" stroke-width="0.75" stroke-linecap="round" stroke-miterlimit="10" d="M567.3,557.7
						c0.2,0,0,4.7,3.1,8.8l0,0c0.5-0.7,0.9-1.7-0.1-3.2l0,0c0.9-3.2-1.4-5.7-1.4-5.7"/>
					<path fill="#34110D" stroke="#FFFFFF" stroke-width="0.75" stroke-linecap="round" stroke-miterlimit="10" d="M569,557.5
						c0.3,0,0,5.2,3.5,9.8l0,0c0.6-0.8,1-1.9-0.1-3.6l0,0c1.1-3.5-1.5-6.4-1.5-6.4"/>
					<path fill="#34110D" stroke="#FFFFFF" stroke-width="0.75" stroke-linecap="round" stroke-miterlimit="10" d="M570.7,557.2
						c0.2,0,0,4.7,3.1,8.8l0,0c0.5-0.7,0.9-1.7-0.1-3.2l0,0c0.6-1.9-0.4-4.2-0.9-5.2"/>
				</g>
				
					<line fill="none" stroke="#FFFFFF" stroke-width="0.75" stroke-linecap="round" stroke-miterlimit="10" x1="562.8" y1="534.3" x2="571.1" y2="548"/>
			</g>
			<path fill="none" stroke="#FFFFFF" stroke-width="0.75" stroke-linecap="round" stroke-miterlimit="10" d="M557.9,513.7
				c1.2-1,2.8-0.8,3.8,0.4c0.7,0.9,0.7,2.3-0.3,3.1c-0.7,0.6-1.8,0.5-2.4-0.2c-0.5-0.6-0.4-1.4,0.2-2c0.5-0.4,1.2-0.3,1.6,0.1
				c0.3,0.4,0.3,0.9-0.1,1.3"/>
		</g>
	</g>
	<path fill="none" stroke="#221E20" stroke-width="0.75" stroke-linecap="round" stroke-miterlimit="10" d="M630.1,617.9"/>
	<path fill="#34110D" stroke="#FFFFFF" stroke-width="0.75" stroke-linecap="round" stroke-miterlimit="10" d="M588.5,625.3
		c0-0.4-1.8-3.1-1.8-3.5c0-1.7,0.9-16.1,0.7-20.5l20.8-6.8v-5.4c-11.2,4.3-22,8.1-22.8,8.4c-2-3-6-1.4-9.4-0.2l8.3,23.7l1.7,4.9
		C587,627.2,588.5,626.9,588.5,625.3z"/>
	
		<path fill="#34110D" stroke="#FFFFFF" stroke-width="0.75" stroke-linecap="round" stroke-linejoin="round" stroke-miterlimit="10" d="
		M631.8,584.4c6.9,9.1-7.9,11.9-44.4,17C602.2,593.4,622.2,571,631.8,584.4L631.8,584.4z"/>
	
		<path fill="#34110D" stroke="#FFFFFF" stroke-width="0.75" stroke-linecap="round" stroke-linejoin="round" stroke-miterlimit="10" d="
		M632.5,588.9c0.1-0.4-0.1-0.8-0.5-0.9c-0.5-0.1-1,0.1-1.2,0.7c-0.2,0.6,0.2,1.3,0.8,1.4c0.4,0.1,0.8,0,1.2-0.1
		c0.3-0.2,0.6-0.5,0.7-0.9c0.3-1-0.3-2-1.3-2.3c-1.2-0.4-2.5,0.4-2.8,1.6c-0.4,1.5,0.3,2.9,1.7,3.6l1.6-1.5l0.1-0.6"/>
	
		<path fill="#34110D" stroke="#FFFFFF" stroke-width="0.75" stroke-linecap="round" stroke-linejoin="round" stroke-miterlimit="10" d="
		M619.1,583.2c-13.3-0.7-33.7-7.7-32.6-15.6c-4.7,2.8-9,1.2-13.7-3c-4.7-4.2-6.4-11-4.2-15.3l11.2-9.4c7.2,0,19.8,6.2,31.9,20
		c8.3,9.4,11.1,13.1,13.7,16.4l6.5,8.1L619.1,583.2"/>
	<polyline fill="#34110D" stroke="#FFFFFF" stroke-width="0.75" stroke-linecap="round" stroke-miterlimit="10" points="
		544.3,650.1 543.8,654.3 525.1,637.5 	"/>
	<path fill="none" stroke="#221E20" stroke-width="0.75" stroke-linecap="round" stroke-miterlimit="10" d="M541.1,651.9"/>
	<path fill="#34110D" stroke="#FFFFFF" stroke-width="0.75" stroke-linecap="round" stroke-miterlimit="10" d="M549.6,655.8
		c-0.2-0.3-3.1-1.9-3.3-2.2c-0.9-1.5-7-14.6-9.4-18.3l14.8-16l-5.1-1.7c-7.7,9.2-12.7,14.8-13.3,15.5c-3.2-1.7-5.9,1.7-8.3,4.4
		l18.7,16.8l3.9,3.5C549.1,658.2,550.4,657.2,549.6,655.8z"/>
	
		<path fill="#34110D" stroke="#FFFFFF" stroke-width="0.75" stroke-linecap="round" stroke-linejoin="round" stroke-miterlimit="10" d="
		M567.3,612.7c-15.9,12.7-25.3,19.3-30.4,22.8c9.1-14.1,20.3-46,31.6-35.5L567.3,612.7z"/>
	
		<path fill="#34110D" stroke="#FFFFFF" stroke-width="0.75" stroke-linecap="round" stroke-linejoin="round" stroke-miterlimit="10" d="
		M563.5,599.8c-4.8-12.5-6.6-33.9,1-36.2c-4.5-3.2-4.8-7.7-2.8-13.8c1.9-6,7.5-10.3,12.3-10l13.2,6.4c1.5,6.4,2.3,20.6-5.3,37.2
		c-5.2,11.4-7.5,15.5-9.4,19.2l-4.8,9.2L563.5,599.8"/>
	
		<path fill="#34110D" stroke="#FFFFFF" stroke-width="0.75" stroke-linecap="round" stroke-linejoin="round" stroke-miterlimit="10" d="
		M566.4,612.2c0.2-0.4,0.1-0.8-0.3-1c-0.5-0.3-1-0.1-1.3,0.3c-0.3,0.6-0.1,1.3,0.4,1.6c0.4,0.2,0.8,0.2,1.2,0.1
		c0.3-0.1,0.7-0.3,0.8-0.7c0.5-0.9,0.2-2-0.7-2.5c-1.1-0.7-2.5-0.3-3.2,0.8c-0.8,1.4-0.5,2.9,0.7,4l2.2-1.6"/>
	<path fill="none" stroke="#221E20" stroke-width="0.75" stroke-linecap="round" stroke-miterlimit="10" d="M625.1,523"/>
	<path fill="none" stroke="#221E20" stroke-width="0.75" stroke-linecap="round" stroke-miterlimit="10" d="M618.8,559.4"/>
	<path fill="#34110D" stroke="#FFFFFF" stroke-width="0.75" stroke-linecap="round" stroke-miterlimit="10" d="M619.8,509.5
		c-7.4-5.2-11.1-10.8-9.4-14.6l-1.7-6.9l-8-7.4c0.1,4.1,2.2,10.8-12.5,9.8L594,513l22.8-0.5L619.8,509.5"/>
	<path fill="#34110D" stroke="#FFFFFF" stroke-width="0.75" stroke-linecap="round" stroke-miterlimit="10" d="M568.1,542.6
		c6.2-5.2,12.7-20.4,10.3-36.8l1-0.8l5.5,8.1l9.2,23.6l-1.9,11l-10.2,2l-19.1,14L568.1,542.6z"/>
	<path fill="#34110D" stroke="#FFFFFF" stroke-width="0.75" stroke-linecap="round" stroke-miterlimit="10" d="M580.8,494.4
		c-1.5,4.7-3.2,10.8-1.4,17.8c3.2,12.4,10.4,19.9,10.7,32.6l-6.3,12.1l-0.6,5.7c20.4-24.3,27.7-34.2,36.7-53.2"/>
	<polygon fill="#34110D" stroke="#FFFFFF" stroke-width="0.75" stroke-linecap="round" stroke-miterlimit="10" points="600.9,482.5 
		602.5,501.6 606,503.2 607.5,492.6 	"/>
	<path fill="#34110D" stroke="#FFFFFF" stroke-width="0.75" stroke-linecap="round" stroke-miterlimit="10" d="M608.4,493.3
		l-1.5,10.5c-0.8-0.4-3.9-9.5-1.8-13.9L608.4,493.3z"/>
	<path fill="#34110D" stroke="#FFFFFF" stroke-width="0.75" stroke-linecap="round" stroke-miterlimit="10" d="M605.9,532.9
		c10.1-3.5,13.2-11.3,13.9-23.5l-34.9-18c-12,10.3-7.7,32.6,15.1,39.1c0.5,0.1,5.7-5.2,5.7-5.2L605.9,532.9z"/>
	
		<line fill="none" stroke="#FFFFFF" stroke-width="0.75" stroke-linecap="round" stroke-miterlimit="10" x1="609.4" y1="517.1" x2="605.6" y2="525.8"/>
	<path fill="none" stroke="#FFFFFF" stroke-width="0.75" stroke-linecap="round" stroke-miterlimit="10" d="M605.7,515.5"/>
	<path fill="none" stroke="#FFFFFF" stroke-width="0.75" stroke-linecap="round" stroke-miterlimit="10" d="M605.7,515.5"/>
	<path fill="none" stroke="#FFFFFF" stroke-width="0.75" stroke-linecap="round" stroke-miterlimit="10" d="M603.1,532.2
		c-4.6,8.3-10.7,15.5-18,20.8"/>
	<path fill="none" stroke="#221E20" stroke-width="0.75" stroke-linecap="round" stroke-miterlimit="10" d="M619.1,505.8"/>
	<path fill="#34110D" stroke="#FFFFFF" stroke-width="0.75" stroke-linecap="round" stroke-miterlimit="10" d="M561.2,552.4
		c1.6-8.3,5.9-12.3,11.3-11.8l24.2,5.7c-7.5,28.5-38.9,19-38.9,19L561.2,552.4z"/>
	<path fill="none" stroke="#FFFFFF" stroke-width="0.75" stroke-linecap="round" stroke-miterlimit="10" d="M581.8,543.1
		c-1.2,4-3.6,10.3-8.8,16.4"/>
	<path fill="none" stroke="#FFFFFF" stroke-width="0.75" stroke-linecap="round" stroke-miterlimit="10" d="M612.4,554.6"/>
	<path fill="none" stroke="#FFFFFF" stroke-width="0.75" stroke-linecap="round" stroke-miterlimit="10" d="M609.4,517.1
		c0-1.1-0.1-2.2-0.5-3.3c-1.3-3.5-5.1-5.3-8.6-4.1c-2.8,1-4.2,4.1-3.2,6.9c0.8,2.2,3.3,3.4,5.5,2.6c1.8-0.7,2.7-2.6,2.1-4.4
		c-0.5-1.4-2.1-2.2-3.5-1.7"/>
	<path fill="none" stroke="#FFFFFF" stroke-width="0.75" stroke-linecap="round" stroke-miterlimit="10" d="M609.3,517.3
		c0.4-0.6,0.9-1,1.4-1.4c1.9-1.2,4.4-0.7,5.6,1.2c1,1.5,0.5,3.5-1,4.5c-1.2,0.8-2.8,0.4-3.6-0.8c-0.6-1-0.3-2.3,0.7-2.9
		c0.8-0.5,1.8-0.3,2.3,0.5"/>
	
		<path fill="#B14A17" stroke="#FFFFFF" stroke-width="0.75" stroke-linecap="round" stroke-linejoin="round" stroke-miterlimit="10" d="
		M619.9,462.5L619.9,462.5c0-4.2-2.2-7.2-6.1-8.5c-3.2-1-9.3-0.7-11.6,5.9c-1.9,5.5,0.8,11.6,3.3,12.6c2.3,0.9,6.4-0.7,8.7-1.7
		l0.7,0.2c0.3,0.5,0.6,0.9,1,1.3c0.8,0.9,1.8,1.6,3,2.1l0.1-2l5.6,2C627.8,470.3,623,463.5,619.9,462.5z"/>
	<path fill="none" d="M616.4,460"/>
	<path fill="none" stroke="#FFFFFF" stroke-width="0.75" stroke-linecap="round" stroke-miterlimit="10" d="M619.8,461.3
		c0.3,2.4-1.5,4.7-4,4.9c-2,0.2-3.7-1.2-3.9-3.1c-0.2-1.5,0.9-2.9,2.5-3.1c1.3-0.1,2.4,0.7,2.5,2c0.1,1-0.6,1.9-1.6,2
		c-0.8,0.1-1.5-0.5-1.6-1.3c0-0.7,0.4-1.2,1-1.3c0.5,0,1,0.3,1,0.8c0,0.4-0.2,0.8-0.7,0.8"/>
	<path fill="#34110D" stroke="#FFFFFF" stroke-width="0.75" stroke-linecap="round" stroke-miterlimit="10" d="M624.6,474.4
		c0.3-3.5-13-7.9-14.6-4.1l-0.2,0.6c-0.7,1.6-2.5,2.4-4.1,1.7c-1.6-0.7-2-2.9-2-2.9l-1.3,3.4c-1.4,3.4-2.4,6.1-1.3,11
		c1.3,5.6,6.2,9.9,10.7,11.4c4,1.4,5.5-0.9,5.2-2.4c-0.2-1.2-1.2-2.1-1.5-2.6l1.3-0.2l-1.1-1.4l2-0.7l-0.2-1.2l3.3,1.3L624.6,474.4"
		/>
	<path fill="#34110D" stroke="#FFFFFF" stroke-width="0.75" stroke-linecap="round" stroke-miterlimit="10" d="M619.7,476.3
		c0,0.1-2.3,0.8-4.4,0c-2.1-0.8-3.4-2.8-3.3-2.9c0.1-0.2,2.3-0.8,4.4,0C618.6,474.2,619.7,476.3,619.7,476.3z"/>
	<path fill="none" stroke="#FFFFFF" stroke-width="0.75" stroke-linecap="round" stroke-miterlimit="10" d="M617.6,484.5
		c0.1,0.3,0.5,0.4,0.8,0.2c0.4-0.2,0.5-0.7,0.3-1c-0.2-0.5-0.8-0.7-1.3-0.4c-0.6,0.3-0.8,1-0.5,1.6c0.4,0.7,1.3,0.9,2,0.6
		c0.7-0.2,0.9-1.2,0.9-1.2l2.7-8.9"/>
	<path fill="none" stroke="#FFFFFF" stroke-width="0.75" stroke-linecap="round" stroke-miterlimit="10" d="M604,482.5L604,482.5
		c-4.5-1-3.1-7.8-0.7-9l0,0c1.8-1,3.5-0.2,4.2,1.3c0.6,1.2-0.3,2.8-1.5,3.4c-1,0.4-2.1,0-2.6-1c-0.3-0.8,0-1.7,0.8-2.1
		c0.6-0.3,1.4,0,1.6,0.6c0.2,0.5,0,1.1-0.5,1.3"/>
	
		<circle fill="#34110D" stroke="#FFFFFF" stroke-width="0.75" stroke-linecap="round" stroke-miterlimit="10" cx="615.8" cy="474.8" r="1"/>
	<path fill="#34110D" stroke="#FFFFFF" stroke-width="0.75" stroke-linecap="round" stroke-miterlimit="10" d="M601.6,464.9
		c13.7,8.7,23.3,9.2,23.3,9.2c0.8-1.2,1-2.9,0.8-3.7c-4.1-0.1-13.5-3.5-23.8-9.3l0,0c-0.4,1.9-0.2,2.8-0.3,3.4L601.6,464.9z"/>
	<path fill="#34110D" stroke="#FFFFFF" stroke-width="0.5" stroke-miterlimit="10" d="M632,489.9"/>
	<path fill="none" stroke="#221E20" stroke-width="0.75" stroke-linecap="round" stroke-miterlimit="10" d="M570,528.9"/>
	<path fill="none" stroke="#FFFFFF" stroke-width="0.75" stroke-linecap="round" stroke-miterlimit="10" d="M598.1,530.1
		c4.2-20.7-2.1-32.6-6.9-34.2c-2.3-0.8-4.9-0.1-6,2.2c-0.8,1.8,0,4,1.7,4.8c1.4,0.7,3.2,0,3.8-1.4c0.6-1.2,0-2.5-1.1-3.1"/>
	<g>
		<path fill="#34110D" d="M607.8,530.6c-0.3-9.3-1-21.5-5.8-28.6c-4.9-7.2-11.8-14.1-18-11l-0.5,0.2c-9.9,6.7,4.9,26.7,18,42.3
			C607.2,540.3,612.5,527.7,607.8,530.6z"/>
		<path fill="none" stroke="#FFFFFF" stroke-width="0.75" stroke-miterlimit="10" d="M604.4,526.5c-0.9-21.1-10-31.1-15-31.5
			c-2.5-0.2-4.8,1.1-5.3,3.5c-0.4,2,0.9,3.9,2.8,4.2c1.6,0.3,3.1-0.7,3.4-2.3c0.2-1.3-0.4-2.7-1.6-2.9"/>
		
			<path fill="none" stroke="#FFFFFF" stroke-width="0.75" stroke-linecap="round" stroke-linejoin="round" stroke-miterlimit="10" d="
			M607.8,530.6c-0.3-9.3-1-21.5-5.8-28.6c-4.9-7.2-12.1-14.4-18.5-10.8l0,0c-10.3,7,4.7,26.5,19.8,44.4c1.3,1.5,1.5-2.1,0,0
			C602.4,536.6,606.1,532.1,607.8,530.6z"/>
		<g>
			<g>
				<path fill="#34110D" stroke="#FFFFFF" stroke-width="0.75" stroke-linecap="round" stroke-miterlimit="10" d="M600.6,532.4
					c1.7-17.4,22.7-3.2,37.5-8.8c0.8-0.7,6.4-4.6,10.7-4.8l0.7,0.1c1.4-1.4,2.1-0.7,2.4-0.1c-1.5,2.5-5.3,2.7-5.3,2.7l1.1,0.6
					c1.1-0.6,3.3-1.4,5.2-0.8c1.5-1,2.5-0.6,3.2,0c-0.8,0.6-1.7,1.1-2.6,1.4c0.1,0,0.2,0,0.3,0c1.7-1.1,2.8-0.7,3.6-0.1
					c-0.8,0.6-1.7,1.1-2.5,1.4c0.7,0,1.2,0.2,1.6,0.6c-1.2,0.9-2.5,1.4-3.7,1.9c0,0,0.1,0,0.2,0c1.4-0.9,2.3-0.5,2.9,0
					c-0.6,0.9-6.9,2.8-8.3,2.5l-9.3-0.8c-5.9,1.8-21.2,4.8-34.9,8.1L600.6,532.4z"/>
				<g>
					<path fill="#34110D" stroke="#FFFFFF" stroke-width="0.75" stroke-miterlimit="10" d="M649.4,529.4"/>
					<path fill="#34110D" stroke="#FFFFFF" stroke-width="0.75" stroke-miterlimit="10" d="M651.7,527.5"/>
					<path fill="#34110D" stroke="#FFFFFF" stroke-width="0.75" stroke-miterlimit="10" d="M655.9,526.7"/>
					<line fill="none" stroke="#FFFFFF" stroke-width="0.75" stroke-miterlimit="10" x1="653" y1="526.7" x2="653" y2="526.7"/>
					<path fill="#34110D" stroke="#FFFFFF" stroke-width="0.75" stroke-linecap="round" stroke-miterlimit="10" d="M647.7,527.6
						c0-0.2,4.7,0,8.8-2.9l0,0c-0.7-0.5-1.7-0.9-3.2,0l0,0c-3.1-1-5.7,1.3-5.7,1.2"/>
					<path fill="#34110D" stroke="#FFFFFF" stroke-width="0.75" stroke-linecap="round" stroke-miterlimit="10" d="M647.5,526
						c0-0.3,5.2,0,9.9-3.3l0,0c-0.8-0.6-1.9-1.1-3.6,0.1l0,0c-3.5-1.1-6.4,1.4-6.4,1.4"/>
					<path fill="#34110D" stroke="#FFFFFF" stroke-width="0.75" stroke-linecap="round" stroke-miterlimit="10" d="M647.3,524.2
						c0-0.2,4.7,0,8.8-2.9l0,0c-0.7-0.5-1.7-0.9-3.2,0l0,0c-1.9-0.6-4.2,0.3-5.2,0.8"/>
				</g>
				
					<line fill="none" stroke="#FFFFFF" stroke-width="0.75" stroke-linecap="round" stroke-miterlimit="10" x1="624.3" y1="531.7" x2="638.2" y2="523.7"/>
			</g>
			<path fill="none" stroke="#FFFFFF" stroke-width="0.75" stroke-linecap="round" stroke-miterlimit="10" d="M603.6,536.2
				c-0.9-1.2-0.7-2.9,0.4-3.8c0.9-0.7,2.3-0.6,3,0.3c0.6,0.7,0.5,1.9-0.3,2.4c-0.6,0.5-1.5,0.4-2-0.2c-0.4-0.5-0.3-1.2,0.2-1.6
				c0.4-0.3,0.9-0.2,1.3,0.1"/>
		</g>
	</g>
	<path fill="none" stroke="#FFFFFF" stroke-width="0.75" stroke-linecap="round" stroke-miterlimit="10" d="M565.1,570
		c-4,10.4-1.1,26.5,3.1,28.4c1.4,0.6,3,0,3.6-1.3c0.5-1.1,0-2.4-1-2.9c-0.9-0.4-1.9,0-2.3,0.8c-0.3,0.7,0,1.5,0.7,1.9"/>
	<path fill="none" stroke="#FFFFFF" stroke-width="0.75" stroke-linecap="round" stroke-miterlimit="10" d="M590,567.1
		c7.2,8.4,22.8,13.7,26.4,10.9c1.2-0.9,1.5-2.6,0.6-3.8c-0.7-1-2.1-1.2-3-0.5c-0.8,0.6-0.9,1.7-0.4,2.4c0.5,0.6,1.3,0.7,2,0.3"/>
</g>
</svg>
