<?xml version="1.0" encoding="utf-8"?>
<!-- Generator: Adobe Illustrator 18.1.1, SVG Export Plug-In . SVG Version: 6.00 Build 0)  -->
<svg version="1.1" id="Layer_1" xmlns="http://www.w3.org/2000/svg" xmlns:xlink="http://www.w3.org/1999/xlink" x="0px" y="0px"
	 viewBox="915.3 425 193.3 245.5" enable-background="new 915.3 425 193.3 245.5" xml:space="preserve">
<g>
	<polyline fill="#34110D" stroke="#FFFFFF" stroke-width="0.75" stroke-linecap="round" stroke-miterlimit="10" points="
		953.4,635.5 951.1,639 941.5,615.8 	"/>
	<path fill="none" stroke="#221E20" stroke-width="0.75" stroke-linecap="round" stroke-miterlimit="10" d="M949.8,635.7"/>
	<path fill="#34110D" stroke="#FFFFFF" stroke-width="0.75" stroke-linecap="round" stroke-miterlimit="10" d="M955.7,643
		c0-0.4-2-3-2-3.4c-0.1-1.7,0-16.1-0.6-20.5l20.3-8l-3.9-3.8c-11,5-17.9,7.8-18.7,8.2c-2.1-2.9-6.1-1-9.4,0.4l9.6,23.2l2,4.8
		C954.2,644.9,955.8,644.6,955.7,643z"/>
	
		<path fill="#34110D" stroke="#FFFFFF" stroke-width="0.75" stroke-linecap="round" stroke-linejoin="round" stroke-miterlimit="10" d="
		M992.3,608.7c-19.9,4.6-33.1,9.4-39.2,10.3c14.3-8.8,38.1-39.1,43.7-24.8L992.3,608.7z"/>
	<path fill="#34110D" d="M1037.8,514.6c-9.3,0.3-21.5,0.5-29-3.9c-7.5-4.3-14.9-10.7-12.2-17.3l0.2-0.5c6-10.3,27,3,43.5,15.1
		c2.4,1.8,2.5,1.9,1.8,3.4C1040.8,514.4,1036.2,517.8,1037.8,514.6z"/>
	<path fill="none" stroke="#FFFFFF" stroke-width="0.75" stroke-miterlimit="10" d="M1033.5,511.5c-21.1,0.6-31.7-7.8-32.5-12.8
		c-0.4-2.5,0.8-4.9,3.2-5.5c1.9-0.5,3.9,0.7,4.4,2.6c0.4,1.5-0.5,3.1-2.1,3.5c-1.2,0.3-2.8-0.2-3.1-1.4"/>
	
		<path fill="none" stroke="#FFFFFF" stroke-width="0.75" stroke-linecap="round" stroke-linejoin="round" stroke-miterlimit="10" d="
		M1037.8,514.6c-9.3,0.3-21.5,0.5-29-3.9c-7.5-4.3-14.9-10.7-12.2-17.3l0.2-0.5c5.9-10.1,26.4,2.7,45.3,16.5
		C1043.7,510.7,1039.2,512.8,1037.8,514.6z"/>
	<g>
		<path fill="#34110D" d="M985.9,529.1c5-7.8,11.7-18,19.5-21.7c7.8-3.7,17.3-6.2,21.2-0.4l0.3,0.4c5.1,10.8-17.7,20.6-37,27.4
			C981.5,537.7,983.3,524.2,985.9,529.1z"/>
		<path fill="none" stroke="#FFFFFF" stroke-width="0.75" stroke-miterlimit="10" d="M991,527.3c11.4-17.7,24.3-21.7,28.9-19.6
			c2.2,1.1,3.6,3.4,2.8,5.7c-0.7,1.9-2.7,2.8-4.6,2.2c-1.5-0.5-2.3-2.2-1.8-3.7c0.4-1.2,1.7-2.1,2.9-1.7"/>
		
			<path fill="none" stroke="#FFFFFF" stroke-width="0.75" stroke-linecap="round" stroke-linejoin="round" stroke-miterlimit="10" d="
			M985.9,529.1c5-7.8,11.7-18,19.5-21.7c7.8-3.7,17.3-6.2,21.2-0.4l0.3,0.4c5,10.6-17.4,20.5-39.5,28.3c-1.9,0.7-0.3-2.5,0,0
			C987.5,537,986.6,531.2,985.9,529.1z"/>
		<g>
			<g>
				<path fill="#34110D" stroke="#FFFFFF" stroke-width="0.75" stroke-linecap="round" stroke-miterlimit="10" d="M991.2,534.3
					c7.3-15.9-18-14.2-27.9-26.6c-0.3-1-3.2-7.2-6.8-9.5l-0.7-0.3c-0.6-1.9-1.4-1.7-2-1.3c0,2.9,3.2,5,3.2,5l-1.3,0
					c-0.7-1-2.1-2.8-4.1-3.3c-0.8-1.6-1.9-1.8-2.8-1.7c0.4,0.9,0.9,1.8,1.5,2.5c-0.1,0-0.2,0-0.3-0.1c-0.9-1.9-2.1-2-3.1-1.9
					c0.4,0.9,0.9,1.8,1.4,2.5c-0.6-0.3-1.1-0.4-1.6-0.3c0.6,1.4,1.4,2.5,2.2,3.5c0,0-0.1,0-0.2,0c-0.7-1.5-1.7-1.5-2.5-1.5
					c0,1.1,4.6,5.9,5.8,6.3l8.4,4c4.2,4.6,15.9,14.8,26,24.6L991.2,534.3z"/>
				<g>
					<path fill="#34110D" stroke="#FFFFFF" stroke-width="0.75" stroke-miterlimit="10" d="M950.6,507"/>
					<path fill="#34110D" stroke="#FFFFFF" stroke-width="0.75" stroke-miterlimit="10" d="M949.6,504.2"/>
					<path fill="#34110D" stroke="#FFFFFF" stroke-width="0.75" stroke-miterlimit="10" d="M946.4,501.3"/>
					<line fill="none" stroke="#FFFFFF" stroke-width="0.75" stroke-miterlimit="10" x1="948.9" y1="502.8" x2="948.9" y2="502.8"/>
					<path fill="#34110D" stroke="#FFFFFF" stroke-width="0.75" stroke-linecap="round" stroke-miterlimit="10" d="M953,506.3
						c0.1-0.2-4.1-2.3-6.2-7l0,0c0.9,0,2,0,2.8,1.7l0,0c3.2,0.7,4.3,4,4.3,4"/>
					<path fill="#34110D" stroke="#FFFFFF" stroke-width="0.75" stroke-linecap="round" stroke-miterlimit="10" d="M953.9,505
						c0.1-0.2-4.5-2.6-6.9-7.8l0,0c1-0.1,2.2,0,3.1,1.9l0,0c3.6,0.8,4.9,4.5,4.9,4.4"/>
					<path fill="#34110D" stroke="#FFFFFF" stroke-width="0.75" stroke-linecap="round" stroke-miterlimit="10" d="M955.1,503.6
						c0.1-0.2-4.1-2.3-6.2-7l0,0c0.9,0,2,0,2.8,1.7l0,0c2,0.4,3.5,2.4,4.1,3.4"/>
				</g>
				
					<line fill="none" stroke="#FFFFFF" stroke-width="0.75" stroke-linecap="round" stroke-miterlimit="10" x1="971.1" y1="521.7" x2="963.2" y2="507.7"/>
			</g>
			<path fill="none" stroke="#FFFFFF" stroke-width="0.75" stroke-linecap="round" stroke-miterlimit="10" d="M986.7,536
				c1.4-0.6,2.1-2.1,1.5-3.5c-0.4-1.1-1.7-1.7-2.8-1.3c-0.9,0.3-1.4,1.4-1,2.2c0.3,0.7,1.1,1.1,1.8,0.8c0.6-0.2,0.8-0.9,0.7-1.4
				c-0.2-0.5-0.7-0.7-1.2-0.5"/>
		</g>
	</g>
	<path fill="#34110D" stroke="#FFFFFF" stroke-width="0.75" stroke-linecap="round" stroke-miterlimit="10" d="M1027.2,624.1
		c0-0.4,1.6-3.2,1.6-3.6c0-1.7-1.7-16-1.6-20.5l-21-5.8l-0.2-5.4c11.4,3.8,22.3,7.1,23.2,7.4c1.8-3.1,6-1.6,9.3-0.7l-7.1,24.1
		l-1.4,4.9C1028.9,625.9,1027.3,625.7,1027.2,624.1z"/>
	
		<path fill="#34110D" stroke="#FFFFFF" stroke-width="0.75" stroke-linecap="round" stroke-linejoin="round" stroke-miterlimit="10" d="
		M982.1,585.2c-6.5,9.4,8.5,11.6,45.2,14.8C1012.1,592.8,991.1,571.4,982.1,585.2L982.1,585.2z"/>
	
		<path fill="#34110D" stroke="#FFFFFF" stroke-width="0.75" stroke-linecap="round" stroke-linejoin="round" stroke-miterlimit="10" d="
		M981.6,589.9c-0.1-0.4,0.1-0.8,0.5-1c0.5-0.2,1,0.1,1.2,0.6c0.2,0.6-0.1,1.3-0.7,1.5c-0.4,0.1-0.8,0.1-1.2-0.1
		c-0.3-0.2-0.6-0.5-0.7-0.8c-0.3-1,0.2-2,1.2-2.3c1.2-0.4,2.5,0.2,2.9,1.4c0.5,1.5-0.1,2.9-1.5,3.7l-1.7-1.4l-0.2-0.6"/>
	
		<path fill="#34110D" stroke="#FFFFFF" stroke-width="0.75" stroke-linecap="round" stroke-linejoin="round" stroke-miterlimit="10" d="
		M994.7,583.4c13.3-1.4,33.3-9.3,31.9-17.1c4.9,2.6,9,0.8,13.6-3.6c4.5-4.4,5.9-11.3,3.5-15.5l-11.7-8.9
		c-7.2,0.3-19.4,7.1-30.9,21.5c-7.9,9.8-10.5,13.6-12.9,17l-6.1,8.4L994.7,583.4"/>
	<path fill="none" stroke="#221E20" stroke-width="0.75" stroke-linecap="round" stroke-miterlimit="10" d="M996.2,561.8"/>
	<path fill="none" stroke="#FFFFFF" stroke-width="0.75" stroke-linecap="round" stroke-miterlimit="10" d="M1001.8,556"/>
	<path fill="none" stroke="#FFFFFF" stroke-width="0.75" stroke-linecap="round" stroke-miterlimit="10" d="M1023.1,566
		c-6.8,8.8-22.1,14.7-25.9,12.1c-1.3-0.8-1.6-2.5-0.8-3.8c0.7-1,2-1.3,3-0.6c0.8,0.5,1,1.6,0.5,2.4c-0.4,0.7-1.3,0.8-1.9,0.4"/>
	<g>
		
			<path fill="#34110D" stroke="#FFFFFF" stroke-width="0.75" stroke-linecap="round" stroke-linejoin="round" stroke-miterlimit="10" d="
			M993,592.1c-10.9-7.7-24.2-23.9-15.7-29.8c-4.9,0.1-9.7-3.9-11.4-9.9c-1.7-6,0-12.8,4.2-15.2l14.1-2.9c4.8,4.5,11.9,16,14.9,34.1
			c2,12.4,2.4,17,2.9,21.1l1,9.2L993,592.1"/>
		<path fill="none" stroke="#FFFFFF" stroke-width="0.75" stroke-linecap="round" stroke-miterlimit="10" d="M978.3,568.9
			c4.9,14,14.1,19.8,17.5,19.1c1.7-0.4,3-1.7,2.8-3.5c-0.1-1.4-1.4-2.4-2.8-2.3c-1.1,0.1-1.9,1.1-1.8,2.2c0.1,0.9,0.9,1.5,1.8,1.4"
			/>
	</g>
	<polyline fill="#34110D" stroke="#FFFFFF" stroke-width="0.75" stroke-linecap="round" stroke-miterlimit="10" points="1009,642.2 
		1011.2,645.8 986.1,644.7 	"/>
	<path fill="none" stroke="#221E20" stroke-width="0.75" stroke-linecap="round" stroke-miterlimit="10" d="M1007.7,645.7"/>
	<path fill="#34110D" stroke="#FFFFFF" stroke-width="0.75" stroke-linecap="round" stroke-miterlimit="10" d="M1016.8,643.3
		c-0.3-0.1-3.5,0.5-3.9,0.4c-1.6-0.6-14.6-6.8-18.8-8.1l1.3-21.8l-5.1,1.9c-0.1,12-0.4,19.5-0.4,20.4c-3.5,0.7-3.5,5.1-3.6,8.6
		l25.1,1.1l5.2,0.2C1017.9,645.5,1018.2,644,1016.8,643.3z"/>
	
		<path fill="#34110D" stroke="#FFFFFF" stroke-width="0.75" stroke-linecap="round" stroke-linejoin="round" stroke-miterlimit="10" d="
		M1003,598.7c-4.2,20-7.3,31-9,36.8c-1.9-16.6-13.6-48.5,1.8-47.4L1003,598.7z"/>
	<path fill="none" stroke="#FFFFFF" stroke-width="0.75" stroke-linecap="round" stroke-miterlimit="10" d="M1024.6,533.4
		c-14.5-15.3-15.3-28.8-12.1-32.7c1.6-1.9,4.2-2.7,6.2-1.3c1.7,1.1,2.1,3.3,1,5c-0.9,1.4-2.7,1.7-4,0.8c-1.1-0.7-1.4-2.1-0.7-3.2"/>
	<path fill="#34110D" d="M1025.2,538.7c-6.4-6.7-14.7-15.7-16.4-24.2c-1.8-8.5-1.9-18.3,4.7-20.6l0.5-0.2
		c11.7-2.4,15.8,22.1,17.7,42.5C1032.5,545,1019.8,540,1025.2,538.7z"/>
	<path fill="none" stroke="#FFFFFF" stroke-width="0.75" stroke-miterlimit="10" d="M1024.6,533.4c-14.5-15.3-15.3-28.8-12.1-32.7
		c1.6-1.9,4.2-2.7,6.2-1.3c1.7,1.1,2.1,3.3,1,5c-0.9,1.4-2.7,1.7-4,0.8c-1.1-0.7-1.7-2.2-1-3.2"/>
	
		<path fill="none" stroke="#FFFFFF" stroke-width="0.75" stroke-linecap="round" stroke-linejoin="round" stroke-miterlimit="10" d="
		M1025.2,538.7c-6.4-6.7-14.7-15.7-16.4-24.2c-1.8-8.5-1.9-18.3,4.7-20.6l0.5-0.2c11.5-2.4,15.7,21.9,18,45.1c0.2,2-2.5-0.3,0,0
		C1033.2,539,1027.4,538.5,1025.2,538.7z"/>
	
		<path fill="#B14A17" stroke="#FFFFFF" stroke-width="0.75" stroke-linecap="round" stroke-linejoin="round" stroke-miterlimit="10" d="
		M1004,448.1L1004,448.1c-0.4-4.2-3-6.9-7-7.7c-3.3-0.7-9.3,0.4-10.8,7.2c-1.3,5.7,2.1,11.5,4.7,12.1c2.4,0.6,6.2-1.4,8.4-2.7
		l0.7,0.1c0.3,0.5,0.7,0.8,1.2,1.2c0.9,0.8,2,1.4,3.2,1.7l-0.1-2l5.8,1.3C1012.8,454.9,1007.2,448.7,1004,448.1z"/>
	<path fill="none" d="M1000.3,446"/>
	<path fill="none" stroke="#FFFFFF" stroke-width="0.75" stroke-linecap="round" stroke-miterlimit="10" d="M1003.8,446.9
		c0.6,2.4-0.9,4.8-3.4,5.4c-1.9,0.4-3.8-0.7-4.2-2.7c-0.4-1.5,0.6-3,2.1-3.4c1.2-0.3,2.4,0.5,2.7,1.7c0.2,1-0.4,2-1.4,2.2
		c-0.8,0.2-1.5-0.3-1.7-1.1c-0.1-0.6,0.2-1.3,0.9-1.4c0.5-0.1,1,0.2,1.1,0.7c0.1,0.4-0.1,0.8-0.6,0.9"/>
	<path fill="#34110D" stroke="#FFFFFF" stroke-width="0.75" stroke-linecap="round" stroke-miterlimit="10" d="M969.2,481.8
		c9.1,2.3,17.9-1.2,19.6-7.9l8-0.7l1.2,8.2c-1,4,7.3,9.6,18.6,12.5"/>
	<path fill="#34110D" stroke="#FFFFFF" stroke-width="0.75" stroke-linecap="round" stroke-miterlimit="10" d="M961.4,532.1
		c13.3-0.7,10.4-25.6,4.8-34l3-0.3l5.6,3.8l13.5,21.5l-5.4,10.7l-4.1,4.4l-10.6,4.1L961.4,532.1z"/>
	<path fill="#34110D" stroke="#FFFFFF" stroke-width="0.75" stroke-linecap="round" stroke-miterlimit="10" d="M969.1,481.7
		c-4.4,11.8,3.4,24.1,4.7,25.6c8.9,9.9,5.8,28.6,7.1,32.4l1.1,5.2l0.5,5.7c2.9-2.8,31.8-37.3,34.6-56.7"/>
	
		<path fill="#34110D" stroke="#FFFFFF" stroke-width="0.75" stroke-linecap="round" stroke-linejoin="round" stroke-miterlimit="10" d="
		M991.9,591.2c-11.6-6.6-26.7-22-22.2-28.5c-5.5,0.4-8.6-2.9-10.9-8.8c-2.3-5.8-0.8-12.7,3.1-15.6l14.2-3.4
		c5.2,4,14.9,14.4,19.5,32.1c3.2,12.2,4.1,16.7,4.9,20.8l2.2,10.2L991.9,591.2"/>
	<polygon fill="#34110D" stroke="#FFFFFF" stroke-width="0.75" stroke-linecap="round" stroke-miterlimit="10" points="988.4,472.9 
		992.6,487.7 996.2,488.6 998.5,479.8 	"/>
	<path fill="#34110D" stroke="#FFFFFF" stroke-width="0.75" stroke-linecap="round" stroke-miterlimit="10" d="M998.3,480.4
		l-2.1,8.2c-0.9-0.2-3.6-4.8-2.4-9.5L998.3,480.4z"/>
	<path fill="#34110D" stroke="#FFFFFF" stroke-width="0.75" stroke-linecap="round" stroke-miterlimit="10" d="M1010.1,459.4
		c-0.1-3.5-13.9-6.3-15-2.3l-0.2,0.6c-0.5,1.7-2.1,2.7-3.8,2.2c-1.7-0.5-2.3-2.7-2.3-2.7l-0.9,3.5c-1,3.5-1.7,6.3,0,11.1
		c1.9,5.5,7.3,9.1,12,10.1c4.2,0.9,5.4-1.5,4.9-3c-0.4-1.1-1.4-2-1.8-2.4l1.3-0.3l-1.3-1.2l1.9-1l-0.3-1.1l3.4,0.9L1010.1,459.4"/>
	<path fill="#34110D" stroke="#FFFFFF" stroke-width="0.75" stroke-linecap="round" stroke-miterlimit="10" d="M1005.5,461.8
		c0,0.1-2.2,1-4.4,0.5c-2.2-0.6-3.7-2.3-3.6-2.5c0-0.2,2.2-1,4.4-0.5C1004.1,459.9,1005.5,461.8,1005.5,461.8z"/>
	<path fill="none" stroke="#FFFFFF" stroke-width="0.75" stroke-linecap="round" stroke-miterlimit="10" d="M1004.4,470.2
		c0.2,0.3,0.6,0.3,0.8,0.1c0.3-0.2,0.4-0.7,0.2-1.1c-0.3-0.4-0.9-0.5-1.4-0.2c-0.6,0.4-0.7,1.1-0.3,1.7c0.5,0.7,1.4,0.7,2.1,0.4
		c0.6-0.3,0.8-1.4,0.8-1.4l1.7-9.2"/>
	<path fill="none" stroke="#FFFFFF" stroke-width="0.75" stroke-linecap="round" stroke-miterlimit="10" d="M990.5,469.8
		L990.5,469.8c-4.6-0.5-4-7.4-1.8-8.9l0,0c1.6-1.3,3.5-0.6,4.3,0.8c0.7,1.1,0.1,2.8-1.1,3.5c-0.9,0.6-2.1,0.2-2.7-0.7
		c-0.4-0.7-0.2-1.7,0.5-2.1c0.6-0.3,1.4-0.1,1.7,0.4c0.3,0.5,0.1,1.1-0.3,1.4"/>
	<path fill="#34110D" stroke="#FFFFFF" stroke-width="0.75" stroke-linecap="round" stroke-miterlimit="10" d="M995.3,516.4
		c13.3,0.2,18.4-9.3,21.8-22.5l-47.9-12.2c-3.4,13.4-1.5,28,19.9,33.5c0.5,0.1,4.7-6.2,4.7-6.2L995.3,516.4z"/>
	
		<line fill="none" stroke="#FFFFFF" stroke-width="0.75" stroke-linecap="round" stroke-miterlimit="10" x1="995.7" y1="499.9" x2="993.7" y2="509"/>
	<path fill="none" stroke="#FFFFFF" stroke-width="0.75" stroke-linecap="round" stroke-miterlimit="10" d="M995.7,500"/>
	<path fill="none" stroke="#FFFFFF" stroke-width="0.75" stroke-linecap="round" stroke-miterlimit="10" d="M995.7,500"/>
	<path fill="none" stroke="#FFFFFF" stroke-width="0.75" stroke-linecap="round" stroke-miterlimit="10" d="M992.5,517.1
		c0.7,9-3.4,18.5-7.8,26.4"/>
	<path fill="none" stroke="#FFFFFF" stroke-width="0.75" stroke-linecap="round" stroke-miterlimit="10" d="M975,569.6
		c6.2,13.5,15.9,18.3,19.3,17.3c1.7-0.5,2.8-2,2.5-3.7c-0.3-1.4-1.6-2.3-3-2c-1.1,0.2-1.8,1.3-1.6,2.4c0.2,0.9,1,1.4,1.9,1.3"/>
	
		<line fill="none" stroke="#FFFFFF" stroke-width="0.75" stroke-linecap="round" stroke-miterlimit="10" x1="1003" y1="474.8" x2="1001.5" y2="474.8"/>
	
		<circle fill="#34110D" stroke="#FFFFFF" stroke-width="0.75" stroke-linecap="round" stroke-miterlimit="10" cx="1001.4" cy="460.8" r="1"/>
	<path fill="none" stroke="#221E20" stroke-width="0.75" stroke-linecap="round" stroke-miterlimit="10" d="M1009.6,489.3"/>
	<path fill="#34110D" stroke="#FFFFFF" stroke-width="0.75" stroke-linecap="round" stroke-miterlimit="10" d="M955.8,541.5
		c2.9-8.7,5.3-12.3,10.7-11.8l23.8,11.6c-7.2,27.6-39.3,13-39.3,13L955.8,541.5z"/>
	<path fill="none" stroke="#FFFFFF" stroke-width="0.75" stroke-linecap="round" stroke-miterlimit="10" d="M984.3,538.2
		c-2.5,6.6-4.2,10.4-9,15.2"/>
	<path fill="none" stroke="#FFFFFF" stroke-width="0.75" stroke-linecap="round" stroke-miterlimit="10" d="M994,539.2"/>
	<path fill="#34110D" stroke="#FFFFFF" stroke-width="0.75" stroke-linecap="round" stroke-miterlimit="10" d="M986.1,452.6
		c14.6,7,24.2,6.4,24.2,6.4c0.7-1.3,0.7-3,0.3-3.7c-4.1,0.4-13.8-1.9-24.7-6.4l0,0c-0.2,2,0.1,2.8,0.1,3.4L986.1,452.6z"/>
	<path fill="none" stroke="#FFFFFF" stroke-width="0.75" stroke-linecap="round" stroke-miterlimit="10" d="M995.7,499.9
		c-0.1-1.1-0.5-2.1-1.1-3.1c-1.9-3.2-6-4.2-9.2-2.3c-2.6,1.5-3.4,4.8-1.9,7.4c1.2,2.1,3.9,2.7,5.9,1.5c1.6-1,2.1-3.1,1.2-4.7
		c-0.8-1.3-2.5-1.7-3.8-1"/>
	<path fill="none" stroke="#FFFFFF" stroke-width="0.75" stroke-linecap="round" stroke-miterlimit="10" d="M995.7,499.9
		c0.6-0.7,1.3-1.4,2.1-1.9c2.7-1.6,6.2-0.7,7.8,2c1.3,2.1,0.6,4.9-1.6,6.2c-1.7,1-4,0.5-5-1.3c-0.8-1.4-0.4-3.2,1-4
		c1.1-0.7,2.6-0.3,3.2,0.8"/>
	
		<path fill="#34110D" stroke="#FFFFFF" stroke-width="0.75" stroke-linecap="round" stroke-linejoin="round" stroke-miterlimit="10" d="
		M1002,599c0-0.4-0.5-0.7-0.9-0.6c-0.5,0.1-0.9,0.6-0.8,1.1c0.1,0.7,0.7,1.1,1.4,1c0.4,0,0.8-0.3,1-0.7c0.2-0.3,0.3-0.7,0.2-1.1
		c-0.1-1-1.1-1.7-2.1-1.5c-1.3,0.2-2.1,1.4-1.9,2.7c0.2,1.6,1.5,2.5,3.1,2.6l0.7-2.6"/>
	<g>
		<path fill="#34110D" d="M948.1,521.7c8.1-4.5,18.6-10.7,22.8-18.3s7.2-16.9,1.5-21.1L972,482c-10-5.2-21.5,16.5-29.4,35.4
			C939.2,525.6,952.8,524.6,948.1,521.7z"/>
		<path fill="none" stroke="#FFFFFF" stroke-width="0.75" stroke-linecap="round" stroke-miterlimit="10" d="M950.1,516.8
			c18.3-10.4,23.1-23.1,21.2-27.7c-0.9-2.3-3.2-3.8-5.6-3.1c-1.9,0.6-3,2.6-2.5,4.5c0.5,1.5,2.1,2.4,3.6,2c1.2-0.4,2.2-1.6,1.9-2.8"
			/>
		
			<path fill="none" stroke="#FFFFFF" stroke-width="0.75" stroke-linecap="round" stroke-linejoin="round" stroke-miterlimit="10" d="
			M948.1,521.7c8.1-4.5,18.6-10.7,22.8-18.3s7.7-17,1.5-21.1l0,0c-10.4-6-21.8,15.9-30.8,37.6c-0.7,1.8,2.5,0.5,0,0
			C940.3,519.7,946,520.9,948.1,521.7z"/>
		<g>
			<g>
				<path fill="#34110D" stroke="#FFFFFF" stroke-width="0.75" stroke-linecap="round" stroke-miterlimit="10" d="M943.1,516.2
					c16.3-6.4,13.2,18.7,25,29.4c1,0.4,7,3.6,9.1,7.3l0.2,0.7c1.8,0.7,1.6,1.5,1.2,2.1c-2.9-0.2-4.8-3.5-4.8-3.5v1.3
					c1,0.7,2.8,2.2,3.1,4.2c1.6,0.9,1.6,2,1.5,2.8c-0.9-0.5-1.7-1-2.4-1.6c0,0.1,0,0.2,0,0.3c1.8,1,1.8,2.2,1.7,3.2
					c-0.9-0.5-1.7-1-2.4-1.5c0.3,0.6,0.3,1.2,0.2,1.7c-1.4-0.7-2.5-1.5-3.4-2.4c0,0,0,0.1,0,0.2c1.4,0.8,1.4,1.8,1.4,2.6
					c-1.1-0.1-5.6-4.9-6-6.2l-3.5-8.6c-4.3-4.5-13.9-16.6-23.1-27.4L943.1,516.2z"/>
				<g>
					<path fill="#34110D" stroke="#FFFFFF" stroke-width="0.75" stroke-miterlimit="10" d="M968.2,558.2"/>
					<path fill="#34110D" stroke="#FFFFFF" stroke-width="0.75" stroke-miterlimit="10" d="M970.9,559.4"/>
					<path fill="#34110D" stroke="#FFFFFF" stroke-width="0.75" stroke-miterlimit="10" d="M973.6,562.8"/>
					<line fill="none" stroke="#FFFFFF" stroke-width="0.75" stroke-miterlimit="10" x1="972.3" y1="560.1" x2="972.3" y2="560.1"/>
					<path fill="#34110D" stroke="#FFFFFF" stroke-width="0.75" stroke-linecap="round" stroke-miterlimit="10" d="M968.9,555.9
						c0.2-0.1,2.1,4.2,6.6,6.5l0,0c0.1-0.9,0-2-1.5-2.8l0,0c-0.6-3.3-3.7-4.5-3.7-4.6"/>
					<path fill="#34110D" stroke="#FFFFFF" stroke-width="0.75" stroke-linecap="round" stroke-miterlimit="10" d="M970.3,555
						c0.2-0.1,2.3,4.7,7.4,7.3l0,0c0.1-1,0.1-2.2-1.7-3.2l0,0c-0.6-3.6-4.2-5.1-4.2-5.1"/>
					<path fill="#34110D" stroke="#FFFFFF" stroke-width="0.75" stroke-linecap="round" stroke-miterlimit="10" d="M971.8,553.9
						c0.2-0.1,2.1,4.2,6.6,6.5l0,0c0.1-0.9,0-2-1.5-2.8l0,0c-0.3-2-2.1-3.6-3.1-4.2"/>
				</g>
				
					<line fill="none" stroke="#FFFFFF" stroke-width="0.75" stroke-linecap="round" stroke-miterlimit="10" x1="954.6" y1="536.9" x2="968.1" y2="545.5"/>
			</g>
			<path fill="none" stroke="#FFFFFF" stroke-width="0.75" stroke-linecap="round" stroke-miterlimit="10" d="M941.2,520.6
				c0.6-1.4,2.2-2,3.6-1.4c1.1,0.5,1.6,1.8,1.1,2.9c-0.4,0.9-1.4,1.3-2.3,0.9c-0.7-0.3-1-1.1-0.7-1.8c0.2-0.6,0.9-0.8,1.5-0.6
				c0.5,0.2,0.7,0.7,0.5,1.2"/>
		</g>
	</g>
	<path fill="none" stroke="#221E20" stroke-width="0.75" stroke-linecap="round" stroke-miterlimit="10" d="M1014.4,627.5"/>
	<polyline fill="#34110D" stroke="#FFFFFF" stroke-width="0.75" stroke-linecap="round" stroke-miterlimit="10" points="
		1084.1,639.6 1085.3,643.6 1101.1,624.1 	"/>
	<path fill="none" stroke="#221E20" stroke-width="0.75" stroke-linecap="round" stroke-miterlimit="10" d="M1087.5,640.9"/>
	<path fill="#34110D" stroke="#FFFFFF" stroke-width="0.75" stroke-linecap="round" stroke-miterlimit="10" d="M1079.7,646.1
		c0.1-0.3,2.8-2.3,2.9-2.7c0.7-1.6,4.7-15.4,6.4-19.5l-17.2-13.5l4.8-2.5c9.1,7.9,14.9,12.6,15.6,13.2c2.8-2.1,6.2,0.8,8.9,3
		l-15.9,19.5l-3.3,4C1080.6,648.4,1079.2,647.6,1079.7,646.1z"/>
	
		<path fill="#34110D" stroke="#FFFFFF" stroke-width="0.75" stroke-linecap="round" stroke-linejoin="round" stroke-miterlimit="10" d="
		M1055.5,606.2c17.7,10.1,28,15.1,33.6,17.7c-11.2-12.5-27.3-42.3-36.7-30.1L1055.5,606.2z"/>
	
		<path fill="#34110D" stroke="#FFFFFF" stroke-width="0.75" stroke-linecap="round" stroke-linejoin="round" stroke-miterlimit="10" d="
		M1057.2,593c2.8-13.1,1.2-34.5-6.7-35.6c3.9-3.8,3.5-8.4,0.7-14c-2.8-5.6-9-9-13.7-8l-12,8.4c-0.5,6.6,0.9,20.7,11.1,35.9
		c7,10.4,9.8,14.1,12.3,17.4l6.2,8.3L1057.2,593"/>
	
		<path fill="#34110D" stroke="#FFFFFF" stroke-width="0.75" stroke-linecap="round" stroke-linejoin="round" stroke-miterlimit="10" d="
		M1056.3,605.7c-0.3-0.3-0.2-0.8,0.1-1.1c0.4-0.3,1-0.3,1.4,0.1c0.4,0.5,0.3,1.3-0.1,1.7c-0.3,0.3-0.7,0.4-1.1,0.3
		c-0.4,0-0.7-0.2-0.9-0.5c-0.7-0.8-0.6-2,0.2-2.6c1-0.8,2.4-0.7,3.3,0.3c1,1.2,0.9,2.8-0.1,4l-2.5-1.2"/>
	<path fill="none" stroke="#221E20" stroke-width="0.75" stroke-linecap="round" stroke-miterlimit="10" d="M1018.1,514.6"/>
	<path fill="#34110D" stroke="#FFFFFF" stroke-width="0.75" stroke-linecap="round" stroke-miterlimit="10" d="M987.4,512.6
		c6.5-6.3,9.3-12.4,6.9-15.9l0.6-7l6.8-8.5c1.4,4-0.5,11,13.9,7.7l-2.3,23.2l-22.6,3.1L987.4,512.6"/>
	<path fill="#34110D" stroke="#FFFFFF" stroke-width="0.75" stroke-linecap="round" stroke-miterlimit="10" d="M1043.7,537.2
		c-6.9-4.2-16.1-18.3-16.3-34.9l-0.7-0.4l-4.2,8.8l-5.4,24.8l3.6,10.5l10.4,0.4l21,10.8L1043.7,537.2z"/>
	<path fill="#34110D" stroke="#FFFFFF" stroke-width="0.75" stroke-linecap="round" stroke-miterlimit="10" d="M1023.6,491.6
		c2.3,4.4,4.9,10.2,4.2,17.3c-1.2,12.7-7.2,21.3-5.4,33.9l8.2,11l1.5,5.5c-24-20.8-32.8-29.4-44.6-46.7"/>
	<polygon fill="#34110D" stroke="#FFFFFF" stroke-width="0.75" stroke-linecap="round" stroke-miterlimit="10" points="
		1001.8,481.1 1003.2,502.1 1000.1,504.2 996.9,494 	"/>
	<path fill="#34110D" stroke="#FFFFFF" stroke-width="0.75" stroke-linecap="round" stroke-miterlimit="10" d="M996.1,494.8
		l3.2,10.2c0.8-0.5,2.4-10-0.4-14.1L996.1,494.8z"/>
	<path fill="#34110D" stroke="#FFFFFF" stroke-width="0.75" stroke-linecap="round" stroke-miterlimit="10" d="M1004.9,533.6
		c-6.5-2.3-13.9-9.5-17.4-21l32.2-24c11.6,8.6,12.1,31.7-9.3,41.7c-0.4,0.2-6.5-4.2-6.5-4.2L1004.9,533.6z"/>
	
		<line fill="none" stroke="#FFFFFF" stroke-width="0.75" stroke-linecap="round" stroke-miterlimit="10" x1="998.9" y1="518.5" x2="1004" y2="526.5"/>
	<path fill="none" stroke="#FFFFFF" stroke-width="0.75" stroke-linecap="round" stroke-miterlimit="10" d="M1002.3,516.3"/>
	<path fill="none" stroke="#FFFFFF" stroke-width="0.75" stroke-linecap="round" stroke-miterlimit="10" d="M1002.3,516.3"/>
	<path fill="none" stroke="#FFFFFF" stroke-width="0.75" stroke-linecap="round" stroke-miterlimit="10" d="M1007.5,532.4
		c5.9,7.5,13,13.6,21,17.8"/>
	<path fill="none" stroke="#221E20" stroke-width="0.75" stroke-linecap="round" stroke-miterlimit="10" d="M987.6,508.8"/>
	<path fill="#34110D" stroke="#FFFFFF" stroke-width="0.75" stroke-linecap="round" stroke-miterlimit="10" d="M1052.1,545.8
		c-2.9-7.9-7.7-11.1-13-9.8l-22.9,9.4c11.9,27,41.4,12.6,41.4,12.6L1052.1,545.8z"/>
	<path fill="none" stroke="#FFFFFF" stroke-width="0.75" stroke-linecap="round" stroke-miterlimit="10" d="M1030.2,539.9
		c1.8,3.8,5.2,9.6,11.3,14.8"/>
	<path fill="none" stroke="#FFFFFF" stroke-width="0.75" stroke-linecap="round" stroke-miterlimit="10" d="M998.9,518.5
		c-0.2-1.1-0.2-2.2,0-3.4c0.7-3.6,4.2-6.1,7.8-5.4c2.9,0.6,4.9,3.4,4.3,6.3c-0.4,2.3-2.7,3.9-5,3.4c-1.9-0.4-3.1-2.1-2.8-4
		c0.3-1.5,1.7-2.5,3.2-2.2"/>
	<path fill="none" stroke="#FFFFFF" stroke-width="0.75" stroke-linecap="round" stroke-miterlimit="10" d="M999,518.7
		c-0.5-0.5-1-0.9-1.7-1.2c-2.1-0.9-4.5,0-5.4,2.1c-0.7,1.6,0,3.6,1.7,4.3c1.3,0.6,2.8,0,3.5-1.4c0.5-1.1,0-2.3-1.1-2.8
		c-0.8-0.4-1.8,0-2.2,0.8"/>
	
		<path fill="#B14A17" stroke="#FFFFFF" stroke-width="0.75" stroke-linecap="round" stroke-linejoin="round" stroke-miterlimit="10" d="
		M980,466.3L980,466.3c-0.7-4.2,1-7.5,4.7-9.3c3-1.5,9.1-2.1,12.4,4c2.8,5.2,1.1,11.6-1.2,12.9c-2.1,1.2-6.4,0.3-8.9-0.3l-0.6,0.3
		c-0.2,0.6-0.5,1-0.8,1.4c-0.7,1-1.5,1.9-2.6,2.6l-0.5-1.9l-5.3,2.8C973.3,475.2,977,467.7,980,466.3z"/>
	<path fill="none" d="M983,463.2"/>
	<path fill="none" stroke="#FFFFFF" stroke-width="0.75" stroke-linecap="round" stroke-miterlimit="10" d="M979.8,465
		c0.1,2.4,2.2,4.3,4.7,4.2c2-0.1,3.5-1.8,3.4-3.7c-0.1-1.6-1.4-2.8-3-2.7c-1.3,0-2.2,1.1-2.1,2.4c0,1,0.9,1.8,1.9,1.7
		c0.8,0,1.4-0.7,1.4-1.5c0-0.7-0.6-1.1-1.2-1.1c-0.5,0-0.9,0.5-0.9,1c0,0.4,0.4,0.7,0.8,0.7"/>
	<path fill="#34110D" stroke="#FFFFFF" stroke-width="0.75" stroke-linecap="round" stroke-miterlimit="10" d="M977.2,478.7
		c-0.8-3.4,11.6-9.8,13.8-6.3l0.3,0.5c0.9,1.5,2.8,2,4.3,1.1c1.5-0.9,1.5-3.2,1.5-3.2l1.8,3.2c1.9,3.1,3.3,5.6,3,10.6
		c-0.4,5.7-4.6,10.7-8.8,13c-3.7,2-5.6,0-5.5-1.6c0-1.2,0.8-2.2,1.1-2.8h-1.3l0.9-1.5l-2.1-0.5V490l-3,1.8L977.2,478.7"/>
	<path fill="#34110D" stroke="#FFFFFF" stroke-width="0.75" stroke-linecap="round" stroke-miterlimit="10" d="M982.3,479.8
		c0,0.1,2.4,0.4,4.4-0.7c2-1.2,2.9-3.3,2.8-3.4c-0.1-0.2-2.4-0.4-4.4,0.7C983.1,477.6,982.3,479.8,982.3,479.8z"/>
	<path fill="none" stroke="#FFFFFF" stroke-width="0.75" stroke-linecap="round" stroke-miterlimit="10" d="M985.6,487.6
		c-0.1,0.3-0.5,0.5-0.8,0.4c-0.4-0.1-0.6-0.6-0.5-1c0.2-0.5,0.7-0.7,1.2-0.6c0.6,0.2,0.9,0.9,0.7,1.5c-0.3,0.8-1.1,1.1-1.9,0.9
		c-0.7-0.1-1.1-1.1-1.1-1.1l-4.1-8.3"/>
	<path fill="none" stroke="#FFFFFF" stroke-width="0.75" stroke-linecap="round" stroke-miterlimit="10" d="M998.8,483.5
		L998.8,483.5c4.3-1.7,1.9-8.2-0.7-9l0,0c-1.9-0.7-3.5,0.4-4,2c-0.3,1.3,0.7,2.8,2,3.1c1,0.3,2.1-0.3,2.4-1.4
		c0.2-0.8-0.3-1.7-1.1-1.9c-0.7-0.2-1.4,0.2-1.5,0.9c-0.1,0.5,0.2,1.1,0.7,1.2"/>
	
		<circle fill="#34110D" stroke="#FFFFFF" stroke-width="0.75" stroke-linecap="round" stroke-miterlimit="10" cx="985.9" cy="477.7" r="1"/>
	<path fill="#34110D" stroke="#FFFFFF" stroke-width="0.75" stroke-linecap="round" stroke-miterlimit="10" d="M998.4,465.7
		c-12.2,10.7-21.5,12.7-21.5,12.7c-1-1.1-1.4-2.7-1.4-3.5c4.1-0.7,12.8-5.6,22-12.9l0,0c0.7,1.8,0.7,2.7,0.8,3.3L998.4,465.7z"/>
	<path fill="#34110D" stroke="#FFFFFF" stroke-width="0.5" stroke-miterlimit="10" d="M1002.2,500.8"/>
	<g>
		<path fill="#34110D" d="M1002.6,531.6c-1.1-9.2-2.4-21.3,1.3-29.2s9.4-15.8,16.1-13.7l0.5,0.1c10.8,5-0.6,27.1-11.2,44.7
			C1004.7,541,997.5,529.5,1002.6,531.6z"/>
		<path fill="none" stroke="#FFFFFF" stroke-width="0.75" stroke-linecap="round" stroke-miterlimit="10" d="M1005.4,527
			c-2.4-20.9,5-32.3,9.8-33.5c2.4-0.6,4.9,0.4,5.8,2.7c0.7,1.9-0.3,4-2.1,4.6c-1.5,0.6-3.2-0.2-3.7-1.7c-0.4-1.2,0-2.8,1.2-3.2"/>
		
			<path fill="none" stroke="#FFFFFF" stroke-width="0.75" stroke-linecap="round" stroke-linejoin="round" stroke-miterlimit="10" d="
			M1002.6,531.6c-1.1-9.2-2.4-21.3,1.3-29.2s9.4-15.8,16.1-13.7l0.5,0.1c10.6,4.9-0.5,26.9-12.6,47c-1,1.7-1.9-1.8,0,0
			C1008.8,536.6,1004.5,532.8,1002.6,531.6z"/>
		<g>
			<g>
				<path fill="#34110D" stroke="#FFFFFF" stroke-width="0.75" stroke-linecap="round" stroke-miterlimit="10" d="M1010,532.3
					c-4.4-16.9-22.9,0.4-38.5-2.8c-0.9-0.6-7-3.5-11.3-3l-0.7,0.2c-1.6-1.1-2.2-0.4-2.3,0.3c1.9,2.2,5.6,1.8,5.6,1.8l-1,0.7
					c-1.1-0.4-3.5-0.9-5.2,0c-1.7-0.7-2.6-0.2-3.2,0.5c0.9,0.5,1.9,0.8,2.8,1c-0.1,0-0.2,0-0.2,0.1c-1.9-0.8-2.8-0.2-3.6,0.5
					c0.9,0.5,1.8,0.8,2.7,1c-0.7,0.1-1.1,0.4-1.5,0.8c1.4,0.7,2.7,1.1,3.9,1.3c0,0-0.1,0-0.1,0.1c-1.5-0.7-2.3-0.1-2.9,0.5
					c0.7,0.8,7.3,1.6,8.5,1.2l9-2.3c6.2,0.8,21.6,1.4,35.7,2.5L1010,532.3z"/>
				<g>
					<path fill="#34110D" stroke="#FFFFFF" stroke-width="0.75" stroke-miterlimit="10" d="M961.4,536.9"/>
					<path fill="#34110D" stroke="#FFFFFF" stroke-width="0.75" stroke-miterlimit="10" d="M958.8,535.4"/>
					<path fill="#34110D" stroke="#FFFFFF" stroke-width="0.75" stroke-miterlimit="10" d="M954.4,535.2"/>
					<line fill="none" stroke="#FFFFFF" stroke-width="0.75" stroke-miterlimit="10" x1="957.3" y1="534.8" x2="957.3" y2="534.8"/>
					<path fill="#34110D" stroke="#FFFFFF" stroke-width="0.75" stroke-linecap="round" stroke-miterlimit="10" d="M962.7,534.9
						c0-0.2-4.6,0.8-9.2-1.5l0,0c0.7-0.6,1.5-1.2,3.2-0.5l0,0c2.9-1.5,5.9,0.3,5.9,0.3"/>
					<path fill="#34110D" stroke="#FFFFFF" stroke-width="0.75" stroke-linecap="round" stroke-miterlimit="10" d="M962.6,533.3
						c0-0.3-5.1,0.9-10.3-1.7l0,0c0.7-0.7,1.7-1.4,3.6-0.5l0,0c3.3-1.7,6.6,0.4,6.6,0.3"/>
					<path fill="#34110D" stroke="#FFFFFF" stroke-width="0.75" stroke-linecap="round" stroke-miterlimit="10" d="M962.6,531.5
						c0-0.2-4.6,0.8-9.2-1.5l0,0c0.7-0.6,1.5-1.2,3.2-0.5l0,0c1.8-0.9,4.2-0.4,5.3,0"/>
				</g>
				
					<line fill="none" stroke="#FFFFFF" stroke-width="0.75" stroke-linecap="round" stroke-miterlimit="10" x1="986.5" y1="535.2" x2="971.5" y2="529.5"/>
			</g>
			<path fill="none" stroke="#FFFFFF" stroke-width="0.75" stroke-linecap="round" stroke-miterlimit="10" d="M1007.6,536.5
				c0.7-1.3,0.3-3-1-3.7c-1-0.6-2.4-0.2-2.9,0.8c-0.5,0.8-0.2,1.9,0.7,2.4c0.7,0.4,1.5,0.1,1.9-0.5c0.3-0.5,0.1-1.2-0.4-1.5
				c-0.4-0.2-1-0.1-1.2,0.3"/>
		</g>
	</g>
	<path fill="none" stroke="#FFFFFF" stroke-width="0.75" stroke-linecap="round" stroke-miterlimit="10" d="M1050.9,563.8
		c5.5,9.7,5.3,26.1,1.4,28.6c-1.3,0.8-2.9,0.5-3.8-0.7c-0.7-1-0.4-2.3,0.6-3c0.8-0.6,1.9-0.3,2.4,0.5c0.4,0.7,0.3,1.5-0.4,2"/>
	<g>
		<g>
			<path fill="#34110D" stroke="#FFFFFF" stroke-width="0.75" stroke-linecap="round" stroke-miterlimit="10" d="M1038.4,506.9
				c-17.3,2.5-2.2,22.8-7.2,37.9c-0.7,0.8-4.3,6.6-4.3,10.9l0.1,0.7c-1.3,1.5-0.7,2.1,0,2.4c2.4-1.6,2.5-5.4,2.5-5.4l0.7,1.1
				c-0.5,1.1-1.3,3.3-0.6,5.2c-0.9,1.6-0.5,2.5,0,3.2c0.6-0.9,1-1.8,1.4-2.6c0,0.1,0,0.2,0.1,0.3c-1.1,1.8-0.5,2.8,0.1,3.6
				c0.6-0.8,1-1.7,1.4-2.5c0,0.7,0.3,1.2,0.6,1.5c0.8-1.3,1.4-2.6,1.7-3.8c0,0,0,0.1,0,0.2c-0.8,1.4-0.4,2.3,0.1,2.9
				c0.8-0.6,2.5-7,2.1-8.3l-1.2-9.2c1.5-6,4.1-21.3,6.8-35.1L1038.4,506.9z"/>
			<g>
				<path fill="#34110D" stroke="#FFFFFF" stroke-width="0.75" stroke-miterlimit="10" d="M1037.4,555.7"/>
				<path fill="#34110D" stroke="#FFFFFF" stroke-width="0.75" stroke-miterlimit="10" d="M1035.6,558.1"/>
				<path fill="#34110D" stroke="#FFFFFF" stroke-width="0.75" stroke-miterlimit="10" d="M1034.9,562.4"/>
				
					<line fill="none" stroke="#FFFFFF" stroke-width="0.75" stroke-miterlimit="10" x1="1034.8" y1="559.5" x2="1034.8" y2="559.5"/>
				<path fill="#34110D" stroke="#FFFFFF" stroke-width="0.75" stroke-linecap="round" stroke-miterlimit="10" d="M1035.6,554.1
					c-0.2,0,0.2,4.7-2.6,9l0,0c-0.5-0.7-1-1.7,0-3.2l0,0c-1.1-3.1,1-5.8,1-5.8"/>
				<path fill="#34110D" stroke="#FFFFFF" stroke-width="0.75" stroke-linecap="round" stroke-miterlimit="10" d="M1033.9,554
					c-0.3,0,0.3,5.2-2.8,10l0,0c-0.6-0.8-1.2-1.9-0.1-3.6l0,0c-1.3-3.5,1.1-6.5,1.1-6.5"/>
				<path fill="#34110D" stroke="#FFFFFF" stroke-width="0.75" stroke-linecap="round" stroke-miterlimit="10" d="M1032.1,553.9
					c-0.2,0,0.2,4.7-2.6,9l0,0c-0.5-0.7-1-1.7,0-3.2l0,0c-0.7-1.9,0.1-4.2,0.6-5.3"/>
			</g>
			
				<line fill="none" stroke="#FFFFFF" stroke-width="0.75" stroke-linecap="round" stroke-miterlimit="10" x1="1038.6" y1="530.6" x2="1031.2" y2="544.8"/>
		</g>
		<path fill="none" stroke="#FFFFFF" stroke-width="0.75" stroke-linecap="round" stroke-miterlimit="10" d="M1042.5,509.8
			c-1.2-0.9-3.1-0.7-4,0.5c-0.7,1-0.5,2.3,0.5,3c0.8,0.6,1.9,0.4,2.4-0.4c0.5-0.6,0.3-1.5-0.3-2c-0.5-0.4-1.2-0.2-1.5,0.2
			c-0.3,0.4-0.2,0.9,0.2,1.3"/>
	</g>
	<path fill="none" stroke="#221E20" stroke-width="0.75" stroke-linecap="round" stroke-miterlimit="10" d="M1039.6,524"/>
</g>
</svg>
