<?xml version="1.0" encoding="utf-8"?>
<!-- Generator: Adobe Illustrator 18.1.1, SVG Export Plug-In . SVG Version: 6.00 Build 0)  -->
<svg version="1.1" id="Layer_1" xmlns="http://www.w3.org/2000/svg" xmlns:xlink="http://www.w3.org/1999/xlink" x="0px" y="0px"
	 viewBox="679.3 425 216.7 245.5" enable-background="new 679.3 425 216.7 245.5" xml:space="preserve">
<g>
	<g>
		<polygon fill="#34110D" stroke="#FFFFFF" stroke-width="0.75" stroke-linecap="round" stroke-miterlimit="10" points="
			816.1,451.7 816.1,449.2 688.4,449.1 688.4,451.6 		"/>
		<path fill="#34110D" stroke="#FFFFFF" stroke-width="0.75" stroke-linecap="round" stroke-miterlimit="10" d="M874.1,450.6
			l-61.4-0.1l0,1.7l5.3-0.4c0,0,0.7,1.5,3.4,1.3C830.7,452.1,874.1,450.6,874.1,450.6z"/>
		<path fill="#34110D" stroke="#FFFFFF" stroke-width="0.75" stroke-linecap="round" stroke-miterlimit="10" d="M812.7,450.5l0-1.7
			l5.3,0.4c0,0,0.7-1.5,3.4-1.3c9.3,1,52.7,2.6,52.7,2.6"/>
	</g>
	<polyline fill="#34110D" stroke="#FFFFFF" stroke-width="0.75" stroke-linecap="round" stroke-miterlimit="10" points="
		839.7,638.1 842,641.6 816.9,641.4 	"/>
	<path fill="none" stroke="#221E20" stroke-width="0.75" stroke-linecap="round" stroke-miterlimit="10" d="M838.5,641.5"/>
	<path fill="#34110D" stroke="#FFFFFF" stroke-width="0.75" stroke-linecap="round" stroke-miterlimit="10" d="M847.5,638.9
		c-0.3-0.1-3.5,0.7-3.9,0.5c-1.6-0.5-14.9-6.2-19.1-7.5l0.5-21.8l-5,2.1c0.3,12,0.3,19.5,0.3,20.4c-3.5,0.8-3.3,5.2-3.3,8.8
		l25.1,0.1l5.2,0C848.6,641,848.9,639.4,847.5,638.9z"/>
	
		<path fill="#34110D" stroke="#FFFFFF" stroke-width="0.75" stroke-linecap="round" stroke-linejoin="round" stroke-miterlimit="10" d="
		M833.1,587.8c-3.5,20.1-7.2,38.2-8.7,44.1c-2.5-16.6-15.3-47.9,0.1-47.5L833.1,587.8z"/>
	<g>
		<path fill="#34110D" d="M876.3,521.5c-4-1.6-10.7-0.6-11.7-0.3c-4.2,0-28.4-16-33.1-12.3c-5.7-7.3-9.2-14-17.5-16.8
			c-1.3-0.5-2.2,3.1-4.7,2.7c-7.4-1.2-18-4.8-20.4-0.2l-0.2,0.4c-1.8,13.9,57.7,27.7,74.3,30.5l8,4.7c1,0.8,7.6,1.8,8.5,1.3
			c-0.4-0.7-1-1.5-2.7-1.3c0,0-0.1-0.1-0.1-0.1c1.3,0.1,2.7,0.1,4.2-0.1c-0.3-0.5-0.6-0.9-1.2-1.2c0.9,0,1.9,0,2.8-0.2
			c-0.5-0.8-1.3-1.8-3.3-1.5c0,0-0.1-0.1-0.2-0.2c0.9,0,1.9,0,2.9-0.2c-0.5-0.7-1.1-1.6-2.9-1.3c-1.4-1.4-3.8-1.5-5-1.5l-0.7-1
			c0,0,3.5,1.4,5.9-0.2c0.1-0.7-0.3-1.5-2.2-0.9L876.3,521.5z"/>
		<path fill="none" stroke="#FFFFFF" stroke-width="0.75" stroke-miterlimit="10" d="M826.3,511.4c-13.1-16.5-26.3-19.3-30.6-16.7
			c-2.1,1.3-3.2,3.7-2.2,6c0.8,1.8,3,2.6,4.8,1.8c1.4-0.7,2.1-2.4,1.4-3.8c-0.6-1.2-1.9-1.7-3.1-1.1"/>
		
			<path fill="none" stroke="#FFFFFF" stroke-width="0.75" stroke-linecap="round" stroke-linejoin="round" stroke-miterlimit="10" d="
			M876.3,521.5c-4-1.6-10.7-0.6-11.7-0.3c-5.2-0.7-28-16-33.1-12.3c-5.1-6.5-9.2-14-17.5-16.8c-0.1,0-1.2,0.4-1.3,0.3
			c-2-0.5-1.9,0.8-2.8,0.5c-8.2-3-4.5,2-7.8,8.2l0,0c-13.1,7.6,44.6,22.1,60.7,24.5l8,4.7c1,0.8,7.6,1.8,8.5,1.3
			c-0.4-0.7-1-1.5-2.7-1.3c0,0-0.1-0.1-0.1-0.1c1.3,0.1,2.7,0.1,4.2-0.1c-0.3-0.5-0.6-0.9-1.2-1.2c0.9,0,1.9,0,2.8-0.2
			c-0.5-0.8-1.3-1.8-3.3-1.5c0,0-0.1-0.1-0.2-0.2c0.9,0,1.9,0,2.9-0.2c-0.5-0.7-1.1-1.6-2.9-1.3c-1.4-1.4-3.8-1.5-5-1.5l-0.7-1
			c0,0,3.5,1.4,5.9-0.2c0.1-0.7-0.3-1.5-2.2-0.9L876.3,521.5z"/>
		<g>
			<path fill="#34110D" stroke="#FFFFFF" stroke-width="0.5" stroke-miterlimit="10" d="M872.3,531.2"/>
			<path fill="#34110D" stroke="#FFFFFF" stroke-width="0.5" stroke-miterlimit="10" d="M875.2,530.5"/>
			<path fill="#34110D" stroke="#FFFFFF" stroke-width="0.5" stroke-miterlimit="10" d="M879.4,531.5"/>
			<line fill="none" stroke="#FFFFFF" stroke-width="0.5" stroke-miterlimit="10" x1="876.8" y1="530.3" x2="876.8" y2="530.3"/>
			<path fill="#34110D" stroke="#FFFFFF" stroke-width="0.5" stroke-linecap="round" stroke-miterlimit="10" d="M871.5,528.9
				c0.1-0.2,4.2,2.1,9.2,1.1l0,0c-0.5-0.7-1.1-1.6-2.9-1.3l0,0c-2.4-2.2-5.7-1.4-5.7-1.4"/>
			<path fill="#34110D" stroke="#FFFFFF" stroke-width="0.5" stroke-linecap="round" stroke-miterlimit="10" d="M872.1,527.4
				c0.1-0.3,4.7,2.3,10.4,1.3l0,0c-0.5-0.8-1.3-1.8-3.3-1.5l0,0c-2.7-2.5-6.4-1.5-6.4-1.5"/>
			<path fill="#34110D" stroke="#FFFFFF" stroke-width="0.5" stroke-linecap="round" stroke-miterlimit="10" d="M872.6,525.6
				c0.1-0.2,4.2,2.1,9.2,1.1l0,0c-0.5-0.7-1.1-1.6-2.9-1.3l0,0c-1.4-1.4-3.9-1.5-5.1-1.5"/>
		</g>
		
			<line fill="none" stroke="#FFFFFF" stroke-width="0.75" stroke-linecap="round" stroke-miterlimit="10" x1="845.9" y1="522" x2="864.6" y2="521.2"/>
	</g>
	
		<path fill="#B14A17" stroke="#FFFFFF" stroke-width="0.75" stroke-linecap="round" stroke-linejoin="round" stroke-miterlimit="10" d="
		M789.9,451L789.9,451c-1.4-4-4.6-6-8.7-5.7c-3.4,0.2-9,2.7-8.7,9.7c0.2,5.9,4.9,10.6,7.6,10.6c2.4,0,5.7-2.9,7.5-4.7l0.7,0
		c0.4,0.4,0.9,0.7,1.4,0.8c1.1,0.6,2.3,0.9,3.5,0.9l-0.6-1.9l6-0.2C800.1,455.4,793.2,450.8,789.9,451z"/>
	<path fill="none" d="M785.8,449.9"/>
	<path fill="none" stroke="#FFFFFF" stroke-width="0.75" stroke-linecap="round" stroke-miterlimit="10" d="M789.5,449.9
		c1.1,2.2,0.2,4.9-1.9,6c-1.7,0.9-3.9,0.2-4.8-1.5c-0.7-1.4-0.2-3.1,1.2-3.8c1.1-0.6,2.5-0.1,3.1,1c0.5,0.9,0.1,2-0.8,2.4
		c-0.7,0.4-1.6,0.1-2-0.6c-0.3-0.6,0-1.3,0.5-1.6c0.5-0.2,1,0,1.3,0.4c0.2,0.4,0,0.8-0.3,1"/>
	<path fill="#34110D" stroke="#FFFFFF" stroke-width="0.75" stroke-linecap="round" stroke-miterlimit="10" d="M764.5,492.2
		c9.4,0,17-5.6,17-12.5l7.6-2.6l3.2,7.6c0,4.2,9.4,7.5,21.1,7.5"/>
	<path fill="#34110D" stroke="#FFFFFF" stroke-width="0.75" stroke-linecap="round" stroke-miterlimit="10" d="M772.8,544.2
		c3-1.8,3.6-15.3-0.2-20.8l-12.5-17.8l14.6,4.4l18.4,17.5l-2.6,11.7l-2.9,5.2l-9.3,6.5L772.8,544.2z"/>
	<path fill="#34110D" stroke="#FFFFFF" stroke-width="0.75" stroke-linecap="round" stroke-miterlimit="10" d="M764.4,492.2
		c-1.4,11.1-2.8,12.5-1.1,13.7c11.1,7.5,24.6,36.2,26.8,39.6l2.3,4.8l1.9,5.4c2.2-3.4,21.7-43.9,19.6-63.5"/>
	
		<path fill="#34110D" stroke="#FFFFFF" stroke-width="0.75" stroke-linecap="round" stroke-linejoin="round" stroke-miterlimit="10" d="
		M820.5,585.9c-13.3-1.5-32.7-9.4-28.1-18.6c-4.2,2.4-10.4,1.2-14.8-3.2c-4.4-4.4-6.2-11.2-3.7-15.3l7.7-7.5
		c6.4,1.6,21.5,6.5,32.8,20.9c7.7,9.9,10.3,13.8,12.7,17.2l6,8.5l-0.1,0.9l-1.8-1.4L820.5,585.9"/>
	<polygon fill="#34110D" stroke="#FFFFFF" stroke-width="0.75" stroke-linecap="round" stroke-miterlimit="10" points="780.9,478.9 
		788.6,492.2 792.3,492.2 792.3,483.1 	"/>
	<path fill="#34110D" stroke="#FFFFFF" stroke-width="0.75" stroke-linecap="round" stroke-miterlimit="10" d="M792.3,483.8v8.4
		c-0.9,0-4.7-3.7-4.7-8.6L792.3,483.8z"/>
	<path fill="#34110D" stroke="#FFFFFF" stroke-width="0.75" stroke-linecap="round" stroke-miterlimit="10" d="M798.6,460.4
		c-1-3.3-15-2.7-15.1,1.4v0.6c0,1.7-1.4,3.1-3.2,3.1c-1.7,0-2.9-2.1-2.9-2.1v3.7c-0.1,3.6-0.1,6.5,2.7,10.7c3.2,4.8,9.3,7,14.1,6.9
		c4.2-0.1,4.9-2.8,4-4.2c-0.7-1-1.8-1.5-2.3-1.9l1.1-0.7l-1.5-0.8l1.5-1.4l-0.6-1h3.5L798.6,460.4"/>
	<path fill="#34110D" stroke="#FFFFFF" stroke-width="0.75" stroke-linecap="round" stroke-miterlimit="10" d="M794.7,463.9
		c0,0.1-1.9,1.5-4.2,1.5s-4.2-1.4-4.2-1.5c0-0.2,1.9-1.5,4.2-1.5S794.7,463.9,794.7,463.9z"/>
	<path fill="none" stroke="#FFFFFF" stroke-width="0.75" stroke-linecap="round" stroke-miterlimit="10" d="M795.7,472.3
		c0.3,0.2,0.7,0.2,0.9,0c0.3-0.3,0.2-0.8-0.1-1.1c-0.4-0.3-1-0.3-1.4,0.1c-0.4,0.5-0.4,1.3,0.1,1.7c0.6,0.6,1.5,0.4,2.1-0.1
		c0.5-0.5,0.4-1.5,0.4-1.5l-0.7-9.3"/>
	<path fill="none" stroke="#FFFFFF" stroke-width="0.75" stroke-linecap="round" stroke-miterlimit="10" d="M782.2,475.4
		L782.2,475.4c-4.5,0.7-5.7-6.2-3.9-8.2l0,0c1.3-1.6,3.3-1.4,4.4-0.3c0.9,0.9,0.8,2.8-0.2,3.7c-0.7,0.7-2,0.7-2.7,0
		c-0.6-0.6-0.6-1.6,0-2.2c0.5-0.5,1.3-0.5,1.7,0c0.4,0.4,0.4,1,0,1.4"/>
	<path fill="#34110D" stroke="#FFFFFF" stroke-width="0.75" stroke-linecap="round" stroke-miterlimit="10" d="M798.3,519.3
		c13-3,15.6-13.5,15.6-27.2h-49.4c0,13.9,7.3,26.5,27.5,27.6c0.5,0,3-7.1,3-7.1L798.3,519.3z"/>
	
		<line fill="none" stroke="#FFFFFF" stroke-width="0.75" stroke-linecap="round" stroke-miterlimit="10" x1="794.6" y1="503.2" x2="794.9" y2="512.6"/>
	<path fill="none" stroke="#FFFFFF" stroke-width="0.75" stroke-linecap="round" stroke-miterlimit="10" d="M794.6,503.3"/>
	<path fill="none" stroke="#FFFFFF" stroke-width="0.75" stroke-linecap="round" stroke-miterlimit="10" d="M794.6,503.3"/>
	<path fill="none" stroke="#FFFFFF" stroke-width="0.75" stroke-linecap="round" stroke-miterlimit="10" d="M795.7,520.7
		c2.9,8.5,1.3,18.8-1,27.5"/>
	<path fill="none" stroke="#FFFFFF" stroke-width="0.75" stroke-linecap="round" stroke-miterlimit="10" d="M796.4,572.6
		c11,9.9,21.8,10.6,24.5,8.3c1.4-1.1,1.8-3,0.8-4.4c-0.8-1.2-2.4-1.4-3.5-0.7c-0.9,0.7-1.2,1.9-0.5,2.8c0.5,0.7,1.5,0.9,2.3,0.4"/>
	
		<line fill="none" stroke="#FFFFFF" stroke-width="0.75" stroke-linecap="round" stroke-miterlimit="10" x1="795.5" y1="477.1" x2="794" y2="477.5"/>
	
		<circle fill="#34110D" stroke="#FFFFFF" stroke-width="0.75" stroke-linecap="round" stroke-miterlimit="10" cx="790.5" cy="463.9" r="1"/>
	<path fill="none" stroke="#221E20" stroke-width="0.75" stroke-linecap="round" stroke-miterlimit="10" d="M805.4,489.5"/>
	<path fill="none" stroke="#FFFFFF" stroke-width="0.75" stroke-linecap="round" stroke-miterlimit="10" d="M802.7,541.8"/>
	<path fill="#34110D" stroke="#FFFFFF" stroke-width="0.75" stroke-linecap="round" stroke-miterlimit="10" d="M773.7,459.7
		c15.9,3.2,25,0.2,25,0.2c0.3-1.4-0.1-3.1-0.6-3.7c-3.9,1.4-13.9,1.6-25.5-0.2l0,0c0.3,1.9,0.8,2.7,0.9,3.3L773.7,459.7z"/>
	<path fill="none" stroke="#FFFFFF" stroke-width="0.75" stroke-linecap="round" stroke-miterlimit="10" d="M794.6,503.3
		c-0.4-1-1-2-1.9-2.8c-2.6-2.6-6.9-2.6-9.5,0c-2.1,2.1-2.1,5.5,0,7.6c1.7,1.7,4.4,1.7,6.1,0c1.4-1.4,1.4-3.5,0-4.9
		c-1.1-1.1-2.8-1.1-3.9,0"/>
	<path fill="none" stroke="#FFFFFF" stroke-width="0.75" stroke-linecap="round" stroke-miterlimit="10" d="M794.6,503.3
		c0.4-1,1-2,1.9-2.8c2.6-2.6,6.9-2.6,9.5,0c2.1,2.1,2.1,5.5,0,7.6c-1.7,1.7-4.4,1.7-6.1,0c-1.4-1.4-1.4-3.5,0-4.9
		c1.1-1.1,2.8-1.1,3.9,0"/>
	<g>
		<path fill="none" stroke="#221E20" stroke-width="0.75" stroke-linecap="round" stroke-miterlimit="10" d="M746.5,501.2"/>
		<path fill="none" stroke="#FFFFFF" stroke-width="0.75" stroke-linecap="round" stroke-miterlimit="10" d="M736.3,494.5
			c20.5-5,32.6,0.9,34.4,5.6c0.9,2.3,0.3,4.9-2,6.1c-1.8,0.9-4,0.2-4.9-1.5c-0.7-1.4-0.2-3.2,1.3-3.9c1.1-0.6,2.5-0.1,3.1,1"/>
		<path fill="#34110D" d="M731.4,492.3c9-2.3,20.6-3.7,29.1-2.4c14.2,2.3,16.8,7.3,15.6,14.3l0,0c-3,12.1-27,3.3-45.8-5
			C722.3,495.6,732.9,487,731.4,492.3z"/>
		<path fill="none" stroke="#FFFFFF" stroke-width="0.75" stroke-linecap="round" stroke-miterlimit="10" d="M736.3,494.5
			c20.5-5,32.6,0.9,34.4,5.6c0.9,2.3,0.3,4.9-2,6.1c-1.8,0.9-4,0.2-4.9-1.5c-0.7-1.4-0.2-3.2,1.3-3.9c1.1-0.6,2.5-0.1,3.1,1"/>
		
			<path fill="none" stroke="#FFFFFF" stroke-width="0.75" stroke-linecap="round" stroke-linejoin="round" stroke-miterlimit="10" d="
			M731.4,492.3c9-2.3,20.6-3.9,29.1-2.4c14.7,2.7,16.8,7.3,15.6,14.3l0,0c-3.2,12-26.8,3.4-48.2-6.1c-1.8-0.8,1.5-2.1,0,0
			C727.1,499.1,730.5,494.3,731.4,492.3z"/>
		<g>
			<path fill="#34110D" stroke="#FFFFFF" stroke-width="0.75" stroke-linecap="round" stroke-miterlimit="10" d="M732.4,500
				c15.6-7.4-7.9-21.7-10.3-37.4c0.2-1,0.8-7.8-1.1-11.7l-0.4-0.6c0.5-1.9-0.4-2.2-1.1-2.1c-1.4,2.5,0.2,5.9,0.2,5.9l-1.1-0.7
				c0-1.2-0.4-3.5-1.8-4.9c0.1-1.8-0.7-2.5-1.5-2.8c-0.1,1-0.1,2,0,2.9c0,0-0.1-0.1-0.2-0.2c0.1-2.1-0.8-2.8-1.7-3.2
				c-0.1,1-0.1,2,0,2.9c-0.3-0.6-0.8-0.9-1.3-1.1c-0.2,1.5,0,2.9,0.1,4.2c0,0-0.1-0.1-0.1-0.1c0.1-1.6-0.7-2.2-1.4-2.6
				c-0.5,0.9,1,7.4,1.9,8.4l5.2,7.7c1.3,6.1,5.7,19.8,9.6,33.4L732.4,500z"/>
			<g>
				<path fill="#34110D" stroke="#FFFFFF" stroke-width="0.5" stroke-miterlimit="10" d="M711.7,455.7"/>
				<path fill="#34110D" stroke="#FFFFFF" stroke-width="0.5" stroke-miterlimit="10" d="M712.2,452.7"/>
				<path fill="#34110D" stroke="#FFFFFF" stroke-width="0.5" stroke-miterlimit="10" d="M710.8,448.6"/>
				<line fill="none" stroke="#FFFFFF" stroke-width="0.5" stroke-miterlimit="10" x1="712.3" y1="451.2" x2="712.3" y2="451.2"/>
				<path fill="#34110D" stroke="#FFFFFF" stroke-width="0.5" stroke-linecap="round" stroke-miterlimit="10" d="M714,456.3
					c0.2-0.1-2.3-4.1-1.8-9.1l0,0c0.8,0.4,1.7,1,1.5,2.8l0,0c2.4,2.2,1.7,5.6,1.8,5.6"/>
				<path fill="#34110D" stroke="#FFFFFF" stroke-width="0.5" stroke-linecap="round" stroke-miterlimit="10" d="M715.5,455.6
					c0.2-0.1-2.6-4.5-2-10.2l0,0c0.9,0.4,1.9,1.2,1.7,3.2l0,0c2.7,2.5,1.9,6.3,2,6.3"/>
				<path fill="#34110D" stroke="#FFFFFF" stroke-width="0.5" stroke-linecap="round" stroke-miterlimit="10" d="M717.2,455
					c0.2-0.1-2.3-4.1-1.8-9.1l0,0c0.8,0.4,1.7,1,1.5,2.8l0,0c1.4,1.4,1.8,3.8,1.8,4.9"/>
			</g>
			
				<line fill="none" stroke="#FFFFFF" stroke-width="0.75" stroke-linecap="round" stroke-miterlimit="10" x1="722" y1="479.3" x2="722.1" y2="462.7"/>
		</g>
		<path fill="none" stroke="#FFFFFF" stroke-width="0.75" stroke-linecap="round" stroke-miterlimit="10" d="M727.6,498
			c1.2,0.9,2.9,0.6,3.8-0.6c0.7-1,0.5-2.3-0.5-3c-0.8-0.6-1.9-0.4-2.4,0.4c-0.5,0.6-0.3,1.5,0.3,2c0.5,0.4,1.2,0.3,1.5-0.2
			c0.3-0.4,0.2-0.9-0.2-1.3"/>
	</g>
	<path fill="none" stroke="#FFFFFF" stroke-width="0.75" stroke-linecap="round" stroke-miterlimit="10" d="M786.8,541.4
		c-0.3,4.2-1.3,10.9-5,18"/>
	
		<path fill="#34110D" stroke="#FFFFFF" stroke-width="0.75" stroke-linecap="round" stroke-linejoin="round" stroke-miterlimit="10" d="
		M831.8,589.1c-0.1-0.4-0.5-0.7-0.9-0.6c-0.5,0.1-0.8,0.6-0.7,1.1c0.1,0.7,0.7,1.1,1.4,0.9c0.4-0.1,0.8-0.3,1-0.7
		c0.2-0.3,0.2-0.7,0.2-1.1c-0.2-1-1.2-1.6-2.2-1.4c-1.3,0.3-2.1,1.5-1.8,2.7c0.3,1.5,2,2.4,3.5,2.4l0.4-2.1l-0.1-0.6"/>
	<polyline fill="#34110D" stroke="#FFFFFF" stroke-width="0.75" stroke-linecap="round" stroke-miterlimit="10" points="
		762.2,654.3 762,658.5 741.8,643.6 	"/>
	<path fill="none" stroke="#221E20" stroke-width="0.75" stroke-linecap="round" stroke-miterlimit="10" d="M759.2,656.4"/>
	<path fill="#34110D" stroke="#FFFFFF" stroke-width="0.75" stroke-linecap="round" stroke-miterlimit="10" d="M768,659.6
		c-0.2-0.3-3.2-1.6-3.5-1.9c-1-1.4-8.3-13.8-11.1-17.3l13.3-17.3l-5.3-1.3c-6.9,9.9-11.3,15.9-11.8,16.6c-3.3-1.4-5.7,2.3-7.8,5.1
		l20.2,15l4.2,3.1C767.7,662,768.8,660.9,768,659.6z"/>
	
		<path fill="#34110D" stroke="#FFFFFF" stroke-width="0.75" stroke-linecap="round" stroke-linejoin="round" stroke-miterlimit="10" d="
		M781.6,614.9c-14.7,14.2-23.4,21.5-28.1,25.5c7.7-14.9,16-47.7,28.1-38.2V614.9z"/>
	
		<path fill="#34110D" stroke="#FFFFFF" stroke-width="0.75" stroke-linecap="round" stroke-linejoin="round" stroke-miterlimit="10" d="
		M776.7,602.5c-5.9-12-9.7-33.2-2.3-36.1c-4.8-2.8-5.5-7.3-4.1-13.4c1.4-6.1,6.5-11,11.3-11.1l13.7,5.2c2.1,6.2,4.2,20.3-1.9,37.5
		c-4.2,11.8-6,16.1-7.6,20l-3.9,9.7L776.7,602.5"/>
	
		<path fill="#34110D" stroke="#FFFFFF" stroke-width="0.75" stroke-linecap="round" stroke-linejoin="round" stroke-miterlimit="10" d="
		M780.7,614.6c0.2-0.4,0-0.8-0.4-1c-0.5-0.2-1,0-1.3,0.5c-0.3,0.6,0,1.3,0.6,1.6c0.4,0.2,0.8,0.2,1.2,0c0.3-0.1,0.6-0.4,0.8-0.7
		c0.4-0.9,0-2-0.9-2.5c-1.2-0.6-2.5,0-3.1,1.1c-0.7,1.4-0.2,2.9,1.1,3.9l2.1-1.8"/>
	<path fill="none" stroke="#FFFFFF" stroke-width="0.75" stroke-linecap="round" stroke-miterlimit="10" d="M775.1,569.9
		c-3,10.7,1.4,26.5,5.7,28c1.4,0.5,3-0.2,3.5-1.6c0.4-1.1-0.2-2.4-1.3-2.8c-0.9-0.3-1.9,0.1-2.2,1c-0.3,0.7,0.1,1.5,0.8,1.8"/>
	<path fill="#34110D" stroke="#FFFFFF" stroke-width="0.75" stroke-linecap="round" stroke-miterlimit="10" d="M768.7,555.5
		c-0.5-8.4,2.6-13.3,7.9-14.2l24.5-0.1c0,29.5-32.5,27.7-32.5,27.7L768.7,555.5z"/>
	<path fill="none" stroke="#FFFFFF" stroke-width="0.75" stroke-linecap="round" stroke-miterlimit="10" d="M791.3,541.9
		c-1.2,4-3.6,10.3-8.8,16.4"/>
</g>
</svg>
