<?xml version="1.0" encoding="utf-8"?>
<!-- Generator: Adobe Illustrator 18.1.1, SVG Export Plug-In . SVG Version: 6.00 Build 0)  -->
<svg version="1.1" id="Layer_1" xmlns="http://www.w3.org/2000/svg" xmlns:xlink="http://www.w3.org/1999/xlink" x="0px" y="0px"
	 viewBox="0 0 1920 1080" enable-background="new 0 0 1920 1080" xml:space="preserve">
<rect x="-518.3" y="867.9" fill="#410106" stroke="#FFFFFF" stroke-width="0.75" stroke-linecap="round" stroke-miterlimit="10" width="23.7" height="2.2"/>
<rect x="-479.5" y="868.6" fill="#410106" stroke="#FFFFFF" stroke-width="0.75" stroke-linecap="round" stroke-miterlimit="10" width="23.7" height="2.2"/>
<g>
	<path fill="#321512" stroke="#FFFFFF" stroke-width="0.25" stroke-miterlimit="10" d="M519.7,201.2
		c-179.2,138-290.3,370.1-222.1,653.7l389.5-104c-39.3-178.3,95.6-294.1,231.8-294.1c136.1,0,266,117.8,228.2,294.1l393.1,103.6
		C1651.7,389.4,1281.2,63,918.8,63C777.3,63,634.5,112.8,519.7,201.2z"/>
	<g>
		<path fill="#321512" stroke="#FFFFFF" stroke-width="0.25" stroke-miterlimit="10" d="M361.9,816.4
			c-8.8-39.9-13.7-79.8-14.7-118.6h1.5h-23.1c1,40.7,6.1,82.6,15.3,124.5l22.5-6.2L361.9,816.4z"/>
		<path fill="#321512" stroke="#FFFFFF" stroke-width="0.25" stroke-miterlimit="10" d="M376.9,812.3c-8.4-38.3-13-76.8-13.5-114.5
			h1.4h-14.6c0.9,38.6,5.9,78.2,14.6,117.9l13.5-3.7L376.9,812.3z"/>
		<path fill="#321512" stroke="#FFFFFF" stroke-width="0.25" stroke-miterlimit="10" d="M444.5,793.7l16.1-4.4
			c-6.7-31.4-10.3-62-11.2-91.5h-17.3C432.7,729.7,436.9,762,444.5,793.7z"/>
		<path fill="#321512" stroke="#FFFFFF" stroke-width="0.25" stroke-miterlimit="10" d="M324,697.8h-19.3
			c1.2,42.5,6.8,86.2,16.6,129.9l18.3-5.1L338,823c-9.2-42.1-14.4-84.2-15.4-125.2H324z"/>
		<path fill="#321512" stroke="#FFFFFF" stroke-width="0.25" stroke-miterlimit="10" d="M403.7,804.9c-8-35.9-12.5-71.9-13.5-107.1
			h1.5h-25.3c0.5,37.5,5,75.7,13.4,113.8l25.3-7L403.7,804.9z"/>
		<path fill="#321512" stroke="#FFFFFF" stroke-width="0.25" stroke-miterlimit="10" d="M318.4,828.5c-9.9-44-15.5-87.9-16.7-130.7
			h-24.4c0.6,44.3,5.7,90.2,15.8,137.7l26.5-7.3L318.4,828.5z"/>
		<path fill="#321512" stroke="#FFFFFF" stroke-width="0.25" stroke-miterlimit="10" d="M441.6,794.4c-7.7-32-11.9-64.5-12.5-96.6
			h1.4h-18.7c1.1,33.6,6.1,67.5,14.7,100.9l16.6-4.6L441.6,794.4z"/>
		<path fill="#321512" stroke="#FFFFFF" stroke-width="0.25" stroke-miterlimit="10" d="M408.8,697.8l1.5-0.1h-17.1
			c1,34.9,5.5,70.7,13.4,106.4l17-4.7C414.9,765.8,409.9,731.6,408.8,697.8z"/>
	</g>
	<g>
		<path fill="#321512" stroke="#FFFFFF" stroke-width="0.25" stroke-miterlimit="10" d="M363.6,673.1c1.3-39.1,6.9-78,16.7-115.4
			l-14.7-3.7c-9.5,38.5-14.7,78.6-15.5,119.1h15L363.6,673.1z"/>
		<path fill="#321512" stroke="#FFFFFF" stroke-width="0.25" stroke-miterlimit="10" d="M320.3,542.7c-10,42.1-15.3,86.1-15.8,130.5
			h19.4h-1.3c0.7-42.9,6.1-85.3,15.9-125.9L320.3,542.7z"/>
		<path fill="#321512" stroke="#FFFFFF" stroke-width="0.25" stroke-miterlimit="10" d="M347.2,673.1c0.8-40.8,6-81.1,15.6-119.8
			l1.2,0.3l-22.5-5.6c-9.8,40.4-15.1,82.6-15.9,125.2h23L347.2,673.1z"/>
		<path fill="#321512" stroke="#FFFFFF" stroke-width="0.25" stroke-miterlimit="10" d="M391.4,673.2h-1.3c0.7-37.2,5.4-74,14-109.5
			l1.5,0.4l-23.8-6l1.5,0.4c-9.8,37.2-15.4,75.8-16.6,114.7L391.4,673.2z"/>
		<path fill="#321512" stroke="#FFFFFF" stroke-width="0.25" stroke-miterlimit="10" d="M301.5,673.2c0.5-44.7,5.8-88.8,15.9-131.2
			l1.5,0.4l-22.9-5.7c-11,43.3-17.4,88.9-18.6,136.6h25.4L301.5,673.2z"/>
		<path fill="#321512" stroke="#FFFFFF" stroke-width="0.25" stroke-miterlimit="10" d="M445.7,574.1l1.5,0.4
			c-8.7,32.3-13.7,65.5-14.9,98.7h17.1c0.8-33.1,5.2-64.8,12.7-95L445.7,574.1z"/>
		<path fill="#321512" stroke="#FFFFFF" stroke-width="0.25" stroke-miterlimit="10" d="M430.7,673.2l-1.4-0.1
			c1.2-33.4,6.2-66.8,15-99.4l-19.5-4.9l1.4,0.4c-8.9,34-13.8,69-14.5,104H430.7z"/>
		<path fill="#321512" stroke="#FFFFFF" stroke-width="0.25" stroke-miterlimit="10" d="M408.6,673.1c0.7-35.2,5.7-70.4,14.6-104.7
			l-16.3-4.1c-8.5,35.2-13.2,71.8-13.9,108.8h17.1H408.6z"/>
	</g>
	<g>
		<path fill="#321512" stroke="#FFFFFF" stroke-width="0.25" stroke-miterlimit="10" d="M373.5,400.1l1.3,0.7
			c-21.6,39.6-38.5,81.6-50.2,125.1l19.7,5l-1.4-0.4c11.6-41.9,28.1-82.5,49.2-120.6L373.5,400.1z"/>
		<path fill="#321512" stroke="#FFFFFF" stroke-width="0.25" stroke-miterlimit="10" d="M410.1,547.5l-1.7-0.5
			c10.3-36.7,24.9-72.3,43.4-105.8l-18.1-9.5l1.3,0.7c-19.9,34.7-35.8,71.5-47.1,109.4L410.1,547.5z"/>
		<path fill="#321512" stroke="#FFFFFF" stroke-width="0.25" stroke-miterlimit="10" d="M386.4,541.5L385,541
			c11.4-38.1,27.4-75.2,47.4-110.1l-16.1-8.4l1.3,0.7c-20.3,36.1-36.3,74.4-47.5,114.1L386.4,541.5z"/>
		<path fill="#321512" stroke="#FFFFFF" stroke-width="0.25" stroke-miterlimit="10" d="M368.6,537l-1.4-0.4
			c11.3-39.9,27.4-78.5,47.8-114.7l-21.6-11.3l1.3,0.7c-21,37.9-37.4,78.3-48.9,120L368.6,537z"/>
		<path fill="#321512" stroke="#FFFFFF" stroke-width="0.25" stroke-miterlimit="10" d="M492.3,462.4l1.3,0.7
			c-17.5,30.3-31.5,62.2-41.6,94.9l14.6,3.7c9.6-32.8,22.8-63.6,39.2-92.3L492.3,462.4z"/>
		<path fill="#321512" stroke="#FFFFFF" stroke-width="0.25" stroke-miterlimit="10" d="M321.7,525.1c11.8-43.7,28.8-86,50.5-125.7
			l-17.5-9.2c-22.7,40.2-41,83.5-54.2,129.6l22.6,5.7L321.7,525.1z"/>
		<path fill="#321512" stroke="#FFFFFF" stroke-width="0.25" stroke-miterlimit="10" d="M449,557.3c10.2-32.9,24.3-65.1,41.9-95.6
			l-18.1-9.5l1.3,0.7c-18.3,31.9-32.9,65.4-43.3,99.8L449,557.3z"/>
		<path fill="#321512" stroke="#FFFFFF" stroke-width="0.25" stroke-miterlimit="10" d="M429.4,552.3l-1.4-0.4
			c10.4-34.6,25.1-68.3,43.6-100.4l-18.3-9.6l1.3,0.7c-18.4,33.3-33,68.7-43.2,105.2L429.4,552.3z"/>
	</g>
	<g>
		<path fill="#321512" stroke="#FFFFFF" stroke-width="0.25" stroke-miterlimit="10" d="M428.9,398.6c22.7-35.8,49.9-69.4,80.9-99.6
			l-17.3-16.8c-32.1,31.9-60.3,67.3-83.7,105l21.4,12.2L428.9,398.6z"/>
		<path fill="#321512" stroke="#FFFFFF" stroke-width="0.25" stroke-miterlimit="10" d="M476,266.2c-33.4,33.4-62.6,70.4-86.8,109.9
			l18.3,10.4l-1.3-0.8c23.5-38,51.8-73.5,84.1-105.6L476,266.2z"/>
		<path fill="#321512" stroke="#FFFFFF" stroke-width="0.25" stroke-miterlimit="10" d="M448.7,410l17.4,9.9l-1.3-0.8
			c20.6-33.2,45.4-64.3,73.5-92.5L510.8,300l1,1.1c-30.8,30.1-57.9,63.4-80.4,99.1l15.9,9.1l-1.3-0.8c22-34.3,48.1-66.4,77.6-95.5
			l2.1,2.1C496.5,344,470.5,375.9,448.7,410z"/>
		<path fill="#321512" stroke="#FFFFFF" stroke-width="0.25" stroke-miterlimit="10" d="M386.6,374.5
			c24.3-39.7,53.7-76.8,87.2-110.4l-12.5-12.2c-34.5,33.8-65.3,71.6-91.5,113.1l18.1,10.3L386.6,374.5z"/>
		<path fill="#321512" stroke="#FFFFFF" stroke-width="0.25" stroke-miterlimit="10" d="M556.2,344l1.1,1.1
			c-26.7,26.6-50.3,55.7-70.2,86.8l17.7,10.1l-1.3-0.8c19.1-29.7,41.7-57.7,67-83.2l2.1,2.1c-25.2,25.3-47.6,53.1-66.6,82.6
			l11.9,6.8c18.7-29,40.7-55.5,65.2-79.3L556.2,344z"/>
		<path fill="#321512" stroke="#FFFFFF" stroke-width="0.25" stroke-miterlimit="10" d="M485.7,431.1l-1.3-0.8
			c20.1-31.2,43.9-60.6,70.7-87.3l-15.8-15.3l1.1,1.1c-28,28-52.5,58.9-73.1,91.9L485.7,431.1z"/>
	</g>
	<g>
		<path fill="#321512" stroke="#FFFFFF" stroke-width="0.25" stroke-miterlimit="10" d="M551.6,315.8l-1-1.1
			c28.5-26.7,60.1-50.5,94-70.7l-9.2-15.2l0.7,1.2c-35,20.8-67.8,45.3-97.5,72.8L551.6,315.8z"/>
		<path fill="#321512" stroke="#FFFFFF" stroke-width="0.25" stroke-miterlimit="10" d="M537.5,301.8l-1-1.1
			c29.8-27.7,62.8-52.3,98.1-73.3l-8.8-14.6l0.8,1.3c-36.7,21.4-71,46.6-101.9,74.9L537.5,301.8z"/>
		<path fill="#321512" stroke="#FFFFFF" stroke-width="0.25" stroke-miterlimit="10" d="M523.6,287.9l-1-1.1
			c31-28.5,65.5-53.8,102.4-75.3l-13.8-22.9l0.8,1.3c-38.5,22.8-74.4,49.6-106.6,79.8L523.6,287.9z"/>
		<path fill="#321512" stroke="#FFFFFF" stroke-width="0.25" stroke-miterlimit="10" d="M599.2,168.7l0.8,1.3
			c-40.1,23.8-77.4,52-110.9,83.5l15.2,15.2l-1-1.1c32.4-30.3,68.5-57.3,107.2-80.2L599.2,168.7z"/>
		<path fill="#321512" stroke="#FFFFFF" stroke-width="0.25" stroke-miterlimit="10" d="M582.4,346.4c25.9-24.5,54.4-46.3,84.7-64.9
			l0.8,1.2l-10-16.5c-31.7,19.3-61.5,41.9-88.6,67.2l14.4,14.3L582.4,346.4z"/>
		<path fill="#321512" stroke="#FFFFFF" stroke-width="0.25" stroke-miterlimit="10" d="M668.6,284c-30.1,18.5-58.4,40.2-84.2,64.5
			L595,359c25.3-22.9,53.1-43.1,82.6-60.1L668.6,284z"/>
		<path fill="#321512" stroke="#FFFFFF" stroke-width="0.25" stroke-miterlimit="10" d="M568.2,332.4l-1-1.1
			c27.3-25.5,57.2-48.3,89.1-67.7l0.8,1.2l-11.7-19.4l0.7,1.2c-33.7,20.1-65.1,43.7-93.4,70.3L568.2,332.4z"/>
		<path fill="#321512" stroke="#FFFFFF" stroke-width="0.25" stroke-miterlimit="10" d="M486.9,251.4c33.7-31.7,71.2-60,111.5-84
			l-8.2-13.7c-41.3,24.1-80.2,52.8-115.5,85.5l13.3,13.2L486.9,251.4z"/>
	</g>
	<g>
		<path fill="#321512" stroke="#FFFFFF" stroke-width="0.25" stroke-miterlimit="10" d="M656.8,214.9
			c34.4-18.5,70.7-33.5,107.7-44.6l0.4,1.4l-4.2-15c-38.4,11.1-76,26.3-111.6,45l8.4,14.5L656.8,214.9z"/>
		<path fill="#321512" stroke="#FFFFFF" stroke-width="0.25" stroke-miterlimit="10" d="M752.3,127.2l-6-21.2
			c-42.5,12.6-84,29.7-123.2,50.9l10.9,18.9l-0.7-1.3c37.8-20.3,77.6-36.6,118.5-48.7L752.3,127.2z"/>
		<path fill="#321512" stroke="#FFFFFF" stroke-width="0.25" stroke-miterlimit="10" d="M647.6,199c35.8-18.8,73.5-34,112.2-45.2
			l0.4,1.3l-7.5-26.5c-40.7,12-80.3,28.3-117.9,48.4l13.5,23.3L647.6,199z"/>
		<path fill="#321512" stroke="#FFFFFF" stroke-width="0.25" stroke-miterlimit="10" d="M666.5,231.6
			c32.9-17.6,67.7-31.9,103.3-42.5l0.4,1.5l-4.9-17.4c-36.8,11-72.8,25.9-107.1,44.3l8.9,15.5L666.5,231.6z"/>
		<path fill="#321512" stroke="#FFFFFF" stroke-width="0.25" stroke-miterlimit="10" d="M782,232.6c-31.6,9.7-62.7,22.9-92.4,39.2
			l9,15.6c28.5-14.7,58.3-26.6,88.9-35.4L782,232.6z"/>
		<path fill="#321512" stroke="#FFFFFF" stroke-width="0.25" stroke-miterlimit="10" d="M621.7,154.2
			c39.4-21.3,81.1-38.5,123.8-51.1l0.4,1.4l-4.5-15.8c-44,12.8-86.9,30.2-127.7,51.9l8.6,14.9L621.7,154.2z"/>
		<path fill="#321512" stroke="#FFFFFF" stroke-width="0.25" stroke-miterlimit="10" d="M677.8,251.3c31.4-17.2,64.4-31,97.9-41.2
			l0.4,1.4l-5.5-19.5c-35.4,10.5-69.9,24.7-102.7,42.2l10.6,18.3L677.8,251.3z"/>
		<path fill="#321512" stroke="#FFFFFF" stroke-width="0.25" stroke-miterlimit="10" d="M688.2,269.2c29.9-16.4,61.2-29.7,93-39.5
			l0.4,1.5l-5.1-18.2c-33.3,10.1-66,23.9-97.2,40.9l9.6,16.7L688.2,269.2z"/>
	</g>
	<g>
		<path fill="#321512" stroke="#FFFFFF" stroke-width="0.25" stroke-miterlimit="10" d="M905.5,102.9V80.7
			c-46.3,1.1-93.1,7.7-139.1,19.6l5.8,21.3l-0.4-1.5c44.2-11.4,89.2-17.8,133.7-18.8V102.9z"/>
		<path fill="#321512" stroke="#FFFFFF" stroke-width="0.25" stroke-miterlimit="10" d="M779.4,148.5
			c41.7-10.6,84.1-16.4,126.1-17.5v1.5v-28.1c-44.2,1.1-89,7.4-132.9,18.7l7.2,26.8L779.4,148.5z"/>
		<path fill="#321512" stroke="#FFFFFF" stroke-width="0.25" stroke-miterlimit="10" d="M794.9,206.2l-0.4-1.5
			c36.8-9.6,74.2-14.7,110.9-15.3v1.5v-20.5c-38.6,1-77.6,6.5-115.8,16.3L794.9,206.2z"/>
		<path fill="#321512" stroke="#FFFFFF" stroke-width="0.25" stroke-miterlimit="10" d="M800.6,227.3l5.3,19.7
			c32.7-8.1,66.1-12.8,99.6-13.8v-20.4C870.7,213.3,835.4,218.2,800.6,227.3z"/>
		<path fill="#321512" stroke="#FFFFFF" stroke-width="0.25" stroke-miterlimit="10" d="M800.2,225.8l-0.4-1.4
			c35-9.2,70.6-14.1,105.6-14.7v1.5v-18.8c-36.5,0.5-73.6,5.6-110.2,15.2L800.2,225.8z"/>
		<path fill="#321512" stroke="#FFFFFF" stroke-width="0.25" stroke-miterlimit="10" d="M765.6,97.5c46.2-12,93.3-18.7,139.8-19.7
			v1.5V63.1c-48.3,1.1-96.6,7.9-143.7,20l4.3,15.8L765.6,97.5z"/>
		<path fill="#321512" stroke="#FFFFFF" stroke-width="0.25" stroke-miterlimit="10" d="M788.9,183.8c38.4-9.9,77.6-15.4,116.5-16.4
			v1.5v-18.4c-40.2,1.1-80.9,6.9-120.9,17.3l4.7,17.5L788.9,183.8z"/>
		<path fill="#321512" stroke="#FFFFFF" stroke-width="0.25" stroke-miterlimit="10" d="M783.8,164.9
			c40.2-10.5,81.2-16.3,121.6-17.4v1.5v-15c-41.7,1-83.9,6.9-125.3,17.4l4,15L783.8,164.9z"/>
	</g>
	<g>
		<path fill="#321512" stroke="#FFFFFF" stroke-width="0.25" stroke-miterlimit="10" d="M930.3,77.7c46.4,0.9,93.3,7.4,139.4,19.2
			l-0.4,1.5l4.4-15.9c-47.1-11.9-95.3-18.6-143.5-19.5v16.2L930.3,77.7z"/>
		<path fill="#321512" stroke="#FFFFFF" stroke-width="0.25" stroke-miterlimit="10" d="M1050.2,166.6c-39.7-9.9-80-15.4-119.9-16.2
			v18.2v-1.3c38.6,0.9,77.4,6.1,115.3,15.5l-0.4,1.6L1050.2,166.6z"/>
		<path fill="#321512" stroke="#FFFFFF" stroke-width="0.25" stroke-miterlimit="10" d="M930.3,211.5l0.1-1.5
			c34.7,1.3,69.6,6.3,103.6,14.8l4.6-16.5c-35.7-9-72.1-14.3-108.2-15.6L930.3,211.5z"/>
		<path fill="#321512" stroke="#FFFFFF" stroke-width="0.25" stroke-miterlimit="10" d="M1044.8,185.7
			c-37.7-9.3-76.2-14.5-114.6-15.4v20.8l0.1-1.5c36.4,1.3,73.1,6.6,109,15.7l-0.4,1.5L1044.8,185.7z"/>
		<path fill="#321512" stroke="#FFFFFF" stroke-width="0.25" stroke-miterlimit="10" d="M1062.6,122.5
			c-43.8-11.1-88.3-17.2-132.3-18.1v27.8V131c41.6,0.9,83.7,6.5,125.1,16.8l-0.3,1.4L1062.6,122.5z"/>
		<path fill="#321512" stroke="#FFFFFF" stroke-width="0.25" stroke-miterlimit="10" d="M1054.7,150.7
			c-41.2-10.2-83-15.8-124.4-16.7v14.7v-1.3c40.1,0.9,80.7,6.4,120.7,16.3l-0.3,1.4L1054.7,150.7z"/>
		<path fill="#321512" stroke="#FFFFFF" stroke-width="0.25" stroke-miterlimit="10" d="M930.3,213v20.1
			c32.8,0.8,65.6,5.2,97.7,12.9l5.1-18.3C999.3,219.3,964.7,214.3,930.3,213z"/>
		<path fill="#321512" stroke="#FFFFFF" stroke-width="0.25" stroke-miterlimit="10" d="M1068.9,99.8C1023,88,976.4,81.6,930.2,80.7
			v21.9v-1.2c44.3,0.9,89,7,133.1,18.2l-0.4,1.5L1068.9,99.8z"/>
	</g>
	<g>
		<path fill="#321512" stroke="#FFFFFF" stroke-width="0.25" stroke-miterlimit="10" d="M1214.6,153.5l-0.7,1.3l8.5-14.9
			c-42.2-22.3-86.5-40.1-132.1-52.9l-4.2,14.4C1130.6,114,1173.8,131.5,1214.6,153.5z"/>
		<path fill="#321512" stroke="#FFFFFF" stroke-width="0.25" stroke-miterlimit="10" d="M1187.4,201c-37.2-19.5-76.5-35-116.8-46.2
			l0.4-1.3l-4.2,14.4c39.2,11,77.4,26.2,113.6,45.3l-0.7,1.4L1187.4,201z"/>
		<path fill="#321512" stroke="#FFFFFF" stroke-width="0.25" stroke-miterlimit="10" d="M1061.2,186.9
			c37.7,10.6,74.4,25.3,109.1,43.8l-0.5,0.9l9.1-15.8c-36-19-74-34.1-113-45l0.4-1.4L1061.2,186.9z"/>
		<path fill="#321512" stroke="#FFFFFF" stroke-width="0.25" stroke-miterlimit="10" d="M1048.1,231.8l0.8-2.9
			c34.4,9.8,67.8,23.3,99.3,40.1l-0.7,1.3l9.4-16.4c-32.8-17.3-67.5-31.2-103.1-41.4l0.8-2.9c35.8,10.2,70.7,24.2,103.8,41.7
			l-0.7,1.3l11-19.2c-34.5-18.4-70.9-33.1-108.5-43.6l-17.6,60c32.8,9,64.8,21.4,95.3,37l8.8-15.3
			C1115.5,254.9,1082.3,241.5,1048.1,231.8z"/>
		<path fill="#321512" stroke="#FFFFFF" stroke-width="0.25" stroke-miterlimit="10" d="M1201.5,176.4
			c-39.1-20.8-80.4-37.5-122.8-49.5l0.5-1.7l-7.8,26.8c40.5,11.2,80,26.9,117.4,46.4l-0.7,1.3L1201.5,176.4z"/>
		<path fill="#321512" stroke="#FFFFFF" stroke-width="0.25" stroke-miterlimit="10" d="M1213.2,156.1
			c-40.7-21.8-83.7-39.3-127.8-51.9l0.5-1.8l-6.3,21.5c42.6,12.1,84.1,28.8,123.4,49.8l-0.8,1.5L1213.2,156.1z"/>
	</g>
	<g>
		<path fill="#321512" stroke="#FFFFFF" stroke-width="0.25" stroke-miterlimit="10" d="M1169.3,283.7l1.2-2.1
			c29.7,17.8,57.4,38.7,82.4,62l-1.1,1.2l14.4-14.4c-26.4-24.1-55.6-45.6-86.7-64l1.3-2.1L1169.3,283.7z"/>
		<path fill="#321512" stroke="#FFFFFF" stroke-width="0.25" stroke-miterlimit="10" d="M1282.2,314.5
			c-27.5-25.8-58.1-48.8-90.7-68.3l-10.4,17.7c31.4,18.5,60.7,40.2,87.3,64.4l-1,1.1L1282.2,314.5z"/>
		<path fill="#321512" stroke="#FFFFFF" stroke-width="0.25" stroke-miterlimit="10" d="M1331.7,265.1l-1.1,1.2L1346,251
			c-33-30.8-69.7-58.2-109.1-81.6l-24.7,41.8c36.1,20.9,69.8,45.5,100.2,73.1l-1,1.1l18.3-18.2c-31.7-29.3-66.9-55.5-104.6-77.8
			l1.5-2.6C1264.5,209.3,1299.8,235.6,1331.7,265.1z"/>
		<path fill="#321512" stroke="#FFFFFF" stroke-width="0.25" stroke-miterlimit="10" d="M1238.4,166.9c39.6,23.4,76.5,51,109.7,82
			l-1.1,1.2l13.3-13.3c-34.9-31.9-73.2-59.9-113.8-83.6l-9.1,15.3L1238.4,166.9z"/>
		<path fill="#321512" stroke="#FFFFFF" stroke-width="0.25" stroke-miterlimit="10" d="M1297.6,299.2
			c-29.1-26.6-61.3-50.3-95.7-70.6l1.1-1.9l-11.3,19l1.3-2.2c32.9,19.7,63.6,42.8,91.3,68.7l-1.1,1.1L1297.6,299.2z"/>
		<path fill="#321512" stroke="#FFFFFF" stroke-width="0.25" stroke-miterlimit="10" d="M1169.1,284.2l-8.8,14.8
			c28.4,16.4,55.2,35.7,79.7,57.6l10.9-10.8C1226.1,322.6,1198.5,301.9,1169.1,284.2z"/>
		<path fill="#321512" stroke="#FFFFFF" stroke-width="0.25" stroke-miterlimit="10" d="M1310.3,286.6
			c-30.3-27.4-63.8-51.9-99.7-72.7l0.9-1.5l-8.1,13.7c34.7,20.3,67.1,44.2,96.3,71l-1,1.1L1310.3,286.6z"/>
	</g>
	<g>
		<path fill="#321512" stroke="#FFFFFF" stroke-width="0.25" stroke-miterlimit="10" d="M1280.8,344.2l1-1l-14.7,14.2
			c24.3,24.7,45.9,51.9,64,81l-1.3,0.8l37-21.9c-19.9-31.8-43.5-61.6-70.1-88.6l1-1l-14.9,14.4c25.9,25.5,48.8,53.6,68.3,83.5
			l-2.5,1.6C1329.3,397.5,1306.5,369.6,1280.8,344.2z"/>
		<path fill="#321512" stroke="#FFFFFF" stroke-width="0.25" stroke-miterlimit="10" d="M1347.1,279.8c31,30.8,58.4,64.8,81.4,101
			l16.8-10c-23.6-37.6-51.8-73-83.8-105l1-1L1347.1,279.8z"/>
		<path fill="#321512" stroke="#FFFFFF" stroke-width="0.25" stroke-miterlimit="10" d="M1447.8,369.3l-1.3,0.8l17.9-10.6
			c-25.4-39.4-55.2-75.5-88.3-107.9l-12.5,12.2C1395.8,296,1424.1,331.5,1447.8,369.3z"/>
		<path fill="#321512" stroke="#FFFFFF" stroke-width="0.25" stroke-miterlimit="10" d="M1345,281.9l1-1l-18.4,17.8
			c29.8,29.1,56.2,61.2,78.3,95.4l-1.1,0.7l21-12.5l0,0C1403,346.4,1375.8,312.6,1345,281.9z"/>
		<path fill="#321512" stroke="#FFFFFF" stroke-width="0.25" stroke-miterlimit="10" d="M1265,359.5l-10.7,10.4
			c23.8,23,45.1,48.6,63.5,76.5l10.9-6.4C1310.6,411.1,1289.2,384,1265,359.5z"/>
		<path fill="#321512" stroke="#FFFFFF" stroke-width="0.25" stroke-miterlimit="10" d="M1403.4,395.7c-22-34.1-48.2-66-77.9-94.9
			l1-1.1l-11.8,11.5c28.6,28.2,53.8,59.3,74.9,92.5l-1.3,0.8L1403.4,395.7z"/>
		<path fill="#321512" stroke="#FFFFFF" stroke-width="0.25" stroke-miterlimit="10" d="M1312.6,313.4l1.1-1.1l-14.8,14.3
			c26.8,27.2,50.6,57.2,70.6,89.2l17.6-10.4C1366,372.4,1341,341.4,1312.6,313.4z"/>
	</g>
	<g>
		<path fill="#321512" stroke="#FFFFFF" stroke-width="0.25" stroke-miterlimit="10" d="M1461.4,392.1c23,40.7,40.9,84,53.4,128.9
			l-1.5,0.4l22.5-5.6c-13.9-47.6-33.4-92.2-57.5-133.4l-17.9,10.2L1461.4,392.1z"/>
		<path fill="#321512" stroke="#FFFFFF" stroke-width="0.25" stroke-miterlimit="10" d="M1493.6,526.3l-1.5,0.4l19.8-4.9
			c-12.4-44.6-30.3-87.7-53.1-128.1l-39.4,22.6c21.2,36.6,38,75.7,49.8,116.1l-1.8,0.5l23.2-5.8c-12.1-42.5-29.4-83.7-51.4-122.2
			l2.6-1.5C1464.1,442.1,1481.5,483.5,1493.6,526.3z"/>
		<path fill="#321512" stroke="#FFFFFF" stroke-width="0.25" stroke-miterlimit="10" d="M1408,547.6l-1.4,0.4l16.7-4.2
			c-10.5-36.4-25.2-71.7-43.6-104.8l-36,20.7c16.4,29.8,29.6,61.5,39.2,94.3l22.3-5.5c-10.5-34.5-25-67.9-43-99.3l2.6-1.5
			C1382.8,479.2,1397.4,512.8,1408,547.6z"/>
		<path fill="#321512" stroke="#FFFFFF" stroke-width="0.25" stroke-miterlimit="10" d="M1341,461.1l-10.5,6
			c16.2,28,29.5,58.1,39.2,90l10.1-2.5C1370.4,522.1,1357.3,490.7,1341,461.1z"/>
		<path fill="#321512" stroke="#FFFFFF" stroke-width="0.25" stroke-miterlimit="10" d="M1466.4,533.1
			c-11.7-40.2-28.4-79-49.5-115.4l1.6-0.9l-15.6,8.9c20,35.2,35.8,72.7,46.8,111.5l-1.4,0.4L1466.4,533.1z"/>
		<path fill="#321512" stroke="#FFFFFF" stroke-width="0.25" stroke-miterlimit="10" d="M1446.8,538c-11-38.5-26.6-75.8-46.6-110.8
			l-18.8,10.8l0.9-0.5c18.6,33.3,33.3,68.9,43.9,105.6l-1.4,0.4L1446.8,538z"/>
	</g>
	<g>
		<path fill="#321512" stroke="#FFFFFF" stroke-width="0.25" stroke-miterlimit="10" d="M1385.4,571.7l2.1-0.5
			c8.1,32.3,12.9,66.1,14.2,100.5l24-0.2c-1.5-36.1-6.8-71.8-15.8-105.9l1.4-0.4L1385.4,571.7z"/>
		<path fill="#321512" stroke="#FFFFFF" stroke-width="0.25" stroke-miterlimit="10" d="M1427.9,560.9l-15,3.8
			c9.1,34.4,14.4,70.3,15.9,106.6l14.3-0.1C1441.9,633.7,1436.8,596.6,1427.9,560.9z"/>
		<path fill="#321512" stroke="#FFFFFF" stroke-width="0.25" stroke-miterlimit="10" d="M1451.3,555l-21.8,5.5l1.3-0.3
			c9,35.9,14.1,73.2,15.3,111l20.2-0.2C1465.6,631.4,1460.6,592.4,1451.3,555z"/>
		<path fill="#321512" stroke="#FFFFFF" stroke-width="0.25" stroke-miterlimit="10" d="M1519.2,537.7
			c10.5,42.8,16.2,87.4,16.9,132.5h-1.5l25.5-0.3c-1.4-48.1-8.2-94.1-19.6-137.7l-22.3,5.7L1519.2,537.7z"/>
		<path fill="#321512" stroke="#FFFFFF" stroke-width="0.25" stroke-miterlimit="10" d="M1384.6,571.9l-10,2.5
			c8,30.9,12.7,63.4,13.6,97.3l10.4-0.1C1397.3,637.6,1392.6,604.1,1384.6,571.9z"/>
		<path fill="#321512" stroke="#FFFFFF" stroke-width="0.25" stroke-miterlimit="10" d="M1471,550l0.8-0.2l-18.8,4.8l1.3-0.3
			c9.3,37.7,14.4,76.9,15,116.7l18.2-0.2C1486.5,629.6,1481,589,1471,550z"/>
		<path fill="#321512" stroke="#FFFFFF" stroke-width="0.25" stroke-miterlimit="10" d="M1533.1,670.3
			c-0.7-44.9-6.4-89.3-16.8-131.8l-19.5,5l1.3-0.3c10.3,41.1,16,84,16.9,127.4h-1.5L1533.1,670.3z"/>
		<path fill="#321512" stroke="#FFFFFF" stroke-width="0.25" stroke-miterlimit="10" d="M1512,670.5c-0.9-43.2-6.6-85.8-16.8-126.7
			l-21.3,5.4c10,39.2,15.6,80.1,16.5,121.5h-1.5L1512,670.5z"/>
	</g>
	<g>
		<path fill="#321512" stroke="#FFFFFF" stroke-width="0.25" stroke-miterlimit="10" d="M1452.3,806.4
			c8.2-37.2,12.8-74.5,13.8-110.7H1445h1.2c-0.5,34.9-4.3,70.7-11.4,106.5L1452.3,806.4z"/>
		<path fill="#321512" stroke="#FFFFFF" stroke-width="0.25" stroke-miterlimit="10" d="M1400.4,695.7h1.6
			c-0.2,31.4-3.3,63.8-9.2,96.2l-1.5-0.3l40.6,9.8c7-35.5,10.8-71.1,11.3-105.8h-14.7h0.6c-0.2,33.4-3.6,67.8-10.2,102.2l-2.9-0.6
			c6.5-34.2,9.9-68.4,10.1-101.7L1400.4,695.7z"/>
		<path fill="#321512" stroke="#FFFFFF" stroke-width="0.25" stroke-miterlimit="10" d="M1512,695.7h-23.1h1.5
			c-0.8,38.1-5.5,77.3-13.8,116.6l-0.9-0.2l22.1,5.3C1506.4,776.5,1511.2,735.5,1512,695.7z"/>
		<path fill="#321512" stroke="#FFFFFF" stroke-width="0.25" stroke-miterlimit="10" d="M1487.5,695.7h-19.6h1.3
			c-1,36.4-5.7,73.9-13.9,111.4l-1.5-0.3l20,4.8C1482,772.6,1486.7,733.6,1487.5,695.7z"/>
		<path fill="#321512" stroke="#FFFFFF" stroke-width="0.25" stroke-miterlimit="10" d="M1534.6,695.7h1.4
			c-1,41.6-6.3,84.4-15.5,127.2l25.3,6.1c9.4-45.9,14.1-90.4,14.5-133.4L1534.6,695.7z"/>
		<path fill="#321512" stroke="#FFFFFF" stroke-width="0.25" stroke-miterlimit="10" d="M1399,695.7h-10.7
			c-0.7,29.8-4.3,60.7-11,92.6l12.6,3.1C1395.7,759.1,1398.8,726.9,1399,695.7z"/>
		<path fill="#321512" stroke="#FFFFFF" stroke-width="0.25" stroke-miterlimit="10" d="M1533,695.7h-19.1h1.2
			c-0.8,40-5.7,81.2-14.4,122.4l-1.5-0.3l18.3,4.4C1526.8,779.7,1531.9,737.1,1533,695.7z"/>
	</g>
	<path fill="#321512" stroke="#FFFFFF" stroke-width="0.25" stroke-miterlimit="10" d="M665,559.2c3.8-6.8,7.9-13.5,12.2-20l-16-8.9
		c-4.3,6.5-8.3,13.2-12,20L665,559.2z"/>
	<path fill="#321512" stroke="#FFFFFF" stroke-width="0.25" stroke-miterlimit="10" d="M646.6,548.8c3.7-6.8,7.7-13.5,12-20
		l-14.6-8.1c-4.3,6.4-8.4,13-12.2,19.7L646.6,548.8z"/>
	<path fill="#321512" stroke="#FFFFFF" stroke-width="0.25" stroke-miterlimit="10" d="M683.7,569.7c3.6-7,7.6-13.8,11.9-20.4
		l-15.7-8.7c-4.4,6.5-8.5,13.2-12.3,20L683.7,569.7z"/>
	<path fill="#321512" stroke="#FFFFFF" stroke-width="0.25" stroke-miterlimit="10" d="M607.1,526.5c3.7-6.7,7.7-13.2,11.9-19.6
		l-14.8-8.2c-4.2,6.4-8.2,12.9-11.9,19.5L607.1,526.5z"/>
	<path fill="#321512" stroke="#FFFFFF" stroke-width="0.25" stroke-miterlimit="10" d="M629.2,539c3.8-6.7,7.8-13.3,12.2-19.7
		l-19.7-10.9c-4.2,6.4-8.2,13-11.9,19.6L629.2,539z"/>
	<path fill="#321512" stroke="#FFFFFF" stroke-width="0.25" stroke-miterlimit="10" d="M661.2,530.3l16,8.9
		c13.3-19.8,29.5-38,48.3-54.1c13.3-11.4,27.6-21.6,42.8-30.5l-9.9-16.6c-15.1,9.1-29.4,19.4-42.7,30.8
		C694.3,487,676.1,507.7,661.2,530.3z"/>
	<path fill="#321512" stroke="#FFFFFF" stroke-width="0.25" stroke-miterlimit="10" d="M679.9,540.6l15.7,8.7
		c12.8-19.5,28.6-37.2,47.4-52.8c11.1-9.2,23.1-17.4,35.7-24.7l-8.8-14.7c-15,8.8-29.2,18.9-42.3,30.2
		C709,503.2,693,521.1,679.9,540.6z"/>
	<path fill="#321512" stroke="#FFFFFF" stroke-width="0.25" stroke-miterlimit="10" d="M698.2,550.8l19.7,10.9
		c19.1-28.5,44.2-51.8,73-69.2l-10.8-18.1c-12.5,7.2-24.3,15.3-35.3,24.4C726.3,514.1,710.8,531.5,698.2,550.8z"/>
	<path fill="#321512" stroke="#FFFFFF" stroke-width="0.25" stroke-miterlimit="10" d="M604.3,498.7l14.8,8.2
		c16-24.3,35.5-46.9,58.3-67c17.7-15.7,36.9-29.6,57.4-41.5l-9-15.1c-21.2,12.6-41.2,27.3-59.7,43.8
		C642,448.6,621.3,472.7,604.3,498.7z"/>
	<path fill="#321512" stroke="#FFFFFF" stroke-width="0.25" stroke-miterlimit="10" d="M644,520.7l14.6,8.1
		c15-22.8,33.4-43.8,55.1-62.4c13.5-11.5,27.9-21.9,43.2-31.1l-7.7-12.9c-17.4,10.3-33.9,22.2-49.2,35.4
		C678.1,476.8,659.4,497.9,644,520.7z"/>
	<path fill="#321512" stroke="#FFFFFF" stroke-width="0.25" stroke-miterlimit="10" d="M584.5,487.7l17.1,9.5
		c17.2-26.3,38.1-50.6,62.4-72.4c18.7-16.7,38.8-31.5,60.2-44.2l-10.4-17.5c-23.2,13.9-44.9,30-65,48.4
		C623.8,434.5,602.2,460.1,584.5,487.7z"/>
	<path fill="#321512" stroke="#FFFFFF" stroke-width="0.25" stroke-miterlimit="10" d="M646.8,409.3c20.2-18.5,42.1-34.8,65.5-48.8
		l-11.5-19.3c-56,32.7-105,77.7-140.6,133l21.7,12.1C599.8,458.4,621.5,432.5,646.8,409.3z"/>
	<path fill="#321512" stroke="#FFFFFF" stroke-width="0.25" stroke-miterlimit="10" d="M621.7,508.3l19.7,10.9
		c15.5-23.1,34.4-44.5,56.5-63.7c15.4-13.4,32.1-25.3,49.6-35.7l-11.3-19c-20.3,11.9-39.4,25.6-57,41.2
		C656.8,462,637.5,484.3,621.7,508.3z"/>
	<path fill="#321512" stroke="#FFFFFF" stroke-width="0.25" stroke-miterlimit="10" d="M589.8,516.7l-16.9-9.5
		c-28.3,50.6-44.3,107.1-46.4,166h20.1h-1.2C547.4,617.6,562.8,564.4,589.8,516.7z"/>
	<path fill="#321512" stroke="#FFFFFF" stroke-width="0.25" stroke-miterlimit="10" d="M607.1,526.5l-14.8-8.3
		c-26.8,47.3-42,100-44,155h20.3h-1.5C568.3,621.1,582.1,571.2,607.1,526.5z"/>
	<path fill="#321512" stroke="#FFFFFF" stroke-width="0.25" stroke-miterlimit="10" d="M665,559.2l-15.8-8.9
		c-20.4,37.5-32.1,79.2-33.9,122.9h19l-1.5-0.1C634.8,632.5,645.9,593.8,665,559.2z"/>
	<path fill="#321512" stroke="#FFFFFF" stroke-width="0.25" stroke-miterlimit="10" d="M646.6,548.8l-14.8-8.3
		c-22.9,40.6-35.8,85.7-37.3,132.7h19h-1.2C614.1,628.9,625.9,586.7,646.6,548.8z"/>
	<path fill="#321512" stroke="#FFFFFF" stroke-width="0.25" stroke-miterlimit="10" d="M629.2,539l-19.5-11
		c-24.8,44.3-38.5,93.6-39.6,145.2h22.7h-1.3C593,625.6,606,580,629.2,539z"/>
	<path fill="#321512" stroke="#FFFFFF" stroke-width="0.25" stroke-miterlimit="10" d="M570.3,505.7l-21.7-12.3
		c-29.5,52.3-47.4,112.8-48.8,179.7H525l-1.5-0.1C525.6,613.7,541.8,556.7,570.3,505.7z"/>
	<path fill="#321512" stroke="#FFFFFF" stroke-width="0.25" stroke-miterlimit="10" d="M680.7,673.2c2.2-33.7,11.1-64.2,25.1-91
		l-19.5-11c-15.6,30.5-24.5,64.8-26.1,102H680.7z"/>
	<path fill="#321512" stroke="#FFFFFF" stroke-width="0.25" stroke-miterlimit="10" d="M683.7,569.7l-16.1-9.1
		c-18.9,34.2-29.8,72.4-31.7,112.5h22.8l-1.5-0.1C658.8,635.4,667.8,600.6,683.7,569.7z"/>
	<path fill="#321512" stroke="#FFFFFF" stroke-width="0.25" stroke-miterlimit="10" d="M660.2,673.2L660.2,673.2l-1.5-0.1
		L660.2,673.2z"/>
	<path fill="#321512" stroke="#FFFFFF" stroke-width="0.25" stroke-miterlimit="10" d="M635.9,673.2L635.9,673.2l-1.5-0.1
		L635.9,673.2z"/>
	<path fill="#321512" stroke="#FFFFFF" stroke-width="0.25" stroke-miterlimit="10" d="M615.3,673.2L615.3,673.2l-1.8-0.1
		L615.3,673.2z"/>
	<path fill="#321512" stroke="#FFFFFF" stroke-width="0.25" stroke-miterlimit="10" d="M594.6,673.2L594.6,673.2l-1.7-0.1
		L594.6,673.2z"/>
	<path fill="#321512" stroke="#FFFFFF" stroke-width="0.25" stroke-miterlimit="10" d="M570.2,673.2L570.2,673.2h-1.5H570.2z"/>
	<path fill="#321512" stroke="#FFFFFF" stroke-width="0.25" stroke-miterlimit="10" d="M548.4,673.2L548.4,673.2l-1.8-0.1
		L548.4,673.2z"/>
	<path fill="#321512" stroke="#FFFFFF" stroke-width="0.25" stroke-miterlimit="10" d="M789.3,446.7l8.5,15.1
		c32.4-15.3,68.4-24.5,105.9-26.8l0.3-18.6c-29.5,1.8-58.5,7.9-86.3,18.1C807.9,438.2,798.5,442.3,789.3,446.7z"/>
	<path fill="#321512" stroke="#FFFFFF" stroke-width="0.25" stroke-miterlimit="10" d="M776.7,424.4c39.7-20.3,83.6-32.5,127.7-35.3
		l0.2-14.8c-46.6,2.8-93.1,15.6-135.3,37L776.7,424.4z"/>
	<path fill="#321512" stroke="#FFFFFF" stroke-width="0.25" stroke-miterlimit="10" d="M809.3,482.4c29.3-14.5,61.4-23.1,94-25.2
		l0.3-19.1c-37,2.3-72.4,11.3-104.4,26.4L809.3,482.4z"/>
	<path fill="#321512" stroke="#FFFFFF" stroke-width="0.25" stroke-miterlimit="10" d="M755.6,387c11.1-5.6,22.6-10.6,34.3-15.1
		c37.1-14.1,75.7-22.1,115-24l0.3-19.6c-55.9,3.3-109.8,18.1-158.4,43.1L755.6,387z"/>
	<path fill="#321512" stroke="#FFFFFF" stroke-width="0.25" stroke-miterlimit="10" d="M905.6,303.6l0.3-22.2
		c-62.8,2-125.9,18.7-183,47.8l10.9,19.4c12.1-6.2,24.5-11.9,37.3-17C814.5,314.4,859.6,305.1,905.6,303.6z"/>
	<path fill="#321512" stroke="#FFFFFF" stroke-width="0.25" stroke-miterlimit="10" d="M757.1,389.7l10.7,19.1
		c42.6-21.7,89.6-34.6,136.8-37.4l0.3-20.3C866,353,827.7,361,791,374.9C779.4,379.2,768.1,384.2,757.1,389.7z"/>
	<path fill="#321512" stroke="#FFFFFF" stroke-width="0.25" stroke-miterlimit="10" d="M787.8,444.1c9.3-4.6,18.9-8.7,28.8-12.3
		c28.2-10.3,57.5-16.5,87.4-18.3l0.3-21.4c-43.6,2.7-86.9,14.8-126.2,34.9L787.8,444.1z"/>
	<path fill="#321512" stroke="#FFFFFF" stroke-width="0.25" stroke-miterlimit="10" d="M735.4,351.1l10,17.8
		c49-25.3,103.4-40.2,159.9-43.5l0.3-18.8c-45.6,1.5-90.4,10.8-133.3,27.8C759.7,339.3,747.4,344.9,735.4,351.1z"/>
	<path fill="#321512" stroke="#FFFFFF" stroke-width="0.25" stroke-miterlimit="10" d="M929.7,327.7v20c52,1,101.8,13.4,148.2,37
		c0.6,0.3,1.3,0.7,1.9,1l11.5-19.6c-0.8-0.4-1.5-0.8-2.3-1.2C1040.1,340.1,986.5,327.7,929.7,327.7z"/>
	<path fill="#321512" stroke="#FFFFFF" stroke-width="0.25" stroke-miterlimit="10" d="M929.7,373.8v14.8
		c42.3,1,84.9,11.7,123.6,31.1c1.7,0.8,3.3,1.7,5,2.6l8-13.6c-1.6-0.9-3.3-1.7-4.9-2.5C1019.9,385.5,975.7,374.6,929.7,373.8z"/>
	<path fill="#321512" stroke="#FFFFFF" stroke-width="0.25" stroke-miterlimit="10" d="M929.7,391.6V413
		c40.9,0.9,80.1,10.5,116.6,28.7c0.1,0.1,0.3,0.1,0.4,0.2l10-17c-1.6-0.8-3.2-1.7-4.8-2.5C1013.7,403.2,971.6,392.6,929.7,391.6z"/>
	<path fill="#321512" stroke="#FFFFFF" stroke-width="0.25" stroke-miterlimit="10" d="M929.7,324.7c57.2,0,111.3,12.6,160.6,37.4
		c0.8,0.4,1.6,0.8,2.5,1.3l6.2-10.5c-51.4-27-108.9-42.9-169.3-46.1V324.7z"/>
	<path fill="#321512" stroke="#FFFFFF" stroke-width="0.25" stroke-miterlimit="10" d="M929.7,437.6v19.3c32.7,1.5,64.9,9.8,94.1,24
		l10.3-17.6c-0.9-0.5-1.8-0.9-2.8-1.4C999.9,447,964.9,438.6,929.7,437.6z"/>
	<path fill="#321512" stroke="#FFFFFF" stroke-width="0.25" stroke-miterlimit="10" d="M929.7,416v18.6c35.6,1,71.1,9.5,103,24.6
		c1,0.5,2,1,3,1.5l9.5-16.3c-0.1,0-0.2-0.1-0.2-0.1C1008.9,426.4,970.1,416.9,929.7,416z"/>
	<path fill="#321512" stroke="#FFFFFF" stroke-width="0.25" stroke-miterlimit="10" d="M1113.1,328.7
		c-56.8-29.2-119.9-45.8-183.4-47.5v22.5c60.9,3.2,119,19.2,170.8,46.5L1113.1,328.7z"/>
	<path fill="#321512" stroke="#FFFFFF" stroke-width="0.25" stroke-miterlimit="10" d="M1064.9,455.3l-9.7,16.2
		c24.7,15,46.8,34.1,64.8,56.3c5.7,7,10.9,14.2,15.7,21.7l16.9-10c-4.2-6.3-8.6-12.5-13.4-18.5
		C1118.7,494.8,1093.3,472.4,1064.9,455.3z"/>
	<path fill="#321512" stroke="#FFFFFF" stroke-width="0.25" stroke-miterlimit="10" d="M1076.3,436.1l-9.9,16.6
		c28.7,17.4,54.4,40,75.2,66.4c4.8,6.1,9.4,12.4,13.6,18.9l15.4-9.1c-5.1-7.8-10.5-15.4-16.3-22.9
		C1132.7,478.4,1106,454.6,1076.3,436.1z"/>
	<path fill="#321512" stroke="#FFFFFF" stroke-width="0.25" stroke-miterlimit="10" d="M1053.7,474l-10.5,17.5
		c28.7,17.4,53.8,40.9,72.8,69.6l17.1-10.1c-4.7-7.3-9.9-14.5-15.5-21.3C1099.9,507.7,1078,488.8,1053.7,474z"/>
	<path fill="#321512" stroke="#FFFFFF" stroke-width="0.25" stroke-miterlimit="10" d="M1233.3,463c5,6.6,9.8,13.4,14.3,20.3
		l22.8-13.5c-35-54-82.4-97.9-136.7-129.7l-12.9,21.6C1164,387.7,1202.2,421.8,1233.3,463z"/>
	<path fill="#321512" stroke="#FFFFFF" stroke-width="0.25" stroke-miterlimit="10" d="M1086,419.9l-8.2,13.6
		c30,18.7,56.9,42.8,78.8,70.6c5.9,7.5,11.4,15.3,16.5,23.2l13.9-8.2c-5.6-8.8-11.7-17.3-18.3-25.6
		C1145.8,464.3,1117.5,439.3,1086,419.9z"/>
	<path fill="#321512" stroke="#FFFFFF" stroke-width="0.25" stroke-miterlimit="10" d="M1111.5,377.2l-11.7,19.6
		c37,22.3,70,51.7,96.4,86.1c5.5,7.1,10.6,14.3,15.4,21.7l17.8-10.5c-6.7-10.8-13.9-21.2-21.6-31.1
		C1180.8,428.1,1148.5,399.3,1111.5,377.2z"/>
	<path fill="#321512" stroke="#FFFFFF" stroke-width="0.25" stroke-miterlimit="10" d="M1098.3,399.3l-10.7,17.9
		c31.8,19.6,60.4,44.9,83.6,74.3c6.6,8.4,12.8,17,18.5,25.9l19.4-11.5c-4.8-7.3-9.8-14.4-15.2-21.4
		C1167.6,450.6,1134.9,421.5,1098.3,399.3z"/>
	<path fill="#321512" stroke="#FFFFFF" stroke-width="0.25" stroke-miterlimit="10" d="M1119.3,364.3l-6.2,10.4
		c37.3,22.3,69.9,51.3,97.1,86.4c7.8,10.1,15.1,20.6,21.8,31.4l13-7.7c-4.5-6.8-9.2-13.4-14.1-20
		C1200.1,424,1162.1,390.1,1119.3,364.3z"/>
	<path fill="#321512" stroke="#FFFFFF" stroke-width="0.25" stroke-miterlimit="10" d="M1076.5,387.2
		c-45.9-23.3-95.3-35.6-146.8-36.6v20.2c46.4,0.9,91.1,11.8,132.9,32.6c1.7,0.9,3.4,1.7,5.1,2.6l10.5-17.9
		C1077.7,387.8,1077.1,387.5,1076.5,387.2z"/>
	<path fill="#321512" stroke="#FFFFFF" stroke-width="0.25" stroke-miterlimit="10" d="M1197.9,537.2l-14.1,7.8
		c13.6,24.6,23.6,50.8,29.8,78.5c3.7,16.2,6,32.6,6.9,49.2l16.2-0.1c-1-17.7-3.5-35.2-7.4-52.5
		C1222.7,590.8,1212.2,563.1,1197.9,537.2z"/>
	<path fill="#321512" stroke="#FFFFFF" stroke-width="0.25" stroke-miterlimit="10" d="M1200.5,535.8c14.4,26.1,25,54.1,31.7,83.6
		c4,17.5,6.5,35.2,7.5,53.1l24.1-0.2c-2.8-51.6-17.5-102-43.4-147.5L1200.5,535.8z"/>
	<path fill="#321512" stroke="#FFFFFF" stroke-width="0.25" stroke-miterlimit="10" d="M1125.6,577.1c15.3,28,25.2,60.3,27.5,96.1
		l19.7-0.2c-2.5-37.8-12.5-73.5-29.9-105.5L1125.6,577.1z"/>
	<path fill="#321512" stroke="#FFFFFF" stroke-width="0.25" stroke-miterlimit="10" d="M1163,556.5l-17.4,9.6
		c17.6,32.5,27.8,68.6,30.3,107l21.6-0.2c-0.9-14.2-3-28.2-6.1-42.2C1185.5,604.4,1176,579.6,1163,556.5z"/>
	<path fill="#321512" stroke="#FFFFFF" stroke-width="0.25" stroke-miterlimit="10" d="M1181.2,546.4l-15.6,8.6
		c13.1,23.4,22.7,48.5,28.6,75c3.1,14.1,5.2,28.4,6.1,42.8l17.2-0.1c-1-16.4-3.2-32.6-6.9-48.5
		C1204.5,596.7,1194.6,570.7,1181.2,546.4z"/>
	<path fill="#321512" stroke="#FFFFFF" stroke-width="0.25" stroke-miterlimit="10" d="M1310.6,672l22.1-0.2
		c-2.1-67.9-20.3-128.9-49.8-181.4l-23,12.7c20.3,35,34.7,72.5,43.1,112.2C1307,634.1,1309.5,653,1310.6,672z"/>
	<path fill="#321512" stroke="#FFFFFF" stroke-width="0.25" stroke-miterlimit="10" d="M1257.3,504.5l-13.9,7.6
		c16.7,31,29,64.6,36.4,99.2c4.3,20.2,6.9,40.4,7.8,60.7l20.1-0.2c-1.1-18.8-3.6-37.5-7.5-56.1
		C1291.7,576.5,1277.4,539.2,1257.3,504.5z"/>
	<path fill="#321512" stroke="#FFFFFF" stroke-width="0.25" stroke-miterlimit="10" d="M1240.7,513.6l-17.6,9.7
		c26.1,46,40.9,96.8,43.8,149l17.7-0.1c-0.9-20.1-3.5-40.2-7.8-60.1C1269.5,577.7,1257.3,544.4,1240.7,513.6z"/>
	<g>
		<path fill="#321512" stroke="#FFFFFF" stroke-width="0.25" stroke-miterlimit="10" d="M1252.8,778.7c7.2-27.2,11-54.7,11.5-82.1
			l-24,0.3c-0.4,25.1-3.6,50.4-9.7,75.8l-1.4-0.3l25,6.6L1252.8,778.7z"/>
		<path fill="#321512" stroke="#FFFFFF" stroke-width="0.25" stroke-miterlimit="10" d="M1237.3,697l-16.2,0.2
			c-0.5,23.3-3.6,46.9-9.4,70.6l-1.5-0.4l17.5,4.6C1233.7,746.9,1236.9,721.9,1237.3,697z"/>
		<path fill="#321512" stroke="#FFFFFF" stroke-width="0.25" stroke-miterlimit="10" d="M1218,697.3l-17.1,0.2
			c-0.5,21.6-3.3,43.3-8.6,65.2l-1.4-0.3l17.9,4.7C1214.4,743.7,1217.5,720.4,1218,697.3z"/>
		<path fill="#321512" stroke="#FFFFFF" stroke-width="0.25" stroke-miterlimit="10" d="M1176.3,697.9c-0.4,19.2-2.7,38.9-6.9,58.8
			l-1.5-0.3l21.4,5.6c5.2-21.6,8.1-43.1,8.5-64.4L1176.3,697.9z"/>
		<path fill="#321512" stroke="#FFFFFF" stroke-width="0.25" stroke-miterlimit="10" d="M1308.2,696l-20.3,0.3
			c-0.5,29.5-4.5,59.1-12.1,88.4l-1.4-0.4l21.5,5.7C1304,758.8,1308.1,727.3,1308.2,696z"/>
		<path fill="#321512" stroke="#FFFFFF" stroke-width="0.25" stroke-miterlimit="10" d="M1311.2,696c-0.2,31.6-4.3,63.3-12.4,94.8
			l-1.5-0.4l22,5.8c8.3-34.8,12.6-68.4,13.3-100.6L1311.2,696z"/>
		<path fill="#321512" stroke="#FFFFFF" stroke-width="0.25" stroke-miterlimit="10" d="M1173.3,697.9l-19.8,0.3
			c-0.5,16.9-2.6,34.4-6.5,52.6l19.4,5.1C1170.7,736.3,1172.9,716.9,1173.3,697.9z"/>
		<path fill="#321512" stroke="#FFFFFF" stroke-width="0.25" stroke-miterlimit="10" d="M1284.9,696.4l-17.6,0.2
			c-0.5,27.6-4.3,55.4-11.6,82.9l17.2,4.5C1280.4,754.9,1284.4,725.6,1284.9,696.4z"/>
	</g>
	<path fill="#321512" stroke="#FFFFFF" stroke-width="0.25" stroke-miterlimit="10" d="M526.5,673.2L526.5,673.2l-1.5-0.1
		L526.5,673.2z"/>
	<g>
		<path fill="#321512" stroke="#FFFFFF" stroke-width="0.25" stroke-miterlimit="10" d="M584.5,778.2l-1.4,0.4l21.5-5.7
			c-7.2-24.8-11.4-49.8-12.8-74.2l1.5-0.1l-45,0.4c1,28.2,5.5,56.9,13.3,85.3l-1.4,0.4l21.4-5.7c-7.8-26.7-12.5-53.6-14-79.9l3-0.2
			C572.1,725.1,576.8,751.7,584.5,778.2z"/>
		<path fill="#321512" stroke="#FFFFFF" stroke-width="0.25" stroke-miterlimit="10" d="M667.9,756l19.1-5.1
			c-4-18.4-6.2-36.1-6.8-53.1l-20,0.2C661,716.7,663.6,736.2,667.9,756z"/>
		<path fill="#321512" stroke="#FFFFFF" stroke-width="0.25" stroke-miterlimit="10" d="M526.5,699.2c1,30,5.6,60.6,13.7,90.8
			l18.6-5c-7.8-28.6-12.4-57.6-13.4-86h1.2L526.5,699.2z"/>
		<path fill="#321512" stroke="#FFFFFF" stroke-width="0.25" stroke-miterlimit="10" d="M523.5,699.3l1.5-0.1l-24.9,0.2
			c1.4,31.2,6.3,63.6,15.2,97.2l22-5.9C529.1,760.4,524.5,729.6,523.5,699.3z"/>
		<path fill="#321512" stroke="#FFFFFF" stroke-width="0.25" stroke-miterlimit="10" d="M665,756.7c-4.3-20-7-39.7-7.8-58.7
			l-21.4,0.2c0.9,20.9,4.1,42.3,9.5,63.8l21.1-5.6L665,756.7z"/>
		<path fill="#321512" stroke="#FFFFFF" stroke-width="0.25" stroke-miterlimit="10" d="M624.2,767.6l-1.4,0.4
			c-6-23.4-9.5-46.8-10.4-69.6l-17.5,0.2c1.3,24.2,5.5,48.9,12.6,73.5l-1.4,0.4L624.2,767.6z"/>
		<path fill="#321512" stroke="#FFFFFF" stroke-width="0.25" stroke-miterlimit="10" d="M642.4,762.8c-5.5-21.7-8.7-43.4-9.6-64.5
			l-17.4,0.2c1,22.5,4.4,45.7,10.3,68.8l18.1-4.8L642.4,762.8z"/>
	</g>
</g>
<ellipse fill="#321512" stroke="#FFFFFF" stroke-width="0.25" stroke-miterlimit="10" cx="918.8" cy="692.2" rx="163.7" ry="159.3"/>
<rect x="669.9" y="859.8" fill="#321512" stroke="#FFFFFF" stroke-width="0.25" stroke-miterlimit="10" width="483.1" height="86.7"/>
<polygon fill="#321512" stroke="#FFFFFF" stroke-width="0.25" stroke-miterlimit="10" points="1156.4,916.3 1156.4,950.3 
	666.6,950.3 666.6,916.3 605,916.3 605,1035 639.1,1035 666.6,1035 1156.4,1035 1170.4,1035 1218,1035 1218,916.3 "/>
<g>
	<polygon fill="#321512" stroke="#FFFFFF" stroke-width="0.25" stroke-miterlimit="10" points="669.9,859.8 635.9,764.5 
		607.5,772.1 642.7,869 	"/>
	<polygon fill="#321512" stroke="#FFFFFF" stroke-width="0.25" stroke-miterlimit="10" points="1153.1,859.8 1187.5,761.5 
		1215.8,769.1 1180.3,869 	"/>
</g>
</svg>
