<?xml version="1.0" encoding="utf-8"?>
<!-- Generator: Adobe Illustrator 18.1.1, SVG Export Plug-In . SVG Version: 6.00 Build 0)  -->
<svg version="1.1" id="Layer_1" xmlns="http://www.w3.org/2000/svg" xmlns:xlink="http://www.w3.org/1999/xlink" x="0px" y="0px"
	 viewBox="0 0 1920 1080" enable-background="new 0 0 1920 1080" xml:space="preserve">
<rect x="-518.3" y="867.9" fill="#410106" stroke="#FFFFFF" stroke-width="0.75" stroke-linecap="round" stroke-miterlimit="10" width="23.7" height="2.2"/>
<rect x="-479.5" y="868.6" fill="#410106" stroke="#FFFFFF" stroke-width="0.75" stroke-linecap="round" stroke-miterlimit="10" width="23.7" height="2.2"/>
<g>
	<path fill="#E2D1BA" stroke="#FFFFFF" stroke-width="0.75" stroke-linecap="round" stroke-miterlimit="10" d="M1746.8,645.2
		c-3.2,2.3-8.3,1.6-10.6-1.6c-2.4-3.2-1.6-8.3,1.6-10.6c1.2-0.9,2.6-1.4,4.1-1.2c1.4,0.2,2.8,1.1,3.3,2.5c-1-2.3-0.7-5.2,0.9-7.2
		s4.6-2.7,6.8-1.4c-1.5,0.6-1.8,2.8-0.8,4.1s2.8,1.6,4.4,1.2c2.2-0.5,4.1-2.5,4.3-4.7c0.2-2.3-1.6-4.3-3.8-4.8
		c1.3-0.8,3.2-1.3,4.7-1.3c2-0.1,9.2,0.7,11.1,6.9c2.1-1.4,4.5-1.3,6.9-0.7c6.2,1.6,11.8,5.7,15,11.2c2.3,4.1,3.2,9.1,2.5,13.7
		c-0.3,1.7,0.3,2.7,1.8,3.6c2.8,1.6,5.4,3.6,6.8,6.5s1.1,6.7-1.3,8.8c-1.2,1.1-2.9,1.6-4.6,1.7c-1.4,0.1-3-0.8-4.1-0.7
		c-1.4,0.2-1.3,1.3,0.3,1.8c0.5,0.2,1,0.2,1.6,0.3c1.3,0,2.7,0.1,4,0.1c-0.2,1.1-0.9,2.1-1.7,2.9c-1.5,1.4-3.5,2.4-5.6,2.6
		s-5.1-0.9-6.5-2.4"/>
	<path fill="none" stroke="#272529" stroke-width="0.75" stroke-linecap="round" stroke-miterlimit="10" d="M1703.8,781.9"/>
	<g>
		<g>
			<g>
				
					<path fill="#410106" stroke="#FFFFFF" stroke-width="0.75" stroke-linecap="round" stroke-linejoin="round" stroke-miterlimit="10" d="
					M1688.1,814c11.4-35.2-45.5-19.6-73.5-38.9c-1.3-1.8-10.9-12.8-19.8-15.5l-1.5-0.2c-2.3-3.5-4-2.7-4.8-1.5
					c1.8,5.9,9.6,8.4,9.6,8.4l-2.6,0.7c-1.9-1.7-6-4.6-10.3-4.4c-2.6-2.9-4.9-2.5-6.7-1.8c1.4,1.7,3,3.1,4.6,4.3c-0.2,0-0.4,0-0.6,0
					c-3-3.3-5.5-2.8-7.5-2c1.4,1.6,2.9,3.1,4.4,4.3c-1.3-0.4-2.5-0.1-3.6,0.3c2.1,2.5,4.4,4.4,6.7,5.8c-0.1,0-0.2,0-0.4,0
					c-2.4-2.6-4.5-2.1-6.1-1.5c0.8,2.1,13,9.4,15.8,9.4l19.7,3.1c11.4,6.8,39.3,20.1,66.2,34.1L1688.1,814z"/>
				<g>
					<path fill="#410106" stroke="#FFFFFF" stroke-width="0.5" stroke-miterlimit="10" d="M1588.3,781.2"/>
					<path fill="#410106" stroke="#FFFFFF" stroke-width="0.5" stroke-miterlimit="10" d="M1584.5,776.1"/>
					<path fill="#410106" stroke="#FFFFFF" stroke-width="0.5" stroke-miterlimit="10" d="M1576.1,772.1"/>
					
						<line fill="none" stroke="#FFFFFF" stroke-width="0.5" stroke-miterlimit="10" x1="1582.2" y1="773.6" x2="1582.2" y2="773.6"/>
					<path fill="#410106" stroke="#FFFFFF" stroke-width="0.5" stroke-linecap="round" stroke-miterlimit="10" d="M1592.7,778.5
						c0.2-0.5-9.7-2.3-16.9-10.7l0,0c1.8-0.7,4-1.1,6.7,1.8l0,0c7.1-0.5,11.3,5.6,11.3,5.5"/>
					<path fill="#410106" stroke="#FFFFFF" stroke-width="0.5" stroke-linecap="round" stroke-miterlimit="10" d="M1593.9,775.1
						c0.2-0.6-10.9-2.6-18.9-11.9l0,0c2-0.7,4.5-1.2,7.5,2l0,0c7.9-0.5,12.7,6.3,12.7,6.2"/>
					<path fill="#410106" stroke="#FFFFFF" stroke-width="0.5" stroke-linecap="round" stroke-miterlimit="10" d="M1595.4,771.6
						c0.2-0.5-9.7-2.3-16.9-10.7l0,0c1.8-0.7,4-1.1,6.7,1.8l0,0c4.3-0.3,8.5,2.8,10.4,4.4"/>
				</g>
				
					<line fill="none" stroke="#FFFFFF" stroke-width="0.75" stroke-linecap="round" stroke-miterlimit="10" x1="1640.4" y1="799.7" x2="1614.6" y2="775.1"/>
			</g>
		</g>
		<path fill="none" stroke="#FFFFFF" stroke-width="0.75" stroke-linecap="round" stroke-miterlimit="10" d="M1681.5,799.4
			c2.3-45.1,22-66.4,32.7-67.3c5.3-0.4,10.3,2.5,11.3,7.8c0.8,4.2-2,8.2-6.2,9c-3.4,0.6-6.6-1.6-7.2-5c-0.5-2.7,1.3-5.3,4-5.8"/>
		
			<path fill="#410106" stroke="#FFFFFF" stroke-width="0.75" stroke-linecap="round" stroke-linejoin="round" stroke-miterlimit="10" d="
			M1674,808.1c0.9-19.9,5-44.5,13.1-61.3c13.4-27.8,25.4-30.1,39-23.3l0,0c23,13.6-9.3,57.2-37.9,90.5"/>
		<path fill="none" stroke="#FFFFFF" stroke-width="0.75" stroke-linecap="round" stroke-miterlimit="10" d="M1681.5,799.4
			c2.3-45.1,22-66.4,32.7-67.3c5.3-0.4,10.3,2.5,11.3,7.8c0.8,4.2-2,8.2-6.2,9c-3.4,0.6-6.6-1.6-7.2-5c-0.5-2.7,1.3-5.3,4-5.8"/>
	</g>
	<path fill="#410106" stroke="#FFFFFF" stroke-width="0.75" stroke-linecap="round" stroke-miterlimit="10" d="M1815.6,721
		c-20.2,0-36.5-12-36.5-26.8l-16.3-5.6l-6.9,16.3c0,8.9-20.2,16.1-45.3,16.1"/>
	
		<path fill="#410106" stroke="#FFFFFF" stroke-width="0.75" stroke-linecap="round" stroke-linejoin="round" stroke-miterlimit="10" d="
		M1755.4,1056.7c0.1,0,0-19.3,0.9-46.8l-10.7-1.7l0.8,46.8c-9.1,2.6-21.3,8.5-32.8,12.9l-5.1,7.5h53.9
		C1762.4,1067.8,1762.9,1058.4,1755.4,1056.7"/>
	<polyline fill="none" stroke="#272529" stroke-width="0.75" stroke-linecap="round" stroke-miterlimit="10" points="1713.7,1067.9 
		1708.5,1075.4 1762.4,1075.4 	"/>
	<path fill="#410106" stroke="#FFFFFF" stroke-width="0.75" stroke-linecap="round" stroke-miterlimit="10" d="M1766.4,1080H1691
		c-0.3,0-0.5-0.2-0.5-0.5c0,0,3.2-4.1,3.5-4.1h72.5L1766.4,1080L1766.4,1080z"/>
	<path fill="#410106" stroke="#FFFFFF" stroke-width="0.75" stroke-linecap="round" stroke-miterlimit="10" d="M1697.5,1075.4
		c-3.1-1.3-3.7-4.7-0.5-5.8c0.7-0.3,7.6,1.4,8.4,1.2c3.5-1.1,6.6-2.4,8.4-2.8l-5.1,7.5L1697.5,1075.4L1697.5,1075.4z"/>
	<polygon fill="#410106" stroke="#FFFFFF" stroke-width="0.75" stroke-linecap="round" stroke-miterlimit="10" points="
		1762.2,1068.7 1737.6,1057.7 1713.7,1067.9 1708.5,1075.4 1762.4,1075.4 	"/>
	<path fill="#410106" stroke="#FFFFFF" stroke-width="0.75" stroke-linecap="round" stroke-miterlimit="10" d="M1782.4,1056.7
		c0.1,0,0-16.4,0.9-44l-10.7-4.6l0.8,46.8c-9.1,2.6-21.3,8.5-32.8,12.9l-5.1,7.5h53.9c0-7.6,0.5-17-7-18.8"/>
	<polyline fill="#FFFFFF" stroke="#272529" stroke-width="0.75" stroke-linecap="round" stroke-miterlimit="10" points="
		1740.7,1067.9 1735.5,1075.4 1789.4,1075.4 	"/>
	<path fill="none" stroke="#272529" stroke-width="0.75" stroke-linecap="round" stroke-miterlimit="10" d="M1707.7,916.2"/>
	<path fill="#FFFFFF" stroke="#272529" stroke-width="0.75" stroke-linecap="round" stroke-miterlimit="10" d="M1711.3,921.5"/>
	
		<path fill="#410106" stroke="#FFFFFF" stroke-width="0.75" stroke-linecap="round" stroke-linejoin="round" stroke-miterlimit="10" d="
		M1736,826.4h22.8c10,2.6,17.6,15.4,17.6,28.9s-7.6,24.7-17.6,27.3c20.9,6.9,3.8,51.2-14.6,70.6c33.1-0.8,7.8,66.3,2.2,101.8
		c-4.3-17.6-22.9-97.3-28.9-147C1712.8,869,1728.8,838.5,1736,826.4"/>
	<path fill="none" stroke="#FFFFFF" stroke-width="0.75" stroke-linecap="round" stroke-miterlimit="10" d="M1759.7,897.7
		c-1.7,31.8-17.2,49.1-24.7,49.7c-3.8,0.3-7.3-1.8-7.9-5.5c-0.5-3,1.4-5.8,4.4-6.3c2.4-0.4,4.6,1.1,5.1,3.5c0.3,1.9-0.9,3.7-2.8,4.1
		"/>
	<path fill="#410106" stroke="#FFFFFF" stroke-width="0.75" stroke-linecap="round" stroke-miterlimit="10" d="M1797.8,832.5
		c-6.5-3.8-5-26,3.3-37.8l14.5-18l-22-17.5l-39.4,37.5l5.5,25l6.2,11.2l20,14L1797.8,832.5z"/>
	<path fill="#410106" stroke="#FFFFFF" stroke-width="0.75" stroke-linecap="round" stroke-miterlimit="10" d="M1815.9,721
		c7,33,0.9,54.8-8.9,57.1c-24.1,5.7-41.5,49.9-46.2,57.1l-5,10.3l-4.1,11.6c-4.7-7.2-46.5-94.2-42-136.1"/>
	
		<path fill="#410106" stroke="#FFFFFF" stroke-width="0.75" stroke-linecap="round" stroke-linejoin="round" stroke-miterlimit="10" d="
		M1765.3,826.6l23.1-0.3c10,2.6,17.6,15.4,17.6,28.9s-7.6,24.7-17.6,27.3c20.9,6.9,3.8,51.2-14.6,70.6c33.1-0.8,5.2,66.3-0.4,101.8
		c-4.3-17.6-20.3-97.3-26.3-147C1742.4,869,1758,838.7,1765.3,826.6"/>
	<polygon fill="#410106" stroke="#FFFFFF" stroke-width="0.75" stroke-linecap="round" stroke-miterlimit="10" points="
		1780.4,692.6 1764,721 1755.8,721 1755.8,701.6 	"/>
	<path fill="#410106" stroke="#FFFFFF" stroke-width="0.75" stroke-linecap="round" stroke-miterlimit="10" d="M1755.8,703v18
		c2,0,10-8,10-18.5L1755.8,703z"/>
	<path fill="#410106" stroke="#FFFFFF" stroke-width="0.75" stroke-linecap="round" stroke-miterlimit="10" d="M1742.4,652.9
		c2.1-7.1,7.1-12.2,15.9-12.5c8.8-0.2,16.2,6.7,16.4,15.5c0,0,6.3-5.1,12.9,1.4l0.2,9.9c0.2,7.8,0.2,14-5.8,22.9
		c-6.8,10.3-20,15-30.3,14.7c-9.1-0.3-10.4-6-8.5-8.9c1.4-2.1,3.9-3.3,5-4.1l-2.4-1.4l2.9-3.2l-3-1.6l1.2-2.2h-7.5L1742.4,652.9"/>
	<path fill="none" stroke="#FFFFFF" stroke-width="0.75" stroke-linecap="round" stroke-miterlimit="10" d="M1748.6,678.4
		c-0.6,0.5-1.4,0.4-1.9-0.1c-0.6-0.7-0.5-1.7,0.2-2.3c0.9-0.7,2.2-0.6,2.9,0.2c0.9,1.1,0.8,2.7-0.3,3.6c-1.3,1.2-3.2,0.8-4.5-0.3
		c-1.1-1-0.9-3.2-0.9-3.2l1.4-17.9"/>
	<path fill="none" stroke="#FFFFFF" stroke-width="0.75" stroke-linecap="round" stroke-miterlimit="10" d="M1769.9,652.1
		c-13.1-2.8-16.6,5.8-17.6,4.7c-1.8-1.9-5.8-1.2-6.5-0.7"/>
	<path fill="none" stroke="#FFFFFF" stroke-width="0.75" stroke-linecap="round" stroke-miterlimit="10" d="M1777.6,684.9
		L1777.6,684.9c9.7,1.4,12.2-13.2,8.3-17.5l0,0c-2.7-3.4-7-3.1-9.5-0.6c-2,2-1.7,5.9,0.4,7.9c1.6,1.6,4.2,1.6,5.8,0
		c1.3-1.3,1.3-3.4,0-4.7c-1-1-2.7-1-3.7,0c-0.8,0.8-0.8,2.2,0,3"/>
	<path fill="#410106" stroke="#FFFFFF" stroke-width="0.75" stroke-linecap="round" stroke-miterlimit="10" d="M1749.2,779.3
		c-30.8-1.8-39.4-29-39.4-58.3h106c0,29.7-15.7,56.9-58.9,59.1c-1,0.1-3.4-15.3-3.4-15.3L1749.2,779.3z"/>
	<path fill="none" stroke="#FFFFFF" stroke-width="0.75" stroke-linecap="round" stroke-miterlimit="10" d="M1750.4,764.8"/>
	<path fill="none" stroke="#FFFFFF" stroke-width="0.75" stroke-linecap="round" stroke-miterlimit="10" d="M1751,739.7"/>
	<path fill="none" stroke="#272529" stroke-width="0.75" stroke-linecap="round" stroke-miterlimit="10" d="M1748.6,782.2
		c-6.2,18.2-2.8,40.2,2.2,59"/>
	<path fill="none" stroke="#FFFFFF" stroke-width="0.75" stroke-linecap="round" stroke-miterlimit="10" d="M1790.3,896.7
		c-1.7,31.8-17.2,49.1-24.7,49.7c-3.8,0.3-7.3-1.8-7.9-5.5c-0.5-3,1.4-5.8,4.4-6.3c2.4-0.4,4.6,1.1,5.1,3.5c0.3,1.9-0.9,3.7-2.8,4.1
		"/>
	<path fill="#410106" stroke="#FFFFFF" stroke-width="0.75" stroke-linecap="round" stroke-miterlimit="10" d="M1793.4,1080H1718
		c-0.3,0-0.5-0.2-0.5-0.5c0,0,3.2-4.1,3.5-4.1h72.5L1793.4,1080L1793.4,1080z"/>
	<path fill="none" stroke="#272529" stroke-width="0.75" stroke-linecap="round" stroke-miterlimit="10" d="M1743.2,1075.4"/>
	<path fill="#410106" stroke="#FFFFFF" stroke-width="0.75" stroke-linecap="round" stroke-miterlimit="10" d="M1724.5,1075.4
		c-3.1-1.3-3.7-4.7-0.5-5.8c0.7-0.3,7.6,1.4,8.4,1.2c3.5-1.1,6.6-2.4,8.4-2.8l-5.1,7.5L1724.5,1075.4L1724.5,1075.4z"/>
	<polygon fill="#410106" stroke="#FFFFFF" stroke-width="0.75" stroke-linecap="round" stroke-miterlimit="10" points="
		1789.2,1068.7 1764.6,1057.7 1740.7,1067.9 1735.5,1075.4 1789.4,1075.4 	"/>
	<path fill="none" stroke="#272529" stroke-width="0.75" stroke-linecap="round" stroke-miterlimit="10" d="M1716.2,1075.4"/>
	
		<line fill="none" stroke="#FFFFFF" stroke-width="0.75" stroke-linecap="round" stroke-miterlimit="10" x1="1748.7" y1="687.4" x2="1751.5" y2="689"/>
	<g>
		<path fill="#410106" stroke="#FFFFFF" stroke-width="0.75" stroke-linecap="round" stroke-miterlimit="10" d="M1753.8,660.5
			c0,0.2,4.4,2.7,9.3,2s8.4-4.2,8.3-4.6c-0.1-0.5-4.4-2.7-9.3-2C1757.2,656.7,1753.8,660.5,1753.8,660.5z"/>
		
			<circle fill="#410106" stroke="#FFFFFF" stroke-width="0.75" stroke-linecap="round" stroke-miterlimit="10" cx="1762.7" cy="659.1" r="2.2"/>
	</g>
	<path fill="none" stroke="#272529" stroke-width="0.75" stroke-linecap="round" stroke-miterlimit="10" d="M1727.7,715.4"/>
	<path fill="#410106" stroke="#FFFFFF" stroke-width="0.75" stroke-linecap="round" stroke-miterlimit="10" d="M1711.8,878.9
		c-1.1-30.7,12.2-48.3,23.6-51.5h49.3c0,107.3-35.4,114.1-70.9,114.1l0,0L1711.8,878.9z"/>
	<path fill="#410106" stroke="#FFFFFF" stroke-width="0.75" stroke-linecap="round" stroke-miterlimit="10" d="M1814.6,878.9
		c1.1-30.7-8.6-48.6-20-51.8l-60.9,0.3c0,107.3,43.4,94.1,78.9,94.1l0,0L1814.6,878.9z"/>
	<path fill="#410106" stroke="#FFFFFF" stroke-width="0.75" stroke-linecap="round" stroke-miterlimit="10" d="M1791,827.4
		c15.3,0,32.2-104.9,24.7-106.3H1764l-30.3,106.3H1791z"/>
	<path fill="none" stroke="#FFFFFF" stroke-width="0.75" stroke-linecap="round" stroke-miterlimit="10" d="M1743.4,827.2
		c1.1,18,5.4,46.5,21.5,77"/>
	<path fill="none" stroke="#FFFFFF" stroke-width="0.75" stroke-linecap="round" stroke-miterlimit="10" d="M1767.7,827.2
		c0.6,9,2.7,23.3,10.8,38.5c4.3,8.1,9.2,14.5,13.5,19.2"/>
	<path fill="none" stroke="#FFFFFF" stroke-width="0.75" stroke-linecap="round" stroke-miterlimit="10" d="M1784.6,770.6
		c-0.8,14.9-17.7,46.6-30.8,56.6"/>
	<path fill="none" stroke="#FFFFFF" stroke-width="0.75" stroke-linecap="round" stroke-miterlimit="10" d="M1788.5,630.6
		c6.8,6,7,14.4,1.8,18.6c-2.7,2.2-6.5,2.4-9-0.1c-2-2-1.9-5.2,0.1-7.2c1.6-1.6,4.2-1.5,5.8,0.1c1.3,1.3,1.2,3.4-0.1,4.6
		c-1,1-2.7,1-3.7,0c-0.8-0.8-0.8-2.1,0-3c0.7-0.6,1.7-0.6,2.4,0c0.5,0.5,0.5,1.4,0,1.9"/>
	<path fill="none" stroke="#FFFFFF" stroke-width="0.75" stroke-linecap="round" stroke-miterlimit="10" d="M1748.2,643.9
		c-2.5,2.1-6.3,1.8-8.4-0.7c-1.7-2-1.5-5,0.5-6.7c1.6-1.4,4-1.2,5.4,0.4c1.1,1.3,0.9,3.2-0.3,4.3c-1,0.9-2.6,0.8-3.4-0.3"/>
	<g>
		<path fill="none" stroke="#272529" stroke-width="0.75" stroke-linecap="round" stroke-miterlimit="10" d="M1809.5,783.1"/>
		<path fill="none" stroke="#FFFFFF" stroke-width="0.75" stroke-linecap="round" stroke-miterlimit="10" d="M1790.9,801.4
			c-1.4-45.2,16.5-68,27-69.7c5.3-0.9,10.5,1.6,11.9,6.8c1.1,4.1-1.3,8.4-5.4,9.5c-3.3,0.9-6.7-1.1-7.6-4.4
			c-0.7-2.6,0.8-5.4,3.5-6.1"/>
		<path fill="#410106" stroke="#FFFFFF" stroke-width="0.75" stroke-linecap="round" stroke-miterlimit="10" d="M1784.2,810.7
			c-0.7-19.9,1.3-44.8,8-62.2c11.1-28.8,22.9-32.1,36.9-26.4l0,0c24.1,11.7,0.8,57.9-25,93.4
			C1791.5,812.2,1773.7,805.3,1784.2,810.7z"/>
		<path fill="none" stroke="#FFFFFF" stroke-width="0.75" stroke-linecap="round" stroke-miterlimit="10" d="M1790.9,801.4
			c-1.4-45.2,16.5-68,27-69.7c5.3-0.9,10.5,1.6,11.9,6.8c1.1,4.1-1.3,8.4-5.4,9.5c-3.3,0.9-6.7-1.1-7.6-4.4
			c-0.7-2.6,0.8-5.4,3.5-6.1"/>
		<g>
			<g>
				<path fill="#410106" stroke="#FFFFFF" stroke-width="0.75" stroke-linecap="round" stroke-miterlimit="10" d="M1804.1,815.6
					c7.2-36.3-47.4-14.1-77.5-30c-1.5-1.6-12.3-11.4-21.4-13h-1.5c-2.7-3.2-4.3-2.2-5-0.9c2.5,5.7,10.5,7.2,10.5,7.2l-2.5,1
					c-2.1-1.5-6.6-3.9-10.8-3.1c-3-2.6-5.2-1.9-6.9-1c1.6,1.5,3.3,2.7,5,3.7c-0.2,0-0.4,0-0.6,0.1c-3.3-2.9-5.8-2.1-7.7-1.1
					c1.6,1.5,3.2,2.7,4.9,3.7c-1.4-0.2-2.5,0.2-3.5,0.7c2.4,2.2,4.9,3.8,7.3,5c-0.1,0-0.2,0-0.4,0c-2.7-2.3-4.7-1.6-6.2-0.8
					c1,2,14,7.8,16.8,7.5l19.9,0.8c12.2,5.5,41.4,15.4,69.7,26.1L1804.1,815.6z"/>
				<g>
					<path fill="#410106" stroke="#FFFFFF" stroke-width="0.5" stroke-miterlimit="10" d="M1701.1,794.7"/>
					<path fill="#410106" stroke="#FFFFFF" stroke-width="0.5" stroke-miterlimit="10" d="M1696.8,790.1"/>
					<path fill="#410106" stroke="#FFFFFF" stroke-width="0.5" stroke-miterlimit="10" d="M1687.9,787.1"/>
					
						<line fill="none" stroke="#FFFFFF" stroke-width="0.5" stroke-miterlimit="10" x1="1694.1" y1="787.9" x2="1694.1" y2="787.9"/>
					<path fill="#410106" stroke="#FFFFFF" stroke-width="0.5" stroke-linecap="round" stroke-miterlimit="10" d="M1705.2,791.5
						c0.1-0.5-9.9-1.2-18-8.6l0,0c1.7-0.9,3.9-1.6,6.9,1l0,0c7-1.3,11.9,4.2,11.9,4.1"/>
					<path fill="#410106" stroke="#FFFFFF" stroke-width="0.5" stroke-linecap="round" stroke-miterlimit="10" d="M1705.9,788
						c0.1-0.6-11.1-1.3-20.1-9.6l0,0c1.9-1,4.3-1.8,7.7,1.1l0,0c7.8-1.4,13.3,4.7,13.3,4.6"/>
					<path fill="#410106" stroke="#FFFFFF" stroke-width="0.5" stroke-linecap="round" stroke-miterlimit="10" d="M1707,784.3
						c0.1-0.5-9.9-1.2-18-8.6l0,0c1.7-0.9,3.9-1.6,6.9,1l0,0c4.2-0.8,8.8,1.7,10.9,3.2"/>
				</g>
				
					<line fill="none" stroke="#FFFFFF" stroke-width="0.75" stroke-linecap="round" stroke-miterlimit="10" x1="1755" y1="807" x2="1726.6" y2="785.6"/>
			</g>
			<path fill="none" stroke="#FFFFFF" stroke-width="0.75" stroke-linecap="round" stroke-miterlimit="10" d="M1794.5,821.2
				c3.1-1,4.8-4.2,3.8-7.3c-0.8-2.5-3.4-3.8-5.8-3.1c-2,0.6-3.1,2.7-2.5,4.7c0.5,1.6,2.2,2.5,3.7,2c1.3-0.4,2-1.7,1.6-3
				c-0.3-1-1.4-1.6-2.4-1.3"/>
		</g>
	</g>
</g>
<g>
	
		<rect x="68.5" y="852.1" fill="none" stroke="#FFFFFF" stroke-width="0.25" stroke-linejoin="round" stroke-miterlimit="10" width="1503.1" height="21.8"/>
	
		<rect x="30.4" y="748.1" fill="none" stroke="#FFFFFF" stroke-width="0.25" stroke-linejoin="round" stroke-miterlimit="10" width="1579.4" height="21.7"/>
	
		<rect x="89.5" y="873.9" fill="none" stroke="#FFFFFF" stroke-width="0.25" stroke-linejoin="round" stroke-miterlimit="10" width="64.2" height="81.6"/>
	
		<rect x="1492.9" y="873.9" fill="none" stroke="#FFFFFF" stroke-width="0.25" stroke-linejoin="round" stroke-miterlimit="10" width="64.2" height="81.6"/>
	<g>
		
			<rect x="493.1" y="873.9" fill="none" stroke="#FFFFFF" stroke-width="0.25" stroke-linejoin="round" stroke-miterlimit="10" width="64.2" height="81.6"/>
		
			<rect x="589.3" y="873.9" fill="none" stroke="#FFFFFF" stroke-width="0.25" stroke-linejoin="round" stroke-miterlimit="10" width="64.2" height="81.6"/>
		
			<line fill="none" stroke="#FFFFFF" stroke-width="0.25" stroke-linejoin="round" stroke-miterlimit="10" x1="572.6" y1="852.1" x2="572.6" y2="873.9"/>
	</g>
	<g>
		
			<rect x="105.5" y="955.5" fill="none" stroke="#FFFFFF" stroke-width="0.25" stroke-linejoin="round" stroke-miterlimit="10" width="1429.2" height="21.8"/>
		
			<rect x="121.5" y="977.3" fill="none" stroke="#FFFFFF" stroke-width="0.25" stroke-linejoin="round" stroke-miterlimit="10" width="64.2" height="81.6"/>
		
			<rect x="1460.8" y="977.3" fill="none" stroke="#FFFFFF" stroke-width="0.25" stroke-linejoin="round" stroke-miterlimit="10" width="64.2" height="81.6"/>
		<g>
			
				<rect x="503.8" y="977.3" fill="none" stroke="#FFFFFF" stroke-width="0.25" stroke-linejoin="round" stroke-miterlimit="10" width="64.2" height="81.6"/>
			
				<rect x="600" y="977.3" fill="none" stroke="#FFFFFF" stroke-width="0.25" stroke-linejoin="round" stroke-miterlimit="10" width="64.2" height="81.6"/>
			
				<line fill="none" stroke="#FFFFFF" stroke-width="0.25" stroke-linejoin="round" stroke-miterlimit="10" x1="583.3" y1="955.5" x2="583.3" y2="977.3"/>
		</g>
		<g>
			
				<rect x="982.3" y="977.3" fill="none" stroke="#FFFFFF" stroke-width="0.25" stroke-linejoin="round" stroke-miterlimit="10" width="64.2" height="81.6"/>
			
				<rect x="1078.5" y="977.3" fill="none" stroke="#FFFFFF" stroke-width="0.25" stroke-linejoin="round" stroke-miterlimit="10" width="64.2" height="81.6"/>
			
				<line fill="none" stroke="#FFFFFF" stroke-width="0.25" stroke-linejoin="round" stroke-miterlimit="10" x1="1061.7" y1="955.5" x2="1061.7" y2="977.3"/>
		</g>
	</g>
	<g>
		
			<rect x="993" y="873.9" fill="none" stroke="#FFFFFF" stroke-width="0.25" stroke-linejoin="round" stroke-miterlimit="10" width="64.2" height="81.6"/>
		
			<rect x="1089.2" y="873.9" fill="none" stroke="#FFFFFF" stroke-width="0.25" stroke-linejoin="round" stroke-miterlimit="10" width="64.2" height="81.6"/>
		
			<line fill="none" stroke="#FFFFFF" stroke-width="0.25" stroke-linejoin="round" stroke-miterlimit="10" x1="1072.4" y1="852.1" x2="1072.4" y2="873.9"/>
	</g>
	
		<rect x="57.4" y="769.8" fill="none" stroke="#FFFFFF" stroke-width="0.25" stroke-linejoin="round" stroke-miterlimit="10" width="64.2" height="81.6"/>
	
		<rect x="1525" y="769.8" fill="none" stroke="#FFFFFF" stroke-width="0.25" stroke-linejoin="round" stroke-miterlimit="10" width="64.2" height="81.6"/>
	<g>
		
			<rect x="352.1" y="769.8" fill="none" stroke="#FFFFFF" stroke-width="0.25" stroke-linejoin="round" stroke-miterlimit="10" width="64.2" height="81.6"/>
		
			<rect x="448.3" y="769.8" fill="none" stroke="#FFFFFF" stroke-width="0.25" stroke-linejoin="round" stroke-miterlimit="10" width="64.2" height="81.6"/>
		
			<line fill="none" stroke="#FFFFFF" stroke-width="0.25" stroke-linejoin="round" stroke-miterlimit="10" x1="431.6" y1="748" x2="431.6" y2="769.8"/>
	</g>
	<g>
		
			<rect x="743.1" y="769.8" fill="none" stroke="#FFFFFF" stroke-width="0.25" stroke-linejoin="round" stroke-miterlimit="10" width="64.2" height="81.6"/>
		
			<rect x="839.3" y="769.8" fill="none" stroke="#FFFFFF" stroke-width="0.25" stroke-linejoin="round" stroke-miterlimit="10" width="64.2" height="81.6"/>
		
			<line fill="none" stroke="#FFFFFF" stroke-width="0.25" stroke-linejoin="round" stroke-miterlimit="10" x1="822.5" y1="748" x2="822.5" y2="769.8"/>
	</g>
	<g>
		
			<rect x="1134" y="769.8" fill="none" stroke="#FFFFFF" stroke-width="0.25" stroke-linejoin="round" stroke-miterlimit="10" width="64.2" height="81.6"/>
		
			<rect x="1230.2" y="769.8" fill="none" stroke="#FFFFFF" stroke-width="0.25" stroke-linejoin="round" stroke-miterlimit="10" width="64.2" height="81.6"/>
		
			<line fill="none" stroke="#FFFFFF" stroke-width="0.25" stroke-linejoin="round" stroke-miterlimit="10" x1="1213.5" y1="748" x2="1213.5" y2="769.8"/>
	</g>
	
		<rect y="644.7" fill="none" stroke="#FFFFFF" stroke-width="0.25" stroke-linejoin="round" stroke-miterlimit="10" width="1640.4" height="21.7"/>
	
		<rect x="21.5" y="666.5" fill="none" stroke="#FFFFFF" stroke-width="0.25" stroke-linejoin="round" stroke-miterlimit="10" width="64.2" height="81.6"/>
	
		<rect x="1557.1" y="666.5" fill="none" stroke="#FFFFFF" stroke-width="0.25" stroke-linejoin="round" stroke-miterlimit="10" width="64.2" height="81.6"/>
	<g>
		
			<rect x="333.2" y="666.5" fill="none" stroke="#FFFFFF" stroke-width="0.25" stroke-linejoin="round" stroke-miterlimit="10" width="64.2" height="81.6"/>
		
			<rect x="429.4" y="666.5" fill="none" stroke="#FFFFFF" stroke-width="0.25" stroke-linejoin="round" stroke-miterlimit="10" width="64.2" height="81.6"/>
		
			<line fill="none" stroke="#FFFFFF" stroke-width="0.25" stroke-linejoin="round" stroke-miterlimit="10" x1="412.7" y1="644.7" x2="412.7" y2="666.5"/>
	</g>
	<g>
		
			<rect x="741.2" y="666.5" fill="none" stroke="#FFFFFF" stroke-width="0.25" stroke-linejoin="round" stroke-miterlimit="10" width="64.2" height="81.6"/>
		
			<rect x="837.4" y="666.5" fill="none" stroke="#FFFFFF" stroke-width="0.25" stroke-linejoin="round" stroke-miterlimit="10" width="64.2" height="81.6"/>
		
			<line fill="none" stroke="#FFFFFF" stroke-width="0.25" stroke-linejoin="round" stroke-miterlimit="10" x1="820.6" y1="644.7" x2="820.6" y2="666.5"/>
	</g>
	<g>
		
			<rect x="1149.1" y="666.5" fill="none" stroke="#FFFFFF" stroke-width="0.25" stroke-linejoin="round" stroke-miterlimit="10" width="64.2" height="81.6"/>
		
			<rect x="1245.3" y="666.5" fill="none" stroke="#FFFFFF" stroke-width="0.25" stroke-linejoin="round" stroke-miterlimit="10" width="64.2" height="81.6"/>
		
			<line fill="none" stroke="#FFFFFF" stroke-width="0.25" stroke-linejoin="round" stroke-miterlimit="10" x1="1228.6" y1="644.7" x2="1228.6" y2="666.5"/>
	</g>
</g>
</svg>
