<?xml version="1.0" encoding="utf-8"?>
<!-- Generator: Adobe Illustrator 18.1.1, SVG Export Plug-In . SVG Version: 6.00 Build 0)  -->
<svg version="1.1" id="Layer_1" xmlns="http://www.w3.org/2000/svg" xmlns:xlink="http://www.w3.org/1999/xlink" x="0px" y="0px"
	 viewBox="0 28.6 1915.4 1020.7" enable-background="new 0 28.6 1915.4 1020.7" xml:space="preserve">
<pattern  y="1080" width="26.3" height="26.3" patternUnits="userSpaceOnUse" id="SVGID_3_" viewBox="0 -26.3 26.3 26.3" overflow="visible">
	<g>
		<polygon fill="none" points="0,0 26.3,0 26.3,-26.3 0,-26.3 		"/>
		<g>
			<polygon fill="none" points="0,0 26.3,0 26.3,-26.3 0,-26.3 			"/>
			<g>
				<g>
					<defs>
						<rect id="SVGID_1_" x="0" y="-26.3" width="26.3" height="26.3"/>
					</defs>
					<clipPath id="SVGID_2_">
						<use xlink:href="#SVGID_1_"  overflow="visible"/>
					</clipPath>
					
						<line clip-path="url(#SVGID_2_)" fill="none" stroke="#EB9F22" stroke-width="5.000000e-02" stroke-miterlimit="10" x1="1.9" y1="-26.3" x2="1.9" y2="0"/>
				</g>
				<g>
					<defs>
						<rect id="SVGID_4_" x="0" y="-26.3" width="26.3" height="26.3"/>
					</defs>
					<clipPath id="SVGID_5_">
						<use xlink:href="#SVGID_4_"  overflow="visible"/>
					</clipPath>
					
						<line clip-path="url(#SVGID_5_)" fill="none" stroke="#EB9F22" stroke-width="5.000000e-02" stroke-miterlimit="10" x1="0" y1="-26.3" x2="0" y2="0"/>
				</g>
				<g>
					<defs>
						<rect id="SVGID_6_" x="0" y="-26.3" width="26.3" height="26.3"/>
					</defs>
					<clipPath id="SVGID_7_">
						<use xlink:href="#SVGID_6_"  overflow="visible"/>
					</clipPath>
					
						<line clip-path="url(#SVGID_7_)" fill="none" stroke="#EB9F22" stroke-width="5.000000e-02" stroke-miterlimit="10" x1="3.8" y1="-26.3" x2="3.8" y2="0"/>
				</g>
				<g>
					<defs>
						<rect id="SVGID_8_" x="0" y="-26.3" width="26.3" height="26.3"/>
					</defs>
					<clipPath id="SVGID_9_">
						<use xlink:href="#SVGID_8_"  overflow="visible"/>
					</clipPath>
					
						<line clip-path="url(#SVGID_9_)" fill="none" stroke="#EB9F22" stroke-width="5.000000e-02" stroke-miterlimit="10" x1="5.7" y1="-26.3" x2="5.7" y2="0"/>
				</g>
				<g>
					<defs>
						<rect id="SVGID_10_" x="0" y="-26.3" width="26.3" height="26.3"/>
					</defs>
					<clipPath id="SVGID_11_">
						<use xlink:href="#SVGID_10_"  overflow="visible"/>
					</clipPath>
					
						<line clip-path="url(#SVGID_11_)" fill="none" stroke="#EB9F22" stroke-width="5.000000e-02" stroke-miterlimit="10" x1="7.6" y1="-26.3" x2="7.6" y2="0"/>
				</g>
				<g>
					<defs>
						<rect id="SVGID_12_" x="0" y="-26.3" width="26.3" height="26.3"/>
					</defs>
					<clipPath id="SVGID_13_">
						<use xlink:href="#SVGID_12_"  overflow="visible"/>
					</clipPath>
					
						<line clip-path="url(#SVGID_13_)" fill="none" stroke="#EB9F22" stroke-width="5.000000e-02" stroke-miterlimit="10" x1="9.4" y1="-26.3" x2="9.4" y2="0"/>
				</g>
				<g>
					<defs>
						<rect id="SVGID_14_" x="0" y="-26.3" width="26.3" height="26.3"/>
					</defs>
					<clipPath id="SVGID_15_">
						<use xlink:href="#SVGID_14_"  overflow="visible"/>
					</clipPath>
					
						<line clip-path="url(#SVGID_15_)" fill="none" stroke="#EB9F22" stroke-width="5.000000e-02" stroke-miterlimit="10" x1="11.3" y1="-26.3" x2="11.3" y2="0"/>
				</g>
				<g>
					<defs>
						<rect id="SVGID_16_" x="0" y="-26.3" width="26.3" height="26.3"/>
					</defs>
					<clipPath id="SVGID_17_">
						<use xlink:href="#SVGID_16_"  overflow="visible"/>
					</clipPath>
					
						<line clip-path="url(#SVGID_17_)" fill="none" stroke="#EB9F22" stroke-width="5.000000e-02" stroke-miterlimit="10" x1="13.2" y1="-26.3" x2="13.2" y2="0"/>
				</g>
				<g>
					<defs>
						<rect id="SVGID_18_" x="0" y="-26.3" width="26.3" height="26.3"/>
					</defs>
					<clipPath id="SVGID_19_">
						<use xlink:href="#SVGID_18_"  overflow="visible"/>
					</clipPath>
					
						<line clip-path="url(#SVGID_19_)" fill="none" stroke="#EB9F22" stroke-width="5.000000e-02" stroke-miterlimit="10" x1="15.1" y1="-26.3" x2="15.1" y2="0"/>
				</g>
				<g>
					<defs>
						<rect id="SVGID_20_" x="0" y="-26.3" width="26.3" height="26.3"/>
					</defs>
					<clipPath id="SVGID_21_">
						<use xlink:href="#SVGID_20_"  overflow="visible"/>
					</clipPath>
					
						<line clip-path="url(#SVGID_21_)" fill="none" stroke="#EB9F22" stroke-width="5.000000e-02" stroke-miterlimit="10" x1="17" y1="-26.3" x2="17" y2="0"/>
				</g>
				<g>
					<defs>
						<rect id="SVGID_22_" x="0" y="-26.3" width="26.3" height="26.3"/>
					</defs>
					<clipPath id="SVGID_23_">
						<use xlink:href="#SVGID_22_"  overflow="visible"/>
					</clipPath>
					
						<line clip-path="url(#SVGID_23_)" fill="none" stroke="#EB9F22" stroke-width="5.000000e-02" stroke-miterlimit="10" x1="18.8" y1="-26.3" x2="18.8" y2="0"/>
				</g>
				<g>
					<defs>
						<rect id="SVGID_24_" x="0" y="-26.3" width="26.3" height="26.3"/>
					</defs>
					<clipPath id="SVGID_25_">
						<use xlink:href="#SVGID_24_"  overflow="visible"/>
					</clipPath>
					
						<line clip-path="url(#SVGID_25_)" fill="none" stroke="#EB9F22" stroke-width="5.000000e-02" stroke-miterlimit="10" x1="20.7" y1="-26.3" x2="20.7" y2="0"/>
				</g>
				<g>
					<defs>
						<rect id="SVGID_26_" x="0" y="-26.3" width="26.3" height="26.3"/>
					</defs>
					<clipPath id="SVGID_27_">
						<use xlink:href="#SVGID_26_"  overflow="visible"/>
					</clipPath>
					
						<line clip-path="url(#SVGID_27_)" fill="none" stroke="#EB9F22" stroke-width="5.000000e-02" stroke-miterlimit="10" x1="22.5" y1="-26.3" x2="22.5" y2="0"/>
				</g>
				<g>
					<defs>
						<rect id="SVGID_28_" x="0" y="-26.3" width="26.3" height="26.3"/>
					</defs>
					<clipPath id="SVGID_29_">
						<use xlink:href="#SVGID_28_"  overflow="visible"/>
					</clipPath>
					
						<line clip-path="url(#SVGID_29_)" fill="none" stroke="#EB9F22" stroke-width="5.000000e-02" stroke-miterlimit="10" x1="24.4" y1="-26.3" x2="24.4" y2="0"/>
				</g>
				<g>
					<defs>
						<rect id="SVGID_30_" x="0" y="-26.3" width="26.3" height="26.3"/>
					</defs>
					<clipPath id="SVGID_31_">
						<use xlink:href="#SVGID_30_"  overflow="visible"/>
					</clipPath>
					
						<line clip-path="url(#SVGID_31_)" fill="none" stroke="#EB9F22" stroke-width="5.000000e-02" stroke-miterlimit="10" x1="26.3" y1="-26.3" x2="26.3" y2="0"/>
				</g>
				<g>
					<defs>
						<rect id="SVGID_32_" x="0" y="-26.3" width="26.3" height="26.3"/>
					</defs>
					<clipPath id="SVGID_33_">
						<use xlink:href="#SVGID_32_"  overflow="visible"/>
					</clipPath>
					<g clip-path="url(#SVGID_33_)">
						<path fill="none" stroke="#EB9F22" stroke-width="5.000000e-02" stroke-miterlimit="10" d="M1.9-3.3c0-0.3-0.4-0.5-0.9-0.5
							S0-3.6,0-3.3"/>
						<path fill="none" stroke="#EB9F22" stroke-width="5.000000e-02" stroke-miterlimit="10" d="M5.7-3.3c0-0.3-0.4-0.5-0.9-0.5
							S3.8-3.6,3.8-3.3"/>
						<path fill="none" stroke="#EB9F22" stroke-width="5.000000e-02" stroke-miterlimit="10" d="M9.5-3.3c0-0.3-0.4-0.5-0.9-0.5
							S7.6-3.6,7.6-3.3"/>
						<path fill="none" stroke="#EB9F22" stroke-width="5.000000e-02" stroke-miterlimit="10" d="M13.2-3.3c0-0.3-0.4-0.5-0.9-0.5
							s-0.9,0.2-0.9,0.5"/>
						<path fill="none" stroke="#EB9F22" stroke-width="5.000000e-02" stroke-miterlimit="10" d="M17-3.3c0-0.3-0.4-0.5-0.9-0.5
							c-0.5,0-0.9,0.2-0.9,0.5"/>
						<path fill="none" stroke="#EB9F22" stroke-width="5.000000e-02" stroke-miterlimit="10" d="M20.7-3.3c0-0.3-0.4-0.5-0.9-0.5
							s-0.9,0.2-0.9,0.5"/>
						<path fill="none" stroke="#EB9F22" stroke-width="5.000000e-02" stroke-miterlimit="10" d="M24.4-3.3c0-0.3-0.4-0.5-0.9-0.5
							c-0.5,0-0.9,0.2-0.9,0.5"/>
					</g>
				</g>
				<g>
					<defs>
						<rect id="SVGID_34_" x="0" y="-26.3" width="26.3" height="26.3"/>
					</defs>
					<clipPath id="SVGID_35_">
						<use xlink:href="#SVGID_34_"  overflow="visible"/>
					</clipPath>
					<g clip-path="url(#SVGID_35_)">
						<path fill="none" stroke="#EB9F22" stroke-width="5.000000e-02" stroke-miterlimit="10" d="M1.9-7.1c0-0.3-0.4-0.5-0.9-0.5
							S0-7.4,0-7.1"/>
						<path fill="none" stroke="#EB9F22" stroke-width="5.000000e-02" stroke-miterlimit="10" d="M5.7-7.1c0-0.3-0.4-0.5-0.9-0.5
							S3.8-7.4,3.8-7.1"/>
						<path fill="none" stroke="#EB9F22" stroke-width="5.000000e-02" stroke-miterlimit="10" d="M9.5-7.1c0-0.3-0.4-0.5-0.9-0.5
							S7.6-7.4,7.6-7.1"/>
						<path fill="none" stroke="#EB9F22" stroke-width="5.000000e-02" stroke-miterlimit="10" d="M13.2-7.1c0-0.3-0.4-0.5-0.9-0.5
							s-0.9,0.2-0.9,0.5"/>
						<path fill="none" stroke="#EB9F22" stroke-width="5.000000e-02" stroke-miterlimit="10" d="M17-7.1c0-0.3-0.4-0.5-0.9-0.5
							c-0.5,0-0.9,0.2-0.9,0.5"/>
						<path fill="none" stroke="#EB9F22" stroke-width="5.000000e-02" stroke-miterlimit="10" d="M20.7-7.1c0-0.3-0.4-0.5-0.9-0.5
							s-0.9,0.2-0.9,0.5"/>
						<path fill="none" stroke="#EB9F22" stroke-width="5.000000e-02" stroke-miterlimit="10" d="M24.4-7.1c0-0.3-0.4-0.5-0.9-0.5
							c-0.5,0-0.9,0.2-0.9,0.5"/>
					</g>
				</g>
				<g>
					<defs>
						<rect id="SVGID_36_" x="0" y="-26.3" width="26.3" height="26.3"/>
					</defs>
					<clipPath id="SVGID_37_">
						<use xlink:href="#SVGID_36_"  overflow="visible"/>
					</clipPath>
					<g clip-path="url(#SVGID_37_)">
						<path fill="none" stroke="#EB9F22" stroke-width="5.000000e-02" stroke-miterlimit="10" d="M3.8-1.4c0-0.3-0.4-0.5-0.9-0.5
							S1.9-1.7,1.9-1.4"/>
						<path fill="none" stroke="#EB9F22" stroke-width="5.000000e-02" stroke-miterlimit="10" d="M7.6-1.4c0-0.3-0.4-0.5-0.9-0.5
							S5.7-1.7,5.7-1.4"/>
						<path fill="none" stroke="#EB9F22" stroke-width="5.000000e-02" stroke-miterlimit="10" d="M11.3-1.4c0-0.3-0.4-0.5-0.9-0.5
							c-0.6,0-0.9,0.2-0.9,0.5"/>
						<path fill="none" stroke="#EB9F22" stroke-width="5.000000e-02" stroke-miterlimit="10" d="M15.1-1.4c0-0.3-0.4-0.5-0.9-0.5
							c-0.5,0-0.9,0.2-0.9,0.5"/>
						<path fill="none" stroke="#EB9F22" stroke-width="5.000000e-02" stroke-miterlimit="10" d="M18.8-1.4c0-0.3-0.4-0.5-0.9-0.5
							c-0.5,0-0.9,0.2-0.9,0.5"/>
						<path fill="none" stroke="#EB9F22" stroke-width="5.000000e-02" stroke-miterlimit="10" d="M22.5-1.4c0-0.3-0.4-0.5-0.9-0.5
							c-0.5,0-0.9,0.2-0.9,0.5"/>
						<path fill="none" stroke="#EB9F22" stroke-width="5.000000e-02" stroke-miterlimit="10" d="M26.3-1.4c0-0.3-0.4-0.5-0.9-0.5
							c-0.5,0-0.9,0.2-0.9,0.5"/>
					</g>
				</g>
				<g>
					<defs>
						<rect id="SVGID_38_" x="0" y="-26.3" width="26.3" height="26.3"/>
					</defs>
					<clipPath id="SVGID_39_">
						<use xlink:href="#SVGID_38_"  overflow="visible"/>
					</clipPath>
					<g clip-path="url(#SVGID_39_)">
						<path fill="none" stroke="#EB9F22" stroke-width="5.000000e-02" stroke-miterlimit="10" d="M3.8-5.2c0-0.3-0.4-0.5-0.9-0.5
							S1.9-5.5,1.9-5.2"/>
						<path fill="none" stroke="#EB9F22" stroke-width="5.000000e-02" stroke-miterlimit="10" d="M7.6-5.2c0-0.3-0.4-0.5-0.9-0.5
							S5.7-5.5,5.7-5.2"/>
						<path fill="none" stroke="#EB9F22" stroke-width="5.000000e-02" stroke-miterlimit="10" d="M11.3-5.2c0-0.3-0.4-0.5-0.9-0.5
							c-0.6,0-0.9,0.2-0.9,0.5"/>
						<path fill="none" stroke="#EB9F22" stroke-width="5.000000e-02" stroke-miterlimit="10" d="M15.1-5.2c0-0.3-0.4-0.5-0.9-0.5
							c-0.5,0-0.9,0.2-0.9,0.5"/>
						<path fill="none" stroke="#EB9F22" stroke-width="5.000000e-02" stroke-miterlimit="10" d="M18.8-5.2c0-0.3-0.4-0.5-0.9-0.5
							c-0.5,0-0.9,0.2-0.9,0.5"/>
						<path fill="none" stroke="#EB9F22" stroke-width="5.000000e-02" stroke-miterlimit="10" d="M22.5-5.2c0-0.3-0.4-0.5-0.9-0.5
							c-0.5,0-0.9,0.2-0.9,0.5"/>
						<path fill="none" stroke="#EB9F22" stroke-width="5.000000e-02" stroke-miterlimit="10" d="M26.3-5.2c0-0.3-0.4-0.5-0.9-0.5
							c-0.5,0-0.9,0.2-0.9,0.5"/>
					</g>
				</g>
				<g>
					<defs>
						<rect id="SVGID_40_" x="0" y="-26.3" width="26.3" height="26.3"/>
					</defs>
					<clipPath id="SVGID_41_">
						<use xlink:href="#SVGID_40_"  overflow="visible"/>
					</clipPath>
					<g clip-path="url(#SVGID_41_)">
						<path fill="none" stroke="#EB9F22" stroke-width="5.000000e-02" stroke-miterlimit="10" d="M1.9-10.8c0-0.3-0.4-0.5-0.9-0.5
							S0-11.1,0-10.8"/>
						<path fill="none" stroke="#EB9F22" stroke-width="5.000000e-02" stroke-miterlimit="10" d="M5.7-10.8c0-0.3-0.4-0.5-0.9-0.5
							s-0.9,0.2-0.9,0.5"/>
						<path fill="none" stroke="#EB9F22" stroke-width="5.000000e-02" stroke-miterlimit="10" d="M9.5-10.8c0-0.3-0.4-0.5-0.9-0.5
							s-0.9,0.2-0.9,0.5"/>
						<path fill="none" stroke="#EB9F22" stroke-width="5.000000e-02" stroke-miterlimit="10" d="M13.2-10.8c0-0.3-0.4-0.5-0.9-0.5
							s-0.9,0.2-0.9,0.5"/>
						<path fill="none" stroke="#EB9F22" stroke-width="5.000000e-02" stroke-miterlimit="10" d="M17-10.8c0-0.3-0.4-0.5-0.9-0.5
							c-0.5,0-0.9,0.2-0.9,0.5"/>
						<path fill="none" stroke="#EB9F22" stroke-width="5.000000e-02" stroke-miterlimit="10" d="M20.7-10.8c0-0.3-0.4-0.5-0.9-0.5
							s-0.9,0.2-0.9,0.5"/>
						<path fill="none" stroke="#EB9F22" stroke-width="5.000000e-02" stroke-miterlimit="10" d="M24.4-10.8c0-0.3-0.4-0.5-0.9-0.5
							c-0.5,0-0.9,0.2-0.9,0.5"/>
					</g>
				</g>
				<g>
					<defs>
						<rect id="SVGID_42_" x="0" y="-26.3" width="26.3" height="26.3"/>
					</defs>
					<clipPath id="SVGID_43_">
						<use xlink:href="#SVGID_42_"  overflow="visible"/>
					</clipPath>
					<g clip-path="url(#SVGID_43_)">
						<path fill="none" stroke="#EB9F22" stroke-width="5.000000e-02" stroke-miterlimit="10" d="M3.8-8.9c0-0.3-0.4-0.5-0.9-0.5
							S1.9-9.2,1.9-8.9"/>
						<path fill="none" stroke="#EB9F22" stroke-width="5.000000e-02" stroke-miterlimit="10" d="M7.6-8.9c0-0.3-0.4-0.5-0.9-0.5
							S5.7-9.2,5.7-8.9"/>
						<path fill="none" stroke="#EB9F22" stroke-width="5.000000e-02" stroke-miterlimit="10" d="M11.3-8.9c0-0.3-0.4-0.5-0.9-0.5
							c-0.6,0-0.9,0.2-0.9,0.5"/>
						<path fill="none" stroke="#EB9F22" stroke-width="5.000000e-02" stroke-miterlimit="10" d="M15.1-8.9c0-0.3-0.4-0.5-0.9-0.5
							c-0.5,0-0.9,0.2-0.9,0.5"/>
						<path fill="none" stroke="#EB9F22" stroke-width="5.000000e-02" stroke-miterlimit="10" d="M18.8-8.9c0-0.3-0.4-0.5-0.9-0.5
							c-0.5,0-0.9,0.2-0.9,0.5"/>
						<path fill="none" stroke="#EB9F22" stroke-width="5.000000e-02" stroke-miterlimit="10" d="M22.5-8.9c0-0.3-0.4-0.5-0.9-0.5
							c-0.5,0-0.9,0.2-0.9,0.5"/>
						<path fill="none" stroke="#EB9F22" stroke-width="5.000000e-02" stroke-miterlimit="10" d="M26.3-8.9c0-0.3-0.4-0.5-0.9-0.5
							c-0.5,0-0.9,0.2-0.9,0.5"/>
					</g>
				</g>
				<g>
					<defs>
						<rect id="SVGID_44_" x="0" y="-26.3" width="26.3" height="26.3"/>
					</defs>
					<clipPath id="SVGID_45_">
						<use xlink:href="#SVGID_44_"  overflow="visible"/>
					</clipPath>
					<g clip-path="url(#SVGID_45_)">
						<path fill="none" stroke="#EB9F22" stroke-width="5.000000e-02" stroke-miterlimit="10" d="M1.9-14.6C1.9-14.9,1.5-15,1-15
							S0-14.9,0-14.6"/>
						<path fill="none" stroke="#EB9F22" stroke-width="5.000000e-02" stroke-miterlimit="10" d="M5.7-14.6c0-0.3-0.4-0.5-0.9-0.5
							s-0.9,0.2-0.9,0.5"/>
						<path fill="none" stroke="#EB9F22" stroke-width="5.000000e-02" stroke-miterlimit="10" d="M9.5-14.6c0-0.3-0.4-0.5-0.9-0.5
							s-0.9,0.2-0.9,0.5"/>
						<path fill="none" stroke="#EB9F22" stroke-width="5.000000e-02" stroke-miterlimit="10" d="M13.2-14.6c0-0.3-0.4-0.5-0.9-0.5
							s-0.9,0.2-0.9,0.5"/>
						<path fill="none" stroke="#EB9F22" stroke-width="5.000000e-02" stroke-miterlimit="10" d="M17-14.6c0-0.3-0.4-0.5-0.9-0.5
							c-0.5,0-0.9,0.2-0.9,0.5"/>
						<path fill="none" stroke="#EB9F22" stroke-width="5.000000e-02" stroke-miterlimit="10" d="M20.7-14.6c0-0.3-0.4-0.5-0.9-0.5
							s-0.9,0.2-0.9,0.5"/>
						<path fill="none" stroke="#EB9F22" stroke-width="5.000000e-02" stroke-miterlimit="10" d="M24.4-14.6c0-0.3-0.4-0.5-0.9-0.5
							c-0.5,0-0.9,0.2-0.9,0.5"/>
					</g>
				</g>
				<g>
					<defs>
						<rect id="SVGID_46_" x="0" y="-26.3" width="26.3" height="26.3"/>
					</defs>
					<clipPath id="SVGID_47_">
						<use xlink:href="#SVGID_46_"  overflow="visible"/>
					</clipPath>
					<g clip-path="url(#SVGID_47_)">
						<path fill="none" stroke="#EB9F22" stroke-width="5.000000e-02" stroke-miterlimit="10" d="M3.8-12.7c0-0.3-0.4-0.5-0.9-0.5
							S1.9-13,1.9-12.7"/>
						<path fill="none" stroke="#EB9F22" stroke-width="5.000000e-02" stroke-miterlimit="10" d="M7.6-12.7c0-0.3-0.4-0.5-0.9-0.5
							S5.7-13,5.7-12.7"/>
						<path fill="none" stroke="#EB9F22" stroke-width="5.000000e-02" stroke-miterlimit="10" d="M11.3-12.7c0-0.3-0.4-0.5-0.9-0.5
							c-0.6,0-0.9,0.2-0.9,0.5"/>
						<path fill="none" stroke="#EB9F22" stroke-width="5.000000e-02" stroke-miterlimit="10" d="M15.1-12.7c0-0.3-0.4-0.5-0.9-0.5
							c-0.5,0-0.9,0.2-0.9,0.5"/>
						<path fill="none" stroke="#EB9F22" stroke-width="5.000000e-02" stroke-miterlimit="10" d="M18.8-12.7c0-0.3-0.4-0.5-0.9-0.5
							c-0.5,0-0.9,0.2-0.9,0.5"/>
						<path fill="none" stroke="#EB9F22" stroke-width="5.000000e-02" stroke-miterlimit="10" d="M22.5-12.7c0-0.3-0.4-0.5-0.9-0.5
							c-0.5,0-0.9,0.2-0.9,0.5"/>
						<path fill="none" stroke="#EB9F22" stroke-width="5.000000e-02" stroke-miterlimit="10" d="M26.3-12.7c0-0.3-0.4-0.5-0.9-0.5
							c-0.5,0-0.9,0.2-0.9,0.5"/>
					</g>
				</g>
				<g>
					<defs>
						<rect id="SVGID_48_" x="0" y="-26.3" width="26.3" height="26.3"/>
					</defs>
					<clipPath id="SVGID_49_">
						<use xlink:href="#SVGID_48_"  overflow="visible"/>
					</clipPath>
					<g clip-path="url(#SVGID_49_)">
						<path fill="none" stroke="#EB9F22" stroke-width="5.000000e-02" stroke-miterlimit="10" d="M1.9-18.4c0-0.3-0.4-0.5-0.9-0.5
							S0-18.5,0-18.4"/>
						<path fill="none" stroke="#EB9F22" stroke-width="5.000000e-02" stroke-miterlimit="10" d="M5.7-18.4c0-0.3-0.4-0.5-0.9-0.5
							s-0.9,0.3-0.9,0.5"/>
						<path fill="none" stroke="#EB9F22" stroke-width="5.000000e-02" stroke-miterlimit="10" d="M9.5-18.4c0-0.3-0.4-0.5-0.9-0.5
							s-0.9,0.3-0.9,0.5"/>
						<path fill="none" stroke="#EB9F22" stroke-width="5.000000e-02" stroke-miterlimit="10" d="M13.2-18.4c0-0.3-0.4-0.5-0.9-0.5
							s-0.9,0.2-0.9,0.5"/>
						<path fill="none" stroke="#EB9F22" stroke-width="5.000000e-02" stroke-miterlimit="10" d="M17-18.4c0-0.3-0.4-0.5-0.9-0.5
							c-0.5,0-0.9,0.2-0.9,0.5"/>
						<path fill="none" stroke="#EB9F22" stroke-width="5.000000e-02" stroke-miterlimit="10" d="M20.7-18.4c0-0.3-0.4-0.5-0.9-0.5
							s-0.9,0.2-0.9,0.5"/>
						<path fill="none" stroke="#EB9F22" stroke-width="5.000000e-02" stroke-miterlimit="10" d="M24.4-18.4c0-0.3-0.4-0.5-0.9-0.5
							c-0.5,0-0.9,0.2-0.9,0.5"/>
					</g>
				</g>
				<g>
					<defs>
						<rect id="SVGID_50_" x="0" y="-26.3" width="26.3" height="26.3"/>
					</defs>
					<clipPath id="SVGID_51_">
						<use xlink:href="#SVGID_50_"  overflow="visible"/>
					</clipPath>
					<g clip-path="url(#SVGID_51_)">
						<path fill="none" stroke="#EB9F22" stroke-width="5.000000e-02" stroke-miterlimit="10" d="M3.8-16.5c0-0.3-0.4-0.5-0.9-0.5
							s-0.9,0.2-0.9,0.5"/>
						<path fill="none" stroke="#EB9F22" stroke-width="5.000000e-02" stroke-miterlimit="10" d="M7.6-16.5c0-0.3-0.4-0.5-0.9-0.5
							s-0.9,0.2-0.9,0.5"/>
						<path fill="none" stroke="#EB9F22" stroke-width="5.000000e-02" stroke-miterlimit="10" d="M11.3-16.5c0-0.3-0.4-0.5-0.9-0.5
							c-0.6,0-0.9,0.2-0.9,0.5"/>
						<path fill="none" stroke="#EB9F22" stroke-width="5.000000e-02" stroke-miterlimit="10" d="M15.1-16.5c0-0.3-0.4-0.5-0.9-0.5
							c-0.5,0-0.9,0.2-0.9,0.5"/>
						<path fill="none" stroke="#EB9F22" stroke-width="5.000000e-02" stroke-miterlimit="10" d="M18.8-16.5c0-0.3-0.4-0.5-0.9-0.5
							c-0.5,0-0.9,0.2-0.9,0.5"/>
						<path fill="none" stroke="#EB9F22" stroke-width="5.000000e-02" stroke-miterlimit="10" d="M22.5-16.5c0-0.3-0.4-0.5-0.9-0.5
							c-0.5,0-0.9,0.2-0.9,0.5"/>
						<path fill="none" stroke="#EB9F22" stroke-width="5.000000e-02" stroke-miterlimit="10" d="M26.3-16.5c0-0.3-0.4-0.5-0.9-0.5
							c-0.5,0-0.9,0.2-0.9,0.5"/>
					</g>
				</g>
				<g>
					<defs>
						<rect id="SVGID_52_" x="0" y="-26.3" width="26.3" height="26.3"/>
					</defs>
					<clipPath id="SVGID_53_">
						<use xlink:href="#SVGID_52_"  overflow="visible"/>
					</clipPath>
					<g clip-path="url(#SVGID_53_)">
						<path fill="none" stroke="#EB9F22" stroke-width="5.000000e-02" stroke-miterlimit="10" d="M1.9-22c0-0.3-0.4-0.5-0.9-0.5
							S0-22.3,0-22"/>
						<path fill="none" stroke="#EB9F22" stroke-width="5.000000e-02" stroke-miterlimit="10" d="M5.7-22c0-0.3-0.5-0.5-0.9-0.5
							c-0.5,0-0.9,0.2-0.9,0.5"/>
						<path fill="none" stroke="#EB9F22" stroke-width="5.000000e-02" stroke-miterlimit="10" d="M9.5-22c0-0.3-0.5-0.5-0.9-0.5
							c-0.5,0-0.9,0.2-0.9,0.5"/>
						<path fill="none" stroke="#EB9F22" stroke-width="5.000000e-02" stroke-miterlimit="10" d="M13.2-22c0-0.3-0.4-0.5-0.9-0.5
							s-0.9,0.2-0.9,0.5"/>
						<path fill="none" stroke="#EB9F22" stroke-width="5.000000e-02" stroke-miterlimit="10" d="M17-22c0-0.3-0.4-0.5-0.9-0.5
							c-0.5,0-0.9,0.2-0.9,0.5"/>
						<path fill="none" stroke="#EB9F22" stroke-width="5.000000e-02" stroke-miterlimit="10" d="M20.7-22c0-0.3-0.4-0.5-0.9-0.5
							s-0.9,0.2-0.9,0.5"/>
						<path fill="none" stroke="#EB9F22" stroke-width="5.000000e-02" stroke-miterlimit="10" d="M24.4-22c0-0.3-0.4-0.5-0.9-0.5
							c-0.5,0-0.9,0.2-0.9,0.5"/>
					</g>
				</g>
				<g>
					<defs>
						<rect id="SVGID_54_" x="0" y="-26.3" width="26.3" height="26.3"/>
					</defs>
					<clipPath id="SVGID_55_">
						<use xlink:href="#SVGID_54_"  overflow="visible"/>
					</clipPath>
					<g clip-path="url(#SVGID_55_)">
						<path fill="none" stroke="#EB9F22" stroke-width="5.000000e-02" stroke-miterlimit="10" d="M3.8-20.2c0-0.2-0.5-0.4-0.9-0.4
							s-0.9,0.2-0.9,0.4"/>
						<path fill="none" stroke="#EB9F22" stroke-width="5.000000e-02" stroke-miterlimit="10" d="M7.6-20.2c0-0.2-0.5-0.4-0.9-0.4
							c-0.5,0-0.9,0.2-0.9,0.4"/>
						<path fill="none" stroke="#EB9F22" stroke-width="5.000000e-02" stroke-miterlimit="10" d="M11.3-20.2c0-0.3-0.4-0.5-0.9-0.5
							c-0.6,0-0.9,0.2-0.9,0.5"/>
						<path fill="none" stroke="#EB9F22" stroke-width="5.000000e-02" stroke-miterlimit="10" d="M15.1-20.2c0-0.3-0.4-0.5-0.9-0.5
							c-0.5,0-0.9,0.2-0.9,0.5"/>
						<path fill="none" stroke="#EB9F22" stroke-width="5.000000e-02" stroke-miterlimit="10" d="M18.8-20.2c0-0.3-0.4-0.5-0.9-0.5
							c-0.5,0-0.9,0.2-0.9,0.5"/>
						<path fill="none" stroke="#EB9F22" stroke-width="5.000000e-02" stroke-miterlimit="10" d="M22.5-20.2c0-0.3-0.4-0.5-0.9-0.5
							c-0.5,0-0.9,0.2-0.9,0.5"/>
						<path fill="none" stroke="#EB9F22" stroke-width="5.000000e-02" stroke-miterlimit="10" d="M26.3-20.2c0-0.3-0.4-0.5-0.9-0.5
							c-0.5,0-0.9,0.2-0.9,0.5"/>
					</g>
				</g>
				<g>
					<defs>
						<rect id="SVGID_56_" x="0" y="-26.3" width="26.3" height="26.3"/>
					</defs>
					<clipPath id="SVGID_57_">
						<use xlink:href="#SVGID_56_"  overflow="visible"/>
					</clipPath>
					<g clip-path="url(#SVGID_57_)">
						<path fill="none" stroke="#EB9F22" stroke-width="5.000000e-02" stroke-miterlimit="10" d="M1.9-25.7c0-0.3-0.4-0.5-0.9-0.5
							S0-26,0-25.7"/>
						<path fill="none" stroke="#EB9F22" stroke-width="5.000000e-02" stroke-miterlimit="10" d="M5.7-25.7c0-0.3-0.4-0.5-0.9-0.5
							S3.8-26,3.8-25.7"/>
						<path fill="none" stroke="#EB9F22" stroke-width="5.000000e-02" stroke-miterlimit="10" d="M9.5-25.7c0-0.3-0.4-0.5-0.9-0.5
							S7.6-26,7.6-25.7"/>
						<path fill="none" stroke="#EB9F22" stroke-width="5.000000e-02" stroke-miterlimit="10" d="M13.2-25.7c0-0.3-0.4-0.5-0.9-0.5
							s-0.9,0.2-0.9,0.5"/>
						<path fill="none" stroke="#EB9F22" stroke-width="5.000000e-02" stroke-miterlimit="10" d="M17-25.7c0-0.3-0.4-0.5-0.9-0.5
							c-0.5,0-0.9,0.2-0.9,0.5"/>
						<path fill="none" stroke="#EB9F22" stroke-width="5.000000e-02" stroke-miterlimit="10" d="M20.7-25.7c0-0.3-0.4-0.5-0.9-0.5
							s-0.9,0.2-0.9,0.5"/>
						<path fill="none" stroke="#EB9F22" stroke-width="5.000000e-02" stroke-miterlimit="10" d="M24.4-25.7c0-0.3-0.4-0.5-0.9-0.5
							c-0.5,0-0.9,0.2-0.9,0.5"/>
					</g>
				</g>
				<g>
					<defs>
						<rect id="SVGID_58_" x="0" y="-26.3" width="26.3" height="26.3"/>
					</defs>
					<clipPath id="SVGID_59_">
						<use xlink:href="#SVGID_58_"  overflow="visible"/>
					</clipPath>
					<g clip-path="url(#SVGID_59_)">
						<path fill="none" stroke="#EB9F22" stroke-width="5.000000e-02" stroke-miterlimit="10" d="M3.8-23.9c0-0.3-0.5-0.5-0.9-0.5
							s-0.9,0.2-0.9,0.5"/>
						<path fill="none" stroke="#EB9F22" stroke-width="5.000000e-02" stroke-miterlimit="10" d="M7.6-23.9c0-0.3-0.5-0.5-0.9-0.5
							c-0.5,0-0.9,0.2-0.9,0.5"/>
						<path fill="none" stroke="#EB9F22" stroke-width="5.000000e-02" stroke-miterlimit="10" d="M11.3-23.9c0-0.3-0.4-0.5-0.9-0.5
							c-0.6,0-0.9,0.2-0.9,0.5"/>
						<path fill="none" stroke="#EB9F22" stroke-width="5.000000e-02" stroke-miterlimit="10" d="M15.1-23.9c0-0.3-0.4-0.5-0.9-0.5
							c-0.5,0-0.9,0.2-0.9,0.5"/>
						<path fill="none" stroke="#EB9F22" stroke-width="5.000000e-02" stroke-miterlimit="10" d="M18.8-23.9c0-0.3-0.4-0.5-0.9-0.5
							c-0.5,0-0.9,0.2-0.9,0.5"/>
						<path fill="none" stroke="#EB9F22" stroke-width="5.000000e-02" stroke-miterlimit="10" d="M22.5-23.9c0-0.3-0.4-0.5-0.9-0.5
							c-0.5,0-0.9,0.2-0.9,0.5"/>
						<path fill="none" stroke="#EB9F22" stroke-width="5.000000e-02" stroke-miterlimit="10" d="M26.3-23.9c0-0.3-0.4-0.5-0.9-0.5
							c-0.5,0-0.9,0.2-0.9,0.5"/>
					</g>
				</g>
			</g>
		</g>
	</g>
</pattern>
<rect x="99.2" y="28.6" fill="#DC7D27" width="1816.1" height="1019.6"/>
<path fill="#D06825" stroke="#EB9F22" stroke-width="0.25" stroke-linejoin="round" stroke-miterlimit="10" d="M1524.2,608.5
	c5.2,2.9,46.5,8.5,46.5,8.5l38.2,7.1l25.1,8.2l26.2,7.4c0,0,31.7,12.1,36,13.2c4.4,1.1,46.9,2.3,46.9,2.3l34.9,5.5h18.5
	c0,0,33.7,25.7,35.9,22.7c2.3-3,37.2,3.1,37.2,3.1l44.6,4.7v357h-361.6L1524.2,608.5z"/>
<polygon fill="#D06825" points="0,28.7 758.3,28.6 1554,643.6 1581.6,1047.2 0,1046.2 "/>
<path fill="#D06825" stroke="#EB9F22" stroke-width="0.25" stroke-linejoin="round" stroke-miterlimit="10" d="M676,947.8v-21.1
	v-22.9l7.4-22.7l9.2-77.6l14-28.7l5.1-35.1v-29.6l5.9-17.9l-2.1-14l4-15.3l-12.9-22.9l13.9-15l3.2-17.7v-23.3l-63.2,19.1l-21,11
	l-21,17.9l-21.5,4.2l-21.9,12.4l-22.9,19.3l-17.5,12.4L512.1,701l-19.6,11l-20.1,23.4l-22.8,15.1c0,0-13.4,27.5-15.8,31.7
	c-2.4,4.2-25.8,19.9-25.8,19.9l-31.7,28.4l-25.4,19.6l-37.4,70"/>
<path fill="#D06825" stroke="#EB9F22" stroke-width="0.25" stroke-linejoin="round" stroke-miterlimit="10" d="M1457.1,963.6
	l1.9-52.9l2.9-26.5l7.7-21.9l3.9-45.4l-3.4-30.5l5.5-48.8l-7.2-17.2l-14.9-18.8l-9.6-23.6l-8.1-19.7v-17.3l-6.5-17.6l-3.2-17.7
	l-13.1-21.9l63.2,19.1l21,11l21,17.9l21.5,4.2l21.9,12.4l22.9,19.3l17.5,12.4l22.6,20.6l19.6,11l20.1,23.4l22.8,15.1
	c0,0,13.4,27.5,15.8,31.7c2.4,4.2,25.8,19.9,25.8,19.9l31.7,28.4l25.4,19.4l37.4,70"/>
<g>
	<g>
		<path fill="#430E00" d="M489.2,930.3c0.2,0,0.4,0,0.4,0s0.2,0,0.4,0c-0.2,0-0.4,0.1-0.4,0.1c-1.3,0.2-2.6,1-3.2,2.3
			c0,0-4.4,16,0,28.7c0.4,1.2,1.4,1.9,2.6,2.3l-17.2,0.2c0,0-0.1,0-0.3,0c0.1,0,0.3,0,0.3,0c1.4-0.1,2.8-0.9,3.3-2.4
			c4.4-12.8,0-28.7,0-28.7c-0.7-1.3-1.9-2.1-3.2-2.3C472.3,930.3,486.9,930.3,489.2,930.3z"/>
		<g>
			<path fill="none" stroke="#EB9F22" stroke-width="0.3319" stroke-linejoin="round" stroke-miterlimit="10" d="M491.5,932.9
				c-0.9-0.5-2-0.1-2.5,0.8c-0.6,1.1-0.2,2.5,0.9,3c1.4,0.8,3.1,0.2,3.8-1.1c0.9-1.7,0.3-3.9-1.4-4.7c-2.2-1.1-4.8-0.3-6,1.8
				c0,0-4.4,16,0,28.7c0.8,2.3,3.8,2.9,6,1.8"/>
			<path fill="none" stroke="#EB9F22" stroke-width="0.3319" stroke-linejoin="round" stroke-miterlimit="10" d="M469.9,932.9
				c0.9-0.5,2-0.1,2.5,0.8c0.6,1.1,0.2,2.5-0.9,3c-1.4,0.8-3.1,0.2-3.8-1.1c-0.9-1.7-0.3-3.9,1.4-4.7c2.2-1.1,4.8-0.3,6,1.8
				c0,0,4.4,16,0,28.7c-0.8,2.3-3.8,2.9-6,1.8"/>
		</g>
	</g>
	<g>
		<path fill="#430E00" stroke="#EB9F22" stroke-width="0.25" stroke-linejoin="round" stroke-miterlimit="10" d="M480.7,779.8
			c0,0-40.4,104.5-34.3,133.1c3.8,18,34.3,18.3,34.3,18.3s30.5-0.3,34.3-18.3C521.1,884.3,480.7,779.8,480.7,779.8z"/>
		<path fill="none" stroke="#EB9F22" stroke-width="0.25" stroke-linejoin="round" stroke-miterlimit="10" d="M484,796.2
			c4.6,13.1,29.4,90.1,27.6,111.5c-0.6,6.5-3.2,12.5-9.6,13.6c-5.1,0.9-10-2.6-10.9-7.8c-0.7-4.2,2.1-8,6.1-8.7
			c3.3-0.6,6.4,1.7,7,4.9c0.5,2.6-1.3,5.1-4,5.6c-2.1,0.4-4.1-1-4.4-3.2"/>
		<path fill="none" stroke="#EB9F22" stroke-width="0.25" stroke-linejoin="round" stroke-miterlimit="10" d="M477.4,796.2
			c-4.6,13.1-29.4,90.1-27.6,111.5c0.6,6.5,3.2,12.5,9.6,13.6c5.1,0.9,10-2.6,10.9-7.8c0.7-4.2-2.1-8-6.1-8.7
			c-3.3-0.6-6.4,1.7-7,4.9c-0.5,2.6,1.3,5.1,4,5.6c2.1,0.4,4.1-1,4.4-3.2"/>
	</g>
</g>
<g>
	<g>
		<path fill="#430E00" d="M1573.2,930.3c0.2,0,0.4,0,0.4,0s0.2,0,0.4,0c-0.2,0-0.4,0.1-0.4,0.1c-1.3,0.2-2.6,1-3.2,2.3
			c0,0-4.4,16,0,28.7c0.4,1.2,1.4,1.9,2.6,2.3l-17.2,0.2c0,0-0.1,0-0.3,0c0.1,0,0.3,0,0.3,0c1.4-0.1,2.8-0.9,3.3-2.4
			c4.4-12.8,0-28.7,0-28.7c-0.7-1.3-1.9-2.1-3.2-2.3C1556.3,930.3,1570.8,930.3,1573.2,930.3z"/>
		<g>
			<path fill="none" stroke="#EB9F22" stroke-width="0.3319" stroke-linejoin="round" stroke-miterlimit="10" d="M1575.4,932.9
				c-0.9-0.5-2-0.1-2.5,0.8c-0.6,1.1-0.2,2.5,0.9,3c1.4,0.8,3.1,0.2,3.8-1.1c0.9-1.7,0.3-3.9-1.4-4.7c-2.2-1.1-4.8-0.3-6,1.8
				c0,0-4.4,16,0,28.7c0.8,2.3,3.8,2.9,6,1.8"/>
			<path fill="none" stroke="#EB9F22" stroke-width="0.3319" stroke-linejoin="round" stroke-miterlimit="10" d="M1553.8,932.9
				c0.9-0.5,2-0.1,2.5,0.8c0.6,1.1,0.2,2.5-0.9,3c-1.4,0.8-3.1,0.2-3.8-1.1c-0.9-1.7-0.3-3.9,1.4-4.7c2.2-1.1,4.8-0.3,6,1.8
				c0,0,4.4,16,0,28.7c-0.8,2.3-3.8,2.9-6,1.8"/>
		</g>
	</g>
	<g>
		<path fill="#430E00" stroke="#EB9F22" stroke-width="0.25" stroke-linejoin="round" stroke-miterlimit="10" d="M1564.6,779.8
			c0,0-40.4,104.5-34.3,133.1c3.8,18,34.3,18.3,34.3,18.3s30.5-0.3,34.3-18.3C1605,884.3,1564.6,779.8,1564.6,779.8z"/>
		<path fill="none" stroke="#EB9F22" stroke-width="0.25" stroke-linejoin="round" stroke-miterlimit="10" d="M1568,796.2
			c4.6,13.1,29.4,90.1,27.6,111.5c-0.6,6.5-3.2,12.5-9.6,13.6c-5.1,0.9-10-2.6-10.9-7.8c-0.7-4.2,2.1-8,6.1-8.7
			c3.3-0.6,6.4,1.7,7,4.9c0.5,2.6-1.3,5.1-4,5.6c-2.1,0.4-4.1-1-4.4-3.2"/>
		<path fill="none" stroke="#EB9F22" stroke-width="0.25" stroke-linejoin="round" stroke-miterlimit="10" d="M1561.4,796.2
			c-4.6,13.1-29.4,90.1-27.6,111.5c0.6,6.5,3.2,12.5,9.6,13.6c5.1,0.9,10-2.6,10.9-7.8c0.7-4.2-2.1-8-6.1-8.7
			c-3.3-0.6-6.4,1.7-7,4.9c-0.5,2.6,1.3,5.1,4,5.6c2.1,0.4,4.1-1,4.4-3.2"/>
	</g>
</g>
<g>
	<g>
		<path fill="#430E00" d="M1235.5,515.8c0.2,0,0.2,0,0.2,0s0.1,0,0.2,0c-0.1,0-0.2,0-0.2,0c-0.9,0.1-1.7,0.7-2.2,1.5
			c0,0-2.9,10.8,0,19.5c0.3,0.9,0.9,1.3,1.7,1.5l-11.6,0.1c0,0-0.1,0-0.2,0c0.1,0,0.2,0,0.2,0c0.9-0.1,1.9-0.7,2.2-1.6
			c2.9-8.6,0-19.5,0-19.5c-0.5-0.9-1.3-1.4-2.2-1.5C1224,515.8,1233.8,515.8,1235.5,515.8z"/>
		<g>
			<path fill="none" stroke="#EB9F22" stroke-width="0.3319" stroke-linejoin="round" stroke-miterlimit="10" d="M1237,517.6
				c-0.6-0.3-1.3-0.1-1.6,0.5c-0.4,0.8-0.1,1.7,0.7,2.1c0.9,0.5,2.1,0.1,2.6-0.8c0.7-1.1,0.2-2.6-0.9-3.2c-1.4-0.8-3.2-0.2-4.1,1.2
				c0,0-2.9,10.8,0,19.5c0.6,1.5,2.6,2,4.1,1.2"/>
			<path fill="none" stroke="#EB9F22" stroke-width="0.3319" stroke-linejoin="round" stroke-miterlimit="10" d="M1222.4,517.6
				c0.6-0.3,1.3-0.1,1.6,0.5c0.4,0.8,0.1,1.7-0.7,2.1c-0.9,0.5-2.1,0.1-2.6-0.8c-0.7-1.1-0.2-2.6,0.9-3.2c1.4-0.8,3.2-0.2,4.1,1.2
				c0,0,2.9,10.8,0,19.5c-0.6,1.5-2.6,2-4.1,1.2"/>
		</g>
	</g>
	<g>
		<path fill="#430E00" stroke="#EB9F22" stroke-width="0.25" stroke-linejoin="round" stroke-miterlimit="10" d="M1229.6,413.8
			c0,0-27.3,70.9-23.3,90.2c2.6,12.2,23.3,12.4,23.3,12.4s20.7-0.2,23.3-12.4C1257.1,484.7,1229.6,413.8,1229.6,413.8z"/>
		<path fill="none" stroke="#EB9F22" stroke-width="0.25" stroke-linejoin="round" stroke-miterlimit="10" d="M1231.9,424.9
			c3.1,8.9,20,61.1,18.7,75.6c-0.4,4.4-2.2,8.5-6.5,9.3c-3.5,0.6-6.8-1.8-7.4-5.2c-0.5-2.8,1.4-5.4,4.2-5.9c2.3-0.4,4.4,1.1,4.7,3.4
			c0.3,1.8-0.9,3.5-2.6,3.8c-1.4,0.3-2.7-0.8-3-2.2"/>
		<path fill="none" stroke="#EB9F22" stroke-width="0.25" stroke-linejoin="round" stroke-miterlimit="10" d="M1227.5,424.9
			c-3.1,8.9-20,61.1-18.7,75.6c0.4,4.4,2.2,8.5,6.5,9.3c3.5,0.6,6.8-1.8,7.4-5.2c0.5-2.8-1.4-5.4-4.2-5.9c-2.3-0.4-4.4,1.1-4.7,3.4
			c-0.3,1.8,0.9,3.5,2.6,3.8c1.4,0.3,2.7-0.8,3-2.2"/>
	</g>
</g>
<g>
	<g>
		<path fill="#430E00" d="M343.6,210.6c0.2,0,0.2,0,0.2,0s0.1,0,0.2,0c-0.1,0-0.2,0-0.2,0c-0.9,0.1-1.7,0.7-2.2,1.5
			c0,0-2.9,10.8,0,19.5c0.3,0.9,0.9,1.3,1.7,1.5l-11.6,0.1c0,0-0.1,0-0.2,0c0.1,0,0.2,0,0.2,0c0.9-0.1,1.9-0.7,2.2-1.6
			c2.9-8.6,0-19.5,0-19.5c-0.5-0.9-1.3-1.4-2.2-1.5C332.1,210.6,342,210.6,343.6,210.6z"/>
		<g>
			<path fill="none" stroke="#EB9F22" stroke-width="0.3319" stroke-linejoin="round" stroke-miterlimit="10" d="M345.1,212.4
				c-0.6-0.3-1.3-0.1-1.6,0.5c-0.4,0.8-0.1,1.7,0.7,2.1c0.9,0.5,2.1,0.1,2.6-0.8c0.7-1.1,0.2-2.6-0.9-3.2c-1.4-0.8-3.2-0.2-4.1,1.2
				c0,0-2.9,10.8,0,19.5c0.6,1.5,2.6,2,4.1,1.2"/>
			<path fill="none" stroke="#EB9F22" stroke-width="0.3319" stroke-linejoin="round" stroke-miterlimit="10" d="M330.5,212.4
				c0.6-0.3,1.3-0.1,1.6,0.5c0.4,0.8,0.1,1.7-0.7,2.1c-0.9,0.5-2.1,0.1-2.6-0.8c-0.7-1.1-0.2-2.6,0.9-3.2c1.4-0.8,3.2-0.2,4.1,1.2
				c0,0,2.9,10.8,0,19.5c-0.6,1.5-2.6,2-4.1,1.2"/>
		</g>
	</g>
	<g>
		<path fill="#430E00" stroke="#EB9F22" stroke-width="0.25" stroke-linejoin="round" stroke-miterlimit="10" d="M337.8,108.6
			c0,0-27.3,70.9-23.3,90.2c2.6,12.2,23.3,12.4,23.3,12.4s20.7-0.2,23.3-12.4C365.1,179.5,337.8,108.6,337.8,108.6z"/>
		<path fill="none" stroke="#EB9F22" stroke-width="0.25" stroke-linejoin="round" stroke-miterlimit="10" d="M340.1,119.7
			c3.1,8.9,20,61.1,18.7,75.6c-0.4,4.4-2.2,8.5-6.5,9.3c-3.5,0.6-6.8-1.8-7.4-5.2c-0.5-2.8,1.4-5.4,4.2-5.9c2.3-0.4,4.4,1.1,4.7,3.4
			c0.3,1.8-0.9,3.5-2.6,3.8c-1.4,0.3-2.7-0.8-3-2.2"/>
		<path fill="none" stroke="#EB9F22" stroke-width="0.25" stroke-linejoin="round" stroke-miterlimit="10" d="M335.6,119.7
			c-3.1,8.9-20,61.1-18.7,75.6c0.4,4.4,2.2,8.5,6.5,9.3c3.5,0.6,6.8-1.8,7.4-5.2c0.5-2.8-1.4-5.4-4.2-5.9c-2.3-0.4-4.4,1.1-4.7,3.4
			c-0.3,1.8,0.9,3.5,2.6,3.8c1.4,0.3,2.7-0.8,3-2.2"/>
	</g>
</g>
<g>
	<g>
		<path fill="#430E00" d="M974.6,515.8c0.2,0,0.2,0,0.2,0s0.1,0,0.2,0c-0.1,0-0.2,0-0.2,0c-0.9,0.1-1.7,0.7-2.2,1.5
			c0,0-2.9,10.8,0,19.5c0.3,0.9,0.9,1.3,1.7,1.5l-11.6,0.1c0,0-0.1,0-0.2,0c0.1,0,0.2,0,0.2,0c0.9-0.1,1.9-0.7,2.2-1.6
			c2.9-8.6,0-19.5,0-19.5c-0.5-0.9-1.3-1.4-2.2-1.5C963.2,515.8,972.9,515.8,974.6,515.8z"/>
		<g>
			<path fill="none" stroke="#EB9F22" stroke-width="0.3319" stroke-linejoin="round" stroke-miterlimit="10" d="M976.1,517.6
				c-0.6-0.3-1.3-0.1-1.6,0.5c-0.4,0.8-0.1,1.7,0.7,2.1c0.9,0.5,2.1,0.1,2.6-0.8c0.7-1.1,0.2-2.6-0.9-3.2c-1.4-0.8-3.2-0.2-4.1,1.2
				c0,0-2.9,10.8,0,19.5c0.6,1.5,2.6,2,4.1,1.2"/>
			<path fill="none" stroke="#EB9F22" stroke-width="0.3319" stroke-linejoin="round" stroke-miterlimit="10" d="M961.5,517.6
				c0.6-0.3,1.3-0.1,1.6,0.5c0.4,0.8,0.1,1.7-0.7,2.1c-0.9,0.5-2.1,0.1-2.6-0.8c-0.7-1.1-0.2-2.6,0.9-3.2c1.4-0.8,3.2-0.2,4.1,1.2
				c0,0,2.9,10.8,0,19.5c-0.6,1.5-2.6,2-4.1,1.2"/>
		</g>
	</g>
	<g>
		<path fill="#430E00" stroke="#EB9F22" stroke-width="0.25" stroke-linejoin="round" stroke-miterlimit="10" d="M968.8,413.8
			c0,0-27.3,70.9-23.3,90.2c2.6,12.2,23.3,12.4,23.3,12.4s20.7-0.2,23.3-12.4C996.2,484.7,968.8,413.8,968.8,413.8z"/>
		<path fill="none" stroke="#EB9F22" stroke-width="0.25" stroke-linejoin="round" stroke-miterlimit="10" d="M971,424.9
			c3.1,8.9,20,61.1,18.7,75.6c-0.4,4.4-2.2,8.5-6.5,9.3c-3.5,0.6-6.8-1.8-7.4-5.2c-0.5-2.8,1.4-5.4,4.2-5.9c2.3-0.4,4.4,1.1,4.7,3.4
			c0.3,1.8-0.9,3.5-2.6,3.8c-1.4,0.3-2.7-0.8-3-2.2"/>
		<path fill="none" stroke="#EB9F22" stroke-width="0.25" stroke-linejoin="round" stroke-miterlimit="10" d="M966.6,424.9
			c-3.1,8.9-20,61.1-18.7,75.6c0.4,4.4,2.2,8.5,6.5,9.3c3.5,0.6,6.8-1.8,7.4-5.2c0.5-2.8-1.4-5.4-4.2-5.9c-2.3-0.4-4.4,1.1-4.7,3.4
			c-0.3,1.8,0.9,3.5,2.6,3.8c1.4,0.3,2.7-0.8,3-2.2"/>
	</g>
</g>
<g>
	<g>
		<path fill="#430E00" d="M196.1,515.8c0.2,0,0.2,0,0.2,0s0.1,0,0.2,0c-0.1,0-0.2,0-0.2,0c-0.9,0.1-1.7,0.7-2.2,1.5
			c0,0-2.9,10.8,0,19.5c0.3,0.9,0.9,1.3,1.7,1.5l-11.6,0.1c0,0-0.1,0-0.2,0c0.1,0,0.2,0,0.2,0c0.9-0.1,1.9-0.7,2.2-1.6
			c2.9-8.6,0-19.5,0-19.5c-0.5-0.9-1.3-1.4-2.2-1.5C184.6,515.8,194.5,515.8,196.1,515.8z"/>
		<g>
			<path fill="none" stroke="#EB9F22" stroke-width="0.3319" stroke-linejoin="round" stroke-miterlimit="10" d="M197.6,517.6
				c-0.6-0.3-1.3-0.1-1.6,0.5c-0.4,0.8-0.1,1.7,0.7,2.1c0.9,0.5,2.1,0.1,2.6-0.8c0.7-1.1,0.2-2.6-0.9-3.2c-1.4-0.8-3.2-0.2-4.1,1.2
				c0,0-2.9,10.8,0,19.5c0.6,1.5,2.6,2,4.1,1.2"/>
			<path fill="none" stroke="#EB9F22" stroke-width="0.3319" stroke-linejoin="round" stroke-miterlimit="10" d="M182.9,517.6
				c0.6-0.3,1.3-0.1,1.6,0.5c0.4,0.8,0.1,1.7-0.7,2.1c-0.9,0.5-2.1,0.1-2.6-0.8c-0.7-1.1-0.2-2.6,0.9-3.2c1.4-0.8,3.2-0.2,4.1,1.2
				c0,0,2.9,10.8,0,19.5c-0.6,1.5-2.6,2-4.1,1.2"/>
		</g>
	</g>
	<g>
		<path fill="#430E00" stroke="#EB9F22" stroke-width="0.25" stroke-linejoin="round" stroke-miterlimit="10" d="M190.3,413.8
			c0,0-27.3,70.9-23.3,90.2c2.6,12.2,23.3,12.4,23.3,12.4s20.7-0.2,23.3-12.4C217.7,484.7,190.3,413.8,190.3,413.8z"/>
		<path fill="none" stroke="#EB9F22" stroke-width="0.25" stroke-linejoin="round" stroke-miterlimit="10" d="M192.5,424.9
			c3.1,8.9,20,61.1,18.7,75.6c-0.4,4.4-2.2,8.5-6.5,9.3c-3.5,0.6-6.8-1.8-7.4-5.2c-0.5-2.8,1.4-5.4,4.2-5.9c2.3-0.4,4.4,1.1,4.7,3.4
			c0.3,1.8-0.9,3.5-2.6,3.8c-1.4,0.3-2.7-0.8-3-2.2"/>
		<path fill="none" stroke="#EB9F22" stroke-width="0.25" stroke-linejoin="round" stroke-miterlimit="10" d="M188.1,424.9
			c-3.1,8.9-20,61.1-18.7,75.6c0.4,4.4,2.2,8.5,6.5,9.3c3.5,0.6,6.8-1.8,7.4-5.2c0.5-2.8-1.4-5.4-4.2-5.9c-2.3-0.4-4.4,1.1-4.7,3.4
			c-0.3,1.8,0.9,3.5,2.6,3.8c1.4,0.3,2.7-0.8,3-2.2"/>
	</g>
</g>
<g>
	<g>
		<path fill="#430E00" d="M278.1,895.5c0.2,0,0.4,0,0.4,0s0.2,0,0.4,0c-0.2,0-0.4,0.1-0.4,0.1c-1.3,0.2-2.6,1-3.2,2.3
			c0,0-4.4,16,0,28.7c0.4,1.2,1.4,1.9,2.6,2.3l-17.2,0.2c0,0-0.1,0-0.3,0c0.1,0,0.3,0,0.3,0c1.4-0.1,2.8-0.9,3.3-2.4
			c4.4-12.8,0-28.7,0-28.7c-0.7-1.3-1.9-2.1-3.2-2.3C261.2,895.6,275.7,895.5,278.1,895.5z"/>
		<g>
			<path fill="none" stroke="#EB9F22" stroke-width="0.3319" stroke-linejoin="round" stroke-miterlimit="10" d="M280.4,898.2
				c-0.9-0.5-2-0.1-2.5,0.8c-0.6,1.1-0.2,2.5,0.9,3c1.4,0.8,3.1,0.2,3.8-1.1c0.9-1.7,0.3-3.9-1.4-4.7c-2.2-1.1-4.8-0.3-6,1.8
				c0,0-4.4,16,0,28.7c0.8,2.3,3.8,2.9,6,1.8"/>
			<path fill="none" stroke="#EB9F22" stroke-width="0.3319" stroke-linejoin="round" stroke-miterlimit="10" d="M258.8,898.2
				c0.9-0.5,2-0.1,2.5,0.8c0.6,1.1,0.2,2.5-0.9,3c-1.4,0.8-3.1,0.2-3.8-1.1c-0.9-1.7-0.3-3.9,1.4-4.7c2.2-1.1,4.8-0.3,6,1.8
				c0,0,4.4,16,0,28.7c-0.8,2.3-3.8,2.9-6,1.8"/>
		</g>
	</g>
	<g>
		<path fill="#430E00" stroke="#EB9F22" stroke-width="0.25" stroke-linejoin="round" stroke-miterlimit="10" d="M269.6,745.1
			c0,0-40.4,104.5-34.3,133.1c3.8,18,34.3,18.3,34.3,18.3s30.5-0.3,34.3-18.3C309.9,849.7,269.6,745.1,269.6,745.1z"/>
		<path fill="none" stroke="#EB9F22" stroke-width="0.25" stroke-linejoin="round" stroke-miterlimit="10" d="M272.9,761.5
			c4.6,13.1,29.4,90.1,27.6,111.5c-0.6,6.5-3.2,12.5-9.6,13.6c-5.1,0.9-10-2.6-10.9-7.8c-0.7-4.2,2.1-8,6.1-8.7
			c3.3-0.6,6.4,1.7,7,4.9c0.5,2.6-1.3,5.1-4,5.6c-2.1,0.4-4.1-1-4.4-3.2"/>
		<path fill="none" stroke="#EB9F22" stroke-width="0.25" stroke-linejoin="round" stroke-miterlimit="10" d="M266.3,761.5
			c-4.6,13.1-29.4,90.1-27.6,111.5c0.6,6.5,3.2,12.5,9.6,13.6c5.1,0.9,10-2.6,10.9-7.8c0.7-4.2-2.1-8-6.1-8.7
			c-3.3-0.6-6.4,1.7-7,4.9c-0.5,2.6,1.3,5.1,4,5.6c2.1,0.4,4.1-1,4.4-3.2"/>
	</g>
</g>
<path fill="#D06825" stroke="#EB9F22" stroke-width="0.25" stroke-linejoin="round" stroke-miterlimit="10" d="M1119.4,73.7L1101,45
	l-5.9-14.4H465.8l1212.3,745.6c-11.5-27.7-27.3-53.4-43.1-79.1c-35.5-57.7-68.9-117.7-106.7-173.8c-17.9-26.5-65.3-42.9-90.2-63.6
	l-12.4-17.6l-7.9-12.5l-21.5-19.5l-18.1-13.6l-14-21.9l-26.5-25.8l-2.9-17.1l-33.8-45.6l-48.4-54.1l-46.8-39.2l-10.7-16.6
	l-35.2-48.6l-22.5-25.6L1119.4,73.7z"/>
<g>
	<g>
		<path fill="#5E210C" stroke="#DC7D27" stroke-width="0.1" stroke-linejoin="round" stroke-miterlimit="10" d="M1068.2,559
			L1068.2,559L1068.2,559L1068.2,559L1068.2,559c-98.5,0.6-213.6,7.6-344.5,25.4l56.3,322.8h288.2l0,0h288.3l34.9-200.4l2-11.3
			l19.4-111.1C1281.8,566.5,1166.6,559.6,1068.2,559z"/>
		<path fill="none" stroke="#DC7D27" stroke-width="0.1" stroke-linejoin="round" stroke-miterlimit="10" d="M1410.6,596.7
			c-130.1-17.7-244.5-24.5-342.3-25.1l0,0l0,0l0,0l0,0c-97.9,0.6-212.4,7.5-342.4,25.1"/>
		<path fill="none" stroke="#DC7D27" stroke-width="0.1" stroke-linejoin="round" stroke-miterlimit="10" d="M1409.1,609.1
			c-129.4-17.5-243.4-24.3-340.8-24.9l0,0l0,0l0,0l0,0c-97.3,0.6-211,7.4-340.3,24.8"/>
		<path fill="none" stroke="#DC7D27" stroke-width="0.1" stroke-linejoin="round" stroke-miterlimit="10" d="M1406.3,621.4
			c-128.3-17.2-241.2-23.9-338.1-24.5l0,0l0,0l0,0l0,0c-96.8,0.6-209.8,7.3-338.1,24.5"/>
		<path fill="none" stroke="#DC7D27" stroke-width="0.1" stroke-linejoin="round" stroke-miterlimit="10" d="M1404.2,633.8
			c-127.4-17-239.7-23.6-335.9-24.2l0,0l0,0l0,0l0,0c-96.3,0.6-208.6,7.2-335.9,24.2"/>
		<path fill="none" stroke="#DC7D27" stroke-width="0.1" stroke-linejoin="round" stroke-miterlimit="10" d="M1402,646.1
			c-126.5-16.8-238-23.4-333.7-23.9l0,0l0,0l0,0l0,0c-95.7,0.6-207.3,7.2-333.8,23.9"/>
		<path fill="none" stroke="#DC7D27" stroke-width="0.1" stroke-linejoin="round" stroke-miterlimit="10" d="M1399.8,658.5
			c-125.6-16.6-236.4-23.1-331.6-23.6l0,0l0,0l0,0l0,0c-95.2,0.6-206,7.1-331.7,23.6"/>
		<path fill="none" stroke="#DC7D27" stroke-width="0.1" stroke-linejoin="round" stroke-miterlimit="10" d="M1397.6,670.8
			c-124.7-16.4-234.8-22.8-329.5-23.4l0,0l0,0l0,0l0,0c-94.7,0.6-204.7,7-329.5,23.4"/>
		<path fill="none" stroke="#DC7D27" stroke-width="0.1" stroke-linejoin="round" stroke-miterlimit="10" d="M1395.5,683.2
			c-123.8-16.2-233.2-22.5-327.3-23.1l0,0l0,0l0,0l0,0c-94.1,0.6-203.5,6.9-327.3,23.1"/>
		<path fill="none" stroke="#DC7D27" stroke-width="0.1" stroke-linejoin="round" stroke-miterlimit="10" d="M1393.4,695.5
			c-123-16-231.7-22.2-325.2-22.8l0,0l0,0l0,0l0,0c-93.6,0.6-202.2,6.8-325.2,22.8"/>
		<path fill="none" stroke="#DC7D27" stroke-width="0.1" stroke-linejoin="round" stroke-miterlimit="10" d="M1391.2,707.9
			c-122-15.8-230.1-21.9-323-22.5l0,0l0,0l0,0l0,0c-93,0.6-200.9,6.8-323,22.5"/>
		<path fill="none" stroke="#DC7D27" stroke-width="0.1" stroke-linejoin="round" stroke-miterlimit="10" d="M1386.9,732.6
			c-120.3-15.3-226.8-21.5-318.7-21.9l0,0l0,0l0,0l0,0c-91.9,0.6-198.4,6.6-318.7,21.9"/>
		<path fill="none" stroke="#DC7D27" stroke-width="0.1" stroke-linejoin="round" stroke-miterlimit="10" d="M1384.8,744.9
			c-119.4-15.1-225.2-21.2-316.5-21.8l0,0l0,0l0,0l0,0c-91.4,0.6-197.1,6.5-316.5,21.8"/>
		<path fill="none" stroke="#DC7D27" stroke-width="0.1" stroke-linejoin="round" stroke-miterlimit="10" d="M1382.6,757.3
			c-118.5-14.9-223.6-20.9-314.4-21.5l0,0l0,0l0,0l0,0c-90.8,0.6-195.8,6.5-314.4,21.5"/>
		<path fill="none" stroke="#DC7D27" stroke-width="0.1" stroke-linejoin="round" stroke-miterlimit="10" d="M1380.4,769.7
			c-117.7-14.8-222-20.6-312.3-21.2l0,0l0,0l0,0l0,0c-90.2,0.6-194.6,6.4-312.3,21.2"/>
		<path fill="none" stroke="#DC7D27" stroke-width="0.1" stroke-linejoin="round" stroke-miterlimit="10" d="M1378.3,782.1
			c-116.7-14.6-220.4-20.3-310.1-20.9l0,0l0,0l0,0l0,0c-89.7,0.6-193.4,6.3-310.1,20.9"/>
		<path fill="none" stroke="#DC7D27" stroke-width="0.1" stroke-linejoin="round" stroke-miterlimit="10" d="M1376.1,794.5
			c-115.9-14.4-218.8-20.1-307.9-20.6l0,0l0,0l0,0l0,0c-89.1,0.6-192,6.2-307.9,20.6"/>
		<path fill="none" stroke="#DC7D27" stroke-width="0.1" stroke-linejoin="round" stroke-miterlimit="10" d="M1374,806.8
			c-115-14.2-217.2-19.9-305.7-20.3l0,0l0,0l0,0l0,0c-88.6,0.6-190.8,6.2-305.7,20.3"/>
		<path fill="none" stroke="#DC7D27" stroke-width="0.1" stroke-linejoin="round" stroke-miterlimit="10" d="M1371.8,819.2
			c-114.2-14-215.6-19.6-303.7-20.1l0,0l0,0l0,0l0,0c-88.1,0.6-189.5,6.1-303.7,20.1"/>
		<path fill="none" stroke="#DC7D27" stroke-width="0.1" stroke-linejoin="round" stroke-miterlimit="10" d="M1369.6,831.6
			c-113.2-13.8-214-19.3-301.5-19.9l0,0l0,0l0,0l0,0c-87.5,0.6-188.2,6.1-301.5,19.9"/>
		<path fill="none" stroke="#DC7D27" stroke-width="0.1" stroke-linejoin="round" stroke-miterlimit="10" d="M1367.5,844
			c-112.4-13.6-212.4-19-299.3-19.6l0,0l0,0l0,0l0,0c-86.9,0.5-186.9,6-299.3,19.6"/>
		<path fill="none" stroke="#DC7D27" stroke-width="0.1" stroke-linejoin="round" stroke-miterlimit="10" d="M1365.3,856.4
			c-111.5-13.4-210.8-18.8-297.1-19.3l0,0l0,0l0,0l0,0c-86.4,0.5-185.6,6-297.1,19.3"/>
		<path fill="none" stroke="#DC7D27" stroke-width="0.1" stroke-linejoin="round" stroke-miterlimit="10" d="M1363.2,868.8
			c-110.6-13.2-209.2-18.5-294.9-19l0,0l0,0l0,0l0,0c-85.8,0.5-184.4,5.9-294.9,19"/>
		<path fill="none" stroke="#DC7D27" stroke-width="0.1" stroke-linejoin="round" stroke-miterlimit="10" d="M1361,881.1
			c-109.7-13.1-207.5-18.3-292.9-18.8l0,0l0,0l0,0l0,0c-85.2,0.5-183,5.8-292.9,18.8"/>
		<path fill="none" stroke="#DC7D27" stroke-width="0.1" stroke-linejoin="round" stroke-miterlimit="10" d="M1358.9,893.5
			c-108.9-12.9-205.9-18.1-290.7-18.5l0,0l0,0l0,0l0,0c-84.7,0.5-181.8,5.7-290.7,18.5"/>
		<path fill="none" stroke="#DC7D27" stroke-width="0.1" stroke-linejoin="round" stroke-miterlimit="10" d="M1356.7,905.8
			c-108-12.7-204.3-17.8-288.5-18.3l0,0l0,0l0,0l0,0c-84.2,0.5-180.5,5.7-288.5,18.3"/>
		<path fill="none" stroke="#DC7D27" stroke-width="0.1" stroke-linejoin="round" stroke-miterlimit="10" d="M1389,720.3
			c-121.2-15.5-228.4-21.8-320.9-22.2l0,0l0,0l0,0l0,0c-92.4,0.6-199.7,6.7-320.9,22.2"/>
		
			<line fill="none" stroke="#DC7D27" stroke-width="0.1" stroke-linejoin="round" stroke-miterlimit="10" x1="859.4" y1="567.5" x2="898.6" y2="905.8"/>
		
			<line fill="none" stroke="#DC7D27" stroke-width="0.1" stroke-linejoin="round" stroke-miterlimit="10" x1="1000.9" y1="560.9" x2="1010.2" y2="905.8"/>
		
			<line fill="none" stroke="#DC7D27" stroke-width="0.1" stroke-linejoin="round" stroke-miterlimit="10" x1="1160.1" y1="560.9" x2="1150.8" y2="905.8"/>
		
			<line fill="none" stroke="#DC7D27" stroke-width="0.1" stroke-linejoin="round" stroke-miterlimit="10" x1="1260.5" y1="567.5" x2="1221.4" y2="905.8"/>
	</g>
	
		<rect x="860.9" y="826.4" fill="#321512" stroke="#DC7D27" stroke-width="0.1" stroke-linejoin="round" stroke-miterlimit="10" width="423.5" height="103.1"/>
	
		<rect x="860.9" y="743.1" fill="#321512" stroke="#DC7D27" stroke-width="0.1" stroke-linejoin="round" stroke-miterlimit="10" width="423.5" height="69.7"/>
	
		<rect x="860.9" y="812.9" fill="#321512" stroke="#DC7D27" stroke-width="0.1" stroke-linejoin="round" stroke-miterlimit="10" width="423.5" height="13.4"/>
	
		<rect x="859.4" y="688.4" fill="#321512" stroke="#DC7D27" stroke-width="0.1" stroke-linejoin="round" stroke-miterlimit="10" width="426.5" height="37.2"/>
	<pattern  id="SVGID_60_" xlink:href="#SVGID_3_" patternTransform="matrix(0.946 0 0 -0.946 -2142.426 -16305.7168)">
	</pattern>
	<rect x="859.4" y="688.4" fill="url(#SVGID_60_)" width="426.5" height="37.2"/>
	<g>
		<g>
			
				<rect x="881.4" y="746.4" fill="#321512" stroke="#DC7D27" stroke-width="0.1" stroke-miterlimit="10" width="10.5" height="66.5"/>
			<polygon fill="#321512" stroke="#DC7D27" stroke-width="0.1" stroke-miterlimit="10" points="892,746.4 881.4,746.4 880.6,744.5 
				892.9,744.5 			"/>
			
				<rect x="880.6" y="742.8" fill="#321512" stroke="#DC7D27" stroke-width="0.1" stroke-miterlimit="10" width="12.3" height="1.7"/>
			<g>
				<path fill="#321512" stroke="#DC7D27" stroke-width="0.1" stroke-miterlimit="10" d="M883.4,747.6c-0.3,0-0.6,0.3-0.6,0.6v64.6
					h1v-64.6C884,747.9,883.7,747.6,883.4,747.6z"/>
				<path fill="#321512" stroke="#DC7D27" stroke-width="0.1" stroke-miterlimit="10" d="M885.6,747.6c-0.3,0-0.6,0.3-0.6,0.6v64.6
					h1v-64.6C886.2,747.9,885.9,747.6,885.6,747.6z"/>
				<path fill="#321512" stroke="#DC7D27" stroke-width="0.1" stroke-miterlimit="10" d="M887.9,747.6c-0.3,0-0.6,0.3-0.6,0.6v64.6
					h1v-64.6C888.3,747.9,888.2,747.6,887.9,747.6z"/>
				<path fill="#321512" stroke="#DC7D27" stroke-width="0.1" stroke-miterlimit="10" d="M890,747.6c-0.3,0-0.6,0.3-0.6,0.6v64.6h1
					v-64.6C890.6,747.9,890.3,747.6,890,747.6z"/>
			</g>
		</g>
		<g>
			
				<rect x="922.8" y="746.4" fill="#321512" stroke="#DC7D27" stroke-width="0.1" stroke-miterlimit="10" width="10.5" height="66.5"/>
			<polygon fill="#321512" stroke="#DC7D27" stroke-width="0.1" stroke-miterlimit="10" points="933.3,746.4 922.8,746.4 
				921.9,744.5 934.2,744.5 			"/>
			
				<rect x="921.9" y="742.8" fill="#321512" stroke="#DC7D27" stroke-width="0.1" stroke-miterlimit="10" width="12.3" height="1.7"/>
			<g>
				<path fill="#321512" stroke="#DC7D27" stroke-width="0.1" stroke-miterlimit="10" d="M924.8,747.6c-0.3,0-0.6,0.3-0.6,0.6v64.6
					h1v-64.6C925.2,747.9,925,747.6,924.8,747.6z"/>
				<path fill="#321512" stroke="#DC7D27" stroke-width="0.1" stroke-miterlimit="10" d="M926.9,747.6c-0.3,0-0.6,0.3-0.6,0.6v64.6
					h1v-64.6C927.5,747.9,927.2,747.6,926.9,747.6z"/>
				<path fill="#321512" stroke="#DC7D27" stroke-width="0.1" stroke-miterlimit="10" d="M929.1,747.6c-0.3,0-0.6,0.3-0.6,0.6v64.6
					h1v-64.6C929.7,747.9,929.4,747.6,929.1,747.6z"/>
				<path fill="#321512" stroke="#DC7D27" stroke-width="0.1" stroke-miterlimit="10" d="M931.4,747.6c-0.3,0-0.6,0.3-0.6,0.6v64.6
					h1v-64.6C931.9,747.9,931.7,747.6,931.4,747.6z"/>
			</g>
		</g>
		<g>
			
				<rect x="964.1" y="746.4" fill="#321512" stroke="#DC7D27" stroke-width="0.1" stroke-miterlimit="10" width="10.5" height="66.5"/>
			<polygon fill="#321512" stroke="#DC7D27" stroke-width="0.1" stroke-miterlimit="10" points="974.6,746.4 964.1,746.4 
				963.2,744.5 975.6,744.5 			"/>
			
				<rect x="963.2" y="742.8" fill="#321512" stroke="#DC7D27" stroke-width="0.1" stroke-miterlimit="10" width="12.3" height="1.7"/>
			<g>
				<path fill="#321512" stroke="#DC7D27" stroke-width="0.1" stroke-miterlimit="10" d="M966,747.6c-0.3,0-0.6,0.3-0.6,0.6v64.6h1
					v-64.6C966.6,747.9,966.4,747.6,966,747.6z"/>
				<path fill="#321512" stroke="#DC7D27" stroke-width="0.1" stroke-miterlimit="10" d="M968.3,747.6c-0.3,0-0.6,0.3-0.6,0.6v64.6
					h1v-64.6C968.8,747.9,968.6,747.6,968.3,747.6z"/>
				<path fill="#321512" stroke="#DC7D27" stroke-width="0.1" stroke-miterlimit="10" d="M970.5,747.6c-0.3,0-0.6,0.3-0.6,0.6v64.6
					h1v-64.6C971,747.9,970.7,747.6,970.5,747.6z"/>
				<path fill="#321512" stroke="#DC7D27" stroke-width="0.1" stroke-miterlimit="10" d="M972.6,747.6c-0.3,0-0.6,0.3-0.6,0.6v64.6
					h1v-64.6C973.2,747.9,973,747.6,972.6,747.6z"/>
			</g>
		</g>
		<g>
			
				<rect x="1005.5" y="746.4" fill="#321512" stroke="#DC7D27" stroke-width="0.1" stroke-miterlimit="10" width="10.5" height="66.5"/>
			<polygon fill="#321512" stroke="#DC7D27" stroke-width="0.1" stroke-miterlimit="10" points="1016,746.4 1005.5,746.4 
				1004.5,744.5 1016.8,744.5 			"/>
			
				<rect x="1004.5" y="742.8" fill="#321512" stroke="#DC7D27" stroke-width="0.1" stroke-miterlimit="10" width="12.3" height="1.7"/>
			<g>
				<path fill="#321512" stroke="#DC7D27" stroke-width="0.1" stroke-miterlimit="10" d="M1007.3,747.6c-0.3,0-0.6,0.3-0.6,0.6v64.6
					h1v-64.6C1007.9,747.9,1007.6,747.6,1007.3,747.6z"/>
				<path fill="#321512" stroke="#DC7D27" stroke-width="0.1" stroke-miterlimit="10" d="M1009.6,747.6c-0.3,0-0.6,0.3-0.6,0.6v64.6
					h1v-64.6C1010.1,747.9,1009.9,747.6,1009.6,747.6z"/>
				<path fill="#321512" stroke="#DC7D27" stroke-width="0.1" stroke-miterlimit="10" d="M1011.8,747.6c-0.3,0-0.6,0.3-0.6,0.6v64.6
					h1v-64.6C1012.4,747.9,1012.1,747.6,1011.8,747.6z"/>
				<path fill="#321512" stroke="#DC7D27" stroke-width="0.1" stroke-miterlimit="10" d="M1014,747.6c-0.3,0-0.6,0.3-0.6,0.6v64.6h1
					v-64.6C1014.5,747.9,1014.3,747.6,1014,747.6z"/>
			</g>
		</g>
		<g>
			
				<rect x="1046.7" y="746.4" fill="#321512" stroke="#DC7D27" stroke-width="0.1" stroke-miterlimit="10" width="10.5" height="66.5"/>
			<polygon fill="#321512" stroke="#DC7D27" stroke-width="0.1" stroke-miterlimit="10" points="1057.3,746.4 1046.7,746.4 
				1045.8,744.5 1058.1,744.5 			"/>
			
				<rect x="1045.8" y="742.8" fill="#321512" stroke="#DC7D27" stroke-width="0.1" stroke-miterlimit="10" width="12.3" height="1.7"/>
			<g>
				<path fill="#321512" stroke="#DC7D27" stroke-width="0.1" stroke-miterlimit="10" d="M1048.7,747.6c-0.3,0-0.6,0.3-0.6,0.6v64.6
					h1v-64.6C1049.3,747.9,1049,747.6,1048.7,747.6z"/>
				<path fill="#321512" stroke="#DC7D27" stroke-width="0.1" stroke-miterlimit="10" d="M1050.9,747.6c-0.3,0-0.6,0.3-0.6,0.6v64.6
					h1v-64.6C1051.4,747.9,1051.2,747.6,1050.9,747.6z"/>
				<path fill="#321512" stroke="#DC7D27" stroke-width="0.1" stroke-miterlimit="10" d="M1053.1,747.6c-0.3,0-0.6,0.3-0.6,0.6v64.6
					h1v-64.6C1053.6,747.9,1053.4,747.6,1053.1,747.6z"/>
				<path fill="#321512" stroke="#DC7D27" stroke-width="0.1" stroke-miterlimit="10" d="M1055.3,747.6c-0.3,0-0.6,0.3-0.6,0.6v64.6
					h1v-64.6C1055.9,747.9,1055.6,747.6,1055.3,747.6z"/>
			</g>
		</g>
		<g>
			
				<rect x="1088" y="746.4" fill="#321512" stroke="#DC7D27" stroke-width="0.1" stroke-miterlimit="10" width="10.5" height="66.5"/>
			<polygon fill="#321512" stroke="#DC7D27" stroke-width="0.1" stroke-miterlimit="10" points="1098.6,746.4 1088,746.4 
				1087.2,744.5 1099.5,744.5 			"/>
			
				<rect x="1087.2" y="742.8" fill="#321512" stroke="#DC7D27" stroke-width="0.1" stroke-miterlimit="10" width="12.3" height="1.7"/>
			<g>
				<path fill="#321512" stroke="#DC7D27" stroke-width="0.1" stroke-miterlimit="10" d="M1090,747.6c-0.3,0-0.6,0.3-0.6,0.6v64.6h1
					v-64.6C1090.6,747.9,1090.3,747.6,1090,747.6z"/>
				<path fill="#321512" stroke="#DC7D27" stroke-width="0.1" stroke-miterlimit="10" d="M1092.2,747.6c-0.3,0-0.6,0.3-0.6,0.6v64.6
					h1v-64.6C1092.8,747.9,1092.5,747.6,1092.2,747.6z"/>
				<path fill="#321512" stroke="#DC7D27" stroke-width="0.1" stroke-miterlimit="10" d="M1094.5,747.6c-0.3,0-0.6,0.3-0.6,0.6v64.6
					h1v-64.6C1094.9,747.9,1094.8,747.6,1094.5,747.6z"/>
				<path fill="#321512" stroke="#DC7D27" stroke-width="0.1" stroke-miterlimit="10" d="M1096.6,747.6c-0.3,0-0.6,0.3-0.6,0.6v64.6
					h1v-64.6C1097.2,747.9,1096.9,747.6,1096.6,747.6z"/>
			</g>
		</g>
		<g>
			
				<rect x="1129.4" y="746.4" fill="#321512" stroke="#DC7D27" stroke-width="0.1" stroke-miterlimit="10" width="10.5" height="66.5"/>
			<polygon fill="#321512" stroke="#DC7D27" stroke-width="0.1" stroke-miterlimit="10" points="1139.9,746.4 1129.4,746.4 
				1128.5,744.5 1140.8,744.5 			"/>
			
				<rect x="1128.5" y="742.8" fill="#321512" stroke="#DC7D27" stroke-width="0.1" stroke-miterlimit="10" width="12.3" height="1.7"/>
			<g>
				<path fill="#321512" stroke="#DC7D27" stroke-width="0.1" stroke-miterlimit="10" d="M1131.4,747.6c-0.3,0-0.6,0.3-0.6,0.6v64.6
					h1v-64.6C1131.8,747.9,1131.6,747.6,1131.4,747.6z"/>
				<path fill="#321512" stroke="#DC7D27" stroke-width="0.1" stroke-miterlimit="10" d="M1133.5,747.6c-0.3,0-0.6,0.3-0.6,0.6v64.6
					h1v-64.6C1134.1,747.9,1133.8,747.6,1133.5,747.6z"/>
				<path fill="#321512" stroke="#DC7D27" stroke-width="0.1" stroke-miterlimit="10" d="M1135.7,747.6c-0.3,0-0.6,0.3-0.6,0.6v64.6
					h1v-64.6C1136.3,747.9,1136,747.6,1135.7,747.6z"/>
				<path fill="#321512" stroke="#DC7D27" stroke-width="0.1" stroke-miterlimit="10" d="M1138,747.6c-0.3,0-0.6,0.3-0.6,0.6v64.6h1
					v-64.6C1138.5,747.9,1138.3,747.6,1138,747.6z"/>
			</g>
		</g>
		<g>
			
				<rect x="1170.7" y="746.4" fill="#321512" stroke="#DC7D27" stroke-width="0.1" stroke-miterlimit="10" width="10.5" height="66.5"/>
			<polygon fill="#321512" stroke="#DC7D27" stroke-width="0.1" stroke-miterlimit="10" points="1181.2,746.4 1170.7,746.4 
				1169.8,744.5 1182.2,744.5 			"/>
			
				<rect x="1169.8" y="742.8" fill="#321512" stroke="#DC7D27" stroke-width="0.1" stroke-miterlimit="10" width="12.3" height="1.7"/>
			<g>
				<path fill="#321512" stroke="#DC7D27" stroke-width="0.1" stroke-miterlimit="10" d="M1172.6,747.6c-0.3,0-0.6,0.3-0.6,0.6v64.6
					h1v-64.6C1173.2,747.9,1173,747.6,1172.6,747.6z"/>
				<path fill="#321512" stroke="#DC7D27" stroke-width="0.1" stroke-miterlimit="10" d="M1174.9,747.6c-0.3,0-0.6,0.3-0.6,0.6v64.6
					h1v-64.6C1175.4,747.9,1175.2,747.6,1174.9,747.6z"/>
				<path fill="#321512" stroke="#DC7D27" stroke-width="0.1" stroke-miterlimit="10" d="M1177,747.6c-0.3,0-0.6,0.3-0.6,0.6v64.6h1
					v-64.6C1177.6,747.9,1177.3,747.6,1177,747.6z"/>
				<path fill="#321512" stroke="#DC7D27" stroke-width="0.1" stroke-miterlimit="10" d="M1179.2,747.6c-0.3,0-0.6,0.3-0.6,0.6v64.6
					h1v-64.6C1179.8,747.9,1179.6,747.6,1179.2,747.6z"/>
			</g>
		</g>
		<g>
			
				<rect x="1212" y="746.4" fill="#321512" stroke="#DC7D27" stroke-width="0.1" stroke-miterlimit="10" width="10.5" height="66.5"/>
			<polygon fill="#321512" stroke="#DC7D27" stroke-width="0.1" stroke-miterlimit="10" points="1222.5,746.4 1212,746.4 
				1211.1,744.5 1223.4,744.5 			"/>
			
				<rect x="1211.1" y="742.8" fill="#321512" stroke="#DC7D27" stroke-width="0.1" stroke-miterlimit="10" width="12.3" height="1.7"/>
			<g>
				<path fill="#321512" stroke="#DC7D27" stroke-width="0.1" stroke-miterlimit="10" d="M1213.9,747.6c-0.3,0-0.6,0.3-0.6,0.6v64.6
					h1v-64.6C1214.5,747.9,1214.2,747.6,1213.9,747.6z"/>
				<path fill="#321512" stroke="#DC7D27" stroke-width="0.1" stroke-miterlimit="10" d="M1216.2,747.6c-0.3,0-0.6,0.3-0.6,0.6v64.6
					h1v-64.6C1216.7,747.9,1216.5,747.6,1216.2,747.6z"/>
				<path fill="#321512" stroke="#DC7D27" stroke-width="0.1" stroke-miterlimit="10" d="M1218.4,747.6c-0.3,0-0.6,0.3-0.6,0.6v64.6
					h1v-64.6C1219,747.9,1218.7,747.6,1218.4,747.6z"/>
				<path fill="#321512" stroke="#DC7D27" stroke-width="0.1" stroke-miterlimit="10" d="M1220.6,747.6c-0.3,0-0.6,0.3-0.6,0.6v64.6
					h1v-64.6C1221.1,747.9,1220.8,747.6,1220.6,747.6z"/>
			</g>
		</g>
		<g>
			
				<rect x="1253.3" y="746.4" fill="#321512" stroke="#DC7D27" stroke-width="0.1" stroke-miterlimit="10" width="10.5" height="66.5"/>
			<polygon fill="#321512" stroke="#DC7D27" stroke-width="0.1" stroke-miterlimit="10" points="1263.9,746.4 1253.3,746.4 
				1252.4,744.5 1264.7,744.5 			"/>
			
				<rect x="1252.4" y="742.8" fill="#321512" stroke="#DC7D27" stroke-width="0.1" stroke-miterlimit="10" width="12.3" height="1.7"/>
			<g>
				<path fill="#321512" stroke="#DC7D27" stroke-width="0.1" stroke-miterlimit="10" d="M1255.3,747.6c-0.3,0-0.6,0.3-0.6,0.6v64.6
					h1v-64.6C1255.8,747.9,1255.6,747.6,1255.3,747.6z"/>
				<path fill="#321512" stroke="#DC7D27" stroke-width="0.1" stroke-miterlimit="10" d="M1257.5,747.6c-0.3,0-0.6,0.3-0.6,0.6v64.6
					h1v-64.6C1258,747.9,1257.8,747.6,1257.5,747.6z"/>
				<path fill="#321512" stroke="#DC7D27" stroke-width="0.1" stroke-miterlimit="10" d="M1259.7,747.6c-0.3,0-0.6,0.3-0.6,0.6v64.6
					h1v-64.6C1260.2,747.9,1260,747.6,1259.7,747.6z"/>
				<path fill="#321512" stroke="#DC7D27" stroke-width="0.1" stroke-miterlimit="10" d="M1261.9,747.6c-0.3,0-0.6,0.3-0.6,0.6v64.6
					h1v-64.6C1262.5,747.9,1262.2,747.6,1261.9,747.6z"/>
			</g>
		</g>
	</g>
	<polygon fill="#321512" stroke="#DC7D27" stroke-width="0.1" stroke-linejoin="round" stroke-miterlimit="10" points="
		1284.3,731.1 860.9,731.1 859.4,725.5 1285.9,725.5 	"/>
	
		<rect x="860.9" y="731.1" fill="#321512" stroke="#DC7D27" stroke-width="0.1" stroke-linejoin="round" stroke-miterlimit="10" width="423.5" height="8"/>
	
		<rect x="860.9" y="739.2" fill="#321512" stroke="#DC7D27" stroke-width="0.1" stroke-linejoin="round" stroke-miterlimit="10" width="423.5" height="4"/>
	<g>
		
			<rect x="866.9" y="731.1" fill="#321512" stroke="#DC7D27" stroke-width="0.1" stroke-linejoin="round" stroke-miterlimit="10" width="6.1" height="8"/>
		
			<rect x="881.9" y="731.1" fill="#321512" stroke="#DC7D27" stroke-width="0.1" stroke-linejoin="round" stroke-miterlimit="10" width="6.1" height="8"/>
		
			<rect x="896.9" y="731.1" fill="#321512" stroke="#DC7D27" stroke-width="0.1" stroke-linejoin="round" stroke-miterlimit="10" width="6.1" height="8"/>
		
			<rect x="911.9" y="731.1" fill="#321512" stroke="#DC7D27" stroke-width="0.1" stroke-linejoin="round" stroke-miterlimit="10" width="6.1" height="8"/>
		
			<rect x="926.9" y="731.1" fill="#321512" stroke="#DC7D27" stroke-width="0.1" stroke-linejoin="round" stroke-miterlimit="10" width="6.1" height="8"/>
		
			<rect x="942" y="731.1" fill="#321512" stroke="#DC7D27" stroke-width="0.1" stroke-linejoin="round" stroke-miterlimit="10" width="6.1" height="8"/>
		
			<rect x="956.9" y="731.1" fill="#321512" stroke="#DC7D27" stroke-width="0.1" stroke-linejoin="round" stroke-miterlimit="10" width="6.1" height="8"/>
		
			<rect x="972" y="731.1" fill="#321512" stroke="#DC7D27" stroke-width="0.1" stroke-linejoin="round" stroke-miterlimit="10" width="6.1" height="8"/>
		
			<rect x="987" y="731.1" fill="#321512" stroke="#DC7D27" stroke-width="0.1" stroke-linejoin="round" stroke-miterlimit="10" width="6.1" height="8"/>
		
			<rect x="1002" y="731.1" fill="#321512" stroke="#DC7D27" stroke-width="0.1" stroke-linejoin="round" stroke-miterlimit="10" width="6.1" height="8"/>
		
			<rect x="1017.1" y="731.1" fill="#321512" stroke="#DC7D27" stroke-width="0.1" stroke-linejoin="round" stroke-miterlimit="10" width="6.1" height="8"/>
		
			<rect x="1032" y="731.1" fill="#321512" stroke="#DC7D27" stroke-width="0.1" stroke-linejoin="round" stroke-miterlimit="10" width="6.1" height="8"/>
		
			<rect x="1047.1" y="731.1" fill="#321512" stroke="#DC7D27" stroke-width="0.1" stroke-linejoin="round" stroke-miterlimit="10" width="6.1" height="8"/>
		
			<rect x="1062.1" y="731.1" fill="#321512" stroke="#DC7D27" stroke-width="0.1" stroke-linejoin="round" stroke-miterlimit="10" width="6.1" height="8"/>
		
			<rect x="1077.2" y="731.1" fill="#321512" stroke="#DC7D27" stroke-width="0.1" stroke-linejoin="round" stroke-miterlimit="10" width="6.1" height="8"/>
		
			<rect x="1092.1" y="731.1" fill="#321512" stroke="#DC7D27" stroke-width="0.1" stroke-linejoin="round" stroke-miterlimit="10" width="6.1" height="8"/>
		
			<rect x="1107.1" y="731.1" fill="#321512" stroke="#DC7D27" stroke-width="0.1" stroke-linejoin="round" stroke-miterlimit="10" width="6.1" height="8"/>
		
			<rect x="1122.2" y="731.1" fill="#321512" stroke="#DC7D27" stroke-width="0.1" stroke-linejoin="round" stroke-miterlimit="10" width="6.1" height="8"/>
		
			<rect x="1137.2" y="731.1" fill="#321512" stroke="#DC7D27" stroke-width="0.1" stroke-linejoin="round" stroke-miterlimit="10" width="6.1" height="8"/>
		
			<rect x="1152.3" y="731.1" fill="#321512" stroke="#DC7D27" stroke-width="0.1" stroke-linejoin="round" stroke-miterlimit="10" width="6.1" height="8"/>
		
			<rect x="1167.2" y="731.1" fill="#321512" stroke="#DC7D27" stroke-width="0.1" stroke-linejoin="round" stroke-miterlimit="10" width="6.1" height="8"/>
		
			<rect x="1182.3" y="731.1" fill="#321512" stroke="#DC7D27" stroke-width="0.1" stroke-linejoin="round" stroke-miterlimit="10" width="6.1" height="8"/>
		
			<rect x="1197.3" y="731.1" fill="#321512" stroke="#DC7D27" stroke-width="0.1" stroke-linejoin="round" stroke-miterlimit="10" width="6.1" height="8"/>
		
			<rect x="1212.3" y="731.1" fill="#321512" stroke="#DC7D27" stroke-width="0.1" stroke-linejoin="round" stroke-miterlimit="10" width="6.1" height="8"/>
		
			<rect x="1227.4" y="731.1" fill="#321512" stroke="#DC7D27" stroke-width="0.1" stroke-linejoin="round" stroke-miterlimit="10" width="6.1" height="8"/>
		
			<rect x="1242.3" y="731.1" fill="#321512" stroke="#DC7D27" stroke-width="0.1" stroke-linejoin="round" stroke-miterlimit="10" width="6.1" height="8"/>
		
			<rect x="1257.4" y="731.1" fill="#321512" stroke="#DC7D27" stroke-width="0.1" stroke-linejoin="round" stroke-miterlimit="10" width="6.1" height="8"/>
		
			<rect x="1272.4" y="731.1" fill="#321512" stroke="#DC7D27" stroke-width="0.1" stroke-linejoin="round" stroke-miterlimit="10" width="6.1" height="8"/>
	</g>
	
		<rect x="859.4" y="684.2" fill="#321512" stroke="#DC7D27" stroke-width="0.1" stroke-linejoin="round" stroke-miterlimit="10" width="4.4" height="41.3"/>
	
		<rect x="1281.4" y="684.2" fill="#321512" stroke="#DC7D27" stroke-width="0.1" stroke-linejoin="round" stroke-miterlimit="10" width="4.4" height="41.3"/>
	
		<rect x="667.8" y="826.4" fill="#321512" stroke="#DC7D27" stroke-width="0.1" stroke-linejoin="round" stroke-miterlimit="10" width="193.2" height="103.1"/>
	
		<rect x="1283.8" y="826.4" fill="#321512" stroke="#DC7D27" stroke-width="0.1" stroke-linejoin="round" stroke-miterlimit="10" width="193.2" height="103.1"/>
	
		<rect x="667.8" y="812.9" fill="#321512" stroke="#DC7D27" stroke-width="0.1" stroke-linejoin="round" stroke-miterlimit="10" width="193.2" height="13.4"/>
	
		<rect x="1284.4" y="812.9" fill="#321512" stroke="#DC7D27" stroke-width="0.1" stroke-linejoin="round" stroke-miterlimit="10" width="192.6" height="13.4"/>
	<g>
		<g>
			<g>
				<g>
					<path fill="#DC7D27" d="M695.7,825.4h-2.6H693h-7.1v-9.4h7.8v5.2h-3.9v-1.5h2.3c0.1,0,0.1-0.1,0.1-0.1V818
						c0-0.1-0.1-0.1-0.1-0.1h-4.5c-0.1,0-0.1,0.1-0.1,0.1v5.5c0,0.1,0.1,0.1,0.1,0.1h8.1c0.1,0,0.1-0.1,0.1-0.1v-9.7
						c0-0.1-0.1-0.1-0.1-0.1h-12c-0.1,0-0.1,0.1-0.1,0.1v11.8h-4.4H679h-7.1v-9.4h7.8v5.2h-3.9v-1.5h2.3c0.1,0,0.1-0.1,0.1-0.1v-1.7
						c0-0.1-0.1-0.1-0.1-0.1h-4.5c-0.1,0-0.1,0.1-0.1,0.1v5.5c0,0.1,0.1,0.1,0.1,0.1h8.1c0.1,0,0.1-0.1,0.1-0.1v-9.7
						c0-0.1-0.1-0.1-0.1-0.1h-12c-0.1,0-0.1,0.1-0.1,0.1v11.8h-1.7v0.2h1.8c0.1,0,0.1-0.1,0.1-0.1v-11.8h11.8v9.6h-7.9v-5.2h4.4v1.5
						h-2.3c-0.1,0-0.1,0.1-0.1,0.1v1.8c0,0.1,0.1,0.1,0.1,0.1h4.1c0.1,0,0.1-0.1,0.1-0.1v-5.4c0-0.1-0.1-0.1-0.1-0.1h-7.9
						c-0.1,0-0.1,0.1-0.1,0.1v9.6c0,0.1,0.1,0.1,0.1,0.1h7.2h0.2h4.4c0.1,0,0.1-0.1,0.1-0.1v-11.8h11.8v9.6h-7.9v-5.2h4.4v1.5h-2.3
						c-0.1,0-0.1,0.1-0.1,0.1v1.8c0,0.1,0.1,0.1,0.1,0.1h4.1c0.1,0,0.1-0.1,0.1-0.1v-5.4c0-0.1-0.1-0.1-0.1-0.1h-7.9
						c-0.1,0-0.1,0.1-0.1,0.1v9.6c0,0.1,0.1,0.1,0.1,0.1h7.3h0.1h2.6v-0.8H695.7z"/>
				</g>
				<g>
					<path fill="#DC7D27" d="M723.6,825.4H721h-0.1h-7.1v-9.4h7.8v5.2h-3.9v-1.5h2.3c0.1,0,0.1-0.1,0.1-0.1V818
						c0-0.1-0.1-0.1-0.1-0.1h-4.5c-0.1,0-0.1,0.1-0.1,0.1v5.5c0,0.1,0.1,0.1,0.1,0.1h8.1c0.1,0,0.1-0.1,0.1-0.1v-9.7
						c0-0.1-0.1-0.1-0.1-0.1h-12c-0.1,0-0.1,0.1-0.1,0.1v11.8h-4.3H707h-7.1v-9.4h7.8v5.2h-3.9v-1.5h2.3c0.1,0,0.1-0.1,0.1-0.1v-1.7
						c0-0.1-0.1-0.1-0.1-0.1h-4.5c-0.1,0-0.1,0.1-0.1,0.1v5.5c0,0.1,0.1,0.1,0.1,0.1h8.1c0.1,0,0.1-0.1,0.1-0.1v-9.7
						c0-0.1-0.1-0.1-0.1-0.1h-12c-0.1,0-0.1,0.1-0.1,0.1v11.8h-1.7v0.2h1.8c0.1,0,0.1-0.1,0.1-0.1v-11.8h11.7v9.6h-7.9v-5.2h4.4v1.5
						h-2.3c-0.1,0-0.1,0.1-0.1,0.1v1.8c0,0.1,0.1,0.1,0.1,0.1h4.1c0.1,0,0.1-0.1,0.1-0.1v-5.4c0-0.1-0.1-0.1-0.1-0.1h-7.9
						c-0.1,0-0.1,0.1-0.1,0.1v9.6c0,0.1,0.1,0.1,0.1,0.1h7.2h0.2h4.4c0.1,0,0.1-0.1,0.1-0.1v-11.8h11.8v9.6h-7.9v-5.2h4.4v1.5h-2.3
						c-0.1,0-0.1,0.1-0.1,0.1v1.8c0,0.1,0.1,0.1,0.1,0.1h4.1c0.1,0,0.1-0.1,0.1-0.1v-5.4c0-0.1-0.1-0.1-0.1-0.1h-7.9
						c-0.1,0-0.1,0.1-0.1,0.1v9.6c0,0.1,0.1,0.1,0.1,0.1h7.3h0.1h2.6v-0.8H723.6z"/>
				</g>
				<g>
					<path fill="#DC7D27" d="M751.5,825.4h-2.6h-0.1h-7.2v-9.4h7.8v5.2h-3.9v-1.5h2.3c0.1,0,0.1-0.1,0.1-0.1V818
						c0-0.1-0.1-0.1-0.1-0.1h-4.5c-0.1,0-0.1,0.1-0.1,0.1v5.5c0,0.1,0.1,0.1,0.1,0.1h8.1c0.1,0,0.1-0.1,0.1-0.1v-9.7
						c0-0.1-0.1-0.1-0.1-0.1h-12c-0.1,0-0.1,0.1-0.1,0.1v11.8H735h-0.2h-7.1v-9.4h7.8v5.2h-3.9v-1.5h2.3c0.1,0,0.1-0.1,0.1-0.1v-1.7
						c0-0.1-0.1-0.1-0.1-0.1h-4.5c-0.1,0-0.1,0.1-0.1,0.1v5.5c0,0.1,0.1,0.1,0.1,0.1h8.1c0.1,0,0.1-0.1,0.1-0.1v-9.7
						c0-0.1-0.1-0.1-0.1-0.1h-12c-0.1,0-0.1,0.1-0.1,0.1v11.8h-1.7v0.2h1.8c0.1,0,0.1-0.1,0.1-0.1v-11.8h11.8v9.6h-7.9v-5.2h4.4v1.5
						h-2.3c-0.1,0-0.1,0.1-0.1,0.1v1.8c0,0.1,0.1,0.1,0.1,0.1h4.1c0.1,0,0.1-0.1,0.1-0.1v-5.4c0-0.1-0.1-0.1-0.1-0.1h-7.9
						c-0.1,0-0.1,0.1-0.1,0.1v9.6c0,0.1,0.1,0.1,0.1,0.1h7.2h0.2h4.4c0.1,0,0.1-0.1,0.1-0.1v-11.8h11.8v9.6h-7.9v-5.2h4.4v1.5h-2.3
						c-0.1,0-0.1,0.1-0.1,0.1v1.8c0,0.1,0.1,0.1,0.1,0.1h4.1c0.1,0,0.1-0.1,0.1-0.1v-5.4c0-0.1-0.1-0.1-0.1-0.1h-7.9
						c-0.1,0-0.1,0.1-0.1,0.1v9.6c0,0.1,0.1,0.1,0.1,0.1h7.3h0.1h2.6v-0.8H751.5z"/>
				</g>
				<g>
					<path fill="#DC7D27" d="M779.4,825.4h-2.6h-0.1h-7.1v-9.4h7.8v5.2h-3.9v-1.5h2.3c0.1,0,0.1-0.1,0.1-0.1V818
						c0-0.1-0.1-0.1-0.1-0.1h-4.5c-0.1,0-0.1,0.1-0.1,0.1v5.5c0,0.1,0.1,0.1,0.1,0.1h8.1c0.1,0,0.1-0.1,0.1-0.1v-9.7
						c0-0.1-0.1-0.1-0.1-0.1h-12c-0.1,0-0.1,0.1-0.1,0.1v11.8H763h-0.2h-7.1v-9.4h7.8v5.2h-3.9v-1.5h2.3c0.1,0,0.1-0.1,0.1-0.1v-1.7
						c0-0.1-0.1-0.1-0.1-0.1h-4.5c-0.1,0-0.1,0.1-0.1,0.1v5.5c0,0.1,0.1,0.1,0.1,0.1h8.1c0.1,0,0.1-0.1,0.1-0.1v-9.7
						c0-0.1-0.1-0.1-0.1-0.1h-12c-0.1,0-0.1,0.1-0.1,0.1v11.8h-1.7v0.2h1.8c0.1,0,0.1-0.1,0.1-0.1v-11.8h11.7v9.6h-7.9v-5.2h4.4v1.5
						h-2.3c-0.1,0-0.1,0.1-0.1,0.1v1.8c0,0.1,0.1,0.1,0.1,0.1h4.1c0.1,0,0.1-0.1,0.1-0.1v-5.4c0-0.1-0.1-0.1-0.1-0.1h-7.9
						c-0.1,0-0.1,0.1-0.1,0.1v9.6c0,0.1,0.1,0.1,0.1,0.1h7.2h0.2h4.4c0.1,0,0.1-0.1,0.1-0.1v-11.8h11.8v9.6h-7.9v-5.2h4.4v1.5h-2.3
						c-0.1,0-0.1,0.1-0.1,0.1v1.8c0,0.1,0.1,0.1,0.1,0.1h4.1c0.1,0,0.1-0.1,0.1-0.1v-5.4c0-0.1-0.1-0.1-0.1-0.1h-7.9
						c-0.1,0-0.1,0.1-0.1,0.1v9.6c0,0.1,0.1,0.1,0.1,0.1h7.3h0.1h2.6v-0.8H779.4z"/>
				</g>
				<g>
					<path fill="#DC7D27" d="M807.3,825.4h-2.6h-0.1h-7.2v-9.4h7.8v5.2h-3.9v-1.5h2.3c0.1,0,0.1-0.1,0.1-0.1V818
						c0-0.1-0.1-0.1-0.1-0.1H799c-0.1,0-0.1,0.1-0.1,0.1v5.5c0,0.1,0.1,0.1,0.1,0.1h8.1c0.1,0,0.1-0.1,0.1-0.1v-9.7
						c0-0.1-0.1-0.1-0.1-0.1h-12c-0.1,0-0.1,0.1-0.1,0.1v11.8h-4.3h-0.2h-7.1v-9.4h7.8v5.2h-3.9v-1.5h2.3c0.1,0,0.1-0.1,0.1-0.1
						v-1.7c0-0.1-0.1-0.1-0.1-0.1h-4.5c-0.1,0-0.1,0.1-0.1,0.1v5.5c0,0.1,0.1,0.1,0.1,0.1h8.1c0.1,0,0.1-0.1,0.1-0.1v-9.7
						c0-0.1-0.1-0.1-0.1-0.1h-12c-0.1,0-0.1,0.1-0.1,0.1v11.8h-1.7v0.2h1.8c0.1,0,0.1-0.1,0.1-0.1v-11.8h11.8v9.6h-7.9v-5.2h4.4v1.5
						h-2.3c-0.1,0-0.1,0.1-0.1,0.1v1.8c0,0.1,0.1,0.1,0.1,0.1h4.1c0.1,0,0.1-0.1,0.1-0.1v-5.4c0-0.1-0.1-0.1-0.1-0.1h-7.9
						c-0.1,0-0.1,0.1-0.1,0.1v9.6c0,0.1,0.1,0.1,0.1,0.1h7.2h0.2h4.4c0.1,0,0.1-0.1,0.1-0.1v-11.8h11.8v9.6h-7.9v-5.2h4.4v1.5h-2.5
						c-0.1,0-0.1,0.1-0.1,0.1v1.8c0,0.1,0.1,0.1,0.1,0.1h4.1c0.1,0,0.1-0.1,0.1-0.1v-5.4c0-0.1-0.1-0.1-0.1-0.1h-7.9
						c-0.1,0-0.1,0.1-0.1,0.1v9.6c0,0.1,0.1,0.1,0.1,0.1h7.3h0.1h2.6L807.3,825.4L807.3,825.4z"/>
				</g>
				<g>
					<path fill="#DC7D27" d="M835.2,825.4h-2.6h-0.1h-7.1v-9.4h7.8v5.2h-3.9v-1.5h2.3c0.1,0,0.1-0.1,0.1-0.1V818
						c0-0.1-0.1-0.1-0.1-0.1H827c-0.1,0-0.1,0.1-0.1,0.1v5.5c0,0.1,0.1,0.1,0.1,0.1h8.1c0.1,0,0.1-0.1,0.1-0.1v-9.7
						c0-0.1-0.1-0.1-0.1-0.1h-12c-0.1,0-0.1,0.1-0.1,0.1v11.8h-4.3h-0.2h-7.1v-9.4h7.8v5.2h-3.9v-1.5h2.3c0.1,0,0.1-0.1,0.1-0.1
						v-1.7c0-0.1-0.1-0.1-0.1-0.1h-4.5c-0.1,0-0.1,0.1-0.1,0.1v5.5c0,0.1,0.1,0.1,0.1,0.1h8.1c0.1,0,0.1-0.1,0.1-0.1v-9.7
						c0-0.1-0.1-0.1-0.1-0.1h-12c-0.1,0-0.1,0.1-0.1,0.1v11.8h-1.7v0.2h1.8c0.1,0,0.1-0.1,0.1-0.1v-11.8h11.7v9.6h-7.9v-5.2h4.4v1.5
						h-2.3c-0.1,0-0.1,0.1-0.1,0.1v1.8c0,0.1,0.1,0.1,0.1,0.1h4.1c0.1,0,0.1-0.1,0.1-0.1v-5.4c0-0.1-0.1-0.1-0.1-0.1h-7.9
						c-0.1,0-0.1,0.1-0.1,0.1v9.6c0,0.1,0.1,0.1,0.1,0.1h7.2h0.2h4.4c0.1,0,0.1-0.1,0.1-0.1v-11.8h11.8v9.6h-7.9v-5.2h4.4v1.5h-2.3
						c-0.1,0-0.1,0.1-0.1,0.1v1.8c0,0.1,0.1,0.1,0.1,0.1h4.1c0.1,0,0.1-0.1,0.1-0.1v-5.4c0-0.1-0.1-0.1-0.1-0.1h-7.9
						c-0.1,0-0.1,0.1-0.1,0.1v9.6c0,0.1,0.1,0.1,0.1,0.1h7.3h0.1h2.6v-0.8H835.2z"/>
				</g>
				<g>
					<path fill="#DC7D27" d="M863.1,825.4h-2.6h-0.1h-7.2v-9.4h7.8v5.2h-3.9v-1.5h2.3c0.1,0,0.1-0.1,0.1-0.1V818
						c0-0.1-0.1-0.1-0.1-0.1h-4.5c-0.1,0-0.1,0.1-0.1,0.1v5.5c0,0.1,0.1,0.1,0.1,0.1h8.1c0.1,0,0.1-0.1,0.1-0.1v-9.7
						c0-0.1-0.1-0.1-0.1-0.1h-12c-0.1,0-0.1,0.1-0.1,0.1v11.8h-4.3h-0.2h-7.1v-9.4h7.8v5.2h-3.9v-1.5h2.3c0.1,0,0.1-0.1,0.1-0.1
						v-1.7c0-0.1-0.1-0.1-0.1-0.1H841c-0.1,0-0.1,0.1-0.1,0.1v5.5c0,0.1,0.1,0.1,0.1,0.1h8.1c0.1,0,0.1-0.1,0.1-0.1v-9.7
						c0-0.1-0.1-0.1-0.1-0.1h-12c-0.1,0-0.1,0.1-0.1,0.1v11.8h-1.7v0.2h1.8c0.1,0,0.1-0.1,0.1-0.1v-11.8H849v9.6h-7.9v-5.2h4.4v1.5
						h-2.3c-0.1,0-0.1,0.1-0.1,0.1v1.8c0,0.1,0.1,0.1,0.1,0.1h4.1c0.1,0,0.1-0.1,0.1-0.1v-5.4c0-0.1-0.1-0.1-0.1-0.1h-7.9
						c-0.1,0-0.1,0.1-0.1,0.1v9.6c0,0.1,0.1,0.1,0.1,0.1h7.2h0.2h4.4c0.1,0,0.1-0.1,0.1-0.1v-11.8H863v9.6h-7.9v-5.2h4.4v1.5H857
						c-0.1,0-0.1,0.1-0.1,0.1v1.8c0,0.1,0.1,0.1,0.1,0.1h4.1c0.1,0,0.1-0.1,0.1-0.1v-5.4c0-0.1-0.1-0.1-0.1-0.1h-7.9
						c-0.1,0-0.1,0.1-0.1,0.1v9.6c0,0.1,0.1,0.1,0.1,0.1h7.3h0.1h2.6L863.1,825.4L863.1,825.4z"/>
				</g>
				<g>
					<path fill="#DC7D27" d="M891,825.4h-2.6h-0.1h-7.1v-9.4h7.8v5.2h-3.9v-1.5h2.3c0.1,0,0.1-0.1,0.1-0.1V818
						c0-0.1-0.1-0.1-0.1-0.1h-4.5c-0.1,0-0.1,0.1-0.1,0.1v5.5c0,0.1,0.1,0.1,0.1,0.1h8.1c0.1,0,0.1-0.1,0.1-0.1v-9.7
						c0-0.1-0.1-0.1-0.1-0.1h-12c-0.1,0-0.1,0.1-0.1,0.1v11.8h-4.3h-0.2h-7.1v-9.4h7.8v5.2h-3.9v-1.5h2.3c0.1,0,0.1-0.1,0.1-0.1
						v-1.7c0-0.1-0.1-0.1-0.1-0.1H869c-0.1,0-0.1,0.1-0.1,0.1v5.5c0,0.1,0.1,0.1,0.1,0.1h8.1c0.1,0,0.1-0.1,0.1-0.1v-9.7
						c0-0.1-0.1-0.1-0.1-0.1h-12c-0.1,0-0.1,0.1-0.1,0.1v11.8h-1.7v0.2h1.8c0.1,0,0.1-0.1,0.1-0.1v-11.8h11.7v9.6H869v-5.2h4.4v1.5
						h-2.3c-0.1,0-0.1,0.1-0.1,0.1v1.8c0,0.1,0.1,0.1,0.1,0.1h4.1c0.1,0,0.1-0.1,0.1-0.1v-5.4c0-0.1-0.1-0.1-0.1-0.1h-7.9
						c-0.1,0-0.1,0.1-0.1,0.1v9.6c0,0.1,0.1,0.1,0.1,0.1h7.2h0.2h4.4c0.1,0,0.1-0.1,0.1-0.1v-11.8h11.8v9.6H883v-5.2h4.4v1.5h-2.3
						c-0.1,0-0.1,0.1-0.1,0.1v1.8c0,0.1,0.1,0.1,0.1,0.1h4.1c0.1,0,0.1-0.1,0.1-0.1v-5.4c0-0.1-0.1-0.1-0.1-0.1h-7.9
						c-0.1,0-0.1,0.1-0.1,0.1v9.6c0,0.1,0.1,0.1,0.1,0.1h7.3h0.1h2.6v-0.8H891z"/>
				</g>
				<g>
					<path fill="#DC7D27" d="M918.9,825.4h-2.6h-0.1h-7.2v-9.4h7.8v5.2h-3.9v-1.5h2.3c0.1,0,0.1-0.1,0.1-0.1V818
						c0-0.1-0.1-0.1-0.1-0.1h-4.5c-0.1,0-0.1,0.1-0.1,0.1v5.5c0,0.1,0.1,0.1,0.1,0.1h8.1c0.1,0,0.1-0.1,0.1-0.1v-9.7
						c0-0.1-0.1-0.1-0.1-0.1h-12c-0.1,0-0.1,0.1-0.1,0.1v11.8h-4.3h-0.2h-7.1v-9.4h7.8v5.2H899v-1.5h2.3c0.1,0,0.1-0.1,0.1-0.1v-1.7
						c0-0.1-0.1-0.1-0.1-0.1h-4.5c-0.1,0-0.1,0.1-0.1,0.1v5.5c0,0.1,0.1,0.1,0.1,0.1h8.1c0.1,0,0.1-0.1,0.1-0.1v-9.7
						c0-0.1-0.1-0.1-0.1-0.1h-12c-0.1,0-0.1,0.1-0.1,0.1v11.8h-1.7v0.2h1.8c0.1,0,0.1-0.1,0.1-0.1v-11.8h11.8v9.6H897v-5.2h4.4v1.5
						H899c-0.1,0-0.1,0.1-0.1,0.1v1.8c0,0.1,0.1,0.1,0.1,0.1h4.1c0.1,0,0.1-0.1,0.1-0.1v-5.4c0-0.1-0.1-0.1-0.1-0.1h-7.9
						c-0.1,0-0.1,0.1-0.1,0.1v9.6c0,0.1,0.1,0.1,0.1,0.1h7.2h0.2h4.4c0.1,0,0.1-0.1,0.1-0.1v-11.8h11.8v9.6H911v-5.2h4.4v1.5h-2.5
						c-0.1,0-0.1,0.1-0.1,0.1v1.8c0,0.1,0.1,0.1,0.1,0.1h4.1c0.1,0,0.1-0.1,0.1-0.1v-5.4c0-0.1-0.1-0.1-0.1-0.1H909
						c-0.1,0-0.1,0.1-0.1,0.1v9.6c0,0.1,0.1,0.1,0.1,0.1h7.3h0.1h2.6L918.9,825.4L918.9,825.4z"/>
				</g>
				<g>
					<path fill="#DC7D27" d="M946.8,825.4h-2.6h-0.1h-7.1v-9.4h7.8v5.2h-3.9v-1.5h2.3c0.1,0,0.1-0.1,0.1-0.1V818
						c0-0.1-0.1-0.1-0.1-0.1h-4.5c-0.1,0-0.1,0.1-0.1,0.1v5.5c0,0.1,0.1,0.1,0.1,0.1h8.1c0.1,0,0.1-0.1,0.1-0.1v-9.7
						c0-0.1-0.1-0.1-0.1-0.1h-12c-0.1,0-0.1,0.1-0.1,0.1v11.8h-4.3h-0.2h-7.1v-9.4h7.8v5.2H927v-1.5h2.3c0.1,0,0.1-0.1,0.1-0.1v-1.7
						c0-0.1-0.1-0.1-0.1-0.1h-4.5c-0.1,0-0.1,0.1-0.1,0.1v5.5c0,0.1,0.1,0.1,0.1,0.1h8.1c0.1,0,0.1-0.1,0.1-0.1v-9.7
						c0-0.1-0.1-0.1-0.1-0.1h-12c-0.1,0-0.1,0.1-0.1,0.1v11.8h-1.7v0.2h1.8c0.1,0,0.1-0.1,0.1-0.1v-11.8h11.7v9.6h-7.9v-5.2h4.4v1.5
						h-2.3c-0.1,0-0.1,0.1-0.1,0.1v1.8c0,0.1,0.1,0.1,0.1,0.1h4.1c0.1,0,0.1-0.1,0.1-0.1v-5.4c0-0.1-0.1-0.1-0.1-0.1h-7.9
						c-0.1,0-0.1,0.1-0.1,0.1v9.6c0,0.1,0.1,0.1,0.1,0.1h7.2h0.2h4.4c0.1,0,0.1-0.1,0.1-0.1v-11.8h11.8v9.6h-7.9v-5.2h4.4v1.5h-2.3
						c-0.1,0-0.1,0.1-0.1,0.1v1.8c0,0.1,0.1,0.1,0.1,0.1h4.1c0.1,0,0.1-0.1,0.1-0.1v-5.4c0-0.1-0.1-0.1-0.1-0.1h-7.9
						c-0.1,0-0.1,0.1-0.1,0.1v9.6c0,0.1,0.1,0.1,0.1,0.1h7.3h0.1h2.6v-0.8H946.8z"/>
				</g>
				<g>
					<path fill="#DC7D27" d="M974.7,825.4h-2.6h-0.1H965v-9.4h7.8v5.2h-3.9v-1.5h2.3c0.1,0,0.1-0.1,0.1-0.1V818
						c0-0.1-0.1-0.1-0.1-0.1h-4.5c-0.1,0-0.1,0.1-0.1,0.1v5.5c0,0.1,0.1,0.1,0.1,0.1h8.1c0.1,0,0.1-0.1,0.1-0.1v-9.7
						c0-0.1-0.1-0.1-0.1-0.1h-12c-0.1,0-0.1,0.1-0.1,0.1v11.8h-4.3h-0.2h-7.1v-9.4h7.8v5.2h-3.9v-1.5h2.3c0.1,0,0.1-0.1,0.1-0.1
						v-1.7c0-0.1-0.1-0.1-0.1-0.1h-4.5c-0.1,0-0.1,0.1-0.1,0.1v5.5c0,0.1,0.1,0.1,0.1,0.1h8.1c0.1,0,0.1-0.1,0.1-0.1v-9.7
						c0-0.1-0.1-0.1-0.1-0.1h-12c-0.1,0-0.1,0.1-0.1,0.1v11.8H947v0.2h1.8c0.1,0,0.1-0.1,0.1-0.1v-11.8h11.8v9.6h-7.9v-5.2h4.4v1.5
						h-2.3c-0.1,0-0.1,0.1-0.1,0.1v1.8c0,0.1,0.1,0.1,0.1,0.1h4.1c0.1,0,0.1-0.1,0.1-0.1v-5.4c0-0.1-0.1-0.1-0.1-0.1h-7.9
						c-0.1,0-0.1,0.1-0.1,0.1v9.6c0,0.1,0.1,0.1,0.1,0.1h7.2h0.2h4.4c0.1,0,0.1-0.1,0.1-0.1v-11.8h11.8v9.6h-7.9v-5.2h4.4v1.5h-2.3
						c-0.1,0-0.1,0.1-0.1,0.1v1.8c0,0.1,0.1,0.1,0.1,0.1h4.1c0.1,0,0.1-0.1,0.1-0.1v-5.4c0-0.1-0.1-0.1-0.1-0.1h-7.9
						c-0.1,0-0.1,0.1-0.1,0.1v9.6c0,0.1,0.1,0.1,0.1,0.1h7.3h0.1h2.6v-0.8H974.7z"/>
				</g>
				<g>
					<path fill="#DC7D27" d="M1002.6,825.4h-2.6h-0.1h-7.1v-9.4h7.8v5.2h-3.9v-1.5h2.3c0.1,0,0.1-0.1,0.1-0.1V818
						c0-0.1-0.1-0.1-0.1-0.1h-4.5c-0.1,0-0.1,0.1-0.1,0.1v5.5c0,0.1,0.1,0.1,0.1,0.1h8.1c0.1,0,0.1-0.1,0.1-0.1v-9.7
						c0-0.1-0.1-0.1-0.1-0.1h-12c-0.1,0-0.1,0.1-0.1,0.1v11.8h-4.3h-0.2H979v-9.4h7.8v5.2h-3.9v-1.5h2.3c0.1,0,0.1-0.1,0.1-0.1v-1.7
						c0-0.1-0.1-0.1-0.1-0.1h-4.5c-0.1,0-0.1,0.1-0.1,0.1v5.5c0,0.1,0.1,0.1,0.1,0.1h8.1c0.1,0,0.1-0.1,0.1-0.1v-9.7
						c0-0.1-0.1-0.1-0.1-0.1h-12c-0.1,0-0.1,0.1-0.1,0.1v11.8h-1.7v0.2h1.8c0.1,0,0.1-0.1,0.1-0.1v-11.8h11.8v9.6h-7.9v-5.2h4.4v1.5
						h-2.3c-0.1,0-0.1,0.1-0.1,0.1v1.8c0,0.1,0.1,0.1,0.1,0.1h4.1c0.1,0,0.1-0.1,0.1-0.1v-5.4c0-0.1-0.1-0.1-0.1-0.1H979
						c-0.1,0-0.1,0.1-0.1,0.1v9.6c0,0.1,0.1,0.1,0.1,0.1h7.2h0.2h4.4c0.1,0,0.1-0.1,0.1-0.1v-11.8h11.8v9.6h-7.9v-5.2h4.4v1.5h-2.3
						c-0.1,0-0.1,0.1-0.1,0.1v1.8c0,0.1,0.1,0.1,0.1,0.1h4.1c0.1,0,0.1-0.1,0.1-0.1v-5.4c0-0.1-0.1-0.1-0.1-0.1H993
						c-0.1,0-0.1,0.1-0.1,0.1v9.6c0,0.1,0.1,0.1,0.1,0.1h7.3h0.1h2.6v-0.8H1002.6z"/>
				</g>
				<g>
					<path fill="#DC7D27" d="M1030.5,825.4h-2.6h-0.1h-7.1v-9.4h7.8v5.2h-3.9v-1.5h2.3c0.1,0,0.1-0.1,0.1-0.1V818
						c0-0.1-0.1-0.1-0.1-0.1h-4.5c-0.1,0-0.1,0.1-0.1,0.1v5.5c0,0.1,0.1,0.1,0.1,0.1h8.1c0.1,0,0.1-0.1,0.1-0.1v-9.7
						c0-0.1-0.1-0.1-0.1-0.1h-12c-0.1,0-0.1,0.1-0.1,0.1v11.8h-4.3h-0.2h-7.1v-9.4h7.8v5.2h-3.9v-1.5h2.3c0.1,0,0.1-0.1,0.1-0.1
						v-1.7c0-0.1-0.1-0.1-0.1-0.1h-4.5c-0.1,0-0.1,0.1-0.1,0.1v5.5c0,0.1,0.1,0.1,0.1,0.1h8.1c0.1,0,0.1-0.1,0.1-0.1v-9.7
						c0-0.1-0.1-0.1-0.1-0.1h-12c-0.1,0-0.1,0.1-0.1,0.1v11.8h-1.7v0.2h1.8c0.1,0,0.1-0.1,0.1-0.1v-11.8h11.8v9.6h-7.9v-5.2h4.4v1.5
						h-2.3c-0.1,0-0.1,0.1-0.1,0.1v1.8c0,0.1,0.1,0.1,0.1,0.1h4.1c0.1,0,0.1-0.1,0.1-0.1v-5.4c0-0.1-0.1-0.1-0.1-0.1h-7.9
						c-0.1,0-0.1,0.1-0.1,0.1v9.6c0,0.1,0.1,0.1,0.1,0.1h7.2h0.2h4.4c0.1,0,0.1-0.1,0.1-0.1v-11.8h11.8v9.6h-7.9v-5.2h4.4v1.5h-2.3
						c-0.1,0-0.1,0.1-0.1,0.1v1.8c0,0.1,0.1,0.1,0.1,0.1h4.1c0.1,0,0.1-0.1,0.1-0.1v-5.4c0-0.1-0.1-0.1-0.1-0.1h-7.9
						c-0.1,0-0.1,0.1-0.1,0.1v9.6c0,0.1,0.1,0.1,0.1,0.1h7.3h0.1h2.6v-0.8H1030.5z"/>
				</g>
				<g>
					<path fill="#DC7D27" d="M1058.4,825.4h-2.6h-0.1h-7.1v-9.4h7.8v5.2h-3.9v-1.5h2.3c0.1,0,0.1-0.1,0.1-0.1V818
						c0-0.1-0.1-0.1-0.1-0.1h-4.5c-0.1,0-0.1,0.1-0.1,0.1v5.5c0,0.1,0.1,0.1,0.1,0.1h8.1c0.1,0,0.1-0.1,0.1-0.1v-9.7
						c0-0.1-0.1-0.1-0.1-0.1h-12c-0.1,0-0.1,0.1-0.1,0.1v11.8h-4.3h-0.2h-7.1v-9.4h7.8v5.2h-3.9v-1.5h2.3c0.1,0,0.1-0.1,0.1-0.1
						v-1.7c0-0.1-0.1-0.1-0.1-0.1h-4.5c-0.1,0-0.1,0.1-0.1,0.1v5.5c0,0.1,0.1,0.1,0.1,0.1h8.1c0.1,0,0.1-0.1,0.1-0.1v-9.7
						c0-0.1-0.1-0.1-0.1-0.1h-12c-0.1,0-0.1,0.1-0.1,0.1v11.8h-1.7v0.2h1.8c0.1,0,0.1-0.1,0.1-0.1v-11.8h11.8v9.6h-7.9v-5.2h4.4v1.5
						h-2.3c-0.1,0-0.1,0.1-0.1,0.1v1.8c0,0.1,0.1,0.1,0.1,0.1h4.1c0.1,0,0.1-0.1,0.1-0.1v-5.4c0-0.1-0.1-0.1-0.1-0.1h-7.9
						c-0.1,0-0.1,0.1-0.1,0.1v9.6c0,0.1,0.1,0.1,0.1,0.1h7.2h0.2h4.4c0.1,0,0.1-0.1,0.1-0.1v-11.8h11.8v9.6h-7.9v-5.2h4.4v1.5h-2.3
						c-0.1,0-0.1,0.1-0.1,0.1v1.8c0,0.1,0.1,0.1,0.1,0.1h4.1c0.1,0,0.1-0.1,0.1-0.1v-5.4c0-0.1-0.1-0.1-0.1-0.1h-7.9
						c-0.1,0-0.1,0.1-0.1,0.1v9.6c0,0.1,0.1,0.1,0.1,0.1h7.3h0.1h2.6v-0.8H1058.4z"/>
				</g>
				<g>
					<path fill="#DC7D27" d="M1086.3,825.4h-2.6h-0.1h-7.1v-9.4h7.8v5.2h-3.9v-1.5h2.3c0.1,0,0.1-0.1,0.1-0.1V818
						c0-0.1-0.1-0.1-0.1-0.1h-4.5c-0.1,0-0.1,0.1-0.1,0.1v5.5c0,0.1,0.1,0.1,0.1,0.1h8.1c0.1,0,0.1-0.1,0.1-0.1v-9.7
						c0-0.1-0.1-0.1-0.1-0.1h-12c-0.1,0-0.1,0.1-0.1,0.1v11.8h-4.3h-0.2h-7.1v-9.4h7.8v5.2h-3.9v-1.5h2.3c0.1,0,0.1-0.1,0.1-0.1
						v-1.7c0-0.1-0.1-0.1-0.1-0.1h-4.5c-0.1,0-0.1,0.1-0.1,0.1v5.5c0,0.1,0.1,0.1,0.1,0.1h8.1c0.1,0,0.1-0.1,0.1-0.1v-9.7
						c0-0.1-0.1-0.1-0.1-0.1h-12c-0.1,0-0.1,0.1-0.1,0.1v11.8h-1.7v0.2h1.8c0.1,0,0.1-0.1,0.1-0.1v-11.8h11.8v9.6h-7.9v-5.2h4.4v1.5
						h-2.3c-0.1,0-0.1,0.1-0.1,0.1v1.8c0,0.1,0.1,0.1,0.1,0.1h4.1c0.1,0,0.1-0.1,0.1-0.1v-5.4c0-0.1-0.1-0.1-0.1-0.1h-7.9
						c-0.1,0-0.1,0.1-0.1,0.1v9.6c0,0.1,0.1,0.1,0.1,0.1h7.2h0.2h4.4c0.1,0,0.1-0.1,0.1-0.1v-11.8h11.8v9.6h-7.9v-5.2h4.4v1.5h-2.3
						c-0.1,0-0.1,0.1-0.1,0.1v1.8c0,0.1,0.1,0.1,0.1,0.1h4.1c0.1,0,0.1-0.1,0.1-0.1v-5.4c0-0.1-0.1-0.1-0.1-0.1h-7.9
						c-0.1,0-0.1,0.1-0.1,0.1v9.6c0,0.1,0.1,0.1,0.1,0.1h7.3h0.1h2.6v-0.8H1086.3z"/>
				</g>
				<g>
					<path fill="#DC7D27" d="M1114.2,825.4h-2.6h-0.1h-7.1v-9.4h7.8v5.2h-3.9v-1.5h2.3c0.1,0,0.1-0.1,0.1-0.1V818
						c0-0.1-0.1-0.1-0.1-0.1h-4.5c-0.1,0-0.1,0.1-0.1,0.1v5.5c0,0.1,0.1,0.1,0.1,0.1h8.1c0.1,0,0.1-0.1,0.1-0.1v-9.7
						c0-0.1-0.1-0.1-0.1-0.1h-12c-0.1,0-0.1,0.1-0.1,0.1v11.8h-4.3h-0.2h-7.1v-9.4h7.8v5.2h-3.9v-1.5h2.3c0.1,0,0.1-0.1,0.1-0.1
						v-1.7c0-0.1-0.1-0.1-0.1-0.1h-4.5c-0.1,0-0.1,0.1-0.1,0.1v5.5c0,0.1,0.1,0.1,0.1,0.1h8.1c0.1,0,0.1-0.1,0.1-0.1v-9.7
						c0-0.1-0.1-0.1-0.1-0.1h-12c-0.1,0-0.1,0.1-0.1,0.1v11.8h-1.7v0.2h1.8c0.1,0,0.1-0.1,0.1-0.1v-11.8h11.8v9.6h-7.9v-5.2h4.4v1.5
						h-2.3c-0.1,0-0.1,0.1-0.1,0.1v1.8c0,0.1,0.1,0.1,0.1,0.1h4.1c0.1,0,0.1-0.1,0.1-0.1v-5.4c0-0.1-0.1-0.1-0.1-0.1h-7.9
						c-0.1,0-0.1,0.1-0.1,0.1v9.6c0,0.1,0.1,0.1,0.1,0.1h7.2h0.2h4.4c0.1,0,0.1-0.1,0.1-0.1v-11.8h11.8v9.6h-7.9v-5.2h4.4v1.5h-2.3
						c-0.1,0-0.1,0.1-0.1,0.1v1.8c0,0.1,0.1,0.1,0.1,0.1h4.1c0.1,0,0.1-0.1,0.1-0.1v-5.4c0-0.1-0.1-0.1-0.1-0.1h-7.9
						c-0.1,0-0.1,0.1-0.1,0.1v9.6c0,0.1,0.1,0.1,0.1,0.1h7.3h0.1h2.6v-0.8H1114.2z"/>
				</g>
				<g>
					<path fill="#DC7D27" d="M1142.1,825.4h-2.6h-0.1h-7.1v-9.4h7.8v5.2h-3.9v-1.5h2.3c0.1,0,0.1-0.1,0.1-0.1V818
						c0-0.1-0.1-0.1-0.1-0.1h-4.5c-0.1,0-0.1,0.1-0.1,0.1v5.5c0,0.1,0.1,0.1,0.1,0.1h8.1c0.1,0,0.1-0.1,0.1-0.1v-9.7
						c0-0.1-0.1-0.1-0.1-0.1h-12c-0.1,0-0.1,0.1-0.1,0.1v11.8h-4.3h-0.2h-7.1v-9.4h7.8v5.2h-3.9v-1.5h2.3c0.1,0,0.1-0.1,0.1-0.1
						v-1.7c0-0.1-0.1-0.1-0.1-0.1h-4.5c-0.1,0-0.1,0.1-0.1,0.1v5.5c0,0.1,0.1,0.1,0.1,0.1h8.1c0.1,0,0.1-0.1,0.1-0.1v-9.7
						c0-0.1-0.1-0.1-0.1-0.1h-12c-0.1,0-0.1,0.1-0.1,0.1v11.8h-1.7v0.2h1.8c0.1,0,0.1-0.1,0.1-0.1v-11.8h11.8v9.6h-7.9v-5.2h4.4v1.5
						h-2.3c-0.1,0-0.1,0.1-0.1,0.1v1.8c0,0.1,0.1,0.1,0.1,0.1h4.1c0.1,0,0.1-0.1,0.1-0.1v-5.4c0-0.1-0.1-0.1-0.1-0.1h-7.9
						c-0.1,0-0.1,0.1-0.1,0.1v9.6c0,0.1,0.1,0.1,0.1,0.1h7.2h0.2h4.4c0.1,0,0.1-0.1,0.1-0.1v-11.8h11.8v9.6h-7.9v-5.2h4.4v1.5h-2.3
						c-0.1,0-0.1,0.1-0.1,0.1v1.8c0,0.1,0.1,0.1,0.1,0.1h4.1c0.1,0,0.1-0.1,0.1-0.1v-5.4c0-0.1-0.1-0.1-0.1-0.1h-7.9
						c-0.1,0-0.1,0.1-0.1,0.1v9.6c0,0.1,0.1,0.1,0.1,0.1h7.3h0.1h2.6v-0.8H1142.1z"/>
				</g>
				<g>
					<path fill="#DC7D27" d="M1170,825.4h-2.6h-0.1h-7.1v-9.4h7.8v5.2h-3.9v-1.5h2.3c0.1,0,0.1-0.1,0.1-0.1V818
						c0-0.1-0.1-0.1-0.1-0.1h-4.5c-0.1,0-0.1,0.1-0.1,0.1v5.5c0,0.1,0.1,0.1,0.1,0.1h8.1c0.1,0,0.1-0.1,0.1-0.1v-9.7
						c0-0.1-0.1-0.1-0.1-0.1h-12.2c-0.1,0-0.1,0.1-0.1,0.1v11.8h-4.3h-0.2h-7.1v-9.4h7.8v5.2h-3.9v-1.5h2.3c0.1,0,0.1-0.1,0.1-0.1
						v-1.7c0-0.1-0.1-0.1-0.1-0.1h-4.5c-0.1,0-0.1,0.1-0.1,0.1v5.5c0,0.1,0.1,0.1,0.1,0.1h8.1c0.1,0,0.1-0.1,0.1-0.1v-9.7
						c0-0.1-0.1-0.1-0.1-0.1h-12c-0.1,0-0.1,0.1-0.1,0.1v11.8h-1.7v0.2h1.8c0.1,0,0.1-0.1,0.1-0.1v-11.8h11.8v9.6h-7.9v-5.2h4.4v1.5
						h-2.3c-0.1,0-0.1,0.1-0.1,0.1v1.8c0,0.1,0.1,0.1,0.1,0.1h4.1c0.1,0,0.1-0.1,0.1-0.1v-5.4c0-0.1-0.1-0.1-0.1-0.1h-7.9
						c-0.1,0-0.1,0.1-0.1,0.1v9.6c0,0.1,0.1,0.1,0.1,0.1h7.2h0.2h4.4c0.1,0,0.1-0.1,0.1-0.1v-11.8h11.8v9.6h-7.9v-5.2h4.4v1.5h-2.3
						c-0.1,0-0.1,0.1-0.1,0.1v1.8c0,0.1,0.1,0.1,0.1,0.1h4.1c0.1,0,0.1-0.1,0.1-0.1v-5.4c0-0.1-0.1-0.1-0.1-0.1h-7.9
						c-0.1,0-0.1,0.1-0.1,0.1v9.6c0,0.1,0.1,0.1,0.1,0.1h7.3h0.1h2.6L1170,825.4L1170,825.4z"/>
				</g>
				<g>
					<path fill="#DC7D27" d="M1198,825.4h-2.6h-0.1h-7.1v-9.4h7.8v5.2h-3.9v-1.5h2.3c0.1,0,0.1-0.1,0.1-0.1V818
						c0-0.1-0.1-0.1-0.1-0.1h-4.5c-0.1,0-0.1,0.1-0.1,0.1v5.5c0,0.1,0.1,0.1,0.1,0.1h8.1c0.1,0,0.1-0.1,0.1-0.1v-9.7
						c0-0.1-0.1-0.1-0.1-0.1h-12c-0.1,0-0.1,0.1-0.1,0.1v11.8h-4.3h-0.2h-7.1v-9.4h7.8v5.2h-3.9v-1.5h2.3c0.1,0,0.1-0.1,0.1-0.1
						v-1.7c0-0.1-0.1-0.1-0.1-0.1h-4.5c-0.1,0-0.1,0.1-0.1,0.1v5.5c0,0.1,0.1,0.1,0.1,0.1h8.1c0.1,0,0.1-0.1,0.1-0.1v-9.7
						c0-0.1-0.1-0.1-0.1-0.1h-12c-0.1,0-0.1,0.1-0.1,0.1v11.8h-1.7v0.2h1.8c0.1,0,0.1-0.1,0.1-0.1v-11.8h11.8v9.6h-7.9v-5.2h4.4v1.5
						h-2.3c-0.1,0-0.1,0.1-0.1,0.1v1.8c0,0.1,0.1,0.1,0.1,0.1h4.1c0.1,0,0.1-0.1,0.1-0.1v-5.4c0-0.1-0.1-0.1-0.1-0.1h-7.9
						c-0.1,0-0.1,0.1-0.1,0.1v9.6c0,0.1,0.1,0.1,0.1,0.1h7.2h0.2h4.4c0.1,0,0.1-0.1,0.1-0.1v-11.8h11.8v9.6h-7.9v-5.2h4.4v1.5h-2.3
						c-0.1,0-0.1,0.1-0.1,0.1v1.8c0,0.1,0.1,0.1,0.1,0.1h4.1c0.1,0,0.1-0.1,0.1-0.1v-5.4c0-0.1-0.1-0.1-0.1-0.1h-7.9
						c-0.1,0-0.1,0.1-0.1,0.1v9.6c0,0.1,0.1,0.1,0.1,0.1h7.3h0.1h2.6v-0.8H1198z"/>
				</g>
				<g>
					<path fill="#DC7D27" d="M1225.9,825.4h-2.6h-0.1h-7.1v-9.4h7.8v5.2h-3.9v-1.5h2.3c0.1,0,0.1-0.1,0.1-0.1V818
						c0-0.1-0.1-0.1-0.1-0.1h-4.5c-0.1,0-0.1,0.1-0.1,0.1v5.5c0,0.1,0.1,0.1,0.1,0.1h8.1c0.1,0,0.1-0.1,0.1-0.1v-9.7
						c0-0.1-0.1-0.1-0.1-0.1h-12.2c-0.1,0-0.1,0.1-0.1,0.1v11.8h-4.3h-0.2h-7.1v-9.4h7.8v5.2h-3.9v-1.5h2.3c0.1,0,0.1-0.1,0.1-0.1
						v-1.7c0-0.1-0.1-0.1-0.1-0.1h-4.5c-0.1,0-0.1,0.1-0.1,0.1v5.5c0,0.1,0.1,0.1,0.1,0.1h8.1c0.1,0,0.1-0.1,0.1-0.1v-9.7
						c0-0.1-0.1-0.1-0.1-0.1h-12c-0.1,0-0.1,0.1-0.1,0.1v11.8h-1.7v0.2h1.8c0.1,0,0.1-0.1,0.1-0.1v-11.8h11.8v9.6h-7.9v-5.2h4.4v1.5
						h-2.3c-0.1,0-0.1,0.1-0.1,0.1v1.8c0,0.1,0.1,0.1,0.1,0.1h4.1c0.1,0,0.1-0.1,0.1-0.1v-5.4c0-0.1-0.1-0.1-0.1-0.1h-7.9
						c-0.1,0-0.1,0.1-0.1,0.1v9.6c0,0.1,0.1,0.1,0.1,0.1h7.2h0.2h4.4c0.1,0,0.1-0.1,0.1-0.1v-11.8h11.8v9.6h-7.9v-5.2h4.4v1.5h-2.3
						c-0.1,0-0.1,0.1-0.1,0.1v1.8c0,0.1,0.1,0.1,0.1,0.1h4.1c0.1,0,0.1-0.1,0.1-0.1v-5.4c0-0.1-0.1-0.1-0.1-0.1h-7.9
						c-0.1,0-0.1,0.1-0.1,0.1v9.6c0,0.1,0.1,0.1,0.1,0.1h7.3h0.1h2.6L1225.9,825.4L1225.9,825.4z"/>
				</g>
				<g>
					<path fill="#DC7D27" d="M1253.8,825.4h-2.6h-0.1h-7.1v-9.4h7.8v5.2h-3.9v-1.5h2.3c0.1,0,0.1-0.1,0.1-0.1V818
						c0-0.1-0.1-0.1-0.1-0.1h-4.5c-0.1,0-0.1,0.1-0.1,0.1v5.5c0,0.1,0.1,0.1,0.1,0.1h8.1c0.1,0,0.1-0.1,0.1-0.1v-9.7
						c0-0.1-0.1-0.1-0.1-0.1h-12c-0.1,0-0.1,0.1-0.1,0.1v11.8h-4.3h-0.2h-7.1v-9.4h7.8v5.2h-3.9v-1.5h2.3c0.1,0,0.1-0.1,0.1-0.1
						v-1.7c0-0.1-0.1-0.1-0.1-0.1h-4.5c-0.1,0-0.1,0.1-0.1,0.1v5.5c0,0.1,0.1,0.1,0.1,0.1h8.1c0.1,0,0.1-0.1,0.1-0.1v-9.7
						c0-0.1-0.1-0.1-0.1-0.1h-12c-0.1,0-0.1,0.1-0.1,0.1v11.8h-1.7v0.2h1.8c0.1,0,0.1-0.1,0.1-0.1v-11.8h11.8v9.6h-7.9v-5.2h4.4v1.5
						h-2.3c-0.1,0-0.1,0.1-0.1,0.1v1.8c0,0.1,0.1,0.1,0.1,0.1h4.1c0.1,0,0.1-0.1,0.1-0.1v-5.4c0-0.1-0.1-0.1-0.1-0.1h-7.9
						c-0.1,0-0.1,0.1-0.1,0.1v9.6c0,0.1,0.1,0.1,0.1,0.1h7.2h0.2h4.4c0.1,0,0.1-0.1,0.1-0.1v-11.8h11.8v9.6h-7.9v-5.2h4.4v1.5h-2.3
						c-0.1,0-0.1,0.1-0.1,0.1v1.8c0,0.1,0.1,0.1,0.1,0.1h4.1c0.1,0,0.1-0.1,0.1-0.1v-5.4c0-0.1-0.1-0.1-0.1-0.1h-7.9
						c-0.1,0-0.1,0.1-0.1,0.1v9.6c0,0.1,0.1,0.1,0.1,0.1h7.3h0.1h2.6v-0.8H1253.8z"/>
				</g>
				<g>
					<path fill="#DC7D27" d="M1281.7,825.4h-2.6h-0.1h-7.1v-9.4h7.8v5.2h-3.9v-1.5h2.3c0.1,0,0.1-0.1,0.1-0.1V818
						c0-0.1-0.1-0.1-0.1-0.1h-4.5c-0.1,0-0.1,0.1-0.1,0.1v5.5c0,0.1,0.1,0.1,0.1,0.1h8.1c0.1,0,0.1-0.1,0.1-0.1v-9.7
						c0-0.1-0.1-0.1-0.1-0.1h-12.2c-0.1,0-0.1,0.1-0.1,0.1v11.8h-4.3h-0.2h-7.1v-9.4h7.8v5.2h-3.9v-1.5h2.3c0.1,0,0.1-0.1,0.1-0.1
						v-1.7c0-0.1-0.1-0.1-0.1-0.1h-4.5c-0.1,0-0.1,0.1-0.1,0.1v5.5c0,0.1,0.1,0.1,0.1,0.1h8.1c0.1,0,0.1-0.1,0.1-0.1v-9.7
						c0-0.1-0.1-0.1-0.1-0.1h-12c-0.1,0-0.1,0.1-0.1,0.1v11.8h-1.7v0.2h1.8c0.1,0,0.1-0.1,0.1-0.1v-11.8h11.8v9.6h-7.9v-5.2h4.4v1.5
						h-2.3c-0.1,0-0.1,0.1-0.1,0.1v1.8c0,0.1,0.1,0.1,0.1,0.1h4.1c0.1,0,0.1-0.1,0.1-0.1v-5.4c0-0.1-0.1-0.1-0.1-0.1h-7.9
						c-0.1,0-0.1,0.1-0.1,0.1v9.6c0,0.1,0.1,0.1,0.1,0.1h7.2h0.2h4.4c0.1,0,0.1-0.1,0.1-0.1v-11.8h11.8v9.6h-7.9v-5.2h4.4v1.5h-2.3
						c-0.1,0-0.1,0.1-0.1,0.1v1.8c0,0.1,0.1,0.1,0.1,0.1h4.1c0.1,0,0.1-0.1,0.1-0.1v-5.4c0-0.1-0.1-0.1-0.1-0.1h-7.9
						c-0.1,0-0.1,0.1-0.1,0.1v9.6c0,0.1,0.1,0.1,0.1,0.1h7.3h0.1h2.6L1281.7,825.4L1281.7,825.4z"/>
				</g>
				<g>
					<path fill="#DC7D27" d="M1309.6,825.4h-2.6h-0.1h-7.1v-9.4h7.8v5.2h-3.9v-1.5h2.3c0.1,0,0.1-0.1,0.1-0.1V818
						c0-0.1-0.1-0.1-0.1-0.1h-4.5c-0.1,0-0.1,0.1-0.1,0.1v5.5c0,0.1,0.1,0.1,0.1,0.1h8.1c0.1,0,0.1-0.1,0.1-0.1v-9.7
						c0-0.1-0.1-0.1-0.1-0.1h-12c-0.1,0-0.1,0.1-0.1,0.1v11.8h-4.3h-0.2h-7.1v-9.4h7.8v5.2h-3.9v-1.5h2.3c0.1,0,0.1-0.1,0.1-0.1
						v-1.7c0-0.1-0.1-0.1-0.1-0.1h-4.5c-0.1,0-0.1,0.1-0.1,0.1v5.5c0,0.1,0.1,0.1,0.1,0.1h8.1c0.1,0,0.1-0.1,0.1-0.1v-9.7
						c0-0.1-0.1-0.1-0.1-0.1h-12c-0.1,0-0.1,0.1-0.1,0.1v11.8h-1.7v0.2h1.8c0.1,0,0.1-0.1,0.1-0.1v-11.8h11.8v9.6h-7.9v-5.2h4.4v1.5
						h-2.3c-0.1,0-0.1,0.1-0.1,0.1v1.8c0,0.1,0.1,0.1,0.1,0.1h4.1c0.1,0,0.1-0.1,0.1-0.1v-5.4c0-0.1-0.1-0.1-0.1-0.1h-7.9
						c-0.1,0-0.1,0.1-0.1,0.1v9.6c0,0.1,0.1,0.1,0.1,0.1h7.2h0.2h4.4c0.1,0,0.1-0.1,0.1-0.1v-11.8h11.8v9.6h-7.9v-5.2h4.4v1.5h-2.3
						c-0.1,0-0.1,0.1-0.1,0.1v1.8c0,0.1,0.1,0.1,0.1,0.1h4.1c0.1,0,0.1-0.1,0.1-0.1v-5.4c0-0.1-0.1-0.1-0.1-0.1h-7.9
						c-0.1,0-0.1,0.1-0.1,0.1v9.6c0,0.1,0.1,0.1,0.1,0.1h7.3h0.1h2.6v-0.8H1309.6z"/>
				</g>
				<g>
					<path fill="#DC7D27" d="M1337.5,825.4h-2.6h-0.1h-7.1v-9.4h7.8v5.2h-3.9v-1.5h2.3c0.1,0,0.1-0.1,0.1-0.1V818
						c0-0.1-0.1-0.1-0.1-0.1h-4.5c-0.1,0-0.1,0.1-0.1,0.1v5.5c0,0.1,0.1,0.1,0.1,0.1h8.1c0.1,0,0.1-0.1,0.1-0.1v-9.7
						c0-0.1-0.1-0.1-0.1-0.1h-12.2c-0.1,0-0.1,0.1-0.1,0.1v11.8h-4.3h-0.2h-7.1v-9.4h7.8v5.2h-3.9v-1.5h2.3c0.1,0,0.1-0.1,0.1-0.1
						v-1.7c0-0.1-0.1-0.1-0.1-0.1h-4.5c-0.1,0-0.1,0.1-0.1,0.1v5.5c0,0.1,0.1,0.1,0.1,0.1h8.1c0.1,0,0.1-0.1,0.1-0.1v-9.7
						c0-0.1-0.1-0.1-0.1-0.1h-12c-0.1,0-0.1,0.1-0.1,0.1v11.8h-1.7v0.2h1.8c0.1,0,0.1-0.1,0.1-0.1v-11.8h11.8v9.6h-7.9v-5.2h4.4v1.5
						h-2.3c-0.1,0-0.1,0.1-0.1,0.1v1.8c0,0.1,0.1,0.1,0.1,0.1h4.1c0.1,0,0.1-0.1,0.1-0.1v-5.4c0-0.1-0.1-0.1-0.1-0.1h-7.9
						c-0.1,0-0.1,0.1-0.1,0.1v9.6c0,0.1,0.1,0.1,0.1,0.1h7.2h0.2h4.4c0.1,0,0.1-0.1,0.1-0.1v-11.8h11.8v9.6h-7.9v-5.2h4.4v1.5h-2.3
						c-0.1,0-0.1,0.1-0.1,0.1v1.8c0,0.1,0.1,0.1,0.1,0.1h4.1c0.1,0,0.1-0.1,0.1-0.1v-5.4c0-0.1-0.1-0.1-0.1-0.1h-7.9
						c-0.1,0-0.1,0.1-0.1,0.1v9.6c0,0.1,0.1,0.1,0.1,0.1h7.3h0.1h2.6L1337.5,825.4L1337.5,825.4z"/>
				</g>
				<g>
					<path fill="#DC7D27" d="M1365.4,825.4h-2.6h-0.1h-7.1v-9.4h7.8v5.2h-3.9v-1.5h2.3c0.1,0,0.1-0.1,0.1-0.1V818
						c0-0.1-0.1-0.1-0.1-0.1h-4.5c-0.1,0-0.1,0.1-0.1,0.1v5.5c0,0.1,0.1,0.1,0.1,0.1h8.1c0.1,0,0.1-0.1,0.1-0.1v-9.7
						c0-0.1-0.1-0.1-0.1-0.1h-12c-0.1,0-0.1,0.1-0.1,0.1v11.8h-4.3h-0.2h-7.1v-9.4h7.8v5.2h-3.9v-1.5h2.3c0.1,0,0.1-0.1,0.1-0.1
						v-1.7c0-0.1-0.1-0.1-0.1-0.1h-4.5c-0.1,0-0.1,0.1-0.1,0.1v5.5c0,0.1,0.1,0.1,0.1,0.1h8.1c0.1,0,0.1-0.1,0.1-0.1v-9.7
						c0-0.1-0.1-0.1-0.1-0.1h-12c-0.1,0-0.1,0.1-0.1,0.1v11.8h-1.7v0.2h1.8c0.1,0,0.1-0.1,0.1-0.1v-11.8h11.8v9.6h-7.9v-5.2h4.4v1.5
						h-2.3c-0.1,0-0.1,0.1-0.1,0.1v1.8c0,0.1,0.1,0.1,0.1,0.1h4.1c0.1,0,0.1-0.1,0.1-0.1v-5.4c0-0.1-0.1-0.1-0.1-0.1h-7.9
						c-0.1,0-0.1,0.1-0.1,0.1v9.6c0,0.1,0.1,0.1,0.1,0.1h7.2h0.2h4.4c0.1,0,0.1-0.1,0.1-0.1v-11.8h11.8v9.6h-7.9v-5.2h4.4v1.5h-2.3
						c-0.1,0-0.1,0.1-0.1,0.1v1.8c0,0.1,0.1,0.1,0.1,0.1h4.1c0.1,0,0.1-0.1,0.1-0.1v-5.4c0-0.1-0.1-0.1-0.1-0.1h-7.9
						c-0.1,0-0.1,0.1-0.1,0.1v9.6c0,0.1,0.1,0.1,0.1,0.1h7.3h0.1h2.6v-0.8H1365.4z"/>
				</g>
				<g>
					<path fill="#DC7D27" d="M1393.3,825.4h-2.6h-0.1h-7.1v-9.4h7.8v5.2h-3.9v-1.5h2.3c0.1,0,0.1-0.1,0.1-0.1V818
						c0-0.1-0.1-0.1-0.1-0.1h-4.5c-0.1,0-0.1,0.1-0.1,0.1v5.5c0,0.1,0.1,0.1,0.1,0.1h8.1c0.1,0,0.1-0.1,0.1-0.1v-9.7
						c0-0.1-0.1-0.1-0.1-0.1h-12.2c-0.1,0-0.1,0.1-0.1,0.1v11.8h-4.3h-0.2h-7.1v-9.4h7.8v5.2h-3.9v-1.5h2.3c0.1,0,0.1-0.1,0.1-0.1
						v-1.7c0-0.1-0.1-0.1-0.1-0.1h-4.5c-0.1,0-0.1,0.1-0.1,0.1v5.5c0,0.1,0.1,0.1,0.1,0.1h8.1c0.1,0,0.1-0.1,0.1-0.1v-9.7
						c0-0.1-0.1-0.1-0.1-0.1h-12c-0.1,0-0.1,0.1-0.1,0.1v11.8h-1.7v0.2h1.8c0.1,0,0.1-0.1,0.1-0.1v-11.8h11.8v9.6h-7.9v-5.2h4.4v1.5
						h-2.3c-0.1,0-0.1,0.1-0.1,0.1v1.8c0,0.1,0.1,0.1,0.1,0.1h4.1c0.1,0,0.1-0.1,0.1-0.1v-5.4c0-0.1-0.1-0.1-0.1-0.1h-7.9
						c-0.1,0-0.1,0.1-0.1,0.1v9.6c0,0.1,0.1,0.1,0.1,0.1h7.2h0.2h4.4c0.1,0,0.1-0.1,0.1-0.1v-11.8h11.8v9.6h-7.9v-5.2h4.4v1.5h-2.3
						c-0.1,0-0.1,0.1-0.1,0.1v1.8c0,0.1,0.1,0.1,0.1,0.1h4.1c0.1,0,0.1-0.1,0.1-0.1v-5.4c0-0.1-0.1-0.1-0.1-0.1h-7.9
						c-0.1,0-0.1,0.1-0.1,0.1v9.6c0,0.1,0.1,0.1,0.1,0.1h7.3h0.1h2.6L1393.3,825.4L1393.3,825.4z"/>
				</g>
				<g>
					<path fill="#DC7D27" d="M1421.2,825.4h-2.6h-0.1h-7.1v-9.4h7.8v5.2h-3.9v-1.5h2.3c0.1,0,0.1-0.1,0.1-0.1V818
						c0-0.1-0.1-0.1-0.1-0.1h-4.5c-0.1,0-0.1,0.1-0.1,0.1v5.5c0,0.1,0.1,0.1,0.1,0.1h8.1c0.1,0,0.1-0.1,0.1-0.1v-9.7
						c0-0.1-0.1-0.1-0.1-0.1h-12c-0.1,0-0.1,0.1-0.1,0.1v11.8h-4.3h-0.2h-7.1v-9.4h7.8v5.2h-3.9v-1.5h2.3c0.1,0,0.1-0.1,0.1-0.1
						v-1.7c0-0.1-0.1-0.1-0.1-0.1h-4.5c-0.1,0-0.1,0.1-0.1,0.1v5.5c0,0.1,0.1,0.1,0.1,0.1h8.1c0.1,0,0.1-0.1,0.1-0.1v-9.7
						c0-0.1-0.1-0.1-0.1-0.1h-12c-0.1,0-0.1,0.1-0.1,0.1v11.8h-1.7v0.2h1.8c0.1,0,0.1-0.1,0.1-0.1v-11.8h11.8v9.6h-7.9v-5.2h4.4v1.5
						h-2.3c-0.1,0-0.1,0.1-0.1,0.1v1.8c0,0.1,0.1,0.1,0.1,0.1h4.1c0.1,0,0.1-0.1,0.1-0.1v-5.4c0-0.1-0.1-0.1-0.1-0.1h-7.9
						c-0.1,0-0.1,0.1-0.1,0.1v9.6c0,0.1,0.1,0.1,0.1,0.1h7.2h0.2h4.4c0.1,0,0.1-0.1,0.1-0.1v-11.8h11.8v9.6h-7.9v-5.2h4.4v1.5h-2.3
						c-0.1,0-0.1,0.1-0.1,0.1v1.8c0,0.1,0.1,0.1,0.1,0.1h4.1c0.1,0,0.1-0.1,0.1-0.1v-5.4c0-0.1-0.1-0.1-0.1-0.1h-7.9
						c-0.1,0-0.1,0.1-0.1,0.1v9.6c0,0.1,0.1,0.1,0.1,0.1h7.3h0.1h2.6v-0.8H1421.2z"/>
				</g>
				<g>
					<path fill="#DC7D27" d="M1449.1,825.4h-2.6h-0.1h-7.1v-9.4h7.8v5.2h-3.9v-1.5h2.3c0.1,0,0.1-0.1,0.1-0.1V818
						c0-0.1-0.1-0.1-0.1-0.1h-4.5c-0.1,0-0.1,0.1-0.1,0.1v5.5c0,0.1,0.1,0.1,0.1,0.1h8.1c0.1,0,0.1-0.1,0.1-0.1v-9.7
						c0-0.1-0.1-0.1-0.1-0.1h-12.2c-0.1,0-0.1,0.1-0.1,0.1v11.8h-4.3h-0.2h-7.1v-9.4h7.8v5.2h-3.9v-1.5h2.3c0.1,0,0.1-0.1,0.1-0.1
						v-1.7c0-0.1-0.1-0.1-0.1-0.1h-4.5c-0.1,0-0.1,0.1-0.1,0.1v5.5c0,0.1,0.1,0.1,0.1,0.1h8.1c0.1,0,0.1-0.1,0.1-0.1v-9.7
						c0-0.1-0.1-0.1-0.1-0.1h-12c-0.1,0-0.1,0.1-0.1,0.1v11.8h-1.7v0.2h1.8c0.1,0,0.1-0.1,0.1-0.1v-11.8h11.8v9.6h-7.9v-5.2h4.4v1.5
						h-2.3c-0.1,0-0.1,0.1-0.1,0.1v1.8c0,0.1,0.1,0.1,0.1,0.1h4.1c0.1,0,0.1-0.1,0.1-0.1v-5.4c0-0.1-0.1-0.1-0.1-0.1h-7.9
						c-0.1,0-0.1,0.1-0.1,0.1v9.6c0,0.1,0.1,0.1,0.1,0.1h7.2h0.2h4.4c0.1,0,0.1-0.1,0.1-0.1v-11.8h11.8v9.6h-7.9v-5.2h4.4v1.5h-2.3
						c-0.1,0-0.1,0.1-0.1,0.1v1.8c0,0.1,0.1,0.1,0.1,0.1h4.1c0.1,0,0.1-0.1,0.1-0.1v-5.4c0-0.1-0.1-0.1-0.1-0.1h-7.9
						c-0.1,0-0.1,0.1-0.1,0.1v9.6c0,0.1,0.1,0.1,0.1,0.1h7.3h0.1h2.6L1449.1,825.4L1449.1,825.4z"/>
				</g>
				<g>
					<path fill="#DC7D27" d="M1477,825.4h-2.6h-0.1h-7.1v-9.4h7.8v5.2h-3.9v-1.5h2.3c0.1,0,0.1-0.1,0.1-0.1V818
						c0-0.1-0.1-0.1-0.1-0.1h-4.5c-0.1,0-0.1,0.1-0.1,0.1v5.5c0,0.1,0.1,0.1,0.1,0.1h8.1c0.1,0,0.1-0.1,0.1-0.1v-9.7
						c0-0.1-0.1-0.1-0.1-0.1h-12c-0.1,0-0.1,0.1-0.1,0.1v11.8h-4.3h-0.2h-7.1v-9.4h7.8v5.2h-3.9v-1.5h2.3c0.1,0,0.1-0.1,0.1-0.1
						v-1.7c0-0.1-0.1-0.1-0.1-0.1h-4.5c-0.1,0-0.1,0.1-0.1,0.1v5.5c0,0.1,0.1,0.1,0.1,0.1h8.1c0.1,0,0.1-0.1,0.1-0.1v-9.7
						c0-0.1-0.1-0.1-0.1-0.1h-12c-0.1,0-0.1,0.1-0.1,0.1v11.8h-1.7v0.2h1.8c0.1,0,0.1-0.1,0.1-0.1v-11.8h11.8v9.6h-7.9v-5.2h4.4v1.5
						h-2.3c-0.1,0-0.1,0.1-0.1,0.1v1.8c0,0.1,0.1,0.1,0.1,0.1h4.1c0.1,0,0.1-0.1,0.1-0.1v-5.4c0-0.1-0.1-0.1-0.1-0.1h-7.9
						c-0.1,0-0.1,0.1-0.1,0.1v9.6c0,0.1,0.1,0.1,0.1,0.1h7.2h0.2h4.4c0.1,0,0.1-0.1,0.1-0.1v-11.8h11.8v9.6h-7.9v-5.2h4.4v1.5h-2.3
						c-0.1,0-0.1,0.1-0.1,0.1v1.8c0,0.1,0.1,0.1,0.1,0.1h4.1c0.1,0,0.1-0.1,0.1-0.1v-5.4c0-0.1-0.1-0.1-0.1-0.1h-7.9
						c-0.1,0-0.1,0.1-0.1,0.1v9.6c0,0.1,0.1,0.1,0.1,0.1h7.3h0.1h2.6v-0.8H1477z"/>
				</g>
			</g>
		</g>
	</g>
	<g>
		<rect x="748.8" y="867" fill="#290C07" stroke="#DC7D27" stroke-width="0.1" stroke-miterlimit="10" width="44" height="62.4"/>
		<polygon fill="#321512" stroke="#DC7D27" stroke-width="0.1" stroke-miterlimit="10" points="795.7,867 746.4,867 743.5,864.2 
			798.6,864.2 		"/>
	</g>
	<g>
		<rect x="1345.3" y="867" fill="#290C07" stroke="#DC7D27" stroke-width="0.1" stroke-miterlimit="10" width="44" height="62.4"/>
		<polygon fill="#321512" stroke="#DC7D27" stroke-width="0.1" stroke-miterlimit="10" points="1392.2,867 1342.8,867 1339.9,864.2 
			1395,864.2 		"/>
	</g>
</g>
</svg>
