<?xml version="1.0" encoding="UTF-8" standalone="no"?>
<svg viewBox="0 0 279 147" version="1.1" xmlns="http://www.w3.org/2000/svg" xmlns:xlink="http://www.w3.org/1999/xlink" xmlns:sketch="http://www.bohemiancoding.com/sketch/ns">
    <!-- Generator: Sketch 3.3 (11970) - http://www.bohemiancoding.com/sketch -->
    <title>ekran11-02</title>
    <desc>Created with Sketch.</desc>
    <defs></defs>
    <g id="Page-1" stroke="none" stroke-width="1" fill="none" fill-rule="evenodd" sketch:type="MSPage">
        <g id="ekran11-02" sketch:type="MSLayerGroup">
            <g id="Group" sketch:type="MSShapeGroup">
                <path d="M251.5,71.1 L251.6,1.2 L0,0.9 L1.7,146.4 L278.2,146.7 L278.3,71.1 L251.5,71.1 Z" id="Shape" fill="#FFFFFF"></path>
                <g transform="translate(13.000000, 20.000000)" id="Shape" fill="#000000">
                    <path d="M9.2,13.8 L8.3,10.9 L3.9,10.9 L3,13.8 L0.2,13.8 L4.5,1.7 L7.6,1.7 L12,13.8 L9.2,13.8 L9.2,13.8 Z M7.7,8.8 C6.9,6.2 6.4,4.7 6.3,4.4 C6.2,4.1 6.1,3.8 6.1,3.6 C5.9,4.3 5.4,6 4.5,8.8 L7.7,8.8 L7.7,8.8 Z"></path>
                    <path d="M21.8,13.8 L19.3,13.8 L19.3,8.4 C19.3,7.7 19.2,7.2 18.9,6.9 C18.7,6.6 18.3,6.4 17.8,6.4 C17.1,6.4 16.6,6.6 16.3,7.1 C16,7.6 15.8,8.3 15.8,9.4 L15.8,13.7 L13.3,13.7 L13.3,4.5 L15.2,4.5 L15.5,5.7 L15.6,5.7 C15.9,5.3 16.3,4.9 16.8,4.7 C17.3,4.5 17.9,4.4 18.5,4.4 C19.6,4.4 20.4,4.7 20.9,5.3 C21.5,5.9 21.7,6.7 21.7,7.8 L21.8,13.8 L21.8,13.8 Z"></path>
                    <path d="M27.3,14 C26.2,14 25.4,13.6 24.7,12.7 C24.1,11.9 23.8,10.7 23.8,9.2 C23.8,7.7 24.1,6.5 24.7,5.7 C25.3,4.9 26.2,4.4 27.3,4.4 C28.5,4.4 29.3,4.9 30,5.8 L30.1,5.8 C30,5.1 29.9,4.5 29.9,4 L29.9,1 L32.4,1 L32.4,13.8 L30.5,13.8 L30,12.6 L29.9,12.6 C29.4,13.5 28.5,14 27.3,14 L27.3,14 Z M28.2,12 C28.8,12 29.3,11.8 29.6,11.4 C29.9,11 30.1,10.4 30.1,9.5 L30.1,9.2 C30.1,8.2 29.9,7.5 29.6,7.1 C29.3,6.7 28.8,6.5 28.1,6.5 C27.5,6.5 27.1,6.7 26.8,7.2 C26.5,7.7 26.3,8.4 26.3,9.3 C26.3,10.2 26.5,10.9 26.8,11.3 C27.2,11.8 27.6,12 28.2,12 L28.2,12 Z"></path>
                    <path d="M39.3,14 C37.8,14 36.7,13.6 35.8,12.8 C35,12 34.5,10.8 34.6,9.3 C34.6,7.8 35,6.6 35.8,5.7 C36.6,4.9 37.6,4.4 39,4.4 C40.3,4.4 41.3,4.8 42,5.5 C42.7,6.2 43.1,7.3 43.1,8.6 L43.1,9.8 L37.2,9.8 C37.2,10.5 37.4,11.1 37.8,11.5 C38.2,11.9 38.8,12.1 39.5,12.1 C40.1,12.1 40.6,12 41.1,11.9 C41.6,11.8 42.1,11.6 42.7,11.3 L42.7,13.2 C42.3,13.4 41.8,13.6 41.3,13.7 C40.6,13.9 40,14 39.3,14 L39.3,14 Z M38.9,6.2 C38.4,6.2 37.9,6.4 37.6,6.7 C37.3,7 37.1,7.5 37.1,8.1 L40.6,8.1 C40.6,7.5 40.4,7 40.1,6.7 C39.9,6.4 39.5,6.2 38.9,6.2 L38.9,6.2 Z"></path>
                    <path d="M50.2,4.5 C50.5,4.5 50.8,4.5 51,4.6 L50.8,7 C50.6,6.9 50.3,6.9 50.1,6.9 C49.3,6.9 48.7,7.1 48.2,7.5 C47.8,7.9 47.5,8.5 47.5,9.2 L47.5,13.9 L45,13.9 L45,4.7 L46.9,4.7 L47.3,6.3 L47.4,6.3 C47.7,5.8 48.1,5.4 48.6,5.1 C49.1,4.6 49.7,4.5 50.2,4.5 L50.2,4.5 Z"></path>
                    <path d="M59.2,11.1 C59.2,12 58.9,12.8 58.2,13.3 C57.5,13.8 56.6,14 55.3,14 C54.6,14 54.1,14 53.6,13.9 C53.1,13.8 52.7,13.7 52.3,13.5 L52.3,11.4 C52.8,11.6 53.3,11.8 53.9,12 C54.5,12.1 55,12.2 55.4,12.2 C56.3,12.2 56.8,11.9 56.8,11.4 C56.8,11.2 56.7,11 56.6,10.9 C56.5,10.8 56.3,10.6 56,10.5 C55.7,10.3 55.3,10.2 54.8,10 C54.1,9.7 53.6,9.4 53.2,9.2 C52.9,8.9 52.6,8.7 52.5,8.3 C52.3,8 52.3,7.6 52.3,7.1 C52.3,6.3 52.6,5.6 53.3,5.2 C53.9,4.8 54.8,4.5 56,4.5 C57.1,4.5 58.2,4.7 59.2,5.2 L58.3,7 C57.8,6.8 57.4,6.6 57,6.5 C56.6,6.4 56.2,6.3 55.8,6.3 C55.1,6.3 54.7,6.5 54.7,6.9 C54.7,7.1 54.8,7.3 55.1,7.5 C55.3,7.7 55.9,7.9 56.7,8.2 C57.4,8.5 57.9,8.8 58.3,9 C58.6,9.3 58.9,9.5 59,9.9 C59.1,10.3 59.2,10.7 59.2,11.1 L59.2,11.1 Z"></path>
                    <path d="M65.3,14 C63.8,14 62.7,13.6 61.8,12.8 C61,12 60.5,10.8 60.6,9.3 C60.6,7.8 61,6.6 61.8,5.7 C62.6,4.9 63.6,4.4 65,4.4 C66.3,4.4 67.3,4.8 68,5.5 C68.7,6.2 69.1,7.3 69.1,8.6 L69.1,9.8 L63.2,9.8 C63.2,10.5 63.4,11.1 63.8,11.5 C64.2,11.9 64.8,12.1 65.5,12.1 C66.1,12.1 66.6,12 67.1,11.9 C67.6,11.8 68.1,11.6 68.7,11.3 L68.7,13.2 C68.3,13.4 67.8,13.6 67.3,13.7 C66.6,14 66,14 65.3,14 L65.3,14 Z M65,6.3 C64.5,6.3 64,6.5 63.7,6.8 C63.4,7.1 63.2,7.6 63.2,8.2 L66.7,8.2 C66.7,7.6 66.5,7.1 66.2,6.8 C65.9,6.4 65.5,6.3 65,6.3 L65,6.3 Z"></path>
                    <path d="M79.6,13.9 L77.1,13.9 L77.1,8.5 C77.1,7.8 77,7.3 76.7,7 C76.5,6.7 76.1,6.5 75.6,6.5 C74.9,6.5 74.4,6.7 74.1,7.2 C73.8,7.7 73.6,8.4 73.6,9.5 L73.6,13.8 L71.1,13.8 L71.1,4.6 L73,4.6 L73.3,5.8 L73.4,5.8 C73.7,5.4 74.1,5 74.6,4.8 C75.1,4.6 75.7,4.5 76.3,4.5 C77.4,4.5 78.2,4.8 78.7,5.4 C79.3,6 79.5,6.8 79.5,7.9 L79.6,13.9 L79.6,13.9 Z"></path>
                    <path d="M96.7,13.9 L94.2,13.9 L94.2,8.7 L89.4,8.7 L89.4,13.9 L86.8,13.9 L86.8,1.8 L89.4,1.8 L89.4,6.5 L94.2,6.5 L94.2,1.8 L96.7,1.8 L96.7,13.9 L96.7,13.9 Z"></path>
                    <path d="M105.4,13.9 L104.9,12.6 L104.8,12.6 C104.4,13.1 103.9,13.5 103.5,13.7 C103.1,13.9 102.5,14 101.7,14 C100.8,14 100.1,13.7 99.6,13.2 C99.1,12.7 98.8,12 98.8,11 C98.8,10 99.1,9.3 99.8,8.8 C100.5,8.3 101.5,8.1 102.9,8 L104.5,8 L104.5,7.6 C104.5,6.7 104,6.2 103.1,6.2 C102.4,6.2 101.5,6.4 100.5,6.9 L99.7,5.2 C100.8,4.6 101.9,4.4 103.2,4.4 C104.4,4.4 105.4,4.7 106,5.2 C106.7,5.7 107,6.6 107,7.7 L107,13.8 L105.4,13.9 L105.4,13.9 Z M104.7,9.6 L103.7,9.6 C103,9.6 102.4,9.8 102.1,10 C101.7,10.2 101.6,10.6 101.6,11.1 C101.6,11.8 102,12.2 102.8,12.2 C103.4,12.2 103.8,12 104.2,11.7 C104.5,11.4 104.7,10.9 104.7,10.4 L104.7,9.6 L104.7,9.6 Z"></path>
                    <path d="M118.3,13.9 L115.8,13.9 L115.8,8.5 C115.8,7.8 115.7,7.3 115.4,7 C115.2,6.7 114.8,6.5 114.3,6.5 C113.6,6.5 113.1,6.7 112.8,7.2 C112.5,7.7 112.3,8.4 112.3,9.5 L112.3,13.8 L109.8,13.8 L109.8,4.6 L111.7,4.6 L112,5.8 L112.1,5.8 C112.4,5.4 112.8,5 113.3,4.8 C113.8,4.6 114.4,4.5 115,4.5 C116.1,4.5 116.9,4.8 117.4,5.4 C118,6 118.2,6.8 118.2,7.9 L118.3,13.9 L118.3,13.9 Z"></path>
                    <path d="M127.3,11.2 C127.3,12.1 127,12.9 126.3,13.4 C125.6,13.9 124.7,14.1 123.4,14.1 C122.7,14.1 122.2,14.1 121.7,14 C121.2,13.9 120.8,13.8 120.4,13.6 L120.4,11.5 C120.9,11.7 121.4,11.9 122,12.1 C122.6,12.2 123.1,12.3 123.5,12.3 C124.4,12.3 124.9,12 124.9,11.5 C124.9,11.3 124.8,11.1 124.7,11 C124.6,10.9 124.4,10.7 124.1,10.6 C123.8,10.4 123.4,10.3 122.9,10.1 C122.2,9.8 121.7,9.5 121.3,9.3 C121,9 120.7,8.8 120.6,8.4 C120.4,8.1 120.4,7.7 120.4,7.2 C120.4,6.4 120.7,5.7 121.4,5.3 C122,4.9 122.9,4.6 124.1,4.6 C125.2,4.6 126.3,4.8 127.3,5.3 L126.5,7.1 C126,6.9 125.6,6.7 125.2,6.6 C124.8,6.5 124.4,6.4 124,6.4 C123.3,6.4 122.9,6.6 122.9,7 C122.9,7.2 123,7.4 123.3,7.6 C123.5,7.8 124.1,8 124.9,8.3 C125.6,8.6 126.1,8.9 126.5,9.1 C126.8,9.4 127.1,9.6 127.2,10 C127.2,10.4 127.3,10.7 127.3,11.2 L127.3,11.2 Z"></path>
                    <path d="M139,3.9 C138,3.9 137.3,4.3 136.8,5 C136.3,5.7 136,6.7 136,8 C136,10.7 137,12 139,12 C139.8,12 140.9,11.8 142.1,11.4 L142.1,13.5 C141.1,13.9 140,14.1 138.8,14.1 C137,14.1 135.7,13.6 134.8,12.5 C133.9,11.4 133.4,9.9 133.4,7.9 C133.4,6.6 133.6,5.5 134.1,4.6 C134.6,3.7 135.2,2.9 136.1,2.4 C137,1.9 138,1.6 139.1,1.6 C140.3,1.6 141.4,1.9 142.6,2.5 L141.8,4.6 C141.3,4.4 140.9,4.2 140.4,4 C139.9,3.9 139.4,3.9 139,3.9 L139,3.9 Z"></path>
                    <path d="M152.9,14 L150.4,14 L150.4,8.6 C150.4,7.3 149.9,6.6 148.9,6.6 C148.2,6.6 147.7,6.8 147.4,7.3 C147.1,7.8 146.9,8.6 146.9,9.6 L146.9,13.9 L144.4,13.9 L144.4,1.1 L146.9,1.1 L146.9,3.7 C146.9,3.9 146.9,4.4 146.8,5.1 L146.7,5.8 L146.8,5.8 C147.4,4.9 148.3,4.4 149.5,4.5 C150.6,4.5 151.4,4.8 152,5.4 C152.6,6 152.8,6.8 152.8,7.9 L152.9,14 L152.9,14 Z"></path>
                    <path d="M160.7,4.6 C161,4.6 161.3,4.6 161.5,4.7 L161.3,7.1 C161.1,7 160.8,7 160.6,7 C159.8,7 159.2,7.2 158.7,7.6 C158.3,8 158,8.6 158,9.3 L158,14 L155.5,14 L155.5,4.8 L157.4,4.8 L157.8,6.4 L157.9,6.4 C158.2,5.9 158.6,5.5 159.1,5.2 C159.6,4.7 160.1,4.6 160.7,4.6 L160.7,4.6 Z"></path>
                    <path d="M163.1,2.4 C163.1,1.6 163.6,1.2 164.5,1.2 C165.4,1.2 165.9,1.6 165.9,2.4 C165.9,2.8 165.8,3.1 165.6,3.3 C165.4,3.5 165,3.6 164.6,3.6 C163.5,3.6 163.1,3.2 163.1,2.4 L163.1,2.4 Z M165.7,14 L163.2,14 L163.2,4.8 L165.7,4.8 L165.7,14 L165.7,14 Z"></path>
                    <path d="M174.8,11.3 C174.8,12.2 174.5,13 173.8,13.5 C173.1,14 172.2,14.2 170.9,14.2 C170.2,14.2 169.7,14.2 169.2,14.1 C168.7,14 168.3,13.9 167.9,13.7 L167.9,11.6 C168.4,11.8 168.9,12 169.5,12.2 C170.1,12.3 170.6,12.4 171,12.4 C171.9,12.4 172.4,12.1 172.4,11.6 C172.4,11.4 172.3,11.2 172.2,11.1 C172.1,11 171.9,10.8 171.6,10.7 C171.3,10.5 170.9,10.4 170.4,10.2 C169.7,9.9 169.2,9.6 168.8,9.4 C168.5,9.1 168.2,8.9 168.1,8.5 C167.9,8.2 167.9,7.8 167.9,7.3 C167.9,6.5 168.2,5.8 168.9,5.4 C169.5,5 170.4,4.7 171.6,4.7 C172.7,4.7 173.8,4.9 174.8,5.4 L174,7.2 C173.5,7 173.1,6.8 172.7,6.7 C172.3,6.6 171.9,6.5 171.5,6.5 C170.8,6.5 170.4,6.7 170.4,7.1 C170.4,7.3 170.5,7.5 170.8,7.7 C171,7.9 171.6,8.1 172.4,8.4 C173.1,8.7 173.6,9 174,9.2 C174.3,9.5 174.6,9.7 174.7,10.1 C174.7,10.4 174.8,10.8 174.8,11.3 L174.8,11.3 Z"></path>
                    <path d="M180.6,12.2 C181,12.2 181.6,12.1 182.2,11.9 L182.2,13.8 C181.6,14.1 180.8,14.2 179.9,14.2 C178.9,14.2 178.2,13.9 177.7,13.4 C177.2,12.9 177,12.1 177,11.1 L177,6.7 L175.8,6.7 L175.8,5.6 L177.2,4.8 L177.9,2.9 L179.5,2.9 L179.5,4.9 L182.1,4.9 L182.1,6.8 L179.5,6.8 L179.5,11.2 C179.5,11.6 179.6,11.8 179.8,12 C180,12.1 180.3,12.2 180.6,12.2 L180.6,12.2 Z"></path>
                    <path d="M184,2.4 C184,1.6 184.5,1.2 185.4,1.2 C186.3,1.2 186.8,1.6 186.8,2.4 C186.8,2.8 186.7,3.1 186.5,3.3 C186.3,3.5 185.9,3.6 185.5,3.6 C184.4,3.6 184,3.2 184,2.4 L184,2.4 Z M186.6,14 L184.1,14 L184.1,4.8 L186.6,4.8 L186.6,14 L186.6,14 Z"></path>
                    <path d="M195.1,14 L194.6,12.7 L194.5,12.7 C194.1,13.2 193.6,13.6 193.2,13.8 C192.8,14 192.2,14.1 191.4,14.1 C190.5,14.1 189.8,13.8 189.3,13.3 C188.8,12.8 188.5,12.1 188.5,11.1 C188.5,10.1 188.8,9.4 189.5,8.9 C190.2,8.4 191.2,8.2 192.6,8.1 L194.2,8.1 L194.2,7.7 C194.2,6.8 193.7,6.3 192.8,6.3 C192.1,6.3 191.2,6.5 190.2,7 L189.4,5.3 C190.5,4.7 191.6,4.5 192.9,4.5 C194.1,4.5 195.1,4.8 195.7,5.3 C196.4,5.8 196.7,6.7 196.7,7.8 L196.7,13.9 L195.1,14 L195.1,14 Z M194.3,9.7 L193.3,9.7 C192.6,9.7 192,9.9 191.7,10.1 C191.3,10.3 191.2,10.7 191.2,11.2 C191.2,11.9 191.6,12.3 192.4,12.3 C193,12.3 193.4,12.1 193.8,11.8 C194.1,11.5 194.3,11 194.3,10.5 L194.3,9.7 L194.3,9.7 Z"></path>
                    <path d="M207.9,14 L205.4,14 L205.4,8.6 C205.4,7.9 205.3,7.4 205,7.1 C204.8,6.8 204.4,6.6 203.9,6.6 C203.2,6.6 202.7,6.8 202.4,7.3 C202.1,7.8 201.9,8.5 201.9,9.6 L201.9,13.9 L199.4,13.9 L199.4,4.7 L201.3,4.7 L201.6,5.9 L201.7,5.9 C202,5.5 202.4,5.1 202.9,4.9 C203.4,4.7 204,4.6 204.6,4.6 C205.7,4.6 206.5,4.9 207,5.5 C207.6,6.1 207.8,6.9 207.8,8 L207.9,14 L207.9,14 Z"></path>
                    <path d="M9.1,34.1 L8.4,34.1 L4.2,23.5 L4.1,23.5 C4,24.3 3.8,25.1 3.7,25.8 C3.6,26.5 3,29.3 1.9,34.1 L1.1,34.1 L3.7,22 L4.4,22 L8.7,32.7 L8.8,32.7 C8.9,31.7 9.1,30.6 9.4,29.3 L11,22.1 L11.8,22.1 L9.1,34.1 L9.1,34.1 Z"></path>
                    <path d="M17,24.9 C18,24.9 18.8,25.2 19.3,25.8 C19.8,26.4 20.1,27.2 20.1,28.3 C20.1,29.4 19.9,30.4 19.5,31.3 C19.1,32.2 18.6,33 17.9,33.5 C17.2,34 16.4,34.2 15.5,34.2 C14.5,34.2 13.7,33.9 13.2,33.3 C12.7,32.7 12.4,31.8 12.4,30.7 C12.4,29.6 12.6,28.7 13,27.7 C13.4,26.8 13.9,26.1 14.6,25.6 C15.3,25.2 16.1,24.9 17,24.9 L17,24.9 Z M16.9,25.6 C16.2,25.6 15.6,25.8 15.1,26.2 C14.6,26.6 14.1,27.2 13.8,28.1 C13.5,28.9 13.3,29.8 13.3,30.7 C13.3,32.6 14.1,33.5 15.6,33.5 C16.3,33.5 16.9,33.3 17.5,32.9 C18,32.5 18.5,31.8 18.8,31 C19.1,30.2 19.3,29.3 19.3,28.3 C19.3,27.5 19.1,26.8 18.7,26.3 C18.2,25.9 17.7,25.7 16.9,25.6 L16.9,25.6 Z"></path>
                    <path d="M27.8,34.1 L27.3,28.4 C27.2,27.2 27.2,26.4 27.2,26.2 L27.2,26.2 C27,26.7 26.6,27.5 26,28.6 L23,34.1 L22,34.1 L21.8,25.1 L22.6,25.1 L22.7,31.9 L22.7,33.2 C23,32.5 23.4,31.6 23.9,30.8 L27,25.2 L27.6,25.2 L28.1,30.8 C28.2,31.6 28.2,32.4 28.2,33.2 L28.2,33.2 L28.4,32.7 L29.2,30.8 L31.8,25.2 L32.6,25.2 L28.4,34.2 L27.8,34.1 L27.8,34.1 Z"></path>
                    <path d="M36.2,34.3 C35.2,34.3 34.5,34 34,33.4 C33.5,32.8 33.2,32 33.2,30.9 C33.2,29.9 33.4,29 33.8,28 C34.2,27.1 34.7,26.4 35.4,25.8 C36.1,25.3 36.8,25 37.7,25 C38.3,25 38.8,25.2 39.2,25.5 C39.6,25.8 39.8,26.3 39.8,26.9 C39.8,27.9 39.3,28.7 38.4,29.2 C37.5,29.7 36.2,30 34.4,30 L34.1,30 C34.1,30.2 34,30.5 34,30.8 C34,31.7 34.2,32.4 34.6,32.9 C35,33.4 35.6,33.6 36.4,33.6 C37.1,33.6 37.9,33.4 38.7,33 L38.7,33.8 C37.9,34.1 37.1,34.3 36.2,34.3 L36.2,34.3 Z M37.6,25.7 C36.9,25.7 36.2,26 35.6,26.7 C35,27.3 34.5,28.2 34.3,29.2 L34.7,29.2 C37.5,29.2 39,28.5 39,27 C39,26.6 38.9,26.3 38.6,26.1 C38.3,25.8 38,25.7 37.6,25.7 L37.6,25.7 Z"></path>
                    <path d="M50.3,31.7 C50.3,32.5 50,33.1 49.4,33.6 C48.8,34.1 48.1,34.3 47.1,34.3 C46.1,34.3 45.3,34.1 44.6,33.7 L44.6,32.8 C45,33.1 45.4,33.2 45.9,33.4 C46.3,33.5 46.7,33.6 47.1,33.6 C47.9,33.6 48.4,33.4 48.8,33.1 C49.2,32.8 49.4,32.3 49.4,31.8 C49.4,31.6 49.4,31.4 49.3,31.2 C49.2,31 49.1,30.9 48.9,30.7 C48.7,30.5 48.3,30.3 47.8,30 C47,29.6 46.4,29.2 46.2,28.8 C45.9,28.4 45.8,28 45.8,27.5 C45.8,26.8 46.1,26.2 46.6,25.8 C47.1,25.4 47.9,25.1 48.7,25.1 C49.1,25.1 49.5,25.1 50,25.2 C50.5,25.3 50.8,25.4 51.2,25.6 L50.9,26.3 C50.2,25.9 49.4,25.8 48.7,25.8 C48.1,25.8 47.6,25.9 47.2,26.2 C46.8,26.5 46.6,26.9 46.6,27.3 C46.6,27.6 46.6,27.8 46.7,28 C46.8,28.2 47,28.4 47.2,28.6 C47.4,28.8 47.8,29 48.2,29.2 C48.8,29.5 49.3,29.8 49.5,30.1 C49.8,30.3 50,30.6 50.1,30.8 C50.2,31.1 50.3,31.4 50.3,31.7 L50.3,31.7 Z"></path>
                    <path d="M57,34.1 L51,34.1 L51.1,33.5 L57.5,25.8 L53,25.8 L53.1,25.1 L58.5,25.1 L58.4,25.8 L52.1,33.4 L57.1,33.4 L57,34.1 L57,34.1 Z"></path>
                    <path d="M64,25 C65.3,25 66,25.6 66.3,26.8 L66.3,26.8 L66.8,25.1 L67.5,25.1 L65.6,34.1 L64.9,34.1 L65.3,31.8 C64.8,32.6 64.3,33.2 63.8,33.6 C63.2,34 62.6,34.2 61.8,34.2 C60.3,34.2 59.5,33.2 59.5,31.1 C59.5,30 59.7,29 60.1,28 C60.5,27 61.1,26.3 61.8,25.7 C62.4,25.3 63.1,25 64,25 L64,25 Z M61.9,33.6 C62.4,33.6 62.9,33.4 63.4,33.1 C63.9,32.8 64.3,32.3 64.7,31.7 C65.1,31.1 65.4,30.5 65.6,29.8 C65.8,29.1 65.9,28.5 65.9,28 C65.9,27.6 65.8,27.2 65.7,26.8 C65.6,26.5 65.3,26.2 65.1,26 C64.8,25.8 64.5,25.7 64.1,25.7 C63.4,25.7 62.8,25.9 62.3,26.4 C61.7,26.9 61.3,27.5 60.9,28.4 C60.5,29.3 60.4,30.2 60.4,31.1 C60.4,31.9 60.5,32.6 60.8,32.9 C60.9,33.4 61.4,33.6 61.9,33.6 L61.9,33.6 Z"></path>
                    <path d="M73.6,25.2 L73.5,25.9 L71.2,25.9 L70,31.1 C69.9,31.6 69.8,32.1 69.8,32.5 C69.8,33.3 70.1,33.6 70.8,33.6 C71.2,33.6 71.6,33.5 72.1,33.4 L72.1,34.1 C71.5,34.3 71.1,34.3 70.7,34.3 C70.2,34.3 69.7,34.1 69.4,33.8 C69.1,33.5 69,33.1 69,32.5 C69,32.1 69.1,31.5 69.2,30.8 L70.3,25.8 L68.8,25.8 L68.9,25.2 L70.4,25.1 L71.2,23 L71.7,23 L71.2,25.1 L73.6,25.2 L73.6,25.2 Z"></path>
                    <path d="M74,25.2 L74.8,25.2 L75.5,29.7 C75.8,31.6 75.9,32.9 75.9,33.4 L76,33.4 C76.2,32.8 76.7,31.8 77.5,30.4 L80.4,25.2 L81.2,25.2 L75.3,35.8 C74.9,36.5 74.6,37 74.3,37.3 C74,37.6 73.7,37.8 73.4,38 C73.1,38.2 72.6,38.2 72.2,38.2 C71.8,38.2 71.5,38.1 71.1,38 L71.1,37.2 C71.5,37.3 71.9,37.4 72.2,37.4 C72.6,37.4 73,37.3 73.4,37 C73.8,36.7 74.1,36.3 74.5,35.6 C74.8,35 75.1,34.5 75.3,34.1 L74,25.2 L74,25.2 Z"></path>
                    <path d="M88.9,34.3 C87.9,34.3 87.2,34 86.6,33.4 C86,32.8 85.8,31.9 85.8,30.9 C85.8,29.8 86,28.8 86.4,27.9 C86.8,27 87.4,26.3 88,25.8 C88.7,25.3 89.5,25.1 90.4,25.1 C91.1,25.1 91.8,25.2 92.4,25.5 L92.2,26.2 C91.6,25.9 91,25.8 90.4,25.8 C89.7,25.8 89.1,26 88.5,26.4 C87.9,26.8 87.5,27.4 87.2,28.2 C86.9,29 86.7,29.9 86.7,30.8 C86.7,31.7 86.9,32.3 87.3,32.8 C87.7,33.3 88.3,33.5 89,33.5 C89.4,33.5 89.8,33.5 90.1,33.4 C90.4,33.3 90.8,33.2 91.2,33 L91.2,33.8 C90.5,34.2 89.8,34.3 88.9,34.3 L88.9,34.3 Z"></path>
                    <path d="M96.1,34.3 C95.1,34.3 94.4,34 93.9,33.4 C93.4,32.8 93.1,32 93.1,30.9 C93.1,29.9 93.3,29 93.7,28 C94.1,27.1 94.6,26.4 95.3,25.8 C96,25.3 96.7,25 97.6,25 C98.2,25 98.7,25.2 99.1,25.5 C99.5,25.8 99.7,26.3 99.7,26.9 C99.7,27.9 99.2,28.7 98.3,29.2 C97.4,29.7 96.1,30 94.3,30 L94,30 C94,30.2 93.9,30.5 93.9,30.8 C93.9,31.7 94.1,32.4 94.5,32.9 C94.9,33.4 95.5,33.6 96.3,33.6 C97,33.6 97.8,33.4 98.6,33 L98.6,33.8 C97.8,34.2 97,34.3 96.1,34.3 L96.1,34.3 Z M97.5,25.8 C96.8,25.8 96.1,26.1 95.5,26.8 C94.9,27.4 94.4,28.3 94.2,29.3 L94.6,29.3 C97.4,29.3 98.9,28.6 98.9,27.1 C98.9,26.7 98.8,26.4 98.5,26.2 C98.2,25.9 97.9,25.8 97.5,25.8 L97.5,25.8 Z"></path>
                    <path d="M105.8,31.8 C105.8,32.6 105.5,33.2 104.9,33.7 C104.3,34.2 103.6,34.4 102.6,34.4 C101.6,34.4 100.8,34.2 100.1,33.8 L100.1,32.9 C100.5,33.2 100.9,33.3 101.4,33.5 C101.8,33.6 102.2,33.7 102.6,33.7 C103.4,33.7 103.9,33.5 104.3,33.2 C104.7,32.9 104.9,32.4 104.9,31.9 C104.9,31.7 104.9,31.5 104.8,31.3 C104.7,31.1 104.6,31 104.4,30.8 C104.2,30.6 103.8,30.4 103.3,30.1 C102.5,29.7 101.9,29.3 101.7,28.9 C101.4,28.5 101.3,28.1 101.3,27.6 C101.3,26.9 101.6,26.3 102.1,25.9 C102.6,25.5 103.4,25.2 104.2,25.2 C104.6,25.2 105,25.2 105.5,25.3 C106,25.4 106.3,25.5 106.7,25.7 L106.4,26.4 C105.7,26 104.9,25.9 104.2,25.9 C103.6,25.9 103.1,26 102.7,26.3 C102.3,26.6 102.1,27 102.1,27.4 C102.1,27.7 102.1,27.9 102.2,28.1 C102.3,28.3 102.5,28.5 102.7,28.7 C102.9,28.9 103.3,29.1 103.7,29.3 C104.3,29.6 104.8,29.9 105,30.2 C105.3,30.4 105.5,30.7 105.6,30.9 C105.8,31.1 105.8,31.4 105.8,31.8 L105.8,31.8 Z"></path>
                    <path d="M112.2,25.1 C113.5,25.1 114.2,25.7 114.5,26.9 L114.5,26.9 L115,25.2 L115.7,25.2 L113.8,34.2 L113.1,34.2 L113.5,31.9 C113,32.7 112.5,33.3 112,33.7 C111.4,34.1 110.8,34.3 110,34.3 C108.5,34.3 107.7,33.3 107.7,31.2 C107.7,30.1 107.9,29.1 108.3,28.1 C108.7,27.1 109.3,26.4 110,25.8 C110.6,25.4 111.3,25.1 112.2,25.1 L112.2,25.1 Z M110.1,33.6 C110.6,33.6 111.1,33.4 111.6,33.1 C112.1,32.8 112.5,32.3 112.9,31.7 C113.3,31.1 113.6,30.5 113.8,29.8 C114,29.1 114.1,28.5 114.1,28 C114.1,27.6 114,27.2 113.9,26.8 C113.8,26.5 113.5,26.2 113.3,26 C113,25.8 112.7,25.7 112.3,25.7 C111.6,25.7 111,25.9 110.5,26.4 C110,26.9 109.5,27.5 109.1,28.4 C108.7,29.3 108.6,30.2 108.6,31.1 C108.6,31.9 108.7,32.6 109,32.9 C109.1,33.4 109.6,33.6 110.1,33.6 L110.1,33.6 Z"></path>
                    <path d="M122,25.1 C122.4,25.1 122.7,25.1 123,25.2 L122.8,26 C122.5,25.9 122.2,25.9 121.9,25.9 C121.4,25.9 120.9,26.1 120.4,26.4 C119.9,26.8 119.5,27.3 119.1,28 C118.7,28.7 118.4,29.5 118.3,30.3 L117.5,34.3 L116.7,34.3 L118.6,25.3 L119.3,25.3 L119.1,27 C119.5,26.5 119.8,26.1 120.1,25.9 C120.4,25.7 120.7,25.5 121,25.4 C121.3,25.1 121.6,25.1 122,25.1 L122,25.1 Z"></path>
                    <path d="M128.1,34.2 L122.1,34.2 L122.2,33.6 L128.6,25.9 L124.1,25.9 L124.2,25.2 L129.6,25.2 L129.5,25.9 L123.2,33.5 L128.2,33.5 L128.1,34.2 L128.1,34.2 Z"></path>
                    <path d="M135,25.1 C136.3,25.1 137,25.7 137.3,26.9 L137.3,26.9 L137.8,25.2 L138.5,25.2 L136.6,34.2 L135.9,34.2 L136.3,31.9 C135.8,32.7 135.3,33.3 134.8,33.7 C134.3,34.1 133.6,34.3 132.8,34.3 C131.3,34.3 130.5,33.3 130.5,31.2 C130.5,30.1 130.7,29.1 131.1,28.1 C131.5,27.1 132.1,26.4 132.8,25.8 C133.4,25.4 134.2,25.1 135,25.1 L135,25.1 Z M133,33.6 C133.5,33.6 134,33.4 134.5,33.1 C135,32.8 135.4,32.3 135.8,31.7 C136.2,31.1 136.5,30.5 136.7,29.8 C136.9,29.1 137,28.5 137,28 C137,27.6 136.9,27.2 136.8,26.8 C136.7,26.5 136.4,26.2 136.2,26 C135.9,25.8 135.6,25.7 135.2,25.7 C134.5,25.7 133.9,25.9 133.4,26.4 C132.9,26.9 132.4,27.5 132,28.4 C131.6,29.3 131.5,30.2 131.5,31.1 C131.5,31.9 131.6,32.6 131.9,32.9 C132.2,33.2 132.4,33.6 133,33.6 L133,33.6 Z"></path>
                </g>
            </g>
        </g>
    </g>
</svg>
