<?xml version="1.0" encoding="UTF-8" standalone="no"?>
<svg viewBox="0 0 898 421" version="1.1" xmlns="http://www.w3.org/2000/svg" xmlns:xlink="http://www.w3.org/1999/xlink" xmlns:sketch="http://www.bohemiancoding.com/sketch/ns">
    <!-- Generator: Sketch 3.3 (11970) - http://www.bohemiancoding.com/sketch -->
    <title>ekran4-01</title>
    <desc>Created with Sketch.</desc>
    <defs></defs>
    <g id="Page-1" stroke="none" stroke-width="1" fill="none" fill-rule="evenodd" sketch:type="MSPage">
        <g id="ekran4-01" sketch:type="MSLayerGroup" transform="translate(0.000000, 0.500000)">
            <g id="Group" sketch:type="MSShapeGroup">
                <g transform="translate(568.000000, 275.000000)" id="Shape" fill="#A6A4A2">
                    <path d="M29,46.4 C29.8,49.7 30.6,51.6 31.4,52.1 C32,52.5 32.8,52.6 33.6,52.6 C34.4,52.6 36.3,52.1 39.2,51.5 L46.7,49.7 C50.6,48.8 53.1,47.7 54.1,46.3 C55.2,45 55.3,42.7 54.6,39.6 C54.4,38.8 54.1,37.8 53.8,36.7 C53.2,34.6 52.8,33.2 52.7,32.8 C52.1,30.3 52.8,28.9 54.8,28.4 C57.2,27.8 58.6,28.7 59.2,31 C59.4,31.7 59.5,32.2 59.5,32.6 L59.9,37.1 C60,38.4 60.2,39.7 60.6,41.1 C60.8,41.9 61.1,43.1 61.6,44.6 C62.1,46.1 62.5,47.3 62.6,48.1 C63.2,50.6 62.1,52.3 59.2,52.9 C58.6,53 57.3,53.2 55.2,53.5 C53.8,53.7 51.7,54.1 48.8,54.7 L42.4,56.2 L28.8,59.4 C27.4,59.7 25.2,60.4 22.1,61.3 C21.6,61.4 20.9,61.6 19.8,62 C18.7,62.3 17.9,62.6 17.2,62.7 C14.8,63.3 13.4,62.5 12.9,60.5 C12.5,58.7 13.1,57.6 14.9,57.2 C15.4,57.1 16.1,57 17,57 C17.9,57 18.6,56.9 19.1,56.8 C22,56.1 22.9,53.7 21.9,49.4 L13.9,15.3 C12.9,11.1 11,9.4 8.1,10 C7.3,10.2 6.7,10.4 6.4,10.6 C5.5,11 4.8,11.2 4.2,11.4 C3.5,11.6 2.8,11.5 2.1,11 C1.5,10.6 1.1,10 0.9,9.2 C0.4,7.2 1.4,5.9 3.9,5.4 C4.2,5.3 4.7,5.2 5.2,5.2 L9.8,4.7 C12.4,4.4 14.2,4.1 15.4,3.8 C16.9,3.5 18.7,2.9 20.7,2.1 L24.5,0.7 C24.9,0.5 25.3,0.4 25.6,0.4 C28.1,-0.2 29.7,0.5 30.1,2.5 C30.3,3.3 30.2,4 29.8,4.7 C29.4,5.4 28.9,5.8 28.1,5.9 C27.5,6 26.7,6.1 25.7,6.2 C25.3,6.2 24.7,6.3 23.9,6.4 C21,7.1 20.1,9.5 21,13.7 L29,46.4 L29,46.4 Z"></path>
                </g>
                <g transform="translate(646.000000, 51.000000)" id="Shape" fill="#A6A4A2">
                    <path d="M37.2,41.2 L36.9,42.9 L44.6,40.2 C47.5,39.2 49.5,40.3 50.8,43.4 C51.8,46.7 50.9,48.8 48,49.8 L38.1,53.3 L34.7,54.5 L29.2,84.7 C28.4,89.5 29.2,92.1 31.6,92.5 C32.2,92.6 33.4,92.6 35.2,92.5 C36.4,92.5 37.1,92.6 37.5,92.6 C40.6,93.2 41.8,95 41.2,98.2 C40.6,101.3 38.4,102.5 34.6,101.7 C33.1,101.4 30.8,100.8 27.6,99.8 C24.4,98.8 21.9,98.2 20.2,97.8 C18.7,97.5 16.4,97.3 13.4,97.1 C10.4,96.9 8.1,96.7 6.7,96.4 L6,96.3 C2.1,95.6 0.4,93.5 1.1,90.2 C1.6,87.3 3.5,86.2 6.7,86.8 L7.7,87 C8.2,87.2 8.7,87.3 8.9,87.4 C11.2,88.2 12.5,88.7 12.9,88.7 C14.6,89 15.8,88.5 16.5,87.1 C17.2,85.7 18.1,82 19.4,76 L21.4,66.3 L22.9,58.8 L16.9,60.9 C13.7,62 11.5,61 10.4,57.7 C9.3,54.5 10.3,52.3 13.5,51.2 L25.2,47.2 L25.8,44.9 L30.3,20 C30.7,17.2 30.9,15.3 30.9,14.3 C30.6,12 29.5,10.7 27.6,10.4 C27.3,10.3 26.1,10.3 23.8,10.3 C22.7,10.3 21.9,10.2 21.2,10.1 C18,9.5 16.7,7.7 17.2,4.7 C17.8,1.6 19.9,0.4 23.6,1.1 C24.6,1.3 25.5,1.5 26.2,1.7 L29.5,2.7 C31,3.2 32.2,3.5 33.2,3.7 C34.1,3.9 35.6,4 37.5,4 C39.4,4 40.8,4.1 41.8,4.3 C43.9,4.7 44.8,6.2 44.3,8.9 C44.1,9.8 43.9,10.5 43.8,11 C41.8,18 39.6,28.1 37.2,41.2 L37.2,41.2 Z"></path>
                </g>
                <g transform="translate(333.000000, 282.000000)" id="Shape" fill="#A6A4A2">
                    <path d="M0.1,8.6 L14.4,5.2 L16,11.7 C17.5,8.5 19.2,6.1 21.1,4.4 C23,2.7 25.5,1.5 28.7,0.8 C32.9,-0.2 36.6,0.3 39.6,2.2 C42.6,4.1 44.7,7.8 46,13 L52.1,38.4 L36.7,42.1 L31.4,20.1 C30.8,17.6 29.9,15.9 28.7,15.1 C27.5,14.3 26.1,14.1 24.4,14.5 C22.5,14.9 21.2,16 20.4,17.7 C19.6,19.4 19.6,22 20.5,25.7 L25.1,44.9 L9.8,48.6 L0.1,8.6 L0.1,8.6 Z"></path>
                </g>
                <g transform="translate(456.000000, 265.000000)" id="Shape" fill="#000000">
                    <path d="M0.4,17.6 C0.8,14.7 1.7,12.2 3.1,9.9 C4.5,7.6 6.4,5.7 8.8,4.1 C11.2,2.5 14,1.4 17.4,0.9 C20.8,0.3 23.9,0.4 26.6,1.1 C29.3,1.8 31.8,3 33.8,4.7 C35.9,6.4 37.6,8.5 38.9,11.1 C40.2,13.7 41.2,16.5 41.7,19.6 C42.2,22.7 42.3,25.7 41.9,28.5 C41.5,31.3 40.6,33.9 39.1,36.2 C37.7,38.5 35.8,40.4 33.4,42 C31,43.6 28.2,44.6 24.8,45.2 C21.5,45.8 18.4,45.7 15.6,45 C12.8,44.3 10.4,43.1 8.3,41.4 C6.2,39.7 4.5,37.6 3.2,35.1 C1.9,32.6 0.9,29.7 0.4,26.6 C7.66053887e-15,23.5 -0.1,20.5 0.4,17.6 L0.4,17.6 Z M10.1,32 C11.1,33.9 12.3,35.4 13.8,36.5 C15.2,37.6 16.8,38.4 18.5,38.9 C20.2,39.3 22,39.4 23.8,39.1 C25.6,38.8 27.3,38.1 28.7,37.2 C30.2,36.2 31.4,35 32.4,33.4 C33.4,31.9 34,30 34.4,27.9 C34.7,25.8 34.7,23.4 34.3,20.9 C33.9,18.3 33.1,16.1 32.1,14.2 C31.1,12.3 29.8,10.8 28.4,9.6 C27,8.4 25.4,7.6 23.6,7.2 C21.9,6.8 20.1,6.7 18.3,7 C16.5,7.3 14.8,8 13.4,8.9 C11.9,9.9 10.7,11.2 9.7,12.7 C8.7,14.3 8.1,16.1 7.7,18.2 C7.4,20.3 7.4,22.7 7.8,25.2 C8.4,27.9 9.1,30.1 10.1,32 L10.1,32 Z"></path>
                </g>
                <g transform="translate(610.000000, 173.000000)" id="Shape" fill="#000000">
                    <path d="M44.1,37.8 C43.4,43.4 41,47.9 36.7,51.3 C32.4,54.7 26.8,56.1 19.9,55.2 C13,54.4 7.8,51.8 4.4,47.4 C1,43 -0.3,38.1 0.3,32.5 C1,27 3.4,22.4 7.7,18.8 C12,15.2 17.6,13.8 24.6,14.6 C31.4,15.4 36.5,18 39.9,22.5 C43.4,27.1 44.8,32.2 44.1,37.8 L44.1,37.8 Z M32.6,36.5 C33.2,31.4 33,27 31.9,23.5 C30.8,20 28.3,18 24.4,17.5 C20.4,17 17.5,18.4 15.6,21.6 C13.7,24.8 12.5,29 11.9,34 C11.3,39.2 11.5,43.4 12.6,46.8 C13.7,50.2 16.2,52.1 20.2,52.6 C24.1,53.1 27,51.8 28.9,48.7 C30.8,45.7 32,41.6 32.6,36.5 L32.6,36.5 Z M37.1,6.2 C37,6.6 36.9,7.1 36.7,7.5 C36.5,7.9 36.1,8.2 35.6,8.4 L23.9,12.4 L23.8,12.4 L23.6,12.4 C23.5,12.4 23.3,12.3 23.1,12.1 C22.9,11.9 22.7,11.8 22.5,11.6 C22.4,11.5 22.4,11.3 22.3,11.1 C22.2,10.9 22.2,10.7 22.2,10.5 C22.2,10.4 22.2,10.3 22.3,10.2 C22.3,10.1 22.4,10 22.4,9.9 L31.4,1.4 C31.6,1.2 31.8,1 32.2,1 C32.5,0.9 32.9,0.9 33.2,0.9 C33.8,1 34.4,1.2 35,1.7 C35.6,2.2 36.1,2.6 36.4,3.2 C36.7,3.7 36.9,4.2 36.9,4.8 C37.1,5.2 37.1,5.7 37.1,6.2 L37.1,6.2 Z"></path>
                </g>
                <g transform="translate(753.000000, 24.000000)" id="Shape" fill="#A6A4A2">
                    <path d="M7,0.2 L21.7,1.9 C25.7,2.4 28.7,3 30.7,3.9 C32.8,4.8 34.3,5.9 35.2,7.2 C36.1,8.5 36.7,10 36.9,11.7 C37.1,13.4 37,16 36.6,19.5 L36,24.4 C35.6,28 34.9,30.5 34,32.1 C33.1,33.6 31.6,34.7 29.5,35.4 C27.4,36 24.8,36.2 21.6,35.8 L17.7,35.3 L15,57.9 L0.4,56.2 L7,0.2 L7,0.2 Z M20.5,11.5 L18.8,25.7 C19.2,25.8 19.6,25.8 19.9,25.9 C21.2,26.1 22.2,25.8 22.8,25.2 C23.4,24.6 23.8,23.3 24.1,21.2 L24.6,16.6 C24.8,14.7 24.7,13.4 24.1,12.8 C23.6,12.2 22.3,11.8 20.5,11.5 L20.5,11.5 Z"></path>
                </g>
                <g transform="translate(512.000000, 170.000000)" id="Shape" fill="#000000">
                    <path d="M24.2,24 C22.2,18.4 18.5,15.9 13.1,16.5 C10.5,16.8 8.5,17.7 6.9,19.3 C5.3,20.9 4.6,22.6 4.8,24.4 C5,25.8 5.8,27.1 7.3,28.2 C8.8,29.3 11.9,30.6 16.5,32.2 C21.2,33.9 24.7,35.4 26.9,36.8 C29.1,38.2 30.4,40.5 30.7,43.7 C31.1,47.4 30,50.5 27.5,53.1 C25,55.7 21.3,57.2 16.6,57.7 C11.8,58.2 7.4,57.6 3.4,56 L3.1,46.1 L4.1,46 C4.9,49.2 6.6,51.7 9.2,53.6 C11.8,55.4 14.6,56.2 17.4,55.9 C20.3,55.6 22.6,54.5 24.3,52.8 C26,51 26.8,49.1 26.6,47.1 C26.4,45.1 25.4,43.5 23.8,42.4 C22.1,41.3 19.1,39.9 14.6,38.3 C10.2,36.7 6.9,35 4.7,33.3 C2.5,31.6 1.3,29.5 1,27 C0.7,23.9 1.7,21.2 4.1,18.8 C6.5,16.5 9.7,15.1 13.9,14.6 C18.1,14.1 21.6,14.7 24.5,16.4 L25,23.9 L24.2,24 L24.2,24 Z M8.6,11.9 L12.8,4.3 C14.3,1.7 15.7,0.3 17.1,0.1 C17.6,6.31161789e-14 18.1,0.2 18.5,0.5 C18.9,0.8 19.2,1.2 19.2,1.7 C19.3,2.7 18.5,3.9 16.8,5.4 L9.3,11.9 L8.6,11.9 L8.6,11.9 Z"></path>
                </g>
                <g transform="translate(524.000000, 0.000000)" id="Shape" fill="#974115">
                    <path d="M3.1,9.4 C3.4,7.5 3.8,6.5 4.4,6.4 C4.9,6.3 5.7,7 6.6,8.4 C7.5,9.8 8.3,10.5 8.9,10.7 C9.5,10.9 10.6,10.9 12.3,10.7 L54,6.2 C56.6,5.9 58.3,5.5 59,5.1 C59.7,4.6 60.3,3.7 60.8,2.3 C61.2,0.9 61.8,0.2 62.4,0.1 C63.3,-3.1918912e-16 63.9,0.7 64,2.1 L65.6,19.2 C65.7,20.4 65.4,21 64.8,21 C64.1,21.1 63.3,19.7 62.3,17 C61.3,14.3 60.2,12.3 58.9,11 C57.6,9.8 55,9.3 51.2,9.8 L37.7,11.3 L43.8,67 C44,68.9 44.4,70.2 44.9,70.8 C45.4,71.4 46.5,71.8 48,72 L56.6,72.9 L56.8,74.6 C53,74.8 46.8,75.4 38.3,76.3 C29.8,77.2 24.7,77.9 23,78.3 L22.8,76.6 L30.2,74.3 C32.2,73.6 33.5,72.9 34.1,72 C34.7,71.1 34.8,69.7 34.6,67.9 L28.5,12.3 L15.2,13.8 C12.8,14 10.9,14.7 9.5,16.1 C8.1,17.4 6.2,20.3 3.8,24.7 C2.7,26.7 1.9,27.7 1.5,27.8 C1,27.9 0.8,27.5 0.7,26.7 C0.6,25.9 0.7,24.7 0.9,23.2 L3.1,9.4 L3.1,9.4 Z"></path>
                </g>
                <g transform="translate(459.000000, 65.000000)" id="Shape" fill="#958B7D">
                    <path d="M39.4,0 L46.9,25.9 C48,29.6 48.2,33.1 47.5,36.3 C46.8,39.5 45.3,42.3 43,44.8 C40.7,47.2 37.8,49.3 34.2,50.9 C29.4,53.1 25.3,54 21.7,53.7 C18.1,53.4 15.3,52.4 13.1,50.6 C11,48.9 9.4,47 8.5,44.9 C7.7,43.2 7,41.2 6.4,38.7 L0.5,17.6 L10.6,13 L17,35.1 C17.3,36.2 17.7,37.3 18.1,38.2 C19.1,40.4 20.5,41.9 22.4,42.8 C24.3,43.7 26.9,43.4 30.2,41.9 C31.9,41.1 33.3,40.2 34.4,39.1 C35.5,38 36.2,36.6 36.6,34.9 C37,33.2 36.9,31.2 36.3,29 L29.4,4.6 L39.4,0 L39.4,0 Z"></path>
                </g>
                <g transform="translate(400.000000, 169.000000)" id="Shape" fill="#253647">
                    <path d="M56.8,0.8 C48.5,20.2 40.9,39.7 34,59.2 C33.6,59.1 32.5,57.5 30.6,54.5 C30.1,53.7 28.1,49.6 24.4,42.1 C20.4,34 17.2,28 15,24.1 C10.8,16.8 7,11.2 3.5,7.4 C3.1,7 2.6,6.8 2.1,6.7 C1.5,6.6 1,6.5 0.4,6.4 C0.6,5.9 1.2,5.6 2,5.6 C3,5.5 4.6,5.4 6.8,5.2 C8.9,5 10,4.9 9.9,4.9 C12.4,4.7 14,4.8 14.7,5.1 C14.8,5.1 15.7,7 17.4,10.5 C18.7,13.4 20.8,17.7 23.7,23.5 C26.9,29.9 31.2,37.8 36.3,47.2 C38,43.2 40.1,37.4 42.5,29.9 C46.3,18.4 48.1,10.8 47.9,7.3 C47.8,6.2 47.5,5.1 47,4 C46.3,2.6 45.4,2.1 44.4,2.3 L44.4,1.6 L56.8,0.8 L56.8,0.8 Z"></path>
                </g>
                <g transform="translate(367.000000, 96.000000)" id="Shape" fill="#253647">
                    <path d="M39.1,5.8 L44.8,31.5 L47.3,11.4 C47.4,11 47.4,10.6 47.4,10.2 C47.4,9.5 47,9.1 46.3,9.2 C46.2,9.2 45.9,9.3 45.5,9.4 L45.1,9.4 L44.7,9.4 C43.2,9.5 42.3,8.3 42.2,5.9 C42,2.9 43.3,1.3 45.9,1.1 C46.6,1.1 47.6,1.1 48.8,1.2 C50.7,1.3 52,1.4 52.6,1.3 C52.7,1.3 54.3,1 57.4,0.4 C57.9,0.3 58.4,0.3 58.7,0.3 C59.9,0.2 60.9,0.6 61.8,1.3 C62.6,2.1 63.1,3.1 63.2,4.3 C63.3,5.4 63,6.3 62.5,7.2 C62,8 61.3,8.5 60.5,8.5 C60.1,8.5 59.6,8.5 59.3,8.4 C58.9,8.3 58.6,8.2 58.3,8.3 C57.6,8.3 57.1,8.9 56.9,9.9 C56.9,9.9 56.8,10.7 56.5,12.3 L52.6,37 C52.3,38.7 52.1,39.7 51.9,40.1 C51.5,41 50.7,41.4 49.5,41.5 L47.6,41.5 C47.2,41.5 46.5,41.5 45.5,41.6 C44.7,41.7 43.9,41.7 43.3,41.8 L41.4,42 L41.1,42 C40.1,42.1 39.3,41.8 38.9,41.1 C38.5,40.4 37.9,38.8 37.4,36.2 L32.8,15.4 L30.8,36.7 C30.6,39.3 30.3,41 29.9,41.7 C29.5,42.5 28.8,42.9 27.8,42.9 L25.6,42.9 C25,42.9 24.3,42.9 23.4,43 C23,43 22.3,43.1 21.4,43.2 C20.5,43.3 19.8,43.4 19.4,43.4 C18.2,43.5 17.3,43.1 16.8,42.3 C16.6,42 16.2,41 15.7,39.3 L14.8,36.3 L8.6,15.3 C8.4,14.5 8.2,13.8 8,13 C7.6,12 7,11.5 6.4,11.6 C6.1,11.6 5.7,11.7 5.4,11.8 C4.9,12 4.5,12.1 4.2,12.1 C3.4,12.2 2.7,11.8 2,11 C1.3,10.2 1,9.3 0.9,8.2 C0.8,7 1.2,5.9 1.9,5 C2.7,4.1 3.6,3.7 4.8,3.6 C5.5,3.6 6.5,3.6 7.9,3.7 C9.3,3.8 10.3,3.8 11,3.8 C11.6,3.8 12.9,3.6 14.8,3.2 C16,3 17,2.8 17.7,2.8 C20.4,2.6 21.8,4 22,6.8 C22.2,9.4 21.5,10.7 20,10.8 L19.6,10.8 L19.2,10.8 C18.8,10.7 18.5,10.7 18.5,10.7 C17.8,10.7 17.5,11.1 17.5,11.9 C17.5,12.2 17.6,12.6 17.7,13 L22.8,32.7 L25.1,6.5 C25.3,4.8 25.5,3.6 25.8,3.1 C26.1,2.6 26.6,2.3 27.4,2.2 L29.6,2.2 L31.8,2.2 C32.3,2.2 33,2.1 34,1.9 C35,1.7 35.7,1.6 36.2,1.6 C37.2,1.5 37.9,2 38.3,2.9 C38.5,3.4 38.8,4.3 39.1,5.8 L39.1,5.8 Z"></path>
                </g>
                <g transform="translate(262.000000, 69.000000)" id="Shape" fill="#974115">
                    <path d="M11,1.8 L22.2,21.2 L36.4,4.6 L43,5.3 L25,26.3 L23.2,43.6 L13.4,42.6 L15.2,25.9 L0.7,0.9 L11,1.8 L11,1.8 Z"></path>
                </g>
                <g transform="translate(111.000000, 103.000000)" id="Shape" fill="#958B7D">
                    <path d="M49.7,16.9 L49.7,17.1 C49.7,17.3 49.5,17.6 49.3,17.8 L2,65.5 L41,71.7 L40.8,72.6 L0.5,66.2 L0.5,66 C0.5,65.8 0.6,65.7 0.6,65.6 C0.7,65.5 0.7,65.4 0.8,65.3 L48.2,17.5 L9.8,11.4 L9.9,10.5 L49.7,16.9 L49.7,16.9 Z M42,1 L29.1,7.8 C28.8,7.9 28.6,8 28.3,7.9 L27.8,7.8 L38.7,1.1 C39,0.9 39.2,0.8 39.4,0.8 L40.4,0.8 L42,1 L42,1 Z"></path>
                </g>
                <g transform="translate(0.000000, 55.000000)" id="Shape" fill="#000000">
                    <path d="M38.8,7.2 L39.3,8.5 C39.5,9 39.5,9.6 39.3,10.2 L22.1,70 L56.4,57.8 L57.5,61 L18,75 L17.5,73.6 C17.3,73.1 17.3,72.6 17.5,72.1 L34.7,12.2 L1.1,24.2 L0,21 L38.8,7.2 L38.8,7.2 Z M19.3,2.9 C19.5,3.3 19.5,3.8 19.5,4.2 C19.5,4.7 19.3,5.1 19.1,5.5 C18.9,5.9 18.6,6.3 18.3,6.6 C18,6.9 17.6,7.2 17.1,7.3 C16.7,7.5 16.2,7.5 15.8,7.5 C15.3,7.5 14.9,7.4 14.5,7.2 C14.1,7 13.7,6.8 13.4,6.4 C13.1,6.1 12.8,5.7 12.7,5.3 C12.5,4.8 12.5,4.4 12.5,3.9 C12.5,3.4 12.6,3 12.8,2.6 C13,2.2 13.2,1.8 13.6,1.5 C13.9,1.2 14.3,0.9 14.7,0.8 C15.1,0.6 15.6,0.6 16,0.6 C16.5,0.6 16.9,0.7 17.3,0.9 C17.7,1.1 18.1,1.4 18.4,1.7 C18.9,2.1 19.1,2.5 19.3,2.9 L19.3,2.9 Z"></path>
                </g>
                <g transform="translate(841.000000, 91.000000)" id="Shape" fill="#253647">
                    <path d="M3.6,30.5 C2.2,27.9 1.4,25.3 1,22.6 C0.6,20 0.8,17.4 1.5,15 C2.2,12.6 3.4,10.3 5.1,8.3 C6.9,6.2 9.2,4.5 12,3 C14.8,1.5 17.6,0.6 20.3,0.4 C23,0.1 25.6,0.4 28,1.2 C30.4,2 32.6,3.3 34.5,5.1 C36.5,6.9 38.1,9.1 39.5,11.7 C40.9,14.3 41.7,16.9 42.1,19.6 C42.5,22.2 42.3,24.8 41.6,27.2 C40.9,29.6 39.7,31.9 37.9,34 C36.1,36.1 33.8,37.9 31,39.3 C28.2,40.8 25.4,41.7 22.7,41.9 C20,42.2 17.5,41.9 15.1,41.1 C12.7,40.3 10.6,39 8.6,37.2 C6.7,35.3 5,33.1 3.6,30.5 L3.6,30.5 Z M9.9,27.2 C11,29.3 12.3,31.2 13.8,32.8 C15.3,34.4 16.9,35.6 18.6,36.5 C20.3,37.3 22.2,37.8 24.1,37.8 C26,37.8 28.1,37.3 30.1,36.2 C32,35.2 33.5,33.9 34.4,32.4 C35.3,30.9 36,29.2 36.2,27.3 C36.4,25.4 36.3,23.5 35.7,21.4 C35.2,19.3 34.4,17.2 33.3,15 C32.2,12.9 30.9,11 29.4,9.4 C27.9,7.8 26.3,6.6 24.6,5.7 C22.9,4.9 21,4.4 19.1,4.4 C17.2,4.4 15.1,4.9 13,6.1 C11,7.2 9.5,8.4 8.5,10 C7.5,11.5 6.9,13.2 6.7,15.1 C6.5,16.9 6.7,18.9 7.3,21 C7.9,22.9 8.8,25 9.9,27.2 L9.9,27.2 Z M56.5,33.5 C55.7,35.5 54.6,37.2 53.2,38.7 C51.8,40.2 50.2,41.4 48.4,42.3 C46.9,43.1 45,43.7 43,44.1 C40.9,44.5 38.7,44.8 36.3,45.1 C33.9,45.4 31.5,45.8 29.1,46.2 C26.6,46.6 24.2,47.3 21.9,48.2 L21.3,46 C22.1,45.5 22.8,45 23.6,44.6 C25.5,43.6 27.5,42.8 29.6,42.3 C31.7,41.7 33.8,41.2 36,40.7 C38.2,40.2 40.3,39.7 42.5,39.1 C44.7,38.5 46.7,37.7 48.8,36.6 C49.9,36 50.9,35.4 51.9,34.6 C52.9,33.9 53.9,33 54.8,32 L56.5,33.5 L56.5,33.5 Z"></path>
                </g>
                <g transform="translate(395.000000, 366.000000)" id="Shape" fill="#974115">
                    <path d="M7.5,0.4 L22,3.1 L20.9,9 C23.4,6.9 25.9,5.6 28.2,4.9 C30.5,4.3 33.2,4.2 36.2,4.8 C39.4,5.4 41.9,6.4 43.5,7.9 C45.2,9.4 46.4,11.4 47.2,13.9 C50.1,11.7 52.7,10.3 54.9,9.8 C57.1,9.2 59.6,9.2 62.6,9.8 C66.9,10.6 70.1,12.5 72,15.6 C74,18.6 74.4,22.9 73.4,28.4 L68.7,53.8 L53.2,50.9 L57.5,27.9 C57.8,26.1 57.7,24.6 57.2,23.6 C56.4,22 55.3,21.1 53.7,20.8 C51.9,20.5 50.3,20.8 48.9,22 C47.5,23.1 46.6,25.1 46,28 L42.1,48.9 L26.6,46 L30.8,23.7 C31.1,21.9 31.3,20.7 31.2,20 C31.1,18.9 30.6,18 29.9,17.2 C29.2,16.4 28.3,15.9 27.2,15.7 C25.4,15.4 23.8,15.8 22.4,16.9 C21,18 20,20.1 19.4,23.2 L15.6,43.8 L0.1,40.9 L7.5,0.4 L7.5,0.4 Z"></path>
                </g>
                <g transform="translate(209.000000, 111.000000)" id="Shape" fill="#000000">
                    <path d="M37.2,0.5 L17.4,39.6 L42.3,34.9 L43,38.8 L5.9,45.9 L5.6,44.1 L24.7,6.7 L1.3,11.2 L0.6,7.7 L37.2,0.5 L37.2,0.5 Z"></path>
                </g>
            </g>
        </g>
    </g>
</svg>
