<?xml version="1.0" encoding="UTF-8" standalone="no"?>
<svg viewBox="0 0 1153 390" version="1.1" xmlns="http://www.w3.org/2000/svg" xmlns:xlink="http://www.w3.org/1999/xlink" xmlns:sketch="http://www.bohemiancoding.com/sketch/ns">
    <!-- Generator: Sketch 3.3 (11970) - http://www.bohemiancoding.com/sketch -->
    <title>ekran11-01</title>
    <desc>Created with Sketch.</desc>
    <defs></defs>
    <g id="Page-1" stroke="none" stroke-width="1" fill="none" fill-rule="evenodd" sketch:type="MSPage">
        <g id="ekran11-01" sketch:type="MSLayerGroup">
            <g id="Group">
                <path d="M107.3,300 L1038.4,300 L1086.9,389.1 L58.2,389.1 L107.3,300 Z" id="Shape" fill="#E6E7E8" sketch:type="MSShapeGroup"></path>
                <path d="M187.6,0 L75,69.4 L1066.6,70.6 L942.5,2.5 L187.6,0 Z" id="Shape" fill="#974115" sketch:type="MSShapeGroup"></path>
                <rect id="Rectangle-path" fill="#603913" sketch:type="MSShapeGroup" transform="translate(570.729936, 76.010561) rotate(180.068707) translate(-570.729936, -76.010561) " x="74.8795795" y="70.0105563" width="991.700713" height="12.0000086"></rect>
                <path d="M113.9,362.6 L1022.4,363.7 L1039.5,82.6 L102.7,81.5 L113.9,362.6 Z" id="Shape" fill="#3C2415" sketch:type="MSShapeGroup"></path>
                <circle id="Oval" stroke="#231F20" sketch:type="MSShapeGroup" cx="80.1" cy="279.4" r="0.6"></circle>
                <path d="M102.7,81.5 L160.4,81.5 L146.2,157.7 L102.6,175.5 L102.7,81.5 Z" id="Shape" fill="#754C29" sketch:type="MSShapeGroup"></path>
                <path d="M1039.5,82.6 L979.6,82.5 L974.6,151.2 L1025.1,320.6 L1039.5,82.6 Z" id="Shape" fill="#754C29" sketch:type="MSShapeGroup"></path>
                <path d="M166.3,81.5 L166.3,109.1 L154.5,111.6 L154.6,81.5 L166.3,81.5 Z" id="Shape" fill="#C2B59B" sketch:type="MSShapeGroup"></path>
                <rect id="Rectangle-path" fill="#1E120C" sketch:type="MSShapeGroup" transform="translate(223.450229, 96.050032) rotate(0.068702) translate(-223.450229, -96.050032) " x="166.300188" y="81.6000216" width="114.300082" height="28.9000208"></rect>
                <path d="M285,177.5 L280.5,177.5 L280.6,81.7 L289,81.7 L285,177.5 Z" id="Shape" fill="#C2B59B" sketch:type="MSShapeGroup"></path>
                <path d="M155,104.3 L56.7,214.2 L216.6,221.5 L286.4,104.4 L155,104.3" id="Shape" fill="#A09D98" sketch:type="MSShapeGroup"></path>
                <path d="M170.1,104.3 L155,104.3 L56.7,214.2 L67.5,214.7 L166.3,104.3" id="Shape" fill="#EDE4D3" sketch:type="MSShapeGroup"></path>
                <path d="M65.6,214.6 L94.6,216 L164.7,136.7 L164.8,104.3 L65.6,214.6 Z" id="Shape" fill="#BFB7AA" sketch:type="MSShapeGroup"></path>
                <path d="M284.8,136.9 L163.1,136.7 L164.8,104.3 L286.4,104.4 L284.8,136.9 Z" id="Shape" fill="#BFB7AA" sketch:type="MSShapeGroup"></path>
                <circle id="Oval" stroke="#231F20" sketch:type="MSShapeGroup" cx="304.5" cy="279.6" r="0.6"></circle>
                <path d="M352,81.8 L352,109.4 L340.2,111.8 L340.3,81.7 L352,81.8 Z" id="Shape" fill="#C2B59B" sketch:type="MSShapeGroup"></path>
                <rect id="Rectangle-path" fill="#1E120C" sketch:type="MSShapeGroup" transform="translate(409.150390, 96.250099) rotate(0.068702) translate(-409.150390, -96.250099) " x="352.000349" y="81.8000887" width="114.300082" height="28.9000208"></rect>
                <path d="M470.7,177.8 L463.6,178.4 L466.3,81.9 L474.7,81.9 L470.7,177.8 Z" id="Shape" fill="#C2B59B" sketch:type="MSShapeGroup"></path>
                <path d="M681,178 L691.7,178.7 L685.6,82.2 L677.2,82.2 L681,178 Z" id="Shape" fill="#C2B59B" sketch:type="MSShapeGroup"></path>
                <path d="M340.7,104.5 L281.1,214.5 L441,221.8 L472.1,104.6 L340.7,104.5" id="Shape" fill="#A09D98" sketch:type="MSShapeGroup"></path>
                <path d="M355.8,104.5 L340.7,104.5 L281.1,214.5 L291.9,215 L352,104.5" id="Shape" fill="#EDE4D3" sketch:type="MSShapeGroup"></path>
                <path d="M289.9,214.9 L319,216.2 L350.4,137 L350.5,104.5 L289.9,214.9 Z" id="Shape" fill="#BFB7AA" sketch:type="MSShapeGroup"></path>
                <path d="M470.5,137.1 L348.8,137 L350.5,104.5 L472.1,104.6 L470.5,137.1 Z" id="Shape" fill="#BFB7AA" sketch:type="MSShapeGroup"></path>
                <path d="M800.3,82.3 L800.2,109.9 L811.9,112.4 L812,82.3 L800.3,82.3 Z" id="Shape" fill="#C2B59B" sketch:type="MSShapeGroup"></path>
                <rect id="Rectangle-path" fill="#1E120C" sketch:type="MSShapeGroup" transform="translate(743.102999, 96.743566) rotate(180.068707) translate(-743.102999, -96.743566) " x="685.952958" y="82.2935553" width="114.300082" height="28.9000208"></rect>
                <path d="M811.5,105 L870.8,215.2 L710.9,222.1 L680.1,104.9 L811.5,105" id="Shape" fill="#A09D98" sketch:type="MSShapeGroup"></path>
                <path d="M796.4,105 L811.5,105 L870.8,215.2 L860.1,215.7 L800.2,105" id="Shape" fill="#EDE4D3" sketch:type="MSShapeGroup"></path>
                <path d="M862,215.6 L833,216.8 L801.7,137.5 L801.7,105 L862,215.6 Z" id="Shape" fill="#BFB7AA" sketch:type="MSShapeGroup"></path>
                <path d="M681.7,137.4 L803.3,137.5 L801.7,105 L680.1,104.9 L681.7,137.4 Z" id="Shape" fill="#BFB7AA" sketch:type="MSShapeGroup"></path>
                <path d="M524.8,82 L524.8,109.6 L513,112 L513.1,82 L524.8,82 Z" id="Shape" fill="#C2B59B" sketch:type="MSShapeGroup"></path>
                <rect id="Rectangle-path" fill="#1E120C" sketch:type="MSShapeGroup" transform="translate(581.950450, 96.450098) rotate(0.068702) translate(-581.950450, -96.450098) " x="524.800409" y="82.0000878" width="114.300082" height="28.9000208"></rect>
                <path d="M646.7,178.7 L636.4,178.7 L636.5,82.1 L647.5,82.1 L646.7,178.7 Z" id="Shape" fill="#C2B59B" sketch:type="MSShapeGroup"></path>
                <path d="M513.5,104.7 L492.6,214.8 L652.5,222 L644.9,104.8 L513.5,104.7" id="Shape" fill="#A09D98" sketch:type="MSShapeGroup"></path>
                <path d="M643.7,128.4 L513,128.2 L523.3,104.7 L644.9,104.8 L643.7,128.4 Z" id="Shape" fill="#BFB7AA" sketch:type="MSShapeGroup"></path>
                <path d="M650.8,239.4 L656.8,303.9 L652.6,178.7 L644.9,104.8 L650.8,239.4 Z" id="Shape" fill="#C2B59B" sketch:type="MSShapeGroup"></path>
                <path d="M636.5,104.8 L651.7,224.1 L665.2,233.8 L647.3,104.8 L636.5,104.8 Z" id="Shape" fill="#EDE4D3" sketch:type="MSShapeGroup"></path>
                <path d="M528.6,104.7 L513.5,104.7 L478.5,212.6 L492.6,212.3 L524.8,104.7" id="Shape" fill="#EDE4D3" sketch:type="MSShapeGroup"></path>
                <path d="M0,215.5 L207.6,213.1 L216.5,331.8 L15.3,331.5 L0,215.5 Z" id="Shape" fill="#974115" sketch:type="MSShapeGroup"></path>
                <path d="M102,176.6 L100.6,138.2 L195.1,138.3 L196.4,155.8 C196.4,155.8 191.3,155.6 255,156.3 C256.3,156.3 252.9,193.1 252.9,193.1 L227.2,199.2 L102,176.6 L102,176.6 Z" id="Shape" fill="#EAE8E5" sketch:type="MSShapeGroup"></path>
                <path d="M235.4,191.9 C236.7,191.8 233.8,218.6 233.8,218.6 L82.2,208.4 L80.9,162.3 L203.8,162.4 L204,191.1 L235.4,191.9 L235.4,191.9 Z" id="Shape" fill="#F9F6F2" sketch:type="MSShapeGroup"></path>
                <path d="M316.5,178.6 L315.1,140.2 L409.6,140.3 L410.9,157.8 C410.9,157.8 405.8,157.6 469.5,158.3 C470.8,158.3 467.4,195.1 467.4,195.1 L442.8,199.5 L316.5,178.6 L316.5,178.6 Z" id="Shape" fill="#EAE8E5" sketch:type="MSShapeGroup"></path>
                <path d="M449.9,192.5 C451.2,192.4 448.3,214 448.3,214 L295.3,209.6 L295.4,164.1 L418.3,164.2 L418.5,191.6 L449.9,192.5 L449.9,192.5 Z" id="Shape" fill="#F9F6F2" sketch:type="MSShapeGroup"></path>
                <path d="M214.9,238.9 L220.9,303.4 L284.7,177.5 L288.1,104.4 L214.9,238.9 Z" id="Shape" fill="#C2B59B" sketch:type="MSShapeGroup"></path>
                <path d="M280.6,104.4 L213.2,224 L214.9,238.9 L288.1,104.4 L280.6,104.4 Z" id="Shape" fill="#EDE4D3" sketch:type="MSShapeGroup"></path>
                <g transform="translate(0.000000, 203.000000)">
                    <g sketch:type="MSShapeGroup">
                        <path d="M10.8,0.4 L0,12.5 L210.2,14 L214.9,0.7 L10.8,0.4 Z" id="Shape" fill="#754C29"></path>
                        <path d="M102.1,74.2 C105.8,67.7 126.1,70.6 123.3,87.4 C123.2,88.1 123.5,85.3 123.3,87.4 L112.1,100.3 L95.2,87.5 L102.1,74.2 L102.1,74.2 Z" id="Shape" fill="#A09D98"></path>
                        <circle id="Oval" fill="#EDE4D3" cx="101.9" cy="97.9" r="22"></circle>
                        <path d="M146.1,63.2 L68.7,63.1 L63.6,28.7 L140.9,28.8 L146.1,63.2 Z" id="Shape" fill="#A09D98"></path>
                        <path d="M131.7,57.6 L83.1,57.5 L79.2,33.7 L127.9,33.8 L131.7,57.6 Z" id="Shape" fill="#FFFFFF"></path>
                        <path d="M207.6,12.7 L214.9,0.7 L221.7,113.3 L216.5,128.8 L207.6,12.7 Z" id="Shape" fill="#754C29"></path>
                    </g>
                    <text id="Am-Asn" fill="#000000" sketch:type="MSTextLayer" transform="translate(106.787100, 45.369194) rotate(0.068755) translate(-106.787100, -45.369194) " font-family="Helvetica" font-size="12.8954" font-weight="normal">
                        <tspan x="83.7870834" y="50.3691942">Am-Asn</tspan>
                    </text>
                </g>
                <path d="M439.3,239.2 L444,306.2 L470.8,186.2 L472.1,104.6 L439.3,239.2 Z" id="Shape" fill="#C2B59B" sketch:type="MSShapeGroup"></path>
                <path d="M465.7,104.6 L432.8,224.6 L439.3,239.2 L473.8,104.6 L465.7,104.6 Z" id="Shape" fill="#EDE4D3" sketch:type="MSShapeGroup"></path>
                <g transform="translate(224.000000, 203.000000)">
                    <g sketch:type="MSShapeGroup">
                        <path d="M11.1,0.7 L0.4,12.7 L210.6,13 L215.3,0.9 L11.1,0.7 Z" id="Shape" fill="#754C29"></path>
                        <path d="M205.4,13 L215.3,0.9 L222.1,113.6 L216.9,129 L205.4,13 Z" id="Shape" fill="#754C29"></path>
                        <path d="M0.4,12.7 L206.7,13 L216.9,129 L15.7,128.8 L0.4,12.7 Z" id="Shape" fill="#974115"></path>
                        <path d="M102.5,74.5 C106.2,68 126.5,70.9 123.7,87.7 C123.6,88.4 123.9,85.6 123.7,87.7 L112.5,100.6 L95.6,87.8 L102.5,74.5 L102.5,74.5 Z" id="Shape" fill="#A09D98"></path>
                        <circle id="Oval" fill="#EDE4D3" cx="104.8" cy="96.9" r="22"></circle>
                        <path d="M146.4,63.5 L69.1,63.4 L64,29 L141.3,29.1 L146.4,63.5 Z" id="Shape" fill="#A09D98"></path>
                        <path d="M132.1,57.8 L83.5,57.8 L79.6,34 L128.3,34.1 L132.1,57.8 Z" id="Shape" fill="#FFFFFF"></path>
                    </g>
                    <text id="Gra-Iz" fill="#000000" sketch:type="MSTextLayer" transform="translate(105.167500, 45.632494) rotate(0.068755) translate(-105.167500, -45.632494) " font-family="Helvetica" font-size="12.8954" font-weight="normal">
                        <tspan x="87.167487" y="50.6324942">Gra-Iz</tspan>
                    </text>
                </g>
                <circle id="Oval" stroke="#231F20" sketch:type="MSShapeGroup" cx="1072.6" cy="280.6" r="0.6"></circle>
                <path d="M986.9,82.5 L986.8,110.1 L998.6,112.6 L998.6,82.5 L986.9,82.5 Z" id="Shape" fill="#C2B59B" sketch:type="MSShapeGroup"></path>
                <rect id="Rectangle-path" fill="#1E120C" sketch:type="MSShapeGroup" transform="translate(929.725458, 96.891203) rotate(180.068707) translate(-929.725458, -96.891203) " x="872.575417" y="82.4411924" width="114.300082" height="28.9000208"></rect>
                <path d="M867.9,178.2 L872.4,178.2 L872.5,82.4 L864.2,82.4 L867.9,178.2 Z" id="Shape" fill="#C2B59B" sketch:type="MSShapeGroup"></path>
                <path d="M999.4,124.6 L1097.4,234.8 L937.5,241.7 L868,124.5 L999.4,124.6" id="Shape" fill="#A09D98" sketch:type="MSShapeGroup"></path>
                <path d="M983,105.2 L998.1,105.3 L1096.1,215.5 L1085.4,215.9 L986.8,105.3" id="Shape" fill="#EDE4D3" sketch:type="MSShapeGroup"></path>
                <path d="M1087.3,215.9 L1058.3,217.1 L988.3,137.7 L988.4,105.3 L1087.3,215.9 Z" id="Shape" fill="#BFB7AA" sketch:type="MSShapeGroup"></path>
                <path d="M868.3,137.6 L989.9,137.7 L988.4,105.3 L866.7,105.1 L868.3,137.6 Z" id="Shape" fill="#BFB7AA" sketch:type="MSShapeGroup"></path>
                <path d="M1152.9,216.8 L945.2,214 L936.1,332.6 L1137.2,332.9 L1152.9,216.8 Z" id="Shape" fill="#974115" sketch:type="MSShapeGroup"></path>
                <path d="M902.7,183.1 L902,139.3 L996.5,139.4 L997.8,156.9 C997.8,156.9 992.7,156.7 1056.4,157.4 C1057.7,157.4 1054.3,194.2 1054.3,194.2 L1028.6,200.3 L902.7,183.1 L902.7,183.1 Z" id="Shape" fill="#EAE8E5" sketch:type="MSShapeGroup"></path>
                <path d="M1065.2,190.3 C1066.5,190.2 1063.6,217 1063.6,217 L910.6,217.8 L910.7,160.7 L1033.6,160.8 L1033.8,189.5 L1065.2,190.3 L1065.2,190.3 Z" id="Shape" fill="#F9F6F2" sketch:type="MSShapeGroup"></path>
                <path d="M937.9,239.8 L931.7,304.3 L868.2,178.2 L865,105.1 L937.9,239.8 Z" id="Shape" fill="#C2B59B" sketch:type="MSShapeGroup"></path>
                <g transform="translate(930.000000, 204.000000)">
                    <g sketch:type="MSShapeGroup">
                        <path d="M212.1,0.8 L222.9,12.8 L12.7,13.9 L7.9,0.5 L212.1,0.8 Z" id="Shape" fill="#754C29"></path>
                        <path d="M120.6,74.3 C117,67.8 96.6,70.7 99.4,87.4 C99.5,88.1 99.2,85.3 99.4,87.4 L110.6,100.3 L127.5,87.6 L120.6,74.3 L120.6,74.3 Z" id="Shape" fill="#A09D98"></path>
                        <circle id="Oval" fill="#EDE4D3" cx="120.8" cy="98" r="22"></circle>
                        <path d="M76.7,63.3 L154,63.4 L159.2,28.9 L81.9,28.8 L76.7,63.3 Z" id="Shape" fill="#A09D98"></path>
                        <path d="M91,57.6 L139.7,57.7 L143.6,33.9 L94.9,33.9 L91,57.6 Z" id="Shape" fill="#FFFFFF"></path>
                        <path d="M15.2,12.6 L7.9,0.5 L0.9,113.2 L6.1,128.6 L15.2,12.6 Z" id="Shape" fill="#754C29"></path>
                    </g>
                    <text id="Wie-Wr" fill="#000000" sketch:type="MSTextLayer" transform="translate(116.654300, 45.496994) rotate(0.068755) translate(-116.654300, -45.496994) " font-family="Helvetica" font-size="12.8954" font-weight="normal">
                        <tspan x="95.1542845" y="50.4969942">Wie-Wr</tspan>
                    </text>
                </g>
                <path d="M830.1,194.3 L831.3,198.7 L704.7,198.5 L703.3,139.3 L799.4,139.4 L799.4,156.9 C799.4,156.9 799.4,156.9 829.6,157.4" id="Shape" fill="#EAE8E5" sketch:type="MSShapeGroup"></path>
                <path d="M857.5,213.2 L712.2,208.9 L712.3,163.4 L835.2,163.6 L835.4,191 L857.8,191 L857.5,213.2 Z" id="Shape" fill="#F9F6F2" sketch:type="MSShapeGroup"></path>
                <path d="M647.7,192.7 L635.6,198.5 L506.6,178.5 L508,139.1 L602.5,139.2 L603.8,156.7 C603.8,156.7 582.7,156.6 646.3,157.3" id="Shape" fill="#EAE8E5" sketch:type="MSShapeGroup"></path>
                <path d="M655.7,191.5 C657,191.4 654.1,213 654.1,213 L501.1,208.6 L501.2,163.1 L624.1,163.2 L624.3,190.6 L655.7,191.5 L655.7,191.5 Z" id="Shape" fill="#F9F6F2" sketch:type="MSShapeGroup"></path>
                <g transform="translate(468.000000, 204.000000)">
                    <path d="M195.4,126.9 L10.4,126.7 L0.2,10.3 L205.9,10.5 L195.4,126.9 Z" id="Shape" fill="#974115" sketch:type="MSShapeGroup"></path>
                    <circle id="Oval" fill="#EDE4D3" sketch:type="MSShapeGroup" cx="103" cy="97.2" r="18.9"></circle>
                    <path d="M205.9,11.8 L0.2,11.6 L9.3,0.2 L196.9,0.4 L205.9,11.8 Z" id="Shape" fill="#754C29" sketch:type="MSShapeGroup"></path>
                    <g transform="translate(62.000000, 32.000000)">
                        <rect id="Rectangle-path" fill="#A09D98" sketch:type="MSShapeGroup" transform="translate(41.300355, 16.400228) rotate(0.068702) translate(-41.300355, -16.400228) " x="0.30032551" y="0.200216474" width="82.0000589" height="32.4000233"></rect>
                        <rect id="Rectangle-path" fill="#FFFFFF" sketch:type="MSShapeGroup" transform="translate(41.300415, 16.100228) rotate(0.068702) translate(-41.300415, -16.100228) " x="15.5003962" y="4.90022007" width="51.6000371" height="22.4000161"></rect>
                        <text id="Ja-Je" fill="#000000" sketch:type="MSTextLayer" transform="translate(40.299600, 15.506494) rotate(0.068755) translate(-40.299600, -15.506494) " font-family="Helvetica" font-size="12.8954" font-weight="normal">
                            <tspan x="24.2995885" y="20.5064942">Ja-Je</tspan>
                        </text>
                    </g>
                </g>
                <g transform="translate(678.000000, 104.000000)" id="Shape" sketch:type="MSShapeGroup">
                    <path d="M8.5,0.9 L41.1,120.9 L34.6,135.5 L0.4,0.9 L8.5,0.9 Z" fill="#EDE4D3"></path>
                    <path d="M34.6,135.5 L29.7,202.6 L3.2,82.4 L2.1,0.9 L34.6,135.5 Z" fill="#C2B59B"></path>
                </g>
                <g transform="translate(705.000000, 204.000000)">
                    <path d="M211.8,0.5 L222.6,12.6 L12.4,12.3 L7.6,0.3 L211.8,0.5 Z" id="Shape" fill="#754C29" sketch:type="MSShapeGroup"></path>
                    <path d="M17.5,12.3 L7.6,0.3 L0.6,112.9 L5.8,128.4 L17.5,12.3 Z" id="Shape" fill="#754C29" sketch:type="MSShapeGroup"></path>
                    <path d="M222.6,12.6 L16.2,12.3 L5.8,128.4 L206.9,128.6 L222.6,12.6 Z" id="Shape" fill="#974115" sketch:type="MSShapeGroup"></path>
                    <g transform="translate(95.000000, 70.000000)" sketch:type="MSShapeGroup">
                        <path d="M25.3,4.1 C21.7,-2.4 1.3,0.5 4.1,17.2 C4.2,17.9 3.9,15.1 4.1,17.2 L15.3,30.1 L32.2,17.4 L25.3,4.1 L25.3,4.1 Z" id="Shape" fill="#A09D98"></path>
                        <circle id="Oval" fill="#EDE4D3" cx="22.9" cy="26.5" r="22"></circle>
                    </g>
                    <g transform="translate(76.000000, 28.000000)">
                        <path d="M0.4,35 L77.7,35.1 L81.6,0.6 L3,0.6 L0.4,35 Z" id="Shape" fill="#A09D98" sketch:type="MSShapeGroup"></path>
                        <path d="M14.7,29.4 L64.7,29.4 L66,5.7 L16,5.6 L14.7,29.4 Z" id="Shape" fill="#FFFFFF" sketch:type="MSShapeGroup"></path>
                        <text id="Pa-Pie" fill="#000000" sketch:type="MSTextLayer" transform="translate(41.150300, 17.227594) rotate(0.068755) translate(-41.150300, -17.227594) " font-family="Helvetica" font-size="12.8954" font-weight="normal">
                            <tspan x="21.650286" y="22.2275942">Pa-Pie</tspan>
                        </text>
                    </g>
                </g>
                <rect id="Rectangle-path" fill="#754C29" sketch:type="MSShapeGroup" x="102.1" y="353.9" width="934.3" height="19.6"></rect>
            </g>
        </g>
    </g>
</svg>
