<?xml version="1.0" encoding="UTF-8" standalone="no"?>
<svg viewBox="0 0 279 147" version="1.1" xmlns="http://www.w3.org/2000/svg" xmlns:xlink="http://www.w3.org/1999/xlink" xmlns:sketch="http://www.bohemiancoding.com/sketch/ns">
    <!-- Generator: Sketch 3.3 (11970) - http://www.bohemiancoding.com/sketch -->
    <title>ekran11-03</title>
    <desc>Created with Sketch.</desc>
    <defs></defs>
    <g id="Page-1" stroke="none" stroke-width="1" fill="none" fill-rule="evenodd" sketch:type="MSPage">
        <g id="ekran11-03" sketch:type="MSLayerGroup">
            <g id="Group" sketch:type="MSShapeGroup">
                <path d="M251.5,71.1 L251.6,1.2 L0,0.9 L1.7,146.4 L278.2,146.7 L278.3,71.1 L251.5,71.1 Z" id="Shape" fill="#FFFFFF"></path>
                <g transform="translate(10.000000, 21.000000)" id="Shape" fill="#000000">
                    <path d="M9.4,6 L14.2,6 L14.2,12.3 C13.4,12.6 12.7,12.7 12,12.8 C11.3,12.9 10.6,13 9.9,13 C8.1,13 6.7,12.5 5.7,11.4 C4.7,10.3 4.3,8.8 4.3,6.8 C4.3,4.9 4.9,3.3 6,2.2 C7.1,1.1 8.7,0.6 10.6,0.6 C11.8,0.6 13,0.9 14.2,1.3 L13.3,3.3 C12.4,2.9 11.5,2.6 10.6,2.6 C9.5,2.6 8.6,3 7.9,3.7 C7.2,4.4 6.9,5.4 6.9,6.7 C6.9,8 7.2,9 7.7,9.7 C8.2,10.4 9,10.7 10,10.7 C10.5,10.7 11.1,10.6 11.6,10.5 L11.6,8 L9.3,8 L9.4,6 L9.4,6 Z"></path>
                    <path d="M22,3.4 C22.3,3.4 22.6,3.4 22.8,3.5 L22.6,5.9 C22.4,5.8 22.1,5.8 21.9,5.8 C21.1,5.8 20.5,6 20,6.4 C19.6,6.8 19.3,7.4 19.3,8.1 L19.3,12.8 L16.8,12.8 L16.8,3.6 L18.7,3.6 L19.1,5.2 L19.2,5.2 C19.5,4.7 19.9,4.3 20.4,4 C20.9,3.6 21.5,3.4 22,3.4 L22,3.4 Z"></path>
                    <path d="M24.5,1.2 C24.5,0.4 25,0 25.9,0 C26.8,0 27.3,0.4 27.3,1.2 C27.3,1.6 27.2,1.9 27,2.1 C26.8,2.3 26.4,2.4 26,2.4 C24.9,2.4 24.4,2 24.5,1.2 L24.5,1.2 Z M27.1,12.8 L24.6,12.8 L24.6,3.6 L27.1,3.6 L27.1,12.8 L27.1,12.8 Z"></path>
                    <path d="M38,12.8 L35.5,12.8 L35.5,7.4 C35.5,6.7 35.4,6.2 35.2,5.9 C35,5.6 34.6,5.4 34.1,5.4 C33.5,5.4 33,5.6 32.7,6.1 C32.4,6.6 32.3,7.4 32.3,8.4 L32.3,12.7 L29.8,12.7 L29.8,3.5 L31.7,3.5 L32,4.7 L32.1,4.7 C32.3,4.3 32.7,3.9 33.2,3.7 C33.7,3.5 34.2,3.3 34.8,3.3 C36.2,3.3 37.1,3.8 37.6,4.7 L37.8,4.7 C38,4.3 38.4,3.9 38.9,3.7 C39.4,3.5 39.9,3.3 40.5,3.3 C41.5,3.3 42.3,3.6 42.9,4.1 C43.4,4.6 43.7,5.5 43.7,6.7 L43.7,12.7 L41.2,12.7 L41.2,7.3 C41.2,6.6 41.1,6.1 40.9,5.8 C40.7,5.5 40.3,5.3 39.8,5.3 C39.2,5.3 38.7,5.5 38.4,6 C38.1,6.4 37.9,7.1 37.9,8.1 L38,12.8 L38,12.8 Z"></path>
                    <path d="M54.5,12.8 L52,12.8 L52,7.4 C52,6.7 51.9,6.2 51.7,5.9 C51.5,5.6 51.1,5.4 50.6,5.4 C50,5.4 49.5,5.6 49.2,6.1 C48.9,6.6 48.8,7.4 48.8,8.4 L48.8,12.7 L46.3,12.7 L46.3,3.5 L48.2,3.5 L48.5,4.7 L48.6,4.7 C48.8,4.3 49.2,3.9 49.7,3.7 C50.2,3.5 50.7,3.3 51.3,3.3 C52.7,3.3 53.6,3.8 54.1,4.7 L54.3,4.7 C54.5,4.3 54.9,3.9 55.4,3.7 C55.9,3.5 56.4,3.3 57,3.3 C58,3.3 58.8,3.6 59.4,4.1 C59.9,4.6 60.2,5.5 60.2,6.7 L60.2,12.7 L57.7,12.7 L57.7,7.3 C57.7,6.6 57.6,6.1 57.4,5.8 C57.2,5.5 56.8,5.3 56.3,5.3 C55.7,5.3 55.2,5.5 54.9,6 C54.6,6.5 54.4,7.1 54.4,8.1 L54.5,12.8 L54.5,12.8 Z"></path>
                    <path d="M66.2,16.4 C65.6,16.4 65.1,16.3 64.7,16.2 L64.7,14.1 C65.1,14.2 65.5,14.3 65.9,14.3 C66.5,14.3 66.9,14.1 67.1,13.8 C67.3,13.5 67.5,12.9 67.5,12.2 L67.5,0.9 L70.1,0.9 L70.1,12.2 C70.1,13.6 69.8,14.7 69.1,15.4 C68.4,16.1 67.5,16.4 66.2,16.4 L66.2,16.4 Z"></path>
                    <path d="M78.7,12.9 L78.2,11.6 L78.1,11.6 C77.7,12.1 77.2,12.5 76.8,12.7 C76.4,12.9 75.8,13 75,13 C74.1,13 73.4,12.7 72.9,12.2 C72.4,11.7 72.1,11 72.1,10 C72.1,9 72.4,8.3 73.1,7.8 C73.8,7.3 74.8,7.1 76.2,7 L77.8,7 L77.8,6.6 C77.8,5.7 77.3,5.2 76.4,5.2 C75.7,5.2 74.8,5.4 73.8,5.9 L73,4.2 C74.1,3.6 75.2,3.4 76.5,3.4 C77.7,3.4 78.7,3.7 79.3,4.2 C80,4.7 80.3,5.6 80.3,6.7 L80.3,12.8 L78.7,12.9 L78.7,12.9 Z M78,8.6 L77,8.6 C76.3,8.6 75.7,8.8 75.4,9 C75,9.2 74.9,9.6 74.9,10.1 C74.9,10.8 75.3,11.2 76.1,11.2 C76.7,11.2 77.1,11 77.5,10.7 C77.9,10.4 78,9.9 78,9.4 L78,8.6 L78,8.6 Z"></path>
                    <path d="M85.5,7.9 L86.6,6.5 L89.2,3.7 L92,3.7 L88.3,7.7 L92.2,12.9 L89.3,12.9 L86.6,9.2 L85.6,10 L85.6,12.9 L83.1,12.9 L83.1,0.1 L85.6,0.1 L85.6,5.8 L85.5,7.9 L85.5,7.9 Z"></path>
                    <path d="M100.1,12.9 L99.8,11.7 L99.7,11.7 C99.4,12.1 99,12.5 98.6,12.7 C98.1,12.9 97.5,13 96.9,13 C95.8,13 95,12.7 94.5,12.1 C94,11.5 93.7,10.7 93.7,9.6 L93.7,3.6 L96.2,3.6 L96.2,9 C96.2,9.7 96.3,10.2 96.6,10.5 C96.8,10.8 97.2,11 97.7,11 C98.4,11 98.9,10.8 99.2,10.3 C99.5,9.8 99.7,9.1 99.7,8 L99.7,3.7 L102.2,3.7 L102.2,12.9 L100.1,12.9 L100.1,12.9 Z"></path>
                    <path d="M109.8,3.5 C110.9,3.5 111.7,3.9 112.4,4.8 C113,5.6 113.3,6.8 113.3,8.3 C113.3,9.8 113,11 112.3,11.8 C111.7,12.6 110.8,13.1 109.7,13.1 C108.6,13.1 107.8,12.7 107.2,11.9 L107,11.9 L106.6,12.9 L104.7,12.9 L104.7,0.1 L107.2,0.1 L107.2,3.1 C107.2,3.5 107.2,4.1 107.1,4.9 L107.2,4.9 C107.8,4 108.6,3.5 109.8,3.5 L109.8,3.5 Z M109,5.5 C108.4,5.5 107.9,5.7 107.6,6.1 C107.3,6.5 107.2,7.1 107.2,8 L107.2,8.3 C107.2,9.3 107.3,10 107.6,10.4 C107.9,10.8 108.4,11 109,11 C109.5,11 109.9,10.8 110.2,10.3 C110.5,9.8 110.7,9.1 110.7,8.2 C110.7,7.3 110.5,6.6 110.2,6.2 C109.9,5.8 109.5,5.5 109,5.5 L109,5.5 Z"></path>
                    <path d="M4.5,21.5 C4.5,20.7 5,20.3 5.9,20.3 C6.8,20.3 7.3,20.7 7.3,21.5 C7.3,21.9 7.2,22.2 7,22.4 C6.8,22.6 6.4,22.7 6,22.7 C5,22.7 4.5,22.3 4.5,21.5 L4.5,21.5 Z M7.1,33.1 L4.6,33.1 L4.6,23.9 L7.1,23.9 L7.1,33.1 L7.1,33.1 Z"></path>
                    <path d="M18.9,26.3 L23.7,26.3 L23.7,32.6 C22.9,32.9 22.2,33 21.5,33.1 C20.8,33.2 20.1,33.3 19.4,33.3 C17.6,33.3 16.2,32.8 15.2,31.7 C14.2,30.6 13.8,29.1 13.8,27.1 C13.8,25.2 14.4,23.6 15.5,22.5 C16.6,21.4 18.2,20.9 20.1,20.9 C21.3,20.9 22.5,21.2 23.7,21.6 L22.8,23.6 C22,23.2 21.1,23 20.1,23 C19,23 18.1,23.4 17.4,24.1 C16.7,24.8 16.4,25.8 16.4,27.1 C16.4,28.4 16.7,29.4 17.2,30.1 C17.7,30.8 18.5,31.1 19.5,31.1 C20,31.1 20.6,31 21.1,30.9 L21.1,28.4 L18.8,28.4 L18.9,26.3 L18.9,26.3 Z"></path>
                    <path d="M31.6,23.7 C31.9,23.7 32.2,23.7 32.4,23.8 L32.2,26.2 C32,26.1 31.8,26 31.5,26 C30.7,26 30.1,26.2 29.6,26.6 C29.2,27 28.9,27.6 28.9,28.3 L28.9,33 L26.4,33 L26.4,23.8 L28.3,23.8 L28.7,25.4 L28.8,25.4 C29.1,24.9 29.5,24.5 30,24.2 C30.4,23.9 31,23.7 31.6,23.7 L31.6,23.7 Z"></path>
                    <path d="M34,21.5 C34,20.7 34.5,20.3 35.4,20.3 C36.3,20.3 36.8,20.7 36.8,21.5 C36.8,21.9 36.7,22.2 36.5,22.4 C36.3,22.6 35.9,22.7 35.5,22.7 C34.4,22.7 34,22.3 34,21.5 L34,21.5 Z M36.6,33.1 L34.1,33.1 L34.1,23.9 L36.6,23.9 L36.6,33.1 L36.6,33.1 Z"></path>
                    <path d="M47.5,33.1 L45,33.1 L45,27.7 C45,27 44.9,26.5 44.7,26.2 C44.5,25.9 44.1,25.7 43.6,25.7 C43,25.7 42.5,25.9 42.2,26.4 C41.9,26.9 41.8,27.7 41.8,28.7 L41.8,33 L39.3,33 L39.3,23.8 L41.2,23.8 L41.5,25 L41.6,25 C41.8,24.6 42.2,24.2 42.7,24 C43.2,23.8 43.7,23.6 44.3,23.6 C45.7,23.6 46.6,24.1 47.1,25 L47.3,25 C47.5,24.6 47.9,24.2 48.4,24 C48.9,23.8 49.4,23.6 50,23.6 C51,23.6 51.8,23.9 52.4,24.4 C52.9,24.9 53.2,25.8 53.2,27 L53.2,33 L50.7,33 L50.7,27.6 C50.7,26.9 50.6,26.4 50.4,26.1 C50.2,25.8 49.8,25.6 49.3,25.6 C48.7,25.6 48.2,25.8 47.9,26.3 C47.6,26.7 47.4,27.4 47.4,28.4 L47.5,33.1 L47.5,33.1 Z"></path>
                    <path d="M64.1,33.1 L61.6,33.1 L61.6,27.7 C61.6,27 61.5,26.5 61.3,26.2 C61.1,25.9 60.7,25.7 60.2,25.7 C59.6,25.7 59.1,25.9 58.8,26.4 C58.5,26.9 58.4,27.7 58.4,28.7 L58.4,33 L55.9,33 L55.9,23.8 L57.8,23.8 L58.1,25 L58.2,25 C58.4,24.6 58.8,24.2 59.3,24 C59.8,23.8 60.3,23.6 60.9,23.6 C62.3,23.6 63.2,24.1 63.7,25 L63.9,25 C64.1,24.6 64.5,24.2 65,24 C65.5,23.8 66,23.6 66.6,23.6 C67.6,23.6 68.4,23.9 69,24.4 C69.5,24.9 69.8,25.8 69.8,27 L69.8,33 L67.3,33 L67.3,27.6 C67.3,26.9 67.2,26.4 67,26.1 C66.8,25.8 66.4,25.6 65.9,25.6 C65.3,25.6 64.8,25.8 64.5,26.3 C64.2,26.7 64,27.4 64,28.4 L64.1,33.1 L64.1,33.1 Z"></path>
                    <path d="M88.7,33.2 L85.8,33.2 L84.2,26.9 C84.1,26.7 84,26.2 83.9,25.5 C83.8,24.8 83.7,24.3 83.7,24.1 C83.7,24.4 83.6,24.9 83.5,25.5 C83.4,26.2 83.3,26.6 83.2,26.9 L81.6,33.2 L78.7,33.2 L75.6,21.1 L78.1,21.1 L79.6,27.7 C79.9,28.9 80.1,30 80.2,30.9 C80.2,30.6 80.3,30.1 80.4,29.4 C80.5,28.7 80.6,28.2 80.7,27.9 L82.5,21.1 L84.9,21.1 L86.6,27.9 C86.7,28.2 86.8,28.7 86.9,29.3 C87,29.9 87.1,30.5 87.2,30.9 C87.3,30.5 87.3,29.9 87.5,29.3 C87.6,28.7 87.7,28.1 87.8,27.7 L89.3,21.1 L91.8,21.1 L88.7,33.2 L88.7,33.2 Z"></path>
                    <path d="M93,21.6 C93,20.8 93.5,20.4 94.4,20.4 C95.3,20.4 95.8,20.8 95.8,21.6 C95.8,22 95.7,22.3 95.5,22.5 C95.3,22.7 94.9,22.8 94.5,22.8 C93.5,22.8 93,22.4 93,21.6 L93,21.6 Z M95.6,33.2 L93.1,33.2 L93.1,24 L95.6,24 L95.6,33.2 L95.6,33.2 Z"></path>
                    <path d="M100.8,33.2 L98.3,33.2 L98.3,20.4 L100.8,20.4 L100.8,33.2 L100.8,33.2 Z"></path>
                    <path d="M111.9,33.2 L109.4,33.2 L109.4,27.8 C109.4,26.5 108.9,25.8 107.9,25.8 C107.2,25.8 106.7,26 106.4,26.5 C106.1,27 105.9,27.8 105.9,28.8 L105.9,33.1 L103.4,33.1 L103.4,20.3 L105.9,20.3 L105.9,22.9 C105.9,23.1 105.9,23.6 105.8,24.3 L105.7,25 L105.8,25 C106.4,24.1 107.3,23.6 108.5,23.7 C109.6,23.7 110.4,24 111,24.6 C111.6,25.2 111.8,26 111.8,27.1 L111.9,33.2 L111.9,33.2 Z"></path>
                    <path d="M118.7,33.4 C117.2,33.4 116.1,33 115.2,32.2 C114.3,31.4 113.9,30.2 114,28.7 C114,27.2 114.4,26 115.2,25.1 C116,24.3 117,23.8 118.4,23.8 C119.7,23.8 120.7,24.2 121.4,24.9 C122.1,25.6 122.5,26.7 122.5,28 L122.5,29.2 L116.6,29.2 C116.6,29.9 116.8,30.5 117.2,30.9 C117.6,31.3 118.2,31.5 118.9,31.5 C119.5,31.5 120,31.4 120.5,31.3 C121,31.2 121.5,31 122.1,30.7 L122.1,32.6 C121.7,32.8 121.2,33 120.7,33.1 C120,33.3 119.4,33.4 118.7,33.4 L118.7,33.4 Z M118.4,25.6 C117.9,25.6 117.4,25.8 117.1,26.1 C116.8,26.4 116.6,26.9 116.6,27.5 L120.1,27.5 C120.1,26.9 119.9,26.4 119.6,26.1 C119.3,25.8 118.9,25.6 118.4,25.6 L118.4,25.6 Z"></path>
                    <path d="M127,33.2 L124.5,33.2 L124.5,20.4 L127,20.4 L127,33.2 L127,33.2 Z"></path>
                    <path d="M137.9,33.2 L135.4,33.2 L135.4,27.8 C135.4,27.1 135.3,26.6 135.1,26.3 C134.9,26 134.5,25.8 134,25.8 C133.4,25.8 132.9,26 132.6,26.5 C132.3,27 132.2,27.8 132.2,28.8 L132.2,33.1 L129.7,33.1 L129.7,23.9 L131.6,23.9 L131.9,25.1 L132,25.1 C132.2,24.7 132.6,24.3 133.1,24.1 C133.6,23.9 134.1,23.7 134.7,23.7 C136.1,23.7 137,24.2 137.5,25.1 L137.7,25.1 C137.9,24.7 138.3,24.3 138.8,24.1 C139.3,23.9 139.8,23.7 140.4,23.7 C141.4,23.7 142.2,24 142.8,24.5 C143.3,25 143.6,25.9 143.6,27.1 L143.6,33.1 L141.1,33.1 L141.1,27.7 C141.1,27 141,26.5 140.8,26.2 C140.6,25.9 140.2,25.7 139.7,25.7 C139.1,25.7 138.6,25.9 138.3,26.4 C138,26.8 137.8,27.5 137.8,28.5 L137.9,33.2 L137.9,33.2 Z"></path>
                    <path d="M1.8,56.3 C1.5,56.3 1.3,56.3 1.1,56.2 C0.9,56.2 0.7,56.1 0.6,56.1 L0.7,55.3 C1,55.4 1.4,55.5 1.8,55.5 C3,55.5 3.7,54.8 4,53.5 L6.6,41.3 L7.5,41.3 L4.9,53.6 C4.7,54.5 4.4,55.2 3.9,55.7 C3.3,56.1 2.6,56.3 1.8,56.3 L1.8,56.3 Z"></path>
                    <path d="M12.6,44.2 C13.9,44.2 14.6,44.8 14.9,46 L14.9,46 L15.4,44.3 L16.1,44.3 L14.2,53.3 L13.5,53.3 L13.9,51 C13.4,51.8 12.9,52.4 12.4,52.8 C11.9,53.2 11.2,53.4 10.4,53.4 C8.9,53.4 8.1,52.4 8.1,50.3 C8.1,49.2 8.3,48.2 8.7,47.2 C9.1,46.2 9.7,45.5 10.4,44.9 C11,44.5 11.8,44.2 12.6,44.2 L12.6,44.2 Z M10.6,52.8 C11.1,52.8 11.6,52.6 12.1,52.3 C12.6,52 13,51.5 13.4,50.9 C13.8,50.3 14.1,49.7 14.3,49 C14.5,48.3 14.6,47.7 14.6,47.2 C14.6,46.8 14.5,46.4 14.4,46 C14.3,45.7 14,45.4 13.8,45.2 C13.5,45 13.2,44.9 12.8,44.9 C12.1,44.9 11.5,45.1 11,45.6 C10.5,46.1 10,46.7 9.6,47.6 C9.2,48.5 9.1,49.4 9.1,50.3 C9.1,51.1 9.2,51.8 9.5,52.1 C9.8,52.4 10,52.8 10.6,52.8 L10.6,52.8 Z"></path>
                    <path d="M22.4,50.9 C22.4,51.7 22.1,52.3 21.5,52.8 C20.9,53.3 20.2,53.5 19.2,53.5 C18.2,53.5 17.4,53.3 16.7,52.9 L16.7,52 C17.1,52.3 17.5,52.4 18,52.6 C18.5,52.8 18.8,52.8 19.2,52.8 C20,52.8 20.5,52.6 20.9,52.3 C21.3,52 21.5,51.5 21.5,51 C21.5,50.8 21.5,50.6 21.4,50.4 C21.3,50.2 21.2,50.1 21,49.9 C20.8,49.7 20.4,49.5 19.9,49.2 C19.1,48.8 18.5,48.4 18.3,48 C18,47.6 17.9,47.2 17.9,46.7 C17.9,46 18.2,45.4 18.7,45 C19.2,44.6 20,44.3 20.8,44.3 C21.2,44.3 21.6,44.3 22.1,44.4 C22.6,44.5 22.9,44.6 23.3,44.8 L23,45.5 C22.3,45.1 21.5,45 20.8,45 C20.2,45 19.7,45.1 19.3,45.4 C18.9,45.7 18.7,46.1 18.7,46.5 C18.7,46.8 18.7,47 18.8,47.2 C18.9,47.4 19.1,47.6 19.3,47.8 C19.5,48 19.9,48.2 20.3,48.4 C20.9,48.7 21.4,49 21.6,49.3 C21.9,49.5 22.1,49.8 22.2,50 C22.4,50.3 22.4,50.6 22.4,50.9 L22.4,50.9 Z M20.3,42.9 C20.7,42.6 21.1,42.2 21.5,41.7 C22,41.2 22.3,40.7 22.6,40.3 L23.7,40.3 L23.7,40.5 C23.4,40.9 23,41.3 22.4,41.8 C21.8,42.3 21.3,42.7 20.8,43 L20.2,43 L20.3,42.9 L20.3,42.9 Z"></path>
                    <path d="M29.2,53.4 L28.4,53.4 L30.3,44.4 L31.1,44.4 L29.2,53.4 L29.2,53.4 Z M30.7,42.1 C30.7,41.8 30.8,41.6 30.9,41.4 C31,41.2 31.2,41.1 31.4,41.1 C31.7,41.1 31.9,41.3 31.9,41.7 C31.9,42 31.8,42.3 31.7,42.4 C31.6,42.6 31.4,42.7 31.2,42.7 C31,42.7 30.9,42.6 30.8,42.5 C30.7,42.4 30.7,42.3 30.7,42.1 L30.7,42.1 Z"></path>
                    <path d="M42.4,51.7 L48.5,41.3 L49.7,41.3 L47.2,53.4 L46.4,53.4 L48,46 C48.4,44 48.7,42.7 48.8,42.3 L48.8,42.3 L42.4,53.4 L42,53.4 L40.2,42.3 C40.1,43.1 39.9,44.3 39.6,45.8 L38,53.4 L37.2,53.4 L39.8,41.3 L41,41.3 L42.4,51.7 L42.4,51.7 Z"></path>
                    <path d="M55.2,44.3 C56.5,44.3 57.2,44.9 57.5,46.1 L57.5,46.1 L58,44.4 L58.7,44.4 L56.8,53.4 L56.1,53.4 L56.5,51.1 C56,51.9 55.5,52.5 55,52.9 C54.4,53.3 53.8,53.5 53,53.5 C51.5,53.5 50.7,52.5 50.7,50.4 C50.7,49.3 50.9,48.3 51.3,47.3 C51.7,46.3 52.3,45.6 53,45 C53.7,44.4 54.4,44.3 55.2,44.3 L55.2,44.3 Z M53.2,52.8 C53.7,52.8 54.2,52.6 54.7,52.3 C55.2,52 55.6,51.5 56,50.9 C56.4,50.3 56.7,49.7 56.9,49 C57.1,48.3 57.2,47.7 57.2,47.2 C57.2,46.8 57.1,46.4 57,46 C56.9,45.7 56.6,45.4 56.4,45.2 C56.1,45 55.8,44.9 55.4,44.9 C54.7,44.9 54.1,45.1 53.6,45.6 C53,46.1 52.6,46.7 52.2,47.6 C51.8,48.5 51.7,49.4 51.7,50.3 C51.7,51.1 51.8,51.8 52.1,52.1 C52.2,52.6 52.6,52.8 53.2,52.8 L53.2,52.8 Z"></path>
                    <path d="M62.1,46.5 L63.6,45.6 L63.9,46.2 L61.9,47.4 L60.6,53.4 L59.8,53.4 L61,47.9 L59.6,48.7 L59.3,48.1 L61.2,47 L62.6,40.5 L63.4,40.5 L62.1,46.5 L62.1,46.5 Z"></path>
                    <path d="M71.8,44.4 L71.7,45.1 L69.7,45.2 C69.8,45.4 70,45.6 70.1,45.9 C70.2,46.2 70.2,46.5 70.2,46.8 C70.2,47.4 70,48 69.7,48.5 C69.4,49 69,49.4 68.5,49.7 C68,50 67.4,50.1 66.7,50.1 C66.4,50.1 66.1,50.1 66.1,50 C65.7,50.2 65.3,50.4 65.1,50.6 C64.9,50.8 64.7,51 64.7,51.3 C64.7,51.5 64.8,51.7 65,51.8 C65.2,51.9 65.5,52 65.9,52.1 L66.9,52.2 C68.8,52.4 69.8,53.1 69.8,54.4 C69.8,55 69.6,55.6 69.3,56 C68.9,56.5 68.4,56.8 67.8,57.1 C67.2,57.4 66.3,57.5 65.4,57.5 C64.4,57.5 63.6,57.3 63,56.9 C62.4,56.5 62.1,55.9 62.1,55.2 C62.1,53.9 63,53 64.7,52.4 C64.3,52.2 64.1,51.8 64.1,51.4 C64.1,50.7 64.6,50.2 65.7,49.7 C65.3,49.5 65,49.2 64.8,48.8 C64.6,48.4 64.5,48 64.5,47.5 C64.5,46.9 64.6,46.3 64.9,45.8 C65.2,45.3 65.6,44.9 66.1,44.6 C66.6,44.3 67.2,44.2 67.8,44.2 C68.2,44.2 68.6,44.3 69,44.4 L71.8,44.4 L71.8,44.4 Z M62.8,55.1 C62.8,55.7 63,56.1 63.5,56.3 C63.9,56.6 64.6,56.7 65.3,56.7 C66.4,56.7 67.3,56.5 67.9,56.1 C68.5,55.7 68.8,55.1 68.8,54.4 C68.8,53.9 68.6,53.6 68.3,53.3 C68,53 67.4,52.9 66.5,52.8 L65.2,52.7 C64.3,52.9 63.7,53.3 63.3,53.6 C62.9,53.9 62.8,54.6 62.8,55.1 L62.8,55.1 Z M65.1,47.5 C65.1,48.1 65.3,48.6 65.6,48.9 C65.9,49.2 66.4,49.4 67,49.4 C67.5,49.4 67.9,49.3 68.3,49.1 C68.7,48.9 68.9,48.6 69.1,48.2 C69.3,47.8 69.4,47.3 69.4,46.8 C69.4,46.2 69.2,45.8 68.9,45.5 C68.6,45.2 68.2,45 67.6,45 C67.1,45 66.6,45.1 66.3,45.4 C65.9,45.6 65.6,46 65.4,46.4 C65.2,46.7 65.1,47.1 65.1,47.5 L65.1,47.5 Z"></path>
                    <path d="M76.7,44.3 C77.7,44.3 78.5,44.6 79,45.2 C79.5,45.8 79.8,46.6 79.8,47.7 C79.8,48.8 79.6,49.8 79.2,50.7 C78.8,51.6 78.3,52.4 77.6,52.9 C76.9,53.4 76.1,53.6 75.2,53.6 C74.2,53.6 73.4,53.3 72.9,52.7 C72.4,52.1 72.1,51.2 72.1,50.1 C72.1,49 72.3,48.1 72.7,47.1 C73.1,46.2 73.6,45.5 74.3,45 C75,44.5 75.8,44.3 76.7,44.3 L76.7,44.3 Z M76.6,45 C75.9,45 75.3,45.2 74.8,45.6 C74.3,46 73.8,46.6 73.5,47.5 C73.2,48.3 73,49.2 73,50.1 C73,52 73.8,52.9 75.3,52.9 C76,52.9 76.6,52.7 77.2,52.3 C77.7,51.9 78.2,51.2 78.5,50.4 C78.8,49.6 79,48.7 79,47.7 C79,46.9 78.8,46.2 78.4,45.7 C77.9,45.2 77.4,45 76.6,45 L76.6,45 Z"></path>
                    <path d="M86.5,51 C86.5,51.8 86.2,52.4 85.6,52.9 C85,53.4 84.3,53.6 83.3,53.6 C82.3,53.6 81.5,53.4 80.8,53 L80.8,52.1 C81.2,52.4 81.6,52.5 82.1,52.7 C82.6,52.9 82.9,52.9 83.3,52.9 C84.1,52.9 84.6,52.7 85,52.4 C85.4,52.1 85.6,51.6 85.6,51.1 C85.6,50.9 85.6,50.7 85.5,50.5 C85.4,50.3 85.3,50.2 85.1,50 C84.9,49.8 84.5,49.6 84,49.3 C83.2,48.9 82.6,48.5 82.4,48.1 C82.1,47.7 82,47.3 82,46.8 C82,46.1 82.3,45.5 82.8,45.1 C83.3,44.7 84.1,44.4 84.9,44.4 C85.3,44.4 85.7,44.4 86.2,44.5 C86.7,44.6 87,44.7 87.4,44.9 L87,45.6 C86.3,45.2 85.5,45.1 84.8,45.1 C84.2,45.1 83.7,45.2 83.3,45.5 C82.9,45.8 82.7,46.2 82.7,46.6 C82.7,46.9 82.7,47.1 82.8,47.3 C82.9,47.5 83.1,47.7 83.3,47.9 C83.5,48.1 83.9,48.3 84.3,48.5 C84.9,48.8 85.4,49.1 85.6,49.4 C85.9,49.6 86.1,49.9 86.2,50.1 C86.4,50.4 86.5,50.7 86.5,51 L86.5,51 Z"></path>
                    <path d="M88.8,53.4 L88,53.4 L89.9,44.4 L90.7,44.4 L88.8,53.4 L88.8,53.4 Z M90.3,42.2 C90.3,41.9 90.4,41.7 90.5,41.5 C90.6,41.3 90.8,41.2 91,41.2 C91.3,41.2 91.5,41.4 91.5,41.8 C91.5,42.1 91.4,42.4 91.3,42.5 C91.2,42.7 91,42.8 90.8,42.8 C90.6,42.8 90.5,42.7 90.4,42.6 C90.3,42.5 90.3,42.4 90.3,42.2 L90.3,42.2 Z"></path>
                    <path d="M96.7,44.3 C98,44.3 98.7,44.9 99,46.1 L99,46.1 L99.5,44.4 L100.2,44.4 L98.3,53.4 L97.6,53.4 L98,51.1 C97.5,51.9 97,52.5 96.5,52.9 C95.9,53.3 95.3,53.5 94.5,53.5 C93,53.5 92.2,52.5 92.2,50.4 C92.2,49.3 92.4,48.3 92.8,47.3 C93.2,46.3 93.8,45.6 94.5,45 C95.2,44.4 95.9,44.3 96.7,44.3 L96.7,44.3 Z M94.7,52.9 C95.2,52.9 95.7,52.7 96.2,52.4 C96.7,52.1 97.1,51.6 97.5,51 C97.9,50.4 98.2,49.8 98.4,49.1 C98.6,48.4 98.7,47.8 98.7,47.3 C98.7,46.9 98.6,46.5 98.5,46.1 C98.4,45.8 98.1,45.5 97.9,45.3 C97.6,45.1 97.3,45 96.9,45 C96.2,45 95.6,45.2 95.1,45.7 C94.5,46.2 94.1,46.8 93.7,47.7 C93.3,48.6 93.2,49.5 93.2,50.4 C93.2,51.2 93.3,51.9 93.6,52.2 C93.7,52.7 94.1,52.9 94.7,52.9 L94.7,52.9 Z"></path>
                </g>
            </g>
        </g>
    </g>
</svg>
