<?xml version="1.0" encoding="UTF-8" standalone="no"?>
<svg viewBox="0 0 279 147" version="1.1" xmlns="http://www.w3.org/2000/svg" xmlns:xlink="http://www.w3.org/1999/xlink" xmlns:sketch="http://www.bohemiancoding.com/sketch/ns">
    <!-- Generator: Sketch 3.3 (11970) - http://www.bohemiancoding.com/sketch -->
    <title>ekran11-04</title>
    <desc>Created with Sketch.</desc>
    <defs></defs>
    <g id="Page-1" stroke="none" stroke-width="1" fill="none" fill-rule="evenodd" sketch:type="MSPage">
        <g id="ekran11-04" sketch:type="MSLayerGroup">
            <g id="Group" sketch:type="MSShapeGroup">
                <path d="M251.5,71.1 L251.6,1.2 L0,0.9 L1.7,146.4 L278.2,146.7 L278.3,71.1 L251.5,71.1 Z" id="Shape" fill="#FFFFFF"></path>
                <g transform="translate(14.000000, 20.000000)" id="Shape" fill="#000000">
                    <path d="M9.2,5.5 C9.2,6.8 8.8,7.8 8,8.5 C7.2,9.2 6,9.5 4.5,9.5 L3.4,9.5 L3.4,13.8 L0.8,13.8 L0.8,1.7 L4.7,1.7 C6.2,1.7 7.3,2 8,2.6 C8.7,3.2 9.2,4.3 9.2,5.5 L9.2,5.5 Z M3.4,7.4 L4.2,7.4 C5,7.4 5.6,7.2 6,6.9 C6.4,6.6 6.6,6.1 6.6,5.5 C6.6,4.9 6.4,4.5 6.1,4.2 C5.8,3.9 5.3,3.8 4.6,3.8 L3.4,3.8 L3.4,7.4 L3.4,7.4 Z"></path>
                    <path d="M15.4,14 C13.9,14 12.8,13.6 11.9,12.8 C11.1,12 10.6,10.8 10.7,9.3 C10.7,7.8 11.1,6.6 11.9,5.7 C12.7,4.9 13.7,4.4 15.1,4.4 C16.4,4.4 17.4,4.8 18.1,5.5 C18.8,6.2 19.2,7.3 19.2,8.6 L19.2,9.8 L13.3,9.8 C13.3,10.5 13.5,11.1 13.9,11.5 C14.3,11.9 14.9,12.1 15.6,12.1 C16.2,12.1 16.7,12 17.2,11.9 C17.7,11.8 18.2,11.6 18.8,11.3 L18.8,13.2 C18.4,13.4 17.9,13.6 17.4,13.7 C16.9,13.8 16.1,14 15.4,14 L15.4,14 Z M15.1,6.2 C14.6,6.2 14.1,6.4 13.8,6.7 C13.5,7 13.3,7.5 13.3,8.1 L16.8,8.1 C16.8,7.5 16.6,7 16.3,6.7 C16,6.4 15.6,6.2 15.1,6.2 L15.1,6.2 Z"></path>
                    <path d="M26.4,4.4 C26.7,4.4 27,4.4 27.2,4.5 L27,6.9 C26.8,6.8 26.5,6.8 26.3,6.8 C25.5,6.8 24.9,7 24.4,7.4 C24,7.8 23.7,8.4 23.7,9.1 L23.7,13.8 L21.2,13.8 L21.2,4.6 L23.1,4.6 L23.5,6.2 L23.6,6.2 C23.9,5.7 24.3,5.3 24.8,5 C25.3,4.6 25.8,4.4 26.4,4.4 L26.4,4.4 Z"></path>
                    <path d="M34.1,4.4 C34.4,4.4 34.7,4.4 34.9,4.5 L34.7,6.9 C34.5,6.8 34.2,6.8 34,6.8 C33.2,6.8 32.6,7 32.1,7.4 C31.7,7.8 31.4,8.4 31.4,9.1 L31.4,13.8 L28.9,13.8 L28.9,4.6 L30.8,4.6 L31.2,6.2 L31.3,6.2 C31.6,5.7 32,5.3 32.5,5 C33,4.6 33.5,4.4 34.1,4.4 L34.1,4.4 Z"></path>
                    <path d="M42.4,13.8 L41.9,12.5 L41.8,12.5 C41.4,13 40.9,13.4 40.5,13.6 C40.1,13.8 39.5,13.9 38.7,13.9 C37.8,13.9 37.1,13.6 36.6,13.1 C36.2,12.7 36,12 36,11.1 C36,10.1 36.3,9.4 37,8.9 C37.7,8.4 38.7,8.2 40.1,8.1 L41.7,8.1 L41.7,7.7 C41.7,6.8 41.2,6.3 40.3,6.3 C39.6,6.3 38.7,6.5 37.7,7 L36.9,5.3 C38,4.7 39.1,4.5 40.4,4.5 C41.6,4.5 42.6,4.8 43.2,5.3 C43.9,5.8 44.2,6.7 44.2,7.8 L44.2,13.9 L42.4,13.8 L42.4,13.8 Z M41.7,9.6 L40.7,9.6 C40,9.6 39.4,9.8 39.1,10 C38.7,10.2 38.6,10.6 38.6,11.1 C38.6,11.8 39,12.2 39.8,12.2 C40.4,12.2 40.9,12 41.2,11.7 C41.5,11.4 41.7,10.9 41.7,10.4 L41.7,9.6 L41.7,9.6 Z"></path>
                    <path d="M53.3,13.9 L53,12.7 L52.9,12.7 C52.6,13.1 52.2,13.5 51.8,13.7 C51.2,13.9 50.6,14 50,14 C48.9,14 48.1,13.7 47.6,13.1 C47.1,12.5 46.8,11.7 46.8,10.6 L46.8,4.6 L49.3,4.6 L49.3,10 C49.3,10.7 49.4,11.2 49.7,11.5 C49.9,11.8 50.3,12 50.8,12 C51.5,12 52,11.8 52.3,11.3 C52.6,10.8 52.8,10.1 52.8,9 L52.8,4.7 L55.3,4.7 L55.3,13.9 L53.3,13.9 L53.3,13.9 Z"></path>
                    <path d="M60.4,13.9 L57.9,13.9 L57.9,1.1 L60.4,1.1 L60.4,13.9 L60.4,13.9 Z"></path>
                    <path d="M66.9,12 C67.3,12 67.9,11.9 68.5,11.7 L68.5,13.6 C67.9,13.9 67.1,14 66.2,14 C65.2,14 64.5,13.7 64,13.2 C63.5,12.7 63.3,11.9 63.3,10.9 L63.3,6.5 L62.1,6.5 L62.1,5.4 L63.5,4.6 L64.2,2.7 L65.8,2.7 L65.8,4.7 L68.4,4.7 L68.4,6.6 L65.8,6.6 L65.8,11 C65.8,11.4 65.9,11.6 66.1,11.8 C66.3,11.9 66.6,12 66.9,12 L66.9,12 Z"></path>
                    <path d="M80.1,3.8 C79.1,3.8 78.4,4.2 77.9,4.9 C77.4,5.6 77.1,6.6 77.1,7.9 C77.1,10.6 78.1,11.9 80.1,11.9 C80.9,11.9 82,11.7 83.2,11.3 L83.2,13.4 C82.2,13.8 81.1,14 79.9,14 C78.1,14 76.8,13.5 75.9,12.4 C75,11.3 74.5,9.8 74.5,7.8 C74.5,6.5 74.7,5.4 75.2,4.5 C75.7,3.6 76.3,2.8 77.2,2.3 C78.1,1.8 79.1,1.5 80.2,1.5 C81.4,1.5 82.5,1.8 83.7,2.4 L82.9,4.5 C82.4,4.3 82,4.1 81.5,3.9 C81,3.9 80.5,3.8 80.1,3.8 L80.1,3.8 Z"></path>
                    <path d="M94,13.9 L91.5,13.9 L91.5,8.5 C91.5,7.2 91,6.5 90,6.5 C89.3,6.5 88.8,6.7 88.5,7.2 C88.2,7.7 88,8.5 88,9.5 L88,13.8 L85.5,13.8 L85.5,1 L88,1 L88,3.6 C88,3.8 88,4.3 87.9,5 L87.8,5.7 L87.9,5.7 C88.5,4.8 89.4,4.3 90.6,4.4 C91.7,4.4 92.5,4.7 93.1,5.3 C93.7,5.9 93.9,6.7 93.9,7.8 L94,13.9 L94,13.9 Z"></path>
                    <path d="M102.5,13.9 L102,12.6 L101.9,12.6 C101.5,13.1 101,13.5 100.6,13.7 C100.2,13.9 99.6,14 98.8,14 C97.9,14 97.2,13.7 96.7,13.2 C96.2,12.7 95.9,12 95.9,11 C95.9,10 96.2,9.3 96.9,8.8 C97.6,8.3 98.6,8.1 100,8 L101.6,8 L101.6,7.6 C101.6,6.7 101.1,6.2 100.2,6.2 C99.5,6.2 98.6,6.4 97.6,6.9 L96.8,5.2 C97.9,4.6 99,4.4 100.3,4.4 C101.5,4.4 102.5,4.7 103.1,5.2 C103.8,5.7 104.1,6.6 104.1,7.7 L104.1,13.8 L102.5,13.9 L102.5,13.9 Z M101.7,9.6 L100.7,9.6 C100,9.6 99.4,9.8 99.1,10 C98.7,10.2 98.6,10.6 98.6,11.1 C98.6,11.8 99,12.2 99.8,12.2 C100.4,12.2 100.9,12 101.2,11.7 C101.5,11.4 101.7,10.9 101.7,10.4 L101.7,9.6 L101.7,9.6 Z"></path>
                    <path d="M112,4.5 C112.3,4.5 112.6,4.5 112.8,4.6 L112.6,7 C112.4,6.9 112.1,6.9 111.9,6.9 C111.1,6.9 110.5,7.1 110,7.5 C109.6,7.9 109.3,8.5 109.3,9.2 L109.3,13.9 L106.8,13.9 L106.8,4.7 L108.7,4.7 L109.1,6.3 L109.2,6.3 C109.5,5.8 109.9,5.4 110.4,5.1 C110.9,4.7 111.4,4.5 112,4.5 L112,4.5 Z"></path>
                    <path d="M117,13.9 L114.5,13.9 L114.5,1.1 L117,1.1 L117,13.9 L117,13.9 Z"></path>
                    <path d="M123.8,14.1 C122.3,14.1 121.2,13.7 120.3,12.9 C119.5,12.1 119,10.9 119.1,9.4 C119.1,7.9 119.5,6.7 120.3,5.8 C121.1,5 122.1,4.5 123.5,4.5 C124.8,4.5 125.8,4.9 126.5,5.6 C127.2,6.3 127.6,7.4 127.6,8.7 L127.6,9.9 L121.7,9.9 C121.7,10.6 121.9,11.2 122.3,11.6 C122.7,12 123.3,12.2 124,12.2 C124.6,12.2 125.1,12.1 125.6,12 C126.1,11.9 126.6,11.7 127.2,11.4 L127.2,13.3 C126.8,13.5 126.3,13.7 125.8,13.8 C125.2,14.1 124.6,14.1 123.8,14.1 L123.8,14.1 Z M123.5,6.3 C123,6.3 122.5,6.5 122.2,6.8 C121.9,7.1 121.7,7.6 121.7,8.2 L125.2,8.2 C125.2,7.6 125,7.1 124.7,6.8 C124.4,6.5 124,6.3 123.5,6.3 L123.5,6.3 Z"></path>
                    <path d="M136.1,11.2 C136.1,12.1 135.8,12.9 135.1,13.4 C134.4,13.9 133.5,14.1 132.1,14.1 C131.4,14.1 130.9,14.1 130.4,14 C129.9,13.9 129.5,13.8 129.1,13.6 L129.1,11.5 C129.6,11.7 130.1,11.9 130.7,12.1 C131.3,12.2 131.8,12.3 132.2,12.3 C133.1,12.3 133.6,12 133.6,11.5 C133.6,11.3 133.5,11.1 133.4,11 C133.3,10.9 133.1,10.7 132.8,10.6 C132.5,10.4 132.1,10.3 131.6,10.1 C130.9,9.8 130.4,9.5 130,9.3 C129.7,9 129.4,8.8 129.3,8.4 C129.1,8.1 129.1,7.7 129.1,7.2 C129.1,6.4 129.4,5.7 130.1,5.3 C130.7,4.9 131.6,4.6 132.8,4.6 C133.9,4.6 135,4.8 136,5.3 L135.2,7.1 C134.7,6.9 134.3,6.7 133.9,6.6 C133.5,6.5 133.1,6.4 132.7,6.4 C132,6.4 131.6,6.6 131.6,7 C131.6,7.2 131.7,7.4 132,7.6 C132.3,7.8 132.8,8 133.6,8.3 C134.3,8.6 134.8,8.9 135.2,9.1 C135.5,9.4 135.8,9.6 135.9,10 C136,10.4 136.1,10.8 136.1,11.2 L136.1,11.2 Z"></path>
                    <path d="M7.2,22.6 C6.1,22.6 5.1,22.9 4.3,23.5 C3.5,24.1 2.8,24.9 2.3,26 C1.8,27.1 1.6,28.3 1.5,29.6 C1.5,30.8 1.8,31.8 2.4,32.5 C3,33.2 3.9,33.5 5,33.5 C5.8,33.5 6.6,33.4 7.5,33.1 L7.5,33.9 C6.6,34.2 5.8,34.3 4.9,34.3 C3.5,34.3 2.5,33.9 1.7,33.1 C1,32.3 0.6,31.2 0.6,29.7 C0.6,28.2 0.9,26.9 1.5,25.7 C2.1,24.5 2.9,23.5 3.8,22.9 C4.8,22.2 5.9,21.9 7.1,21.9 C8.1,21.9 8.9,22.1 9.6,22.5 L9.2,23.2 C8.9,23 8.6,22.9 8.2,22.8 C8,22.7 7.6,22.6 7.2,22.6 L7.2,22.6 Z"></path>
                    <path d="M14.7,34.1 L8.7,34.1 L8.8,33.5 L15.2,25.8 L10.7,25.8 L10.8,25.1 L16.2,25.1 L16.1,25.8 L9.8,33.4 L14.8,33.4 L14.7,34.1 L14.7,34.1 Z"></path>
                    <path d="M20.1,34.3 C19.1,34.3 18.4,34 17.9,33.4 C17.4,32.8 17.1,32 17.1,30.9 C17.1,29.9 17.3,29 17.7,28 C18.1,27 18.6,26.4 19.3,25.8 C20,25.3 20.7,25 21.6,25 C22.2,25 22.7,25.2 23.1,25.5 C23.5,25.8 23.7,26.3 23.7,26.9 C23.7,27.9 23.2,28.7 22.3,29.2 C21.4,29.7 20.1,30 18.3,30 L18,30 L18,30.8 C18,31.7 18.2,32.4 18.6,32.9 C19,33.4 19.6,33.6 20.4,33.6 C21.1,33.6 21.9,33.4 22.7,33 L22.7,33.8 C21.8,34.1 21,34.3 20.1,34.3 L20.1,34.3 Z M21.5,25.7 C20.8,25.7 20.1,26 19.5,26.7 C18.9,27.3 18.4,28.2 18.2,29.2 L18.6,29.2 C21.4,29.2 22.9,28.5 22.9,27 C22.9,26.6 22.8,26.3 22.5,26.1 C22.2,25.8 21.9,25.7 21.5,25.7 L21.5,25.7 Z"></path>
                    <path d="M29.8,25 C30.2,25 30.5,25 30.8,25.1 L30.6,25.9 C30.3,25.8 30,25.8 29.7,25.8 C29.2,25.8 28.7,26 28.2,26.3 C27.7,26.6 27.3,27.2 26.9,27.9 C26.5,28.6 26.2,29.4 26.1,30.2 L25.3,34.2 L24.5,34.2 L26.4,25.2 L27.1,25.2 L26.9,26.9 C27.3,26.4 27.6,26 27.9,25.8 C28.2,25.6 28.5,25.4 28.8,25.3 C29.1,25 29.4,25 29.8,25 L29.8,25 Z"></path>
                    <path d="M37,34.1 L36.5,28.4 C36.4,27.2 36.4,26.4 36.4,26.2 L36.4,26.2 C36.2,26.7 35.8,27.5 35.2,28.6 L32.3,34.1 L31.3,34.1 L31.1,25.1 L31.9,25.1 L32,31.9 L32,33.2 C32.3,32.5 32.7,31.6 33.2,30.8 L36.3,25.2 L37,25.2 L37.5,30.8 C37.6,31.6 37.6,32.4 37.6,33.2 L37.6,33.2 L37.8,32.7 L38.6,30.8 L41.2,25.2 L42,25.2 L37.8,34.2 L37,34.1 L37,34.1 Z"></path>
                    <path d="M47,25 C48,25 48.8,25.3 49.3,25.9 C49.8,26.5 50.1,27.3 50.1,28.4 C50.1,29.5 49.9,30.5 49.5,31.4 C49.1,32.3 48.6,33.1 47.9,33.6 C47.2,34.1 46.4,34.3 45.5,34.3 C44.5,34.3 43.7,34 43.2,33.4 C42.7,32.8 42.4,31.9 42.4,30.8 C42.4,29.7 42.6,28.8 43,27.8 C43.4,26.9 43.9,26.2 44.6,25.7 C45.3,25.2 46.1,25 47,25 L47,25 Z M46.9,25.7 C46.2,25.7 45.6,25.9 45.1,26.3 C44.6,26.7 44.1,27.3 43.8,28.2 C43.5,29 43.3,29.9 43.3,30.8 C43.3,32.7 44.1,33.6 45.6,33.6 C46.3,33.6 46.9,33.4 47.5,33 C48,32.6 48.5,31.9 48.8,31.1 C49.1,30.3 49.3,29.4 49.3,28.4 C49.3,27.6 49.1,26.9 48.7,26.4 C48.3,25.9 47.7,25.7 46.9,25.7 L46.9,25.7 Z"></path>
                    <path d="M57.2,34.1 L58.4,28.4 C58.5,27.9 58.6,27.5 58.6,27.1 C58.6,26.7 58.5,26.3 58.2,26.1 C58,25.9 57.6,25.7 57.1,25.7 C56.5,25.7 55.9,25.9 55.4,26.3 C54.9,26.7 54.4,27.2 54,27.8 C53.6,28.5 53.3,29.2 53.1,30.2 L52.3,34.1 L51.5,34.1 L53.4,25.1 L54.1,25.1 L53.8,27 C54.7,25.7 55.8,25 57.2,25 C57.9,25 58.4,25.2 58.8,25.5 C59.2,25.9 59.3,26.4 59.3,27 C59.3,27.4 59.2,27.9 59.1,28.5 L58,34.1 L57.2,34.1 L57.2,34.1 Z"></path>
                    <path d="M61.3,25.2 L62.1,25.2 L62.8,29.7 C63.1,31.6 63.2,32.9 63.2,33.4 L63.3,33.4 C63.5,32.8 64.1,31.8 64.8,30.4 L67.7,25.2 L68.5,25.2 L62.6,35.8 C62.2,36.5 61.9,37 61.6,37.3 C61.3,37.6 61,37.8 60.7,38 C60.4,38.2 59.9,38.2 59.5,38.2 C59.1,38.2 58.8,38.1 58.4,38 L58.4,37.2 C58.8,37.3 59.2,37.4 59.5,37.4 C59.9,37.4 60.3,37.3 60.7,37 C61.1,36.7 61.4,36.3 61.8,35.6 C62.1,35 62.4,34.5 62.6,34.1 L61.3,25.2 L61.3,25.2 Z"></path>
                    <path d="M80.4,34.2 L79.5,34.2 L76.7,27.7 L75.1,29 L74,34.2 L73.2,34.2 L75.8,22.1 L76.6,22.1 L75.3,28.1 L76.4,27.1 L82,22.1 L83.1,22.1 L77.3,27.1 L80.4,34.2 L80.4,34.2 Z"></path>
                    <path d="M87,25.1 C88.3,25.1 89,25.7 89.3,26.9 L89.3,26.9 L89.8,25.2 L90.5,25.2 L88.6,34.2 L87.9,34.2 L88.3,31.9 C87.8,32.7 87.3,33.3 86.8,33.7 C86.2,34.1 85.6,34.3 84.8,34.3 C83.3,34.3 82.5,33.3 82.5,31.2 C82.5,30.1 82.7,29.1 83.1,28.1 C83.5,27.1 84.1,26.4 84.8,25.8 C85.4,25.3 86.1,25.1 87,25.1 L87,25.1 Z M84.9,33.6 C85.4,33.6 85.9,33.4 86.4,33.1 C86.9,32.8 87.3,32.3 87.7,31.7 C88.1,31.1 88.4,30.5 88.6,29.8 C88.8,29.1 88.9,28.5 88.9,28 C88.9,27.6 88.8,27.2 88.7,26.8 C88.6,26.4 88.3,26.2 88.1,26 C87.8,25.8 87.5,25.7 87.1,25.7 C86.4,25.7 85.8,25.9 85.3,26.4 C84.7,26.9 84.3,27.5 83.9,28.4 C83.5,29.3 83.4,30.2 83.4,31.1 C83.4,31.9 83.5,32.6 83.8,32.9 C83.9,33.4 84.3,33.6 84.9,33.6 L84.9,33.6 Z"></path>
                    <path d="M95,34.3 C93.7,34.3 93,33.7 92.7,32.5 L92.7,32.5 C92.6,32.9 92.2,34.8 91.5,38.2 L90.7,38.2 L93.5,25.2 L94.2,25.2 L93.8,27.5 C94.3,26.7 94.8,26 95.4,25.7 C96,25.3 96.6,25.1 97.3,25.1 C98,25.1 98.6,25.4 99,25.9 C99.4,26.4 99.6,27.2 99.6,28.2 C99.6,29.3 99.4,30.3 99,31.3 C98.6,32.3 98.1,33 97.4,33.6 C96.6,34 95.9,34.3 95,34.3 L95,34.3 Z M97.1,25.8 C96.6,25.8 96.1,26 95.7,26.3 C95.2,26.6 94.8,27.1 94.4,27.7 C94,28.3 93.7,29 93.5,29.7 C93.3,30.4 93.2,31 93.2,31.4 C93.2,32.1 93.4,32.6 93.7,33.1 C94,33.5 94.5,33.7 95.1,33.7 C95.8,33.7 96.4,33.5 97,33 C97.6,32.5 98,31.9 98.4,31 C98.8,30.1 98.9,29.2 98.9,28.3 C98.7,26.6 98.2,25.8 97.1,25.8 L97.1,25.8 Z"></path>
                    <path d="M106.1,25.2 L106,25.9 L103.7,25.9 L102.6,31.1 C102.5,31.6 102.4,32.1 102.4,32.5 C102.4,33.3 102.7,33.6 103.4,33.6 C103.8,33.6 104.2,33.5 104.7,33.4 L104.7,34.1 C104.1,34.3 103.7,34.3 103.3,34.3 C102.8,34.3 102.3,34.1 102,33.8 C101.7,33.5 101.6,33.1 101.6,32.5 C101.6,32.1 101.7,31.5 101.8,30.8 L102.9,25.8 L101.4,25.8 L101.5,25.2 L103,25.1 L103.8,23 L104.3,23 L103.8,25.1 L106.1,25.2 L106.1,25.2 Z"></path>
                    <path d="M108.6,25.2 L107.3,31 C107.2,31.6 107.1,32 107.1,32.3 C107.1,32.7 107.2,33 107.5,33.3 C107.8,33.5 108.1,33.7 108.6,33.7 C109.2,33.7 109.8,33.5 110.3,33.2 C110.8,32.8 111.3,32.3 111.7,31.7 C112.1,31 112.3,30.3 112.5,29.4 L113.4,25.4 L114.2,25.4 L112.3,34.4 L111.6,34.4 L111.8,32.7 C110.9,33.9 109.8,34.5 108.5,34.5 C107.8,34.5 107.2,34.3 106.9,34 C106.5,33.7 106.3,33.2 106.3,32.5 C106.3,32.2 106.4,31.7 106.5,31.1 L107.7,25.4 L108.6,25.2 L108.6,25.2 Z"></path>
                    <path d="M120.8,25.1 C121.2,25.1 121.5,25.1 121.8,25.2 L121.6,26 C121.3,25.9 121,25.9 120.7,25.9 C120.2,25.9 119.7,26.1 119.2,26.4 C118.7,26.8 118.3,27.3 117.9,28 C117.5,28.7 117.2,29.5 117.1,30.3 L116.3,34.3 L115.5,34.3 L117.4,25.3 L118.1,25.3 L117.9,27 C118.3,26.5 118.6,26.1 118.9,25.9 C119.2,25.7 119.5,25.5 119.8,25.4 C120.1,25.1 120.4,25.1 120.8,25.1 L120.8,25.1 Z"></path>
                    <path d="M124.9,34.4 C123.9,34.4 123.2,34.1 122.7,33.5 C122.2,32.9 121.9,32.1 121.9,31 C121.9,30 122.1,29.1 122.5,28.1 C122.9,27.2 123.4,26.5 124.1,25.9 C124.8,25.4 125.5,25.1 126.4,25.1 C127,25.1 127.5,25.3 127.9,25.6 C128.3,25.9 128.5,26.4 128.5,27 C128.5,28 128,28.8 127.1,29.3 C126.2,29.8 124.9,30.1 123.1,30.1 L122.8,30.1 L122.8,30.9 C122.8,31.8 123,32.5 123.4,33 C123.8,33.5 124.4,33.7 125.2,33.7 C125.9,33.7 126.7,33.5 127.5,33.1 L127.5,33.9 C126.6,34.2 125.8,34.4 124.9,34.4 L124.9,34.4 Z M126.3,25.8 C125.6,25.8 124.9,26.1 124.3,26.8 C123.7,27.4 123.2,28.3 123,29.3 L123.4,29.3 C126.2,29.3 127.7,28.6 127.7,27.1 C127.7,26.7 127.6,26.4 127.3,26.2 C127,25.9 126.7,25.8 126.3,25.8 L126.3,25.8 Z"></path>
                    <path d="M131,30.3 L136,25.3 L137,25.3 L133.1,29.2 L135.5,34.3 L134.6,34.3 L132.4,29.7 L130.7,31.2 L130,34.3 L129.2,34.3 L131.9,21.5 L132.7,21.5 L131.3,27.9 L131,30.3 L131,30.3 Z"></path>
                </g>
            </g>
        </g>
    </g>
</svg>
