<?xml version="1.0" encoding="UTF-8" standalone="no"?>
<svg viewBox="0 0 1556 365" version="1.1" xmlns="http://www.w3.org/2000/svg" xmlns:xlink="http://www.w3.org/1999/xlink" xmlns:sketch="http://www.bohemiancoding.com/sketch/ns">
    <!-- Generator: Sketch 3.3 (11970) - http://www.bohemiancoding.com/sketch -->
    <title>ekran2-14-01</title>
    <desc>Created with Sketch.</desc>
    <defs></defs>
    <g id="Page-1" stroke="none" stroke-width="1" fill="none" fill-rule="evenodd" sketch:type="MSPage">
        <g id="ekran2-14-01" sketch:type="MSLayerGroup" transform="translate(0.000000, -47.500000)">
            <g id="Group">
                <path d="M1551.1,279.2 L1537.7,167.6 L1538.5,106.1 L1538.7,92.3 L1538.9,74.9 L1530.3,76.4 L1521.6,85.4 L1521.6,79.5 L1494,82.6 L1488.9,91.9 L1513.8,90.1 C1517.9,89.8 1522.9,88.3 1523.3,94 C1525.2,119.6 1502.6,135.9 1502.9,139.3 C1503.2,143.4 1529.3,143.5 1531.5,173.8 C1533.3,198.2 1519.1,219.5 1493.8,221.3 C1471.1,223 1457.3,208.3 1457.2,206.2 C1457.1,205 1470.3,183.9 1471.9,183.8 C1475.2,183.6 1480.5,194.3 1493.6,193.4 C1502.5,192.7 1509.2,182.8 1508.5,174.2 C1507.4,159.8 1493.6,154.6 1476.1,155.8 C1474.1,155.9 1470.6,155.4 1470.4,152.9 C1470,146.8 1497.7,118.7 1497.4,114 C1497.2,111.2 1492.5,111.7 1489.7,111.9 C1477.4,112.8 1464.8,119.4 1461.8,119.6 C1459.5,119.8 1454.8,101.3 1454.6,97.8 C1454.3,93.6 1459.2,94 1462.2,93.8 L1475.3,92.8 L1471.4,86.4 L1459,88.5 L1447.9,90.4 L1428.9,89.4 L1413.2,88.6 L1401.2,88 L1373.5,90.9 L1359,88.5 L1345.5,86.2 L1347,98 L1350.4,124.3 L1354.5,156.3 L1360.1,199.6 L1360.5,232.1 L1368,241 L1360.7,253.8 L1361.1,290.3 L1361.8,358.4 L1374.8,359.2 L1386.2,359.9 L1395.5,360.5 L1409.8,361.4 L1414.9,355.8 L1416.6,364.1 L1427.9,364.1 L1439.7,364.1 L1451.2,364.1 L1459.4,362.7 L1466.3,361.5 L1476.2,359.9 L1483.1,345.4 L1496.9,356.2 L1495.9,329.6 L1505.5,355 L1512.6,353.8 L1524.8,351.8 L1531.1,350.8 L1539.9,349.3 L1541.8,332.3 L1548.5,347.9 L1555.2,346.8 L1551.1,279.2 L1551.1,279.2 Z M1421.4,226.6 C1413.7,227.2 1401.1,223.8 1394.1,224.4 C1386.3,225 1378,229.8 1374.1,230.1 C1369.1,230.5 1367.7,226.5 1367.4,222.1 C1363.4,167.9 1415.7,157.2 1414,132.9 C1413.4,124.2 1408.9,116.6 1399.4,117.3 C1383.2,118.5 1378.5,143.5 1375.6,143.7 C1374,143.8 1363.3,127.3 1363.1,125.6 C1362.5,117.6 1375.2,97.9 1397.4,96.2 C1418.6,94.6 1435,105.5 1436.6,127.1 C1439.4,165.8 1390.7,180.9 1392,197.6 C1392.2,200.4 1394,201.1 1395.4,201 C1397.4,200.9 1399.2,198.8 1404.3,198.5 C1412.6,197.9 1419.4,200.5 1423.4,200.2 C1429.3,199.8 1433.9,193.9 1433.4,186.3 C1433.1,182.7 1430.5,179.4 1432.3,179.3 C1433.6,179.2 1441.7,187.4 1442.5,198.3 C1443.4,214 1431.1,225.9 1421.4,226.6 L1421.4,226.6 Z" id="Shape" fill="#20323F" sketch:type="MSShapeGroup"></path>
                <path d="M57.5,99.8 L56.5,106 L52.5,118.2 L54.2,132.6 L54.3,138.4 C50.3,138.9 48.2,140.9 48,144.5 C47.9,146.4 48.4,148 49.3,149.2 C50.3,150.4 52,151.6 54.4,152.7 L52.9,161 L49.7,163.2 L49.2,173.3 L49.7,179.1 C49.7,179.5 49.6,179.8 49.6,180 C49.5,180.2 49.4,180.4 49.3,180.7 L47,193 L50.9,205 L48.3,218.9 L50,232.9 L48.7,235.9 L48.1,239.9 L45.6,242.9 L47.9,252.1 L47.6,258.5 L47.9,269.2 L46.6,273.2 L46,277.1 L41.7,281.8 L41.2,284.5 L41.1,287.2 L44.2,291.4 C45.7,293.1 46.5,294.5 46.7,295.4 C46.9,296.3 47,298.1 46.8,300.6 L46,310.5 L44.9,317.6 L45.7,326.4 C42.2,329.6 37.3,332.4 31.2,334.7 C25,337 19.6,338.1 15,337.8 C11.6,337.6 10.1,334 10.5,326.7 L10.5,326.3 L11.8,315.7 L16.2,313.2 C14.6,308.7 13.9,304.6 14.1,300.7 C16.5,299.1 17.8,297.2 17.9,294.9 L15.3,291.3 L16,284.9 L16.8,275.8 L20.7,270.7 C22.1,269.1 22.8,267.3 22.9,265.4 C22.9,264.4 22.8,263.7 22.6,263.4 L19.7,254.9 L20.5,250.1 L20.6,248.6 C20.7,247.2 21.1,246.1 21.9,245.4 L26.7,241.4 C27.2,241.2 27.5,240.7 27.5,239.9 L26.9,236.2 L23.1,225.4 L24.3,206.8 L21.3,200.6 C20.1,198 19.6,195.7 19.7,193.7 L23.1,161.3 L26.1,143.2 L26.1,134.5 C26,127.8 25.4,122.6 24.3,118.9 L2,118.3 C0.6,117.1 0,115.9 0,114.7 C0.2,111.2 1,109.2 2.4,108.8 L23.8,99.1 L40,85.4 C43.5,82.1 47.7,80.5 52.4,80.7 C53.7,80.8 55.7,81.2 58.4,82.1 L57.8,87.7 L57.7,89.2 L57.5,99.8 L57.5,99.8 Z" id="Shape" fill="#20323F" sketch:type="MSShapeGroup"></path>
                <g transform="translate(416.000000, 48.000000)" id="Shape" fill="#20323F" sketch:type="MSShapeGroup">
                    <path d="M130.7,165.3 C138.9,164.7 145.8,161.3 151.6,155.1 C157.3,148.9 160,142.1 159.4,134.7 C158.9,127.3 155.5,121.2 149.4,116.4 C143.3,111.6 135.7,109.5 126.5,110.2 C117.4,110.8 110,114 104.5,119.6 C98.9,125.2 96.4,131.7 97,139.2 C97.5,146.6 101.2,153 108,158.3 C114.8,163.6 122.3,165.9 130.7,165.3 L130.7,165.3 Z"></path>
                    <path d="M94.5,223.7 C95.2,233.5 99.4,241.4 107.1,247.3 C114.8,253.2 124.5,255.7 136.2,254.9 C147.7,254.1 156.9,250 163.8,242.6 C170.7,235.2 173.8,226.7 173.1,217.1 C172.4,207.5 168,199.5 159.9,193 C151.8,186.5 142.4,183.6 131.6,184.4 C120.8,185.2 111.7,189.5 104.4,197.3 C97.1,205 93.8,213.9 94.5,223.7 L94.5,223.7 Z"></path>
                    <path d="M122.7,274.3 C119.4,273.9 116.3,273.3 113.3,272.5 L117,276.1 L122.7,274.3 L122.7,274.3 Z"></path>
                    <path d="M229.6,271.1 L227.8,264.7 L223.9,250.9 L220.3,238.3 L217.2,227.4 L214.1,216.5 L208.6,197.1 L204.8,183.5 L202.7,170.9 L200.4,157.1 L197.3,138.9 L194.8,123.9 L191.7,105.5 L188.5,86.5 L185.2,67.1 L183,53.7 L180.8,40.4 L180.8,20.4 L180.8,0 L170.8,30.1 L159.2,4.3 L156,40.1 L146.1,0 L109.8,14.3 L101.2,16 L83.3,19.6 L73.5,19.8 L59.6,20.1 L44.1,20.4 L29.1,20.7 L15.6,21 L0.6,21.3 L1.7,46.3 L1.9,51 C2.2,51.1 2.5,51.1 2.9,51 C3.8,50.9 4.5,50.6 4.9,50 C5.4,49.5 5.8,48.6 6.1,47.4 L10,47.5 L11.2,48.8 L15.8,48.2 L18.4,47.5 L18.8,47.5 C18.9,47.5 19,47.6 19.1,47.6 L24.9,47.7 L30.1,45 L36.6,45.1 L42.9,43.3 L44.4,43.7 L46.3,43.7 L47.8,44.6 L51.8,42.9 L54.7,42.6 L59.5,41.7 L61.4,42 L63.2,42 L65.6,43.6 L66.9,43.6 L68.1,43.5 L69.8,41.8 C70.5,41 71,40.5 71.4,40.3 C71.8,40.1 72.6,40 73.8,39.8 L78.3,39.4 L81.6,39.4 L85.5,38.4 C87.2,39.8 88.8,41.8 90.4,44.4 C91.9,47 92.8,49.4 93.1,51.6 C93.3,53.1 91.7,54.1 88.4,54.5 L88.2,54.5 L83.3,54.7 L81.8,52.9 C79.9,54 78,54.6 76.3,54.8 C75.4,53.8 74.4,53.4 73.4,53.5 L72,54.9 L69.1,55.1 L64.9,55.4 L62.3,54 C61.5,53.5 60.6,53.3 59.7,53.4 C59.2,53.5 58.9,53.6 58.8,53.7 L55.2,55.7 L52.9,55.7 L52.2,55.8 C51.5,55.9 51,55.8 50.6,55.4 L48.4,53.5 C48.3,53.3 48,53.2 47.6,53.2 L46,53.8 L41.4,56.3 L32.9,57.1 L30.3,58.9 C29.2,59.6 28.2,60.1 27.3,60.2 L12.3,61.1 L3.8,61.1 L2.2,61.4 L2.4,66 L3.4,88.3 L4.6,114.5 L10.8,102.7 L47.3,100.1 L59.7,275.7 L39.3,277.1 L28.3,121.6 L5,123.2 L5.6,136.4 L8.5,150.5 L10.5,160.2 L15.1,182.2 L19.4,203 L19.4,216.1 L19.4,233.3 L19.4,255.5 L19.4,270.2 L19.4,290 L28.9,289.2 L46.7,287.7 L70.9,276.3 L101.1,282.5 L95,263.4 C94.2,262.8 93.5,262.2 92.8,261.6 C81.2,251.8 74.8,239.5 73.8,224.6 C72.4,204.4 81.8,188.2 102.2,175.8 C85.9,167.8 77.2,155.9 76.1,140.3 C75.2,128 79.6,116.8 89.2,106.7 C98.8,96.6 110.7,91.1 125,90.1 C139.3,89.1 151.8,92.8 162.6,101.2 C173.3,109.6 179.1,120.4 180.1,133.5 C181.2,148.7 174.4,161.5 159.7,171.8 C181.1,181.1 192.5,195.4 193.8,214.7 C194.9,230.5 190.3,244.1 179.9,255.5 C172.3,263.8 162.6,269.4 150.8,272.3 L165.9,275.1 L191.1,279.7 L213,282 L233.4,284.1 L229.6,271.1 L229.6,271.1 Z"></path>
                </g>
                <g transform="translate(807.000000, 78.000000)" id="Shape" fill="#20323F" sketch:type="MSShapeGroup">
                    <path d="M116.8,264.2 C113.9,263.5 111.7,262.6 110.1,262.6 C108.1,262.6 106.1,263.3 104.6,265.1 L109.2,265.4 L119.2,264.8 C118.3,264.5 117.5,264.4 116.8,264.2 L116.8,264.2 Z"></path>
                    <path d="M167.5,239.4 C168.4,217.1 171.3,194.1 181.1,171.4 C186,160.2 187.3,151.3 186.1,147.4 C189,147.4 193.2,144.9 193.2,140.4 C193.2,138.2 192.3,135.9 189.4,133.7 C192,131.5 194.2,128.6 198.2,114.5 C202.1,99.8 205.4,88.6 205.6,55 C205.7,41.6 204.8,37.1 198,37 C191.6,37 190.3,42.7 190.2,52 L190.1,73.1 C190,81.4 190.3,86.2 192.6,88.8 C183.3,91.9 180.7,97 180.6,115 L178.4,115 C178.5,95.5 175,92.9 167,88.7 C168.6,85.8 169.3,82.9 169.3,74.9 L169.4,53.4 C169.5,30.7 177.6,22.7 190.7,20.6 C191.7,21.6 192.9,22.5 194.5,23.2 C196.1,23.5 198.3,23.9 200.9,23.9 C205.7,23.9 209.2,23 210.5,20.8 C226.2,23.5 232.5,34.4 232.4,56.8 C232.2,85.9 229.9,99.1 223,120.8 C220.1,130.7 219.4,136.8 220.3,139.4 C217.1,140 212.9,142.2 212.9,146.7 C212.9,149.3 213.5,151.5 214.5,152.8 C211.6,156.3 206.7,164 204.5,168.7 C194.8,189.1 188.5,217.6 188.4,233.9 C188.4,238.7 190.3,240.6 198.9,240.7 C207.9,240.8 208.8,238.8 209,220.3 L209.1,208.5 C209.2,198.6 208.6,193.4 207,191.2 C214.4,188.7 217.9,184.9 218,166.6 L220.2,166.6 C220.1,185.5 222.9,188.7 231.6,191.3 C230.6,192.6 230,194.8 229.3,197.7 C228.6,200.6 228.3,204.1 228.3,208.6 L228.1,242.9 C228,251.3 228.8,255.4 229.9,258.1 L237,257.7 L238.2,195 L232.1,90.9 L238.6,34.1 L240.1,21.3 L241.9,5.3 L231.3,6 L219.9,13.6 L220.4,8.1 L186.6,8.8 L170.2,27.7 L158.7,10.6 L143.4,11.6 L129.7,12.5 L106.7,10.1 L87.7,8.1 L73.1,6.6 L39.2,7.1 L38.4,6.9 L37.9,8.8 L37,9.3 L36.7,11.9 L36.7,13.4 C36.7,13.5 36.7,13.6 36.6,13.6 C36.6,13.6 36.5,13.7 36.5,13.8 L35.6,16.9 L36.4,20.1 L35.4,23.6 L35.5,27.3 L35.1,28.1 L34.9,29.1 L34.2,29.8 L34.6,32.2 L34.4,33.9 L34.3,36.7 L33.9,37.7 L33.7,38.7 L32.5,39.8 L32.3,40.5 L32.2,41.2 L32.9,42.4 C33.2,42.9 33.4,43.2 33.5,43.5 C33.5,43.7 33.5,44.2 33.4,44.9 L33,47.4 L32.6,49.2 L32.6,51.5 C31.6,52.3 30.3,52.9 28.7,53.3 C27,53.8 25.6,53.9 24.4,53.8 C23.5,53.7 23.2,52.7 23.5,50.8 L23.5,50.7 L24,48 L25.2,47.4 C24.9,46.2 24.8,45.1 24.9,44.1 C25.6,43.7 25.9,43.3 26,42.7 L25.4,41.7 L25.7,40.1 L26.1,37.8 L27.2,36.6 C27.6,36.2 27.8,35.8 27.9,35.3 L27.9,34.8 L27.3,32.5 L27.6,31.3 L27.7,30.9 C27.7,30.5 27.9,30.3 28.1,30.1 L29.4,29.1 C29.5,29.1 29.6,28.9 29.7,28.7 L29.6,27.7 L28.8,24.8 L29.5,20 L28.8,18.3 C28.6,17.6 28.5,17 28.5,16.5 L30.1,8.2 L30.8,5.4 L21.8,3.6 L5.6,0.4 L6.4,11.4 L8.1,35.9 L10.2,65.7 L13,106.1 L10.5,136.1 L18.8,144.9 L8.8,156.1 L6,189.8 L0.7,252.7 L16.5,254.5 L30.3,256.1 L41.5,257.4 L58.8,259.4 L65.6,254.7 L66.9,262.5 L80.6,263.4 L95,264.3 L103.5,264.9 C102.4,262.1 99.7,260.2 96.8,260.1 C97,231.3 97.8,200.9 110.8,170.8 C115.7,159.6 117,150.7 115.8,146.8 C118.7,146.8 122.9,144.3 122.9,139.8 C122.9,137.6 122,135.3 119.1,133 C121.7,130.8 123.9,127.9 127.9,113.8 C131.8,99.1 135.1,87.9 135.3,54.3 C135.4,40.9 134.5,36.4 127.7,36.3 C121.3,36.3 120,42 119.9,51.3 L119.8,72.4 C119.7,80.7 120,85.5 122.3,88.1 C113,91.2 110.4,96.4 110.3,114.3 L108.1,114.3 C108.2,94.8 104.7,92.2 96.7,88 C98.3,85.1 99,82.3 99,74.2 L99.1,52.7 C99.2,30 107.3,22 120.4,19.9 C121.4,20.9 122.6,21.8 124.2,22.5 C125.8,22.8 128,23.2 130.6,23.2 C135.4,23.2 138.9,22.3 140.2,20.1 C155.9,22.8 162.2,33.7 162.1,56.1 C161.9,85.2 159.6,98.4 152.7,120.1 C149.8,130 149.1,136.1 150,138.7 C146.8,139.3 142.6,141.5 142.6,146 C142.6,148.6 143.2,150.8 144.2,152.1 C141.3,155.6 136.4,163.3 134.2,168 C124.5,188.4 118.2,216.9 118.1,233.2 C118.1,238 120,239.9 128.6,240 C137.6,240.1 138.5,238.1 138.7,219.6 L138.8,207.8 C138.9,197.9 138.3,192.7 136.7,190.5 C144.1,188 147.6,184.2 147.7,165.9 L149.9,165.9 C149.8,184.8 152.6,188 161.3,190.6 C160.3,191.9 159.7,194.1 159,197 C158.3,199.9 158,203.4 158,207.9 L157.8,242.2 C157.7,250.9 158.6,255.1 159.8,257.7 L165.3,261.5 L166.5,236.9 L167.5,239.4 L167.5,239.4 Z"></path>
                </g>
                <g transform="translate(144.000000, 80.000000)" id="Shape" fill="#20323F" sketch:type="MSShapeGroup">
                    <g transform="translate(28.000000, 84.000000)">
                        <path d="M150,153 C149.2,150 148.7,146.9 148.5,143.6 C148.3,140.3 148.3,137.2 148.6,134.4 C153.7,114.5 159.6,91.6 166.3,65.6 C171.8,44.3 177.7,22.8 183.9,1.1 L178.3,1.1 L113.6,1 L77.6,0.6 C74.7,0.6 71.7,0.5 68.6,0.5 C67,16.7 66.1,32.9 66.1,49 C66,79.6 67.2,110.2 69.5,140.6 C69.5,143.7 68.2,145.6 65.3,146.3 C63.7,146.6 62.2,146.4 60.8,145.7 C59.4,144.9 58,144.1 56.8,143.2 C51.1,138.6 46.9,132.9 44.3,126.2 C41.7,119.5 40.4,115 40.3,112.8 C36.5,74.8 36.3,37.3 39.8,0.4 L39.6,0.4 L25.7,0.4 L8.2,5.4 L0.1,7.4 L5.2,22.7 L19.2,39.1 L28,91.4 L41.9,133.4 L58.8,160.6 L63.6,198.8 L75.1,207.1 L72.4,225.3 L97.1,247.9 L110.9,224.9 L126.5,198.9 L142.8,171.7 L151.4,157.3 C150.9,155.9 150.4,154.5 150,153 L150,153 Z"></path>
                        <path d="M223.7,1.2 L214.5,1.2 C207.7,25.9 201.4,50.6 195.4,75.2 C194.2,80.1 193,85 191.8,89.9 L201.6,73.6 L210.7,58.3 L217.2,47.4 L212.2,39.2 L233.5,20.1 L242.2,5.7 L244.9,1.2 L223.7,1.2 L223.7,1.2 Z"></path>
                    </g>
                    <g>
                        <path d="M171.2,75.5 L177,82.5 L184.4,82.6 L191.2,78.3 L203.6,82.7 L212.3,82.7 L212.7,82.7 C213.8,78.8 215,74.8 216.1,70.9 C208.6,71.6 200.7,72.5 192.6,73.3 C185.3,74.1 178.2,74.8 171.2,75.5 L171.2,75.5 Z"></path>
                        <path d="M146.4,77.9 C140.6,78.5 135.5,79.1 131.1,79.7 L135.6,82.1 L145.1,82.1 L151.2,82.1 L166,76 C159.1,76.6 152.5,77.3 146.4,77.9 L146.4,77.9 Z"></path>
                        <path d="M303.3,1 L288,9 L261.6,2 L229.1,9 L212.8,3.3 L188.5,24.4 L162.1,4.5 L134.6,5.2 L108.2,5.9 L86.9,17.1 L64.5,7 L54.3,7.3 L48.2,22.4 L36.1,7.7 L18.7,8.1 L0.6,8.6 L3.4,17 L11.8,42.2 L25,82 L68.1,82 C69.2,70.7 70.7,59.5 72.5,48.3 C74,41.7 75.6,35.7 77.4,30.3 C79.2,24.9 81.1,22.2 82.9,22.2 C85.1,22.2 87.5,22.8 90,24 C92.5,25.2 94.8,26.8 96.7,28.6 C98.6,30.5 100.1,32.5 101.3,34.7 C102.4,36.9 103,38.9 103,40.8 C100.4,54.6 98.4,68.3 96.9,82 L112.6,82.1 L119,77.3 C117.2,76.1 115.4,74.6 113.6,72.8 C109,67.8 106.6,62.7 106.6,57.3 C106.6,55.7 107.3,54.4 108.9,53.3 C110.5,52.2 112,51.5 113.6,51.1 C121.7,49.7 131,48.5 141.4,47.4 C151.8,46.3 162.3,45.3 172.9,44.4 C183.6,43.5 194,42.6 204.2,41.9 C214.4,41.1 223.4,40.7 231.3,40.6 C233.2,40.6 235.3,41.3 237.7,42.6 C240.1,44 242.2,45.8 244.1,47.9 C246,50.1 247.6,52.4 248.9,54.9 C250.2,57.4 250.8,59.6 250.9,61.5 L244.5,78.1 C244.1,79.6 243.7,81.1 243.3,82.5 L244.8,82.5 L252.9,82.4 C255.8,82.4 258.5,82.3 261,82.3 C266.2,82.2 270.8,82.2 274.7,82.2 L282.9,68.5 L285,48.8 L299,41.6 L307.9,26.8 L313.7,17.1 L323.6,0.5 L303.3,1 L303.3,1 Z"></path>
                    </g>
                </g>
                <path d="M1483.4,334.9 L1478.2,335.8 L1473.1,323.7 L1471.6,336.9 L1464.9,338 L1460,338.8 L1450.6,340.4 L1445.1,341.3 L1437.7,321.7 L1438.4,342.3 L1427.8,333.9 L1422.4,345.1 L1414.8,346.4 L1409.5,347.3 L1403.1,348.3 L1394.3,348.3 L1385.1,348.3 L1376.4,348.3 L1375.1,341.9 L1371.1,346.2 L1360,345.5 L1352.9,345.1 L1344,344.5 L1333.9,343.9 L1333.4,291.3 L1333.1,263.1 L1338.7,253.2 L1332.9,246.3 L1332.6,221.2 L1328.3,187.8 L1325.1,163.1 L1322.5,142.8 L1321.4,133.7 L1331.8,135.4 L1343,137.3 L1364.3,135.1 L1373.7,135.5 L1385.8,136.2 L1400.5,136.9 L1409.1,135.4 L1418.7,133.7 L1427,147.3 L1436.2,130.7 L1457.5,128.3 L1457.5,132.9 L1464.2,125.9 L1470.9,124.7 L1470.7,138.2 L1470.6,148.9 L1470,196.4 L1480.3,282.7 L1483.4,334.9 Z" id="Shape" fill="#1D1D1B" sketch:type="MSShapeGroup"></path>
                <g transform="translate(1334.000000, 136.000000)" id="Shape" fill="#FFCB47" sketch:type="MSShapeGroup">
                    <path d="M25.8,86.2 C27.4,86.1 28.7,84.5 32.7,84.2 C39.1,83.7 44.3,85.8 47.5,85.5 C52.1,85.2 55.6,80.7 55.2,74.7 C55,71.9 53,69.4 54.3,69.3 C55.3,69.2 61.6,75.6 62.2,84 C63.1,96.1 53.6,105.3 46.1,105.8 C40.2,106.2 30.4,103.7 25,104.1 C19,104.5 12.6,108.3 9.5,108.5 C5.6,108.8 4.6,105.7 4.3,102.3 C1.2,60.4 41.7,52.1 40.3,33.4 C39.8,26.6 36.3,20.8 29,21.4 C16.4,22.3 12.9,41.6 10.6,41.8 C9.4,41.9 1.1,29.1 1,27.8 C0.5,21.6 10.4,6.4 27.5,5.1 C43.9,3.9 56.6,12.3 57.8,29 C60,58.9 22.4,70.6 23.3,83.5 C23.3,85.8 24.7,86.3 25.8,86.2 L25.8,86.2 Z"></path>
                    <path d="M117.5,0.5 C120.6,0.3 124.6,-0.9 124.9,3.5 C126.3,23.3 108.9,35.9 109.1,38.5 C109.3,41.6 129.5,41.7 131.2,65.2 C132.6,84 121.6,100.5 102.1,101.9 C84.6,103.2 73.9,91.8 73.8,90.3 C73.7,89.3 83.9,73 85.2,73 C87.7,72.8 91.9,81.1 102,80.4 C108.9,79.9 114,72.2 113.5,65.6 C112.7,54.5 102,50.4 88.4,51.4 C86.8,51.5 84.1,51.1 84,49.2 C83.7,44.5 105.1,22.8 104.9,19.1 C104.7,16.9 101.1,17.3 99,17.5 C89.5,18.2 79.8,23.3 77.5,23.4 C75.7,23.5 72.1,9.2 71.9,6.6 C71.7,3.3 75.4,3.7 77.7,3.5 L117.5,0.5 L117.5,0.5 Z"></path>
                </g>
                <path d="M642.4,274 L654.6,179.5 L654,127.4 L653.8,115.7 L653.6,101 L661.5,102.3 L669.5,109.9 L669.5,104.9 L694.8,107.6 L699.5,115.5 L676.7,114 C673,113.7 668.3,112.5 667.9,117.3 C666.2,139 686.8,152.8 686.6,155.7 C686.3,159.1 662.4,159.3 660.4,184.9 C658.8,205.5 671.7,223.6 694.9,225.1 C715.7,226.5 728.3,214.1 728.5,212.3 C728.6,211.2 716.5,193.4 715,193.3 C712,193.1 707.1,202.2 695.1,201.4 C686.9,200.8 680.8,192.5 681.4,185.2 C682.4,173 695.1,168.6 711.2,169.7 C713.1,169.8 716.3,169.4 716.4,167.3 C716.8,162.1 691.3,138.3 691.6,134.4 C691.8,132 696.1,132.4 698.7,132.6 C710,133.4 721.5,138.9 724.3,139.1 C726.4,139.2 730.7,123.6 730.9,120.7 C731.2,117.1 726.7,117.5 724,117.3 L712,116.5 L715.6,111.1 L727,112.9 L737.2,114.5 L754.6,113.7 L769,113 L780,112.5 L805.4,115 L818.7,112.9 L831.1,111 L829.7,121 L826.5,143 L822.7,170.1 L817.6,206.7 L817.3,234.2 L810.4,241.7 L817.1,252.5 L816.7,283.4 L816,341 L804,341.7 L793.5,342.3 L785,342.8 L771.9,343.6 L767.2,338.9 L765.6,345.9 L755.2,345.9 L744.4,345.9 L734,345.9 L726.5,344.7 L720.2,343.7 L711.2,342.3 L704.8,330 L692.1,339.2 L693,316.7 L684.2,338.2 L677.7,337.2 L666.5,335.5 L660.8,334.6 L652.8,333.4 L651,319 L644.9,332.2 L638.7,331.3 L642.4,274 L642.4,274 Z M761.4,229.4 C768.4,229.9 780,227.1 786.5,227.5 C793.7,228 801.3,232.1 804.8,232.3 C809.4,232.6 810.7,229.2 811,225.5 C814.6,179.6 766.7,170.5 768.3,150 C768.9,142.6 773,136.2 781.7,136.8 C796.6,137.8 800.8,159 803.6,159.2 C805,159.3 814.9,145.3 815,143.9 C815.5,137.2 803.9,120.4 783.6,119 C764.1,117.7 749.1,126.9 747.7,145.2 C745.1,178 789.8,190.7 788.6,204.9 C788.4,207.3 786.8,207.8 785.5,207.7 C783.6,207.6 782,205.9 777.3,205.6 C769.7,205.1 763.5,207.3 759.8,207.1 C754.4,206.7 750.1,201.8 750.7,195.3 C750.9,192.3 753.3,189.5 751.7,189.4 C750.6,189.3 743.1,196.3 742.4,205.5 C741.2,218.8 752.5,228.8 761.4,229.4 L761.4,229.4 Z" id="Shape" fill="#20323F" sketch:type="MSShapeGroup"></path>
                <path d="M809.8,310.9 L805,311.7 L800.2,300.4 L798.8,312.7 L792.5,313.8 L788,314.5 L779.1,316 L774,316.8 L767.1,298.5 L767.8,317.7 L757.8,309.9 L752.8,320.4 L745.7,321.6 L740.7,322.4 L734.8,323.4 L726.5,323.4 L718,323.4 L709.8,323.4 L708.6,317.4 L704.9,321.4 L694.5,320.8 L687.8,320.3 L679.5,319.8 L670.1,319.2 L669.6,270 L669.3,243.7 L674.6,234.5 L669.1,228 L668.9,204.6 L664.9,173.3 L661.9,150.2 L659.5,131.3 L658.4,122.7 L668.1,124.4 L678.6,126.2 L698.5,124.1 L707.2,124.5 L718.6,125.1 L732.3,125.8 L740.3,124.4 L749.3,122.8 L757.1,135.5 L765.7,120 L785.6,117.7 L785.6,122 L791.9,115.5 L798.1,114.4 L797.9,127 L797.8,136.9 L797.3,181.4 L806.9,262 L809.8,310.9 Z" id="Shape" fill="#A6A4A2" sketch:type="MSShapeGroup"></path>
                <path d="M748.2,207.9 C749.7,207.8 750.9,206.3 754.6,206.1 C760.6,205.7 765.5,207.6 768.4,207.4 C772.7,207.1 776,202.9 775.6,197.3 C775.4,194.7 773.5,192.3 774.8,192.3 C775.7,192.2 781.6,198.2 782.2,206.1 C783,217.4 774.1,226 767.1,226.5 C761.6,226.9 752.4,224.5 747.4,224.9 C741.8,225.3 735.8,228.8 733,229 C729.4,229.3 728.4,226.4 728.2,223.2 C725.3,184 763.1,176.3 761.8,158.8 C761.3,152.5 758.1,147 751.2,147.5 C739.5,148.4 736.1,166.4 734,166.6 C732.9,166.7 725.1,154.8 725,153.5 C724.6,147.7 733.7,133.5 749.8,132.3 C765.1,131.2 777,139 778.1,154.6 C780.1,182.6 745,193.4 745.9,205.5 C745.9,207.5 747.2,207.9 748.2,207.9 L748.2,207.9 Z" id="Shape" fill="#FFFFFF" sketch:type="MSShapeGroup"></path>
                <path d="M712,138.2 C714.9,138 718.6,136.9 718.9,141 C720.3,159.5 704,171.2 704.2,173.7 C704.4,176.6 723.3,176.7 724.9,198.6 C726.2,216.2 716,231.6 697.7,232.9 C681.3,234.1 671.4,223.5 671.3,222 C671.2,221.1 680.8,205.9 681.9,205.8 C684.3,205.6 688.1,213.4 697.6,212.7 C704,212.2 708.8,205.1 708.4,198.9 C707.6,188.5 697.6,184.7 685,185.6 C683.5,185.7 681,185.3 680.9,183.5 C680.6,179.1 700.6,158.8 700.4,155.4 C700.3,153.4 696.9,153.7 694.8,153.9 C685.9,154.6 676.8,159.3 674.7,159.5 C673,159.6 669.6,146.3 669.5,143.8 C669.3,140.8 672.8,141.1 675,140.9 L712,138.2 L712,138.2 Z" id="Shape" fill="#FFFFFF" sketch:type="MSShapeGroup"></path>
                <path d="M74,131.1 L73.2,135.9 L70.1,145.4 L71.4,156.6 L71.5,161.1 C68.4,161.5 66.8,163 66.6,165.8 C66.5,167.3 66.9,168.5 67.6,169.4 C68.4,170.3 69.7,171.2 71.5,172.1 L70.3,178.5 L67.8,180.2 L67.4,188 L67.8,192.5 C67.8,192.8 67.8,193 67.7,193.2 C67.6,193.3 67.6,193.5 67.5,193.7 L65.7,203.2 L68.7,212.5 L66.7,223.2 L68,234.1 L67,236.5 L66.6,239.6 L64.7,241.9 L66.5,249 L66.3,253.9 L66.5,262.2 L65.5,265.3 L65.1,268.3 L61.8,271.9 L61.4,274 L61.3,276.1 L63.7,279.4 C64.8,280.8 65.5,281.8 65.7,282.5 C65.9,283.2 65.9,284.6 65.8,286.6 L65.2,294.2 L64.3,299.7 L64.9,306.5 C62.2,309 58.4,311.1 53.7,312.9 C48.9,314.7 44.7,315.5 41.1,315.3 C38.5,315.2 37.3,312.3 37.6,306.7 L37.6,306.4 L38.6,298.2 L42,296.3 C40.8,292.8 40.2,289.6 40.3,286.6 C42.2,285.4 43.1,283.9 43.2,282.1 L41.2,279.3 L41.7,274.4 L42.3,267.4 L45.3,263.5 C46.4,262.2 46.9,260.9 47,259.4 C47,258.6 47,258.1 46.8,257.9 L44.5,251.3 L45.1,247.6 L45.2,246.4 C45.3,245.3 45.6,244.5 46.2,243.9 L49.9,240.8 C50.3,240.6 50.5,240.2 50.6,239.6 L50.1,236.7 L47.2,228.3 L48.2,213.9 L45.9,209.1 C45,207.1 44.6,205.3 44.6,203.8 L47.2,178.7 L49.5,164.7 L49.5,158 C49.4,152.8 49,148.8 48.1,145.9 L31,145.4 C29.9,144.5 29.4,143.5 29.5,142.6 C29.6,139.9 30.2,138.4 31.4,138 L48,130.5 L60.4,120 C63.1,117.4 66.3,116.2 70,116.4 C71,116.4 72.5,116.8 74.6,117.5 L74.1,121.8 L74.1,123 L74,131.1 L74,131.1 Z" id="Shape" fill="#FFCB47" sketch:type="MSShapeGroup"></path>
                <path d="M1029.7,260.5 L1025,180 L1030,136.1 L1031.1,126.2 L1032.5,113.8 L1024.3,114.3 L1015.5,120.2 L1015.9,116 L989.8,116.6 L977.2,131.2 L968.3,118 L956.5,118.8 L945.9,119.5 L928.2,117.7 L913.5,116.2 L902.1,115 L875.9,115.4 L875.3,115.3 L874.9,116.7 L874.2,117.1 L873.9,119.1 L873.9,120.3 L873.9,120.5 C873.9,120.5 873.9,120.6 873.8,120.6 L873.1,123 L873.7,125.5 L873,128.2 L873.1,131 L872.8,131.6 L872.6,132.4 L872.1,133 L872.4,134.9 L872.2,136.2 L872.1,138.3 L871.8,139.1 L871.6,139.9 L870.7,140.8 L870.6,141.3 L870.5,141.8 L871.1,142.7 C871.4,143.1 871.5,143.4 871.5,143.5 C871.5,143.7 871.5,144 871.4,144.6 L871.1,146.6 L870.8,148 L870.8,149.8 C870,150.4 869,150.9 867.8,151.2 C866.5,151.6 865.4,151.7 864.5,151.6 C863.8,151.5 863.6,150.8 863.8,149.3 L863.8,149.2 L864.2,147.1 L865.1,146.7 C864.8,145.8 864.8,144.9 864.9,144.2 C865.4,143.9 865.7,143.6 865.7,143.1 L865.2,142.3 L865.4,141 L865.7,139.2 L866.6,138.2 C866.9,137.9 867.1,137.6 867.1,137.2 L867.1,136.8 L866.7,135.1 L866.9,134.1 L866.9,133.8 C866.9,133.5 867,133.3 867.2,133.2 L868.2,132.5 C868.3,132.5 868.4,132.4 868.4,132.2 L868.3,131.4 L867.7,129.2 L868.2,125.5 L867.7,124.2 C867.5,123.7 867.4,123.2 867.5,122.8 L868.7,116.3 L869.2,114.2 L862.2,112.8 L850,110.3 L850.6,118.8 L851.9,137.7 L853.5,160.8 L855.7,192 L853.7,215.2 L860.1,222 L852.4,230.7 L850.2,256.7 L846.1,305.3 L858.3,306.7 L869,307.9 L877.7,308.9 L891.1,310.4 L896.3,306.7 L897.3,312.7 L907.9,313.4 L919,314.1 L929.8,314.8 L937.6,314.3 L944.2,313.9 L953.6,313.3 L961.1,303.4 L973.3,312 L974.2,293 L981.4,311.7 L988.2,311.3 L999.9,310.6 L1005.8,310.2 L1014.1,309.7 L1017.1,297.6 L1022.3,309.2 L1028.7,308.8 L1029.7,260.5 L1029.7,260.5 Z" id="Shape" fill="#974115" sketch:type="MSShapeGroup"></path>
                <path d="M613.2,340.5 L611.8,333.9 L608.8,319.7 L606,306.7 L603.6,295.5 L601.2,284.3 L597,264.4 L594,250.4 L592.4,237.4 L590.6,223.2 L588.2,204.5 L586.2,189.1 L583.8,170.2 L581.3,150.7 L578.8,130.8 L577,116.8 L575.3,103 L575.3,82.4 L575.3,61.4 L567.6,92.4 L558.6,65.9 L556.1,102.7 L548.5,61.4 L520.4,76.1 L513.7,77.9 L499.8,81.6 L492.2,81.8 L481.5,82.1 L469.5,82.4 L457.9,82.7 L447.4,83 L435.8,83.3 L436.7,109 L436.9,113.8 C437.1,113.9 437.4,113.9 437.7,113.8 C438.4,113.7 438.9,113.4 439.3,112.8 C439.7,112.2 440,111.4 440.2,110.1 L443.2,110.2 L444.2,111.5 L447.8,110.9 L449.8,110.2 L450.1,110.2 C450.2,110.2 450.3,110.3 450.4,110.3 L454.9,110.4 L458.9,107.6 L463.9,107.7 L468.8,105.8 L469.9,106.2 L471.4,106.2 L472.6,107.1 L475.7,105.3 L478,104.9 L481.7,103.9 L483.2,104.2 L484.6,104.2 L486.5,105.8 L487.5,105.8 L488.5,105.6 L489.8,103.8 C490.3,103 490.8,102.5 491.1,102.3 C491.4,102.1 492,102 492.9,101.8 L496.4,101.4 L499,101.4 L502,100.4 C503.3,101.8 504.6,103.9 505.8,106.6 C507,109.3 507.7,111.8 507.9,114 C508,115.6 506.8,116.6 504.3,117 L504.2,117 L500.4,117.2 L499.3,115.3 C497.8,116.4 496.4,117.1 495,117.3 C494.3,116.3 493.5,115.9 492.7,116 L491.6,117.5 L489.3,117.7 L486.1,118 L484.1,116.6 C483.4,116.1 482.8,115.9 482.1,116 C481.7,116.1 481.5,116.2 481.4,116.3 L478.6,118.3 L476.9,118.3 L476.4,118.4 C475.9,118.5 475.5,118.4 475.2,118 L473.5,116 C473.4,115.8 473.2,115.7 472.9,115.7 L471.6,116.3 L468,118.9 L461.4,119.8 L459.4,121.7 C458.5,122.5 457.8,122.9 457.1,123 L445.5,123.9 L438.9,123.9 L437.7,124.2 L437.9,128.9 L438.7,151.8 L439.7,180.9 L440.4,201.5 L442.7,216 L444.3,226 L447.8,248.6 L451.1,270.1 L451.1,283.6 L451.1,301.3 L451.1,324.1 L451.1,339.3 L451.1,359.7 L458.5,358.9 L472.3,357.4 L491,345.7 L514.4,352 L506.5,319.3 L526.6,345.2 L542,338.9 L551.9,341.3 L564.5,344.4 L584,349.2 L600.9,351.6 L616.7,353.8 L613.2,340.5 L613.2,340.5 Z" id="Shape" fill="#974115" sketch:type="MSShapeGroup"></path>
                <g transform="translate(145.000000, 106.000000)" id="Shape" fill="#FFFFFF" sketch:type="MSShapeGroup">
                    <path d="M73.7,63.4 L87.2,63.5 L94.5,58 L105,63.6 L112.3,63.6 L117,63.6 L131.7,57.5 L136.9,63.9 L142.6,64 L147.9,60.7 L157.4,64.1 L164.1,64.1 L172.3,64.1 L189.2,63.9 L195.5,63.8 C197.7,63.8 199.8,63.8 201.8,63.7 C205.9,63.7 209.4,63.6 212.4,63.6 L218.7,53 L220.3,37.8 L231.1,32.2 L238,20.7 L242.5,13.2 L250.2,0.4 L234.5,0.8 L222.8,7 L202.4,1.6 L177.2,7 L164.6,2.6 L145.8,19 L125.4,3.6 L104.1,4.1 L83.7,4.6 L67.2,13.2 L50,5.5 L42.1,5.7 L37.4,17.4 L28.1,6.1 L14.6,6.4 L0.6,6.8 L2.8,13.3 L9.3,32.7 L19.5,63.4 L73.7,63.4 L73.7,63.4 Z"></path>
                    <path d="M194.7,65.9 L159.6,65.8 L109.6,65.7 L81.7,65.4 C72.8,65.3 63,65.2 52.3,65.2 L41.5,65.2 L27.9,69.1 L21.6,70.6 L25.5,82.4 L36.3,95.1 L43.1,135.5 L53.9,167.9 L67,188.9 L70.7,218.4 L79.6,224.8 L77.5,238.8 L96.6,256.2 L107.3,238.4 L119.3,218.3 L131.9,197.3 L148.2,170.1 L157.4,154.8 L169,135.4 L177.3,121.5 L184.4,109.7 L189.4,101.3 L185.6,94.9 L202.1,80.1 L208.8,68.9 L210.9,65.4 L194.7,65.9 L194.7,65.9 Z"></path>
                </g>
                <g transform="translate(195.000000, 123.000000)" id="Shape" fill="#1D1D1B" sketch:type="MSShapeGroup">
                    <path d="M15.7,158.7 C11.3,155.1 8.1,150.7 6,145.5 C4,140.3 3,136.9 2.9,135.2 C-1,96.2 8.43769499e-15,57.9 6.1,20.4 C7.2,15.3 8.5,10.7 9.9,6.5 C11.3,2.4 12.7,0.3 14.2,0.2 C15.9,0.2 17.7,0.6 19.7,1.6 C21.7,2.5 23.4,3.7 24.8,5.2 C26.3,6.6 27.4,8.2 28.3,9.9 C29.2,11.6 29.6,13.2 29.6,14.6 C25.1,38.5 22.8,62.2 22.7,85.9 C22.7,109.6 23.5,133.2 25.3,156.7 C25.3,159.1 24.3,160.6 22.1,161.1 C20.9,161.4 19.7,161.2 18.6,160.6 C17.7,160.1 16.7,159.4 15.7,158.7 L15.7,158.7 Z"></path>
                    <path d="M139.1,43.4 C133.3,64.4 127.9,85.3 122.8,106.1 C117.7,126.9 112.8,146.5 107.9,164.8 C107,168.7 105,171.7 101.8,173.8 C98.7,175.9 95.9,176.5 93.4,175.6 C92.2,175.1 91.1,174.1 90.1,172.4 C89.1,170.7 88.3,168.7 87.7,166.4 C87.1,164.1 86.7,161.7 86.5,159.1 C86.3,156.6 86.4,154.2 86.6,152 C90.5,136.6 95.1,118.9 100.3,98.8 C105.5,78.7 111.1,58.4 117.1,37.9 C111.3,38.5 105.2,39.1 98.9,39.8 C92.6,40.5 86.4,41.1 80.3,41.7 C74.2,42.3 68.5,42.8 63.2,43.4 C57.9,44 53.3,44.5 49.4,45 C45.3,45.1 41.4,43.2 37.8,39.3 C34.2,35.5 32.4,31.5 32.4,27.4 C32.4,26.2 33,25.2 34.2,24.3 C35.4,23.4 36.6,22.9 37.8,22.6 C44.1,21.5 51.3,20.6 59.3,19.8 C67.3,19 75.4,18.2 83.7,17.5 C91.9,16.8 100,16.1 107.9,15.5 C115.8,14.9 122.8,14.6 128.8,14.5 C130.3,14.5 131.9,15 133.7,16.1 C135.5,17.2 137.2,18.5 138.7,20.2 C140.2,21.9 141.4,23.7 142.4,25.6 C143.4,27.5 143.9,29.2 143.9,30.7 L139.1,43.4 L139.1,43.4 Z"></path>
                </g>
                <g transform="translate(1068.000000, 81.000000)" id="Shape" fill="#20323F" sketch:type="MSShapeGroup">
                    <g transform="translate(20.000000, 72.000000)">
                        <path d="M129,146.3 C128.4,143.6 128.1,140.7 128.1,137.7 C128.1,134.7 128.3,131.9 128.7,129.3 C134.4,111.5 141,91 148.5,67.7 C154.7,48.6 161.2,29.4 168.1,10 L163,9.7 L104.2,6.1 L71.4,3.8 C68.7,3.6 66,3.4 63.2,3.2 C60.8,17.8 59.2,32.5 58.2,47.2 C56.5,75.1 55.8,102.9 56.2,130.7 C56.1,133.6 54.7,135.2 52.1,135.7 C50.7,135.9 49.3,135.6 48.1,134.9 C46.8,134.1 45.7,133.3 44.6,132.4 C39.7,127.9 36.2,122.5 34.2,116.2 C32.2,109.9 31.2,105.8 31.3,103.8 C29.9,69 31.8,34.9 37,1.6 L36.8,1.6 C30.1,1.2 25.9,0.9 24.1,0.9 L7.9,4.5 L0.4,5.8 L4.2,20 L16.1,35.7 L21.2,83.8 L31.6,122.7 L45.5,148.4 L47.8,183.4 L57.8,191.6 L54.4,208 L75.6,229.9 L89.4,209.7 L105,186.9 L121.3,163 L129.9,150.4 C129.7,148.9 129.3,147.7 129,146.3 L129,146.3 Z"></path>
                        <path d="M204.4,12.2 L196,11.7 C188.5,33.8 181.4,55.9 174.6,77.9 C173.2,82.3 171.9,86.7 170.5,91 L180.3,76.7 L189.4,63.3 L195.9,53.7 L191.8,46 L212.3,29.8 L221,17.1 L223.7,13.1 L204.4,12.2 L204.4,12.2 Z"></path>
                    </g>
                    <g>
                        <path d="M151.7,71 L156.5,77.7 L163.2,78.2 L169.6,74.7 L180.6,79.3 L188.5,79.8 L188.9,79.8 C190.1,76.3 191.4,72.8 192.7,69.3 C185.8,69.6 178.6,69.9 171.2,70.2 C164.5,70.5 158.1,70.8 151.7,71 L151.7,71 Z"></path>
                        <path d="M129,71.9 C123.7,72.1 119,72.4 115,72.7 L119,75.2 L127.6,75.7 L133.1,76 L146.9,71.2 C140.6,71.4 134.6,71.6 129,71.9 L129,71.9 Z"></path>
                        <path d="M275.9,10.5 L261.6,16.9 L237.9,9.1 L207.9,13.6 L193.4,7.5 L170.1,25.4 L147.3,6 L122.2,5.1 L98.1,4.3 L78.1,13.3 L58.3,2.9 L49,2.6 L42.6,16 L32.4,2 L16.5,1.4 L0,0.8 L2.1,8.6 L8.3,31.9 L18.1,68.8 L57.3,71.1 C58.9,60.9 60.9,50.8 63.1,40.7 C64.8,34.8 66.6,29.4 68.6,24.6 C70.5,19.8 72.4,17.5 74.1,17.5 C76.1,17.6 78.2,18.3 80.5,19.5 C82.7,20.8 84.7,22.3 86.3,24.1 C87.9,25.9 89.2,27.8 90.1,29.9 C91,32 91.4,33.8 91.3,35.5 C88.2,47.9 85.6,60.2 83.5,72.6 L97.7,73.5 L103.8,69.5 C102.2,68.3 100.6,66.9 99.2,65.1 C95.3,60.3 93.4,55.5 93.6,50.7 C93.7,49.3 94.4,48.1 95.9,47.2 C97.4,46.3 98.8,45.7 100.3,45.5 C107.8,44.7 116.3,44.1 125.7,43.7 C135.2,43.3 144.8,42.9 154.6,42.7 C164.4,42.4 173.9,42.2 183.2,42.1 C192.5,42 200.8,42.1 207.9,42.4 C209.6,42.5 211.5,43.2 213.6,44.6 C215.7,46 217.5,47.7 219.2,49.8 C220.8,51.9 222.2,54.1 223.2,56.4 C224.2,58.7 224.7,60.8 224.6,62.5 L217.9,77.2 C217.4,78.5 217,79.8 216.6,81.2 L218,81.3 L225.4,81.7 C228,81.8 230.5,81.9 232.8,82.1 C237.6,82.3 241.7,82.6 245.3,82.7 L253.5,70.7 L256.5,52.9 L269.6,47.1 L278.5,34.1 L284.3,25.6 L294.2,11.1 L275.9,10.5 L275.9,10.5 Z"></path>
                    </g>
                </g>
                <g transform="translate(1067.000000, 104.000000)" id="Shape" fill="#FFFFFF" sketch:type="MSShapeGroup">
                    <path d="M64.2,55.4 L76.4,56.2 L83.4,51.6 L92.6,57.3 L99.3,57.7 L103.6,58 L117.3,53.2 L121.7,59.3 L126.9,59.7 L131.9,57 L140.4,60.6 L146.5,61 L154,61.5 L169.4,62.3 L175.1,62.6 C177.1,62.7 179,62.8 180.8,62.9 C184.5,63.1 187.7,63.2 190.5,63.4 L196.8,54.1 L199.1,40.4 L209.2,35.9 L216.1,25.9 L220.6,19.3 L228.3,8.1 L214,7.6 L202.9,12.6 L184.6,6.6 L161.4,10.1 L150.2,5.4 L132.2,19.2 L114.5,4.1 L95.1,3.4 L76.5,2.8 L61,9.7 L45.7,1.7 L38.5,1.5 L33.6,11.9 L25.7,1.1 L13.4,0.7 L0.6,0.3 L2.2,6.4 L7,24.4 L14.6,52.9 L64.2,55.4 L64.2,55.4 Z"></path>
                    <path d="M174.1,64.3 L142.2,62.3 L96.7,59.5 L71.4,57.7 C63.3,57.1 54.4,56.5 44.7,55.9 C39.5,55.6 36.3,55.4 34.9,55.3 L22.4,58.1 L16.6,59.1 L19.5,70 L28.7,82.1 L32.7,119.2 L40.7,149.3 L51.4,169.1 L53.2,196.2 L60.9,202.5 L58.3,215.2 L74.7,232.1 L85.4,216.5 L97.5,198.9 L110.1,180.5 L126.4,156.7 L135.6,143.3 L147.2,126.3 L155.5,114.1 L162.6,103.8 L167.7,96.4 L164.6,90.4 L180.4,77.8 L187.1,68 L189.2,64.9 L174.1,64.3 L174.1,64.3 Z"></path>
                </g>
                <g transform="translate(1107.000000, 116.000000)" id="Shape" fill="#1D1D1B" sketch:type="MSShapeGroup">
                    <path d="M10.7,145.1 C6.9,141.6 4.2,137.4 2.6,132.6 C1,127.8 0.3,124.6 0.4,123 C-1,87.3 2,52.5 9.6,18.8 C10.9,14.2 12.3,10.1 13.8,6.4 C15.3,2.7 16.7,0.9 18,0.9 C19.5,1 21.2,1.5 22.9,2.5 C24.6,3.5 26.1,4.6 27.4,6 C28.7,7.4 29.6,8.9 30.3,10.5 C31,12.1 31.3,13.5 31.3,14.9 C25.9,36.4 22.5,57.8 21.2,79.4 C19.9,100.9 19.4,122.5 19.7,143.9 C19.6,146.1 18.5,147.4 16.5,147.7 C15.4,147.9 14.3,147.7 13.4,147.1 C12.5,146.4 11.6,145.8 10.7,145.1 L10.7,145.1 Z"></path>
                    <path d="M129.3,46.9 C122.9,65.7 116.8,84.4 111.1,103 C105.4,121.7 99.8,139.2 94.4,155.5 C93.4,159 91.3,161.6 88.4,163.4 C85.4,165.1 82.9,165.5 80.7,164.5 C79.6,164 78.7,163 77.9,161.4 C77.1,159.8 76.5,158 76,155.8 C75.5,153.7 75.3,151.4 75.3,149.1 C75.3,146.8 75.5,144.6 75.8,142.6 C80.2,128.9 85.3,113 91.1,95 C96.9,77 103.1,58.8 109.7,40.6 C104.4,40.8 98.8,41 93.1,41.3 C87.3,41.6 81.7,41.8 76.1,42 C70.6,42.2 65.3,42.4 60.5,42.6 C55.6,42.8 51.4,43.1 47.8,43.3 C44,43.1 40.6,41.2 37.6,37.5 C34.6,33.8 33.1,30.1 33.3,26.3 C33.4,25.2 33.9,24.3 35.1,23.6 C36.2,22.9 37.4,22.4 38.5,22.3 C44.3,21.7 50.8,21.2 58.2,20.9 C65.5,20.6 73,20.3 80.5,20.1 C88,19.9 95.4,19.7 102.6,19.6 C109.8,19.5 116.2,19.6 121.7,19.8 C123,19.9 124.5,20.4 126.1,21.5 C127.7,22.6 129.1,23.9 130.4,25.5 C131.7,27.1 132.7,28.8 133.5,30.6 C134.3,32.4 134.7,34 134.6,35.3 L129.3,46.9 L129.3,46.9 Z"></path>
                </g>
                <text id="4" fill="#E6E7E8" sketch:type="MSTextLayer" transform="translate(554.900469, 205.717994) rotate(-1.334982) translate(-554.900469, -205.717994) " font-family="Helvetica" font-size="338.8303" font-weight="normal">
                    <tspan x="460.40317" y="331.217994" fill="#000000">4</tspan>
                </text>
                <text id="26" fill="#E6E7E8" sketch:type="MSTextLayer" transform="translate(1038.106150, 217.053097) rotate(-0.311486) translate(-1038.106150, -217.053097) " font-family="Helvetica" font-size="239.7531" font-weight="normal">
                    <tspan x="904.604177" y="306.053097" fill="#000000">26</tspan>
                </text>
            </g>
        </g>
    </g>
</svg>
