<?xml version="1.0" encoding="UTF-8" standalone="no"?>
<svg width="1760px" height="394px" viewBox="0 0 1760 394" version="1.1" xmlns="http://www.w3.org/2000/svg" xmlns:xlink="http://www.w3.org/1999/xlink" xmlns:sketch="http://www.bohemiancoding.com/sketch/ns">
    <!-- Generator: Sketch 3.3 (11970) - http://www.bohemiancoding.com/sketch -->
    <title>korzen-01</title>
    <desc>Created with Sketch.</desc>
    <defs>
        <rect id="path-1" x="-1" y="0" width="1761" height="416"></rect>
    </defs>
    <g id="Page-1" stroke="none" stroke-width="1" fill="none" fill-rule="evenodd" sketch:type="MSPage">
        <mask id="mask-2" sketch:name="Mask" fill="white">
            <use xlink:href="#path-1"></use>
        </mask>
        <use id="Mask" sketch:type="MSShapeGroup" xlink:href="#path-1"></use>
        <g id="korzen-01" sketch:type="MSLayerGroup" mask="url(#mask-2)">
            <g transform="translate(0.000000, -395.000000)" id="Group">
                <g>
                    <path d="M1759.4,105 C1746,88.7 1680.5,70.5 1665.2,71.7 C1646.4,73.1 1636.5,81 1616,83.6 C1587.7,87.2 1573,93.7 1558.1,100 C1536.2,109.2 1518.3,118.2 1493.9,117.7 C1482,117.4 1467.6,106.4 1450,101 C1428.9,94.6 1408.5,90 1389,82.1 C1381.4,79 1371.1,74.8 1365.2,70.6 C1364,69.8 1362.3,71.9 1360.6,70.9 C1359.2,70.1 1354.4,71.9 1353.2,70.2 C1351.9,68.4 1354.3,63.1 1353.8,61.9 C1353.1,60 1352.8,56.3 1353.2,54.2 C1354,49.6 1357,46.5 1358.5,42.9 C1361.2,36.4 1368.7,32.1 1369.9,25.8 C1370.3,23.9 1369.1,24.2 1368.2,21.2 C1367.8,19.7 1365.4,20.6 1366.3,20.7 C1367.1,20.8 1371.3,20.1 1372.1,19.9 C1372.7,19.8 1372,16.4 1372.6,16.4 C1373.1,16.5 1376,18 1376.5,18.4 C1377.3,18.9 1375.6,18.4 1375.9,19.2 C1376.3,20.1 1375.7,20.9 1375.7,20.9 C1375.7,20.9 1376.7,25.8 1376.5,24.7 C1376.4,24.1 1375.5,18.3 1375.1,17.1 C1374.1,14.5 1368.6,14.4 1367.3,14.6 C1366.8,14.6 1369.2,14.7 1369.2,14.7 C1369.2,14.7 1362.4,15.2 1362.4,24.9 C1362.4,34.6 1343.3,29.4 1346,25.3 C1348.6,21.2 1344,16.1 1340.6,14.2 C1337.2,12.3 1333.4,7 1337.5,4.7 C1341.6,2.4 1346.9,8.1 1346.9,8.1 C1346.9,8.1 1346.9,8.1 1344.1,3.9 C1341.3,-0.3 1332.6,1.1 1330.5,6 C1328.4,10.9 1330.8,14.4 1335,18.2 C1339.2,22 1334.8,29.7 1334.7,29 C1331.4,24.7 1324.1,21.6 1317,21.2 C1311.1,20.9 1305.3,22.9 1301.8,25 C1294.2,29.8 1294.4,37.3 1299.7,39.8 C1305,42.3 1302.5,48.9 1302.5,48.9 C1302.5,48.9 1309.9,45 1302.1,37.7 C1299.1,34.8 1302.7,31.3 1307.5,30.7 C1309.4,30.5 1312.7,29.4 1316,30.5 C1320.7,32 1324.6,35.2 1328.1,40.2 C1331.8,45.4 1334.8,52.6 1331.6,61.6 C1328,71.9 1325.6,70.2 1300.9,81.9 C1290,87.1 1270.5,83 1249.1,82.5 C1239,82.3 1196.9,70.7 1153.1,71.7 C1103.4,72.8 1051.5,86.7 1041.5,88.7 C1019.7,92.9 987.8,108.5 952.9,107.4 C944.5,105.5 935.8,103.8 926.8,102.4 C912,100.1 896.5,96.1 894.8,78.9 C894.2,72.8 896.5,67.6 900.2,66.3 C906.4,64.2 909,72.2 909.1,76.6 C909.1,76.6 913,76 911.2,68.7 C909.4,61.6 900.6,60 897.2,61.3 C890.8,63.6 887.7,75.7 886.7,81.7 C887.2,64.7 884.5,60.7 877.9,56.5 C872.8,53.2 866.3,53.3 861.7,51.1 C854.4,47.5 855.8,37.7 859.7,36.1 C865.5,33.7 868.5,37.4 867.9,41.2 C867.6,42.9 864.9,44 865,44.1 C869.8,45.8 875.5,38.1 868,32.5 C864.8,30.1 859.8,29.4 856.1,32.7 C849,38.9 849.1,53.3 863.8,58.1 C878.5,62.9 872.4,78.1 872.4,78.1 C870.3,67 848.2,65.3 846.1,74.5 C847.7,73.6 854.6,71.4 858.9,73.8 C867.8,78.8 863.8,95 847.7,102.2 C831.6,109.4 803.5,107.6 797,109 C784.2,111.8 761.3,104.7 747.7,104.9 C729.5,105.2 695.6,114.1 676.8,115 C620.6,117.4 578.3,110.9 525,91.5 C481.9,75.8 449.5,60.7 470.4,51.4 C478.7,47.8 480.4,40.8 481.4,38.3 C482.4,35.8 478.8,31.3 477.7,28.1 C476.6,24.8 478.9,26.8 485,23.6 C491.1,20.4 488.7,15.4 487.6,13.4 C486.5,11.4 483.2,9.7 479.1,11.1 C475,12.4 475.4,13.6 476.1,16 C476.8,18.4 475.2,18.4 475.2,18.4 C475.2,18.4 478.5,18.1 477.3,15.5 C476,12.9 481.6,11.6 483.4,15.1 C485.2,18.6 480.8,22.4 475,21.7 C469.2,20.9 465.7,25.1 471.2,29.8 C476.7,34.5 470.9,40 462.8,40.4 C454.7,40.8 452.9,34.9 450.7,30.4 C448.6,25.8 446.6,23.6 444.4,18.9 C442.3,14.2 447.5,9.9 446.4,6.4 C445.2,2.9 440.3,0.1 440.3,0.1 C440.3,0.1 441.3,1.3 442.6,4.5 C443.9,7.8 438.1,13.8 437.1,17.9 C436.1,22.1 441.1,30.6 441.1,30.6 C441.1,30.6 438.6,27.9 424.2,27.5 C409.8,27.1 408,35.3 410.3,39.9 C412.6,44.5 418.7,42.9 418.7,42.9 C418.7,42.9 410.1,41.3 417.9,34.8 C425.7,28.3 444.6,37.2 434.7,50.5 C430.1,56.7 421.6,74.2 406.6,81.8 C391.6,89.4 382.1,73.8 357.7,77.1 C344.7,78.8 318.7,88.2 303.6,90.8 C284.2,94.1 298.6,83.7 276.8,86 C263.5,87.4 249.4,89.7 235.4,92.2 C217.1,95.4 220.8,89 226.7,86.3 C229.4,85.1 233.7,86.2 234.7,86.6 C233.4,82 219.6,82.9 218.4,88.4 C218.4,88.4 214.6,80.8 223.8,78.4 C233,76 233,68.8 228.6,65.7 C226.2,64.1 223.1,64.4 221.2,65.6 C216.5,68.4 220.1,72.2 223,71.4 C223.1,71.4 221.4,70.8 221.2,70 C220.8,68.1 222.7,66.3 226.3,67.4 C228.8,68.2 229.6,73.1 225.1,74.9 C222.3,76 218.2,76 215,77.6 C210.9,79.7 209.2,81.7 209.5,90.2 C208.9,87.2 207,81.2 203,80 C200.8,79.4 195.4,80.1 194.3,83.7 C193.2,87.4 195.6,87.6 195.6,87.6 C195.7,85.4 197.3,81.4 201.2,82.5 C203.5,83.1 205,85.7 204.6,88.8 C203.6,97.4 193.9,99.4 184.7,100.5 C154.7,104.2 130.2,113 109.8,111 C94,109.5 12.3,103.7 0.7,98.7 L0.7,427.1 L0.7,457.2 C0.7,475.3 1.3,471.7 17.5,475.2 C24.6,476.7 46.7,468.4 64.2,472.4 C93.4,479.1 120.2,500.1 118.2,511.7 C116.1,523.7 120,537.5 120.8,549.8 C121.8,563.8 128.8,578.7 123.7,587.3 C119,596 106.2,598.6 98.6,597 C85.2,594.1 74.3,589.6 61.9,593.4 C57.2,594.8 46.5,598 40.5,603.5 C30.5,612.6 25.7,625.2 25.7,625.2 C25.7,625.2 34.8,614.8 49.2,607.9 C63.2,601.3 80.6,601.6 92.8,606.3 C104.1,610.6 115.5,612.7 124.4,609.6 C125.9,613.9 128.1,621.5 133.1,625.2 C139.6,630.1 151.4,623.8 156.4,627 C158.5,628.4 161.2,630.1 162,631.9 C165.5,640.4 155.8,652.2 158.2,651 C162.4,648.9 175.4,633.9 160.3,622.4 C155.1,618.5 143.7,624.7 137.1,620.3 C133.7,618 130.2,612.9 128.6,607.7 L128.9,607.5 C137.1,602.5 142,590.6 140.7,582.1 C138.5,567.9 129.6,541.3 136.4,518.5 C137,516.5 137.7,514 138.5,511.2 C139.4,512.7 140.6,514.2 141.9,515.8 C144.1,518.3 145.2,525.7 150.6,531.1 C156.3,536.9 166.5,540.8 173.2,542 C177.9,542.8 183.4,548.6 186.2,551.2 C193.9,558.4 196.5,570.7 198.9,576.6 C199.6,578.3 201,580.1 202.8,581.4 C202,583.8 199.6,590.7 202.6,598.1 C205.6,605.5 210.4,601.9 217.4,611.4 C224.4,620.9 220.8,625.9 213.2,627.4 C205.6,628.9 203.3,625.4 203.3,625.4 C203.3,625.4 205.3,628.6 207.7,629.1 C210.1,629.6 214.5,629.8 218.3,627.6 C222.1,625.4 224.2,623.5 222.4,616.2 C220.6,608.9 219,608 216,605.2 C213,602.4 207.7,601.1 205.8,597.3 C204,593.5 204,587.4 205.8,583 C206.8,583.4 207.9,583.6 209,583.7 C213.9,583.8 218.6,580.1 222.5,575.1 C226.1,570.5 232.8,566.5 239.6,565.9 C246.7,565.3 252.5,567.3 252.5,567.3 C252.5,567.3 247.8,563.5 241.9,562.3 C238.4,561.5 233.5,562.7 231.4,563.2 C225.8,564.5 222.6,568.7 218.1,572.8 C215.6,575.1 210,577 206,574.8 C202.1,572.7 201.4,565.3 198.7,559.8 C196.3,554.9 194.7,548.7 191.2,544.6 C188.5,541.4 184,539.9 180.9,537.5 C180,536.8 165.3,530.6 156.2,521.4 C152.3,517.5 151.8,512 149.5,507.7 C145.4,500 142.3,493.2 151,485.9 C164.3,474.6 183.2,508 199.9,508.5 C209,508.8 221.2,505.2 229,506.3 C242,508 248.9,516.3 254.1,531.8 C263.2,559.2 278.3,566.1 267.9,585.6 C263.7,593.5 254.1,610.5 253.4,619.1 C252.4,631.6 253.7,641.9 273.1,641.9 C285.3,641.9 292.9,636.2 298.4,639.1 C305,642.6 309.2,653.1 305.5,664 C304,668.3 301.2,672.4 298.5,676.8 C292.6,686.1 284.7,693.2 276.8,693.7 C270.4,694.1 260.5,694.9 254.9,690.8 C249,686.5 247.5,677.1 245,671.2 C242.6,665.5 238.1,661 233.6,659.8 C223.7,657.1 212.2,664 212.2,664 C212.2,664 226.3,661.8 233.6,668.4 C235.8,670.4 236.5,675.7 237.1,679.1 C238.1,684.8 241.7,693.3 250.4,698.9 C258.1,703.9 270.4,706.3 278.9,705.9 C285,705.6 289.5,700.3 294.4,696 C297,693.7 300.3,692.1 303.1,690.3 C303.3,691 301.6,686.9 303.8,692.4 C306,697.9 313.7,697.2 322.6,709.3 C331.5,721.3 326.9,727.8 317.2,729.7 C307.6,731.6 304.6,727.1 304.6,727.1 C304.6,727.1 307.2,731.1 310.2,731.8 C313.2,732.4 318.9,732.7 323.7,729.9 C328.5,727.1 331.2,724.7 329,715.5 C326.7,706.2 324.7,705.1 320.9,701.6 C317.1,698.1 309.5,694.7 308,691.5 C306.5,688.3 307,689 306.8,687.5 C307,687.3 307.1,687.1 307.3,687 C312.2,681.3 313.2,674.3 315,668.4 C317.3,661 317.1,653.1 316.5,644 C316.3,640.8 315.9,638.2 315.3,636.1 C319.3,634.6 322,634.5 327.3,628.1 C332.6,621.7 325.8,616.8 332.5,602.8 C334.1,599.4 337.2,597.1 338.9,595.2 C340.6,593.3 342,591.7 343.8,591.3 C345.9,590.8 348.3,591.6 350.3,592.7 C352,593.6 353.5,595.1 355,597 C356.6,599 357.4,601.7 358,603.2 C358.4,604.1 358.7,605 359.3,605.5 C361.9,607.7 366.2,606.9 366.2,606.9 C366.2,606.9 362.1,606.2 360.3,604.2 C359.2,603 359.5,601.6 359,600.3 C357.8,597.4 356.5,594.1 352.3,591.5 C350.2,590.2 347.3,588.9 345.2,588.8 C342.6,588.6 340.3,590.5 336.1,594.2 C328.7,600.7 328.7,603.2 327.3,608.3 C325.9,613.4 327.2,621.1 324.4,624.9 C321.6,628.8 318,630.6 313.5,632.2 C311.1,628.2 307.3,626.7 302.1,625.7 C297.5,624.8 291.4,620.6 285.1,623.3 C271.4,629.2 266.1,626.2 268.9,615.6 C269.8,612.1 274.1,607.7 276,602.4 C283.8,581.6 292.9,582.9 282.5,554.2 C265.6,507.7 284.2,500.2 315.2,499.4 C330.2,499 335.6,503 341,506.6 C351.1,513.3 349.7,518.6 358.4,525.4 C356.3,529.5 354.6,536 351,541.3 C350.3,542.3 349.3,543.1 348.1,543.9 C347.4,541.4 345.6,534.4 339,530 C332.4,525.6 330.4,531.2 319.3,527.2 C308.2,523.2 308.5,517 313.9,511.5 C319.4,506 323.2,507.7 323.2,507.7 C323.2,507.7 319.8,506.2 317.5,507.1 C315.2,508 311.4,510.3 309.5,514.2 C307.6,518.1 306.9,520.9 312.4,525.9 C317.9,531 319.8,530.8 323.8,531.5 C327.8,532.1 332.8,530.2 336.6,532.4 C340.4,534.6 344.2,540.6 344.7,545.6 C343.3,546.2 341.9,546.7 341,547.1 C333.9,550 325.1,548.1 320.5,547.8 C317.7,547.6 314.1,549.6 312.7,552.4 C311.2,555.6 312.2,559.8 314.3,563.9 C316.2,567.7 316.9,573.2 315.2,577.9 C313.5,582.7 310.4,586 310.4,586 C310.4,586 314.3,584 316.9,580.5 C318.5,578.4 319.1,574.9 319.4,573.3 C320.2,569.2 318.4,565.9 317.1,561.7 C316.3,559.3 316.8,555.2 319.4,553.2 C322,551.3 327,553 331.5,552.9 C335.5,552.8 340,553.6 343.8,552.5 C346.7,551.7 349,549.2 351.5,547.8 C357.1,544.8 359.3,537.9 361.3,534.7 C363.3,531.6 363.7,531.5 365.4,530.2 C377.5,537.2 394.7,544.1 408.3,555.7 C414.6,561.1 418.6,573 421.1,581.8 C420.7,582.2 420.7,583.2 421.4,585 C424.8,594.4 419.7,602.9 413.7,607.6 C407.7,612.3 400.5,614.8 397.1,623 C395.6,626.6 392.5,630.1 391.7,634.3 C390.8,639.7 392.5,645.8 392.9,651.3 C393.3,657.5 396.5,664.2 394.2,668 C391.8,672 386.1,673.1 382.8,672.4 C376.8,671.1 372,669.1 366.5,670.8 C364.4,671.4 359.6,672.8 357,675.3 C352.5,679.4 350.4,685 350.4,685 C350.4,685 354.4,680.3 360.9,677.3 C367.1,674.4 374.9,674.5 380.3,676.6 C386,678.8 391.8,679.7 396,677.4 C398.3,680.1 399.4,684.5 396.8,690.2 C394.2,695.9 395.8,702.6 396.8,705.5 C397.8,708.4 405.6,711.7 403.6,716.6 C401.7,721.5 396.8,722.8 396.8,722.8 C396.8,722.8 396.8,722.8 400.4,722.1 C404,721.4 406.9,715.9 406.9,715.9 C406.9,715.9 405.9,708.7 403,706.5 C400.1,704.2 398.8,696.1 402,690.6 C405.2,685.1 399.4,674.7 399.4,674.7 L399.1,674.7 C401,672.1 402,668.7 401.6,666 C400.6,659.7 396.7,647.8 399.7,637.7 C400.8,634.1 402.6,626.3 406.2,623.2 C412.4,618 420.2,614.9 425.6,611.7 C424.9,627.5 420.4,642.7 418.9,652.2 C417.6,660.7 422.5,672.6 430.7,677.6 C440,683.3 453.4,681.4 466.6,676.3 C478.8,671.6 496.3,671.3 510.2,677.9 C524.6,684.7 528,729 528,729 C528,729 528.8,682.5 518.8,673.4 C512.8,667.9 502.1,664.8 497.4,663.3 C485,659.5 474.1,664 460.7,666.9 C453.2,668.5 440.3,665.9 435,657 C429.8,648.4 436.9,633.5 437.9,619.5 C438.7,607.2 442.6,593.5 440.5,581.4 C438.9,572.1 431.9,564.2 428.5,556 C420.8,537.8 404.6,532.1 391.2,521.5 C365.8,501.5 410,499.8 421.8,499.8 C429.5,499.8 441.2,506.5 452.8,506.5 C467.6,506.5 482.1,500.5 487.2,507.2 C491.3,512.6 481.6,524.9 474.7,536.2 C473.6,535.6 473.9,536 471.8,534.1 C469.7,532.2 466.2,526.9 461,525.7 C458.7,525.1 456.3,523.6 453.7,523.6 C450.4,523.6 446.9,525.2 443.7,525.9 C440,526.7 436.4,529.3 433.9,528.3 C431.3,527.3 430.1,524 430.2,521.9 C430.4,518.2 431.1,515.1 429.6,512 C429,510.8 427.7,508.1 426,506.7 C423.1,504.4 419.6,503.7 419.6,503.7 C419.6,503.7 422.8,505.7 425.2,509.2 C427.6,512.6 428.2,517.3 427.5,520.7 C426.7,524.4 426.8,528.1 428.7,530.3 C430.4,532.3 433.8,533.1 436,532.3 C439.7,531.1 446.4,527.6 452.7,528.4 C455,528.7 459.8,529.1 462,530.9 C466,534.3 468.6,539 471.2,541.9 C467.5,547.6 463.3,553.9 463.3,560.1 C463.3,567.2 467.9,573.8 472.2,581.5 C478.4,592.9 485.3,600.3 493.2,605.8 C500.6,610.9 508.8,614.5 518,614 C526,613.5 529.3,644.3 539.1,638.5 C545.8,634.5 552.8,628.3 560.2,624.7 C570.7,619.6 582,615.5 589.9,617.6 C597.7,619.7 600.8,625.4 604.5,632.5 C608.8,640.6 613,651 611.2,659.4 C609.8,665.9 603.8,671.1 596.6,674.2 C586.3,678.5 577.4,683 573.5,691.1 C570,698.3 570.5,706.1 572,713.2 C573.1,718.4 573.4,723.1 576.3,726.5 C579.2,729.8 584.7,731.8 589.7,731.4 C614,729.7 604.7,746.1 604.7,746.1 C604.7,746.1 614.1,739.1 606.1,730.6 C598.1,722.2 583.1,730.8 579.8,718.6 C578.2,712.5 576.9,702.9 578.8,696.7 C580.7,690.5 585.9,687.7 593.9,683.7 C603.4,679 613.2,677.8 618.2,670.2 C621.6,665 622.8,655.4 620.2,644.8 C613.6,618.5 608.6,611.7 594.5,605.1 C589.8,602.9 582.2,603.6 573.3,606.1 C571.6,601.8 572.1,594.8 574.2,590.4 C576.3,585.9 576.4,583.7 576.6,580.7 C577.4,581.3 578.3,581.8 579.4,582.3 C582.5,583.8 587.9,578.8 594.2,577.3 C596.5,576.7 600.2,578.3 602,578.9 C607,580.7 610.6,585.7 612.9,588 C614.3,589.4 617,590 619,589.2 C621.2,588.3 622.7,585.6 623.5,582.6 C624.3,579.8 626.5,576.6 629.5,575 C632.6,573.3 635.7,573 635.7,573 C635.7,573 632.8,572.2 629.9,572.8 C628.1,573.2 626.2,574.7 625.3,575.3 C623,577 622.4,579.6 621.2,582.4 C620.5,584 618.4,585.9 616.1,585.7 C613.9,585.5 612.1,582.3 609.7,580.3 C607.6,578.5 605.6,576.1 603.2,574.9 C601.3,574 599,574.2 597.1,573.7 C592.8,572.7 589.3,575 586,575.9 C582.7,576.8 579.2,576.6 576.4,574.3 C575.9,571.6 575.6,570.8 574.7,567.8 C573.7,564.8 561.8,558.5 564.7,551.3 C567.7,544.1 574.9,542.2 574.9,542.2 C574.9,542.2 574.9,542.2 569.6,543.1 C564.3,544 559.9,552.2 559.9,552.2 C559.9,552.2 561.2,562.8 565.6,566.2 C569.9,569.6 570.8,583.3 566.8,589.8 C562.8,596.4 565.9,602.6 567.9,607.9 C561.4,610.1 554.3,613 547.3,616.2 C536.5,621.1 531.4,595.5 521.9,596.7 C510.7,598.1 509.4,594.4 502.1,590.4 C497.1,587.6 493.3,582.9 490.7,578 C488.1,573 482.6,567.8 482.4,563.8 C482.1,557.4 487.1,551.2 492.8,543.4 C499.2,534.7 507.2,524.5 524.1,518 C563.3,503 587.9,533.9 624.7,533.4 C636.8,533.2 644.7,528.5 653.3,528.9 C660,529.2 669,509.6 667.7,518.8 C667.2,522.1 673.2,529.6 667.2,531.2 C664.9,531.8 662.5,530.6 662.5,530.6 C662.5,530.6 661.7,531.7 666.3,533 C668.6,533.6 670.3,532.3 671.5,531.3 C673.3,529.9 671.4,524.4 671.3,520.4 C671.3,518.2 672.7,517.1 673.5,515.9 C674.8,514 677.1,512.4 679.5,511.5 C682.3,510.5 684.7,515.6 686.7,516.4 C693.9,519.1 696.3,526.2 696.3,533.9 C696.3,551.1 687.1,555.1 682.4,561.7 C679.6,565.7 676.7,573.4 677.2,582.3 C677.3,584.5 675.6,591.2 672.9,591.7 C670.8,592.1 668.5,591.9 666.8,591.1 C657.3,586.7 655.3,587.6 653.5,589.5 C652.1,591 649.8,592.7 650.1,596.2 C650.5,600 656.6,603.2 651.6,608.5 C648.8,611.4 649.9,611.8 649.9,611.8 C649.9,611.8 651.1,609.9 653,609.4 C660.1,607.4 656.7,602.2 655.8,598.4 C655.2,595.9 655.6,593 658.3,592.8 C659.9,592.7 662.4,594.1 665.9,595.3 C667.5,595.9 669.9,597.1 672,597.2 C674.1,597.3 676.4,596.8 678.5,596 C678.9,598.2 679.4,600.2 680.1,601.9 C682.4,607.6 685.5,613.6 689.6,616.3 C693.2,618.7 697.8,618.2 701.9,619.5 C707.5,621.3 711.5,623.8 711.5,628.8 C711.5,635.2 705.7,644.3 697.1,646.1 C694.2,646.7 689.4,647.7 687.6,649 C679.8,654.5 683.4,664.6 683.4,664.6 C683.4,664.6 681.4,656.5 689.9,651.6 C692.7,650 699.8,649.1 704.4,648.5 C716.6,646.9 719.8,638.3 719.5,629.9 C719.3,625.5 720.7,621.5 716.5,617.9 C710.6,612.8 700.9,612.4 694.6,608.3 C690.8,605.8 689.3,600.9 687.6,595.9 C686.3,592.1 687.7,587.7 687.9,581.4 C688.4,561.5 697.4,561.4 702.7,551.6 C703,551.1 703.3,550.5 703.6,549.9 C706.4,551.7 708.5,553.3 709.9,559.1 C711.3,564.9 717.3,570.4 720.1,572.3 C722.9,574.2 731.8,571.8 733.4,577.3 C735,582.8 731.6,587.2 731.6,587.2 C731.6,587.2 731.6,587.2 734.3,584.3 C737,581.4 735.8,574.6 735.8,574.6 C735.8,574.6 730.2,569.1 726.1,569.1 C722.1,569.1 715.4,561.7 714.6,556 C713.9,550.3 709,548 705.4,545.9 C706.9,541.9 707.9,536.6 706.9,529.4 C706.2,524.3 704.1,519.8 703,515.7 C702.9,515.5 723.6,518.6 726.1,518.3 C737.9,517.1 750.6,510.5 753.2,510.2 C753.6,511.1 754.1,512.3 754.4,513.7 C755,516.8 754.2,520.2 752.7,522.4 C751.1,524.8 750.1,527.3 750.8,529.4 C751.4,531.3 753.5,532.8 755.3,532.9 C758.2,533.1 763.9,532.6 768.1,535 C769.6,535.9 772.9,537.5 773.8,539.4 C776.5,544.7 776.3,551.4 779.1,552.7 C780.1,553.2 781.1,553.5 782,553.7 C779.4,557.6 777.3,562.4 776.1,568.6 C773.3,582.8 776.4,593.9 781.1,600.8 C784.7,606.2 791.8,606.5 795.3,613 C799.3,620.4 798.4,628.9 793.6,632.9 C788.8,636.9 780.2,636.4 771.3,640.8 C753.4,649.4 754.6,669 754.6,669 C754.6,669 762.5,647.4 786,647.4 C787.3,647.4 788.5,647.3 789.6,647.2 C792.2,652.2 798,658.1 804.8,660.7 C809.6,662.5 811.9,665.5 813.7,667.9 C815.3,670.1 816.7,671.9 816.7,673.7 C816.6,674.8 815.1,676.3 814.3,677.7 C813.6,679.1 812.5,680.4 811.1,681.2 C809,682.4 808.6,683.4 805.5,683 C802.8,682.7 799.7,680.3 796.7,678.9 C791.2,676.4 785.7,674.5 783.2,675.7 C779.2,677.6 777.7,679.5 775.9,687 C775.1,690 775.5,692.8 776.5,694.2 C777.9,696.4 780.7,696.7 783.4,698 C785.7,699.1 787.1,699.9 787.7,701.7 C788.3,703.5 787.9,706.2 787.4,707.9 C786.5,711.4 782.2,708.9 779.9,711.3 C777.6,713.7 780.3,715.7 780.3,715.7 C780.3,715.7 777.7,711 784.6,711.5 C786,711.6 787.6,711 788.4,710.1 C789.2,709.2 789.3,707.8 789.6,706.3 C790,704.3 790.2,702.1 789.2,700 C788.1,697.7 785.5,696.4 782.6,695.2 C780.5,694.3 778.8,692.8 778.4,691 C777.9,688.6 779.1,685.6 780.3,683.3 C781.4,681.3 782.2,679.7 784.5,679.1 C786.8,678.5 790,679.7 793,681.1 C795.1,682.1 797.1,683.9 799,685 C801.8,686.7 804.3,687.5 806.6,687.7 C809.2,687.9 811.6,686.8 813.7,685.4 C815.9,683.8 817.9,681.7 819.7,678.5 C820.9,676.3 822.2,674.4 822.2,672.4 C822.2,670.2 820.3,667.9 819.2,666 C816.3,661 811.8,657.3 807.8,655.3 C804.5,653.6 802.1,648.2 800.5,643 C808.3,637.6 811.8,628 810.7,619.4 C808.2,600.4 791.2,600.4 791.1,581.1 C791.1,575.9 789.8,568.9 794.1,562.7 C807.8,543.1 819.6,548.9 837.3,533.2 C858.8,514.1 880.5,532.9 877.3,559.1 C875.8,571.6 871.8,580.2 862.6,588 C856.7,593.1 842.8,600.2 838.9,607.7 C830.1,624.9 828.9,633.6 832.2,669 C833.5,683.3 839.9,691 844.2,697.3 C846,700 847.7,702.2 849.6,704.2 C847.4,707.4 845.8,708.1 844.7,716 C843.6,723.9 852,724.8 853.8,740.2 C854.2,744 852.8,747.5 852.4,750 C852,752.5 851.7,754.6 850.3,756 C848.8,757.5 846.3,758.2 844.1,758.3 C842.2,758.4 840.1,758 837.8,757.2 C835.4,756.4 833.3,754.5 831.9,753.6 C831.1,753.1 830.4,752.5 829.6,752.4 C826.2,751.9 823,754.9 823,754.9 C823,754.9 826.8,753.3 829.5,754.1 C831,754.5 831.6,755.9 832.7,756.7 C835.2,758.5 838.1,760.6 843.1,760.6 C845.6,760.6 848.7,760.1 850.5,759.1 C852.8,757.9 853.8,755 855.3,749.7 C858.1,740.3 856.8,738.2 855.2,733.1 C853.6,728 848.5,722 848.8,717.5 C849.1,713 850.5,710.7 852.7,707.4 C856.6,710.5 861.4,712.4 868,713.7 C888.3,717.6 907.9,709.8 917.7,703.9 C927.5,698 931.7,680.8 931.7,680.8 C931.7,680.8 926.9,700.1 890.6,705 C879.3,706.5 868.2,705.1 860.7,699.2 C856.7,696.1 854.7,691.3 852,686.3 C846.1,675.7 836.9,659.6 844.3,636.3 C846.9,628 845.8,623.2 849.5,617.5 C857.6,604.9 874.6,598.8 880.9,592.8 C890,584 891.9,578 893.1,557.4 C894.1,539.8 890.9,527.4 893.5,521.5 C896.9,514 903.9,511.4 908.4,511.5 C912.5,511.6 924.4,511.7 927.4,514.6 C931.8,518.9 928.8,532 925.1,540.2 C915,562.6 921.7,582.8 925.1,592.9 C927.4,599.9 937.8,604.5 942.2,611.7 C951.9,627.4 953.7,644.8 925.1,652.4 C925.1,652.4 929.4,651.6 937.4,650.2 C945.4,648.8 944.8,647.2 948,644.3 C950.1,647.9 951.8,651.9 951.1,654.6 C950.2,657.9 950,662.6 951.4,666.8 C951.9,668.5 952.3,670.7 953.6,671.9 C954.8,673 956.6,673.2 958.5,673.6 C961.3,674.3 963.6,674.2 965.7,673.7 C967.7,673.2 969.5,672.4 970.8,670.8 C971.9,669.4 972.7,667.4 973.2,665 C973.5,663.3 973.6,661.2 974.1,659.4 C974.8,656.9 975.8,654.4 977.4,653.4 C978.9,652.4 980.3,652.8 982.1,653.2 C984.1,653.7 986.5,654.5 987.6,656.1 C988.5,657.3 988.4,659.1 987.9,660.7 C987.1,663.1 986.5,665.2 987.3,667.1 C988,668.8 989.4,669.8 990.8,670.6 C991.8,671.2 992.7,671.9 993.7,671.9 C994.7,671.9 995.8,671.3 996.5,670.4 C999.8,666.1 1001.2,670.1 1001.2,670.1 C1001.2,670.1 1001.4,667.5 998.8,667.6 C996.2,667.7 995.4,671.5 992.9,670.2 C991.6,669.6 989.8,668.3 989.1,667.1 C988.4,665.9 988.7,664.6 989.2,662.7 C989.8,660.4 991.1,658.6 990.6,656.6 C990.2,655.3 988.8,653.6 986.7,652.5 C981.3,649.7 979.4,649.5 976.3,650.8 C974.3,651.7 972.5,655.8 971,660.4 C970.2,662.9 970,665.9 968.8,667.7 C967.4,669.8 966.6,669.4 964.8,670.1 C963.6,670.5 962.2,670.4 961,670.1 C959.8,669.8 958.1,669.9 957.4,669.4 C956.3,668.5 956,666.7 955.6,664.6 C955.1,662.2 954.6,659.4 956.1,655.6 C958.6,649 957.4,640.7 954.9,637.1 C959.7,630.7 958.2,622.2 956.1,614.2 C954.2,607.2 952.5,600.5 946.9,596.2 C940.9,591.5 934.5,580.1 934.6,567.3 C934.6,558.5 939,549 943.5,541.2 C951.7,527.3 959.5,522.4 974.1,530.9 C984.2,536.8 997.8,542.5 1010,551 C1009.9,551.1 1009.9,551.2 1009.8,551.4 C1008.8,553.2 1005.1,554.5 1003.7,555.6 C1000,558.5 995.6,560 993.5,565 C991.4,570 991.1,576 991.9,584.1 C992.7,592.2 989.5,595.6 985.9,594.8 C982.2,594 978.1,593.2 974.7,594.3 C971.3,595.4 970,598 970,598 C970,598 973.1,595.5 977.3,595.2 C979.2,595.1 981.5,596.1 983.6,596.9 C990.4,599.5 995.9,594.8 995.1,589.8 C994.7,587.3 995.6,584.1 995.9,580.6 C996.2,577.2 995,572.8 996.8,568.2 C998.1,565.1 1001.1,563.2 1003.8,561.7 C1008.5,559 1014.2,558.2 1015.8,555.3 C1016.2,555.6 1016.7,556 1017.1,556.4 C1025.2,563.3 1029.4,580.8 1031.8,589 C1038.6,611.8 1029.8,638.4 1027.5,652.6 C1026.2,661.1 1031.1,673 1039.3,678 C1048.6,683.7 1062,681.8 1075.2,676.7 C1087.4,672 1104.9,671.7 1118.8,678.3 C1122.5,680 1125.8,682 1128.7,684 C1127.4,693.7 1121,702.5 1115.5,706 C1103.4,713.7 1092.2,718 1085.1,731.1 C1082.5,736 1076.3,747.2 1075.2,756.9 C1073.4,773 1077.9,788.3 1077.9,788.3 C1077.9,788.3 1078.1,771.7 1084.7,754.3 C1091.1,737.5 1104.6,724.2 1117,719.1 C1130.4,713.5 1141.9,704.9 1145.3,692.5 C1148.3,681.6 1144.4,666.9 1137.9,660.1 C1127,648.8 1103.1,631.2 1093.6,605.1 C1090.2,595.7 1082.1,576.5 1083.8,563.9 C1088,534.2 1099.9,529.3 1110.7,523.2 C1119.1,518.5 1123.4,509.8 1144.4,509.8 C1148.6,512.1 1152.4,513.4 1156.1,515.1 C1156.1,515.7 1155.9,516.3 1155.7,516.8 C1154.9,518.2 1152,519.2 1150.8,520.1 C1147.9,522.4 1144.4,523.6 1142.8,527.5 C1141.1,531.4 1140.9,536.2 1141.6,542.6 C1142.3,549 1139.7,551.7 1136.9,551.1 C1134,550.5 1130.7,549.9 1128,550.7 C1125.3,551.5 1124.3,553.6 1124.3,553.6 C1124.3,553.6 1126.7,551.6 1130,551.4 C1131.5,551.3 1133.3,552.1 1135,552.8 C1140.4,554.9 1144.7,551.1 1144.1,547.2 C1143.8,545.2 1144.5,542.7 1144.7,539.9 C1144.9,537.2 1144,533.8 1145.4,530.1 C1146.4,527.6 1148.8,526.2 1151,524.9 C1155.1,522.6 1160.3,522 1160.8,519 C1160.9,518.5 1160.9,518.1 1161,517.6 C1164.2,519.7 1167.4,522.6 1170.8,527.4 C1174.3,532.4 1173.3,538.2 1173.3,542.5 C1173.2,558.3 1159.2,558.4 1157.2,573.9 C1155.8,584.3 1162.8,596.7 1177.3,596.7 C1178.4,596.7 1179.5,596.8 1180.6,596.9 C1180.9,598.4 1180.9,599.9 1180.2,601.1 C1179.2,602.9 1175.5,604.2 1174,605.4 C1170.3,608.3 1165.8,609.9 1163.7,614.9 C1161.6,619.9 1161.3,626 1162.1,634.2 C1162.9,642.4 1159.7,645.8 1156,645 C1152.3,644.2 1148.1,643.4 1144.7,644.5 C1141.3,645.6 1139.9,648.2 1139.9,648.2 C1139.9,648.2 1143,645.6 1147.2,645.4 C1149.1,645.3 1151.4,646.3 1153.6,647.1 C1160.5,649.7 1166,645 1165.2,640 C1164.8,637.5 1165.7,634.2 1166,630.7 C1166.3,627.2 1165.1,622.8 1166.9,618.2 C1168.2,615 1171.2,613.2 1174,611.6 C1179.3,608.6 1185.9,607.9 1186.6,604.1 C1187,601.9 1186.8,599.9 1186.5,598.3 C1198.7,602.6 1203,614.5 1203,614.5 C1203,614.5 1204,598.4 1189.3,591.3 C1182,587.8 1174.9,588.1 1171,584.8 C1167.1,581.5 1166.3,574.5 1169.6,568.5 C1172.5,563.2 1178.3,562.9 1181.2,558.5 C1183.3,555.4 1185,551.3 1185.7,546.2 C1186.3,548.9 1187.6,551.8 1189.4,554.3 C1190.5,555.7 1191.5,557.8 1193.1,558.4 C1194.6,559 1196.3,558.6 1198.3,558.5 C1201.2,558.2 1203.3,557.4 1205.1,556.3 C1206.8,555.2 1208.3,553.9 1209,551.9 C1209.6,550.2 1209.8,548.1 1209.4,545.6 C1209.2,543.9 1208.5,541.9 1208.4,540 C1208.3,537.4 1208.4,534.7 1209.6,533.3 C1210.7,531.9 1212.2,531.7 1214,531.6 C1216.1,531.4 1218.6,531.5 1220.1,532.6 C1221.3,533.5 1221.9,535.2 1221.9,536.9 C1221.9,539.4 1222,541.6 1223.3,543.1 C1224.5,544.4 1226.1,545 1227.7,545.3 C1228.9,545.5 1229.9,545.9 1230.8,545.6 C1231.7,545.3 1232.6,544.3 1233,543.3 C1234.8,538.2 1237.3,541.5 1237.3,541.5 C1237.3,541.5 1236.7,539 1234.2,539.9 C1231.8,540.8 1232.2,544.6 1229.4,544.3 C1228,544.1 1225.9,543.5 1224.8,542.6 C1223.7,541.7 1223.6,540.3 1223.4,538.4 C1223.3,536 1223.9,533.9 1222.8,532.2 C1222,531 1220.2,529.9 1217.7,529.6 C1211.7,528.7 1209.9,529.1 1207.3,531.4 C1205.6,532.9 1205.3,537.4 1205.4,542.2 C1205.5,544.9 1206.2,547.8 1205.6,549.9 C1204.9,552.3 1204,552.3 1202.6,553.4 C1201.6,554.2 1200.3,554.6 1199,554.7 C1197.8,554.8 1196.2,555.5 1195.4,555.2 C1194,554.7 1193.2,553.1 1192.1,551.3 C1190.9,549.2 1189.5,546.7 1189.6,542.6 C1189.8,536.1 1186.6,529.3 1183.4,526.2 C1181.8,521.9 1177,509.6 1181,499 C1185.7,486.7 1199.9,476.4 1206.4,476.7 C1211.3,476.9 1214,481.3 1219.1,483.9 C1223.8,486.3 1230.9,486.8 1236.3,488 C1243.7,489.6 1258.7,483.7 1264.4,486.8 C1273.8,491.9 1273.3,501 1269.1,521 C1267.4,529.2 1263.4,536.6 1259.8,545 C1256.2,553.4 1253,562.8 1249.4,571.8 C1246.1,580.1 1241.1,589.5 1240.9,598.1 C1240.6,610.4 1248.2,622.9 1258,635.6 C1289.4,676.3 1249.2,667.6 1249.2,667.6 C1249.2,667.6 1238.4,662.8 1225.3,662.4 C1211.4,662 1194.5,667.6 1184.1,680 C1163.8,704 1172.4,714.5 1172.4,714.5 C1172.4,714.5 1171.3,700.2 1178.4,693.6 C1185.5,687 1189.6,675.8 1201.9,674.7 C1214.2,673.6 1222,668.5 1236.2,672.6 C1246,675.4 1255.6,682 1264.9,680.7 C1269.1,680.1 1274.5,676.7 1277.7,672.6 C1287.9,659.6 1285.4,655.9 1276.8,644.5 C1268.2,633.1 1257.4,617 1258,600.7 C1258.4,589.5 1263.4,575.6 1270.7,559.2 C1274,551.7 1277.9,547.8 1282,536.2 C1287.7,520 1289,511.4 1289.7,501.7 C1290.9,484.5 1296.6,487.2 1299.7,485 C1311.1,477.2 1315.5,488.5 1319.4,489.5 C1325.8,491.1 1327.9,488.1 1338.4,497.9 C1345.7,504.7 1350.7,511.7 1359.1,525 C1362.9,531 1371,537.2 1374.3,547.3 C1375.7,551.8 1379.5,553.4 1380.1,557.1 C1381.4,564.3 1378.7,572.8 1378.9,578.9 C1379.2,588.1 1376.7,600 1372.9,605.6 C1368.6,611.9 1360.3,615.9 1352.5,617.9 C1351.4,618.2 1350.3,618.4 1349.2,618.6 C1348.7,612.7 1348.9,605.4 1351.8,602.4 C1354.8,599.3 1357.7,594.3 1358.8,588.8 C1359.2,586.6 1360.2,584 1359.5,581.9 C1358.8,580 1357,578.7 1355.2,577.1 C1352.5,574.7 1350,573.4 1347.4,572.7 C1345,572 1342.5,571.9 1340.1,572.9 C1338,573.8 1336,575.4 1333.9,577.9 C1332.5,579.6 1331.2,581.9 1329.6,583.5 C1327.3,585.8 1324.7,588 1322.4,588.1 C1320.1,588.3 1318.8,587 1317.2,585.5 C1315.3,583.8 1313.2,581.4 1312.9,579 C1312.7,577.1 1313.8,575.2 1315.4,573.7 C1317.7,571.6 1319.6,569.6 1319.9,567.1 C1320.1,564.9 1319.3,562.9 1318.2,561.1 C1317.4,559.8 1316.9,558.6 1315.8,558 C1314.7,557.4 1313.1,557.4 1311.8,558 C1305.6,560.7 1306.5,555.5 1306.5,555.5 C1306.5,555.5 1304.7,558.2 1307.6,559.7 C1310.5,561.2 1313.6,557.5 1315.6,560.4 C1316.6,561.8 1317.8,564.3 1317.9,566.1 C1318,567.9 1316.9,569.1 1315.2,570.9 C1313.2,573 1310.7,574.2 1310.1,576.7 C1309.7,578.4 1310.3,581 1312,583.6 C1316.2,589.9 1318.2,591.2 1322.5,591.6 C1325.3,591.9 1329.7,588.4 1334,584.2 C1336.4,581.9 1338.4,578.7 1340.8,577.5 C1343.6,576.1 1344.3,576.9 1346.6,577.3 C1348.2,577.6 1349.6,578.4 1350.8,579.5 C1351.9,580.6 1353.9,581.4 1354.3,582.5 C1355,584.2 1354.3,586.3 1353.5,588.8 C1352.6,591.7 1351.5,595.1 1347.6,598.4 C1341,604 1337.5,613.5 1337.8,619 C1335.2,618.9 1332.5,618.6 1329.7,618.2 C1320.6,617 1311.8,611.8 1306.3,609.3 C1303.2,607.9 1300.1,606.4 1297.3,606.5 C1284.9,607 1275.8,620 1275.8,620 C1275.8,620 1288.3,611.8 1298.1,612.6 C1303.8,613.1 1306.6,617.6 1311.3,619.6 C1320.9,623.9 1331.8,629 1347.7,626.8 C1348.4,627.6 1348.9,628.6 1349,629.6 C1349.5,632.2 1346.9,636.2 1346.3,638.5 C1345,644.2 1341.9,649.2 1343.8,655.6 C1345.7,662.1 1350.1,668.1 1357.2,675.4 C1364.3,682.7 1363.9,688.4 1359.8,690.5 C1355.6,692.6 1350.9,695.1 1348.5,698.8 C1346,702.5 1346.8,706 1346.8,706 C1346.8,706 1347.8,701.1 1351.7,697.6 C1353.5,696 1356.5,695.2 1359.2,694.3 C1367.9,691.5 1369.5,682.6 1364.8,678.4 C1362.5,676.3 1360.8,672.5 1358.3,668.9 C1355.9,665.3 1351.3,662 1349.5,656.2 C1348.3,652.2 1349.8,648 1351.2,644.3 C1353.9,637.3 1359.7,631.5 1357.4,627.3 C1356.9,626.4 1356.4,625.6 1355.9,624.9 C1363.4,622.9 1371.4,619.5 1376,615.8 C1383.4,609.9 1388.6,603 1390.4,583.1 C1391.5,571.4 1393.5,560.5 1392.1,553 C1389.8,540.5 1382.4,534.2 1377.8,525.9 C1385.1,523.7 1395.1,516.3 1400,506.6 C1403.1,500.4 1407.3,497.7 1410.8,495.7 C1414,493.8 1416.5,492.2 1419,492.5 C1420.5,492.7 1422.3,495 1424.1,496.2 C1425.9,497.4 1427.5,499 1428.4,501 C1429.7,503.9 1431,504.6 1430.1,508.8 C1429.3,512.4 1425.7,516.1 1423.4,520.1 C1419.3,527.1 1416.1,534.2 1417.4,537.8 C1419.4,543.4 1421.8,545.6 1431.5,549.1 C1435.5,550.5 1439.1,550.4 1441.3,549.3 C1444.4,547.7 1445.2,544 1447.4,540.6 C1449.2,537.7 1450.5,535.9 1452.9,535.4 C1455.3,534.9 1458.9,535.8 1461.2,536.6 C1465.7,538.3 1461.8,543.7 1464.8,547.1 C1467.7,550.5 1470.7,547.1 1470.7,547.1 C1470.7,547.1 1464.1,550 1465.7,540.8 C1466,538.9 1465.5,536.7 1464.3,535.5 C1463.1,534.3 1461.3,534 1459.4,533.4 C1456.7,532.6 1453.8,532.1 1450.9,533.1 C1447.7,534.3 1445.6,537.5 1443.6,541.3 C1442.2,543.9 1440,546 1437.4,546.3 C1434.1,546.7 1430.3,544.7 1427.4,542.7 C1424.9,541 1422.8,539.6 1422.3,536.6 C1421.8,533.5 1423.8,529.3 1426.1,525.6 C1427.7,522.9 1430.4,520.5 1432.1,518.1 C1434.7,514.6 1436.2,511.3 1436.7,508.3 C1437.3,504.8 1436.2,501.6 1434.5,498.6 C1432.7,495.4 1430.1,492.5 1426,489.7 C1423.2,487.8 1420.9,485.8 1418.2,485.5 C1415.2,485.2 1412,487.4 1409.3,488.7 C1402.3,491.9 1396.7,497.4 1393.5,502.5 C1389.9,508.2 1377.2,510.8 1368.8,511.9 C1359.2,499.9 1360.4,491.9 1363.2,486 C1364.1,484.1 1363.2,479.2 1365.7,475.4 C1368.2,471.6 1374.2,469 1376.2,468 C1380.3,466 1383.4,460.5 1389.9,460 C1394.5,459.7 1403,456.2 1407.7,456.6 C1415.6,457.2 1419.8,462 1425.9,462 C1436.3,463.5 1444.2,468.4 1452.7,470.2 C1460.2,471.8 1468.5,470.4 1476,470.1 C1483.6,469.9 1495.6,472.4 1501.9,470.8 C1512.4,468.1 1514.8,475.1 1528.4,477.5 C1534.9,478.7 1532.3,481.7 1534,485.1 C1535.8,488.4 1541.9,492 1533.6,498.5 C1524.3,505.8 1513.6,510.8 1505.4,519.3 C1505.1,518.8 1504.8,518.4 1504.5,518.1 C1501.3,514.8 1499.3,510.5 1494.1,508.9 C1488.9,507.3 1482.9,507.7 1475,509.3 C1467,510.9 1463.3,508.1 1463.7,504.4 C1464.1,500.7 1464.5,496.4 1463.1,493.2 C1461.7,489.9 1459,488.9 1459,488.9 C1459,488.9 1461.8,491.7 1462.5,495.8 C1462.8,497.7 1462,500.1 1461.4,502.3 C1459.5,509.3 1464.7,514.3 1469.6,513 C1472,512.4 1475.4,512.9 1478.8,512.8 C1482.3,512.7 1486.4,511.1 1491.2,512.5 C1494.5,513.4 1496.6,516.3 1498.4,518.8 C1499.6,520.5 1500.5,522.3 1501.4,524 C1499.5,526.6 1500.9,522.2 1496.3,532.9 C1491.7,543.6 1487.7,573.1 1490.6,602.8 C1493.5,632.5 1482,644.9 1468.6,642.1 C1455.2,639.2 1439.9,636.4 1427.4,640.2 C1415,644 1410.2,653.6 1410.2,653.6 C1410.2,653.6 1421.4,644.3 1436.8,643.5 C1443.8,643.1 1452.2,646.8 1460,649.8 C1484.9,659.4 1505,642.1 1502.1,624 C1500.7,614.9 1503.8,603 1504.9,590.3 C1506,577.7 1501.6,561.8 1508.3,545 C1512.9,533.5 1524.1,526.7 1534.1,521 C1553.2,510.1 1577.2,507.5 1579.7,493.7 C1583.3,473.6 1587.3,494.3 1589.9,501.5 C1592,507.5 1597.9,513.6 1601.1,517.8 C1604.7,522.5 1609.4,525 1616.2,527.7 C1624.4,530.9 1633.5,534.1 1636.7,539.2 C1638.6,542.2 1641,544.5 1641.1,547.2 C1641.3,553.2 1636.7,558.7 1636.7,558.7 C1636.7,558.7 1638.9,561.5 1645,550.5 C1648,545.1 1645.6,540.1 1644,536.4 C1641.3,530.2 1636.2,526.6 1629.3,523.2 C1622.7,519.9 1616.1,514.9 1612.7,511.2 C1608.8,506.8 1606,500.1 1605.2,493.5 C1603.5,478.8 1611.7,483.1 1619.5,483.3 C1629.6,483.5 1641.1,482.7 1650.9,486.4 C1670.6,494 1679.9,505.9 1687.4,515.9 C1694,524.9 1699.8,532.1 1699.5,539.6 C1699.3,544.2 1692.9,550.3 1689.9,556.1 C1686.9,561.9 1682.5,567.3 1676.6,570.6 C1668.1,575.3 1666.6,579.6 1653.5,578 C1642.4,576.6 1629.9,567 1617.3,561.2 C1594.8,550.9 1572.4,543.4 1561.9,548.3 C1545.5,555.9 1539.6,563.9 1532,594.5 C1528.9,606.9 1530.3,618.1 1534.3,624.2 C1540.2,633.1 1551.6,634.4 1562.6,639.9 C1571.9,644.5 1577.9,647.8 1580.2,655.1 C1582.5,662.3 1581,673.5 1579,680.6 C1575.2,694.8 1557.7,684.7 1548.4,694.5 C1539.1,704.3 1550,712.5 1550,712.5 C1550,712.5 1539.2,693.4 1567.5,695.4 C1573.3,695.8 1579.7,693.5 1583.1,689.7 C1586.5,685.8 1586.9,680.3 1588.1,674.2 C1589.8,665.9 1590.4,656.8 1586.3,648.5 C1581.8,639.1 1571.3,633.9 1559.4,628.8 C1550.9,625.2 1544,619.2 1542.3,611.6 C1540.6,604 1543.2,595 1546.8,586.9 C1550,592.2 1555.5,591.5 1566.2,592.5 C1576.9,593.5 1584.8,589.5 1591.1,592.9 C1597.4,596.3 1597.8,601.5 1592.6,607.4 C1587.4,613.3 1591.5,617.4 1591.5,617.4 C1591.5,617.4 1588.9,611.5 1596,608.8 C1603.1,606.2 1603.8,595.8 1593.4,588.4 C1583,581 1573.8,587.6 1562.2,585.4 C1550.5,583.2 1552.5,580.3 1552,576.7 C1555.7,570.1 1559.4,564.9 1567.2,562.8 C1576.4,560.3 1589.7,565.1 1601.8,571 C1610.4,575.1 1618.6,582.4 1626.4,587 C1634.9,592.1 1643,595.4 1650.4,596.9 C1650.4,597.1 1650.6,597.2 1651.1,597 C1653.3,597.4 1655.5,597.7 1657.6,597.8 C1659.4,597.9 1661.2,597.9 1663,597.7 C1668,600.6 1672.6,606.5 1674.4,614 C1676.2,621.5 1680.1,626.8 1684.1,630.5 C1682.7,632 1679.2,632.8 1677.7,633.8 C1673.7,636.2 1669.1,637.3 1666.5,642 C1663.9,646.7 1662.9,652.6 1662.8,660.8 C1662.7,668.9 1659.2,672 1655.6,670.8 C1652.1,669.6 1648,668.3 1644.5,669 C1641,669.7 1639.4,672.1 1639.4,672.1 C1639.4,672.1 1642.7,669.9 1646.9,670.2 C1648.8,670.3 1651,671.6 1653,672.6 C1659.4,676 1665.4,671.9 1665.2,666.9 C1665.1,664.4 1666.3,661.3 1667,657.9 C1667.7,654.5 1667,650.1 1669.3,645.7 C1670.9,642.7 1674.1,641.2 1677,640 C1681.9,637.9 1687.6,637.7 1689.6,635.2 C1690.4,635.8 1689.1,634.9 1691.8,636.7 C1694.5,638.5 1711.8,635.8 1714.5,645.2 C1717.2,654.6 1711.5,662.1 1711.5,662.1 C1711.5,662.1 1711.5,662.1 1716,657.1 C1720.5,652.1 1718.6,640.6 1718.6,640.6 C1718.6,640.6 1707.3,631.1 1702.1,631.1 C1696.9,631.1 1693.9,628.3 1690,624 C1689.9,623.7 1689.9,623.6 1689.9,623.5 C1689.9,623.4 1688.5,621.6 1687,620.2 C1684.7,616.8 1683.1,613.3 1682.5,608.7 C1681.9,604.1 1677.7,599.1 1673.2,595.6 C1677.9,593.9 1682.3,591.4 1686.5,588.5 C1695.6,582.1 1703.7,573.4 1710.9,560.2 C1715.8,551.2 1721.2,543.4 1721.2,535.2 C1721.2,526.1 1713.5,517 1708.9,509.1 C1707.3,506.4 1695.8,489.4 1696.1,479 C1696.4,466.6 1715.4,459.7 1731.4,446.2 C1747.4,432.8 1760.5,412.9 1760.5,397.3 L1759.4,105 L1759.4,105 Z M1127.1,674.6 C1126.8,674.4 1126.6,674.1 1126.3,673.9 C1120.3,668.4 1109.6,665.3 1104.9,663.8 C1092.5,660 1081.6,664.5 1068.2,667.4 C1060.7,669 1047.8,666.4 1042.5,657.5 C1037.3,648.9 1044.4,634 1045.4,620 C1046.2,607.7 1050.1,594 1048,581.9 C1046.4,572.6 1039.4,564.7 1036,556.5 C1028.3,538.3 1012.1,532.6 998.7,522 C983.6,510.1 1011.5,522.2 1034.4,522.4 C1053.9,522.6 1053.5,529.5 1056.3,533.7 C1061,540.7 1059.9,549.9 1067.6,579.5 C1070.2,589.6 1070,602.2 1074.8,612 C1081,624.6 1092.8,634.2 1101.4,644.8 C1110.3,656.2 1123.9,664 1127.1,674.6 L1127.1,674.6 L1127.1,674.6 Z M753.8,509.8 C758.3,509.8 764.9,515.1 774.7,516.3 C784.6,517.4 797.7,514.3 807.1,515.2 C823.9,516.9 817.2,529.1 808.9,534.5 C803.2,538.2 792.5,540.8 784.6,549.5 C782.1,548.5 780.4,546.8 779.2,544.2 C778,541.5 777.4,537.6 774.1,535.2 C772.7,534.1 771.4,532.4 769.6,531.6 C767.3,530.6 764.4,530.7 762,530.3 C759.2,529.8 755.9,530.5 754.5,529.1 C753,527.6 753.1,525 753.7,523.6 C754.9,521.1 756.3,519.2 756.1,516.5 C756,515.5 755.9,513.2 755.1,511.8 C754.8,511.1 754.3,510.4 753.8,509.8 L753.8,509.8 L753.8,509.8 Z" id="Shape" fill="#253849" sketch:type="MSShapeGroup"></path>
                    <path d="M870,696.9 C871.3,704.8 878.1,706.2 882.3,705.3 C885.5,704.5 887,701.2 889.2,700 C890.8,699.2 893.9,704 897.2,704 C898.5,704 900,703 901.5,701.3 C904.5,697.9 902.4,696.3 900.5,697.8 C898.6,699.3 897.6,701.8 895,699.3 C891.5,695.8 889.5,694.4 887.7,694.7 C884.8,695.2 883,699.3 880,697.1 C878.8,696.3 878.7,694.5 878.8,692 C878.9,689.4 881.3,686.2 882,684.3 C882.5,683 883,681.6 883.4,680.1 C883.4,679.9 883.5,679.7 883.5,679.5 L880.7,681.9 L876.2,680.4 L880.3,680.3 L883.5,679.4 C884.2,676 883.5,673.8 882.4,672.4 C880.7,670 876.9,670.1 879.1,665.9 C880.4,663.5 877.7,663.8 877.2,666.2 C876.7,668.6 875.2,668.6 875.2,668.6 C870.5,670.6 868.7,672.8 868,677.6 L870.6,679 L874.6,680.1 L869.6,680.6 L868,678 C867.9,678.5 867.9,678.9 867.8,679.4 C867.4,685.6 869,690.9 870,696.9 L870,696.9 L870,696.9 Z" id="Shape" fill="#1F1A17" sketch:type="MSShapeGroup"></path>
                    <path d="M478.8,653.7 C479,661.7 472.5,664.4 468.3,664.2 C465,664 462.9,661 460.5,660.3 C458.8,659.8 456.7,665.1 453.4,665.7 C452.1,665.9 450.5,665.2 448.7,663.9 C445.2,661.2 446.9,659.2 449,660.3 C451.1,661.5 452.6,663.6 454.6,660.7 C457.4,656.6 459.1,654.9 460.9,654.8 C463.9,654.8 466.4,658.4 468.9,655.7 C469.9,654.7 469.7,652.9 469.1,650.5 C468.5,648 465.5,645.2 464.5,643.6 C463.8,642.4 463,641.1 462.4,639.7 C462.3,639.5 462.2,639.3 462.2,639.2 L465.4,641.1 L469.5,638.8 L465.5,639.5 L462.2,639.2 C460.9,636 461.2,633.7 462,632.1 C463.3,629.4 467,628.8 464,625.1 C462.2,622.9 465,622.8 465.9,625 C466.8,627.2 468.3,627 468.3,627 C473.2,628.1 475.4,629.9 477,634.5 L474.7,636.4 L471,638.2 L476,637.8 L477.1,634.9 C477.2,635.3 477.4,635.8 477.5,636.3 C479.2,642.1 478.6,647.7 478.8,653.7 L478.8,653.7 Z" id="Shape" fill="#1F1A17" sketch:type="MSShapeGroup"></path>
                    <path d="M1431.1,627.9 C1430.9,635.9 1437.4,638.6 1441.6,638.4 C1444.9,638.2 1447,635.2 1449.4,634.5 C1451.1,634 1453.2,639.3 1456.5,639.9 C1457.8,640.1 1459.4,639.4 1461.2,638.1 C1464.7,635.4 1463,633.4 1460.9,634.5 C1458.8,635.7 1457.3,637.8 1455.3,634.9 C1452.5,630.8 1450.8,629.1 1449,629 C1446,629 1443.5,632.6 1441,629.9 C1440,628.9 1440.2,627.1 1440.8,624.7 C1441.4,622.2 1444.4,619.4 1445.4,617.8 C1446.1,616.6 1446.9,615.3 1447.5,613.9 C1447.6,613.7 1447.7,613.5 1447.7,613.4 L1444.5,615.3 L1440.4,613 L1444.4,613.7 L1447.7,613.4 C1449,610.2 1448.7,607.9 1447.9,606.3 C1446.6,603.6 1442.9,603 1445.9,599.3 C1447.7,597.1 1445.2,596.6 1444.3,598.8 C1443.3,601.4 1440.7,601.1 1438.5,601.9 C1435.4,603.1 1434.1,605 1432.8,608.7 L1435.1,610.6 L1438.8,612.4 L1433.8,612 L1432.7,609.1 C1432.6,609.5 1432.4,610 1432.3,610.5 C1430.7,616.3 1431.2,621.8 1431.1,627.9 L1431.1,627.9 L1431.1,627.9 Z" id="Shape" fill="#1F1A17" sketch:type="MSShapeGroup"></path>
                </g>
            </g>
        </g>
    </g>
</svg>