<?xml version="1.0" encoding="utf-8"?>
<!-- Generator: Adobe Illustrator 18.1.1, SVG Export Plug-In . SVG Version: 6.00 Build 0)  -->
<svg version="1.1" id="Warstwa_1" xmlns="http://www.w3.org/2000/svg" xmlns:xlink="http://www.w3.org/1999/xlink" x="0px" y="0px"
	 viewBox="0 0 1763.5 1101.4" enable-background="new 0 0 1763.5 1101.4" xml:space="preserve">
<g>
	<path fill-rule="evenodd" clip-rule="evenodd" fill="#F1EEBE" d="M332.3,104.8c5.7,0,12.3,2.4,18.4,3.1c7.7,1.1,15.1,3.3,22.1,6.1
		c7.5,2.9,13.1,7.7,19.1,12.3c5.7,4.2,9.4,9.6,13.8,14.7c5.9,6.8,11,13.1,14.3,21.7c3.7,9.6,4.2,23.9,4.2,34.7
		c0,13.1-3.7,25.4-8.3,36.4c-3.7,8.5-8.1,16.9-14.2,24.1c-7.2,8.5-18,15.8-28.1,21c-11.4,5.7-25.6,10.1-39.5,10.1
		c-7.7,0-18.7-1.5-25.9-2.8c-13.8-2.6-27.6-8.8-38.2-17.6c-10.3-8.5-17.3-22.4-22.8-34.9c-4.6-10.7-6.8-23.9-6.8-36.2
		c0-9,0.6-17.1,2.4-25.2c1.7-8.1,5.7-15.8,9.9-22.8c2.2-3.5,5.9-6.6,8.3-9.9c2.9-4.2,6.8-8.5,11.2-12.1c3.5-2.8,9-6.6,12.9-8.8
		c6.1-3.7,10.8-6.8,18.4-9.6C312.1,105.9,323.5,104.8,332.3,104.8z"/>
	<path fill-rule="evenodd" clip-rule="evenodd" fill="#E0DEB9" d="M373.5,257.7c0,0,2-4.2,6.4-8.3c1.3-1.1,5.5-2.2,7-3.7
		c2.6-2,0.6-4.4,2.2-6.6c1.1-1.5,4.4-2,6.2-3.5c1.7-1.5,2-3.9,2.6-5.3c0.6-2.2,4-5.5,5.3-8.8c0.9-2.8,0-6.4,0.7-9.7
		c0.6-2.8,4.2-7.5,4.6-10.3c0.2-4-3.5-8.6-5.7-11.4c-2.6-3.1-3.9-4.2-9.7-6.1c-2.4-0.7-6.4-1.5-9-2c-3.5-0.9-7.7-4.2-11-4.8
		c-5.9-1.1-11.2-3.7-15.6-3.7c-9.7,0-14.7,4.8-9,9.7c3.3,2.9,9,4.4,13.2,7.2c3.3,2.2,6.4,6.8,9.6,9c2.6,1.7,5.5,0.9,7,2.8
		c2,2.8,1.7,5.9,1.8,8.5c0,2,2.9,4.2,2.8,6.8c-0.2,2-3.5,4-4.6,6.1c-1.1,1.8-0.2,3.7-1.1,5.1c-2.8,4.8-5.1,10.1-5.5,17.5
		C370.9,261,373.5,257.7,373.5,257.7z"/>
	<path fill-rule="evenodd" clip-rule="evenodd" fill="#E0DEB9" d="M262.8,168.8c-2.2,4.4-4.2,12.5-5,18.9c-0.6,5,0.7,10.8,1.1,16.7
		c0.4,5.1,5.3,12.1,6.4,15.4c0.7,2,2.4,4,3.5,6.2c1.5,2.8,6.1,6.2,7.5,8.6c1.5,2.4,3.5,1.7,5.1,2.9c3.5,2.8,5.3,3.3,2.6-1.7
		c-0.4-0.9,0.4-2.2-0.7-4.2c-1.1-2-3.9-5-4.8-6.1c-1.5-2,0-4.8-0.2-6.4c-0.2-1.8-2.2-2.6-2.8-4.2c-1.1-2.4-1.5-6.1-1.1-8.3
		c0.4-1.5,3.5-2.8,4-4.2c0.6-1.7,0.2-4.8,0.9-6.4c0.9-1.5,2.9-1.5,3.3-3.1c0.4-2-0.6-4.4-1.5-6.4c-0.4-0.9-2.6-0.2-3.3-1.3
		c-0.6-0.7-2-0.6-2.8-1.8c-0.6-1.1-0.7-3.9-0.9-5.3c0-1.7,1.5-2.9,2-4.4c0.4-1.1-0.6-2.2-0.4-2.9c0.2-2,1.7-1.5,1.7-2.9
		c0-2.4-2.4-2.4-3.1-2.8C271.3,163.6,264.3,166,262.8,168.8z"/>
</g>
</svg>
