<?xml version="1.0" encoding="utf-8"?>
<!-- Generator: Adobe Illustrator 18.1.1, SVG Export Plug-In . SVG Version: 6.00 Build 0)  -->
<svg version="1.1" id="Warstwa_1" xmlns="http://www.w3.org/2000/svg" xmlns:xlink="http://www.w3.org/1999/xlink" x="0px" y="0px"
	 viewBox="0 0 2287.4 1491.4" enable-background="new 0 0 2287.4 1491.4" xml:space="preserve">
<path opacity="0.17" fill="#FFFFFF" d="M974.5,286.7c0,0-10.4-4-22.3-3.2c-11.9,0.8-19.2,3.8-27.4,3.8c-4.9,0-7.5-1.9-8.5-4.2
	c-2.1-4.6,1.9-7.6,6.4-7.5c0,0-4.5,2.3-3,5.7c1.5,3.4,7.8,1.8,15.5,0.4C949.1,279.4,963,280.4,974.5,286.7z"/>
<path opacity="0.17" fill="#FFFFFF" d="M882.1,313.1c0,0,21.7-11,50.7-14.3c29-3.3,44.7,4.4,73.6,7.7c29,3.3,32.8-4.4,55.3-9
	c22.4-4.6,36.4,6.8,36.4,6.8s-21.1-5.7-33.9-0.2c-12.8,5.5-23.4,15.1-52,15.1c-28.7,0-42.2-10.3-61.8-12.4
	C920.8,300.5,882.1,313.1,882.1,313.1L882.1,313.1z"/>
<path opacity="0.17" fill="#FFFFFF" d="M407.6,294.4c0,0,30.2-1.2,61.7-10.3c31.4-9.1,48.5-1.5,66.4,3.9s31.5,4.6,31.5,4.6
	s-14.6,2.7-29.6-0.4c-15-3-35.1-7.5-53.8-2.7C447.2,299.9,407.6,294.4,407.6,294.4z"/>
</svg>
