<?xml version="1.0" encoding="UTF-8" standalone="no"?>
<svg viewBox="0 0 2289 1065" version="1.1" xmlns="http://www.w3.org/2000/svg" xmlns:xlink="http://www.w3.org/1999/xlink" xmlns:sketch="http://www.bohemiancoding.com/sketch/ns">
    <!-- Generator: Sketch 3.3 (11970) - http://www.bohemiancoding.com/sketch -->
    <title>4-01-bat</title>
    <desc>Created with Sketch.</desc>
    <defs></defs>
    <g id="Page-1" stroke="none" stroke-width="1" fill="none" fill-rule="evenodd" sketch:type="MSPage">
        <g id="4-01-bat" sketch:type="MSLayerGroup" transform="translate(-0.136426, 0.000000)">
            <g id="Warstwa_4" sketch:type="MSShapeGroup">
                <g id="Group">
                    <path d="M2289,623.9 L2289,978 L578.3,1064.7 L5,996.7 L0.5,701.3 C3.4,702 6.4,702.6 9.5,703 C15.6,703.7 52.9,683 94.6,682.4 C132.7,681.8 178.2,704.1 217.6,703 C261.9,701.7 298.5,676.9 307.7,675.4 C315.6,674.1 324.1,671.9 325,662.3 C325.4,659 324.1,656.1 322.1,655.3 C318.8,654.2 317.3,658.6 317.3,661 C317.3,661 315.1,660.6 316,656.6 C317.1,652.7 321.9,651.8 323.7,652.6 C327.2,653.9 328.8,660.5 329.4,664 C329,654.6 330.5,652.4 334.2,650 C337,648.2 340.4,648.2 343,647.1 C346.9,645.1 346.1,639.6 344.1,638.6 C341,637.3 339.3,639.3 339.5,641.5 C339.7,642.4 341.2,643 341.2,643 C338.6,644.1 335.5,639.7 339.5,636.8 C341.2,635.3 343.9,635 345.9,636.8 C349.9,640.3 349.8,648.2 341.9,650.8 C333.8,653.6 337.1,661.8 337.1,661.8 C338.2,655.7 350.3,654.8 351.4,660 C350.5,659.4 346.8,658.2 344.4,659.6 C339.3,662.5 335.9,669.7 351.9,666 C364.2,663.2 364,670.4 375.6,668.9 C384.1,667.8 391.8,666.9 398.9,666.1 L405.7,518.9 L400.2,527.1 L400.4,490 L376.1,473 L356.1,432 L340.3,420.2 L345.1,419.3 L362,430 L383.9,464.6 L400.6,469.2 L401,367.9 L394.6,280.6 L387,17.7 L376.9,0 L394.2,0 L396.4,2.4 L400.8,11.8 L401.7,0 L481.7,0 C480.6,15.3 479.3,28.7 479.3,28.7 C479.3,28.7 472.6,349.3 472.6,363.3 C472.6,368.3 473.3,391.1 474.4,417.9 L483.6,414.6 L491.9,388.3 L516.9,370.1 L536.4,374.3 L547.4,378.5 L523.9,378.5 L508.6,391 L494.8,431.3 L475.5,448 C477,487.7 478.6,526.1 478.6,526.1 L485,529.8 C485,529.8 483.9,548.1 482.6,581.9 C481.5,615.5 481.7,626.2 482.8,652.9 C496.2,649.2 536.1,661 546.8,659.1 C568.1,655.4 594,644.8 607.3,636.3 C620.4,627.8 627.7,615.7 631.7,608.9 C640.3,594.2 623.8,584.3 617,591.4 C610.2,598.8 617.7,600.4 617.7,600.4 C617.7,600.4 612.4,602.2 610.3,597.1 C608.3,592.1 609.9,582.9 622.4,583.3 C635.1,583.9 637.1,586.8 637.1,586.8 C637.1,586.8 632.9,577.4 633.8,572.8 C634.5,568.2 639.7,561.6 638.4,557.9 C637.3,554.2 649.2,544.7 649.2,544.7 C649.2,544.7 640.7,556.1 641.8,560 C642.7,563.9 638.1,568.6 640,573.8 C641.8,579.1 643.7,581.5 645.5,586.7 C647.3,591.7 649,598.3 656,597.7 C663.2,597.3 668.1,591.3 663.4,585.9 C658.6,580.8 661.7,576.2 666.7,577.1 C671.8,577.8 675.7,573.6 674.1,569.7 C672.6,565.8 667.7,567.3 668.8,570.3 C669.9,573.1 667,573.4 667,573.4 C667,573.4 668.5,573.4 667.9,570.6 C667.2,568 667,566.6 670.5,565.1 C674,563.6 676.9,565.7 677.9,567.9 C679,569.9 681,575.6 675.7,579.1 C670.4,582.6 668.3,580.4 669.3,584.1 C670.2,587.6 673.5,592.6 672.6,595.3 C671.7,598.2 670.2,605.8 662.9,609.8 C644.7,620.1 673,629.7 710.7,646.9 C753,666.4 764.7,674.3 793.6,672.6 C803,672 846.5,666.5 869.7,659.9 C883.5,655.9 876.7,649.1 887.9,648.9 C916.6,648.5 901.9,675.6 934.6,679.8 C961.8,683.3 978.9,679.2 997.8,675 L999.8,616.9 L984.4,609.7 L972.9,565 L951.2,563.5 L929.3,559.5 L933.2,556.7 L956.2,560 L978.4,558 L987.6,584.1 L1000.7,592.2 L1005.1,459 L978.1,429.8 L967.8,386.8 L951.8,370.8 L974.6,382 L987.1,422.3 L1005.8,436.8 L1006.4,421.2 L1011.7,418.4 L1010.8,328.1 L1009.7,0 L1082.7,0 L1081.6,259.6 L1092.7,244.5 L1099.7,187.3 L1116,143.8 L1117.8,142 L1128.6,142 C1127.6,144.2 1109.3,184.2 1109.3,184.2 C1109.3,184.2 1104.6,240.9 1104.6,242.7 C1104.6,246.7 1101.8,261.8 1101.8,261.8 L1081.4,280.7 L1081.6,335.1 L1085.3,339 L1077.9,469.9 L1081.9,478.9 L1079,536 L1081,539.7 L1080.1,597.4 L1096.6,581 L1104,550.5 L1113,536.2 L1119.1,537.3 L1109.7,552.7 L1106,587.8 L1079.9,620.5 L1079.2,666.3 C1082.5,666.5 1091,668.1 1097.6,667.8 C1108.6,667.1 1118.6,663.9 1121.7,662.7 C1124.8,661.4 1125.6,658.3 1125.6,656.6 C1125.6,649.4 1116.2,644.1 1110.3,647.6 C1112,640.6 1128.5,641.7 1130.2,650.4 C1130.2,650.4 1134.8,638.8 1123.8,635.1 C1112.6,631.4 1112.6,620.2 1117.9,615.6 C1123.2,610.8 1131.9,618.2 1128.6,620.9 C1125.3,623.5 1124.7,624.2 1124.7,624.2 C1124.7,624.2 1124.7,621.8 1125.4,620.3 C1126.3,619 1123.4,616.3 1120.6,618.1 C1117.8,619.9 1116.6,626.9 1122.1,629.7 C1125.6,631.4 1130.4,631.4 1134.2,633.7 C1139.3,637 1141.4,640.1 1141,653 C1141.6,648.4 1143.9,639.2 1148.7,637.4 C1151.5,636.5 1158.1,637.6 1159.4,643.1 C1160.7,648.8 1157.7,649.2 1157.7,649.2 C1157.7,645.9 1155.7,639.6 1151.1,641.3 C1148.2,642.2 1146.5,646.3 1146.9,651 C1148.6,668.5 1185.7,655.4 1199.3,653 C1210,651.2 1240.3,664 1255.2,665.7 C1287.7,669.2 1325.2,667 1345.3,662 C1361.7,658 1415.5,654.6 1434.3,655.2 C1447,655.6 1458.7,657.8 1468.1,657.4 L1480.8,547.9 L1478.6,523.1 L1448.8,511.8 C1448.8,511.8 1444.8,495.1 1445.9,484.4 C1447.2,473.6 1431,438.4 1431,438.4 L1438.2,432.5 C1438.2,432.5 1439.5,449.2 1446.7,462.3 C1453.9,475.5 1458.6,502 1458.6,502 L1477.7,509.4 L1477.6,496.7 L1470.6,319.3 L1476.5,309 L1469.3,239.2 C1464.8,236.5 1466.2,146.8 1461.7,80.6 C1458.8,37.8 1449.6,8.8 1447.6,6.6 L1531.8,6.6 L1522.9,88.6 L1534.2,241.7 L1538.6,253.6 L1539,301.9 L1545.6,296.8 L1554.6,272.2 L1574.8,240.4 L1582.3,223.5 L1589.3,223.5 L1568.5,268.7 L1557.8,309.3 L1537.8,325.1 L1536.5,425.3 L1541.6,433.2 L1543.1,569.8 L1551.9,673.3 C1563.8,671.1 1578.9,661.2 1588.8,665.6 C1600.2,670.6 1577,677 1591.7,679.4 C1618.7,683.8 1642.2,672.2 1677,670 C1703.8,668.3 1736.6,642.4 1766.5,641.1 C1791.3,640.2 1824,642.2 1847,638.5 C1864.8,635.6 1873.5,626.9 1890,625.3 C1901.6,624.4 2241.2,620.2 2289,623.9 L2289,623.9 L2289,623.9 Z" id="Shape" fill="#182830"></path>
                    <g transform="translate(402.000000, 225.000000)" id="Shape" fill="#121E23">
                        <path d="M66.5,2.6 L65.7,22.5 L62.1,37 L61.2,61.2 L64.3,38.4 L68.9,23.2 L66.5,2.6 Z"></path>
                        <path d="M54.5,91.2 L54.5,112.9 L54,150 L57.8,112.9 L54.5,91.2 Z"></path>
                        <path d="M53.6,155.2 L54.4,174.3 L55.6,199.1 L56,173.9 L53.6,155.2 Z"></path>
                        <path d="M60.8,296.7 L61.7,290.8 L61.7,274.5 L63.7,289.5 L60.8,296.7 Z"></path>
                        <path d="M61.3,94.9 L58.4,81.5 L58.4,65.1 L60,82 L61.3,94.9 Z"></path>
                        <path d="M60.8,34.4 L57.8,21 L57.8,4.6 L59.7,21.3 L60.8,34.4 Z"></path>
                        <path d="M61.5,137.7 L62.6,163.4 L64.1,197.1 L64.6,162.9 L61.5,137.7 Z"></path>
                        <path d="M54.2,320.8 L55.1,315.1 L55.1,298.7 L57.1,313.8 L54.2,320.8 Z"></path>
                        <path d="M64.5,298 L59.3,327.8 L59.3,368.9 L62.8,327.8 L64.5,298 Z"></path>
                        <path d="M71.8,370 L71.1,389.9 L67.2,404.4 L66.5,428.9 L69.4,406.1 L74,390.8 L71.8,370 Z"></path>
                        <path d="M66.5,462.5 L63.5,449.1 L63.5,432.7 L65.4,449.5 L66.5,462.5 Z"></path>
                        <path d="M66.1,402 L63.2,388.6 L63.2,372.3 L64.8,389 L66.1,402 Z"></path>
                        <path d="M5.8,3.3 L6.6,23.2 L3.8,38.1 L4.9,62.3 L6.2,39.4 L9.7,23.7 L5.8,3.3 Z"></path>
                        <path d="M0.5,92.7 L2,114.4 L4.2,151.5 L5.5,114.2 L0.5,92.7 Z"></path>
                        <path d="M7.5,96 L3.6,82.7 L2.3,66.4 L5.3,83.1 L7.5,96 Z"></path>
                        <path d="M8.9,148.2 L9.7,168 L6.9,182.7 L8,207.2 L9.3,184 L12.8,168.6 L8.9,148.2 Z"></path>
                        <path d="M3.6,244.5 L4.9,263.6 L6.9,296.3 L8,263.4 L3.6,244.5 Z"></path>
                        <path d="M10.6,240.6 L6.7,227.4 L5.5,211.2 L8.4,227.8 L10.6,240.6 Z"></path>
                        <path d="M11.3,331.6 L11.7,343 L10.1,351.5 L10.8,365.5 L11.5,352.2 L13.4,343.4 L11.3,331.6 Z"></path>
                        <path d="M2.1,404.8 L3.4,422.3 L5.1,452 L6.2,422.1 L2.1,404.8 Z"></path>
                        <path d="M13.7,398.9 L9.9,385.9 L8.6,369.5 L11.5,386 L13.7,398.9 Z"></path>
                        <path d="M8.8,338.6 L4.9,325.4 L3.6,309 L6.6,325.7 L8.8,338.6 Z"></path>
                        <path d="M62.4,245.2 L63.4,239.4 L63.4,223.2 L65.4,238.1 L62.4,245.2 Z"></path>
                        <path d="M670.5,0.4 L669.8,20.2 L665.9,34.8 L665.2,59.2 L668.3,36.2 L672.9,21 L670.5,0.4 Z"></path>
                        <path d="M658.6,89 L658.6,110.9 L658,148 L661.9,110.9 L658.6,89 Z"></path>
                        <path d="M665.4,92.9 L662.4,79.4 L662.4,63.1 L664.1,79.8 L665.4,92.9 Z"></path>
                        <path d="M666.1,145.1 L666.8,164.9 L664.1,179.6 L665.2,204.1 L666.5,180.9 L669.9,165.5 L666.1,145.1 Z"></path>
                        <path d="M606.5,294.7 L608.2,316.4 L610.4,353.5 L611.5,316.2 L606.5,294.7 Z"></path>
                        <path d="M667.7,237.5 L663.9,224.3 L662.6,208.1 L665.5,224.6 L667.7,237.5 Z"></path>
                        <path d="M617.9,32.4 L614.1,19.3 L612.8,3 L615.7,19.5 L617.9,32.4 Z"></path>
                        <path d="M669.2,289.7 L669.9,309.6 L667.2,324.3 L668.3,348.7 L669.6,325.7 L673.1,310.1 L669.2,289.7 Z"></path>
                        <path d="M670.9,382.4 L667,369.1 L665.7,352.8 L668.7,369.5 L670.9,382.4 Z"></path>
                        <path d="M612.8,246 L608.9,232.7 L607.6,216.4 L610.6,233.1 L612.8,246 Z"></path>
                        <path d="M660.9,236.6 L661.7,256.4 L658.9,271.3 L660,295.6 L661.3,272.6 L664.8,257 L660.9,236.6 Z"></path>
                        <path d="M655.4,325.9 L657.1,347.6 L659.3,384.8 L660.6,347.4 L655.4,325.9 Z"></path>
                        <path d="M610.6,385.5 L606.5,372.3 L605.4,355.9 L608.4,372.6 L610.6,385.5 Z"></path>
                        <path d="M606.5,277.2 L610.6,264 L611.7,247.6 L608.7,264.4 L606.5,277.2 Z"></path>
                        <path d="M664.1,381.4 L664.8,401.3 L662,416 L663.1,440.4 L664.4,417.3 L667.9,401.8 L664.1,381.4 Z"></path>
                        <path d="M665.7,473.9 L661.9,460.9 L660.6,444.5 L663.5,461 L665.7,473.9 Z"></path>
                        <path d="M605.4,439.7 L601.6,426.5 L600.3,410.1 L603.2,426.7 L605.4,439.7 Z"></path>
                        <path d="M613.7,130.2 L615.4,151.9 L617.6,189 L618.8,151.5 L613.7,130.2 Z"></path>
                        <path d="M624,118.8 L620.1,105.7 L618.8,89.4 L621.8,105.9 L624,118.8 Z"></path>
                        <path d="M1129.1,62.2 L1128.4,82 L1124.5,96.5 L1123.8,121 L1126.9,98 L1131.5,82.7 L1129.1,62.2 Z"></path>
                        <path d="M1117.2,150.8 L1117.2,172.4 L1116.6,209.8 L1120.5,172.4 L1117.2,150.8 Z"></path>
                        <path d="M1124,154.6 L1121,141.2 L1121,124.8 L1122.7,141.6 L1124,154.6 Z"></path>
                        <path d="M1124.7,206.6 L1125.4,226.5 L1122.7,241.4 L1123.8,265.8 L1125.1,242.7 L1128.6,227 L1124.7,206.6 Z"></path>
                        <path d="M1126.4,299.3 L1122.5,286 L1121.2,269.7 L1124.2,286.4 L1126.4,299.3 Z"></path>
                        <path d="M1130.6,394.7 L1131.3,414.5 L1128.6,429.2 L1129.7,453.7 L1131,430.7 L1134.4,415.1 L1130.6,394.7 Z"></path>
                        <path d="M1129.1,315.3 L1129.9,335.1 L1127.1,349.8 L1128,374.3 L1129.5,351.1 L1132.8,335.5 L1129.1,315.3 Z"></path>
                        <path d="M1082.6,146 L1077.3,121.9 L1077.3,92.5 L1080.2,122.6 L1082.6,146 Z"></path>
                        <path d="M1079.1,385.9 L1080.8,407.5 L1083,444.7 L1084.3,407.2 L1079.1,385.9 Z"></path>
                        <path d="M1075.3,46.7 L1071.4,33.5 L1070.1,17.1 L1073.1,33.8 L1075.3,46.7 Z"></path>
                        <path d="M1085.4,337.1 L1081.5,323.9 L1080.2,307.5 L1083.2,324.1 L1085.4,337.1 Z"></path>
                        <path d="M1083.2,476.5 L1079.3,463.4 L1078,447.1 L1081,463.6 L1083.2,476.5 Z"></path>
                        <path d="M1079.3,368.4 L1083.2,355.2 L1084.5,338.8 L1081.5,355.3 L1079.3,368.4 Z"></path>
                        <path d="M1075.1,214 L1076.7,235.7 L1078.9,272.8 L1080.2,235.5 L1075.1,214 Z"></path>
                        <path d="M1082.1,190.5 L1078.2,177.4 L1076.9,161 L1079.9,177.6 L1082.1,190.5 Z"></path>
                    </g>
                    <path d="M404.5,260.5 L400.7,247.5 L399.4,231.1 L402.3,247.6 L404.5,260.5 Z" id="Shape" fill="#242F42"></path>
                    <path d="M407.6,405.3 L403.8,392.1 L402.5,375.8 L405.4,392.5 L407.6,405.3 Z" id="Shape" fill="#242F42"></path>
                </g>
            </g>
            <g class="bat" transform="translate(324.000000, 422.000000)" sketch:type="MSShapeGroup">
                <path d="M38.7,129 C41.3,128.4 45.5,126.4 48.4,122.9 C51.5,119 55.6,113.9 54.6,103.4 C54.2,100.5 51.1,91.6 52.9,82.6 C50.9,77.8 35.1,66.6 38.7,55.2 C37,52.6 37.6,49 33.7,38.1 C29.8,26.9 28.2,10 27.3,3 L27.3,1.7 C27.5,1 28.4,1.5 28.4,1.5 C28.4,1.7 28.2,0.9 27.8,0.8 C27.4,0.6 27.1,0.4 26.7,0.8 C26.5,1.2 26.3,2.1 26.1,3 C25.4,10.5 23.3,28.7 18.9,40.1 C14.5,51.7 17.1,59 15.8,61.1 C16.7,71.4 8.3,73.2 1.6,84.3 C3.4,94 0.5,100.3 0.3,104.7 C1.6,119 2.1,126.6 18.3,129.7 C18.1,135 20.5,141.6 20.1,147.5 C19.7,150.6 18.1,152.6 18.1,152.6 C18.1,152.6 25.1,148.9 26.4,144.5 C27.1,144.9 28.1,144.9 29,144.9 C30.7,149.1 37.6,152.3 37.6,152.3 C37.6,152.3 35.8,150.3 35.4,147.3 C34.7,140.5 38.4,136.3 38.7,129 L38.7,129 Z" id="Shape" fill="#000000"></path>
                <g class="oczy" transform="translate(23.000000, 137.000000)" fill="#FFFFFF">
                    <path d="M2.8,1.5 C2.8,0.9 2.4,0.4 1.7,0.4 C1.1,0.4 0.6,1 0.6,1.5 C0.6,2.2 1.2,2.6 1.7,2.6 C2.4,2.6 2.8,2.3 2.8,1.5 L2.8,1.5 Z" id="Shape"></path>
                    <path d="M10.5,1.5 C10.5,0.9 10.1,0.4 9.4,0.4 C8.8,0.4 8.3,1 8.3,1.5 C8.3,2.2 8.9,2.6 9.4,2.6 C10.1,2.6 10.5,2.3 10.5,1.5 L10.5,1.5 Z" id="Shape"></path>
                </g>
            </g>
        </g>
    </g>
</svg>
