<?xml version="1.0" encoding="utf-8"?>
<!-- Generator: Adobe Illustrator 18.1.1, SVG Export Plug-In . SVG Version: 6.00 Build 0)  -->
<svg version="1.1" id="Warstwa_1" xmlns="http://www.w3.org/2000/svg" xmlns:xlink="http://www.w3.org/1999/xlink" x="0px" y="0px"
	 viewBox="0 0 2287.4 1491.4" enable-background="new 0 0 2287.4 1491.4" xml:space="preserve">
<path fill-rule="evenodd" clip-rule="evenodd" d="M1884.2,660c1.8-1.5,2.6-1.8,2.9-3.3c0.2-1.1,0.7-2.2,0.7-3.3
	c0-1.3-0.2-3.3-0.7-4.4c-0.7-1.1,0.2-2-0.6-4.4c1.7,1.7,1.7,1.1,2.8,2.6c0.7,1.3,1.8,3.1,2,4.4c0,1.8-0.4,3.9-0.7,5.9
	c-0.7,3.3-2.2,6.1-2.2,6.1c-2.2,10.3-0.2,15.4,4.6,27c-0.9,13.4-0.2,16.9,3.1,27c3.5,9.9-10.1,6.2-10.1,6.2s-0.2-20-0.2-31.4
	c-1.3-3.9-4.2-13.4-7-18.2c-1.3-2.2-3.3-1.5-4-1.8c-0.7-0.7-2.2-0.7-4-0.6c-1.5,0-5.1,1.1-6.1,0.7c-1.3-0.6-2.6-1.3-4.2-2.8
	c-0.7-0.6-1.5-1.1-2.2-1.8c-2.2-2.4-1.5-2.9-1.7-4.2c0-0.2-0.9-2.6-0.7-2.4c1.3,0.9,2.9,1.3,5.7,4c1.3,1.1,3.1,2.4,3.9,2.6
	c1.8,0.6,5.5-1.3,5.5-1.3s-5.1-2.2-7.5-3.3c-2.2-1.1-0.6-2.8-3.1-6.1c-0.9-1.1-0.6-2.4-0.9-3.5c-0.7-1.8-1.7-3.5-1.3-4
	c0.2-0.4,0-2.8,0.2-2.9c1.7,2.6,2.4,1.8,3.1,3.3c0.9,1.5,1.1,4.2,2.2,5.9c0.7,1.3,1.1,2.8,1.8,3.7c0.7,1.1,3.3,0.6,4,1.1
	c1.5,0.7,2.4,1.1,2.4,1.1s-0.9-1.8-2.4-3.7c-1.5-1.7-3.5-4.2-5-6.2c-1.1-1.8-0.6-4.8-0.7-9.2c0-1.1,0.4-2,0.6-2.8
	c0.2-1.8,1.3-2.6,1.8-4.6c0.7,1.5,0.9,2.9,1.3,4.4c0.2,0.7,0.6,1.7,0.4,3.3c-0.2,2-1.1,4.4-0.2,6.6c0.7,1.5,2.6,3.3,2.9,4.2
	c1.1,2.6,5.3,5,5.3,5s-1.1-2.9-2.2-4.8c-0.9-1.3-1.8-5.1-1.7-9c0.2-1.5,0.9-2.8,1.1-4.4c0.6-2.4,2.4-4.2,3.5-6.6
	c0.7,2.4,1.1,3.9,0.7,6.2c-0.4,1.1-1.8,3.1-2,5.1c-0.2,1.7,0.6,3.3,0.9,4.6c0.9,2.8,3.1,4.4,3.7,5.7
	C1881.2,658.5,1884.2,660,1884.2,660z"/>
<path opacity="0.17" fill="#FFFFFF" d="M1185.8,512.6c0,0-39.1-24.5-87-25.7c-48-1.1-97.6,31.7-157.9,22.8
	c-60.2-8.9-65.8-18.5-105.4-6.1c39.8-7.6,58.7,7.5,89.4,17.4c66.7,21.4,110.8-22.7,180.5-22.9
	C1158.4,495.7,1185.8,512.6,1185.8,512.6L1185.8,512.6z"/>
</svg>
