<?xml version="1.0" encoding="utf-8"?>
<!-- Generator: Adobe Illustrator 18.1.1, SVG Export Plug-In . SVG Version: 6.00 Build 0)  -->
<svg version="1.1" id="Warstwa_1" xmlns="http://www.w3.org/2000/svg" xmlns:xlink="http://www.w3.org/1999/xlink" x="0px" y="0px"
	 viewBox="0 0 1920 1080" enable-background="new 0 0 1920 1080" xml:space="preserve">
<g>
	<path fill="#D3EAF4" d="M1224.6,68.1c-1.3,0-2.2,0.4-3.1,0.4c-2.6,0.9-4.4,0.4-6.6,0.9c-2.6,0.4-2.2,2.2-4.4,2.2
		c-2.2,0-3.9,0-5.7,0.4c-1.7,0.9,8.3,0.4,12.7,0.4c4.4,0,9.2,0,10.9-0.4c5.2,0.9,10.5,0.4,13.1,0.4c3.5-0.4,9.2,0.4,9.2,0.4
		s99.1,1.3,134.9-1.3c6.1-0.4,5.7-5.2,1.3-4.4c-1.7,0.4-3.1,0.4-5.2,0.4c-4.8-0.4-8.7-3.1-9.6-3.1c-5.2,0.9-9.2-3.9-18.3-4.4
		c-7.4-0.4-7.4-5.2-13.5-9.6c-1.3-0.9-4.4-2.6-6.6-3.5c-4.4-1.7-8.3-7.9-12.7-7.9c-1.3,0-3.9-0.4-5.2,0c-3.9,1.3-8.7,7.4-11.8,6.1
		c-1.7-0.9-1.3-0.4-3.9,0c-0.9,0-2.2,0.4-2.6,0.4c-1.7,0-3.1-1.3-4.4-1.7s-3.1,0-5.7,0c-2.2,0-4.4,0.9-6.1,1.3
		c-7,1.3-7.4,6.1-10.9,7.4c-4.4,2.2-1.3,4.4-12.2,4.8c-11.4,0.4-10.9-0.9-17.5,2.2c-6.6,2.6-2.2,9.6-10.9,8.7
		C1227.7,67.7,1225.9,68.1,1224.6,68.1L1224.6,68.1z"/>
	<path fill="#D3EAF4" d="M1609.9,306.2c-1.6-0.2-50.5-0.4-59.5-0.6c-4.9,0-5.1-0.2-5.3-0.8c0-0.2,0.4-0.2,1-0.2
		c0.6-0.2,1.8-0.8,2.2-1c0.2,0,1.6-0.8,2.2-0.6c0.8,0.2,0.8,0.6,1.6,0.6c2.2-0.2,2.5-2,2.7-1.8c2.3,0.4,3.7-2.2,7.6-2.3
		c2.7-0.2,3.3-2.2,5.3-4.1c0.8-1,3.9-1.4,5.5-2c1.2-0.6,1.8-2.3,3.1-3.1c0.8-0.4,2.3-0.2,3.1-0.2c0.6,0,1.6-0.2,2.3,0
		c1.8,0.6,3.3,2,4.5,1.4c0.8-0.4,0.6-0.2,1.8,0c0.4,0,0.8,0.2,1.2,0.2c0.8,0,1.4-0.8,2-1s1.4,0,2.3,0s2.7,0,3.3,0.2
		c2.9,0.8,3.1,2.9,4.7,3.9c2,1,1,2.5,6.1,2.9c1.6,0,3.1-0.6,3.7-0.4c1.4,0.2,0.8,1.4,2.7,2.3c2.9,1.4,1,4.7,4.7,4.5s4.9,1.2,2.2,1.8
		c-2.7,0.8-5.7,0.6-7.2,0.4C1612.4,306,1609.9,306.2,1609.9,306.2L1609.9,306.2z"/>
	<path fill="#D3EAF4" d="M985.6,668.7c-1-0.1-32.8-0.3-38.6-0.4c-3.2,0-3.3-0.1-3.4-0.5c0-0.1,0.3-0.1,0.6-0.1
		c0.4-0.1,1.2-0.5,1.4-0.6c0.1,0,1-0.5,1.4-0.4c0.5,0.1,0.5,0.4,1,0.4c1.4-0.1,1.6-1.3,1.8-1.2c1.5,0.3,2.4-1.4,4.9-1.5
		c1.8-0.1,2.1-1.4,3.4-2.7c0.5-0.7,2.5-0.9,3.6-1.3c0.8-0.4,1.2-1.5,2-2c0.5-0.3,1.5-0.1,2-0.1c0.4,0,1-0.1,1.5,0
		c1.2,0.4,2.1,1.3,2.9,0.9c0.5-0.3,0.4-0.1,1.2,0c0.3,0,0.5,0.1,0.8,0.1c0.5,0,0.9-0.5,1.3-0.6s0.9,0,1.5,0s1.8,0,2.1,0.1
		c1.9,0.5,2,1.9,3.1,2.5c1.3,0.7,0.6,1.6,4,1.9c1,0,2-0.4,2.4-0.3c0.9,0.1,0.5,0.9,1.8,1.5c1.9,0.9,0.6,3.1,3.1,2.9
		c2.4-0.1,3.2,0.8,1.4,1.2c-1.8,0.5-3.7,0.4-4.7,0.3C987.3,668.6,985.6,668.7,985.6,668.7L985.6,668.7z"/>
	<path fill="#D3EAF4" d="M637.5,377.7c-0.5-0.1-17.3-0.1-20.3-0.2c-1.7,0-1.7-0.1-1.8-0.3c0-0.1,0.1-0.1,0.3-0.1
		c0.2-0.1,0.6-0.3,0.8-0.3c0.1,0,0.5-0.3,0.8-0.2c0.3,0.1,0.3,0.2,0.5,0.2c0.8-0.1,0.9-0.7,0.9-0.6c0.8,0.1,1.3-0.8,2.6-0.8
		c0.9-0.1,1.1-0.8,1.8-1.4c0.3-0.3,1.3-0.5,1.9-0.7c0.4-0.2,0.6-0.8,1.1-1.1c0.3-0.1,0.8-0.1,1.1-0.1c0.2,0,0.5-0.1,0.8,0
		c0.6,0.2,1.1,0.7,1.5,0.5c0.3-0.1,0.2-0.1,0.6,0c0.1,0,0.3,0.1,0.4,0.1c0.3,0,0.5-0.3,0.7-0.3c0.2-0.1,0.5,0,0.8,0s0.9,0,1.1,0.1
		c1,0.3,1.1,1,1.6,1.3c0.7,0.3,0.3,0.9,2.1,1c0.5,0,1.1-0.2,1.3-0.1c0.5,0.1,0.3,0.5,0.9,0.8c1,0.5,0.3,1.6,1.6,1.5
		c1.3-0.1,1.7,0.4,0.8,0.6c-0.9,0.3-1.9,0.2-2.5,0.1C638.4,377.6,637.5,377.7,637.5,377.7L637.5,377.7z"/>
	<path fill="#D3EAF4" d="M1672.1,937.9c-1.1-0.1-34.2-0.3-40.3-0.4c-3.3,0-3.5-0.1-3.6-0.5c0-0.1,0.3-0.1,0.7-0.1
		c0.4-0.1,1.2-0.5,1.5-0.7c0.1,0,1.1-0.5,1.5-0.4c0.5,0.1,0.5,0.4,1.1,0.4c1.5-0.1,1.7-1.4,1.8-1.2c1.6,0.3,2.5-1.5,5.2-1.6
		c1.8-0.1,2.2-1.5,3.6-2.8c0.5-0.7,2.6-0.9,3.7-1.4c0.8-0.4,1.2-1.6,2.1-2.1c0.5-0.3,1.6-0.1,2.1-0.1c0.4,0,1.1-0.1,1.6,0
		c1.2,0.4,2.2,1.4,3.1,1c0.5-0.3,0.4-0.1,1.2,0c0.3,0,0.5,0.1,0.8,0.1c0.5,0,0.9-0.5,1.4-0.7s0.9,0,1.6,0c0.6,0,1.8,0,2.2,0.1
		c2,0.5,2.1,2,3.2,2.6c1.4,0.7,0.7,1.7,4.1,2c1.1,0,2.1-0.4,2.5-0.3c0.9,0.1,0.5,0.9,1.8,1.6c2,0.9,0.7,3.2,3.2,3.1
		c2.5-0.1,3.3,0.8,1.5,1.2c-1.8,0.5-3.9,0.4-4.9,0.3C1673.8,937.8,1672.1,937.9,1672.1,937.9L1672.1,937.9z"/>
	<path fill="#D3EAF4" d="M1693.2,944.7c-0.2,0-6.6-0.1-7.8-0.1c-0.6,0-0.7,0-0.7-0.1c0,0,0.1,0,0.1,0c0.1,0,0.2-0.1,0.3-0.1
		c0,0,0.2-0.1,0.3-0.1c0.1,0,0.1,0.1,0.2,0.1c0.3,0,0.3-0.3,0.4-0.2c0.3,0.1,0.5-0.3,1-0.3c0.4,0,0.4-0.3,0.7-0.5
		c0.1-0.1,0.5-0.2,0.7-0.3c0.2-0.1,0.2-0.3,0.4-0.4c0.1-0.1,0.3,0,0.4,0c0.1,0,0.2,0,0.3,0c0.2,0.1,0.4,0.3,0.6,0.2
		c0.1-0.1,0.1,0,0.2,0c0.1,0,0.1,0,0.2,0c0.1,0,0.2-0.1,0.3-0.1s0.2,0,0.3,0c0.1,0,0.4,0,0.4,0c0.4,0.1,0.4,0.4,0.6,0.5
		c0.3,0.1,0.1,0.3,0.8,0.4c0.2,0,0.4-0.1,0.5-0.1c0.2,0,0.1,0.2,0.4,0.3c0.4,0.2,0.1,0.6,0.6,0.6c0.5,0,0.6,0.2,0.3,0.2
		c-0.4,0.1-0.7,0.1-0.9,0.1C1693.6,944.7,1693.2,944.7,1693.2,944.7L1693.2,944.7z"/>
</g>
</svg>
