<?xml version="1.0" encoding="utf-8"?>
<!-- Generator: Adobe Illustrator 18.1.1, SVG Export Plug-In . SVG Version: 6.00 Build 0)  -->
<svg version="1.1" id="Warstwa_1" xmlns="http://www.w3.org/2000/svg" xmlns:xlink="http://www.w3.org/1999/xlink" x="0px" y="0px"
	 viewBox="0 0 1920 1080" enable-background="new 0 0 1920 1080" xml:space="preserve">
<g>
	<g>
		<path fill="#F6F6F6" d="M563.5,355.4c-0.6-1-1.3-2.3-1.9-3.6c-1.3-2.6-2.6-5.5-3.9-6.5c-0.6-1-1.9-1.6-3.2-2.6s-2.9-1.6-4.5-2.3
			c-1.3-0.6-2.6-0.6-3.9-1c-1.6-0.3-2.9-0.6-3.6-0.6c-1.3,0-3.6,1.3-3.9,1.9s-1.3-1.6-1-3.6c0.3-1,1.3-2.3,1.6-2.9
			c1-1.9,1.3-4.2,0-6.1s-1.6-1.6-2.6-1.6s-1.3,0-2.6,1.3c-0.3,0.3-0.6,0.3-1,0.6v3.2c0.3,0,2.3,1.6,0.6,10.4
			c-0.3,1.9,1.6,5.5,1.9,6.5c0,0.6,0.3,1.6,1,2.9c0.3,1.3,1,2.3,1.3,2.9c1,1.3,2.9,2.3,4.2,5.8c0.3,1,1.6,6.8,1.9,12.6
			c0,1.6,1,9.7,0.6,13.6s-1,5.5-1,5.8c0,0.6,2.9,0,2.9,0s-1.3-3.2-1.3-6.5s0-12,0-13.3c0-2.9-0.3-3.9-0.6-6.5c0-1.6-0.3-2.9-0.3-3.6
			c0-3.6,1.9-4.9,3.2-3.6c1,1,0.6,1.6,0.6,3.6c0.3,2.3-0.3,6.8-0.3,9.1c0,2.6,0,1.9,0.3,8.1s0.6,13.3,0,13.3
			c-0.6,0.3,1.9-0.6,1.9-0.6s-1-1-1-7.4c0-6.5,0.3-9.7,0.3-12c0-9.7,1.3-10.7,1.9-11.6c0.3-0.6,0.6-1,1-1.3c0-0.6,0.6-0.3,1.3,0.3
			c1,0.6,1.9,0.6,3.6,1.3c1.3,0,2.3,0.3,3.2,0.3c1.9,0,3.6-0.3,4.2-0.3C565.8,361.5,565.5,358.9,563.5,355.4z"/>
		<path fill="#F39200" d="M533.1,328.5c0.3,0.6,1,1.9,0.3,3.2l-12-3.6L533.1,328.5z"/>
		<path d="M536.7,328.8c0.3,0,0.6-0.3,0.6-0.3c0-0.3-0.3-0.6-0.6-0.6s-0.6,0.3-0.6,0.6C536.1,328.5,536.4,328.8,536.7,328.8z"/>
	</g>
	<g>
		<path fill="#F6F6F6" d="M479.4,363.5c0.6-1,1.3-2.3,1.9-3.6c1.3-2.6,2.6-5.5,3.9-6.5c0.6-1,1.9-1.6,3.2-2.6c1.3-1,2.9-1.6,4.5-2.3
			c1.3-0.6,2.6-0.6,3.9-1c1.6-0.3,2.9-0.6,3.6-0.6c1.3,0,3.6,1.3,3.9,1.9s1.3-1.6,1-3.6c-0.3-1-1.3-2.3-1.6-2.9
			c-1-1.9-1.3-4.2,0-6.1s1.6-1.6,2.6-1.6s1.3,0,2.6,1.3c0.3,0.3,0.6,0.3,1,0.6v3.2c-0.3,0-2.3,1.6-0.6,10.4c0.3,1.9-1.6,5.5-1.9,6.5
			c0,0.6-0.3,1.6-1,2.9c-0.3,1.3-1,2.3-1.3,2.9c-1,1.3-2.9,2.3-4.2,5.8c-0.3,1-1.6,6.8-1.9,12.6c0,1.6-1,9.7-0.6,13.6s1,5.5,1,5.8
			c0,0.6-2.9,0-2.9,0s1.3-3.2,1.3-6.5s0-12,0-13.3c0-2.9,0.3-3.9,0.6-6.5c0-1.6,0.3-2.9,0.3-3.6c0-3.6-1.9-4.9-3.2-3.6
			c-1,1-0.6,1.6-0.6,3.6c-0.3,2.3,0.3,6.8,0.3,9.1c0,2.6,0,1.9-0.3,8.1s-0.6,13.3,0,13.3c0.6,0.3-1.9-0.6-1.9-0.6s1-1,1-7.4
			c0-6.5-0.3-9.7-0.3-12c0-9.7-1.3-10.7-1.9-11.6c-0.3-0.6-0.6-1-1-1.3c0-0.6-0.6-0.3-1.3,0.3c-1,0.6-1.9,0.6-3.6,1.3
			c-1.3,0-2.3,0.3-3.2,0.3c-1.9,0-3.6-0.3-4.2-0.3C477.2,369.7,477.5,367.1,479.4,363.5z"/>
		<path fill="#F39200" d="M509.9,336.7c-0.3,0.6-1,1.9-0.3,3.2l12-3.6L509.9,336.7z"/>
		<path d="M506.3,337c-0.3,0-0.6-0.3-0.6-0.3c0-0.3,0.3-0.6,0.6-0.6s0.6,0.3,0.6,0.6C506.9,336.7,506.6,337,506.3,337z"/>
	</g>
	<g>
		<path fill="#F6F6F6" d="M433.6,352.4c0.7-1.1,1.5-2.6,2.2-4.1c1.5-3,3-6.3,4.5-7.4c0.7-1.1,2.2-1.9,3.7-3s3.3-1.9,5.2-2.6
			c1.5-0.7,3-0.7,4.5-1.1c1.9-0.4,3.3-0.7,4.1-0.7c1.5,0,4.1,1.5,4.5,2.2s1.5-1.9,1.1-4.1c-0.4-1.1-1.5-2.6-1.9-3.3
			c-1.1-2.2-1.5-4.8,0-7.1s1.9-1.9,3-1.9s1.5,0,3,1.5c0.4,0.4,0.7,0.4,1.1,0.7v3.7c-0.4,0-2.6,1.9-0.7,11.9c0.4,2.2-1.9,6.3-2.2,7.4
			c0,0.7-0.4,1.9-1.1,3.3c-0.4,1.5-1.1,2.6-1.5,3.3c-1.1,1.5-3.3,2.6-4.8,6.7c-0.4,1.1-1.9,7.8-2.2,14.5c0,1.9-1.1,11.1-0.7,15.6
			s1.1,6.3,1.1,6.7c0,0.7-3.3,0-3.3,0s1.5-3.7,1.5-7.4s0-13.7,0-15.2c0-3.3,0.4-4.5,0.7-7.4c0-1.9,0.4-3.3,0.4-4.1
			c0-4.1-2.2-5.6-3.7-4.1c-1.1,1.1-0.7,1.9-0.7,4.1c-0.4,2.6,0.4,7.8,0.4,10.4c0,3,0,2.2-0.4,9.3c-0.4,7.1-0.7,15.2,0,15.2
			c0.7,0.4-2.2-0.7-2.2-0.7s1.1-1.1,1.1-8.5s-0.4-11.1-0.4-13.7c0-11.1-1.5-12.2-2.2-13.4c-0.4-0.7-0.7-1.1-1.1-1.5
			c0-0.7-0.7-0.4-1.5,0.4c-1.1,0.7-2.2,0.7-4.1,1.5c-1.5,0-2.6,0.4-3.7,0.4c-2.2,0-4.1-0.4-4.8-0.4
			C431,359.5,431.3,356.5,433.6,352.4z"/>
		<path fill="#F39200" d="M468.4,321.6c-0.4,0.7-1.1,2.2-0.4,3.7l13.7-4.1L468.4,321.6z"/>
		<path d="M464.4,322c-0.4,0-0.7-0.4-0.7-0.4c0-0.4,0.4-0.7,0.7-0.7c0.4,0,0.7,0.4,0.7,0.7C465.1,321.6,464.7,322,464.4,322z"/>
	</g>
	<g>
		<path fill="#3F3829" d="M415,415.6c0.1-0.3,0.3-0.5,0.4-0.7c-0.1,0.3-0.1,0.5-0.2,0.7C415.2,415.6,415.1,415.6,415,415.6z"/>
		<path fill="#3F3829" d="M440.2,432.7c0.1,0,0.2,0.1,0.3,0.1C440.3,432.8,440.2,432.7,440.2,432.7z"/>
		<path fill="#3F3829" d="M527.6,358c0-0.1,0-0.2,0-0.4h0.7c0,0.4-0.4,0.4-0.4,0.7C527.6,358.4,527.6,358.4,527.6,358z"/>
		<path fill="#3F3829" d="M404.2,396.3c0-0.1,0-0.1,0-0.2C404.2,396.2,404.2,396.3,404.2,396.3z"/>
		<path fill="#3F3829" d="M592.6,401.4C592.6,401.4,592.7,401.4,592.6,401.4C592.7,401.4,592.7,401.4,592.6,401.4
			C592.7,401.4,592.6,401.4,592.6,401.4z"/>
		<path fill="#3F3829" d="M410.2,360.6c0,0,0.4,0,0.7,0.4c0,0.4-0.4,0.7-0.7,1.5c-0.4-0.7-0.7-1.1-0.7-2.2
			C409.4,360.2,409.8,360.6,410.2,360.6z"/>
		<path fill="#3F3829" d="M570.6,358.7c-0.6,0.3-1.1,0.8-1.8,1.2l0,0c0.7-0.4,1.1-1.1,1.9-1.5c0.3-0.1,0.5-0.3,0.7-0.4l0,0
			L570.6,358.7z"/>
		<path fill="#3F3829" d="M499,475.4c0-0.6-0.4-1.1-0.4-1.6c0.1,0.3,0,0.6,0.1,0.9c-0.1,1.4,0.2,2.7,0.1,3.6
			c-0.1-0.1,0.2-0.2,0.2-0.3L499,475.4L499,475.4z"/>
		<path fill="#3F3829" d="M405.8,404.1c0.1-1.1,0.5-2.5,1-3.9c0.4-0.4,0.4-0.7,0.7-1.1l-0.7,1.5L405.8,404.1z"/>
		<path fill="#3F3829" d="M498.4,467.9l0.3,1.3c0,1.4-0.1,2.9-0.2,4.5c-0.1-0.3-0.3-0.6-0.4-0.9
			C498.3,470.7,498.3,469.1,498.4,467.9z"/>
		<path fill="#3F3829" d="M595.3,358c-0.4,0-1.1,0-1.9,0H595.3h0.7c-0.1,0-0.2,0-0.3,0C595.6,358,595.4,358,595.3,358z"/>
		<path fill="#3F3829" d="M390,387.9c0.7-0.4,1.5-0.4,3-0.7c-0.4,0.7-0.4,0.7-0.7,1.1c0.4,0,0.7,0,1.1-0.4c-0.7,0.7-1.1,1.5-1.5,2.2
			c0.4,0,0.7,0.4,1.1,0.4c-0.4,0-0.4-0.4-0.7-0.4c1.1-0.7,1.9-1.5,2.6-2.3c1.1,1.5,0,3.4-1.5,4.2c1.1,0,1.9,0,2.6,0
			c0.4,0,0.7,0,1.5,0l0.5,1.1v0.4c1,0.4,1,0.7,1.8,0.7c0-1.1,0.8-1.5,1.9-1.9c0-0.4,0.3-0.4,0.7-0.4c-0.4,0.7-0.4,1.1-0.8,1.9
			c0.4,0.4,0.7,0.7,1.1,0.7c0-0.7,0.4-1.9,0.4-2.6l1.9,3c0.4,0.7,0.4,1.5,0.4,1.9c-0.6-0.3-1-0.4-1.1-0.6c0.4,1.3,0.7,1.3,2.1,0.6
			l0.7,1.1l1,1.1v0.4l0.2,0.4c0.4,1.1,0,2.2-0.3,3.4c0,0.4-0.5,0.7-0.9,1.1s-0.8,0.7-1.2,0.7c0-0.3,0-0.6,0.1-1l0.4,0.2
			c-0.7,1.5-1.3,2.6-1.3,3.7c0,0.4,0,1.1,0,1.9c0-0.4-0.2-0.7,0.2-1.1c0.4,0,0.8-0.4,1.1-0.4s0.6,0.4,0.6,0.7c0.4,0,0.3,0.4,0.3,0.4
			c0,0.4,0,0.7-0.4,1.1c0,0.4-0.4,0.1-0.8,0.5c-0.7,0.7-1.9,0.8-2.6,0.8h3.4h0.4l-0.4,0.7c-0.4,1.9-0.7,3.9-1.1,5.8
			c0.7,0.4,1.1,0.4,1.1,0.8c0.4,0,0.7,0,0.7-0.3c0.4-0.4,0.4-0.7,0-1.5c0-1.1,0.4-2.2,0.7-3.4c0.4-0.4,0.4-0.7,0.7-1.5
			c0.4-0.4,0.7-0.7,1.1-0.7c0.4-0.4,0.7-0.4,1.1,0c-0.4,0.7-0.7,1.1-1.1,1.9l-0.7,0.8c0,0,0.4,0,0.4,0.4l0.4-0.4
			c0.4-0.4,0.7-0.7,1.1-1.5c0.4,0.4,0.7,0.4,0.7,0.8c0.4,0,0.4,0.7,0.7,0.7c0,0.4-0.4,1.5-0.4,1.5h0.4c1.1,0,2.2-2.3,3-3
			c-0.1,1-0.2,1.5-0.4,2c0.2-0.4,0.5-0.8,0.7-1.2l0.4-0.4l1.1,1.7c-0.4,0.4-0.7,0.9-1.5,0.9c-0.3,0-0.6,0-0.9,0s-0.7,2-1.3,2
			c0.4,0,1.1,0,1.1,0s0,0.6,0,1.3c0-0.4,0.8-1.3,1.2-1.3s0.4,0,0.7,0c0.4,1,0.7,1.4,1.1,2.2c0-0.7,0-1,0.4-1.3
			c1.1,1.5,0,3.1-2.2,3.4c0.4,0.4,0.7,0.8,0.7,1.2c0.4,0.7,0.4,1.5,0.4,2.3c0.4-1.9,0.7-3,2.6-2.6c0.4,0.4,0.4,1.1,0.4,1.9
			c0.4-1.5,1.1-2.6,2.2-2.6l2.6,3.7c-0.4,0.4-0.4,0.4-0.4,0.7c-0.7,0.4-1.5,0.7-1.9,1.5c2.2,0.4,4.1,1.1,4.5,1.5
			c0,0.4,0.4,0.4,1.1,0.7c1.1,0.4,3,0.4,4.9,0.7c-0.4-0.7-0.4-1.1,0-1.5c0-0.7,0.7-1.5,1.5-2.2c0,0.7,0.4,1.5,0.4,1.9
			c-0.4,0.4-0.7,0.4-0.7,0.4c0.4,0.4,0.7,0.4,1.1,0.7c0,0,0,0.4-0.4,0.4h0.7c1.7,0,3.4,1,4.2,1.3c-0.1-0.1-0.2-0.3-0.4-0.5
			c1.5-1.1,3.1-0.6,5-0.6l0.2,0.5c0,0.4,0,1.1,0,1.1c-2,0.7-0.9,1.1-1.3,1.5c-1.1,0.7-0.7,0.7-1.7-0.4c0,0.4,0,0.4,0,0.7
			s0,0.4,0,0.7c-0.4,0-0.6,0-0.6,0.4c0,0-0.5,0-0.5,0.4c0.4,0.4,0.3,0.4,0.7,0.7c-0.4,0.7-0.8,0.8-1.1,1.2c0,0.4,0,0-0.4,0h0.7
			c0.4,0,0.4,0.4,0.4,0c0.4-0.4,0.7-0.2,1.1-0.5c0,0,0-0.3,0.4-0.6c0,0.7,0.7,0.2,0.7,1.2h1.1c-0.4-1-0.7-0.4-1.1-0.8
			c0-0.4,0-0.9,0.4-1.3c0.4-0.7,1.1-1.8,2.2-2.5c0.7,1.9,1.1,3.6,1.5,4.6h0.7h1.5c0-1-0.4-0.7-0.4-1.1c0.4-1.5,1.1-2,2.2-2.8
			c0.7-0.4,1.5-0.7,2.6-0.7c1.1-0.4,0.8,0.4,0.4,0.8c-1.1,1.5-0.7,3.4-3.7,4.5v1.1c3-1.9,3.3-3.4,4.8-5.2c0.7,0.7,1.3,0.7,1.3,1.1
			c0.4,0.4,0.5,0.7,0.1,1.5c0,0.4-0.3,0.4-0.3,1.1c-1.1,1.1-1.8,2.6-2.6,4.1l3-3.7l1.1-1.5c0.4,0,0.4,0,0.4,0.4c0.4,0,0.4,0,0.4,0.4
			c0.7,0.7,1.5,1.1,1.9,2.6c0,0,0.4,0.4,0.4,0.7c0.7,0.4,1.5,0.4,1.9,1.1c1.9,1.5,3.4,3.7,5.2,5.2c1.1,1.1,0.7,1.9,0.4,2.6
			c-0.7,0.7-1.5,1.5-1.9,2.6c0,0.4,0.4,0.7,0.4,1.1c0.4,0,1.1,0,1.5-0.4c0.4-1.1,1.1-2.2,1.9-3.4c0.4,0.4,1.1,0.7,1.1,1.1l1.1,1.1
			l1.9,2.2l1.9,1.9c2.6,3,5.2,6,8.2,9l1.5,1.9l1.5,1.5l3,3.4l0.7,0.7l1.1,1.1l1.9,2.2l1.1,1.1l0.4,0.7l1.2,0.7l0.7,0.7
			c0.1,0.2-0.1-0.1,0.9-0.8V478l-1.2-1.1l-1.5-0.7l-0.4-0.7l-1.2-1.1l-1.9-2.2l-1.1-1.1l-0.8-0.7l-3-3.7l-1.5-1.1l-1.5-1.9l-1.1-1.1
			c-1.1-1.1-2.2-2.2-0.7-3.7c0.7-1.1,1.1-2.2,1.9-3c0.4-1.1,1.1-2.2,1.5-3.4l0.4-0.4c0.4,2.2,0.4,3-0.4,4.5c0,0-0.4,0.4-0.4,0.8
			c-0.4,0.4-0.4,1.2-0.4,1.5c-0.4,0.7,0,1.3,0.7,1.3h0.4c0,0,0.4-0.5,1.1-1.3c0.7-0.7,1.9-2.8,1.5-3.6c-1.5-2.6,0-4.5,1.1-6.7
			l0.4,0.4l0.7,0.4c0.4,0.4,0.7,0.8,1.1,1.1l0.4,0.4c0.7,0.7,1.1,1.1,1.5,1.5c0.7,1.5,0.8,2.6,0.4,4.1c0,0.7-0.7,1.9-0.7,2.6
			c-0.4,2.2-0.3,4.1-0.3,6.4v0.4v-0.4l0.5,0.7c0.4,0.7,0.8,1.5,1.2,2.6l0.4,1.1l1.1,1.9c0.2,0.6,0.5,1.3,0.8,2.1c0-0.3,0-0.7,0.1-1
			c-0.1-0.3-0.1-0.5-0.1-0.8c-0.4-0.4-0.7-1.1-0.7-1.9c-0.4-0.7-0.7-1.5-1.1-2.2c-0.4-1.1-0.4-2.6,0-4.1c0,0,0.4-0.4,0.4-0.7
			l-0.4,0.4c0,0.4-0.4,0.7-0.4,1.1s0,0.4-0.3,0.7c-1.1-2.2-1.1-6.4,0.4-7.9c0,0.4,0,1.1,0,1.5c0.4,0.4,0.1,0.7,0.1,1.1
			c0,1.1,0,1.9,0,2.9c0,0,0.9,0,1.3,0c0,0,0,0.8,0.4,1.2l0.8,3.8c0.3-4.5,0.4-2.3,0.3,1.3l0.1,0.5l1.3,2.2l0.9,1.9
			c0,0.7,0,1.1,0,1.9l0,0v-0.4l-1.5-1.1c-0.1-0.2-0.6-0.4-0.7-0.6c0,0.3-0.1,0.7-0.2,1c0.1,0.4,0.2,0.7,0.3,1.1l1,0.4
			c0,0.4,1.1,0.7,1.1,0.7c0,0.4,0,0.7,0,1.1s-1.1,0.7-1.1,1.1l-0.8-0.4c-0.2-0.2-0.2-0.3-0.4-0.5c0,0.3,0.2,0.6,0.2,0.8v4.5
			c0-0.4-0.2-1.6-0.2-1.6c0.4,0,0.4,0,0.7,0c0.4,0-5.5,784.1-4.7,786.1c1.9,0,7,0,8.9,0c0.4-1,3.3-783.9,3.7-784.2
			c0,0.4,0.4,0.3,0.4,1.1c0.4-0.7,0.4-1.2,0.4-1.6s0.4-0.8,0.4-0.8c0-0.4,0-1.1,0.4-1.1c0.4-0.4,0.4-0.8,1.1-1.1
			c0.4-0.4,0.7-0.4,1.5-0.4c-0.4,0-0.7-0.4-1.1-0.8c2.6-3,5.6-6,8.2-8.6l9.7-10.1l2.6-2.6l1.5-1.5l1.9-2.2l2.6-2.6l3-3l0.7,1.5
			l0.7,3l0.7-1.1c0-1.1-0.4-2.2-0.7-3.7c0-0.4,0-1.1,0.4-1.5c1.1-1.5,2.2-2.6,3.4-3.7l1.9-1.5l0.4-0.4c0.4-0.7,1.1-1.5,1.9-2.2
			c0.4,0.4,0.8,0.7,0.8,1.1c0.7,1.1,1.8,2.2,2.5,3.4l1.4-1.5c0,0,0,0,0-0.4c0-1.9,0.5-4.4,1.2-6.4c0,0,0,0,0.4,0
			c0.4,2,0.8,1.9,1.1,3l1.5-1.8c-0.4-0.4-0.1-0.8-0.5-0.8c-0.4-0.7-0.8-1.5-0.8-2.3c0-0.4,0-1.1,0-1.5c0-0.7,1.2-1.4,1.9-2.2
			c0.4-0.4,0.6-0.9,0.9-0.5c1.1,0.4,2.1,1,3.2,1h0.7c-1.1,0-2.2-1-3.7-1.8c1.9,0,3.7,0,5.6-0.4c0,0.4-0.4,0.8-0.4,1.2l1.5-0.3
			c0-0.4,0.4,0.2,0.4,0.2h0.4l0.4-0.9c0-0.4,0-1.5,0.4-1.8c0.4-1.1,0.5-2,0.8-2.7c0.4-1.5,0.8-2.7,0.8-3.8v-0.4l0.7-0.4
			c1.5,0,0.9-1.1,0.9-1.9c0.4-0.4,0.5-0.4,0.5-0.4c0.7,1.9,1.2,3.4,1.6,4.9c0.4,0.4,0.4,0.7,0.8,1.1c0,0.4,0.2,0.7,0.2,1.1l1.4-0.7
			c0,0,0-0.4,0-0.7c0-1.5,0.1-3,0.8-4.5c0-0.4,0.7-0.7,1.1-0.7c0,0,0.4,0.4,0.4,0.7c0.4-0.4,0.4-1.1,0.8-1.5c1.5,1.1,3,1.9,4.5,3
			l1.9-1.1c-1.1-1.1-2.2-2.2-3-3.4c-0.7-0.4-0.7-1.1-1.1-1.9c0.4,0,0.4-0.4,0.7-0.4c0.4,0.4,0.7,0.7,1.1,1.1
			c1.1,0.4,2.6,0.7,3.7,1.1c0-0.4,0.6-0.4,0.6-0.4c-0.7-0.4-1.6-0.7-1.6-0.7c0-0.7,0-1.5,0-2.6c0,0.4,0.5,0.7,0.5,1.1
			c0.4-0.4,0.3-0.4,0.7-0.7c1.1,1.9,0.7,4.1,0.3,6l2.2-1.1l0.7-0.4c0-1.1,0-2.2-0.8-2.9c-0.4-0.4-0.4,0-0.4-1h0.4
			c1.5,1,1.9,1.8,2.2,2.9l1.5-2.1c-0.4-0.4-0.7-0.7-1.1-0.7c-0.4-0.4-1.1-0.3-1.9-0.7c-0.4-0.4-0.8-0.7-0.8-1.5
			c-0.4,0-0.4-0.4,0-0.7c0-0.4,0.4-1.1,0.7-1.5s1.4-1.1,1-1.5c-0.4-0.7,1.6-1.9,0.6-3v-0.4c0-0.7,0.1-0.7,0.1-1.1
			c0.4-0.4,0.3-0.7,0.7-1.1c0,0.3-0.1,0.5-0.1,0.8c0.4,0.4,0.7,0.4,0.7,0.7c1.1,0.7,1.1,1.9,0.4,3l-0.4-0.7c0-0.7-0.4-1.8-0.7-2.9
			c0.1,1.9,0.4,3.6,0.7,5.2c0.4,0.7,0.4,1.9,0.7,2.6c0,1.1-0.4,2.3,0,3.4l1.1-1.2c0-1.5-0.4-4.5-0.4-4.5h0.4c0.4,0-0.3,1.1,1.7,1.9
			c0,0,0,0,0-0.4c0-1.5-1.3-3.4-1.3-5.2c0-0.4-1.7-0.7-1.7-1.1c0,0,0,0,0-0.4c0-1.1-1.2-1.1-0.1-3.4c0-0.4,0.7-1.1,1.1-1.5
			c1.1,0.4,1.3,1.1,0.9,2.2c0.4-0.4,0.8-0.5,1.2-0.8l0.4-0.5c0.4,1.1,0.8,2.3,1.2,2.3h0.7c0.4,2,1.6,3.2,1.6,4.7v0.4l1.2-2.2
			c-0.4-0.4-0.9-0.7-1.2-1.1c0.4,0-0.2,0,0.2-0.4c0,0.4-0.2,0.7-0.2,1.1v-0.4c0,0,0,0,0-0.4c0-1.1-1.1-2.6-1.9-4.1
			c-0.7-1.1-1.1-1.9-1.5-3c-0.4-0.7-0.6-1.5-0.6-2.2V392c0,0.7,0.8,1.5,1.2,2.6l0.5-0.4c-0.4-0.7-0.4-1.5-0.8-2.2
			c0-0.7,0.7-1.1,0.7-1.1c0.4,0,1.5,0.4,1.5,0.7c0.7,0.7,0.7,1.5,1.1,2.6c0.7-0.4,1.1-0.4,1.5-0.7c0.4,0.4,0.4,0.7,0.7,1.5
			c-0.4-1.9-0.7-3.4-2.6-4.1c1.5,0,2.6-0.4,3-1.9c-1.1-0.4-2.6-0.4-3.7,0c-1.1,0.4-1.9,0.4-1.9-1.1c-0.4-0.4-0.4-0.4-0.7-0.7
			c0-0.4,0-0.4-0.4-0.7c-0.4-1.1-0.4-1.9,0-3c0,0,0.4,0,0.4-0.4c0.4,0,0-0.4,0.4-0.4c0.4,0.4,0.7,0.7,1.1,1.1c0,0,0.4,0,0.4-0.4
			c0.4,0.7,0.4,1.1,0.7,1.9c0.4-2.2-1.1-3.7-2.2-6l3.7,0.4c-0.4-1.1-0.4-1.9-0.7-2.6c-0.4,0.4-0.7,0.4-0.7,0.4
			c-0.4,0-0.4-0.8-0.7-0.8c2.6-1.1,0.4-2.6,0.4-3.7c0,0.7-0.4,1.5-0.7,1.9c0,0-0.4-1.2-0.7-1.2c-0.4,0-0.7-0.5-1.1-0.5
			c-0.4,0-0.1,0-0.1,0s0,0.7,0,0.3c0,0,0,0,0,0.4v-0.4c1,0,1.2-0.4,1.9-0.4c-0.4-0.7-0.6-1.5-0.6-2.2c0.4,0.7,2.2,0.4,1.4,2.2
			c0.4-0.7,1.1-1.5,1.5-2.2c0.4,0.4,0.4,0.7,0.7,1.1c0-1.1,0-1.1-3.4-2.6c1.9,0,3.4-1.1,5.2,0.4c0,0,0.4-0.4,0.4-0.7
			c-1.1-0.4-2.2-1.1-3.7-1.9c0,0,0.4,0,0.4-0.4c-0.7,0.4-1.9,0.4-3,0.4c0.7-1.1,1.1-1.5,1.5-2.2c-0.7-0.4-1.2-0.4-2-0.7
			c2.2-0.4,3.6-0.4,5.6-0.7c0-0.4,0,0.8,0-0.2c-2,0-1.4,0-1.8,0c-1.1,1-2.4,0.5-3.5-0.3c0,0-0.3-0.6-0.7-0.6c0-0.4-0.1-0.8-0.1-1.2
			s0-0.4,0-0.4c0-0.4,0-0.4,0-0.7v-0.7c0-0.4,0.4-1.1,0.4-1.9l-0.4-0.4v-0.4c0,0,0-0.4-2-0.7c0,1,0,1.4,0,2.2c0,0.1,0,0,0,0
			s0.9,0,0.7,0c-0.1,0-0.2,0.7-0.5,0.9c-0.4,1.5-0.7,3.1-1.9,4.2c-0.4,0.4-0.7,1.2-1.1,1.6c-0.4-0.4-0.4-0.3-0.4-0.3
			c0.4-0.4,0.7-0.6,1.1-1.3c-1.1,0-2.6-0.1-3.4-0.1h-0.7c0.4-1,0.4-0.6,0.7-1c0.7-0.7,1.9-0.6,3,0.2c0-0.4,0.5-0.4,0.5-0.4
			c-0.7-0.7-1.1-1.5-2.1-2.3V358h2.4c-1.1,0-2.6,0.2-3.7-0.6l-0.4-0.3c-1.1,1.8-3.1,1.2-4.6,1.5c-0.1,0-0.2,0.1-0.2,0.1
			c0.1,0,0.2,0,0.2,0c0.3-0.1,0.7-0.4,1.3-0.7c0-0.7-0.4-1.5-0.4-2.6c-2.6,3.7-4.9,2.2-6.7-0.4c0.7-0.7,3-1.1,2.2-3.4
			c-0.4,1.9-1.9,2.2-3,2.6l-0.4,0.4c-0.4-1.1-0.4-2.2-2.2-2.2c0.4,1.1,0.7,1.5,1.1,2.2c0,0.4-0.4,1.2-0.7,1.2
			c-0.7,0.4-1.5,0.2-2.2,1.2c-0.7,0-1.5,0-2.6,0c0,1,0.3,0.7,0.4,1c0.3-0.2,0.7-0.4,1.1-0.4c0,0,0,0.4,0.4,0.4
			c-0.7,0.4-1.5,0.7-2.2,1.1c-0.4,0.4-1.1,0.7-1.5,1.1c-0.2-0.2-0.3-0.3-0.3-0.3c-0.2,0.1-0.5,0.2-0.8,0.3c0-0.4-0.4-0.7-0.4-1.1
			c-0.4,0.4-0.7,0.7-0.7,0.4c-1.9-0.7-2.2,1.1-3.4,1.9c-0.7,0.4-1.1,1.1-2.6,0.7c0.7-0.4,1.1-0.4,1.5-0.7c-0.4-0.7-0.7-1.5-1.1-2.2
			c1.1,0.7,2.2,1.1,3,0c-0.4-0.4-1-0.4-1.8-0.7c1.5-1.1,2.6-2.2,4.6-3.4v-0.4c0,0-0.8,0.3-1.2,0.3c-1.1,1.5-2.7,1.8-4.2,2.6
			c-3,1.5-6,0.5-8.6,1.2c-0.4,0-2.6-0.7-5.6-0.7h0c-0.7,0-1.1,0-1.9,0c-0.4,0-1.1,0.7-1.5,0.7s-1.1-0.7-1.9-0.7h0.4l-0.7-1h-0.7
			c-1.5,0-2.6-0.5-3.7-0.5c-0.7,0-1.9-0.5-2.6-0.5s-1.5,0-1.9,0c-0.7,0-1.1,0.1-1.5,0.4c0,0.7-0.4,1.2-0.4,1.9
			c-0.7-0.7-1.1-0.9-1.5-1.3c-0.4,0.4-0.4,0.9-0.7,0.9h1.1c-0.4,0-0.4,0-0.4,2c0,0-0.4,0-0.7,0c-0.4-2,0.7-1.3-1.3-1.3
			c0-0.2,0-0.5,0-0.7c0-0.7-1-1.1-1-1.9c0-1.9,0-3,0-4.5l0,0c0,1.5,0,3,0,4.9c0,0.7-0.1,1.9-0.5,2.7c-0.4,0.4-0.5,0.8-1.3,0.8
			c-0.4,0-1.1,0-1.1,0c-1.5,0-3,0.3-4.5-0.1c-0.4-0.4-1.1-1.2-1.9-1.2c-0.4-0.4-0.7-0.2-1.5-0.2c0.4-1.1,1.9-2.5,3.4-2.5h0.4
			c1.1,0,2.6-2.4,2.2-3.5c0,0-0.4-0.3-0.7-0.3s-0.7,0.3-1.1,0.7c0.4,0.4,0.7,0.3,1.1,0.7c-0.7,0-1.1,0-1.9,0.4s-1.5,1.1-2.2,1.9
			c-0.7,1.1-2.2,1.9-3.4,2.6c-0.4,0-1.5,0-1.9-0.3c-0.4,0-0.7-0.1-1.1-0.1s-0.7,0-1.1,0h-0.4c-0.4,0-0.7-0.4-1.1,0
			c-0.7,0-1.1-0.4-1.9-0.1c-1.9,0.7-4.1,2.1-6,0.1c-0.4,0-0.4,0-0.7,0c0.4,0,0.4,0.5,0.7,0.5c0.4,0.4,0,0.8,0,1.2
			c-0.4-0.4-0.4-0.2-0.7-0.2c-0.4-0.4-0.7-1.5-1.5-1.5c-0.4,0-1.3,0-1.3,0v0.4c0,0.4,0.8,0.4,1.2,0.7c-0.4,0.4-0.5,0.4-0.5,0.4
			c-0.4,0-0.3,0-0.6-0.4l-0.3-0.4c-0.4,0-0.7-0.4-1.1-0.4c0,0.4,0.4,0.8,0.4,1.5l-0.4-0.4c-0.7-0.4-1.5-0.4-1.9-0.4
			c-0.7,0-1.1-0.3-1.1-0.3c-0.4,0-0.7-0.1-0.7-0.1c-0.4-0.4-0.7-0.7-0.7-0.7h-1.5c-0.4,0-0.7,0.1-0.7,0.5c-0.4,0-1.1,0-1.5-0.3
			l-0.4-0.1c-0.4,0-0.4,0-0.7,0h0.7c0,0,0-0.4,0,0.4c-2-0.4-2.5-0.4-3.3-0.4h-3c-1.5,0-2.2,0-3,2h-0.4c-0.4,0-2.4-1.6-2.4-2l0,0
			c0,0-0.3,0-1,0c0,0,0,0,0.4,0c-0.4,0-0.4,0-0.4,0c-0.4,0-0.7,0.4-1.1,0.4c-0.7,0-1.5,0.1-1.9-0.3c0-0.4,0.4-1.2,0.4-1.9
			c0,0-0.4-0.4-0.7,0c-0.7,0.4-1.5,1.1-2.2,1.1c-1.1,0.4-2.6,0.4-4.5,0c0,0-0.4-0.4-0.4-0.8c-0.4,0-1.1,0-1.5,0.4
			c0.4-1.1,0.7-1.9,1.1-2.6c-0.4,0-0.4,0-0.4-0.4c-0.4,0.7-0.7,1.6-1.1,2.3c-0.7,0-1.9-0.2-1.1,0.8h-0.4H459h-1.5
			c-0.7,0-1.1,0-1.9,0h-3.7l-3.4-1h-0.4c-0.4,0-1.1,0.3-1.5,0.3c0.4,0.4,0.4,1,0.4,1.7c-1.1-0.7-3.4,0-3.7-2.6
			c0,0.4-0.4,0.4-0.4,0.8c0.7,0.7,1.9,1.5,2.6,2.6c-0.7,0.4-1.5,0.4-1.9,0c-0.7-0.7-1.1-1.1-1.5-1.9l-0.4,0.4c0,0.4,0.4,0.7,0.4,1.1
			c-0.4,0-0.7,0-1.1-0.4c0.4,0.7,1.1,1.1,1.5,1.1c-0.4,0.4-0.4,0.4-0.4,0.4c-0.7,0-1.5-0.2-2.2-0.2c-1.1,0-3-1.3-3.4-1.3h0.4
			c-0.7-1-0.7-1.7-0.7-2.4c0.4-1.5,0-3.2,0-4.7c0,1.5,0,2.6,0,3.7l-0.4,1.5c-1.1-0.4-2.3-1.1-3-1.5c0.4-0.7,0.6-1.1,1-1.5
			c-0.4,0.4-1.6,0.7-1.6,1.5c0-1.5,0-1.6,0-3.6h-3c0,1,0,1.8,0,2.5c0,0.4,0,0.4,0,0.4c0,0.4,0.3,0.7,0.3,0.7c-0.7,0-0.7,0.4-1.1,0.7
			c-0.7,0.7-1,1.1-2.2,0.4c-1.5-0.7-4.1-1.1-5.1-1.9v0.4c0,0.4,0.4,0.4,1.1,0.7s1.3,0.9,0.9,2.1c0,0.4,0.6,0.9,1,0.9c0.7,0,2,0,2,0
			v3c0,0.4,2,0.4,2,0.7v0.4c-1-0.4-1.6-0.7-2.4-1.1c-1.1-0.7-1.6-0.4-1.6,0.7s-0.4,1.1-1.5,1.1c-0.4-0.4-1.3,0-1.7-0.4
			c0.7,0,1.1-0.4,2.1-0.7v-0.4c-1-0.4-2.9,1.5-4.4,1.5c-0.4,0-0.7,0.7-1.1,0.7c-0.7-0.4-1.1-0.8-1.4-1.5c0-0.7-0.4-1.1-0.4-1.5
			l0.4-0.3c0.4,0,0.8-0.3,1.5-0.3c-0.4,0-0.7,0-1.5,0h-0.7c0.4,0,0.4-0.8,0.7-1.2l0.7-0.8c-0.4,0-0.4,0-0.8,0.3
			c-0.4,0-0.8,0.4-0.8,0.4c-0.4,1.5-1.5,1.5-2.6,1.5c0,0.7,0.1,1.5-0.3,1.5c-0.4,0.7-1.5,0.7-1.5,0.7c0,0.4,0,0.4,0,0.7s0,0.4,0,0.7
			l-0.8,0.4c-0.4,0.4-0.5,0.4-0.9,0.7l-0.9,0.7c-0.4,0.4-0.4,0.7-0.8,1.1c0,0-0.4,0.4-0.8,0.4c-0.4,0.4-1.1,0.4-1.9,0
			c-0.4-0.4-0.8-0.7-1.5-1.1c0,0.4,0.1,0.4,0.1,0.4c0.4,0.4,1.5,0.7,1.5,1.1v0.4c0,0,0,0-3-0.4c0,0.4,0,0.7,0,0.7c0,0.7,0,1.5,0,1.5
			s0.3,0-0.1,0c0,0-0.4,0.9-0.4,1.3c-1.1,1.9-2.3,3.9-3.8,5.7c0,0.4,0.4,0.4,0.4,0.4s0.8-0.3,0.8-0.7c0,0.4,0,0.4,0,0.7
			c0,1.5,0.3,3-0.4,4.1l-1.1-1.9l-0.8-1.1c-0.4,0.4-0.5,0.7-1.2,1.5l2.5,3v0.4c0,0-1,0.4-1.8,0c-0.7,1.9-2.4,2.6-4.6,2.6
			c-0.4,0.4-1.2,0.7-2,1.1C389.7,387.2,389.6,387.2,390,387.9z M596.6,363.6L596.6,363.6v0.4c0.7,0,1,0.1,1,0.1
			c0,0.4-0.1,0.9-0.5,0.9s-0.5,0-0.5,0S596.6,364.5,596.6,363.6z M594.3,390c0,0-0.3,0.2-0.3-0.2v0.4c0,0.7,2,1.8,2,1.8
			s-0.4,0-0.7,0C595.3,392,594.3,390.7,594.3,390z M590.8,391.3c1.1,0.7,2.2,1.1,2.2,2.6c-0.4-0.4-0.4-0.4-0.7-0.7l-0.4-0.7
			c-0.4,1.1-0.4,1.5,1.5,1.5h0.4l-0.4,1.1c-0.4,1.1-0.4,2.8-0.7,4.2c-1.5-1.5-1.5-2.5-1.1-4C591.9,394.2,591.1,392.8,590.8,391.3z
			 M588.9,360.4c0-1.9,0-1.9,0.7-1.9c0,0,0.4,0,0.7,0c-0.4,0.9-0.7,0.9-0.7,1.3C589.3,359.8,588.9,360,588.9,360.4z M574,358
			c0-0.4,0-0.4,0-0.7c2-0.4,2.2-1.3,3.3-1.3h0.7c1.1,0,2.6,1,3.7,2c-1.5,0-2.6,0-3.7,0c-0.7,0-1.5,0-2.2,0S574,358.4,574,358z
			 M573.2,414.8c0.4,0.4,0.8,0.7,0.8,1.1s0,1.1,0,1.5c0,0.7,0.3,1.5,0,2.2c-0.4-0.4-0.2-0.7-0.6-0.7
			C571.9,416.7,571.7,415.2,573.2,414.8z M566.1,426.1c0.4-1.9,0.4-3.1,0.4-4.1h1.1h0.4c0-2-0.4-1.5-0.4-1.9l-0.7-1.4
			c0.4-0.4,0.4-0.4,0.7-0.8s0.7-0.8,1.1-1.2c0.7,1.5,0,4.6-1.1,7.2C567.2,424.7,566.5,425.7,566.1,426.1z M508.5,434.7
			c0,0.4,0.4,0.4,0.4,0.7l-0.1,0.4c0,2.6,1.2,4.9-0.8,7.5v0.4c0,0.4,0.5,1.4,0.5,1.4c-0.4,0-0.7,0-0.7,0c-0.4-3-0.4-6.1-0.4-9.1
			c0-0.4,0.7-1.3,0.7-1.7L508.5,434.7z M511.1,358.4c-0.4,0.4-1.6,0.4-1.6,0.4l-1.6,0.4v-0.4c0-0.4,0.5-0.7,0.5-0.7h0.4
			c0.4,0,0.7,0.2,1.1,0.2C510.4,358.6,510.8,358.4,511.1,358.4z M513,440.7c-0.7,3.4-1.9,7.2-2.6,10.5c-0.4,0.7-0.4,1-0.4,1.8
			c-0.4,1.1-0.7,1-1.1,3h-0.4c0-3,0-5.6,0.4-8.6c0.4-2.2,0.7-4.6,1.1-6.9c0-1.5,0.4-2.9,0.4-4.8c0.7,0.4,1.1,0.4,1.5,0.8
			C512.6,437.6,513.4,439.2,513,440.7z M530.9,436.5l1.5,1.9c0.4,0.7,0.7,1.1,1.1,1.9c-0.4,0-0.4,0-0.4,0.4l-0.7-0.7l-1.5-1.1
			l-2.2-1.9c0.4-0.4,1.1-0.7,1.5-1.1L530.9,436.5z M537.6,433.2c0,0.7,0,2.2-0.8,3.7c-0.4,1.5-1.2,3-1.9,4.1c-0.4,0-0.5-0.4-0.8-0.7
			c-0.4-0.7-1.1-1.9-2.1-2.6v-0.4c0-2.2-1.3-2,0.2-3.1l1-0.1h0.2l0,0c0.5,0,0.9,0,0.9,0c0.7,0,1.7,0,3.7,0v-1.2
			c-2,0-2.9-1.8-3.7-1.8h-0.4h0.4c0.4-0.4,0.7,0.1,1.1-0.3c1.5,1.1,1.9,2.4,0.7,3.9l0.7-0.7L537.6,433.2z M542.5,435
			c0,0.4,0,0.4-0.4,0.4c0,0-0.4-0.5-0.7-0.5c-0.4-0.4-0.7,0.1-0.7-0.9h-0.4c-0.4,0,0-1.7,0.4-2.1c0,0,0.4,0.1,0.7,0.5
			c0.4,0,0.4,0.4,0.7,0.8C542.2,433.9,542.5,434.6,542.5,435z M547,434.7c-0.7-1.1-1.1-2.2-1.9-3.3l-0.7-1.4c0.4,0,0.7,0,0.7,0
			c0.7,0,1.5,0.3,1.9,0.7c1.1,0.7,1.9,3,2.2,4.5c0.4,0.4,0-0.2-0.4,1.8h-0.7C547.8,435,547.4,435.1,547,434.7z M546.3,435.4
			c-0.4,0-0.7,0-1.1-0.4c-0.7-0.4-1.1-1.5-0.7-3c0,0.7,0.4,1.1,0.7,1.9C545.5,434.3,545.9,435,546.3,435.4z M542.2,440.5
			c0.4-1.1,0.7-2.8,1.1-3.9l1.9,0.4h0.7l-0.7,1.4c-0.7,0.4-1.9,1.6-2.6,2.3C542.5,440.4,542.2,440.5,542.2,440.5z M541.4,440.2
			l-0.4,0.9c0,0.4,0,0.9-0.4,0.9h-0.4c-1.1,0-1.7,1.4-2.8,1.7c-0.7-1.5-1.5-2,0.5-3.1v-0.4c0-1.9,1-3.4,1.7-5.3c0.4,0.4,0.8,1,1.2,1
			c0.4,0.4,0.2,1,0.5,1h0.4c0,0,0.4,0.5,0.4,0.9C541.8,438.6,541.8,439.4,541.4,440.2z M523.2,460.5c-1.5-3.4-2.9-7.1-4.4-10.5
			l-1.7-5.2c0-0.4,0-0.7,0-0.7c0-1.9-0.5-3.3-1.3-4.8c-0.4-1.1-0.5-2.2,0.2-3.7c0.4,0.7,1.1,1.5,1.9,1.9c0.4,0.7,0.4,1.2,0.8,1.2
			c0.4-0.4,0.7,0,0.7-0.4c0.7,1.1,1.5,1.9,2.2,3.9h0.4c0-1,0-1.6-0.4-2c0.7,0,1.1,0,1.9,0.4c0.4,0,0.7-0.4,1.1-0.4
			c0-0.4-0.4-0.8-0.4-1.1c-0.7-0.4-1.9-0.8-2.2-1.1c-1.1-0.7-1.1-1.5-0.4-2.2c0.7,0,1.1,0.7,1.5,0.7c0.7,0.4,1.5,0.4,1.9,0.7
			c1.1,0.4,2.2,1.5,3,1.9c0,0.4,0.4,0.4,0.4,0.4c0.7,0.4,1.5,0.7,1.9,1.1s0.4,0.7,0.7,0.7c0.4,0.7,1.1,1.1,1.5,1.9l0.4,0.4
			c0.7,1.1,0.7,2.2-0.4,3c-0.4,0.4-1.1,0.7-1.5,0.7c-0.4,0.4-0.4,0.4-0.4,0.7c-0.7,0-1.5,0.4-1.5,0.7v0.4c0-0.4,1.2-0.9,1.9-0.9h0.7
			c0,0,0.3,1.6,0.3,2.4v0.4v0.3h-0.7c0.4-1,0.7-0.7,1.1-1.1c0.4-0.7,0.7-1.1,1.1-1.9c0.4-0.7,0.7-1.1,0.7-1.5
			c0.4-0.7,1.1-1.1,1.5-1.5l1.1-0.7c1.1-0.4,2.6-1.1,3.7-1.9c0,0,0,0,0.4,0.4c-0.4,0-0.4,0.4-0.4,0.4c-0.4,0.7-0.7,1.5-1.1,1.9
			l-2.6,2.6l-2.6,2.6l-1.9,2.2l-1.5,1.5l-2.6,2.6c-1.5,1.5-3,3-4.5,4.5C523.5,460.8,523.5,460.8,523.2,460.5z M507,475.8
			c0-1.5,0-2.6,0.4-4.1c0-0.7,0-1.9,0.4-2.6l0.7-3.4l0.4-1.9l1.1-3.7c1.1-5.2,2.1-10.8,4.1-16.1c0-0.4,0-2,0-2c1,0,0.5,0,0.5,0
			c0,3,0.5,3.4-0.3,4.6c-0.4,1.9,0.4,2.8,1.2,3.9c0.4,0.4,1.6,0.6,1.6,0.6c0-0.4,0-0.7,0-1.5c0-0.4-0.5-0.7-0.5-1.1
			c0.4,0,0.2,0,0.2,0.4l1.9,4.5c1.5,3,2.6,5.6,3.7,8.6c0,0.4-0.4,0.7-0.4,1.1c-1.1,1.1-2.2,2.2-3.4,3.4c-2.6,3-5.6,6-8.6,9.3
			l-1.1,0.7c0,0.4-0.4,0.4-0.4,0.4c-0.4,0-0.4,0.4-0.7,0.4c0-0.4-0.4-0.7-0.4-1.1C507,476.2,507,475.8,507,475.8z M506,457.5l2,1.9
			v3.7h-2C506,462,506,459.3,506,457.5z M474.1,431.4c-0.4,0.7-0.7,1.1-1.1,1.1s-0.7-0.4-1.1-0.7c0.4-0.4,0.7-0.7,1.1-0.7h0.4
			C473.4,431,473.7,431.4,474.1,431.4z M478.4,433.2c0,0.4-0.1,1.2-0.5,1.2c-0.4,0.7-0.7,0.8-1.1,1.6c-0.4,0.4-0.7,1-1.1,1
			s-1.6,0-1.6,0v-0.1c0-1.1,1.6-2.2,2.3-3.4C476.7,433.2,478,433.2,478.4,433.2z M488,431.9c-0.7,1.1-0.6,2.5-1,3.7
			c-0.4,0.4-1,1.4-1,1.7v-0.4c-3-0.7-2.4-1.5-3.5-2.2c0,0-0.3,0,0.1-0.3c0.7,0.4,1.4-1,2.1,0.1c0-0.4-0.1-0.7,0.3-1
			c0.4-0.7,0.7-2.4,1.1-2.4h0.4C486.8,431,487.2,431.9,488,431.9z M493.9,431.7c-0.4,0.4-0.7,0.7-1.1,1c-0.4,0-0.8,0.4-0.8,0.8
			c0-1.1,0-2.5,0-2.5c1,0,0.4,0,0.8,0S493.5,431.3,493.9,431.7z M495.8,431c-0.7,0-0.7,2.1-1.1,2.8c-0.4,0.7-1.1,3.2-1.9,3.2h-0.4
			c-0.4,0,0-2.1,0.4-2.8c0.4-0.7,1.1-0.2,1.9-3.2C495.1,431,495.4,431,495.8,431z M500.3,437c-0.4,3-0.7,2.1-0.7,3.2
			c0,0.7-0.4,1.8-0.4,1.8s1.8,0-0.2,0v0.5c2-1.1,2-2.6,2-3.7V437C501,437,499.9,437,500.3,437z M499.9,459c0-2-0.2-2.1-0.6-3.2
			c-0.4-0.7,0-2.2,0.3-2.9c0-0.4,1.3-1,1.3-1.4c0,2.2,0,4.5,0,7.5C501,459,500.3,459,499.9,459z M498.8,456h0.4c0,1,0.7,1.5,1.1,2.2
			c0.4,2.2,0.7,4.5,0.7,7.1v-0.4c0-0.7-1.1-1.5-1.5-1.9C498.8,460.5,498,459,498.8,456z M497.5,450.6c0-0.4-1.5-0.6,0.5-0.9
			c0,1.1,0,1.4,0,3.4h-0.7h-0.4C496.5,451,496.7,451.3,497.5,450.6z M494.9,442.9c0-0.7,0.1-1.5,0.8-2.6l0.3-0.7v-0.4
			c0-0.4,0-0.7,0-1.5c0,0,0,0,0-0.4c2,0,1.4-0.4,1.8-0.4c0,0,0.8,0.4,0.8,0.7c0.4,0,0.5,0.4,0.5,0.4l-0.3,0.7c0,2.2-0.3,4.5-0.7,6.4
			c-0.4,1.1-0.7,2.2-0.7,3.4c-0.4,0.4-0.7,1.1-0.7,1.9l-0.4-0.7l-0.4-0.7c-0.7-1.1-1.1-1.9-1.1-2.6
			C494.3,445.1,494.5,444,494.9,442.9z M493.9,441.7c-0.7-1.1-0.4-3.4,0.7-4.9c0.4-0.4,0.7-1.1,1.1-1.5c0-0.4,0.4-0.5,0.4-0.5
			c0.4-0.4,0.7,0.1,1.1-0.9c0,0,0.4,0,0.7,0l-0.7,1.6l-1.1,1.6l-0.4,1.1l-1.1,1.9L493.9,441.7z M492,447.7l0.1-0.4
			c0-0.7-0.1-1.1,0.9-1.5v-0.4c0,1.9,0.7,3.3,1,5.2c-0.4-0.4-0.7-0.9-1.1-1.3s-0.9-1.4-1.2-1.4h0.3C492,448,490,447.7,492,447.7z
			 M490,446.2c0-0.7,0.7-1.1,1-1.9c0-0.4,0.2-0.8,0.6-1.5c0.4,1.1,0.4,2.2,0,3c-0.4,0.4-0.7,0.8-0.7,0.8c-0.4,0-0.4,0.4-0.4,0.4
			c-0.4,0-0.6,0-0.6,0v-0.8H490z M486.5,441.4c-0.4-0.4-0.4-0.7-0.4-1.1c-0.4-1.1,0-1.9,0.4-2.2c0.4-0.7,0.8-1.1,1.5-1.5
			c0-0.4,0.4,0,0.4-0.4L488,437h-1.1l1.1-2.3l1.1-3c0,1.1,0,1.5,0,2.2c0,1.1,0.6,2.2,0.6,3.4c0,1.5-0.6,3.4-0.6,5.2
			c0,1.5,0,3.4,0,5.2c0,1.1-1,1.9-1,1.9v-7.5C486,442.1,486.9,441.8,486.5,441.4z M472.3,445.5c0.4-0.4,0.4-0.7,0.8-1.1
			c0.4-0.7,0.2-1.5,0.9-2.6l-0.1,0.4v1.5c0,0.4,0.8,1.1,0.8,1.9c0,0.4,0.1,0.7-0.3,0.7c0,0.7-0.2,1.5-0.6,1.9c0.4,0,0.8,0,0.8-0.4
			c0.7-0.4,1.2-0.4,1.5-0.7c-0.4-1.5-0.7-3.4-1.1-5.2c0-0.4,0-0.7,0.4-1.1c0.4-0.7,0.8-1.1,1.1-1.5c0.7-1.9,1.9-3.4,3.4-4.1
			c0.7,0.4,1.1,0.4,1.5,0.7c0.7,0.7,2,1.9,2.7,3c0.4,0.7,1.6,1.5,1.6,1.9s0,0.4,0,0.4c0,1.9-1.3,3.7-1.6,5.6c-0.4,1.1-0.7,1.9-1,3
			c0.7-0.7,1-1.9,1.8-2.6l0.3-0.4c-0.4,0-0.4,0-0.4-0.4c-0.4,0-0.4-0.4-0.4-0.4c0-0.7,0-1.1,0.4-1.5c0-0.7,0.4-1.5,0.4-2.2
			c0.4,0.7,0.7,1.1,1.1,1.5c0.7,1.5,0.7,2.3,0,2.6c-0.4,0.4-0.7,0.6-1.1,0.6c0.4,0.4,0.7,0.1,1.1,1.1c0,0,0,0,0.4,0
			c0,0,0,0.4-0.4,1.2s-1.1,1.3-1.5,2c-1.5,2.2-3.4,4.4-5.2,7c-0.4-1.1-1.1-1.5-1.5-1.9c-0.4-0.7-0.7-1.5-1.1-1.9l-0.4-0.4
			c-0.7-0.7-1.1-1.1-1.9-1.9c-0.4-0.4-1.1-1.1-1.9-1.9C470.7,448.1,470.8,448.1,472.3,445.5z M461,432.8c0.4-0.4,0.7-1,1.1-1
			c0.7-0.4,1.5-0.8,2.2-1.8c0.7,0,1.5,0,1.9,0s0.4,0.6,0.7,0.6c0.7,0.4,1.5,0.9,2.2,0.9c1.1,0.7,2.6,1.5,3.7,1.9
			c0,0.4,0.4,0.7,0.4,0.7c0.4,0,1.1-0.1,1.5-0.1h0.4l-0.4,0.1c-0.4,2.2-0.4,4-0.7,6.3l-1.1,1.4c-1.1,1.9-2.2,3.3-3.4,5.2
			c-2.6-3-5.2-6-7.9-8.6c-0.4-0.4-0.4-0.8-0.4-1.1C461,435.8,461,434.3,461,432.8z M458,434.3c0,0,1.3-0.4,1.3-0.7
			c0.4,0,0.7-0.4,1.7-0.4c0,0.7,0,1.9,0,3c-1-0.4-1.3-0.4-1.7-0.4c0-0.4-1.3-0.4-1.3-0.7C458,435,458,434.7,458,434.3z M456.1,432
			c0.7-0.7-0.1-0.7,1.9-1.1c0,0.1,0,0.2,0,0.4v0.4c0,0.7,0.4,0.4,1.1,0.4c-0.4,0.7-0.6,1.1-1,2.2l-0.7-0.7
			C457.1,433.2,456.5,432.4,456.1,432z M450.6,432c0-1.1,0-1.9,0.4-3c0.4,0.4,0.4,0.7,0.7,0.7l1.1,1.5c-0.4,0.4-0.7,0.4-1.1,0.4
			C451.3,432,450.9,432,450.6,432z M449.1,358c1.1,0,1.9,0,2.6,0c1.5,0,2.6,0.1,4.1,0.1c-1.1,0.7-2.6,1.2-4.1,0.8
			C450.6,358.9,449.8,358,449.1,358z M447.6,431.2c0.4,0,0.4,0,0.7-0.4c0.4,0,0.7,0,1.1-0.4c0,2.2-0.4,3.5-1.1,4.5c0,0,0,0-0.4,0
			c0-1-0.4-1.5-0.4-2.2C447.2,432.4,447.6,431.6,447.6,431.2z M446.4,429.1c0-0.4,0.4-0.3,0.4-0.3c0.7-0.4,1.1,0.2,1.5,0.2
			s0.4,0,0.4,0c0.4,0,0.4-0.5,0.4-0.2c-0.4,0-0.4,0-0.7,0c-0.4,0.4-0.7,0.3-1.1,0.6C447.2,429.5,446.8,429.1,446.4,429.1z
			 M435.2,426.5c0.4,0,0.4,0.5,0.7,0.5c0.4,0.7,0.4,1.3,0,1.3h-0.4C435.6,428.2,435.2,427.2,435.2,426.5z M428.5,360l-0.5,0.2
			c0-0.7,0-2.2,0-2.2s0.1,0,0.5,0c0.7,0,0.7,0,0.7,2C428.9,360,428.9,360,428.5,360z M415.1,362.5c0,0,0.4-0.8,0.4-1.1
			c0.4,0.7,0.7,1.3,0.7,1.7l0.3,0.9h0.5l0,0C415,363.2,415.5,362.8,415.1,362.5z M410.9,412c0,0,0-0.6,0.4-0.6
			c0.4-0.4,0.4-0.6,0.7-0.9c0.4,0,1.1,0.2,1.5-0.2c-0.4,0.7-0.7,1.7-1.5,1.7C411.7,412,411.3,412,410.9,412z M410.2,405.4
			c-0.4,0.4-0.7,0.6-1.1,0.6h-0.4c0-2,0.4-0.6,0.4-1c0.4-0.4,0.7-1.4,1.1-2.1l1.1,1.9C410.9,405.1,410.5,405.4,410.2,405.4z
			 M408.3,407c0.4-0.4,0.4-0.4,0.7-0.4c0.4-0.4,0.7-0.4,1.1-0.4c0,0,0-0.4,0.4-0.4l-0.4,1.1l-1.1,1.5l-0.7,1.5
			C407.6,408.9,407.6,407.7,408.3,407z M408.3,404c0.4,0,0.4-0.4,0.7-0.4c0,0,0.1,0,0.2-0.1l0.2-0.3c0,0.2-0.1,0.3-0.2,0.3l-0.2,0.4
			l-0.7,1.5l-0.7,1.5l-0.4,0.7c0-1.1,0-1.9,0.4-2.6C407.9,404.7,407.9,404.4,408.3,404z M402.3,373l-0.7,3.4l-0.4,0.3
			c-0.7-3-0.7-3.7,0.4-3.7C401.6,373,401.9,373,402.3,373z M400.5,387.9l1.1,1.7c-0.4,0-0.4,0.5-0.4,0.5s0,0,0.4,0l0.4,0.3
			c0,0.4-0.4,0.4-0.4,0.4c-0.7,0.4-1.1,0.7-1.5,1.1C399.3,390.2,399.3,389.3,400.5,387.9z M396.3,392c0.4-1,0.3-2.8,1-3.5
			c0-0.7,0.6-1.3,0.6-1.7c0,1.5,0,3,0,4.1c0,0.4-0.2,1.1-0.5,1.1S396.7,392,396.3,392z"/>
	</g>
</g>
</svg>
