<?xml version="1.0" encoding="utf-8"?>
<!-- Generator: Adobe Illustrator 18.1.1, SVG Export Plug-In . SVG Version: 6.00 Build 0)  -->
<svg version="1.1" id="Warstwa_1" xmlns="http://www.w3.org/2000/svg" xmlns:xlink="http://www.w3.org/1999/xlink" x="0px" y="0px"
	 viewBox="0 0 1920 1080" enable-background="new 0 0 1920 1080" xml:space="preserve">
<g>
	<g>
		<path fill="#F6F6F6" d="M999.6,434.2c-0.9-1.3-1.7-3-2.6-4.8c-1.7-3.5-3.5-7.4-5.2-8.7c-0.9-1.3-2.6-2.2-4.4-3.5
			c-1.7-1.3-3.9-2.2-6.1-3c-1.7-0.9-3.5-0.9-5.2-1.3c-2.2-0.4-3.9-0.9-4.8-0.9c-1.7,0-4.8,1.7-5.2,2.6s-1.7-2.2-1.3-4.8
			c0.4-1.3,1.7-3,2.2-3.9c1.3-2.6,1.7-5.7,0-8.3c-1.7-2.6-2.2-2.2-3.5-2.2s-1.7,0-3.5,1.7c-0.4,0.4-0.9,0.4-1.3,0.9v4.4
			c0.4,0,3,2.2,0.9,13.9c-0.4,2.6,2.2,7.4,2.6,8.7c0,0.9,0.4,2.2,1.3,3.9c0.4,1.7,1.3,3,1.7,3.9c1.3,1.7,3.9,3,5.7,7.8
			c0.4,1.3,2.2,9.1,2.6,17c0,2.2,1.3,13.1,0.9,18.3c-0.4,5.2-1.3,7.4-1.3,7.8c0,0.9,3.9,0,3.9,0s-1.7-4.4-1.7-8.7s0-16.1,0-17.8
			c0-3.9-0.4-5.2-0.9-8.7c0-2.2-0.4-3.9-0.4-4.8c0-4.8,2.6-6.5,4.4-4.8c1.3,1.3,0.9,2.2,0.9,4.8c0.4,3-0.4,9.1-0.4,12.2
			c0,3.5,0,2.6,0.4,10.9s0.9,17.8,0,17.8c-0.9,0.4,2.6-0.9,2.6-0.9s-1.3-1.3-1.3-10s0.4-13.1,0.4-16.1c0-13.1,1.7-14.4,2.6-15.7
			c0.4-0.9,0.9-1.3,1.3-1.7c0-0.9,0.9-0.4,1.7,0.4c1.3,0.9,2.6,0.9,4.8,1.7c1.7,0,3,0.4,4.4,0.4c2.6,0,4.8-0.4,5.7-0.4
			C1002.6,442.5,1002.2,439,999.6,434.2z"/>
		<path fill="#F39200" d="M958.7,398.1c0.4,0.9,1.3,2.6,0.4,4.4l-16.1-4.8L958.7,398.1z"/>
		<path d="M963.5,398.6c0.4,0,0.9-0.4,0.9-0.4c0-0.4-0.4-0.9-0.9-0.9s-0.9,0.4-0.9,0.9C962.6,398.1,963,398.6,963.5,398.6z"/>
	</g>
	<g>
		<path d="M895.6,381.9c-3.7,5.8-4.2,9.6-2.7,9.6c1.1,0,3.7,0.5,6.9,0.5c1.1,0,3.2,0,4.8-0.5c2.7-0.5,4.8-1.1,5.8-2.1
			c1.1,0,1.6-0.5,2.1-1.1c-3.2-0.5-11.7-4.8-12.2-15.9c-0.5,1.1-1.1,2.1-1.6,3.7C897.7,377.6,896.7,379.8,895.6,381.9z"/>
		<path fill="#F2F2F2" d="M945,341L945,341c0-0.5,1.1-1.1-0.5-3.7c-1.6-2.7-3.7-3.7-5.3-3.2c-1.6,0-2.7-0.5-4.8,2.7
			s-0.5,7.4,1.1,10.1c0.5,1.1,3.2,3.2,3.2,4.8c0.5,3.7-1.6,6.9-2.1,6.4c-0.5-1.1-4.2-3.2-6.4-3.2c-1.6,0-3.7,0-5.8,0.5
			s-4.2,1.1-6.4,2.1c-2.7,1.1-5.3,2.1-8,3.7c-1.6,1.1-3.7,2.7-5.3,3.7c-1.1,1.6-2.7,4.8-4.2,8c0.5,10.6,9.6,14.9,12.2,15.9
			c0.5-0.5,0.5-0.5,0.5,0c0.5,0.5,1.1,1.6,1.6,2.7c1.1,1.1,3.2,3.2,3.2,18.6c0,3.7,0.5,9,0.5,19.7s-1.6,12.7-1.6,12.7
			s4.2,1.6,3.2,1.1c-1.1-0.5-0.5-11.7,0-21.8c0.5-10.1,0-9,0.5-13.3c0-4.2-0.5-11.2-0.5-14.9c0-3.2-0.5-4.2,1.6-6.4
			c1.6-1.6,4.8,0.5,4.8,6.4c0,0.5-0.5,3.2-0.5,5.8c-0.5,3.7-0.5,5.8-0.5,10.6c0,2.1-0.5,16.5-0.5,21.8s-2.1,10.6-2.1,10.6
			s4.8,0.5,4.8,0s-1.1-3.2-1.6-9.6c0-6.4,1.1-19.7,1.6-22.3c0-10.1,2.1-19.1,2.7-20.7c2.1-5.8,5.3-8,6.9-9.6
			c0.5-1.1,1.6-3.2,2.1-5.3c1.1-1.6,1.6-3.7,2.1-4.2c0-2.1,2.1-7.4,2.7-10.6c1.1-5.3-1.6-10.6-3.7-12.7c-1.1-1.6,1.1-2.7,1.1-2.7
			l0,0C941.8,342.6,943.9,341.5,945,341z"/>
		<path fill="#F39200" d="M945,341c-1.1,0.5-3.2,1.6-3.7,3.7l18.6,8.5L945,341z"/>
		<path d="M939.7,338.3c0,0,0.5-0.5,0.5-1.1l-0.5-0.5c-0.5,0-1.1,0.5-1.1,0.5C938.6,337.8,939.2,338.3,939.7,338.3z"/>
	</g>
	<g>
		<path fill="#3F3829" d="M813.9,515c0.2-0.4,0.4-0.6,0.5-0.9c-0.1,0.3-0.2,0.6-0.3,0.9C814.1,515,814,515,813.9,515z"/>
		<path fill="#3F3829" d="M847.8,538c0.1,0.1,0.3,0.1,0.4,0.2C848,538.2,847.9,538.1,847.8,538z"/>
		<path fill="#3F3829" d="M965.3,437.6c0-0.2,0-0.3,0-0.5h1c0,0.5-0.5,0.5-0.5,1C965.3,438.1,965.3,438.1,965.3,437.6z"/>
		<path fill="#3F3829" d="M799.4,489.1c0-0.1-0.1-0.1-0.1-0.2C799.4,489,799.4,489,799.4,489.1z"/>
		<path fill="#3F3829" d="M1052.8,495.9L1052.8,495.9C1052.8,495.9,1052.8,496,1052.8,495.9C1052.8,496,1052.8,495.9,1052.8,495.9z"
			/>
		<path fill="#3F3829" d="M807.4,441.1c0,0,0.5,0,1,0.5c0,0.5-0.5,1-1,2c-0.5-1-1-1.5-1-3C806.4,440.6,806.9,441.1,807.4,441.1z"/>
		<path fill="#3F3829" d="M1023.1,438.6c-0.8,0.4-1.5,1-2.5,1.6l0,0c1-0.5,1.5-1.5,2.5-2c0.4-0.2,0.7-0.4,1-0.6c0,0,0,0,0,0.1
			L1023.1,438.6z"/>
		<path fill="#3F3829" d="M926,595.5c0-0.8-0.1-1.5-0.1-2.2c0.2,0.4,0.2,0.8,0.4,1.2c-0.1,1.9-0.1,3.6-0.2,4.9c-0.1-0.1,0-0.2,0-0.4
			v-3.5H926z"/>
		<path fill="#3F3829" d="M801.5,499.6c0.2-1.5,0.7-3.3,1.4-5.2c0.5-0.5,0.5-1,1-1.5l-1,2L801.5,499.6z"/>
		<path fill="#3F3829" d="M926.1,585.5l0.4,1.8c0,1.8-0.1,4-0.2,6c-0.2-0.4-0.4-0.8-0.5-1.2C925.9,589.1,926,587,926.1,585.5z"/>
		<path fill="#3F3829" d="M1056.3,438c-0.5,0-1.5,0-2.5,0l2.5-1h1c-0.2,1-0.3,1-0.4,1S1056.6,438,1056.3,438z"/>
		<path fill="#3F3829" d="M780.3,477.8c1-0.5,2-0.5,4-1c-0.5,1-0.5,1-1,1.5c0.5,0,1,0,1.5-0.5c-1,1-1.5,2-2,3c0.5,0,1,0.5,1.5,0.5
			c-0.5,0-0.5-0.5-1-0.5c1.5-1,2.5-2.1,3.5-3.1c1.5,2,0,4.9-2,5.9c1.5,0,2.5,0.3,3.5,0.3c0.5,0,1,0,2,0l-0.3,0.9v0.5
			c2,0.5,1.9,1,2.9,1c0-1.5,1.4-2,2.9-2.5c0-0.5,0.5-0.5,1-0.5c-0.5,1-0.5,1.5-1,2.5c0.5,0.5,1,1,1.5,1c0-1,0.5-2.5,0.5-3.5l2.5,4
			c0.5,1,0.5,2,0.5,2.5c-0.8-0.4-1.3-0.5-1.5-0.8c0.5,1.8,0.9,1.7,2.9,0.8l0.2,1.5l0.6,1.5v0.5l1,0.5c0.5,1.5,0.4,3-0.1,4.5
			c0,0.5-0.5,1-1,1.5s-1,1-1.5,1c0-0.4,0.1-0.8,0.1-1.3l-0.1,0.3c-1,2-2.4,3.5-2.4,5c0,0.5,0,1.5,0,2.5c0-0.5,0.4-1,0.9-1.5
			c0.5,0,1.4-0.5,1.9-0.5s1,0.5,1,1c0.5,0,0.5,0.5,0.5,0.5c0,0.5,0,1-0.5,1.5c0,0.5-0.5,0.5-1,1c-1,1-2.5,0.5-3.5,1.5h4.5h0.5
			l-0.5,0.5c-0.5,2.5-1,5-1.5,7.5c1,0.5,1.5,0.5,1.5,1c0.5,0,1,0,1-0.5c0.5-0.5,0.5-1,0-2c0-1.5,0.5-3,1-4.5c0.5-0.5,0.5-1,1-2
			c0.5-0.5,1-1,1.5-1c0.5-0.5,1-0.5,1.5,0c-0.5,1-1,1.5-1.5,2.5l-1,1c0,0,0.5,0,0.5,0.5l0.5-0.5c0.5-0.5,1-1,1.5-2
			c0.5,0.5,1,0.6,1,1.1c0.5,0,0.5,0.6,1,0.6c0,0.5-0.5,0.7-0.5,1.7h0.5c1.5-1,3-2.8,4-3.8c-0.2,1.4-0.3,2.1-0.5,2.9
			c0.3-0.5,0.7-1,1-1.6l0.5-0.5l1.5,2c-0.5,0.5-1,1-2,1c-0.4,0-0.8,0-1.2,0c-0.4,1-0.9,2-1.8,2c0.5,0,0.6,0,0.6,0c0,2,0,2,0,3.1
			c1-0.5,2-1.1,2.5-1.1s0.5,0,1,0c0.5,1,1,1.5,1.5,2.5c0-1,0-1.5,0.5-2c1.5,2,0,4-3,4.5c0.5,0.5,1,1,1,1.5c0.5,1,0.5,2,0.5,3
			c0.5-2.5,1-4,3.5-3.5c0.5,0.5,0.5,1.5,0.5,2.5c0.5-2,1.5-3.5,3-3.5l3.5,5c-0.5,0.5-0.5,0.5-0.5,1c-1,0.5-2,1-2.5,2
			c3,0.5,5.5,1.5,6,2c0,0.5,0.5,0.5,1.5,1c1.5,0.5,4,0.5,6.5,1c-0.5-1-0.5-1.5,0-2c0-1,1-2,2-3c0,1,0.5,2,0.5,2.5
			c-0.5,0.5-1,0.5-1,0.5c0.5,0.5,1,1.1,1.5,1.6c0,0,0,1.2-0.5,1.2h1c2.2,0,4.5,0.7,5.7,1.2c-0.2-0.2-0.2-0.7-0.6-1
			c2-1.5,4.6-1,7.1-1l0.7,0.5c0,0.5,0,1.5,0,1.5c-2,1-2.2,1.5-2.7,2c-1.5,1-2.3,1-3.3-0.5c0,0.5,0,0.5,0,1s0.6,0.5,0.6,1
			c-0.5,0-0.5,0-0.5,0.5c0,0-0.5,0-0.5,0.5c0.5,0.5,0.5,0.5,1,1c-0.5,1-1,1.5-1.5,2c0,0.5,0,0.4-0.5,0.4h1c0.5,0,0.5,0.1,0.5-0.4
			c0.5-0.5,1-0.4,1.5-0.9c0,0,0-0.1,0.5-0.6c0,1,1,0.9,1,1.9h1.5c-0.5-1-1-0.9-1.5-1.4c0-0.5,0-1.4,0.5-1.9c0.5-1,1.5-2.1,3-3.1
			c1,2.5,1.5,5.4,2,6.4h1h2c0-1-0.5-1.4-0.5-1.9c0.5-2,1.5-2.9,3-3.9c1-0.5,2-1,3.5-1c1.5-0.5,1.4,0.5,0.9,1c-1.5,2-2.6,4.5-4.6,6
			v1.5c3-2.5,4.1-4.5,6.1-7c1,1,1.6,1,1.6,1.5c0.5,0.5,0.5,1,0,2c0,0.5-0.5,0.5-0.5,1.5c-1.5,1.5-2.5,3.5-3.5,5.5l4-5l1.5-2
			c0.5,0,0.5,0,0.5,0.5c0.5,0,0.5,0,0.5,0.5c1,1,2,1.5,2.5,3.5c0,0,0.5,0.5,0.5,1c1,0.5,2,0.5,2.5,1.5c2.5,2,4.5,5,7,7
			c1.5,1.5,1,2.5,0.5,3.5c-1,1-2,2-2.5,3.5c0,0.5,0.5,1,0.5,1.5c0.5,0,1.5,0,2-0.5c0.5-1.5,1.5-3,2.5-4.5c0.5,0.5,1.5,1,1.5,1.5
			l1.5,1.5l2.5,3l2.5,2.5c3.5,4,7,8,11.1,12.1l2,2.5l2,2l4,4.5l1,1l1.5,1.5l2.5,3l1.5,1.5l0.5,1l1.6,1l0.6,1c0.2,0.2-0.3-0.2,0.7-1
			V599l-1.2-1.5l-1.8-1l-0.5-1L921,594l-2.5-3l-1.5-1.5l-1-1l-4-5l-2-1.5l-2-2.5l-1.5-1.5c-1.5-1.5-3-3-1-5c1-1.5,1.5-3,2.5-4
			c0.5-1.5,1.5-3,2-4.5l0.5-0.5c0.5,3,0.5,4.1-0.5,6.1c0,0-0.5,0.6-0.5,1.1c-0.5,0.5-0.5,1.7-0.5,2.2c-0.5,1,0,1.8,1,1.8h0.5
			c0,0,0.5-0.8,1.5-1.8s2.5-3.8,2-4.8c-2-3.5,0-6,1.5-9.1l0.5,0.5l1,0.5c0.5,0.5,1,1,1.5,1.5l0.5,0.5c1,1,1.5,1.5,2,2
			c1,2,1,3.5,0.5,5.5c0,1-0.6,2.5-0.6,3.5c-0.5,3-1,5.5,0,8.5v0.5l-0.5-0.5l0.5,1c0.5,1,1,2,1.5,3.5l0.5,1.5l1.5,2.5
			c0.3,0.8,0.7,1.8,1.1,2.8c0-0.4,0-0.9,0.1-1.3c-0.1-0.3-0.2-0.7-0.2-1c-0.5-0.5-1-1.5-1-2.5c-0.5-1-1-2-1.5-3
			c-0.5-1.5-0.5-3.5,0-5.5c0,0,0.5-0.5,0.5-1l-0.5,0.5c0,0.5-0.5,1-0.5,1.5s0,0.5-0.5,1c-1.5-3-1.4-8.5,0.6-10.6
			c0,0.5,0.6,1.5,0.6,2c0.5,0.5,0.7,1,0.7,1.5c0,1.5,0,3.1,0,4.1c0,0,0.1,0,0.6,0c0,0,0,1,0.5,1.5l1,5c0.4-6,0.5-3.1,0.4,1.8
			l0.2,0.7l0.9,3l0.5,2.5c0,1,0,1.5,0,2.5l0,0v-0.5l-1.2-1.5c-0.1-0.3-0.5-0.5-0.6-0.8c0,0.4,0,0.9,0,1.3c0.2,0.5,0.4,1,0.5,1.5
			l0.6,0.5c0,0.5,0.7,1,0.7,1c0,0.5,0,1,0,1.5s-0.6,1-0.6,1.5l-0.7-0.5c-0.3-0.3-0.6-0.4-0.8-0.6c-0.1,0.4,0.1,0.8,0.1,1.1v6
			c0-0.5,0.6-0.5,0.6-0.5c0.5,0,0.5,0,1,0s-2.8,737-1.7,740c2.5,0,9.4,0,12,0c0.5-1-0.2-739.2,0.3-739.7c0,0.5,0.5,0.7,0.5,1.7
			c0.5-1,0.5-1.5,0.5-2s0.5-1,0.5-1c0-0.5,0-1.5,0.5-1.5c0.5-0.5,0.5-1,1.5-1.5c0.5-0.5,1-0.5,2-0.5c-0.5,0-1-0.5-1.5-1
			c3.5-4,7.5-8,11.1-11.6l13.1-13.6l3.5-3.5l2-2l2.5-3l3.5-3.5l4-4l1,2l1,4l1-1.5c0-1.5-0.5-3-1-5c0-0.5,0-1.5,0.5-2
			c1.5-2,3-3.5,4.5-5l2.5-2l0.5-0.5c0.5-1,1.5-2,2.5-3c0.5,0.5,1,1,1,1.5c1,1.5,2,3,3,4.5l1.5-2c0,0,0,0,0-0.5
			c0-2.5,1.5-4.7,2.5-8.7c0,0,0,0,0.5,0c0.5,1,1,2.6,1.5,4.1l2-2.4c-0.5-0.5-0.6-1-1.1-1c-0.5-1-1.5-2-1.5-3c0-0.5,0-1.5,0-2
			c0-1,2-1.9,3-2.9c0.5-0.5,1-0.9,1.5-0.4c1.5,0.5,3.1,0.7,4.6,1.7h1c-1.5-1-3-1.7-5-2.7c2.5,0,5-0.2,7.5-0.7c0,0.5-0.5,1.1-0.5,1.6
			l2-0.9c0-0.5,0.5-0.3,0.5-0.3h0.5l0.5-0.7c0-0.5,0-1.7,0.5-2.2c0.5-1.5,0.9-2.5,1.4-3.5c0.5-2,0.4-3.5,1.4-5v-0.5l0.6-0.5
			c2,0,1-1.5,1-2.5c0.5-0.5,0.5-0.5,0.5-0.5c1,2.5,1.5,4.5,2.1,6.5c0.5,0.5,0.6,1,1.1,1.5c0,0.5,0.5,1,0.5,1.5l2.2-1c0,0,0-0.5,0-1
			c0-2-0.2-4,0.9-6c0-0.5,0.8-1,1.3-1c0,0,0.5,0.5,0.5,1c0.5-0.5,0.5-1.5,1-2c2,1.5,4,2.5,6,4l2.5-1.5c-1.5-1.5-3-3-4-4.5
			c-1-0.5-1-1.5-1.5-2.5c0.5,0,0.5-0.5,1-0.5c0.5,0.5,1,1,1.5,1.5c1.5,0.5,3.5,1,5,1.5c0-0.5,0.4-0.5,0.4-0.5c-1-0.5-1.6-1-2.6-1
			c0-1,0-2,0-3.5c0,0.5,1.1,1,1.1,1.5c0.5-0.5,0.6-0.5,1.1-1c1.5,2.5,1,5.5,0.5,8l3-1.5l1-0.5c0-1.5,0-2.5-1-3.5
			c-0.5-0.5-0.5,0-0.5-1h0.5c2,1,2.5,2,3,3.5l2-3c-0.5-0.5-1-1-1.5-1c-0.5-0.5-1.5-0.5-2.5-1c-0.5-0.5-1-1-1-2c-0.5,0-0.5-0.5,0-1
			c0-0.5,0.5-1.5,1-2s1.4-1.5,0.9-2c-0.5-1,2.3-2.5,0.3-4v-0.5c0-1,0.7-1,0.7-1.5c0.5-0.5,0.6-1,1.1-1.5c0,0.3,0,0.7,0,1
			c0.5,0.5,1,0.5,1,1c1.5,1,1.5,2.5,0.5,4l-0.5-1c0-1-0.5-2.5-1-3.9c0.1,2.6,0.5,4.8,1,7c0.5,1,0.5,2.5,1,3.6c0,1.5-0.5,3.1,0,4.6
			l1.5-1.9c0-2-0.5-5.3-0.5-6.3h0.5c0.5,0,0.7,2,1.7,3c0,0,0,0,0-0.5c0-2-0.7-4.5-0.7-7c0-0.5-1.3-1-1.3-1.5c0,0,0,0,0-0.5
			c-2-1.5-2.3-1.5-0.8-4.6c0-0.5,0.6-1.5,1.1-2c1.5,0.5,1.5,1.5,1,3c0.5-0.5,1-0.6,1.5-1.1l0.5-0.7c0.5,1.5,1,3.1,1.5,3.1h1
			c0.5,3,1.1,4.4,1.1,6.4v0.5l2.2-3c-0.5-0.5-0.9-1-1.4-1.5c0.5,0,0.4,0,0.9-0.5c0,0.5,0.3,1,0.3,1.5v-0.5c0,0,0,0,0-0.5
			c-1-1.5-2-3.5-3-5.5c-1-1.5-2.1-2.5-2.6-4c-0.5-1-1.4-2-1.4-3V484c1,1,1.4,2,1.9,3.5l0.9-0.5c-0.5-1-0.5-2-1-3c0-1,1-1.5,1-1.5
			c0.5,0,2,0.5,2,1c1,1,1,2,1.5,3.5c1-0.5,1.5-0.5,2-1c0.5,0.5,0.5,1,1,2c-0.5-2.5-1-4.5-3.5-5.5c2,0,3.5-0.5,4-2.5
			c-1.5-0.5-3.5-0.5-5,0s-2.5,0.5-2.5-1.5c-0.5-0.5-0.5-0.5-1-1c0-0.5,0-0.5-0.5-1c-0.5-1.5-0.5-2.5,0-4c0,0,0.5,0,0.5-0.5
			c0.5,0,0-0.5,0.5-0.5c0.5,0.5,1,1,1.5,1.5c0,0,0.5,0,0.5-0.5c0.5,1,0.5,1.5,1,2.5c0.5-3-1.5-5-3-8l5,0.5c-0.5-1.5-0.5-2.5-1-3.5
			c-0.5,0.5-1,0.5-1,0.5c-0.5,0-0.5-1-1-1c3.5-1.5,0.5-3.5,0.5-5c0,1-0.5,2-1,2.5c0,0-0.5-0.6-1-0.6s-1,0.4-1.5,0.4s-0.9,0-0.9,0
			s0-1.3,0-1.8c0,0,0,0,0,0.5V459c2,0,1.9-0.5,2.9-0.5c-0.5-1-0.6-2-0.6-3c0.5,1,3,0.5,2,3c0.5-1,1.5-2,2-3c0.5,0.5,0.5,1,1,1.5
			c0-1.5,0-1.5-4.5-3.5c2.5,0,4.5-1.5,7,0.5c0,0,0.5-0.5,0.5-1c-1.5-0.5-3-1.5-5-2.5c0,0,0.5,0,0.5-0.5c-1,0.5-2.5,0.5-4,0.5
			c1-1.5,1.5-2,2-3c-1-0.5-1.5-0.5-2.5-1c3-0.5,4.6-0.5,7.6-1c0-0.5,0,0.4,0-0.6c-1,0-2.1,0-2.6,0c-1.5,1-3.2,0.8-4.7-0.2
			c0,0-0.8-0.7-1.3-0.7c0-0.5-0.4-1-0.4-1.5s0-0.5,0-0.5c0-0.5,0-0.5,0-1v-1c1-0.5,0.5-1.5,0.5-2.5c0,0,0.5-0.5-0.5-0.5v-0.5
			c0,0,0-0.5-1-1c0,1.3,0,1.9,0,3c0,0.2,0,0.4,0,0.4s0.2,0,0,0s-0.3,0.7-0.6,1.1c-0.5,2-1,4.1-2.5,5.6c-0.5,0.5-1,1.5-1.5,2
			c-0.5-0.5-0.5-0.5-0.5-0.5c0.5-0.5,1-0.9,1.5-1.9c-1.5,0-3.5-0.3-4.5-0.3h-1c0.5-1,0.5-0.7,1-1.2c1-1,2.5-0.7,4,0.3
			c0-0.5,0.4-0.5,0.4-0.5c-1-1-2.2-2-3.2-3V438h3.8c-1.5,0-3.5,0-5-1l-0.5-0.5c-1.4,2.4-4.2,1.6-6.2,1.9c-0.1,0-0.2,0.1-0.3,0.1
			c0.1,0,0.2,0,0.3-0.1c0.4-0.1,0.9-0.5,1.7-0.9c0-1-0.5-2-0.5-3.5c-3.5,5-6.5,3-9.1-0.5c1-1,4-1.5,3-4.5c-0.5,2.5-2.5,3-4,3.5
			l-0.5,0.5c-0.5-1.5-0.5-3-3-3c0.5,1.5,1,2,1.5,3c0,0.5-0.5,1.5-1,1.5c-1,0.5-2,0.5-3,1.5c-1,0-2,0-3.5,0c0,1,0.5,1,0.5,1.5
			c0.5-0.3,0.9-0.4,1.5-0.4c0,0,0,0.5,0.5,0.5c-1,0.5-2,1-3,1.5c-0.5,0.5-1.5,1-2,1.5c-0.3-0.3-0.4-0.4-0.5-0.5
			c-0.3,0.2-0.7,0.3-1,0.5c0-0.5-0.5-1-0.5-1.5c-0.5,0.5-1,1-1,0.5c-2.5-1-3,1.5-4.5,2.5c-1,0.5-1.5,1.5-3.5,1c1-0.5,1.5-0.5,2-1
			c-0.5-1-1-2-1.5-3c1.5,1,3,1.5,4,0c-0.5-0.5-1.6-0.5-2.6-1c2-1.5,4-3,6-4.5v-0.5c0,0-0.9,0.4-1.5,0.4c-1.5,2-3.5,2.4-5.5,3.4
			c-4,2-8,0.4-11.5,1.4c-0.5,0-3.5-0.3-7.5-1.3h-0.5c-1,0-1.5,0-2.5,0c-0.5,0-1.5,1-2,1s-1.5-1-2.5-1h0.5l-1-1h-1
			c-2,0-3.5-0.5-5-0.5c-1,0-2.5-0.5-3.5-0.5s-2,0-2.5,0c-1,0-1.5,0-2,0.5c0,1-0.5,1.5-0.5,2.5c-1-1-1.5-1.5-2-2c-0.5,0.5-0.5,1-1,1
			h1.5c-0.5,1-0.5,1-0.5,3c0,0-0.5,0-1,0c-0.5-2-0.3-1.4-1.3-1.4c0-0.3,0-0.7,0-1c0-1-1-1.5-1-2.5c0-2.5,0-4.1,0-6.1l0,0
			c0,2,0,4.1,0,6.6c0,1-0.6,2.5-1.1,3.5c-0.5,0.5-1.1,1-2.1,1c-0.5,0-1.5,0-1.5,0c-2,0-4,0.5-6,0c-0.5-0.5-1.5-1.5-2.5-1.5
			c-0.5-0.5-1-0.6-2-0.6c0.5-1.5,2.5-2.8,4.5-3.8h0.5c1.5,0,3.5-2.7,3-4.2c0,0-0.5-0.2-1-0.2s-1,0.5-1.5,1c0.5,0.5,1,0.5,1.5,1
			c-1,0-1.5,0-2.5,0.5s-2,1.5-3,2.5c-1,1.5-3,2.5-4.5,3.5c-0.5,0-2,0.1-2.5-0.4c-0.5,0-1-0.4-1.5-0.4s-1-0.3-1.5-0.3h-0.5
			c-0.5,0-1-0.2-1.5,0.3c-1,0-1.5-0.2-2.5,0.3c-2.5,1-5.5,2.5-8,0.5c-0.5,0-0.5,0-1,0c0.5,0,0.5,0.5,1,0.5c0.5,0.5,0,1,0,1.5
			c-0.5-0.5-0.5-0.6-1-0.6c-0.5-0.5-1-2.3-2-2.3c-0.5,0-0.6,0-0.6,0v1.1c0,0.5,0.5,0.5,1,1c-0.5,0.5-1,0.5-1,0.5c-0.5,0-0.5,0-1-0.5
			l-0.5-0.5c-0.5,0-1-0.5-1.5-0.5c0,0.5,0.5,1,0.5,2l-0.5-0.5c-1-0.5-2-0.5-2.5-0.5c-1,0-1.5-0.4-1.5-0.4c-0.5,0-1-0.4-1-0.4
			c-0.5-0.5-1-1.3-1-1.3h-2c-0.5,0-1,0.4-1,0.9c-0.5,0-1.5-0.1-2-0.6l-0.5-0.3c-0.5,0-0.5,0-1,0H908c0,0,0,0.1,0,1.1
			c-1-0.5-2-1.1-3-1.1h-4c-2,0-3,1-4,3h-0.5c-0.5,0-1.4-1.9-1.4-2.4v-1c-1,0-2.1,0-3.1,0c0,0,0,0,0.5,0c-0.5,0-0.5,0-0.5,0
			c-0.5,1-1,0.8-1.5,0.8c-1,0-2,0.3-2.5-0.2c0-0.5,0.5-1.5,0.5-2.5c0,0-0.5-0.5-1,0c-1,0.5-2,1.5-3,1.5c-1.5,0.5-3.5,0.5-6,0
			c0,0-0.5-0.5-0.5-1c-0.5,0-1.5,0-2,0.5c0.5-1.5,1-2.5,1.5-3.5c-0.5,0-0.5,0-0.5-0.5c-0.5,1-1,2-1.5,3c-1,0-2.5-1-1.5,1h-0.5H873
			h-2c-1,0-1.5,0-2.5,0h-5l-4.5-1h-0.5c-0.5,0-1.5,0.3-2,0.3c0.5,0.5,0.5,1.3,0.5,2.3c-1.5-1-4.5,0-5-3.5c0,0.5-0.5,0.5-0.5,1
			c1,1,2.5,2,3.5,3.5c-1,0.5-2,0.5-2.5,0c-1-1-1.5-1.5-2-2.5l-0.5,0.5c0,0.5,0.5,1,0.5,1.5c-0.5,0-1,0-1.5-0.5c0.5,1,1.5,1.5,2,1.5
			c-0.5,0.5-0.5,0.5-0.5,0.5c-1,0-2-0.5-3-0.5c-1.5,0-4-1-4.5-2h0.5c-1-1-1.1-2-1.1-3c0.5-2,0.9-4-0.1-6c0,2,0,3.5,0,5l-0.4,2
			c-1.5-0.5-3-1.5-4-2c0.5-1,0.5-1.5,1-2c-0.5,0.5-1.5,1-2.5,2c0-2,0-3,0-5.1h-2c0,1.4,0,2.5,0,3.5c0,0.5,0,0.5,0,0.5
			c0,0.5-0.2,1-0.2,1c-1,0-1.2,0.5-1.7,1c-1,1-2,1.5-3.5,0.5c-2-1-5.5-1.5-7.5-2.5v0.5c0,0.5,1,0.5,2,1s2,1,1.5,2.5c0,0.5,1,1,1.5,1
			c1,0,2,0,3,0v4.6c0,0.5,2,0.5,2,1v0.5c-1-0.5-2-1-3-1.5c-1.5-1-2-0.5-2,1s-0.5,1.5-2,1.5c-0.5-0.5-1.5,0-2-0.5c1,0,1-0.5,3-1v-0.5
			c-2-0.5-4,2-6,2c-0.5,0-1,1-1.5,1c-1-0.5-1.5-1-2-2c0-1-0.5-1.5-0.5-2l0.5-0.5c0.5,0,1-0.5,2-0.5c-0.5,0-1,0-2,0h-1
			c0.5,0,0.5-1,1-1.5l1-1c-0.5,0-0.5,0-1,0.5c-0.5,0-1,0.5-1,0.5c-0.5,2-2,2-3.6,2c0,1-0.6,2-1.1,2c-0.5,1-0.7,1-2.7,1
			c0,0.5,0,0.5,0,1s0,0.5,0,1l-0.3,0.5c-0.5,0.5-0.3,0.5-0.8,1l-1,1c-0.5,0.5-0.5,1-1,1.5c0,0-0.5,0.5-1,0.5c-0.5,0.5-1.5,0.5-2.5,0
			c-0.5-0.5-1-1-2-1.5c0,0.5-0.6,0.5-0.6,0.5c0.5,0.5,1.3,1,1.3,1.5v0.5c0,0,0,0-2-0.5c0,0.5,0,1,0,1c0,1,0,2.3,0,2.3
			c-1,0-0.2,0-0.7,0c0,0-0.5,1.1-0.5,1.6c-1.5,2.5-3,5.1-5,7.6c0,0.5,0.4,0.5,0.4,0.5s0.8-0.5,0.8-1c0,0.5,0,0.5,0,1
			c1,2,0.7,4-0.4,5.5l-1.4-2.5l-1-1.5c-0.5,0.5-1.1,1-2.1,2l2.9,4v0.5c0,0-0.9,0.5-1.9,0c-1,2.5-2.9,3.5-5.9,3.5
			c-0.5,0.5-1.5,1-2.5,1.5C779.7,476.8,779.7,476.8,780.3,477.8z M1058.2,445L1058.2,445v0.6c1,0,1.4,0.2,1.4,0.2
			c0,0.5-0.2,1.2-0.7,1.2s-0.7,0-0.7,0S1058.2,446.3,1058.2,445z M1055.7,480.9c0,0,0.3-0.1,0.3-0.6v0.5c0,1,1.3,2.2,1.3,3.2
			c0,0-0.5,0-1,0C1056.3,483,1055.7,481.9,1055.7,480.9z M1050.3,482.3c1.5,1,3,1.5,3,3.5c-0.5-0.5-0.5-0.5-1-1l-0.5-0.5
			c-0.5,1.5-0.5,1.6,2,2.6h0.5l-0.5,0.9c-0.5,1.5-0.5,3.5-1,5.5c-2-2-2-3.5-1.5-5.5C1051.8,486.4,1050.8,484.4,1050.3,482.3z
			 M1047.8,440.7c0-2.5,0-2.7,1-2.7c0,0,0.5,0,1,0c-0.5,2-1,1.3-1,1.8C1048.3,439.8,1047.8,440.2,1047.8,440.7z M1028,437.6
			c0-0.5,0-0.5,0-1c1-0.5,2.7-2.6,4.2-2.6h1c1.5,1,3.5,2,5,4c-2,0-3.5,0-5,0c-1,0-2,0-3,0S1028,438.1,1028,437.6z M1026.8,514
			c0.5,0.5,1.2,1,1.2,1.5s0,1.5,0,2c0,1,0.3,2-0.2,3c-0.5-0.5-0.2-1-0.7-1C1025.1,516.5,1024.8,514.5,1026.8,514z M1017.1,528.8
			c0.5-2.5,0.5-4.8,0.5-5.8h1.5h0.5c0-1-0.5-1.7-0.5-2.2l-1-1.7c0.5-0.5,0.5-0.5,1-1s1-1,1.5-1.5c1,2,0,6-1.5,9.6
			C1018.6,527.1,1017.6,528.3,1017.1,528.8z M939.7,540.7c0,0.5,0.5,0.5,0.5,1l0.4,0.5c0,3.5,0.4,6.5-0.6,10.1v0.5
			c-1,0.5-0.3,1.3-0.3,2.3c-0.5,0-1,0-1,0c-0.5-5-0.5-8.4-0.5-12.4c0-0.5,1-1.9,1-2.4L939.7,540.7z M943.2,438.1
			c-0.5,0.5-1.6,0.5-1.6,0.5l-1.6,0.5v-0.5c0-0.5-0.3-1.6-0.3-1.6h0.5c0.5,0,1,0.5,1.5,0.5C942.2,438,942.7,438.1,943.2,438.1z
			 M945.7,548.8c-1,4.5-2.5,9.6-3.5,14.2c-0.5,1-0.5,1.7-0.5,2.7c-0.5,1.5-1,1.4-1.5,4.4h-0.5c0-4,0-7.9,0.5-11.9
			c0.5-3,1-6.4,1.5-9.4c0-2,0.5-4,0.5-6.5c1,0.5,1.5,0.5,2,1C945.2,544.7,946.2,546.8,945.7,548.8z M969.8,543.2l2,2.5
			c0.5,1,1,1.5,1.5,2.5c-0.5,0-0.5,0-0.5,0.5l-1-1l-2-1.5l-3-2.5c0.5-0.5,1.5-1,2-1.5L969.8,543.2z M978.8,538.7c0,1,0,3-1,5
			c-0.5,2-1.6,4-2.6,5.5c-0.5,0-0.8-0.5-1.3-1c-0.5-1-0.9-2.5-2.9-3.5v-0.5c-1-3-1.6-3.1,0.4-4.6l1.4-0.6h0.2l0,0c0.6,0,1.3,0,1.3,0
			c1,0,1.6,0,3.6,0v-0.8c-2,0-2.6-1.2-3.6-1.2h-0.5l0.5-0.7c0.5-0.5,1-0.2,1.5-0.7c2,1.5,2.5,3,1,5l1-1L978.8,538.7z M985.4,541.2
			c0,0.5,0,0.5-0.5,0.5c0,0-0.5-0.5-1-0.5c-0.5-0.5-1-0.1-1-1.1h-0.5c-0.5-1,0-2.4,0.5-2.9c0,0,0.5,0.1,1,0.6c0.5,0,0.5,0.5,1,1
			C984.9,539.7,985.4,540.6,985.4,541.2z M991.5,539.8c-1-1.5-1.5-2.7-2.5-4.2l-1-1.6c0.5,0,1,0,1,0c1,1,2,0.7,2.5,1.2
			c1.5,1,2.5,3.2,3,5.2c0.5,0.5,0,0.7-0.5,1.7h-1C992.5,541,992,540.3,991.5,539.8z M990.5,541.7c-0.5,0-1,0-1.5-0.5
			c-1-0.5-1.5-2-1-4c0,1,0.5,1.5,1,2.5C989.5,540.2,990,541.2,990.5,541.7z M984.9,548.5c0.5-1.5,1-3.2,1.5-4.7l2.5,1.2h1l-1,1.4
			c-1,0.5-2.5,1.9-3.5,2.9C985.4,548.7,984.9,548.5,984.9,548.5z M983.9,548.1l-0.5,1c0,0.5,0,0.9-0.5,0.9h-0.5
			c-1.5,2-3,2.1-4.5,2.6c-1-2-0.9-2.4,0.1-3.9v-0.5c0-2.5,2-4.6,3-7.1c0.5,0.5,1.4,1,1.9,1c0.5,0.5,0.5,0.9,1,0.9h0.5
			c0,0,0.5,1.1,0.5,1.6C984.4,545.6,984.4,547.1,983.9,548.1z M959.4,575.4c-2-4.5-4-9.6-6-14.1l-2.4-7c0-0.5,0-1,0-1
			c0-2.5-0.6-4.5-1.6-6.5c-0.5-1.5-0.7-3,0.3-5c0.5,1,1.5,2.1,2.5,2.6c0.5,1,0.5,1.6,1,1.6c0.5-0.5,1-0.3,1-0.8c1,1.5,2,1.9,3,4.9
			h0.5c0-1,0-1.9-0.5-2.4c1,0,1.5,0.1,2.5,0.6c0.5,0,1-0.5,1.5-0.5c0-0.5-0.5-1-0.5-1.5c-1-0.5-2.5-1-3-1.5c-1.5-1-1.5-2-0.5-3
			c1,0,1.5,1,2,1c1,0.5,2,0.5,2.5,1c1.5,0.5,3,2,4,2.5c0,0.5,0.5,0.5,0.5,0.5c1,0.5,2,1,2.5,1.5s0.5,1,1,1c0.5,1,1.5,1.5,2,2.5
			l0.5,0.5c1,1.5,1,3-0.5,4c-0.5,0.5-1.5,1-2,1c-0.5,0.5-1.1,0.5-1.1,1c-1,0-1.7,0.5-2.7,1v0.5c2-0.5,2.8-0.8,3.8-0.8h1
			c0,0,0.2,1.8-0.8,2.8v0.5v0.7h0.3c0.5-1,1-1.1,1.5-1.6c0.5-1,1-1.6,1.5-2.6s1-1.5,1-2c0.5-1,1.5-1.5,2-2l1.5-1
			c1.5-0.5,3.5-1.5,5-2.5c0,0,0,0,0.5,0.5c-0.5,0-0.5,0.5-0.5,0.5c-0.5,1-1,2-1.5,2.5l-3.5,3.5l-3.5,3.5l-2.5,3l-2,2l-3.5,3.5
			c-2,2-4,4-6,6C959.8,575.9,959.9,575.9,959.4,575.4z M937.7,596c0-2,0-3.5,0.5-5.5c0-1,0-2.5,0.5-3.5l1-4.5l0.5-2.5l1.4-5
			c1.5-7,3.4-14.6,5.4-21.6c0-0.5,0-1.2,0-1.2c1,0,0.7,0,0.7,0c0,2,0.6,3.9-0.4,5.4c-0.5,2.5,0.5,3.4,1.5,4.9
			c0.5,0.5,2.1,0.5,2.1,0.5c0-0.5,0-1,0-2c0-0.5-0.6-1-0.6-1.5c0.5,0,0.3,0,0.3,0.5l2.5,6c2,4,3.5,7.5,5,11.6c0,0.5-0.5,1-0.5,1.5
			c-1.5,1.5-3,3-4.5,4.5c-3.5,4-7.5,8-11.6,12.6l-1.5,1c0,0.5-0.5,0.5-0.5,0.5c-0.5,0-0.5,0.5-1,0.5c0-0.5-0.5-1-0.5-1.5
			C937.7,596.5,937.7,596,937.7,596z M937,571.3l1,2.5v5.1h-1C937,577,937,573.9,937,571.3z M893.4,536.4c-0.5,1-1,1.4-1.5,1.4
			s-1-0.4-1.5-0.9c0.5-0.5,1,0.2,1.5-0.8h0.5C892.4,536,892.9,536.4,893.4,536.4z M899.1,538.8c0,0.5-0.2,1.6-0.7,1.6
			c-0.5,1-1,1.7-1.5,2.7c-0.5,0.5-1-0.1-1.5,1.9c-0.5,0-0.4,0-0.4,0v-1.3c0-1.5,1.2-3,2.2-4.5C897.7,538.7,898.6,538.8,899.1,538.8z
			 M912.1,537.6c-1,1.5-1.5,3.1-2,4.6c-0.5,0.5-2,1.5-2,2v-0.5c-2-1-2.5-2-4-3c0,0,0,0.1,0.5-0.4c1,0.5,2-1.4,3,0.1
			c0-0.5,0-0.3,0.5-0.8c0.5-1,1-2.6,1.5-2.6h0.5C910.5,537,911,537.6,912.1,537.6z M920,536.8c-0.5,0.5-1.2,0.8-1.7,1.3
			c-0.5,0-1.3,0.5-1.3,1c0-1.5,0-2.2,0-3.2c1,0,1,0,1.5,0C919,537,919.5,536.3,920,536.8z M922.6,537c-1,0-1,1.7-1.5,2.7
			s-1.5,2.3-2.5,3.3H918c-0.5-1,0-1.7,0.5-2.7s1.5-1.3,2.5-3.3C921.6,537,922.1,537,922.6,537z M928.6,545c-0.5,2-1,3-1,4.5
			c0,1-0.5,2.5-0.5,2.5s-0.1,0-1.1,0v-0.8c1-1.5,1-3.5,2-5V545C928,545,928.1,545,928.6,545z M928.1,572c0-1-0.2-2.1-0.7-3.6
			c-0.5-1-0.8-2.6-0.3-3.6c0-0.5,1-1,1-1.5C928.1,566.3,928.1,570,928.1,572C928,572,928.6,572,928.1,572z M926.6,570h0.5
			c0,1,0.2,1.7,0.7,2.7c0.5,3,0.2,5.7,0.2,9.2v-0.5c-1-1-0.7-1.7-1.2-2.2C925.8,575.7,925.6,573,926.6,570z M924.5,561.9
			c0-0.5-0.5-0.6,0.5-1.1c0,1.5,0,2.2,0,4.2h-0.4h-0.5C923.6,563,923.5,562.9,924.5,561.9z M921.3,551.7c0-1,0.7-2,1.7-3.5l1-1v-0.5
			c0-0.5,0-1,0-2c0,0,0,0,0-0.5c1,0,1.3-0.5,1.8-0.5c0,0,0.8,0.5,0.8,1c0.5,0,0.5,0.5,0.5,0.5l-0.5,1c0,3-0.5,6-1,8.5
			c-0.5,1.5-1,3-1,4.5c-0.5,0.5-1,1.5-1,2.5l-0.5-1l-0.5-1c-1-1.5-1.5-2.5-1.5-3.5C920.6,554.8,920.8,553.2,921.3,551.7z
			 M920.1,550.2c-1-1.5-0.5-4.5,1-6.5c0.5-0.5,1-1.5,1.5-2c0-0.5,0.5-0.5,0.5-0.5c0.5-0.5,1-0.1,1.5-1.1c0,0,0.5,0,1,0l-1,2.1
			l-1.5,2.1l-0.5,1.5l-1.5,2.5L920.1,550.2z M917,558.3v-0.5c0-1,0-1.5,1-2v-0.5c1,2.5,1.3,4.5,1.8,7c-0.5-0.5-0.8-1.1-1.3-1.6
			s-1-1.6-1.5-1.6l0,0C917,559,915,558.3,917,558.3z M915,556.3c0-1,0.8-1.5,1.3-2.5c0-0.5,0.2-1,0.7-2c0.5,1.5,0.5,3,0,4
			c-0.5,0.5-1,0.9-1,0.9c-0.5,0-0.5,0.4-0.5,0.4c-0.5,0-0.5,0-0.5,0V556.3z M910,549.7c-0.5-0.5-0.5-1-0.5-1.5c-0.5-1.5,0-2.5,0.5-3
			c0.5-1,1-1.5,2-2c0-0.5,0.5-0.4,0.5-0.9L912,543h-1.5l1.8-2.7l1.8-3.7c0,1.5,0,2,0,3c0,1.5,0.8,3,0.8,4.5c0,2-0.8,4.5-0.8,7
			c0,2,0,4.5,0,7c0,1.5-1,2.5-2,2.5v-10.1C911,550.7,910.5,550.2,910,549.7z M891,555.3c0.5-0.5,0.6-1,1.1-1.5c0.5-1,1.1-2,2.1-3.5
			c0,0-0.2,0.5,0.8,0.5v2c0,0.5,0.2,1.5,0.2,2.5c0,0.5-0.3,1-0.8,1c0,1-0.5,2-1,2.5c0.5,0,1,0,1-0.5c1-0.5,1.5-0.5,2-1
			c-0.5-2-1-4.5-1.5-7c0-0.5,0-1,0.5-1.5c0.5-1,1-1.5,1.5-2c1-2.5,2.5-4.5,4.5-5.5c1,0.5,1.5,0.5,2,1c1,1,2,2.5,3,4
			c0.5,1,1.5,2,1.5,2.5s0,0.5,0,0.5c0,2.5-1,5-1.5,7.5c-0.5,1.5-0.6,2.5-1.1,4c1-1,1.5-2.5,2.5-3.5l0.5-0.5c-0.5,0-0.5,0-0.5-0.5
			c-0.5,0-0.5-0.5-0.5-0.5c0-1,0-1.5,0.5-2c0-1,0.5-2,0.5-3c0.5,1,1,1.5,1.5,2c1,2,1,3,0,3.5c-0.5,0.5-1,0.6-1.5,0.6
			c0.5,0.5,1,0.1,1.5,1.1c0,0,0,0,0.5,0c0,1,0,0.9-0.5,1.9s-1.5,1.9-2,2.9c-2,3-4.5,6-7,9.6c-0.5-1.5-1.5-2-2-2.5
			c-0.5-1-1-2-1.5-2.5l-0.5-0.5c-1-1-1.5-1.5-2.5-2.5c-0.5-0.5-1.5-1.5-2.5-2.5C888.9,558.8,889,558.8,891,555.3z M875.8,538.1
			c0.5-0.5,1-1,1.5-1c1-0.5,2-1.1,3-2.1c1,0,2,0,2.5,0s0.5,0.6,1,0.6c1,0.5,2,1.1,3,1.1c1.5,1,3.5,2,5,2.5c0,0.5,0.5,0.5,0.5,0.5
			c0.5,0,1.5-0.6,2-0.6h0.5l-0.5,0.6c-0.5,3-0.5,5.6-1,8.6l-1.5,2c-1.5,2.5-3,4.5-4.5,7c-3.5-4-7-8-10.6-11.6
			c-0.5-0.5-0.5-1-0.5-1.5C875.8,542.2,875.8,540.1,875.8,538.1z M872,540.2c0,0,1.2-0.5,1.2-1c0.5,0,0.8-0.5,1.8-0.5c0,1,0,2.5,0,4
			c-1-0.5-1.2-0.5-1.8-0.5c0-0.5-1.2-0.5-1.2-1C872,541.2,872,540.7,872,540.2z M868.9,537.2c1-1,1.1-1,2.1-1.5c0,0.1,0,0.3,0,0.5
			v0.5c0,1,0.9,0.5,1.9,0.5c-0.5,1-0.7,1.5-1.2,3l-1-1C870.2,538.7,869.4,537.7,868.9,537.2z M861.7,537.2c0-1.5,0-2.5,0.5-4
			c0.5,0.5,0.5,1,1,1l1.5,2c-0.5,0.5-1,0.5-1.5,0.5C862.7,537.2,862.2,537.2,861.7,537.2z M859.7,437c1.5,0,2.5,0,3.5,0
			c2,0,3.5,0.4,5.5,0.4c-1.5,1-3.5,1.4-5.5,0.9C861.7,438.3,860.7,437,859.7,437z M857.7,536.1c0.5,0,0.5,0,1-0.5c0.5,0,1,0,1.5-0.5
			c0,3-0.5,4.9-1.5,5.9c0,0,0,0-0.5,0c0-1-0.5-1.9-0.5-2.9C857.2,537.6,857.7,536.6,857.7,536.1z M856.2,533.2
			c0-0.5,0.5-0.9,0.5-0.9c1-0.5,1.5-0.3,2-0.3s0.5,0,0.5,0c0.5,0,0.5-0.2,0.5,0.3c-0.5,0-0.5,0.3-1,0.3c-0.5,0.5-1,0.5-1.5,1
			C857.2,533.6,856.7,533.2,856.2,533.2z M841.1,529.6c0.5,0,0.5,0.7,1,0.7c0.5,1,0.5,1.7,0,1.7h-0.5
			C841.6,532,841.1,530.6,841.1,529.6z M832,441l-1-0.4c0-1,0-2.6,0-3.6c0,0,0.5,0,1,0c1,0,1,1,1,4C832.6,441,832.6,441,832,441z
			 M813.7,443.6c0,0,0.7-1,0.7-1.5c0.5,1,1,1.5,1,2l0.5,0.9l0,0v0.6C815,444.6,814.2,444.1,813.7,443.6z M808.4,510
			c0,0,0-0.7,0.5-0.7c0.5-0.5,0.5-0.7,1-1.2c0.5,0,1.5,0.1,2-0.4c-0.5,1-1,2.3-2,2.3C809.4,510,808.9,510,808.4,510z M807.4,501.2
			c-0.5,0.5-1,0.8-1.5,0.8h-0.5c0-1,0.5-0.8,0.5-1.3c0.5-0.5,1-1.8,1.5-2.8l1.5,2.5C808.4,500.9,807.9,501.2,807.4,501.2z
			 M804.9,503.5c0.5-0.5,0.5-0.5,1-0.5c0.5-0.5,1-0.5,1.5-0.5c0,0,0-0.5,0.5-0.5l-0.5,1.5l-1.5,2l-1,2
			C803.9,506,803.9,504.5,804.9,503.5z M804.9,499.4c0.5,0,0.5-0.5,1-0.5c0,0,0.2,0,0.3-0.1l0.2-0.4c0,0.2-0.1,0.3-0.2,0.4l-0.3,0.6
			l-1,2l-1,2l-0.5,1c0-1.5,0-2.5,0.5-3.5C804.4,500.4,804.4,499.9,804.9,499.4z M796.8,460l-1,3.4l-0.5,0.9c-1-4-1-4.4,0.5-4.4
			C795.8,460,796.3,460,796.8,460z M794.3,477.7l1.5,1.9c-0.5,0-0.5,0.3-0.5,0.3s0,0,0.5,0l0.5,0.7c0,0.5-0.5,0.7-0.5,0.7
			c-1,0.5-1.5,1-2,1.5C792.8,480.8,792.8,479.7,794.3,477.7z M788.8,483c0.5-2-0.2-3.6,0.9-4.6c0-1,0.3-1.6,0.3-2.1c0,2,0,4,0,5.5
			c0,0.5,0.8,1.2,0.3,1.2S789.3,483,788.8,483z"/>
	</g>
</g>
</svg>
