<?xml version="1.0" encoding="utf-8"?>
<!-- Generator: Adobe Illustrator 18.1.1, SVG Export Plug-In . SVG Version: 6.00 Build 0)  -->
<svg version="1.1" id="Warstwa_1" xmlns="http://www.w3.org/2000/svg" xmlns:xlink="http://www.w3.org/1999/xlink" x="0px" y="0px"
	 viewBox="0 0 1920 1080" enable-background="new 0 0 1920 1080" xml:space="preserve">
<path fill-rule="evenodd" clip-rule="evenodd" fill="#FFFFFF" d="M1287.6,100.7c1.2-0.9-1.2-1.5-4.5-1.8c-7.5-1.2-8.7-2.1-7.5-4.2
	c0.6-0.9,2.4-0.9,3-3c0.3-2.4-0.6-5.1-2.1-6.6c-1.5-1.8-5.1-1.2-7.8-1.8c-1.8-0.6-5.1-2.7-8.1-2.7c-4.2,0.3-8.4,2.7-11.4,2.1
	c-1.5-0.3-3.9,0.3-5.1-0.9c-0.9-1.2-0.6-4.2-2.1-5.1c-2.1-1.5-5.4-0.9-7.8-1.5c-3-0.9-7.2,0-9.9,0.9c-1.8,0.6-4.2-1.8-6.9-0.6
	c-2.1,0.9-3.6,3.9-5.7,4.5c-2.1,0.6-6-0.9-7.5-0.9c-3,0.3-4.2,2.4-6.3,2.7s-4.2-0.9-6.6-1.2c-1.8,0-3.9,1.5-6,1.8
	c-2.1,0.6-4.2,0.3-5.4,0.9c-2.1,1.5-4.5,2.4-5.4,4.2c-0.6,0.9,0,1.8-0.3,3c-1.2,3.6-3,7.2-8.7,7.2c-1.2,0-4.5-0.9-6.3-0.3
	c-3,0.9-4.8,3.6-6.9,3.6c-3.9,0-7.2,0.9-9.9,0.6c-2.1,0-3.6-1.5-6,0c-9,5.1,44.7,2.1,69.6,2.1c17.7,0,33.9-0.3,46.2-1.5
	C1257.3,101.6,1284.3,103.1,1287.6,100.7z"/>
<path fill-rule="evenodd" clip-rule="evenodd" fill="#FFFFFF" d="M1810,59.9c-2.7-0.3-88.8-0.9-104.4-0.9c-8.7-0.3-9.3-0.6-9.3-1.5
	c0-0.3,0.6-0.3,1.8-0.3c0.9-0.3,2.7-1.5,3.6-1.8c0.3-0.3,2.7-1.5,3.9-1.2c1.5,0.3,1.5,1.2,3,0.9c3.6-0.3,4.2-3.3,4.8-3
	c4.2,0.6,6.3-3.9,13.5-4.5c4.8-0.3,5.7-3.9,9-7.5c1.5-1.5,6.9-2.4,9.6-3.6c2.1-0.9,3-4.2,5.7-5.7c1.2-0.6,4.2-0.3,5.4-0.3
	c1.2,0,3-0.3,4.2,0.3c3,0.9,5.7,3.6,7.8,2.4c1.5-0.6,1.2-0.3,3.3,0c0.6,0,1.5,0.3,2.1,0.3c1.2,0,2.1-1.2,3.3-1.8
	c1.2-0.3,2.4,0,4.2,0c1.8,0.3,4.8,0,6,0.3c5.4,1.5,5.4,5.7,8.1,6.9c3.3,1.8,1.8,4.8,10.5,5.4c2.7,0,5.7-1.2,6.9-0.9
	c2.4,0.3,1.2,2.4,4.8,4.2c5.1,2.7,1.8,8.7,8.4,8.1s8.4,1.8,3.6,3.3c-4.8,1.2-9.9,0.9-12.6,0.6C1814.4,59.3,1810,59.9,1810,59.9z"/>
<path fill-rule="evenodd" clip-rule="evenodd" fill="#FFFFFF" d="M1196.4,116.6c-0.6-0.3,3-0.3,2.7-0.6c-0.6-0.9-0.9-2.1-0.3-2.7
	c0.3-0.3,1.2,0,1.8,0c0.3-0.3,1.2-0.6,2.1-0.6c0.6,0,1.5-0.6,2.1-0.6c0.9-0.3,1.8-1.2,2.7-1.2c1.5-0.6,2.7,0,3.3,0
	c1.8,0.9,2.4,1.5,4.2,1.2c0.9,0,2.7,0.3,3.9,0.3c2.7,0.6,1.2,3.3,3.9,3.3c1.2,0,1.5,0.3,2.4,0.6c1.2,0,2.7,0,3.6,0.6
	c1.8,0.9-9.6,0.3-15,0.3c-3.6,0-7.2,0-9.9-0.3C1203,116.9,1197,117.2,1196.4,116.6z"/>
<path fill-rule="evenodd" clip-rule="evenodd" fill="#FFFFFF" d="M1704.7,69.5c-0.9,0-23.4-0.3-27.6-0.3c-2.4,0-2.4,0-2.4-0.3
	s0,0,0.3-0.3c0.3,0,0.9-0.3,0.9-0.3c0.3,0,0.9-0.3,1.2-0.3c0.3,0,0.3,0.3,0.6,0.3c1.2-0.3,1.2-0.9,1.5-0.9c0.9,0.3,1.5-0.9,3.3-1.2
	c1.5,0,1.8-0.9,2.7-1.8c0.3-0.3,1.8-0.6,2.4-0.9c0.6-0.3,0.9-1.2,1.5-1.5c0.3-0.3,1.2,0,1.5,0c0.3,0,0.6-0.3,0.9,0
	c0.9,0.3,1.5,0.9,2.1,0.6c0.6-0.3,0.3,0,0.9,0c0.3,0,0.6,0,0.6,0c0.3,0,0.6-0.3,0.9-0.3c0.3-0.3,0.6,0,1.2,0c0.3,0,1.2,0,1.5,0
	c1.5,0.3,1.5,1.5,2.1,1.8c0.9,0.3,0.6,1.2,2.7,1.2c0.9,0.3,1.5-0.3,1.8,0c0.9,0,0.6,0.6,1.5,0.9c1.2,0.9,0.3,2.4,2.1,2.1
	c1.8,0,2.1,0.6,0.9,0.9c-1.2,0.3-2.4,0.3-3.3,0.3C1705.9,69.2,1704.7,69.5,1704.7,69.5z"/>
<path fill-rule="evenodd" clip-rule="evenodd" fill="#FFFFFF" d="M1002.7,65.9c-0.3,0-0.9,0.3-1.2,0.3c-0.9,0.3-1.5,0-2.4,0.3
	c-0.9,0-0.6,0.6-1.5,0.6c-0.9,0-1.5,0-2.1,0.3c-0.6,0.3,3,0,4.8,0c1.5,0,3.3,0.3,3.9,0c1.8,0.3,3.9,0.3,4.8,0c1.2,0,3.3,0.3,3.3,0.3
	s36.6,0.3,49.8-0.6c2.1,0,2.1-1.8,0.3-1.5c-0.6,0-1.2,0.3-1.8,0c-1.8,0-3.3-0.9-3.6-0.9c-1.8,0.3-3.3-1.5-6.6-1.8
	c-2.7,0-2.7-1.8-5.1-3.3c-0.6-0.6-1.5-1.2-2.4-1.5c-1.5-0.6-3-2.7-4.5-2.7c-0.6,0-1.5-0.3-2.1,0c-1.5,0.3-3.3,2.7-4.2,2.1
	c-0.6-0.3-0.6,0-1.5,0c-0.3,0-0.9,0.3-1.2,0.3c-0.6-0.3-0.9-0.6-1.5-0.9c-0.6,0-1.2,0-2.1,0s-1.5,0.3-2.1,0.6
	c-2.4,0.3-2.7,2.1-3.9,2.7c-1.8,0.6-0.6,1.5-4.5,1.8c-4.2,0-4.2-0.3-6.6,0.6c-2.4,1.2-0.6,3.6-3.9,3.3
	C1003.9,65.9,1003.3,65.9,1002.7,65.9z"/>
<path fill-rule="evenodd" clip-rule="evenodd" fill="#FFFFFF" d="M1495.4,130.1c-0.9,0-1.5,0.3-2.1,0.6c-1.8,0.3-3,0-4.5,0.3
	c-1.5,0.3-1.5,1.5-2.7,1.5c-1.5,0-2.7-0.3-3.9,0.3c-1.2,0.3,5.4,0,8.7,0c2.7,0,6,0.3,7.2,0c3.3,0.3,6.9,0.3,8.7,0c2.4,0,6,0.3,6,0.3
	s66.3,0.9,90-0.9c4.2-0.3,3.9-3.3,0.9-2.7c-1.2,0.3-2.4,0.3-3.6,0.3c-3-0.6-5.7-2.1-6-2.1c-3.6,0.6-6.3-2.7-12.3-3
	c-4.8-0.3-4.8-3.3-9-6.3c-1.2-0.6-3-1.8-4.5-2.4c-2.7-1.2-5.4-5.4-8.4-5.4c-0.9,0.3-2.4,0-3.6,0.3c-2.7,0.9-5.7,4.8-7.8,3.9
	c-1.2-0.3-0.9,0-2.7,0c-0.6,0.3-1.2,0.3-1.8,0.3c-1.2,0-2.1-0.9-3-1.2c-0.9-0.3-2.1-0.3-3.6,0c-1.5,0-3,0.3-4.2,0.6
	c-4.5,0.9-4.8,3.9-6.9,5.1c-3,1.2-0.9,2.7-8.4,3c-7.5,0.6-7.2-0.3-11.7,1.5c-4.2,1.8-1.2,6.3-6.9,6
	C1497.5,129.8,1496.3,129.8,1495.4,130.1z"/>
<path fill-rule="evenodd" clip-rule="evenodd" fill="#FFFFFF" d="M1441.7,45.8c0.6,0,0.9,0.3,1.2,0.3c1.2,0.3,1.8,0,2.7,0.3
	c0.9,0,0.9,0.9,1.8,0.9c0.9,0,1.2-0.3,2.1,0c0.6,0.3-3.3,0.3-5.1,0.3c-1.5,0-3.6,0-4.2-0.3c-2.1,0.3-3.9,0.3-5.1,0.3
	c-1.2-0.3-3.6,0-3.6,0s-38.4,0.6-52.5-0.6c-2.4,0-2.1-1.8-0.3-1.5c0.6,0,1.2,0,1.8,0c1.8,0,3.6-1.2,3.9-1.2c2.1,0.3,3.3-1.5,6.9-1.8
	c3,0,3-1.8,5.4-3.6c0.6-0.3,1.8-0.9,2.4-1.5c1.8-0.6,3.3-3,5.1-3c0.6,0,1.5,0,2.1,0.3c1.5,0.3,3.3,2.7,4.5,2.1c0.6,0,0.6,0,1.5,0
	c0.3,0.3,0.9,0.3,1.2,0.3c0.6,0,1.2-0.6,1.5-0.9c0.6,0,1.5,0,2.4,0c0.9,0,1.5,0.3,2.1,0.6c2.7,0.6,3,2.1,4.2,3
	c1.8,0.6,0.6,1.5,4.8,1.8c4.5,0.3,4.5-0.3,6.9,0.6c2.7,1.2,0.9,3.9,4.2,3.6C1440.5,45.8,1441.4,45.8,1441.7,45.8z"/>
<path fill-rule="evenodd" clip-rule="evenodd" fill="#FFFFFF" d="M102.9,88.7c-1.5-0.9,1.2-1.5,4.8-1.8c8.1-1.2,9.3-2.4,8.1-4.5
	c-0.6-0.9-2.7-0.9-3.3-3.3c-0.6-2.4,0.6-5.4,2.1-6.9c1.5-1.8,5.7-1.2,8.4-1.8c1.8-0.6,5.4-3,8.7-3c4.5,0.3,8.7,3,12,2.4
	c1.8-0.3,4.5,0,5.4-1.2c1.2-1.2,0.9-4.2,2.4-5.4c2.1-1.5,5.7-1.2,8.4-1.5c3.3-0.9,7.5,0,10.5,0.9c2.1,0.6,4.2-2.1,7.2-0.6
	c2.4,1.2,3.9,4.2,6.3,4.8c2.1,0.6,6-1.2,8.1-0.9c3,0.3,4.2,2.4,6.6,3c2.1,0.3,4.5-1.2,6.9-1.2c2.1-0.3,4.2,1.2,6.6,1.8
	c1.8,0.6,4.5,0,5.7,0.9c2.1,1.5,4.8,2.4,5.7,4.5c0.6,0.9-0.3,1.8,0.3,3c1.2,3.9,3,7.5,9.3,7.5c1.5,0,4.8-0.6,6.6,0
	c3.3,0.9,5.1,3.6,7.5,3.6c3.9,0,7.8,0.9,10.5,0.9c2.4-0.3,3.6-1.5,6.6,0c9.3,5.4-47.7,2.1-74.4,2.1c-18.9,0-36.3-0.3-49.5-1.5
	C134.9,89.9,106.2,91.4,102.9,88.7z"/>
<path fill-rule="evenodd" clip-rule="evenodd" fill="#FFFFFF" d="M222.8,119.6c0.6-0.3-3.6-0.3-3.3-0.9c0.9-0.6,1.2-2.1,0.3-2.7
	c-0.3-0.3-1.2,0-1.8,0c-0.6-0.3-1.5-0.9-2.4-0.9c-0.9,0.3-1.8-0.6-2.4-0.6c-0.9-0.3-2.1-1.2-3.3-1.5c-1.8-0.3-3,0-3.6,0.3
	c-2.1,0.9-2.7,1.5-4.8,1.5c-0.9-0.3-3.3,0-4.2,0.3c-3.3,0.6-1.8,3.3-4.5,3.3c-1.5,0-2.1,0.9-3,0.9c-1.2,0.3-2.7,0-3.9,0.6
	c-2.4,1.2,10.8,0.3,16.8,0.3c4.5,0,8.4,0,11.4-0.3C215.3,119.9,221.9,120.2,222.8,119.6z"/>
<path fill-rule="evenodd" clip-rule="evenodd" fill="#FFFFFF" d="M431.2,67.4c0.3,0,0.6,0.3,0.9,0.3c0.9,0.3,1.5,0,2.4,0.3
	c0.9,0,0.6,0.6,1.5,0.6c0.6,0,1.2,0,1.8,0.3c0.6,0-2.7,0-4.5,0c-1.2,0-3,0-3.6,0c-1.8,0.3-3.6,0-4.5,0c-1.2,0-3,0-3,0
	s-33.9,0.6-46.2-0.3c-2.1-0.3-1.8-1.8-0.3-1.5c0.6,0,1.2,0.3,1.8,0c1.5,0,3-0.9,3-0.9c2.1,0.3,3.3-1.5,6.3-1.5
	c2.4-0.3,2.7-1.8,4.8-3.3c0.3-0.3,1.5-0.9,2.1-1.2c1.5-0.6,3-2.7,4.5-2.7c0.3,0,1.2,0,1.8,0c1.2,0.6,3,2.7,3.9,2.1
	c0.6-0.3,0.6,0,1.5,0c0.3,0,0.6,0.3,0.9,0.3c0.6-0.3,0.9-0.6,1.5-0.9c0.3,0,0.9,0,1.8,0s1.5,0.3,2.1,0.6c2.4,0.3,2.4,1.8,3.6,2.4
	c1.5,0.6,0.3,1.5,4.2,1.8c3.9,0,3.6-0.3,6,0.6c2.1,0.9,0.6,3.3,3.6,3C430,67.4,430.6,67.4,431.2,67.4z"/>
<path fill-rule="evenodd" clip-rule="evenodd" fill="#FFFFFF" d="M878.3,158.9c0.9,0,1.8,0.3,2.7,0.3c2.1,0.9,3.3,0.3,5.4,0.6
	c1.8,0.3,1.5,1.8,3.3,1.8c1.8,0,3.3-0.3,4.8,0.3c1.5,0.6-6.9,0.3-10.5,0.3c-3.6,0-7.5,0-9-0.3c-4.2,0.6-8.4,0.6-10.8,0.3
	c-2.7-0.3-7.5,0.3-7.5,0.3s-81,0.9-110-0.9c-4.8-0.6-4.5-4.2-0.9-3.6c1.5,0.3,2.7,0.3,4.2,0.3c3.9-0.6,7.2-2.7,7.8-2.7
	c4.2,0.9,7.2-3,14.7-3.6c6-0.3,6-4.2,11.1-7.5c1.2-0.9,3.6-2.4,5.4-3c3.6-1.5,6.9-6.6,10.5-6.6c1.2,0.3,3,0,4.2,0.3
	c3.3,0.9,7.2,6,9.6,4.8c1.5-0.6,1.2,0,3.3,0c0.9,0.3,1.8,0.3,2.4,0.3c1.2,0,2.1-1.2,3.6-1.5c1.2-0.3,2.4,0,4.5,0
	c1.8,0,3.6,0.6,4.8,0.9c5.7,1.2,6,4.8,8.7,6c3.6,1.8,0.9,3.6,10.2,3.9c9,0.6,8.7-0.6,14.1,1.8s1.8,7.5,8.7,7.2
	C875.6,158.6,877.1,158.6,878.3,158.9z"/>
<path fill-rule="evenodd" clip-rule="evenodd" fill="#FFFFFF" d="M803.9,53.6c-0.9,0-1.5,0.3-1.8,0.3c-1.8,0.6-2.7,0.3-4.2,0.6
	c-1.2,0-1.2,1.2-2.4,1.2c-1.2,0-2.1-0.3-3.3,0.3c-1.2,0.3,4.8,0,7.5,0s5.4,0.3,6.6,0c3,0.3,6,0.3,7.8,0c1.8,0,5.4,0.3,5.4,0.3
	s58.2,0.9,79.5-0.6c3.3-0.3,3.3-3,0.6-2.7c-1.2,0.3-2.1,0.3-3,0.3c-2.7-0.3-5.4-1.8-5.7-1.8c-3,0.3-5.4-2.4-10.5-2.7
	c-4.5-0.3-4.5-3-8.1-5.7c-0.9-0.6-2.7-1.5-3.9-2.1c-2.4-0.9-4.8-4.5-7.5-4.5c-0.9,0-2.1-0.3-3,0c-2.4,0.9-5.4,4.2-7.2,3.6
	c-0.9-0.3-0.6,0-2.4,0c-0.3,0-0.9,0.3-1.5,0.3c-0.9-0.3-1.8-0.9-2.7-1.2c-0.6-0.3-1.8,0-3,0c-1.5,0-2.7,0.3-3.6,0.6
	c-4.2,0.9-4.5,3.6-6.3,4.5c-2.7,1.2-0.9,2.4-7.5,2.7c-6.6,0.3-6.3-0.3-10.2,1.2c-3.9,1.8-1.2,5.7-6.3,5.4
	C805.7,53.3,804.5,53.6,803.9,53.6z"/>
<path fill-rule="evenodd" clip-rule="evenodd" fill="#FFFFFF" d="M776.9,70.1c-0.6-0.3,3.3-0.3,3-0.6c-0.6-0.6-0.9-2.1-0.3-2.7
	c0.3-0.3,0.9,0,1.5,0c0.6-0.3,1.5-0.6,2.4-0.6c0.6,0,1.5-0.6,2.1-0.9c0.9,0,2.1-0.9,3-1.2c1.5-0.3,2.7,0,3.3,0.3
	c1.8,0.6,2.4,1.5,4.2,1.2c1.2,0,3,0.3,4.2,0.3c2.7,0.6,1.2,3.3,3.9,3.3c1.2,0,1.8,0.6,2.7,0.6c1.2,0.3,2.7,0,3.6,0.6
	c2.1,0.9-9.9,0.3-15.3,0.3c-3.9,0-7.5,0-10.5-0.3C783.8,70.4,777.8,70.7,776.9,70.1z"/>
<path fill-rule="evenodd" clip-rule="evenodd" fill="#FFFFFF" d="M1805.2,80.3c-0.6-0.6,3.3-0.6,2.7-0.9c-0.6-0.6-0.9-2.1-0.3-2.7
	c0.3-0.3,1.2,0,1.8,0c0.6-0.3,1.5-0.6,2.4-0.6s1.5-0.6,2.1-0.9c1.2,0,2.1-0.9,3.3-1.2c1.5-0.3,3,0,3.3,0.3c1.8,0.6,2.7,1.5,4.5,1.2
	c1.2,0,3,0,4.2,0.3c2.7,0.6,1.5,3.3,4.2,3.3c1.2,0,1.8,0.6,2.7,0.9c1.2,0,2.7,0,3.9,0.3c2.1,1.2-10.2,0.6-16.2,0.6
	c-3.9,0-7.8,0-10.5-0.3C1812.1,80.3,1805.8,80.6,1805.2,80.3z"/>
<path fill-rule="evenodd" clip-rule="evenodd" fill="#FFFCE8" d="M549.3,26.3c5.1,0,9.9,0.6,14.1,2.7c3.3,1.5,7.5,3.6,9.9,6.3
	c3.6,3.3,6.9,7.8,8.4,12.6c1.2,3.6,0.9,7.2,0.9,11.1s0,7.2-0.9,10.5c-2.7,8.1-7.5,12.3-12.9,15.9c-5.1,3.6-11.1,6.3-19.5,6.3
	c-4.2,0-9.3,0-12.9-1.5c-9.3-3.9-17.4-10.8-20.1-20.4c-0.9-3.3-0.6-7.2-0.6-10.8c0-3-0.3-6,0.6-8.7c1.2-4.5,3.3-9.9,6.3-13.2
	C529,29.6,538.8,26.3,549.3,26.3z"/>
</svg>
