<?xml version="1.0" encoding="utf-8"?>
<!-- Generator: Adobe Illustrator 18.1.1, SVG Export Plug-In . SVG Version: 6.00 Build 0)  -->
<svg version="1.1" id="Warstwa_1" xmlns="http://www.w3.org/2000/svg" xmlns:xlink="http://www.w3.org/1999/xlink" x="0px" y="0px"
	 viewBox="0 0 1920 1080" enable-background="new 0 0 1920 1080" xml:space="preserve">
<path fill-rule="evenodd" clip-rule="evenodd" fill="#E1F3FC" d="M-118.9,219.8c14.5,3,26,2,38.8,2.3c10.1,0,21.9,2,31,0.3
	c7.1-1,13.1-3.7,20.2-5.3c4.4-0.7,12.1,0,16.2-1c8.8-2,16.9-8,24.6-9.7c9.1-2,17.5-5.7,25.3-6.7c6.7-0.7,8.4,1.7,8.1,2.3
	c-0.7,1-3.4,0.3-4,4.3c-0.3,2,0.3,4,0.3,5.3c0.7,4.7,4.7,7,7.4,9c6.1,5,14.2,4.7,23.9,5.7c18.5,1.7,45.5,4,66.4-4.3
	c27,6.4,55.3-6.7,72.8-6.4c18.9,0,42.5,3.3,62.3,3.7c14.8,3,45.8-2.3,62.3-10.7c6.7,3,14.5,0.7,26-2c4-0.7,16.5-3,20.2-4
	c6.4-1.7,8.8-4,13.8-5.3c5.1-1.7,8.1-1,11.5,0.3c-7.1,2.7-6.4,7-4.7,9.7c2,3.3,11.1,1.7,18.5,2.3c28,1.7,48.5,0,76.2,3
	c23.6,2.7,43.5-0.3,67.1-1c4.7,0,8.8-1.3,13.5-1c10.8,6,36.4,8.4,49.2,8.7c10.8,0,29-5.3,42.8-8.4c8.4-1.7,12.5-0.7,19.9-2
	c17.9,8.4,35.4,6.7,53.6,10c14.5,2.7,36.4-3.3,51.2-2.3c21.2,1,34.4,5.7,59.3,4c18.9-1,36.1,3,56.3,2c2.4-0.3,16.5-3.3,29-8.4
	c9.1-3.7,16.5-8,22.2-10.4c5.1-2,9.4-2,7.8,0.3c-6.1,9.7,14.2,10,18.5,10c16.5,0,35.7-8.7,52.6-7.7c10.4,0.7,20.9,1.3,31,2
	c11.5,1,22.6,2,33.7,3c16.9,1.3,33.4,2.7,49.9,3.7c16.2,1,32.4,1.3,48.2,1.3c16.2,0,37.1-6.4,50.9-9.7c7.1,3.3,18.9,6,28,5
	c11.1-1,27.3,2.7,38.8,1.7c8.1-1,9.1,2.7,17.2,2c15.8-1.7,31-3,45.8-4.3c18.9-1.7,57.6-7,73.5-7.4c28.6-0.7,33.4,5.3,57.3,7.4
	c19.9,2,50.9-1.7,70.4,0.3c24.9,2.7,38.4-3,67.1-2.7c14.8,0.3,16.9,7.4,37.7,9.4c7.8,1,32.7-4,40.8-3c29,3.3,83.9-6,113.9-3.3
	c29.7,3,37.1,1,60,0c22.9-1,36.1,11,50.2,5.7c19.2-7,35.4-1.7,62.3-4.7c6.1-0.7,12.8-1,20.2-1v967.5H-118.9V219.8z"/>
<path fill-rule="evenodd" clip-rule="evenodd" fill="#FFFFFF" d="M1759,268.3c-1.2-0.6-2.1-4.5-2.4-4.5c-2.7,0-3.9,0.3-5.1-0.3
	c-2.4-1.8-2.7-4.8-2.4-6.3c0.3,0.6,0.3,3.3,3.6,2.1c2.1-0.9,3.6,0.9,3.6,0.9c0-2.1,2.4-1.5,3.6-2.4c1.5-0.9,0.9-3.6,0.9-3.6
	c1.5,1.8,2.7,3.9,1.5,6c-0.3,1.2-1.8,3-3.3,3.6c0,0,0.9,3,2.7,3.6c0.6,0.3,0,0.3,0,0.3c-0.6,0-0.9-0.3-1.2,0.6c-0.3,0.3-0.3,0-0.6,0
	C1759,268.3,1759,268.3,1759,268.3z"/>
<path fill-rule="evenodd" clip-rule="evenodd" fill="#8DD7F7" d="M779.6,256.3c0,0-7.2-3-10.2-2.1c-3,0.6-2.4,0.9-5.7,0.6
	c-3,0-4.2-0.6-4.2-0.6s2.1,1.5,4.2,1.5c1.8,0,3.9,0,6.3-0.6C772.1,254.5,779.6,256.3,779.6,256.3z"/>
<g>
	<path fill-rule="evenodd" clip-rule="evenodd" fill="#FFFFFF" d="M1368.9,303.7c-0.3,0.6-0.6,1.5-0.9,2.1c-0.6,0-0.9-0.3-1.5-0.3
		c-0.9,0-1.2,0-1.2,0s1.2,0.3,2.1,0.9c-1.8,3-4.8,6.6-8.4,9.3c-1.2,0.9-3.3,1.2-6,1.2c-4.8,0.6-9.6,1.2-15,0.6
		c-2.7-0.3-5.7-0.9-8.1-1.5c-5.7-1.2-11.7,0-17.1-0.3c-8.1-0.9-9.6-0.9-10.5-6.6c-0.6-3-1.5-3.3-1.8-5.4c2.1-2.1,4.2-5.1,5.7-6
		c2.1,0,6.9,1.2,13.2,1.2c16.8,0,42.3-0.6,49.2,1.8C1370.7,301.3,1369.8,302.5,1368.9,303.7z"/>
	<path fill-rule="evenodd" clip-rule="evenodd" fill="#58595B" d="M1301.7,303.7l4.5-4.8c0,0,0.9,1.2,16.8,1.5c6,0,15,0.3,26.4,0
		c2.4,0,18.9-0.3,19.2,1.5c0.3,0.3-1.8,1.2-4.5,1.8c-19.2,4.2-37.5,4.5-56.4,1.5C1305.9,304.9,1303.5,304.6,1301.7,303.7z"/>
	<polygon fill="#58595B" points="1342.8,303.4 1343.4,295 1343.1,289 1343.4,275.8 1343.4,256.9 1343.4,255.1 1344.3,255.1 
		1344.6,256.9 1344.6,262 1344.6,270.4 1344.6,283.6 1344.3,295.6 1344.6,303.4 	"/>
	<path fill-rule="evenodd" clip-rule="evenodd" fill="#FFFFFF" d="M1340.7,295.3l-0.6-9.9l1.2-13.8v-13.5c0,0-2.7,1.2-5.7,5.1
		c-0.9,1.2-1.8,2.7-2.7,4.2l2.4,2.1l-2.7-1.5c-0.3,0.3-0.6,0.6-0.9,1.2l2.7,3.3l-3-2.7c-0.3,0.3-0.3,0.3-0.6,0.6
		c-1.8,2.7-4.5,5.7-6.6,7.8c-2.4,2.4-4.8,5.7-7.8,8.1c-1.2,0.6-3,1.5-4.8,2.4l1.5,2.1l-2.4-1.8c-0.3,0.3-0.9,0.6-1.2,0.6
		c-4.8,3.3-11.4,5.4-11.4,5.4c3.3,0.3,9.9,0.6,13.8,0.9c5.4,0.3,12.3,0.6,18,0.6C1333.8,296.2,1337.1,295.6,1340.7,295.3z"/>
	<g>
		<g>
			<path fill-rule="evenodd" clip-rule="evenodd" fill="#231F20" d="M1330.8,287.8v-0.3c0-0.3-0.3-0.3-0.3,0v0.3l0,0H1330.8
				L1330.8,287.8L1330.8,287.8z"/>
			<path fill-rule="evenodd" clip-rule="evenodd" fill="#231F20" d="M1329.9,287.8v-0.3c0-0.3,0.3-0.6,0.6,0c0,0.3,0,0.3,0,0.3h-0.3
				H1329.9z"/>
			<path fill-rule="evenodd" clip-rule="evenodd" fill="#231F20" d="M1331.4,287.8L1331.4,287.8L1331.4,287.8c0-0.6-0.3-0.6-0.3-0.6
				c-0.3,0-0.3,0.6-0.3,0.6h0.3l0,0l0,0l0,0l0,0H1331.4z"/>
			<path fill-rule="evenodd" clip-rule="evenodd" fill="#231F20" d="M1329.9,287.8c0.3-0.6,0-0.6-0.3-0.6c0,0,0,0,0,0.3v0.3l0.3-0.3
				V287.8L1329.9,287.8L1329.9,287.8L1329.9,287.8z"/>
			<path fill-rule="evenodd" clip-rule="evenodd" fill="#231F20" d="M1331.7,287.8c0-0.6-0.3-0.6-0.3-0.6v0.3c0,0.3,0,0.3,0,0.3
				H1331.7L1331.7,287.8L1331.7,287.8L1331.7,287.8L1331.7,287.8L1331.7,287.8L1331.7,287.8z"/>
			<path fill-rule="evenodd" clip-rule="evenodd" fill="#231F20" d="M1331.7,287.2v0.3c0,0,0,0.3,0.3,0l0,0l0,0
				C1332,287.5,1332,287.2,1331.7,287.2z"/>
			<path fill-rule="evenodd" clip-rule="evenodd" fill="#231F20" d="M1332.3,287.2L1332.3,287.2c0,0.3,0,0.3,0.3,0.3l0,0l0,0
				c0,0,0,0,0-0.3C1332.6,287.2,1332.6,286.9,1332.3,287.2z"/>
			<path fill-rule="evenodd" clip-rule="evenodd" fill="#231F20" d="M1329.6,287.8c0-0.6-0.3-0.6-0.3-0.6v0.3l0,0l0,0l0,0l0,0
				L1329.6,287.8z"/>
			<path fill-rule="evenodd" clip-rule="evenodd" fill="#231F20" d="M1328.7,287.5c0.3,0,0.3,0,0.3-0.3h-0.3l0,0
				C1328.7,287.5,1328.7,287.5,1328.7,287.5L1328.7,287.5L1328.7,287.5L1328.7,287.5z"/>
		</g>
		<g>
			<path fill-rule="evenodd" clip-rule="evenodd" fill="#231F20" d="M1332.6,286.9L1332.6,286.9c0.3,0,0.3-0.3,0.6-0.6V286
				c0,0,0,0.3,0,0h0.3c0.9-0.6,0.9-1.2,0.6-1.5c-0.3-0.3-0.3-0.6-0.6-0.9c0-0.3,0,0.3,0.6,0.6l0,0v-0.3l0,0l0,0l0,0l0,0
				c0-0.3,0.3,0,0.3,0c0.3-0.6,0.3-1.8,0-3c0-0.6-0.6-1.5-1.2-2.1c-0.3-0.3-0.9-0.3-1.2-0.6v5.4c0,0,0,0,0.3,0h0.3
				c0,0.3,0.3,0.3,0.3,0.3c0,0.3,0,0.3,0,0.3c0,0.3,0,0,0,0c0,0.3,0,0.3,0,0.6l-0.3,0.3l-0.3,0.3h-0.3l0,0l0,0l0,0l0,0v1.8l0,0l0,0
				c0,0,0,0,0.3,0l0,0l0,0l0,0l0,0l0,0l0,0v-0.3l0,0H1332.6L1332.6,286.9v0.3l0,0l0,0C1332.6,287.2,1332.6,287.2,1332.6,286.9z
				 M1332,278.2c-0.6,0-0.9,0-1.5,0v7.2l0,0l0,0c0,0,0,0.3,0.3,0.3c0,0.3,0,0.3,0,0.6l0,0v0.3l0,0c-0.3,0,0,0,0,0
				c-0.3-0.3-0.3-0.3-0.3-0.3v0.9l0,0l0,0l0,0c0.3,0,0.3,0,0.3,0l0,0l0,0l0,0l0,0l0,0l0,0l0,0c0,0,0,0,0.3,0l0,0l0,0l0,0l0,0l0,0
				h0.3l0,0l0,0l0,0l0,0h0.3l0,0l0,0l0,0l0,0l0,0l0,0l0,0c0,0,0,0,0.3,0l0,0l0,0v-1.8l0,0l-0.3-0.3c0,0-0.3,0-0.3-0.3l-0.3-0.3
				c0-0.3,0-0.3,0-0.6l0,0c0-0.3,0.3-0.3,0.3-0.3l0,0l0,0l0,0l0,0c0.3,0,0.3,0,0.6,0V278.2z M1330.5,278.2h-0.3
				c-0.3,0-0.9,0-1.2,0.3v4.8h0.3c0.3,0,0.6,0.3,0.6,0.3c0.3,0.3,0,0.3,0,0.6v0.3l-0.3,0.3l0,0l-0.3,0.3h-0.3v2.1l0,0l0,0h0.3l0,0
				l0,0l0,0l0,0l0,0l0,0l0,0h0.3l0,0l0,0l0,0l0,0l0,0l0,0l0,0l0,0l0,0l0,0l0,0l0,0l0,0c0.3,0,0.3,0,0.3,0l0,0l0,0l0,0l0,0l0,0l0,0
				l0,0l0,0l0,0l0,0h0.3l0,0l0,0l0,0l0,0l0,0c0.3,0,0.3,0,0.3,0l0,0l0,0l0,0l0,0l0,0v-0.9l0,0l0,0c-0.3,0.3-0.3,0-0.3,0l0,0
				c0-0.3,0-0.3,0-0.3c0.3-0.3,0.3-0.3,0.3-0.3s0,0,0-0.3l0,0l0,0V278.2z M1329,278.5c-0.9,0.3-1.5,1.2-2.1,2.1
				c-0.3,1.2-0.3,2.4,0.3,3.3c0.3,0,0.6-0.6,0.3-0.3c0,0.3-0.3,0.3-0.3,0.6c-0.3,0-0.3,0.3-0.3,0.6l0,0l0,0c0,0.3,0.3,0.6,0.6,0.9
				c0.6,0.3,0.6,0.9,0.9,0.9c0,0.3,0,0.3,0,0.3l0,0c0,0,0.3,0,0.3,0.3l0,0l0,0l0,0l0,0l0,0l0,0v-0.3l0,0l0,0l0.3,0.3l0,0l0,0l0,0
				l0,0l0,0l0,0l0,0v-2.1c-0.3,0.3-0.3,0-0.3,0c-0.3,0-0.3,0-0.3-0.3c-0.3,0-0.3-0.3-0.3-0.6l0,0l0,0c0-0.3,0-0.3,0.3-0.3v-0.3
				c0,0,0.3,0,0.3-0.3c0.3,0,0.3,0,0.3,0V278.5z"/>
			<path fill-rule="evenodd" clip-rule="evenodd" fill="#231F20" d="M1335.9,287.5c0,0-4.8,1.8-6.6,2.4c-1.8,0.3-2.7,0.3-3.3,0.6
				c-0.9,0-0.6-0.9-1.2-0.9s-0.9,0.3-0.6,0.9c0.3,0.3,0.6,0.6,0.6,0.6s-0.9,0.6-0.3,0.9c0.3,0.6,1.2,0.6,1.2-0.3s1.5-0.9,2.4-1.2
				s3.3-0.9,4.8-1.5c1.8-0.3,2.7-0.9,3.3-0.9c0.3,0.3,0.9,0.9,1.2,0.3c0.6-0.3,0.3-0.6,0-0.6c-0.3-0.3-0.3-0.6-0.3-0.9
				c0-1.2-1.2-0.6-1.2-0.3C1336.2,287.5,1335.9,287.5,1335.9,287.5z"/>
			<path fill-rule="evenodd" clip-rule="evenodd" fill="#231F20" d="M1325.7,287.5c0,0,4.5,1.8,6.3,2.4c1.5,0.6,2.4,0.9,3.3,0.9
				c0.6,0,0.3-0.6,1.2-0.6c0.6,0,0.6,0.3,0.3,0.9c-0.3,0.3-0.6,0.3-0.6,0.3s0.9,0.9,0.3,1.2c-0.3,0.3-1.2,0.3-1.2-0.6
				c0.3-0.6-1.5-0.9-2.4-1.2c-0.9-0.3-3-1.2-4.5-1.8c-1.8-0.6-2.7-1.2-3.3-0.9c-0.3,0-0.9,0.6-1.2,0c-0.6-0.3-0.3-0.6,0.3-0.9
				c0.3,0,0.3-0.3,0.3-0.6c0-1.2,1.2-0.6,0.9,0C1325.4,287.2,1325.7,287.5,1325.7,287.5z"/>
		</g>
	</g>
	<path fill-rule="evenodd" clip-rule="evenodd" fill="#58595B" d="M1344,251.8c1.2,0,2.1,0.9,2.1,2.1c0,1.2-1.2,2.1-2.1,2.1
		c-1.2,0-2.1-1.2-2.1-2.1C1341.9,252.7,1342.8,251.8,1344,251.8z"/>
	<path fill-rule="evenodd" clip-rule="evenodd" fill="#D0D2D3" d="M1366.5,307.6c-0.6,0.9-1.2,1.8-2.1,2.7c-2.1,0.6-4.2,1.2-6.3,1.5
		c-7.8,1.2-15,0.9-24.6,0.9c-12,0-25.2-1.8-31.2-2.7c0-0.3,0-0.6,0-0.9l-0.3-0.3c3,0.3,4.5,0.6,12.6,1.5c5.7,0.9,10.8,0.9,18.6,0.9
		c3.6,0.3,9,0,13.2,0c5.7-0.3,9.6-0.9,12.6-1.5C1362.3,309.1,1364.4,308.5,1366.5,307.6z"/>
	<path fill-rule="evenodd" clip-rule="evenodd" fill="#FFFFFF" d="M1346.4,295.9l-0.3-9.9l0.3-14.1c0-4.5-0.3-9-0.3-13.5
		c1.8,1.5,2.7,5.1,3,7.2c1.2,4.5,2.1,8.7,3.6,12.9c0.3,0.3-0.3,0.9,0,1.5c0,0.3,0.9,0.3,1.2,0.6l-2.7,1.8l3-0.6
		c1.8,4.2,3.9,8.7,7.2,13.8C1356.9,295.6,1353.3,296.8,1346.4,295.9z"/>
</g>
<g>
	<path fill-rule="evenodd" clip-rule="evenodd" fill="#FFFFFF" d="M241.7,324.4c-0.3,0.6-0.6,1.5-0.9,2.1c-0.6,0-0.9-0.3-1.5-0.3
		c-0.9,0-0.9,0-0.9,0s0.9,0.3,2.1,0.9c-2.1,3-5.1,6.6-8.7,9.3c-1.2,0.9-3.3,1.2-5.7,1.2c-5.1,0.6-9.9,1.2-15.3,0.6
		c-2.4-0.3-5.7-0.9-8.1-1.5c-5.7-1.2-11.7,0-17.1-0.3c-8.1-0.9-9.6-0.9-10.5-6.6c-0.6-3-1.5-3.3-1.8-5.4c2.1-2.1,4.2-5.1,5.7-6
		c2.1,0,7.2,1.2,13.2,1.2c16.8,0,42.3-0.6,49.2,1.8C243.5,322,242.6,323.2,241.7,324.4z"/>
	<path fill-rule="evenodd" clip-rule="evenodd" fill="#58595B" d="M174.8,324.4l4.2-4.8c0,0,0.9,1.2,16.8,1.5c6,0,15,0.3,26.4,0
		c2.4,0,18.9-0.3,19.2,1.5c0.3,0.3-1.5,1.2-4.5,1.8c-18.9,4.2-37.5,4.5-56.4,1.5C178.7,325.6,176.3,325.3,174.8,324.4z"/>
	<polygon fill="#58595B" points="215.6,324.1 216.2,315.7 215.9,309.7 216.2,296.5 216.2,277.6 216.5,275.8 217.1,275.8 
		217.4,277.6 217.4,282.7 217.4,291.1 217.4,304.3 217.4,316.3 217.4,324.1 	"/>
	<path fill-rule="evenodd" clip-rule="evenodd" fill="#FFFFFF" d="M213.5,316l-0.3-9.6l0.9-14.1v-13.5c0,0-2.7,1.2-5.7,5.1
		c-0.9,1.2-1.8,2.7-2.7,4.2l2.4,2.1l-2.7-1.5c-0.3,0.3-0.6,0.9-0.9,1.2l2.7,3.3l-3-2.7c0,0.3-0.3,0.3-0.3,0.6
		c-2.1,2.7-4.8,5.7-6.9,7.8c-2.4,2.7-4.8,5.7-7.8,8.1c-1.2,0.9-3,1.5-4.5,2.4l1.2,2.1l-2.4-1.8c-0.3,0.3-0.6,0.6-0.9,0.6
		c-5.1,3.3-11.7,5.4-11.7,5.4c3.3,0.3,10.2,0.6,13.8,0.9c5.4,0.3,12.3,0.6,18,0.6C206.9,316.9,209.9,316.3,213.5,316z"/>
	<g>
		<g>
			<path fill-rule="evenodd" clip-rule="evenodd" fill="#231F20" d="M203.6,308.5v-0.3c0-0.3-0.3-0.3-0.3,0v0.3H203.6L203.6,308.5
				L203.6,308.5L203.6,308.5z"/>
			<path fill-rule="evenodd" clip-rule="evenodd" fill="#231F20" d="M202.7,308.5c0,0,0,0,0-0.3c0.3-0.3,0.6-0.6,0.6,0
				c0,0.3,0,0.3,0,0.3H203H202.7z"/>
			<path fill-rule="evenodd" clip-rule="evenodd" fill="#231F20" d="M204.2,308.5L204.2,308.5L204.2,308.5c0-0.6-0.3-0.6-0.3-0.6
				c-0.3,0.3,0,0.6,0,0.6l0,0l0,0l0,0H204.2L204.2,308.5L204.2,308.5z"/>
			<path fill-rule="evenodd" clip-rule="evenodd" fill="#231F20" d="M202.7,308.5c0.3-0.6,0-0.6,0-0.6c-0.3,0-0.3,0-0.3,0.3
				C202.4,308.2,202.4,308.5,202.7,308.5L202.7,308.5L202.7,308.5L202.7,308.5L202.7,308.5L202.7,308.5z"/>
			<path fill-rule="evenodd" clip-rule="evenodd" fill="#231F20" d="M204.5,308.5c0-0.6-0.3-0.6-0.3-0.6c0,0.3,0,0.3,0,0.3
				C204.2,308.5,204.2,308.5,204.5,308.5L204.5,308.5L204.5,308.5L204.5,308.5L204.5,308.5L204.5,308.5L204.5,308.5L204.5,308.5z"/>
			<path fill-rule="evenodd" clip-rule="evenodd" fill="#231F20" d="M204.5,307.9v0.3c0,0,0,0.3,0.3,0.3c0-0.3,0-0.3,0-0.3l0,0
				C205.1,308.2,204.8,307.9,204.5,307.9z"/>
			<path fill-rule="evenodd" clip-rule="evenodd" fill="#231F20" d="M205.1,307.9L205.1,307.9c0,0.3,0,0.3,0.3,0.3l0,0l0,0l0,0
				C205.4,307.9,205.4,307.6,205.1,307.9z"/>
			<path fill-rule="evenodd" clip-rule="evenodd" fill="#231F20" d="M202.4,308.5c0-0.6,0-0.6-0.3-0.6v0.3l0,0l0,0l0,0v0.3H202.4z"
				/>
			<path fill-rule="evenodd" clip-rule="evenodd" fill="#231F20" d="M201.8,308.2L201.8,308.2c0-0.3,0-0.3-0.3-0.3l0,0
				c0,0.3,0,0.3,0,0.3l0,0l0,0H201.8z"/>
		</g>
		<g>
			<path fill-rule="evenodd" clip-rule="evenodd" fill="#231F20" d="M205.4,307.6c0,0,0,0,0.3,0c0,0,0-0.3,0.3-0.6c0,0,0,0,0-0.3
				v0.3c0.3-0.3,0.3-0.3,0.3-0.3c0.9-0.6,0.9-1.2,0.6-1.5c-0.3-0.3-0.3-0.6-0.6-0.9c0-0.3,0,0.3,0.6,0.6l0,0v-0.3c0.3,0,0,0,0,0l0,0
				l0,0l0,0h0.3c0.6-0.6,0.3-1.8,0.3-3c-0.3-0.6-0.6-1.5-1.5-2.1c-0.3,0-0.6-0.3-1.2-0.3v5.1h0.3h0.3c0.3,0.3,0.3,0.3,0.3,0.3
				c0,0.3,0,0.3,0,0.3c0,0.3,0,0,0,0c0,0.3,0,0.3,0,0.6c0,0,0,0.3-0.3,0.3c0,0,0,0.3-0.3,0.3h-0.3l0,0l0,0l0,0l0,0v1.8l0,0l0,0h0.3
				l0,0l0,0l0,0l0,0l0,0l0,0v-0.3H205.4L205.4,307.6L205.4,307.6v0.3l0,0l0,0C205.4,307.9,205.4,307.9,205.4,307.6z M204.8,299.2
				c-0.6-0.3-0.9-0.3-1.5-0.3v7.2l0,0l0,0c0,0,0.3,0.3,0.3,0.6c0,0,0,0,0,0.3l0,0v0.3l0,0l0,0c-0.3-0.3-0.3-0.3-0.3-0.3v0.9l0,0l0,0
				h0.3l0,0l0,0l0,0l0,0l0,0l0,0l0,0c0.3,0,0.3,0,0.3,0l0,0l0,0l0,0l0,0c0,0,0,0,0.3,0l0,0l0,0l0,0l0,0l0,0l0,0h0.3l0,0l0,0l0,0l0,0
				l0,0l0,0l0,0h0.3l0,0l0,0v-1.8l0,0c0,0,0-0.3-0.3-0.3c0,0-0.3,0-0.3-0.3l-0.3-0.3c0-0.3,0-0.3,0-0.6l0,0c0-0.3,0.3-0.3,0.3-0.3
				l0,0l0,0l0,0h0.3c0,0,0,0,0.3,0V299.2z M203.3,298.9c0,0,0,0-0.3,0c-0.3,0-0.6,0.3-1.2,0.3v4.8c0.3,0,0.3,0,0.3,0
				c0.3,0,0.6,0.3,0.6,0.3c0.3,0.3,0.3,0.3,0,0.6v0.3c0,0,0,0.3-0.3,0.3l0,0l-0.3,0.3h-0.3v2.1l0,0l0,0c0.3,0,0.3,0,0.3,0l0,0l0,0
				l0,0l0,0l0,0l0,0l0,0c0.3,0,0.3,0,0.3,0l0,0l0,0l0,0l0,0l0,0l0,0l0,0l0,0l0,0l0,0l0,0l0,0h0.3l0,0l0,0l0,0l0,0l0,0l0,0l0,0l0,0
				l0,0h0.3l0,0l0,0l0,0l0,0l0,0h0.3l0,0l0,0v0.3l0,0v-0.3l0,0l0,0V307l0,0c0,0,0,0,0,0.3L203,307l0,0c0-0.3,0-0.3,0.3-0.3v-0.3
				c0,0,0,0,0-0.3l0,0l0,0V298.9z M201.8,299.2c-0.9,0.3-1.5,1.2-1.8,2.1c-0.6,1.2-0.6,2.4,0,3.3c0.3,0,0.6-0.6,0.3-0.3
				c0,0.3-0.3,0.3-0.3,0.6c-0.3,0.3-0.3,0.3-0.3,0.6l0,0l0,0c0,0.3,0.3,0.6,0.6,0.9c0.6,0.6,0.6,0.9,0.9,0.9c0,0.3,0,0.3,0,0.3l0,0
				c0,0,0.3,0,0.3,0.3l0,0l0,0l0,0l0,0l0,0l0,0l0,0l0,0h0.3l0,0l0,0l0,0l0,0l0,0l0,0l0,0l0,0v-2.1c0,0.3-0.3,0-0.3,0
				c-0.3,0-0.3,0-0.3-0.3c0,0-0.3-0.3-0.3-0.6l0,0l0,0c0-0.3,0.3-0.3,0.3-0.3v-0.3c0,0,0.3,0,0.6,0c0-0.3,0-0.3,0-0.3V299.2z"/>
			<path fill-rule="evenodd" clip-rule="evenodd" fill="#231F20" d="M208.7,308.5c0,0-4.8,1.5-6.6,2.1c-1.8,0.3-2.4,0.3-3.3,0.6
				c-0.9,0-0.3-0.9-1.2-0.9c-0.6,0-0.9,0.3-0.6,0.9c0.3,0.3,0.6,0.6,0.6,0.6s-0.6,0.6-0.3,0.9c0.6,0.6,1.2,0.6,1.2-0.3
				c0-0.6,1.5-0.9,2.4-1.2c0.9-0.3,3.3-0.9,4.8-1.2c1.8-0.6,2.7-1.2,3.3-1.2c0.6,0.3,0.9,0.9,1.5,0.3c0.3-0.3,0.3-0.6-0.3-0.6
				c-0.3-0.3-0.3-0.6-0.3-0.9c0-1.2-1.2-0.6-1.2-0.3C209,308.2,208.7,308.5,208.7,308.5z"/>
			<path fill-rule="evenodd" clip-rule="evenodd" fill="#231F20" d="M198.5,308.2c0,0,4.5,2.1,6.3,2.4c1.5,0.6,2.4,0.9,3.3,0.9
				c0.6,0,0.3-0.6,1.2-0.6c0.6,0,0.9,0.3,0.3,0.9c-0.3,0.3-0.3,0.3-0.3,0.3s0.6,0.9,0,1.2c-0.3,0.3-1.2,0.3-0.9-0.3
				c0-0.9-1.5-1.2-2.4-1.5c-0.9-0.3-3.3-0.9-4.8-1.8c-1.8-0.6-2.7-1.2-3.3-0.9c-0.3,0-0.9,0.6-1.2,0c-0.3-0.3-0.3-0.6,0.3-0.6
				c0.3-0.3,0.3-0.6,0.3-0.9c0-1.2,1.2-0.6,0.9,0C198.2,307.9,198.5,308.2,198.5,308.2z"/>
		</g>
	</g>
	<path fill-rule="evenodd" clip-rule="evenodd" fill="#58595B" d="M216.8,272.5c1.2,0,2.1,0.9,2.1,2.1s-0.9,2.1-2.1,2.1
		c-1.2,0-2.1-1.2-2.1-2.1C214.7,273.4,215.9,272.5,216.8,272.5z"/>
	<path fill-rule="evenodd" clip-rule="evenodd" fill="#D0D2D3" d="M239.3,328.3c-0.6,0.9-1.2,1.8-2.1,2.7c-2.1,0.6-4.2,1.2-6.3,1.5
		c-7.8,1.2-15,0.9-24.6,0.9c-11.7,0-25.2-1.8-30.9-2.7c-0.3-0.3-0.3-0.6-0.3-0.9v-0.3c2.7,0.3,4.2,0.6,12.6,1.5
		c5.4,0.9,10.5,0.9,18.3,1.2c3.6,0,9-0.3,13.2-0.3c5.7-0.3,9.6-0.9,12.6-1.5C235.4,329.8,237.5,329.2,239.3,328.3z"/>
	<path fill-rule="evenodd" clip-rule="evenodd" fill="#FFFFFF" d="M219.2,316.6l-0.3-9.9l0.3-14.1c0-4.5,0-9-0.3-13.5
		c1.8,1.5,2.7,5.1,3.3,7.2c0.9,4.5,1.8,8.7,3.3,12.9c0.3,0.3-0.3,0.9,0,1.5c0,0.3,0.9,0.3,1.2,0.6l-2.7,1.8l3-0.6
		c1.8,4.2,3.9,8.7,7.2,13.8C229.7,316.3,226.1,317.5,219.2,316.6z"/>
</g>
<path fill="#8DD7F7" d="M980.5,258.7c-0.9,0.3-2.1,0.3-2.7,0.6c-0.6,0-1.5,0-2.1,0s-1.5-0.3-1.8-0.6c-0.6-0.6-0.6-1.8-0.6-2.4
	c0-0.3,0.3-0.9,0.6-1.2c0.6-0.6,2.4-0.9,2.7,0c0.3,0.3,0.3,0.6,0.3,0.9c-0.3,0.3-0.3,0.6-0.6,0.6l0,0c0.3,0,0.6-0.3,0.9-0.6
	c0,0,0-0.3,0-0.6c0.3-1.5-1.8-2.1-3.3-2.1c-2.4,0-2.7,2.4-3.6,3.9c-0.6,0.9-1.5,1.8-2.4,2.1c-0.6,0.3-2.1,0.3-3,0.3
	c-0.6,0-1.2-0.3-2.1,0c-1.2,0.3-1.8,0-2.1,0c-0.6-0.3-2.1-0.3-2.1-0.6c0-0.3,1.5-0.3,2.4,0c0.3,0.3,0.6,0.3,1.5,0
	c1.2-0.3,1.8-0.3,2.4-0.3c2.1,0,2.7-0.3,3.9-1.8c1.5-1.2,1.5-2.4,2.7-3.6c1.5-1.8,4.2-1.5,5.7-0.3c0.3,0.3,1.2,1.5,0.9,2.4
	c0,0.6-0.6,1.2-0.9,1.5c-0.3,0.3-0.6,0.3-0.9,0.3s-0.3-0.3-0.6-0.3l0,0c0,0,0-0.3-0.3-0.3c-0.3-0.6-0.3-0.9,0-0.9c0,0,0,0.3,0.3,0.3
	c0,0.3,0.3,0.3,0.3,0.3c0.3-0.3,0.3-0.3,0.3-0.6c0.3-0.3-0.3-0.6-0.6-0.6c-0.9-0.3-1.5,0.3-1.5,1.2c-0.3,1.2,0.6,2.1,1.8,2.1
	c0.6,0,1.2,0,1.8,0c0.6,0,1.2-0.3,2.4-0.3c0.9-0.3,2.1-0.6,3.6-0.3c2.1,0.6,2.7,1.2,3,1.5c0,0.3-0.3,0-0.9-0.3
	c-0.3,0-0.9-0.3-1.2-0.3C983.2,258.1,982,258.1,980.5,258.7z"/>
<path fill-rule="evenodd" clip-rule="evenodd" fill="#8DD7F7" d="M961,257.8c0,0-1.2-1.2-4.8-0.6c-3.6,0.6-6,1.2-8.7,1.5
	c-3,0-3.9-0.6-3.9-0.6s-0.3,0.6,3.9,0.9c3.9,0.3,5.7-0.9,8.1-1.2C958.4,257.5,961,257.8,961,257.8z"/>
<path fill-rule="evenodd" clip-rule="evenodd" fill="#8DD7F7" d="M983.8,259.6c0,0,1.2,1.2,4.8,0.6c3.9-0.3,4.5-1.5,6.6-1.2
	c2.1,0.3,3,1.2,3,1.2s-1.5-0.6-3-0.6c-1.2,0-2.4,0.9-4.2,1.2c-1.8,0.3-2.1,0.3-3.9,0.3C985,260.8,983.8,259.6,983.8,259.6z"/>
<path fill-rule="evenodd" clip-rule="evenodd" fill="#8DD7F7" d="M974.5,264.4c0,0-0.9-0.6-3,0c-1.8,0.3-1.5,0.6-3.6,0.3
	c-2.1,0-2.7-0.3-2.7-0.3s1.2,0.9,2.7,0.9c1.2,0,2.4,0,3.9-0.3C973.3,264.4,974.5,264.4,974.5,264.4z"/>
<path fill-rule="evenodd" clip-rule="evenodd" fill="#8DD7F7" d="M956.6,269.2c0,0-0.9-0.6-2.4-0.3c-1.5,0.3-1.2,0.6-3,0.3
	c-1.5,0-2.1-0.3-2.1-0.3s1.2,0.9,2.1,0.9c1.2,0,2.1,0,3.3-0.3C955.4,269.2,956.6,269.2,956.6,269.2z"/>
<path fill-rule="evenodd" clip-rule="evenodd" fill="#8DD7F7" d="M906.8,246.1c0,0,2.4,3,8.1,2.1c5.7-0.9,5.4-1.5,11.4-2.1
	c6.3-0.3,6.9,1.2,11.1,1.5c4.2,0.3,5.4,1.5,9-0.3c3.9-1.8-1.2,0.3-2.7,0.3c-1.5,0-2.1,0.3-3.6-0.3c-1.2-0.3-1.5,0-3.6-0.3
	c-2.4-0.6-3-1.2-4.5-1.2c-1.5-0.3-2.7-0.3-4.8-0.3s-3.3,0.3-5.4,0.6c-2.1,0.6-2.7,0.9-6.3,1.5c-3.6,0.6-3.6,0.3-5.7-0.3
	C908,246.7,906.8,246.1,906.8,246.1z"/>
<path fill-rule="evenodd" clip-rule="evenodd" fill="#8DD7F7" d="M1728.1,265.9c0,0-5.7-4.2-15.3-3c-4.2,0.3-6.3,1.5-8.1,1.8
	c-2.7,0.3-4.5,0-9.6-0.3c-9-0.6-12-3-12-3s3.9,3.6,10.8,4.2c6.6,0.6,10.5,1.2,13.8,0c3.6-1.5,6.9-1.8,12.6-1.2
	C1726,265,1728.1,265.9,1728.1,265.9z"/>
<path fill-rule="evenodd" clip-rule="evenodd" fill="#8DD7F7" d="M1683.7,266.8c0,0-5.7-4.2-15.3-3.3c-3.9,0.6-6.3,1.8-8.1,2.1
	c-13.2,1.5-3.6,3.6,3.3,0.6c3.3-1.2,6.9-1.8,12.3-0.9C1681.6,265.9,1683.7,266.8,1683.7,266.8z"/>
<path fill-rule="evenodd" clip-rule="evenodd" fill="#8DD7F7" d="M1668.7,277.9c0,0-4.2-3-12.3-0.9c-8.4,2.1-7.2,2.4-15.9,2.1
	c-8.7-0.6-12-2.1-12-2.1s5.7,4.2,11.4,4.2c5.7,0,11.4,0,17.4-1.8C1663.6,277.9,1668.7,277.9,1668.7,277.9z"/>
<path fill-rule="evenodd" clip-rule="evenodd" fill="#8DD7F7" d="M1797.1,271.3c0.9-0.9-9-0.6-19.2-5.7c-10.2-5.1-12.3,5.1-41.4,5.7
	c-29.4,0.6,5.7,0.9,10.2,0.9s16.8-3.6,19.8-4.5c2.7-1.2,5.1-2.4,7.5-1.5c2.7,0.9,7.2,3.3,11.1,3.9
	C1788.7,270.7,1795.9,271.9,1797.1,271.3z"/>
<path fill-rule="evenodd" clip-rule="evenodd" fill="#8DD7F7" d="M1882.5,324.4c0,0-3.9-2.7-10.2-2.1c-3,0.3-4.2,1.2-5.7,1.5
	c-1.8,0-3,0-6.3-0.3c-6-0.3-8.1-2.1-8.1-2.1s2.7,2.4,7.2,3c4.5,0.3,7.2,0.6,9.3-0.3c2.4-0.9,4.8-1.2,8.7-0.6
	C1881,323.8,1882.5,324.4,1882.5,324.4z"/>
<path fill-rule="evenodd" clip-rule="evenodd" fill="#8DD7F7" d="M1852.5,325c0,0-3.9-2.7-10.2-2.1c-2.7,0.3-4.2,1.2-5.7,1.2
	c-8.7,1.2-2.4,2.7,2.4,0.6c2.1-0.9,4.5-1.2,8.4-0.6C1851.3,324.4,1852.5,325,1852.5,325z"/>
<path fill-rule="evenodd" clip-rule="evenodd" fill="#8DD7F7" d="M1842.3,332.5c0,0-2.7-2.1-8.1-0.6c-5.7,1.5-5.1,1.8-10.8,1.5
	c-6-0.3-8.1-1.5-8.1-1.5s3.9,2.7,7.8,2.7c3.6,0,7.5,0,11.7-0.9C1839,332.5,1842.3,332.5,1842.3,332.5z"/>
<g>
	<path fill-rule="evenodd" clip-rule="evenodd" fill="#A6A8AB" d="M1512.5,332.5c0-0.9,0-2.1,0.6-2.7h0.3l-0.3-0.3
		c0.6-1.2,2.1-2.1,4.8-2.4c0,0-0.3,0.6-0.6,1.5l-0.3-0.3l0.3,0.3v0.3h-0.6l0.6,0.3c0,0.6,0,1.5,0.3,2.4c0.3,1.2-1.2,0.6-2.1,0.9
		C1513.1,332.8,1512.5,332.5,1512.5,332.5z"/>
	<path fill="#8DD7F7" d="M1559,332.2c-1.5,0.3-2.7,0.6-3.6,0.9c-0.9,0-2.1,0.3-3,0c-0.9,0-2.1-0.3-2.7-0.9s-0.6-2.4-0.6-3
		c0-0.9,0.3-1.5,0.9-1.8c0.9-0.9,3-1.2,3.9,0c0,0.3,0,0.6,0,0.9c0,0.6-0.3,0.9-0.9,1.2c0,0,0,0,0.3,0c0.3,0,0.9-0.3,0.9-0.9
		c0.3-0.3,0.3-0.6,0.3-0.9c0.3-2.1-2.4-3-4.5-3c-3.3,0-3.9,3.6-5.4,5.7c-0.9,1.2-1.8,2.4-3,2.7c-1.2,0.6-3,0.6-4.2,0.6
		c-0.9,0-1.8-0.6-3,0c-2.1,0.3-2.4,0-3-0.3c-0.9-0.3-2.7-0.3-3-0.6c0-0.3,2.1-0.6,3.3,0c0.6,0.3,0.9,0.6,2.4,0
		c1.5-0.3,2.4-0.3,3.3-0.3c2.7,0,3.9-0.6,5.4-2.4c1.8-2.1,2.1-3.9,3.6-5.4c2.1-2.1,6-2.1,8.1,0c0.6,0.3,1.5,1.8,1.5,3.3
		c-0.3,0.6-0.9,1.5-1.5,1.8c-0.3,0.3-0.9,0.3-1.5,0.3c0,0-0.3,0-0.6-0.3l0,0l-0.3-0.3c-0.6-0.6-0.6-1.2-0.3-1.2c0,0,0.3,0.3,0.6,0.6
		h0.3c0.3-0.3,0.6-0.3,0.6-0.6s-0.6-0.9-0.9-0.9c-1.2-0.3-2.1,0.6-2.1,1.8c-0.3,1.5,0.9,2.7,2.4,2.7c0.9,0.3,1.5,0.3,2.4,0
		c0.9,0,2.1-0.3,3.3-0.6c1.5-0.3,3.3-0.6,5.1,0c3,0.6,3.9,1.8,4.5,2.1c0,0.3-0.6-0.3-1.5-0.6c-0.3,0-1.2-0.3-1.5-0.6
		C1562.6,331.6,1561.1,331.6,1559,332.2z"/>
	<path fill-rule="evenodd" clip-rule="evenodd" fill="#8DD7F7" d="M1532,331c0,0-1.8-1.5-6.9-0.9c-4.8,0.9-8.4,2.1-12.3,2.1
		c-4.2,0-5.4-0.6-5.4-0.6s-0.3,0.9,5.4,1.2c5.7,0.6,8.1-1.2,11.7-1.8C1528.1,330.7,1532,331,1532,331z"/>
	<path fill-rule="evenodd" clip-rule="evenodd" fill="#8DD7F7" d="M1563.5,333.7c0,0,1.8,1.5,6.9,0.9c5.4-0.6,6.3-2.1,9.3-1.8
		c3,0.3,4.2,1.8,4.2,1.8s-2.1-0.9-4.2-0.9c-1.8,0-3.6,1.2-6,1.5s-3,0.6-5.7,0.3C1565.6,335.2,1563.5,333.7,1563.5,333.7z"/>
	<path fill-rule="evenodd" clip-rule="evenodd" fill="#8DD7F7" d="M1550.6,340.6c0,0-1.2-1.2-3.9-0.3c-2.7,0.6-2.4,0.6-5.4,0.6
		c-2.7-0.3-3.9-0.6-3.9-0.6s2.1,1.2,3.9,1.2c1.8,0,3.6,0,5.7-0.6C1549.1,340.6,1550.6,340.6,1550.6,340.6z"/>
	<path fill-rule="evenodd" clip-rule="evenodd" fill="#8DD7F7" d="M1525.4,346.9c0,0-1.2-0.6-3.3-0.3c-2.1,0.6-1.8,0.9-3.9,0.6
		c-2.4,0-3-0.6-3-0.6s1.5,1.2,2.7,1.2c1.5,0,3,0,4.5-0.3C1523.9,346.9,1525.4,346.9,1525.4,346.9z"/>
	<path fill="#8DD7F7" d="M1469.6,248.5c-2.4,0.6-4.2,1.2-6,1.5c-1.5,0-3,0.6-4.5,0.6c-1.5-0.3-3.3-0.6-4.5-1.8s-1.2-3.9-1.2-5.1
		c0.3-1.2,0.6-2.4,1.5-3c1.5-1.5,5.4-1.8,6.6,0.3c0,0.3,0.3,0.9,0,1.5c-0.3,0.9-0.6,1.5-1.5,1.5h0.3c0.9,0.3,1.5-0.3,1.8-1.2
		c0.3-0.3,0.3-0.9,0.6-1.2c0.3-3.9-3.9-6-7.5-6c-5.4,0-7.2,6.3-9.9,9.9c-1.5,1.8-3,3.6-5.1,4.5c-2.1,0.9-4.2,1.2-6.3,1.2
		c-1.5,0-3-0.6-5.1,0c-3,0.9-3.9,0.3-4.8-0.3c-1.5-0.6-4.8-0.6-4.8-0.9c-0.3-0.6,3.3-1.2,5.4,0c0.6,0.3,1.2,0.6,3.9,0
		c2.4-0.9,4.2-0.3,5.7-0.3c4.5,0,6-1.2,9-4.5c2.7-3.3,3.6-7.2,6-9.9c3.3-3.6,10.5-3,13.8,0c0.9,0.9,2.1,3.9,1.8,6.3
		c0,1.2-1.5,2.7-2.4,3.3c-0.6,0.3-1.5,0.6-2.1,0.6c-0.3,0-0.9-0.3-1.2-0.6l0,0c-0.3-0.3-0.3-0.3-0.6-0.9c-0.9-0.9-0.9-1.5-0.3-1.5
		c0,0,0.3,0.3,0.6,0.6c0.3,0,0.6,0.3,0.9,0.3c0.3-0.3,0.6-0.6,0.9-0.9c0-0.9-0.9-1.5-1.5-1.8c-2.4-0.6-3.6,0.9-3.9,3
		c-0.3,2.4,1.8,4.5,4.2,4.8c1.5,0,2.7,0,4.2,0c1.5-0.3,3.3-0.6,5.4-1.2c2.4-0.6,5.7-0.9,8.7-0.3c4.8,1.2,6.6,3,7.2,3.9
		c0.3,0.3-1.2-0.9-2.4-1.2c-0.6-0.3-1.8-0.6-2.7-0.9C1476.2,247.3,1473.2,247.6,1469.6,248.5z"/>
	<path fill-rule="evenodd" clip-rule="evenodd" fill="#8DD7F7" d="M1424.9,247c0,0-2.7-3-11.4-1.5c-8.4,1.2-14.1,3.3-20.7,3.3
		c-6.9,0.3-9-0.9-9-0.9s-0.6,1.5,9,2.1c9.6,0.6,13.2-2.1,19.5-3C1418.3,246.4,1424.9,247,1424.9,247z"/>
	<path fill-rule="evenodd" clip-rule="evenodd" fill="#8DD7F7" d="M1477.7,251.2c0,0,2.7,2.7,11.7,1.8c8.7-0.9,10.5-3.6,15.3-3
		c5.1,0.3,6.9,2.7,6.9,2.7s-3.6-1.5-6.9-1.5s-6,2.1-10.2,2.7c-3.9,0.6-5.1,1.2-9.3,0.6C1481,253.9,1477.7,251.2,1477.7,251.2z"/>
	<path fill-rule="evenodd" clip-rule="evenodd" fill="#8DD7F7" d="M1456.1,262.6c0,0-2.1-1.5-6.6-0.3c-4.5,0.9-4.2,1.2-8.7,0.9
		c-4.8-0.3-6.6-0.9-6.6-0.9s3,2.1,6.3,2.1c3,0,6,0,9.3-0.9C1453.4,262.6,1456.1,262.6,1456.1,262.6z"/>
	<path fill-rule="evenodd" clip-rule="evenodd" fill="#8DD7F7" d="M1413.8,273.4c0,0-1.8-1.2-5.4-0.3c-3.3,0.9-3,0.9-6.6,0.9
		c-3.6-0.3-5.1-0.9-5.1-0.9s2.4,1.8,4.8,1.8c2.4,0,4.8,0,7.5-0.9C1411.7,273.4,1413.8,273.4,1413.8,273.4z"/>
</g>
<path fill-rule="evenodd" clip-rule="evenodd" fill="#8DD7F7" d="M367.3,245.2c0,0-0.9-0.6-2.7-0.3c-1.8,0.6-1.5,0.6-3.3,0.6
	c-2.1-0.3-2.7-0.6-2.7-0.6s1.2,0.9,2.4,0.9c1.2,0,2.4,0,3.9-0.3C366.1,245.2,367.3,245.2,367.3,245.2z"/>
<path fill="#8DD7F7" d="M578.4,286.6c-0.9,0.3-1.5,0.6-2.1,0.6c-0.6,0.3-1.2,0-1.8,0s-1.5-0.3-2.1-0.9c-0.3-0.3-0.6-1.5-0.3-2.1
	c0-0.3,0.3-0.9,0.6-1.2c0.6-0.6,2.1-0.6,2.7,0c0,0.3,0,0.6,0,0.9s-0.3,0.6-0.6,0.6l0,0c0.3,0,0.6-0.3,0.9-0.6c0,0,0-0.3,0-0.6
	c0.3-1.5-1.8-2.1-3.3-2.1c-2.1,0-2.4,2.1-3.6,3.6c-0.6,0.9-1.2,1.8-2.1,2.1s-2.1,0.3-3,0.3c-0.6,0-0.9,0-2.1,0
	c-1.2,0.6-1.5,0.3-1.8,0c-0.6-0.3-2.1-0.3-2.1-0.3c0-0.3,1.5-0.6,2.1,0c0.3,0,0.6,0.3,1.8,0c0.9-0.3,1.8-0.3,2.1-0.3
	c2.1,0,2.7-0.3,3.9-1.8c1.2-1.2,1.5-2.4,2.7-3.6c1.2-1.5,3.9-1.2,5.4,0c0.3,0.3,0.9,1.2,0.6,2.4c0,0.3-0.3,0.9-0.6,1.2
	c-0.3,0-0.6,0.3-0.9,0.3l-0.3-0.3l0,0c-0.3,0-0.3-0.3-0.3-0.3c-0.3-0.6-0.3-0.9-0.3-0.9l0.3,0.3c0.3,0.3,0.3,0.3,0.3,0.3
	c0.3-0.3,0.3-0.3,0.3-0.6c0.3-0.3-0.3-0.6-0.6-0.6c-0.9-0.3-1.5,0.3-1.5,1.2c0,1.2,0.9,2.1,1.8,2.1c0.6,0,1.2,0,1.8,0
	c0.6-0.3,1.2-0.3,2.1-0.6c1.2,0,2.4-0.3,3.6,0c2.1,0.3,2.7,1.2,3,1.5s-0.3-0.3-0.9-0.3c-0.3-0.3-0.9-0.3-1.2-0.3
	c-0.9-0.3-2.1-0.3-3-0.3C579.3,286.6,579,286.6,578.4,286.6z"/>
<path fill-rule="evenodd" clip-rule="evenodd" fill="#8DD7F7" d="M560.1,285.7c0,0-1.2-1.2-4.8-0.6c-3.3,0.6-5.7,1.2-8.7,1.2
	c-2.7,0.3-3.6-0.3-3.6-0.3s-0.3,0.6,3.9,0.9c3.9,0.3,5.4-0.9,8.1-1.2C557.4,285.4,560.1,285.7,560.1,285.7z"/>
<path fill-rule="evenodd" clip-rule="evenodd" fill="#8DD7F7" d="M582,287.5c0,0,1.2,0.9,4.8,0.6c3.6-0.3,4.5-1.5,6.6-1.2
	c2.1,0.3,2.7,1.2,2.7,1.2s-1.5-0.6-2.7-0.6c-1.5,0-2.7,0.6-4.2,0.9c-1.8,0.3-2.1,0.6-3.9,0.3C583.5,288.7,582,287.5,582,287.5z"/>
<path fill-rule="evenodd" clip-rule="evenodd" fill="#8DD7F7" d="M576.6,293.2c0,0-4.5-1.8-6.3-1.2c-1.8,0.3-1.5,0.6-3.6,0.3
	c-2.1,0-2.7-0.3-2.7-0.3s1.2,0.9,2.7,0.9c1.2,0,2.4,0,3.9-0.3C571.8,292.3,576.6,293.2,576.6,293.2z"/>
<path fill-rule="evenodd" clip-rule="evenodd" fill="#8DD7F7" d="M555.6,296.8c0,0-0.9-0.6-2.4-0.3c-1.2,0.3-1.2,0.3-2.7,0.3
	c-1.5,0-2.1-0.3-2.1-0.3s0.9,0.6,2.1,0.6c0.9,0,1.8,0,3-0.3C554.7,296.8,555.6,296.8,555.6,296.8z"/>
<path fill-rule="evenodd" clip-rule="evenodd" fill="#8DD7F7" d="M582.6,294.7c0,0-0.6-0.6-2.1-0.3c-1.5,0.3-1.2,0.3-3,0.3
	c-1.5,0-2.1-0.3-2.1-0.3s1.2,0.6,2.1,0.6c0.9,0,2.1,0,3-0.3C581.7,294.7,582.6,294.7,582.6,294.7z"/>
<path fill-rule="evenodd" clip-rule="evenodd" fill="#8DD7F7" d="M495.7,271c0,0,3.6,4.2,11.7,3s7.5-2.4,16.2-3
	c8.7-0.6,9.6,1.8,15.3,2.1c6,0.3,7.5,1.8,12.9-0.6s-1.5,0.3-3.6,0.3c-2.1,0-3.3,0.6-5.1,0s-2.1,0-5.4-0.6c-3.3-0.9-3.9-1.5-6-1.8
	c-2.4-0.3-3.9-0.3-6.9-0.3c-3.3,0-4.8,0.3-7.8,0.9c-3,0.6-3.9,1.2-9,1.8c-5.1,0.9-5.1,0.3-7.8-0.3C497.5,271.9,495.7,271,495.7,271z
	"/>
<path fill-rule="evenodd" clip-rule="evenodd" fill="#8DD7F7" d="M593.4,280.9c-0.9-0.9,8.1-0.6,17.7-5.4c9.3-4.8,11.1,4.8,38.1,5.4
	c27,0.6-5.4,0.9-9.6,0.9c-3.9,0-15.3-3.3-18-4.5c-2.7-0.9-4.8-1.8-7.2-1.2c-2.1,0.9-6.6,3-9.9,3.6
	C600.9,280.3,594.3,281.5,593.4,280.9z"/>
<path fill="#8DD7F7" d="M1160.5,263.2c-0.9,0.3-1.8,0.6-2.7,0.6c-0.6,0.3-1.5,0.3-2.1,0.3s-1.5-0.3-2.1-0.9
	c-0.6-0.6-0.6-1.8-0.6-2.4c0-0.6,0.3-0.9,0.6-1.2c0.9-0.9,2.4-0.9,3,0c0.3,0.3,0.3,0.6,0,0.6c0,0.6-0.3,0.9-0.6,0.9c0,0,0,0,0.3,0
	s0.6-0.3,0.6-0.6c0.3-0.3,0.3-0.3,0.3-0.6c0.3-1.8-1.8-2.4-3.6-2.4c-2.4,0-2.7,2.7-3.9,4.5c-0.9,0.9-1.5,1.5-2.4,2.1
	c-0.9,0.3-2.4,0.3-3.3,0.3c-0.6,0-1.2-0.3-2.4,0c-1.5,0.3-1.8,0-2.1-0.3c-0.6-0.3-2.1-0.3-2.4-0.3c0-0.3,1.8-0.6,2.4,0
	c0.6,0,0.6,0.3,2.1,0c0.9-0.3,1.8-0.3,2.4-0.3c2.1,0,3-0.3,4.2-1.8c1.5-1.5,1.8-3,2.7-4.2c1.8-1.8,4.8-1.5,6.3,0
	c0.3,0.3,1.2,1.2,1.2,2.4c-0.3,0.6-0.9,1.2-1.2,1.5c-0.3,0.3-0.6,0.3-1.2,0.3l-0.3-0.3l0,0c-0.3,0-0.3-0.3-0.3-0.3
	c-0.3-0.6-0.3-0.9-0.3-0.9l0.3,0.3c0.3,0.3,0.3,0.3,0.6,0.3c0-0.3,0.3-0.3,0.3-0.6c0-0.3-0.3-0.6-0.6-0.6c-1.2-0.3-1.8,0.3-1.8,1.2
	c-0.3,1.2,0.9,2.1,1.8,2.4c0.6,0,1.2,0,2.1-0.3c0.6,0,1.5,0,2.4-0.3c1.2-0.3,2.7-0.6,3.9-0.3c2.4,0.6,3,1.5,3.3,1.8
	c0.3,0.3-0.3-0.3-0.9-0.3c-0.3-0.3-0.9-0.3-1.2-0.6C1163.5,262.6,1162.3,262.9,1160.5,263.2z"/>
<path fill-rule="evenodd" clip-rule="evenodd" fill="#8DD7F7" d="M1139.8,262.3c0,0-1.2-1.2-5.1-0.6c-3.9,0.6-6.6,1.5-9.6,1.5
	c-3.3,0-4.2-0.3-4.2-0.3s-0.3,0.6,4.2,0.9c4.5,0.3,6-0.9,9-1.5C1136.8,262,1139.8,262.3,1139.8,262.3z"/>
<path fill-rule="evenodd" clip-rule="evenodd" fill="#8DD7F7" d="M1164.1,264.4c0,0,1.5,1.2,5.4,0.6c4.2-0.3,4.8-1.5,7.2-1.2
	c2.1,0.3,3,1.2,3,1.2s-1.5-0.6-3-0.6c-1.5,0-3,0.9-4.8,1.2c-1.8,0.3-2.4,0.6-4.2,0.3C1165.6,265.6,1164.1,264.4,1164.1,264.4z"/>
<path fill-rule="evenodd" clip-rule="evenodd" fill="#8DD7F7" d="M1154.2,269.8c0,0-0.9-0.9-3-0.3c-2.1,0.3-1.8,0.6-4.2,0.3
	c-2.1,0-3-0.3-3-0.3s1.5,0.9,3,0.9s2.7,0,4.5-0.3C1153,269.8,1154.2,269.8,1154.2,269.8z"/>
<path fill-rule="evenodd" clip-rule="evenodd" fill="#8DD7F7" d="M1134.7,274.6c0,0-0.9-0.6-2.4-0.3c-1.5,0.6-1.5,0.6-3,0.6
	c-1.8-0.3-2.4-0.6-2.4-0.6s1.2,0.9,2.1,0.9c1.2,0,2.4,0,3.6-0.3C1133.8,274.6,1134.7,274.6,1134.7,274.6z"/>
<path fill="#8DD7F7" d="M1208.7,326.5c-1.5,0.3-2.4,0.6-3.6,0.9c-0.9,0-1.8,0-2.7,0c-1.2-0.3-2.7-0.6-3.3-1.5
	c-0.6-0.9-0.9-2.4-0.9-3.3c0.3-0.9,0.6-1.5,1.2-2.1c0.9-0.9,3.3-1.2,4.2,0.3c0,0.3,0.3,0.6,0,0.9c0,0.6-0.3,1.2-0.9,1.2
	c0,0,0,0,0.3,0c0.3,0,0.9-0.3,1.2-0.9c0-0.3,0.3-0.6,0.3-0.9c0-2.4-3-3.3-5.4-3.6c-3.6,0-4.2,3.6-6,6c-0.9,1.5-1.8,2.7-3.3,3
	c-1.2,0.6-3,0.6-4.5,0.6c-0.9,0-1.8,0-3.3,0.3c-2.1,0.6-2.4,0.3-3.3,0c-0.9-0.6-3-0.6-3-0.6c-0.3-0.3,2.1-0.9,3.3-0.3
	c0.6,0.3,0.9,0.6,2.7,0c1.5-0.3,2.7-0.3,3.6-0.3c3,0,4.2-0.6,6.3-2.7c1.8-2.1,2.1-3.9,3.9-6c2.1-2.4,6.3-1.8,8.7,0.3
	c0.3,0.6,1.5,1.8,1.2,3.6c0,0.6-0.6,1.5-1.2,1.8c-0.3,0.3-0.9,0.6-1.2,0.6c-0.3,0-0.6-0.3-0.9-0.6l0,0c0,0-0.3,0-0.3-0.3
	c-0.6-0.9-0.6-1.2-0.3-1.2c0,0,0.3,0.3,0.6,0.6h0.3c0.3-0.3,0.6-0.3,0.6-0.6c0.3-0.6-0.6-0.9-0.9-1.2c-1.5-0.3-2.4,0.6-2.4,2.1
	c-0.3,1.5,0.9,3,2.7,3c0.9,0.3,1.8,0.3,2.7,0c1.2,0,2.1-0.3,3.6-0.6c1.5-0.3,3.6-0.6,5.7-0.3c3.3,0.9,4.5,2.1,4.8,2.7
	c0,0-0.6-0.3-1.5-0.9c-0.6,0-1.2-0.3-1.8-0.3c-1.5-0.6-3.6-0.6-5.1-0.3C1210.2,326.2,1209.3,326.2,1208.7,326.5z"/>
<path fill-rule="evenodd" clip-rule="evenodd" fill="#8DD7F7" d="M1179.3,324.7c0,0-1.8-1.8-7.2-0.9c-5.7,0.9-9.6,2.1-14.1,2.1
	c-4.2,0-5.7-0.6-5.7-0.6s-0.6,0.9,5.7,1.5c6.6,0.3,9-1.5,13.2-2.1C1175.1,324.4,1179.3,324.7,1179.3,324.7z"/>
<path fill-rule="evenodd" clip-rule="evenodd" fill="#8DD7F7" d="M1214.4,327.4c0,0,1.8,1.8,7.8,1.2c5.7-0.6,6.9-2.4,10.2-1.8
	c3.3,0.3,4.5,1.8,4.5,1.8s-2.4-0.9-4.5-0.9c-2.4,0-4.2,1.2-6.9,1.5c-2.7,0.6-3.3,0.9-6,0.6C1216.5,329.5,1214.4,327.4,1214.4,327.4z
	"/>
<path fill-rule="evenodd" clip-rule="evenodd" fill="#8DD7F7" d="M1205.7,337c0,0-7.2-3-10.2-2.1c-2.7,0.6-2.4,0.9-5.7,0.6
	c-3,0-4.2-0.6-4.2-0.6s2.1,1.5,4.2,1.5c1.8,0,3.9,0,6.3-0.6C1198.2,335.2,1205.7,337,1205.7,337z"/>
<path fill-rule="evenodd" clip-rule="evenodd" fill="#8DD7F7" d="M1172.2,342.4c0,0-1.2-0.9-3.6-0.3c-2.1,0.6-1.8,0.6-4.5,0.6
	c-2.4-0.3-3.3-0.6-3.3-0.6s1.8,0.9,3.3,0.9c1.5,0,3,0,4.8-0.3S1172.2,342.4,1172.2,342.4z"/>
<path fill-rule="evenodd" clip-rule="evenodd" fill="#8DD7F7" d="M1215.3,339.1c0,0-1.2-0.9-3.6-0.3c-2.1,0.6-1.8,0.6-4.5,0.6
	c-2.4-0.3-3.3-0.6-3.3-0.6s1.8,0.9,3.3,0.9s3.3,0,4.8-0.3C1213.8,339.1,1215.3,339.1,1215.3,339.1z"/>
<path fill="#8DD7F7" d="M377.2,355c-1.8,0.6-3.3,0.9-4.5,0.9c-1.2,0.3-2.4,0.6-3.6,0.3c-0.9,0-2.4-0.3-3.3-1.2
	c-0.9-0.9-0.9-2.7-0.9-3.9c0.3-0.9,0.6-1.8,1.2-2.1c1.2-1.2,3.9-1.5,4.8,0c0,0.3,0,0.9,0,1.2c0,0.6-0.6,1.2-0.9,1.2l0,0
	c0.6,0.3,1.2-0.3,1.5-0.9c0-0.3,0.3-0.6,0.3-0.9c0.3-2.7-3.3-3.9-5.7-3.9c-4.2,0-4.5,4.5-6.6,7.2c-1.2,1.5-2.1,2.7-3.6,3.3
	c-1.5,0.6-3.6,0.6-5.4,0.6c-0.9,0-2.1-0.6-3.9,0c-2.1,0.6-2.7,0.3-3.3-0.3c-1.2-0.6-3.6-0.3-3.6-0.6c-0.3-0.6,2.4-0.9,3.9,0
	c0.6,0.3,0.9,0.3,3,0c1.5-0.6,2.7-0.6,3.9-0.6c3.3,0,4.8-0.6,6.9-3c2.1-2.4,2.4-4.5,4.5-6.6c2.4-2.7,7.2-2.4,9.9-0.3
	c0.6,0.6,1.8,2.4,1.5,4.2c0,0.9-0.9,2.1-1.8,2.4c-0.3,0.3-0.9,0.6-1.5,0.6c-0.3,0-0.6-0.3-0.9-0.6l0,0c0,0-0.3-0.3-0.3-0.6
	c-0.6-0.6-0.6-1.2-0.3-1.2c0,0,0.3,0.3,0.6,0.6c0,0,0.3,0.3,0.6,0c0.3,0,0.3-0.3,0.6-0.6c0-0.6-0.6-0.9-1.2-1.2
	c-1.8-0.3-2.7,0.6-2.7,2.1c-0.3,1.8,1.2,3.6,3,3.6c0.9,0.3,2.1,0,3,0c1.2-0.3,2.4-0.3,4.2-0.9c1.8-0.3,4.2-0.6,6.3,0
	c3.6,0.6,4.8,2.1,5.4,2.7c0,0.3-0.9-0.3-1.8-0.6c-0.3-0.3-1.5-0.6-2.1-0.9C381.7,354.1,379.9,354.4,377.2,355z"/>
<path fill-rule="evenodd" clip-rule="evenodd" fill="#8DD7F7" d="M343.9,353.5c0,0-2.1-2.1-8.4-0.9c-6.3,0.9-10.5,2.4-15.6,2.4
	c-4.8,0-6.3-0.6-6.3-0.6s-0.6,0.9,6.6,1.5c6.9,0.6,9.9-1.8,14.4-2.1C339.1,353.2,343.9,353.5,343.9,353.5z"/>
<path fill-rule="evenodd" clip-rule="evenodd" fill="#8DD7F7" d="M382.9,356.8c0,0,2.1,1.8,8.7,1.2c6.3-0.6,7.5-2.7,11.4-2.1
	c3.6,0.3,5.1,2.1,5.1,2.1s-2.7-1.2-5.1-1.2c-2.4,0-4.8,1.5-7.5,1.8c-3,0.6-3.9,0.9-6.9,0.6C385.3,358.9,382.9,356.8,382.9,356.8z"/>
<path fill-rule="evenodd" clip-rule="evenodd" fill="#8DD7F7" d="M367,365.2c0,0-1.8-1.2-5.1-0.3c-3.3,0.9-3,0.9-6.3,0.9
	c-3.6-0.3-4.8-0.9-4.8-0.9s2.1,1.5,4.5,1.5c2.4,0,4.5,0,7.2-0.6C364.9,365.2,367,365.2,367,365.2z"/>
<path fill-rule="evenodd" clip-rule="evenodd" fill="#8DD7F7" d="M335.5,373.3c0,0-1.2-0.9-3.9-0.3c-2.4,0.6-2.1,0.6-4.8,0.6
	c-2.7-0.3-3.9-0.6-3.9-0.6s1.8,1.2,3.6,1.2s3.6,0,5.4-0.6C334,373.3,335.5,373.3,335.5,373.3z"/>
<path fill="#8DD7F7" d="M93.9,267.7c-1.5,0.6-3,0.9-3.9,0.9c-1.2,0.3-2.1,0.3-3,0.3c-0.9-0.3-2.1-0.6-3-1.2
	c-0.6-0.9-0.9-2.4-0.6-3.3c0-0.6,0.3-1.5,0.9-1.8c0.9-0.9,3.3-1.2,3.9,0c0.3,0.3,0.3,0.9,0.3,1.2c-0.3,0.3-0.6,0.9-0.9,0.9l0,0
	c0.6,0,0.9-0.3,1.2-0.6c0.3-0.3,0.3-0.6,0.3-0.9c0.3-2.4-2.7-3.3-4.8-3.3c-3.6,0-3.9,3.6-5.7,6c-0.9,1.2-1.8,2.4-3,3
	c-1.5,0.3-3.3,0.3-4.8,0.3c-0.9,0-1.8-0.3-3,0c-2.1,0.6-2.7,0.3-3.3,0c-0.9-0.6-3-0.6-3-0.6c0-0.6,2.1-0.9,3.3-0.3
	c0.6,0.3,0.9,0.6,2.7,0c1.5-0.3,2.4-0.3,3.3-0.3c3,0,4.2-0.6,6-2.4c1.8-2.1,2.1-4.2,3.9-5.7c2.1-2.4,6.3-2.1,8.4-0.3
	c0.6,0.6,1.5,2.1,1.5,3.6c0,0.6-0.9,1.5-1.5,2.1c-0.6,0.3-0.9,0.3-1.5,0.3c-0.3,0-0.6-0.3-0.6-0.3l0,0c-0.3-0.3-0.3-0.3-0.6-0.6
	c-0.3-0.6-0.3-1.2-0.3-0.9c0.3,0,0.3,0.3,0.6,0.3c0.3,0,0.6,0.3,0.6,0c0.3,0,0.3-0.3,0.6-0.3c0-0.6-0.6-1.2-0.9-1.2
	c-1.5-0.3-2.4,0.6-2.4,1.8c-0.3,1.5,0.9,3,2.4,3c0.9,0.3,1.8,0.3,2.7,0c1.2,0,2.1-0.3,3.6-0.6s3.6-0.6,5.4-0.3
	c3,0.9,4.2,2.1,4.5,2.4c0.3,0.3-0.6-0.3-1.2-0.6c-0.6,0-1.5-0.3-1.8-0.3C97.8,267.1,96.3,267.1,93.9,267.7z"/>
<path fill-rule="evenodd" clip-rule="evenodd" fill="#8DD7F7" d="M65.1,266.5c0,0-1.8-1.8-6.9-0.9c-5.4,0.9-9.3,2.1-13.5,2.1
	s-5.4-0.6-5.4-0.6s-0.6,0.9,5.4,1.5c6.3,0.3,8.7-1.5,12.6-2.1C61.2,266.2,65.1,266.5,65.1,266.5z"/>
<path fill-rule="evenodd" clip-rule="evenodd" fill="#8DD7F7" d="M98.7,269.2c0,0,1.8,1.8,7.5,1.2c5.4-0.6,6.6-2.4,9.6-2.1
	c3.3,0.3,4.5,1.8,4.5,1.8s-2.4-0.9-4.5-0.9s-3.9,1.2-6.3,1.8c-2.7,0.3-3.3,0.6-6,0.3C100.8,271,98.7,269.2,98.7,269.2z"/>
<path fill-rule="evenodd" clip-rule="evenodd" fill="#8DD7F7" d="M84.9,276.7c0,0-1.2-1.2-4.2-0.6c-2.7,0.9-2.4,0.9-5.4,0.9
	c-3-0.3-4.2-0.9-4.2-0.9s2.1,1.5,3.9,1.5c2.1,0,3.9,0,6-0.6C83.1,276.7,84.9,276.7,84.9,276.7z"/>
<path fill-rule="evenodd" clip-rule="evenodd" fill="#8DD7F7" d="M58.2,283.3c0,0-1.2-0.9-3.3-0.3c-2.4,0.6-2.1,0.9-4.5,0.6
	c-2.1,0-3-0.6-3-0.6s1.5,1.2,3,1.2c1.5,0,3,0,4.8-0.3C56.7,283.3,58.2,283.3,58.2,283.3z"/>
<path fill-rule="evenodd" clip-rule="evenodd" fill="#8DD7F7" d="M342.4,246.1c0,0,2.7,3.6,9,2.4c6.3-0.9,5.7-1.8,12.6-2.4
	c6.9-0.3,7.5,1.5,12.3,1.8c4.5,0.3,5.7,1.5,9.9-0.6c4.2-1.8-1.2,0.6-2.7,0.6c-1.8,0-2.7,0.3-4.2-0.3c-1.2-0.6-1.5,0-4.2-0.6
	c-2.4-0.3-3-0.9-4.8-1.2c-1.5-0.3-3-0.3-5.4-0.3c-2.4,0-3.6,0.3-6,0.6c-2.4,0.6-3,0.9-6.9,1.8c-4.2,0.6-4.2,0-6.3-0.3
	C343.6,247,342.4,246.1,342.4,246.1z"/>
<path fill-rule="evenodd" clip-rule="evenodd" fill="#8DD7F7" d="M397,250.6c0,0-1.2-0.9-3.6-0.3c-2.7,0.6-2.4,0.9-5.1,0.6
	c-2.7,0-3.6-0.6-3.6-0.6s1.8,1.2,3.6,1.2c1.5,0,3.3,0,5.4-0.3C395.5,250.6,397,250.6,397,250.6z"/>
<path fill-rule="evenodd" clip-rule="evenodd" fill="#8DD7F7" d="M751.7,325c0,0,2.7,3.3,9,2.4c6.3-0.9,5.7-2.1,12.6-2.4
	c6.9-0.6,7.5,1.5,12.3,1.8c4.5,0,5.7,1.2,9.9-0.6c4.2-2.1-1.2,0.3-2.7,0.3c-1.8,0-2.7,0.3-4.2,0c-1.2-0.6-1.5,0-4.2-0.6
	c-2.4-0.6-3-1.2-4.8-1.5c-1.5-0.3-3-0.3-5.4-0.3c-2.4,0-3.6,0.3-6,0.9c-2.4,0.6-3,0.9-6.9,1.5c-4.2,0.6-4.2,0.3-6.3-0.3
	C752.9,325.6,751.7,325,751.7,325z"/>
<path fill-rule="evenodd" clip-rule="evenodd" fill="#8DD7F7" d="M806.3,329.5c0,0-1.2-1.2-3.6-0.3c-2.7,0.6-2.4,0.6-5.1,0.6
	c-2.7-0.3-3.6-0.6-3.6-0.6s1.8,1.2,3.6,1.2c1.5,0,3.3,0,5.4-0.6C804.8,329.5,806.3,329.5,806.3,329.5z"/>
<path fill-rule="evenodd" clip-rule="evenodd" fill="#8DD7F7" d="M1017.1,345.1c0,0,2.7,3.6,9,2.4c6.3-0.9,5.7-1.8,12.6-2.4
	c6.9-0.3,7.5,1.5,12.3,1.8c4.5,0.3,5.7,1.5,9.9-0.6c4.2-1.8-1.2,0.6-2.7,0.6c-1.8,0-2.7,0.3-4.2-0.3c-1.2-0.6-1.5,0-4.2-0.6
	c-2.4-0.3-3-0.9-4.8-1.2c-1.5-0.3-3-0.3-5.4-0.3c-2.4,0-3.6,0.3-6,0.6c-2.4,0.6-3,0.9-6.9,1.8c-4.2,0.6-4.2,0-6.3-0.3
	C1018.3,346,1017.1,345.1,1017.1,345.1z"/>
<path fill-rule="evenodd" clip-rule="evenodd" fill="#8DD7F7" d="M1071.7,349.6c0,0-1.2-0.9-3.6-0.3c-2.7,0.6-2.4,0.9-5.1,0.6
	c-2.7,0-3.6-0.6-3.6-0.6s1.8,1.2,3.6,1.2c1.5,0,3.3,0,5.4-0.3C1070.2,349.6,1071.7,349.6,1071.7,349.6z"/>
<path fill-rule="evenodd" clip-rule="evenodd" fill="#8DD7F7" d="M1878.9,262.9c0.9-0.6-5.1-0.6-11.4-3.6c-6-3-7.2,3-24.9,3.6
	c-17.4,0.3,3.6,0.6,6.3,0.6s10.2-2.1,11.7-3c1.8-0.6,3.3-1.2,4.8-0.6c1.5,0.6,4.2,1.8,6.6,2.1
	C1874.1,262.6,1878.3,263.2,1878.9,262.9z"/>
<path fill-rule="evenodd" clip-rule="evenodd" fill="#8DD7F7" d="M932.3,332.5c0.6-0.3-5.4-0.3-11.4-3.3c-6.3-3-7.2,3-24.9,3.3
	c-17.7,0.6,3.6,0.6,6,0.6c2.7,0,10.2-2.1,12-2.7c1.8-0.6,3-1.2,4.5-0.9c1.5,0.6,4.5,2.1,6.6,2.4
	C927.5,332.2,931.7,333.1,932.3,332.5z"/>
<path fill-rule="evenodd" clip-rule="evenodd" fill="#8DD7F7" d="M828.8,240.4c0.6-0.6-5.4-0.6-11.4-3.6c-6.3-3-7.2,3-24.9,3.6
	c-17.7,0.3,3.6,0.6,6,0.6c2.7,0,10.2-2.1,12-3c1.8-0.6,3-1.2,4.5-0.6c1.5,0.6,4.5,1.8,6.6,2.1C824,240.1,828.2,240.7,828.8,240.4z"
	/>
<path fill-rule="evenodd" clip-rule="evenodd" fill="#8DD7F7" d="M527.5,397.9c0.6-0.6-5.4-0.6-11.4-3.6c-6.3-3-7.2,3-24.9,3.6
	c-17.7,0.3,3.6,0.6,6,0.6c2.7,0,10.2-2.1,12-3c1.8-0.6,3-1.2,4.5-0.6c1.5,0.6,4.5,1.8,6.6,2.1C522.7,397.6,526.9,398.2,527.5,397.9z
	"/>
<path fill-rule="evenodd" clip-rule="evenodd" fill="#8DD7F7" d="M1353,326.8c0,0-2.7-2.1-7.2-1.5c-2.1,0.3-3,0.6-3.9,0.9
	c-1.2,0-2.1,0-4.5-0.3c-4.2,0-5.7-1.2-5.7-1.2s1.8,1.5,5.1,1.8s5.1,0.6,6.6,0s3.3-0.9,6-0.6C1351.8,326.2,1353,326.8,1353,326.8z"/>
<path fill-rule="evenodd" clip-rule="evenodd" fill="#8DD7F7" d="M1332,327.1c0,0-2.7-1.8-7.2-1.5c-1.8,0.3-2.7,0.9-3.9,0.9
	c-6,0.9-1.5,1.8,1.5,0.3c1.8-0.6,3.3-0.6,6-0.3S1332,327.1,1332,327.1z"/>
<path fill-rule="evenodd" clip-rule="evenodd" fill="#8DD7F7" d="M1325.1,332.5c0,0-2.1-1.5-6-0.6c-3.9,0.9-3.3,1.2-7.5,0.9
	c-3.9-0.3-5.4-0.9-5.4-0.9s2.7,1.8,5.4,1.8c2.4,0,5.1,0,8.1-0.6C1322.7,332.5,1325.1,332.5,1325.1,332.5z"/>
<path fill-rule="evenodd" clip-rule="evenodd" fill="#8DD7F7" d="M1385.4,329.2c0.3-0.3-4.2-0.3-9-2.7s-5.7,2.4-19.5,2.7
	s2.7,0.6,4.8,0.6s7.8-1.8,9.3-2.4c1.2-0.3,2.4-0.9,3.6-0.6c1.2,0.6,3.3,1.5,5.1,1.8C1381.5,328.9,1384.8,329.5,1385.4,329.2z"/>
<path fill-rule="evenodd" clip-rule="evenodd" fill="#8DD7F7" d="M134.6,346c0,0,4.8,6,15.6,4.2c11.1-1.8,10.2-3.3,21.9-4.2
	c12-0.9,13.2,2.4,21.3,3c7.8,0.3,9.9,2.4,17.1-0.9s-2.1,0.6-4.8,0.6c-3,0-4.5,0.6-6.9-0.3c-2.7-0.9-3,0-7.5-0.9
	c-4.5-0.9-5.4-1.8-8.1-2.4c-3-0.3-5.1-0.3-9.3-0.3c-4.2,0-6.6,0.3-10.5,1.2c-4.2,0.9-5.1,1.5-12,2.7c-6.9,1.2-6.9,0.3-10.8-0.3
	C137,347.5,134.6,346,134.6,346z"/>
<path fill-rule="evenodd" clip-rule="evenodd" fill="#8DD7F7" d="M229.1,353.5c0,0-2.1-1.5-6.6-0.3c-4.2,0.9-3.9,1.2-8.4,0.9
	c-4.8-0.3-6.3-0.9-6.3-0.9s3,2.1,6,2.1c3,0,6,0,9.3-0.9C226.4,353.5,229.1,353.5,229.1,353.5z"/>
</svg>
