<?xml version="1.0" encoding="utf-8"?>
<!-- Generator: Adobe Illustrator 18.1.1, SVG Export Plug-In . SVG Version: 6.00 Build 0)  -->
<svg version="1.1" id="Warstwa_1" xmlns="http://www.w3.org/2000/svg" xmlns:xlink="http://www.w3.org/1999/xlink" x="0px" y="0px"
	 viewBox="0 0 1920 1080" enable-background="new 0 0 1920 1080" xml:space="preserve">
<path fill="#E0D5C2" d="M2037,475.5l1,714.5H-118.9l0.9-662.9c9.1-3.3,18.9-6.6,28.6-10.2c17.8-6,33.7-14.1,53.2-20.4
	c15.8-5.1,36.7-15.6,46.8-17.1c12.8-1.8,41.4,3,62.3,6c22.2,3.3,42.1,11.1,66.3,17.4c18.9,4.8,36,13.5,54.9,19.2
	c22.9,6.9,46.8,16.5,67.7,21.6c15.2,3.6,16.5,7.2,45.1,4.8c9.8-0.6,19.2,0,28.6,0c10.1,0,22.2,0.9,39.1-2.1
	c17.8-3,41.1-9.6,63.3-15.6c12.5-3.6,27.3-11.1,40.1-14.7c14.8-4.2,29-9.3,42.8-12.9c19.9-5.4,38.4-9,59.9-14.7
	c14.8-3.9,32.3-9.3,46.8-13.5c21.9-5.7,52.5-19.8,72.1-23.4c52.2-9,83.8,0.9,135.7,2.4c16.5,0.3,30.3,4.2,47.8,7.8
	c15.8,3.3,35,6.6,48.8,8.7c24.9,3.6,45.8,12.3,71.4,19.8c35,10.2,65.3,20.4,92.3,26.4c28.3,6.6,54.2,8.7,74.4,9.6
	c17.5,0.6,38.7-1.2,55.2-0.3c15.8,1.2,36,6,59.9,8.4c14.1,1.5,30.3,1.2,46.1,0.3c33.7-2.4,70.4-9.9,109.1-19.8
	c17.8-4.5,37.7-11.4,54.5-15.3c26.3-6,50.2-7.8,72.7-12c17.5-3,34.3-8.1,50.5-13.8c20.9-7.2,56.2-15.3,89.6-24.6
	c14.8-4.2,28.6-13.2,41.8-14.7c32.3-3.9,72.4-4.8,115.8,0.9c31.7,4.2,67,17.4,91.6,22.2c13.5,2.7,25.3,2.7,36.4,5.4
	C2009,466.8,2023.2,470.1,2037,475.5z"/>
<path fill="#D3C9B8" d="M1864.6,443.3c0,0,3.6,0.9,4.2,3c0.3,2.1-18,11.4-21.9,14.1s-11.4,8.1-15.3,9.6c-4.2,1.2-21-0.9-40.5-3.6
	c-19.5-3.3-53.4-11.4-49.5-15c3.9-3.3,13.8-9,13.8-9l32-18.4L1864.6,443.3z"/>
<path fill="#D3C9B8" d="M722.7,460.8c0,0-3.6,0.9-4.2,3c-0.3,2.1,18,10.8,21.9,13.2c3.9,2.4,11.4,7.5,15.3,9
	c3.9,1.2,21-0.9,40.5-3.6s53.4-10.5,49.5-13.8c-3.9-3-13.8-8.7-13.8-8.7l-35.5-17.2L722.7,460.8z"/>
<g id="namiot--4">
	<path fill="#AD997D" d="M1828,460.4l39-24.3c0,0-16.5-9.6-18-30.9c0,0-21.3-7.5-30.9-17.7c-10.2,1.5-20.7,3.3-30.9,4.8l4.8,27.6
		l15,23.4l12,12L1828,460.4z"/>
	<path fill="#A38E72" d="M1828,460.4l40.5-24.3c0,0-17.7-9.6-19.5-31.2l-37.5,13.2l-3.9,26.1l11.4,11.1L1828,460.4z"/>
	<path fill="#4D483A" d="M1812.4,458.9c0,0-12.3-1.5-25.2-4.2c-12-2.1-24.3-5.4-27.9-6.6c-7.2-2.4,26.4-48.3,26.4-48.3l5.4,6.6
		l4.8,25.2L1812.4,458.9z"/>
	<path fill="#928069" d="M1782.2,380.6l3,6.3v-10.2c0-3,2.7-2.4,2.7,0.6v10.5l3.6-5.1c1.5-2.4,3.9-0.3,2.4,2.1l-4.5,6.9
		c7.5,16.5,23.1,26.1,22.5,26.4c1.8,30.9,17.7,42,16.8,42.3c-35.1-2.4-41.1-3.3-41.7-53.4c-0.6,48.6-6.9,49.5-41.7,36.3
		c-1.2-0.3,15-6,16.8-36c-0.6-0.6,14.7-3.6,22.2-16.5l-4.8-9C1778,378.8,1780.4,377.6,1782.2,380.6z"/>
</g>
<g id="namiot--5">
	<path fill="#AD997D" d="M760.7,477.3l-39.9-23.1c0,0,13.2-6.3,18.3-19.8c0.9-3,0-6,0-9.9c0,0,8.1-0.9,17.1-5.1
		c2.4-1.2,5.1-3.9,7.2-5.4c3-1.8,5.4-3.9,7.8-6c6.3,0.9,11.4,2.1,17.7,3c4.2,0.6,9.6,0.9,13.8,1.5l-5.1,26.4l-15,22.2L770,472.5
		L760.7,477.3z"/>
	<path fill="#A38E72" d="M760.7,477.3l-41.4-22.8c0,0,8.4-3,14.4-11.7c2.1-2.7,3.9-6.9,5.1-10.2c0.6-2.7,0.3-5.1,0.6-7.8l13.8,4.8
		c3.3,0.9,8.1,1.8,11.4,2.7c4.8,1.5,8.4,3.3,13.2,4.8l4.2,24.6l-12,10.8L760.7,477.3z"/>
	<path fill="#4D483A" d="M776.9,475.8c0,0,12.6-1.5,25.8-3.9c12.3-2.4,25.2-5.4,28.8-6.6c7.5-2.4-27.3-45.9-27.3-45.9l-5.4,6.3
		l-5.1,24L776.9,475.8z"/>
	<path fill="#928069" d="M808.1,401.5l-3.3,6v-9.6c0-2.7-2.7-2.1-2.7,0.6v9.9l-3.6-4.8c-1.5-2.4-4.2-0.3-2.4,2.1l4.5,6.3
		c-0.9,2.4-1.2,4.5-2.1,6.3c-1.2,1.8-3.3,3.6-4.8,5.4s-3.3,4.2-5.1,5.7c-6,5.4-11.4,7.8-11.1,7.8c-0.3,3.6-0.3,6.6-0.9,9.6
		c-1.2,5.7-2.1,10.8-4.2,14.7c-5.4,11.1-12.9,15.9-12.3,15.9c19.8-1.5,30-2.7,36-10.8c2.1-3.3,4.2-7.8,5.4-13.5
		c1.2-6.6,1.5-15,1.5-26.4c0,8.4,0.9,15.3,1.5,21c1.2,8.4,3.9,13.2,6.9,16.2c4.5,4.2,10.2,4.8,20.7,1.8c3.9-1.2,8.7-3,13.8-4.8
		c0.6-0.3-4.5-1.8-9-7.5c-1.5-1.8-3.6-4.2-4.8-7.2c-0.9-2.1-1.2-4.2-1.8-6.6c-0.6-2.1-1.2-4.2-1.5-6.6c-0.3-2.1,0-3.9-0.3-6.3
		c0.6,0-3-0.3-7.2-1.8c-2.7-0.9-5.4-2.4-8.4-4.8c-2.7-2.1-5.1-5.7-6.9-9l4.5-8.4C812.3,399.7,809.6,398.8,808.1,401.5z"/>
</g>
<path fill="#008447" d="M1749.7,494.4c0,0,0-0.6,0.3-1.2s1.2-1.8,2.4-2.1c2.1-0.9,2.7-0.9,2.7-0.9s-1.2,0-2.4,0.3
	c-0.9,0-1.5,0.3-2.1,0.9c-0.3,0.3-0.6,0.6-0.9,0.9s-0.6,0.6-0.3-0.3c0-0.9,0.6-1.8,1.5-2.4c-0.6,0-2.1,1.2-2.4,2.1
	c0,0.9-0.6-1.5-1.8-2.4c-1.2-1.2-3.3-0.6-3.3-0.6s1.5,0,2.4,0.6c0.6,0.3,0.9,0.6,1.2,1.5c0,0.3,0.3,0.6,0.3,0.9c0.3,0.9,0,0.9,0,0.9
	s-0.3-0.3-1.8-0.6s-3,1.2-3,1.2s2.1-1.2,4.2-0.3c1.8,0.9,0,1.2,0.9,1.5C1748.5,494.7,1749.7,494.4,1749.7,494.4z"/>
<path fill="#008447" d="M1748.2,492.6c0.3-2.1,0.6-4.5,0.3-6.9c0-1.8,0-3.3-0.3-5.1s-0.9-4.5-1.2-6.3c-0.9-4.5-2.1-7.5-2.7-10.2
	c-0.3-0.6-0.3-1.2-0.6-1.8l1.2-0.3c0,0.3,0,0.9,0.3,1.8c0.6,2.4,1.8,5.7,2.7,9.9c0.6,1.8,0.9,4.2,1.2,6c0.3,2.1,0.3,4.2,0.6,6.3
	c0,2.4-0.3,5.1-0.3,7.5l0,0l0,0v0.3c-0.6,0.3-1.8,0.9-0.6,0c0.3-0.3-0.6,0.6-1.2-0.9C1747.6,492.9,1747.9,492.6,1748.2,492.6z"/>
<path fill="#FFFFFF" d="M1744.6,462.9c0,0-0.3,1.8-0.9,2.7c-0.3,0.9-1.2,1.2-1.8,0.9c-2.1,0,1.5-3.3,1.5-3.3s-2.1,0-3.6-1.2
	c-0.9-0.9-0.6-1.5,0.6-1.5c0.3,0,1.2,0.6,1.8,0.9c1.8,0.6,1.5,0.6,1.5,0.6s-1.8-3.6,0-4.2s0.6,4.2,0.6,4.2s0.9-2.4,2.7-2.7
	c2.1-0.3,0.6,1.2-0.6,2.1s-1.5,0.9-1.5,0.9s3,0,3.6,1.5C1749.4,465.3,1745.2,464.4,1744.6,462.9z"/>
<path fill="#FFF100" d="M1744,463.5c0.3,0.3,1.2,0,1.2-0.6c0.3-0.6-0.3-1.2-0.9-1.2c-0.6-0.3-1.2,0-1.2,0.6
	C1742.8,462.9,1743.4,463.5,1744,463.5z"/>
<path fill="#008447" d="M1748.5,494.4c0,0,0-0.3-0.3-0.9c-0.3-0.9-1.2-1.8-2.4-2.4c-2.1-0.6-2.7-0.6-2.7-0.6s1.2,0,2.7,0.3
	c0.6,0,1.2,0.3,1.8,0.9c0.6,0.3,0.9,0.6,0.9,0.6c0.6,0.3,0.6,0.9,0.6,0c-0.3-0.9-0.6-1.8-1.5-2.4c0.3,0,2.1,1.2,2.1,2.1
	c0.3,0.9,0.6-1.5,1.8-2.4c1.2-1.2,3.3-0.6,3.3-0.6s-1.2,0-2.4,0.6c-0.6,0-0.9,0.6-0.9,1.2c-0.3,0.6-0.3,0.9-0.6,1.2
	c-0.3,0.9,0,0.9,0,0.9s0.3-0.3,1.8-0.6s3,1.2,3,1.2s-2.1-1.2-3.9-0.3c-2.1,0.6-0.3,1.2-1.2,1.5
	C1749.7,495,1748.5,494.4,1748.5,494.4z"/>
<path fill="#008447" d="M1750,492.9c0-2.4-0.3-4.8-0.3-6.9c0.3-1.8,0.3-3.6,0.6-5.1c0.3-1.8,0.6-4.5,0.9-6.3
	c0.9-4.5,2.1-7.8,2.7-10.2c0.3-0.6,0.3-1.2,0.6-1.8l-0.9-0.3c-0.3,0.3-0.3,0.9-0.6,1.5c-0.6,2.7-1.8,5.7-2.7,10.2
	c-0.3,1.8-0.9,3.9-1.2,6c-0.3,2.1-0.3,4.2-0.3,6.3c-0.3,2.4,0,4.8,0.3,7.2l0,0v0.3v0.3c0.3,0.3,1.8,0.9,0.3-0.3
	c-0.3,0,0.6,0.9,1.2-0.6C1750.6,493.2,1750.3,492.9,1750,492.9z"/>
<path fill="#FFFFFF" d="M1753.9,463.2c0,0,0,1.8,0.6,2.7c0.6,0.9,1.2,1.2,2.1,0.9c1.8-0.3-1.8-3.6-1.8-3.6s2.4,0.3,3.6-0.9
	c0.9-0.9,0.6-1.5-0.3-1.5c-0.6,0-1.5,0.6-2.1,0.9c-1.8,0.6-1.5,0.6-1.5,0.6s1.8-3.6,0-4.2s-0.6,3.9-0.6,3.9s-0.6-2.1-2.7-2.4
	c-1.8-0.3-0.6,1.2,0.9,2.1c1.2,0.9,1.2,0.6,1.2,0.6s-2.7,0.3-3.6,1.8C1748.8,465.3,1753,464.7,1753.9,463.2z"/>
<path fill="#FFF100" d="M1754.5,463.8c-0.6,0.3-1.2,0-1.5-0.6c0-0.6,0.3-1.2,0.9-1.2c0.6-0.3,1.2,0,1.2,0.6
	C1755.4,462.9,1755.1,463.5,1754.5,463.8z"/>
<path fill="#008447" d="M559.5,501.3c0,0,0-0.6-0.3-1.5c-0.6-1.2-2.1-3-3.9-3.6c-3.3-1.2-4.2-1.2-4.2-1.2s1.8,0,3.9,0.3
	c1.2,0.3,2.1,0.6,3.3,1.5c0.6,0.6,0.9,0.9,1.2,1.2c0.6,0.6,0.9,1.2,0.6,0c-0.3-1.5-0.9-3-2.1-3.9c0.6-0.3,3.3,1.8,3.3,3
	c0.3,1.5,1.2-2.1,3-3.6c1.8-1.8,5.1-0.6,5.1-0.6s-2.1-0.3-3.6,0.6c-0.9,0.3-1.5,1.2-1.8,2.1s-0.6,1.5-0.6,1.8
	c-0.6,1.5-0.3,1.5-0.3,1.5s0.6-0.6,3-0.9c2.4-0.6,4.8,1.8,4.8,1.8s-3.3-2.1-6.3-0.6c-3,1.2-0.3,2.1-1.8,2.4
	C561.3,501.9,559.5,501.3,559.5,501.3z"/>
<path fill="#008447" d="M920.9,524.7c0,0,0-0.6-0.6-1.5c-0.3-0.9-1.5-2.4-3.3-3c-2.7-1.2-3.6-0.9-3.6-0.9s1.8-0.3,3.3,0
	c1.2,0.3,2.1,0.6,3,1.5c0.3,0.3,0.9,0.6,1.2,0.9c0.3,0.6,0.6,0.9,0.3,0c0-1.5-0.6-2.4-1.8-3.3c0.6-0.3,2.7,1.5,3,2.7
	s0.9-1.8,2.4-3.3s4.5-0.6,4.5-0.6s-1.8,0-3.3,0.6c-0.6,0.3-1.2,1.2-1.5,1.8c0,0.9-0.3,1.2-0.6,1.8c-0.3,1.2,0,1.2,0,1.2
	s0.3-0.6,2.4-0.9s4.2,1.5,4.2,1.5s-3-1.5-5.4-0.6c-2.7,1.2-0.3,1.8-1.5,2.4C922.4,525.3,920.9,524.7,920.9,524.7z"/>
<path fill="#008447" d="M34.2,518.1c0,0,0-0.3-0.3-0.9c-0.3-0.6-0.9-1.2-1.8-1.5c-1.5-0.6-1.8-0.6-1.8-0.6s0.6,0,1.5,0
	c0.6,0.3,1.2,0.3,1.5,0.9c0.3,0,0.6,0.3,0.9,0.3c0,0.3,0.3,0.6,0.3,0c-0.3-0.6-0.6-1.2-1.2-1.8c0.3,0,1.5,0.9,1.5,1.5
	c0.3,0.6,0.6-0.9,1.5-1.8c0.9-0.6,2.4-0.3,2.4-0.3s-0.9,0-1.8,0.3c-0.3,0.3-0.6,0.6-0.6,1.2c-0.3,0.3-0.3,0.6-0.6,0.9
	c-0.3,0.6,0,0.6,0,0.6s0.3-0.3,1.5-0.6c0.9,0,2.1,0.9,2.1,0.9s-1.5-0.9-3-0.3c-1.2,0.6,0,0.9-0.6,1.2
	C34.8,518.4,34.2,518.1,34.2,518.1z"/>
</svg>
