<?xml version="1.0" encoding="utf-8"?>
<!-- Generator: Adobe Illustrator 18.1.1, SVG Export Plug-In . SVG Version: 6.00 Build 0)  -->
<svg version="1.1" id="Warstwa_1" xmlns="http://www.w3.org/2000/svg" xmlns:xlink="http://www.w3.org/1999/xlink" x="0px" y="0px"
	 viewBox="0 0 1920 1080" enable-background="new 0 0 1920 1080" xml:space="preserve">
<path fill="#EBDECD" d="M-118.9,1179.5H2028l9-589.5c-16.8-5.1-36-14.4-56.2-22.8c-10.8-4.2-17.2-10.8-29.6-14.4
	c-12.8-3.9-31.7-5.1-42.4-4.5c-13.1,0.9-21.9-1.8-31.3,0.6c-9.4,2.4-19.5,9.9-35,13.8c-7.1,1.8-7.7,6.6-18.2,9.9s-31,5.4-39.7,7.5
	c-16.5,3.9-31.7,7.5-47.8,8.4c-15.8,0.6-32.7-1.2-52.5-3.3c-29.6-3-52.2-12.3-81.5-21.3c-17.2-5.4-43.8-9.3-62.3-15.3
	c-27.6-8.4-48.2-19.5-74.1-29.1c-35-12.6-70.4-27.3-108.4-33.9c-17.5-3-35.4-3-54.2-2.7c-23.9,0.3-47.5,8.1-80.5,18
	c-5.1,1.5-14.5,3.9-19.5,5.4c-34.3,9.9-73.1,24.9-112.1,33c-26.6,5.4-53.5,5.1-79.8,6.6c-15.5,0.9-37.4,3-49.5,5.7
	c-27.6,6.3-44.8,24-63,33.6c-25.6,13.5-50.8,18.3-90.6,15.9c-52.2-3-95.6-4.2-145.8-14.7c-16.8-3.6-45.1-2.1-63.6-7.5
	c-23.9-6.9-38.4-21.3-60.3-26.1c-20.9-4.5-53.2-14.4-74.4-18.3c-27.3-5.4-42.8-4.2-70-6c-101.4-6.3-142.4-41.1-204.4-28.8
	c-24.2,4.8-53.2,24-87.9,44.1C91,550.7,77.8,559.4,64,566.6c-24.8,12.7-51,23.5-73.6,34.3C-47,618.6-75.2,630.6-118,627.6
	L-118.9,1179.5z"/>
<path fill="#DBD0C0" d="M227.6,558.6c0,0-5.4,1.5-6.3,5.1c-0.6,3.6,28.5,18.3,34.8,22.5c6,4.5,18,13.8,24,15.9
	c6.3,2.4,33.3-1.2,64.2-6.3c30.9-4.8,84.6-18.3,78.3-23.7s-21.9-15-21.9-15L334,528.5L227.6,558.6z"/>
<g id="namiot--6">
	<g>
		<path fill="#AD997D" d="M287.6,583.8l-64.5-36.9c0,0,27.3-14.4,29.7-46.8c0,0,35.4-11.7,51.3-27c16.8,2.4,33.9,5.1,50.7,7.2
			l-8.1,41.7l-24.3,35.7L302.6,576L287.6,583.8z"/>
		<path fill="#A38E72" d="M287.6,583.8L221,547.2c0,0,29.1-15,32.1-47.7l61.8,19.8l6.3,39.6L302.6,576L287.6,583.8z"/>
		<path fill="#4D483A" d="M313.4,581.1c0,0,20.1-2.4,41.1-6c19.8-3.6,40.5-8.4,46.2-10.5c12-3.9-43.5-73.5-43.5-73.5l-8.7,10.2
			l-8.1,38.1L313.4,581.1z"/>
	</g>
	<path fill="#928069" d="M363.4,462.6l-5.4,9.6v-15.6c0-4.5-4.5-3.3-4.5,0.9v15.9l-5.4-7.5c-2.7-3.9-6.9-0.6-3.9,3.3l7.2,10.2
		c-12.3,24.6-38.1,39.6-37.2,39.9c-3,46.8-29.4,64.2-27.6,64.5c57.6-3.9,67.5-5.4,68.4-81.3c0.9,73.8,11.7,75,69,54.6
		c1.8-0.6-24.9-8.7-27.9-54.3c1.2-0.9-24-5.4-36.3-24.6l7.5-13.8C370,459.6,365.8,458.1,363.4,462.6z"/>
</g>
<g>
	<path fill="#928069" d="M1274.7,502.2c0,0-3.9,1.2-6.6,2.7c-1.8,0.9-2.7,1.8-3.3,3c-3,4.5-2.4,6.9,3.3,8.7
		c5.7,1.5,15.3-0.6,20.7-0.9c1.5-0.3,6.9-0.3,8.4-0.3c1.8,0,3,0.3,4.2,0.3c6.3-0.3,5.4-5.7-2.1-3.9c-3.6,1.2-11.1,0.9-15.6,0
		c-4.8-0.9-9.9-1.5-9.9-1.5s7.2-2.1,10.5-5.1c3-2.4,2.4-3.6,6.3-3.3c2.4,0,4.8,1.2,7.5,1.5c4.2,0.9,8.7,0.9,12.6-2.4
		c0.9-0.9,1.8-1.8,2.1-2.4c0.9,0,2.1-0.3,2.7-1.2c0.9-1.5-0.6-0.3,0-1.2c0.9-0.9,1.5-0.6,2.1-1.2c0.3-0.9-0.3-0.3-0.9-0.6
		c-0.6-0.3,0.6-0.3,0.9-0.9s-0.6-0.9-0.9-0.6c-0.3,0.6-0.9,1.2-1.2,0.9c0-0.6-0.9-0.6-0.6,0.3c0,1.2-0.6,0.9-0.9,0.3
		c0-0.6-0.6,0-0.6,1.2s-0.6,0.9-0.6,0.3c-0.3-0.3-0.6,0.6-0.6,1.5c0,0.3,0,0.6,0,0.6c-0.6,0.6-1.5,1.5-2.4,2.1
		c-1.8,0.9-4.5,2.1-6.6,2.1c-2.7,0-6.6-0.9-9.3-2.4c-3.6-1.5-5.4-4.2-7.5-6c-2.7-2.1-5.1-4.8-6.9-7.2c-1.2-1.8-1.8-3.3-2.7-4.5
		c-0.9-1.2-2.4-3-3.3-5.1c-0.9-1.8-1.8-3.6-2.1-4.8c-0.9-2.1-2.4-3.6-3.3-5.1c-0.9-1.8-1.5-3-3.9-3.6c-2.4-0.9-4.8,0-7.2,1.5
		c-1.8,0.9-3.3,3.3-4.8,4.5c-2.4,2.4-3,4.2-5.4,6.6c-1.5,1.5-3.3,2.4-5.1,2.1c-1.5,0-3.3-1.5-5.1-2.4c-3.3-2.1-4.8-3.3-6.9-6.9
		c-0.9-1.8-2.4-3.9-4.2-5.1c-1.2-0.9-2.4-1.5-4.5-1.5c-1.2,0-2.4,1.2-3.6,1.8c-1.8,1.5-3.3,3.3-4.5,5.4s-1.8,5.1-2.7,7.8
		c-1.5,5.1-3.6,9-6.6,10.5c-7.2,3.6-21.6,2.7-25.5-12.3c1.8,0,1.8-1.2,1.8-2.1c0-0.6-0.3-1.8-0.9-2.1c-1.5-0.3-3,0-3.6,2.4
		c0,0-1.2-0.6-3.9-0.9c-1.5,0-3.3,0.6-4.5,0.9c-1.8,0.6-3.3,1.5-4.5,1.8s-2.7,1.2-5.4,1.8c-1.2,0.3-2.1,0.3-3,0.6
		c-2.7,0.9-2.4,2.1-2.4,4.5c0,1.2,1.2,2.1,3,1.8c2.1-0.6,3.3-1.5,3.9-2.4c0,1.2-2.4,2.1-2.4,2.1c0.6,0.3,1.5,0.3,2.7,0
		c2.4,0,7.8,0,10.8,1.2s4.2,0.3,4.2,0.3c6.9,10.5,18.3,17.1,31.5,14.4c0,0-5.4,3.6-11.1,5.7c-3.6,1.2-8.4,2.1-11.7,3.6
		c-3.9,1.8-4.2,5.7,1.2,6c5.7,0.6,13.8,0.3,20.4,0.6c1.2,0,11.7,1.8,8.7-2.7c-1.2-1.8-5.1-1.2-6.9-0.9c-2.1,0.6-14.7-0.9-14.7-0.9
		c3.9-0.3,10.8-1.5,16.5-3c3.9-1.2,6.9-1.5,8.4-4.5c0-0.3,0.3-1.2,0.3-2.1s-0.6-1.8-0.6-1.8s1.8,1.5,1.2,3.3
		c-0.3,1.8-0.6,1.8-0.9,2.4c1.5,3.3,3.6,5.7,6.6,7.2c3.9,2.1,9,2.7,13.2,3.3c8.4,0.9,15.9-0.9,20.7-3.3c3-1.2,4.5-3.3,6-4.5
		c0,0,2.7-2.7,4.5-3.6C1269,503.4,1272.6,502.5,1274.7,502.2z"/>
	<path fill="#231F20" d="M1169.2,474.9c0.3,0,0.6,0.3,0.6,0.6c0,0.3-0.3,0.6-0.6,0.6c-0.6,0-0.6-0.3-0.6-0.6
		C1168.6,475.2,1168.6,474.9,1169.2,474.9z"/>
	<path fill="#231F20" d="M1166.2,471.9c0.3,0,0.6,0.3,0.6,0.6c0,0.3-0.3,0.6-0.6,0.6c-0.3,0-0.6-0.3-0.6-0.6
		C1165.6,472.2,1165.9,471.9,1166.2,471.9z"/>
</g>
<path fill="#008447" d="M1104.4,544.8c0,0,0-0.9-0.6-1.8c-0.6-1.5-2.1-3-4.2-3.9c-3.6-1.2-4.5-1.2-4.5-1.2s2.1-0.3,4.2,0.3
	c1.2,0.3,2.4,0.6,3.6,1.5c0.6,0.6,1.2,1.2,1.5,1.5c0.6,0.6,0.9,0.9,0.6-0.3c-0.3-1.5-0.9-3-2.7-3.9c0.9-0.3,3.9,1.8,3.9,3.3
	c0.3,1.5,1.2-2.4,3.3-4.2c1.8-1.8,5.7-0.6,5.7-0.6s-2.4-0.3-4.2,0.6c-0.9,0.3-1.5,1.5-1.8,2.4s-0.6,1.5-0.9,2.1
	c-0.6,1.5,0,1.5,0,1.5s0.6-0.6,3-1.2c2.7-0.3,5.4,2.1,5.4,2.1s-3.6-2.1-6.9-0.6c-3.3,1.2-0.3,2.1-2.1,2.7
	C1106.2,545.4,1104.4,544.8,1104.4,544.8z"/>
</svg>
