<?xml version="1.0" encoding="utf-8"?>
<!-- Generator: Adobe Illustrator 18.1.1, SVG Export Plug-In . SVG Version: 6.00 Build 0)  -->
<svg version="1.1" id="Warstwa_1" xmlns="http://www.w3.org/2000/svg" xmlns:xlink="http://www.w3.org/1999/xlink" x="0px" y="0px"
	 viewBox="0 0 1920 1080" enable-background="new 0 0 1920 1080" xml:space="preserve">
<path fill="#CCC1AD" d="M2037,423.4l1,766.6H-118.9l0.9-745.1c15.8-5.1,27.9-9.3,52.5-15.6c4.7-1.2,13.5-2.4,18.9-3.9
	c7.7-2.1,25.9-5.7,34.7-7.8c9.8-2.7,19.5-7.2,30-9.6c17.8-4.2,47.5-7.5,67-6.9c17.2,0.6,26.3,3.9,45.1,7.5
	c11.1,2.1,20.9,7.2,32.3,9.9c12.1,2.7,26.9,4.8,38.7,7.8c8.8,2.4,17.8,5.4,26.3,7.5c10.8,3,30.6,8.7,41.4,11.7
	c41.4,10.5,69.7,15.6,96,15.6c13.5,0,38-4.8,56.9-8.4c23.2-4.2,59.9-14.7,88.2-21.9c28.6-7.2,56.9-11.4,87.2-18.9
	c21.5-5.4,50.8-15,73.7-21c31.7-7.8,56.9-12,91.3-17.7c15.8-2.7,35.4-7.2,52.9-7.8c30.6-0.9,66,6,99,10.2c25.3,3,57.2,3.6,82.8,8.4
	c24.2,4.5,55.2,13.2,78.1,18.6c33.7,7.8,69.4,20.7,97.6,27.3c41.1,9.3,71.4,11.1,101.4,12.9c34.7,1.8,65.7,5.4,98.7-0.3
	c33-5.7,75.4-23.7,111.8-35.1c43.4-13.5,81.8-21.9,136.4-33.6c30.6-6.6,54.5-11.7,76.1-11.7c29,0,71.4,5.7,102.4,13.5
	c28.3,7.2,69.7,20.7,111.5,30C1945.4,413.2,1976,417.1,2037,423.4z"/>
<path fill="#C1B6A0" d="M856.4,372.9c0,0,1.2,0.6,1.5,1.2c0,0.9-10.5,5.8-12,6.7c-1.2,0.9-3.9,2.7-5.4,3.3
	c-1.2,0.3-7.2-0.6-14.1-1.8c-6.9-1.5-18.9-4.8-17.4-6c1.5-0.9,4.8-3,4.8-3l14.7-8.2L856.4,372.9z"/>
<g id="namiot--1">
	<path fill="#AD997D" d="M840.7,380l15-9.3c0,0-3.9-2.1-5.7-6.3c-0.9-1.5-0.9-3.6-1.2-5.7c0,0-2.7-0.6-5.7-2.1
		c-0.9-0.6-2.1-1.2-3.3-1.8c-1.2-0.9-2.1-1.8-3-2.7c-0.9,0-1.8,0.3-3,0.6c-1.2,0-2.7,0.6-4.2,0.9c-1.5,0-3,0-4.5,0.3l1.8,10.5l5.7,9
		l4.8,4.8L840.7,380z"/>
	<path fill="#A38E72" d="M840.7,380l4.5-3l4.5-2.1l3.3-1.8l3.3-2.4c0,0-2.4-0.9-4.5-3.6c-0.6-0.9-1.2-1.5-1.5-2.4
		c-0.3-0.6-0.6-1.2-0.6-1.8c-0.6-1.2-0.6-2.7-0.9-4.2l-2.4,0.9l-4.2,1.2l-4.2,1.8l-3.6,1.2l-1.5,9.9l4.5,4.5L840.7,380z"/>
	<path fill="#4D483A" d="M834.7,379.4c0,0-4.8-0.6-9.6-1.5c-4.5-0.9-9.3-2.1-10.8-2.4c-2.7-1.2,10.2-18.9,10.2-18.9l2.1,2.7l1.8,9.6
		L834.7,379.4z"/>
	<path fill="#928069" d="M823,349.4l1.2,2.4v-3.9c0-1.2,1.2-0.9,1.2,0.3v3.9l1.2-1.8c0.6-1.2,1.5-0.3,0.9,0.6l-1.8,2.7
		c0.9,1.5,1.2,3,2.1,4.2c0.9,1.2,2.1,2.4,3,3.3c1.8,1.8,3.9,2.7,3.6,2.7c0.3,1.8,0.3,3.3,0.6,4.8s0.9,3,1.5,4.2
		c2.1,5.1,4.8,7.2,4.5,7.2c-2.4,0-4.5,0-6.3-0.3c-3.9-0.6-6-1.8-7.5-4.8c-0.6-1.5-1.2-3-1.8-5.7c-0.3-2.4-0.3-5.7-0.3-9.6
		c-0.3,3-0.3,5.7-0.6,8.1c-0.3,3.6-1.2,5.7-2.1,7.2c-1.2,1.2-3,1.8-5.7,1.2c-0.9-0.3-2.1-0.6-3-0.9c-1.5-0.3-3-1.2-4.8-1.8
		c-0.3,0,1.5-0.6,3.3-3c0.6-0.9,1.5-1.8,1.8-2.7c0.6-1.2,0.9-2.7,1.2-4.2c0.3-1.2,0-2.4,0.3-3.9c-0.3,0,1.8,0,4.2-1.5
		c0.9-0.3,1.8-1.5,2.7-2.4c0.6-0.6,1.2-1.5,1.5-2.4l-1.8-3.6C821.5,348.8,822.4,348.2,823,349.4z"/>
</g>
</svg>
