<?xml version="1.0" encoding="utf-8"?>
<!-- Generator: Adobe Illustrator 18.1.1, SVG Export Plug-In . SVG Version: 6.00 Build 0)  -->
<svg version="1.1" id="Warstwa_1" xmlns="http://www.w3.org/2000/svg" xmlns:xlink="http://www.w3.org/1999/xlink" x="0px" y="0px"
	 viewBox="0 0 1920 1080" enable-background="new 0 0 1920 1080" xml:space="preserve">
<path fill="#D8CCB7" d="M2037,413.5l1,776.5H-118.9l0.9-698.3c12.8-3.9,9.4-18,36.4-20.7c26.9-2.7,65.7,13.5,113.8,13.5
	c15.8,0,37.7,6,69.4-2.1c25.3-6.6,52.2-7.8,79.8-16.5c22.6-6.9,46.5-13.8,72.1-19.2c21.5-4.8,43.4-23.7,68-24.9
	c40.4-1.5,54.5,3.6,92.9,11.7c12.5,2.7,39.1,8.4,53.5,12.9c19.2,5.7,26.3,10.5,43.4,14.1c19.2,3.9,54.5,9.6,73.7,12.3
	c44.8,6.9,71.7,8.1,108.8,9c18.5,0.3,45.1,1.8,68-0.6c22.6-2.7,50.2-14.1,75.1-19.2c42.8-8.1,95-16.2,141.4-24.9
	c32-6,60.9-17.7,91.9-21.6c29-3.6,62.6-8.4,93.3-11.1c27.3-2.7,67-3.6,95.6-0.9c29,2.4,46.8,9,76.1,13.2c29,4.5,51.5,8.4,82.2,14.7
	c21.2,4.5,51.2,11.4,71,15c45.1,8.1,92.3,28.8,133.7,32.4c28.3,2.4,51.5-10.5,79.1-10.5c32.3,0,64.6,3,87.9,0
	c52.2-6.3,98-30.9,136.7-43.2c17.2-5.4,39.4-12.3,56.9-15.6C1998.6,406.6,2011.1,415,2037,413.5z"/>
<path fill="#CCC0A9" d="M376.2,432.7c0,0,2.1,0.6,2.4,1.8c0.3,1.2-10.2,6.3-12.6,8.1c-2.1,1.5-6.6,4.8-8.7,5.4
	c-2.4,0.9-12-0.3-23.1-2.1c-11.1-1.8-30.6-6.3-28.2-8.4c2.1-1.8,7.8-5.1,7.8-5.1l22.5-10.4L376.2,432.7z"/>
<path fill="#CCC0A9" d="M1153.3,416.5c0,0-1.8,0.6-2.1,1.8c-0.3,1.2,10.2,6,12.3,7.5c2.4,1.5,6.6,4.5,8.7,5.4c2.4,0.6,12-0.9,23.1-3
	c11.4-2.1,30.6-7.5,28.5-9.3c-2.4-2.1-7.8-5.1-7.8-5.1l-17.4-10.6L1153.3,416.5z"/>
<g id="namiot--2">
	<path fill="#AD997D" d="M1175.1,424.9l-23.7-13.5c0,0,9.9-6,10.8-18.6c0,0,13.2-5.1,18.9-11.4c6.3,0.9,12.6,1.5,18.6,2.1l-3,16.8
		l-8.7,14.1l-7.5,7.5L1175.1,424.9z"/>
	<path fill="#A38E72" d="M1175.1,424.9l-24.6-13.5c0,0,10.8-6,11.7-18.9l22.8,6.9l2.4,15.3l-6.9,7.2L1175.1,424.9z"/>
	<path fill="#4D483A" d="M1184.7,423.7c0,0,7.2-1.2,15-3c7.2-1.5,15-3.6,17.1-4.5c4.2-1.8-16.2-28.2-16.2-28.2l-3,3.9l-3,15.3
		L1184.7,423.7z"/>
	<path fill="#928069" d="M1203,376.6l-2.1,3.9v-6c0-1.8-1.5-1.5-1.5,0.3v6.3l-2.1-3c-0.9-1.5-2.4,0-1.5,1.2l2.7,4.2
		c-4.5,9.6-14.1,15.9-13.5,15.9c-1.2,18.3-10.8,25.5-10.2,25.5c21-2.1,24.9-2.7,25.2-32.4c0.3,28.8,4.2,29.1,25.2,20.4
		c0.6-0.3-9-3.3-10.2-21c0.3-0.3-9-1.8-13.5-9.3l3-5.4C1205.4,375.4,1203.9,374.8,1203,376.6z"/>
</g>
<g id="namiot--3">
	<path fill="#AD997D" d="M355.2,441.9l23.4-14.4c0,0-6-3-9-9.9c-1.2-2.4-1.5-5.4-1.8-9c0,0-4.2-0.6-9-3c-1.5-0.9-3.3-2.1-5.1-3
		c-1.8-1.5-3.3-3-4.5-4.5c-1.5,0.3-3.3,0.9-4.8,0.9c-2.1,0.6-4.5,1.2-6.6,1.5c-2.4,0.3-4.8,0.3-7.2,0.6l3,16.5l9,14.1l7.2,7.2
		L355.2,441.9z"/>
	<path fill="#A38E72" d="M355.2,441.9l6.9-4.5l7.2-3.6l4.8-2.7l5.4-3.6c0,0-3.6-1.5-6.9-6c-0.9-0.9-2.1-2.1-2.7-3.3
		c-0.6-0.9-0.6-2.1-0.9-3c-0.9-1.8-0.9-4.2-1.2-6.6l-3.9,1.5l-6.6,1.8l-6.3,3l-5.7,1.8l-2.4,15.6l6.9,6.6L355.2,441.9z"/>
	<path fill="#4D483A" d="M345.6,441c0,0-7.2-0.9-14.7-2.4c-7.5-1.2-15-3.3-17.1-3.9c-4.2-1.5,15.9-29.1,15.9-29.1l3.3,3.9l3,15
		L345.6,441z"/>
	<path fill="#928069" d="M327.6,394.3l1.8,3.6v-6c0-1.8,1.8-1.5,1.8,0.3v6.3l1.8-3c1.2-1.5,2.7-0.3,1.5,1.2l-2.7,4.2
		c1.2,2.4,1.8,4.5,3.3,6.6c1.2,1.8,3,3.6,4.5,4.8c3,3,6,4.2,5.7,4.5c0.3,2.7,0.3,5.1,0.6,7.5c0.6,2.4,1.8,4.8,2.7,6.6
		c3,8.1,7.5,11.1,6.9,11.4c-3.6-0.3-6.9-0.3-9.6-0.6c-6.3-0.9-9.6-2.7-12-7.5c-0.9-2.4-2.1-4.8-2.4-8.7c-0.6-3.9-0.9-9.3-0.9-15.3
		c0,4.8-0.6,9-0.9,12.6c-0.3,6-1.5,9-3.3,11.1c-2.1,2.4-4.5,3-9,2.1c-1.2-0.3-3-0.9-4.5-1.5c-2.1-0.6-4.8-1.5-7.5-2.7
		c-0.3,0,2.4-0.9,5.4-4.8c0.9-1.2,1.8-2.4,2.7-4.2c0.6-1.8,1.5-4.2,1.8-6.6c0.3-1.8,0-3.6,0.3-6c-0.3,0,3,0,6.6-2.1
		c1.5-0.9,3-2.7,4.5-4.2c0.9-0.9,1.5-2.4,2.1-3.6l-2.7-5.4C325.2,393.1,326.7,392.5,327.6,394.3z"/>
</g>
</svg>
