<?xml version="1.0" encoding="utf-8"?>
<!-- Generator: Adobe Illustrator 18.1.1, SVG Export Plug-In . SVG Version: 6.00 Build 0)  -->
<svg version="1.1" id="Warstwa_1" xmlns="http://www.w3.org/2000/svg" xmlns:xlink="http://www.w3.org/1999/xlink" x="0px" y="0px"
	 viewBox="0 0 1920 1080" enable-background="new 0 0 1920 1080" xml:space="preserve">
<path fill="#F1E9DC" d="M2038,614.4v565.2H-118.9l1.9-586.8c42.4,0,73.1-6,113.1-3.3c31.7,1.8,72.7,11.1,106.7,16.5
	c37.4,5.7,67,19.5,103,26.4c19.5,3.9,39.4,17.7,57.6,21.6c38,8.4,70,6,90.6,6c39.1,0,66-27,119.2-49.2
	c29.6-12.3,73.7-21.6,118.2-27.9c18.9-2.7,47.1-5.4,70.7-9.9c36.7-7.5,69.7-16.8,91.6-18.3c39.4-3,79.8-1.8,117.9-2.1
	c18.5-0.3,39.4-4.8,53.5-3c22.6,3,43.1,16.5,67,28.2c17.2,8.4,37,14.1,56.6,22.2c19.2,7.8,39.7,21,60.3,25.5
	c18.2,3.9,36.7-0.6,51.2,0.3c16.5,1.2,39.1,0.9,67.7-6.3c15.2-3.6,32.7-11.7,49.5-16.8c18.5-5.7,38.7-9.9,57.6-15.9
	c14.5-4.8,28.3-11.7,39.7-14.1c19.9-3.9,36.7-12.3,59.9-15.9c10.4-1.8,25.9-0.3,37-0.9c23.9-1.5,47.5-5.7,73.1-3.9
	c17.8,1.2,37.7,8.1,55.9,9.6c17.5,1.8,37.7,8.7,57.9,12.3c15.8,3,31.7,3,43.4,5.1c12.5,2.1,24.2,2.1,35.4,5.4
	c19.5,5.7,37.7,15.6,53.9,19.8c14.5,3.6,27.3,10.8,39.4,13.8c17.5,3.9,32.3,9.3,45.1,10.5c12.8,1.2,23.6-1.8,31.7-1.8
	c16.8,0,31.7,0.6,42.8-0.6c8.4-0.9,13.5-3.9,21.9-4.8c11.8-1.5,24.9-5.1,39.1-6.3C2019.5,614.1,2028.6,615.9,2038,614.4z"/>
<path fill="#E5DDD0" d="M1628.5,626.4c0,0,9,1.8,10.5,7.5c1.2,5.4-47.1,31.5-57.3,39c-10.5,7.2-30,23.1-40.2,27.3
	s-54.9,1.2-105.9-3.6c-51-5.1-139.7-20.7-129.5-30c10.5-9,36-25.5,36-25.5l72.5-51.4L1628.5,626.4z"/>
<path fill="#E5DDD0" d="M1030.9,719.9c0,0,12,2.4,13.5,9.9c1.8,7.2-61.8,41.7-75.3,51.3c-13.8,9.6-39.3,30.6-53.1,36
	c-13.5,5.7-72.3,1.8-139.7-4.8C708.9,806,591.6,785,605.4,773c13.8-12,47.4-33.6,47.4-33.6l105.8-66.9L1030.9,719.9z"/>
<g id="namiot--7">
	<path fill="#AD997D" d="M901.4,780.2l140.3-87c0,0-36-10.2-55.2-41.4c-9-14.4-7.8-36-9.3-58.2c0,0-16.2-3.6-38.7-10.8
		c-8.7-3-19.5-5.7-29.1-10.2c-8.4-3.9-18.3-12-26.1-17.1c-6.9-4.5-12.9-10.5-18.3-15.6c-10.2,1.8-17.4,4.8-27.6,7.2
		c-11.7,3-26.1,5.4-37.5,7.8c-15.6,3-30.3,3-45.9,6l17.7,90.9l53.1,75.6l43.8,37.5L901.4,780.2z"/>
	<path fill="#A38E72" d="M903.2,780.2l43.2-28.5l56.1-29.7l43.8-28.5c0,0-36.3-12.3-57-49.2c-3.6-6.3-6-15.6-8.4-23.1
		c-2.4-8.1-3.3-19.2-4.2-28.5l-27.6,11.1l-43.2,14.4l-26.1,11.4l-38.1,12.6l-14.4,87.3l41.4,35.4L903.2,780.2z"/>
	<path fill="#4D483A" d="M844.4,777.5c0,0-43.8-3-89.7-9c-43.2-5.7-88.5-14.1-101.1-17.7c-26.1-7.2,95.4-165.2,95.4-165.2l18.9,21
		l17.7,82.8L844.4,777.5z"/>
	<path fill="#928069" d="M735.3,523.2l11.7,20.1v-33.9c0-9.6,9.9-8.1,9.9,1.8v34.5l12-17.1c6-8.7,14.4-1.8,8.7,6.6l-16.2,23.4
		c6.6,13.2,11.4,25.5,20.4,35.7c6.3,7.2,14.1,18,21,23.7c21.9,18.3,41.4,24.3,39.9,24.9c1.2,18,1.8,32.4,5.1,46.8
		c3.3,15,9.6,29.7,15,40.5c18.3,36,42.9,49.8,40.5,50.4c-72.3-1.5-108.5-2.7-128-35.7c-4.5-7.5-10.5-16.5-13.5-27.9
		c-6.6-24.3-7.5-58.8-8.4-107c-0.3,29.1-3,52.8-5.4,72.3c-0.6,7.8,1.5,14.7,0.3,21c-3.3,16.8-10.2,28.5-17.1,37.2
		c-21,25.5-57.9,18-128.3-3.3c-2.4-0.9,20.7-9.3,39.9-42.6c5.4-9.3,12-21.3,15.9-34.8c3.3-12.6,3.9-27.6,5.1-44.7
		c-1.5-0.9,15-0.3,35.1-11.4c5.1-2.7,11.7-9.6,16.8-13.5c10.5-8.1,20.1-21,27.9-33.6l-16.8-29.4
		C720.9,517.5,729.9,513.3,735.3,523.2z"/>
</g>
<g>
	<path fill="#E5DDD0" d="M1553,945.4c40.5,0,88.5-5.4,117.2-7.5c16.5-1.2,30.9-5.7,42-6.9c33.3-3.6,32.1-6.6-5.7-9.6
		c-29.4-2.1-71.1-6.9-129.5-7.8c-27.9-0.3-63.3,2.1-95.7,2.4c-11.7,0-28.2-0.9-39-0.6c-44.1,1.2-75.3,4.8-105.6,5.7
		c-33,0.9-59.1,0.3-72.9-0.3c-11.7-0.3-18.6,3-17.4,5.1c1.8,2.4,14.1,2.4,22.8,3.3c24.3,2.1,69.9,6,131.9,6.9
		c27,0.3,45,4.8,72.3,7.2C1496.6,945.4,1529.6,945.4,1553,945.4z"/>
	<path fill="#928069" d="M1599.2,887.2c0,0-11.4,3-19.8,7.5c-5.4,2.7-8.4,5.7-10.5,9c-8.7,13.8-6.9,21.6,10.2,26.4
		c17.4,5.1,46.8-1.2,63.3-2.7c4.5-0.3,21-0.9,25.8-0.6c5.4,0,8.7,0.9,12.6,0.9c19.2-0.6,16.2-18-6.3-11.7c-11.4,3-33.9,2.1-47.4,0
		c-14.7-2.4-30.6-4.8-30.6-4.8s21.6-6.3,32.4-15.3c9-7.5,6.9-11.1,18.6-10.5c7.5,0.6,15,3.6,22.8,5.1c13.2,2.4,26.7,2.1,38.1-7.5
		c3.3-3,5.4-5.4,6.9-7.5c2.1-0.3,6-0.9,8.1-3.9c2.7-4.2-2.4-0.9,0-3.6c2.1-2.4,4.2-1.2,5.7-3.6c1.8-2.1-0.6-1.2-2.4-1.8
		s1.8-1.2,3-2.7c0.9-1.8-2.1-3-3-1.2c-0.6,1.5-2.7,3.6-3.3,2.1c-0.3-1.5-2.4-1.5-2.4,1.5c0.3,3-1.8,2.4-2.1,0.6c0-1.8-1.8,0-1.8,3.6
		s-1.8,2.4-2.4,0.9c-0.6-1.2-1.2,1.5-1.5,4.2c0,1.2,0,1.8,0.3,2.4c-2.1,2.1-4.5,3.9-7.5,5.7c-5.1,3.3-13.5,7.2-20.1,7.2
		c-7.8,0-19.8-3.3-28.8-7.5c-9.9-4.8-15.6-12.9-22.5-18.3c-8.1-6.3-15.3-14.4-20.7-22.2c-3.3-4.8-5.1-9.6-8.4-14.1
		c-2.4-3.3-6.6-9.3-10.2-15.9c-2.7-5.1-4.8-10.8-6.6-14.7c-2.4-5.7-6.6-10.5-9.3-14.7c-3.3-5.4-5.4-9-11.7-11.1
		c-7.5-2.4-15.3-0.3-22.8,4.2c-5.1,3.3-9.6,10.2-13.8,14.4c-7.2,7.5-9,12.3-16.2,19.5c-4.8,4.5-10.2,7.8-15.6,7.2
		c-5.1-0.9-10.5-5.1-15.3-8.1c-10.5-6.3-15.3-9.3-21-20.7c-3-5.7-7.5-12-12.9-15.9c-3.9-2.4-7.8-4.2-13.8-3.9
		c-3.9,0.3-7.5,3.3-10.8,5.7c-5.7,4.2-10.2,9.3-13.5,15.6c-3.6,7.2-6,16.2-8.4,24.3c-4.8,15.6-11.1,28.2-20.7,33
		c-21.6,10.8-64.8,7.8-76.8-38.1c5.4-0.3,5.7-3.9,5.7-6.3c-0.3-2.4-1.2-5.4-3.6-6.3c-4.5-1.5-8.7,0-10.2,7.2c0,0-4.2-2.4-12.3-2.7
		c-4.2-0.3-9.3,1.2-13.2,2.7c-6,2.1-10.2,4.2-14.1,5.1c-3.9,1.2-8.1,3.6-16.2,5.4c-3.9,0.9-6.6,1.2-9.6,2.1
		c-7.2,2.4-6.9,6.6-6.9,13.8c0,4.2,3.6,7.2,8.7,6c6.6-1.2,10.2-4.5,12.6-8.4c-0.6,4.8-7.5,8.1-7.5,8.1c1.5,0,4.8,0,8.4,0
		c7.5-0.3,23.1-0.6,32.1,3c9.3,3.6,13.5,0.9,13.5,0.9c20.7,32.4,55.5,51.9,95.4,43.5c0,0-16.2,11.1-33.3,17.4
		c-11.4,3.9-25.8,6.9-35.4,11.4c-12,5.4-13.2,17.1,3.3,18.3c17.1,1.2,42,0.6,62.1,1.2c3.6,0.3,35.4,5.7,26.7-7.8
		c-3.6-5.7-15.6-4.5-21.6-3s-44.1-2.7-44.1-2.7c11.7-0.6,32.7-4.8,49.8-9.6c11.4-3,20.7-3.9,25.2-12.9c0.6-1.2,1.5-3.9,1.2-6.3
		c-0.3-3.3-1.8-6.3-1.8-6c0,0,4.8,4.8,3.9,10.2c-1.2,5.4-2.1,5.4-3,7.2c4.8,9.9,11.1,17.4,19.5,21.6c12.6,6.3,27.6,8.4,40.8,9.9
		c25.2,2.7,48.3-3,62.7-9.9c8.7-3.9,13.2-10.2,17.7-13.8c0,0,8.7-8.1,13.8-11.1C1581.8,890.5,1593.2,887.5,1599.2,887.2z"/>
	<g id="oczy4">
		<path fill="#231F20" d="M1269.3,798.2c1.2,0,1.6-1.3,0.8-0.9c-1.5,0.6-2.1-0.2-2.1-1.8c0-0.9-0.5-0.3-0.5,0.9
			C1267.5,797.3,1268.4,798.2,1269.3,798.2z"/>
		<path fill="#231F20" d="M1278.3,807.2c1.2,0,1.6-1.3,0.8-0.9c-1.5,0.6-2.1-0.2-2.1-1.8c0-0.9-0.5-0.3-0.5,0.9
			C1276.5,806.3,1277.4,807.2,1278.3,807.2z"/>
	</g>
	<g id="oczy3">
		<path fill="#231F20" d="M1278.3,803.6c0.9,0,1.8,0.6,1.8,1.8c0,0.9-0.9,1.8-1.8,1.8c-1.2,0-1.8-0.9-1.8-1.8
			C1276.5,804.2,1277.1,803.6,1278.3,803.6z"/>
		<path fill="#231F20" d="M1269.3,798.2c1.2,0,2.1-0.9,2.1-1.8c0-1.2-0.9-1.8-2.1-1.8c-0.9,0-1.8,0.6-1.8,1.8
			C1267.5,797.3,1268.4,798.2,1269.3,798.2z"/>
	</g>
</g>
<path fill="#231F20" d="M1227.6,819.8c0,0,0.3-1.8,1.2-3.3c0.9-1.2,3.3-2.4,4.8-2.1c0.6,0.3,0.9,1.5-0.6,1.8c-1.8,0.3-2.4,0-2.4,0
	C1230.6,815.9,1229.1,816.2,1227.6,819.8z"/>
<g>
	<path fill="#E5DDD0" d="M292.4,937.6c-40.5-0.3-88.5-5.7-116.9-7.5c-16.8-1.2-30.9-5.7-42.3-6.9c-33-3.6-31.8-6.9,6-9.6
		c29.1-2.4,70.8-7.2,129.5-8.1c27.6-0.3,63.3,2.1,95.7,2.4c11.7,0.3,27.9-0.6,38.7-0.3c44.1,0.9,75.3,4.5,105.6,5.4
		c33.3,0.9,59.4,0.3,72.9,0c12-0.3,18.6,3,17.4,4.8c-1.5,2.7-14.1,2.7-22.5,3.3c-24.3,2.4-69.9,6.3-131.9,6.9
		c-27.3,0.6-45,4.8-72.3,7.2C348.7,937.3,316.1,937.6,292.4,937.6z"/>
	<path fill="#928069" d="M232.7,881.2c0,0,10.2,2.7,18.3,6.9c4.8,2.4,7.5,5.4,9.3,8.1c8.1,12.6,6.3,19.8-9.3,24.3
		s-42.6-1.5-57.9-2.7c-3.9-0.3-18.9-0.6-23.4-0.6c-4.8,0.3-7.8,0.9-11.4,0.9c-17.7-0.6-14.7-16.2,5.7-10.8c10.2,3,30.9,2.1,43.2,0
		c13.5-2.1,27.9-4.2,27.9-4.2s-19.8-5.7-29.4-13.8c-8.4-6.9-6.3-10.5-16.8-9.6c-7.2,0.6-14.1,3.3-21.3,4.5
		c-11.7,2.1-24,2.1-34.5-6.9c-3-2.7-5.1-4.8-6.3-6.9c-2.1,0-5.4-0.6-7.2-3.3c-2.7-4.2,1.8-0.9,0-3.3c-2.1-2.4-3.9-1.2-5.4-3.3
		s0.6-1.2,2.1-1.8c1.8-0.6-1.5-0.9-2.7-2.4c-0.9-1.5,2.1-2.7,2.7-1.2c0.9,1.5,2.7,3.3,3,2.1c0.3-1.5,2.4-1.5,2.1,1.2
		c0,2.7,1.8,2.1,2.1,0.6c0-1.8,1.8,0,1.8,3.3s1.5,2.1,2.1,0.9c0.3-1.2,0.9,1.2,1.2,3.9c0,0.9,0,1.5,0,2.1c1.8,1.8,3.9,3.6,6.6,5.4
		c4.8,2.7,12.3,6.3,18.6,6.3c6.9,0,18-3,26.1-6.9c9-4.2,14.1-11.7,20.7-16.5c15.9-12.6,17.7-16.2,31.2-34.2
		c9-12.6,25.5-11.4,37.5-30.3c1.5-2.1,15-28.2,46.2-27.6c23.4,0.6,27,17.7,45.3,28.8c23.7,14.7,25.8,19.2,41.7,35.7
		c12.6,12.6,42,26.4,63.9,33.6c23.4,7.8,55.8,12,75.3,6c-4.8-0.6-5.1-3.6-5.1-6c0.3-2.1,1.2-4.8,3.3-5.7c3.9-1.2,8.1,0,9.3,6.6
		c0,0,3.9-2.1,11.4-2.7c3.6,0,8.4,1.5,12,2.7c5.4,1.8,9,3.6,12.6,4.8c3.6,0.9,7.5,3,14.7,4.8c3.9,0.9,6.3,0.9,9,1.8
		c6.6,2.4,6.3,6,6.3,12.6c0,3.9-3.3,6.6-8.1,5.7c-5.7-1.2-9-4.2-11.4-7.8c0.6,4.2,6.9,7.2,6.9,7.2c-1.2,0.3-4.2,0.3-7.8,0.3
		c-6.6-0.3-21-0.6-29.1,2.7c-8.4,3.3-18.9-4.5-18.9-4.5c-40.2,8.7-105.3-9.9-122-17.7c0,0,15,10.2,30.6,15.9
		c10.2,3.6,23.4,6.3,32.1,10.2c10.8,5.1,12.3,15.9-3,16.8c-15.6,1.2-38.4,0.9-56.7,1.2c-3.3,0.3-32.4,5.1-24.3-7.2
		c3.3-5.1,14.1-3.9,19.5-2.4c5.7,1.2,40.5-2.7,40.5-2.7c-10.8-0.3-30-4.5-45.3-8.7c-10.8-2.7-19.2-3.6-23.1-12
		c-0.6-0.9-1.5-3.3-1.2-5.7c0-3,1.5-5.7,1.5-5.4c0,0-4.2,4.5-3.3,9.3c0.9,5.1,1.8,5.1,2.7,6.6c-4.5,9-10.5,15.9-18,19.8
		c-11.4,5.7-24.9,7.8-37.2,9c-22.8,2.7-44.1-2.7-57.3-9c-7.8-3.6-12-9.3-16.2-12.6c0,0-7.8-7.5-12.3-10.2
		C248.6,884.2,238.1,881.5,232.7,881.2z"/>
	<g id="oczy2">
		<path fill="#231F20" d="M573.5,868.9c0.4,1.4-0.3,2-1.5,1.5c-0.8-0.3-0.1,0.7,0.7,0.7c0.9,0,1.5-0.6,1.5-1.5
			C574.3,868.7,573.3,868,573.5,868.9z"/>
		<path fill="#231F20" d="M581,861.1c0.4,1.4-0.3,2-1.5,1.5c-0.8-0.3-0.1,0.7,0.7,0.7c0.9,0,1.5-0.6,1.5-1.5
			C581.8,860.9,580.8,860.2,581,861.1z"/>
	</g>
	<g id="oczy1">
		<path fill="#231F20" d="M572.8,868.1c-0.9,0-1.5,0.6-1.5,1.5s0.6,1.5,1.5,1.5s1.5-0.6,1.5-1.5
			C574.3,868.7,573.7,868.1,572.8,868.1z"/>
		<path fill="#231F20" d="M580.3,863.6c0.9,0,1.5-0.9,1.5-1.8c0-0.9-0.6-1.5-1.5-1.5s-1.5,0.6-1.5,1.5S579.4,863.6,580.3,863.6z"/>
	</g>
</g>
<path fill="#231F20" d="M612.9,882.4c0,0-0.3-1.5-1.2-2.7c-0.6-0.9-2.7-2.1-3.9-1.8c-0.6,0.3-0.9,1.2,0.6,1.5c1.2,0.3,1.8,0,1.8,0
	C610.2,879.1,611.7,879.4,612.9,882.4z"/>
<g id="namiot--8">
	<path fill="#AD997D" d="M1531.1,674.6l107.6-66.9c0,0-27.6-7.8-42.3-31.5c-6.9-11.1-6-27.6-7.2-44.7c0,0-12.3-2.7-29.4-8.4
		c-6.9-2.1-15-4.2-22.5-7.8c-6.3-3-14.1-9.3-19.8-12.9c-5.4-3.6-10.2-8.4-14.4-12.3c-7.5,1.5-13.2,3.9-21,5.7
		c-9,2.4-20.1,4.2-28.8,6c-12,2.1-23.1,2.4-35.1,4.5l13.5,69.9l40.8,57.6l33.3,29.1L1531.1,674.6z"/>
	<path fill="#A38E72" d="M1532.6,674.6l33-22.2l43.2-22.5l33.6-21.9c0,0-27.9-9.3-43.8-37.8c-2.7-4.8-4.5-11.7-6.3-17.7
		c-2.1-6-2.7-14.7-3.3-21.9l-21.3,8.7l-33,10.8l-20.1,9l-29.1,9.6l-11.1,66.9l31.5,27.3L1532.6,674.6z"/>
	<path fill="#4D483A" d="M1487.6,672.5c0,0-33.6-2.4-69-6.9c-33-4.5-67.8-10.8-77.4-13.5c-20.1-5.7,73.2-126.8,73.2-126.8l14.4,16.2
		l13.5,63.6L1487.6,672.5z"/>
	<path fill="#928069" d="M1403.9,477.9l8.7,15v-25.5c0-7.5,7.8-6.3,7.8,1.2v26.1l9-12.9c4.5-6.6,11.4-1.2,6.6,5.1l-12.3,17.7
		c5.1,10.2,9,19.5,15.9,27.3c4.8,5.7,10.8,13.8,15.9,18.3c16.8,14.1,31.8,18.6,30.6,18.9c0.9,13.8,1.2,24.9,3.9,36
		c2.7,11.4,7.2,22.8,11.4,30.9c14.1,27.9,33,38.4,31.2,38.7c-55.5-1.2-83.1-2.1-98.4-27.3c-3.3-5.7-7.8-12.6-10.2-21.3
		c-5.1-18.9-5.7-45.3-6.3-82.2c-0.3,22.2-2.4,40.5-4.2,55.5c-0.6,6,1.2,11.4,0.3,16.2c-2.7,12.9-8.1,21.9-13.2,28.5
		c-16.2,19.5-44.4,13.8-98.4-2.7c-1.8-0.6,15.9-7.2,30.6-32.7c3.9-7.2,9-16.2,12-26.4c2.7-9.9,3-21.3,3.9-34.5
		c-0.9-0.6,11.7-0.3,27-8.7c3.9-2.1,9-7.2,12.9-10.2c8.1-6.3,15.3-16.2,21.3-25.8l-12.9-22.2
		C1392.8,473.4,1399.7,470.4,1403.9,477.9z"/>
</g>
<g>
	<path fill="#008447" d="M1127.8,937c0,0,0.9-7.5-0.6-16.2c-0.6-3-1.5-7.2-2.7-11.1c-0.6-2.4-1.5-4.2-2.7-7.2
		c-2.1,0-4.5-0.3-6.6-0.3c-1.8,0.3-3.3,0.3-5.1,0.9c-1.8,0.3-4.2,0.9-6,1.5c-3.9,1.5-6.6,3.3-9,4.5c-0.6,0-1.2,0.3-1.8,0.6l-0.6-1.5
		c0.6,0,1.2-0.3,1.8-0.6c2.1-0.9,4.8-2.7,8.7-4.5c1.8-0.6,3.9-1.2,5.7-1.5c1.8-0.6,4.2-0.6,6.3-0.9c2.1-0.3,4.8,0.3,7.2,0.3l0,0l0,0
		h0.6v0.6c1.5,3.6,2.4,5.4,3.3,8.1c0.9,3.6,2.7,9.3,3,12.6c1.2,8.1,0,15,0,15L1127.8,937z"/>
	<path fill="#FFFFFF" d="M1093.3,909.4c0,0,2.1-2.4,2.7-4.8c0.6-1.5,0-2.7-1.2-3.6c-3-2.4-2.7,6.6-2.7,6.6s-2.4-3-6-3.3
		c-2.4,0-2.7,1.5-1.2,2.4c0.6,0.9,2.4,1.2,3.6,1.8c3,1.2,2.7,0.9,2.7,0.9s-6.9,2.7-5.4,5.7c1.8,3,6-4.5,6-4.5s-1.8,3.6,0.3,6.6
		s2.4-0.9,1.8-3.6s-0.9-2.7-0.9-2.7s4.2,3.3,6.9,2.7C1102.6,912.7,1096,908.2,1093.3,909.4z"/>
	<path fill="#FFF100" d="M1093.3,907.6c1.2,0.6,1.5,1.8,0.9,2.7c-0.3,0.9-1.5,1.2-2.7,0.6c-0.9-0.6-1.2-1.8-0.9-2.7
		C1091.2,907.3,1092.4,907,1093.3,907.6z"/>
	<path fill="#008447" d="M1129.9,934.6c-0.3-4.2-0.6-8.7-0.3-12.6c0-3.6,0.3-6.6,0.6-9.9c0.6-3.6,1.2-8.7,2.1-12
		c1.5-8.1,3.9-14.1,5.1-18.9c0.3-1.2,0.6-2.1,0.9-3.3l-1.8-0.6c-0.3,0.9-0.6,2.1-0.9,3.3c-1.2,4.8-3.3,10.5-5.1,18.3
		c-0.9,3.3-1.5,7.8-2.1,11.4c-0.6,3.6-0.6,8.1-0.9,12c-0.3,4.5,0.3,9.3,0.6,13.5l0,0v0.3v0.9c0.9,0.3,3.3,1.5,0.6-0.6
		c-0.3-0.3,1.2,1.5,2.4-1.2C1131.1,934.9,1130.8,934.9,1129.9,934.6z"/>
	<path fill="#FFFFFF" d="M1136.8,879.1c0,0,0.3,3.3,1.5,5.4c0.9,1.2,2.1,1.8,3.6,1.5c3.6-0.3-3-6.6-3-6.6s4.2,0.6,6.6-1.8
		c1.8-1.5,0.9-2.7-0.9-2.7c-0.9,0-2.4,0.9-3.6,1.5c-3,1.2-2.7,1.2-2.7,1.2s3.3-6.9,0-7.8c-3.3-0.9-1.2,7.5-1.2,7.5s-1.2-4.2-4.8-4.8
		c-3.6-0.3-1.2,2.4,1.2,3.9c2.4,1.5,2.7,1.5,2.7,1.5s-5.4,0.3-6.9,3C1127.8,883.3,1135.6,881.8,1136.8,879.1z"/>
	<path fill="#FFF100" d="M1138,880.3c-0.9,0.3-2.1,0-2.4-1.2c-0.3-0.9,0.3-2.1,1.5-2.4c0.9-0.3,2.1,0.3,2.4,1.2
		C1139.8,879.1,1139.2,880,1138,880.3z"/>
	<path fill="#008447" d="M1132.3,938.2c0,0-0.3-1.2,0.6-2.7c1.2-2.1,3.3-4.8,6.3-6c5.4-2.1,6.9-1.8,6.9-1.8s-3-0.3-6.3,0.3
		c-1.8,0.6-3.6,1.2-5.4,2.4c-0.9,0.9-1.8,1.8-2.1,2.1c-1.2,0.9-1.5,1.8-1.2,0c0.6-2.7,1.5-4.8,3.9-6.3c-1.2-0.3-5.4,2.7-6,5.1
		c-0.3,2.4-1.5-3.6-4.5-6.3s-8.7-1.2-8.7-1.2s3.6-0.3,6.3,1.2c1.5,0.6,2.1,2.1,2.7,3.6c0.3,1.2,0.9,2.4,1.2,3
		c0.9,2.4,0.3,2.4,0.3,2.4s-0.9-0.9-4.8-1.5c-3.9-0.9-8.1,3-8.1,3s5.7-3.3,10.5-1.2c5.1,2.4,0.3,3.6,3,4.2
		C1129.3,939.4,1132.3,938.2,1132.3,938.2z"/>
</g>
<g>
	<path fill="#008447" d="M1061.8,658.4c0,0,0-1.2-0.6-2.4c-0.9-1.8-2.7-4.2-5.4-5.1c-4.5-1.5-5.7-1.5-5.7-1.5s2.4-0.3,5.4,0.3
		c1.5,0.3,3,0.9,4.5,2.1c0.9,0.6,1.5,1.2,1.8,1.8c0.9,0.6,1.2,1.5,0.9-0.3c-0.3-2.1-1.2-3.9-3.3-5.1c0.9-0.3,4.8,2.1,5.1,4.2
		c0.3,2.1,1.5-3,3.9-5.4c2.7-2.1,7.5-0.9,7.5-0.9s-3.3-0.3-5.4,0.9c-1.2,0.6-1.8,1.8-2.4,3.3c-0.3,0.9-0.6,1.8-0.9,2.4
		c-0.9,2.1-0.3,2.1-0.3,2.1s0.9-0.9,3.9-1.5c3.3-0.6,6.9,2.7,6.9,2.7s-4.5-2.7-8.7-0.9s-0.3,3-2.7,3.6
		C1064.2,659.3,1061.8,658.4,1061.8,658.4z"/>
	<path fill="#008447" d="M1062.7,653.9c0.3-4.2,0.6-8.7,0.3-12.9c-0.3-3.3-0.3-6.6-0.6-9.9c-0.6-3.6-1.5-8.7-2.1-12
		c-1.5-8.4-3.9-14.4-5.1-19.2c-0.3-1.2-0.6-2.4-0.9-3.3l1.8-0.6c0,0.6,0.3,1.8,0.9,3.3c1.2,4.5,3.3,10.5,5.1,18.6
		c0.9,3.3,1.5,7.8,2.1,11.4c0.6,3.9,0.6,8.4,0.9,12.3c0.3,4.5-0.3,9.3-0.6,13.8l0,0l0,0v0.9c-0.9,0.3-3.3,1.5-0.9-0.3
		c0.6-0.3-0.9,1.5-2.1-1.5C1061.5,654.5,1061.8,654.2,1062.7,653.9z"/>
	<path fill="#FFFFFF" d="M1055.5,597.9c0,0,0,3.3-1.5,5.1c-0.6,1.5-2.1,2.1-3.6,1.8c-3.6-0.3,3-6.6,3-6.6s-3.9,0.3-6.6-2.1
		c-1.8-1.5-0.9-2.7,0.9-2.7c0.9,0,2.4,1.2,3.6,1.5c3.3,1.2,2.7,1.5,2.7,1.5s-3-6.9,0.3-8.1c3.3-0.9,0.9,7.8,0.9,7.8s1.5-4.2,5.1-4.8
		s0.9,2.1-1.2,3.6c-2.4,1.5-2.7,1.5-2.7,1.5s5.4,0.6,6.9,3C1064.5,602.1,1056.7,600.6,1055.5,597.9z"/>
	<path fill="#FFF100" d="M1054.3,599.1c1.2,0.3,2.4-0.3,2.7-1.2c0.3-1.2-0.6-2.1-1.5-2.4c-1.2-0.3-2.4,0-2.7,1.2
		C1052.5,597.6,1053.1,598.8,1054.3,599.1z"/>
	<path fill="#008447" d="M1065.4,656c0-3,0-6,0.6-9c0.3-2.4,0.6-4.8,0.9-7.2c0.6-2.4,1.5-6,2.1-8.1c1.8-6,3.6-9.9,4.8-13.5
		c0.3-0.6,0.6-1.5,0.9-2.1l-1.2-0.6c-0.3,0.6-0.6,1.2-0.9,2.1c-1.2,3.3-3,7.5-4.8,12.9c-0.6,2.4-1.5,5.4-2.1,8.1
		c-0.6,2.7-0.9,5.7-1.2,8.4c-0.6,3.3-0.3,6.6-0.6,9.9l0,0l0,0v0.9c0.6,0.3,2.4,1.2,0.6-0.3c-0.3-0.3,0.6,0.9,1.5-0.9
		C1066.3,656.6,1066,656.3,1065.4,656z"/>
	<path fill="#FFFFFF" d="M1073.8,616.8c0,0-0.3,2.4,0.6,3.9c0.6,0.9,1.5,1.5,2.4,1.5c2.7-0.3-1.8-5.1-1.8-5.1s3,0.6,5.1-0.9
		c1.2-0.9,0.6-1.8-0.6-2.1c-0.6,0-1.8,0.6-2.7,0.9c-2.4,0.9-2.1,0.9-2.1,0.9s2.7-4.8,0.6-5.7c-2.4-0.9-1.2,5.4-1.2,5.4
		s-0.9-3-3.3-3.6c-2.7-0.9-0.9,1.5,0.6,2.7s1.8,1.2,1.8,1.2s-3.9,0-5.1,1.8C1066.9,619.2,1072.6,618.6,1073.8,616.8z"/>
	<path fill="#FFF100" d="M1074.4,617.7c-0.6,0.3-1.5-0.3-1.5-0.9c-0.3-0.9,0.3-1.5,0.9-1.8c0.9,0,1.8,0.3,1.8,1.2
		C1075.9,616.8,1075.3,617.7,1074.4,617.7z"/>
</g>
<g>
	<path fill="#008447" d="M756.2,1005.7c0,0-0.3-1.2,0.6-2.7c1.2-2.1,3.3-4.8,6.3-6c5.4-2.1,6.9-1.8,6.9-1.8s-3-0.3-6.3,0.3
		c-1.8,0.6-3.6,1.2-5.4,2.4c-0.9,0.9-1.8,1.8-2.1,2.1c-1.2,0.9-1.5,1.8-1.2,0c0.6-2.7,1.5-4.8,3.9-6.3c-1.2-0.3-5.4,2.7-6,5.1
		c-0.3,2.4-1.5-3.6-4.5-6.3s-8.7-1.2-8.7-1.2s3.6-0.3,6.3,1.2c1.5,0.6,2.1,2.1,2.7,3.6c0.3,1.2,0.9,2.4,1.2,3
		c0.9,2.4,0.3,2.4,0.3,2.4s-0.9-0.9-4.8-1.5c-3.9-0.9-8.1,3-8.1,3s5.7-3.3,10.5-1.2c5.1,2.4,0.3,3.6,3,4.2
		C753.2,1006.9,756.2,1005.7,756.2,1005.7z"/>
	<path fill="#008447" d="M755,1000.6c0-5.1-0.6-10.2-0.3-15c0.3-4.2,0.3-8.1,0.9-12c0.6-4.2,1.5-10.2,2.4-14.1
		c1.8-9.9,4.5-16.8,6-22.5c0.3-1.5,0.6-2.7,0.9-4.2l-1.8-0.6c-0.3,0.9-0.6,2.4-1.2,3.9c-1.2,5.4-3.9,12.6-6,21.9
		c-0.9,3.9-1.8,9-2.4,13.5c-0.6,4.5-0.9,9.6-1.2,14.4c-0.3,5.4,0.3,11.1,0.6,16.2l0,0v0.3v0.9c1.2,0.6,3.9,1.8,0.9-0.3
		c-0.6-0.6,1.2,1.8,2.7-1.8C756.5,1001.2,756.2,1000.9,755,1000.6z"/>
	<path fill="#FFFFFF" d="M763.4,934.3c0,0,0.3,3.9,1.8,6.3c0.9,1.5,2.4,2.1,4.2,1.8c4.5-0.3-3.3-7.8-3.3-7.8s4.8,0.6,7.8-2.1
		c2.1-2.1,0.9-3.3-0.9-3.3c-1.5,0-3.3,1.2-4.5,1.8c-3.9,1.5-3.3,1.5-3.3,1.5s3.9-8.1,0-9.3s-1.5,9-1.5,9s-1.5-5.1-5.7-5.7
		c-4.5-0.6-1.2,2.7,1.5,4.5s3,1.8,3,1.8s-6.3,0.3-8.1,3.6C752.9,939.4,761.9,937.6,763.4,934.3z"/>
	<path fill="#FFF100" d="M764.9,935.8c-1.2,0.3-2.7-0.3-3-1.5s0.6-2.4,1.8-2.7c1.2-0.6,2.7,0,3,1.2S766.4,935.5,764.9,935.8z"/>
	<path fill="#008447" d="M752,1003c0-3.6,0-7.2-0.6-10.5c-0.3-3-0.6-5.7-1.2-8.4c-0.9-3-1.8-7.2-2.7-9.9c-1.8-6.9-4.2-11.7-5.4-15.6
		c-0.6-0.9-0.9-1.8-1.2-2.7l1.5-0.9c0.3,0.9,0.6,1.8,0.9,2.7c1.5,3.9,3.6,8.7,5.7,15.3c0.9,2.7,1.8,6.3,2.4,9.6
		c0.9,3,1.2,6.6,1.8,9.9c0.3,3.9,0.3,7.8,0.6,11.7l0,0l0,0v0.9c-0.9,0.3-2.7,1.5-0.9-0.6c0.6-0.3-0.6,1.5-1.8-0.9
		C751.1,1003.6,751.4,1003.3,752,1003z"/>
	<path fill="#FFFFFF" d="M742.2,956.8c0,0,0,2.7-0.6,4.5c-0.6,1.2-1.8,1.5-3,1.5c-3.3,0,2.1-5.7,2.1-5.7s-3.6,0.6-6-1.2
		c-1.5-1.2-0.9-2.1,0.6-2.4c0.9,0,2.4,0.9,3.3,1.2c2.7,0.6,2.4,0.9,2.4,0.9s-3.3-5.7-0.6-6.6c2.7-1.2,1.5,6.3,1.5,6.3
		s0.9-3.6,3.9-4.5c3-0.6,0.9,1.8-0.9,3.3c-1.8,1.5-2.1,1.5-2.1,1.5s4.5,0,6,2.1C749.9,959.8,743.4,958.9,742.2,956.8z"/>
	<path fill="#FFF100" d="M741.3,957.7c0.9,0.3,1.8-0.3,2.1-1.2c0.3-0.6-0.6-1.5-1.5-1.8s-1.8,0.3-1.8,1.2
		C739.8,956.8,740.4,957.7,741.3,957.7z"/>
	<path fill="#008447" d="M729.9,1017.1c0,0,0-0.6-0.3-1.2c-0.6-0.9-1.8-2.4-3.3-3c-2.4-0.9-3.3-0.9-3.3-0.9s1.5,0,3.3,0.3
		c0.9,0.3,1.8,0.6,2.4,1.2c0.6,0.3,0.9,0.6,1.2,0.9c0.6,0.6,0.6,0.9,0.6,0c-0.3-1.2-0.9-2.1-2.1-3c0.6-0.3,2.7,1.2,3,2.4
		s0.9-1.8,2.4-3c1.5-1.5,4.2-0.6,4.2-0.6s-1.8,0-3,0.6c-0.9,0.3-1.2,0.9-1.5,1.8c0,0.6-0.3,1.2-0.6,1.5c-0.3,1.2,0,1.2,0,1.2
		s0.3-0.6,2.4-0.9c1.8-0.3,3.9,1.5,3.9,1.5s-2.7-1.5-5.1-0.6c-2.7,1.2-0.3,1.8-1.5,2.1C731.4,1017.7,729.9,1017.1,729.9,1017.1z"/>
</g>
<g>
	<path fill="#008447" d="M450.1,629.1c0,0,0-0.9-0.6-2.4c-0.9-1.5-2.7-3.9-5.4-4.8c-4.5-1.8-5.7-1.5-5.7-1.5s2.4-0.3,5.4,0.3
		c1.5,0.3,3,0.6,4.5,1.8c0.9,0.9,1.5,1.5,1.8,1.8c0.9,0.9,1.2,1.5,0.9,0c-0.3-2.1-1.2-3.9-3.3-5.4c0.9-0.3,4.8,2.4,5.1,4.5
		c0.3,1.8,1.5-3.3,3.9-5.4c2.7-2.4,7.5-0.9,7.5-0.9s-3.3-0.3-5.4,0.9c-1.2,0.6-1.8,1.8-2.4,3c-0.3,1.2-0.6,2.1-0.9,2.7
		c-0.9,1.8-0.3,1.8-0.3,1.8s0.9-0.6,3.9-1.2c3.3-0.6,6.9,2.7,6.9,2.7s-4.5-3-8.7-0.9c-4.2,1.8-0.3,2.7-2.7,3.3
		C452.5,630,450.1,629.1,450.1,629.1z"/>
	<path fill="#008447" d="M451,624.6c0.3-3.9,0.6-8.4,0.3-12.6c-0.3-3.6-0.3-6.6-0.6-9.9c-0.6-3.9-1.5-8.7-2.1-12
		c-1.5-8.7-3.9-14.4-5.1-19.2c-0.3-1.2-0.6-2.4-0.9-3.6l1.8-0.6c0,0.9,0.3,2.1,0.9,3.3c1.2,4.8,3.3,10.8,5.1,18.6
		c0.9,3.3,1.5,7.8,2.1,11.7c0.6,3.6,0.6,8.1,0.9,12c0.3,4.5-0.3,9.3-0.6,13.8l0,0v0.3v0.9c-0.9,0.3-3.3,1.5-0.9-0.6
		c0.6-0.3-0.9,1.5-2.1-1.2C449.8,625.2,450.1,624.9,451,624.6z"/>
	<path fill="#FFFFFF" d="M443.8,568.5c0,0,0,3.3-1.5,5.4c-0.6,1.2-2.1,1.8-3.6,1.8c-3.6-0.6,3-6.9,3-6.9s-3.9,0.6-6.6-1.8
		c-1.8-1.5-0.9-3,0.9-2.7c0.9,0,2.4,0.9,3.6,1.5c3.3,1.2,2.7,1.2,2.7,1.2s-3-6.9,0.3-7.8c3.3-1.2,0.9,7.5,0.9,7.5s1.5-4.2,5.1-4.8
		s0.9,2.4-1.2,3.9c-2.4,1.5-2.7,1.5-2.7,1.5s5.4,0.3,6.9,3C452.8,573,445,571.2,443.8,568.5z"/>
	<path fill="#FFF100" d="M442.6,569.7c1.2,0.3,2.4,0,2.7-1.2c0.3-0.9-0.6-2.1-1.5-2.4c-1.2-0.3-2.4,0.3-2.7,1.2
		C440.8,568.5,441.4,569.4,442.6,569.7z"/>
	<path fill="#008447" d="M454,626.4c0-3.3,0-7.2,0.6-10.5c0.3-2.7,0.6-5.7,1.2-8.4s1.8-6.9,2.4-9.6c2.1-6.9,4.2-11.7,5.7-15.6
		c0.3-0.9,0.6-1.8,0.9-2.7l-1.5-0.6c0,0.6-0.3,1.5-0.9,2.7c-1.2,3.6-3.6,8.4-5.7,15c-0.6,2.7-1.5,6.3-2.4,9.3
		c-0.6,3-0.9,6.9-1.5,10.2c-0.6,3.6-0.3,7.5-0.6,11.4l0,0l0,0v0.9c0.9,0.3,2.7,1.5,0.6-0.3c-0.3-0.3,0.9,1.2,2.1-1.2
		C454.9,627,454.6,626.7,454,626.4z"/>
	<path fill="#FFFFFF" d="M463.6,580.5c0,0,0,2.7,0.9,4.5c0.6,1.2,1.5,1.5,3,1.5c3,0-2.1-5.7-2.1-5.7s3.3,0.6,5.7-1.2
		c1.5-1.2,0.9-2.1-0.6-2.1c-0.9,0-2.1,0.6-3.3,0.9c-2.7,0.9-2.1,0.9-2.1,0.9s3-5.4,0.3-6.6c-2.7-1.2-1.5,6.3-1.5,6.3
		s-0.6-3.6-3.6-4.5c-3.3-0.6-1.2,2.1,0.6,3.3c1.8,1.5,2.1,1.5,2.1,1.5s-4.5,0-5.7,2.1C455.8,583.5,462.4,582.6,463.6,580.5z"/>
	<path fill="#FFF100" d="M464.5,581.4c-0.9,0.3-1.8-0.3-1.8-0.9c-0.3-0.9,0.3-1.8,1.2-2.1c0.9,0,1.8,0.3,2.1,1.2
		C466.3,580.5,465.4,581.4,464.5,581.4z"/>
	<path fill="#008447" d="M452.5,626.4c-0.3-3-0.6-6-1.5-8.7c-2.1-8.7-4.2-12.3-6.9-14.7s-5.7-3.6-12-4.5l0.9-0.9
		c5.7,0.3,9,1.5,11.7,3.6c3.3,2.4,5.1,6.3,7.8,16.5c0.6,3,0.9,6.3,1.5,9.3l0,0l0,0v0.6c-0.6,0.6-2.1,1.5-0.6,0
		c0.3-0.3-0.3,1.2-1.5-0.6C451.9,626.7,451.9,626.7,452.5,626.4z"/>
	<path fill="#FFFFFF" d="M433.3,597.9c0,0,2.7,1.5,3.6,3.3c0.9,1.5,0.6,2.7-0.3,3.9c-2.1,2.7-3.9-5.4-3.9-5.4s-1.5,3.3-4.5,4.5
		c-2.1,0.6-2.7-0.6-1.8-2.1c0.6-0.6,1.8-1.5,2.7-2.4c2.7-1.8,2.4-1.5,2.4-1.5s-6.9-0.3-6.3-3.6c0.6-3,6.6,2.7,6.6,2.7
		s-2.7-3-1.5-6.3s2.1,0.3,2.4,2.7c0.3,2.7,0,2.7,0,2.7s2.7-3.9,5.4-3.9C440.8,592.5,436,597.9,433.3,597.9z"/>
	<path fill="#FFF100" d="M433.9,599.4c0.6-0.9,0.9-1.8,0-2.7c-0.6-0.6-1.8-0.6-2.4,0.3c-0.9,0.6-0.9,1.8-0.3,2.4
		C431.8,600,433,600,433.9,599.4z"/>
	<path fill="#008447" d="M430.3,640.5c0,0,0-0.9-0.6-2.1c-0.6-1.5-2.7-3.6-5.1-4.5c-4.2-1.8-5.4-1.5-5.4-1.5s2.4-0.3,5.1,0.3
		c1.5,0.3,3,0.6,4.2,1.8c0.9,0.6,1.5,1.2,1.8,1.8c0.9,0.6,1.2,1.2,0.9-0.3c-0.3-2.1-1.2-3.6-3-5.1c0.9,0,4.2,2.4,4.5,4.2
		s1.5-3,3.9-5.1s6.9-0.6,6.9-0.6s-3-0.3-5.1,0.6c-1.2,0.6-1.8,1.8-2.1,3c-0.3,0.9-0.6,1.8-0.9,2.4c-0.9,1.8-0.3,1.8-0.3,1.8
		s0.6-0.6,3.9-1.2c3-0.6,6.3,2.4,6.3,2.4s-4.5-2.4-8.4-0.6c-3.9,1.5-0.3,2.7-2.1,3.3C432.7,641.4,430.3,640.5,430.3,640.5z"/>
</g>
<g>
	<path fill="#008447" d="M16.5,766.4c0,0,0-0.9-0.6-1.8c-0.6-1.5-2.4-3.3-4.5-4.2c-3.6-1.2-4.5-1.2-4.5-1.2s2.1-0.3,4.2,0.3
		c1.2,0.3,2.7,0.6,3.6,1.8c0.9,0.6,1.5,0.9,1.8,1.2c0.6,0.6,0.9,1.2,0.6,0c-0.3-1.8-0.9-3.3-2.7-4.2c0.9-0.3,3.9,1.8,4.2,3.3
		c0.3,1.8,1.2-2.4,3-4.2c2.1-1.8,6.3-0.9,6.3-0.9s-2.7,0-4.5,0.9c-0.9,0.3-1.5,1.5-1.8,2.4s-0.6,1.8-0.9,2.1
		c-0.6,1.8-0.3,1.8-0.3,1.8s0.6-0.9,3.3-1.2c2.7-0.6,5.7,2.1,5.7,2.1s-3.9-2.1-7.2-0.6c-3.6,1.5-0.3,2.4-2.1,2.7
		C18.3,767.3,16.5,766.4,16.5,766.4z"/>
	<path fill="#008447" d="M18.9,763.4c-0.3-3.9-0.6-8.4-0.3-12.3c0.3-3.3,0.3-6.3,0.6-9.6c0.6-3.6,1.5-8.4,2.1-11.7
		c1.5-8.1,3.6-13.8,4.8-18.3c0.3-1.2,0.6-2.1,0.9-3.3l-1.8-0.6c0,0.6-0.3,1.8-0.6,3.3c-1.2,4.5-3.3,10.2-5.1,17.7
		c-0.9,3.3-1.5,7.5-2.1,11.1c-0.3,3.6-0.6,8.1-0.6,11.7c-0.3,4.5,0,9,0.3,13.5l0,0l0,0v0.9c0.9,0.3,3.3,1.5,0.9-0.3
		c-0.6-0.6,0.9,1.2,2.1-1.5C20.1,764,19.8,763.7,18.9,763.4z"/>
	<path fill="#FFFFFF" d="M25.8,709.4c0,0,0.3,3,1.5,5.1c0.6,1.2,1.8,1.8,3.3,1.5c3.6-0.3-2.7-6.3-2.7-6.3s3.9,0.3,6.3-1.8
		c1.8-1.5,0.9-2.7-0.9-2.7c-0.9,0-2.4,0.9-3.6,1.5c-3,1.2-2.4,1.2-2.4,1.2s3-6.6-0.3-7.8c-3-0.9-0.9,7.5-0.9,7.5s-1.2-4.2-4.8-4.5
		c-3.6-0.6-0.9,2.1,1.2,3.6s2.4,1.2,2.4,1.2s-5.1,0.6-6.6,3C17.1,713.6,24.6,711.8,25.8,709.4z"/>
	<path fill="#FFF100" d="M27,710.6c-1.2,0.3-2.1-0.3-2.4-1.2s0.3-2.1,1.5-2.4c0.9-0.3,2.1,0.3,2.4,1.2S28.2,710.3,27,710.6z"/>
</g>
<g>
	<path fill="#008447" d="M1722.1,639.6c0,0-0.3-0.6,0.3-1.8c0.9-1.2,2.4-3,4.2-3.6c3.6-1.5,4.5-1.2,4.5-1.2s-1.8-0.3-4.2,0
		c-1.2,0.3-2.4,0.9-3.3,1.8c-0.9,0.6-1.2,0.9-1.5,1.2c-0.6,0.6-0.9,1.2-0.9,0c0.3-1.8,1.2-3,2.7-4.2c-0.9-0.3-3.6,1.8-3.9,3.3
		s-1.2-2.4-3-4.2c-2.1-1.5-6-0.6-6-0.6s2.4-0.3,4.2,0.6c0.9,0.6,1.5,1.5,1.8,2.7c0.3,0.6,0.6,1.5,0.9,1.8c0.6,1.5,0.3,1.5,0.3,1.5
		s-0.6-0.6-3.3-0.9c-2.4-0.6-5.1,2.1-5.1,2.1s3.6-2.1,6.9-0.9c3,1.5,0,2.4,1.8,2.7C1720,640.5,1722.1,639.6,1722.1,639.6z"/>
	<path fill="#008447" d="M1719.7,636.9c0-3.9,0.6-8.1,0.3-11.7c-0.3-3.3-0.3-6.3-0.9-9.3c-0.3-3.3-1.2-8.1-1.8-11.1
		c-1.5-7.8-3.6-13.2-4.8-17.7c-0.3-1.2-0.3-2.1-0.6-3l1.5-0.6c0.3,0.6,0.6,1.8,0.9,3c0.9,4.2,3,9.6,4.8,17.1c0.6,3,1.2,7.2,1.8,10.5
		c0.6,3.6,0.6,7.8,0.9,11.4c0.3,4.2-0.3,8.4-0.6,12.6l0,0v0.3v0.6c-0.9,0.3-3,1.5-0.6-0.3c0.3-0.3-0.9,1.5-2.1-1.2
		C1718.5,637.2,1718.8,637.2,1719.7,636.9z"/>
	<path fill="#FFFFFF" d="M1713.1,585c0,0-0.3,3-1.5,4.8c-0.6,1.5-1.8,1.8-3.3,1.8c-3.3-0.6,2.7-6.3,2.7-6.3s-3.6,0.6-6-1.8
		c-1.5-1.5-0.9-2.4,0.6-2.4c1.2,0,2.4,0.9,3.6,1.2c3,1.2,2.4,1.2,2.4,1.2s-3-6.3,0.3-7.2c3-0.9,0.9,6.9,0.9,6.9s1.2-3.6,4.5-4.2
		c3.6-0.6,0.9,2.1-1.2,3.6c-2.1,1.2-2.4,1.2-2.4,1.2s5.1,0.3,6.3,2.7C1721.5,588.9,1714.3,587.4,1713.1,585z"/>
	<path fill="#FFF100" d="M1711.9,586.2c0.9,0.3,2.1-0.3,2.4-1.2s-0.3-1.8-1.5-2.1c-0.9-0.3-2.1,0-2.4,1.2
		C1710.1,585,1710.7,585.9,1711.9,586.2z"/>
</g>
<g>
	<path fill="#008447" d="M1238.1,727.7c0,0,0-1.2-0.9-3c-0.9-2.1-3.6-4.8-6.6-6c-6-2.1-7.5-2.1-7.5-2.1s3.3-0.3,6.9,0.6
		c1.8,0.3,3.9,0.9,5.7,2.4c0.9,0.9,1.8,1.8,2.4,2.4c0.9,0.9,1.5,1.8,0.9-0.3c-0.3-2.7-1.5-4.8-3.9-6.6c1.2-0.3,5.7,3,6.3,5.4
		c0.3,2.4,1.8-3.9,4.8-6.9c3.3-2.7,9.3-0.9,9.3-0.9s-3.9-0.3-6.6,0.9c-1.5,0.9-2.4,2.4-3,4.2c-0.3,1.2-0.9,2.4-1.2,3
		c-1.2,2.7-0.3,2.4-0.3,2.4s0.9-0.9,5.1-1.5c4.2-0.9,8.4,3.3,8.4,3.3s-5.7-3.6-11.1-1.2c-5.1,2.4-0.3,3.6-3,4.5
		C1241.1,728.9,1238.1,727.7,1238.1,727.7z"/>
</g>
</svg>
