<?xml version="1.0" encoding="UTF-8" standalone="no"?>
<svg width="584px" height="500px" viewBox="0 0 584 500" version="1.1" xmlns="http://www.w3.org/2000/svg" xmlns:xlink="http://www.w3.org/1999/xlink" xmlns:sketch="http://www.bohemiancoding.com/sketch/ns">
    <!-- Generator: Sketch 3.3.2 (12043) - http://www.bohemiancoding.com/sketch -->
    <title>arrow-left-big</title>
    <desc>Created with Sketch.</desc>
    <defs></defs>
    <g id="Page-1" stroke="none" stroke-width="1" fill="none" fill-rule="evenodd" sketch:type="MSPage">
        <path d="M220.541053,487.796621 L12.2033792,279.458947 C-4.06779308,263.187775 -4.06779308,236.812225 12.2033792,220.541053 L220.541053,12.2033792 C236.812225,-4.06779308 263.187775,-4.06779308 279.458947,12.2033792 C295.730119,28.4745516 295.730119,54.850101 279.458947,71.1212734 L142.247755,208.332465 L541.672743,208.332465 C564.694056,208.332465 583.340278,226.978687 583.340278,250 C583.340278,273.021313 564.694056,291.667535 541.672743,291.667535 L142.247755,291.667535 L279.458947,428.878727 C287.584116,437.003896 291.667535,447.670785 291.667535,458.337674 C291.667535,469.004563 287.60495,479.671451 279.458947,487.796621 C263.187775,504.067793 236.812225,504.067793 220.541053,487.796621 L220.541053,487.796621 Z" id="arrow-left-big" fill="#444444" sketch:type="MSShapeGroup"></path>
    </g>
</svg>