<?xml version="1.0" encoding="utf-8"?>
<!-- Generated by IcoMoon.io -->
<!DOCTYPE svg PUBLIC "-//W3C//DTD SVG 1.1//EN" "http://www.w3.org/Graphics/SVG/1.1/DTD/svg11.dtd">
<svg version="1.1" xmlns="http://www.w3.org/2000/svg" xmlns:xlink="http://www.w3.org/1999/xlink" width="19" height="32" viewBox="0 0 19 32">
<path fill="#444444" d="M11.069 23.562v-1.096c1.534-0.877 2.795-3.014 2.795-5.151 0-3.452 0-6.247-4.164-6.247s-4.164 2.795-4.164 6.247c0 2.137 1.26 4.274 2.795 5.151v1.096c-4.712 0.384-8.329 2.685-8.329 5.479 5.699 3.836 13.808 3.89 19.288 0 0-2.795-3.507-5.096-8.219-5.479v0z"></path>
<path fill="#444444" d="M8.603 5.26c0-0.219 0.055-0.438 0.11-0.603s0.164-0.329 0.329-0.438c0.219-0.219 0.438-0.384 0.603-0.548s0.329-0.329 0.493-0.438c0.11-0.164 0.219-0.274 0.329-0.384 0.055-0.11 0.11-0.274 0.11-0.384 0-0.274-0.055-0.438-0.219-0.603-0.219-0.164-0.438-0.219-0.658-0.219-0.384 0-0.658 0.11-0.822 0.329-0.219 0.219-0.274 0.438-0.329 0.767l-1.808-0.11c0.055-0.931 0.384-1.534 0.877-1.973s1.205-0.658 2.027-0.658c0.384 0 0.712 0.055 1.041 0.164s0.603 0.219 0.822 0.438c0.219 0.219 0.438 0.438 0.603 0.712s0.219 0.603 0.219 0.986c0 0.219 0 0.438-0.055 0.603s-0.11 0.384-0.219 0.548c-0.11 0.164-0.274 0.384-0.438 0.548s-0.438 0.384-0.712 0.603c-0.164 0.164-0.329 0.274-0.384 0.438-0.11 0.164-0.11 0.274-0.11 0.384v0.329h-1.753v-0.493zM8.438 7.507c0-0.164 0-0.274 0.11-0.438 0.055-0.11 0.11-0.274 0.219-0.329 0.11-0.11 0.219-0.164 0.329-0.219s0.274-0.11 0.438-0.11 0.274 0 0.438 0.11c0.11 0.055 0.274 0.11 0.329 0.219 0.11 0.11 0.164 0.219 0.219 0.329s0.11 0.274 0.11 0.438c0 0.164-0.055 0.274-0.11 0.438-0.055 0.11-0.11 0.274-0.219 0.329-0.11 0.11-0.219 0.164-0.329 0.219s-0.274 0.055-0.438 0.055-0.274 0-0.438-0.055-0.274-0.11-0.329-0.219c-0.11-0.11-0.164-0.219-0.219-0.329-0.11-0.11-0.11-0.274-0.11-0.438z"></path>
</svg>
