<?xml version="1.0" encoding="utf-8"?>
<!-- Generator: Adobe Illustrator 18.1.1, SVG Export Plug-In . SVG Version: 6.00 Build 0)  -->
<svg version="1.0" id="Warstwa_1" xmlns="http://www.w3.org/2000/svg" xmlns:xlink="http://www.w3.org/1999/xlink" x="0px" y="0px"
	 viewBox="653.3 95 623.8 652.3" enable-background="new 653.3 95 623.8 652.3" xml:space="preserve">
<path d="M723.3,372.4h324c6,0,10.4,5.2,10.4,10.4v1.7c0,6-5.2,10.4-10.4,10.4h-324c-6,0-10.4-5.2-10.4-10.4v-1.7
	C712,377.6,717.2,372.4,723.3,372.4z M830.4,320.5c0,4.3,4.3,8.6,8.6,8.6h210.8c4.3,0,8.6-4.3,8.6-8.6v-5.2c0-5.2-4.3-8.6-8.6-8.6
	H839c-4.3,0-8.6,3.5-8.6,8.6V320.5z M712,451c0,6,5.2,10.4,10.4,10.4h304.1l10.4-22.5H723.3c-6,0-10.4,5.2-10.4,10.4v1.7H712z
	 M1049,240.2H839c-4.3,0-8.6,4.3-8.6,8.6v5.2c0,4.3,4.3,8.6,8.6,8.6h210.8c4.3,0,8.6-4.3,8.6-8.6v-5.2
	C1057.6,244.5,1054.2,240.2,1049,240.2z M712,516.7c0,6,5.2,10.4,10.4,10.4h277.3c1.7-7.8,2.6-12.1,3.5-14.7l0,0l3.5-7.8H723.3
	c-6,0-10.4,5.2-10.4,10.4v1.7H712z M833.9,679.1c14.7-16.4,32-22.5,50.1-4.3c6,6,9.5,6,15.6,6c13,0.9,22.5-21.6,37.2-15.6
	c19,7.8,34.6,33.7,48.4,2.6c5.2-10.4-8.6-7.8-11.2-1.7c-6,13-26.8-17.3-36.3-16.4c-15.6,1.7-32,24.2-48.4,7.8
	c-24.2-24.2-45.8-5.2-64.8,16.4C817.4,681.7,830.4,682.6,833.9,679.1z M1105.2,526.2v160.7c0,17.3-13.8,31.1-31.1,31.1H706.8
	c-17.3,0-31.1-13.8-31.1-31.1V227.2c0-17.3,13.8-31.1,31.1-31.1h366.3c17.3,0,31.1,13.8,31.1,31.1V292l23.3-50.1V203
	c0-19-15.6-34.6-34.6-34.6H687.8c-19,0-34.6,15.6-34.6,34.6v509.8c0,19,15.6,34.6,34.6,34.6h405.2c19,0,34.6-15.6,34.6-34.6V476.1
	L1105.2,526.2z M728.4,593.6h262.7c0.9-8.6,2.6-15.6,3.5-22.5H728.4c-6,0-10.4,5.2-10.4,10.4v1.7
	C717.2,588.4,722.4,593.6,728.4,593.6z M1277.1,129.6l-21.6,47.5l-21.6,47.5l-149.5,324.9c0,1.7-85.5,100.2-85.5,100.2
	c-0.9,1.7-3.5,1.7-5.2,0.9c-1.7-0.9-2.6-2.6-2.6-4.3c0,0,19-129.6,19.9-130.5l148.6-325.7l21.6-47.5l21.6-47.5L1277.1,129.6z"/>
</svg>
