<?xml version="1.0" encoding="UTF-8" standalone="no"?>
<svg width="570px" height="570px" viewBox="0 0 570 570" version="1.1" xmlns="http://www.w3.org/2000/svg" xmlns:xlink="http://www.w3.org/1999/xlink" xmlns:sketch="http://www.bohemiancoding.com/sketch/ns">
    <!-- Generator: Sketch 3.3.2 (12043) - http://www.bohemiancoding.com/sketch -->
    <title>fullscreen-on</title>
    <desc>Created with Sketch.</desc>
    <defs></defs>
    <g id="Page-1" stroke="none" stroke-width="1" fill="none" fill-rule="evenodd" sketch:type="MSPage">
        <path d="M545.16135,382.513213 C543.794615,382.057635 542.313986,381.829846 540.947252,381.829846 C537.64431,381.829846 534.455263,383.082686 532.063477,385.360577 L477.280203,437.638172 L319.308473,286.841798 L479.558094,133.881428 L532.063477,183.995027 C534.455263,186.272917 537.64431,187.525757 540.947252,187.525757 C542.313986,187.525757 543.794615,187.297968 545.16135,186.84239 C549.717132,185.247867 552.906179,181.375452 553.361757,176.705776 L569.99036,13.0393189 C570.332044,9.5085881 569.079204,5.97785729 566.345735,3.47217737 C563.72616,0.96649744 559.96764,-0.286342523 556.323015,0.0553411031 L385.139518,16.2283661 C380.355947,16.6839442 376.255744,19.7590969 374.66122,24.0870895 C373.066697,28.4150821 374.205642,33.3125474 377.622478,36.5015946 L444.250786,100.054749 L283.88727,253.129014 L125.346068,101.763167 L193.682793,36.6154891 C197.099629,33.3125474 198.238575,28.5289766 196.644051,24.200984 C195.049527,19.8729914 190.835429,16.7978388 186.051859,16.3422606 L14.4127837,0.397024729 C10.6542638,0.0553411031 7.00963845,1.30818107 4.39006398,3.81386099 C1.77048951,6.31954092 0.403755008,9.85027172 0.745438634,13.3810025 L17.8296199,176.591881 C18.2851981,181.147663 21.4742453,185.133972 26.030027,186.614601 C27.3967615,187.070179 28.763496,187.297968 30.244125,187.297968 C33.5470668,187.297968 36.7361139,186.045128 39.1278993,183.767237 L89.9248651,135.248163 L248.579962,286.614009 L91.9749668,436.271437 L38.5584266,385.360577 C35.1415903,382.057635 30.016336,381.032584 25.4605543,382.513213 C20.9047726,384.107737 17.7157254,387.980151 17.2601472,392.649828 L0.745438634,556.316285 C0.403755008,559.847015 1.65659497,563.377746 4.39006398,565.883426 C6.78184937,568.161317 9.97089654,569.414157 13.2738383,569.414157 C13.7294164,569.414157 14.0711001,569.414157 14.5266782,569.300262 L185.59628,553.013343 C190.379851,552.557765 194.480055,549.482612 196.074578,545.15462 C197.669102,540.826627 196.530156,535.929162 193.11332,532.740114 L127.396169,469.984222 L284.001165,320.554583 L441.972895,471.350956 L377.622478,532.740114 C374.205642,536.043056 373.066697,540.826627 374.66122,545.15462 C376.255744,549.482612 380.355947,552.557765 385.139518,553.013343 L556.20912,569.300262 C559.853746,569.528052 563.612266,568.389106 566.23184,565.883426 C568.851415,563.377746 570.218149,559.847015 569.876465,556.316285 L553.247862,392.649828 C552.906179,387.980151 549.717132,384.107737 545.16135,382.513213" id="fullscreen-on" fill="#000000" sketch:type="MSShapeGroup"></path>
    </g>
</svg>