<?xml version="1.0" encoding="UTF-8" standalone="no"?>
<svg width="619px" height="619px" viewBox="0 0 619 619" version="1.1" xmlns="http://www.w3.org/2000/svg" xmlns:xlink="http://www.w3.org/1999/xlink" xmlns:sketch="http://www.bohemiancoding.com/sketch/ns">
    <!-- Generator: Sketch 3.3.2 (12043) - http://www.bohemiancoding.com/sketch -->
    <title>fullscreen-off</title>
    <desc>Created with Sketch.</desc>
    <defs></defs>
    <g id="Page-1" stroke="none" stroke-width="1" fill="none" fill-rule="evenodd" sketch:type="MSPage">
        <g id="fullscreen-off" sketch:type="MSLayerGroup" transform="translate(0.380769, -0.230011)" fill="#000000">
            <path d="M472.389319,436.316412 L533.946797,374.721064 C537.53147,371.134187 538.643954,365.939398 536.913423,361.239352 C535.182891,356.539305 530.980172,353.199798 526.035796,352.705056 L349.274364,335.636466 C345.442473,335.26541 341.610581,336.62595 338.891175,339.347029 C336.171768,342.068109 334.812065,345.902357 335.182893,349.736606 L352.859036,526.235724 C353.353474,531.183142 356.690927,535.388447 361.388084,537.120043 C362.747788,537.614785 364.2311,537.862155 365.714413,537.862155 C369.051867,537.862155 372.38932,536.501616 374.861508,534.027907 L436.048158,472.803616 L574.490678,611.578676 C579.558663,616.649779 586.109961,619.123487 592.661259,619.123487 C599.212557,619.123487 605.887464,616.649779 610.83184,611.578676 C620.8442,601.560155 620.8442,585.233678 610.83184,575.091472 L472.389319,436.316412" id="Fill-1" sketch:type="MSShapeGroup"></path>
            <path d="M348.532707,279.97802 C348.903536,279.97802 349.397973,279.97802 349.768801,279.854334 L526.035796,262.291002 C530.980172,261.79626 535.182891,258.456754 536.913423,253.756707 C538.643954,249.05666 537.40786,243.861872 533.946797,240.274994 L474.614288,180.782299 L610.955449,44.3572624 C620.96781,34.338742 620.96781,18.0122644 610.955449,7.87005854 C600.943088,-2.14846185 584.626648,-2.14846185 574.490678,7.87005854 L438.149517,144.418781 L374.861508,80.9681517 C371.400445,77.5049595 366.085241,76.2681051 361.388084,77.9997012 C356.690927,79.7312973 353.353474,83.9366022 352.859036,88.8840197 L335.80094,265.754194 C335.430112,269.588443 336.789815,273.422691 339.509222,276.143771 C341.8578,278.61748 345.195254,279.97802 348.532707,279.97802" id="Fill-2" sketch:type="MSShapeGroup"></path>
            <path d="M263.365836,335.26541 L87.0988409,352.828742 C82.1544652,353.323484 77.9517458,356.66299 76.2212143,361.363037 C74.4906828,366.063084 75.7267767,371.257872 79.1878397,374.84475 L143.588334,439.284862 L7.74161051,575.091472 C-2.27075033,585.109992 -2.27075033,601.43647 7.74161051,611.578676 C12.8095956,616.649779 19.3608935,619.123487 25.9121913,619.123487 C32.4634891,619.123487 39.1383964,616.649779 44.0827721,611.578676 L179.929495,475.648381 L238.273129,534.027907 C240.745317,536.501616 244.08277,537.862155 247.420224,537.862155 C248.903537,537.862155 250.386849,537.614785 251.746553,537.120043 C256.44371,535.388447 259.781163,531.183142 260.275601,526.235724 L277.333697,349.36555 C277.704525,345.531301 276.344822,341.697053 273.625415,338.975973 C270.906009,336.254893 267.197727,334.894354 263.365836,335.26541" id="Fill-3" sketch:type="MSShapeGroup"></path>
            <path d="M260.275601,88.8840197 C259.781163,83.9366022 256.44371,79.7312973 251.746553,77.9997012 C250.26324,77.5049595 248.903537,77.2575886 247.420224,77.2575886 C244.08277,77.2575886 240.745317,78.6181284 238.273129,81.0918371 L177.704526,141.697701 L44.2063815,7.87005854 C34.0704112,-2.14846185 17.7539714,-2.14846185 7.74161051,7.87005854 C-2.27075033,17.8885789 -2.27075033,34.2150566 7.74161051,44.3572624 L141.363364,178.184905 L79.1878397,240.39868 C75.6031673,243.985557 74.4906828,249.180346 76.2212143,253.880392 C77.9517458,258.580439 82.1544652,261.919946 87.0988409,262.414688 L263.365836,279.97802 C267.197727,280.349076 271.029618,278.988536 273.749025,276.267456 C276.468431,273.546377 277.828135,269.712128 277.457306,265.87788 L260.275601,88.8840197" id="Fill-4" sketch:type="MSShapeGroup"></path>
        </g>
    </g>
</svg>