<?xml version="1.0" encoding="utf-8"?>
<!-- Generated by IcoMoon.io -->
<!DOCTYPE svg PUBLIC "-//W3C//DTD SVG 1.1//EN" "http://www.w3.org/Graphics/SVG/1.1/DTD/svg11.dtd">
<svg version="1.1" xmlns="http://www.w3.org/2000/svg" xmlns:xlink="http://www.w3.org/1999/xlink" width="19" height="32" viewBox="0 0 19 32">
<path fill="#444444" d="M10.9 23.744v-1.133c1.511-0.863 2.752-2.968 2.752-5.073 0-3.4 0-6.152-4.101-6.152s-4.101 2.752-4.101 6.152c0 2.105 1.241 4.209 2.752 5.072v1.133c-4.641 0.378-8.202 2.644-8.202 5.396 5.612 3.777 13.599 3.831 18.995 0 0-2.752-3.454-5.019-8.094-5.396v0z"></path>
<path fill="#444444" d="M11.602 9.174h-3.723v-0.432c0.108 0 0.216 0 0.324-0.054 0.108 0 0.162-0.054 0.27-0.054 0.108-0.054 0.216-0.108 0.27-0.216s0.054-0.216 0.054-0.378v-3.4c0-0.162-0.054-0.27-0.108-0.378s-0.162-0.216-0.216-0.27c-0.054-0.054-0.162-0.108-0.324-0.162s-0.27-0.054-0.378-0.108v-0.378l2.86-0.108 0.108 0.108v4.695c0 0.162 0.054 0.27 0.108 0.378s0.162 0.162 0.27 0.216c0.054 0.054 0.162 0.054 0.27 0.108s0.216 0.054 0.27 0.054l-0.054 0.378zM10.739 1.079c0 0.324-0.108 0.54-0.324 0.755s-0.486 0.324-0.809 0.324c-0.324 0-0.594-0.108-0.809-0.324-0.27-0.216-0.378-0.432-0.378-0.755s0.108-0.54 0.324-0.755c0.27-0.216 0.54-0.324 0.863-0.324s0.594 0.108 0.809 0.324c0.216 0.216 0.324 0.486 0.324 0.755z"></path>
</svg>
