<?xml version="1.0" encoding="UTF-8" standalone="no"?>
<svg width="685px" height="372px" viewBox="0 0 685 372" version="1.1" xmlns="http://www.w3.org/2000/svg" xmlns:xlink="http://www.w3.org/1999/xlink" xmlns:sketch="http://www.bohemiancoding.com/sketch/ns">
    <!-- Generator: Sketch 3.3.2 (12043) - http://www.bohemiancoding.com/sketch -->
    <title>show</title>
    <desc>Created with Sketch.</desc>
    <defs></defs>
    <g id="Page-1" stroke="none" stroke-width="1" fill="none" fill-rule="evenodd" sketch:type="MSPage">
        <path d="M342.462121,280.992424 C397.887243,280.992424 442.818182,236.061485 442.818182,180.636364 C442.818182,125.211242 397.887243,80.280303 342.462121,80.280303 C287.036999,80.280303 242.106061,125.211242 242.106061,180.636364 C242.106061,236.061485 287.036999,280.992424 342.462121,280.992424 Z M342.462121,45.530303 C458.704545,45.530303 561.856061,100.689394 627.954545,186.007576 C561.856061,271.318182 458.734848,326.477273 342.462121,326.477273 C226.174242,326.477273 123.037879,271.318182 56.969697,186.007576 C123.037879,100.689394 226.174242,45.530303 342.462121,45.530303 L342.462121,45.530303 Z M342.462121,1.71969697 C216.507576,1.71969697 99.8257576,59.1136364 22.3333333,159.181818 L1.5530303,186 L22.3257576,212.825758 C99.8181818,312.893939 216.507576,370.280303 342.462121,370.280303 C468.386364,370.280303 585.068182,312.893939 662.590909,212.833333 L683.371212,186 L662.583333,159.166667 C585.068182,59.1060606 468.378788,1.71969697 342.462121,1.71969697 L342.462121,1.71969697 L342.462121,1.71969697 Z" id="show" stroke="#000000" stroke-width="2" fill="#000000" sketch:type="MSShapeGroup"></path>
    </g>
</svg>