<?xml version="1.0" encoding="UTF-8" standalone="no"?>
<svg width="250px" height="500px" viewBox="0 0 250 500" version="1.1" xmlns="http://www.w3.org/2000/svg" xmlns:xlink="http://www.w3.org/1999/xlink" xmlns:sketch="http://www.bohemiancoding.com/sketch/ns">
    <!-- Generator: Sketch 3.3.2 (12043) - http://www.bohemiancoding.com/sketch -->
    <title>volume-off</title>
    <desc>Created with Sketch.</desc>
    <defs></defs>
    <g id="Page-1" stroke="none" stroke-width="1" fill="none" fill-rule="evenodd" sketch:type="MSPage">
        <path d="M232.141288,500 C227.498462,500 222.927065,498.178584 219.516373,494.767893 L81.8923036,357.143823 L17.8570222,357.143823 C7.99994593,357.143823 1.42108547e-14,349.143877 1.42108547e-14,339.286801 L1.42108547e-14,160.716579 C1.42108547e-14,150.859503 7.99994593,142.859557 17.8570222,142.859557 L81.8923036,142.859557 L219.516373,5.23548707 C224.623482,0.128378732 232.302001,-1.40732517 238.980528,1.36051326 C245.659054,4.1283517 249.99831,10.6283078 249.99831,17.8604017 L249.99831,482.142978 C249.99831,489.357215 245.641197,495.875028 238.980528,498.642866 C236.766257,499.553574 234.444844,500 232.141288,500 L232.141288,500 Z" id="volume-off" fill="#444444" sketch:type="MSShapeGroup"></path>
    </g>
</svg>