<?xml version="1.0" encoding="UTF-8" standalone="no"?>
<svg width="536px" height="500px" viewBox="0 0 536 500" version="1.1" xmlns="http://www.w3.org/2000/svg" xmlns:xlink="http://www.w3.org/1999/xlink" xmlns:sketch="http://www.bohemiancoding.com/sketch/ns">
    <!-- Generator: Sketch 3.3.2 (12043) - http://www.bohemiancoding.com/sketch -->
    <title>volume-mute-x</title>
    <desc>Created with Sketch.</desc>
    <defs></defs>
    <g id="Page-1" stroke="none" stroke-width="1" fill="none" fill-rule="evenodd" sketch:type="MSPage">
        <path d="M535.710665,309.787 L535.710665,357.143823 L488.353842,357.143823 L428.568532,297.358513 L368.783222,357.143823 L321.426399,357.143823 L321.426399,309.787 L381.211709,250.00169 L321.426399,190.21638 L321.426399,142.859557 L368.783222,142.859557 L428.568532,202.644867 L488.353842,142.859557 L535.710665,142.859557 L535.710665,190.21638 L475.925355,250.00169 L535.710665,309.787 Z M232.141288,500 C227.498462,500 222.927065,498.178584 219.516373,494.767893 L81.8923036,357.143823 L17.8570222,357.143823 C7.99994593,357.143823 0,349.143877 0,339.286801 L0,160.716579 C0,150.859503 7.99994593,142.859557 17.8570222,142.859557 L81.8923036,142.859557 L219.516373,5.23548707 C224.623482,0.128378732 232.302001,-1.40732517 238.980528,1.36051326 C245.659054,4.1283517 249.99831,10.6283078 249.99831,17.8604017 L249.99831,482.142978 C249.99831,489.357215 245.641197,495.875028 238.980528,498.642866 C236.766257,499.553574 234.444844,500 232.141288,500 Z" id="volume-mute-x" fill="#444444" sketch:type="MSShapeGroup"></path>
    </g>
</svg>