<?xml version="1.0" encoding="UTF-8" standalone="no"?>
<svg width="668px" height="652px" viewBox="0 0 668 652" version="1.1" xmlns="http://www.w3.org/2000/svg" xmlns:xlink="http://www.w3.org/1999/xlink" xmlns:sketch="http://www.bohemiancoding.com/sketch/ns">
    <!-- Generator: Sketch 3.3.2 (12043) - http://www.bohemiancoding.com/sketch -->
    <title>wazne</title>
    <desc>Created with Sketch.</desc>
    <defs></defs>
    <g id="Page-1" stroke="none" stroke-width="1" fill="none" fill-rule="evenodd" sketch:type="MSPage">
        <path d="M477.213615,651.999313 C474.297501,651.999313 471.416396,650.921478 469.184368,648.8576 L334.00047,523.913014 L198.816572,648.8576 C195.251382,652.15356 190.032277,652.936149 185.657161,650.827795 C181.282991,648.720387 178.640323,644.153548 178.994192,639.31039 L192.381632,455.704729 L10.4225947,427.901519 C5.62264572,427.168137 1.75846442,423.57504 0.677931842,418.840706 C-0.402600736,414.106372 1.52002816,409.192242 5.52708198,406.447975 L157.403411,302.439307 L65.6896599,142.826111 C63.2702888,138.615081 63.6695749,133.353658 66.6973369,129.557107 C69.7241528,125.759609 74.7663228,124.200108 79.4073143,125.621449 L255.407337,179.532102 L322.999286,8.29835503 C324.782827,3.78166998 329.144697,0.814076363 334.00047,0.814076363 C338.856243,0.814076363 343.218113,3.78166998 345.001654,8.29835503 L412.592657,179.532102 L588.593626,125.621449 C593.23651,124.199162 598.275841,125.760555 601.303603,129.557107 C604.331365,133.353658 604.730651,138.615081 602.31128,142.826111 L510.595637,302.439307 L662.473858,406.447975 C666.479966,409.192242 668.402595,414.106372 667.322062,418.840706 C666.24153,423.57504 662.377348,427.168137 657.577399,427.901519 L475.619309,455.704729 L489.006748,639.31039 C489.359671,644.153548 486.717003,648.720387 482.342833,650.827795 C480.707841,651.616062 478.954578,651.999313 477.213615,651.999313 L477.213615,651.999313 Z M331.00047,495.978268 C333.881575,495.978268 336.761734,497.024875 339.026878,499.119034 L460.236708,611.147586 L448.232578,446.52279 C447.783144,440.367116 452.142175,434.901293 458.24217,433.969188 L621.390289,409.040834 L485.212906,315.784015 C480.121535,312.296904 478.566969,305.480712 481.641093,300.129391 L563.87511,157.016811 L406.069099,205.353763 C400.167802,207.163087 393.871003,204.127359 391.604912,198.38711 L331.00047,44.8548311 L270.396028,198.38711 C268.129938,204.128306 261.829354,207.160248 255.931841,205.353763 L98.1258299,157.016811 L180.358901,300.130338 C183.433972,305.480712 181.877513,312.296904 176.786141,315.784015 L40.6106514,409.040834 L203.757824,433.969188 C209.857819,434.901293 214.21685,440.367116 213.767416,446.52279 L201.764232,611.147586 L322.973116,499.119034 C325.239207,497.024875 328.119365,495.978268 331.00047,495.978268 L331.00047,495.978268 Z" id="wazne" fill="#000000" sketch:type="MSShapeGroup"></path>
    </g>
</svg>