<?xml version="1.0" encoding="utf-8"?>
<!-- Generator: Adobe Illustrator 16.0.0, SVG Export Plug-In . SVG Version: 6.00 Build 0)  -->
<!DOCTYPE svg PUBLIC "-//W3C//DTD SVG 1.1//EN" "http://www.w3.org/Graphics/SVG/1.1/DTD/svg11.dtd">
<svg version="1.1" id="Layer_1" xmlns="http://www.w3.org/2000/svg" xmlns:xlink="http://www.w3.org/1999/xlink" x="0px" y="0px"
	 width="23.9px" height="23.9px" viewBox="0 0 23.9 23.9" enable-background="new 0 0 23.9 23.9" xml:space="preserve">
<g>
	<linearGradient id="SVGID_1_" gradientUnits="userSpaceOnUse" x1="11.9502" y1="0.7002" x2="11.9502" y2="23.2002">
		<stop  offset="0" style="stop-color:#FFFFFF"/>
		<stop  offset="1" style="stop-color:#F1F0F0"/>
	</linearGradient>
	<circle fill="url(#SVGID_1_)" stroke="#DFDEDE" stroke-width="1.4" stroke-miterlimit="10" cx="11.95" cy="11.95" r="11.25"/>
	<g>
		<g>
			<path fill="#FFFFFF" d="M13.011,16.282v-7c0-0.273,0.227-0.5,0.5-0.5c0.133,0,0.258,0.055,0.352,0.148l3.5,3.5
				c0.094,0.094,0.148,0.219,0.148,0.352s-0.055,0.258-0.148,0.352l-3.5,3.5c-0.094,0.094-0.219,0.148-0.352,0.148
				C13.237,16.782,13.011,16.556,13.011,16.282z M10.159,16.634l-3.5-3.5c-0.094-0.094-0.148-0.219-0.148-0.352
				s0.055-0.258,0.148-0.352l3.5-3.5c0.094-0.094,0.219-0.148,0.352-0.148c0.273,0,0.5,0.227,0.5,0.5v7c0,0.273-0.227,0.5-0.5,0.5
				C10.378,16.782,10.253,16.728,10.159,16.634z"/>
		</g>
		<g>
			<g>
				<path fill="#939597" d="M13.011,15.432v-7c0-0.273,0.227-0.5,0.5-0.5c0.133,0,0.258,0.055,0.352,0.148l3.5,3.5
					c0.094,0.094,0.148,0.219,0.148,0.352s-0.055,0.258-0.148,0.352l-3.5,3.5c-0.094,0.094-0.219,0.148-0.352,0.148
					C13.237,15.932,13.011,15.705,13.011,15.432z M10.159,15.783l-3.5-3.5c-0.094-0.094-0.148-0.219-0.148-0.352
					s0.055-0.258,0.148-0.352l3.5-3.5c0.094-0.094,0.219-0.148,0.352-0.148c0.273,0,0.5,0.227,0.5,0.5v7c0,0.273-0.227,0.5-0.5,0.5
					C10.378,15.932,10.253,15.877,10.159,15.783z"/>
			</g>
		</g>
	</g>
</g>
</svg>
