<?xml version="1.0" encoding="utf-8"?>
<!-- Generator: Adobe Illustrator 16.0.0, SVG Export Plug-In . SVG Version: 6.00 Build 0)  -->
<!DOCTYPE svg PUBLIC "-//W3C//DTD SVG 1.1//EN" "http://www.w3.org/Graphics/SVG/1.1/DTD/svg11.dtd">
<svg version="1.1" id="Layer_1" xmlns="http://www.w3.org/2000/svg" xmlns:xlink="http://www.w3.org/1999/xlink" x="0px" y="0px"
	 width="23.9px" height="23.9px" viewBox="0 0 23.9 23.9" enable-background="new 0 0 23.9 23.9" xml:space="preserve">
<g>
	<linearGradient id="SVGID_1_" gradientUnits="userSpaceOnUse" x1="11.9502" y1="0.7002" x2="11.9502" y2="23.2002">
		<stop  offset="0" style="stop-color:#FFFFFF"/>
		<stop  offset="1" style="stop-color:#F1F0F0"/>
	</linearGradient>
	<circle fill="url(#SVGID_1_)" stroke="#DFDEDE" stroke-width="1.4" stroke-miterlimit="10" cx="11.95" cy="11.95" r="11.25"/>
	<g>
		<g>
			<path fill="#FFFFFF" d="M18.863,13.155l-2.018,2.018c-0.095,0.095-0.221,0.15-0.354,0.15c-0.276,0-0.505-0.229-0.505-0.505V13.81
				h-3.027v3.027h1.01c0.275,0,0.504,0.229,0.504,0.504c0,0.134-0.055,0.261-0.149,0.354l-2.019,2.019
				c-0.094,0.095-0.221,0.149-0.354,0.149s-0.26-0.055-0.354-0.149l-2.018-2.019c-0.095-0.094-0.15-0.221-0.15-0.354
				c0-0.275,0.229-0.504,0.505-0.504h1.009V13.81H7.914v1.009c0,0.276-0.229,0.505-0.504,0.505c-0.134,0-0.261-0.056-0.354-0.15
				l-2.019-2.018c-0.095-0.095-0.149-0.221-0.149-0.354s0.055-0.261,0.149-0.354l2.019-2.019c0.094-0.095,0.221-0.149,0.354-0.149
				c0.275,0,0.504,0.229,0.504,0.504v1.01h3.027V8.765H9.933c-0.276,0-0.505-0.229-0.505-0.505c0-0.134,0.056-0.26,0.15-0.354
				l2.018-2.018c0.095-0.095,0.221-0.15,0.354-0.15s0.261,0.056,0.354,0.15l2.019,2.018C14.418,8,14.473,8.126,14.473,8.26
				c0,0.276-0.229,0.505-0.504,0.505h-1.01v3.027h3.027v-1.01c0-0.275,0.229-0.504,0.505-0.504c0.134,0,0.26,0.055,0.354,0.149
				l2.018,2.019c0.095,0.094,0.15,0.221,0.15,0.354S18.958,13.061,18.863,13.155z"/>
		</g>
		<g>
			<g>
				<path fill="#939597" d="M18.863,12.305l-2.018,2.018c-0.095,0.095-0.221,0.15-0.354,0.15c-0.276,0-0.505-0.229-0.505-0.505
					v-1.009h-3.027v3.027h1.01c0.275,0,0.504,0.229,0.504,0.504c0,0.134-0.055,0.261-0.149,0.354l-2.019,2.019
					c-0.094,0.095-0.221,0.149-0.354,0.149s-0.26-0.055-0.354-0.149l-2.018-2.019c-0.095-0.094-0.15-0.221-0.15-0.354
					c0-0.275,0.229-0.504,0.505-0.504h1.009v-3.027H7.914v1.009c0,0.276-0.229,0.505-0.504,0.505c-0.134,0-0.261-0.056-0.354-0.15
					l-2.019-2.018c-0.095-0.095-0.149-0.221-0.149-0.354s0.055-0.261,0.149-0.354l2.019-2.019C7.149,9.482,7.276,9.428,7.41,9.428
					c0.275,0,0.504,0.229,0.504,0.504v1.01h3.027V7.914H9.933c-0.276,0-0.505-0.229-0.505-0.505c0-0.134,0.056-0.26,0.15-0.354
					l2.018-2.018c0.095-0.095,0.221-0.15,0.354-0.15s0.261,0.056,0.354,0.15l2.019,2.018c0.095,0.095,0.149,0.221,0.149,0.354
					c0,0.276-0.229,0.505-0.504,0.505h-1.01v3.027h3.027v-1.01c0-0.275,0.229-0.504,0.505-0.504c0.134,0,0.26,0.055,0.354,0.149
					l2.018,2.019c0.095,0.094,0.15,0.221,0.15,0.354S18.958,12.21,18.863,12.305z"/>
			</g>
		</g>
	</g>
</g>
</svg>
