<?xml version="1.0" encoding="utf-8"?>
<!-- Generator: Adobe Illustrator 16.0.0, SVG Export Plug-In . SVG Version: 6.00 Build 0)  -->
<!DOCTYPE svg PUBLIC "-//W3C//DTD SVG 1.1//EN" "http://www.w3.org/Graphics/SVG/1.1/DTD/svg11.dtd">
<svg version="1.1" id="Layer_1" xmlns="http://www.w3.org/2000/svg" xmlns:xlink="http://www.w3.org/1999/xlink" x="0px" y="0px"
	 width="23.9px" height="23.9px" viewBox="0 0 23.9 23.9" enable-background="new 0 0 23.9 23.9" xml:space="preserve">
<g>
	<linearGradient id="SVGID_1_" gradientUnits="userSpaceOnUse" x1="11.9502" y1="0.7002" x2="11.9502" y2="23.2002">
		<stop  offset="0" style="stop-color:#FFFFFF"/>
		<stop  offset="1" style="stop-color:#F1F0F0"/>
	</linearGradient>
	<circle fill="url(#SVGID_1_)" stroke="#DFDEDE" stroke-width="1.4" stroke-miterlimit="10" cx="11.95" cy="11.95" r="11.25"/>
	<g>
		<g>
			<g>
				<path fill="#FFFFFF" d="M15.45,11.708h-7c-0.273,0-0.5-0.227-0.5-0.5c0-0.133,0.055-0.258,0.148-0.352l3.5-3.5
					c0.094-0.094,0.219-0.148,0.352-0.148s0.258,0.055,0.352,0.148l3.5,3.5c0.094,0.094,0.148,0.219,0.148,0.352
					C15.95,11.482,15.724,11.708,15.45,11.708z M15.802,14.56l-3.5,3.5c-0.094,0.094-0.219,0.148-0.352,0.148
					s-0.258-0.055-0.352-0.148l-3.5-3.5c-0.094-0.094-0.148-0.219-0.148-0.352c0-0.273,0.227-0.5,0.5-0.5h7
					c0.273,0,0.5,0.227,0.5,0.5C15.95,14.341,15.896,14.466,15.802,14.56z"/>
			</g>
		</g>
		<g>
			<g>
				<path fill="#939597" d="M15.45,10.858h-7c-0.273,0-0.5-0.227-0.5-0.5c0-0.133,0.055-0.258,0.148-0.352l3.5-3.5
					c0.094-0.094,0.219-0.148,0.352-0.148s0.258,0.055,0.352,0.148l3.5,3.5c0.094,0.094,0.148,0.219,0.148,0.352
					C15.95,10.631,15.724,10.858,15.45,10.858z M15.802,13.709l-3.5,3.5c-0.094,0.094-0.219,0.148-0.352,0.148
					s-0.258-0.055-0.352-0.148l-3.5-3.5c-0.094-0.094-0.148-0.219-0.148-0.352c0-0.273,0.227-0.5,0.5-0.5h7
					c0.273,0,0.5,0.227,0.5,0.5C15.95,13.491,15.896,13.616,15.802,13.709z"/>
			</g>
		</g>
	</g>
</g>
</svg>
