<svg xmlns="http://www.w3.org/2000/svg" viewBox="0 0 2287.4 1491.4"><path opacity=".17" fill="#FFF" d="M974.5 286.7s-10.4-4-22.3-3.2c-11.9.8-19.2 3.8-27.4 3.8-4.9 0-7.5-1.9-8.5-4.2-2.1-4.6 1.9-7.6 6.4-7.5 0 0-4.5 2.3-3 5.7 1.5 3.4 7.8 1.8 15.5.4 13.9-2.3 27.8-1.3 39.3 5zM882.1 313.1s21.7-11 50.7-14.3c29-3.3 44.7 4.4 73.6 7.7 29 3.3 32.8-4.4 55.3-9 22.4-4.6 36.4 6.8 36.4 6.8s-21.1-5.7-33.9-.2c-12.8 5.5-23.4 15.1-52 15.1-28.7 0-42.2-10.3-61.8-12.4-29.6-6.3-68.3 6.3-68.3 6.3zM407.6 294.4s30.2-1.2 61.7-10.3c31.4-9.1 48.5-1.5 66.4 3.9s31.5 4.6 31.5 4.6-14.6 2.7-29.6-.4c-15-3-35.1-7.5-53.8-2.7-36.6 10.4-76.2 4.9-76.2 4.9z"/></svg>