<svg viewBox="0 0 2285 1337" xmlns="http://www.w3.org/2000/svg"><title>7-01-bat</title><g fill="none" fill-rule="evenodd"><g id="Group"><path d="M2284.564 801.1v512.8c0 .6-.5 1.1-1.1 1.1l-2281.8 21.7c-.6 0-1.1-.5-1.1-1.1V873.8c0-.6.5-1.1 1.1-1.1 12.3-.5 72.5 18.3 126.9.1 78.8-26.2 158-93.8 174.2-92.2 19.9 1.8 30.1 12.3 51.5 15.8 27.6 4.4 66.7 2 96.3 3.1 36 1.5 75 65.8 107.2 67.8 41.4 2.6 69.7-38.6 102-43.7 17.5-2.9 29.8-10.5 43.2-16.5 16.7-7.4 49.8-15.3 64-27.9 3.1-2.9 10.5-6.4 11.8-11.6 2.2-8.1-2.6-18.4-4.8-25.2-3.9-11.2-14.2-11.6-10.3-28.7 1.3-5-2-6.8-4.6-6.4-2.6.4-3.3 5.9-3.3 5.9s-.7-.4.7-5c1.3-4.6 6.1-3.3 6.1-3.3s7.2.6 7.2 13.4 19.9 6.1 17.1.6c-2.6-5.5 2.2-12.1 5.7-14.7 3.5-2.4 7.5-9.6 3.3-12.7-1.7-1.2-3.7-.7-5.4.4-1 .6-2.1-.5-1.6-1.5 2.9-5.5 12.1-3.7 14.2 2.8 2.2 6.4-.2 11.2-4.6 16.2-4.4 5 .2 15.3.4 14.3 3.3-5.5 11-9.7 18.4-10.3 6.2-.4 12.3 2.2 16 5.1 7.9 6.2 7.5 16.2 2 19.7-3 1.8-3.6 5.2-3.5 7.9 0 1.3-1.7 1.7-2.2.5-1-2.5-1-6.2 3.2-11.1 3.3-3.9-.6-8.6-5.5-9.4-2-.4-5.5-1.7-9-.4-5 2-9 6.2-12.7 12.9-3.9 7-7 16.4-3.7 28.3 3.9 13.6 6.2 11.4 32.2 27 11.2 6.8 31.6 1.5 54 .7 22.4-.6 47.1 3.3 66.7 8.3 24.1 5.9 59.9 28.5 98.9 24.3 17.6-1.8 43-34.7 55.9-32.7 8.8 1.6 42.1 9.1 56.9 10.4.6.1 1.2-.4 1.2-1.1l8.4-241.5c0-.3.2-.7.5-.9l8.1-6.1c.3-.2.5-.6.5-.9l-.9-81.8-.9-107c0-.4-.2-.7-.5-.9l-35.5-26c-.3-.2-.4-.5-.5-.8l-5.5-79.8c0-.1 0-.3-.1-.4l-12.4-25.4c-.5-1 .6-2.1 1.6-1.5l7.8 4.7c.2.1.3.3.4.5l6.6 13.4c0 .1.1.2.1.2l15.3 66.2c.1.2.2.5.4.6l19.9 16.4c.7.6 1.9.1 1.9-.9l-.5-64.6c0-.3.1-.6.3-.8l6.2-6.9c.2-.2.3-.5.3-.7l2.7-257.8c0-.6.5-1.1 1.1-1.1h146.4c.6 0 1.1.5 1.1 1.2l-4 218.9c0 .9 1 1.5 1.8 1l3.9-2.8c.2-.1 33.5-7.3 33.7-7.3l5.3 1.2c.7 0-8.5 3.7-8.6 4.3l-4.8 2.2c0 .3-5.2 3.3-5.4 3.5l-27.4 41.8c-.2.2-.3.5-.3.8l-6.2 126v.1l2.4 75-1.1 55.6c0 .3.1.6.3.8l8.3 9.6c.2.2.3.5.3.8l-4.4 175.7c0 .7.5 1.2 1.2 1.2l32.6-.9c.4 0 .7-.2.9-.5l20.4-29.1.1-.1 19.4-23.6.2-.2 16.3-12.2c.2-.1.4-.2.7-.2h11.8c1.1 0 1.5 1.3.7 2l-22.4 18.8-.3.3-10.9 19c0 .1-.1.1-.1.2l-18 48.6c-.1.2-.3.4-.5.6l-44.7 27.2c-.3.2-.5.5-.5.9l-3.6 84.6c0 .6.4 1.1.9 1.2 7.6 1.5 16.9 2.2 27 2.4 37.7.6 85.8-6.8 95-10.5 13.4-5 14.2-22.8 33.8-31.8 45-20.8 78.9-40.8 57-53.1-8.6-4.8-10.5-14-11.4-17.3-1.1-3.3 2.6-9.2 3.9-13.6 1.1-4.2-1.3-1.7-7.7-5.9s-3.9-10.8-2.8-13.4c1.3-2.6 4.8-5 9-3.1 4.2 1.8 3.9 3.3 3.1 6.4-.7 3.3.9 3.3.9 3.3s-3.5-.4-2.2-3.9c1.3-3.3-4.4-5.1-6.4-.4-1.8 4.6 2.8 9.6 8.8 8.6 6.1-1.1 9.7 4.4 4 10.7-5.7 6.2.2 13.6 8.6 14 8.6.6 10.5-7.2 12.7-13.2 2.2-6.1 4.4-9 6.6-15.3 2.2-6.3-3.3-11.9-2-16.5.4-1.6 1.2-3.1 2.2-4.4.8-1 2.4-.2 2 1.1l-.3.9c-1.3 4.2 4.8 12.1 5.7 17.8.7 3.6-1.3 9.8-2.7 13.5-.4.9.6 1.8 1.5 1.4 2.4-1 6.9-2.2 14.6-2.5 15.1-.6 17.1 10.5 14.5 16.5-1.1 2.7-2.9 3.7-4.5 4.1-1.1.2-1.8-1.1-1-1.9 1.5-1.5 2.1-4.3-2.3-9-8.1-8.6-27.9 3.1-17.5 20.8 4.8 8.3 13.6 31.4 29.2 41.5 15.8 10.1 25.6-10.7 51.1-6.2 13.6 2.2 40.8 14.7 56.6 18 20.4 4.4 5.3-9.2 27.9-6.2 14 1.8 28.7 4.8 43.4 8.1 18.9 4.4 15.3-4.2 9-7.7-1.4-.8-3.1-.9-4.7-.7-1.3.2-1.8-1.7-.6-2.2 3.8-1.6 10.1-.6 12.9 2.9.6.8 1.9.3 2-.7.3-3.2-.5-7.8-6.4-9.9-9.6-3.1-9.6-12.7-5-16.7 2.4-2.2 5.7-1.7 7.7-.2 5 3.9 1.3 8.8-1.8 7.7-.2 0 1.7-.7 1.8-1.8.4-2.6-1.7-5-5.3-3.5-2.6 1.1-3.5 7.7 1.3 9.9 2.9 1.7 7.2 1.5 10.5 3.7 3.2 2 4.9 4 5.5 9.1.1 1.2 1.8 1.4 2.2.3 1.1-2.9 2.7-5.5 4.8-6.2 2.4-.9 8.1.2 9.2 5 .2.7.2 1.3.3 1.8.1 1.3-1.8 1.6-2.2.4-.8-2.4-2.4-4.7-5.2-3.8-2.4.9-4 4.2-3.5 8.5.9 11.2 11 14 20.8 15.4 31.2 4.8 56.8 16.5 78.1 14 27.3-3.2 340-27.8 356.4-31.3z" id="Shape" fill="#223442"/><g id="Shape" fill="#1F1A17"><path d="M1253.864 362.6c3.9 0 7 3.2 7 7.2 0 3-1.8 5.5-4.3 6.6l.5 2.9 3.4 16.8H1247.064l3.4-16.8.5-3c-2.5-1.1-4.3-3.6-4.3-6.4 0-3.9 3.2-7 7-7.2h.2v-.1z"/><path d="M1227.764 338.3c8.1.5 16.5 1.3 24.5 1.3 5.2 0 12-.5 17-.9 6.1-.2 11.1-.5 17.5-1.1l.7 31.1-.7 18.6.4 20.9c-.5 20-1.8 13.8-1.6-.9l-.2-19.5.5-23.3-.7-11.1.2-14.3c-4.8.4-9.3.9-14.1 1.1-6.1.2-13.2.5-19.1.5-3.6 0-7.9.2-11.1 0-4.8-.2-8.4-.9-13.6-1.1-8.7-.4-8.3-1.9.3-1.3z"/></g><g id="Shape" fill="#1C2B35"><path d="M1315.864 857.2l4.8-20.6 2.4-29.1-8.5 30.4 1.3 19.3zM1321.964 738.2l-1.3-40 2.4-60.9-7.2 60.9 6.1 40zM1318.264 624.1l2.4-30.5v-34l-3.7-23v63l1.3 24.5zM1308.564 610.7l2.3 25.5v24.3l-3.6 15.8 1.3-26.8v-38.8zM1316.564 497.1l2.1-38.4-.9-61.6-3.2 53.1 2 46.9zM1315.864 371.3l2.4-62.1 1.1-41.2-4.8 40.1 1.3 63.2zM1195.464 232.7l-1.1 31.7-6.1 22.9-1.2 39 4.7-36.4 7.4-24.4-3.7-32.8zM1187.764 373.7v34.8l-.9 59.2 6.4-59.2-5.5-34.8zM1194.364 383.5l-3.3-15.6v-19l1.8 19.5 1.5 15.1zM1186.464 477.8l1.1 30.3 1.8 39.5.8-40-3.7-29.8zM1185.964 563.2l-8.1 47.5v65.6l5.5-65.6 2.6-47.5zM1177.064 697.1l-3.1 48.9v49l1.1 29.1 5.2-29.1-2.1-52.2-1.1-45.7zM1186.264 700.7l1.3-9.2v-25.9l3.3 23.9-4.6 11.2zM1186.864 816.5l-2.6 18.2 5.3-14.5-2.7-25.5v21.8zM1306.364 351.9l-2.8 25.5 1.8 24.6-5.5-25.5 6.5-24.6zM1307.564 274.7l3.7-16-1.5-34.2-2.2 35.6v14.6zM1312.064 773.7l1.2-9.4v-25.9l3.3 23.9-4.5 11.4z"/></g><path d="M1315.664 423.5c-.4-3.5 0-4.8-1.5-6.6-1.1-1.3-2-2.9-3.5-4s-4-2.9-6.1-3.1c-1.8-.2-2.2-2.4-5.7-3.3 3.5-.7 2.9-1.1 5.7-.9 2.4 0 5.5.4 7.4 1.5 2.2 1.5 4.2 3.9 6.4 6.2 3.3 4 5.1 8.5 5.1 8.5 10.7 12.1 6.4 29.2 6.4 29.2s-1.5-2.9-3.5-4.2c-1.7-1.1-3.5-.6-4.6-.4-1.5.6-2.9 2.2-4.4 4.6-1.1 1.8-3.3 7.2-4.6 8.1-1.8 1.1-4 1.8-7.4 2.8-1.3.2-2.8.7-4.4.9-4.8.4-5-.9-6.4-1.8-.6-.2-4.2-1.3-3.9-1.5 2.4-.7 4.4-2.4 10.3-3.3 2.6-.4 5.9-1.5 7-2.2 2.2-1.7 3.5-7.9 3.5-7.9s-7.7 4.2-11.2 6.1c-3.5 1.8-3.9-1.8-10.3-1.7-2.4 0-3.5-1.7-5.1-2.2-2.9-.9-5.7-1.1-6.1-2-.4-.7-3.5-2.6-3.7-3.1 4.8.4 4.6-1.3 7.2-.9 2.6.6 6.1 2.8 9.4 2.9 2.2.4 4.2 1.3 6.1 1.3 2 0 3.7-3.5 5.1-4.2 2.2-.9 3.5-1.7 3.5-1.7s-3.1-.7-6.6-.6c-3.5.2-8.6.4-12.3.2-3.3-.2-6.6-3.7-12.1-7.5-1.3-.9-2-2.4-2.8-3.1-2.2-2.2-2-4.2-3.9-6.8 2.4.7 4.4 1.7 6.6 2.8 1.1.6 2.4.9 4.2 2.6 2.4 2 4.4 5.5 8.1 6.4 2.2.4 6.4-.2 7.9.2 4 1.1 11-1.8 11-1.8s-4.8-1.5-8.1-1.7c-2.4-.4-8.1-2.8-12.3-6.4-2-1.5-2.8-3.7-4.4-5.5-2.6-2.8-3.1-6.8-5-10.3 3.5 1.1 5.9 2.2 8.3 4.8 1.1 1.5 2.2 5.1 4.4 7.4 1.8 1.7 4.6 2.4 6.4 2.9 4.2 1.5 8.3.6 10.7.9 4.8.6 9.2-1.6 9.2-1.6z" id="Shape" fill="#000"/><path d="M1260.364 640.3c2.6 0 4.9-1 7.2.8 3.4 2.5 9.1 9.2 11.8 15.1 1.9 4.1 1.9 12.3 2.8 17.2.3 1.7 1.4-.5 1.7 1.1 1.3 7.1 1.6 17.6 1.6 27.5 0 7.7-1.1 20.5-2.1 27.3-1.9 12.4-4.5 25.9-8.9 31.6-3.8 5-9.1 6.2-14.2 6.2-2.8 0-7-3.6-9.6-5.7-3-2.5-5.6-6.5-7.8-11.5-.5-1.2-1.3.8-1.8-.5-3.9-11.1-7.8-30.8-7.9-47.1 0-.5 2 .4 2-.1 0-9.1 1-26.5 2.5-34.2.5-2.7.1 1.3.7-.9 4.5-15.7 13.1-26.8 22-26.8z" id="Shape" fill="#0D1619"/><path d="M1261.264 640.3c2.3-.1 4.3-.8 6.3.8 3.4 2.5 9.1 9.2 11.8 15.1 1.9 4.1 1.9 12.3 2.8 17.2.3 1.7 1.4-.5 1.7 1.1 1.3 7.1 1.6 17.6 1.6 27.5 0 7.7-1.1 20.5-2.1 27.3-1.9 12.4-4.5 25.9-8.9 31.6-2.4 3.2-5.5 4.8-8.7 5.6h-1.2c-2.8 0-7-3.6-9.6-5.7-3-2.5-5.6-6.5-7.8-11.5-.5-1.2-1.3.8-1.8-.5-3.9-11.1-7.8-30.8-7.9-47.1 0-.5 2 .4 2-.1 0-9.1 1-26.5 2.5-34.2.5-2.7.1 1.3.7-.9 4-13.7 11-23.7 18.6-26.2z" id="Shape" fill="#142126"/><g fill="#FFF"><path d="M1263.064 736.2l-5.5-1-4.1-1.9 3.3 3.4 6.3-.5zM1265.264 736.2l5.5-.5 4.4-1.6-3.7 3.1-6.2-1z"/></g></g><g class="bat"><path d="M1376.164 382.5c-3.3-.7-9-3.1-13.1-7.7-4.2-4.8-9.7-11.6-9-25.2.2-4 4-15.8 1.3-27.4 2.4-6.4 22.4-21.7 17.3-36.6 1.8-3.5.9-8.5 5.5-22.8 4.6-14.9 6.1-37.3 6.8-46.5.2-.6.2-1.3 0-1.7-.4-.9-1.5 0-1.3 0 0 0 0-.7.6-1.1.4-.2 1.1-.6 1.5 0 .4.6.6 1.7.7 2.9 1.5 9.7 5 33.5 11.2 48.3 6.4 14.9 3.3 24.8 5.1 27.2-.7 13.8 10.5 15.6 19.7 30-2 12.7 2.2 21 2.6 26.7-.9 18.7-1.5 29-22.4 33.8.6 7-2.4 15.8-1.5 23.5.6 4 2.8 6.6 2.8 6.6s-9.4-4.6-11.2-10.3c-1.1.4-2.2.6-3.3.7-1.8 5.3-11 9.7-11 9.7s2.2-2.4 2.8-6.4c.8-8.7-4.2-14.4-5.1-23.7z" id="Shape" fill="#000"/><g class="oczy" fill="#FFF"><path d="M1391.364 394.1h4.6l3.6 1.1-3.3-2.4-4.9 1.3z" id="Shape"/><path d="M1389.664 394.3l-4.2 1.2-3.3 1.9 2.4-3.1h5.1z"/></g></g></g></svg>