<svg xmlns="http://www.w3.org/2000/svg" viewBox="0 0 2287.4 1491.4"><path fill-rule="evenodd" clip-rule="evenodd" fill="#253849" d="M2287.4 1016.7c-6.9-8.5-109.4 7.5-178 .7-74.4-7.4-151.4-37.2-160.1-36.5-20.2 1.5-30.9 9.9-52.8 12.9-75 9.6-87.5 37.5-131.4 36.6-34.4-.7-102.6-25.2-138.6-50.7-3.3-2.4-10.7-5.1-12.1-9.4-2.4-6.4 2.8-14.9 5-20.4 3.9-9 14.5-9.4 10.5-23.3-1.1-3.9 2.2-5.5 4.8-5.1s3.3 4.8 3.3 4.8.7-.4-.6-4c-1.5-3.9-6.4-2.8-6.4-2.8s-7.4.6-7.4 11-20.4 4.8-17.6.4c2.9-4.4-2-9.9-5.7-11.9s-7.7-7.7-3.5-10.3c4.4-2.4 10.3 3.7 10.3 3.7l-3.1-4.4c-2.9-4.6-12.3-3.1-14.5 2.2-2.4 5.1.2 9 4.8 13.1s-.2 12.3-.4 11.6c-3.5-4.6-11.4-7.9-18.9-8.3-6.4-.4-12.7 1.8-16.4 4-8.3 5.1-7.9 13.2-2.2 16 5.7 2.8 2.9 9.7 2.9 9.7s7.9-4-.4-11.9c-3.3-3.1.7-7 5.9-7.5 2-.4 5.5-1.5 9.2-.4 5 1.7 9.2 5.1 12.9 10.5 4 5.7 7.4 13.4 3.9 23-3.9 11-6.4 9.2-32.9 21.9-11.8 5.7-32.7 1.3-55.9.7-10.8-.2-56.2-12.7-103.3-11.6-53.5 1.1-109.4 16.2-120.2 18.2-23.3 4.6-57.7 21.3-95.4 20.2-9-2-18.4-3.9-27.9-5.5-16-2.4-32.7-6.6-34.4-25.2-.7-6.6 1.8-12.1 5.7-13.6 6.8-2.2 9.6 6.4 9.7 11 0 0 4.2-.6 2.2-8.5-1.8-7.7-11.4-9.4-15.1-7.9-6.8 2.6-10.3 15.4-11.2 21.9.6-18.2-2.4-22.4-9.6-27-5.5-3.5-12.5-3.5-17.5-5.9-7.7-3.9-6.2-14.3-2-16.2 6.1-2.6 9.4 1.5 8.8 5.5-.4 1.8-3.3 3.1-3.1 3.1 5.1 1.8 11.2-6.4 3.1-12.5-3.3-2.6-8.8-3.3-12.9.2-7.5 6.6-7.5 22.2 8.3 27.4 15.8 5.1 9.4 21.5 9.4 21.5-2.2-11.9-26.1-13.8-28.3-3.9 1.7-1.1 9.2-3.5 13.8-.7 9.6 5.3 5.3 22.8-11.9 30.5-17.5 7.7-47.6 5.9-54.6 7.4-13.8 2.9-38.4-4.6-53.1-4.4-19.5.4-56.1 9.9-76.3 10.8-60.5 2.6-106.1-4.4-163.4-25.2-46.5-16.9-81.2-33.3-58.8-43.2 8.8-3.9 10.8-11.4 11.9-14.2 1.1-2.8-2.9-7.4-4-11-1.3-3.5 1.3-1.3 7.9-4.8 6.6-3.3 4-8.8 2.8-10.8-1.3-2-4.8-4-9.2-2.6-4.4 1.5-4 2.8-3.1 5.3.7 2.6-1.1 2.6-1.1 2.6s3.7-.2 2.2-3.1c-1.3-2.8 4.8-4 6.6-.4 2 3.9-2.8 7.9-9 7.2-6.2-.9-9.9 3.5-4 8.6 5.9 5-.4 11-9 11.4-8.8.4-10.8-5.9-13.1-10.8-2.4-5-4.4-7.4-6.8-12.3-2.2-5.1 3.5-9.7 2.2-13.6-1.3-3.7-6.6-6.6-6.6-6.6s1.1 1.3 2.4 4.8c1.5 3.5-4.8 9.9-5.7 14.3-1.1 4.6 4.2 13.8 4.2 13.8s-2.8-3.1-18.2-3.5c-15.4-.4-17.5 8.5-14.9 13.4 2.4 5 9 3.1 9 3.1s-9.2-1.7-.9-8.6c8.5-7 28.9 2.6 18.2 16.9-5 6.6-14.2 25.6-30.3 33.6-16.2 8.3-26.3-8.6-52.6-5-14 1.8-41.9 11.9-58.3 14.7-21 3.5-5.3-7.7-28.9-5.1-14.2 1.5-29.4 3.9-44.5 6.6-19.7 3.5-15.8-3.5-9.4-6.4 2.9-1.3 7.5 0 8.6.4-1.5-5-16.2-4-17.6 2 0 0-4-8.1 5.9-10.8 9.7-2.6 9.9-10.3 5.1-13.6-2.6-1.7-5.9-1.3-8.1 0-5 2.9-1.3 7.2 2 6.2 0-.2-1.8-.7-2-1.7-.4-2 1.7-4 5.5-2.8 2.8.9 3.7 6.2-1.3 8.1-3.1 1.3-7.4 1.1-10.8 2.9-4.4 2.2-6.2 4.4-5.9 13.6-.6-3.3-2.8-9.7-7-11-2.4-.7-8.3.2-9.4 3.9-1.3 4 1.3 4.4 1.3 4.4.2-2.4 2-6.8 6.1-5.5 2.6.6 4 3.5 3.7 6.6-1.1 9.4-11.6 11.4-21.5 12.7-16.3 2-93.6 22.4-164.9 25-69.5 2.5-133.2-12.6-144.1-13.6-17.1-1.7-31.4-7.9-43.9-13.2v481.5h2284v-474.9z"/></svg>