<?xml version="1.0" encoding="utf-8"?>
<!-- Generator: Adobe Illustrator 18.1.1, SVG Export Plug-In . SVG Version: 6.00 Build 0)  -->
<svg version="1.1" id="Warstwa_1" xmlns="http://www.w3.org/2000/svg" xmlns:xlink="http://www.w3.org/1999/xlink" x="0px" y="0px"
	 viewBox="0 0 1920 1080" enable-background="new 0 0 1920 1080" xml:space="preserve">
<g class="ludek--2--down">
	<path fill="#F7DDD2" d="M1750,547.5c0,0-214.8-3.5-229.1,3.5c-14.3,7-17.5,24.2-12.1,32.1c5.5,7.9,10.6,11.5,29.8,12.8
		c18.4,1.2,211.4-0.4,211.4-0.4V547.5z"/>
	<path fill="#84785B" d="M1529.7,568.9c2.8-4.9,3-9.7-0.9-14c-1.2-1.3-3.1,0.6-1.9,1.9c3,3.4,2.6,7,0.5,10.7
		C1526.5,569.1,1528.9,570.5,1529.7,568.9L1529.7,568.9z"/>
	<path fill="#84785B" d="M1529.7,589c2.8-4.9,3-9.7-0.9-14c-1.2-1.3-3.1,0.6-1.9,1.9c3,3.4,2.6,7,0.5,10.7
		C1526.5,589.2,1528.9,590.6,1529.7,589L1529.7,589z"/>
	<path fill="#84785B" d="M1548.2,581c3.4-6.9,3.8-13.6-1.1-19.8c-1.1-1.4-3,0.6-1.9,1.9c4.1,5.2,3.5,10.9,0.7,16.5
		C1545.1,581.2,1547.4,582.6,1548.2,581L1548.2,581z"/>
</g>
<g class="ludek--3--down">
	<path fill="#F7DDD2" d="M752,256.7c0,0,132.4,2.2,141.2-2.2c8.8-4.3,10.9-14.9,7.5-19.8c-3.4-4.9-6.6-7.1-18.4-7.9
		c-11.3-0.7-130.3,0.2-130.3,0.2V256.7z"/>
	<path fill="#84785B" d="M887.9,243.5c-1.7,3-1.8,6,0.6,8.6c0.7,0.8,1.9-0.4,1.2-1.2c-1.9-2.1-1.6-4.3-0.3-6.6
		C889.9,243.5,888.4,242.6,887.9,243.5L887.9,243.5z"/>
	<path fill="#84785B" d="M887.9,231.2c-1.7,3-1.8,6,0.6,8.6c0.7,0.8,1.9-0.4,1.2-1.2c-1.9-2.1-1.6-4.3-0.3-6.6
		C889.9,231.1,888.4,230.2,887.9,231.2L887.9,231.2z"/>
	<path fill="#84785B" d="M876.5,236.1c-2.1,4.2-2.3,8.4,0.7,12.2c0.7,0.9,1.9-0.3,1.2-1.2c-2.5-3.2-2.2-6.7-0.4-10.2
		C878.5,236,877,235.2,876.5,236.1L876.5,236.1z"/>
</g>
<path fill="#C49882" d="M1412.6,1187c6.6-6,30.5-122,43.7-131.3c4.2-3-6.3-9-0.9-12.6c6.3-3.9,2.1-6.3,15.6-9.6
	c9.3-1.8,38-4.8,40.4-6.9c26-22.4-16.8-32.6-24.2-54.5c-1.8-6.3-3.9-20.9-1.8-29.9c0.9-4.2,8.7-1.5,7.5-6.3
	c-1.5-5.7-7.5-10.8-10.8-15.3c-5.4-7.5-15.6-10.8-20.3-15.6c-3.6-3.6-2.4-9.3-3.9-12.3c-5.4-9,2.7-15.9,7.2-24.8
	c2.7-5.4,0.6-9.9,2.7-19.4c4.5-17.1-6.9-20.6-19.7-27.8c-9.9-5.7-20.9-15.6-26.6-23.3c-16.2-22.4,14.1-23.3-30.5-27.2
	c-23.6-2.4-51.2-6.9-47.6-23.6c1.2-5.7,88-8.7,101.1-12c18.3-4.8,17.7-24.5,20.9-32c5.1-11.4-9-25.4-3.6-38.3
	c4.2-9.6,20.9-16.5,23-26.9c4.5-20.3,1.8-48.5-4.8-68.8c-3.3-9.3-23.9-20-29.6-29c-6-9.3-9.6-15.3-16.8-19.7
	c-3.3-2.1-12.3-1.8-15.6-3.6c-5.7-2.7-5.4-7.2-6.9-10.5c-1.8-3.6,1.2-7.8-0.6-10.8c-0.9-1.8-7.8-3.6-9-5.1c-4.5-6.3-3-9.9,3-15.3
	c7.2-6.6,30.8-16.5,35.9-27.2c3-6.3-5.4-12.6-4.2-19.7c0.9-6.9,11.4-15,9-21.2c-1.8-4.2-11.7-6.6-13.2-10.5
	c-5.7-14.1-19.7-23.6-18.6-34.1c0.9-7.8-23-15.3-31.7-21.5c-8.4-6.3,9.9-12.6,5.4-20.9c-3.9-7.5,3.6-18.9,8.4-29
	c15-32.3-39.2-21.8-37.4-39.8c0.9-10.8-75.7-18.6-40.4-29c3.3-0.9-1.5-6.6,7.8-8.1c20.3-3,63.4-2.7,87.7-5.7
	c21.2-2.7,41.6,1.5,54.5-2.1c111.6-29.6-18.6-34.7,50.3-36.8c32.3-1.2,208-8.7,283.7-3.9c85.9,5.4,257.3,27.9,309.4,32l0.6,994
	L1412.6,1187z"/>
<g>
	<path fill="#A57F6F" d="M1709.1,430.9c-6.3,1.5-34.7,7.8-96.1,10.8c-70.3,3.3-81.1,0-81.1,0s19.4,4.8,56.9,3.9
		c18.9-0.6,42.5-1.2,61.9-2.7s34.7-3.9,41.9-5.4c14.4-3.3,13.5-3,17.1-3.3C1709.7,433,1709.7,432.1,1709.1,430.9z"/>
	<path fill="#A57F6F" d="M1358.1,252.6c8.4,0.6,17.1,0.9,22.1,0.6c11.4-0.9,16.2-1.2,16.2-1.2s-10.5,3.6-25.4,3.3
		c-3.9-0.3-8.1-0.3-12-0.6C1358.4,254.1,1358.1,253.5,1358.1,252.6z"/>
	<path fill="#A57F6F" d="M1345.3,242.1c10.2,0.6,25.1,0.9,35.9,0.6c18.6-0.3,29.3,0.3,29.3,0.3s-17.7,3-43.1,2.1
		c-6.3-0.3-11.7-0.3-15.9-0.6C1349.8,243.9,1347.7,243,1345.3,242.1z"/>
	<path fill="#A57F6F" d="M1387.2,325c8.1,0.3,29.9,1.5,44.9,0.9c18.3-0.3,29.3,0.3,29.3,0.3s-18,3-43.1,2.1
		c-20-0.6-29.6-0.6-32.6-0.6C1386.3,326.8,1386.9,325.9,1387.2,325z"/>
	<path fill="#A57F6F" d="M1380.3,334.3c10.5,0.6,69.7,2.7,93.1,2.1c26-0.9,37.4-1.2,37.4-1.2s-24.5,3.6-58.9,3.3
		c-34.1-0.3-71.8-1.5-71.8-1.5l-0.3-0.6C1379.7,335.8,1380,334.9,1380.3,334.3z"/>
	<path fill="#A57F6F" d="M1591.8,293.3c-6.6,1.2-35.3,5.7-96.6,5.4c-70.3-0.6-81.1-4.5-81.1-4.5s19.2,6,56.6,6.9
		c18.9,0.6,42.5,1.2,62.2,0.9c19.4-0.6,34.7-2.1,41.9-3.3c14.4-2.4,13.8-2.1,17.1-2.4C1592.1,295.4,1592.1,294.2,1591.8,293.3z"/>
	<path fill="#A57F6F" d="M1435.3,399.2c10.5,0.3,28.1,0.9,35,0.3c9.9-0.6,38.6,1.5,44.6,1.2s-12,1.5-24.8,0.9
		c-13.2-0.9-27.8,0-43.4,0.6c-2.4,0-4.5,0-6.3,0C1438.9,401,1437.1,400.1,1435.3,399.2z"/>
	<path fill="#A57F6F" d="M1532.9,1011.7c0,0,89.2,10.8,132,8.4c42.5-2.4,160.1-27.5,160.1-27.5s-69.4,14.1-104.7,16.5
		c-35.6,2.4-38.3,12-118.8,4.8c-62.8-5.4-79.3-6.9-83.8-7.5l0.3,0.6L1532.9,1011.7z"/>
	<path fill="#A57F6F" d="M1486.8,617.3c26.3,2.1,69.1,4.5,86.5,1.8c25.4-3.9,25.4-3.9,25.4-3.9s-29,8.7-67.3,7.2
		c-13.5-0.6-31.1-1.2-44.6-2.4C1486.8,619.1,1486.8,618.2,1486.8,617.3z"/>
	<path fill="#A57F6F" d="M1484.1,639.2c14.4,0.6,32.6,0.6,55.7,0c70-2.1,80.8-6.3,80.8-6.3s-19.2,6.6-56.6,8.4
		c-18.6,0.9-42.5,2.1-61.9,2.1c-7.2,0-14.1,0-20-0.3C1482.9,641.9,1483.8,640.7,1484.1,639.2z"/>
	<path fill="#A57F6F" d="M1436.8,452.5c7.2,0.3,49.1,2.7,65.5,1.8c18.3-0.6,26.3-0.9,26.3-0.9s-17.4,3.3-41.3,3
		c-24.2-0.3-50.6-1.5-50.6-1.5l-0.6-1.8C1436.2,452.8,1436.5,452.8,1436.8,452.5z"/>
	<path fill="#A57F6F" d="M1441,443.5c10.2,0.3,25.4,0.9,36.8,0.6c18.3-0.3,29,0.3,29,0.3s-17.7,3-42.8,2.1c-10.5-0.6-18-0.6-23-0.9
		C1441,445,1441,444.1,1441,443.5z"/>
	<path fill="#A57F6F" d="M1590.6,601.8c0,0,28.1-3,45.8-7.5c18-4.5,29.6-8.4,29.6-8.4s-23,9.9-47.9,14.7
		c-24.8,4.8-26.6,3.9-26.6,3.9L1590.6,601.8z"/>
	<path fill="#A57F6F" d="M1458.7,545.2c0,0,81.4,2.7,137.3-0.9c56.3-3.6,56.3-3.6,56.3-3.6s-15,2.7-64.6,5.7
		c-49.4,3.3-87.7,2.7-129.3,1.2c-1.2-0.9-2.1-1.5-2.7-2.4C1457.5,545.2,1458.7,545.2,1458.7,545.2z"/>
	<path fill="#A57F6F" d="M1491.6,938.7c17.1,0,89.8-0.9,141.2-7.5c58.9-7.2,58.9-7.2,58.9-7.2s-15.6,4.2-67.6,10.5
		c-52.4,6.6-92.8,7.5-136.7,7.5h-2.1C1486.2,939.6,1489.8,939.9,1491.6,938.7z"/>
	<path fill="#A57F6F" d="M1380,767.5c6.6,1.2,35.6,5.1,96.9,3.3c70-2.1,80.8-6.3,80.8-6.3s-19.2,6.6-56.6,8.4
		c-18.6,0.9-42.5,2.1-61.9,2.1c-9,0-17.1-0.3-23.6-0.6c-2.4-1.8-9-2.7-24.8-4.2c-3.6-0.3-7.2-0.9-10.8-1.2
		C1380,768.4,1380,768.1,1380,767.5z"/>
	<path fill="#A57F6F" d="M1348.6,756.8c0,0,73-0.3,83.8,0s24.5,0,24.5,0s-91.6,2.4-102.3,2.4
		C1344.1,759.2,1348.6,756.8,1348.6,756.8z"/>
	<path fill="#A57F6F" d="M1737.9,933.9c0,0-32.3,5.1-42.2,5.7c-9.9,0.3-38.3,6-44.3,6.3s12,0.3,24.8-2.1c12.9-2.4,27.5-3,43.1-4.5
		c15.3-1.5,20-4.2,20-4.2L1737.9,933.9z"/>
	<path fill="#A57F6F" d="M1575.4,990.5c0,0-32.6,1.2-42.5,0.6c-6-0.3-18.9,0.3-29.6,0.6l1.8,1.5c2.7,0,5.4,0,8.1-0.3
		c12.9-0.9,27.8,0.3,43.1,0.6c15.6,0.3,20.6-1.5,20.6-1.5L1575.4,990.5z"/>
	<path fill="#A57F6F" d="M1410.2,494.6c8.4,0.9,29,2.4,38,1.8c11.1-0.9,15.9-1.2,15.9-1.2s-10.5,3.6-25.4,3.3
		c-10.5-0.3-21.8-0.9-27.5-1.2c0-0.9,0-1.5-0.6-2.4C1410.5,494.9,1410.5,494.9,1410.2,494.6z"/>
</g>
<path fill="#C49882" d="M732.9-115.4c3.6,5.4,4.6,126.5,1.3,134c-3.3,7.8-1.2,15.9,7.2,23.3c3.9,3.6,33.5,2.4,38.6,5.4
	c4.5,3-8.1,8.4-3.6,10.8c7.5,3.6,40.7,8.1,56.9,9.6c3.3,0.3,20.9,2.4,30.5,1.2c12-1.2,16.5-6,21.2-5.7c23,0.3,17.7,5.4,31.1,7.5
	c12.3,2.1,44.3,0.9,53,2.1c26.9,3.3,45.2,12.3,87.4,9c15.9-1.2,27.5,1.8,37.7,4.8c11.4,3,22.4-3.9,17.4,2.1
	c4.8,6-6.6,11.4-12.6,17.7c-6.3,6-21.5,5.4-35.6,7.8c-5.7,0.9-73.3,9.3-78.4,10.5c-17.1,3,1.5,4.5-7.8,10.2c-6.3,3.3-5.1,9.6-4.8,15
	c0.3,7.5,0.3,15.3-11.7,25.7c-4.2,3.6-27.5,5.7-39.2,7.5c-15.3,2.4-19.2,4.2-20.9,7.5c-3,5.4,27.8,14.1,38,22.7
	c6,4.8-5.7,9.9-7.2,13.8c-3.3,9,5.4,18-13.2,33.8c-3.3,2.7-28.7,6-35.9,9.3c-11.7,5.4-35,11.4-42.5,17.7
	c-8.4,6.9,27.8,16.5,22.1,22.7c-21.5,22.7-38.9,41.3-43.7,57.2c-8.4,26.6,46.7,48.2,13.5,70.3c-5.7,3.6,0.3,10.5-14.7,14.1
	c-14.7,3.6-50.6,4.2-55.4,8.1c-18.6,13.8-28.4,27.2-26.6,38.9c2.1,15.3,15.9,27.8-18.6,35.6c-10.2,2.4-42.2,3.6-55.4,4.8
	c-13.2,1.5-7.8,2.7-26,3.9c-28.7,1.8-71.8,3.9-84.1,7.8c-9.9,3-30.5,14.1-27.8,18.6c1.5,2.1,35.6,0.6,40.1,2.4
	c7.2,2.7,0.9,5.1-3.6,7.8c-3.6,2.4-4.2,5.1-11.4,6.6c-9.9,1.8-5.7,10.8-22.4,14.4c-26.6,5.7-76.3,6.6-94.3,7.5
	c-42.5,1.8-484,16.2-544.8,16.2c-101.7,0,5.2-546.6-20.8-733L732.9-115.4z"/>
<g>
	<path fill="#A57F6F" d="M917.4,252.6c0,0-23.9,1.8-73.3-0.3c-49.4-2.1-70.9-5.4-70.9-5.4s29.6,7.5,83.5,8.4
		c53.9,0.6,61.9,2.7,61.9,2.7L917.4,252.6z"/>
	<g>
		<path fill="#A57F6F" d="M973,124.8c0,0-85.6,2.1-144.5-3.6c-59.2-5.7-59.2-5.7-59.2-5.7s15.6,3.6,67.9,8.7
			c52.4,5.1,92.8,5.1,136.7,3.6h3.6c-0.6-0.9,0-1.8,3.9-2.7C976.9,124.8,973,124.8,973,124.8z"/>
		<path fill="#A57F6F" d="M975.1,132.6c0,0-29,2.1-47.6,2.4c-18.6,0-29.3,0.9-29.3,0.9s18,2.7,43.1,0.9c25.4-1.5,33.5-1.5,33.5-1.5
			L975.1,132.6z"/>
		<path fill="#A57F6F" d="M972.1,142.8c-9.3,0.9-24.5,2.4-32,2.1c-11.1-0.3-16.2-0.6-16.2-0.6s10.8,3,25.4,2.4
			c8.4-0.3,17.1-0.9,22.7-1.5C972.1,144.3,972.1,143.7,972.1,142.8z"/>
		<path fill="#A57F6F" d="M903,194.5c-24.8-2.4-59.8-6-67.3-6.3c-12-0.3-26.9-2.7-26.9-2.7s76.3,10.5,103.8,14.1
			C908.7,197.8,905.1,196,903,194.5z"/>
		<path fill="#A57F6F" d="M918,183.5c-12.6-1.2-34.4-3.3-38.6-3.6c-6.3-0.3-13.8-1.2-13.8-1.2s28.7,3.9,45.8,6
			C913.2,184.4,915.6,183.8,918,183.5z"/>
		<path fill="#A57F6F" d="M932.4,225.3c-5.4,0-17.7,0-30.2-0.3c-14.7-0.3-28.7-2.1-28.7-2.1s18.6,0,38,0c5.1,0,14.7,0,23.6-0.3
			C934.1,223.5,933,224.4,932.4,225.3z"/>
		<path fill="#A57F6F" d="M878.5,271.4c-9.3,1.2-26.9,3-35.3,2.7c-11.1-0.6-16.2-0.9-16.2-0.9s10.8,3.3,25.7,2.4
			c6-0.3,12.3-0.6,17.4-0.9C873.1,273.5,875.8,272.6,878.5,271.4z"/>
		<path fill="#A57F6F" d="M737,14.1c-21.2,3-64.6,8.1-137,8.7c-110.1,1.2-126.6-4.5-126.6-4.5s37.1,7.2,95.5,7.8
			c58.6,0.6,123.3,0.6,155.3-5.1c3.6-0.9,6.9-1.5,9.9-1.8l0.3-0.6C734.9,17.1,735.8,15.6,737,14.1z"/>
		<path fill="#A57F6F" d="M779.2,51.8c-15.6,2.1-38,4.2-68.5,5.7c-70.3,3.3-81.1,0.3-81.1,0.3s19.4,4.8,56.9,3.6
			c18.6-0.3,42.5-0.9,61.9-2.4c10.5-0.9,19.7-2.1,27.2-3C776.2,54.8,778,53.3,779.2,51.8z"/>
		<path fill="#A57F6F" d="M693.3,147.5c0,0-10.8,2.1-71.2,1.2c-13.5,0-28.7,1.8-47.6,1.2c-11.4-0.3-18.9,0.9-28.7,0.6
			c-80.8-3.3-120.3-12.9-120.3-12.9s55.7,15.9,132,16.2C633.7,154.4,693.3,147.5,693.3,147.5z"/>
		<path fill="#A57F6F" d="M340.8,100.3c0,0,65.5,3,85.3,1.5c19.7-1.2,77.2,3,88.9,2.1c12-0.6-23.6,3.3-49.4,1.8
			c-26-1.8-55.7,0.3-86.5,0.9c-30.8,0.9-41-3-41-3L340.8,100.3z"/>
		<g>
			<path fill="#A57F6F" d="M555.9,549.4c0,0-36.2,1.5-47.3,0.9c-10.8-0.9-42.8,1.5-49.4,1.2c-6.6-0.6,13.2,1.8,27.5,0.9
				c14.4-0.9,30.8,0,47.9,0.6c4.5,0,8.4,0,11.4-0.3c1.8-0.6,3.6-1.5,5.1-1.8c1.5-0.6,3-0.9,5.1-1.2L555.9,549.4z"/>
			<path fill="#A57F6F" d="M529.9,561.4l-17.7-1.2c0,0,6,1.8,15.3,3C528.4,562.6,529,562,529.9,561.4z"/>
			<path fill="#A57F6F" d="M545.8,587.1c-10.8,0.9-29.3,2.1-38,1.5c-12.6-0.9-18-1.2-18-1.2s11.7,3.9,28.1,3.6
				c8.4-0.3,17.4-0.6,23.9-1.2C543.1,588.6,544,587.7,545.8,587.1z"/>
		</g>
	</g>
</g>
</svg>
