<?xml version="1.0" encoding="utf-8"?>
<!-- Generator: Adobe Illustrator 18.1.1, SVG Export Plug-In . SVG Version: 6.00 Build 0)  -->
<svg version="1.1" id="Warstwa_1" xmlns="http://www.w3.org/2000/svg" xmlns:xlink="http://www.w3.org/1999/xlink" x="0px" y="0px"
	 viewBox="0 0 1920 1080" enable-background="new 0 0 1920 1080" xml:space="preserve">
<g class="ludek--4">
	<path fill="#F7DDD2" d="M580.1,370c0,0,1.9-113.1-1.9-120.6c-3.7-7.5-12.7-9.2-16.9-6.3s-6.1,5.5-6.8,15.6
		c-0.6,9.7,0.2,111.3,0.2,111.3H580.1z"/>
	<path fill="#84785B" d="M568.8,254.1c2.6,1.5,5.1,1.6,7.4-0.5c0.7-0.6-0.3-1.6-1-1c-1.8,1.6-3.7,1.4-5.6,0.3
		C568.7,252.4,568,253.7,568.8,254.1L568.8,254.1z"/>
	<path fill="#84785B" d="M558.2,254.1c2.6,1.5,5.1,1.6,7.4-0.5c0.7-0.6-0.3-1.6-1-1c-1.8,1.6-3.7,1.4-5.6,0.3
		C558.2,252.4,557.4,253.7,558.2,254.1L558.2,254.1z"/>
	<path fill="#84785B" d="M562.5,263.9c3.6,1.8,7.2,2,10.5-0.6c0.7-0.6-0.3-1.6-1-1c-2.7,2.2-5.8,1.8-8.7,0.4
		C562.4,262.2,561.6,263.5,562.5,263.9L562.5,263.9z"/>
</g>
<g class="ludek--5--down">
	<path fill="#F7DDD2" d="M511.6,327.8c0,0-1.2,147.3-0.3,161.3c1,14.6,3.8,18.4,9.9,22.6c6.1,4.2,19.1,1.7,24.5-9.1
		c5.5-10.9,2.8-174.8,2.8-174.8H511.6z"/>
	<path fill="#84785B" d="M532.1,495.8c-1.2,0.6-0.1,2.5,1.2,1.7c2.8-1.6,5.5-1.9,8.1,0.4c1,0.9,2.5-0.6,1.4-1.4
		C539.5,493.4,535.8,493.6,532.1,495.8L532.1,495.8z"/>
	<path fill="#84785B" d="M516.7,495.8c-1.2,0.6,0,2.5,1.2,1.7c2.8-1.6,5.5-1.9,8.1,0.4c1,0.9,2.5-0.6,1.4-1.4
		C524.1,493.4,520.5,493.6,516.7,495.8L516.7,495.8z"/>
	<path fill="#84785B" d="M522.9,481.6c-1.3,0.6-0.1,2.5,1.2,1.7c4.2-2,8.7-2.6,12.6,0.6c1,0.9,2.5-0.6,1.4-1.4
		C533.4,478.7,528.2,479,522.9,481.6L522.9,481.6z"/>
</g>
<g class="ludek--6--down">
	<path fill="#F7DDD2" d="M1712.1,725c0,0,1.9,113-1.9,120.5c-3.7,7.5-12.7,9.1-16.9,6.2c-4.2-2.9-6.1-5.4-6.8-15.5
		c-0.6-9.7,0.2-111.2,0.2-111.2H1712.1z"/>
	<path fill="#84785B" d="M1700.8,840.6c2.6-1.5,5.1-1.6,7.4,0.5c0.7,0.6-0.3,1.6-1,1c-1.8-1.6-3.7-1.4-5.6-0.3
		C1700.7,842.3,1700,841.1,1700.8,840.6L1700.8,840.6z"/>
	<path fill="#84785B" d="M1690.2,840.6c2.6-1.5,5.1-1.6,7.4,0.5c0.7,0.6-0.3,1.6-1,1c-1.8-1.6-3.7-1.4-5.6-0.3
		C1690.2,842.3,1689.4,841.1,1690.2,840.6L1690.2,840.6z"/>
	<path fill="#84785B" d="M1694.5,830.9c3.6-1.8,7.2-2,10.5,0.6c0.7,0.6-0.3,1.6-1,1c-2.7-2.2-5.8-1.8-8.7-0.4
		C1694.4,832.5,1693.6,831.3,1694.5,830.9L1694.5,830.9z"/>
</g>
<path fill="#B28972" d="M1903,1205c-2.4-8.7-29-153.2-37.1-166.3c-4.8-8.1,8.7-12.3,0.9-22.1c-4.8-6-24.5-12.3-38.6-22.1
	c-8.4-5.7-10.8-14.7-17.4-20.3c-6-4.8-5.1-9.6-8.4-13.2c-4.5-5.1-9.9-12.3-17.4-16.2c-12.6-6.6-27.8-9.3-32-15.3
	c-6.3-9,0-12.3-1.2-19.2c-2.4-15-7.2-30.2-21.5-39.2c-3.3-2.1-18.6-8.4-39.5-11.7c-7.5-1.2-33.8,1.5-41.6,0.9c-10.2-0.6-6.6-6-9-6.9
	c-16.8-7.2-6.9-12.6-6.3-17.1c0.6-2.7-5.1-4.2-14.1-7.5c-4.5-1.8-23.9-1.2-41.3-2.1c-19.4-1.2-37.1-4.2-41-7.2
	c-4.2-3-12.9-6-15.6-9.6c-1.2-1.5-2.7-3-1.8-4.8c1.2-1.8,4.8-3.3,5.1-5.1c0.6-2.7,0.6-4.8,4.5-7.8c3.3-2.7-1.2-4.2,6.3-6.9
	c11.1-3.9,34.7-9.3,39.2-13.5c6.9-6.6,2.4-15.3,7.5-21.8c6.3-7.8,57.8-13.8,64-22.4c13.2-17.7,25.1-36.8,29.9-56.6
	c1.5-6.9-9-11.4-5.7-17.7c2.1-3.6-38.6-8.7-30.8-11.7c7.5-3.3,63.4-5.1,66.4-8.7c16.2-18.3,15.6-36.5,12.6-50.9
	c-1.8-7.8-8.7-16.2-9.3-24.5c-0.6-8.4,5.1-16.8-2.1-24.5c-4.5-5.1-33.5-8.1-43.1-12.6c-8.4-3.9,2.1-9.3,0-14.4
	c-2.1-5.4-12.9-6-14.4-9.6c-9.6-24.5,5.1-16.2,15.6-46.1c3-8.7,19.7-16.5,20.9-34.4c0.6-6.3-8.1-12-8.1-19.2c0.3-7.5,3-21.2-8.7-32
	c-3.9-3.6-35.3-2.7-40.1-6c-3.3-2.1-13.2-6.9-16.8-8.4c-11.4-5.1-0.9-8.1-2.1-12.6c-4.2-15.9,12-19.7,17.7-29.9
	c4.5-7.8-4.5-14.7-12-24.5c-2.4-3.6,1.8-11.1-2.1-14.1c-3.6-2.7-18-6-23.3-9.6c-5.4-3.3-2.1-6.6-6.3-9.3c-3.3-2.1-18-2.7-29-5.1
	c-9-1.8-14.4-5.1-18.3-6.9c-13.8-6-5.1-12-13.2-16.5c-11.4-6.3,2.4-12.3-8.7-17.4c-14.1-6.3-17.4-15.3-35-20
	c-1.8-0.6-4.5,2.4-8.4,2.4c-8.7,0.6-20.9-0.9-26.9-1.5c-11.1-1.2-9.9-6.3-13.8-7.8c-14.7-5.4-23.3-0.9-35.9-3.9
	c-5.1-1.2-1.8-3-6.3-4.8c-12.6-5.7-42.2-15.3-26.9-21.5c4.8-1.8,18.6-3.3,38.6-3.3c9.3-0.3,24.5,0.9,32.3,0.3
	c13.5-0.9,13.2-3.9,23.9-6.6c18.9-4.8,35.3-17.1,41.6-22.7s29-11.7,33.5-18.9c7.2-10.5,2.7-18,3.6-24.2c2.1-14.1-1.5-20-24.2-23.3
	c-12-1.8-45.5,0.9-55.4-2.4c-7.2-2.4-2.4-7.2-3.6-11.7s-8.4-9-10.2-16.8c-0.6-3.3-49.1-0.6-71.8-3.9c-1.5-0.3-27.2-2.1-28.7-2.4
	c-19.7-3.9,6.6-193.4,9.9-197l795.5,10.7l-4.2,1390L1903,1205z"/>
<g>
	<path fill="#9B7461" d="M1696.9,186.1c-34.7,1.2-72.4,5.4-115.2,4.8c-33.5-0.3-62.8-5.1-82.9-5.4c-5.7,0-10.8,0-15.6-0.3
		c2.7,0.9,5.1,2.1,7.2,3c6.6,0.3,12.9,0.6,17.7,0.6c10.2,0.3,41.9,5.1,76.9,5.1c47.6,0,101.4-3,114.3-3.9
		c22.4-1.5,165.2-8.4,165.2-8.4C1840.8,178.4,1703.8,185.8,1696.9,186.1L1696.9,186.1z M1479,185.2c-21.2-0.3-33.2-0.6-39.5-0.9
		c0.3,0.3,0.9,0.3,1.2,0.6c7.8,0.6,20.3,1.5,33.2,2.4C1476,187,1477.5,185.8,1479,185.2z"/>
	<path fill="#9B7461" d="M1896.2,210.1c0,0-10.8,2.7-71.2,5.4c-13.5,0.6-28.7,3.3-47.6,3.6c-11.4,0.3-18.6,2.1-28.4,2.4
		c-80.8,1.2-120.9-6.3-120.9-6.3s56.3,12.6,132.6,9C1836.9,220.3,1896.2,210.1,1896.2,210.1z"/>
	<path fill="#9B7461" d="M1393.2,15.3c0,0,7.2,0.3,20.3,0.9c-6.6,0-13.8,0-20.6-0.3L1393.2,15.3L1393.2,15.3z M1441,17.1
		c19.2,0.6,43.1,0.9,70.9,0.9c34.7-0.3,72.7,2.4,115.2,0.3c33.5-1.5,62.8-7.5,82.6-8.7c57.8-3,66.1-3.9,66.1-3.9s-51.2,6.3-75.1,7.8
		c-10.5,0.6-41.9,6.6-76.6,7.8c-47.6,2.1-101.4,0.9-114.6,0.6c-11.1-0.3-39.2-0.6-65.5-1.2c-0.3-0.9-0.6-1.5-0.9-2.4
		C1443.1,17.7,1442.5,17.4,1441,17.1z"/>
	<path fill="#9B7461" d="M1649.9,143.1c0,0-11.1,2.1-71.2,1.2c-13.5,0-28.7,1.8-47.9,1.2c-11.1-0.3-18.6,0.9-28.4,0.6
		c-21.5-0.9-39.8-2.1-55.7-3.6c-1.8,0.6-3.6,1.2-6.3,1.8c20.3,2.7,45.5,5.1,73.3,5.1C1590,149.9,1649.9,143.1,1649.9,143.1z"/>
	<path fill="#9B7461" d="M1869.2,331c0,0-85.6,7.2-144.8,5.1c-59.5-2.1-59.5-2.1-59.5-2.1s15.9,3,68.5,4.8
		c52.7,1.8,93.1-0.9,136.7-4.8C1914.1,330.1,1869.2,331,1869.2,331z"/>
	<path fill="#9B7461" d="M1591.2,260.1c9.3,0.9,27.5,2.1,35.9,1.5c11.1-0.6,15.9-1.2,15.9-1.2s-10.5,3.6-25.4,3.3
		c-6.9-0.3-14.4-0.6-20-0.9c-2.4-0.9-4.5-1.8-6-2.7L1591.2,260.1L1591.2,260.1z"/>
	<path fill="#9B7461" d="M1584.4,250.5c8.7,0.3,29.3,1.2,43.4,0.9c18.6-0.6,29.3,0,29.3,0s-17.7,3.3-43.1,2.4
		c-12.9-0.6-21.5-0.9-26.6-0.9c-0.6-0.6-0.9-1.2-2.1-2.1C1585,250.8,1584.7,250.5,1584.4,250.5z"/>
	<path fill="#9B7461" d="M1536.2,90.1c9,0.6,29.3,1.2,43.1,0.9c18.6-0.3,29.3,0.3,29.3,0.3s-17.7,3-43.1,2.1
		c-16.5-0.6-25.7-0.6-30.2-0.6C1535.6,91.9,1535.9,91,1536.2,90.1z"/>
	<path fill="#9B7461" d="M1529.9,99.7c8.7,0.9,28.4,2.4,37.1,1.8c11.4-0.9,16.2-1.2,16.2-1.2s-10.5,3.6-25.4,3.3s-31.1-1.5-31.1-1.5
		l0,0C1527.8,101.2,1529,100.6,1529.9,99.7z"/>
	<path fill="#9B7461" d="M1682.2,79.6c0,0-32.6,1.2-42.5,0.6c-10.2-0.6-38.9,1.5-44.9,1.2c-6-0.6,12,1.5,24.8,0.6
		c13.2-0.9,28.1,0.3,43.4,0.6c15.6,0.3,20.6-1.5,20.6-1.5L1682.2,79.6z"/>
	<path fill="#9B7461" d="M1672.6,652.3c0,0,85.9,0,144.8-7.5c58.9-7.2,58.9-7.2,58.9-7.2s-15.6,4.2-67.6,10.5
		c-52.4,6.6-92.8,7.5-136.7,7.5h-1.5c0-0.6,0.3-1.5,0.6-2.1c0.3-0.3,0-0.6-0.3-0.9L1672.6,652.3z"/>
	<path fill="#9B7461" d="M1672,660.4c5.4,0.6,29,3,45.2,2.7c18.6-0.3,30.8-1.5,30.8-1.5s-24.8,4.5-50,3.6
		c-13.5-0.6-20.3-1.2-23.6-1.5C1673.5,662.5,1672.6,661.6,1672,660.4z"/>
	<path fill="#9B7461" d="M1676.8,670.6c9.6,0.9,23,1.5,29.6,1.2c11.1-0.9,16.2-1.2,16.2-1.2s-10.8,3.6-25.4,3.3
		c-7.5-0.3-15-0.6-20.9-0.9c0.3-0.6,0.3-1.2,0.6-1.8C1676.8,670.9,1676.8,670.9,1676.8,670.6z"/>
	<path fill="#9B7461" d="M1677.1,375c9,0.6,19.4,1.2,25.1,0.6c11.1-0.6,16.2-0.9,16.2-0.9s-10.5,3.3-25.4,3c-5.1,0-10.2-0.3-15-0.6
		C1677.7,376.5,1677.4,375.6,1677.1,375z"/>
	<path fill="#9B7461" d="M1669.9,364.8c10.2,0.3,23,0.9,33.2,0.6c18.3-0.3,29,0.3,29,0.3s-17.7,3-42.8,2.1
		c-6.9-0.3-12.6-0.6-17.1-0.6c-0.6-0.9-1.5-1.5-2.1-2.1L1669.9,364.8z"/>
	<path fill="#9B7461" d="M1685.2,410.6c10.2,0.3,23.9,0.6,34.4,0.3c18.3-0.3,29.3,0.3,29.3,0.3s-18,3-43.1,2.1
		c-8.1-0.3-14.4-0.3-19.4-0.6C1686.1,412.1,1685.8,411.2,1685.2,410.6z"/>
	<path fill="#9B7461" d="M1616.7,273.5c9.9,0.3,29.3,0.9,36.8,0.3c9.9-0.6,38.6,1.5,44.6,1.2s-12,1.5-24.8,0.9
		c-13.2-0.9-27.8,0-43.4,0.3c-5.7,0.3-10.2,0-13.2-0.3C1616.7,275,1616.7,274.1,1616.7,273.5z"/>
	<path fill="#9B7461" d="M1751,111c6.6,0.6,35.9,3.3,96.9-1.5c55.4-4.5,73.6-8.4,78.7-9.6l0,0c-5.7,1.8-23.6,7.2-54.2,10.5
		c-18.9,1.8-42.5,4.2-61.9,5.1s-34.7,0.6-42.2-0.3c-14.4-1.2-13.8-0.9-17.1-0.9C1751,113.1,1751,112.2,1751,111z"/>
	<path fill="#9B7461" d="M1875.5,620.9l51.2-6l0,0c-12,1.8-41.9,6.3-66.4,9.9c-31.1,4.5-120.3,3.6-120.3,3.6
		c2.4-3.9,26.6-1.8,53.9-2.4C1827.9,625.1,1867.1,622.1,1875.5,620.9z"/>
	<path fill="#9B7461" d="M1719.6,609.2c11.7,0,38-0.3,42.8,0c6,0.3,13.8,0,13.8,0s-46.7,1.8-57.2,2.1
		C1719.3,610.7,1719.6,609.8,1719.6,609.2z"/>
	<path fill="#9B7461" d="M1720.2,587.7c20.6-0.3,77.5-0.6,87.4,0c12.3,0.6,27.5-0.3,27.5-0.3s-98.1,4.2-114.3,4.8
		C1720.5,590.7,1720.5,589.2,1720.2,587.7z"/>
	<path fill="#9B7461" d="M1538.3,819.9c9.9,0.3,34.1,1.2,50.9,0.9c21.2-0.3,33.8,0.3,33.8,0.3s-20.6,3-50,2.1
		c-12-0.3-20.9-0.6-26.9-0.6C1542.5,821.7,1539.8,820.8,1538.3,819.9z"/>
	<path fill="#9B7461" d="M1635.2,772.6c0,0-32.6,1.5-42.5,0.9c-4.5-0.3-12.3,0-20.3,0.3c-0.9,0.6-2.4,1.2-3.9,1.8
		c1.5-0.3,3-0.3,4.2-0.3c13.2-0.9,28.1,0.3,43.4,0.6c15.6,0.3,20.6-1.5,20.6-1.5L1635.2,772.6z"/>
	<path fill="#9B7461" d="M1900.6,464.7c-2.7,0.6-8.7,1.5-18.6,2.1c-15.6,1.2-41,2.4-78.1,1.2c-70.3-2.1-80.8-6.3-80.8-6.3
		s18.9,6.6,56.3,8.4c18.6,0.9,41.3,0.3,60.7,0.3c19.4,0,27.5,0.3,34.7-0.6C1878.2,469.2,1890.5,470.7,1900.6,464.7z"/>
	<path fill="#9B7461" d="M1658.3,501.2c10.2,0.3,28.7,0.9,35.6,0.3c9.9-0.6,38.6,1.5,44.6,1.2s-11.7,1.5-24.8,0.9
		c-12.9-0.9-27.8,0-43.4,0.3c-2.7,0.3-5.1,0.3-7.2,0C1661.9,502.7,1660.1,502.1,1658.3,501.2z"/>
	<path fill="#9B7461" d="M1598.4,743.6c18.3,0.9,47.3,2.1,69.1,1.8c34.4-0.3,57.5-1.5,57.5-1.5s-46.4,4.5-93.4,3.6
		c-22.1-0.3-34.4-0.9-41.3-1.5C1592.7,745.1,1595.4,744.5,1598.4,743.6z"/>
	<path fill="#9B7461" d="M1581.7,752.6c9.3,0.6,26.9,2.1,35,1.5c11.1-0.9,16.2-1.2,16.2-1.2s-10.8,3.6-25.4,3.3
		c-10.2-0.3-20.6-0.9-26.6-1.2C1581.1,754.1,1581.4,753.2,1581.7,752.6z"/>
	<path fill="#9B7461" d="M1712.4,837c0,0,86.2,0,144.8-7.5c58.9-7.2,58.9-7.2,58.9-7.2s-15.3,4.2-67.6,10.5
		c-52.1,6.6-92.8,7.5-136.7,7.5S1712.4,837,1712.4,837z"/>
	<path fill="#9B7461" d="M1781,869.3c0,0-32.6,1.2-42.5,0.6c-2.7-0.3-6.3-0.3-10.2,0c0.9,0.3,1.5,0.9,2.1,1.2l0.6,0.3
		c9.9,0,20.3,0.6,30.8,0.9c15.6,0.3,20.6-1.5,20.6-1.5L1781,869.3z"/>
	<path fill="#9B7461" d="M1817.2,720.3c0,0,29.9,3,41.3,2.1c11.1-0.9,15.9-1.2,15.9-1.2s-10.5,3.6-25.4,3.3
		c-14.7-0.3-31.1-1.5-31.1-1.5L1817.2,720.3z"/>
	<path fill="#9B7461" d="M1530.2,792.1c14.7,0.6,49.1,2.1,64,1.5c19.2-0.6,27.5-0.9,27.5-0.9s-18.3,3.3-43.7,3
		c-20.3-0.3-42.5-0.9-50.6-1.2c0.6-0.9,1.5-1.5,2.4-2.1C1529.9,792.1,1530.2,792.1,1530.2,792.1z"/>
</g>
<path fill="#71584B" d="M860.5,775.9c0,0,2.1-1.2,4.5-4.5c2.4-3,6-13.2,7.2-21.8c1.2-6.9-2.4-15-1.5-23.3c0.3-3.9-4.5-15.6-4.8-26.9
	c-0.9-12,3.3-26.9-4.8-33.8c-3.3-2.7-10.8-7.5-19.2-5.4c-4.8,1.2-8.1,2.4-11.7,5.4c-2.7,2.1-6.6,5.1-8.7,9.6
	c-6,13.5-11.7,23-9.9,44.9c1.8,21.5,13.2,35,11.1,45.2c-2.1,10.5,6.3,12,16.8,9c2.7-0.9,5.4,1.8,7.8,1.8
	C854.9,776.2,860.5,775.9,860.5,775.9z"/>
<path fill="#433A34" d="M832.4,768.4c-1.2-2.1-2.1-3.9-2.7-6c-0.9,1.5-1.8,2.1-2.4,0.9c-0.9-1.8-1.5-9.9-1.5-14.7
	c-0.6-3-0.9-6-1.2-9c-1.5,0.9-3.3,2.1-3.3-0.9c0-3.3,1.8-12.3,2.7-17.1v-2.7c-1.2,0-2.4-0.6-2.4-1.8c0-2.1,2.1-10.5,3-15
	c0.3-3,0.9-6.3,2.1-9c1.2-3.9,4.2-4.5,6.9-5.7c3.3-0.9,6.6-1.5,10.5,1.8c3.3,3,5.1,7.8,5.7,11.7c0,2.1-0.9,6-0.6,8.7
	c0.6,6,2.1,10.8-3.6,12.3c0.3,1.2,0.6,5.1,1.2,7.2c0.9,4.2-1.8,2.7-2.1,3.9c-0.3,2.1,5.7,10.8,0,10.8c0.9,4.2,2.1,6.3-1.2,11.7
	c-0.9,1.8,1.5,3.6,0.9,6c-0.3,1.2-4.5,4.2-5.1,5.7C836.6,773.2,836.6,775.9,832.4,768.4z"/>
<path fill="#F1D6C4" d="M851.6,673.3c0.3,0.3,0.6,0.6,0.9,0.9c6.6,5.1,13.8,6.3,20,5.4c0.6-0.3,1.5-0.3,2.4-0.6
	c1.8,1.8,3.6,3,3.6-1.2c6.6-3,4.5-7.5,8.7-12.9c4.8-6.9,9.9-9,10.2-15c0-3,0.9-8.1-2.7-12.3c-1.8-1.8-3-2.4-4.5-3.3
	c0-0.3-0.3-0.9,1.2-1.8c1.2-0.6,3.3-0.6,3.3-0.6s-3-0.9-3.9,0c-1.2,0.9-1.8,0.9-1.8,0.9s-1.2-2.7-2.7-3s-2.4,0.3-2.4,0.3
	s3,0.3,3.6,2.4c0.6,1.8-2.1-1.5-4.2,0.6c-2.1,2.1,0.9-0.9,3.3,0.6c-0.9,0.3-1.8,0.9-2.4,1.5c-1.8,1.2-3.6,1.5-4.8,2.1
	c-2.4,0.9-5.7,6.6-4.5,13.2c0.6,2.7,4.2,3.3,5.1,5.1c1.8,3.3,0.9,7.8-0.3,12s-1.5,3.9-4.8,5.7c-6.3,3-14.4,0.3-20.6-4.2
	c-0.3,0,0.3-0.9,0.3-0.9c-1.8-1.2-2.4,1.8-3,2.1s-1.5,2.1-1.2,3C850.4,673.9,851.6,673.3,851.6,673.3z"/>
<path fill="#FFF56E" d="M891.7,658.9c4.8-1.5,10.5,5.7,7.5,8.7c4.5-1.5,7.8-6,5.4-12c-2.1-4.5-8.1-6-8.1-6s-0.9-2.1-1.8,0.6
	c-0.9,2.4-4.8,7.8-4.2,9.3C890.8,661,891.7,658.9,891.7,658.9z"/>
<path fill="#231F20" d="M894.4,642.2c0.3-0.3,0.6-0.3,0.6,0c0.3,0,0,0.3,0,0.6c0,0-0.6,0.6-1.8,0.9c-0.9,0.6-2.1,0.6-3,0.6
	c-1.8-0.3-2.4-0.9-3.6-2.1c0-0.3-0.3-0.6,0-0.6c0-0.3,0.3-0.3,0.6,0c1.2,1.2,2.1,1.5,3,1.8c0.9,0,1.5-0.3,2.1-0.3
	C893.5,642.8,894.4,642.2,894.4,642.2z"/>
<path fill="#231F20" d="M907.2,642.5c0,0,0.6-0.3,0.6,0c0.3,0.3,0,0.6,0,0.6s-0.6,0.6-1.8,1.2c-0.9,0.6-2.1,0.6-3,0.6
	c-1.8-0.3-2.4-0.9-3.6-2.1c-0.3-0.3-0.3-0.6-0.3-0.9c0.3,0,0.6,0,0.9,0.3c1.2,0.9,2.1,1.5,3,1.5s1.5,0,2.1-0.3
	C906.3,643.1,907.2,642.5,907.2,642.5z"/>
<path fill="#71584B" d="M1608.6,743.6c0,0-1.5-0.9-3-3s-3.9-9-4.8-14.7c-0.9-4.8,1.5-10.2,0.9-15.9c0-2.7,3-10.5,3.3-18
	c0.6-8.1-2.1-18.3,3.3-23c2.1-1.8,7.2-5.1,12.9-3.6c3.3,0.9,5.4,1.8,7.8,3.6c2.1,1.5,4.5,3.6,5.7,6.6c4.2,9,8.1,15.6,6.9,30.2
	c-1.2,14.7-10.2,26.3-8.7,33.2c1.5,7.2-3,5.1-10.2,3.3c-1.8-0.6-3.6,1.2-5.1,1.2C1612.5,743.6,1608.6,743.6,1608.6,743.6z"/>
<path fill="#433A34" d="M1627.7,738.5c0.6-1.2,1.2-2.7,1.8-3.9c0.6,0.9,1.2,1.5,1.5,0.6c0.6-1.2,0.9-6.6,1.2-9.9
	c0.3-2.1,0.6-4.2,0.6-6.3c0.9,0.9,2.1,1.5,2.1-0.6s-1.2-8.1-1.8-11.4v-1.8c0.9,0,1.8-0.3,1.8-1.2c0-1.5-1.5-6.9-2.1-9.9
	c-0.3-2.4-0.6-4.5-1.2-6.3c-1.2-2.7-3-3-4.8-3.6c-2.4-0.9-4.5-1.2-6.9,0.9c-2.4,2.1-3.9,5.4-3.9,8.1c-0.3,1.2,0.6,3.9,0.3,5.7
	c-0.3,4.2-1.5,7.2,2.4,8.4c-0.3,0.6-0.3,3.3-0.9,4.8c-0.6,2.7,1.2,1.8,1.5,2.7c0.3,1.2-3.9,7.2,0,7.2c-0.6,2.7-1.2,4.2,0.9,7.8
	c0.6,1.2-1.2,2.4-0.9,3.9c0.3,0.9,3.3,3,3.6,3.9C1624.8,741.8,1624.8,743.6,1627.7,738.5z"/>
<path fill="#F1D6C4" d="M1614.9,674.5c-0.3,0.3-0.6,0.3-0.6,0.6c-4.5,3.3-9.6,4.2-13.5,3.6c-0.6-0.3-1.2-0.3-1.8-0.3
	c-1.2,1.2-2.4,1.8-2.4-0.9c-4.5-2.1-3.3-5.1-6-8.7c-3-4.5-6.6-6-6.6-10.2c-0.3-1.8-0.6-5.4,1.8-8.1c1.2-1.5,2.1-1.8,3.3-2.7
	c0.9-0.3,2.1,0,3.6,0.9c1.2,0.9,2.4,1.2,3.3,1.5c1.5,0.6,3.9,4.5,3,8.7c-0.3,1.8-2.7,2.4-3.6,3.6c-0.9,2.4-0.6,5.4,0.3,8.1
	c0.9,2.7,1.2,2.7,3.3,3.9c4.2,2.1,9.9,0,13.8-2.7c0.3-0.3-0.3-0.6,0-0.9c0.9-0.6,1.5,1.5,1.8,1.5c0.6,0.3,0.9,1.5,0.9,2.1
	C1615.5,674.8,1614.9,674.5,1614.9,674.5z"/>
<path fill="#FFF56E" d="M1587.7,664.9c-3-1.2-6.9,3.6-4.8,5.7c-3-1.2-5.4-3.9-3.9-8.1c1.5-3,5.7-3.9,5.7-3.9s0.3-1.5,1.2,0.3
	c0.6,1.5,3,5.4,2.7,6.3C1588.3,666.1,1587.7,664.9,1587.7,664.9z"/>
<path fill="#231F20" d="M1585.9,653.5c0-0.3-0.3-0.3-0.3,0c-0.3,0-0.3,0,0,0.3c0,0,0.3,0.3,1.2,0.6c0.6,0.6,1.2,0.6,1.8,0.6
	c1.5-0.3,1.8-0.6,2.4-1.5c0.3-0.3,0.3-0.3,0.3-0.6c-0.3,0-0.3,0-0.6,0.3c-0.6,0.6-1.5,0.9-2.1,0.9c-0.3,0-0.9,0-1.2,0
	C1586.5,653.8,1585.9,653.5,1585.9,653.5z"/>
<path fill="#231F20" d="M1577.2,653.8c0-0.3-0.3-0.3-0.3,0c-0.3,0,0,0.3,0,0.3s0.3,0.3,1.2,0.9c0.6,0.3,1.2,0.3,2.1,0.3
	c1.2-0.3,1.5-0.6,2.1-1.5c0.3,0,0.6-0.3,0.3-0.6c0,0-0.3,0-0.6,0.3c-0.6,0.6-1.2,0.9-2.1,0.9c-0.3,0.3-0.9,0-1.2,0
	C1577.8,654.1,1577.2,653.8,1577.2,653.8z"/>
<path fill="#B28972" d="M906.9,780.4c-4.2-3-38-3.6-40.7-5.7c-0.9-0.3-27.2,1.2-37.1-1.8c-17.4-5.4-23-16.5-27.8-17.4
	c-6-1.5,4.2-5.7-2.1-7.5c-8.4-2.4,5.1-1.8-3.6-3.6c-11.7-2.7-8.1-9.3-15-16.2c-12.9-12.3-23-27.8-28.4-44.9
	c-1.5-5.1,1.8-11.1,0-15.9c-1.5-4.5-7.5-9.9-6-15.9c1.2-4.8,9.9-10.2,9.9-14.4c0-2.1-3-4.2-3.6-6.3c-1.8-6,0-12.3-1.5-17.4
	c-1.2-3.3-5.4-5.7-7.2-8.4c-3-3.9-11.7-6-13.2-9.9c-1.2-2.7-0.9-6.6-1.5-9.6c-0.3-3.9,3.3-10.5,3.6-16.2c0-5.7-3-10.2-1.5-14.4
	c2.1-5.1,7.2-4.2,8.4-8.4c2.1-6.9-0.9-11.1-1.2-14.4c-0.6-5.4,1.5-15,1.2-24.5c-0.3-7.8-3.3-15.3-1.8-21.2c1.2-6.3,8.4-9.6,9.9-13.5
	s-3-8.7-3.3-14.4c0-2.4,2.1-4.8,1.2-6.9c-2.4-7.5-9.6-13.8-6-20c3.9-6.6,4.5-12.3,14.7-15.3c7.8-2.7,25.1-3.6,29.6-3
	c5.1,1.2,26.6,4.2,36.5,3s8.7-6.6,15.3-8.4c17.4-4.8-28.7-12.3-16.5-17.1c6-2.4,7.8-5.1,12.6-5.1c10.5,0,44-2.1,59.5-4.8
	c15.9-2.4,7.2-7.5,14.7-13.2c15-11.4-70.6-13.5-67.9-29.3c1.5-7.2,0.9-12.9-10.2-16.2c-12.9-3.9-38-5.1-62.2-6.6
	c-4.5-0.3,1.8-3.6-7.2-5.1c-14.7-2.1-40.4-6.6-47.3-10.8c-11.4-7.8-9.3-10.5-13.2-20.9c-3.3-8.4-17.7-20.3-26.6-27.8
	c-8.1-6.9-16.5-13.8-25.1-20c-6.3-4.5,3.9-7.5-3-9.9c-17.1-6-52.7-6.3-72.7-10.8c-5.4-0.9-9.9-2.4-14.7-4.2
	c-9-3.3-18.3-8.1-32.3-14.1c-6.6-2.7-17.1-4.5-20.6-7.8c-3.6-3.6-0.3-8.7-8.1-10.8c-5.4-1.5-24.2-9.3-30.2-9.3
	c-13.2-0.3-23-3.3-43.1-13.8c-8.4-4.2-18.6-4.2-24.2-11.1c-5.1-6-4.5-16.8-12.3-20.3C380,116.6,345,87,338,55.9
	c-12.4-55,2.6-124.8-5.2-128.1C316-79.4,299.9-48.3,284-55.4c-87.4-37.7-272,0-272,0L-99.2,70.9l-5.5,1136.4l983.2-13.9l-2.7-115.7
	c-0.9-6-2.4-12.6-4.5-19.7c-2.7-8.1-13.5-14.1-19.7-23.9c-4.8-6.9-9-17.7-7.2-24.5c1.2-5.1-6.3-10.2-7.2-14.7
	c-0.9-5.7,2.1-11.4,0.3-16.8c-1.8-5.1-8.7-10.2-7.8-14.7c2.1-12,13.8-21.2,14.1-26c0.6-3.3,12.9-9,6-16.5
	c-5.4-5.7-30.2-12.6-33.2-19.4c-3.6-6.9,3-14.4,3.3-21.2c0-5.7-10.8-10.2-5.4-14.7c6.9-5.7,30.5-11.1,32.6-18.6
	c1.8-6-4.5-10.8,3.9-15.3s31.7-9,31.4-14.7c-0.3-6.3,15-15.9,12-21.5C892.3,791.8,914.1,785.5,906.9,780.4z M664.5,566.8
	c-6.9,2.4-24.2,3-29,4.8c-3.3,1.5,2.7,3,1.2,3.9c-8.1,4.2-32.6,5.4-42.5,7.5c-7.2,1.5-12.9,5.1-14.7,11.7c-0.6,3-4.5,7.8-4.5,12.6
	c0,3.3,4.5,6.3,3.6,11.1c-1.5,9-8.7,22.7-8.4,31.7c0,6.6-6.9,12.9-5.7,18.6c1.8,7.8,11.4,15,12,21.2c0.6,6.6-4.2,11.4-2.1,16.2
	c3.9,8.7,15.3,13.5,15.3,13.5s8.1,5.4,4.2,19.7c-0.6,2.1-8.1,2.7-9,5.1c-1.5,4.8-15.9,8.7-29,11.1c-9,1.8-17.7,3-21.2,3.3
	c-13.5,1.5,0.6-4.5-12.3-14.4c-3.9-3-21.8-6.3-24.8-9.6c-6.3-7.5,0-18.6,0-28.1c0-5.1-12.3-12.3-14.4-17.7c-2.1-4.8,6-8.1,4.5-14.4
	c-1.5-5.7-6.6-10.5-8.1-15.6c-1.5-5.4-0.9-12.3-2.1-17.4c-1.8-7.8-9-11.7-11.1-18.9c-1.8-6.3-1.5-14.4-2.4-22.7
	c0-1.5,1.8-3.9,1.5-5.4c-0.3-1.8-7.2-3-8.1-4.8c-1.8-3.9,1.2-8.1,0-12.3c-0.6-3.9-11.4-6.9-12.6-10.5c-0.6-2.1,12-5.4,11.4-7.5
	c-1.8-4.8-12.3-9.3-13.5-13.2c-0.6-2.1,7.2-4.2,8.1-6c0.9-2.4-2.1-3.3,2.4-4.2c3.3-0.9,14.1-1.5,16.2-2.4c6.6-2.4,22.1-1.5,30.2-2.1
	c8.4-0.6,34.7-2.7,41.3-2.7c5.4,0.3-9.6,2.4-2.7,3.3c5.4,0.6,11.4,0.6,17.7,0.3c9.3-0.3,19.2-1.8,28.1-2.7c8.1-0.9,8.4-2.4,16.5-2.4
	c2.7-0.3,11.7,0.9,14.7,0.6c3.6,0,17.7-0.6,20.6,0.6c5.4,1.5-1.5,6,0.9,9.9c0.9,1.8,12,3.3,13.2,5.7c1.8,4.2,19.7,8.4,18.6,12.9
	C667.5,560.2,671.4,564.4,664.5,566.8z"/>
<g>
	<g>
		<path fill="#9B7461" d="M471.8,428.8c0,0-105-2.1-136.7-10.8c-32-8.4-32-8.4-32-8.4s35.9,15,84.4,18.6c25.7,1.8,61.6,3.9,76.9,3.6
			C477.8,431.5,471.8,428.8,471.8,428.8z"/>
		<path fill="#9B7461" d="M443.7,667c0,0-105-2.1-136.7-10.5c-31.7-8.7-31.7-8.7-31.7-8.7s35.6,15.3,84.1,18.6
			c25.7,1.8,61.9,3.9,76.9,3.6C449.7,669.7,443.7,667,443.7,667z"/>
		<path fill="#9B7461" d="M525.1,922.2c0,0-105-1.8-136.7-10.5s-31.7-8.7-31.7-8.7s35.6,15.3,84.1,18.6c25.7,2.1,61.9,4.2,76.9,3.9
			C531.1,925.2,525.1,922.2,525.1,922.2z"/>
		<path fill="#9B7461" d="M581.1,939.6c-6.6,1.2-35.6,5.1-96.6,3.3c-70.3-2.1-80.8-6.3-80.8-6.3s18.9,6.3,56.3,8.4
			c18.6,0.9,42.5,2.1,61.9,2.1s34.7-1.2,42.2-2.4c14.4-1.8,13.8-1.5,17.1-1.8C581.4,941.7,581.4,940.8,581.1,939.6z"/>
		<path fill="#9B7461" d="M844.1,346.5c-20.6,1.5-50.9,3.3-87.1,4.5c-34.7,1.2-72.4,5.4-115.2,5.1c-33.5-0.3-62.8-5.4-82.9-5.4
			c-57.5-0.9-65.8-1.5-65.8-1.5s50.9,4.2,75.1,4.8c10.2,0,41.9,4.8,76.9,4.8c47.6,0.3,101.4-3,114.3-3.9c15.3-0.9,63.1-3.6,93.1-5.4
			C849.5,348.6,846.5,347.7,844.1,346.5z"/>
		<path fill="#9B7461" d="M709.4,299c-29,3-81.1,7.8-111,6.3c-42.8-2.7-160.1-27.5-160.1-27.5s69.1,14.1,104.7,16.5
			c35.3,2.4,38.3,12,118.8,4.8c17.7-1.5,31.7-2.7,42.8-3.9C705.8,296.3,707.3,297.8,709.4,299z"/>
		<path fill="#9B7461" d="M645.1,375c0,0-11.1,2.1-71.2,1.2c-13.5-0.3-28.7,1.5-47.9,1.2c-11.1-0.6-18.6,0.9-28.4,0.6
			c-80.8-3.6-120.6-12.9-120.6-12.9s55.7,15.6,132,16.2C585.3,381.5,645.1,375,645.1,375z"/>
		<path fill="#9B7461" d="M644.2,228.3c-10.2-0.3-22.7-0.9-28.1-1.5c-9.9-1.2-38.9-0.6-44.9-1.5c-5.7-0.9,12,2.4,24.8,2.1
			c13.2,0,27.8,2.1,43.4,3.3c2.1,0,4.2,0.3,6,0.3C644.5,230.1,644.2,229.2,644.2,228.3z"/>
		<path fill="#9B7461" d="M671.7,252c-16.2,0-89.5-0.9-141.5-7.5c-58.9-7.2-58.9-7.2-58.9-7.2s15.6,4.2,67.6,10.5
			c52.4,6.3,92.8,7.5,136.7,7.5L671.7,252z"/>
		<path fill="#9B7461" d="M480.5,198.1c0,0-54.5-0.3-91.9-6s-37.4-5.7-37.4-5.7s9.9,3.3,43.1,8.4c32.9,5.1,58.6,6,86.5,5.7
			C509,200.5,480.5,198.1,480.5,198.1z"/>
		<path fill="#9B7461" d="M444.6,161.6c-5.4,0-10.8-0.3-14.4-0.3c-4.8-0.6-17.7-0.6-30.5-1.2c-15-0.9-28.7-3-28.7-3s18.6,0.3,38,0.9
			c6,0,17.7,0.6,27.5,0.6C439.5,159.8,442.2,160.7,444.6,161.6z"/>
		<path fill="#9B7461" d="M397.3,140.4c-9,0.6-19.7,1.2-25.4,0.9c-11.1-0.9-16.2-1.2-16.2-1.2s10.8,3.3,25.4,3
			c6.3,0,12.9-0.3,18.6-0.6C398.8,141.9,398.2,141.3,397.3,140.4z"/>
		<path fill="#9B7461" d="M739.4,481.2c0,0-85.9-0.3-144.8-7.8c-58.9-7.2-58.9-7.2-58.9-7.2s15.6,4.2,67.6,10.5
			c51.8,6.6,91.9,7.5,135.5,7.5c0.6-0.9,1.2-2.1,2.1-3H739.4z"/>
		<path fill="#9B7461" d="M744.7,460.2c-2.7,0-4.8,0-6.6-0.3c-4.8-0.3-18-0.6-30.8-1.2c-14.7-0.6-28.7-3-28.7-3s18.6,0.6,38,1.2
			c6,0,18.3,0.3,28.1,0.3c0,0.6-0.3,1.2-0.3,1.8C744.4,459.3,744.7,459.9,744.7,460.2z"/>
		<path fill="#9B7461" d="M833.6,971.9c-15.6,0-89.5-0.9-141.8-7.5c-58.9-7.2-58.9-7.2-58.9-7.2s15.6,4.2,67.6,10.5
			c51.8,6.6,91.9,7.5,135.5,7.5C835.1,974.3,834.5,973.1,833.6,971.9z"/>
		<path fill="#9B7461" d="M837.8,980c-3.6,0.3-28.7,3-45.8,2.7c-18.6-0.3-30.8-1.5-30.8-1.5s24.8,4.5,50.3,3.6
			c22.4-0.9,26-2.1,26.6-2.1C838.1,981.8,838.1,980.9,837.8,980z"/>
		<path fill="#9B7461" d="M837.2,989.9c-9.6,0.9-26.3,2.1-34.4,1.5c-11.1-0.9-16.2-1.2-16.2-1.2s10.8,3.6,25.4,3.3
			c9.3-0.3,18.9-0.9,25.1-1.2C837.2,991.4,837.2,990.8,837.2,989.9z"/>
		<path fill="#9B7461" d="M816.9,890.5c-16.8,0.6-80.2,2.4-128.4-3.3c-56.3-6.6-56.3-6.6-56.3-6.6s40.4,6,71.5,10.5
			c25.1,3.6,89.2,3.6,111.9,3.6C816,893.2,816.6,891.7,816.9,890.5z"/>
		<path fill="#9B7461" d="M818.3,876.5c-12.9,0-33.8-0.3-38,0c-6.3,0.3-14.1,0-14.1,0s38,1.5,53,2.1
			C819.2,878,818.6,877.1,818.3,876.5z"/>
		<path fill="#9B7461" d="M829.7,854.9c0,0-82.6-0.6-94.9,0s-27.5-0.3-27.5-0.3s103.5,4.5,115.5,4.8
			C834.8,859.4,829.7,854.9,829.7,854.9z"/>
		<path fill="#9B7461" d="M617.3,795.1c0,0-86.2-0.3-144.8-7.5c-58.9-7.5-58.9-7.5-58.9-7.5s15.3,4.2,67.6,10.8
			c52.1,6.3,92.8,7.5,136.7,7.2C661.9,798.1,617.3,795.1,617.3,795.1z"/>
		<path fill="#9B7461" d="M727.7,801.4c0,0-104.4,12.9-137.3,9c-32.6-3.9-32.6-3.9-32.6-3.9s37.7,9.9,86.2,6.3
			c25.4-1.8,61.6-4.8,76.6-7.2C734,803.4,727.7,801.4,727.7,801.4z"/>
		<path fill="#9B7461" d="M570.3,649.3c7.2,0.3,29.9,1.2,45.5,0.9c18.3-0.3,29.3,0.3,29.3,0.3s-18,3-43.1,2.1
			c-18.9-0.6-28.4-0.9-32-0.9c0-0.6,0.3-1.2,0.3-1.8C570.3,649.9,570.3,649.6,570.3,649.3z"/>
		<path fill="#9B7461" d="M567.3,658.9c9,0.9,27.8,2.4,36.2,1.8c11.1-0.9,15.9-1.2,15.9-1.2s-10.5,3.3-25.4,3
			c-10.8,0-22.4-0.9-27.8-1.2C566.4,660.7,566.7,659.8,567.3,658.9z"/>
		<path fill="#9B7461" d="M463.5,593.1c-8.7,0.6-28.1,2.1-36.8,1.5c-11.1-0.9-16.2-1.2-16.2-1.2s10.8,3.6,25.7,3.3
			c12-0.3,24.8-1.2,29.3-1.5c0-0.3,0-0.3,0-0.6C465.6,594,464.7,593.4,463.5,593.1z"/>
		<path fill="#9B7461" d="M457.2,583.8c-9.6,0.3-21.8,0.6-31.1,0.6c-18.6-0.6-29.3,0-29.3,0s17.7,3,43.1,2.1
			c6.9,0,12.6-0.3,17.1-0.3C456.9,585.3,457.2,584.7,457.2,583.8z"/>
		<path fill="#9B7461" d="M450.9,537.1c-3.3,0-5.7,0-7.5,0c-10.2-0.6-38.9,1.2-44.9,0.9c-6-0.6,12,1.5,24.8,0.6
			c8.7-0.3,18-0.3,27.5,0.3C450.9,538,450.6,537.4,450.9,537.1z"/>
		<path fill="#9B7461" d="M575.4,608.7c12-0.3,35.6,1.5,41,1.2c6-0.6-12,1.5-24.8,0.6c-5.1-0.3-10.2-0.3-15.6-0.3
			C575.7,609.8,575.4,609.2,575.4,608.7z"/>
		<path fill="#9B7461" d="M636.1,575.7c9.9-0.6,38.6,1.5,44.6,1.2c6-0.6-12,1.5-24.8,0.6c-8.1-0.3-16.5-0.3-25.4,0
			C632.5,576.9,634.6,576.3,636.1,575.7z"/>
		<path fill="#9B7461" d="M737.9,601.2c-10.2,0.3-22.7,0.3-28.1,0c-10.2-0.6-38.9,1.5-44.9,1.2c-6-0.6,12,1.5,24.8,0.6
			c13.2-0.6,28.1,0.3,43.4,0.6c3.6,0,6.6,0,9,0C740.8,602.7,739.4,601.8,737.9,601.2z"/>
		<path fill="#9B7461" d="M751.9,682c-9,0-23,0-29.9-0.3c-4.8-0.6-17.7-0.6-30.5-1.2c-15-0.9-28.7-3-28.7-3s18.6,0.3,38,0.9
			c7.5,0.3,24.8,0.6,35.6,0.3c6.3-0.3,11.7-0.6,15.6-1.2C751.6,679,751.6,680.5,751.9,682z"/>
		<path fill="#9B7461" d="M758.2,698.4c-6-0.3-14.1-0.6-21.8-0.9c-15-0.6-28.7-3-28.7-3s18.6,0.6,38,0.9c2.7,0.3,6.9,0.3,11.4,0.3
			C757.6,696.6,757.9,697.5,758.2,698.4z"/>
	</g>
	<g>
		<path fill="#9B7461" d="M577.2,599.7c8.4,0,18,0,23-0.3c4.8-0.3,17.7-0.6,30.8-1.2c14.7-0.6,28.7-3,28.7-3s-18.9,0.3-38.3,0.9
			c-7.5,0.3-24.8,0.9-35.6,0.3c-2.4,0-4.8-0.3-6.9-0.3C578.7,597.3,577.8,598.5,577.2,599.7z"/>
		<path fill="#9B7461" d="M576.3,694.8c7.5,0,15.6,0,20.3-0.3c4.8-0.3,17.7-0.6,30.8-1.2c14.7-0.6,28.7-3,28.7-3s-18.9,0.3-38.3,0.9
			c-7.5,0.3-24.8,0.9-35.6,0.3c-1.8,0-3.9,0-5.7-0.3C576.6,692.4,576.6,693.6,576.3,694.8z"/>
		<path fill="#9B7461" d="M496.1,731.6c-4.5,0-8.7,0-11.4,0c-3.6-0.3-12.6-0.6-22.1-0.9c-10.5-0.6-20.3-2.1-20.3-2.1
			s13.2,0.3,27.2,0.6c5.4,0,17.7,0.6,25.4,0.3h0.3C495.5,730.1,495.5,731,496.1,731.6z"/>
		<path fill="#9B7461" d="M535,758.6L535,758.6L535,758.6L535,758.6L535,758.6z M529.3,758.6c-6.3,0.3-16.5,0.3-21.2,0
			c-3.6-0.3-12.6-0.6-22.1-0.9c-10.5-0.6-20.3-2.1-20.3-2.1s13.2,0.3,27.2,0.6c5.4,0,17.7,0.6,25.4,0.3c3.9-0.3,7.2-0.6,10.2-0.9
			C528.1,757.4,528.1,758.3,529.3,758.6z"/>
		<path fill="#9B7461" d="M520.3,743c-3.9,0-12.3-0.3-20.9-0.6c-10.5-0.6-20.3-2.1-20.3-2.1s13.2,0.3,27.2,0.6
			c2.1,0,5.1,0.3,8.7,0.3C517,741.8,518.8,742.4,520.3,743z"/>
		<path fill="#9B7461" d="M496.7,714.9c-3.6,0-7.5-0.3-11.7-0.3c-10.5-0.6-20.3-2.1-20.3-2.1s13.2,0.3,27.2,0.6c1.2,0,3,0,5.1,0
			C496.7,713.7,496.7,714.3,496.7,714.9z"/>
		<path fill="#9B7461" d="M485.3,691.8c-4.5,0-11.7-0.3-19.2-0.6c-10.5-0.6-20.3-2.1-20.3-2.1s13.2,0.3,27.2,0.6
			c2.4,0,6.6,0.3,10.8,0.3C484.1,690.6,484.7,691.2,485.3,691.8z"/>
	</g>
</g>
</svg>
