<?xml version="1.0" encoding="utf-8"?>
<!-- Generator: Adobe Illustrator 18.1.1, SVG Export Plug-In . SVG Version: 6.00 Build 0)  -->
<svg version="1.1" id="Warstwa_1" xmlns="http://www.w3.org/2000/svg" xmlns:xlink="http://www.w3.org/1999/xlink" x="0px" y="0px"
	 viewBox="0 0 1920 1080" enable-background="new 0 0 1920 1080" xml:space="preserve">
<path fill-rule="evenodd" clip-rule="evenodd" fill="#A37B62" d="M377.7-108.7L371.3-1.2C368,6,349.2,19.2,346.2,29.4
	c-2.4,7.2,4.8,11.7,2.7,20c-0.6,2.7,5.1,4.5,4.5,7.5c-0.6,2.7-3,15.6-3.3,18.3c-1.2,5.1-1.5,12.3-4.5,15c-5.1,4.5-13.5,3.6-18.6,8.7
	c-5.7,5.4-8.1,14.7-9.6,30.5c-0.9,7.5,2.1,12.9,1.8,20c-0.3,3.9,6.6,7.5,6.3,11.4c-0.3,6.3-0.3,12.9-0.6,18.9c0,18-6.3,35-3.9,45.2
	c0.9,3.3,9,4.8,9.6,7.8c3,12,12.9,20.9,15.6,30.5c2.1,8.7-5.7,23.3-3.6,30.5c3,10.8,8.4,14.7,10.8,23c3.6,12.6,6.6,23.3,9,33.8
	c2.4,10.8,3.9,21.5,5.1,34.1c0.3,4.8,0.6,10.2,0.9,15.6c0.3,7.5,0.3,14.7,0.3,21.8c0,6-0.3,12.3-0.6,18.3c0,5.1-0.3,10.5-0.6,15.6
	c-0.3,6.9-6.3,8.4-6.6,15.3c0,5.7-0.3,11.7-0.3,17.7c0,3-0.3,6.3-0.3,9.6s0.3,6.9,0.3,10.2c0.3,13.5,4.5,33.2,6.3,49.4
	c1.2,8.4,4.8,17.4,6.6,26.6c0.6,3.9-4.8,6-4.5,9.9c0.9,6,7.2,13.2,7.5,18.9c0.3,6.6-2.7,7.8-3,14.7c0,6.9,2.4,19.2,0.9,24.5
	c-3.3,11.7-9.6,18.3-12,30.2c-1.8,7.5,2.1,18.9,0.9,26.6c-1.8,10.2-5.7,20-4.8,31.7c0,1.5,4.5,4.5,4.8,6c0.9,11.4,3.3,23.6,7.5,37.1
	c2.4,6.9,13.5,10.5,13.8,17.1c0.3,7.5-1.5,10.8-3.3,18.9c-1.2,6-7.2,13.2-7.5,20.6c-0.6,9.6,4.8,20,9,29.6
	c3.6,8.4,22.7,18.6,32.9,30.5c4.8,5.4,2.4,14.1,5.1,18.3c0.9,1.2,1.8,2.7,2.7,4.2c5.7,7.8,15,15.6,22.4,23.9c0.9,0.9-0.6,3,0,3.6
	c4.5,5.1,8.7,9.9,12.9,14.4c8.7,9.9-6,19.4,5.7,29.3c7.8,6.6,43.4,13.2,52.4,19.7c12,9,9.6,17.7,24.5,26.3
	c10.5,6,39.5,12.3,51.5,18.6c5.7,2.7,50.3,173.5,63.4,181.6h-790V-108.7H377.7z"/>
<g>
	<path fill-rule="evenodd" clip-rule="evenodd" fill="#795E4D" d="M445.8,950.4c-15.3,3-35.9,6.6-63.1,9.6c-69.7,8.4-80.8,6-80.8,6
		s19.7,3.6,57.2-0.3c18.6-1.8,42.2-4.2,61.3-6.9c11.1-1.8,20.6-3.6,28.1-5.1c-0.9-0.9-1.8-1.8-2.7-3
		C445.8,950.7,445.8,950.7,445.8,950.4z"/>
	<path fill-rule="evenodd" clip-rule="evenodd" fill="#795E4D" d="M274.4,960.8c0,0-105,5.4-137.3-0.9c-32.3-6.3-32.3-6.3-32.3-6.3
		s36.8,12.6,85.3,12.6c26,0,62.2-0.6,77.2-2.1C280.6,962.9,274.4,960.8,274.4,960.8z"/>
	<path fill-rule="evenodd" clip-rule="evenodd" fill="#795E4D" d="M419.8,916.6c-6,0.9-32.6,3.6-41.3,3.6c-9.9,0-38.6,4.5-44.6,4.5
		c-6,0,12,0.6,24.8-1.2s27.8-1.8,43.4-2.4c10.2-0.6,15.9-1.8,18.6-2.4C420.1,918,420.1,917.4,419.8,916.6z"/>
	<path fill-rule="evenodd" clip-rule="evenodd" fill="#795E4D" d="M531.7,1032.4c-28.1,2.7-120.3,10.2-228.6,11.1
		c-130.2,0.9-145.4,0-145.4,0s51.2,3.6,75.4,3.6s168.8-1.8,191.2-3.6c18.9-1.5,88.6-5.7,111.3-6.9
		C534.1,1035,532.6,1033.8,531.7,1032.4z"/>
	<path fill-rule="evenodd" clip-rule="evenodd" fill="#795E4D" d="M525.7,1023.7c-6.9,0.6-27.2,2.1-35.6,2.1c-4.8,0-18,0.9-30.8,1.2
		c-15,0.3-29-0.9-29-0.9s18.9-0.9,38.3-1.8c7.5-0.3,24.8-0.9,35.3-2.1c8.1-0.9,14.1-2.1,18.6-3
		C523.6,1020.7,524.5,1022.2,525.7,1023.7z"/>
	<path fill-rule="evenodd" clip-rule="evenodd" fill="#795E4D" d="M373.7,840.2c-12.9,0.9-89.2,5.4-143,2.4c-59.2-3-59.2-3-59.2-3
		s15.6,3,68.2,5.7c51.5,2.7,91.3,1.2,134.1-1.8c0-1.2,0-2.1,0-3V840.2z"/>
	<path fill-rule="evenodd" clip-rule="evenodd" fill="#795E4D" d="M374.3,848c-8.4,1.2-29.6,3.6-44,4.2c-18.6,0.9-29.3,2.4-29.3,2.4
		s18,1.8,43.1-0.9c17.1-2.1,26.6-2.7,30.8-3C374.6,849.8,374.6,848.9,374.3,848z"/>
	<path fill-rule="evenodd" clip-rule="evenodd" fill="#795E4D" d="M377.3,857.9c-9.3,1.5-26,3.9-34.1,3.9c-11.1,0-16.2,0-16.2,0
		s10.8,2.7,25.7,1.2c9.6-0.9,19.7-2.1,25.7-3C377.9,859.4,377.6,858.5,377.3,857.9z"/>
	<path fill-rule="evenodd" clip-rule="evenodd" fill="#795E4D" d="M371,784.3c-10.8,1.8-44,6-93.1,4.8c-59.8-1.5-79.3-1.5-79.3-1.5
		s68.8,3,94.3,3.9c20.3,0.3,63.1-2.1,80.5-3.3C372.2,787,371.6,785.8,371,784.3z"/>
	<path fill-rule="evenodd" clip-rule="evenodd" fill="#795E4D" d="M358.4,741.5c-8.7,0.9-31.4,2.7-69.1,2.7
		c-49.4,0-71.2-2.1-71.2-2.1s29.9,6,83.8,4.5c43.4-1.5,57.2-0.6,61-0.3C362,744.8,359.3,743,358.4,741.5z"/>
	<path fill-rule="evenodd" clip-rule="evenodd" fill="#795E4D" d="M274.4,753.2c0,0-41.3,0-74.2-2.1c-32.9-2.4-53.9-5.4-53.9-5.4
		s31.4,6,47.9,8.4c16.5,2.1,75.7,2.1,75.7,2.1L274.4,753.2z"/>
	<path fill-rule="evenodd" clip-rule="evenodd" fill="#795E4D" d="M362,684.7c-21.5-1.2-74.5-3.9-84.1-3.9c-12,0-26.9-1.5-26.9-1.5
		s92.2,8.4,111,9.6C361.7,687.3,361.7,685.9,362,684.7z"/>
	<path fill-rule="evenodd" clip-rule="evenodd" fill="#795E4D" d="M365.6,672.4c-10.5-0.6-39.2-2.1-44.3-2.1c-6,0-13.8-0.9-13.8-0.9
		s47.3,4.5,57.2,5.1C365,673.9,365.3,673.3,365.6,672.4z"/>
	<path fill-rule="evenodd" clip-rule="evenodd" fill="#795E4D" d="M368.9,593.4c-15.3-0.3-80.2-1.2-129.3-9.6
		c-55.7-9.6-55.7-9.6-55.7-9.6s39.8,8.1,70.6,14.1c26.6,5.1,96.4,8.4,115.2,9.3c-0.3-1.2-0.6-2.4-0.9-3.3
		C368.9,594,368.9,593.7,368.9,593.4z"/>
	<path fill-rule="evenodd" clip-rule="evenodd" fill="#795E4D" d="M372.2,579.3c-12.3-0.6-35.9-1.8-40.4-1.8c-6,0-13.8-0.9-13.8-0.9
		s41.3,3.9,54.8,5.1C372.5,580.8,372.5,580.2,372.2,579.3z"/>
	<path fill-rule="evenodd" clip-rule="evenodd" fill="#795E4D" d="M366.8,557.5c-24.5-1.2-70.3-3.6-79-3.6
		c-12.3,0-27.5-1.5-27.5-1.5s80.2,7.2,107.4,9.6c-0.3-1.5-0.6-3-0.9-4.2V557.5z"/>
	<path fill-rule="evenodd" clip-rule="evenodd" fill="#795E4D" d="M362.6,465.3c-14.7-0.6-50.6-2.7-57.2-2.7
		c-8.1,0-18.3-0.9-18.3-0.9s58.6,5.4,74.2,6.6C361.7,467.1,362.3,466.2,362.6,465.3z"/>
	<path fill-rule="evenodd" clip-rule="evenodd" fill="#795E4D" d="M360.5,484.2c-16.2-0.9-35.9-1.8-40.7-1.8
		c-8.1,0-18.3-0.9-18.3-0.9s35.6,3.3,58.9,5.4V484.2z"/>
	<path fill-rule="evenodd" clip-rule="evenodd" fill="#795E4D" d="M403.6,889.3c-1.5,0.3-3,0.3-4.5,0.3c-15,0.3-29-0.9-29-0.9
		s14.1-0.9,30.5-1.5C401.5,887.8,402.7,888.7,403.6,889.3z"/>
	<path fill-rule="evenodd" clip-rule="evenodd" fill="#795E4D" d="M362,714c-4.8,0.3-10.5,0.3-15.9,0.6c-15,0.3-29-0.9-29-0.9
		s18.9-0.9,38.3-1.8c1.8,0,4.2-0.3,7.2-0.3C362.6,712.5,362.3,713.1,362,714z"/>
	<path fill-rule="evenodd" clip-rule="evenodd" fill="#795E4D" d="M345.9,262.1c-18,0-67.9,0-93.1-1.8c-31.1-2.7-37.1-2.7-37.1-2.7
		s26.9,4.5,58,5.7c24.5,0.6,59.2,1.8,72.7,2.1c0-0.6-0.3-1.5-0.3-2.4C345.9,262.7,345.9,262.4,345.9,262.1z"/>
	<path fill-rule="evenodd" clip-rule="evenodd" fill="#795E4D" d="M342.9,255.9c-12.3-0.3-33.2-1.5-55.7-4.2
		c-34.1-3.9-34.1-3.9-34.1-3.9s56.3,4.2,88,5.1C341.7,254.1,342.3,255,342.9,255.9z"/>
	<path fill-rule="evenodd" clip-rule="evenodd" fill="#795E4D" d="M321,224.1c-12.9,0-55.1-1.2-77.2-5.7
		c-26.6-5.7-33.5-6.6-33.5-6.6s70.6,9.9,110.4,8.7C320.7,221.8,320.7,223.2,321,224.1z"/>
	<path fill-rule="evenodd" clip-rule="evenodd" fill="#795E4D" d="M320.1,152.3c-13.5,0-91.6,0-130.2-6.6
		c-42.2-7.2-156.2-44.9-156.2-44.9s67.3,21.5,102.3,27.8s36.8,16.2,117.6,18c32.9,0.9,53,1.2,65.5,1.5c0,0.3,0,0.9,0,1.2
		C318.9,150.2,319.5,151.1,320.1,152.3z"/>
	<path fill-rule="evenodd" clip-rule="evenodd" fill="#795E4D" d="M318.6,141.6c-15.9-0.6-55.4-2.7-82.3-5.1
		c-34.1-3.6-47.6-11.4-47.6-11.4s26.9,6.9,50.6,8.4c18.9,1.5,62.2,3.3,78.4,3.9C318,138.9,318.3,140.1,318.6,141.6z"/>
	<path fill-rule="evenodd" clip-rule="evenodd" fill="#795E4D" d="M317.1,131.7c-9.3-0.6-33.8-2.4-47-4.2c-17.1-2.4-19.7-3-19.7-3
		s51.5,3,67,4.2v0.6C317.4,130.2,317.1,130.8,317.1,131.7z"/>
	<path fill-rule="evenodd" clip-rule="evenodd" fill="#795E4D" d="M345.6,31.7c-13.8,0.6-78.1,3.6-108.9-0.9
		c-34.1-4.8-34.1-4.8-34.1-4.8l29.3,2.1c0,0,39.2,5.7,83.2,1.5c18.6-2.1,27.2-2.1,31.4-1.2c-0.3,0.3-0.3,0.6-0.3,0.9
		C345.9,30,345.6,30.8,345.6,31.7z"/>
	<path fill-rule="evenodd" clip-rule="evenodd" fill="#795E4D" d="M349.2,50.3c-6.3-0.3-21.5-0.6-40.1,0
		c-24.5,1.2-42.5,1.5-42.5,1.5s37.4,0,53.6,1.2c11.1,0.6,24.8,0.9,32,0.9C351,52.7,349.5,51.5,349.2,50.3z"/>
	<path fill-rule="evenodd" clip-rule="evenodd" fill="#795E4D" d="M352.5,19.2c-7.8-0.6-27.8-1.5-42.5,0.3
		c-18.3,2.7-43.7-3.3-43.7-3.3s24.2,3.3,37.4,1.8c12-1.5,36.2-2.7,51.5-1.8C354.3,17.4,353.4,18.3,352.5,19.2z"/>
	<path fill-rule="evenodd" clip-rule="evenodd" fill="#795E4D" d="M213.6,598.5c0,0-56,0-116.7-6.9C36.5,585,36.5,585,36.5,585
		s56.9,12.6,82.9,13.5c26.3,0.6,68.2,4.8,78.7,2.7C208.5,598.8,213.6,598.5,213.6,598.5z"/>
	<path fill-rule="evenodd" clip-rule="evenodd" fill="#795E4D" d="M312.1,731c0,0-41.3-0.9-106.8-5.4
		c-65.5-4.5-189.4-31.4-189.4-31.4s26.9,10.8,53.9,15.3s114.9,19.7,160.7,20.6C276.2,731,312.1,731,312.1,731z"/>
	<path fill-rule="evenodd" clip-rule="evenodd" fill="#795E4D" d="M304.9,906.7c0,0-16.5,3-119.7-1.5s-148.1-12-148.1-12
		s55.4,16.5,131.7,18C245,912.7,304.9,906.7,304.9,906.7z"/>
	<path fill-rule="evenodd" clip-rule="evenodd" fill="#795E4D" d="M228.6,360.6c0,0-65.8,2.4-121.8-5.1C50.5,348,50.5,348,50.5,348
		s23.3,6.6,70.3,12c47.3,5.1,79.3,3,79.3,3L228.6,360.6z"/>
	<path fill-rule="evenodd" clip-rule="evenodd" fill="#795E4D" d="M11.6,188.8c18.9,4.2,42.8,9.3,65.2,13.5
		c42.2,8.1,77.2,10.8,77.2,10.8s-88.3-3.9-142.4-20V188.8z"/>
	<path fill-rule="evenodd" clip-rule="evenodd" fill="#795E4D" d="M382.7,813.9c-8.4,1.2-17.4,2.4-22.4,2.4c-11.4,0-16.2,0-16.2,0
		s10.8,2.7,25.4,1.2c4.2-0.3,8.7-0.9,12.6-1.2C382.4,815.4,382.4,814.8,382.7,813.9z"/>
	<path fill-rule="evenodd" clip-rule="evenodd" fill="#795E4D" d="M365,760.1c-9.3,1.5-26.9,4.2-35,4.2c-11.4,0-16.5,0-16.5,0
		s11.1,2.7,25.7,1.2c9.9-0.9,20-2.1,26-3C365.3,761.6,365,761,365,760.1z"/>
	<path fill-rule="evenodd" clip-rule="evenodd" fill="#795E4D" d="M425.8,926.1c-9.3,1.2-21.2,2.7-27.5,2.7c-11.1,0-16.2,0-16.2,0
		s10.8,2.7,25.7,1.5c6.9-0.6,14.1-1.5,19.7-2.1C427,927.3,426.4,926.7,425.8,926.1z"/>
	<path fill-rule="evenodd" clip-rule="evenodd" fill="#795E4D" d="M353.1,315.1c-9.6,1.5-25.7,3.6-33.2,3.6c-11.4,0-16.2,0-16.2,0
		s10.8,2.7,25.4,1.5c9-0.9,18.6-2.1,24.5-2.7l-0.3-0.9C353.4,316,353.1,315.7,353.1,315.1z"/>
	<path fill-rule="evenodd" clip-rule="evenodd" fill="#795E4D" d="M350.7,70.9c-9.6,1.2-23.9,3.3-30.8,3.3c-11.4,0-16.2,0-16.2,0
		s10.8,2.7,25.4,1.2c7.5-0.6,15.3-1.5,21.2-2.1L350.7,70.9z"/>
	<path fill-rule="evenodd" clip-rule="evenodd" fill="#795E4D" d="M545.8,1042.5c-7.5,1.5-16.8,2.7-28.1,4.2
		c-35.9,4.2-41.6,3-41.6,3s10.2,1.8,29.3,0c9.6-0.9,21.5-2.1,31.4-3.6c4.5-0.9,8.7-1.5,12.3-2.1
		C547.8,1043.4,546.7,1043.1,545.8,1042.5z"/>
</g>
</svg>
