<?xml version="1.0" encoding="utf-8"?>
<!-- Generator: Adobe Illustrator 18.1.1, SVG Export Plug-In . SVG Version: 6.00 Build 0)  -->
<svg version="1.1" id="Warstwa_1" xmlns="http://www.w3.org/2000/svg" xmlns:xlink="http://www.w3.org/1999/xlink" x="0px" y="0px"
	 viewBox="0 0 638.4 352.9" enable-background="new 0 0 638.4 352.9" xml:space="preserve">
<g>
	<path fill="#ECF3F5" d="M175.8,135.7c0.3-0.2-1.6-0.2-1.4-0.4c0.3-0.3,0.5-1,0.2-1.3c-0.2-0.2-0.6,0-0.9-0.1
		c-0.3-0.1-0.7-0.3-1.1-0.3c-0.4,0-0.8-0.3-1-0.4c-0.5-0.1-1.1-0.5-1.5-0.6c-0.8-0.2-1.4,0-1.7,0.1c-0.9,0.4-1.3,0.7-2.1,0.6
		c-0.5,0-1.5,0.1-2,0.2c-1.4,0.3-0.7,1.6-2.1,1.6c-0.6,0-0.8,0.3-1.3,0.4c-0.6,0.1-1.3,0-1.9,0.3c-1,0.5,5,0.2,7.8,0.2
		c2,0,3.8,0,5.2-0.2C172.4,135.8,175.4,135.9,175.8,135.7L175.8,135.7z"/>
	<path fill="#ECF3F5" d="M527.5,71.1c-1.4-0.2-43.4-0.4-51.2-0.6c-4.2-0.1-4.4-0.2-4.5-0.6c0-0.2,0.3-0.1,0.8-0.2
		c0.5-0.1,1.4-0.7,1.9-0.9c0.2-0.1,1.3-0.6,1.9-0.5c0.6,0.1,0.7,0.5,1.4,0.4c1.8-0.2,2.1-1.6,2.3-1.6c2.1,0.4,3.1-1.9,6.6-2.1
		c2.4-0.2,2.9-1.9,4.5-3.6c0.7-0.8,3.4-1.1,4.7-1.8c1-0.5,1.5-2.1,2.7-2.8c0.7-0.4,2-0.2,2.7-0.2c0.5,0,1.4-0.1,2,0.1
		c1.5,0.6,2.8,1.8,3.9,1.3c0.7-0.3,0.5-0.1,1.6,0c0.3,0,0.8,0.2,1,0.1c0.6-0.1,1.1-0.6,1.7-0.8c0.6-0.2,1.2-0.1,2.1,0
		c0.9,0,2.3,0,2.9,0.2c2.6,0.7,2.7,2.7,4,3.4c1.6,0.9,0.9,2.3,5.2,2.5c1.3,0.1,2.7-0.5,3.3-0.4c1.2,0.2,0.7,1.2,2.4,2.1
		c2.5,1.3,0.8,4.2,4.1,3.9c3.2-0.2,4.2,1,1.8,1.6c-2.3,0.6-4.8,0.5-6.2,0.4C529.6,70.9,527.5,71.1,527.5,71.1L527.5,71.1z"/>
	<path fill="#ECF3F5" d="M163.5,78.2c-1.9-1.3,9.8-1.3,8.8-2.5c-2-2.3-2.8-6.5-1.1-8.3c1-1,3.6-0.1,5.3-0.6c1.5-0.4,4.2-2,7-1.9
		c2.3,0.1,4.8-2.1,6.4-2.4c3-0.5,6.5-3.3,9.4-4c4.9-1.2,8.8-0.1,10.4,0.6c5.5,2.5,7.8,4.7,13.1,4.2c3.2-0.3,9.3,0.4,12.5,1.1
		c8.5,2,4.4,10.5,12.7,10.5c3.6,0,5.2,1.9,7.9,2.3c3.5,0.6,8.2-0.1,11.6,1.8c6.1,3.3-30.7,1.3-48,1.3c-12.2,0-23.3-0.1-31.8-1
		C184.3,78.9,165.8,79.8,163.5,78.2L163.5,78.2z"/>
	<path fill="#ECF3F5" d="M296.8,87.9c0.7-0.3-3.4-0.3-3-0.6c0.7-0.6,1-1.6,0.4-2.1c-0.3-0.3-1.2,0-1.8-0.2c-0.5-0.1-1.4-0.5-2.4-0.5
		c-0.8,0-1.6-0.5-2.2-0.6c-1-0.1-2.2-0.8-3.2-1c-1.7-0.3-3,0-3.6,0.2c-1.9,0.6-2.7,1.2-4.5,1.1c-1.1-0.1-3.2,0.1-4.3,0.3
		c-2.9,0.5-1.5,2.7-4.3,2.7c-1.2,0-1.8,0.5-2.7,0.6c-1.2,0.1-2.8,0-4,0.4c-2.1,0.8,10.5,0.3,16.5,0.3c4.2,0,8,0,10.9-0.3
		C289.6,88.1,296,88.3,296.8,87.9z"/>
	<path fill="#ECF3F5" d="M475.9,75.8c-0.4-0.1-11.5-0.1-13.5-0.1c-1.1,0-1.2-0.1-1.2-0.2c0-0.1,0.1,0,0.2-0.1c0.1,0,0.4-0.2,0.5-0.2
		c0,0,0.3-0.2,0.5-0.1c0.2,0,0.2,0.1,0.4,0.1c0.5-0.1,0.6-0.4,0.6-0.4c0.5,0.1,0.8-0.5,1.7-0.6c0.6,0,0.8-0.5,1.2-0.9
		c0.2-0.2,0.9-0.3,1.2-0.5c0.3-0.1,0.4-0.5,0.7-0.7c0.2-0.1,0.5,0,0.7,0c0.1,0,0.4,0,0.5,0c0.4,0.1,0.7,0.5,1,0.3
		c0.2-0.1,0.1,0,0.4,0c0.1,0,0.2,0,0.3,0c0.2,0,0.3-0.2,0.4-0.2c0.1-0.1,0.3,0,0.6,0c0.2,0,0.6,0,0.8,0c0.7,0.2,0.7,0.7,1,0.9
		c0.4,0.2,0.2,0.6,1.4,0.7c0.4,0,0.7-0.1,0.9-0.1c0.3,0.1,0.2,0.3,0.6,0.5c0.7,0.3,0.2,1.1,1.1,1c0.9-0.1,1.1,0.2,0.5,0.4
		c-0.6,0.2-1.3,0.1-1.6,0.1C476.5,75.7,475.9,75.8,475.9,75.8L475.9,75.8z"/>
	<path fill="#ECF3F5" d="M138.5,100.2c0.4-0.2-2-0.2-1.8-0.4c0.4-0.3,0.6-1,0.2-1.3c-0.2-0.2-0.7,0-1.1-0.1
		c-0.3-0.1-0.9-0.3-1.4-0.3c-0.5,0-1-0.3-1.3-0.4c-0.6-0.1-1.3-0.5-1.9-0.6c-1-0.2-1.8,0-2.1,0.1c-1.1,0.4-1.6,0.7-2.7,0.6
		c-0.7,0-1.9,0.1-2.6,0.2c-1.8,0.3-0.9,1.6-2.6,1.6c-0.7,0-1.1,0.3-1.6,0.4c-0.7,0.1-1.7,0-2.4,0.3c-1.3,0.5,6.3,0.2,9.9,0.2
		c2.5,0,4.8,0,6.5-0.2C134.2,100.3,138,100.4,138.5,100.2z"/>
</g>
</svg>
