<?xml version="1.0" encoding="utf-8"?>
<!-- Generator: Adobe Illustrator 18.1.1, SVG Export Plug-In . SVG Version: 6.00 Build 0)  -->
<svg version="1.1" id="Warstwa_1" xmlns="http://www.w3.org/2000/svg" xmlns:xlink="http://www.w3.org/1999/xlink" x="0px" y="0px"
	 viewBox="0 0 638.4 352.9" enable-background="new 0 0 638.4 352.9" xml:space="preserve">
<g>
	<path fill="#ECF3F5" d="M314.8,154c0.3-0.2-1.6-0.2-1.4-0.4c0.3-0.3,0.5-1,0.2-1.3c-0.2-0.2-0.6,0-0.9-0.1
		c-0.3-0.1-0.7-0.3-1.1-0.3c-0.4,0-0.8-0.3-1-0.4c-0.5-0.1-1.1-0.5-1.5-0.6c-0.8-0.2-1.4,0-1.7,0.1c-0.9,0.4-1.3,0.7-2.1,0.6
		c-0.5,0-1.5,0.1-2,0.2c-1.4,0.3-0.7,1.6-2.1,1.6c-0.6,0-0.8,0.3-1.3,0.4c-0.6,0.1-1.3,0-1.9,0.3c-1,0.5,5,0.2,7.8,0.2
		c2,0,3.8,0,5.2-0.2C311.4,154.1,314.5,154.3,314.8,154L314.8,154z"/>
	<path fill="#ECF3F5" d="M172.4,176c0.3-0.2-1.6-0.2-1.4-0.4c0.3-0.3,0.5-1,0.2-1.3c-0.2-0.2-0.6,0-0.9-0.1
		c-0.3-0.1-0.7-0.3-1.1-0.3c-0.4,0-0.8-0.3-1-0.4c-0.5-0.1-1.1-0.5-1.5-0.6c-0.8-0.2-1.4,0-1.7,0.1c-0.9,0.4-1.3,0.7-2.1,0.6
		c-0.5,0-1.5,0.1-2,0.2c-1.4,0.3-0.7,1.6-2.1,1.6c-0.6,0-0.8,0.3-1.3,0.4c-0.6,0.1-1.3,0-1.9,0.3c-1,0.5,5,0.2,7.8,0.2
		c2,0,3.8,0,5.2-0.2C169,176.1,172,176.3,172.4,176L172.4,176z"/>
	<path fill="#ECF3F5" d="M487.1,128.8c0.6-0.5-0.7-0.7-2.4-0.9c-3.9-0.5-4.6-1.1-4-2.2c0.3-0.5,1.3-0.5,1.5-1.6
		c0.3-1.3-0.3-2.7-1-3.5c-0.8-0.9-2.8-0.5-4.1-0.9c-0.9-0.3-2.6-1.4-4.2-1.4c-2.2,0.1-4.4,1.4-6,1.1c-0.9-0.2-2.1,0.1-2.6-0.5
		c-0.6-0.7-0.4-2.1-1.1-2.6c-1.1-0.7-2.9-0.6-4.1-0.8c-1.6-0.4-3.6,0-5.2,0.5c-0.9,0.3-2.1-1-3.5-0.3c-1.2,0.6-1.9,2.1-3,2.4
		c-1,0.3-3.1-0.6-4-0.5c-1.5,0.1-2.1,1.3-3.3,1.5c-1,0.2-2.1-0.6-3.4-0.6c-1,0-2,0.7-3.1,0.9c-1,0.2-2.2,0-2.8,0.5
		c-1,0.7-2.3,1.2-2.8,2.2c-0.2,0.5,0.1,1-0.1,1.4c-0.6,1.9-1.6,3.8-4.6,3.8c-0.7,0-2.4-0.3-3.3-0.1c-1.6,0.5-2.5,1.8-3.6,1.8
		c-2,0-3.8,0.5-5.2,0.4c-1.1-0.1-1.8-0.8-3.2,0c-4.7,2.6,23.3,1,36.4,1c9.2,0,17.7-0.1,24.1-0.8
		C471.3,129.3,485.3,130.1,487.1,128.8L487.1,128.8z"/>
	<path fill="#ECF3F5" d="M545.4,184.2c-0.4-0.1-13-0.1-15.3-0.2c-1.3,0-1.3-0.1-1.3-0.2c0-0.1,0.1,0,0.2-0.1c0.2,0,0.4-0.2,0.6-0.2
		c0,0,0.4-0.2,0.6-0.1c0.2,0,0.2,0.2,0.4,0.1c0.5-0.1,0.6-0.5,0.7-0.5c0.6,0.1,0.9-0.5,2-0.6c0.7-0.1,0.9-0.6,1.4-1.1
		c0.2-0.2,1-0.3,1.4-0.5c0.3-0.1,0.4-0.6,0.8-0.8c0.2-0.1,0.6-0.1,0.8-0.1c0.2,0,0.4,0,0.6,0c0.4,0.2,0.8,0.5,1.2,0.4
		c0.2-0.1,0.2,0,0.5,0c0.1,0,0.2,0,0.3,0c0.2,0,0.3-0.2,0.5-0.2c0.2-0.1,0.4,0,0.6,0c0.3,0,0.7,0,0.9,0.1c0.8,0.2,0.8,0.8,1.2,1
		c0.5,0.3,0.3,0.7,1.5,0.7c0.4,0,0.8-0.1,1-0.1c0.4,0.1,0.2,0.4,0.7,0.6c0.7,0.4,0.2,1.2,1.2,1.1c1-0.1,1.2,0.3,0.5,0.5
		c-0.7,0.2-1.4,0.1-1.8,0.1C546,184.1,545.4,184.2,545.4,184.2L545.4,184.2z"/>
</g>
</svg>
