<?xml version="1.0" encoding="utf-8"?>
<!-- Generator: Adobe Illustrator 18.1.1, SVG Export Plug-In . SVG Version: 6.00 Build 0)  -->
<svg version="1.1" id="Warstwa_1" xmlns="http://www.w3.org/2000/svg" xmlns:xlink="http://www.w3.org/1999/xlink" x="0px" y="0px"
	 viewBox="0 0 638.4 352.9" enable-background="new 0 0 638.4 352.9" xml:space="preserve">
<g>
	<path fill="#969594" d="M352.7,242.7c-6.2-0.1-12.4-0.2-18.6-0.3c-6.2-0.1-12.4-0.2-18.6-0.3c-0.7-8.9-2.5-28.5-2.8-35.4
		c-0.2-4.8-0.1-10-0.4-15.3c-0.1-1.8-0.5-4.2-0.6-6.6c-0.1-2.4,0-4.8,0-6.9c0-2.4-0.6-5.8-0.7-9.2c-0.1-3.4,0.4-6.9,0.4-9.3
		c0-2.6-0.4-5.4-0.4-8.3c0.1-4.7,0.7-9.7,0.9-14.5c0.1-1.8,0.4-4.2,0.5-5.9c0.1-2.1,0.2-4.9,0.3-6.6c1-11.7,3.3-13.3,6-15.1
		c3.7-2.5,8.2-2,13.4-1.8c5,0.2,8.2-1,11.6,1c2.6,1.6,6.3,4,5.4,18.5c-0.1,1.9-0.2,4-0.2,6.1c-0.1,4.6-0.2,9.5-0.2,13.7
		c0,1.6-0.1,3.1-0.2,5c-0.1,3.3-0.3,7.2-0.2,9.9c0,3.7-0.4,6.1-0.3,9.9c0.1,3.8,0.7,8.9,0.8,12.9c0.1,3.1-0.1,7.6,0.1,10.3
		c0.1,2.7,0.1,4.3,0.2,6.8C349.5,210.3,351.8,232.2,352.7,242.7L352.7,242.7z"/>
	<path fill="#605D5C" d="M299.9,119.7c3.7-2.1,6.7-4.4,10-6.9c2.3-1.7,5-3.6,7-5.5c1.4-1.3,2.6-2.6,3.9-3.8c0.1-2.1,0.1-3.6,0.1-3.6
		l0.5-7.1l0,0c-0.5-0.1-0.7-0.6-0.6-1.1c0.1-0.4,0.4-0.6,0.8-0.6l0.3-3.9c0,0,0,1.7-0.1,3.9c0,0,0.1,0,0.1,0
		c0.5,0.1,0.7,0.6,0.6,1.1c-0.1,0.3-0.4,0.6-0.7,0.6c-0.1,2.3-0.1,4.8-0.2,6.6c0,0.9,0,2.1,0,3.3l0.5-0.5c1.8-1.8,3.9-3.6,5.7-5.6
		c1.3-1.6,2.6-3.8,3.9-5.5c1.3-1.7,2.3-2.9,2.7-4.9c0.5-2.3,1.3-9.8,1.6-12.2c0.3,0,0.6,0,1,0c-0.3,2.5-1.3,9.7-1.4,12.1
		c-0.1,2,0.8,3.5,1.8,5.1c1.1,1.7,1.6,3.4,2.7,5.1c1.1,1.7,2.8,3.3,4,4.9c0.4,0.6,0.9,1.1,1.3,1.7c0.1-1.8,0.1-3,0.1-3l0.5-7.1l0,0
		c-0.5-0.1-0.7-0.6-0.6-1.1c0.1-0.4,0.4-0.6,0.8-0.6l0.3-3.9c0,0,0,1.7-0.1,3.9c0,0,0.1,0,0.1,0c0.5,0.1,0.7,0.6,0.6,1.1
		c-0.1,0.3-0.4,0.6-0.7,0.6c-0.1,2.3-0.1,4.8-0.2,6.6c0,1.2,0,2.8,0.1,4.4c0.9,1,1.8,2.1,2.7,3.1c1.9,2.2,3.8,4.7,5.7,6.8
		c2.5,2.7,5.2,5,7.8,7.5c-0.2,0.2-1.7,0.6-5.2,1c-1.2,0.1-3.2,0-4.6,0.1c-2.9,0.2-6,0.8-9.6,0.9c-3.4,0.1-7.4-0.2-11.1-0.2
		c-3.7,0-7.2,0-10.9-0.2c-1.7-0.1-3.8-0.1-5.5-0.2c-2.1-0.2-3.8-0.6-5.8-0.9c-1.3-0.1-2.5-0.1-3.6-0.3
		C302.2,120.8,299.8,120.1,299.9,119.7L299.9,119.7z"/>
	<path fill="#FFFFFF" d="M340.2,130.4c0,0.6,0,1.4,0,2c0,1.2-0.2,2.1-0.2,3.3c-1.2,0.6-2.7,0.6-4.1,0.5c0-1.1,0.1-2.5,0.1-3.6
		c0-0.6,0-1.2,0-1.8C336.3,127.4,340.4,126.9,340.2,130.4L340.2,130.4z"/>
	<path fill="#FFFFFF" d="M320.9,130.1c0,0.6-0.2,1.4-0.2,2c0,1.2,0,2.1,0,3.3c1.1,0.6,2.6,0.7,4,0.6c0-1.1,0.1-2.5,0.1-3.6
		c0-0.6,0.1-1.2,0.1-1.8C325.2,127.2,321.1,126.6,320.9,130.1L320.9,130.1z"/>
	<path fill="#FFFFFF" d="M339.4,149.3c0,0.6,0.1,1.4,0.1,2c0,1.2-0.1,2.1-0.1,3.3c-1.1,0.6-2.6,0.6-4,0.5c0-1.1,0-2.5,0-3.6
		c0-0.6,0-1.2,0-1.8C335.4,146.3,339.5,145.8,339.4,149.3z"/>
	<path fill="#FFFFFF" d="M320.2,149c0,0.6-0.1,1.4-0.1,2c0,1.2,0.1,2.1,0.1,3.3c1.1,0.6,2.6,0.7,4,0.6c0-1.1,0-2.5,0-3.6
		c0-0.6,0.1-1.2,0.1-1.8C324.3,146.1,320.3,145.5,320.2,149z"/>
	<path fill="#72706F" d="M319.4,171.9c-0.3,0-0.7,0-1,0c0-0.5,0-1.1-0.1-1.7c0-0.8,0-1.6,0-2.4c0-1.6-0.4-1.5-0.4,0
		c0,0.8,0,1.6,0,2.4c0,0.5,0,1.1,0,1.6c-3.3-0.2-5.8-1.1-6.6-1.3c0,0.2,0,0.4,0,0.6c0.4,0.1,1.1,0.3,2,0.6c0,0.6,0,1.1,0,1.7
		c0,0.8,0,1.6,0.1,2.4c0,1.5,0.4,1.6,0.4,0c0-0.8,0-1.6-0.1-2.4c0-0.5,0-1.1,0-1.7c0.3,0.1,0.6,0.1,0.9,0.2c1.5,0.3,3.1,0.4,4.6,0.4
		C319.8,172.3,320.6,171.9,319.4,171.9L319.4,171.9z"/>
	<path fill="#72706F" d="M337.1,185.2c0.7,0,1.4,0,2.1-0.1c0-0.2-0.1-0.5-0.1-1c0-0.9-0.1-1.8-0.1-2.7c0-0.5,0-1,0-1.5
		c-1.9,0.3-3.8,0.5-5.6,0.6c-1,0-1.9,0-2.8,0c-4.2-0.1-5.5-0.8-0.1-0.6c0.5,0,1,0,1.5,0c0-0.5,0-1-0.1-1.5c0-0.8,0-1.6,0-2.4
		c0-1.5,0.4-1.6,0.4,0c0,0.8,0,1.6,0,2.3c0,0.5,0,1.1,0.1,1.6c1.9,0,4.1-0.1,6.6-0.5v0l0,0c0.7-0.1,1.5-0.3,2.3-0.4
		c2-0.4,0.8,0.2,0,0.4c-0.6,0.1-1.2,0.3-1.9,0.4c0,0.6,0,1.1,0,1.7c0,0.9,0.1,1.8,0.1,2.6c0,0.4,0,0.7,0,0.9
		c1.5-0.1,2.8-0.4,3.8-0.6c2.8-0.7,2.5-0.1,0.2,0.5c-0.5,0.1-1.1,0.2-1.7,0.3c-1.4,0.2-3.1,0.3-4.6,0.3
		C336.7,185.5,335.9,185.1,337.1,185.2L337.1,185.2z"/>
	<path fill="#72706F" d="M341.2,138.9c2.6,0,4.8-0.3,6.3-0.6c0.5-0.1,0.8-0.2,1.1-0.2c0,0.1,0,0.3,0,0.4c-0.3,0.1-0.6,0.2-1,0.3
		c-0.5,0.1-1.1,0.2-1.7,0.3c-0.4,0.1-0.8,0.1-1.3,0.2c0,0.7-0.1,1.4-0.1,2.1c0,1,0,2-0.1,3c0,2-0.4,1.9-0.4,0c0-1,0-2.1,0-3.1
		c0-0.7,0.1-1.3,0.1-2c-1,0.1-2,0.1-2.9,0.1C340.8,139.2,340.1,138.8,341.2,138.9L341.2,138.9z"/>
	<path fill="#72706F" d="M318.7,139.6l0-1.2c0-0.7,0.1-1.4,0.1-2c0-1.4-0.4-1.3-0.4,0c0,0.7-0.1,1.4-0.1,2.1c0,0.4,0,0.8,0,1.1
		c-0.8-0.1-1.5-0.3-1.8-0.3c-2.8-0.8-2.6-0.2-0.2,0.5c0.5,0.1,1.1,0.3,1.7,0.4c0.9,0.2,4.4,0.6,7.1,0.9c0,0.4,0,0.9,0,1.3
		c0,0.7,0,1.4,0,2.1c0,1.3,0.4,1.4,0.4,0c0-0.7,0-1.4,0-2c0-0.4,0-0.9,0-1.3c1.2,0.1,2.2,0.2,2.7,0.2c0.5,0,1.3-0.4,0.1-0.4
		C326.4,140.7,321.7,140.1,318.7,139.6L318.7,139.6z"/>
	<path fill="#72706F" d="M346.3,160.4c0-0.5,0-0.9,0-1.4c0-0.8,0-1.6,0.1-2.4c0-1.6-0.4-1.5-0.4,0c0,0.8,0,1.6,0,2.4
		c0,0.5,0,0.9,0,1.4c-2,0.5-5,1-8.5,0.9c-1.6,0-0.5,0.5,0.1,0.6c1,0,2,0,3,0c0,0.4,0,0.8,0,1.3c0,0.8,0,1.6,0,2.4
		c0,1.5,0.4,1.6,0.4,0c0-0.8,0-1.6,0-2.4c0-0.5,0-0.9,0-1.4c1-0.1,1.9-0.2,2.8-0.3c2-0.3,3.7-0.8,4.4-1c0-0.2,0-0.5,0-0.7
		C347.7,160,347.1,160.2,346.3,160.4z"/>
	<path fill="#72706F" d="M329.9,192.6l0.1,1.5c0,0.8,0.1,1.6,0.1,2.3c0.1,1.5-0.3,1.5-0.4,0c0-0.8-0.1-1.6-0.1-2.4
		c0-0.5,0-0.9,0-1.4c-1.9,0-3.9-0.1-5.8-0.4c-1.7-0.2-3.3-0.6-4.5-0.8c-0.4-0.1-0.8-0.2-1.1-0.3c0,0.5,0,1,0,1.5
		c0,0.8,0.1,1.6,0.1,2.3c0.1,1.5-0.3,1.5-0.4,0c0-0.8-0.1-1.6-0.1-2.4c0-0.5,0-1-0.1-1.5c-0.8-0.4-0.5-0.6,1.6-0.1
		c1.3,0.3,3.1,0.7,5.3,1c0-0.5-0.1-1-0.1-1.4c0-0.8-0.1-1.6-0.1-2.4c0-1.5,0.4-1.6,0.4,0c0,0.8,0,1.5,0.1,2.3l0.1,1.6
		c2,0.2,4.3,0.3,6.8,0.2c2-0.1,0.7,0.4-0.1,0.4C331.1,192.6,330.5,192.6,329.9,192.6L329.9,192.6z"/>
	<path fill="#72706F" d="M346.3,209.6c0,0.6,0.1,1.1,0.1,1.7c0.1,0.8,0.1,1.6,0.2,2.3c0.1,1.5-0.3,1.5-0.4,0
		c-0.1-0.8-0.1-1.6-0.2-2.4l-0.1-1.5c-1.3,0.3-2.6,0.5-3.9,0.7c-1,0.1-1.9,0.2-2.7,0.3c-3.7,0.2-5.2-0.2-1.4-0.5
		c0-0.5-0.1-1-0.1-1.5c0-0.8-0.1-1.6-0.1-2.4c-0.1-1.5,0.3-1.6,0.4,0c0,0.8,0.1,1.6,0.1,2.3c0,0.5,0.1,1,0.1,1.6
		c0.3,0,0.6,0,0.9-0.1c2.6-0.1,6.2-0.6,10.4-1.8c0,0.1,0,0.3,0,0.4C348.5,209.1,347.4,209.4,346.3,209.6L346.3,209.6z"/>
	<path fill="#FFFFFF" d="M334.9,82.9c0,0,2.2-2.4,7.7-1.4c5.5,1,8.9,1.9,13.3-0.1c-0.4-1.3-0.9-2.6-1.3-3.9c0.4-1.5,0.7-3,1.1-4.5
		c-4.4,2-7.6,1.3-13.1,0.3c-5.5-1-7.7,1.5-7.7,1.5C334.9,76.1,334.9,82.9,334.9,82.9L334.9,82.9z"/>
	<path fill="#72706F" d="M340.2,219.9c0,0.3,0,0.7,0,0.9c0,0.6-0.1,1-0.1,1.6c-0.5,0.3-1.3,0.3-1.9,0.2c0-0.5,0-1.2,0-1.7
		c0-0.3,0-0.6,0-0.8C338.3,218.5,340.2,218.3,340.2,219.9L340.2,219.9z"/>
	<path fill="#605D5C" d="M339.2,78.6c-0.2,0-0.3,0-0.5,0.1c0-0.2,0-0.5,0-0.7c0-0.2,0-0.5,0-0.7c-0.5,0.1-1,0.2-1.4,0.3
		c0,0.2,0,0.5,0,0.7c0,0.2,0,0.5,0,0.7c-0.2,0-0.3,0.1-0.5,0.1c0-0.5,0-1,0-1.6c0-0.5,0-1,0-1.6c0.2-0.1,0.3-0.1,0.5-0.1
		c0,0.2,0,0.4,0,0.6c0,0.2,0,0.4,0,0.6c0.5-0.1,1-0.2,1.5-0.3c0-0.2,0-0.4,0-0.6c0-0.2,0-0.4,0-0.6c0.2,0,0.3,0,0.5-0.1
		c0,0.5,0,1,0,1.6C339.2,77.6,339.2,78.1,339.2,78.6L339.2,78.6z M342.5,76c-0.3,0-0.5,0-0.7,0.2c-0.1,0.1-0.2,0.2-0.2,0.3
		c0,0.1-0.1,0.3-0.1,0.5c0,0.2,0,0.4,0.1,0.5c0,0.1,0.1,0.3,0.2,0.4c0.2,0.2,0.4,0.3,0.7,0.4c0.1,0,0.3,0,0.4,0c0.1,0,0.3,0,0.4,0
		c0,0.1,0,0.3,0,0.4c-0.2,0-0.5,0-0.8,0c-0.5-0.1-0.8-0.2-1.1-0.5c-0.1-0.1-0.2-0.3-0.3-0.5c-0.1-0.2-0.1-0.4-0.1-0.7
		c0-0.2,0-0.3,0-0.4c0-0.1,0.1-0.3,0.1-0.4c0.1-0.2,0.3-0.4,0.5-0.5c0.2-0.1,0.5-0.1,0.8-0.1c0.3,0.1,0.6,0.2,0.9,0.4
		c-0.1,0.1-0.1,0.3-0.2,0.4c-0.1-0.1-0.2-0.1-0.3-0.2C342.8,76,342.7,76,342.5,76L342.5,76z M346.5,79.8c-0.2,0-0.3-0.1-0.5-0.1
		c0-0.2,0-0.5,0-0.7c0-0.2,0-0.5,0-0.7c-0.5-0.1-1-0.3-1.4-0.4c0,0.2,0,0.5,0,0.7c0,0.2,0,0.5,0,0.7c-0.2-0.1-0.3-0.1-0.5-0.2
		c0-0.5,0-1,0-1.5c0-0.5,0-1,0-1.5c0.2,0,0.3,0.1,0.5,0.2c0,0.2,0,0.4,0,0.6c0,0.2,0,0.4,0,0.6c0.5,0.2,1,0.3,1.4,0.4
		c0-0.2,0-0.4,0-0.7c0-0.2,0-0.4,0-0.7c0.2,0,0.3,0.1,0.5,0.1c0,0.5,0,1.1,0,1.6C346.5,78.7,346.5,79.3,346.5,79.8L346.5,79.8z
		 M349,78.2c0.1,0,0.2,0,0.4,0c0.2,0,0.4-0.1,0.5-0.2c0.1-0.1,0.2-0.3,0.2-0.5c0-0.2-0.1-0.3-0.2-0.4c-0.1-0.1-0.3-0.1-0.5-0.1
		c-0.1,0-0.2,0-0.3,0c0,0.2,0,0.4,0,0.6C349,77.8,349,78,349,78.2z M349,78.6c0,0.2,0,0.5,0,0.7c0,0.2,0,0.5,0,0.7
		c-0.2,0-0.3,0-0.5,0c0-0.6,0-1.1,0-1.7c0-0.6,0-1.1,0-1.7c0.3,0,0.6,0,0.9-0.1c0.4,0,0.7,0,0.9,0.2c0.2,0.1,0.3,0.4,0.3,0.7
		c0,0.2-0.1,0.4-0.2,0.6c-0.1,0.2-0.3,0.3-0.5,0.4c0.1,0.2,0.3,0.5,0.4,0.7c0.1,0.2,0.3,0.5,0.4,0.7c-0.2,0-0.4,0.1-0.6,0.1
		c-0.1-0.2-0.3-0.4-0.4-0.7c-0.1-0.2-0.2-0.4-0.4-0.7C349.3,78.6,349.1,78.6,349,78.6L349,78.6z M353.2,79.3
		c-0.8,0.2-1.5,0.4-2.3,0.5c0-0.1,0-0.3,0-0.4c0.3-0.5,0.5-1,0.8-1.5c0.3-0.5,0.5-1,0.8-1.5c-0.5,0.1-1,0.2-1.6,0.3
		c0-0.2,0-0.3,0-0.5c0.7-0.1,1.4-0.3,2.2-0.4c0,0.1,0,0.3,0,0.4c-0.3,0.5-0.6,1-0.8,1.5c-0.3,0.5-0.5,1-0.8,1.5
		c0.5-0.1,1.1-0.3,1.6-0.4C353.2,79,353.2,79.1,353.2,79.3L353.2,79.3z"/>
	<path fill="#1F1A17" d="M322.5,136c0,0-0.9-1.8-0.8-2.4c0.3,0,0.4,0.3,0.5,0.6c0.1,0.3-0.1,0.7-0.1,0.7l0.2,0
		c0.1,0,0.2-0.5,0.1-0.9c-0.1-0.5-0.3-0.8-0.9-0.9c-0.3-0.1-0.6-0.1-0.8-0.1c-0.4,0-0.2,0.2-1.1,0.4s-1.1-0.4-1.1-0.4l-0.2,0
		c0,0-0.1,0.3,0.5,0.6c0.6,0.3,1.5-0.1,1.5-0.1c-0.2,1.1,0.7,1.9,0.7,1.9C321.4,135.7,322,135.9,322.5,136L322.5,136z"/>
	<path fill="#1F1A17" d="M321.3,131.7c0.3,0,0.6,0.3,0.6,0.6c0,0.3-0.3,0.6-0.6,0.6c-0.3,0-0.6-0.3-0.6-0.6
		C320.7,132,320.9,131.7,321.3,131.7z"/>
	<path fill="#1F1A17" d="M320.9,131.9c0,0,0.1-0.4,0.6-0.5c0.5-0.2,1.1-0.1,1.5,0.4c0.4,0.4,0.8,0.2,0.8,0.2s-0.2,0.2-0.7,0.2
		c-0.5,0-0.4-0.3-0.8-0.3c-0.4,0-0.2,0.5,0.1,0.5c0.4,0,0.4,0.1,0.7,0.3c0.1,0.1,0.3,0.1,0.3,0.1s-0.1,0.1-0.3,0
		c-0.1,0-0.3-0.1-0.5-0.1c-0.3,0.1-0.5,0.2-1,0C321.3,132.5,320.9,131.9,320.9,131.9L320.9,131.9z"/>
	<path fill="#FFFFFF" d="M315.3,132.6c0.1,0,0.7-0.3,1.4,0c0.7,0.3,0.8-0.1,1.3,0c0.6,0,0.6,0.5,0.6,0.5s-0.1,0.4-0.6,0.2
		c-0.4-0.1-0.3-0.2-0.8-0.1c-0.5,0.2-0.5-0.3-1-0.5C315.7,132.6,315.3,132.6,315.3,132.6L315.3,132.6z"/>
	<path fill="none" stroke="#1F1A17" stroke-width="7.620000e-02" d="M311,121.8c0,0-0.4,5.2-0.7,9.1c-0.1,1.7-0.1,5.6-0.4,8.5
		c-0.4,3.7-0.8,7.2-1,9.2c-0.3,3.7,0.7,8.3,0.4,11.9c-0.3,3.7-0.5,15.7-0.2,19.3"/>
	<path fill="#1F1A17" d="M307,179.6c-0.3,0.2-0.4,0.5-0.2,0.8c0.2,0.3,0.5,0.4,0.8,0.2c0.3-0.2,0.4-0.5,0.2-0.8
		C307.7,179.6,307.3,179.4,307,179.6z"/>
	<path fill="#1F1A17" d="M309.9,183.2c0.2-0.2,0.4-0.3,0.6-0.5c0.2-0.2,0.3-0.2,0.5,0c0.3,0.4,0.7,1,0.8,1.1c0,0,0,0,0,0.1
		c0,0.2-0.1,0.3-0.1,0.3l-0.2-0.2l-0.5-0.7c-0.2-0.2-0.2-0.3-0.4-0.1c-0.2,0.2-0.7,0.7-1,0.7c-0.5,0.1-0.6-0.2-0.7-0.5
		c-0.1-0.3-0.3-0.7-0.5-1.1c-0.3-0.4-0.7-0.7-0.8-0.8c-0.2,0.2-0.2,0.6-0.2,0.9c0,0.2,0.2,0.4,0.3,0.6c0.1,0.1,0.2,0.3,0.2,0.3
		c-0.1,0-0.3,0-0.4-0.1c-0.1-0.1-0.3-0.4-0.4-0.6c-0.2-0.5-0.2-1.1,0.3-1.5c0.2-0.2,0.5-0.4,0.7-0.5c0,0,0.4-0.2,0.6-0.6
		c0.3-0.6,0.1-1,0.2-1l0.2,0c0.1,0,0.1,0.8,0,1c-0.2,0.4-0.5,0.7-0.5,0.7c0.5,0.6,0.8,1.7,0.9,2.3l0,0c0.1-0.2,0.2-0.4,0.2-0.6
		c0.1-0.2,0.1-0.4,0.1-0.6c0.1-0.3,0.2-0.3,0.4-0.2c0.5,0.2,1,0.4,1.2,0.4c0,0,0,0.4,0,0.4l-0.9-0.3c-0.3-0.1-0.3-0.2-0.4,0.1
		c0,0.1-0.1,0.2-0.1,0.4C310.1,182.7,310,183,309.9,183.2L309.9,183.2z"/>
	<path fill="#605D5C" d="M335.7,71.9c0.4,0,0.7,0.3,0.7,0.7c0,0.4-0.3,0.7-0.7,0.7c-0.4,0-0.7-0.3-0.7-0.7
		C335,72.2,335.3,71.9,335.7,71.9z"/>
</g>
<g>
	<path fill="#969594" d="M474.1,259.2c-5.4-1.1-10.9-2.3-16.3-3.4c-5.5-1.1-10.9-2.3-16.5-3.4c3.2-8.8,7-21.2,9-28
		c1.4-4.6,3-9.7,4.2-14.9c0.4-1.8,0.7-4.1,1.1-6.5c0.4-2.3,1.1-4.7,1.5-6.7c0.4-2.3,0.6-5.6,1.1-9c0.5-3.3,1.5-6.6,1.9-8.9
		c0.4-2.5,0.3-5.3,0.7-8c0.6-4.5,1.7-9.2,2.2-13.7c0.2-1.7,0.6-4,0.8-5.5c0.2-2,0.5-4.7,0.6-6.2c1.2-11,3.5-12.1,6.3-13.4
		c3.7-1.8,8.3-0.6,13.6,0.4c5.1,1,8.4,0.3,11.9,2.8c2.7,1.9,6.5,4.8,5.1,18.5c-0.2,1.8-0.4,3.8-0.6,5.8c-0.5,4.4-1,9.1-1.6,13.1
		c-0.2,1.6-0.5,2.9-0.8,4.8c-0.6,3.1-1.4,6.9-1.9,9.5c-0.7,3.5-1.6,5.9-2.3,9.5c-0.8,3.7-1.5,8.7-2.5,12.6c-0.8,3.1-2.3,7.4-3.1,10
		c-0.8,2.7-1.4,4.2-2.1,6.6C483.4,234,478.6,248.7,474.1,259.2L474.1,259.2z"/>
	<path fill="#605D5C" d="M451.5,138.6c3.8-1.4,6.9-3.1,10.2-5c2.3-1.3,5.1-2.6,7.1-4.1l0.3-0.2c0.1-2,0.1-3.5,0.1-3.5l0.5-7.1l0,0
		c-0.5-0.1-0.7-0.6-0.6-1.1c0.1-0.4,0.4-0.6,0.8-0.6l0.3-3.9c0,0,0,1.7-0.1,3.9c0,0,0.1,0,0.1,0c0.5,0.1,0.7,0.6,0.6,1.1
		c-0.1,0.3-0.4,0.6-0.7,0.6c-0.1,2.3-0.1,4.8-0.2,6.6c0,0.9,0,2.1,0,3.4c1.4-1.1,2.7-2.2,4.2-3.3c1.8-1.4,3.9-2.8,5.6-4.4
		c1.3-1.3,2.5-3.2,3.7-4.6c1.2-1.4,2.2-2.4,2.4-4.2c0.3-2.1,0.4-9.1,0.4-11.3c0.3,0,0.7,0.1,1,0.1c-0.1,2.3-0.4,8.9-0.3,11.2
		c0.1,1.9,1,3.4,2.2,5.1c1.2,1.8,1.9,3.5,3.1,5.2c1.2,1.7,3,3.6,4.3,5.3c1.6,2.1,3.4,4.2,5,6.2c0.2,0.2,0.3,0.4,0.5,0.6
		c0.1-1.9,0.1-3.2,0.1-3.2l0.5-7.1l0,0c-0.5-0.1-0.7-0.6-0.6-1.1c0.1-0.4,0.4-0.6,0.8-0.6l0.3-3.9c0,0,0,1.7-0.1,3.9
		c0,0,0.1,0,0.1,0c0.5,0.1,0.7,0.6,0.6,1.1c-0.1,0.3-0.4,0.6-0.7,0.6c-0.1,2.3-0.1,4.8-0.2,6.6c0,1.3,0,3,0.1,4.8
		c1.5,1.9,3,3.9,4.6,5.7c2.6,3,5.2,5.6,7.8,8.4c-0.2,0.1-1.7,0.4-5.3,0.1c-1.2-0.1-3.2-0.5-4.7-0.6c-3-0.3-6.1-0.2-9.9-0.7
		c-3.5-0.4-7.6-1.3-11.3-2c-3.8-0.6-7.4-1.2-11.2-1.9c-1.8-0.4-3.9-0.7-5.6-1.1c-2.2-0.5-3.9-1.2-5.9-1.7c-1.3-0.3-2.6-0.5-3.7-0.8
		C453.8,140,451.4,138.9,451.5,138.6L451.5,138.6z"/>
	<path fill="#FFFFFF" d="M492.2,155.2c0,0.5,0,1.4-0.1,1.9c-0.1,1.2-0.4,2-0.5,3.1c-1.2,0.4-2.8,0.2-4.2-0.2
		c0.1-1.1,0.3-2.4,0.4-3.5c0.1-0.6,0.1-1.1,0.1-1.7C488.4,151.7,492.6,152,492.2,155.2L492.2,155.2z"/>
	<path fill="#FFFFFF" d="M472.6,151.9c0,0.5-0.2,1.3-0.3,1.9c-0.1,1.1-0.1,2-0.2,3.2c1.1,0.8,2.6,1.1,4,1.2c0.1-1.1,0.3-2.4,0.4-3.5
		c0.1-0.6,0.2-1.1,0.2-1.7C477.1,149.8,473,148.6,472.6,151.9L472.6,151.9z"/>
	<path fill="#FFFFFF" d="M489.6,173.2c-0.1,0.5-0.1,1.4-0.2,1.9c-0.2,1.2-0.4,2-0.6,3.2c-1.2,0.4-2.8,0.2-4.1-0.2
		c0.2-1.1,0.4-2.4,0.5-3.5c0.1-0.6,0.1-1.1,0.2-1.7C486,169.7,490.2,169.9,489.6,173.2z"/>
	<path fill="#FFFFFF" d="M470.3,169.8c-0.1,0.5-0.3,1.3-0.4,1.9c-0.2,1.2-0.2,2-0.3,3.2c1.1,0.8,2.6,1.1,4,1.3
		c0.2-1.1,0.3-2.4,0.5-3.5c0.1-0.6,0.2-1.1,0.3-1.7C474.9,167.7,470.8,166.5,470.3,169.8L470.3,169.8z"/>
	<path fill="#72706F" d="M469.8,160.6c0-0.4,0.1-0.8,0.1-1.2c0.1-0.6,0.2-1.3,0.3-1.9c0.1-1.3-0.3-1.3-0.4-0.1
		c-0.1,0.7-0.2,1.3-0.3,2c0,0.4-0.1,0.7-0.1,1.1c-0.8-0.3-1.5-0.5-1.8-0.6c-2.8-1.2-2.6-0.6-0.2,0.4c0.5,0.2,1.1,0.4,1.7,0.6
		c0.9,0.3,4.4,1.3,7.1,2c-0.1,0.4-0.1,0.8-0.2,1.2c-0.1,0.7-0.1,1.3-0.2,2c-0.2,1.3,0.2,1.4,0.4,0.1c0.1-0.6,0.1-1.3,0.2-2
		c0-0.4,0.1-0.8,0.1-1.2c1.2,0.3,2.3,0.5,2.7,0.6c0.5,0.1,1.3-0.2,0.1-0.4C477.5,162.9,472.7,161.5,469.8,160.6L469.8,160.6z
		 M473,231.9c0.2-0.5,0.3-1,0.5-1.6c0.3-0.8,0.5-1.5,0.8-2.3c0.5-1.5,0.1-1.5-0.4,0c-0.3,0.8-0.5,1.6-0.8,2.3
		c-0.2,0.5-0.3,1-0.5,1.5c-3.6-0.3-2.4,0.3,1.1,0.7c0.8,0.1,1.7,0.2,2.6,0.2c1.2,0.1,2.5,0.1,3.9,0l-0.5,1.5
		c-0.3,0.8-0.6,1.6-0.8,2.4c-0.5,1.5-0.2,1.6,0.4,0.1c0.3-0.8,0.5-1.5,0.8-2.3c0.2-0.5,0.4-1.1,0.6-1.6c1.1-0.1,2.3-0.2,3.4-0.3
		c0-0.1,0.1-0.3,0.1-0.4c-4.3,0.5-7.9,0.3-10.3,0C473.6,232,473.3,232,473,231.9L473,231.9z M460.3,210.1c-0.1,0.5-0.2,1-0.4,1.4
		c-0.2,0.8-0.3,1.5-0.5,2.3c-0.4,1.5-0.8,1.4-0.4-0.1c0.2-0.8,0.4-1.6,0.5-2.3l0.4-1.5c-0.7-0.5-0.3-0.7,1.6,0.2
		c1.1,0.5,2.8,1.2,4.8,1.8c0.1-0.5,0.2-0.9,0.3-1.4c0.2-0.8,0.4-1.5,0.6-2.3c0.4-1.5,0.8-1.5,0.4,0.1c-0.2,0.8-0.4,1.5-0.6,2.3
		c-0.1,0.5-0.2,1-0.3,1.5c1.9,0.5,4,1,6.5,1.4c1.9,0.2,0.6,0.5-0.2,0.4c-0.6-0.1-1.2-0.1-1.8-0.2c-0.1,0.5-0.3,1-0.4,1.4
		c-0.2,0.8-0.4,1.5-0.6,2.3c-0.4,1.5-0.8,1.4-0.4-0.1c0.2-0.8,0.4-1.5,0.6-2.3c0.1-0.4,0.2-0.9,0.4-1.3c-1.9-0.3-3.8-0.8-5.5-1.3
		c-1.6-0.5-3.1-1.1-4.1-1.5C460.9,210.4,460.6,210.3,460.3,210.1L460.3,210.1z M477,201.6c0.1-0.5,0.2-1,0.3-1.6
		c0.2-0.7,0.4-1.5,0.5-2.3c0.3-1.5-0.1-1.5-0.4,0c-0.2,0.8-0.4,1.5-0.6,2.3c-0.1,0.5-0.2,1-0.3,1.5c-0.5-0.1-1-0.2-1.5-0.3
		c-5.2-1.1-4.1-0.2,0,0.5c0.8,0.2,1.7,0.3,2.7,0.4c1.8,0.2,3.7,0.4,5.6,0.4c-0.1,0.5-0.2,1-0.3,1.5c-0.2,0.9-0.4,1.8-0.6,2.7
		c-0.1,0.4-0.2,0.7-0.2,0.9c-0.6-0.1-1.3-0.2-2-0.3c-1.1-0.2-0.5,0.3,0,0.4c1.4,0.3,3,0.5,4.5,0.5c0.6,0,1.2,0,1.7,0
		c2.4-0.1,2.9-0.7,0-0.5c-1,0.1-2.3,0.1-3.8-0.1c0.1-0.2,0.2-0.5,0.3-0.9c0.2-0.9,0.4-1.7,0.6-2.6c0.1-0.6,0.2-1.1,0.4-1.7
		c0.6,0,1.3,0,1.9-0.1c0.8-0.1,2.2-0.5,0.1-0.4C482.4,202.3,479.4,202,477,201.6L477,201.6z M460.6,190.6c-0.1,0.5-0.2,1.1-0.3,1.6
		c-0.1,0.8-0.3,1.5-0.4,2.3c-0.3,1.5-0.7,1.4-0.4-0.1c0.1-0.8,0.3-1.6,0.4-2.3c0.1-0.5,0.2-1.1,0.3-1.6c-0.9-0.4-1.5-0.7-1.9-0.9
		c0-0.2,0.1-0.4,0.1-0.5c0.7,0.4,3,1.6,6.2,2.4c0.1-0.5,0.2-1,0.3-1.5c0.2-0.8,0.3-1.6,0.5-2.4c0.2-1.5,0.7-1.5,0.4,0.1
		c-0.2,0.8-0.3,1.5-0.5,2.3c-0.1,0.6-0.2,1.1-0.3,1.6c0.3,0.1,0.7,0.1,1,0.2c1.2,0.2,0.3,0.5-0.1,0.4c-1.5-0.2-3.1-0.6-4.5-1.1
		C461.2,190.8,460.9,190.7,460.6,190.6L460.6,190.6z M485.7,184.5c3.5,0.6,6.6,0.6,8.6,0.5c0.1-0.5,0.1-0.9,0.2-1.3
		c0.1-0.8,0.3-1.6,0.4-2.3c0.3-1.5,0.7-1.5,0.4,0.1c-0.1,0.8-0.3,1.5-0.4,2.3c-0.1,0.4-0.1,0.9-0.2,1.3c0.9-0.1,1.5-0.2,1.9-0.2
		c-0.1,0.2-0.1,0.5-0.1,0.7c-0.8,0.1-2.5,0.2-4.6,0.2c-0.9,0-1.9-0.1-2.9-0.2c-0.1,0.4-0.2,0.9-0.2,1.3c-0.1,0.8-0.3,1.5-0.4,2.3
		c-0.3,1.5-0.7,1.4-0.4-0.1c0.1-0.8,0.3-1.6,0.5-2.3c0.1-0.4,0.1-0.8,0.2-1.2c-1-0.1-2-0.3-2.9-0.5
		C485.1,184.9,484.2,184.2,485.7,184.5L485.7,184.5z M496,164.3c-0.1,0.7-0.2,1.4-0.3,2c-0.1,1-0.3,1.9-0.4,2.9
		c-0.3,1.9-0.7,1.7-0.4-0.1c0.1-1,0.3-2,0.4-3c0.1-0.6,0.2-1.2,0.3-1.9c-1-0.1-2-0.2-3-0.4c-0.5-0.1-1.2-0.6,0-0.4
		c2.6,0.5,4.9,0.5,6.4,0.4c0.5,0,0.9-0.1,1.2,0c0,0.1,0,0.3,0,0.4c-0.3,0-0.6,0.1-1,0.1c-0.5,0-1.1,0.1-1.8,0
		C496.9,164.4,496.5,164.4,496,164.3L496,164.3z"/>
	<path fill="#72706F" d="M461.3,234.6c0,0.3-0.2,0.7-0.2,0.9c-0.1,0.6-0.2,1-0.3,1.6c0.5,0.4,1.2,0.6,1.8,0.6
		c0.1-0.5,0.2-1.2,0.4-1.7c0.1-0.3,0.1-0.5,0.2-0.8C463.5,233.6,461.6,232.9,461.3,234.6L461.3,234.6z"/>
	<path fill="#FFFFFF" d="M485.7,109.4c0,0,2.5-2.7,8-1.6c5.6,1.2,8.9,2.1,13.3,0.2c-0.4-1.3-0.8-2.6-1.2-4c0.4-1.5,0.8-3,1.2-4.5
		c-4.5,1.9-7.6,1.1-13.2,0c-2.9-0.6-4.9-0.2-6.2,0.3c-2,0.8-1.6,1.5-1.7,3.5C485.9,105.9,485.7,109.4,485.7,109.4L485.7,109.4z"/>
	<path fill="#605D5C" d="M492.8,101.9c0,0.4,0,0.8-0.1,1.1c0,0.4,0,0.8-0.1,1.1c0,0.3-0.1,0.5-0.2,0.7c-0.1,0.2-0.3,0.3-0.5,0.4
		c-0.2,0.1-0.5,0.1-0.8,0.2c-0.4,0-0.8-0.1-1-0.2c-0.2-0.2-0.3-0.5-0.3-0.9c0-0.4,0-0.7,0.1-1.1c0-0.4,0-0.7,0.1-1.1
		c0.2,0,0.4-0.1,0.6-0.1c0,0.4,0,0.7-0.1,1.1c0,0.4,0,0.7-0.1,1.1c0,0.3,0,0.5,0.2,0.6c0.1,0.1,0.3,0.2,0.6,0.2
		c0.5,0,0.8-0.3,0.9-0.8c0-0.4,0-0.7,0.1-1.1c0-0.4,0-0.7,0.1-1.1C492.4,101.8,492.6,101.9,492.8,101.9L492.8,101.9z M493.7,105
		c-0.1,0.3-0.3,0.6-0.5,1.1c-0.1,0-0.3,0-0.4,0c0.1-0.4,0.2-0.8,0.3-1.2C493.3,104.9,493.5,104.9,493.7,105
		C493.7,104.9,493.7,105,493.7,105L493.7,105z M498.6,104.8c0,0.3-0.1,0.5-0.2,0.8c-0.1,0.2-0.2,0.4-0.4,0.5
		c-0.3,0.3-0.7,0.4-1.3,0.2c-0.5-0.1-0.9-0.4-1.2-0.8c-0.1-0.2-0.2-0.4-0.3-0.7c-0.1-0.2-0.1-0.5-0.1-0.8c0-0.3,0.1-0.5,0.1-0.7
		c0.1-0.2,0.2-0.4,0.3-0.5c0.3-0.2,0.7-0.3,1.2-0.2c0.5,0.1,0.9,0.4,1.2,0.7c0.1,0.2,0.2,0.4,0.3,0.6
		C498.6,104.3,498.7,104.5,498.6,104.8L498.6,104.8z M496,104.2c0,0.4,0,0.8,0.2,1.1c0.2,0.3,0.4,0.5,0.8,0.6c0.3,0.1,0.6,0,0.8-0.2
		c0.2-0.2,0.3-0.5,0.3-1c0-0.4,0-0.8-0.2-1c-0.2-0.3-0.4-0.4-0.8-0.5c-0.3-0.1-0.6,0-0.8,0.1C496.1,103.5,496,103.8,496,104.2
		L496,104.2z M496.7,102.3C496.7,102.3,496.7,102.3,496.7,102.3c0.1-0.2,0.2-0.3,0.3-0.4c0.1-0.1,0.2-0.2,0.2-0.3
		c0.2,0,0.4,0.1,0.7,0.1c0,0,0,0,0,0.1c-0.1,0.1-0.2,0.2-0.4,0.3c-0.2,0.1-0.3,0.2-0.4,0.3C497,102.4,496.9,102.4,496.7,102.3
		L496.7,102.3z M499.5,106.2c-0.1,0.3-0.3,0.7-0.5,1.1c-0.1,0-0.3,0-0.4-0.1c0.1-0.4,0.2-0.8,0.3-1.2
		C499.1,106.1,499.3,106.1,499.5,106.2C499.5,106.1,499.5,106.2,499.5,106.2L499.5,106.2z M503.5,106.5c-0.9,0.1-1.7,0.2-2.6,0.3
		c0-0.1,0-0.3,0-0.4c0.3-0.4,0.6-0.9,1-1.4c0.3-0.5,0.6-0.9,1-1.4c-0.6,0.1-1.2,0.1-1.7,0.1c0-0.2,0-0.3,0-0.5
		c0.8,0,1.6-0.1,2.5-0.3c0,0.1,0,0.3,0,0.4c-0.3,0.5-0.6,1-1,1.5c-0.3,0.5-0.6,0.9-1,1.4c0.6-0.1,1.2-0.1,1.9-0.2
		C503.5,106.2,503.5,106.3,503.5,106.5L503.5,106.5z M502.1,102.5c0-0.1,0-0.2,0.1-0.2c0.1-0.1,0.1-0.1,0.2-0.1c0.1,0,0.2,0,0.2,0.1
		c0.1,0,0.1,0.1,0.1,0.2c0,0.1,0,0.2-0.1,0.2c-0.1,0.1-0.1,0.1-0.2,0.1c-0.1,0-0.2,0-0.2-0.1C502.1,102.7,502.1,102.6,502.1,102.5
		L502.1,102.5z"/>
	<path fill="#605D5C" d="M487.4,97.9c0.4,0,0.7,0.3,0.7,0.7c0,0.4-0.3,0.7-0.7,0.7c-0.4,0-0.7-0.3-0.7-0.7
		C486.7,98.2,487,97.9,487.4,97.9z"/>
</g>
<g>
	<path fill="#969594" d="M223.9,249.5c-5.5,1.3-11.1,2.5-16.6,3.8c-5.5,1.3-11.1,2.5-16.6,3.8c-2.5-7.7-6.9-19.9-8.7-26
		c-1.2-4.2-2.3-8.8-3.6-13.5c-0.5-1.6-1.3-3.6-1.9-5.7c-0.6-2.1-1-4.3-1.5-6.1c-0.5-2.1-1.8-5-2.6-8c-0.8-3-1.1-6.2-1.6-8.4
		c-0.5-2.4-1.6-4.7-2.1-7.3c-1-4.2-1.5-8.7-2.3-13.1c-0.3-1.6-0.6-3.8-0.9-5.3c-0.4-1.9-0.9-4.4-1.1-5.9
		c-1.6-10.6,0.1-12.5,2.1-14.7c2.7-3,6.8-3.5,11.5-4.5c4.5-0.9,7-2.7,10.5-1.6c2.7,0.9,6.4,2.2,8.8,15.2c0.3,1.7,0.7,3.6,1.1,5.5
		c0.9,4.1,1.9,8.5,2.8,12.2c0.3,1.5,0.6,2.7,0.9,4.5c0.6,2.9,1.3,6.5,1.9,8.9c0.8,3.3,1,5.5,1.9,8.9c0.9,3.3,2.6,7.7,3.5,11.3
		c0.7,2.8,1.6,6.8,2.3,9.2c0.7,2.4,1,3.8,1.7,6C215.6,226.2,220.8,240.3,223.9,249.5L223.9,249.5z"/>
	<path fill="#605D5C" d="M151.9,156.5c2.8-2.6,5-5.3,7.4-8.3c1.6-2,3.6-4.3,5-6.4c0.5-0.8,0.9-1.5,1.4-2.2c-0.3-3.2-1.2-6-1.2-6
		l-1.2-5.8c0,0-0.1,0-0.1,0c-0.4,0-0.6-0.3-0.6-0.6c0-0.3,0.2-0.5,0.5-0.6l-0.5-2.3l0.6,2.3c0,0,0,0,0.1,0c0.4,0,0.6,0.3,0.6,0.6
		c0,0.3-0.2,0.5-0.4,0.6c0.5,1.8,1,4,1.4,5.4c0.4,1.3,1,3.4,1.7,5.2c0.4-0.7,0.9-1.4,1.4-2.2c1.2-1.9,2.7-4,3.8-6.2
		c0.8-1.7,1.5-3.9,2.3-5.7c0.8-1.8,1.4-3.1,1.3-5c-0.1-2.1-1-9-1.3-11.1c0.3-0.1,0.6-0.2,0.8-0.3c0.3,2.2,0.9,8.9,1.4,11.1
		c0.4,1.8,1.4,2.9,2.7,4.1c1.3,1.3,2.2,2.7,3.5,3.9c1.3,1.2,3.2,2.3,4.7,3.5c0.9,0.7,1.9,1.4,2.8,2.1c-0.4-2.4-1-4.3-1-4.3l-1.1-5.2
		l0,0c-0.4,0-0.6-0.3-0.6-0.6c0-0.3,0.2-0.5,0.4-0.6l-0.6-2.9c0,0,0.3,1.2,0.7,2.9c0,0,0.1,0,0.1,0c0.4,0,0.6,0.3,0.6,0.6
		c0,0.3-0.2,0.5-0.4,0.6c0.4,1.7,0.9,3.5,1.2,4.7c0.4,1.5,1.2,3.8,1.8,5.7c0.5,0.3,1,0.7,1.4,1c2.1,1.5,4.4,3.4,6.6,4.8
		c2.8,1.9,5.7,3.3,8.6,5c-0.1,0.2-1.3,0.9-4.4,2c-1,0.3-2.8,0.7-4.1,1.1c-2.6,0.8-5.1,2-8.4,2.9c-3,0.9-6.6,1.5-9.9,2.2
		c-3.3,0.8-6.4,1.6-9.8,2.2c-1.6,0.3-3.4,0.8-4.9,1c-1.9,0.3-3.5,0.3-5.3,0.5c-1.2,0.2-2.3,0.5-3.3,0.6
		C154.2,157,151.9,156.8,151.9,156.5L151.9,156.5z"/>
	<path fill="#FFFFFF" d="M190,157.3c0.1,0.5,0.4,1.2,0.5,1.7c0.2,1.1,0.3,1.9,0.5,3c-0.9,0.8-2.2,1.2-3.5,1.3
		c-0.2-1-0.5-2.2-0.7-3.3c-0.1-0.5-0.3-1-0.4-1.6C185.9,155.4,189.4,154.1,190,157.3L190,157.3z"/>
	<path fill="#FFFFFF" d="M172.8,161.2c0.1,0.5,0.2,1.3,0.3,1.8c0.2,1.1,0.5,1.9,0.7,3c1.1,0.3,2.5,0.1,3.7-0.3
		c-0.2-1-0.5-2.2-0.7-3.3c-0.1-0.5-0.2-1.1-0.3-1.6C176,157.7,172.2,158,172.8,161.2L172.8,161.2z"/>
	<path fill="#FFFFFF" d="M193.4,174.2c0.1,0.5,0.4,1.3,0.5,1.7c0.2,1.1,0.3,1.9,0.6,3c-0.9,0.8-2.2,1.1-3.5,1.3
		c-0.2-1-0.5-2.2-0.8-3.2c-0.1-0.5-0.3-1-0.4-1.6C189.2,172.4,192.8,171.1,193.4,174.2L193.4,174.2z"/>
	<path fill="#FFFFFF" d="M176.3,178.1c0.1,0.5,0.2,1.3,0.3,1.8c0.2,1.1,0.5,1.9,0.8,2.9c1.1,0.3,2.5,0.1,3.7-0.3
		c-0.2-1-0.5-2.2-0.8-3.2c-0.1-0.5-0.2-1.1-0.3-1.6C179.3,174.6,175.6,175,176.3,178.1L176.3,178.1z"/>
	<g>
		<path fill="#72706F" d="M180.5,198.6c-0.3,0.1-0.6,0.1-0.9,0.2c-0.1-0.5-0.3-1-0.4-1.5c-0.2-0.7-0.3-1.4-0.5-2.1
			c-0.3-1.4-0.7-1.3-0.4,0.1c0.2,0.7,0.4,1.5,0.5,2.2c0.1,0.5,0.3,0.9,0.4,1.4c-3,0.5-5.4,0.3-6.1,0.2c0,0.2,0.1,0.3,0.1,0.5
			c0.4,0,1.1,0.1,1.9,0.1c0.1,0.5,0.3,1,0.4,1.5c0.2,0.7,0.4,1.4,0.6,2.1c0.4,1.3,0.7,1.3,0.4-0.1c-0.2-0.7-0.4-1.4-0.6-2.1
			c-0.1-0.5-0.2-1-0.4-1.5c0.3,0,0.5,0,0.8,0c1.4-0.1,2.8-0.3,4.2-0.6C181,198.8,181.6,198.3,180.5,198.6z"/>
		<path fill="#72706F" d="M195.9,213.9c-2.2,0.6-4.3,1-6.1,1.2c-0.1-0.5-0.3-0.9-0.4-1.4c-0.2-0.7-0.4-1.4-0.6-2
			c-0.4-1.4-0.7-1.2-0.4,0.1c0.2,0.7,0.4,1.4,0.6,2.1c0.1,0.4,0.3,0.8,0.4,1.3c-2,0.2-3.7,0.3-4.9,0.3c-2,0-2.2,0.3-1.4,0.4
			c0.1,0.5,0.3,0.9,0.4,1.4c0.2,0.7,0.4,1.4,0.6,2.1c0.4,1.3,0.8,1.3,0.4-0.1c-0.2-0.7-0.4-1.4-0.6-2c-0.1-0.4-0.2-0.9-0.4-1.3
			c0.3,0,0.6,0,1,0c1.1,0,2.6-0.1,4.2-0.2c1.7-0.2,3.5-0.5,5.2-0.9c0.1,0.4,0.2,0.8,0.3,1.2c0.2,0.7,0.4,1.4,0.6,2.1
			c0.4,1.3,0.8,1.3,0.4-0.1c-0.2-0.7-0.4-1.4-0.6-2c-0.1-0.4-0.2-0.9-0.4-1.3c0.5-0.1,1.1-0.3,1.6-0.5
			C196.7,214,197.7,213.4,195.9,213.9z"/>
		<path fill="#72706F" d="M204.7,205c2-1,2.1-1.6-0.3-0.4c-0.8,0.4-1.9,0.9-3.2,1.3c0-0.2-0.1-0.5-0.2-0.8c-0.2-0.8-0.5-1.6-0.7-2.3
			c-0.1-0.5-0.3-1-0.4-1.5c0.5-0.2,1.1-0.5,1.6-0.7c0.7-0.3,1.6-1.2-0.1-0.4c-2.9,1.4-5.5,2.2-7.7,2.7c-0.1-0.5-0.3-0.9-0.4-1.4
			c-0.2-0.7-0.3-1.4-0.5-2.1c-0.4-1.4-0.7-1.2-0.4,0.1c0.2,0.7,0.4,1.4,0.5,2.1c0.1,0.4,0.3,0.9,0.4,1.3c-0.5,0.1-0.9,0.2-1.4,0.3
			c-4.9,1-3.5,1.3,0.2,0.5c0.8-0.2,1.6-0.4,2.4-0.6c1.6-0.4,3.3-1,4.9-1.7c0.1,0.5,0.2,0.9,0.4,1.4c0.2,0.8,0.5,1.6,0.7,2.4
			c0.1,0.4,0.2,0.7,0.3,0.8c-0.6,0.2-1.2,0.4-1.9,0.5h0c-1,0.2-0.3,0.4,0.2,0.3c1.3-0.3,2.8-0.7,4-1.2
			C203.8,205.4,204.3,205.2,204.7,205z"/>
		<path fill="#72706F" d="M181.7,169c-1.7,0.4-6.1,0.9-8.8,1.1c-0.1-0.4-0.2-0.7-0.2-1.1c-0.1-0.6-0.2-1.2-0.4-1.8
			c-0.2-1.2-0.6-1.1-0.4,0.1c0.1,0.6,0.2,1.3,0.4,1.9c0.1,0.3,0.2,0.7,0.2,1c-0.8,0.1-1.4,0.1-1.7,0.1c-2.7-0.1-2.3,0.4-0.1,0.4
			c0.5,0,1,0,1.6,0c0.9,0,4-0.4,6.5-0.8c0.1,0.4,0.2,0.8,0.2,1.1c0.1,0.6,0.3,1.2,0.4,1.9c0.3,1.2,0.6,1.2,0.4-0.1
			c-0.1-0.6-0.3-1.2-0.4-1.8c-0.1-0.4-0.2-0.8-0.2-1.2c1.1-0.2,2-0.3,2.4-0.4C182.2,169.3,182.8,168.8,181.7,169z"/>
		<path fill="#72706F" d="M192.9,164.9c0.9-0.2,1.7-0.4,2.6-0.7c0.1,0.6,0.2,1.2,0.3,1.8c0.2,0.9,0.4,1.9,0.6,2.8
			c0.4,1.7,0.8,1.7,0.4-0.1c-0.2-0.9-0.4-1.8-0.6-2.7c-0.1-0.6-0.3-1.3-0.4-1.9c0.4-0.1,0.7-0.3,1.1-0.4c0.5-0.2,1-0.5,1.5-0.7
			c0.3-0.2,0.6-0.3,0.8-0.4c0-0.1-0.1-0.3-0.1-0.4c-0.3,0.1-0.6,0.3-1,0.5c-1.2,0.6-3.1,1.4-5.4,1.9
			C191.7,164.8,192.5,165,192.9,164.9z"/>
		<path fill="#72706F" d="M201.2,181.5c0.1,0.4,0.2,0.8,0.3,1.2c-1.7,0.8-4.2,1.9-7.4,2.6c-1.4,0.3-0.4,0.6,0.2,0.5
			c0.9-0.2,1.7-0.4,2.6-0.7c0.1,0.4,0.2,0.8,0.3,1.1c0.2,0.7,0.4,1.4,0.5,2.1c0.3,1.4,0.7,1.3,0.4-0.1c-0.2-0.7-0.4-1.4-0.6-2.1
			c-0.1-0.4-0.2-0.8-0.3-1.2c0.8-0.3,1.7-0.6,2.5-0.9c1.7-0.7,3.1-1.5,3.7-1.8c-0.1-0.2-0.1-0.4-0.1-0.7c-0.3,0.2-0.8,0.5-1.5,0.9
			c-0.1-0.4-0.2-0.8-0.3-1.2c-0.2-0.7-0.3-1.4-0.5-2.1c-0.3-1.4-0.7-1.3-0.4,0.1C200.9,180.1,201.1,180.8,201.2,181.5z"/>
		<path fill="#72706F" d="M213,229.7c-0.1-0.5-0.3-1-0.5-1.5c0.9-0.5,1.8-1,2.7-1.5c0-0.1-0.1-0.2-0.1-0.4c-3.4,2-6.6,3.2-8.8,3.8
			c-0.3,0.1-0.5,0.2-0.8,0.2c-0.2-0.4-0.3-0.9-0.5-1.4c-0.2-0.7-0.4-1.4-0.6-2c-0.4-1.4-0.8-1.2-0.4,0.1c0.2,0.7,0.4,1.4,0.6,2.1
			c0.1,0.4,0.3,0.9,0.4,1.3c0,0-0.1,0-0.1,0c-0.1-0.2-0.1-0.4-0.2-0.6h0c-0.4-1.6-2.2-0.9-1.8,0.7c0.1,0.3,0.2,0.5,0.2,0.8
			c0.1,0.5,0.3,1.1,0.5,1.7c0.7-0.1,1.3-0.3,1.8-0.8c-0.1-0.5-0.2-0.9-0.3-1.4c0.4-0.1,0.9-0.2,1.4-0.4c0.7-0.2,1.5-0.5,2.4-0.8
			c1.1-0.4,2.2-0.9,3.3-1.4c0.1,0.4,0.3,0.9,0.4,1.3c0.2,0.7,0.5,1.4,0.7,2.1c0.4,1.3,0.8,1.3,0.4-0.1
			C213.5,231.1,213.3,230.4,213,229.7z"/>
	</g>
	<path fill="#FFFFFF" d="M174.8,115.6c0,0,2-3.1,7.7-2.8c5.7,0.3,9.1,0.7,13.2-1.9c-0.6-1.2-1.2-2.5-1.8-3.7
		c0.2-1.6,0.3-3.1,0.5-4.7c-4.1,2.6-7.4,2.3-13,2c-3-0.1-4.9,0.6-6.1,1.3c-1.9,1.2-1.4,1.7-1.1,3.7
		C174.4,112.1,174.8,115.6,174.8,115.6z"/>
	<path fill="#605D5C" d="M180.6,107.1c0,0.4,0.1,0.7,0.1,1.1c0,0.4,0.1,0.7,0.1,1.1c0,0.3,0,0.5-0.1,0.7c-0.1,0.2-0.2,0.4-0.5,0.5
		c-0.2,0.1-0.5,0.2-0.7,0.3c-0.4,0.1-0.8,0.1-1-0.1c-0.3-0.1-0.4-0.4-0.4-0.8c0-0.4-0.1-0.7-0.1-1.1c0-0.4-0.1-0.7-0.1-1.1
		c0.2-0.1,0.4-0.1,0.6-0.2c0,0.4,0.1,0.7,0.1,1.1c0,0.4,0.1,0.7,0.1,1.1c0,0.3,0.1,0.5,0.2,0.6c0.1,0.1,0.4,0.1,0.6,0.1
		c0.5-0.1,0.8-0.4,0.7-1c0-0.4-0.1-0.7-0.1-1.1c0-0.4-0.1-0.7-0.1-1.1C180.2,107.2,180.4,107.2,180.6,107.1L180.6,107.1z M182,110.1
		c-0.1,0.3-0.2,0.7-0.3,1.1c-0.1,0-0.3,0-0.4,0c0.1-0.4,0.1-0.8,0.1-1.2C181.6,110,181.8,110,182,110.1C182,110,182,110,182,110.1
		L182,110.1z M186.8,109.1c0,0.3,0,0.5,0,0.8c-0.1,0.2-0.1,0.4-0.3,0.6c-0.3,0.3-0.7,0.5-1.2,0.4c-0.5-0.1-1-0.3-1.3-0.6
		c-0.2-0.2-0.3-0.4-0.4-0.6c-0.1-0.2-0.2-0.5-0.2-0.8c0-0.3,0-0.5,0-0.8c0-0.2,0.1-0.4,0.3-0.5c0.3-0.3,0.7-0.4,1.2-0.4
		c0.5,0,1,0.2,1.3,0.5c0.2,0.2,0.3,0.4,0.4,0.6C186.7,108.6,186.8,108.8,186.8,109.1z M184.1,109c0,0.4,0.2,0.8,0.4,1
		c0.2,0.2,0.5,0.4,0.8,0.4c0.4,0,0.6-0.1,0.8-0.3c0.2-0.2,0.2-0.5,0.2-1c0-0.4-0.2-0.8-0.4-1c-0.2-0.2-0.5-0.4-0.8-0.4
		c-0.4,0-0.6,0.1-0.8,0.3C184.1,108.2,184,108.5,184.1,109L184.1,109z M184.5,107C184.5,107,184.5,107,184.5,107
		c0.1-0.2,0.2-0.3,0.2-0.4c0.1-0.1,0.1-0.2,0.2-0.3c0.2,0,0.4,0,0.7,0c0,0,0,0,0,0.1c-0.1,0.1-0.2,0.2-0.3,0.4
		c-0.2,0.1-0.3,0.3-0.4,0.3C184.8,107,184.7,107,184.5,107L184.5,107z M187.9,110.4c0,0.3-0.2,0.7-0.3,1.2c-0.1,0-0.3,0-0.4,0
		c0.1-0.4,0.1-0.8,0.1-1.2C187.5,110.3,187.7,110.3,187.9,110.4C187.9,110.3,187.9,110.3,187.9,110.4L187.9,110.4z M191.8,110
		c-0.8,0.3-1.7,0.5-2.5,0.7c0-0.1,0-0.3,0-0.4c0.2-0.5,0.5-1,0.7-1.5c0.2-0.5,0.5-1,0.7-1.6c-0.6,0.2-1.1,0.3-1.7,0.4
		c0-0.2,0-0.3-0.1-0.5c0.8-0.2,1.6-0.4,2.4-0.6c0,0.1,0,0.3,0,0.4c-0.2,0.5-0.5,1.1-0.7,1.6c-0.2,0.5-0.5,1-0.7,1.5
		c0.6-0.1,1.2-0.3,1.8-0.5C191.8,109.7,191.8,109.9,191.8,110L191.8,110z M189.8,106.3c0-0.1,0-0.2,0.1-0.3c0-0.1,0.1-0.1,0.2-0.1
		c0.1,0,0.2,0,0.2,0c0.1,0,0.1,0.1,0.1,0.2c0,0.1,0,0.2-0.1,0.3c0,0.1-0.1,0.1-0.2,0.1c-0.1,0-0.2,0-0.2,0
		C189.9,106.5,189.9,106.4,189.8,106.3L189.8,106.3z"/>
	<path fill="#605D5C" d="M174.3,104.5c0.4,0,0.7,0.3,0.7,0.7c0,0.4-0.3,0.7-0.7,0.7c-0.4,0-0.7-0.3-0.7-0.7
		C173.6,104.8,173.9,104.5,174.3,104.5z"/>
</g>
<g>
	<g id="_162880448">
		<path id="_162885304" fill="#969594" d="M-6.6,311.8c1.1-0.7,2.1-1.3,3.2-2.1c-2.6-4,1,1.6-1.2-1.6c-0.5-0.7-1.5-2.4-2.6-4.2
			c-1.1-1.7-2.2-3.5-2.8-4.3c-0.3-0.4-0.5-0.9-0.9-1.4c0.8-0.5,1.6-1,2.3-1.4c1,1.5,2.4,3.1,3.2,4.4c1.1,1.8,2.6,4.3,3.6,5.9
			c1.3,2.1-1.3-1.5,0.6,1.2c1-0.7,2.2-1.4,3.3-2.1c-2.6-4,0.9,1.7-1.2-1.6c-0.4-0.7-1.5-2.4-2.5-4.2c-1.1-1.7-2.2-3.5-2.7-4.3
			c-0.8-1.2-2.2-3.6-3.1-4.9c-0.7-1.1-2.2-3-2.9-4.2c-0.8-1.2-1.6-2.9-2.4-4c-1.3-0.6-2.5-1.3-3.7-1.9c0.1,1.3,0.1,2.7,0.3,4
			c0.4,0.8,1.5,2.2,2,2.9c0.6,0.9,2.2,3.3,2.8,4.2c0.6,0.8,1.4,2.2,2,3.2c-0.7,0.5-1.5,1-2.3,1.4c-0.5-0.8-1-1.6-1.4-2.2
			c-0.8-1.1-2.2-3.1-3-4.2c-0.8-1.2-1.8-2.8-2.6-4c-1.2-0.7-2.4-1.3-3.6-2c0.1,1.3,0.2,2.7,0.2,4c0.5,0.7,1.6,2.2,2.1,2.9
			c0.6,1,2.4,3.3,3,4.2c0.7,1.1,1.8,2.9,2.4,3.9c1.1,1.6,2.6,3.6,3.6,5c1.1,1.7,2.6,4.3,3.6,5.9C-5.9,312.7-8.4,309.1-6.6,311.8
			L-6.6,311.8z"/>
		<path id="_162884064" fill="#969594" d="M3.8,305c1.1-0.7,2.2-1.4,3.3-2.1c-2.5-4,1.1,1.6-1.1-1.6c-0.5-0.7-1.5-2.4-2.5-4.1
			c-1-1.7-2.2-3.4-2.7-4.2c-0.2-0.4-0.5-0.9-0.8-1.4c0.8-0.5,1.6-0.9,2.2-1.4c1.1,1.5,2.4,3.3,3.3,4.6c1.1,1.7,2.3,4.3,3.3,5.9
			c1.3,2.1-1.1-1.6,0.6,1.1c1.1-0.7,2.2-1.4,3.2-2.1c-2.5-4,1.1,1.6-1-1.6c-0.5-0.7-1.4-2.4-2.5-4.1c-1-1.7-2-3.5-2.5-4.3
			c-0.8-1.2-2.2-3.5-3-4.8c-0.7-1.1-2.1-3-2.8-4.2c-0.7-1.2-1.5-2.9-2.3-4c-1.3-0.6-2.4-1.3-3.6-2c0,1.4,0,2.7,0.1,4.1
			c0.5,0.7,1.5,2.2,1.9,2.9c0.6,0.9,2.2,3.3,2.8,4.2c0.5,0.8,1.2,2,1.7,2.9c-0.8,0.5-1.5,0.9-2.3,1.4c-0.4-0.8-0.9-1.6-1.3-2.2
			c-0.8-1.1-2.1-3-2.9-4.2c-0.8-1.2-1.6-2.8-2.4-4c-1.2-0.7-2.4-1.4-3.6-2c0.1,1.3,0.1,2.7,0.1,4c0.5,0.7,1.5,2.2,2,2.9
			c0.6,0.9,2.3,3.3,2.9,4.2c0.7,1.1,1.8,2.9,2.4,3.9c1,1.6,2.6,3.5,3.5,5c1.1,1.7,2.4,4.3,3.4,5.9C4.5,305.9,2.1,302.3,3.8,305
			L3.8,305z"/>
		<path id="_162882688" fill="#969594" d="M14.5,298.4c1.1-0.6,2.3-1.3,3.5-1.9c-2.4-4.1,0.9,1.7-1.1-1.6c-0.4-0.7-1.3-2.5-2.4-4.2
			c-1-1.7-2.1-3.5-2.5-4.3c-0.3-0.5-0.6-1-1-1.6c0.9-0.5,1.8-1,2.7-1.5c1,1.6,2.3,3.5,3.2,4.9c1.1,1.7,2.3,4.3,3.2,5.9
			c1.2,2.1-1.1-1.6,0.6,1.2c1.1-0.6,2.3-1.3,3.5-1.9c-2.3-4.1,0.9,1.6-1-1.7c-0.4-0.7-1.4-2.4-2.4-4.2c-1-1.7-1.9-3.5-2.4-4.3
			c-0.8-1.2-2.1-3.6-2.9-4.9c-0.7-1.1-2-3.1-2.7-4.2c-0.7-1.2-1.5-2.9-2.2-4c-1.2-0.7-2.3-1.4-3.6-2.1c0.1,1.3,0,2.7-0.1,4
			c0.5,0.7,1.4,2.2,1.8,3c0.6,1,2.2,3.3,2.8,4.2c0.4,0.7,1,1.9,1.5,2.8c-0.9,0.5-1.7,0.9-2.7,1.5c-0.5-0.7-0.8-1.5-1.1-2
			c-0.7-1.1-2.1-3-2.8-4.2c-0.7-1.2-1.6-2.9-2.3-4c-1.2-0.7-2.4-1.4-3.7-2c0.1,1.3,0,2.6,0,4c0.5,0.7,1.5,2.2,2,2.9
			c0.6,0.9,2.3,3.3,2.9,4.2c0.6,1,1.5,3,2.2,4c1,1.6,2.4,3.6,3.3,5c1.1,1.7,2.4,4.2,3.4,5.9C15.2,299.3,12.8,295.7,14.5,298.4
			L14.5,298.4z"/>
		<path id="_162881448" fill="#969594" d="M26.6,292c1.3-0.7,2.3-1.3,3.5-1.9c-2.3-4.1,0.9,1.7-1-1.7c-0.4-0.7-1.3-2.5-2.3-4.2
			c-1-1.8-2-3.5-2.4-4.3c-0.3-0.4-0.6-1.1-1-1.7c0.9-0.5,1.7-0.9,2.6-1.4c0.9,1.6,2.2,3.4,3,4.8c1,1.7,2.3,4.3,3.1,6
			c1.1,2.1-1.1-1.6,0.4,1.2c1.2-0.6,2.4-1.3,3.6-1.9c-2.2-4.1,0.9,1.7-1-1.7c-0.4-0.7-1.3-2.4-2.3-4.2c-1-1.7-1.8-3.6-2.3-4.4
			c-0.7-1.2-2-3.6-2.7-4.9c-0.7-1.2-1.9-3.1-2.6-4.3c-0.7-1.2-1.4-2.9-2.1-4.1c-1.2-0.7-2.4-1.4-3.6-2c0,1.3-0.1,2.7-0.1,4
			c0.4,0.7,1.4,2.2,1.8,3c0.6,0.9,2,3.4,2.6,4.3c0.5,0.8,1,2,1.5,2.9c-0.8,0.5-1.7,0.9-2.6,1.4c-0.5-0.7-0.8-1.4-1.1-1.9
			c-0.7-1.1-2-3.1-2.7-4.2c-0.7-1.2-1.5-2.9-2.2-4.1c-1.2-0.7-2.4-1.4-3.6-2c0.1,1.3,0,2.7-0.1,4c0.5,0.7,1.3,2.2,1.8,3
			c0.6,1,2.2,3.3,2.7,4.3c0.6,1.1,1.5,3,2.1,4c0.9,1.6,2.5,3.6,3.3,5.1c1,1.8,2.2,4.3,3.1,6C27.3,292.9,25.1,289.2,26.6,292
			L26.6,292z"/>
	</g>
	<g id="_162874104">
		<path id="_162877968" fill="#969594" d="M642.4,313.6c-1.1-0.6-2.1-1.3-3.3-1.9c2.5-4.1-0.9,1.7,1.1-1.7c0.4-0.7,1.4-2.5,2.4-4.2
			c1-1.8,2.1-3.6,2.6-4.4c0.3-0.4,0.5-0.9,0.8-1.5c-0.8-0.4-1.7-0.9-2.4-1.3c-0.9,1.5-2.2,3.2-3,4.5c-1,1.8-2.4,4.4-3.3,6
			c-1.2,2.1,1.2-1.6-0.5,1.2c-1-0.6-2.2-1.3-3.4-2c2.5-4.1-0.8,1.7,1.1-1.7c0.4-0.7,1.4-2.5,2.4-4.2c1-1.8,2.1-3.6,2.6-4.4
			c0.7-1.3,2.1-3.7,2.9-5c0.7-1.1,2-3.1,2.7-4.3c0.7-1.2,1.5-2.9,2.3-4.1c1.3-0.7,2.4-1.4,3.7-2.1c0,1.3,0,2.7-0.1,4
			c-0.4,0.8-1.4,2.3-1.9,3c-0.6,0.9-2.1,3.4-2.7,4.3c-0.6,0.9-1.3,2.2-1.9,3.3c0.7,0.4,1.5,0.9,2.4,1.4c0.5-0.8,1-1.6,1.4-2.2
			c0.7-1.1,2.1-3.1,2.8-4.3c0.8-1.2,1.7-2.9,2.4-4.1c1.1-0.7,2.4-1.4,3.6-2.1c0,1.3-0.1,2.7-0.1,4c-0.4,0.8-1.5,2.3-2,3
			c-0.6,1-2.3,3.4-2.9,4.3c-0.7,1.1-1.7,3-2.3,4c-1,1.7-2.5,3.7-3.4,5.1c-1.1,1.8-2.4,4.4-3.4,6
			C641.7,314.5,644.1,310.8,642.4,313.6L642.4,313.6z"/>
		<path id="_162876728" fill="#969594" d="M631.7,307.1c-1.1-0.7-2.3-1.3-3.4-2c2.4-4.1-1,1.7,1-1.7c0.4-0.7,1.4-2.5,2.4-4.2
			c1-1.8,2.1-3.5,2.6-4.3c0.2-0.4,0.4-0.9,0.7-1.4c-0.8-0.4-1.6-0.9-2.3-1.3c-1,1.6-2.3,3.4-3.1,4.8c-1,1.8-2.2,4.4-3.1,6
			c-1.2,2.1,1.1-1.6-0.6,1.2c-1.1-0.7-2.2-1.3-3.3-1.9c2.3-4.1-1,1.6,0.9-1.7c0.4-0.7,1.4-2.5,2.3-4.2c1-1.8,1.9-3.6,2.3-4.4
			c0.7-1.3,2.1-3.6,2.9-4.9c0.7-1.1,1.9-3.1,2.6-4.3c0.7-1.2,1.4-2.9,2.1-4.1c1.2-0.7,2.4-1.4,3.5-2.1c0.1,1.4,0.1,2.7,0.1,4.1
			c-0.4,0.8-1.4,2.2-1.8,3c-0.6,1-2.1,3.4-2.6,4.3c-0.5,0.8-1.1,2-1.6,3c0.8,0.5,1.5,0.9,2.4,1.3c0.4-0.8,0.8-1.6,1.2-2.2
			c0.7-1.2,2-3.1,2.7-4.3c0.7-1.2,1.5-2.9,2.3-4.1c1.1-0.7,2.3-1.4,3.5-2.1c0,1.3,0,2.7,0,4c-0.5,0.7-1.4,2.3-1.8,3
			c-0.5,1-2.2,3.3-2.7,4.3c-0.6,1.1-1.6,3-2.2,4c-1,1.6-2.5,3.6-3.3,5.1c-1,1.8-2.2,4.4-3.2,6C631,308.1,633.4,304.4,631.7,307.1
			L631.7,307.1z"/>
		<path id="_162875488" fill="#969594" d="M620.8,301c-1.2-0.6-2.4-1.2-3.6-1.8c2.3-4.1-0.9,1.7,1.1-1.6c0.4-0.7,1.2-2.5,2.2-4.3
			c1-1.8,1.9-3.6,2.3-4.4c0.2-0.5,0.6-1,0.9-1.7c-0.9-0.5-1.8-0.9-2.7-1.4c-0.9,1.6-2.2,3.6-3,5c-1,1.8-2.1,4.4-3,6
			c-1.1,2.2,1.1-1.6-0.5,1.2c-1.2-0.6-2.4-1.2-3.6-1.8c2.2-4.1-0.9,1.7,0.9-1.7c0.4-0.7,1.3-2.5,2.3-4.2c0.9-1.8,1.8-3.6,2.2-4.4
			c0.7-1.3,2-3.6,2.7-5c0.6-1.2,1.9-3.1,2.6-4.3c0.7-1.2,1.4-2.9,2.1-4.1c1.1-0.7,2.3-1.5,3.5-2.2c0,1.3,0.1,2.7,0.2,4
			c-0.4,0.8-1.3,2.3-1.7,3c-0.6,1-2.1,3.4-2.6,4.3c-0.4,0.8-0.9,1.9-1.4,2.9c0.9,0.4,1.8,0.9,2.7,1.4c0.4-0.7,0.7-1.5,1-2
			c0.7-1.1,2-3.1,2.7-4.3c0.7-1.2,1.5-2.9,2.1-4.1c1.1-0.8,2.3-1.5,3.6-2.2c-0.1,1.3,0.1,2.6,0.2,4c-0.4,0.8-1.4,2.2-1.8,3
			c-0.6,1-2.2,3.3-2.7,4.3c-0.6,1.1-1.4,3-2,4c-0.9,1.6-2.3,3.7-3.1,5.1c-1,1.8-2.3,4.3-3.2,6C620.1,301.9,622.4,298.2,620.8,301
			L620.8,301z"/>
		<path id="_162875104" fill="#969594" d="M608.4,295c-1.3-0.6-2.4-1.2-3.6-1.8c2.1-4.2-0.8,1.7,0.9-1.7c0.4-0.7,1.2-2.5,2.2-4.3
			c0.9-1.8,1.9-3.6,2.3-4.4c0.2-0.5,0.5-1.1,0.9-1.8c-0.9-0.4-1.8-0.9-2.7-1.3c-0.8,1.6-2.1,3.5-2.8,4.9c-0.9,1.8-2.1,4.4-2.9,6.1
			c-1,2.2,1.1-1.6-0.4,1.2c-1.2-0.6-2.4-1.2-3.7-1.8c2.1-4.2-0.8,1.7,0.9-1.7c0.4-0.7,1.3-2.5,2.2-4.3c0.9-1.8,1.7-3.6,2.1-4.4
			c0.7-1.3,1.8-3.7,2.5-5c0.6-1.2,1.8-3.2,2.5-4.4c0.6-1.2,1.3-3,2-4.2c1.1-0.7,2.3-1.4,3.5-2.2c0,1.3,0.2,2.7,0.3,4
			c-0.4,0.8-1.3,2.3-1.7,3c-0.5,1-1.9,3.4-2.4,4.4c-0.4,0.8-1,2-1.4,3c0.8,0.4,1.7,0.8,2.6,1.3c0.4-0.7,0.7-1.4,1-1.9
			c0.7-1.2,1.9-3.1,2.5-4.3c0.6-1.2,1.4-3,2-4.2c1.2-0.7,2.4-1.4,3.6-2.2c0,1.3,0.1,2.7,0.2,4c-0.4,0.7-1.3,2.3-1.7,3
			c-0.5,1-2.1,3.4-2.6,4.3c-0.6,1.1-1.4,3-2,4.1c-0.9,1.7-2.3,3.7-3.1,5.2c-0.9,1.8-2,4.4-2.9,6.1
			C607.8,295.9,609.9,292.1,608.4,295z"/>
	</g>
	<path fill="#969594" d="M238.9,231.1c-1.4,0.2-3,0.4-4.5,0.6c-0.9-4.9,0.4,2-0.3-2c-0.1-0.8-0.6-2.9-1-4.9
		c-0.4-2.1-0.9-4.2-1.1-5.1c-0.3-1.5-0.9-4.3-1.1-5.8c-0.2-1.4-0.5-3.8-0.8-5.2c-0.3-1.4-0.8-3.3-1-4.8c0.4-1.3,1-2.6,1.7-3.9
		c0.9,1.1,1.9,2.2,3,3.3c0.1,0.9,0.4,2.7,0.5,3.6c0.2,1.1,0.6,4.1,0.8,5.2c0.2,1,0.5,2.6,0.9,3.8c1-0.1,2.2-0.3,3.2-0.4
		c-0.2-0.9-0.3-1.8-0.4-2.5c-0.2-1.4-0.5-3.8-0.7-5.2c-0.3-1.4-0.8-3.3-1-4.8c0.6-1.3,1.1-2.6,1.7-3.9c1,1.1,2,2.2,3.1,3.3
		c0.1,0.9,0.2,2.7,0.4,3.6c0.2,1.1,0.6,4.1,0.8,5.2c0.2,1.3,0.7,3.4,0.9,4.7c0.3,2,0.5,4.5,0.8,6.2c0.4,2.1,1.1,5,1.5,6.9
		c0.5,2.5-0.2-2,0.3,1.3c-1.4,0.2-3.1,0.4-4.4,0.6c-0.9-4.9,0.3,1.9-0.4-2c-0.1-0.8-0.6-2.9-0.9-4.9c-0.4-2.1-0.9-4.2-1-5.1
		c-0.1-0.5-0.2-1.1-0.3-1.8c-1.1,0.1-2.2,0.3-3.4,0.4c0.3,1.8,0.5,4,0.8,5.5c0.4,2.1,1.1,5,1.5,6.9
		C239,232.3,238.3,227.7,238.9,231.1L238.9,231.1z"/>
	<path fill="#969594" d="M232,232.1c-1.6,0.2-3.1,0.4-4.5,0.6c-1.1-4.9,0.4,1.9-0.4-2c-0.2-0.8-0.6-2.9-1-5c-0.4-2.1-1-4.2-1.2-5.1
		c-0.1-0.5-0.2-1-0.4-1.7c-0.9,0.1-2,0.3-3.1,0.4c0.4,1.8,0.6,4,0.9,5.5c0.4,2.1,1.3,5,1.8,6.9c0.7,2.5-0.2-2,0.5,1.3
		c-1.4,0.2-3.1,0.4-4.5,0.6c-1-4.9,0.5,2-0.3-2c-0.2-0.8-0.7-2.9-1.1-4.9c-0.5-2.1-1-4.2-1.2-5.1c-0.3-1.5-1-4.3-1.4-5.8
		c-0.3-1.4-0.7-3.8-0.9-5.2c-0.3-1.4-0.8-3.4-1.1-4.8c0.4-1.3,0.9-2.6,1.5-3.9c1,1.1,2.1,2.2,3.1,3.3c0.3,0.9,0.5,2.7,0.7,3.6
		c0.2,1.1,0.5,4.1,0.8,5.2c0.2,1,0.7,2.5,1.1,3.7c0.9-0.1,2-0.3,3.1-0.4c-0.2-1-0.5-1.9-0.6-2.6c-0.3-1.4-0.4-3.8-0.7-5.2
		c-0.3-1.4-0.9-3.3-1.2-4.8c0.5-1.3,1.1-2.6,1.5-3.9c1.1,1.1,2.2,2.2,3.2,3.3c0.2,0.9,0.4,2.7,0.6,3.6c0.2,1.1,0.6,4.1,0.8,5.2
		c0.2,1.3,0.9,3.4,1.1,4.6c0.4,1.9,0.6,4.5,0.9,6.2c0.4,2.1,1.4,5,1.8,6.9C232.2,233.3,231.3,228.8,232,232.1L232,232.1z"/>
	<path fill="#969594" d="M178.8,240.8c-1.5,0.2-2.9,0.5-4.4,0.7c-1.1-4.8,0.6,1.9-0.4-2c-0.2-0.8-0.8-2.8-1.3-4.9
		c-0.5-2-1-4.1-1.2-5.1c-0.1-0.5-0.4-1.2-0.6-2c-1,0.2-2.1,0.4-3.1,0.6c0.4,1.9,0.8,4.2,1.2,5.8c0.5,2.1,1.5,4.9,2,6.8
		c0.7,2.4-0.2-2,0.5,1.3c-1.5,0.3-2.9,0.6-4.4,0.9c-1.2-4.8,0.5,1.9-0.5-2c-0.2-0.8-0.8-2.8-1.3-4.9c-0.6-2-1.1-4.1-1.3-5
		c-0.4-1.5-1.2-4.2-1.6-5.7c-0.4-1.3-0.7-3.8-1-5.1c-0.4-1.4-1-3.3-1.3-4.7c0.5-1.4,0.9-2.7,1.3-4.1c1,1,2.1,2,3.1,3.1
		c0.2,0.9,0.6,2.7,0.8,3.6c0.3,1.1,0.8,4,1.1,5.1c0.3,0.9,0.6,2.2,1,3.4c1-0.2,2-0.4,3.1-0.5c-0.2-0.8-0.4-1.6-0.6-2.2
		c-0.4-1.4-0.7-3.8-1-5.2c-0.3-1.4-0.9-3.3-1.3-4.7c0.5-1.3,0.9-2.7,1.4-4c1.1,1,2.2,2.1,3.1,3.2c0.2,0.9,0.6,2.7,0.8,3.6
		c0.3,1.1,0.7,4.1,1,5.2c0.3,1.3,1,3.4,1.3,4.6c0.5,1.9,0.8,4.5,1.2,6.2c0.5,2.1,1.4,4.9,1.9,6.9C179,242,178,237.6,178.8,240.8
		L178.8,240.8z"/>
	<path fill="#969594" d="M308.3,226.4c-1.6,0-3.1,0.1-4.6,0.1c-0.4-4.8,0.2,1.9-0.1-2c-0.1-0.8-0.4-2.9-0.5-4.9
		c-0.1-2.1-0.2-4.1-0.4-5.1c-0.1-0.5-0.2-1-0.2-1.7c-1.1,0-2.3,0-3.3,0.1c0.1,1.8,0,3.9,0.1,5.5c0.2,2.1,0.7,5,0.9,6.9
		c0.3,2.5-0.1-2,0.2,1.3c-1.5,0.1-3.1,0.1-4.7,0.1c-0.4-4.8,0.3,1.9,0-2c-0.1-0.8-0.3-2.9-0.5-4.9c-0.2-2.1-0.5-4.2-0.6-5.1
		c-0.2-1.5-0.4-4.3-0.6-5.8c-0.1-1.4-0.2-3.8-0.3-5.2c-0.1-1.4-0.4-3.4-0.5-4.8c0.6-1.2,1.4-2.4,2.1-3.7c0.9,1.2,1.8,2.4,2.8,3.6
		c0.1,0.9,0.1,2.7,0.2,3.6c0.1,1.1,0.1,4,0.2,5.2c0.1,1,0.3,2.6,0.5,3.8c1,0,2.2-0.1,3.3-0.1c0-0.9-0.1-1.9-0.2-2.6
		c-0.1-1.4-0.2-3.8-0.2-5.2c-0.1-1.4-0.4-3.3-0.5-4.7c0.7-1.2,1.4-2.4,2.3-3.7c0.7,1.2,1.7,2.4,2.6,3.6c0.1,0.9,0.1,2.7,0.2,3.6
		c0.1,1.1-0.1,4,0,5.1c0.1,1.3,0.5,3.4,0.6,4.6c0.1,1.9-0.1,4.4,0.1,6.1c0.1,2.1,0.7,5,0.8,6.9C308.2,227.6,308.1,223.1,308.3,226.4
		L308.3,226.4z"/>
	<path fill="#969594" d="M293.3,226.5c-1.6,0-3.1,0.1-4.6,0.1c-0.4-4.8,0.3,1.9-0.1-2c-0.1-0.8-0.3-2.9-0.6-4.9
		c-0.2-2-0.6-4.1-0.7-5.1c0-0.5-0.1-1-0.2-1.7c-1.1,0-2,0-3.1,0.1c0.2,1.9,0.3,4.1,0.4,5.8c0.2,2.1,0.7,5,1,6.9
		c0.4,2.5-0.1-2,0.3,1.3c-1.5,0.1-3.1,0.2-4.6,0.3c-0.5-4.9,0.3,1.9-0.1-2c-0.1-0.8-0.4-2.9-0.6-4.9c-0.2-2.1-0.5-4.2-0.6-5.1
		c-0.2-1.5-0.6-4.3-0.8-5.8c-0.2-1.4-0.2-3.8-0.4-5.2c-0.2-1.4-0.5-3.3-0.6-4.7c0.6-1.3,1.3-2.5,2-3.8c0.9,1.2,1.9,2.4,2.9,3.5
		c0.1,0.9,0.1,2.7,0.2,3.6c0.1,1.1,0.3,4,0.4,5.2c0.1,0.9,0.3,2.3,0.5,3.5c0.9,0,1.9-0.1,3-0.1c0-1-0.1-1.9-0.2-2.6
		c-0.1-1.4,0-3.8-0.2-5.2c-0.2-1.4-0.6-3.3-0.7-4.7c0.7-1.2,1.4-2.4,2-3.6c1,1.2,2,2.4,2.9,3.5c0.1,0.9,0.1,2.7,0.2,3.6
		c0.1,1.1,0.2,4,0.4,5.2c0.1,1.3,0.5,3.4,0.6,4.6c0.2,1.9,0.2,4.4,0.3,6.1c0.2,2.1,0.7,4.9,1,6.9C293.4,227.7,293,223.2,293.3,226.5
		L293.3,226.5z"/>
	<path fill="#969594" d="M278.5,227.3c-1.6,0.1-3.1,0.3-4.7,0.4c-0.6-4.9,0.4,2-0.1-2c-0.1-0.8-0.5-2.9-0.8-4.9
		c-0.3-2.1-0.6-4.2-0.7-5.1c-0.1-0.5-0.2-1.2-0.3-2c-1.2,0.1-2.3,0.2-3.5,0.3c0.2,1.9,0.3,4.3,0.6,6c0.3,2.1,0.9,5,1.2,6.9
		c0.4,2.5,0-2,0.4,1.3c-1.6,0.1-3.1,0.2-4.8,0.4c-0.6-4.9,0.5,1.9-0.1-2c-0.1-0.8-0.5-2.9-0.8-4.9c-0.3-2.1-0.6-4.2-0.8-5.1
		c-0.3-1.5-0.8-4.3-0.9-5.8c-0.1-1.4-0.4-3.8-0.5-5.2c-0.2-1.4-0.6-3.3-0.8-4.8c0.7-1.3,1.3-2.5,1.9-3.8c1,1.2,2,2.3,2.9,3.4
		c0.2,0.9,0.3,2.7,0.4,3.6c0.1,1.1,0.3,4.1,0.5,5.2c0.1,0.9,0.4,2.2,0.5,3.3c1.2-0.1,2.3-0.2,3.5-0.3c-0.1-0.9-0.2-1.7-0.3-2.3
		c-0.2-1.4-0.3-3.8-0.5-5.2c-0.2-1.4-0.5-3.3-0.6-4.8c0.7-1.3,1.4-2.5,1.9-3.8c1,1.2,1.9,2.3,2.8,3.4c0.1,0.9,0.3,2.7,0.4,3.6
		c0.1,1.1,0.3,4.1,0.4,5.2c0.1,1.3,0.6,3.4,0.7,4.6c0.2,1.9,0.2,4.4,0.5,6.2c0.3,2.1,0.9,5,1.1,6.9
		C278.5,228.5,278.2,224,278.5,227.3L278.5,227.3z"/>
	<path fill="#969594" d="M262.8,228.7c-1.6,0.1-3.1,0.2-4.6,0.3c-0.7-4.9,0.4,2-0.1-2c-0.1-0.8-0.6-2.9-0.9-5
		c-0.3-2.1-0.7-4.2-0.9-5.1c-0.1-0.5-0.2-1.3-0.2-2c-1.2,0.1-2.3,0.2-3.4,0.3c0.2,1.9,0.4,4.2,0.7,5.9c0.3,2.1,1.2,5,1.5,7
		c0.5,2.5-0.2-2,0.3,1.3c-1.6,0.1-3.1,0.2-4.6,0.3c-0.8-4.9,0.3,1.9-0.3-2c-0.1-0.8-0.5-2.9-0.8-5c-0.4-2.1-0.9-4.2-1-5.1
		c-0.2-1.5-0.8-4.3-1.1-5.9c-0.2-1.4-0.3-3.8-0.5-5.2c-0.3-1.4-0.8-3.4-1-4.8c0.7-1.3,1.3-2.5,1.8-3.8c1,1.2,2.1,2.3,2.9,3.5
		c0.1,0.9,0.4,2.7,0.5,3.6c0.2,1.1,0.4,4.1,0.6,5.2c0.2,0.9,0.4,2.3,0.7,3.4c1-0.1,2.2-0.2,3.3-0.2c-0.1-0.8-0.2-1.7-0.3-2.3
		c-0.2-1.4-0.4-3.8-0.6-5.2c-0.2-1.4-0.7-3.3-0.9-4.8c0.6-1.3,1.3-2.5,1.8-3.8c1,1.2,2,2.3,3,3.5c0.1,0.9,0.2,2.7,0.4,3.6
		c0.2,1.2,0.4,4.1,0.6,5.2c0.2,1.3,0.7,3.4,0.9,4.6c0.3,2,0.3,4.5,0.6,6.2c0.3,2.1,1.1,5,1.4,6.9
		C262.8,229.9,262.3,225.4,262.8,228.7L262.8,228.7z"/>
	<path fill="#969594" d="M390.6,231.2c-1.5-0.1-3-0.2-4.6-0.4c0.5-4.7-0.1,1.9,0.3-1.9c0.1-0.8,0.2-2.8,0.5-4.8c0.2-2,0.3-4.1,0.4-5
		c0.1-1.4,0.4-4.2,0.5-5.7c0.1-1.3,0.6-3.7,0.7-5c0.1-1.4,0.2-3.3,0.3-4.7c1-1.1,1.8-2.2,2.7-3.3c0.7,1.3,1.5,2.6,2,3.8
		c-0.1,0.9-0.3,2.6-0.4,3.5c-0.1,1.1-0.6,3.9-0.8,5c-0.1,1-0.2,2.5-0.3,3.7c1.2,0.1,2.2,0.3,3.4,0.4c0.1-0.9,0.1-1.8,0.2-2.4
		c0.2-1.3,0.7-3.6,0.9-4.9c0.1-1.4,0.2-3.3,0.3-4.6c1-1,1.9-2.1,2.9-3.1c0.6,1.3,1.2,2.5,1.9,3.8c-0.1,0.9-0.4,2.6-0.5,3.4
		c-0.2,1.1-0.7,3.9-0.8,5c-0.2,1.2-0.2,3.4-0.3,4.5c-0.3,1.9-0.8,4.2-1,5.9c-0.3,2-0.4,4.9-0.6,6.7c-0.2,2.4,0.4-1.9,0,1.3
		c-1.5-0.2-2.9-0.4-4.5-0.6c0.6-4.7-0.1,1.9,0.3-1.9c0.1-0.8,0.3-2.8,0.5-4.8c0.2-2,0.4-4,0.5-4.9c0.1-0.5,0.1-1.1,0.2-1.7
		c-1.2-0.2-2.3-0.3-3.4-0.4c-0.3,1.8-0.6,3.8-0.8,5.3c-0.2,2-0.4,4.9-0.5,6.8C390.4,232.4,391,228,390.6,231.2L390.6,231.2z"/>
	<path fill="#969594" d="M383.5,230.7c-1.5-0.1-3.1-0.3-4.7-0.4c0.5-4.7,0,1.9,0.3-1.9c0.1-0.8,0.1-2.8,0.3-4.9c0.2-2,0.3-4.1,0.4-5
		c0-0.5,0.1-1,0.2-1.6c-1.2-0.1-2.3-0.2-3.4-0.3c-0.2,1.8-0.7,3.8-0.8,5.3c-0.1,2.1-0.1,4.9-0.2,6.8c-0.2,2.4,0.3-1.9,0.1,1.3
		c-1.6-0.1-3.1-0.2-4.6-0.4c0.4-4.7-0.1,1.9,0.2-2c0.1-0.8,0.2-2.8,0.3-4.9c0.1-2,0.3-4.1,0.4-5c0.1-1.4,0.2-4.2,0.3-5.7
		c0.1-1.3,0.4-3.7,0.6-5c0.1-1.4,0.1-3.3,0.2-4.7c0.9-1.1,1.7-2.2,2.7-3.3c0.7,1.2,1.4,2.5,2.1,3.7c-0.1,0.9-0.3,2.6-0.3,3.5
		c-0.1,1.1-0.5,3.9-0.6,5c-0.1,1-0.1,2.5-0.1,3.7c1,0.1,2.2,0.2,3.3,0.3c0.1-0.9,0.1-1.9,0.2-2.5c0.2-1.3,0.6-3.7,0.7-5
		c0.1-1.4,0.2-3.3,0.3-4.6c0.8-1.1,1.6-2.2,2.7-3.3c0.6,1.2,1.3,2.5,2.1,3.7c-0.1,0.9-0.4,2.6-0.5,3.5c-0.1,1.1-0.5,4-0.6,5
		c-0.1,1.3-0.2,3.4-0.3,4.6c-0.2,1.9-0.6,4.3-0.8,6c-0.2,2-0.3,4.9-0.5,6.8C383.3,231.9,383.9,227.5,383.5,230.7L383.5,230.7z"/>
	<path fill="#969594" d="M368.7,229.2c-1.6-0.1-3.1-0.2-4.6-0.3c0.3-4.7-0.1,1.9,0.2-1.9c0.1-0.8,0-2.8,0.2-4.9c0.1-2,0.3-4.1,0.3-5
		c0-0.4,0-1,0.1-1.6c-1.1-0.1-2-0.2-3.1-0.3c-0.1,1.8-0.5,4-0.6,5.6c-0.1,2.1,0,4.9-0.1,6.8c-0.1,2.5,0.3-1.9,0.1,1.3
		c-1.5-0.1-3.1-0.2-4.7-0.4c0.3-4.8,0.1,1.9,0.2-2c0-0.8,0.1-2.8,0.2-4.9c0.1-2,0.2-4.1,0.2-5c0-1.4,0.2-4.2,0.2-5.7
		c0.1-1.3,0.4-3.7,0.5-5.1c0.1-1.4,0.1-3.3,0.1-4.7c0.8-1.1,1.7-2.2,2.6-3.3c0.8,1.3,1.5,2.5,2.2,3.7c-0.1,0.9-0.2,2.6-0.3,3.5
		c-0.1,1.1-0.5,4-0.5,5.1c-0.1,0.9-0.1,2.3-0.1,3.4c1,0.1,2.1,0.2,3,0.3c0.1-0.9,0.2-1.9,0.2-2.6c0-1.3,0.5-3.7,0.6-5
		c0.1-1.4-0.1-3.3,0.1-4.7c0.9-1.1,1.8-2.2,2.7-3.3c0.6,1.2,1.4,2.5,2.2,3.7c-0.1,0.9-0.3,2.6-0.3,3.5c0,1.1-0.6,3.9-0.7,5
		c-0.1,1.2,0,3.4-0.1,4.6c-0.1,1.9-0.7,4.3-0.8,6c-0.1,2.1,0,4.9-0.1,6.8C368.5,230.4,368.9,226,368.7,229.2L368.7,229.2z"/>
	<path fill="#969594" d="M442.9,239c-1.6-0.3-3-0.6-4.4-0.9c0.9-4.6-0.4,1.9,0.3-1.9c0.2-0.8,0.6-2.8,0.9-4.7c0.4-2,0.7-4,0.9-4.9
		c0.1-0.4,0.1-1,0.2-1.6c-1-0.2-2-0.4-3-0.6c-0.3,1.8-0.9,3.9-1.2,5.5c-0.4,2-0.7,4.8-1,6.7c-0.4,2.4,0.5-1.9-0.1,1.3
		c-1.4-0.3-2.9-0.6-4.4-0.8c0.8-4.6-0.3,1.9,0.3-1.9c0.1-0.8,0.5-2.8,0.8-4.7c0.4-2,0.6-4,0.8-4.9c0.3-1.4,0.7-4.1,1-5.6
		c0.2-1.3,0.8-3.6,1-4.9c0.2-1.4,0.4-3.2,0.6-4.6c1-1,1.9-2,3-3c0.5,1.3,1,2.6,1.7,3.9c-0.2,0.8-0.6,2.6-0.8,3.4
		c-0.3,1.1-0.9,3.8-1.1,4.9c-0.2,0.9-0.3,2.2-0.5,3.4c1,0.2,2,0.4,3.1,0.6c-0.1-0.9,0.1-1.9,0.3-2.5c0.4-1.3,0.9-3.6,1.2-4.9
		c0.3-1.4,0.5-3.2,0.8-4.6c0.9-1,2-2,3-3c0.4,1.3,1,2.6,1.6,3.9c-0.2,0.8-0.6,2.6-0.8,3.4c-0.2,1.1-1,3.8-1.2,4.9
		c-0.3,1.2-0.4,3.3-0.6,4.5c-0.3,1.9-1.2,4.2-1.5,5.8c-0.3,2-0.6,4.8-0.9,6.7C442.5,240.1,443.5,235.8,442.9,239L442.9,239z"/>
	<path fill="#969594" d="M428.8,236.3c-1.6-0.3-3.1-0.5-4.5-0.7c0.8-4.7-0.2,1.9,0.5-1.9c0.1-0.8,0.4-2.8,0.7-4.8
		c0.3-2,0.6-4,0.8-4.9c0.1-0.5,0.1-1.2,0.2-1.9c-1.1-0.2-2.3-0.3-3.4-0.5c-0.3,1.9-0.8,4.1-1.1,5.8c-0.4,2-0.6,4.9-0.8,6.7
		c-0.3,2.4,0.5-1.9-0.1,1.3c-1.6-0.2-3.1-0.4-4.5-0.6c0.7-4.7-0.2,1.9,0.3-1.9c0.1-0.8,0.5-2.8,0.8-4.8c0.3-2,0.4-4.1,0.5-5
		c0.2-1.4,0.5-4.1,0.8-5.7c0.2-1.3,0.9-3.6,1.1-4.9c0.2-1.4,0.3-3.3,0.5-4.6c0.9-1.1,1.9-2.1,2.9-3.2c0.5,1.3,1.3,2.6,1.8,3.8
		c-0.2,0.9-0.6,2.6-0.7,3.4c-0.2,1.1-0.8,3.9-0.9,5c-0.1,0.9-0.2,2.1-0.4,3.2c1.1,0.1,2.3,0.3,3.4,0.5c0.2-0.8,0.3-1.6,0.4-2.2
		c0.2-1.3,1-3.6,1.2-4.9c0.2-1.4,0.3-3.3,0.5-4.6c1-1,2-2,3-3.1c0.6,1.3,1.2,2.6,1.8,3.9c-0.1,0.8-0.6,2.6-0.8,3.4
		c-0.2,1.1-0.8,3.9-1,4.9c-0.2,1.2-0.4,3.3-0.6,4.5c-0.4,1.9-1,4.2-1.3,5.9c-0.4,2-0.5,4.9-0.8,6.7
		C428.4,237.4,429.3,233.2,428.8,236.3L428.8,236.3z"/>
	<path fill="#969594" d="M413.2,234.3c-1.5-0.2-3-0.4-4.5-0.6c0.7-4.7-0.2,1.9,0.3-1.9c0.1-0.8,0.3-2.8,0.6-4.8c0.2-2,0.4-4.1,0.5-5
		c0.1-0.5,0.2-1.2,0.2-2c-1.1-0.2-2-0.3-3.1-0.4c-0.2,1.8-0.9,4-1.1,5.6c-0.3,2-0.3,4.9-0.5,6.8c-0.3,2.4,0.4-1.9-0.1,1.3
		c-1.6-0.2-3.1-0.4-4.5-0.6c0.6-4.7-0.2,1.9,0.3-1.9c0.1-0.8,0.3-2.8,0.5-4.8c0.2-2,0.5-4.1,0.6-5c0.2-1.4,0.4-4.2,0.6-5.7
		c0.2-1.3,0.6-3.7,0.8-5c0.2-1.4,0.3-3.3,0.5-4.7c0.9-1.1,1.9-2.2,2.9-3.2c0.5,1.3,1.2,2.6,1.9,3.8c-0.1,0.9-0.4,2.6-0.6,3.5
		c-0.2,1.1-0.7,3.9-0.9,5c-0.1,0.9-0.1,2.3-0.3,3.4c1,0.1,2,0.3,3.1,0.4c0.1-0.8,0.3-1.6,0.3-2.2c0.2-1.3,0.8-3.6,1-5
		c0.2-1.4,0.2-3.3,0.4-4.7c1-1,1.9-2.1,2.9-3.2c0.7,1.3,1.4,2.6,1.9,3.8c-0.2,0.9-0.5,2.6-0.6,3.5c-0.2,1.1-0.7,3.9-0.9,5
		c-0.2,1.2-0.3,3.4-0.5,4.5c-0.3,1.9-0.9,4.3-1.2,5.9c-0.3,2-0.5,4.9-0.6,6.8C413,235.5,413.7,231.1,413.2,234.3L413.2,234.3z"/>
	<path fill="#969594" d="M529.2,261.7c-1.3-0.4-2.6-0.8-4-1.3c1.6-4.4-0.6,1.8,0.8-1.8c0.3-0.8,0.8-2.7,1.5-4.6
		c0.7-1.9,1.3-3.8,1.6-4.7c0.5-1.3,1.3-3.9,1.9-5.4c0.5-1.2,1.4-3.4,1.9-4.6c0.5-1.3,0.9-3.1,1.4-4.4c1.1-0.9,2.2-1.8,3.3-2.7
		c0.2,1.3,0.6,2.7,0.9,4c-0.3,0.8-1,2.4-1.3,3.2c-0.4,1-1.5,3.6-1.9,4.7c-0.3,0.9-0.8,2.4-1.1,3.5c1,0.3,1.9,0.7,2.9,1
		c0.2-0.9,0.5-1.7,0.8-2.3c0.5-1.2,1.4-3.4,1.9-4.6c0.5-1.3,1.1-3.1,1.6-4.4c1-0.9,2.2-1.7,3.3-2.6c0.3,1.3,0.5,2.7,0.8,4
		c-0.3,0.8-1,2.5-1.3,3.3c-0.4,1-1.6,3.6-2,4.6c-0.5,1.2-1.1,3.2-1.5,4.3c-0.6,1.8-1.8,3.9-2.4,5.5c-0.7,1.9-1.5,4.7-2.1,6.5
		c-0.8,2.3,0.8-1.8-0.3,1.2c-1.3-0.5-2.6-1-3.9-1.5c1.7-4.4-0.6,1.8,0.7-1.8c0.3-0.8,1-2.6,1.7-4.5c0.6-1.9,1.3-3.8,1.6-4.7
		c0.2-0.4,0.4-1,0.5-1.7c-0.9-0.3-1.9-0.7-2.7-1c-0.6,1.6-1.6,3.5-2.1,4.9c-0.7,1.9-1.4,4.6-2,6.4
		C528.7,262.8,530.3,258.7,529.2,261.7L529.2,261.7z"/>
	<path fill="#969594" d="M523,260c-1.3-0.4-2.7-0.8-4-1.2c1.5-4.5-0.5,1.8,0.8-1.8c0.3-0.8,0.8-2.7,1.5-4.6c0.6-1.9,1.2-3.9,1.5-4.7
		c0.2-0.4,0.3-0.9,0.5-1.5c-1-0.3-2-0.6-2.9-0.9c-0.5,1.7-1.4,3.6-1.8,5c-0.6,2-1.4,4.7-2,6.5c-0.7,2.3,0.8-1.8-0.2,1.2
		c-1.3-0.4-2.7-0.8-4-1.2c1.5-4.5-0.6,1.8,0.6-1.8c0.3-0.8,0.8-2.7,1.5-4.6c0.6-1.9,1.2-3.8,1.5-4.7c0.4-1.4,1.3-3.9,1.7-5.4
		c0.4-1.3,1.2-3.4,1.7-4.7c0.4-1.3,0.9-3.1,1.3-4.4c1.1-0.9,2.2-1.8,3.3-2.7c0.3,1.3,0.7,2.6,1,4c-0.2,0.8-0.9,2.5-1.2,3.3
		c-0.4,1.1-1.4,3.7-1.8,4.7c-0.3,0.9-0.7,2.4-1.1,3.5c1,0.3,2,0.6,2.9,0.9c0.2-0.9,0.6-1.8,0.8-2.4c0.5-1.2,1.4-3.4,1.8-4.7
		c0.4-1.3,1-3.1,1.5-4.4c1-0.9,2.1-1.8,3.2-2.7c0.3,1.3,0.6,2.6,0.9,3.9c-0.2,0.8-0.9,2.5-1.2,3.3c-0.4,1-1.5,3.7-1.9,4.7
		c-0.5,1.2-0.9,3.2-1.3,4.3c-0.6,1.8-1.7,4-2.3,5.6c-0.6,1.9-1.3,4.7-1.9,6.5C522.5,261,524.1,257,523,260L523,260z"/>
	<path fill="#969594" d="M510.2,255.7c-1.4-0.4-2.7-0.8-4.1-1.2c1.5-4.4-0.6,1.8,0.6-1.8c0.3-0.8,0.8-2.7,1.3-4.6
		c0.6-1.9,1.2-3.8,1.5-4.7c0.1-0.4,0.2-1,0.5-1.6c-0.9-0.3-1.9-0.6-2.7-0.8c-0.6,1.7-1.6,3.7-2,5.2c-0.6,1.9-1.1,4.7-1.6,6.5
		c-0.7,2.3,0.6-1.8-0.3,1.2c-1.3-0.4-2.7-0.8-4-1.2c1.4-4.4-0.5,1.8,0.6-1.8c0.2-0.8,0.8-2.7,1.3-4.6c0.6-1.9,1-3.9,1.3-4.7
		c0.5-1.4,1.2-3.9,1.6-5.4c0.4-1.3,1.2-3.4,1.6-4.7c0.4-1.3,0.8-3.1,1.2-4.4c1-0.9,2.2-1.8,3.3-2.7c0.2,1.3,0.6,2.6,1,4
		c-0.2,0.8-0.9,2.4-1.2,3.3c-0.4,1-1.3,3.7-1.6,4.7c-0.3,0.9-0.6,2.2-0.9,3.3c1,0.3,1.9,0.6,2.8,0.8c0.2-0.9,0.5-1.7,0.7-2.4
		c0.4-1.2,1.3-3.4,1.7-4.7c0.4-1.3,0.9-3.1,1.3-4.4c1-0.9,2.1-1.8,3.1-2.7c0.3,1.3,0.7,2.6,1,3.9c-0.2,0.8-0.8,2.5-1.1,3.3
		c-0.4,1-1.4,3.7-1.7,4.7c-0.4,1.2-0.9,3.2-1.2,4.3c-0.5,1.8-1.6,4-2.1,5.6c-0.6,1.9-1.3,4.7-1.8,6.5
		C509.7,256.8,511.2,252.7,510.2,255.7L510.2,255.7z"/>
	<path fill="#969594" d="M497.1,251.8c-1.4-0.4-2.7-0.8-4.2-1.2c1.3-4.5-0.5,1.8,0.7-1.8c0.3-0.8,0.7-2.7,1.2-4.6
		c0.6-1.9,1.1-3.9,1.3-4.8c0.1-0.5,0.3-1.1,0.6-1.8c-1.1-0.3-2.2-0.6-3.2-0.8c-0.6,1.8-1.4,3.9-1.8,5.5c-0.5,1.9-1.1,4.7-1.6,6.5
		c-0.7,2.3,0.8-1.8-0.1,1.3c-1.5-0.4-2.8-0.7-4.2-1c1.3-4.5-0.5,1.8,0.5-1.8c0.2-0.8,0.8-2.7,1.3-4.6c0.5-1.9,1-3.9,1.2-4.8
		c0.4-1.4,1.1-4,1.5-5.4c0.4-1.3,1.2-3.4,1.6-4.7c0.4-1.3,0.7-3.1,1.1-4.5c1-0.9,2-1.9,3.1-2.8c0.4,1.3,0.9,2.6,1.2,3.9
		c-0.2,0.8-0.8,2.5-1,3.3c-0.3,1.1-1.3,3.7-1.6,4.8c-0.2,0.8-0.5,2-0.8,3.1c1,0.3,2.1,0.5,3.2,0.8c0.2-0.8,0.4-1.6,0.6-2.2
		c0.4-1.2,1.3-3.4,1.6-4.7c0.4-1.3,0.8-3.1,1.2-4.4c1-0.9,2.2-1.8,3.2-2.7c0.3,1.3,0.8,2.7,1.1,4c-0.2,0.8-0.9,2.5-1.1,3.3
		c-0.3,1-1.3,3.7-1.7,4.7c-0.4,1.2-0.7,3.2-1,4.3c-0.6,1.8-1.4,4-1.9,5.6c-0.6,1.9-1.3,4.6-1.7,6.5
		C496.7,252.8,498.1,248.8,497.1,251.8L497.1,251.8z"/>
	<g id="_127433704">
		<path id="_127440232" fill="#969594" d="M589.7,286.2c-1.2-0.5-2.3-1-3.5-1.5c2.2-4.3-0.7,1.8,1-1.8c0.4-0.7,1.2-2.6,2.1-4.5
			c0.9-1.9,1.7-3.8,2.1-4.6c0.7-1.3,1.8-3.9,2.4-5.3c0.6-1.2,1.8-3.3,2.4-4.5c0.6-1.3,1.3-3.1,1.9-4.3c1.2-0.8,2.2-1.7,3.4-2.5
			c0.1,1.3,0.2,2.7,0.3,4c-0.3,0.8-1.3,2.4-1.7,3.2c-0.5,1-2,3.6-2.4,4.6c-0.4,0.9-1,2.3-1.5,3.4c0.9,0.4,1.7,0.7,2.6,1.1
			c0.3-0.8,0.7-1.7,1-2.3c0.6-1.2,1.9-3.3,2.5-4.6c0.6-1.3,1.4-3,2-4.3c1.1-0.9,2.3-1.7,3.4-2.5c0.1,1.3,0.1,2.7,0.2,4
			c-0.4,0.8-1.3,2.4-1.7,3.2c-0.5,1-2,3.6-2.5,4.6c-0.6,1.1-1.4,3.2-2,4.2c-0.9,1.8-2.2,3.9-3,5.4c-0.9,1.9-2,4.6-2.9,6.4
			c-1.1,2.3,1-1.7-0.4,1.2c-1.2-0.5-2.4-1-3.6-1.6c2.2-4.3-0.9,1.8,0.9-1.8c0.4-0.8,1.4-2.6,2.3-4.4c0.9-1.9,1.7-3.8,2.2-4.6
			c0.2-0.4,0.5-1,0.8-1.6c-0.8-0.3-1.6-0.7-2.5-1.1c-0.8,1.6-1.9,3.4-2.6,4.8c-1,1.9-2,4.6-2.8,6.3
			C589.2,287.3,591.2,283.3,589.7,286.2L589.7,286.2z"/>
		<path id="_127442136" fill="#969594" d="M584.3,284c-1.2-0.5-2.3-1-3.5-1.6c2-4.4-0.8,1.8,0.9-1.8c0.4-0.7,1.1-2.6,2-4.5
			c0.8-1.9,1.7-3.8,2.2-4.6c0.2-0.4,0.4-0.9,0.6-1.5c-0.8-0.4-1.7-0.7-2.5-1.1c-0.8,1.6-1.9,3.5-2.5,4.8c-0.8,1.9-1.9,4.6-2.7,6.3
			c-1,2.3,1-1.7-0.4,1.2c-1.1-0.5-2.3-1.1-3.6-1.6c2-4.3-0.7,1.8,0.9-1.8c0.3-0.7,1.1-2.6,1.9-4.5c0.8-1.9,1.7-3.8,2.1-4.6
			c0.6-1.3,1.7-3.9,2.3-5.3c0.5-1.2,1.7-3.3,2.3-4.5c0.6-1.3,1.2-3.1,1.8-4.3c1.2-0.8,2.3-1.6,3.4-2.5c0.1,1.3,0.3,2.7,0.3,4
			c-0.3,0.8-1.2,2.4-1.6,3.2c-0.5,1-1.7,3.6-2.2,4.6c-0.5,0.9-1,2.4-1.5,3.4c0.8,0.3,1.6,0.7,2.5,1.1c0.4-0.9,0.8-1.7,1.1-2.4
			c0.6-1.2,1.7-3.3,2.3-4.6c0.6-1.3,1.4-3,2-4.3c1-0.8,2.2-1.7,3.3-2.5c0.1,1.3,0.2,2.7,0.3,4c-0.3,0.8-1.3,2.4-1.6,3.2
			c-0.5,1-1.9,3.6-2.4,4.6c-0.6,1.2-1.4,3.2-1.9,4.2c-0.8,1.8-2.1,3.9-2.9,5.5c-0.9,1.9-2,4.6-2.7,6.3
			C583.7,285,585.7,281,584.3,284L584.3,284z"/>
		<path id="_127443232" fill="#969594" d="M573,278.7c-1.2-0.5-2.4-1.1-3.6-1.6c1.9-4.3-0.8,1.7,0.8-1.8c0.4-0.8,1.1-2.6,1.9-4.5
			c0.8-1.9,1.7-3.7,2.1-4.6c0.2-0.4,0.3-0.9,0.6-1.5c-0.8-0.4-1.7-0.7-2.4-1c-0.9,1.7-1.9,3.6-2.6,5.1c-0.8,1.9-1.7,4.6-2.4,6.3
			c-1,2.3,0.9-1.7-0.5,1.2c-1.2-0.5-2.3-1.1-3.5-1.6c1.9-4.3-0.8,1.7,0.8-1.8c0.3-0.8,1.1-2.6,1.9-4.5c0.8-1.9,1.5-3.8,1.9-4.6
			c0.6-1.3,1.7-3.8,2.3-5.2c0.5-1.2,1.6-3.3,2.2-4.5c0.6-1.2,1.1-3.1,1.7-4.3c1.2-0.8,2.2-1.6,3.3-2.5c0.2,1.3,0.3,2.7,0.5,4
			c-0.3,0.8-1.2,2.4-1.5,3.2c-0.5,1-1.7,3.6-2.2,4.6c-0.4,0.8-0.9,2.1-1.3,3.2c0.9,0.4,1.6,0.7,2.5,1.1c0.3-0.9,0.6-1.7,0.9-2.3
			c0.6-1.2,1.7-3.3,2.3-4.5c0.6-1.3,1.2-3,1.8-4.3c1-0.8,2.2-1.7,3.3-2.5c0.1,1.3,0.3,2.7,0.5,4c-0.4,0.8-1.2,2.4-1.5,3.2
			c-0.4,1-1.8,3.6-2.3,4.6c-0.5,1.1-1.3,3.1-1.8,4.2c-0.8,1.7-2,3.9-2.7,5.4c-0.8,1.9-1.7,4.6-2.5,6.3
			C572.4,279.7,574.3,275.8,573,278.7L573,278.7z"/>
		<path id="_127439688" fill="#969594" d="M561.5,273.7c-1.2-0.5-2.5-0.9-3.7-1.4c1.8-4.4-0.7,1.8,0.9-1.8c0.3-0.7,1-2.6,1.7-4.5
			c0.8-1.9,1.5-3.8,1.9-4.6c0.2-0.5,0.5-1.1,0.8-1.7c-1-0.4-1.9-0.7-2.9-1.1c-0.8,1.7-1.8,3.8-2.4,5.3c-0.8,1.9-1.6,4.6-2.3,6.3
			c-0.9,2.3,0.9-1.7-0.4,1.2c-1.2-0.5-2.5-0.9-3.7-1.4c1.7-4.4-0.7,1.7,0.8-1.8c0.3-0.8,1-2.6,1.8-4.5c0.8-1.9,1.4-3.8,1.7-4.6
			c0.6-1.3,1.6-3.8,2.2-5.3c0.5-1.2,1.6-3.3,2.1-4.6c0.5-1.3,1.1-3.1,1.6-4.3c1-0.9,2.1-1.7,3.3-2.6c0.1,1.3,0.4,2.6,0.6,4
			c-0.3,0.8-1,2.4-1.4,3.2c-0.5,1-1.7,3.6-2.2,4.6c-0.3,0.8-0.7,2-1.1,3c0.9,0.3,1.9,0.7,2.9,1.1c0.3-0.8,0.6-1.6,0.8-2.1
			c0.6-1.2,1.7-3.3,2.2-4.6c0.5-1.3,1.2-3.1,1.7-4.3c1-0.9,2.2-1.7,3.4-2.5c0.1,1.3,0.3,2.6,0.6,3.9c-0.3,0.8-1.2,2.4-1.5,3.2
			c-0.5,1-1.8,3.6-2.3,4.6c-0.5,1.1-1.1,3.2-1.6,4.2c-0.8,1.7-1.9,3.9-2.6,5.5c-0.8,1.9-1.8,4.5-2.5,6.3
			C560.9,274.8,562.7,270.8,561.5,273.7L561.5,273.7z"/>
		<path id="_127439416" fill="#969594" d="M548.5,269.1c-1.3-0.5-2.5-0.9-3.8-1.4c1.7-4.4-0.6,1.8,0.8-1.8c0.3-0.7,1-2.6,1.7-4.5
			c0.7-1.9,1.5-3.8,1.8-4.6c0.2-0.5,0.4-1.1,0.7-1.8c-1-0.3-1.9-0.7-2.8-1c-0.6,1.7-1.7,3.7-2.3,5.2c-0.7,1.9-1.6,4.6-2.2,6.3
			c-0.8,2.3,0.9-1.7-0.2,1.2c-1.3-0.5-2.6-0.9-3.8-1.4c1.6-4.4-0.6,1.8,0.8-1.8c0.3-0.8,1-2.6,1.7-4.5c0.7-1.9,1.3-3.8,1.6-4.6
			c0.5-1.3,1.4-3.9,2-5.3c0.5-1.3,1.5-3.3,2-4.6c0.5-1.3,1-3.1,1.5-4.4c1-0.9,2.2-1.7,3.3-2.5c0.2,1.3,0.5,2.6,0.7,4
			c-0.3,0.8-1.1,2.4-1.4,3.2c-0.4,1-1.5,3.6-1.9,4.6c-0.3,0.8-0.8,2.1-1.1,3.1c0.9,0.3,1.8,0.7,2.7,1c0.3-0.8,0.6-1.5,0.8-2
			c0.5-1.2,1.5-3.3,2-4.6c0.5-1.3,1-3.1,1.6-4.3c1.1-0.8,2.2-1.7,3.3-2.5c0.1,1.3,0.4,2.6,0.6,4c-0.3,0.8-1,2.4-1.3,3.2
			c-0.4,1-1.7,3.6-2.1,4.6c-0.5,1.2-1.1,3.2-1.5,4.2c-0.7,1.8-1.9,3.9-2.5,5.5c-0.7,1.9-1.6,4.6-2.2,6.4
			C548,270.1,549.7,266.1,548.5,269.1L548.5,269.1z"/>
	</g>
	<g id="_169342088">
		<path id="_127401856" fill="#969594" d="M156.6,245.5c-1.3,0.3-2.7,0.7-4.2,1c-1.3-4.8,0.7,1.9-0.4-2c-0.2-0.8-0.8-2.8-1.5-4.9
			c-0.6-2-1.2-4.1-1.5-5c-0.4-1.4-1.3-4.2-1.7-5.7c-0.3-1.4-0.9-3.8-1.2-5.2c-0.4-1.4-1.1-3.3-1.5-4.7c0.3-1.4,0.7-2.7,1.2-4.1
			c1,1,2.1,2.1,3.2,3.1c0.2,0.9,0.6,2.7,0.9,3.6c0.3,1.1,1,4.1,1.3,5.2c0.2,1,0.8,2.5,1.2,3.7c1-0.2,2-0.5,3-0.7
			c-0.2-0.9-0.5-1.8-0.6-2.5c-0.4-1.4-0.9-3.8-1.2-5.2c-0.3-1.4-1-3.3-1.4-4.7c0.5-1.4,0.8-2.7,1.3-4.1c1,1,2.1,2.1,3.2,3.1
			c0.2,0.9,0.5,2.7,0.8,3.6c0.3,1.1,1,4.1,1.2,5.2c0.3,1.3,1,3.4,1.3,4.6c0.5,1.9,0.9,4.5,1.4,6.2c0.6,2.1,1.6,4.9,2.2,6.8
			c0.7,2.5-0.4-2,0.3,1.3c-1.3,0.3-2.8,0.7-4.2,1c-1.2-4.8,0.6,1.9-0.5-2c-0.2-0.8-0.8-2.8-1.4-4.9c-0.6-2-1.2-4.1-1.4-5
			c-0.1-0.5-0.3-1.1-0.5-1.8c-1,0.2-2.1,0.5-3.1,0.7c0.5,1.8,0.8,4,1.3,5.5c0.6,2.1,1.5,4.9,2.2,6.8
			C156.9,246.7,155.8,242.2,156.6,245.5L156.6,245.5z"/>
		<path id="_127376896" fill="#969594" d="M150.1,247.1c-1.4,0.3-2.8,0.7-4.2,1c-1.3-4.8,0.6,1.9-0.5-2c-0.2-0.8-0.9-2.8-1.5-4.9
			c-0.6-2-1.3-4.1-1.6-5c-0.1-0.5-0.3-1-0.5-1.7c-1,0.2-2,0.5-3.1,0.7c0.5,1.8,1,3.9,1.5,5.5c0.6,2.1,1.7,4.9,2.3,6.8
			c0.8,2.4-0.4-2,0.5,1.2c-1.3,0.3-2.7,0.6-4.1,1c-1.5-4.8,0.7,1.9-0.5-2c-0.2-0.8-1-2.8-1.6-4.8c-0.7-2-1.4-4.1-1.6-5
			c-0.4-1.4-1.4-4.2-1.8-5.7c-0.4-1.4-0.9-3.8-1.3-5.1c-0.4-1.4-1.2-3.3-1.6-4.7c0.3-1.3,0.8-2.7,1.1-4.1c1,1,2.2,2,3.3,3
			c0.2,0.9,0.7,2.7,0.9,3.6c0.3,1.1,1.1,4,1.4,5.2c0.3,1,0.8,2.5,1.2,3.7c1-0.2,2-0.5,3-0.7c-0.2-0.9-0.5-1.9-0.8-2.6
			c-0.4-1.4-0.9-3.8-1.3-5.1c-0.4-1.4-1.1-3.3-1.6-4.7c0.4-1.4,0.8-2.7,1.1-4.1c1,1,2.2,2,3.3,3c0.3,0.9,0.7,2.7,1,3.6
			c0.3,1.1,1,4,1.3,5.2c0.3,1.3,1.1,3.4,1.5,4.6c0.5,1.9,1,4.4,1.5,6.2c0.6,2.1,1.7,4.9,2.3,6.8
			C150.5,248.3,149.3,243.9,150.1,247.1L150.1,247.1z"/>
		<path id="_127374272" fill="#969594" d="M136.6,250.2c-1.4,0.4-2.8,0.8-4.1,1.2c-1.5-4.7,0.6,1.9-0.6-2c-0.2-0.8-1-2.8-1.6-4.8
			c-0.7-2-1.4-4-1.7-5c-0.1-0.4-0.3-1-0.5-1.6c-0.9,0.3-1.7,0.5-2.7,0.8c0.6,1.8,1.1,4.1,1.6,5.7c0.7,2,1.8,4.8,2.4,6.7
			c0.8,2.4-0.5-2,0.5,1.2c-1.3,0.4-2.7,0.8-4,1.2c-1.6-4.7,0.8,1.8-0.6-2c-0.3-0.8-1-2.8-1.6-4.8c-0.7-2-1.4-4-1.7-4.9
			c-0.5-1.4-1.4-4.1-1.9-5.6c-0.4-1.4-1.1-3.7-1.6-5.1c-0.4-1.4-1.2-3.2-1.6-4.6c0.2-1.4,0.6-2.7,0.9-4.1c0.9,1,2.1,1.9,3.2,2.9
			c0.3,0.9,0.8,2.7,1,3.5c0.3,1.1,1.2,4,1.5,5.1c0.3,0.9,0.9,2.3,1.2,3.4c0.9-0.3,1.9-0.5,2.7-0.8c-0.3-0.9-0.6-1.8-0.8-2.5
			c-0.4-1.4-1-3.7-1.4-5.1c-0.4-1.4-1.2-3.2-1.7-4.6c0.3-1.4,0.7-2.8,1-4.2c1.2,0.9,2.2,1.9,3.3,2.9c0.2,0.9,0.7,2.7,1,3.5
			c0.3,1.1,1.1,4,1.4,5.1c0.4,1.3,1.3,3.3,1.6,4.5c0.5,1.9,1.2,4.4,1.7,6.1c0.7,2,1.7,4.8,2.4,6.7
			C136.9,251.4,135.6,247,136.6,250.2L136.6,250.2z"/>
		<path id="_126701176" fill="#969594" d="M123.7,254.2c-1.5,0.4-2.8,0.8-4.1,1.1c-1.6-4.7,0.8,1.9-0.6-1.9
			c-0.3-0.8-1.1-2.8-1.8-4.8c-0.7-2-1.4-4-1.7-4.9c-0.2-0.5-0.4-1.2-0.7-1.9c-1,0.3-2,0.6-3,0.9c0.6,1.9,1.2,4.2,1.8,5.8
			c0.7,2,1.9,4.8,2.6,6.6c0.9,2.4-0.5-2,0.6,1.2c-1.4,0.4-2.7,0.8-4.1,1.1c-1.6-4.7,0.8,1.9-0.5-1.9c-0.3-0.8-1.1-2.8-1.8-4.7
			c-0.7-2-1.5-4-1.8-4.9c-0.5-1.4-1.6-4.1-2.1-5.6c-0.4-1.3-1.1-3.7-1.6-5c-0.5-1.3-1.2-3.2-1.7-4.6c0.3-1.4,0.6-2.8,0.9-4.1
			c1.1,0.9,2.2,1.9,3.3,2.9c0.2,0.8,0.8,2.6,1.1,3.5c0.4,1.1,1.2,4,1.6,5c0.3,0.9,0.8,2.1,1.2,3.2c1-0.3,2-0.6,3.1-0.9
			c-0.3-0.8-0.6-1.7-0.8-2.3c-0.4-1.3-1.1-3.7-1.6-5.1c-0.5-1.4-1.2-3.2-1.7-4.6c0.3-1.4,0.7-2.8,1-4.1c1,0.9,2.2,1.9,3.3,2.9
			c0.3,0.9,0.8,2.6,1.1,3.5c0.4,1.1,1.1,4,1.5,5.1c0.4,1.3,1.3,3.3,1.7,4.5c0.6,1.9,1.3,4.4,1.8,6.1c0.7,2,1.8,4.8,2.6,6.7
			C123.9,255.3,122.6,250.9,123.7,254.2L123.7,254.2z"/>
		<path id="_169389432" fill="#969594" d="M110,258.4c-1.4,0.4-2.7,0.7-4,1.1c-1.7-4.7,0.7,1.8-0.6-1.9c-0.3-0.8-1.2-2.8-1.9-4.7
			c-0.8-2-1.6-4-1.9-4.9c-0.2-0.5-0.5-1.2-0.8-1.9c-0.9,0.3-1.9,0.6-2.9,0.9c0.7,1.8,1.3,4.1,1.9,5.6c0.8,2,2,4.7,2.8,6.5
			c0.9,2.3-0.6-2,0.6,1.2c-1.3,0.5-2.6,0.9-3.8,1.3c-1.7-4.6,0.7,1.8-0.7-1.9c-0.3-0.8-1.1-2.7-1.9-4.7c-0.8-1.9-1.5-3.9-1.9-4.9
			c-0.5-1.4-1.6-4-2.2-5.5c-0.5-1.3-1.2-3.7-1.7-5c-0.5-1.4-1.3-3.1-1.9-4.5c0.2-1.4,0.5-2.8,0.7-4.2c1.2,0.9,2.2,1.8,3.4,2.7
			c0.3,0.8,0.8,2.6,1.2,3.5c0.4,1.1,1.3,4,1.7,5c0.4,0.9,0.9,2.1,1.3,3.2c0.9-0.3,1.9-0.6,2.9-0.8c-0.3-0.8-0.5-1.6-0.8-2.2
			c-0.5-1.3-1.2-3.7-1.7-5c-0.5-1.4-1.4-3.2-1.9-4.5c0.3-1.4,0.6-2.7,0.8-4.1c1.2,0.9,2.3,1.9,3.4,2.8c0.3,0.8,0.8,2.6,1.1,3.5
			c0.4,1.1,1.3,4,1.7,5c0.5,1.2,1.4,3.3,1.8,4.4c0.7,1.9,1.3,4.3,1.9,6c0.8,2,2,4.8,2.7,6.6C110.3,259.5,108.8,255.2,110,258.4
			L110,258.4z"/>
	</g>
	<g id="_165932464">
		<path id="_169582792" fill="#969594" d="M89.7,265c-1.3,0.5-2.5,0.9-3.8,1.4c-1.9-4.7,0.8,1.9-0.8-2c-0.3-0.8-1.3-2.7-2.1-4.7
			c-0.8-2-1.6-4-2-4.9c-0.6-1.4-1.8-4.1-2.3-5.6c-0.5-1.4-1.3-3.7-1.9-5c-0.6-1.4-1.5-3.2-2.1-4.6c0.2-1.4,0.3-2.8,0.6-4.2
			c1.1,0.9,2.2,1.9,3.4,2.8c0.3,0.9,0.9,2.6,1.3,3.5c0.5,1.1,1.4,4,1.9,5.1c0.4,1,1.1,2.5,1.6,3.6c0.9-0.3,1.9-0.7,2.8-1
			c-0.5-0.9-0.8-1.8-1-2.4c-0.5-1.4-1.3-3.7-1.9-5.1c-0.6-1.4-1.4-3.2-1.9-4.6c0.2-1.4,0.3-2.8,0.6-4.2c1.1,0.9,2.2,1.9,3.4,2.8
			c0.3,0.9,0.9,2.6,1.3,3.5c0.4,1.1,1.4,4,1.8,5.1c0.5,1.3,1.4,3.3,1.9,4.5c0.7,1.9,1.5,4.4,2.2,6.1c0.8,2,2.1,4.8,2.9,6.7
			c1,2.4-0.6-2,0.6,1.2c-1.3,0.5-2.6,0.9-3.8,1.4c-1.9-4.7,0.9,1.9-0.7-2c-0.3-0.8-1.2-2.8-2-4.8c-0.8-2-1.7-4-2-4.9
			c-0.2-0.5-0.4-1.1-0.8-1.7c-0.9,0.3-1.9,0.7-2.7,1c0.8,1.8,1.4,3.9,2,5.4c0.8,2,2.2,4.7,3,6.6C90.1,266.1,88.4,261.8,89.7,265
			L89.7,265z"/>
		<path id="_166205600" fill="#969594" d="M83.9,267.2c-1.3,0.4-2.5,0.9-3.8,1.3c-1.9-4.7,0.9,1.8-0.7-1.9c-0.4-0.8-1.3-2.7-2.2-4.7
			c-0.9-2-1.8-4-2.2-4.9c-0.2-0.4-0.5-1-0.7-1.6c-0.9,0.3-1.8,0.7-2.6,1c0.6,1.8,1.4,3.9,2,5.3c0.8,2,2.2,4.7,3,6.6
			c1.1,2.4-0.6-2,0.7,1.2c-1.2,0.5-2.4,0.9-3.7,1.3c-2-4.6,0.9,1.8-0.7-1.9c-0.4-0.8-1.3-2.7-2.2-4.7c-0.9-2-1.8-3.9-2.2-4.9
			c-0.6-1.4-1.8-4.1-2.4-5.6c-0.6-1.3-1.4-3.7-2-5c-0.6-1.3-1.6-3.1-2.1-4.5c0.1-1.4,0.2-2.8,0.3-4.2c1.2,0.9,2.3,1.8,3.5,2.7
			c0.3,0.9,1,2.6,1.4,3.5c0.5,1.1,1.5,4,2,5c0.4,1,1.2,2.4,1.6,3.6c0.9-0.3,1.8-0.6,2.7-0.9c-0.3-0.9-0.8-1.9-1.1-2.5
			c-0.6-1.3-1.4-3.7-1.9-5c-0.6-1.4-1.5-3.2-2-4.5c0.2-1.4,0.3-2.8,0.5-4.2c1.2,0.9,2.3,1.8,3.5,2.8c0.3,0.8,1,2.6,1.3,3.5
			c0.4,1.1,1.4,4,1.9,5.1c0.5,1.2,1.5,3.3,2,4.4c0.8,1.9,1.6,4.4,2.3,6c0.9,2,2.2,4.7,3,6.6C84.3,268.4,82.6,264,83.9,267.2
			L83.9,267.2z"/>
		<path id="_165717792" fill="#969594" d="M71.7,271.3c-1.2,0.4-2.4,0.9-3.6,1.5c-2-4.6,0.9,1.8-0.8-1.9c-0.4-0.8-1.3-2.7-2.2-4.7
			c-0.9-1.9-1.8-3.9-2.2-4.8c-0.2-0.5-0.5-1-0.7-1.6c-0.9,0.3-1.7,0.7-2.5,1.1c0.8,1.8,1.6,4,2.3,5.5c0.9,2,2.3,4.7,3.1,6.5
			c1.2,2.4-0.7-1.9,0.7,1.2c-1.2,0.5-2.4,1-3.6,1.5c-2.1-4.6,0.9,1.8-0.9-1.9c-0.4-0.8-1.3-2.7-2.2-4.6c-0.9-1.9-1.8-3.9-2.2-4.8
			c-0.6-1.4-1.9-4-2.6-5.5c-0.6-1.3-1.6-3.6-2.2-4.9c-0.6-1.3-1.5-3.1-2.2-4.4c0.1-1.4,0.2-2.8,0.3-4.2c1.1,0.9,2.3,1.7,3.4,2.6
			c0.3,0.8,1.1,2.6,1.5,3.4c0.5,1.1,1.6,3.9,2.1,5c0.4,0.9,1,2.2,1.6,3.2c0.8-0.3,1.7-0.7,2.4-1c-0.4-0.9-0.8-1.8-1.1-2.5
			c-0.5-1.3-1.4-3.7-2-5c-0.7-1.4-1.6-3.1-2.2-4.5c0.1-1.4,0.2-2.8,0.3-4.2c1.1,0.9,2.3,1.8,3.5,2.7c0.3,0.8,1,2.6,1.3,3.5
			c0.5,1.1,1.6,3.9,2,5c0.5,1.2,1.6,3.2,2.1,4.4c0.8,1.9,1.6,4.3,2.4,6c0.9,2,2.3,4.7,3.1,6.5C72.1,272.5,70.3,268.2,71.7,271.3
			L71.7,271.3z"/>
		<path id="_167450664" fill="#969594" d="M60.3,276.3c-1.2,0.5-2.4,1-3.6,1.5c-2.2-4.6,0.9,1.8-0.8-1.9c-0.4-0.8-1.4-2.7-2.3-4.6
			c-1-1.9-1.9-3.9-2.3-4.8c-0.2-0.5-0.6-1.1-0.9-1.8c-0.9,0.4-1.7,0.7-2.7,1.1c0.9,1.8,1.7,4.1,2.4,5.7c0.9,2,2.4,4.6,3.4,6.4
			c1.2,2.3-0.8-1.9,0.6,1.2c-1.1,0.5-2.3,1-3.4,1.4c-2.2-4.5,1,1.8-0.8-1.9c-0.4-0.8-1.4-2.6-2.4-4.6c-0.9-1.9-1.9-3.8-2.4-4.7
			c-0.7-1.4-2-3.9-2.7-5.4c-0.6-1.3-1.5-3.6-2.2-4.9c-0.6-1.3-1.7-3.1-2.3-4.4c0.1-1.4,0.2-2.8,0.2-4.2c1.2,0.9,2.3,1.7,3.5,2.6
			c0.4,0.8,1.1,2.6,1.5,3.4c0.5,1.1,1.6,3.8,2.2,4.9c0.4,0.8,1.1,2,1.6,3c0.9-0.4,1.8-0.8,2.7-1.1c-0.4-0.8-0.8-1.6-1-2.2
			c-0.6-1.3-1.5-3.6-2.2-4.9c-0.6-1.3-1.6-3.1-2.2-4.4c0.1-1.4,0.2-2.8,0.2-4.2c1.2,0.9,2.4,1.7,3.6,2.6c0.3,0.8,1,2.6,1.4,3.4
			c0.5,1.1,1.6,3.9,2.1,4.9c0.5,1.2,1.7,3.2,2.2,4.3c0.9,1.8,1.8,4.3,2.5,5.9c0.9,2,2.4,4.6,3.3,6.5
			C60.7,277.4,58.8,273.1,60.3,276.3L60.3,276.3z"/>
		<path id="_165396904" fill="#969594" d="M48.2,281.5c-1.2,0.5-2.2,0.9-3.4,1.4c-2.3-4.5,0.9,1.8-0.9-1.9c-0.4-0.8-1.4-2.6-2.4-4.5
			c-1-1.9-2.1-3.8-2.4-4.7c-0.2-0.5-0.5-1.2-0.9-1.9c-0.9,0.3-1.7,0.7-2.6,1c0.9,1.7,1.8,3.9,2.6,5.4c1,1.9,2.6,4.5,3.6,6.3
			c1.2,2.3-0.9-1.9,0.6,1.2c-1.2,0.5-2.3,0.9-3.5,1.4c-2.3-4.4,1,1.8-0.9-1.9c-0.4-0.8-1.4-2.6-2.4-4.5c-1-1.9-2-3.8-2.4-4.7
			c-0.7-1.3-2-3.9-2.7-5.4c-0.6-1.3-1.7-3.5-2.4-4.8c-0.6-1.3-1.6-3-2.3-4.3c-0.1-1.3,0.1-2.7,0.1-4.1c1.2,0.8,2.3,1.7,3.6,2.5
			c0.4,0.8,1.2,2.5,1.6,3.4c0.5,1,1.7,3.8,2.2,4.8c0.4,0.9,1.2,2.1,1.7,3.1c0.8-0.4,1.6-0.7,2.4-1c-0.4-0.8-0.7-1.5-1-2.1
			c-0.6-1.3-1.6-3.6-2.2-4.8c-0.7-1.3-1.7-3-2.3-4.3c0.1-1.4,0.1-2.8,0.1-4.1c1.2,0.9,2.4,1.7,3.4,2.6c0.4,0.8,1.2,2.5,1.6,3.4
			c0.5,1.1,1.8,3.8,2.3,4.9c0.6,1.2,1.7,3.1,2.3,4.3c0.9,1.8,1.9,4.2,2.6,5.8c0.9,2,2.5,4.6,3.4,6.4
			C48.8,282.7,46.7,278.5,48.2,281.5L48.2,281.5z"/>
	</g>
</g>
</svg>
