<?xml version="1.0" encoding="utf-8"?>
<!-- Generator: Adobe Illustrator 18.1.1, SVG Export Plug-In . SVG Version: 6.00 Build 0)  -->
<svg version="1.1" id="Warstwa_1" xmlns="http://www.w3.org/2000/svg" xmlns:xlink="http://www.w3.org/1999/xlink" x="0px" y="0px"
	 viewBox="0 0 638.4 395.1" enable-background="new 0 0 638.4 395.1" xml:space="preserve">
<path fill="#6BBC72" d="M638.4,304.6l1.9,90.5L0,392.3v-90c145.4-85.8,305.6-101.9,472.8-63C544.7,256.1,638.4,304.6,638.4,304.6z"
	/>
<path fill="#7BBF7B" d="M438.8,395.1h-79.1c0.7-1.1,1.6-2.1,2.5-3.2c7.1-8,30.7-57.6-1.1-57.3c-4.8-1.2-11.1,1.8-15.7,4.4
	c-7.8,4.4-20,6.2-29.8,4.6c-20.6-3.3-37.7-20.6-36.4-43.9c0.4-6.7,11.3-20.3,6.8-26.2c-8.4-10.9-32.4-4.7-42.2,2.4
	c-3.7,2.7-11.8,6.6-20.1,7.8c-5.8,0.8-13.2-0.1-18.9-2.7c-8.4-3.7-14-11.8-12.1-22c0.9-4.8,4.7-8.4,8.9-10.9
	c3.9-2.3,9.4-3.2,10.5-8.4c0.9-4.3-1.7-6.8-7.4-7.3c5.2-0.5,9.3,1.4,9.7,5.8c1.2,11.2-19.4,10.3-15.9,23.5c1.6,6.1,9,11.1,16,12
	c8,1.1,16.3-3.3,21-6.2c6.3-3.9,12.6-10,22.9-15.9c7.8-4.4,14.7-5.5,20.8-4.7c6.5,0.9,12.1,3.2,17.1,6.5c13.9,9.1,18,12.3,34.6,11
	c7.3-0.6,29.5,3.9,36-4.4c1.8-2.3,3.6-5.5,2-10.2c-1.8-5.3-6.4-10.2-11.2-11.8c-8.8-3-17.4-2.6-25.3-1c-5.7,1.2-10.3,3.4-16,2
	c-6.4-1.5-7.9-10.6-0.9-12.8c2.8-0.9,5.3-0.9,7.2-0.6c5.3,0.8,12.8,1.4,16.9-3.6l0.7,0l0.3,0.1c0,0-2.3,4.8-8.6,5.9
	c-2.8,0.5-5.9,0.5-8.5,0.4c-2.6-0.1-6.4-0.5-7.9,2.2c-1.2,2.2,1.1,4.9,4.6,4.6c5.6-0.4,15.8-3.7,25.9-4.1
	c18.5-0.7,39.3,8.9,41.6,23.2c0,0.2,0.1,0.5,0.1,0.7c2-1.4,3.8-3.1,5.5-5c5.5-6.2,10.5-12.7,21.3-14.7c8.4-1.5,23,0.3,26,12.1
	c2.7,10.3,8.3,14.6,14.2,15.4c4,0.5,12.8-1.5,12.6-7.1c-0.2-4.1-5-9-5.3-15.2c-0.1-1.3,0.2-2.6,0.6-3.8c0.4,0.1,0.7,0.2,1.1,0.2
	c-0.5,2,0.3,5.9,1.8,8.3c3.5,5.7,8.3,9.3,4.6,16.3c-1.3,2.5-3.4,4.4-6,5.6c-4.6,2.1-10.3,2.2-14.7,1.3c-6.1-1.3-10-4.7-12.6-8.8
	c-2.3-3.6-3.4-7.9-7-10.4c-7.7-5.5-17.1-3-25,10.5c-7,12-21.6,16.3-29.1,17.8c-7.7,3.2-17.7,3.4-25.2,3.3c-7.5-0.1-14,0.9-19.4,7.4
	c-9.9,12.1,14.3,25.4,49.1,6.4c14.9-8.2,39.6-11.3,54.4-0.8c4.9,3.5,13.8,13,19.1,31.6C462.4,356.2,445.8,384.3,438.8,395.1
	L438.8,395.1z"/>
<path fill="#FFFFFF" d="M326.3,216.7c0.1,0.2,0,0.3-0.1,0.4c0.2,0.1,0.3,0.3,0.4,0.4c0.1,0.1,0.1,0.1,0.2,0.2
	c0.1,0.1,0.2,0.2,0.3,0.3c0.1,0.1,0.2,0.3,0.1,0.5c0,0.1-0.1,0.2-0.3,0.2c-0.1,0-0.1,0-0.2,0c0,0-0.1-0.1-0.1-0.1
	c0,0-0.1-0.1-0.1-0.1c-0.1-0.1-0.3-0.1-0.4-0.2c0,0-0.1,0-0.2,0c-0.1,0-0.2,0-0.3-0.1c-0.1,0-0.1,0-0.2,0c0,0.1-0.1,0.1-0.1,0.2
	c-0.1,0.3-0.2,0.6-0.3,0.9c-0.1,0.2,0,0.3,0,0.5c0,0.3-0.1,0.5-0.2,0.6c-0.1,0.1-0.1,0.2-0.2,0.3c-0.1,0.2-0.1,0.4-0.2,0.6
	c-0.1,0.2-0.2,0.5-0.2,0.7c0,0.1,0,0.2-0.1,0.3c-0.1,0.3-0.1,0.7,0.2,0.9c0,0,0.1,0.1,0.1,0.1c0,0.1,0,0.1,0,0.1c-0.1,0-0.2,0-0.4,0
	c0,0,0,0,0,0c-0.1-0.1-0.2-0.1-0.3-0.1c-0.2,0-0.3-0.1-0.3-0.3c0-0.1,0-0.1-0.1-0.2c0,0-0.1-0.1-0.1-0.2c0.1-0.3,0.1-0.7,0.1-1
	c0-0.3,0-0.6,0-0.8c0,0,0,0,0-0.1c0-0.2,0-0.2-0.2-0.2c-0.2,0-0.5,0-0.7,0c-0.4,0-0.9-0.2-1.3-0.3c-0.1,0-0.2-0.1-0.3-0.1
	c-0.1,0-0.1,0-0.2,0c-0.2,0.1-0.3,0.3-0.5,0.4c0,0-0.1,0.1-0.1,0.2c-0.1,0.3-0.2,0.7-0.3,1c-0.1,0.3,0,0.7,0.1,1
	c0.1,0.1,0.2,0.2,0.2,0.3c0.1,0.1,0.2,0.2,0.3,0.4c-0.2,0-0.3,0-0.5,0c-0.1,0-0.1-0.1-0.1-0.2c0-0.1,0-0.2-0.1-0.2
	c-0.2,0-0.2,0-0.2-0.2c-0.1-0.3-0.2-0.7-0.3-1c0,0,0,0,0-0.1c0,0.1-0.1,0.1-0.1,0.2c-0.1,0.3-0.1,0.6-0.1,0.8c0,0.1,0.1,0.3,0.2,0.4
	c0.1,0.1,0.2,0.3,0.2,0.4c-0.2,0-0.3,0-0.5-0.1c-0.1,0-0.1-0.1-0.1-0.2c0-0.1,0-0.2-0.1-0.2c-0.1,0-0.1-0.1-0.1-0.2
	c0-0.2,0-0.3,0-0.5c0-0.3,0-0.5,0-0.8c0-0.2,0-0.3,0.2-0.4c0.3-0.2,0.4-0.5,0.3-0.9c0-0.1,0-0.1-0.1-0.2c-0.1-0.3-0.2-0.6-0.2-1
	c0,0,0,0,0-0.1c-0.1,0.2-0.3,0.4-0.4,0.6c0,0,0,0,0,0c0-0.1,0-0.1,0-0.2c-0.1,0.3-0.1,0.6,0.1,0.9c0.1,0.1,0.2,0.2,0.3,0.3
	c0,0,0,0.1,0.1,0.1c0,0-0.1,0-0.1,0c-0.1,0-0.2,0-0.3-0.1c0,0-0.1-0.1-0.1-0.1c-0.4-0.2-0.5-0.6-0.6-1c0-0.2,0-0.4,0-0.6
	c0-0.1,0.1-0.2,0.2-0.3c0.1,0,0.2-0.1,0.3-0.1c0.3-0.1,0.7-0.2,1-0.3c0.1-0.1,0.3-0.1,0.4-0.2c0.3-0.1,0.7-0.1,1,0
	c0.5,0.1,0.9,0.2,1.4,0.3c0.3,0,0.5,0,0.8-0.1c0.2-0.1,0.4-0.2,0.7-0.2c0.1,0,0.3-0.1,0.4-0.2c0.2-0.2,0.4-0.4,0.6-0.6
	c0.3-0.2,0.6-0.4,0.9-0.4c0.2,0,0.4-0.1,0.6-0.3C326.3,216.8,326.3,216.7,326.3,216.7C326.3,216.7,326.3,216.7,326.3,216.7
	L326.3,216.7z M324,222.1c-0.1,0.2-0.2,0.4-0.2,0.7c0,0.3,0.1,0.5,0.3,0.7c0-0.1,0-0.2,0-0.2c-0.1-0.1-0.1-0.2-0.1-0.4
	C324,222.7,324,222.4,324,222.1L324,222.1z"/>
</svg>
