<?xml version="1.0" encoding="utf-8"?>
<!-- Generator: Adobe Illustrator 18.1.1, SVG Export Plug-In . SVG Version: 6.00 Build 0)  -->
<svg version="1.1" id="Layer_1" xmlns="http://www.w3.org/2000/svg" xmlns:xlink="http://www.w3.org/1999/xlink" x="0px" y="0px"
	 viewBox="0 0 461 259" enable-background="new 0 0 461 259" xml:space="preserve">
<g>
	<path fill-rule="evenodd" clip-rule="evenodd" fill="#231F20" d="M233.7,194.9c0,0,0.1-0.6-0.1-0.6c-0.4,0-1,0-1.4,0.2
		c-0.6,0.4,0.8,0.2,1.1,0.8c0.2,0.8,0.2,0.8,0.2,0.8L233.7,194.9z"/>
	<path fill="#BB2A30" d="M239.7,169.8c0,0-0.8-0.2-2-0.3c-1.4-0.1-3.2-0.1-4.8,0.5c-1.3,0.5-2.4,1.2-3.2,2.1c-1,1-1.6,2.2-1.8,3.4
		c-0.3,1.2-0.2,2.5,0.2,3.7c0.2,0.7,0.6,1.3,1.1,1.8l0.7,0.9c0.4,0.4,0.7,0.8,1,1.2c1.7,1.6,3.8,1.8,6,2.1c2.1,0.2,4.3,0.5,6,2.1
		c0,0.1,0.1,0.2,0.1,0.2c1.1,2.1,1.8,4.7,1.5,7.3c-0.4,3.1-2.1,5.7-4.8,7.2c-6.1,3.4-2.4,4,1.3,1.8c2.8-1.5,4.6-4.2,5-7.4
		c0.4-2.6-0.2-5.3-1.5-7.3c-0.5-0.8-1.1-1.6-1.7-2.4c-0.5-0.6-0.8-1.1-1.5-1.6c-1.6-1.2-3.6-1.5-5.6-1.7c-2.1-0.2-4.1-0.5-5.7-2
		c-0.1-0.2-0.2-0.5-0.2-0.7c-0.5-1.1-0.5-2.3-0.2-3.5c0.2-1.2,0.8-2.4,1.8-3.4c0.8-0.8,1.8-1.6,3.2-2.1c1.3-0.5,2.7-0.5,3.9-0.5
		c1.6,0.1,2.8,0.3,2.8,0.3l-1.4-0.8L239.7,169.8z"/>
	<path fill="#BB2A30" d="M207.5,231.4l-0.5,0.7l0.2,1.2c-0.2-0.3-0.5-0.8-0.8-1.4c-0.2-0.5-0.5-1.1-0.5-1.4c-0.1-0.5,0-0.8,0-1.3
		c0.1-0.5,0.1-1.1,0.2-1.5c0.1-0.4,0.3-0.8,0.5-1.1c0.5-0.5,1.1-1,1.8-1.2c0.7-0.3,1.5-0.5,2.3-0.5c1.5,0.1,3,0.9,3.5,2.7
		c0.4,1.3,0.4,2.3,0.3,3.5c-0.1,1.1-0.3,2.1-0.8,3.1c-0.2,0.5-0.5,0.8-0.6,1.3c0.1,0.4,0.2,0.8,0.2,1.2c0.4,1.5,1.5,2.4,2.8,2.8
		c0.8,0.3,1.6,0.4,2.4,0.2c0.8-0.1,1.7-0.4,2.4-0.9c1.1-0.8,1.9-1.9,2.3-3.7c0-5-1.4-7.3-2.4-9.2c-0.6-1-1.1-2-1.4-3.2
		c-0.1-0.3-0.1-0.6-0.1-0.9c-0.1-0.8,0.1-1.5,0.2-2.2c0-1.1,0.4-2.6,1.3-3.8c0.5-0.7,1.5-1.3,2-1.7l-0.1,2.1
		c-0.4,0.2-0.8,0.4-1.3,0.9c-0.8,1.1-1.6,2.8-1.7,3.2c0.1,1.4,0.8,2.5,1.5,3.7c1.1,2,2.5,4.4,2.4,9.5c0,0.2,0,0.4-0.1,0.6l0,0
		l-0.1,1.8l0,0c-0.2,2.3-1.2,3.9-2.5,4.8c-0.8,0.5-1.6,0.9-2.4,1c-0.9,0.2-1.8,0-2.6-0.2c-1.5-0.5-2.6-1.5-3-3.1
		c-0.2-1-0.3-1.8-0.2-2.4l0.2-1.4c0-1.1,0.4-1.8,0.8-2.5c0.2-0.4,0.4-0.8,0.5-1.3c0-0.4-0.2-0.9-0.3-1.5c-0.5-1.6-1.8-2.4-3.3-2.4
		c-0.8,0-1.5,0.1-2.2,0.4c-0.7,0.3-1.3,0.7-1.7,1.2c-0.2,0.2-0.3,0.4-0.4,0.6C206.5,229.9,206.9,230.8,207.5,231.4z"/>
	<path fill-rule="evenodd" clip-rule="evenodd" fill="#FCEF98" d="M233.6,194.3c0,0,2.8,2.2,4.9,7.9c0.5,1.5,0.8,3.4,1.2,5.3
		c0.3,1.6,0.7,2.9,0.7,4.3c0,1.5-0.5,3-0.9,4.2c-1.3,3.7-4,5.6-4,5.6s-1.5,0.4-4.9-0.3c-2.1-0.4-4-0.7-5.8-1.8
		c-1.2-0.8-2.6-2.1-3.8-3.5c-0.8-0.8-1.6-2-2.3-2.9c-2.4-3.3-3.6-6.3-3.6-6.3s8.3-0.7,11.3-5.7C226.4,200.9,233.5,199.1,233.6,194.3
		z"/>
	<path fill-rule="evenodd" clip-rule="evenodd" fill="#231F20" d="M215.2,206.6c0,0,0.1-1.1,0.6-1.6s-0.2,0.8,0.4,1.1
		c0.7,0.5,0.8,0.5,0.8,0.5H215.2z"/>
	<path fill-rule="evenodd" clip-rule="evenodd" fill="#E6D87C" d="M235,221.5c-0.7,0.1-2.1,0.1-4.4-0.4c-2.1-0.4-4-0.7-5.8-1.8
		c-1.2-0.8-2.6-2.1-3.8-3.5c-0.8-0.8-1.6-2-2.3-2.9c-2.4-3.3-3.6-6.3-3.6-6.3s1.1-0.1,2.8-0.5c1.4,2.6,3.4,6,5.9,8.9
		C227.8,219.8,233.1,221.2,235,221.5z"/>
	<path fill-rule="evenodd" clip-rule="evenodd" fill="#231F20" d="M237.2,203.9c-0.4,1.1-1.7,3.4-5,3.1c-0.5-0.1-1.1-0.3-1.5-0.8
		c-0.3-0.4-0.2-1.1,0.2-1.5c0.5-0.5,0.9-0.3,1.4-0.1C234,205.7,235.3,205.7,237.2,203.9z"/>
	<path fill-rule="evenodd" clip-rule="evenodd" fill="#231F20" d="M236.2,213.4c-1.1,0.2-1.8,0.5-2.7,1.1c-0.5,0.5-1.2,1.2-1.7,1.8
		c-0.5,0.5-0.8,1.1-1.1,1.7c-0.2,0.5-0.2,0.9-0.4,1.5c-0.5-1.3-0.7-2.8,0.2-4.3c0.4-0.8,1.5-1.9,2.3-2.5c1.1-0.8,2-1.1,3.3-1.1
		C237.8,211.6,237.9,212.9,236.2,213.4z"/>
	<path fill-rule="evenodd" clip-rule="evenodd" fill="#231F20" d="M221.9,212.6c1.1,0.5,3.8,1,6.1-2.4c0.3-0.5,0.7-1.3,0.6-1.9
		c-0.1-0.6-0.7-0.9-1.2-0.8c-0.7,0.1-1,0.6-1.1,1.2C225.6,211,224.6,212.3,221.9,212.6z"/>
	<path fill-rule="evenodd" clip-rule="evenodd" fill="#231F20" d="M233.5,198.3c0,1.9-0.5,3.1-1.2,3.8c-1.1,0.9-2.4,1.1-2.9,2
		c-0.8,1.2-0.2,2.3,0.6,3.4c1.3,2.3,2.4,3.7,2.4,3.7l-1.9,0.8l1-0.9c0.1,0-0.6-1.3-1.5-2.8c-1.1-1.7-1.7-2.4-1.3-3.9
		c0.5-1.8,2.1-1.6,3.2-2.7C233.4,200.4,233.5,198.3,233.5,198.3z"/>
	<path fill-rule="evenodd" clip-rule="evenodd" fill="#231F20" d="M219.5,209.7c0.5,0.2,1.4,0,2.1-0.2c1.9-0.5,2.6-1.4,3.7-2.8
		c0.5-0.6,1.1-1.3,1.8-1.5c-0.8-0.2-1.7,0.8-2.4,1.8c-0.5,0.7-1.1,1.3-1.6,1.6C221.4,209.5,219.5,209.7,219.5,209.7z"/>
</g>
</svg>
