<?xml version="1.0" encoding="utf-8"?>
<!-- Generator: Adobe Illustrator 18.1.1, SVG Export Plug-In . SVG Version: 6.00 Build 0)  -->
<svg version="1.1" id="Layer_1" xmlns="http://www.w3.org/2000/svg" xmlns:xlink="http://www.w3.org/1999/xlink" x="0px" y="0px"
	 viewBox="0 0 461 259" enable-background="new 0 0 461 259" xml:space="preserve">
<path fill-rule="evenodd" clip-rule="evenodd" fill="#FFFFFF" d="M229.6,22c0.2-0.1-0.3-0.3-0.9-0.4c-1.3-0.1-1.5-0.4-1.4-0.7
	c0.1-0.1,0.4-0.1,0.6-0.5c0.1-0.5-0.1-0.9-0.4-1.2c-0.3-0.3-0.9-0.1-1.4-0.3c-0.4-0.1-0.9-0.5-1.5-0.5c-0.7,0.1-1.4,0.5-2,0.4
	c-0.3,0-0.7,0.1-0.9-0.1c-0.2-0.2-0.1-0.7-0.4-0.9c-0.4-0.3-1-0.2-1.4-0.4c-0.6-0.1-1.3,0.1-1.8,0.2c-0.3,0.1-0.7-0.4-1.2-0.1
	c-0.4,0.2-0.6,0.7-1,0.9c-0.4,0.1-1.1-0.2-1.4-0.2c-0.5,0.1-0.7,0.5-1.2,0.5c-0.3,0.1-0.7-0.1-1.2-0.2c-0.3,0-0.6,0.3-1.1,0.4
	c-0.3,0.1-0.7,0-0.9,0.1c-0.4,0.2-0.8,0.4-1,0.7c-0.1,0.2,0.1,0.4,0,0.5c-0.2,0.6-0.5,1.3-1.6,1.3c-0.2,0-0.8-0.1-1.1,0
	c-0.6,0.1-0.9,0.6-1.3,0.6c-0.6,0.1-1.3,0.2-1.7,0.1c-0.4,0-0.6-0.2-1.1,0c-1.6,0.9,8,0.4,12.5,0.4c3.2,0,6,0,8.3-0.2
	C224.2,22.2,229,22.5,229.6,22z"/>
<path fill-rule="evenodd" clip-rule="evenodd" fill="#FFFFFF" d="M322.9,14.8c-0.5-0.1-15.8-0.1-18.7-0.2c-1.5,0-1.6-0.1-1.7-0.2
	c0-0.1,0.1-0.1,0.4-0.1c0.1-0.1,0.5-0.3,0.6-0.4c0.1,0,0.5-0.2,0.7-0.1c0.2,0.1,0.2,0.2,0.5,0.1c0.6-0.1,0.8-0.6,0.9-0.6
	c0.7,0.1,1.2-0.7,2.4-0.8c0.9-0.1,1.1-0.7,1.7-1.3c0.3-0.3,1.2-0.4,1.7-0.6c0.4-0.2,0.5-0.8,1-1c0.2-0.1,0.7-0.1,0.9-0.1
	s0.5-0.1,0.7,0c0.6,0.2,1.1,0.6,1.4,0.5c0.3-0.1,0.2-0.1,0.6,0c0.1,0,0.3,0,0.4,0c0.2,0,0.4-0.2,0.6-0.3c0.2-0.1,0.4,0,0.7,0
	c0.4,0,0.9,0,1.1,0.1c0.9,0.2,0.9,0.9,1.4,1.2c0.6,0.3,0.4,0.8,1.9,0.9c0.5,0,1-0.2,1.2-0.1c0.4,0.1,0.2,0.4,0.9,0.7
	c0.9,0.5,0.3,1.5,1.5,1.4c1.2-0.1,1.5,0.4,0.6,0.6c-0.9,0.2-1.8,0.2-2.3,0.1C323.7,14.7,322.9,14.8,322.9,14.8z"/>
<path fill-rule="evenodd" clip-rule="evenodd" fill="#FFFFFF" d="M213.3,24.9c-0.1,0,0.6,0,0.5-0.1c-0.1-0.1-0.1-0.4-0.1-0.4
	c0.1-0.1,0.2,0,0.3-0.1c0.1,0,0.2-0.1,0.4-0.1c0.1,0,0.2-0.1,0.4-0.1s0.4-0.1,0.5-0.2c0.3-0.1,0.5,0,0.6,0c0.3,0.1,0.4,0.3,0.7,0.3
	c0.1-0.1,0.5,0,0.7,0c0.4,0.1,0.2,0.6,0.6,0.6c0.2,0,0.3,0.1,0.5,0.1c0.1,0,0.4,0,0.6,0.1c0.3,0.1-1.7,0.1-2.7,0.1
	c-0.6,0-1.3,0-1.7-0.1C214.4,24.9,213.4,25,213.3,24.9z"/>
<path fill-rule="evenodd" clip-rule="evenodd" fill="#FFFFFF" d="M304,16.5c-0.1-0.1-4.2-0.1-4.9-0.1c-0.4,0-0.4-0.1-0.4-0.1
	c-0.1,0,0,0,0.1,0c0-0.1,0.1-0.1,0.1-0.1c0-0.1,0.1-0.1,0.2-0.1c0.1,0,0.1,0.1,0.1,0c0.1,0,0.1-0.1,0.2-0.1c0.1,0.1,0.3-0.1,0.6-0.1
	c0.2-0.1,0.2-0.2,0.4-0.4c0.1-0.1,0.3-0.1,0.4-0.1c0.1-0.1,0.1-0.2,0.3-0.3c0-0.1,0.1,0,0.2,0c0.1,0,0.1-0.1,0.2,0
	c0.1,0,0.3,0.1,0.4,0.1c0.1,0,0.1,0,0.1,0c0.1,0,0.1,0.1,0.1,0.1c0-0.1,0.1-0.1,0.1-0.1c0,0,0.1,0,0.2,0c0.1,0.1,0.2,0,0.2,0.1
	c0.3,0.1,0.3,0.2,0.4,0.3c0.1,0.1,0.1,0.2,0.5,0.2c0.1,0.1,0.2,0,0.3,0c0.1,0,0.1,0.1,0.2,0.2c0.3,0.1,0.1,0.4,0.4,0.4
	c0.3-0.1,0.4,0.1,0.1,0.1c-0.2,0.1-0.4,0-0.6,0C304.3,16.4,304,16.5,304,16.5z"/>
<path fill-rule="evenodd" clip-rule="evenodd" fill="#FFFFFF" d="M178.6,15.9c-0.1,0-0.1,0-0.2,0c-0.1,0.1-0.3,0.1-0.4,0.1
	s-0.1,0.1-0.3,0.1c-0.1,0-0.2,0-0.4,0c-0.1,0.1,0.5,0.1,0.9,0.1c0.3,0,0.6,0,0.7-0.1c0.3,0.1,0.6,0.1,0.9,0.1c0.2-0.1,0.6,0,0.6,0
	s6.6,0.1,8.9-0.1c0.4-0.1,0.4-0.4,0.1-0.3c-0.1,0-0.2,0-0.4,0c-0.3,0-0.6-0.2-0.6-0.2c-0.4,0.1-0.6-0.2-1.2-0.3
	c-0.4,0-0.5-0.3-0.9-0.6c-0.1-0.1-0.3-0.2-0.4-0.3c-0.3-0.1-0.6-0.5-0.9-0.5c-0.1,0-0.2,0-0.4,0c-0.2,0.1-0.6,0.5-0.7,0.4
	c-0.1-0.1-0.1,0-0.3,0c-0.1,0-0.1,0-0.1,0c-0.1,0-0.2-0.1-0.4-0.1c-0.1-0.1-0.1-0.1-0.4-0.1c-0.1,0.1-0.3,0.1-0.4,0.1
	c-0.4,0.1-0.5,0.4-0.7,0.4c-0.3,0.1-0.1,0.3-0.8,0.4c-0.7,0-0.7-0.1-1.2,0.1c-0.4,0.1-0.1,0.6-0.7,0.6
	C178.8,15.8,178.7,15.9,178.6,15.9z"/>
<path fill-rule="evenodd" clip-rule="evenodd" fill="#FFFFFF" d="M266.6,27.3c-0.1,0-0.2,0.1-0.4,0.1c-0.3,0.1-0.5,0.1-0.8,0.1
	c-0.3,0.1-0.2,0.3-0.5,0.3s-0.4-0.1-0.6,0.1c-0.2,0.1,0.9,0,1.5,0c0.5,0,1.1,0,1.3-0.1c0.6,0.1,1.2,0.1,1.6,0.1
	c0.4,0,1.1,0.1,1.1,0.1s11.8,0.1,16.1-0.2c0.7,0,0.7-0.6,0.1-0.5c-0.2,0.1-0.4,0.1-0.6,0.1c-0.6-0.1-1.1-0.4-1.2-0.4
	c-0.6,0.1-1.1-0.5-2.2-0.6c-0.9,0-0.9-0.6-1.7-1.1c-0.1-0.1-0.5-0.4-0.7-0.4c-0.5-0.2-1-0.9-1.5-0.9c-0.2,0-0.5-0.1-0.6,0
	c-0.5,0.1-1.1,0.9-1.4,0.7c-0.2-0.1-0.1,0-0.4,0c-0.1,0-0.3,0.1-0.4,0.1c-0.2-0.1-0.4-0.2-0.5-0.2c-0.2-0.1-0.4-0.1-0.6,0
	c-0.3,0-0.6,0.1-0.7,0.1c-0.9,0.2-0.9,0.7-1.3,0.9c-0.5,0.2-0.1,0.5-1.5,0.6c-1.3,0.1-1.3-0.1-2,0.2c-0.8,0.4-0.3,1.2-1.3,1.1
	C267,27.2,266.8,27.3,266.6,27.3z"/>
<path fill-rule="evenodd" clip-rule="evenodd" fill="#FFFFFF" d="M257,12.3c0.1,0,0.2,0,0.2,0c0.2,0.1,0.4,0.1,0.5,0.1
	c0.1,0.1,0.1,0.1,0.3,0.1c0.1,0,0.3,0,0.4,0.1c0.1,0-0.5,0-0.9,0c-0.3,0-0.6,0-0.7,0c-0.4,0-0.7,0-0.9,0c-0.3,0-0.6,0-0.6,0
	s-6.9,0.1-9.4-0.1c-0.4,0-0.4-0.4-0.1-0.3c0.1,0,0.2,0,0.4,0c0.3,0,0.6-0.2,0.6-0.2c0.4,0.1,0.6-0.3,1.2-0.3
	c0.5-0.1,0.5-0.4,0.9-0.6c0.1-0.1,0.4-0.2,0.5-0.3c0.3-0.1,0.6-0.5,0.9-0.5c0.1,0,0.3-0.1,0.4,0c0.3,0.1,0.6,0.5,0.8,0.4
	c0.1-0.1,0.1-0.1,0.3,0c0.1,0,0.1,0,0.2,0c0.1,0,0.2-0.1,0.3-0.1c0.1,0,0.2,0,0.4,0c0.1,0,0.3,0.1,0.4,0.1c0.5,0.1,0.5,0.4,0.8,0.5
	c0.3,0.1,0.1,0.4,0.9,0.4c0.8,0.1,0.7-0.1,1.2,0.1c0.4,0.2,0.1,0.6,0.7,0.6C256.8,12.2,257,12.3,257,12.3z"/>
<path fill-rule="evenodd" clip-rule="evenodd" fill="#FFFFFF" d="M17.7,19.9c-0.3-0.1,0.2-0.2,0.9-0.3c1.4-0.2,1.7-0.4,1.4-0.8
	c-0.1-0.2-0.5-0.2-0.6-0.6c-0.1-0.5,0.1-1,0.4-1.3s1-0.2,1.5-0.4c0.3-0.1,0.9-0.5,1.5-0.4c0.8,0,1.6,0.5,2.2,0.4
	c0.3-0.1,0.7,0,0.9-0.2c0.2-0.2,0.1-0.7,0.4-0.9c0.4-0.3,1-0.2,1.4-0.3c0.6-0.1,1.4,0,1.9,0.1c0.3,0.1,0.7-0.3,1.2-0.1
	c0.4,0.2,0.7,0.7,1.2,0.9c0.4,0.1,1.1-0.2,1.4-0.2c0.5,0.1,0.8,0.5,1.2,0.6c0.4,0.1,0.7-0.2,1.2-0.2c0.4,0,0.7,0.2,1.2,0.3
	c0.4,0.1,0.8,0.1,1,0.2c0.4,0.2,0.9,0.4,1,0.8c0.1,0.1,0,0.4,0.1,0.5c0.2,0.7,0.6,1.4,1.7,1.4c0.3,0,0.9-0.1,1.2,0
	c0.6,0.1,0.9,0.6,1.3,0.6c0.7,0,1.4,0.1,1.9,0.1c0.4,0,0.6-0.3,1.2,0c1.7,0.9-8.5,0.4-13.2,0.4c-3.4,0-6.5,0-8.9-0.3
	C23.5,20.1,18.3,20.4,17.7,19.9z"/>
<path fill-rule="evenodd" clip-rule="evenodd" fill="#FFFFFF" d="M39.2,25.4c0.1-0.1-0.6-0.1-0.6-0.1c0.1-0.1,0.1-0.4,0.1-0.5
	c-0.1-0.1-0.2,0-0.4,0c-0.1-0.1-0.3-0.1-0.4-0.1c-0.1,0-0.3-0.1-0.4-0.1s-0.4-0.2-0.6-0.2c-0.3-0.1-0.6,0-0.6,0
	c-0.4,0.1-0.5,0.3-0.9,0.3c-0.2-0.1-0.6,0-0.8,0.1c-0.5,0.1-0.3,0.6-0.8,0.6c-0.2,0-0.3,0.1-0.5,0.1c-0.2,0.1-0.5,0-0.7,0.1
	c-0.4,0.1,1.9,0.1,3,0.1c0.8,0,1.5,0,2-0.1C37.8,25.5,39,25.5,39.2,25.4z"/>
<path fill-rule="evenodd" clip-rule="evenodd" fill="#FFFFFF" d="M76.4,16.1c0.1,0,0.1,0,0.2,0c0.1,0.1,0.2,0,0.4,0.1
	c0.2,0,0.1,0.1,0.3,0.1c0.1,0,0.2,0,0.4,0.1c0.1,0-0.5,0-0.8,0c-0.3,0-0.6,0-0.6,0c-0.4,0-0.6,0-0.8,0c-0.2,0-0.6,0-0.6,0
	s-6,0.1-8.2-0.1c-0.4,0-0.4-0.3-0.1-0.2c0.1,0,0.1,0,0.3,0c0.3-0.1,0.5-0.2,0.6-0.2c0.4,0.1,0.6-0.2,1.1-0.2
	c0.5-0.1,0.5-0.4,0.9-0.6c0.1-0.1,0.3-0.2,0.4-0.3c0.3-0.1,0.5-0.4,0.8-0.4c0.1,0,0.2,0,0.4,0c0.2,0.1,0.5,0.4,0.7,0.4
	c0.1,0,0.1,0,0.2,0c0.1,0,0.1,0,0.1,0c0.1,0,0.2-0.1,0.3-0.1c0.1-0.1,0.2,0,0.4,0s0.3,0,0.4,0.1c0.4,0.1,0.4,0.4,0.6,0.4
	c0.3,0.1,0.1,0.3,0.8,0.3c0.6,0.1,0.6-0.1,1,0.1c0.4,0.1,0.1,0.6,0.6,0.5C76.2,16.1,76.3,16.1,76.4,16.1z"/>
<path fill-rule="evenodd" clip-rule="evenodd" fill="#FFFFFF" d="M118.7,25.4c0.1,0,0.4,0.1,0.4,0.1c0.4,0.1,0.6,0.1,1,0.1
	c0.4,0,0.3,0.3,0.6,0.3c0.3,0,0.5-0.1,0.8,0.1c0.3,0.1-1.2,0-1.9,0s-1.4,0.1-1.6,0c-0.8,0.1-1.5,0.1-1.9,0c-0.5,0-1.4,0.1-1.4,0.1
	s-14.5,0.2-19.7-0.1c-0.9-0.1-0.8-0.8-0.1-0.6c0.2,0.1,0.4,0.1,0.7,0c0.7-0.1,1.3-0.4,1.4-0.4c0.8,0.1,1.4-0.6,2.7-0.6
	c1.1-0.1,1.1-0.7,2-1.4c0.2-0.1,0.6-0.4,0.9-0.5c0.6-0.3,1.2-1.2,1.9-1.2c0.2,0,0.5-0.1,0.8,0c0.6,0.2,1.2,1.1,1.7,0.9
	c0.3-0.1,0.2-0.1,0.6,0c0.1,0,0.3,0,0.4,0c0.2,0,0.4-0.2,0.6-0.3c0.2-0.1,0.4,0,0.8,0s0.6,0.1,0.9,0.2c0.9,0.2,1,0.8,1.5,1.1
	c0.6,0.3,0.2,0.6,1.8,0.6c1.7,0.1,1.6-0.1,2.6,0.3c0.9,0.4,0.3,1.4,1.5,1.3C118.2,25.3,118.5,25.3,118.7,25.4z"/>
<path fill-rule="evenodd" clip-rule="evenodd" fill="#FFFFFF" d="M143.1,13.6c-0.1,0-0.2,0.1-0.4,0.1c-0.2,0.1-0.4,0-0.6,0.1
	c-0.3,0.1-0.2,0.2-0.5,0.2c-0.2,0-0.4,0-0.6,0.1c-0.2,0.1,0.9,0,1.4,0c0.4,0,0.9,0,1.2,0c0.5,0.1,1.1,0.1,1.4,0c0.4,0,1,0.1,1,0.1
	s10.4,0.1,14.2-0.1c0.6-0.1,0.6-0.6,0.1-0.4c-0.1,0-0.3,0-0.5,0c-0.5-0.1-0.9-0.3-1-0.3c-0.6,0.1-0.9-0.4-1.9-0.5
	c-0.8-0.1-0.8-0.5-1.4-1c-0.1-0.1-0.5-0.3-0.7-0.4c-0.4-0.1-0.9-0.9-1.3-0.8c-0.1,0-0.4-0.1-0.6,0c-0.4,0.1-0.9,0.7-1.2,0.6
	c-0.2-0.1-0.1-0.1-0.4,0c-0.1,0-0.2,0-0.3,0c-0.2,0-0.4-0.1-0.5-0.2c-0.1,0-0.3,0-0.6,0c-0.2,0-0.4,0.1-0.6,0.1
	c-0.7,0.1-0.7,0.6-1.1,0.8c-0.5,0.2-0.1,0.4-1.4,0.5c-1.2,0.1-1.1-0.1-1.8,0.2s-0.2,1-1.2,0.9C143.4,13.6,143.2,13.6,143.1,13.6z"/>
<path fill-rule="evenodd" clip-rule="evenodd" fill="#FFFFFF" d="M138.2,16.6c-0.1-0.1,0.6-0.1,0.5-0.1c-0.1-0.1-0.1-0.3,0-0.4
	c0-0.1,0.1,0,0.3,0c0.1-0.1,0.2-0.1,0.4-0.1c0.1,0,0.3-0.1,0.4-0.1c0.1,0,0.4-0.1,0.5-0.2c0.3-0.1,0.5,0,0.6,0.1
	c0.4,0.1,0.5,0.2,0.8,0.2c0.1,0,0.5,0,0.7,0.1c0.5,0.1,0.2,0.6,0.7,0.6c0.2,0,0.3,0.1,0.4,0.1c0.2,0.1,0.5,0,0.7,0.1
	c0.4,0.1-1.8,0.1-2.8,0.1c-0.6,0-1.3,0-1.8-0.1C139.5,16.6,138.4,16.7,138.2,16.6z"/>
<path fill-rule="evenodd" clip-rule="evenodd" fill="#FFFFFF" d="M322,18.4c-0.1-0.1,0.6-0.1,0.5-0.1c-0.1-0.1-0.1-0.4-0.1-0.4
	c0.1-0.1,0.2,0,0.3-0.1c0.1,0,0.3-0.1,0.4-0.1c0.1,0,0.3-0.1,0.4-0.1c0.1-0.1,0.4-0.2,0.5-0.2c0.3-0.1,0.6,0,0.6,0
	c0.4,0.1,0.5,0.3,0.8,0.2c0.2,0,0.6,0.1,0.7,0.1c0.5,0.1,0.3,0.6,0.8,0.6c0.2,0,0.3,0.1,0.4,0.1c0.2,0.1,0.5,0,0.7,0.1
	c0.4,0.1-1.8,0.1-2.9,0.1c-0.7,0-1.4,0-1.9-0.1C323.3,18.4,322.1,18.4,322,18.4z"/>
<path fill-rule="evenodd" clip-rule="evenodd" fill="#FFFFFF" d="M430.2,14.8c-0.7-0.1-22.1-0.2-26-0.3c-2.2-0.1-2.3-0.1-2.3-0.4
	c0-0.1,0.1-0.1,0.4-0.1c0.2,0,0.7-0.3,0.9-0.4c0.1,0,0.6-0.3,0.9-0.2c0.4,0.1,0.4,0.3,0.7,0.2c0.9-0.1,1.1-0.8,1.2-0.8
	c1,0.1,1.6-1,3.3-1.1c1.2-0.1,1.5-1,2.3-1.9c0.4-0.4,1.7-0.6,2.4-0.9c0.5-0.3,0.8-1.1,1.4-1.4c0.4-0.2,1.1-0.1,1.4-0.1
	c0.3,0,0.7-0.1,1,0c0.8,0.3,1.4,0.9,2,0.6c0.4-0.1,0.3-0.1,0.8,0c0.1,0.1,0.4,0.1,0.5,0.1c0.3,0,0.6-0.3,0.9-0.4
	c0.3-0.1,0.6,0,1.1,0c0.4,0,1.2,0,1.4,0.1c1.3,0.4,1.4,1.4,2,1.7c0.8,0.4,0.4,1.2,2.6,1.3c0.7,0.1,1.4-0.3,1.7-0.2
	c0.6,0.1,0.4,0.6,1.2,1.1c1.3,0.6,0.4,2.1,2.1,2c1.7-0.1,2.1,0.4,0.9,0.8c-1.2,0.3-2.4,0.2-3.2,0.1
	C431.3,14.7,430.2,14.8,430.2,14.8z"/>
<path fill-rule="evenodd" clip-rule="evenodd" fill="#FFFFFF" d="M404,17.2c-0.2,0-5.8,0-6.9-0.1c-0.6,0-0.6,0-0.6-0.1
	c0,0,0,0,0.1,0c0.1-0.1,0.2-0.1,0.3-0.1c0,0,0.1-0.1,0.2-0.1c0.1,0.1,0.1,0.1,0.2,0.1c0.2,0,0.3-0.2,0.3-0.2
	c0.3,0.1,0.4-0.2,0.9-0.3c0.3,0,0.4-0.2,0.6-0.4c0.1-0.1,0.4-0.1,0.6-0.3c0.1,0,0.2-0.2,0.4-0.4c0.1,0,0.3,0,0.4,0s0.2,0,0.3,0
	c0.2,0.1,0.4,0.2,0.5,0.2c0.1-0.1,0.1-0.1,0.2,0c0.1,0,0.1,0,0.1,0c0.1,0,0.1-0.1,0.2-0.1c0.1,0,0.1,0,0.3,0c0.1,0,0.3,0,0.4,0.1
	c0.4,0.1,0.4,0.3,0.6,0.4c0.2,0.1,0.1,0.3,0.6,0.3c0.2,0,0.4-0.1,0.4,0c0.2,0,0.1,0.1,0.4,0.2c0.3,0.2,0.1,0.6,0.5,0.5
	c0.4,0,0.6,0.1,0.3,0.2c-0.4,0.1-0.6,0.1-0.9,0.1C404.3,17.2,404,17.2,404,17.2z"/>
<path fill-rule="evenodd" clip-rule="evenodd" fill="#FFFFFF" d="M429,19.8c-0.2-0.1,0.8-0.1,0.7-0.1c-0.1-0.2-0.2-0.5-0.1-0.6
	c0.1-0.1,0.3,0,0.4-0.1c0.1,0,0.4-0.1,0.6-0.1s0.4-0.1,0.5-0.2c0.3,0,0.6-0.2,0.8-0.3c0.4-0.1,0.7,0,0.9,0.1
	c0.5,0.1,0.6,0.4,1.1,0.3c0.3,0,0.8,0,1.1,0.1c0.7,0.1,0.4,0.9,1.1,0.9c0.3,0,0.4,0.1,0.6,0.1c0.3,0.1,0.6,0,0.9,0.1
	c0.5,0.3-2.5,0.1-4,0.1c-1,0-1.9-0.1-2.7-0.1C430.7,19.9,429.1,20,429,19.8z"/>
<path fill-rule="evenodd" clip-rule="evenodd" fill="#FFFFFF" d="M368.1,29c-0.5-0.1-15.8-0.1-18.6-0.2c-1.6,0-1.7-0.1-1.7-0.2
	c0-0.1,0.1-0.1,0.3-0.1c0.2-0.1,0.5-0.3,0.6-0.4c0.1,0,0.5-0.2,0.7-0.1c0.2,0.1,0.3,0.2,0.5,0.1c0.6-0.1,0.8-0.6,0.9-0.6
	c0.7,0.1,1.2-0.7,2.4-0.8c0.9-0.1,1.1-0.7,1.7-1.3c0.3-0.3,1.2-0.4,1.7-0.6c0.4-0.2,0.6-0.8,1-1c0.2-0.1,0.7-0.1,1-0.1
	c0.1,0,0.5-0.1,0.7,0c0.5,0.2,1,0.6,1.4,0.5c0.3-0.1,0.2-0.1,0.6,0c0.1,0,0.3,0,0.4,0c0.2,0,0.4-0.2,0.6-0.3s0.4,0,0.8,0
	c0.3,0,0.8,0,1,0.1c0.9,0.2,1,0.9,1.4,1.2c0.6,0.3,0.4,0.8,1.9,0.9c0.4,0,0.9-0.2,1.2-0.1c0.4,0.1,0.3,0.4,0.9,0.7
	c0.9,0.5,0.4,1.5,1.5,1.4c1.2-0.1,1.5,0.4,0.6,0.6c-0.9,0.2-1.7,0.2-2.2,0.1S368.1,29,368.1,29z"/>
<path fill-rule="evenodd" clip-rule="evenodd" fill="#FFFFFF" d="M349.3,23.4c-0.1,0-4.2,0-5,0c-0.4,0-0.4-0.1-0.4-0.1s0,0,0.1,0
	c0.1-0.1,0.1-0.1,0.1-0.1c0.1,0,0.1,0,0.2,0c0.1,0,0.1,0.1,0.1,0c0.1,0,0.2-0.1,0.2-0.1c0.2,0.1,0.3-0.1,0.6-0.1
	c0.2-0.1,0.3-0.2,0.4-0.4c0.1-0.1,0.3-0.1,0.4-0.2c0.1,0,0.1-0.1,0.3-0.2c0.1-0.1,0.2,0,0.2,0c0.1,0,0.1-0.1,0.2,0
	c0.1,0,0.3,0.1,0.4,0.1c0.1,0,0.1,0,0.1,0s0.1,0.1,0.1,0.1c0.1-0.1,0.1-0.1,0.1-0.1c0.1,0,0.1,0,0.2,0s0.2,0,0.3,0.1
	c0.2,0,0.2,0.2,0.4,0.3c0.1,0.1,0.1,0.2,0.5,0.2c0.1,0,0.3,0,0.3,0c0.1,0,0.1,0.1,0.3,0.2c0.2,0.1,0.1,0.4,0.4,0.4
	c0.3-0.1,0.4,0.1,0.1,0.1c-0.2,0.1-0.4,0-0.6,0S349.3,23.4,349.3,23.4z"/>
<path fill-rule="evenodd" clip-rule="evenodd" fill="#FFFFFF" d="M367.3,25.4c-0.1-0.1,0.6-0.1,0.5-0.1c-0.1-0.1-0.1-0.4-0.1-0.4
	c0.1-0.1,0.2,0,0.4-0.1c0.1,0,0.2-0.1,0.4-0.1c0.1,0,0.3-0.1,0.4-0.1c0.1-0.1,0.4-0.2,0.6-0.2c0.3-0.1,0.5,0,0.6,0
	c0.4,0.1,0.5,0.3,0.8,0.2c0.2,0,0.6,0.1,0.8,0.1c0.5,0.1,0.2,0.6,0.7,0.6c0.2,0,0.3,0.1,0.5,0.1c0.2,0.1,0.5,0,0.6,0.1
	c0.4,0.1-1.8,0.1-2.9,0.1c-0.7,0-1.4,0-1.9-0.1C368.5,25.4,367.4,25.4,367.3,25.4z"/>
</svg>
