<?xml version="1.0" encoding="utf-8"?>
<!-- Generator: Adobe Illustrator 18.1.1, SVG Export Plug-In . SVG Version: 6.00 Build 0)  -->
<svg version="1.1" id="Layer_1" xmlns="http://www.w3.org/2000/svg" xmlns:xlink="http://www.w3.org/1999/xlink" x="0px" y="0px"
	 viewBox="0 0 461 259" enable-background="new 0 0 461 259" xml:space="preserve">
<g>
	<g>
		<path fill-rule="evenodd" clip-rule="evenodd" fill="#939598" d="M126.1,30.8c0.6-0.9,0.6-2.3,0.6-3c0.1-0.7,0-1-0.1-1.7
			c-0.1-0.6,0.4-1,1.3-0.9c0.5,0.1,1.2,0.2,1.4,0.1c0.2,0,0.2-0.1,0.2-0.1c0.1-0.2-0.3-0.4-0.4-0.5c0-0.1-0.1-0.1-0.1-0.2
			c-0.1-0.1-0.1-0.4-0.1-0.5c-0.1-0.3-0.4-0.6-0.9-0.8c-0.2-0.1-0.5-0.1-0.7-0.1c-0.7,0.1-1.4,0.6-1.7,1.4c-0.4,1.7,0.4,3.1-0.6,5
			c-0.9,1.5-3.7,2.4-5,0.8c-0.4-0.6-0.7-1.2-1.7-1c-1,0.1-0.6,0.5-1.6,0.6c-0.9,0-1-0.7-1.7-1.2c-0.8-0.5-2.2-0.7-3.6,0.9
			c-1.2,1.4-2.6,3-4.1,3.3c-1.5,0.4,4.9,0.9,7.2-0.1c2.3-1.1,2.4-0.2,4.6,0C121.7,33.1,124.4,33.2,126.1,30.8z"/>
		<path fill-rule="evenodd" clip-rule="evenodd" fill="#939598" d="M94.4,34.4c-1.8-2.2-0.8-5.8-0.8-5.8c-0.1,1.9,0.4,3.4,1.1,4.4
			c0.7,1.1,1.7,1.6,1.7,1.4c0.1-0.1-0.6-0.1-0.8-0.1C95.4,34.3,94.4,34.4,94.4,34.4z"/>
	</g>
	<path fill-rule="evenodd" clip-rule="evenodd" fill="#231F20" d="M128.2,24.1c0.1,0,0.1,0.1,0.1,0.1c0,0.1-0.1,0.1-0.1,0.1
		c-0.1,0-0.2-0.1-0.2-0.1C127.9,24.2,128,24.1,128.2,24.1z"/>
	<path fill-rule="evenodd" clip-rule="evenodd" fill="#231F20" d="M129.1,23.6c0.1,0,0.1,0.1,0.1,0.1c0,0.1-0.1,0.2-0.1,0.2
		s-0.1-0.1-0.1-0.2C128.9,23.7,129,23.6,129.1,23.6z"/>
</g>
<path fill-rule="evenodd" clip-rule="evenodd" fill="#EFF9FE" d="M374,30.3c1.1-0.1,1.4,0.1,1.2,0.3c-0.1,0.1-0.5,0.1-0.6,0.6
	c-0.1,0.3,0.1,0.5,0.1,0.7c0.1,0.6,0.7,0.9,1.1,1.2c0.9,0.6,2.2,0.6,3.7,0.7c2.9,0.2,7.1,0.5,10.2-0.6c4.2,0.9,8.5-0.9,11.2-0.9
	c2.9,0,6.6,0.4,9.6,0.5c2.3,0.4,7.1-0.3,9.6-1.4c1,0.4,2.2,0.1,4-0.2c0.6-0.1,2.5-0.4,3.1-0.6c1-0.2,1.4-0.5,2.2-0.7
	c0.8-0.2,1.2-0.1,1.7,0.1c-1.1,0.4-0.9,0.9-0.7,1.3c0.4,0.4,1.7,0.2,2.9,0.3c4.3,0.2,7.5,0,11.7,0.4c3.7,0.4,6.7-0.1,10.4-0.1
	c0.7,0,1.4-0.1,2.1-0.1c1.7,0.8,5.5,1.2,7.6,1.2c1.7,0,4.5-0.7,6.6-1.1c1.3-0.2,1.9-0.1,3.1-0.3c2.7,1.2,5.4,0.9,8.2,1.3
	c2.3,0.4,5.6-0.4,8-0.3c3.1,0.1,5,0.7,8.6,0.6v34.1H371.3v1.7H230.1v-1.7H82.9v1.7H-37.2V33.9c1.4,0.1,2.8,0.1,4.2,0.2
	c2.5,0.1,5,0.2,7.5,0.2s5.7-0.9,7.8-1.3c1.1,0.4,3,0.8,4.3,0.7c1.7-0.1,4.2,0.3,6,0.1c1.2-0.1,1.4,0.4,2.7,0.3
	c2.4-0.2,4.8-0.4,7.1-0.6c2.9-0.2,8.9-0.9,11.3-1c4.5-0.1,5.2,0.7,8.9,1c3.1,0.2,7.8-0.2,10.9,0.1c3.8,0.4,5.9-0.4,10.4-0.4
	c2.3,0,2.6,0.9,5.8,1.2c1.2,0.1,5.1-0.5,6.3-0.4c4.5,0.4,13-0.9,17.6-0.4c10.6,0.8,5.7-2.7,12.3-3.5c1-0.1,1.3,0.1,1.2,0.3
	c-0.1,0.1-0.6,0.1-0.6,0.6c0,0.3,0.1,0.5,0.1,0.7c0.1,0.6,0.7,0.9,1.1,1.2c0.9,0.6,2.2,0.6,3.7,0.7c2.9,0.2,7.1,0.5,10.3-0.6
	c4.1,0.9,8.5-0.9,11.2-0.9c2.9,0,6.6,0.4,9.6,0.5c2.3,0.4,7.1-0.3,9.6-1.4c1,0.4,2.2,0.1,4-0.2c0.6-0.1,2.5-0.4,3.2-0.6
	c0.9-0.2,1.3-0.5,2.1-0.7c0.8-0.2,1.2-0.1,1.8,0.1c-1.2,0.4-1,0.9-0.8,1.3c0.4,0.4,1.7,0.2,2.9,0.3c4.3,0.2,7.5,0,11.7,0.4
	c3.7,0.4,6.8-0.1,10.4-0.1c0.7,0,1.4-0.1,2.1-0.1c1.7,0.8,5.6,1.2,7.6,1.2c1.7,0,4.5-0.7,6.6-1.1c1.3-0.2,1.9-0.1,3.1-0.3
	c2.7,1.2,5.5,0.9,8.3,1.3c2.2,0.4,5.5-0.4,7.9-0.3c3.2,0.1,5.3,0.8,9.1,0.6c2.9-0.2,5.5,0.4,8.6,0.2c0.4,0,2.5-0.4,4.5-1.1
	c1.4-0.5,2.6-1.1,3.5-1.4c0.8-0.3,1.4-0.3,1.2,0c-0.9,1.3,2.1,1.4,2.7,1.4c0.5,0,1-0.1,1.4-0.1v1.3c1.4-0.2,2.7-0.4,4-0.4
	c1.6,0.1,3.2,0.2,4.8,0.3c1.7,0.1,3.5,0.3,5.1,0.4c2.6,0.2,5.2,0.4,7.7,0.5s5,0.2,7.5,0.2s5.7-0.9,7.8-1.3c1.1,0.4,2.9,0.8,4.2,0.7
	c1.7-0.1,4.2,0.3,6,0.1c1.3-0.1,1.4,0.4,2.7,0.3c2.4-0.2,4.8-0.4,7.1-0.6c2.9-0.2,8.9-0.9,11.3-1c4.5-0.1,5.1,0.7,8.9,1
	c3.1,0.2,7.8-0.2,10.9,0.1c3.8,0.4,5.9-0.4,10.3-0.4c2.4,0,2.7,0.9,5.8,1.2c1.2,0.1,5-0.5,6.3-0.4c4.5,0.4,13-0.9,17.6-0.4
	C372.4,34.5,367.5,31,374,30.3z"/>
<g>
	<path fill="#D1EEFC" d="M66.1,48.8C65.7,49,65.4,49,65.2,49c-0.2,0.1-0.5,0.1-0.7,0.1c-0.2-0.1-0.5-0.1-0.7-0.3
		c-0.1-0.2-0.2-0.6-0.1-0.8c0-0.1,0.1-0.4,0.2-0.4c0.2-0.2,0.8-0.3,1,0c0,0.1,0,0.2,0,0.3c-0.1,0.1-0.1,0.2-0.2,0.2l0,0
		c0.1,0,0.3-0.1,0.3-0.1c0.1-0.1,0.1-0.1,0.1-0.2c0.1-0.6-0.6-0.8-1.2-0.8c-0.9,0-0.9,0.9-1.4,1.4c-0.2,0.3-0.4,0.6-0.7,0.7
		c-0.4,0.1-0.8,0.1-1.2,0.1c-0.2,0-0.4-0.1-0.7,0c-0.5,0.1-0.6,0.1-0.8,0C58.8,49,58.3,49,58.3,49c-0.1-0.1,0.5-0.2,0.8-0.1
		c0.1,0.1,0.2,0.1,0.6,0c0.4-0.1,0.6-0.1,0.8-0.1c0.7,0,1-0.1,1.4-0.6c0.4-0.5,0.5-1,0.9-1.4c0.5-0.6,1.5-0.5,2-0.1
		c0.1,0.1,0.4,0.5,0.4,0.9c0,0.1-0.2,0.4-0.4,0.5c-0.1,0.1-0.2,0.1-0.4,0.1c-0.1,0-0.1-0.1-0.1-0.1l0,0c-0.1-0.1-0.1-0.1-0.1-0.1
		c-0.1-0.1-0.1-0.3,0-0.2c0,0,0,0.1,0.1,0.1s0.1,0.1,0.1,0c0.1,0,0.1-0.1,0.1-0.1c0-0.1-0.1-0.3-0.2-0.3c-0.4-0.1-0.6,0.1-0.6,0.4
		c-0.1,0.4,0.2,0.7,0.6,0.7c0.2,0.1,0.4,0.1,0.6,0c0.3,0,0.5-0.1,0.9-0.1s0.9-0.1,1.3-0.1c0.8,0.2,1,0.5,1.1,0.6
		c0.1,0.1-0.1-0.1-0.3-0.1c-0.1,0-0.4-0.1-0.4-0.1C67,48.7,66.7,48.7,66.1,48.8z"/>
	<path fill-rule="evenodd" clip-rule="evenodd" fill="#D1EEFC" d="M59.2,48.5c0,0-0.4-0.4-1.7-0.2c-1.3,0.2-2.2,0.5-3.2,0.5
		S53,48.7,53,48.7s-0.1,0.2,1.3,0.4c1.5,0.1,2.1-0.4,3-0.5C58.2,48.5,59.2,48.5,59.2,48.5z"/>
	<path fill-rule="evenodd" clip-rule="evenodd" fill="#D1EEFC" d="M67.2,49.2c0,0,0.4,0.4,1.8,0.3c1.3-0.1,1.6-0.6,2.3-0.5
		c0.8,0.1,1.1,0.5,1.1,0.5s-0.6-0.3-1.1-0.3c-0.5,0-0.9,0.3-1.5,0.4c-0.6,0.1-0.8,0.1-1.4,0.1C67.7,49.6,67.2,49.2,67.2,49.2z"/>
	<path fill-rule="evenodd" clip-rule="evenodd" fill="#D1EEFC" d="M63.9,51c0,0-0.3-0.3-1-0.1c-0.6,0.2-0.6,0.2-1.3,0.2
		c-0.7-0.1-1-0.2-1-0.2s0.5,0.4,0.9,0.4c0.5,0,0.9,0,1.4-0.1C63.5,51,63.9,51,63.9,51z"/>
	<path fill-rule="evenodd" clip-rule="evenodd" fill="#D1EEFC" d="M57.5,52.6c0,0-0.3-0.1-0.8-0.1c-0.6,0.1-0.5,0.2-1.1,0.1
		c-0.5,0-0.7-0.1-0.7-0.1s0.4,0.3,0.7,0.3s0.7,0,1.2-0.1C57.2,52.6,57.5,52.6,57.5,52.6z"/>
	<path fill="#D1EEFC" d="M30.2,44.8c-0.5,0.1-0.8,0.3-1.2,0.3c-0.4,0.1-0.6,0.1-0.9,0c-0.4,0-0.9-0.2-1.1-0.4
		c-0.2-0.3-0.3-0.9-0.3-1.2c0.1-0.3,0.1-0.5,0.4-0.6c0.4-0.4,1.2-0.4,1.4,0.1c0,0.1,0.1,0.2,0,0.4c0,0.1-0.1,0.3-0.3,0.4l0,0
		c0.2,0,0.4-0.1,0.4-0.3c0.1-0.1,0.1-0.2,0.1-0.3c0.1-0.9-0.9-1.2-1.7-1.2c-1.2,0-1.4,1.2-1.9,2c-0.4,0.4-0.6,0.9-1.2,1
		c-0.4,0.2-1,0.1-1.6,0.1c-0.3,0-0.6,0-1,0.1c-0.7,0.2-0.9,0.1-1.1,0c-0.4-0.2-1.1-0.1-1.1-0.2c-0.1-0.1,0.7-0.3,1.2-0.1
		c0.2,0.1,0.3,0.1,0.9,0s0.9-0.1,1.2-0.1c1,0,1.4-0.1,2.1-0.9c0.6-0.7,0.7-1.4,1.3-1.9c0.7-0.9,2.2-0.6,2.9,0
		c0.2,0.1,0.5,0.6,0.4,1.2c0,0.3-0.1,0.6-0.4,0.7c-0.1,0.1-0.3,0.1-0.5,0.1c-0.1-0.1-0.1-0.1-0.2-0.1l0,0c-0.1-0.1-0.1-0.1-0.1-0.1
		c-0.2-0.3-0.1-0.4-0.1-0.4c0,0,0.1,0.1,0.1,0.1c0.1,0.1,0.1,0.1,0.2,0.1c0.1-0.1,0.1-0.1,0.1-0.2c0.1-0.1-0.1-0.3-0.3-0.4
		c-0.5-0.1-0.8,0.2-0.9,0.6c-0.1,0.6,0.4,1,0.9,1.1c0.3,0,0.6,0,0.9,0c0.4-0.1,0.7-0.1,1.2-0.2c0.5-0.1,1.2-0.2,1.9-0.1
		c1.1,0.2,1.4,0.6,1.6,0.8c0.1,0.1-0.2-0.1-0.5-0.2c-0.1-0.1-0.4-0.1-0.6-0.1c-0.5-0.2-1.2-0.1-1.7-0.1
		C30.7,44.7,30.5,44.7,30.2,44.8z"/>
	<path fill-rule="evenodd" clip-rule="evenodd" fill="#D1EEFC" d="M20.4,44.2c0,0-0.6-0.6-2.4-0.3c-1.9,0.3-3.2,0.7-4.6,0.7
		c-1.5,0.1-1.9-0.2-1.9-0.2s-0.2,0.4,1.9,0.5c2.1,0.1,3-0.5,4.3-0.6C19.1,44.1,20.4,44.2,20.4,44.2z"/>
	<path fill-rule="evenodd" clip-rule="evenodd" fill="#D1EEFC" d="M32.2,45.2c0,0,0.6,0.6,2.6,0.4c1.9-0.1,2.3-0.7,3.4-0.6
		c1.1,0.1,1.5,0.6,1.5,0.6s-0.8-0.3-1.5-0.3s-1.4,0.4-2.2,0.6C35,46,34.8,46,33.8,46C32.9,45.8,32.2,45.2,32.2,45.2z"/>
	<path fill-rule="evenodd" clip-rule="evenodd" fill="#D1EEFC" d="M29.3,48.3c0,0-2.4-0.9-3.4-0.7c-1,0.3-0.9,0.3-1.9,0.3
		c-1.1-0.1-1.4-0.3-1.4-0.3s0.7,0.5,1.4,0.5c0.7,0,1.4,0,2.2-0.2C26.8,47.8,29.3,48.3,29.3,48.3z"/>
	<path fill-rule="evenodd" clip-rule="evenodd" fill="#D1EEFC" d="M18,50.1c0,0-0.4-0.3-1.2-0.1c-0.7,0.1-0.6,0.2-1.4,0.1
		c-0.9,0-1.2-0.1-1.2-0.1s0.5,0.4,1.1,0.4c0.5,0,1.1,0,1.7-0.1C17.6,50.1,18,50.1,18,50.1z"/>
	<path fill-rule="evenodd" clip-rule="evenodd" fill="#D1EEFC" d="M32.5,49c0,0-0.4-0.3-1.2-0.1c-0.8,0.2-0.7,0.2-1.5,0.2
		c-0.8-0.1-1.1-0.2-1.1-0.2s0.5,0.4,1,0.4c0.6,0,1.1,0,1.7-0.1C32,49,32.5,49,32.5,49z"/>
	<path fill-rule="evenodd" clip-rule="evenodd" fill="#D1EEFC" d="M114.8,39.6c0,0-1.1-0.8-3.3-0.3c-2.2,0.6-1.9,0.7-4.2,0.6
		c-2.4-0.1-3.2-0.6-3.2-0.6s1.5,1.1,3,1.1s3,0,4.6-0.4C113.4,39.6,114.8,39.6,114.8,39.6z"/>
	<path fill-rule="evenodd" clip-rule="evenodd" fill="#D1EEFC" d="M108.4,44.1c0.1-0.1-1.6-0.1-3.4-1c-1.8-0.9-2.2,0.9-7.3,1
		c-5.1,0.1,1.1,0.1,1.9,0.1c0.7,0,3-0.6,3.5-0.8s0.9-0.4,1.4-0.2c0.4,0.1,1.2,0.5,1.9,0.6C106.9,44,108.1,44.2,108.4,44.1z"/>
	<path fill-rule="evenodd" clip-rule="evenodd" fill="#D1EEFC" d="M449.8,40.7c0,0-1.9-1.4-5.1-1.1c-1.4,0.2-2.2,0.6-2.8,0.6
		c-0.9,0.1-1.5,0-3.2-0.1c-3-0.2-4-1-4-1s1.4,1.2,3.6,1.4c2.3,0.3,3.6,0.5,4.8,0c1.2-0.5,2.3-0.6,4.2-0.4
		C449.1,40.4,449.8,40.7,449.8,40.7z"/>
	<path fill-rule="evenodd" clip-rule="evenodd" fill="#D1EEFC" d="M434.8,41c0,0-1.9-1.4-5.1-1.1c-1.4,0.1-2.2,0.6-2.8,0.6
		c-4.5,0.6-1.2,1.2,1.1,0.2c1.2-0.4,2.3-0.6,4.2-0.4C434.1,40.6,434.8,41,434.8,41z"/>
	<path fill-rule="evenodd" clip-rule="evenodd" fill="#D1EEFC" d="M429.7,44.4c0,0-0.5-0.4-1.6-0.1c-1.1,0.2-0.9,0.3-2.1,0.2
		c-1.2-0.1-1.5-0.2-1.5-0.2s0.7,0.5,1.4,0.5c0.8,0,1.5,0,2.3-0.2C429,44.4,429.7,44.4,429.7,44.4z"/>
	<path fill-rule="evenodd" clip-rule="evenodd" fill="#D1EEFC" d="M410.2,39.8c0,0-1.3-0.9-3.4-0.7c-0.9,0.1-1.4,0.4-1.8,0.4
		c-0.6,0.1-1,0-2.2-0.1c-1.9-0.1-2.6-0.7-2.6-0.7s0.9,0.8,2.4,0.9c1.4,0.1,2.3,0.3,3.1,0c0.7-0.3,1.5-0.4,2.7-0.2
		C409.7,39.6,410.2,39.8,410.2,39.8z"/>
	<path fill-rule="evenodd" clip-rule="evenodd" fill="#D1EEFC" d="M400.4,40c0,0-1.3-0.9-3.4-0.7c-0.9,0.1-1.4,0.4-1.8,0.4
		c-3,0.4-0.8,0.8,0.7,0.1c0.7-0.3,1.5-0.4,2.7-0.2C399.9,39.8,400.4,40,400.4,40z"/>
	<path fill-rule="evenodd" clip-rule="evenodd" fill="#D1EEFC" d="M397.1,42.4c0,0-0.9-0.6-2.7-0.2c-1.8,0.4-1.6,0.6-3.5,0.4
		c-1.9-0.1-2.6-0.4-2.6-0.4s1.2,0.9,2.4,0.9c1.3,0,2.5,0,3.9-0.4C395.9,42.4,397.1,42.4,397.1,42.4z"/>
	<path fill-rule="evenodd" clip-rule="evenodd" fill="#D1EEFC" d="M301.2,41.1c0,0,1.9-1.4,5.1-1.1c1.4,0.1,2.2,0.6,2.8,0.6
		c0.9,0.1,1.5,0,3.2-0.1c3-0.2,4-1,4-1s-1.4,1.2-3.6,1.4c-2.3,0.3-3.6,0.4-4.8,0c-1.2-0.5-2.3-0.6-4.2-0.4
		C302,40.8,301.2,41.1,301.2,41.1z"/>
	<path fill-rule="evenodd" clip-rule="evenodd" fill="#D1EEFC" d="M316.2,41.4c0,0,1.9-1.4,5.1-1.1c1.4,0.1,2.2,0.5,2.8,0.6
		c4.5,0.6,1.2,1.2-1.1,0.2c-1.2-0.4-2.3-0.6-4.2-0.4C316.9,41.1,316.2,41.4,316.2,41.4z"/>
	<path fill-rule="evenodd" clip-rule="evenodd" fill="#D1EEFC" d="M321.3,44.8c0,0,0.5-0.4,1.6-0.1c1.1,0.2,0.9,0.3,2.1,0.2
		c1.2-0.1,1.5-0.2,1.5-0.2s-0.7,0.5-1.4,0.5c-0.8,0-1.5,0-2.3-0.2C322,44.8,321.3,44.8,321.3,44.8z"/>
	<path fill-rule="evenodd" clip-rule="evenodd" fill="#D1EEFC" d="M340.8,40.2c0,0,1.3-0.9,3.4-0.6c0.9,0.1,1.4,0.4,1.8,0.4
		c0.6,0.1,1,0.1,2.2,0c1.9-0.1,2.6-0.7,2.6-0.7s-0.9,0.8-2.3,0.9c-1.5,0.1-2.4,0.3-3.2,0c-0.7-0.3-1.5-0.4-2.7-0.2
		C341.3,40,340.8,40.2,340.8,40.2z"/>
	<path fill-rule="evenodd" clip-rule="evenodd" fill="#D1EEFC" d="M350.6,40.4c0,0,1.3-0.9,3.4-0.7c0.9,0.1,1.4,0.4,1.8,0.4
		c3,0.4,0.8,0.8-0.7,0.1c-0.7-0.3-1.5-0.4-2.7-0.2C351.1,40.2,350.6,40.4,350.6,40.4z"/>
	<path fill-rule="evenodd" clip-rule="evenodd" fill="#D1EEFC" d="M353.9,42.9c0,0,0.9-0.6,2.7-0.2c1.8,0.4,1.6,0.6,3.5,0.4
		c1.9-0.1,2.6-0.4,2.6-0.4s-1.2,0.9-2.4,0.9c-1.3,0-2.5,0-3.9-0.4C355.1,42.9,353.9,42.9,353.9,42.9z"/>
	<path fill-rule="evenodd" clip-rule="evenodd" fill="#D1EEFC" d="M359.3,46.6c-0.2-0.1,1.3-0.1,2.7-0.9c1.5-0.7,1.8,0.7,6.1,0.9
		c4.2,0.1-0.9,0.1-1.5,0.1s-2.4-0.5-2.9-0.7c-0.4-0.1-0.8-0.3-1.2-0.1c-0.4,0.1-1,0.4-1.6,0.5C360.5,46.5,359.5,46.7,359.3,46.6z"/>
	<path fill-rule="evenodd" clip-rule="evenodd" fill="#D1EEFC" d="M234,43.8c0,0-2-1.5-5.3-1.2c-1.5,0.1-2.2,0.6-3,0.6
		c-0.9,0.1-1.6,0.1-3.3-0.1c-3.1-0.2-4.2-1.1-4.2-1.1s1.4,1.2,3.7,1.5c2.3,0.2,3.7,0.4,4.9-0.1c1.2-0.5,2.4-0.6,4.4-0.4
		C233.2,43.4,234,43.8,234,43.8z"/>
	<path fill-rule="evenodd" clip-rule="evenodd" fill="#D1EEFC" d="M218.5,44c0,0-2-1.4-5.3-1.1c-1.4,0.1-2.2,0.6-2.9,0.6
		c-4.7,0.6-1.3,1.3,1.1,0.3c1.2-0.5,2.4-0.6,4.4-0.4C217.8,43.7,218.5,44,218.5,44z"/>
	<path fill-rule="evenodd" clip-rule="evenodd" fill="#D1EEFC" d="M213.3,48c0,0-1.4-1.1-4.3-0.4c-2.9,0.7-2.5,0.9-5.6,0.7
		c-3-0.2-4.1-0.7-4.1-0.7s1.9,1.4,4,1.4c1.9,0,4,0,6.1-0.6C211.5,48,213.3,48,213.3,48z"/>
	<path fill-rule="evenodd" clip-rule="evenodd" fill="#D1EEFC" d="M286.8,42.6c0.2-0.1-1.9-0.1-4-1.2c-2.1-1-2.5,1.1-8.6,1.2
		c-6.2,0.1,1.2,0.2,2.2,0.2s3.5-0.7,4.1-0.9c0.6-0.3,1.2-0.5,1.7-0.3c0.5,0.1,1.4,0.6,2.2,0.8C285.1,42.6,286.6,42.8,286.8,42.6z"/>
	<path fill-rule="evenodd" clip-rule="evenodd" fill="#D1EEFC" d="M166.7,41.6c0,0-2-1.4-5.3-1.1c-1.5,0.1-2.2,0.6-2.9,0.6
		c-0.9,0.1-1.7,0-3.4-0.1c-3.1-0.2-4.2-1.1-4.2-1.1s1.4,1.2,3.7,1.4c2.4,0.3,3.7,0.5,4.9,0c1.2-0.5,2.4-0.6,4.4-0.4
		C166,41.3,166.7,41.6,166.7,41.6z"/>
	<path fill-rule="evenodd" clip-rule="evenodd" fill="#D1EEFC" d="M151.2,41.9c0,0-1.9-1.4-5.3-1.1c-1.4,0.1-2.2,0.6-2.9,0.6
		c-4.6,0.6-1.3,1.3,1.2,0.3c1.2-0.5,2.4-0.6,4.4-0.4C150.5,41.6,151.2,41.9,151.2,41.9z"/>
	<path fill-rule="evenodd" clip-rule="evenodd" fill="#D1EEFC" d="M145.9,45.9c0,0-1.4-1.1-4.3-0.4c-2.9,0.7-2.5,0.9-5.6,0.7
		c-3-0.2-4.1-0.7-4.1-0.7s1.9,1.4,4,1.4c1.9,0,4,0,6.1-0.6C144.1,45.9,145.9,45.9,145.9,45.9z"/>
</g>
</svg>
