<?xml version="1.0" encoding="utf-8"?>
<!-- Generator: Adobe Illustrator 18.1.1, SVG Export Plug-In . SVG Version: 6.00 Build 0)  -->
<svg version="1.1" id="Layer_1" xmlns="http://www.w3.org/2000/svg" xmlns:xlink="http://www.w3.org/1999/xlink" x="0px" y="0px"
	 viewBox="0 0 461 259" enable-background="new 0 0 461 259" xml:space="preserve">
<g>
	<g>
		<path fill-rule="evenodd" clip-rule="evenodd" fill="#BB2A30" d="M111.1,217.2c1.3,3,2.7-4,6.2-3.2c1.7,0.4,4.5,3.4,6.3,3.8
			c1.4,0.4,2.8-0.3,4.2-1.1c1.2-0.6-0.1-1.4-0.9-5.1c-1-5.5-2.4-10.7-3.4-18.6c-0.9-6.8-1.4-14.4-1.8-20c-0.5-8.9-1-7.6,3.2-12
			c17.6-18.3,25.7-41.2,29.4-59.8l-44,0.4l-2.2,44.3l-3.1,56.8L111.1,217.2z"/>
		<g>
			<path fill-rule="evenodd" clip-rule="evenodd" fill="#952C31" d="M151.6,101.2c-2.2,8.6-5,17.5-8.6,24.4
				c-10.7,19.9-24.4,39-24.4,39s1.5,39.2,6.8,53.1l0.1,0.2c-0.4,0.1-0.9,0.1-1.3-0.1c-0.1,0-0.2-0.1-0.3-0.1
				c-0.6-1.9-1.2-4.2-1.7-6.6c-2.6-13.2-4.8-48.1-4.8-48.1s19.9-27.8,25.2-40.3c2.7-6.7,5.5-13.6,7.7-21.5H151.6z"/>
			<path fill-rule="evenodd" clip-rule="evenodd" fill="#952C31" d="M146.9,101.2c-2,8-4.7,16-8.1,22.4c-10.7,19.9-24.4,39-24.4,39
				s1.6,39.2,6.8,53.1l0.2,0.6c-0.7-0.5-1.4-1.1-2.1-1.5c-0.5-1.7-1-3.6-1.4-5.6c-2.7-13.2-4.8-48.1-4.8-48.1s19.9-27.8,25.2-40.3
				c2.6-6.2,5-12.5,7.2-19.5H146.9z"/>
			<path fill-rule="evenodd" clip-rule="evenodd" fill="#952C31" d="M140.4,101.3c-1.9,6.8-4.3,13.6-7.3,19.1
				c-10.7,19.9-24.4,39-24.4,39s1.5,39.1,6.8,53.1c0.2,0.5,0.4,1.1,0.6,1.5c-0.4,0.2-0.9,0.6-1.3,0.9c-0.9-2.4-1.8-5.5-2.5-9
				c-2.6-13.2-4.8-48.1-4.8-48.1s19.9-27.8,25.2-40.3c2.2-5.2,4.3-10.4,6.2-16.2H140.4z"/>
			<path fill-rule="evenodd" clip-rule="evenodd" fill="#952C31" d="M132.8,101.4c-1.6,4.9-3.4,9.6-5.5,13.6
				c-6.6,12.2-14.3,24.1-19.3,31.5l0.1-2.4l0.1-1.1c6.3-9.3,15.3-23,18.6-30.9c1.4-3.5,2.9-7.1,4.2-10.7H132.8L132.8,101.4z
				 M105.6,188.6c1,7.3,2.3,14.2,4,18.5c5.3,13.9-0.6,6.6-3.2-6.6c-0.4-1.7-0.7-3.7-1-6L105.6,188.6z"/>
		</g>
		<path fill-rule="evenodd" clip-rule="evenodd" fill="#FCEF98" d="M120.4,168.2c-2.1-0.6-6.6-2-9.9-5.5c-4.4-4.5-0.6-5.1-0.6-5.1
			s5.3,6.3,8.2,6.8c1.5,0.3,2.5,0.3,3.1,0.7c0.4,0.4,0.9,0.6,0.6,1.9C121.8,168.4,121.1,168.4,120.4,168.2z"/>
	</g>
	<g>
		<path fill-rule="evenodd" clip-rule="evenodd" fill="#BB2A30" d="M182.7,218.9c-1.2,3-2.7-4-6.1-3.3c-1.7,0.4-4.6,3.5-6.3,3.9
			c-1.4,0.3-2.8-0.3-4.1-1.1c-1.2-0.6,0.1-1.4,0.9-5.1c1-5.5,2.4-10.8,3.4-18.6c0.9-6.8,1.4-14.4,1.8-20c0.5-8.9,1-7.6-3.2-12
			c-18.1-18.8-26.1-42.4-29.7-61.3l43.6-0.4l0.6,1.2l2.2,45.4l3.1,56.8L182.7,218.9z"/>
		<g>
			<path fill-rule="evenodd" clip-rule="evenodd" fill="#952C31" d="M141.9,101.2c2.2,9.1,5,18.6,9,26c10.7,19.9,24.4,39,24.4,39
				s-1.5,39.1-6.8,53l-0.1,0.3c0.5,0,0.9,0,1.4-0.1c0.1-0.1,0.1-0.1,0.3-0.1c0.6-1.9,1.2-4.2,1.7-6.7c2.6-13.1,4.8-48,4.8-48
				s-19.9-27.8-25.2-40.3c-3-7.2-5.8-14.5-8.1-23.1H141.9z"/>
			<path fill-rule="evenodd" clip-rule="evenodd" fill="#952C31" d="M146.4,101.2c2.1,8.5,4.9,17.2,8.5,24
				c10.7,19.9,24.5,39,24.5,39s-1.6,39.1-6.8,53l-0.2,0.6c0.7-0.6,1.4-1.1,2.1-1.6c0.5-1.7,0.9-3.5,1.4-5.6c2.7-13.1,4.8-48,4.8-48
				s-19.9-27.8-25.2-40.3c-2.8-6.7-5.5-13.5-7.7-21.2H146.4z"/>
			<path fill-rule="evenodd" clip-rule="evenodd" fill="#952C31" d="M153,101.2c1.9,7.5,4.5,14.9,7.7,20.9
				c10.7,19.9,24.4,39,24.4,39s-1.5,39.1-6.8,53c-0.2,0.6-0.4,1.1-0.6,1.6c0.4,0.2,0.9,0.5,1.2,0.9c0.9-2.4,1.9-5.5,2.6-9.1
				c2.6-13.1,4.8-48,4.8-48s-19.9-27.8-25.2-40.3c-2.4-5.8-4.7-11.6-6.7-18H153z"/>
			<path fill-rule="evenodd" clip-rule="evenodd" fill="#952C31" d="M160.4,101.1c1.7,5.6,3.7,11,6.2,15.6
				c6.6,12.2,14.3,24.1,19.2,31.5l-0.1-2.5v-1.1c-6.3-9.2-15.3-23-18.6-30.8c-1.7-4.1-3.5-8.3-5-12.7H160.4L160.4,101.1z
				 M188.1,190.2c-0.9,7.3-2.2,14.1-3.9,18.5c-5.3,13.9,0.6,6.6,3.2-6.6c0.4-1.7,0.6-3.7,1-6L188.1,190.2z"/>
		</g>
		<path fill-rule="evenodd" clip-rule="evenodd" fill="#FCEF98" d="M173.4,169.8c2-0.5,6.6-2,9.9-5.4c4.3-4.6,0.5-5.2,0.5-5.2
			s-5.3,6.3-8.1,6.8c-1.5,0.4-2.6,0.4-3.1,0.8c-0.4,0.4-0.9,0.5-0.7,1.9C172,170.1,172.6,170,173.4,169.8z"/>
	</g>
	<g>
		<path fill-rule="evenodd" clip-rule="evenodd" fill="#BB2A30" d="M196.9,220.3c1.2,3,2.7-4,6.2-3.3c1.7,0.4,4.5,3.5,6.3,3.9
			c1.4,0.3,2.8-0.3,4.2-1.1c1.2-0.6-0.1-1.4-0.9-5.1c-1-5.5-2.4-10.8-3.4-18.6c-0.9-6.8-1.4-14.4-1.8-20c-0.5-8.9-1-7.6,3.2-12
			c18.8-19.6,26.7-44.4,30-63.6l-43.1,0.4l-1.5,2.7l-2.3,45.4l-3.1,56.8L196.9,220.3z"/>
		<g>
			<path fill-rule="evenodd" clip-rule="evenodd" fill="#952C31" d="M238.2,100.4c-2.2,9.8-5.3,20.3-9.4,28.2
				c-10.7,19.9-24.4,39-24.4,39s1.5,39.1,6.8,53l0.1,0.3c-0.4,0-0.9,0-1.3-0.1c-0.1-0.1-0.2-0.1-0.3-0.1c-0.6-1.9-1.2-4.2-1.7-6.7
				c-2.7-13.1-4.8-48-4.8-48s19.9-27.8,25.2-40.3c3.2-7.8,6.3-15.8,8.7-25.3H238.2z"/>
			<path fill-rule="evenodd" clip-rule="evenodd" fill="#952C31" d="M233.6,100.4c-2.2,9.2-5,18.9-9,26.3
				c-10.7,19.9-24.4,39-24.4,39s1.5,39.1,6.8,53l0.3,0.6c-0.7-0.6-1.4-1.1-2.1-1.6c-0.5-1.7-1-3.5-1.4-5.6c-2.6-13.1-4.8-48-4.8-48
				s19.9-27.8,25.2-40.3c3-7.3,5.9-14.7,8.1-23.3L233.6,100.4z"/>
			<path fill-rule="evenodd" clip-rule="evenodd" fill="#952C31" d="M227.2,100.5c-2,8.2-4.8,16.4-8.2,23
				c-10.7,19.9-24.4,39-24.4,39s1.5,39.1,6.8,53c0.2,0.6,0.4,1.1,0.6,1.6c-0.4,0.2-0.9,0.5-1.3,0.9c-0.9-2.4-1.8-5.5-2.5-9.1
				c-2.7-13.1-4.8-48-4.8-48s19.9-27.8,25.2-40.3c2.7-6.3,5.2-12.7,7.3-20.1H227.2z"/>
			<path fill-rule="evenodd" clip-rule="evenodd" fill="#952C31" d="M219.8,100.5c-1.9,6.3-4.1,12.5-6.8,17.5
				c-6.6,12.2-14.3,24.1-19.2,31.5l0.1-2.5l0.1-1.1c6.3-9.2,15.3-23,18.6-30.8c1.9-4.7,3.9-9.4,5.6-14.6H219.8L219.8,100.5z
				 M191.4,191.6c1,7.3,2.3,14.1,4,18.5c5.3,13.9-0.6,6.6-3.2-6.6c-0.4-1.7-0.7-3.7-1-6L191.4,191.6z"/>
		</g>
		<path fill-rule="evenodd" clip-rule="evenodd" fill="#FCEF98" d="M206.3,171.2c-2.1-0.5-6.6-2-9.9-5.4c-4.4-4.6-0.6-5.2-0.6-5.2
			s5.3,6.3,8.1,6.8c1.6,0.4,2.6,0.4,3.1,0.8c0.5,0.4,0.9,0.5,0.7,1.9S206.9,171.4,206.3,171.2z"/>
	</g>
	<g>
		<path fill-rule="evenodd" clip-rule="evenodd" fill="#BB2A30" d="M268.4,221.9c-1.2,2.9-2.7-4-6.1-3.3c-1.7,0.4-4.6,3.4-6.3,3.8
			c-1.4,0.4-2.8-0.3-4.2-1c-1.2-0.7,0.2-1.4,0.9-5.1c1-5.5,2.4-10.8,3.4-18.7c0.9-6.8,1.4-14.3,1.7-20c0.6-8.9,1.1-7.6-3.2-12
			c-19.3-20.1-27.1-45.7-30.2-65.1l42-0.4l2.8,5l2.2,45.4l3.1,56.8L268.4,221.9z"/>
		<g>
			<path fill-rule="evenodd" clip-rule="evenodd" fill="#952C31" d="M226.9,100.5c2.2,10.2,5.3,21.4,9.8,29.7
				c10.7,19.9,24.4,39.2,24.4,39.2s-1.6,39.1-6.8,53l-0.1,0.2c0.4,0.1,0.9,0.1,1.4-0.1c0.1,0,0.1,0,0.3-0.1c0.6-1.9,1.2-4.2,1.7-6.6
				c2.7-13.1,4.8-48,4.8-48s-19.9-27.9-25.2-40.4c-3.4-8.2-6.6-16.6-9.1-26.9H226.9z"/>
			<path fill-rule="evenodd" clip-rule="evenodd" fill="#952C31" d="M231.3,100.5c2.1,9.6,5.2,20,9.4,27.8
				c10.7,19.9,24.4,39.1,24.4,39.1s-1.5,39.1-6.8,53l-0.2,0.6c0.6-0.5,1.4-1.1,2.1-1.5c0.5-1.7,0.9-3.6,1.4-5.6
				c2.6-13.1,4.8-48,4.8-48s-19.9-27.9-25.2-40.4c-3.2-7.7-6.3-15.6-8.7-25L231.3,100.5z"/>
			<path fill-rule="evenodd" clip-rule="evenodd" fill="#952C31" d="M237.7,100.4c2.1,8.7,5,17.6,8.7,24.6
				c10.7,19.9,24.4,39.1,24.4,39.1s-1.6,39.1-6.8,53c-0.2,0.6-0.4,1.1-0.6,1.6c0.5,0.2,0.9,0.5,1.3,0.9c0.9-2.4,1.9-5.5,2.6-9
				c2.6-13.1,4.8-48,4.8-48s-19.9-27.9-25.2-40.4c-2.8-6.8-5.6-13.8-7.8-21.7H237.7z"/>
			<path fill-rule="evenodd" clip-rule="evenodd" fill="#952C31" d="M245,100.3c1.9,6.9,4.4,13.8,7.3,19.4
				c6.6,12.2,14.3,24.1,19.2,31.5l-0.1-2.5v-1.1c-6.3-9.3-15.3-23-18.6-30.8c-2.2-5.3-4.3-10.7-6.2-16.5H245L245,100.3z
				 M273.9,193.2c-1,7.3-2.2,14.2-3.9,18.5c-5.3,14,0.6,6.6,3.2-6.6c0.4-1.7,0.6-3.7,1-6L273.9,193.2z"/>
		</g>
		<path fill-rule="evenodd" clip-rule="evenodd" fill="#FCEF98" d="M259.1,172.8c2-0.5,6.6-2,9.9-5.5c4.3-4.5,0.5-5.1,0.5-5.1
			s-5.3,6.3-8.1,6.8c-1.6,0.3-2.6,0.3-3.1,0.7c-0.5,0.4-0.9,0.6-0.7,1.9C257.8,173.1,258.4,173,259.1,172.8z"/>
	</g>
	<g>
		<path fill-rule="evenodd" clip-rule="evenodd" fill="#BB2A30" d="M281.4,218.5c1.3,3,2.7-4,6.2-3.3c1.7,0.4,4.5,3.5,6.3,3.9
			c1.4,0.3,2.8-0.3,4.2-1.1c1.2-0.6-0.1-1.4-0.9-5.1c-1-5.5-2.4-10.8-3.4-18.6c-0.9-6.8-1.4-14.4-1.8-20c-0.5-8.9-1-7.6,3.2-12
			c18.5-19.2,26.5-43.6,30-62.6l-43.6,0.4l-0.9,1.7l-2.3,45.4l-3.1,56.8L281.4,218.5z"/>
		<g>
			<path fill-rule="evenodd" clip-rule="evenodd" fill="#952C31" d="M322.6,99.6c-2.2,9.4-5.2,19.5-9.3,27.2
				c-10.7,19.9-24.4,39-24.4,39s1.5,39.1,6.8,53l0.1,0.3c-0.4,0-0.9,0-1.3-0.1c-0.1-0.1-0.2-0.1-0.3-0.1c-0.6-1.9-1.2-4.2-1.7-6.7
				c-2.6-13.1-4.8-48-4.8-48s19.9-27.8,25.2-40.3c3.1-7.6,6.1-15.3,8.5-24.3H322.6z"/>
			<path fill-rule="evenodd" clip-rule="evenodd" fill="#952C31" d="M318,99.6c-2.2,8.9-5,18.1-8.9,25.3c-10.7,19.9-24.4,39-24.4,39
				s1.6,39.1,6.8,53l0.2,0.6c-0.7-0.6-1.4-1.1-2.1-1.6c-0.5-1.7-1-3.5-1.4-5.6c-2.7-13.1-4.8-48-4.8-48s19.9-27.8,25.2-40.3
				c2.9-7,5.7-14.1,8-22.4H318z"/>
			<path fill-rule="evenodd" clip-rule="evenodd" fill="#952C31" d="M311.5,99.7c-2,7.8-4.7,15.7-8,22c-10.7,19.9-24.4,39-24.4,39
				s1.5,39.1,6.8,53c0.2,0.6,0.4,1.1,0.6,1.6c-0.4,0.2-0.9,0.5-1.3,0.9c-0.9-2.4-1.8-5.5-2.5-9.1c-2.6-13.1-4.8-48-4.8-48
				s19.9-27.8,25.1-40.3c2.5-6,5-12.2,7.1-19.1H311.5z"/>
			<path fill-rule="evenodd" clip-rule="evenodd" fill="#952C31" d="M304,99.7c-1.8,6-4,11.7-6.5,16.5
				c-6.6,12.2-14.3,24.1-19.3,31.5l0.1-2.5l0.1-1.1c6.3-9.2,15.3-23,18.6-30.8c1.9-4.4,3.6-8.9,5.3-13.6H304L304,99.7z M276,189.8
				c0.9,7.3,2.2,14.1,3.9,18.5c5.3,13.9-0.6,6.6-3.2-6.6c-0.4-1.7-0.7-3.7-1-6L276,189.8z"/>
		</g>
		<path fill-rule="evenodd" clip-rule="evenodd" fill="#FCEF98" d="M290.8,169.4c-2.1-0.5-6.6-2-9.9-5.4c-4.4-4.6-0.6-5.2-0.6-5.2
			s5.3,6.3,8.2,6.8c1.5,0.4,2.5,0.4,3.1,0.8c0.4,0.4,0.9,0.5,0.6,1.9C292.2,169.6,291.4,169.6,290.8,169.4z"/>
	</g>
	<g>
		<path fill-rule="evenodd" clip-rule="evenodd" fill="#BB2A30" d="M353,220.1c-1.2,2.9-2.7-4-6.1-3.3c-1.7,0.4-4.5,3.4-6.3,3.8
			c-1.4,0.4-2.8-0.3-4.1-1c-1.2-0.7,0.1-1.4,0.9-5.1c1-5.5,2.4-10.8,3.4-18.7c0.9-6.8,1.4-14.3,1.8-20c0.5-8.9,1-7.6-3.2-12
			c-19-19.7-26.9-44.9-30.2-64.2l42.6-0.4l2.2,4l2.2,45.4l3.1,56.8L353,220.1z"/>
		<g>
			<path fill-rule="evenodd" clip-rule="evenodd" fill="#952C31" d="M311.6,99.7c2.2,9.9,5.3,20.7,9.6,28.7
				c10.7,19.9,24.4,39.1,24.4,39.1s-1.5,39.1-6.8,53l-0.1,0.2c0.5,0.1,0.9,0.1,1.4-0.1c0.1,0,0.1,0,0.3-0.1c0.6-1.9,1.2-4.2,1.7-6.6
				c2.6-13.1,4.8-48,4.8-48s-19.9-27.9-25.2-40.4c-3.3-7.9-6.5-16.1-8.9-25.8H311.6z"/>
			<path fill-rule="evenodd" clip-rule="evenodd" fill="#952C31" d="M316.1,99.7c2.2,9.4,5.2,19.2,9.2,26.8
				c10.7,19.9,24.5,39.1,24.5,39.1s-1.6,39.1-6.8,53l-0.2,0.6c0.7-0.5,1.4-1.1,2.1-1.5c0.5-1.7,1-3.6,1.4-5.6
				c2.7-13.1,4.8-48,4.8-48s-19.9-27.9-25.2-40.4c-3.1-7.4-6.1-15-8.4-24L316.1,99.7z"/>
			<path fill-rule="evenodd" clip-rule="evenodd" fill="#952C31" d="M322.6,99.6c2.1,8.4,4.8,16.9,8.4,23.6
				c10.7,19.9,24.4,39.1,24.4,39.1s-1.5,39.1-6.8,53c-0.2,0.6-0.4,1.1-0.6,1.6c0.4,0.2,0.9,0.5,1.2,0.9c0.9-2.4,1.9-5.5,2.6-9
				c2.6-13.1,4.8-48,4.8-48s-19.9-27.9-25.2-40.4c-2.7-6.5-5.3-13.2-7.6-20.8L322.6,99.6z"/>
			<path fill-rule="evenodd" clip-rule="evenodd" fill="#952C31" d="M329.9,99.5c1.9,6.6,4.2,13,7.1,18.4
				c6.6,12.2,14.3,24.1,19.2,31.5l-0.1-2.5l-0.1-1.1c-6.3-9.3-15.3-23-18.6-30.8c-2.1-5-4.1-10-5.9-15.6L329.9,99.5L329.9,99.5z
				 M358.5,191.4c-0.9,7.3-2.2,14.2-3.9,18.5c-5.3,14,0.6,6.6,3.2-6.6c0.4-1.7,0.6-3.7,1-6L358.5,191.4z"/>
		</g>
		<path fill-rule="evenodd" clip-rule="evenodd" fill="#FCEF98" d="M343.7,171c2-0.5,6.6-2,9.9-5.5c4.3-4.5,0.6-5.1,0.6-5.1
			s-5.3,6.3-8.2,6.8c-1.5,0.3-2.6,0.3-3.1,0.7c-0.4,0.4-0.9,0.6-0.7,1.9C342.4,171.3,343,171.2,343.7,171z"/>
	</g>
	<g>
		<path fill-rule="evenodd" clip-rule="evenodd" fill="#BB2A30" d="M367.3,219c1.2,3,2.7-4,6.2-3.2c1.7,0.4,4.5,3.4,6.3,3.8
			c1.4,0.4,2.8-0.3,4.2-1.1c1.2-0.6-0.1-1.4-0.9-5.1c-1-5.5-2.4-10.7-3.4-18.6c-0.9-6.8-1.4-14.4-1.8-20c-0.5-8.9-1-7.6,3.2-12
			c18.9-19.7,26.9-44.7,30.2-64l-43,0.4l-1.7,3.1l-2.3,45.4l-3.1,56.8L367.3,219z"/>
		<g>
			<path fill-rule="evenodd" clip-rule="evenodd" fill="#952C31" d="M408.7,98.7c-2.2,9.9-5.3,20.6-9.6,28.7
				c-10.7,19.9-24.4,39-24.4,39s1.5,39.2,6.8,53.1l0.1,0.2c-0.4,0.1-0.9,0.1-1.3-0.1c-0.1,0-0.2-0.1-0.3-0.1
				c-0.6-1.9-1.2-4.2-1.7-6.6c-2.7-13.2-4.8-48.1-4.8-48.1s19.9-27.8,25.2-40.3c3.3-7.9,6.5-16,8.9-25.7L408.7,98.7z"/>
			<path fill-rule="evenodd" clip-rule="evenodd" fill="#952C31" d="M404.2,98.8c-2.2,9.3-5.2,19.2-9.2,26.6
				c-10.7,19.9-24.4,39-24.4,39s1.6,39.2,6.8,53.1l0.2,0.6c-0.7-0.5-1.4-1.1-2.1-1.5c-0.5-1.7-1-3.6-1.4-5.6
				c-2.6-13.2-4.8-48.1-4.8-48.1s19.9-27.8,25.2-40.3c3-7.3,6-14.9,8.4-23.8H404.2z"/>
			<path fill-rule="evenodd" clip-rule="evenodd" fill="#952C31" d="M397.6,98.9c-2.1,8.3-4.8,16.7-8.4,23.3
				c-10.7,19.9-24.4,39-24.4,39s1.5,39.1,6.8,53.1c0.2,0.5,0.4,1.1,0.6,1.5c-0.4,0.2-0.9,0.6-1.3,0.9c-0.9-2.4-1.8-5.5-2.5-9
				c-2.7-13.2-4.8-48.1-4.8-48.1s19.9-27.8,25.2-40.3c2.7-6.4,5.3-13,7.5-20.4H397.6z"/>
			<path fill-rule="evenodd" clip-rule="evenodd" fill="#952C31" d="M390.2,98.9c-1.8,6.4-4.1,12.7-6.9,17.9
				c-6.5,12.2-14.3,24.1-19.2,31.5l0.1-2.4l0.1-1.1c6.3-9.3,15.3-23,18.6-30.9c2-4.8,4-9.7,5.8-15H390.2L390.2,98.9z M361.8,190.4
				c1,7.3,2.3,14.2,4,18.5c5.3,13.9-0.6,6.6-3.2-6.6c-0.4-1.7-0.7-3.7-1-6L361.8,190.4z"/>
		</g>
		<path fill-rule="evenodd" clip-rule="evenodd" fill="#FCEF98" d="M376.6,170c-2.1-0.6-6.6-2-9.9-5.5c-4.4-4.5-0.6-5.1-0.6-5.1
			s5.3,6.3,8.2,6.8c1.5,0.3,2.5,0.3,3,0.7c0.5,0.4,0.9,0.6,0.7,1.9C378,170.2,377.3,170.2,376.6,170z"/>
	</g>
	<g>
		<path fill-rule="evenodd" clip-rule="evenodd" fill="#BB2A30" d="M438.8,220.7c-1.2,3-2.7-4-6.1-3.3c-1.7,0.4-4.6,3.5-6.3,3.9
			c-1.4,0.3-2.8-0.3-4.2-1.1c-1.2-0.6,0.2-1.4,0.9-5.1c1-5.5,2.4-10.8,3.4-18.6c0.9-6.8,1.4-14.4,1.7-20c0.6-8.9,1.1-7.6-3.2-12
			c-19.4-20.2-27.3-46.1-30.4-65.5l42-0.4l3,5.4l2.2,45.4l3.1,56.8L438.8,220.7z"/>
		<g>
			<path fill-rule="evenodd" clip-rule="evenodd" fill="#952C31" d="M397.1,98.9c2.2,10.3,5.4,21.7,9.9,30.2
				c10.7,19.9,24.4,39,24.4,39s-1.6,39.1-6.8,53l-0.1,0.3c0.4,0,0.9,0,1.4-0.1c0.1-0.1,0.1-0.1,0.3-0.1c0.6-1.9,1.2-4.2,1.7-6.7
				c2.7-13.1,4.8-48,4.8-48s-19.9-27.8-25.2-40.3c-3.5-8.4-6.8-16.8-9.2-27.3H397.1z"/>
			<path fill-rule="evenodd" clip-rule="evenodd" fill="#952C31" d="M401.6,98.8c2.2,9.8,5.3,20.3,9.5,28.3
				c10.7,19.9,24.4,39,24.4,39s-1.5,39.1-6.8,53l-0.2,0.6c0.6-0.6,1.4-1.1,2.1-1.6c0.5-1.7,0.9-3.5,1.4-5.6c2.7-13.1,4.8-48,4.8-48
				s-19.9-27.8-25.2-40.3c-3.3-7.8-6.4-15.8-8.8-25.4H401.6z"/>
			<path fill-rule="evenodd" clip-rule="evenodd" fill="#952C31" d="M408.1,98.7c2.1,8.9,5,18,8.8,25.1c10.7,19.9,24.4,39,24.4,39
				s-1.6,39.1-6.8,53c-0.1,0.6-0.4,1.1-0.6,1.6c0.5,0.2,0.9,0.5,1.3,0.9c0.9-2.4,1.9-5.5,2.6-9.1c2.6-13.1,4.8-48,4.8-48
				s-19.9-27.8-25.2-40.3c-2.9-7-5.7-14-7.9-22.2H408.1z"/>
			<path fill-rule="evenodd" clip-rule="evenodd" fill="#952C31" d="M415.4,98.7c1.9,7.1,4.4,14.1,7.4,19.8
				c6.6,12.2,14.3,24.1,19.2,31.5l-0.1-2.5v-1.1c-6.3-9.2-15.3-23-18.6-30.8c-2.2-5.4-4.4-10.9-6.3-16.9H415.4L415.4,98.7z
				 M444.3,192c-1,7.3-2.2,14.1-3.9,18.5c-5.3,13.9,0.6,6.6,3.2-6.6c0.4-1.7,0.6-3.7,1-6L444.3,192z"/>
		</g>
		<path fill-rule="evenodd" clip-rule="evenodd" fill="#FCEF98" d="M429.5,171.6c2-0.5,6.6-2,9.9-5.4c4.3-4.6,0.5-5.2,0.5-5.2
			s-5.3,6.3-8.1,6.8c-1.5,0.4-2.6,0.4-3.1,0.8c-0.4,0.4-0.9,0.5-0.7,1.9C428.2,171.9,428.8,171.8,429.5,171.6z"/>
	</g>
	<g>
		<path fill-rule="evenodd" clip-rule="evenodd" fill="#BB2A30" d="M25.9,222.1c1.2,3,2.7-4,6.1-3.3c1.7,0.4,4.6,3.5,6.3,3.9
			c1.4,0.3,2.8-0.3,4.2-1.1c1.2-0.6-0.2-1.4-0.9-5.1c-1.1-5.5-2.4-10.8-3.5-18.6c-0.9-6.8-1.4-14.4-1.7-20c-0.6-8.9-1.1-7.6,3.2-12
			c18.9-19.7,26.8-44.6,30.1-63.8l-43.1,0.4l-1.7,2.9l-2.2,45.4l-3.1,56.8L25.9,222.1z"/>
		<g>
			<path fill-rule="evenodd" clip-rule="evenodd" fill="#952C31" d="M67.2,102c-2.2,9.9-5.3,20.4-9.6,28.4
				c-10.7,19.9-24.4,39.1-24.4,39.1s1.6,39.1,6.8,53l0.1,0.3c-0.4,0-0.9,0-1.4-0.1c-0.1-0.1-0.1-0.1-0.3-0.1
				c-0.6-1.9-1.2-4.2-1.7-6.7c-2.7-13.1-4.8-48-4.8-48s19.9-27.8,25.2-40.3c3.2-7.8,6.4-15.9,8.8-25.6H67.2z"/>
			<path fill-rule="evenodd" clip-rule="evenodd" fill="#952C31" d="M62.7,102c-2.2,9.2-5.1,18.9-9.1,26.4
				c-10.7,19.9-24.4,39-24.4,39s1.5,39.1,6.8,53l0.2,0.6c-0.6-0.6-1.4-1.1-2-1.6c-0.6-1.7-1-3.5-1.4-5.6c-2.6-13.1-4.8-48-4.8-48
				s19.9-27.8,25.2-40.3c3.1-7.3,6-14.8,8.4-23.5H62.7z"/>
			<path fill-rule="evenodd" clip-rule="evenodd" fill="#952C31" d="M56.2,102.1c-2.1,8.2-4.8,16.5-8.4,23.1
				c-10.7,19.9-24.4,39-24.4,39s1.6,39.1,6.8,53c0.2,0.6,0.4,1.1,0.6,1.6c-0.5,0.2-0.9,0.5-1.3,0.9c-0.9-2.4-1.9-5.5-2.5-9.1
				c-2.7-13.1-4.8-48-4.8-48s19.9-27.8,25.2-40.3c2.7-6.4,5.2-12.9,7.3-20.2H56.2z"/>
			<path fill-rule="evenodd" clip-rule="evenodd" fill="#952C31" d="M48.8,102.2c-1.9,6.3-4.1,12.5-6.8,17.6
				c-6.6,12.2-14.3,24.1-19.2,31.5l0.1-2.5v-1.1c6.3-9.2,15.3-23,18.6-30.8c1.9-4.8,3.9-9.6,5.6-14.8H48.8L48.8,102.2z M20.4,193.4
				c1,7.3,2.2,14.1,3.9,18.5c5.3,13.9-0.6,6.6-3.2-6.6c-0.3-1.7-0.6-3.7-1-6L20.4,193.4z"/>
		</g>
		<path fill-rule="evenodd" clip-rule="evenodd" fill="#FCEF98" d="M35.2,173c-2-0.5-6.6-2-9.9-5.4c-4.3-4.6-0.5-5.2-0.5-5.2
			s5.3,6.3,8.1,6.8c1.6,0.4,2.6,0.4,3.1,0.8c0.5,0.4,0.9,0.5,0.7,1.9C36.6,173.2,35.9,173.2,35.2,173z"/>
	</g>
	<g>
		<path fill-rule="evenodd" clip-rule="evenodd" fill="#BB2A30" d="M97.5,223.7c-1.2,2.9-2.7-4-6.2-3.3c-1.7,0.4-4.5,3.4-6.3,3.8
			c-1.4,0.4-2.8-0.3-4.2-1c-1.2-0.7,0.1-1.4,0.9-5.1c1.1-5.5,2.4-10.8,3.5-18.7c0.8-6.8,1.4-14.3,1.7-20c0.5-8.9,1-7.6-3.2-12
			c-19.4-20.2-27.2-45.9-30.4-65.3l42-0.4l3,5.2l2.2,45.4l3.1,56.8L97.5,223.7z"/>
		<g>
			<path fill-rule="evenodd" clip-rule="evenodd" fill="#952C31" d="M55.8,102.1c2.2,10.2,5.4,21.5,9.9,29.8
				c10.7,19.9,24.4,39.2,24.4,39.2s-1.5,39.1-6.8,53l-0.1,0.2c0.4,0.1,0.9,0.1,1.3-0.1c0.1,0,0.2,0,0.3-0.1c0.6-1.9,1.2-4.2,1.7-6.6
				c2.7-13.1,4.8-48,4.8-48s-19.9-27.9-25.2-40.4c-3.5-8.2-6.8-16.7-9.2-27H55.8z"/>
			<path fill-rule="evenodd" clip-rule="evenodd" fill="#952C31" d="M60.3,102c2.2,9.7,5.3,20.2,9.5,27.9
				c10.7,19.9,24.4,39.2,24.4,39.2s-1.5,39.1-6.8,53l-0.3,0.6c0.7-0.5,1.4-1.1,2.1-1.5c0.5-1.7,1-3.6,1.4-5.6
				c2.6-13.1,4.8-48,4.8-48s-19.9-27.9-25.2-40.4c-3.2-7.7-6.3-15.6-8.7-25.1H60.3z"/>
			<path fill-rule="evenodd" clip-rule="evenodd" fill="#952C31" d="M66.7,102c2.1,8.8,5,17.9,8.7,24.8
				c10.7,19.9,24.5,39.1,24.5,39.1s-1.6,39.1-6.8,53c-0.2,0.6-0.4,1.1-0.6,1.6c0.5,0.2,0.9,0.5,1.3,0.9c0.9-2.4,1.8-5.5,2.5-9
				c2.7-13.1,4.8-48,4.8-48S81.2,136.5,76,123.9c-2.9-6.8-5.6-13.8-7.9-22H66.7z"/>
			<path fill-rule="evenodd" clip-rule="evenodd" fill="#952C31" d="M74,101.9c1.9,7.1,4.4,14,7.4,19.6
				c6.6,12.2,14.3,24.1,19.2,31.5l-0.1-2.5l-0.1-1.1c-6.3-9.3-15.3-23-18.6-30.8c-2.2-5.3-4.4-10.7-6.3-16.7H74L74,101.9z
				 M103,195.1c-1,7.3-2.3,14.1-4,18.4c-5.3,14,0.6,6.6,3.2-6.6c0.4-1.7,0.7-3.7,1-6L103,195.1z"/>
		</g>
		<path fill-rule="evenodd" clip-rule="evenodd" fill="#FCEF98" d="M88.1,174.6c2.1-0.5,6.6-2,9.9-5.5c4.4-4.5,0.6-5.1,0.6-5.1
			s-5.3,6.3-8.1,6.8c-1.6,0.3-2.6,0.3-3.1,0.7c-0.5,0.4-0.9,0.6-0.7,1.9C86.8,174.9,87.5,174.8,88.1,174.6z"/>
	</g>
</g>
</svg>
