<?xml version="1.0" encoding="utf-8"?>
<!-- Generator: Adobe Illustrator 18.1.1, SVG Export Plug-In . SVG Version: 6.00 Build 0)  -->
<svg version="1.1" id="Layer_1" xmlns="http://www.w3.org/2000/svg" xmlns:xlink="http://www.w3.org/1999/xlink" x="0px" y="0px"
	 viewBox="0 0 461 259" enable-background="new 0 0 461 259" xml:space="preserve">
<path fill-rule="evenodd" clip-rule="evenodd" fill="#B2B2B2" d="M-39.3,88.7c15.9-1,33.4-2,49.2-2.9c23-1.2,48.3-2.9,71.4-3.7
	c21-0.7,46.5-1.1,67.4-1.5c19.7-0.4,41.3-1.5,60.8-1.6c17.1,0,38.5-0.1,55.4,0.1c22.2,0.3,48.4,0.1,70.1,0.8
	c23.3,0.7,48.1,0.9,70.8,1.9c17.6,0.7,40.1,1.3,57.2,2.7c15,1.2,31.1,2.6,48,3.7v6C330,87.4,140.2,88-39.3,94.8V88.7z"/>
<path fill-rule="evenodd" clip-rule="evenodd" fill="#E5E5E5" d="M21.1,283.3l-59.1,4V91.5c18.4-0.4,26.1,0.5,44.5,0.1
	c8.4-0.2,29.1-1.7,37.4-1.8c12.5-0.2,23.2-0.4,35.7-0.6c8.3-0.1,16.6-0.3,24.9-0.4c11.3-0.6,23.3,0.1,34.6-0.4
	c25.7,0.1,44.9-1,69.7-0.9c14.9,0,30.5-0.6,46.4-0.8c17.9-0.1,37.9,0.9,55.4,1c8.4,0,20.8,0,29.2,0c16.3,0.4,28.8,0.9,44.6,1.4
	c15.9,0.5,40,1.6,56.2,1.9c26.9,0.6,50.4-0.1,77.3,0.4l-25.9,187.1l-31.3,8.6l-21.6-0.5c-0.9,0.4,0.5-51.8,0.4-94.6
	c0-23.3-0.9-43.4-1.8-51.9c-1.4-12.9-8.7-22.7-19.9-26.8c-9.9-3.5-23.3-2.4-32.8,1.4c-10.5,4.1-17.5,13.8-18.4,26.4
	c-0.8,10.7-0.4,31.2-0.4,55.8c0,27.9-0.2,61.3,0.3,92.1l-13.7-2.4c-0.9,0.4,0.1-53.5,0.1-96c0.1-23.9-0.1-41.8-1.1-50.5
	c-0.9-8.1-4.7-15.6-10.1-20c-10.8-9-32.1-12-45.5-6.3c-10.5,4.4-14.6,14.8-15.5,27.3c-0.7,10-0.1,27-0.5,48.5
	c-0.5,27.6-1.9,62.3-1.4,94.9l-12.2,1.6c-0.9,0.4,1.4-55.4,1.4-98.9c0-22-1.4-39.5-2.3-47.6c-1.4-12.7-4.8-22-15.5-25.8
	c-8.9-3.2-22.7-4.5-32.4-1.6c-12.5,3.8-22.2,14.8-23.1,28.4c-0.6,9.3-0.5,22.5-0.8,43.6c-0.4,31-1.1,74.5-0.6,108.9l-11.3-3.2
	c-0.9,0.4,0-54.7-0.2-101.6c-0.1-21.3-0.4-41.2-1.2-48.7c-0.9-8.1-3.5-14.3-8.9-18.9c-4.8-4-11-8.1-17.6-9.3
	c-6.8-1.2-16.5-1.3-22.8,0.7c-12,3.8-21,14.3-22,28.4c-0.5,7.8-2,17.6-2.4,33.5c-0.2,11.4,0.9,24.8,0.9,39.1
	c0.2,23.8-0.4,50.1-0.1,73.9c-11.2,1.4-11.1,9.6-10.9-1c0.5-36.3-0.1-74.8-0.6-104.6c-0.3-17.9-0.2-32.9-0.8-41.5
	c-0.8-11.4-4.8-20.7-13.9-25.2c-5-2.4-11.8-5.3-18.3-5.3c-8.4-0.1-16.6,2.2-23.2,5.5c-12,5.9-14.3,11.3-15.7,24.1
	c-0.6,6.2-0.4,17.2-0.6,30C23.9,206.1,22.1,283.8,21.1,283.3z"/>
</svg>
