<?xml version="1.0" encoding="utf-8"?>
<!-- Generator: Adobe Illustrator 18.1.1, SVG Export Plug-In . SVG Version: 6.00 Build 0)  -->
<svg version="1.1" id="Warstwa_1" xmlns="http://www.w3.org/2000/svg" xmlns:xlink="http://www.w3.org/1999/xlink" x="0px" y="0px"
	 viewBox="0 0 1920 1080" enable-background="new 0 0 1920 1080" xml:space="preserve">
<path fill-rule="evenodd" clip-rule="evenodd" fill="#EDCDBE" d="M1125,993.5c5.1-6.6,37.1-76.9,47.3-87.1c3.3-3.3-4.8-9.6-0.6-13.5
	c4.8-4.5,1.5-7.2,12-10.5c7.2-2.1,29-5.1,30.8-7.5c20-24.2-12.9-35-18.6-58.9c-1.5-6.6-3-22.4-1.2-32c0.6-4.5,6.3-1.5,5.4-6.9
	c-0.9-6.3-5.7-11.7-8.1-16.5c-3.9-8.1-12-11.7-15.6-16.8c-2.7-3.9-1.8-10.2-3-13.2c-4.2-9.6,2.1-17.4,5.4-26.9
	c2.1-5.7,0.6-10.8,2.4-20.9c3.3-18.6-5.4-22.1-15.3-30.2c-3.3-2.7-52.7-4.2-62.8-9c-13.5-6.3,12-15.9,9.6-20.3
	c-4.5-8.7,30.8-5.7,43.4-13.2c9.9-5.7-2.7-21.5-0.9-26.9c2.4-7.8-5.4-12-4.2-18.9c0.9-6,2.1-0.9,12.3-4.5
	c14.1-5.1,13.5-26.3,15.9-34.1c3.9-12.6-6.9-27.5-2.7-41.6c3.3-10.2,16.2-18,17.7-29.3c3.3-21.5,1.2-52.1-3.9-73.9
	c-2.1-10.2-18-21.8-22.4-31.4c-4.8-10.5-7.5-16.8-12.9-21.8c-2.4-2.1-9.3-1.8-12-3.6c-4.2-3-3.9-7.8-5.1-11.4
	c-1.2-4.2,0.9-8.7-0.3-11.4c-0.9-2.4-6-4.2-6.9-6c-3.6-6.6-2.4-10.5,2.1-16.2c5.4-7.5,23.6-18,27.5-29.3c2.1-6.9-4.2-13.8-3.3-21.2
	c0.9-7.8,8.7-16.5,6.9-23.3c-1.2-4.5-9-6.9-10.2-11.1c-4.2-15.3-15-25.7-14.1-37.1c0.6-8.1,14.4-21.2,7.8-27.8
	c-6.6-6.9-24.5-8.7-27.8-17.7c-3-8.1,2.7-20.3,6.3-31.4c4.2-13.2,18.6-18.9,26.3-23.6c12.9-8.4,19.7-12,20.6-24.2
	c0-1.8-2.1-9-16.8-9.9c-14.1-0.9-66.1-6-69.4-7.5c-15.3-7.2,36.5-6,55.4-14.1c0.6-0.3,8.7-184.7,8.7-185.9h389l-21.3,1178.5H1125z"
	/>
</svg>
