<?xml version="1.0" encoding="utf-8"?>
<!-- Generator: Adobe Illustrator 18.1.1, SVG Export Plug-In . SVG Version: 6.00 Build 0)  -->
<svg version="1.1" id="Warstwa_1" xmlns="http://www.w3.org/2000/svg" xmlns:xlink="http://www.w3.org/1999/xlink" x="0px" y="0px"
	 viewBox="0 0 1920 1080" enable-background="new 0 0 1920 1080" xml:space="preserve">
<path fill-rule="evenodd" clip-rule="evenodd" fill="#E2C4B3" d="M1168.3-166l-7,161.8c3.3,7.2,22.1,20.3,25.1,30.5
	c2.1,7.2-4.8,11.7-2.7,20c0.6,2.7-5.1,4.5-4.5,7.5c0.6,2.7,3,15.6,3.3,18.3c1.2,5.1,1.5,12.3,4.5,15c5.1,4.5,13.5,3.6,18.6,8.7
	c5.7,5.4,8.1,14.7,9.6,30.5c0.9,7.5-2.1,12.9-1.8,20c0.3,3.9-6.6,7.5-6.3,11.4c0.3,6.9,17.4,11.4,25.4,13.8
	c20.3,6.6,45.5,1.5,52.7,1.8c17.7,0.6,16.2,10.8,29,13.5c43.1,9.9,49.7,32.3,48.2,38c-0.6,3.3-8.7,4.8-9.3,7.8
	c-3,12-12.9,20.9-15.6,30.5c-2.1,8.7,19.2,23.3,17.1,30.5c-3,10.8-3.9,14.7-6.3,23c-3.6,12.6,0,18.9-2.1,29.3
	c-8.1,37.1-47,19.4-53.6,30.5c-2.1,3.9,23.3,10.5,22.7,23.6c-0.3,7.5-0.3,14.7-0.3,21.8c0,6,0.3,12.3,0.6,18.3
	c0,5.1,0.3,10.5,0.6,15.6c0.3,6.9,6.3,8.4,6.3,15.3c0.3,5.7,0.6,11.7,0.6,17.7c0,3,0.3,6.3,0.3,9.6s-0.3,6.9-0.3,10.2
	c-0.3,13.5-4.5,33.2-6.3,49.4c-1.2,8.4-4.8,17.4-6.6,26.6c-0.6,3.9,4.8,6,4.5,9.9c-0.9,6-7.2,13.2-7.5,18.9c-0.3,6.6,2.7,7.8,3,14.7
	c0,6.9-2.4,19.2-0.9,24.5c3.3,11.7,9.6,18.3,12,30.2c1.8,7.5-2.1,18.9-0.9,26.6c1.8,10.2,5.7,20,4.8,31.7c0,1.5-4.5,4.5-4.8,6
	c-0.9,11.4-3.3,23.6-7.5,37.1c-2.4,6.9-13.5,10.5-13.8,17.1c-0.6,7.5,1.5,10.8,3.3,18.9c1.2,6,7.2,13.2,7.5,20.6
	c0.6,9.6-4.8,20-9,29.6c-3.6,8.4-22.7,18.6-32.9,30.5c-4.8,5.4-2.4,14.1-5.1,18.3c-0.9,1.2-1.8,2.7-2.7,4.2
	c-5.7,7.8-15.3,15.6-22.4,23.9c-0.9,0.9,0.6,3,0,3.6c-4.5,5.1-8.7,9.9-12.9,14.4c-8.7,9.9,6,19.4-5.7,29.3
	c-7.8,6.6-43.4,13.2-52.4,19.7c-12,9-9.6,17.7-24.5,26.3c-10.5,6-39.5,12.3-51.5,18.6c-5.7,2.7-24.4,140.3-37.9,148.4l1018.1-1.5
	l15.6-1370.3L1168.3-166z"/>
</svg>
