<?xml version="1.0" encoding="utf-8"?>
<!-- Generator: Adobe Illustrator 18.1.1, SVG Export Plug-In . SVG Version: 6.00 Build 0)  -->
<svg version="1.1" id="Warstwa_1" xmlns="http://www.w3.org/2000/svg" xmlns:xlink="http://www.w3.org/1999/xlink" x="0px" y="0px"
	 viewBox="0 0 1920 1080" enable-background="new 0 0 1920 1080" xml:space="preserve">
<path fill="#D6BAA9" d="M-165.3,926.9c112.8,17.7,466,48.9,651.8,52.8c209.2,4.2,443.7-34.1,526.6-61.3
	c204.4-67.3,451.2-32.9,643.3-18c79.6,6.3,315,16,410.5,20.5v286.5H-165.3V926.9z"/>
<path fill="#C8AFA1" d="M1274.8,1174c7.2-6.9,72.8-60,58.8-126.1c-5.8-27.3-56.9-17.4-76.3-34.1c-12-10.2-12.3-29.3-3-46.1
	c15.6-27.5,42.8-21.8,60.1-40.4c2.4-2.4,3.3-5.4,3-9.3c-1.5-13.2-23.9-17.4-38.3-17.1c-14.7,0.3-36.8-2.1-53.9-7.5
	c-11.1-3.3-17.4-8.1-20.6-11.1l2.7-0.3l0.6,0.6c8.1,6.6,25.1,13.8,61.6,15c13.8,0.3,24.2-1.5,38,2.7c23.3,6.9,24.8,20.6,15.6,32
	c-9.9,12.6-24.8,15-37.1,25.1c-6.3,5.1-11.4,11.4-13.5,19.2c-12.9,47.6,101.7,20.6,104.1,76.6c3,67.7-52.8,113.5-56.7,120.7
	L1274.8,1174L1274.8,1174z"/>
<g>
	<path fill-rule="evenodd" clip-rule="evenodd" fill="#FFFFFF" d="M1059.8,960.1v-0.3c0-0.3-0.3-0.3-0.3-1c0-1-0.7-1.3-0.3-4.3
		c0.7-4-1.3-7.6-3.6-8.9c-1.3-1,0.7,0.7,2.6,1c0-1.3,0-6.3-4.3-10.6c0-0.3-0.7,0-1,0c0-0.3,0.3-0.7,0-1c-0.3-0.3-0.7-0.7-1-1
		c-3.6-2.3-7.3-4-10.9-4c-4.6-0.3-9.6,1.7-13.5,6.3c0,0,0.3,0.7,0.3,1c0,0-0.7-0.3-1-0.3l0.3,0.3c0,0.3-0.7,0-0.7,0
		c-1.3,2-2.3,4.3-3,6.6c0,0,0.3,0.3,0.3,0.7c-0.3,0-0.7,0-0.7,0.3c-1,5.3,0.7,12.6,5.9,15.2v-0.7c0,0,0,0,0.3,0.3c0,0.3,0,0.3,0,0.3
		c0.3,0.3,1,0.3,1.3,0.7c1-2,1-4.6,1-2.6c0,1.3-0.3,2.3-0.7,3.6c-0.3,2,0.7,3.6,5,5c0.3,0,1,0.3,1.7,0.3c0,0,0.3-0.3,0.7-0.3
		c0,0-0.3,0.7,0,0.7c1,0.3,2,0.7,2.6,0.7c0.7,0.3,1,0.3,1,0.7c0.3,0,0.3,0.3,0.7,0.3c0,0,0,0,0.3,0l0.3-0.3v-0.3h0.3h0.3h0.3v0.3
		l0.3,0.3c0-0.3,0-0.7,0.3-0.7l0.3-0.3c0.3,0,0.3,0.3,0.7,0.3V968c0.3,0,0.3-0.3,0.7-0.3l0.3,0.3c0.3,0,0.3,0,0.3,0v-0.3
		c0.3-0.3,0.3-0.3,0.7-0.3c0-0.3,0.3,0,0.7,0l0.3-0.3c0-0.3,0.3-0.7,0.3-0.7s0,0,0.3,0c0-0.3,0-0.3,0-0.3s0,0,0.3,0
		c0,0.3,0,0.3,0.3,0.3v-0.3h0.3v-0.3c0,0,0.3-0.3,0.7-0.3h0.3l0.3,0.3h0.3c-0.3-0.3,0-0.7,0-1c0.3-0.3,0.3-0.3,0.7-0.3h0.3h0.3v0.3
		h0.3v-0.3v-0.3v-0.3h0.3c0,0,0.3,0,0.3-0.3h0.3h0.3v0.3h0.3v-0.3v-0.3c0,0,0.3,0,0.3-0.3h0.3h0.3h0.3v0.3c0-0.3,0.3-0.7,0.3-0.7
		v-0.3c0,0,0,0,0.3,0c0,0,0.3,0,0.3,0.3v-0.3v-0.3v-0.3l0.3-0.3h0.3h0.3v0.3C1058.8,960.8,1059.2,960.1,1059.8,960.1z M1044.6,956.5
		c0,1-0.3,1.7-0.7,2.3c-0.3,0.3-0.3,0.7-0.7,0.7l0.3,0.3c-0.3,0-0.3,0-0.3,0h-0.3c-0.3,0.3-0.7,0.3-0.7,0.7c-0.3,0-0.7,0-1.3,0
		c0,0-0.3,0-0.7-0.3c-0.7,0-1-0.3-1.3-1c-0.7-0.3-1-1-1.3-1.7c0,0,0,0,0,0c0,0,0,0,0-0.1c0,0,0-0.1,0-0.2c0-0.3-0.3-0.7-0.3-1
		c0-0.3,0-1,0-1.3c0-0.7,1-1.3,1.3-2c0.7-0.7,1.7-1,2.3-1h0.3c0.3-0.3,0.3-0.7,0.3-0.7v0.3c0.3,0,0.3,0,0.3,0c0.7,0,1.3,0,1.7,0.3
		c0.3,0,0.7,0.3,0.7,0.7c0.3,0.7,0.7,1.3,0.7,2.3C1044.9,955.5,1044.9,955.8,1044.6,956.5z M1051.9,960.8c-0.3,0-0.7-0.3-0.7-0.3
		s0,0.3-0.3,0.7c0,0,0.3,0.3,0,0.3c-0.3,0-0.7,0-0.7-0.3c-0.3,0-0.3,0-0.7-0.3c0-0.7,0-1.3,0-2c-0.3-0.8-0.3-1.3-0.3-1.7l0,0
		c0-0.3,0-0.3,0-0.3c0,0.1,0,0.2,0,0.3l0.3-0.3c0,0.3,0,0.3,0,0.3c0,0.3,0.3,0.3,0.3,0.7c0.7,0,1,0.3,1.3,0.7
		c0.3,0.3,0.3,0.3,0.7,0.3c0,0.3,0,0.3,0.3,0.3c0,0.3,0,0.7,0,0.7C1052.5,960.4,1052.2,960.4,1051.9,960.8z M1055.8,952.8
		c-0.7,0.7-1,1.3-2.6,1.3c-0.7,0-1,0-1.3-0.3c-0.3,0-0.7,0-1-0.3c-0.3,0,0,0-0.3,0c-0.3-0.3-1-0.7-1.3-1c-0.3,0-0.7-0.3-1-0.3
		c-0.7-0.7-1-1.3-1-2c0-1,1-2.3,2-3c0.7-0.3,1.7-0.7,2.6-0.7c0.7,0,1.7,0,2.3,0.7c0.3,0,0.7,0.3,1,0.7h0.3c0,0-0.3,0.3,0,0.3
		c0.7,1,0.7,2.3,0.7,3.3C1056.2,952.2,1056.2,952.5,1055.8,952.8z"/>
	<path fill-rule="evenodd" clip-rule="evenodd" fill="#FFFFFF" d="M1050.6,966.7c0.3,1,1,2,1,2l0.7-0.3v-0.7l0.3,0.3l0.7-0.3
		c0,0-0.7-0.7-1.3-1.7C1051.6,965.4,1050.2,966.1,1050.6,966.7z"/>
	<path fill-rule="evenodd" clip-rule="evenodd" fill="#FFFFFF" d="M1052.2,966.1c0.3,1,1.3,1.7,1.3,1.7l0.3-0.3l1-0.7
		c0,0-0.3-0.7-0.7-1.3C1053.5,964.7,1051.9,964.4,1052.2,966.1z"/>
	<path fill-rule="evenodd" clip-rule="evenodd" fill="#FFFFFF" d="M1049.6,969h0.3l0.7-0.3h0.3h0.3c0,0-0.7-2-1.3-2.3
		C1049.2,966.4,1048.6,967.1,1049.6,969z"/>
	<path fill-rule="evenodd" clip-rule="evenodd" fill="#FFFFFF" d="M1054.9,963.7c-0.7,0.3-1.3,1,0.3,2.6l0.3-0.3v-0.3l0.3,0.3
		c0.7-0.7,0.3-1-0.3-1.7C1055.2,963.7,1055.2,963.7,1054.9,963.7z"/>
	<path fill-rule="evenodd" clip-rule="evenodd" fill="#FFFFFF" d="M1048.2,967.4c-0.3,0-1.3,0.3-0.3,2.3v-0.3l0.3,0.3l0.3-0.3
		c1,0,0.7-0.3,0.3-1C1048.9,967.7,1048.6,967.7,1048.2,967.4z"/>
	<path fill-rule="evenodd" clip-rule="evenodd" fill="#FFFFFF" d="M1046.6,968c-0.7-0.3-1,1.7,0,2l0.3-0.3v0.3
		c0.7-0.3,0.7-0.3,0.3-1.3C1046.9,968.4,1046.9,968.4,1046.6,968z"/>
	<path fill-rule="evenodd" clip-rule="evenodd" fill="#FFFFFF" d="M1044,968.7c-0.7-0.3-1,0.7-0.3,1.3c0,0.3,0,0,0,0.3
		c0.3,0.3,0.3,0.3,0.7,0.3c0.7-0.3,0.7-0.3,0.3-1.3C1044.3,969,1044.3,968.7,1044,968.7z"/>
	<path fill-rule="evenodd" clip-rule="evenodd" fill="#FFFFFF" d="M1056.5,963.1c-0.7,0-1.3,0.7,0.3,2.3l0.7-1h0.3
		C1057.8,964.4,1056.8,963.1,1056.5,963.1z"/>
	<path fill-rule="evenodd" clip-rule="evenodd" fill="#FFFFFF" d="M1058.5,962.8c0,0,0,0.3,0.7,0.7l-0.3-0.3h0.3
		c0.7-0.7,0.7-0.7-0.3-1.7h-0.3C1058.2,961.4,1057.8,962.1,1058.5,962.8z"/>
</g>
</svg>
