<?xml version="1.0" encoding="utf-8"?>
<!-- Generator: Adobe Illustrator 18.1.1, SVG Export Plug-In . SVG Version: 6.00 Build 0)  -->
<svg version="1.1" id="Warstwa_1" xmlns="http://www.w3.org/2000/svg" xmlns:xlink="http://www.w3.org/1999/xlink" x="0px" y="0px"
	 viewBox="0 0 1920 1080" enable-background="new 0 0 1920 1080" xml:space="preserve">
<g class="ludek--1">
	<path fill="#F7DDD2" d="M825,132c0,0,220.8,3.6,235.5-3.6s18.1-24.8,12.4-33s-11-11.9-30.7-13.2C1023.4,81,825,82.6,825,82.6V132z"
		/>
	<path fill="#84785B" d="M1051.6,110c-2.8,5-3,10,1,14.4c1.2,1.3,3.2-0.6,2-2c-3.1-3.5-2.7-7.2-0.5-11
		C1054.9,109.8,1052.5,108.4,1051.6,110L1051.6,110z"/>
	<path fill="#84785B" d="M1051.6,89.4c-2.8,5-3,10,1,14.4c1.2,1.3,3.2-0.6,2-2c-3.1-3.5-2.7-7.2-0.5-11
		C1054.9,89.2,1052.5,87.8,1051.6,89.4L1051.6,89.4z"/>
	<path fill="#84785B" d="M1032.6,97.6c-3.5,7.1-3.9,14,1.2,20.4c1.1,1.4,3.1-0.6,2-2c-4.2-5.3-3.6-11.2-0.7-17
		C1035.8,97.4,1033.4,96,1032.6,97.6L1032.6,97.6z"/>
</g>
<path fill="#D3AA98" d="M845.9,1240.6c9.9-6.9,26.8-176.8,35.4-179.5c16.2-5.1,44-6,57.8-13.2c5.4-2.7-2.7-6.6,2.4-12
	c6.9-7.8,13.5-16.2,19.7-24.5c7.2-9.3,18.6-23.9,20.9-34.1c3.3-12.9,1.2-16.2,10.5-25.4c5.4-5.4,25.7-10.8,37.4-13.5
	c7.2-1.8,2.1-6,5.7-6.3c19.2-2.1,39.2-3.3,49.4-7.8c9-4.2,9.3-11.4,8.1-20.3c-2.1-19.2,65.8-21.8,53.9-35.6
	c-5.7-6.9,0.9-13.2-11.4-16.5c-12.6-3.3-39.2-5.7-47.6-5.7c-3.6,0-5.1-3-9.9-6c-9.6-6,26.9-15.3,13.2-20.9c-5.4-2.4-4.2-9-12.3-10.5
	c-7.8-1.5-24.8,2.4-29,3.6c-3.3,0.9-17.4-0.3-23.3-3.3c-8.1-3.9-8.4-10.8-11.7-18.9c-3-7.8,3-15.3,4.8-24.5c0.6-2.7-0.9-5.7-0.9-8.4
	c0.3-7.2,3.6-12.9,2.7-18c-1.2-4.8-6.9-8.7-8.1-16.2c-0.9-7.5,1.5-16.8,1.5-26c0.3-12-1.5-23.6-0.9-30.2c0.3-4.2,2.7-9.6,1.2-18
	c-1.2-5.1-5.4-4.2-6.9-10.2c-1.2-5.4,1.2-10.8,1.2-17.7c-0.3-6.9-3-15.3-2.7-19.7c0.3-3.6,0-8.7,0.9-12c1.5-4.8,8.4-7.5,10.5-12
	c1.5-3.3,4.8-6.3,5.7-10.2c1.5-6.6-0.3-14.4,1.2-21.5c0.6-2.4,3-5.1,3-7.8c0-4.8-6.9-11.4-7.8-17.1c-1.2-7.5,3.3-14.1,4.8-19.7
	c1.2-5.7-1.5-13.2-0.3-19.2c4.5-20.9,12.6-40.1,22.7-55.4c5.7-8.1,2.7-16.5,11.7-19.4c7.2-2.4-3.6-1.8,3-4.5c5.1-2.1-3-7.5,1.8-9
	c6-2.1,49.7-19.4,51.5-21.2c2.1-2.4,18.3-8.1,21.5-12c5.7-6.3,40.7-3,39.2-20.9c-0.3-3.3,6.3-4.8,0-5.7c-12-1.8-41-0.9-48.5-3.3
	c-12.9-4.2,0.3-8.7,0.3-12.9c0.3-6.9-18-12.3-24.8-18c-6.6-5.4-1.5-11.1-3-18.6c-1.5-9.3-20.3-15.9-25.7-22.7
	c-4.5-5.4,4.2-10.8,3.9-18c0-8.4-5.1-17.4-2.4-26.3c2.4-8.4,22.1-16.5,26.3-23.3c5.4-9.3-4.5-16.5-4.5-20.3
	c-0.6-6-9.9-17.4-11.4-31.7c-0.6-5.7,4.8-12,6.3-18.3c1.2-6.6-1.2-13.5-0.3-20.3c0.6-5.7,6.6-12,5.7-18.3
	c-1.5-8.4,1.8-21.5,5.7-29.9c5.1-12,13.5-19.4,15.6-29.3c1.8-8.7,2-146.3,2.6-153.8l-1163.5,5.7l-4.8,1137.5l-3.2,223.1
	L845.9,1240.6z"/>
<g>
	<path fill="#B58F81" d="M1082.6,842.3c-17.7,2.9-67.1,10.8-92.2,13.1c-31.2,2.3-37.1,3.3-37.1,3.3s27.3,0.1,58.2-3.6
		c24.3-3.3,60.9-8.5,74.2-10.3c-0.8-0.5-1.5-1-2.4-1.7C1083.1,842.7,1082.6,842.6,1082.6,842.3z"/>
	<path fill="#B58F81" d="M1077.8,839c-12.2,1.7-33,3.8-55.6,4.7c-34.3,1.6-34.3,1.6-34.3,1.6s56.2-4.8,87.7-9
		C1076.3,837.4,1077.1,838.2,1077.8,839z"/>
	<path fill="#B58F81" d="M1015.8,649.3c-12.1,0-45.8,0-62.8-1.2c-21-1.8-25-1.8-25-1.8s18.2,3,39.2,3.8c16.6,0.4,40,1.2,49.1,1.4
		c0-0.4-0.2-1-0.2-1.6C1015.8,649.7,1015.8,649.5,1015.8,649.3z"/>
	<path fill="#B58F81" d="M1010,641c-8.3-0.2-22.4-1-37.6-2.8c-23-2.6-23-2.6-23-2.6s38,2.8,59.4,3.4
		C1009.2,639.8,1009.6,640.4,1010,641z"/>
	<path fill="#B58F81" d="M1010.9,624.3c-8.7,0-37.1-0.8-52.1-3.8c-18-3.8-22.6-4.4-22.6-4.4s47.6,6.7,74.5,5.9
		C1010.7,622.7,1010.7,623.7,1010.9,624.3z"/>
	<path fill="#B58F81" d="M1008.2,589c-6.3-0.3-24.4-0.3-43,0.3c-24.5,1.2-42.5,1.5-42.5,1.5s37.4,0,53.6,1.2
		c11.1,0.6,24.2,0.9,31.4,0.9C1007.7,591.8,1007.9,590.2,1008.2,589z"/>
	<path fill="#B58F81" d="M1093.9,39.9c0,0-16.5,1.5-119.7-0.8S826.1,33,826.1,33s55.4,8.5,131.7,9.3
		C1034.1,43,1093.9,39.9,1093.9,39.9z"/>
	<path fill="#B58F81" d="M957.6,14.4c0,0-11.9,1.1-86.4-0.6S764.3,9.4,764.3,9.4s39.9,6.1,95,6.7C914.4,16.6,957.6,14.4,957.6,14.4z
		"/>
	<path fill="#B58F81" d="M1030.7,889.4c0,0-45.2,4.8-84,2.4c-39.1-2.4-39.1-2.4-39.1-2.4s16.4,3.4,49,4.8
		c32.8,1.2,54.7-1.8,54.7-1.8L1030.7,889.4z"/>
	<path fill="#B58F81" d="M918,545.9c0,0-47.3,1.7-87.4-3.7c-40.4-5.4-40.4-5.4-40.4-5.4s16.8,4.7,50.5,8.6
		c33.9,3.7,56.9,2.1,56.9,2.1L918,545.9z"/>
	<path fill="#B58F81" d="M985.3,288c-10.8,1.8-44,6-93.1,4.8c-59.8-1.5-79.3-1.5-79.3-1.5s68.8,3,94.3,3.9
		c20.3,0.3,63.1-2.1,80.5-3.3C986.5,290.7,985.9,289.5,985.3,288z"/>
	<path fill="#B58F81" d="M1122.6,324.8c-10.8,1.8-44,6-93.1,4.8c-59.8-1.5-79.3-1.5-79.3-1.5s68.8,3,94.3,3.9
		c20.3,0.3,63.1-2.1,80.5-3.3C1123.8,327.5,1123.2,326.3,1122.6,324.8z"/>
	<path fill="#B58F81" d="M1099.3,173c-7.4,0.8-26.9,2.3-59.2,2.3c-42.3,0-61-1.8-61-1.8s25.6,5.1,71.7,3.8
		c37.2-1.3,48.9-0.5,52.3-0.3C1102.3,175.8,1100,174.3,1099.3,173z"/>
	<path fill="#B58F81" d="M1097,195.7c0,0-33.2,0-59.7-1.7c-26.5-1.9-43.3-4.3-43.3-4.3s25.3,4.8,38.5,6.7
		c13.2,1.7,60.9,1.7,60.9,1.7L1097,195.7z"/>
	<path fill="#B58F81" d="M1084,169.2c0,0-37.3-0.8-96.4-4.9c-59.2-4.1-171-28.4-171-28.4s24.3,9.7,48.6,13.8s103.7,17.8,145,18.6
		C1051.6,169.2,1084,169.2,1084,169.2z"/>
	<path fill="#B58F81" d="M1101,294.7c-9.3,1.5-26.9,4.2-35,4.2c-11.4,0-16.5,0-16.5,0s11.1,2.7,25.7,1.2c9.9-0.9,20-2.1,26-3
		C1101.3,296.2,1101,295.6,1101,294.7z"/>
	<path fill="#B58F81" d="M1026.7,499.9c-9.7,0-65.7,0-93.4-4.7c-30.3-5.2-112-32.2-112-32.2s48.3,15.5,73.4,20
		c25.1,4.5,26.4,11.6,84.3,12.9c23.6,0.6,38,0.9,47,1.1c0,0.2,0,0.6,0,0.9C1025.8,498.4,1026.2,499.1,1026.7,499.9z"/>
	<path fill="#B58F81" d="M1025.6,492.2c-11.4-0.4-39.7-1.9-59-3.6c-24.5-2.6-34.1-8.2-34.1-8.2s19.3,4.9,36.3,6
		c13.5,1.1,44.6,2.4,56.2,2.8C1025.2,490.3,1025.4,491.1,1025.6,492.2z"/>
	<path fill="#B58F81" d="M1024.5,485.1c-6.7-0.4-24.2-1.7-33.7-3c-12.2-1.7-14.2-2.1-14.2-2.1s36.9,2.1,48.1,3v0.4
		C1024.7,484.1,1024.5,484.5,1024.5,485.1z"/>
	<path fill="#B58F81" d="M1007.3,444c-6.9,0.9-17.2,2.4-22.1,2.4c-8.2,0-11.6,0-11.6,0s7.7,1.9,18.2,0.9c5.4-0.4,10.9-1.1,15.2-1.5
		L1007.3,444z"/>
</g>
</svg>
