<?xml version="1.0" encoding="UTF-8" standalone="no"?>
<svg width="1050px" height="429px" viewBox="0 0 1050 429" version="1.1" xmlns="http://www.w3.org/2000/svg" xmlns:xlink="http://www.w3.org/1999/xlink" xmlns:sketch="http://www.bohemiancoding.com/sketch/ns">
    <!-- Generator: Sketch 3.3 (11970) - http://www.bohemiancoding.com/sketch -->
    <title>ekran10-01</title>
    <desc>Created with Sketch.</desc>
    <defs></defs>
    <g id="Page-1" stroke="none" stroke-width="1" fill="none" fill-rule="evenodd" sketch:type="MSPage">
        <g id="ekran10-01" sketch:type="MSLayerGroup">
            <g id="Page-1">
                <g id="ekran10-01">
                    <g id="Group">
                        <path d="M211.9,0 L84.6,78.7 L1016.9,78.7 L876.3,1.8 L211.9,0 L211.9,0 Z" id="Shape" fill="#974115" sketch:type="MSShapeGroup"></path>
                        <rect id="Rectangle-path" fill="#603913" sketch:type="MSShapeGroup" x="84.6" y="78.7" width="932.3" height="13.6"></rect>
                        <path d="M129.1,410.3 L967.3,410.3 L986.3,92.3 L116,92.3 L129.1,410.3 L129.1,410.3 Z" id="Shape" fill="#3C2415" sketch:type="MSShapeGroup"></path>
                        <path d="M116,92.3 L181.3,92.3 L165.3,178.5 L116,198.7 L116,92.3 L116,92.3 Z" id="Shape" fill="#974115" sketch:type="MSShapeGroup"></path>
                        <path d="M986.3,92.3 L918.5,92.3 L912.9,170 L970,375.3 L986.3,92.3 L986.3,92.3 Z" id="Shape" fill="#974115" sketch:type="MSShapeGroup"></path>
                        <path d="M188,92.3 L188,123.5 L174.7,126.3 L174.7,92.3 L188,92.3 L188,92.3 Z" id="Shape" fill="#C2B59B" sketch:type="MSShapeGroup"></path>
                        <rect id="Rectangle-path" fill="#1E120C" sketch:type="MSShapeGroup" x="188" y="92.3" width="129.4" height="32.7"></rect>
                        <path d="M322.4,200.7 L317.3,200.7 L317.3,92.3 L326.8,92.3 L322.4,200.7 L322.4,200.7 Z" id="Shape" fill="#C2B59B" sketch:type="MSShapeGroup"></path>
                        <path d="M175.2,118 L64.2,242.6 L245.1,250.6 L323.9,118 L175.2,118" id="Shape" fill="#A09D98" sketch:type="MSShapeGroup"></path>
                        <path d="M192.3,118 L175.2,118 L64.2,242.6 L76.4,243.1 L188,118" id="Shape" fill="#EDE4D3" sketch:type="MSShapeGroup"></path>
                        <path d="M74.2,243 L107,244.5 L186.3,154.7 L186.3,118 L74.2,243 L74.2,243 Z" id="Shape" fill="#BFB7AA" sketch:type="MSShapeGroup"></path>
                        <path d="M322.1,154.7 L184.4,154.7 L186.3,118 L323.9,118 L322.1,154.7 L322.1,154.7 Z" id="Shape" fill="#BFB7AA" sketch:type="MSShapeGroup"></path>
                        <rect id="Rectangle-path" fill="#754C29" sketch:type="MSShapeGroup" x="116" y="410.3" width="859.6" height="18"></rect>
                        <circle id="Oval" stroke="#231F20" sketch:type="MSShapeGroup" cx="344.6" cy="316.2" r="0.7"></circle>
                        <path d="M398.1,92.3 L398.1,123.5 L384.8,126.3 L384.8,92.3 L398.1,92.3 L398.1,92.3 Z" id="Shape" fill="#C2B59B" sketch:type="MSShapeGroup"></path>
                        <rect id="Rectangle-path" fill="#1E120C" sketch:type="MSShapeGroup" x="398.1" y="92.3" width="129.4" height="32.7"></rect>
                        <path d="M532.5,200.7 L524.4,201.5 L527.4,92.3 L536.9,92.3 L532.5,200.7 L532.5,200.7 Z" id="Shape" fill="#C2B59B" sketch:type="MSShapeGroup"></path>
                        <path d="M770.4,200.7 L782.5,201.5 L775.5,92.3 L766,92.3 L770.4,200.7 L770.4,200.7 Z" id="Shape" fill="#C2B59B" sketch:type="MSShapeGroup"></path>
                        <path d="M385.3,118 L318.1,242.6 L499,250.6 L534,118 L385.3,118" id="Shape" fill="#A09D98" sketch:type="MSShapeGroup"></path>
                        <path d="M402.4,118 L385.3,118 L318.1,242.6 L330.2,243.1 L398.1,118" id="Shape" fill="#EDE4D3" sketch:type="MSShapeGroup"></path>
                        <path d="M328,243 L360.9,244.5 L396.4,154.7 L396.4,118 L328,243 L328,243 Z" id="Shape" fill="#BFB7AA" sketch:type="MSShapeGroup"></path>
                        <path d="M532.2,154.7 L394.5,154.7 L396.4,118 L534,118 L532.2,154.7 L532.2,154.7 Z" id="Shape" fill="#BFB7AA" sketch:type="MSShapeGroup"></path>
                        <path d="M905.2,92.3 L905.2,123.5 L918.5,126.3 L918.5,92.3 L905.2,92.3 L905.2,92.3 Z" id="Shape" fill="#C2B59B" sketch:type="MSShapeGroup"></path>
                        <rect id="Rectangle-path" fill="#1E120C" sketch:type="MSShapeGroup" x="775.9" y="92.3" width="129.4" height="32.7"></rect>
                        <path d="M918,118 L985.2,242.6 L804.3,250.6 L769.3,118 L918,118" id="Shape" fill="#A09D98" sketch:type="MSShapeGroup"></path>
                        <path d="M900.8,118 L918,118 L985.2,242.6 L973.1,243.1 L905.2,118" id="Shape" fill="#EDE4D3" sketch:type="MSShapeGroup"></path>
                        <path d="M975.2,243 L942.4,244.5 L906.9,154.7 L906.9,118 L975.2,243 L975.2,243 Z" id="Shape" fill="#BFB7AA" sketch:type="MSShapeGroup"></path>
                        <path d="M771.1,154.7 L908.7,154.7 L906.9,118 L769.3,118 L771.1,154.7 L771.1,154.7 Z" id="Shape" fill="#BFB7AA" sketch:type="MSShapeGroup"></path>
                        <path d="M593.6,92.3 L593.6,123.5 L580.3,126.3 L580.3,92.3 L593.6,92.3 L593.6,92.3 Z" id="Shape" fill="#C2B59B" sketch:type="MSShapeGroup"></path>
                        <rect id="Rectangle-path" fill="#1E120C" sketch:type="MSShapeGroup" x="593.6" y="92.3" width="129.4" height="32.7"></rect>
                        <path d="M731.6,201.5 L719.9,201.5 L720,92.3 L732.4,92.3 L731.6,201.5 L731.6,201.5 Z" id="Shape" fill="#C2B59B" sketch:type="MSShapeGroup"></path>
                        <path d="M580.8,118 L557.3,242.6 L738.2,250.6 L729.5,118 L580.8,118" id="Shape" fill="#A09D98" sketch:type="MSShapeGroup"></path>
                        <path d="M728.1,144.6 L580.3,144.6 L591.9,118 L729.5,118 L728.1,144.6 L728.1,144.6 Z" id="Shape" fill="#BFB7AA" sketch:type="MSShapeGroup"></path>
                        <path d="M736.3,270.3 L743.2,343.2 L738.2,201.5 L729.5,118 L736.3,270.3 L736.3,270.3 Z" id="Shape" fill="#C2B59B" sketch:type="MSShapeGroup"></path>
                        <path d="M720,118 L737.4,252.9 L752.6,263.9 L732.2,118 L720,118 L720,118 Z" id="Shape" fill="#EDE4D3" sketch:type="MSShapeGroup"></path>
                        <path d="M597.9,118 L580.8,118 L541.4,240.2 L557.3,239.8 L593.6,118" id="Shape" fill="#EDE4D3" sketch:type="MSShapeGroup"></path>
                        <path d="M0,244 L234.9,241.1 L245.1,375.3 L17.5,375.3 L0,244 L0,244 Z" id="Shape" fill="#974115" sketch:type="MSShapeGroup"></path>
                        <path d="M115.4,200 L113.8,156.6 L220.7,156.6 L222.2,176.4 C222.2,176.4 216.5,176.1 288.5,176.9 C290,176.9 286.2,218.5 286.2,218.5 L257.1,225.4 L115.4,200 L115.4,200 Z" id="Shape" fill="#EAE8E5" sketch:type="MSShapeGroup"></path>
                        <path d="M266.3,217 C267.8,216.9 264.5,247.2 264.5,247.2 L93,235.9 L91.4,183.7 L230.5,183.7 L230.7,216.2 L266.3,217 L266.3,217 Z" id="Shape" fill="#F9F6F2" sketch:type="MSShapeGroup"></path>
                        <path d="M358.1,201.8 L356.5,158.4 L463.4,158.4 L464.9,178.2 C464.9,178.2 459.2,177.9 531.2,178.7 C532.7,178.7 528.9,220.3 528.9,220.3 L501.1,225.3 L358.1,201.8 L358.1,201.8 Z" id="Shape" fill="#EAE8E5" sketch:type="MSShapeGroup"></path>
                        <path d="M509,217.4 C510.5,217.3 507.2,241.8 507.2,241.8 L334.1,237 L334.1,185.6 L473.2,185.6 L473.4,216.6 L509,217.4 L509,217.4 Z" id="Shape" fill="#F9F6F2" sketch:type="MSShapeGroup"></path>
                        <path d="M243.2,270.3 L250.1,343.2 L322.1,200.7 L325.8,118 L243.2,270.3 L243.2,270.3 Z" id="Shape" fill="#C2B59B" sketch:type="MSShapeGroup"></path>
                        <path d="M317.3,118 L241.2,253.4 L243.2,270.3 L325.8,118 L317.3,118 L317.3,118 Z" id="Shape" fill="#EDE4D3" sketch:type="MSShapeGroup"></path>
                        <g transform="translate(0.000000, 230.000000)">
                            <g sketch:type="MSShapeGroup">
                                <path d="M12.2,0.4 L0,14 L237.8,15.5 L243.2,0.4 L12.2,0.4 L12.2,0.4 Z" id="Shape" fill="#754C29"></path>
                                <path d="M115.6,83.7 C119.7,76.3 142.7,79.6 139.6,98.6 C139.5,99.4 139.8,96.3 139.6,98.6 L127,113.2 L107.9,98.8 L115.6,83.7 L115.6,83.7 Z" id="Shape" fill="#A09D98"></path>
                                <circle id="Oval" fill="#EDE4D3" cx="115.4" cy="110.5" r="24.9"></circle>
                                <path d="M165.3,71.3 L77.8,71.3 L72,32.3 L159.5,32.3 L165.3,71.3 L165.3,71.3 Z" id="Shape" fill="#A09D98"></path>
                                <path d="M149.1,64.9 L94.1,64.9 L89.7,38 L144.7,38 L149.1,64.9 L149.1,64.9 Z" id="Shape" fill="#FFFFFF"></path>
                                <path d="M234.9,14 L243.2,0.4 L250.9,127.8 L245.1,145.3 L234.9,14 L234.9,14 Z" id="Shape" fill="#754C29"></path>
                            </g>
                            <g id="A-Br" transform="translate(102.000000, 42.000000)" font-size="14.5896" font-family="Helvetica" fill="#000000" sketch:type="MSTextLayer" font-weight="normal">
                                <text>
                                    <tspan x="0.126" y="14.7462">A-Br</tspan>
                                </text>
                            </g>
                        </g>
                        <path d="M497,270.3 L502.5,346.1 L532.6,210.3 L534,118 L497,270.3 L497,270.3 Z" id="Shape" fill="#C2B59B" sketch:type="MSShapeGroup"></path>
                        <path d="M526.7,118 L489.7,253.7 L497,270.3 L535.9,118 L526.7,118 L526.7,118 Z" id="Shape" fill="#EDE4D3" sketch:type="MSShapeGroup"></path>
                        <g transform="translate(253.000000, 230.000000)">
                            <g sketch:type="MSShapeGroup">
                                <path d="M13,0.4 L0.9,14 L238.7,14 L244,0.4 L13,0.4 L13,0.4 Z" id="Shape" fill="#754C29"></path>
                                <path d="M232.8,14 L244,0.4 L251.8,127.8 L246,145.3 L232.8,14 L232.8,14 Z" id="Shape" fill="#754C29"></path>
                                <path d="M0.9,14 L234.3,14 L246,145.3 L18.4,145.3 L0.9,14 L0.9,14 Z" id="Shape" fill="#974115"></path>
                                <path d="M116.5,83.7 C120.6,76.3 143.6,79.6 140.5,98.6 C140.4,99.4 140.7,96.3 140.5,98.6 L127.9,113.2 L108.8,98.8 L116.5,83.7 L116.5,83.7 Z" id="Shape" fill="#A09D98"></path>
                                <circle id="Oval" fill="#EDE4D3" cx="119.2" cy="109.1" r="24.9"></circle>
                                <path d="M166.2,71.3 L78.7,71.3 L72.9,32.3 L160.3,32.3 L166.2,71.3 L166.2,71.3 Z" id="Shape" fill="#A09D98"></path>
                                <path d="M150,64.9 L94.9,64.9 L90.5,38 L145.6,38 L150,64.9 L150,64.9 Z" id="Shape" fill="#FFFFFF"></path>
                            </g>
                            <g id="Bu-Ca" transform="translate(100.000000, 42.000000)" font-size="14.5896" font-family="Helvetica" fill="#000000" sketch:type="MSTextLayer" font-weight="normal">
                                <text>
                                    <tspan x="0.0684" y="14.7462">Bu-Ca</tspan>
                                </text>
                            </g>
                        </g>
                        <g transform="translate(102.829100, 185.673000)" font-family="Helvetica" fill="#000000" sketch:type="MSTextLayer">
                            <g id="Brzechwa-Jan" transform="translate(1.000000, 0.000000)" font-size="13.1306" font-weight="bold">
                                <text>
                                    <tspan x="-1.42108547e-14" y="13">Brzechwa Jan</tspan>
                                </text>
                            </g>
                            <g id="Akademia-Pana-Kleksa" transform="translate(1.000000, 16.000000)" font-weight="normal" font-size="11.6717" font-style="italic">
                                <text>
                                    <tspan x="-1.42108547e-14" y="11">Akademia Pana Kleksa</tspan>
                                </text>
                            </g>
                        </g>
                        <g transform="translate(343.537100, 191.144700)">
                            <g id="Carroll-Lewis" font-size="13.1306" font-family="Helvetica" fill="#000000" sketch:type="MSTextLayer" font-weight="bold">
                                <text>
                                    <tspan x="0" y="13">Carroll Lewis</tspan>
                                </text>
                            </g>
                            <g transform="translate(84.700000, 13.000000)"></g>
                            <g id="Alicja-w-Krainie-Czarów" transform="translate(0.000000, 16.000000)" font-weight="normal" font-size="11.6717" font-family="Helvetica" fill="#000000" sketch:type="MSTextLayer" font-style="italic">
                                <text>
                                    <tspan x="0" y="11">Alicja w Krainie Czarów</tspan>
                                </text>
                            </g>
                        </g>
                        <path d="M939.1,218.9 L940.4,223.9 L797.3,223.9 L795.6,157 L904.4,157 L904.5,176.8 C904.5,176.8 904.5,176.8 938.7,177.3" id="Shape" fill="#EAE8E5" sketch:type="MSShapeGroup"></path>
                        <path d="M970.1,240.4 L805.8,235.6 L805.8,184.2 L944.9,184.2 L945.1,215.2 L970.4,215.1 L970.1,240.4 L970.1,240.4 Z" id="Shape" fill="#F9F6F2" sketch:type="MSShapeGroup"></path>
                        <g transform="translate(815.203100, 189.694500)" font-family="Helvetica" fill="#000000" sketch:type="MSTextLayer">
                            <g id="Lindgren-Astrid" font-size="13.1306" font-weight="bold">
                                <text>
                                    <tspan x="0" y="13">Lindgren Astrid</tspan>
                                </text>
                            </g>
                            <g id="Dzieci-z-Bullerbyn" transform="translate(0.000000, 16.000000)" font-weight="normal" font-size="11.6717" font-style="italic">
                                <text>
                                    <tspan x="0" y="11">Dzieci z Bullerbyn</tspan>
                                </text>
                            </g>
                        </g>
                        <path d="M732.8,217.4 L719.1,223.9 L573.1,201.5 L574.6,157 L681.5,157 L683,176.8 C683,176.8 659.1,176.7 731.1,177.5" id="Shape" fill="#EAE8E5" sketch:type="MSShapeGroup"></path>
                        <path d="M741.8,216 C743.3,215.9 740,240.4 740,240.4 L566.9,235.6 L566.9,184.2 L706,184.2 L706.2,215.2 L741.8,216 L741.8,216 Z" id="Shape" fill="#F9F6F2" sketch:type="MSShapeGroup"></path>
                        <g transform="translate(576.316400, 189.694500)" font-family="Helvetica" fill="#000000" sketch:type="MSTextLayer">
                            <g id="Chotomska-Wanda" font-size="13.1306" font-weight="bold">
                                <text>
                                    <tspan x="0" y="13">Chotomska Wanda</tspan>
                                </text>
                            </g>
                            <g id="Wiersze-dla-dzieci" transform="translate(0.000000, 16.000000)" font-weight="normal" font-size="11.6717" font-style="italic">
                                <text>
                                    <tspan x="0" y="11">Wiersze dla dzieci</tspan>
                                </text>
                            </g>
                        </g>
                        <g transform="translate(529.000000, 230.000000)">
                            <path d="M221.8,143.7 L12.4,143.7 L0.7,12 L233.4,12 L221.8,143.7 L221.8,143.7 Z" id="Shape" fill="#974115" sketch:type="MSShapeGroup"></path>
                            <circle id="Oval" fill="#EDE4D3" sketch:type="MSShapeGroup" cx="117.1" cy="110.2" r="21.4"></circle>
                            <path d="M233.4,13.5 L0.7,13.5 L10.9,0.6 L223.2,0.6 L233.4,13.5 L233.4,13.5 Z" id="Shape" fill="#754C29" sketch:type="MSShapeGroup"></path>
                            <g transform="translate(71.000000, 36.000000)">
                                <rect id="Rectangle-path" fill="#A09D98" sketch:type="MSShapeGroup" x="0" y="0.7" width="92.8" height="36.7"></rect>
                                <rect id="Rectangle-path" fill="#FFFFFF" sketch:type="MSShapeGroup" x="17.2" y="6" width="58.4" height="25.3"></rect>
                                <g id="Cen-Go" transform="translate(21.000000, 9.000000)" font-size="14.5896" font-family="Helvetica" fill="#000000" sketch:type="MSTextLayer" font-weight="normal">
                                    <text>
                                        <tspan x="0.8027" y="14.6632">Cen-Go</tspan>
                                    </text>
                                </g>
                            </g>
                        </g>
                        <g id="Shape" transform="translate(767.000000, 118.000000)" sketch:type="MSShapeGroup">
                            <path d="M9.6,0 L46.5,135.7 L39.3,152.3 L0.4,0 L9.6,0 L9.6,0 Z" fill="#EDE4D3"></path>
                            <path d="M39.3,152.3 L33.8,228.1 L3.6,92.3 L2.3,0 L39.3,152.3 L39.3,152.3 Z" fill="#C2B59B"></path>
                        </g>
                        <g transform="translate(798.000000, 230.000000)">
                            <path d="M239.3,0.4 L251.4,14 L13.6,14 L8.3,0.4 L239.3,0.4 L239.3,0.4 Z" id="Shape" fill="#754C29" sketch:type="MSShapeGroup"></path>
                            <path d="M19.4,14 L8.3,0.4 L0.5,127.8 L6.3,145.3 L19.4,14 L19.4,14 Z" id="Shape" fill="#754C29" sketch:type="MSShapeGroup"></path>
                            <path d="M251.4,14 L18,14 L6.3,145.3 L233.9,145.3 L251.4,14 L251.4,14 Z" id="Shape" fill="#974115" sketch:type="MSShapeGroup"></path>
                            <g transform="translate(108.000000, 80.000000)" sketch:type="MSShapeGroup">
                                <path d="M27.8,3.7 C23.7,-3.7 0.7,-0.4 3.8,18.6 C3.9,19.4 3.6,16.3 3.8,18.6 L16.4,33.2 L35.5,18.8 L27.8,3.7 L27.8,3.7 Z" id="Shape" fill="#A09D98"></path>
                                <circle id="Oval" fill="#EDE4D3" cx="25.1" cy="29.1" r="24.9"></circle>
                            </g>
                            <g transform="translate(86.000000, 32.000000)">
                                <path d="M0.1,39.3 L87.6,39.3 L91.9,0.3 L3,0.3 L0.1,39.3 L0.1,39.3 Z" id="Shape" fill="#A09D98" sketch:type="MSShapeGroup"></path>
                                <path d="M16.3,32.9 L72.8,32.9 L74.3,6 L17.8,6 L16.3,32.9 L16.3,32.9 Z" id="Shape" fill="#FFFFFF" sketch:type="MSShapeGroup"></path>
                                <g id="Gr-Lon" transform="translate(21.000000, 10.000000)" font-size="14.5896" font-family="Helvetica" fill="#000000" sketch:type="MSTextLayer" font-weight="normal">
                                    <text>
                                        <tspan x="0.2188" y="14.7462">Gr-Lon</tspan>
                                    </text>
                                </g>
                            </g>
                        </g>
                    </g>
                </g>
            </g>
        </g>
    </g>
</svg>