<?xml version="1.0" encoding="utf-8"?>
<!-- Generator: Adobe Illustrator 18.1.1, SVG Export Plug-In . SVG Version: 6.00 Build 0)  -->
<svg version="1.1" id="Warstwa_1" xmlns="http://www.w3.org/2000/svg" xmlns:xlink="http://www.w3.org/1999/xlink" x="0px" y="0px"
	 viewBox="0 0 638.4 352.9" enable-background="new 0 0 638.4 352.9" xml:space="preserve">
<g>
	<path fill="#1F1A17" d="M403.2,159.6c-0.1,0-0.4-0.7-1.2-1c-0.5-0.2-1.2-0.2-2.1,0.5v0c0,0,0.7-0.3,1.6-0.1c1,0.2,1.4,1.1,1.4,1.1
		s0.8-0.3,1.9-0.1c1,0.2,1.9,1.5,1.9,1.5C406.6,160.1,405,159,403.2,159.6z"/>
	<path fill="#1F1A17" d="M394.8,154.6c-0.6,0-1.1,0.5-1.1,0.4c-1.1-0.9-2.5-0.5-3,0.5c0,0,1-0.7,1.8-0.6c0.8,0.1,1.3,0.5,1.3,0.5
		s0.6-0.5,1.3-0.5c0.8,0.1,1.1,0.5,1.1,0.5v0C395.7,154.8,395.2,154.6,394.8,154.6z"/>
	<path fill="#1F1A17" d="M461.9,90.8c-0.8-0.2-1.5,0.2-1.5,0.2c-1.1-1.5-3-1.5-4-0.5c0,0,1.5-0.5,2.4-0.1c1,0.4,1.5,1.1,1.5,1.1
		s0.9-0.5,1.8-0.1c0.9,0.4,1.3,1,1.3,1v0C463,91.3,462.4,91,461.9,90.8z"/>
	<polygon fill="#1F1A17" points="464.1,80.6 464.1,80.6 464.1,80.6 	"/>
	<path fill="#1F1A17" d="M466.6,80.8c0,0-0.4-0.5-0.9-0.7c-0.4-0.1-0.9-0.1-1.6,0.5c0,0,0.5-0.3,1.2-0.2c0.7,0.1,1.1,0.8,1.1,0.8
		s0.6-0.2,1.4-0.2c0.8,0.1,1.5,1,1.5,1C469.1,81,467.9,80.3,466.6,80.8z"/>
	<path fill="#1F1A17" d="M452.1,80.6c-0.9-0.1-1.7,0.4-1.8,0.4c-1.5-1.6-3.7-1.4-4.8-0.1c0,0,1.6-0.8,2.8-0.4
		c1.2,0.4,1.9,1.1,1.9,1.1s1-0.7,2.1-0.4c1.1,0.3,1.6,1,1.6,1C453.4,81,452.8,80.7,452.1,80.6z"/>
	<polygon fill="#1F1A17" points="454,82.3 454,82.3 454,82.3 	"/>
	<polygon fill="#1F1A17" points="430.7,82.4 430.7,82.4 430.7,82.4 	"/>
	<path fill="#1F1A17" d="M433.2,82c0,0-0.5-0.4-1.1-0.5c-0.4,0-0.9,0.1-1.4,0.8c0,0,0.4-0.4,1.2-0.5c0.8-0.1,1.3,0.5,1.3,0.5
		s0.5-0.4,1.3-0.5c0.8-0.1,1.7,0.6,1.7,0.6C435.7,81.6,434.3,81.2,433.2,82z"/>
	<path fill="#1F1A17" d="M444.2,92c-0.6,0-1,0.4-1.1,0.4c-1-0.8-2.4-0.5-2.9,0.4c0,0,0.9-0.7,1.7-0.5c0.8,0.1,1.3,0.5,1.3,0.5
		s0.5-0.5,1.3-0.4c0.7,0.1,1.1,0.5,1.1,0.5C445.1,92.2,444.6,92,444.2,92z"/>
	<polygon fill="#1F1A17" points="445.6,92.8 445.6,92.8 445.6,92.8 	"/>
	<path fill="#1F1A17" d="M472.8,96.7c-0.1,0-0.2-0.6-0.7-1c-0.3-0.2-0.8-0.4-1.6,0l0,0c0,0,0.5-0.1,1.2,0.2c0.7,0.4,0.8,1.1,0.8,1.1
		s0.7,0,1.4,0.3c0.7,0.3,1.1,1.5,1.1,1.5C475.2,97.7,474.2,96.6,472.8,96.7z"/>
</g>
</svg>
