<?xml version="1.0" encoding="utf-8"?>
<!-- Generator: Adobe Illustrator 18.1.1, SVG Export Plug-In . SVG Version: 6.00 Build 0)  -->
<svg version="1.1" id="Warstwa_1" xmlns="http://www.w3.org/2000/svg" xmlns:xlink="http://www.w3.org/1999/xlink" x="0px" y="0px"
	 viewBox="0 0 638.4 352.9" enable-background="new 0 0 638.4 352.9" xml:space="preserve">
<g>
	<path fill="#1F1A17" d="M173.7,90c-1.1-0.3-1.7,0-2.1,0.4c-0.6,0.6-0.6,1.4-0.7,1.4c-1.8,0.1-2.9,1.7-2.6,3.1c0,0,0.3-1.5,1.2-2.1
		c0.9-0.6,1.8-0.7,1.8-0.7s0.1-1,0.9-1.6C173,89.9,173.7,90,173.7,90z"/>
	<path fill="#1F1A17" d="M185.4,82c0.4-1.1,0.9-1.5,1.4-1.6c0.8-0.2,1.5,0.2,1.5,0.2c1.1-1.5,3-1.5,4-0.5c0,0-1.5-0.5-2.4-0.1
		c-1,0.4-1.5,1.1-1.5,1.1s-0.9-0.5-1.8-0.1C185.7,81.4,185.4,82,185.4,82L185.4,82z"/>
	<path fill="#1F1A17" d="M195.7,82.3c0.6-1,1.2-1.2,1.7-1.3c0.8,0,1.4,0.5,1.5,0.5c1.4-1.2,3.2-0.9,4,0.3c0,0-1.3-0.8-2.3-0.6
		c-1,0.2-1.7,0.8-1.7,0.8s-0.8-0.7-1.8-0.5C196.2,81.8,195.7,82.3,195.7,82.3z"/>
	<path fill="#1F1A17" d="M196.9,70.8c0.5-0.7,1-0.9,1.4-0.9c0.6,0,1.1,0.5,1.1,0.4c1.1-0.8,2.5-0.5,3,0.5c0,0-0.9-0.7-1.7-0.6
		c-0.8,0.1-1.3,0.5-1.3,0.5s-0.5-0.5-1.3-0.5C197.2,70.4,196.9,70.8,196.9,70.8L196.9,70.8z"/>
	<path fill="#1F1A17" d="M174.2,75.4c-0.9-0.2-1.3,0-1.6,0.3c-0.4,0.4-0.5,1.1-0.5,1.1c-1.4,0.1-2.2,1.3-1.9,2.4
		c0,0,0.2-1.2,0.9-1.6c0.7-0.5,1.3-0.5,1.3-0.5s0-0.8,0.7-1.2C173.6,75.4,174.2,75.4,174.2,75.4L174.2,75.4z"/>
</g>
</svg>
