<?xml version="1.0" encoding="utf-8"?>
<!-- Generator: Adobe Illustrator 18.1.1, SVG Export Plug-In . SVG Version: 6.00 Build 0)  -->
<svg version="1.1" id="Warstwa_1" xmlns="http://www.w3.org/2000/svg" xmlns:xlink="http://www.w3.org/1999/xlink" x="0px" y="0px"
	 viewBox="0 0 638.4 352.9" enable-background="new 0 0 638.4 352.9" xml:space="preserve">
<g>
	<path fill="#B3D7B3" d="M639.1,215.7c-1.1-0.5-27.1,5.3-51.3,4.9c-17-0.3-34.5-6.8-35.2-7c-2-0.6-4-1.1-6.1-1.4
		c0.2-0.3,0.5-0.7,0.6-1.1c0.2-0.8,0.1-1.5,0-2.6c0-0.3-0.2-1-0.5-1.6c0.1,0,0.3,0.1,0.5,0.1c0.9,0,1-0.5,1.3-1
		c0.2-0.2,0.4-0.5,0.4-0.5c0,0,0,0-0.7-0.1c-0.3,0-0.6,0-0.8,0.1c-0.4,0.2-0.7,0.5-1,0.8c-0.1-0.2-0.3-0.5-0.5-0.7
		c0.2-0.2,0.3-0.4,0.5-0.6c0.5-0.8,0.5-1.7,0.9-2.6l-0.7-0.4c-0.2,0.7-0.2,1.8-0.9,2.8c-0.1,0.1-0.1,0.2-0.2,0.2
		c-0.4-0.6-0.8-1.1-0.9-1.6c-0.4-1.4-1.1-2.7-1.2-3.8c-0.1-0.8-0.3-1.7-0.1-2.6c0.1-0.4,0.9-1.5,1.5-2.1c1-0.8,2.3-1,2.5-1.4
		l-0.6-0.2c-0.6,0.3-1.3,0.6-1.9,1c-0.1-0.2-0.3-0.5-0.4-0.7c0-0.1-0.2-0.3-0.3-0.4c0-0.2,0-0.6-0.2-1c-0.5-0.8-1-0.6-1.8-0.6
		c-0.3,0-0.7-0.1-0.7-0.1s0,0,0.3,0.7c0.1,0.3,0.3,0.6,0.5,0.7c0.5,0.4,1.1,0.3,1.7,0.4c0.1,0.1,0.1,0.2,0.2,0.3
		c0.1,0.2,0.2,0.3,0.3,0.5c0.1,0.1,0.1,0.2,0.2,0.3c-1.4,1-2.5,2.6-1.7,5.6c0.2,0.6,0.5,1.9,1,3.2c-0.2,0-0.4,0-0.8,0.1
		c-0.5,0-1,0.2-1.4,0.4c-0.8,0.5-1.1,1.5-1.5,2.3c-0.2,0.1-0.3,0.1-0.5,0.2c-0.3,0.1-0.6,0.2-1,0.3c-0.3,0.1-0.6,0.1-0.8,0.1
		c0.2-0.5,0.5-1.1,0.8-1.6c0.9-1.7,1.2-3.3,1.4-5.2l-0.8-0.1c0,1-0.2,2.8-0.8,4.3c0,0-0.2-0.2-0.3-0.3c-0.1-0.1-0.2-0.3-0.3-0.4
		c-0.1-0.1-0.1-0.1-0.1-0.2c0-0.4,0.2-0.9,0.1-1.3c-0.1-0.2-0.2-0.4-0.4-0.6c-0.4-0.4-0.4-0.4-0.4-0.4s0,0.3-0.1,0.5
		c-0.2,0.5-0.5,0.9,0,1.4c0.2,0.3,0.5,0.4,0.6,0.4c0.1,0.1,0.2,0.3,0.2,0.3c0.2,0.2,0.5,0.5,0.6,0.7c-0.1,0.2-0.2,0.4-0.3,0.6
		c-0.3,0.6-0.7,1.2-0.9,1.7c-0.2,0.6-0.3,1.2-0.5,1.6c-0.1,0.3-0.2,0.5-0.2,0.8c0,0,0-0.1-0.1-0.1c-0.2-0.2-0.3-0.4-0.4-0.6
		c-0.1-0.1-0.1-0.2-0.2-0.3c0.1-0.6,0.5-1.2,0.4-1.8c-0.1-0.3-0.2-0.6-0.5-0.9c-0.5-0.6-0.5-0.6-0.5-0.6s-0.1,0.4-0.2,0.7
		c-0.3,0.7-0.8,1.2-0.2,2c0.3,0.4,0.6,0.6,0.9,0.7c0.1,0.2,0.2,0.5,0.3,0.5c0.1,0.2,0.3,0.5,0.5,0.7c-0.2,1.1-0.3,2-0.3,2.6
		c-0.7,0-1.4,0.1-2.1,0.2c-0.5-0.1-0.5-0.2-0.8-0.4c-0.3-0.1-1.1-0.2-1.1-0.2s0,0.1,0.6,0.3c0.2,0.1,0.4,0.2,0.5,0.3
		c-1.1,0.1-2.2,0.2-3.4,0.4c0-0.4,0.1-0.9,0-1.5c0.2-0.2,0.4-0.4,0.5-0.6c0-0.1,0.2-0.3,0.3-0.4c0.2-0.1,0.5-0.2,0.9-0.5
		c0.6-0.7,0.3-1.1,0.1-1.8c-0.1-0.3-0.1-0.7-0.1-0.7s0,0-0.6,0.5c-0.3,0.2-0.4,0.5-0.5,0.7c-0.2,0.5,0,1.1,0.1,1.7
		c-0.1,0.1-0.1,0.2-0.2,0.3c-0.1,0.1-0.2,0.3-0.4,0.5c0,0,0,0-0.1,0.1c0-0.2,0-0.5-0.1-0.7c-0.1-0.4-0.1-1-0.2-1.5
		c-0.1-0.5-0.4-1.1-0.6-1.7c-0.1-0.2-0.1-0.4-0.2-0.6c0.1-0.1,0.4-0.3,0.6-0.5c0,0,0.2-0.2,0.2-0.3c0.1,0,0.4-0.1,0.6-0.3
		c0.5-0.4,0.3-0.8,0.2-1.2c0-0.2,0-0.4,0-0.4s0,0-0.4,0.3c-0.2,0.1-0.3,0.3-0.4,0.4c-0.2,0.4-0.1,0.8-0.1,1.1c0,0.1-0.1,0.1-0.2,0.2
		c-0.1,0.1-0.2,0.2-0.3,0.3c-0.1,0.1-0.3,0.2-0.3,0.2c-0.3-1.4-0.3-3.1-0.1-4l-0.7,0c-0.1,1.8,0,3.2,0.5,4.8
		c0.2,0.5,0.3,1.1,0.5,1.6c-0.2,0-0.4-0.1-0.7-0.2c-0.3-0.1-0.6-0.2-0.9-0.4c-0.2-0.1-0.3-0.2-0.4-0.2c-0.3-0.8-0.4-1.7-1-2.3
		c-0.3-0.3-0.7-0.5-1.2-0.6c-1.1-0.3-1.1-0.3-1.1-0.3s0.2,0.5,0.3,0.9c0.2,1,0,1.9,1.4,2.4c0.6,0.2,1.2,0.2,1.5,0.1
		c0.2,0.1,0.6,0.3,0.7,0.4c0.4,0.2,1.2,0.4,1.6,0.5c0.1,0.5,0.2,1,0.3,1.4c0.1,0.9,0.1,1.7,0,2.4c-1.8,0.3-3.7,0.6-5.6,1
		c0.1-0.3,0.2-0.6,0.3-0.8c0.2-0.9,0-1.7-0.2-2.9c-0.1-0.5-0.5-1.3-1-2.2c-0.6-1-2-2.2-2.4-3.3c-0.6-1.5-1.5-2.9-1.7-4.2
		c-0.2-0.9-0.4-1.9-0.3-2.9c0.1-0.4,0.9-1.8,1.5-2.5c1-1,2.5-1.3,2.7-1.8l-0.7-0.2c-0.7,0.3-1.4,0.8-2.1,1.3h0
		c-0.1-0.3-0.3-0.6-0.5-0.8c-0.1-0.1-0.3-0.3-0.4-0.5c0-0.2-0.1-0.7-0.4-1.1c-0.6-0.9-1.2-0.6-2-0.6c-0.4,0-0.8-0.1-0.8-0.1
		s0,0,0.4,0.8c0.2,0.3,0.4,0.6,0.7,0.8c0.6,0.4,1.3,0.3,1.9,0.3c0.1,0.1,0.2,0.2,0.3,0.3c0.1,0.2,0.3,0.3,0.4,0.6
		c0.1,0.1,0.1,0.2,0.2,0.3c-1.5,1.3-2.6,3.2-1.5,6.4c0.2,0.7,0.9,2.3,1.5,3.9c0.6,1.5,1.9,2.4,2.7,3.7c0.7,1.2,0.9,3,0.8,4.6
		c0,0.3-0.1,0.6-0.2,0.9c-2.6,0.5-5.3,1.1-8.2,1.8c-0.3-0.2-0.6-0.4-0.9-0.7c-1-1.1-1.7-2.6-2-3.9c0.3,0,0.8-0.1,1.1-0.2
		c0.1,0,0.4-0.1,0.6-0.2c0.2,0.1,0.6,0.2,1.1,0.1c1-0.1,1-0.8,1.3-1.5c0.1-0.3,0.4-0.6,0.4-0.6c0,0,0,0-0.8,0c-0.4,0-0.7,0.1-1,0.3
		c-0.5,0.3-0.8,1-1.1,1.5c-0.1,0-0.2,0.1-0.3,0.1c-0.2,0.1-0.4,0.1-0.7,0.1c-0.2,0-0.4,0-0.5,0c0.5-0.7,1.1-1.4,1.4-2.2
		c0.4-1.1,0.2-2.1,0.5-3.3l-0.9-0.3c-0.1,0.9,0.2,2.2-0.4,3.5c-0.2,0.4-0.4,0.9-0.7,1.3c0-1.4,0.5-2.8,0.1-4.3
		c-0.4-1.7-0.8-3.5-1-4.3c-0.9-3.5-3.1-4.5-5.1-4.7c0-0.1,0-0.3,0-0.4c0-0.3,0-0.5,0-0.8c0-0.2,0-0.3,0-0.4c0.5-0.5,1.2-0.8,1.4-1.4
		c0.1-0.3,0.2-0.7,0.1-1.1c-0.1-0.9-0.1-0.9-0.1-0.9s-0.3,0.3-0.6,0.5c-0.7,0.4-1.4,0.6-1.4,1.7c0,0.6,0.2,1,0.3,1.2
		c0,0.2-0.1,0.6-0.1,0.7c0,0.3,0,0.7,0,1c-0.9-0.1-1.8,0-2.6,0.1l-0.5,0.6c0.5,0.3,1.9-0.4,3.4-0.1c1,0.2,2.5,0.9,2.8,1.2
		c0.7,0.8,1.1,1.8,1.5,2.7c0.6,1.2,0.6,2.9,1,4.6c0.3,1.2-0.2,3.1-0.1,4.3c0,0.2,0,0.4,0.1,0.6c-0.2,0.3-0.5,0.5-0.7,0.7
		c-1.5,1.1-3.6,1.2-4.4,3c-0.6,1.2-1.1,2.3-1.2,3.2c0,0.1,0,0.3,0,0.4c-0.5,0.1-1,0.2-1.5,0.3c-0.1-0.8-0.2-2-0.1-3.3
		c0-0.5,0.1-1.1,0.3-1.8c0.4-0.1,1.5-0.5,2-0.8c0.1-0.1,0.7-0.4,0.9-0.6c0.4,0.1,1.1,0.1,2-0.2c1.7-0.7,1.5-1.8,1.6-3.2
		c0.1-0.6,0.4-1.2,0.4-1.2s0,0-1.4,0.4c-0.6,0.2-1.2,0.5-1.6,0.9c-0.8,0.8-0.9,2.1-1.2,3.1c-0.2,0.1-0.4,0.2-0.6,0.3
		c-0.3,0.2-0.7,0.4-1.1,0.5c-0.3,0.1-0.7,0.3-0.9,0.3c0.2-0.7,0.3-1.4,0.5-2.1c0.6-2.2,0.6-4.1,0.4-6.4l-0.9,0.1
		c0.3,1.2,0.4,3.4,0.1,5.2c0,0-0.3-0.2-0.4-0.3c-0.2-0.1-0.3-0.3-0.4-0.4c-0.1-0.1-0.2-0.1-0.2-0.2c0-0.5,0.1-1.1-0.2-1.5
		c-0.1-0.2-0.3-0.4-0.6-0.6c-0.6-0.4-0.6-0.4-0.6-0.4s0,0.3,0,0.6c-0.1,0.6-0.3,1.1,0.3,1.6c0.3,0.3,0.7,0.3,0.8,0.3
		c0.1,0.1,0.3,0.3,0.3,0.4c0.2,0.2,0.7,0.5,0.8,0.6c-0.1,0.3-0.1,0.5-0.2,0.8c-0.2,0.8-0.5,1.5-0.7,2.3c-0.1,0.7-0.1,1.4-0.2,2
		c0,0.3,0,0.7-0.1,1c0,0-0.1-0.1-0.1-0.1c-0.2-0.2-0.4-0.4-0.6-0.6c-0.1-0.1-0.2-0.2-0.3-0.4c0-0.7,0.3-1.5,0-2.2
		c-0.1-0.3-0.4-0.7-0.8-0.9c-0.8-0.6-0.8-0.6-0.8-0.6s0,0.5-0.1,0.9c-0.2,0.9-0.7,1.6,0.2,2.4c0.4,0.4,0.9,0.6,1.2,0.6
		c0.1,0.2,0.4,0.5,0.4,0.6c0.2,0.2,0.5,0.5,0.7,0.7c0,0.9,0.1,1.7,0.2,2.3c-7.3,1.3-14,1.1-20.1,0.1c-12.1-6.7-24.3-12.8-36.9-16.9
		c0.1-0.2,0.2-0.5,0.3-0.7c0.3-0.1,1.1-0.2,1.6-0.5c0.1,0,0.5-0.2,0.7-0.3c0.3,0.1,0.8,0.2,1.5,0c1.3-0.4,1.2-1.3,1.5-2.3
		c0.1-0.5,0.4-0.9,0.4-0.9s0,0-1.1,0.2c-0.5,0.1-0.9,0.3-1.2,0.5c-0.7,0.6-0.8,1.5-1.2,2.2c-0.1,0.1-0.3,0.1-0.5,0.2
		c-0.3,0.1-0.5,0.2-0.9,0.3c-0.3,0.1-0.5,0.1-0.7,0.2c0.4-0.9,0.8-1.8,1.3-2.5c0.6-0.8,0.7-1.1,1.2-1.9c0.3-0.6,1-1.2,1.4-1.9
		c0.1-0.1,0.2-0.3,0.4-0.4c0.2-0.2,0.4-0.4,0.6-0.6c0.2,0.1,0.5,0.2,0.8,0.3c1.4,0.3,2.3-0.3,2.5-1.7c0-0.1,0-0.5-0.1-1
		c-0.5-1-1.1-1.6-1.8-1.8l0,0c-0.1,0-0.5,0-1.2,0.1c-0.8,0.2-1.2,0.8-1.4,1.7c-0.1,0.3,0,0.7,0.1,1c0.1,0.4,0.3,0.8,0.6,1.1
		c-0.2,0.2-0.4,0.3-0.6,0.5c-0.2,0.2-0.5,0.6-0.6,0.8c-0.1,0.2-0.3,0.3-0.5,0.5c-0.3,0.4-0.5,0.9-0.7,1.3c-0.3,0.5-0.5,0.8-0.7,1.2
		c0-0.1-0.1-0.3-0.1-0.5c-0.1-0.3-0.1-0.6-0.2-0.9c0-0.2,0-0.4-0.1-0.5c0.5-0.7,1.2-1.3,1.3-2.1c0.1-0.4,0-0.9-0.2-1.3
		c-0.4-1.1-0.4-1.1-0.4-1.1s-0.3,0.5-0.6,0.8c-0.8,0.7-1.6,1.1-1.2,2.5c0.2,0.7,0.5,1.1,0.8,1.3c0,0.2,0.1,0.7,0.1,0.8
		c0.1,0.4,0.2,1,0.4,1.4c-0.3,0.5-0.7,1-1,1.7c-0.3,0.6-0.7,1.5-1,2.4c-1.3-0.4-2.7-0.8-4-1.2c0-0.3,0.1-0.5,0.1-0.8
		c0.2-0.2,0.4-0.3,0.6-0.5c0.1-0.1,0.3-0.3,0.4-0.4c0.2,0,0.6-0.1,0.9-0.4c0.7-0.6,0.4-1.1,0.3-1.8c-0.1-0.3,0-0.7,0-0.7
		s0,0-0.6,0.4c-0.3,0.2-0.5,0.4-0.6,0.7c-0.3,0.5-0.1,1.1-0.1,1.7c-0.1,0.1-0.1,0.2-0.2,0.3c-0.1,0.1-0.3,0.3-0.4,0.4
		c0,0-0.1,0-0.1,0.1c0-0.2,0-0.5,0-0.7c0-0.4,0-1,0-1.5c-0.1-0.6-0.3-1.1-0.4-1.7c0-0.2-0.1-0.4-0.1-0.6c0.1-0.1,0.5-0.3,0.7-0.4
		c0,0,0.2-0.2,0.3-0.3c0.1,0,0.4,0,0.7-0.2c0.5-0.4,0.4-0.7,0.3-1.2c0-0.2,0-0.5,0-0.5s0,0-0.5,0.3c-0.2,0.1-0.4,0.2-0.5,0.4
		c-0.2,0.3-0.1,0.8-0.2,1.1c0,0.1-0.1,0.1-0.2,0.2c-0.1,0.1-0.2,0.2-0.3,0.3c-0.1,0.1-0.3,0.2-0.3,0.2c-0.2-1.4,0-3.1,0.3-4
		l-0.7-0.1c-0.3,1.7-0.4,3.2,0,4.9c0.1,0.5,0.2,1.1,0.3,1.6c-0.2-0.1-0.4-0.2-0.7-0.3c-0.3-0.1-0.6-0.3-0.8-0.5
		c-0.2-0.1-0.3-0.2-0.4-0.3c-0.2-0.8-0.2-1.7-0.8-2.4c-0.3-0.3-0.7-0.5-1.1-0.7c-0.3-0.1-0.6-0.2-0.7-0.3c0.7-1.1,1.3-2.1,1.6-2.6
		c1.4-2.4,0.8-4.1-0.3-5.3c0.1-0.1,0.1-0.2,0.2-0.2c0.2-0.2,0.3-0.3,0.4-0.4c0.1-0.1,0.2-0.1,0.2-0.2c0.5,0,1.1,0.2,1.6,0
		c0.2-0.1,0.5-0.3,0.6-0.5c0.4-0.6,0.4-0.5,0.4-0.5s-0.3,0-0.6-0.1c-0.6-0.2-1.1-0.5-1.7,0.2c-0.3,0.3-0.4,0.6-0.4,0.8
		c-0.1,0.1-0.3,0.3-0.4,0.3c-0.2,0.1-0.4,0.3-0.5,0.5c-0.5-0.5-1-1-1.5-1.3l-0.6,0.1c0.1,0.4,1.3,0.8,1.9,1.8
		c0.4,0.6,0.9,1.8,0.9,2.2c0,0.8-0.4,1.5-0.6,2.2c-0.3,1-1.2,1.9-1.9,3c-0.2,0.4-0.7,0.8-1.2,1.2c0-0.1-0.1-0.2-0.1-0.3
		c-0.3-0.8-0.2-1.6-0.2-2.2c1.1,0,1.9-0.5,2.1-1.4l0-0.1c0.4-1.4,0.5-2.3,0.2-2.7l-0.2-0.1c-0.2-0.1-0.4,0-0.5,0.1L435,189
		c-0.2,0.7-0.7,1.1-1.4,1c-0.7-0.2-1-0.8-0.9-1.6c0.5-1.6,0.5-2.5,0-2.6c-0.2,0-0.3,0.1-0.3,0.2l-0.6,1.8c-0.2,1.6,0.2,2.6,1.2,3
		c0.1,0.8,0,1.6,0.2,2.4c0.1,0.2,0.2,0.4,0.3,0.7c-0.2,0.2-0.4,0.4-0.6,0.6c-0.2-0.3-0.3-0.7-0.6-1c-0.2-0.1-0.4-0.2-0.7-0.2
		c-0.6-0.1-0.6-0.1-0.6-0.1l0,0c0,0,0.2,0.2,0.3,0.5c0.2,0.6,0.2,1.1,0.9,1.2c0.2,0,0.3,0,0.4,0c-0.4,0.5-0.7,1-0.8,1.3
		c-0.2,0.6-0.4,1.1-0.5,1.5c-2.9-0.6-5.8-1-8.7-1.3c0.6-0.1,1.4-0.2,1.4-0.2s-0.3-0.2-0.8-0.2c-0.5,0-0.9,0.2-1.6,0.2
		c0.3-0.4,0.6-1,0.7-1.5c0.2-0.8,0-1.6-0.2-2.8c-0.1-0.4-0.3-1-0.7-1.7c0.1,0,0.3,0.1,0.5,0.1c0.9,0,1-0.6,1.4-1.2
		c0.2-0.3,0.4-0.5,0.4-0.5s0,0-0.7,0c-0.3,0-0.6,0-0.9,0.1c-0.4,0.2-0.7,0.6-1,1c-0.2-0.2-0.4-0.5-0.6-0.8c0.2-0.2,0.3-0.5,0.5-0.7
		c0.4-0.9,0.4-1.9,0.8-2.9l-0.8-0.3c-0.2,0.8-0.1,2-0.8,3.1c-0.1,0.1-0.1,0.2-0.2,0.3c-0.5-0.6-0.9-1.1-1.1-1.7
		c-0.6-1.5-1.4-2.8-1.6-4c-0.1-0.9-0.4-1.8-0.3-2.8c0.1-0.4,0.8-1.7,1.5-2.4c1-1,2.4-1.2,2.6-1.7l-0.7-0.2c-0.6,0.3-1.4,0.7-2,1.2
		c-0.1-0.2-0.3-0.5-0.5-0.7c-0.1-0.1-0.3-0.3-0.4-0.4c0-0.2-0.1-0.6-0.3-1c-0.6-0.9-1.2-0.6-1.9-0.5c-0.3,0-0.7-0.1-0.7-0.1
		s0,0,0.4,0.7c0.2,0.3,0.4,0.6,0.6,0.8c0.5,0.3,1.2,0.2,1.8,0.3c0.1,0.1,0.2,0.2,0.2,0.3c0.1,0.2,0.3,0.3,0.4,0.5
		c0.1,0.1,0.1,0.2,0.2,0.3c-1.4,1.2-2.5,3-1.4,6.1c0.2,0.6,0.7,2,1.3,3.4c-0.2,0-0.5,0.1-0.9,0.2c-0.6,0.1-1.1,0.3-1.5,0.6
		c-0.8,0.6-1,1.7-1.5,2.6c-0.2,0.1-0.3,0.2-0.6,0.2c-0.3,0.1-0.6,0.3-1.1,0.4c-0.3,0.1-0.7,0.2-0.9,0.2c0.2-0.6,0.5-1.2,0.7-1.8
		c0.8-1.9,1-3.6,1-5.7l-0.8-0.1c0.1,1.1,0,3.1-0.5,4.7c0,0-0.2-0.2-0.4-0.3c-0.1-0.1-0.2-0.3-0.3-0.4c-0.1-0.1-0.1-0.2-0.2-0.2
		c0-0.5,0.2-0.9,0-1.4c-0.1-0.2-0.3-0.4-0.5-0.6c-0.5-0.4-0.5-0.4-0.5-0.4s0,0.3-0.1,0.5c-0.1,0.6-0.4,1,0.1,1.5
		c0.3,0.3,0.6,0.4,0.7,0.4c0.1,0.1,0.2,0.3,0.3,0.4c0.2,0.2,0.6,0.6,0.7,0.7c-0.1,0.2-0.2,0.5-0.2,0.7c-0.3,0.7-0.7,1.3-0.9,1.9
		c-0.2,0.6-0.3,1.3-0.4,1.8c-0.1,0.3-0.1,0.6-0.2,0.9c0,0-0.1-0.1-0.1-0.1c-0.2-0.2-0.3-0.4-0.4-0.6c-0.1-0.1-0.2-0.2-0.2-0.4
		c0.1-0.7,0.4-1.3,0.2-2c-0.1-0.3-0.3-0.6-0.6-0.9c-0.6-0.7-0.6-0.7-0.6-0.7s0,0.4-0.2,0.8c-0.3,0.8-0.8,1.3-0.1,2.2
		c0.3,0.4,0.7,0.6,1,0.7c0.1,0.2,0.3,0.5,0.3,0.6c0.1,0.2,0.4,0.5,0.6,0.7c-0.1,0.9-0.1,1.7-0.1,2.3c-3.6,0.1-7.3,0.4-11,1
		c0-0.5,0-1-0.1-1.8c0-0.3-0.2-1-0.5-1.6c0.1,0,0.3,0.1,0.5,0.1c0.9,0,1-0.5,1.3-1c0.2-0.2,0.4-0.5,0.4-0.5c0,0,0,0-0.7-0.1
		c-0.3,0-0.6,0-0.8,0.1c-0.4,0.2-0.7,0.5-1,0.8c-0.1-0.2-0.3-0.5-0.5-0.7c0.2-0.2,0.3-0.4,0.5-0.6c0.5-0.8,0.5-1.7,0.9-2.6l-0.7-0.4
		c-0.2,0.7-0.2,1.8-0.9,2.8c-0.1,0.1-0.1,0.2-0.2,0.2c-0.4-0.6-0.8-1.1-0.9-1.6c-0.4-1.4-1.1-2.7-1.2-3.8c-0.1-0.8-0.3-1.7-0.1-2.6
		c0.1-0.4,0.9-1.5,1.5-2.1c1-0.8,2.3-1,2.5-1.4l-0.6-0.2c-0.6,0.3-1.3,0.6-1.9,1c-0.1-0.2-0.3-0.5-0.4-0.7c0-0.1-0.2-0.3-0.3-0.4
		c0-0.2,0-0.6-0.2-1c-0.5-0.8-1-0.6-1.8-0.6c-0.3,0-0.7-0.1-0.7-0.1s0,0,0.3,0.7c0.1,0.3,0.3,0.6,0.5,0.7c0.5,0.4,1.1,0.3,1.7,0.4
		c0.1,0.1,0.1,0.2,0.2,0.3c0.1,0.2,0.2,0.3,0.3,0.5c0.1,0.1,0.1,0.2,0.2,0.3c-1.4,1-2.5,2.6-1.7,5.6c0.2,0.6,0.5,1.9,1,3.2
		c-0.2,0-0.4,0-0.8,0.1c-0.5,0-1,0.2-1.4,0.4c-0.8,0.5-1.1,1.5-1.5,2.3c-0.2,0.1-0.3,0.1-0.5,0.2c-0.3,0.1-0.6,0.2-1,0.3
		c-0.3,0.1-0.6,0.1-0.8,0.1c0.2-0.5,0.5-1.1,0.8-1.6c0.9-1.7,1.2-3.3,1.4-5.2l-0.8-0.1c0,1-0.2,2.8-0.8,4.3c0,0-0.2-0.2-0.3-0.3
		c-0.1-0.1-0.2-0.3-0.3-0.4c-0.1-0.1-0.1-0.1-0.1-0.2c0-0.4,0.2-0.9,0.1-1.3c-0.1-0.2-0.2-0.4-0.4-0.6c-0.4-0.4-0.4-0.4-0.4-0.4
		s0,0.3-0.1,0.5c-0.2,0.5-0.5,0.9,0,1.4c0.2,0.3,0.5,0.4,0.6,0.4c0.1,0.1,0.2,0.3,0.2,0.3c0.2,0.2,0.5,0.5,0.6,0.7
		c-0.1,0.2-0.2,0.4-0.3,0.6c-0.3,0.6-0.7,1.2-0.9,1.7c-0.2,0.6-0.3,1.2-0.5,1.6c-0.1,0.3-0.2,0.5-0.2,0.8c0,0,0-0.1-0.1-0.1
		c-0.2-0.2-0.3-0.4-0.4-0.6c-0.1-0.1-0.1-0.2-0.2-0.3c0.1-0.6,0.5-1.2,0.4-1.8c-0.1-0.3-0.2-0.6-0.5-0.9c-0.5-0.6-0.5-0.6-0.5-0.6
		s-0.1,0.4-0.2,0.7c-0.3,0.7-0.8,1.2-0.2,2c0.3,0.4,0.6,0.6,0.9,0.7c0.1,0.2,0.2,0.5,0.3,0.5c0.1,0.2,0.3,0.5,0.5,0.7
		c-0.3,1.3-0.3,2.3-0.3,2.8c-0.1,0-0.2-0.1-0.4-0.1c-0.5,0-0.9,0.2-1.5,0.1c-0.7-0.1-0.7-0.3-0.9-0.4c-0.3-0.1-1.1-0.2-1.1-0.2
		s0,0.1,0.6,0.3c0.5,0.2,0.6,0.6,0.8,0.8v0c0.2,0.1,0.6,0.1,1,0c0.3-0.1,1.1-0.2,1.6-0.2c0,0,0,0.1,0,0.1c-2.2,0.4-4.3,0.8-6.5,1.2
		c0.1-0.4,0.2-1.4,0.2-2.6c0.2-0.2,0.4-0.4,0.5-0.6c0-0.1,0.2-0.3,0.3-0.4c0.2-0.1,0.5-0.2,0.9-0.5c0.6-0.7,0.3-1.1,0.1-1.8
		c-0.1-0.3-0.1-0.7-0.1-0.7s0,0-0.6,0.5c-0.3,0.2-0.4,0.5-0.5,0.7c-0.2,0.5,0,1.1,0.1,1.7c-0.1,0.1-0.1,0.2-0.2,0.3
		c-0.1,0.1-0.2,0.3-0.4,0.5c0,0,0,0-0.1,0.1c0-0.2,0-0.5-0.1-0.7c-0.1-0.4-0.1-1-0.2-1.5c-0.1-0.5-0.4-1.1-0.6-1.7
		c-0.1-0.2-0.1-0.4-0.2-0.6c0.1-0.1,0.4-0.3,0.6-0.5c0,0,0.2-0.2,0.2-0.3c0.1,0,0.4-0.1,0.6-0.3c0.5-0.4,0.3-0.8,0.2-1.2
		c0-0.2,0-0.4,0-0.4s0,0-0.4,0.3c-0.2,0.1-0.3,0.3-0.4,0.4c-0.2,0.4-0.1,0.8-0.1,1.1c0,0.1-0.1,0.1-0.2,0.2
		c-0.1,0.1-0.2,0.2-0.3,0.3c-0.1,0.1-0.3,0.2-0.3,0.2c-0.3-1.4-0.3-3.1-0.1-4l-0.7,0c-0.1,1.8,0,3.2,0.5,4.8
		c0.2,0.5,0.3,1.1,0.5,1.6c-0.2,0-0.4-0.1-0.7-0.2c-0.3-0.1-0.6-0.3-0.9-0.4c-0.2-0.1-0.3-0.2-0.4-0.2c-0.3-0.8-0.4-1.7-1-2.3
		c-0.3-0.3-0.7-0.5-1.2-0.6c-1.1-0.3-1.1-0.3-1.1-0.3s0.2,0.5,0.3,0.9c0.2,1,0,1.9,1.4,2.4c0.6,0.2,1.2,0.2,1.5,0.1
		c0.2,0.1,0.6,0.3,0.7,0.4c0.4,0.2,1.2,0.4,1.6,0.5c0.1,0.5,0.2,1,0.3,1.4c0.2,1.6,0,3-0.1,3.4c-2.1,0.4-4.1,0.7-6.2,1
		c0.2-0.3,0.9-1.1,1-2c0.2-0.9,0-1.7-0.2-2.9c-0.1-0.5-0.5-1.3-1-2.2c-0.6-1-2-2.2-2.4-3.3c-0.6-1.5-1.5-2.9-1.7-4.2
		c-0.2-0.9-0.4-1.9-0.3-2.9c0.1-0.4,0.9-1.8,1.5-2.5c1-1,2.5-1.3,2.7-1.8l-0.7-0.2c-0.7,0.3-1.4,0.8-2.1,1.3h0
		c-0.1-0.3-0.3-0.6-0.5-0.8c-0.1-0.1-0.3-0.3-0.4-0.5c0-0.2-0.1-0.7-0.4-1.1c-0.6-0.9-1.2-0.6-2-0.6c-0.4,0-0.8-0.1-0.8-0.1
		s0,0,0.4,0.8c0.2,0.3,0.4,0.6,0.7,0.8c0.6,0.4,1.3,0.3,1.9,0.3c0.1,0.1,0.2,0.2,0.3,0.3c0.1,0.2,0.3,0.3,0.4,0.6
		c0.1,0.1,0.1,0.2,0.2,0.3c-1.5,1.3-2.6,3.2-1.5,6.4c0.2,0.7,0.9,2.3,1.5,3.9c0.6,1.5,1.9,2.4,2.7,3.7c0.7,1.2,0.9,3,0.8,4.6
		c-0.1,1.2-0.9,1.9-0.9,1.9l0.1,0c-2.3,0.4-4.5,0.7-6.8,1c-0.4-0.1-1.1-0.3-1.8-1.1c-1-1.1-1.7-2.6-2-3.9c0.3,0,0.8-0.1,1.1-0.2
		c0.1,0,0.4-0.1,0.6-0.2c0.2,0.1,0.6,0.2,1.1,0.1c1-0.1,1-0.8,1.3-1.5c0.1-0.3,0.4-0.6,0.4-0.6s0,0-0.8,0c-0.4,0-0.7,0.1-1,0.3
		c-0.5,0.3-0.8,1-1.1,1.5c-0.1,0-0.2,0.1-0.3,0.1c-0.2,0.1-0.4,0.1-0.7,0.1c-0.2,0-0.4,0-0.5,0c0.5-0.7,1.1-1.4,1.4-2.2
		c0.4-1.1,0.2-2.1,0.5-3.3l-0.9-0.3c-0.1,0.9,0.2,2.2-0.4,3.5c-0.2,0.4-0.4,0.9-0.7,1.3c0-1.4,0.5-2.8,0.1-4.3
		c-0.4-1.7-0.8-3.5-1-4.3c-0.9-3.5-3.1-4.5-5.1-4.7c0-0.1,0-0.3,0-0.4c0-0.3,0-0.5,0-0.8c0-0.2,0-0.3,0-0.4c0.5-0.5,1.2-0.8,1.4-1.4
		c0.1-0.3,0.2-0.7,0.1-1.1c-0.1-0.9-0.1-0.9-0.1-0.9s-0.3,0.3-0.6,0.5c-0.7,0.4-1.4,0.6-1.4,1.7c0,0.6,0.2,1,0.3,1.2
		c0,0.2-0.1,0.6-0.1,0.7c0,0.3,0,0.7,0,1h0c-0.9-0.1-1.8,0-2.6,0.1l-0.5,0.6c0.5,0.3,1.9-0.4,3.4-0.1c1,0.2,2.5,0.9,2.8,1.2
		c0.7,0.8,1.1,1.8,1.5,2.7c0.6,1.2,0.6,2.9,1,4.6c0.3,1.2-0.2,3.1-0.1,4.3c0,0.2,0,0.4,0.1,0.6c-0.2,0.3-0.5,0.5-0.7,0.7
		c-1.5,1.1-3.6,1.2-4.4,3c-0.5,1.1-1,2.1-1.2,3c-0.6,0.1-1.1,0.1-1.7,0.2c-0.1-0.7-0.1-1.6-0.1-2.6c0-0.5,0.1-1.1,0.3-1.8
		c0.4-0.1,1.5-0.5,2-0.8c0.1-0.1,0.7-0.4,0.9-0.6c0.4,0.1,1.1,0.1,2-0.2c1.7-0.7,1.5-1.8,1.6-3.2c0.1-0.6,0.4-1.2,0.4-1.2
		s0,0-1.4,0.4c-0.6,0.2-1.2,0.5-1.6,0.9c-0.8,0.8-0.9,2.1-1.2,3.1c-0.2,0.1-0.4,0.2-0.6,0.3c-0.3,0.2-0.7,0.4-1.1,0.5
		c-0.3,0.1-0.7,0.3-0.9,0.3c0.2-0.7,0.3-1.4,0.5-2.1c0.6-2.2,0.6-4.1,0.4-6.4l-0.9,0.1c0.3,1.2,0.4,3.4,0.1,5.2c0,0-0.3-0.2-0.4-0.3
		c-0.2-0.1-0.3-0.3-0.4-0.4c-0.1-0.1-0.2-0.1-0.2-0.2c0-0.5,0.1-1.1-0.2-1.5c-0.1-0.2-0.3-0.4-0.6-0.6c-0.6-0.4-0.6-0.4-0.6-0.4
		s0,0.3,0,0.6c-0.1,0.6-0.3,1.1,0.3,1.6c0.3,0.3,0.7,0.3,0.8,0.3c0.1,0.1,0.3,0.3,0.3,0.4c0.2,0.2,0.7,0.5,0.8,0.6
		c-0.1,0.3-0.1,0.5-0.2,0.8c-0.2,0.8-0.5,1.5-0.7,2.3c-0.1,0.7-0.1,1.4-0.2,2c0,0.3,0,0.7-0.1,1c0,0-0.1-0.1-0.1-0.1
		c-0.2-0.2-0.4-0.4-0.6-0.6c-0.1-0.1-0.2-0.2-0.3-0.4c0-0.7,0.3-1.5,0-2.2c-0.1-0.3-0.4-0.7-0.8-0.9c-0.8-0.6-0.8-0.6-0.8-0.6
		s0,0.5-0.1,0.9c-0.2,0.9-0.7,1.6,0.2,2.4c0.4,0.4,0.9,0.6,1.2,0.6c0.1,0.2,0.4,0.5,0.4,0.6c0.2,0.2,0.5,0.5,0.7,0.7
		c0,0.6,0,1.1,0.1,1.6c-24,2.8-48.4,3.7-71.1,1.5c0.1-0.4,0.2-0.8,0.4-1.4c0.1-0.4,0.1-1.2,0.1-2c0.1,0.1,0.3,0.2,0.5,0.3
		c0.9,0.4,1.3-0.1,1.9-0.6c0.3-0.2,0.6-0.4,0.6-0.4s0,0-0.7-0.4c-0.3-0.2-0.7-0.3-1-0.3c-0.5,0-1,0.3-1.4,0.6
		c-0.1-0.3-0.1-0.7-0.2-1c0.3-0.1,0.5-0.3,0.8-0.5c0.8-0.7,1.2-1.6,2-2.4l1.2-1c0.4,0.5,0.9,1.1,1.5,2c0,0,0,0.1,0,0.1
		c-1.2,0.8-1.7,1.2-1.6,1.5l0.2,0.3l0.3,0.1c0,0,0,0,0,0l0.2,0.1c2.4-1.5,3.5-2.5,3.3-2.8l-0.1-0.2c0-0.1-0.1-0.1-0.2,0l0,0
		c-0.1-0.1-0.2-0.1-0.5,0.1l-0.7,0.5c-0.6-0.8-1.1-1.5-1.6-2.1l0-0.1c1-0.8,1.4-1.3,1.3-1.5l-0.1-0.1c0,0-0.1,0-0.2,0l0,0l0,0
		c0-0.1-0.2-0.1-0.3,0c-2.5,1.7-3.6,2.7-3.5,3.1c-0.4,0.7-0.9,1.6-1.8,2.2c-0.1,0.1-0.2,0.1-0.3,0.2c-0.2-0.8-0.4-1.6-0.4-2.2
		c0.1-1.7-0.2-3.4,0.2-4.7c0.2-0.9,0.4-2,1-2.9c0.3-0.4,1.6-1.4,2.6-1.7c1.4-0.5,3-0.2,3.4-0.5l-0.6-0.5c-0.8,0.1-1.7,0.1-2.6,0.3
		c0-0.3-0.1-0.7-0.2-1c0-0.1-0.1-0.5-0.2-0.6c0.1-0.2,0.2-0.6,0.1-1.2c-0.2-1.1-0.9-1.1-1.7-1.4c-0.4-0.1-0.7-0.4-0.7-0.4h0
		c0,0,0,0,0.1,0.9c0,0.4,0.1,0.8,0.3,1.1c0.4,0.6,1.1,0.8,1.7,1.2c0,0.1,0.1,0.2,0.1,0.4c0.1,0.2,0.1,0.5,0.2,0.7
		c0,0.1,0,0.3,0.1,0.4c-2,0.6-3.9,1.9-4.2,5.6c-0.1,0.7-0.1,2.3-0.2,4c-0.2-0.1-0.5-0.1-1-0.3c-0.6-0.2-1.3-0.2-1.8-0.1
		c-1.1,0.3-1.8,1.3-2.6,2c-0.2,0-0.4,0-0.7,0c-0.4,0-0.8,0-1.2-0.1c-0.4-0.1-0.7-0.2-1-0.2c0.5-0.5,1-1,1.5-1.5
		c1.6-1.5,2.6-3.2,3.6-5.3l-0.8-0.4c-0.4,1.1-1.4,3.1-2.6,4.5c0,0-0.1-0.3-0.2-0.5c-0.1-0.2-0.1-0.4-0.2-0.5c0-0.1-0.1-0.2-0.1-0.3
		c0.2-0.4,0.6-0.9,0.6-1.4c0-0.2-0.1-0.5-0.2-0.8c-0.3-0.6-0.3-0.6-0.3-0.6s-0.1,0.3-0.3,0.5c-0.4,0.5-0.9,0.8-0.5,1.6
		c0.2,0.4,0.4,0.6,0.5,0.7c0,0.1,0.1,0.4,0.1,0.5c0.1,0.3,0.3,0.8,0.4,1c-0.2,0.2-0.4,0.4-0.5,0.6c-0.6,0.6-1.3,1-1.7,1.6
		c-0.5,0.5-0.8,1.2-1.2,1.6c-0.2,0.3-0.4,0.5-0.6,0.8c0,0,0-0.1,0-0.1c-0.1-0.3-0.1-0.6-0.2-0.8c0-0.2,0-0.3-0.1-0.4
		c0.4-0.6,1-1.2,1.1-1.9c0.1-0.4,0-0.8-0.2-1.2c-0.4-0.9-0.3-0.9-0.3-0.9s-0.2,0.4-0.5,0.7c-0.7,0.7-1.4,1-1.1,2.2
		c0.2,0.6,0.5,1,0.7,1.1c0,0.2,0.1,0.6,0.1,0.7c0,0.3,0.1,0.7,0.2,1c-0.8,1.4-1.3,2.6-1.4,3.1c-2.6-0.4-5.2-0.9-7.7-1.4
		c0.3-0.5,0.7-1.4,1-2.5c0.3-0.1,0.6-0.3,0.8-0.4c0.1-0.1,0.4-0.3,0.5-0.4c0.2,0,0.7,0,1.2-0.2c1-0.5,0.8-1.2,0.8-2
		c0-0.4,0.2-0.8,0.2-0.8s0,0-0.8,0.3c-0.4,0.1-0.7,0.3-0.9,0.6c-0.4,0.5-0.4,1.3-0.6,1.9c-0.1,0.1-0.2,0.2-0.3,0.2
		c-0.2,0.1-0.4,0.3-0.6,0.4c0,0-0.1,0-0.1,0.1c0.1-0.3,0.1-0.6,0.2-0.9c0.1-0.5,0.3-1.1,0.4-1.8c0.1-0.7,0-1.4,0-2.1
		c0-0.2,0-0.5,0-0.7c0.2,0,0.6-0.2,0.9-0.3c0.1,0,0.3-0.1,0.4-0.2c0.2,0,0.5,0.1,0.8-0.1c0.7-0.3,0.6-0.7,0.7-1.3
		c0-0.3,0.2-0.5,0.2-0.5s0,0-0.6,0.2c-0.3,0.1-0.5,0.2-0.7,0.3c-0.3,0.3-0.4,0.8-0.6,1.3c-0.1,0-0.2,0.1-0.2,0.1
		c-0.1,0.1-0.3,0.1-0.5,0.2c-0.2,0.1-0.4,0.1-0.4,0.1c0.2-1.7,0.9-3.6,1.5-4.5l-0.8-0.3c-0.8,1.9-1.3,3.6-1.4,5.6
		c0,0.7,0,1.3-0.1,1.9c-0.2-0.1-0.5-0.3-0.7-0.5c-0.3-0.3-0.6-0.5-0.8-0.8c-0.2-0.2-0.3-0.3-0.4-0.4c0-1,0.2-2.1-0.3-3
		c-0.2-0.4-0.6-0.8-1.1-1.2c-1.1-0.7-1.1-0.8-1.1-0.8s0.1,0.6,0,1.2c-0.2,1.3-0.7,2.2,0.6,3.2c0.6,0.5,1.3,0.7,1.6,0.7
		c0.2,0.2,0.6,0.6,0.7,0.7c0.4,0.4,1.2,1,1.5,1.2c-0.1,0.6-0.1,1.2-0.3,1.6c-0.4,1.6-1,2.8-1.3,3.5c-2.3-0.5-4.6-1-6.8-1.5
		c0.4-0.3,0.9-0.8,1.1-1.2c0.5-0.9,0.6-1.9,1-3.4c0.1-0.6,0-1.7-0.2-2.9c-0.2-1.3-1.3-3.3-1.3-4.7c0-2-0.5-3.9-0.2-5.3
		c0.2-1.1,0.3-2.3,0.8-3.4c0.3-0.5,1.7-1.7,2.7-2.2c1.5-0.7,3.3-0.5,3.8-0.9l-0.8-0.5c-0.9,0.1-1.9,0.3-2.9,0.6v0
		c-0.1-0.3-0.2-0.8-0.3-1.1c0-0.1-0.2-0.5-0.3-0.7c0.1-0.3,0.2-0.8,0-1.4c-0.3-1.2-1.1-1.2-2.1-1.5c-0.4-0.1-0.8-0.4-0.8-0.4
		s0,0,0.2,1c0.1,0.5,0.2,0.9,0.4,1.2c0.5,0.6,1.3,0.8,2,1.2c0.1,0.1,0.1,0.3,0.2,0.4c0.1,0.2,0.2,0.5,0.3,0.8c0,0.2,0.1,0.3,0.1,0.5
		c-2.2,0.8-4.2,2.5-4.2,6.7c0,0.9,0,2.9,0.1,5c0.1,1.9,1.2,3.5,1.6,5.3c0.3,1.6-0.1,3.7-1,5.5c-0.3,0.6-0.6,0.9-1,1.2
		c-2.6-0.6-5.2-1.3-7.7-2.1c-0.9-0.3-1.8-0.5-2.7-0.8c-0.6-1.6-0.9-3.5-0.7-5.1c0.3,0.1,0.9,0.2,1.3,0.3c0.1,0,0.5,0,0.7,0
		c0.2,0.2,0.6,0.5,1.2,0.6c1.2,0.2,1.5-0.5,2.1-1.2c0.3-0.3,0.7-0.6,0.7-0.6h0c0,0,0,0-1-0.3c-0.4-0.1-0.8-0.2-1.2-0.1
		c-0.7,0.2-1.2,0.8-1.8,1.3c-0.1,0-0.3,0-0.4,0c-0.2,0-0.5,0-0.8-0.1c-0.2,0-0.4-0.1-0.6-0.1c0.9-0.6,1.8-1.1,2.4-1.9
		c0.8-1.1,1.1-2.3,1.9-3.5l-0.9-0.6c-0.5,0.9-0.7,2.5-1.9,3.8c-0.4,0.4-0.8,0.8-1.3,1.2c0.6-1.6,1.6-3,1.9-4.8
		c0.3-2.1,0.5-4.3,0.6-5.2c0.4-4.4-1.6-6.3-3.9-7.4c0-0.1,0.1-0.3,0.1-0.5c0.1-0.3,0.2-0.6,0.3-0.8c0.1-0.2,0.1-0.3,0.2-0.4
		c0.7-0.3,1.6-0.4,2.2-1c0.3-0.3,0.5-0.7,0.6-1.2c0.2-1.1,0.3-1.1,0.3-1.1s-0.5,0.2-0.9,0.3c-1,0.2-1.9,0.1-2.3,1.4
		c-0.2,0.6-0.1,1.2-0.1,1.5c-0.1,0.2-0.3,0.6-0.4,0.7c-0.1,0.3-0.3,0.7-0.4,1.1l0,0c-1-0.4-2.1-0.7-3-0.9l-0.8,0.5
		c0.4,0.5,2.3,0.3,3.9,1.2c1.1,0.6,2.5,2,2.7,2.5c0.5,1.1,0.5,2.5,0.6,3.6c0.2,1.6-0.5,3.5-0.7,5.6c-0.1,1.5-1.4,3.5-1.8,4.8
		c-0.1,0.3-0.1,0.5-0.2,0.8c-0.4,0.2-0.7,0.4-1.1,0.5c-2.2,0.6-4.5-0.1-6.1,1.6c-0.5,0.5-1,1-1.4,1.5c-0.9-0.1-1.8-0.3-2.6-0.4
		c0.2-0.5,0.4-1,0.6-1.5c0.2-0.6,0.6-1.2,1-2c0.6,0,1.8,0.1,2.6-0.1c0.2,0,0.9-0.2,1.3-0.2c0.4,0.2,1.2,0.6,2.3,0.5
		c2.2-0.1,2.4-1.5,3.2-3c0.3-0.7,0.9-1.3,0.9-1.3s0,0-1.8-0.1c-0.8,0-1.5,0.1-2.1,0.3c-1.2,0.6-1.8,2-2.6,3
		c-0.2,0.1-0.5,0.1-0.8,0.1c-0.4,0.1-0.9,0.1-1.5,0.2c-0.4,0-0.9,0-1.2,0c0.4-0.7,0.9-1.4,1.4-2.1c1.6-2.2,2.3-4.4,3-7.1l-1.1-0.3
		c-0.2,1.4-0.9,4-2,6c0,0-0.2-0.3-0.4-0.5c-0.1-0.2-0.2-0.4-0.3-0.6c-0.1-0.1-0.1-0.2-0.2-0.3c0.2-0.6,0.5-1.2,0.4-1.8
		c-0.1-0.3-0.2-0.6-0.4-0.9c-0.5-0.6-0.5-0.6-0.5-0.6s-0.1,0.4-0.2,0.7c-0.4,0.7-0.8,1.1-0.3,2c0.3,0.4,0.6,0.6,0.8,0.7
		c0.1,0.2,0.2,0.5,0.2,0.5c0.2,0.4,0.6,0.9,0.7,1c-0.2,0.3-0.3,0.5-0.5,0.8c-0.6,0.8-1.2,1.5-1.7,2.3c-0.4,0.8-0.7,1.6-1,2.2
		c-0.2,0.4-0.3,0.7-0.5,1.1c0,0,0-0.1-0.1-0.1c-0.2-0.3-0.3-0.6-0.4-0.9c-0.1-0.2-0.1-0.4-0.2-0.5c0.3-0.8,0.9-1.6,0.9-2.5
		c0-0.4-0.2-0.9-0.5-1.4c-0.6-1-0.6-1-0.6-1s-0.2,0.5-0.4,0.9c-0.6,0.9-1.4,1.5-0.7,2.8c0.3,0.7,0.8,1,1.1,1.2
		c0.1,0.2,0.2,0.7,0.3,0.8c0.1,0.3,0.3,0.7,0.5,1.1c-0.1,0.2-0.1,0.3-0.2,0.5c-5-0.6-9.8-0.7-14.5-0.5c0-0.3,0.1-0.6,0.1-0.9
		c0.3-0.2,0.6-0.5,0.8-0.7c0.1-0.1,0.4-0.4,0.5-0.6c0.3,0,0.8-0.2,1.3-0.6c1-0.8,0.6-1.5,0.4-2.5c-0.1-0.4,0-0.9,0-0.9s0,0-0.9,0.6
		c-0.4,0.3-0.7,0.6-0.9,0.9c-0.4,0.7-0.1,1.6-0.2,2.3c-0.1,0.1-0.2,0.2-0.3,0.4c-0.2,0.2-0.4,0.4-0.6,0.6c0,0-0.1,0.1-0.1,0.1
		c0-0.3,0-0.7,0-1c0-0.6,0.1-1.3,0-2.1c-0.1-0.8-0.4-1.6-0.6-2.4c-0.1-0.3-0.1-0.5-0.1-0.8c0.2-0.1,0.7-0.4,0.9-0.6
		c0.1,0,0.3-0.2,0.4-0.3c0.2,0,0.5-0.1,0.9-0.3c0.7-0.5,0.5-1,0.5-1.7c0-0.3,0.1-0.6,0.1-0.6s0,0-0.6,0.3c-0.3,0.1-0.5,0.3-0.7,0.6
		c-0.3,0.5-0.2,1-0.3,1.6c-0.1,0.1-0.1,0.1-0.2,0.2c-0.1,0.1-0.3,0.2-0.5,0.4c-0.2,0.1-0.4,0.3-0.5,0.3c-0.2-2,0.1-4.3,0.5-5.5
		l-1-0.1c-0.4,2.4-0.6,4.4-0.1,6.7c0.2,0.7,0.3,1.5,0.4,2.2c-0.2-0.1-0.6-0.2-0.9-0.4c-0.4-0.2-0.8-0.4-1.1-0.6
		c-0.2-0.1-0.4-0.3-0.6-0.4c-0.3-1.1-0.3-2.4-1.1-3.3c-0.4-0.4-0.9-0.8-1.6-1c-1.5-0.5-1.5-0.6-1.5-0.6s0.2,0.7,0.3,1.3
		c0.1,1.5-0.2,2.6,1.5,3.5c0.8,0.4,1.6,0.4,2,0.4c0.3,0.2,0.8,0.6,0.9,0.6c0.6,0.4,1.6,0.8,2.1,1c0.1,0.7,0.1,1.4,0.1,1.9
		c0,0.8-0.1,1.5-0.2,2.1c-15.6,1.1-30.1,6.6-45.1,15.2l0,0c-5.8,1.5-8,9.7-24.2,7c0.3-0.2,0.5-0.5,0.7-0.8c0.4-0.7,0.4-1.4,0.6-2.5
		c0.1-0.3,0-1-0.2-1.7c0.1,0.1,0.3,0.1,0.4,0.2c0.8,0.2,1.1-0.2,1.5-0.7c0.2-0.2,0.5-0.4,0.5-0.4c0,0,0,0-0.6-0.2
		c-0.3-0.1-0.6-0.2-0.8-0.1c-0.4,0.1-0.8,0.4-1.1,0.6c-0.1-0.3-0.2-0.5-0.3-0.8c0.2-0.2,0.4-0.3,0.6-0.5c0.6-0.7,0.9-1.6,1.5-2.3
		l-0.6-0.5c-0.4,0.6-0.6,1.7-1.5,2.5c-0.1,0.1-0.2,0.1-0.2,0.2c-0.3-0.6-0.5-1.3-0.5-1.8c-0.1-1.5-0.5-2.8-0.3-3.9
		c0.1-0.8,0.1-1.7,0.5-2.5c0.2-0.4,1.2-1.3,2-1.7c1.1-0.6,2.4-0.4,2.8-0.8l-0.6-0.4c-0.6,0.1-1.4,0.3-2.1,0.5
		c-0.1-0.3-0.1-0.6-0.2-0.8c0-0.1-0.2-0.4-0.2-0.5c0.1-0.2,0.1-0.6,0-1c-0.3-0.9-0.9-0.8-1.6-1c-0.3-0.1-0.6-0.2-0.6-0.2
		s0,0,0.2,0.8c0.1,0.3,0.2,0.6,0.4,0.8c0.4,0.5,1,0.6,1.5,0.8c0,0.1,0.1,0.2,0.1,0.3c0.1,0.2,0.2,0.4,0.2,0.6c0,0.1,0.1,0.2,0.1,0.3
		c-1.6,0.7-3,2-2.9,5c0,0.6,0.1,2,0.2,3.3c-0.2,0-0.4-0.1-0.8-0.1c-0.5-0.1-1.1,0-1.5,0.1c-0.9,0.3-1.4,1.3-2,1.9
		c-0.2,0-0.4,0-0.6,0.1c-0.3,0-0.6,0-1,0c-0.3,0-0.6-0.1-0.8-0.1c0.4-0.5,0.7-1,1.1-1.4c1.2-1.4,1.9-2.9,2.5-4.8l-0.7-0.3
		c-0.2,1-0.8,2.7-1.7,4c0,0-0.1-0.2-0.2-0.4c-0.1-0.2-0.1-0.3-0.2-0.4c0-0.1-0.1-0.2-0.1-0.2c0.1-0.4,0.4-0.8,0.4-1.2
		c0-0.2-0.1-0.4-0.3-0.6c-0.3-0.5-0.3-0.5-0.3-0.5s-0.1,0.3-0.2,0.5c-0.3,0.5-0.6,0.7-0.3,1.4c0.2,0.3,0.4,0.5,0.5,0.5
		c0,0.1,0.1,0.3,0.1,0.4c0.1,0.3,0.3,0.6,0.4,0.8c-0.1,0.2-0.3,0.4-0.4,0.5c-0.4,0.5-0.9,1-1.3,1.5c-0.4,0.5-0.6,1.1-0.8,1.5
		c-0.1,0.2-0.3,0.5-0.4,0.7c0,0,0-0.1,0-0.1c-0.1-0.2-0.2-0.5-0.2-0.7c0-0.1-0.1-0.3-0.1-0.4c0.3-0.5,0.7-1.1,0.8-1.7
		c0-0.3-0.1-0.6-0.3-1c-0.4-0.8-0.4-0.8-0.4-0.8s-0.1,0.4-0.4,0.6c-0.5,0.6-1,1-0.7,1.9c0.2,0.5,0.5,0.8,0.7,0.9
		c0,0.2,0.1,0.5,0.1,0.6c0.1,0.2,0.2,0.5,0.3,0.8c-0.4,1-0.7,1.8-0.8,2.4c-0.3-0.1-0.6-0.2-0.9-0.3c-1.7-0.6-3.5-1.1-5.2-1.5
		c0-0.1,0.1-0.3,0.1-0.4c0.2-0.1,0.5-0.3,0.6-0.4c0.1-0.1,0.3-0.3,0.4-0.4c0.2,0,0.6-0.1,1-0.3c0.8-0.5,0.5-1.1,0.5-1.8
		c0-0.3,0.1-0.7,0.1-0.7s0,0-0.7,0.4c-0.3,0.2-0.5,0.4-0.7,0.6c-0.3,0.5-0.2,1.1-0.3,1.7c-0.1,0.1-0.2,0.1-0.3,0.2
		c-0.1,0.1-0.3,0.3-0.5,0.4c0,0-0.1,0-0.1,0.1c0-0.2,0.1-0.5,0.1-0.7c0-0.4,0.2-1,0.1-1.5c0-0.6-0.1-1.1-0.2-1.8c0-0.2,0-0.4,0-0.6
		c0.1-0.1,0.5-0.2,0.7-0.3c0,0,0.2-0.2,0.3-0.2c0.1,0,0.4,0,0.7-0.1c0.6-0.3,0.5-0.7,0.5-1.2c0-0.2,0.1-0.4,0.1-0.4s0,0-0.5,0.2
		c-0.2,0.1-0.4,0.2-0.5,0.3c-0.3,0.3-0.2,0.7-0.3,1.1c-0.1,0-0.1,0.1-0.2,0.1c-0.1,0.1-0.2,0.1-0.4,0.2c-0.2,0.1-0.3,0.1-0.4,0.2
		c0-1.4,0.4-3.1,0.8-3.9L130,203c-0.5,1.7-0.8,3.1-0.6,4.8c0.1,0.5,0.1,1.1,0.1,1.6c-0.1-0.1-0.4-0.2-0.6-0.4
		c-0.3-0.2-0.5-0.4-0.8-0.6c-0.1-0.1-0.3-0.2-0.4-0.3c-0.1-0.8,0-1.7-0.5-2.4c-0.2-0.3-0.6-0.6-1-0.8c-1-0.5-1-0.5-1-0.5
		s0.1,0.5,0.1,1c0,1.1-0.4,1.9,0.8,2.6c0.6,0.4,1.1,0.4,1.4,0.4c0.2,0.2,0.5,0.5,0.6,0.5c0.4,0.3,1.1,0.7,1.4,0.9c0,0.5,0,1-0.1,1.4
		c-0.1,0.4-0.1,0.8-0.2,1.2c-1.8-0.4-3.5-0.7-5.3-1c0.1-0.5,0.1-1.1,0.2-1.9c0-0.5-0.2-1.4-0.5-2.4c-0.3-1.1-1.4-2.6-1.6-3.8
		c-0.2-1.6-0.8-3.2-0.7-4.4c0-0.9,0-2,0.4-2.9c0.2-0.4,1.2-1.6,2.1-2.1c1.2-0.8,2.7-0.7,3-1.1l-0.7-0.4c-0.7,0.2-1.5,0.4-2.3,0.8
		l0,0c-0.1-0.3-0.2-0.6-0.3-0.9c0-0.1-0.2-0.4-0.3-0.5c0-0.2,0.1-0.7-0.1-1.1c-0.4-1-1-0.9-1.9-1c-0.4-0.1-0.7-0.2-0.7-0.2
		s0,0,0.2,0.8c0.1,0.4,0.3,0.7,0.5,0.9c0.5,0.5,1.2,0.5,1.8,0.8c0.1,0.1,0.1,0.2,0.2,0.3c0.1,0.2,0.2,0.4,0.3,0.7
		c0,0.1,0.1,0.3,0.1,0.4c-1.8,0.9-3.3,2.5-2.8,5.9c0.1,0.7,0.3,2.4,0.6,4.1c0.3,1.6,1.3,2.8,1.8,4.2c0.3,1,0.3,2.3,0,3.6
		c-3.5-0.4-7-0.5-10.4-0.4c-0.4-1-0.6-2-0.5-3c0.3,0,0.8,0.1,1.1,0.1c0.1,0,0.4,0,0.6,0c0.2,0.1,0.5,0.3,1,0.4
		c1,0.1,1.2-0.5,1.6-1.2c0.2-0.3,0.5-0.5,0.5-0.5c0,0,0,0-0.8-0.1c-0.4-0.1-0.7-0.1-1,0c-0.6,0.2-1,0.8-1.4,1.2c-0.1,0-0.2,0-0.4,0
		c-0.2,0-0.4,0-0.7,0c-0.2,0-0.4,0-0.5-0.1c0.7-0.5,1.4-1.1,1.8-1.8c0.6-1,0.7-2,1.2-3.1l-0.8-0.5c-0.3,0.8-0.3,2.2-1.2,3.3
		c-0.3,0.4-0.6,0.7-0.9,1.1c0.3-1.4,1.1-2.6,1.1-4.2c0-1.8,0-3.6,0-4.4c-0.1-3.7-2-5.1-4-5.7c0-0.1,0-0.3,0.1-0.4
		c0.1-0.3,0.1-0.5,0.2-0.7c0-0.1,0.1-0.3,0.1-0.4c0.6-0.3,1.3-0.5,1.7-1.1c0.2-0.3,0.3-0.6,0.4-1c0.1-0.9,0.1-0.9,0.1-0.9
		s-0.4,0.2-0.7,0.4c-0.8,0.3-1.5,0.2-1.8,1.4c-0.1,0.5,0,1,0.1,1.2c-0.1,0.2-0.2,0.5-0.2,0.6c-0.1,0.3-0.2,0.6-0.2,0.9h0
		c-0.9-0.3-1.8-0.4-2.6-0.4l-0.7,0.5c0.4,0.4,2,0,3.4,0.6c0.9,0.4,2.2,1.4,2.5,1.8c0.5,0.9,0.6,2,0.8,2.9c0.3,1.3,0,3,0,4.7
		c0,1.2-0.9,3-1,4.2c0,0.2-0.1,0.4-0.1,0.6c-0.3,0.2-0.6,0.4-0.9,0.5c-1.7,0.7-3.8,0.4-4.9,1.9c-0.5,0.6-0.9,1.2-1.3,1.7
		c-0.7,0.1-1.4,0.2-2.1,0.3c0.1-0.6,0.2-1.3,0.4-2c0.1-0.5,0.4-1.1,0.7-1.7c0.5,0,1.5-0.1,2.2-0.3c0.1,0,0.7-0.2,1-0.3
		c0.4,0.2,1.1,0.4,2,0.2c1.8-0.3,1.8-1.4,2.3-2.8c0.2-0.6,0.6-1.1,0.6-1.1s0,0-1.5,0.1c-0.7,0-1.3,0.2-1.7,0.5
		c-1,0.6-1.3,1.8-1.9,2.7c-0.2,0.1-0.4,0.1-0.6,0.2c-0.4,0.1-0.7,0.2-1.2,0.3c-0.4,0.1-0.8,0.1-1,0.1c0.3-0.6,0.6-1.3,1-1.9
		c1.1-2,1.5-3.9,1.8-6.2l-0.9-0.1c0,1.2-0.3,3.4-1,5.1c0,0-0.2-0.2-0.4-0.4c-0.1-0.2-0.2-0.3-0.3-0.5c-0.1-0.1-0.1-0.2-0.2-0.3
		c0.1-0.5,0.3-1,0.2-1.5c-0.1-0.2-0.2-0.5-0.4-0.7c-0.5-0.5-0.5-0.5-0.5-0.5s0,0.3-0.1,0.6c-0.2,0.6-0.6,1,0,1.7
		c0.3,0.3,0.6,0.5,0.7,0.5c0.1,0.1,0.2,0.4,0.3,0.4c0.2,0.3,0.6,0.7,0.7,0.8c-0.1,0.2-0.2,0.5-0.3,0.7c-0.4,0.7-0.9,1.4-1.2,2.1
		c-0.3,0.7-0.4,1.4-0.6,1.9c-0.1,0.3-0.2,0.6-0.3,0.9c0,0,0-0.1-0.1-0.1c-0.2-0.3-0.3-0.5-0.4-0.7c-0.1-0.1-0.1-0.3-0.2-0.4
		c0.2-0.7,0.6-1.4,0.5-2.2c-0.1-0.4-0.3-0.7-0.5-1.1c-0.6-0.8-0.6-0.8-0.6-0.8s-0.1,0.5-0.3,0.8c-0.4,0.9-1,1.4-0.3,2.4
		c0.3,0.5,0.8,0.8,1,0.9c0.1,0.2,0.3,0.6,0.3,0.7c0.1,0.3,0.3,0.6,0.5,0.9c-0.1,0.4-0.2,0.8-0.2,1.2c-13.6,2.2-26.9,6.5-42.1,6.6
		C32,218.9,0.9,212.1,0,212.4v93.6h107.2h530.2c0-5.5-2-16,1.8-19.9V215.7z M450.9,190.7c0.1-0.5,0.5-0.7,1.1-0.8
		c0.9,0.4,1.3,0.9,1.2,1.6c-0.1,0.7-0.5,1-1.3,0.9c-0.7-0.1-1.1-0.6-1.1-1.5h0C450.8,190.8,450.9,190.7,450.9,190.7z M105.5,211.6
		c0.4-0.4,0.8-0.9,1.1-1.4c1-1.3,3.7-0.7,5-1.8c0,0.4,0,0.8,0.1,1.1c0.1,0.6,0.3,1.1,0.4,1.5C109.9,211.1,107.7,211.3,105.5,211.6z
		 M146.5,211.3c-0.2,0-0.3-0.1-0.5-0.1c-0.1,0-0.3-0.1-0.4-0.1c0.2-0.1,0.4-0.2,0.7-0.4C146.3,210.9,146.4,211.1,146.5,211.3z
		 M137.5,214.8c-0.4-0.1-0.8-0.3-1.2-0.4c0.2-0.7,0.5-1.9,1.2-3.1c0.2-0.4,0.5-0.8,0.8-1.3c0.4,0,1.3,0.1,1.8,0.1
		c0.1,0,0.6-0.1,0.9-0.1c0.3,0.2,0.8,0.5,1.6,0.5c1.5,0.1,1.7-0.9,2.4-1.9c0.1-0.2,0.2-0.3,0.4-0.5c0.1,0.7,0.4,1.4,0.6,2
		c-0.6,0.4-1.2,0.8-1.7,0.9c-1.5,0.3-3.1-0.3-4.3,0.7c-0.8,0.7-1.6,1.4-2,2C137.7,214.2,137.6,214.6,137.5,214.8z M138,215
		c0.1-0.3,0.2-0.7,0.5-1.1c0.1,0.1,0.9,0.4,1.3,0.5c0.1,0,0.5,0.1,0.6,0.1c0.1,0.2,0.4,0.5,1,0.7c1,0.3,1.3-0.2,2-0.8
		c0.3-0.2,0.6-0.4,0.6-0.4h0c0,0,0,0-0.8-0.4c-0.4-0.2-0.7-0.2-1-0.2c-0.7,0.1-1.2,0.6-1.7,0.9c-0.1,0-0.2,0-0.4-0.1
		c-0.2,0-0.4-0.1-0.7-0.2c-0.3-0.1-0.6-0.3-0.6-0.3l-0.2,0.1c0,0,0,0,0,0c0.4-0.6,1.2-1.1,1.9-1.7c1-1,3.2,0.1,4.5-0.7
		c0.1-0.1,0.3-0.2,0.4-0.2c0.2,0.1,0.7,0.3,1,0.3c0,0,0.1,0,0.2,0c0,0.1,0.1,0.3,0.1,0.4c0.3,1.2,0,2.8-0.5,4.1
		c-0.2,0.4-0.4,0.6-0.6,0.8C143.3,216.4,140.8,215.8,138,215z M236.2,194.5c1.4-1.5,4.5-0.3,6.2-1.4c-0.1,0.5-0.1,1-0.1,1.3
		c0.2,1.4,0.2,2.3,0.5,3.2c-2.7-0.7-5.4-1.3-8-1.7C235.3,195.3,235.8,194.9,236.2,194.5z M283.4,202.1c0.1,1-0.1,2.2-0.6,3.3
		c-3.4-0.3-6.7-0.7-10-1.2c0.2-0.3,0.4-0.7,0.7-1c0.6-0.7,1.6-1.2,2.5-1.8c1.4-1,3.8,0.5,5.4-0.2c0.5-0.2,1.1-0.4,1.7-0.6
		C283.2,201.2,283.3,201.6,283.4,202.1z M272.6,200.1c0.3-0.4,0.7-0.9,1.2-1.4c0.4,0.1,1.5,0.4,2.2,0.4c0.2,0,0.8,0,1.1,0
		c0.3,0.3,0.9,0.7,1.8,0.8c1.8,0.3,2.2-0.8,3.1-1.9c0.2-0.2,0.3-0.4,0.5-0.5c0,0.9,0.2,1.7,0.5,2.5c-0.7,0.4-1.5,0.7-2.2,0.8
		c-1.9,0.1-3.7-0.8-5.2,0.3c-1.1,0.8-2.1,1.4-2.7,2.1c-0.2,0.3-0.4,0.7-0.5,1c-0.5-0.1-1-0.2-1.5-0.2
		C270.9,203.2,271.6,201.7,272.6,200.1z M435.6,192.6c0,0.2,0.1,0.3,0.1,0.5c0.1,1.1-0.1,1.9,1.1,2.5c0.6,0.3,1.2,0.3,1.5,0.2
		c0.2,0.1,0.6,0.4,0.7,0.5c0.4,0.3,1.2,0.6,1.5,0.7c0.1,0.5,0.1,1,0.1,1.4c0,0.5,0,1-0.1,1.5c-0.5-0.1-1-0.3-1.4-0.4
		c-0.2-0.5-0.4-1.1-0.6-1.7c-0.5-1.3-2.1-1.5-3.2-2.4c-0.4-0.3-0.8-0.8-1-1.4C434.7,193.6,435.2,193.2,435.6,192.6z M434.2,194.9
		c-0.1,0-0.2,0-0.4-0.1c-0.2,0-0.3-0.1-0.4-0.1c0.1-0.1,0.3-0.3,0.4-0.4C433.9,194.5,434.1,194.7,434.2,194.9z M433,195.1
		c0.1-0.1,0.2-0.2,0.3-0.3c0.1,0,0.1,0,0.2,0.1c0.3,0.1,0.7,0.1,0.9,0.2c0.1,0.1,0.2,0.2,0.2,0.4c0.7,1.1,2.9,1.2,3.4,2.4
		c0.2,0.5,0.5,1,0.6,1.5c-0.6-0.2-1.3-0.3-1.9-0.5c-0.2-0.3-0.4-0.6-0.6-0.8c-0.2-0.2-0.6-0.2-0.9-0.2c-0.8,0-0.8,0-0.8,0
		c0,0,0.2,0.3,0.3,0.6c-0.9-0.2-1.9-0.4-2.8-0.6C432,196.8,432.4,195.8,433,195.1z M421.6,194.7c-0.1,0.6-0.3,1-0.5,1.4
		c-0.3-0.1-0.4-0.2-0.6-0.3c-0.3-0.1-1.2-0.1-1.2-0.1s0,0.1,0.6,0.3c0.2,0.1,0.3,0.1,0.4,0.2c-2.4-0.2-4.9-0.3-7.4-0.3
		c0-0.3,0.1-0.6,0.1-0.9c0.2,0,1,0.1,1.5,0.1c0.1,0,0.5-0.1,0.7-0.1c0.2,0.1,0.6,0.4,1.2,0.4c1.2,0,1.3-0.7,1.8-1.5
		c0.2-0.3,0.5-0.6,0.5-0.6h0c0,0,0,0-0.9-0.1c-0.4-0.1-0.8,0-1.1,0.1c-0.7,0.3-1,1-1.5,1.5c-0.1,0-0.3,0-0.4,0c-0.2,0-0.5,0-0.8,0
		c-0.3,0-0.7-0.1-0.7-0.1l-0.2,0.2c0,0,0,0,0,0c0.2-0.8,0.9-1.6,1.4-2.4c0.8-1.3,3.3-1,4.4-2.1c0.1-0.1,0.2-0.2,0.4-0.4
		c0.2,0,0.8,0,1.1,0c0,0,0.1,0,0.2,0c0.1,0.1,0.2,0.2,0.2,0.4C421.6,191.4,421.8,193.2,421.6,194.7z M420.5,189.8
		c-0.2,0-0.4,0-0.6,0c-0.2,0-0.3,0-0.4,0c0.2-0.2,0.4-0.4,0.6-0.6C420.2,189.4,420.4,189.6,420.5,189.8z M398,193.1
		c-0.2,0-0.3,0-0.5,0c-0.1,0-0.3,0-0.4,0c0.2-0.2,0.4-0.3,0.6-0.5C397.7,192.7,397.9,192.9,398,193.1z M389.2,195
		c0.1-0.4,0.3-0.9,0.5-1.5c0.4,0,1.3-0.1,1.8-0.3c0.1,0,0.6-0.2,0.8-0.3c0.3,0.1,0.9,0.3,1.6,0.1c1.5-0.3,1.5-1.2,1.9-2.4
		c0.1-0.2,0.2-0.4,0.2-0.5c0.2,0.7,0.7,1.3,1.1,1.8c-0.5,0.5-1,1-1.5,1.2c-1.4,0.6-3.1,0.4-4.1,1.7c-0.7,0.9-1.3,1.7-1.5,2.5
		c-0.1,0.4-0.1,0.8-0.1,1.1c-0.4,0.1-0.8,0.2-1.3,0.2C388.8,198.3,388.8,196.8,389.2,195z M392.8,197.5c0.2,0.1,0.4,0.3,0.8,0.4
		c-1,0.2-2,0.4-3.1,0.6c0-0.3,0.1-0.7,0.2-1.1c0.2,0,0.9,0.2,1.4,0.2C392.2,197.5,392.6,197.5,392.8,197.5z M357.7,203.6
		c0.2-0.9,0.8-1.8,1.2-2.8c0.7-1.5,3.4-1.5,4.5-2.9c0.1,0.4,0.2,0.8,0.3,1c0.6,1.2,0.9,2,1.6,2.7c0.4,0.4,1,0.7,1.4,0.9
		C363.7,202.9,360.7,203.3,357.7,203.6C357.7,203.7,357.7,203.6,357.7,203.6z M395,197.6c0.2-0.2,0.4-0.6,0.6-0.9
		c0.2-0.3,0.5-0.5,0.5-0.5v0c0,0,0,0-0.9-0.2c-0.4-0.1-0.7-0.1-1,0c-0.6,0.2-1,0.8-1.5,1.3c-0.1,0-0.2,0-0.4,0c-0.2,0-0.4,0-0.7,0
		c-0.3,0-0.7-0.1-0.7-0.1l-0.2,0.1c0,0,0,0,0,0c0.3-0.7,1-1.4,1.5-2.1c0.8-1.2,3.1-0.6,4.2-1.7c0.1-0.1,0.2-0.2,0.4-0.3
		c0.2,0,0.7,0.1,1,0.1c0,0,0.1,0,0.2,0c0.1,0.1,0.1,0.2,0.2,0.3c0.4,0.9,0.6,2.1,0.5,3.3c-1.2,0.2-2.4,0.4-3.6,0.6
		C395.1,197.6,395,197.6,395,197.6z M411,195.8c0-0.8,0-1.9,0.2-3.2c0.1-0.5,0.2-1,0.4-1.6c0.4-0.1,1.4-0.3,1.9-0.5
		c0.1-0.1,0.6-0.3,0.9-0.4c0.4,0.1,1,0.2,1.8,0c1.6-0.4,1.5-1.5,1.8-2.7c0.1-0.2,0.1-0.4,0.2-0.6c0.3,0.7,0.8,1.3,1.3,1.9
		c-0.5,0.6-1,1.2-1.5,1.5c-1.5,0.8-3.3,0.7-4.2,2.2c-0.6,1-1.3,1.9-1.4,2.8c-0.1,0.2-0.1,0.5-0.1,0.7
		C411.9,195.8,411.5,195.8,411,195.8z M545.8,206.5c-0.2,0-0.3,0-0.5,0c-0.1,0-0.3,0-0.4,0c0.2-0.2,0.4-0.3,0.6-0.5
		C545.5,206.1,545.7,206.3,545.8,206.5z M537,208.5c0.1-0.4,0.3-0.9,0.5-1.5c0.4,0,1.3-0.1,1.8-0.3c0.1,0,0.6-0.2,0.8-0.3
		c0.3,0.1,0.9,0.3,1.6,0.1c1.5-0.3,1.5-1.2,1.9-2.4c0.1-0.2,0.2-0.4,0.2-0.5c0.2,0.7,0.7,1.3,1.1,1.8c-0.5,0.5-1,1-1.5,1.2
		c-1.4,0.6-3.1,0.4-4.1,1.7c-0.7,0.9-1.3,1.7-1.5,2.5c-0.1,0.3-0.1,0.6-0.1,0.8c-0.4,0-0.8,0-1.3,0.1
		C536.6,211.1,536.7,209.8,537,208.5z M506.7,214.3c0.7-1.5,3.4-1.5,4.5-2.9c0.1,0.4,0.2,0.8,0.3,1c0.6,1.2,0.9,2,1.6,2.7
		c0.2,0.2,0.5,0.4,0.8,0.6c-1.1,0.3-2.3,0.5-3.5,0.8c0.2-0.3,0.3-0.8,0.5-1.2c0.2-0.4,0.5-0.8,0.5-0.8h0c0,0,0,0-1,0
		c-0.5,0-0.9,0.1-1.2,0.3c-0.7,0.4-1,1.2-1.5,1.8c-0.1,0-0.3,0.1-0.4,0.1c-0.3,0.1-0.5,0.1-0.9,0.1c-0.4,0-0.8,0-0.8,0l-0.1,0.2
		c0,0,0,0,0,0C505.6,216.2,506.3,215.2,506.7,214.3z M505.4,217.6c0-0.2,0-0.3,0-0.5c0.2,0,1.1,0,1.7-0.1c0.1,0,0.5-0.1,0.7-0.2
		c0.1,0,0.2,0.1,0.4,0.2c-0.5,0.1-1,0.2-1.5,0.4C506.3,217.5,505.9,217.5,505.4,217.6z M538.4,211.7c0-0.3,0.1-0.6,0.2-0.9
		c0.2,0,0.9,0.2,1.4,0.2c0.1,0,0.5,0,0.6,0c0.2,0.1,0.5,0.4,1.1,0.4c1.1,0.1,1.3-0.5,1.7-1.2c0.2-0.3,0.5-0.5,0.5-0.5v0
		c0,0,0,0-0.9-0.2c-0.4-0.1-0.7-0.1-1,0c-0.6,0.2-1,0.8-1.5,1.3c-0.1,0-0.2,0-0.4,0c-0.2,0-0.4,0-0.7,0c-0.3,0-0.7-0.1-0.7-0.1
		l-0.2,0.1c0,0,0,0,0,0c0.3-0.7,1-1.4,1.5-2.1c0.8-1.2,3.1-0.6,4.2-1.7c0.1-0.1,0.2-0.2,0.4-0.3c0.2,0,0.7,0.1,1,0.1
		c0,0,0.1,0,0.2,0c0.1,0.1,0.1,0.2,0.2,0.3c0.5,1.1,0.6,2.7,0.4,4.1c-0.1,0.4-0.2,0.7-0.4,1C543.6,211.8,541,211.6,538.4,211.7z"/>
	<polygon fill="#B3D7B3" points="149.6,211 149.6,211 149.6,211 	"/>
	<polygon fill="#B3D7B3" points="401,192 401,192 401,192 	"/>
	<polygon fill="#B3D7B3" points="548.8,205.5 548.8,205.5 548.8,205.5 	"/>
	<polygon fill="#B3D7B3" points="516.2,208.5 516.2,208.5 516.2,208.5 	"/>
	<path fill="#B3D7B3" d="M453.9,189.2c0.8,0,1.3,0,1.5-0.1c0.6,0,1-0.1,1.2-0.4c0-0.3-0.1-0.4-0.3-0.4l-1,0c-1.1,0-1.7,0.1-1.7,0.4
		l0,0.3C453.7,189.1,453.8,189.2,453.9,189.2z"/>
	<polygon fill="#B3D7B3" points="434.3,197.8 434.3,197.8 434.3,197.8 	"/>
</g>
<path fill="#CF8EB5" d="M266.6,173l0.4,1c0.7,1.8,0.8,2.8,0.4,2.9l-0.4,0.2c-1-0.2-2.5-0.8-4.4-1.8l0.7,1.9c0.3,0.7,0.2,1.2-0.3,1.3
	c-0.3,0-0.6-0.2-0.7-0.6l-0.1-0.4c-0.1-0.2-0.1-0.4-0.2-0.6c-0.1-0.2-0.2-0.4-0.3-0.6l-0.4-1.1l-0.2-0.4c-0.1-0.4,0.1-0.7,0.4-0.8
	l0.3-0.1c0.3-0.1,1.7,0.5,4.1,1.7l0.5,0.1l0.1,0c-0.2-0.7-0.4-1.2-0.5-1.5l-0.2-0.5c-0.2-0.6-0.2-1,0.2-1.1
	C266.1,172.4,266.4,172.6,266.6,173L266.6,173z"/>
<path fill="#CF8EB5" d="M265.2,169.2c0.5,1.3,0.3,2.4-0.6,3.2l-0.3,0.1c-0.8,0.3-1.6,0.2-2.3-0.4l-0.7,1.1l-0.3,0.1
	c-0.2,0.1-0.4,0.1-0.5,0c-0.1-0.3,0.1-1,0.7-2l-0.1-0.1l-0.3-0.7c0-0.1-0.1-0.1-0.2-0.1l-0.1,0.1c-0.8,0.2-1.2,0.2-1.3,0l-0.1-0.3
	c-0.1-0.2,0.5-0.5,1.6-1.1c0.1,0,0.2,0,0.3,0l3-1.3C264.6,168.1,265,168.5,265.2,169.2L265.2,169.2z M264.2,169
	c-0.4,0.3-1.2,0.6-2.3,1.1l0.1,0.4c0.6,1.1,1.2,1.5,1.9,1.3c0.6-0.2,0.8-0.8,0.6-1.8l-0.2-0.8C264.2,169.1,264.2,169,264.2,169
	L264.2,169z"/>
<path fill="#FFF500" d="M282,188.1l0.2,0.1c0.2,0.5-0.1,1.3-0.9,2.6l-0.1,0.1c-0.5,0.9-1.4,1.2-2.5,0.9l-0.3-0.1
	c-1.2-0.7-1.5-1.9-0.8-3.5l1-1.7c0-0.1,0.1-0.1,0.3-0.1c0.5,0.3,0.3,1.2-0.6,2.6c-0.3,0.9-0.1,1.5,0.5,1.9c0.7,0.2,1.2,0,1.6-0.7
	l0.9-2C281.6,188,281.8,188,282,188.1z"/>
<g id="_182541248">
	<path id="_162854424" fill="#FFF500" d="M294.5,185.2l0.3,0.9c0.5,1.6,0.5,2.5,0.2,2.6l-0.4,0.1c-0.9-0.3-2.1-0.9-3.7-1.9l0.5,1.7
		c0.2,0.6,0.1,1-0.4,1.1c-0.3-0.1-0.5-0.2-0.6-0.5l-0.1-0.4c-0.1-0.2-0.1-0.4-0.1-0.6c-0.1-0.2-0.2-0.4-0.2-0.6l-0.3-1l-0.2-0.3
		c0-0.4,0.1-0.6,0.4-0.7l0.3-0.1c0.3-0.1,1.4,0.5,3.4,1.8l0.4,0.2l0.1,0c-0.1-0.6-0.2-1-0.3-1.3l-0.1-0.5c-0.2-0.6-0.1-0.9,0.3-1
		C294.2,184.6,294.4,184.8,294.5,185.2L294.5,185.2z"/>
	<path id="_162847872" fill="#FFF500" d="M296.7,185.8c0.2,0.1,0.3,0.3,0.3,0.6c0,0.1,0,0.2,0,0.3c-0.1,0.3-0.4,0.4-0.7,0.3
		c-0.2-0.1-0.3-0.3-0.4-0.5c0-0.1,0-0.2,0-0.3c0.1-0.2,0.2-0.3,0.4-0.3C296.6,185.8,296.7,185.8,296.7,185.8L296.7,185.8z"/>
</g>
<path fill="#CF8EB5" d="M265.5,185.4l-0.2,0c-0.4,0.2-0.8,0.9-1.2,2.2l0,0.1c-0.3,0.9,0,1.6,0.9,2.2l0.3,0.1
	c1.2,0.4,2.2-0.2,2.8-1.6l0.5-1.7c0-0.1,0-0.1-0.2-0.3c-0.5-0.1-0.9,0.5-1.4,2c-0.4,0.7-0.9,1-1.6,0.8c-0.5-0.3-0.7-0.8-0.5-1.5
	l0.8-1.8C265.8,185.6,265.7,185.4,265.5,185.4L265.5,185.4z"/>
<path fill="#0093DD" d="M240,177.3l0.2,0.1c0.3,0.5,0.2,1.6-0.4,3.3l0,0.1c-0.4,1.1-1.3,1.7-2.7,1.6l-0.4-0.1
	c-1.6-0.6-2.2-1.9-1.8-4l0.8-2.2c0-0.1,0.2-0.1,0.4-0.2c0.6,0.2,0.6,1.3-0.1,3.2c-0.1,1.1,0.2,1.8,1.1,2.1c0.8,0.1,1.4-0.3,1.7-1.2
	l0.6-2.6C239.6,177.3,239.8,177.2,240,177.3z"/>
<path fill="#0093DD" d="M232.8,170.7c-0.1-0.2-0.1-0.4,0.1-0.6c0.1-0.1,0.2-0.2,0.2-0.2c0.3-0.2,0.6-0.1,0.7,0.2
	c0.1,0.2,0.1,0.4-0.1,0.6c-0.1,0.1-0.1,0.1-0.2,0.2c-0.2,0.1-0.4,0.1-0.5,0C232.9,170.8,232.8,170.7,232.8,170.7L232.8,170.7z
	 M234.1,172.5l0.3-0.8c0.6-1.5,1.1-2.2,1.4-2.1l0.4,0.1c0.5,0.7,1,2,1.7,3.7l0.6-1.5c0.2-0.6,0.6-0.8,1-0.6c0.2,0.2,0.2,0.5,0.1,0.8
	l-0.1,0.3c-0.1,0.2-0.2,0.4-0.3,0.5c0,0.2-0.1,0.4-0.2,0.6l-0.4,0.9l-0.1,0.4c-0.2,0.3-0.5,0.4-0.7,0.3l-0.2-0.1
	c-0.2-0.1-0.7-1.2-1.5-3.4l-0.2-0.3l-0.1,0c-0.3,0.5-0.5,0.9-0.6,1.2l-0.2,0.4c-0.2,0.5-0.5,0.7-0.8,0.6
	C234.1,173.1,234,172.9,234.1,172.5L234.1,172.5z"/>
<path fill="#D8CF30" d="M129.8,189.4l0.4,0.8c0.7,1.4,1,2.2,0.7,2.4l-0.3,0.2c-0.9-0.1-2.2-0.5-3.9-1.1l0.8,1.5
	c0.3,0.6,0.2,0.9-0.1,1.1c-0.3,0-0.5-0.1-0.6-0.4l-0.2-0.3c-0.1-0.2-0.2-0.4-0.2-0.5c-0.1-0.2-0.2-0.3-0.3-0.5l-0.5-0.9l-0.2-0.3
	c-0.1-0.4,0-0.6,0.3-0.7l0.2-0.1c0.2-0.1,1.4,0.2,3.6,1l0.4,0.1l0.1,0c-0.2-0.5-0.4-0.9-0.5-1.2l-0.2-0.4c-0.3-0.5-0.2-0.8,0.1-1
	C129.4,188.9,129.6,189,129.8,189.4z"/>
<path fill="#D8CF30" d="M128.3,186.3c0.5,1,0.5,1.9-0.2,2.7l-0.2,0.1c-0.7,0.3-1.3,0.3-1.9-0.1l-0.5,1l-0.2,0.1
	c-0.2,0.1-0.3,0.1-0.4,0c-0.1-0.3,0-0.8,0.4-1.7l-0.1-0.1l-0.3-0.6c0-0.1-0.1-0.1-0.2,0l-0.1,0.1c-0.6,0.2-1,0.2-1,0.1l-0.1-0.2
	c-0.1-0.1,0.3-0.5,1.2-1.1c0.1,0,0.2-0.1,0.2-0.1l2.3-1.3C127.7,185.5,128,185.8,128.3,186.3L128.3,186.3z M127.4,186.3
	c-0.3,0.2-0.9,0.6-1.8,1.2l0.2,0.3c0.6,0.9,1.2,1.1,1.7,0.9c0.5-0.2,0.6-0.8,0.3-1.6l-0.3-0.6C127.5,186.4,127.4,186.3,127.4,186.3
	L127.4,186.3z"/>
<path fill="#D8CF30" d="M144.1,200.4l0.1,0.1c0.2,0.4,0,1.1-0.5,2.3l0,0.1c-0.4,0.8-1,1.1-2,1l-0.3-0.1c-1.1-0.5-1.4-1.4-1-2.9
	l0.7-1.5c0,0,0.1-0.1,0.3-0.1c0.4,0.2,0.3,0.9-0.3,2.2c-0.1,0.7,0.1,1.2,0.6,1.5c0.6,0.1,1-0.1,1.3-0.7l0.6-1.8
	C143.8,200.4,143.9,200.3,144.1,200.4L144.1,200.4z"/>
<g id="_195024152">
	<path id="_162819552" fill="#0093DD" d="M150.9,204.7L150.9,204.7c0.2,0.2-0.1,0.7-0.9,1.4l0,0c0.5,0.5,1,1,1.6,1.7
		c0,0,0,0.1,0,0.1l0.7-0.6c0.2-0.1,0.3-0.2,0.4-0.1l0.1,0.1c0.2,0.3-0.6,1.1-2.4,2.7l-0.3-0.1l-0.2-0.2c-0.1-0.2,0.2-0.6,1.1-1.4
		c0,0,0-0.1,0-0.1c-0.7-0.8-1.2-1.3-1.6-1.6l-1.1,1.1c-0.2,0.1-0.3,0.1-0.4,0l-0.1-0.1c-0.2-0.2,0.7-1.2,2.6-2.9
		C150.8,204.7,150.9,204.7,150.9,204.7L150.9,204.7z M151.1,204.7L151.1,204.7c0.2,0.2-0.1,0.7-0.9,1.4l0,0c0.5,0.5,1,1,1.6,1.7
		c0,0,0,0.1,0,0.1l0.7-0.6c0.2-0.1,0.3-0.2,0.4-0.1l0.1,0.1c0.2,0.3-0.6,1.2-2.4,2.7l-0.3-0.1l-0.2-0.2c-0.1-0.2,0.2-0.6,1.1-1.4
		c0,0,0-0.1,0-0.1c-0.7-0.7-1.2-1.3-1.6-1.6l-1.1,1.1c-0.2,0.1-0.3,0.1-0.4,0l-0.1-0.1c-0.2-0.2,0.7-1.2,2.6-2.9
		C151,204.7,151.1,204.7,151.1,204.7L151.1,204.7z"/>
	<path id="_162806704" fill="#0093DD" d="M154.2,196.7l0.3,0.7c0.5,1.3,0.7,2,0.4,2.1l-0.3,0.1c-0.7-0.1-1.8-0.5-3.3-1.2l0.6,1.3
		c0.2,0.5,0.2,0.8-0.2,1c-0.2,0-0.4-0.1-0.5-0.4l-0.1-0.3c-0.1-0.2-0.1-0.3-0.1-0.5c-0.1-0.2-0.2-0.3-0.3-0.5l-0.3-0.8l-0.2-0.3
		c0-0.3,0-0.5,0.3-0.6l0.2-0.1c0.2-0.1,1.2,0.3,3,1.1l0.3,0.1l0,0c-0.2-0.5-0.3-0.8-0.4-1.1l-0.2-0.4c-0.2-0.4-0.1-0.7,0.1-0.8
		C153.8,196.3,154,196.4,154.2,196.7L154.2,196.7z"/>
	<path id="_162803416" fill="#0093DD" d="M156.1,197c0.2,0,0.3,0.2,0.3,0.4c0,0.1,0,0.2,0,0.2c-0.1,0.3-0.3,0.4-0.6,0.3
		c-0.2-0.1-0.3-0.2-0.4-0.4c0-0.1,0-0.2,0-0.2c0.1-0.2,0.2-0.3,0.3-0.3C156,197,156.1,197,156.1,197L156.1,197z"/>
</g>
<path fill="#D8CF30" d="M130.1,199.8l-0.1,0c-0.3,0.2-0.6,0.8-0.8,1.9l0,0.1c-0.1,0.8,0.2,1.3,1,1.7l0.2,0.1
	c1.1,0.2,1.8-0.4,2.2-1.6l0.3-1.5c0,0,0-0.1-0.2-0.2c-0.4-0.1-0.7,0.5-1,1.8c-0.3,0.6-0.7,0.9-1.2,0.8c-0.5-0.2-0.7-0.6-0.6-1.2
	l0.5-1.6C130.4,199.9,130.3,199.8,130.1,199.8L130.1,199.8z"/>
<path fill="#D8CF30" d="M117.2,199l0.1,0.1c0.2,0.1-0.1,0.7-0.8,1.8l0.1,0c0.7,0.4,1.5,1,2.3,1.6c0,0,0,0.1,0,0.1l0.7-0.9
	c0.2-0.2,0.3-0.3,0.4-0.2l0.2,0.1c0.3,0.3-0.4,1.5-2.2,3.7l-0.3,0l-0.3-0.2c-0.2-0.2,0.1-0.8,1-1.9c0,0,0-0.1,0-0.1
	c-1-0.7-1.7-1.2-2.2-1.5l-1,1.5c-0.2,0.1-0.3,0.1-0.4,0.1l-0.2-0.1c-0.3-0.2,0.5-1.6,2.4-4.1C117,199,117.1,199,117.2,199L117.2,199
	z M117.4,199l0.1,0.1c0.2,0.1-0.1,0.7-0.8,1.8l0.1,0c0.7,0.4,1.5,1,2.3,1.6c0,0,0,0.1,0,0.1l0.7-0.9c0.2-0.2,0.3-0.3,0.4-0.2
	l0.2,0.1c0.3,0.3-0.4,1.5-2.2,3.7l-0.3,0l-0.3-0.2c-0.2-0.2,0.1-0.8,1-1.9c0,0,0-0.1,0-0.1c-1-0.7-1.7-1.2-2.2-1.5l-1,1.5
	c-0.2,0.1-0.3,0.1-0.4,0.1l-0.2-0.1c-0.3-0.2,0.5-1.6,2.3-4.1C117.3,199,117.4,198.9,117.4,199L117.4,199z"/>
<path fill="#FFF500" d="M108.2,195.6l0.2,0c0.3,0.4,0.3,1.3,0,2.8l0,0.1c-0.2,1-0.9,1.5-2.1,1.6l-0.3,0c-1.4-0.3-2-1.4-1.8-3.1
	l0.4-1.9c0-0.1,0.1-0.1,0.3-0.2c0.5,0.1,0.6,1,0.2,2.7c0,0.9,0.4,1.4,1.1,1.6c0.7,0,1.1-0.4,1.3-1.2l0.2-2.2
	C107.8,195.6,107.9,195.5,108.2,195.6L108.2,195.6z"/>
<path fill="#FFF500" d="M101.5,190.8c-0.1-0.1-0.1-0.3,0-0.5c0.1-0.1,0.1-0.1,0.1-0.2c0.2-0.2,0.5-0.1,0.6,0.1
	c0.1,0.2,0.1,0.3,0,0.5c0,0.1-0.1,0.1-0.1,0.2c-0.2,0.1-0.3,0.1-0.5,0C101.6,190.8,101.5,190.8,101.5,190.8L101.5,190.8z
	 M102.8,192.1l0.2-0.7c0.4-1.3,0.7-1.9,1-1.8l0.3,0.1c0.5,0.6,1.1,1.5,1.8,2.9l0.4-1.3c0.1-0.5,0.4-0.7,0.7-0.6
	c0.2,0.2,0.2,0.4,0.2,0.6l-0.1,0.3c0,0.2-0.1,0.3-0.2,0.4c0,0.2,0,0.3-0.1,0.5l-0.2,0.8l0,0.3c-0.2,0.3-0.3,0.4-0.6,0.3l-0.2-0.1
	c-0.2-0.1-0.7-1-1.6-2.7l-0.2-0.3l0,0c-0.2,0.5-0.3,0.8-0.4,1l-0.1,0.4c-0.1,0.4-0.3,0.6-0.6,0.6
	C102.8,192.7,102.7,192.5,102.8,192.1L102.8,192.1z"/>
<path fill="#ECA85C" d="M376.9,175.4l0.6,0.7c1,1.2,1.4,2,1.2,2.2l-0.3,0.2c-0.9,0.1-2.2,0-4-0.2l1.1,1.3c0.4,0.5,0.5,0.9,0.1,1.1
	c-0.3,0.1-0.5,0-0.7-0.3l-0.2-0.3c-0.1-0.2-0.2-0.3-0.3-0.5c-0.2-0.1-0.3-0.3-0.4-0.4l-0.6-0.8l-0.3-0.2c-0.2-0.3-0.1-0.6,0.1-0.8
	l0.2-0.2c0.2-0.2,1.4-0.1,3.7,0.2l0.4,0l0,0c-0.4-0.5-0.6-0.8-0.8-1l-0.3-0.4c-0.4-0.4-0.4-0.7-0.1-1
	C376.3,175,376.6,175.1,376.9,175.4z"/>
<path fill="#ECA85C" d="M374.7,172.7c0.7,0.9,0.9,1.8,0.4,2.7l-0.2,0.1c-0.6,0.5-1.2,0.6-1.9,0.3l-0.2,1.1l-0.2,0.1
	c-0.2,0.1-0.3,0.2-0.4,0.1c-0.2-0.2-0.2-0.8,0-1.8l-0.1,0l-0.4-0.5c-0.1,0-0.1-0.1-0.2,0l-0.1,0.1c-0.6,0.3-0.9,0.5-1,0.3l-0.1-0.2
	c-0.1-0.1,0.2-0.5,0.9-1.3c0.1-0.1,0.1-0.1,0.2-0.1l2-1.8C373.9,172,374.3,172.3,374.7,172.7L374.7,172.7z M373.8,172.9
	c-0.3,0.3-0.7,0.8-1.5,1.5l0.2,0.3c0.8,0.7,1.4,0.9,1.8,0.5c0.4-0.3,0.4-0.9,0-1.6L374,173C373.9,172.9,373.8,172.9,373.8,172.9
	L373.8,172.9z"/>
<path fill="#D8CF30" d="M400.8,185.6L400.8,185.6c0.2,0.2,0,0.7-0.5,1.6l0,0c0.6,0.4,1.2,0.8,1.9,1.3c0,0,0,0.1,0,0.1l0.6-0.7
	c0.2-0.2,0.3-0.2,0.4-0.2l0.1,0.1c0.3,0.2-0.3,1.3-1.8,3.1l-0.3,0l-0.2-0.2c-0.2-0.1,0.1-0.7,0.8-1.6c0,0,0,0,0-0.1
	c-0.8-0.6-1.4-1-1.9-1.2l-0.8,1.3c-0.2,0.1-0.3,0.1-0.4,0.1l-0.1-0.1c-0.2-0.2,0.4-1.3,1.9-3.4C400.7,185.6,400.8,185.6,400.8,185.6
	L400.8,185.6z M401,185.6L401,185.6c0.2,0.2,0,0.7-0.5,1.6l0,0c0.6,0.4,1.2,0.8,1.9,1.3c0,0,0,0.1,0,0.1l0.6-0.7
	c0.2-0.2,0.3-0.2,0.3-0.2l0.1,0.1c0.3,0.2-0.3,1.3-1.8,3.1l-0.3,0l-0.2-0.2c-0.2-0.1,0.1-0.7,0.8-1.6c0,0,0-0.1,0-0.1
	c-0.8-0.6-1.4-1-1.9-1.2l-0.8,1.3c-0.2,0.1-0.3,0.1-0.4,0.1l-0.1-0.1c-0.2-0.2,0.4-1.3,1.9-3.4C400.9,185.6,401,185.5,401,185.6
	L401,185.6z"/>
<path fill="#D8CF30" d="M402.3,177.1l0.5,0.6c0.8,1.1,1.1,1.8,0.9,2l-0.3,0.2c-0.8,0-1.9-0.1-3.5-0.4l0.8,1.2c0.3,0.4,0.3,0.8,0,1
	c-0.2,0-0.4,0-0.6-0.3l-0.2-0.2c-0.1-0.1-0.2-0.3-0.2-0.4c-0.1-0.1-0.3-0.3-0.3-0.4l-0.5-0.7l-0.2-0.2c-0.1-0.3-0.1-0.5,0.1-0.7
	l0.2-0.1c0.2-0.1,1.3,0,3.2,0.4l0.3,0l0,0c-0.3-0.4-0.5-0.8-0.6-1l-0.2-0.3c-0.3-0.4-0.3-0.7-0.1-0.8
	C401.8,176.7,402,176.8,402.3,177.1L402.3,177.1z"/>
<path fill="#D8CF30" d="M393.2,182.9l0.2,0c0.3,0.3,0.3,1.1,0,2.3l0,0.1c-0.2,0.8-0.7,1.3-1.7,1.4l-0.3,0c-1.2-0.2-1.7-1.1-1.6-2.6
	l0.3-1.6c0-0.1,0.1-0.1,0.2-0.2c0.5,0.1,0.5,0.8,0.2,2.2c0,0.8,0.3,1.2,0.9,1.3c0.6,0,1-0.4,1.1-1l0.2-1.9
	C392.9,183,393,182.9,393.2,182.9L393.2,182.9z"/>
<path fill="#D8CF30" d="M404.2,177c0.2,0,0.3,0.1,0.4,0.3c0,0.1,0,0.2,0,0.2c0,0.3-0.2,0.4-0.5,0.4c-0.2,0-0.4-0.1-0.4-0.3
	c0-0.1,0-0.1,0-0.2c0-0.2,0.1-0.3,0.3-0.4C404.1,177,404.2,177,404.2,177z"/>
<path fill="#ECA85C" d="M379.5,185.4l-0.1,0c-0.3,0.2-0.4,0.9-0.3,2l0,0.1c0,0.8,0.5,1.3,1.3,1.5l0.2,0c1.1-0.1,1.7-0.7,1.8-2.1
	l-0.1-1.5c0,0-0.1-0.1-0.2-0.2c-0.4,0-0.6,0.7-0.5,2c-0.1,0.7-0.5,1-1,1c-0.5-0.1-0.8-0.4-0.8-1l0.1-1.7
	C379.8,185.5,379.7,185.4,379.5,185.4L379.5,185.4z"/>
<path fill="#ECA85C" d="M357.1,186.2l0.2,0c0.4,0.3,0.6,1.2,0.6,2.7l0,0.1c0,1-0.6,1.7-1.7,2l-0.3,0.1c-1.4,0-2.3-0.9-2.5-2.6l0-2
	c0-0.1,0.1-0.1,0.3-0.2c0.6,0,0.8,0.9,0.8,2.6c0.2,0.9,0.7,1.3,1.4,1.3c0.7-0.2,1-0.6,1-1.4l-0.3-2.2
	C356.7,186.3,356.9,186.2,357.1,186.2L357.1,186.2z"/>
<path fill="#ECA85C" d="M548.6,199L548.6,199c0.2,0.2,0,0.7-0.5,1.6l0,0c0.6,0.4,1.2,0.8,1.9,1.3c0,0,0,0.1,0,0.1l0.6-0.7
	c0.2-0.2,0.3-0.2,0.4-0.2l0.1,0.1c0.3,0.2-0.3,1.3-1.8,3.1l-0.3,0l-0.2-0.2c-0.2-0.1,0.1-0.7,0.8-1.6c0,0,0,0,0-0.1
	c-0.8-0.6-1.4-1-1.9-1.2l-0.8,1.3c-0.2,0.1-0.3,0.1-0.4,0.1l-0.1-0.1c-0.2-0.2,0.4-1.3,1.9-3.4C548.5,199,548.6,199,548.6,199
	L548.6,199z M548.8,199L548.8,199c0.2,0.2,0,0.7-0.5,1.6l0,0c0.6,0.4,1.2,0.8,1.9,1.3c0,0,0,0.1,0,0.1l0.6-0.7
	c0.2-0.2,0.3-0.2,0.3-0.2l0.1,0.1c0.3,0.2-0.3,1.3-1.8,3.1l-0.3,0l-0.2-0.2c-0.2-0.1,0.1-0.7,0.8-1.6c0,0,0-0.1,0-0.1
	c-0.8-0.6-1.4-1-1.9-1.2l-0.8,1.3c-0.2,0.1-0.3,0.1-0.4,0.1l-0.1-0.1c-0.2-0.2,0.4-1.3,1.9-3.4C548.7,199,548.8,199,548.8,199
	L548.8,199z"/>
<path fill="#ECA85C" d="M541,196.4l0.2,0c0.3,0.3,0.3,1.1,0,2.3l0,0.1c-0.2,0.8-0.7,1.3-1.7,1.4l-0.3,0c-1.2-0.2-1.7-1.1-1.6-2.6
	l0.3-1.6c0-0.1,0.1-0.1,0.2-0.2c0.5,0.1,0.5,0.8,0.2,2.2c0,0.8,0.3,1.2,0.9,1.3c0.6,0,1-0.4,1.1-1l0.2-1.9
	C540.7,196.4,540.8,196.3,541,196.4L541,196.4z"/>
<g id="_165609800">
	<path id="_127518080" fill="#ECA85C" d="M550.1,190.5l0.5,0.6c0.8,1.1,1.1,1.8,0.9,2l-0.3,0.2c-0.8,0-1.9-0.1-3.5-0.4l0.8,1.2
		c0.3,0.4,0.3,0.8,0,1c-0.2,0-0.4,0-0.6-0.3l-0.2-0.2c-0.1-0.1-0.2-0.3-0.2-0.4c-0.1-0.1-0.3-0.3-0.3-0.4l-0.5-0.7l-0.2-0.2
		c-0.1-0.3-0.1-0.5,0.1-0.7l0.2-0.1c0.2-0.1,1.3,0,3.2,0.4l0.3,0l0,0c-0.3-0.4-0.5-0.8-0.6-1l-0.2-0.3c-0.3-0.4-0.3-0.7-0.1-0.8
		C549.6,190.2,549.8,190.3,550.1,190.5L550.1,190.5z"/>
	<path id="_167701648" fill="#ECA85C" d="M552,190.4c0.2,0,0.3,0.1,0.4,0.3c0,0.1,0,0.2,0,0.2c0,0.3-0.2,0.4-0.5,0.4
		c-0.2,0-0.4-0.1-0.4-0.3c0-0.1,0-0.1,0-0.2c0-0.2,0.1-0.3,0.3-0.4C551.9,190.4,552,190.4,552,190.4z"/>
</g>
<path fill="#0093DD" d="M524.7,188.8l0.6,0.7c1,1.2,1.4,2,1.2,2.2l-0.3,0.2c-0.9,0.1-2.2,0-4-0.2l1.1,1.3c0.4,0.5,0.5,0.9,0.1,1.1
	c-0.3,0.1-0.5,0-0.7-0.3l-0.2-0.3c-0.1-0.2-0.2-0.3-0.3-0.5c-0.2-0.1-0.3-0.3-0.4-0.4L521,192l-0.3-0.2c-0.2-0.3-0.1-0.6,0.1-0.8
	l0.2-0.2c0.2-0.2,1.4-0.1,3.7,0.2l0.4,0l0,0c-0.4-0.5-0.6-0.8-0.8-1l-0.3-0.4c-0.4-0.4-0.4-0.7-0.1-1
	C524.1,188.4,524.4,188.5,524.7,188.8z"/>
<path fill="#0093DD" d="M522.5,186.2c0.7,0.9,0.9,1.8,0.4,2.7l-0.2,0.1c-0.6,0.5-1.2,0.6-1.9,0.3l-0.2,1.1l-0.2,0.1
	c-0.2,0.1-0.3,0.2-0.4,0.1c-0.2-0.2-0.2-0.8,0-1.8l-0.1,0l-0.4-0.5c-0.1,0-0.1-0.1-0.2,0l-0.1,0.1c-0.6,0.3-0.9,0.5-1,0.3l-0.1-0.2
	c-0.1-0.1,0.2-0.5,0.9-1.3c0.1-0.1,0.1-0.1,0.2-0.1l2-1.8C521.7,185.5,522.1,185.7,522.5,186.2L522.5,186.2z M521.6,186.3
	c-0.2,0.3-0.7,0.8-1.5,1.5l0.2,0.3c0.8,0.7,1.4,0.9,1.8,0.5c0.4-0.3,0.4-0.9,0-1.6l-0.4-0.6C521.7,186.4,521.6,186.3,521.6,186.3
	L521.6,186.3z"/>
<path fill="#D8CF30" d="M527.3,198.8l-0.1,0c-0.3,0.2-0.4,0.9-0.3,2l0,0.1c0,0.8,0.5,1.3,1.3,1.5l0.2,0c1.1-0.1,1.7-0.7,1.8-2.1
	l-0.1-1.5c0,0-0.1-0.1-0.2-0.2c-0.4,0-0.6,0.7-0.5,2c-0.1,0.7-0.5,1-1,1c-0.5-0.1-0.8-0.4-0.8-1l0.1-1.7
	C527.6,198.9,527.5,198.8,527.3,198.8L527.3,198.8z"/>
<g id="_187056216">
	<path id="_164978400" fill="#CF564F" d="M441.7,183.4c0.2,0,0.4,0.2,0.5,0.5c0,0.2,0,0.3,0,0.3c-0.1,0.4-0.3,0.6-0.7,0.5
		c-0.3,0-0.5-0.2-0.5-0.5c0-0.1,0-0.2,0-0.3c0-0.3,0.2-0.4,0.4-0.5C441.6,183.4,441.7,183.4,441.7,183.4L441.7,183.4z"/>
	<path id="_164053784" fill="#CF564F" d="M440.1,185l1,0.2c1.7,0.3,2.6,0.6,2.5,1l-0.1,0.4c-0.7,0.7-1.8,1.6-3.5,2.6l1.8,0.3
		c0.7,0.1,1,0.4,0.9,0.9c-0.2,0.3-0.4,0.3-0.8,0.3l-0.4-0.1c-0.2,0-0.4-0.1-0.6-0.2c-0.2,0-0.4,0-0.6,0l-1.1-0.2l-0.4,0
		c-0.4-0.2-0.5-0.4-0.5-0.7l0-0.3c0.1-0.3,1.1-1.1,3.2-2.4l0.3-0.3l0-0.1c-0.6-0.2-1.1-0.3-1.4-0.3l-0.5-0.1
		c-0.6-0.1-0.9-0.3-0.8-0.7C439.4,185.1,439.7,185,440.1,185L440.1,185z"/>
	<path id="_167460408" fill="#CF564F" d="M431.1,181.9c0.7-0.6,1.5-0.7,2.2-0.3l0.1,0.1c0.4,0.5,0.5,1,0.2,1.5l0.9,0.2l0.1,0.1
		c0.1,0.1,0.1,0.2,0.1,0.3c-0.2,0.1-0.7,0.1-1.4,0l0,0.1l-0.4,0.3c0,0,0,0.1,0,0.1l0.1,0c0.3,0.5,0.4,0.7,0.2,0.8l-0.1,0.1
		c-0.1,0.1-0.4-0.2-1-0.8c0-0.1-0.1-0.1-0.1-0.2l-1.5-1.6C430.5,182.5,430.7,182.2,431.1,181.9L431.1,181.9z M431.1,182.7
		c0.2,0.2,0.7,0.6,1.2,1.2l0.2-0.2c0.6-0.6,0.7-1.1,0.4-1.5c-0.3-0.3-0.7-0.3-1.3,0l-0.5,0.3C431.2,182.6,431.2,182.7,431.1,182.7
		L431.1,182.7z M431,182c0.7-0.6,1.5-0.7,2.2-0.3l0.1,0.1c0.4,0.5,0.5,1,0.2,1.5l0.9,0.2l0.1,0.1c0.1,0.1,0.1,0.2,0.1,0.3
		c-0.2,0.1-0.7,0.1-1.4,0l0,0.1l-0.4,0.3c0,0,0,0.1,0,0.1l0.1,0c0.3,0.5,0.4,0.7,0.2,0.8l-0.1,0.1c-0.1,0.1-0.4-0.2-1-0.8
		c0-0.1-0.1-0.1-0.1-0.2l-1.5-1.6C430.4,182.6,430.7,182.3,431,182L431,182z M431,182.8c0.2,0.2,0.7,0.6,1.2,1.2l0.2-0.2
		c0.6-0.6,0.7-1.1,0.4-1.5c-0.3-0.3-0.7-0.3-1.3,0l-0.5,0.3C431.1,182.7,431.1,182.7,431,182.8L431,182.8z M433.2,180.2l0.6-0.5
		c1-0.8,1.6-1.1,1.8-0.9l0.2,0.2c0.1,0.7,0,1.8-0.2,3.2l1-0.8c0.4-0.3,0.7-0.4,0.9-0.1c0.1,0.2,0,0.4-0.2,0.6l-0.2,0.2
		c-0.1,0.1-0.3,0.2-0.4,0.2c-0.1,0.1-0.2,0.2-0.3,0.3l-0.6,0.5l-0.2,0.2c-0.3,0.1-0.5,0.1-0.6-0.1l-0.1-0.2c-0.1-0.2-0.1-1.2,0.2-3
		l0-0.3l0,0c-0.4,0.3-0.7,0.5-0.9,0.6l-0.3,0.2c-0.3,0.3-0.6,0.3-0.8,0.1C432.9,180.7,432.9,180.5,433.2,180.2L433.2,180.2z"/>
</g>
<path fill="#CF564F" d="M423.9,172.2l0.5,0.6c1,1.2,1.3,1.8,1.1,2.1l-0.3,0.2c-0.8,0.1-2.1,0-3.8-0.2l1,1.2c0.4,0.5,0.4,0.8,0.1,1.1
	c-0.3,0.1-0.5,0-0.7-0.2l-0.2-0.3c-0.1-0.2-0.2-0.3-0.3-0.4c-0.2-0.1-0.3-0.3-0.4-0.4l-0.6-0.7l-0.3-0.2c-0.2-0.3-0.1-0.6,0.1-0.7
	l0.2-0.2c0.2-0.2,1.4-0.1,3.5,0.2l0.4,0l0,0c-0.3-0.5-0.6-0.8-0.7-1l-0.3-0.3c-0.3-0.4-0.4-0.7-0.1-0.9
	C423.3,171.8,423.5,171.9,423.9,172.2L423.9,172.2z"/>
<path fill="#CF564F" d="M414.6,179.2l0.2,0c0.3,0.3,0.4,1.1,0.2,2.5l0,0.1c-0.1,0.9-0.7,1.5-1.7,1.6l-0.3,0c-1.3-0.2-1.9-1-1.9-2.6
	l0.2-1.8c0-0.1,0.1-0.1,0.3-0.2c0.5,0.1,0.7,0.9,0.5,2.4c0.1,0.8,0.5,1.3,1.1,1.3c0.6-0.1,1-0.5,1.1-1.2l0-2
	C414.2,179.3,414.3,179.2,414.6,179.2L414.6,179.2z"/>
<path fill="#CF564F" d="M425.9,171.9c0.2,0,0.3,0.1,0.5,0.3c0,0.1,0.1,0.2,0.1,0.2c0,0.3-0.2,0.5-0.5,0.5c-0.2,0-0.4-0.1-0.5-0.3
	c0-0.1-0.1-0.2-0.1-0.2c0-0.2,0.1-0.4,0.2-0.4C425.8,171.9,425.9,171.9,425.9,171.9z"/>
<g id="_190454848">
	<path id="_166949440" fill="#CF8EB5" d="M217.4,171.8c0.3,0.1,0.5,0.3,0.7,0.7c0,0.2,0,0.4,0,0.4c-0.1,0.6-0.4,0.8-1,0.7
		c-0.4-0.1-0.6-0.3-0.7-0.7c0-0.1,0-0.3,0-0.4c0.1-0.4,0.3-0.6,0.6-0.7C217.2,171.8,217.4,171.8,217.4,171.8z"/>
	<path id="_164143808" fill="#CF8EB5" d="M215.2,174l1.3,0.3c2.4,0.5,3.5,0.9,3.4,1.4l-0.1,0.6c-0.9,0.9-2.5,2.1-4.9,3.5l2.4,0.5
		c0.9,0.2,1.3,0.6,1.2,1.2c-0.3,0.3-0.6,0.5-1.1,0.4l-0.5-0.1c-0.3-0.1-0.6-0.1-0.8-0.2c-0.3,0-0.6,0-0.9-0.1l-1.5-0.3l-0.5,0
		c-0.5-0.2-0.7-0.6-0.6-1l0.1-0.4c0.1-0.4,1.6-1.5,4.5-3.2l0.4-0.4l0-0.1c-0.9-0.2-1.5-0.4-1.9-0.5l-0.7-0.1c-0.8-0.2-1.2-0.5-1.1-1
		C214.2,174.1,214.6,174,215.2,174L215.2,174z"/>
</g>
<path fill="#CF564F" d="M514.5,200.8l0.1,0.1c0.2,0.1,0.1,0.7-0.4,1.9l0.1,0c0.8,0.3,1.6,0.6,2.6,1c0,0,0,0.1,0,0.1l0.5-1
	c0.2-0.2,0.3-0.3,0.4-0.3l0.2,0.1c0.4,0.2-0.1,1.5-1.4,4.1l-0.3,0.1l-0.3-0.1c-0.2-0.1-0.1-0.8,0.6-2.1c0,0,0-0.1,0-0.1
	c-1.1-0.5-1.9-0.8-2.5-1l-0.6,1.7c-0.2,0.2-0.3,0.2-0.4,0.2l-0.2-0.1c-0.3-0.2,0.1-1.7,1.4-4.5C514.3,200.8,514.4,200.8,514.5,200.8
	L514.5,200.8z M514.7,200.7l0.1,0.1c0.2,0.1,0.1,0.7-0.4,1.9l0.1,0c0.8,0.3,1.6,0.6,2.6,1c0,0,0,0.1,0,0.1l0.5-1
	c0.1-0.2,0.3-0.3,0.4-0.3l0.2,0.1c0.4,0.2-0.1,1.6-1.4,4.1l-0.3,0.1l-0.3-0.1c-0.2-0.1,0-0.8,0.6-2.1c0,0-0.1-0.1,0-0.1
	c-1.1-0.5-1.9-0.8-2.5-1l-0.6,1.7c-0.2,0.2-0.3,0.2-0.4,0.2l-0.2-0.1c-0.3-0.2,0.1-1.7,1.4-4.5C514.5,200.7,514.7,200.7,514.7,200.7
	L514.7,200.7z"/>
<path fill="#CF564F" d="M505.4,199.6l0.2,0c0.4,0.3,0.6,1.2,0.6,2.7l0,0.1c0,1-0.6,1.7-1.7,2l-0.3,0.1c-1.4,0-2.3-0.9-2.5-2.6l0-2
	c0-0.1,0.1-0.1,0.3-0.2c0.6,0,0.8,0.9,0.8,2.6c0.2,0.9,0.7,1.3,1.4,1.3c0.7-0.2,1-0.6,1-1.4l-0.3-2.2
	C505,199.7,505.2,199.6,505.4,199.6L505.4,199.6z"/>
<path fill="#CF564F" d="M497.8,196.4c-0.1-0.1-0.2-0.3-0.1-0.5c0-0.1,0.1-0.2,0.1-0.2c0.2-0.2,0.4-0.2,0.6,0
	c0.1,0.1,0.2,0.3,0.1,0.5c0,0.1-0.1,0.1-0.1,0.2c-0.1,0.1-0.3,0.2-0.4,0.1C497.9,196.4,497.9,196.4,497.8,196.4z M499.4,197.4l0-0.7
	c0.1-1.4,0.2-2,0.5-2l0.3,0c0.6,0.4,1.4,1.2,2.3,2.4l0.1-1.4c0-0.5,0.2-0.8,0.6-0.8c0.2,0.1,0.3,0.3,0.3,0.6l0,0.3
	c0,0.2,0,0.3-0.1,0.4c0,0.2,0,0.3,0,0.5l0,0.8l0,0.3c-0.1,0.3-0.3,0.4-0.5,0.4l-0.2,0c-0.2,0-0.9-0.8-2.1-2.3l-0.3-0.2l-0.1,0
	c-0.1,0.5-0.1,0.9-0.1,1.1l0,0.4c0,0.5-0.2,0.7-0.5,0.7C499.5,198,499.4,197.8,499.4,197.4L499.4,197.4z"/>
<path fill="#CF564F" d="M423,181.5l0.1,0.1c0.2,0.1,0,0.7-0.5,1.7l0.1,0c0.7,0.3,1.4,0.7,2.2,1.2c0,0,0,0.1,0,0.1l0.6-0.8
	c0.2-0.2,0.3-0.3,0.4-0.2l0.2,0.1c0.3,0.2-0.3,1.4-1.7,3.5l-0.3,0l-0.3-0.2c-0.2-0.1,0-0.7,0.7-1.8c0,0,0-0.1,0-0.1
	c-0.9-0.6-1.6-1-2.1-1.2l-0.8,1.5c-0.2,0.1-0.3,0.2-0.4,0.1l-0.2-0.1c-0.3-0.2,0.3-1.5,1.7-3.9C422.8,181.5,422.9,181.5,423,181.5
	L423,181.5z M423.2,181.4l0.1,0.1c0.2,0.1,0,0.7-0.5,1.7l0.1,0c0.7,0.3,1.4,0.7,2.2,1.2c0,0,0,0.1,0,0.1l0.6-0.8
	c0.2-0.2,0.3-0.3,0.4-0.2l0.2,0.1c0.3,0.2-0.3,1.4-1.7,3.5l-0.3,0l-0.3-0.2c-0.2-0.1,0-0.7,0.7-1.8c0,0,0-0.1,0-0.1
	c-0.9-0.6-1.6-1-2.1-1.2l-0.8,1.5c-0.2,0.1-0.3,0.2-0.4,0.1l-0.2-0.1c-0.3-0.2,0.3-1.5,1.7-3.9C423,181.4,423.1,181.4,423.2,181.4
	L423.2,181.4z"/>
<path fill="#0093DD" d="M366.7,187.6l0.1,0.1c0.2,0.1,0.1,0.7-0.4,1.9l0.1,0c0.8,0.3,1.6,0.6,2.6,1c0,0,0,0.1,0,0.1l0.5-1
	c0.2-0.2,0.3-0.3,0.4-0.3l0.2,0.1c0.4,0.2-0.1,1.5-1.4,4.1l-0.3,0.1l-0.3-0.1c-0.2-0.1-0.1-0.8,0.6-2.1c0,0,0-0.1,0-0.1
	c-1.1-0.5-1.9-0.8-2.5-1l-0.6,1.7c-0.2,0.2-0.3,0.2-0.4,0.2l-0.2-0.1c-0.3-0.2,0.1-1.7,1.4-4.5C366.5,187.6,366.6,187.5,366.7,187.6
	L366.7,187.6z M366.9,187.5l0.1,0.1c0.2,0.1,0.1,0.7-0.4,1.9l0.1,0c0.8,0.3,1.6,0.6,2.6,1c0,0,0,0.1,0,0.1l0.5-1
	c0.1-0.2,0.3-0.3,0.4-0.3l0.2,0.1c0.4,0.2-0.1,1.6-1.4,4.1l-0.3,0.1l-0.3-0.1c-0.2-0.1,0-0.8,0.6-2.1c0,0-0.1-0.1,0-0.1
	c-1.1-0.5-1.9-0.8-2.5-1l-0.6,1.7c-0.2,0.2-0.3,0.2-0.4,0.2l-0.2-0.1c-0.3-0.2,0.1-1.7,1.4-4.5C366.8,187.5,366.9,187.5,366.9,187.5
	L366.9,187.5z"/>
<path fill="#0093DD" d="M349.6,183c-0.1-0.1-0.2-0.3-0.1-0.5c0-0.1,0.1-0.2,0.1-0.2c0.2-0.2,0.4-0.2,0.6,0c0.1,0.1,0.2,0.3,0.1,0.5
	c0,0.1-0.1,0.1-0.1,0.2c-0.1,0.1-0.3,0.2-0.4,0.1C349.7,183.1,349.6,183,349.6,183z M351.1,184.1l0-0.7c0.1-1.4,0.2-2,0.5-2l0.3,0
	c0.6,0.4,1.4,1.2,2.3,2.4l0.1-1.4c0-0.5,0.2-0.8,0.6-0.8c0.2,0.1,0.3,0.3,0.3,0.6l0,0.3c0,0.2,0,0.3-0.1,0.4c0,0.2,0,0.3,0,0.5
	l0,0.8l0,0.3c-0.1,0.3-0.3,0.4-0.5,0.4l-0.2,0c-0.2,0-0.9-0.8-2.1-2.3l-0.3-0.2l-0.1,0c-0.1,0.5-0.1,0.9-0.1,1.1l0,0.4
	c0,0.5-0.2,0.7-0.5,0.7C351.3,184.6,351.1,184.4,351.1,184.1L351.1,184.1z"/>
<path fill="#CF8EB5" d="M250.3,182.7l0.1,0.1c0.2,0.2-0.2,0.9-1.2,2l0.1,0.1c0.8,0.6,1.6,1.4,2.5,2.2c0,0,0,0.1,0,0.1l1-0.9
	c0.3-0.2,0.4-0.3,0.5-0.2l0.2,0.2c0.3,0.3-0.7,1.7-3.2,4.1l-0.4-0.1l-0.3-0.3c-0.2-0.2,0.3-0.9,1.5-2.1c0,0,0-0.1,0-0.1
	c-1-1-1.8-1.7-2.4-2.1l-1.4,1.7c-0.3,0.1-0.4,0.1-0.5,0.1l-0.2-0.2c-0.3-0.3,0.8-1.8,3.4-4.5C250.1,182.6,250.2,182.6,250.3,182.7
	L250.3,182.7z M250.5,182.7l0.1,0.1c0.2,0.2-0.2,0.9-1.2,2l0.1,0.1c0.8,0.6,1.6,1.4,2.5,2.2c0,0,0,0.1,0,0.1l1-0.9
	c0.3-0.2,0.4-0.3,0.5-0.2l0.2,0.2c0.3,0.3-0.7,1.7-3.2,4.1l-0.4-0.1l-0.3-0.3c-0.2-0.2,0.3-0.9,1.5-2.1c0,0,0-0.1,0-0.1
	c-1-1-1.8-1.7-2.4-2.1l-1.4,1.7c-0.3,0.1-0.4,0.1-0.5,0.1l-0.2-0.2c-0.3-0.3,0.8-1.8,3.4-4.5C250.3,182.6,250.5,182.6,250.5,182.7
	L250.5,182.7z"/>
</svg>
