<?xml version="1.0" encoding="utf-8"?>
<!-- Generator: Adobe Illustrator 18.1.1, SVG Export Plug-In . SVG Version: 6.00 Build 0)  -->
<svg version="1.1" id="Warstwa_1" xmlns="http://www.w3.org/2000/svg" xmlns:xlink="http://www.w3.org/1999/xlink" x="0px" y="0px"
	 viewBox="0 0 638.4 352.9" enable-background="new 0 0 638.4 352.9" xml:space="preserve">
<g>
	<path fill="#ECF3F5" d="M438.9,138.5c-0.5-0.3,2.4-0.3,2.1-0.6c-0.5-0.5-0.7-1.5-0.3-1.9c0.2-0.2,0.9,0,1.3-0.1
		c0.4-0.1,1-0.5,1.7-0.4c0.5,0,1.2-0.5,1.5-0.6c0.7-0.1,1.6-0.8,2.3-0.9c1.2-0.3,2.1,0,2.5,0.1c1.3,0.6,1.9,1.1,3.2,1
		c0.8-0.1,2.3,0.1,3,0.2c2.1,0.5,1.1,2.4,3.1,2.4c0.9,0,1.2,0.4,1.9,0.5c0.9,0.1,2,0,2.8,0.4c1.5,0.8-7.4,0.3-11.6,0.3
		c-2.9,0-5.6,0-7.7-0.2C443.9,138.6,439.4,138.9,438.9,138.5L438.9,138.5z"/>
	<path fill="#ECF3F5" d="M271.1,170.7c-0.4,0.1-0.8,0.2-1,0.3c-0.9,0.4-1.4,0.1-2.2,0.3c-0.8,0.2-0.7,0.9-1.4,0.9
		c-0.7,0-1.2-0.1-1.8,0.2c-0.6,0.3,2.7,0.1,4.2,0.1c1.4,0,3,0.1,3.6-0.1c1.7,0.3,3.4,0.2,4.4,0.1c1.2-0.1,3,0.2,3,0.2
		s32.8,0.6,44.6-0.6c2-0.2,1.9-2.3,0.4-1.9c-0.5,0.1-1.1,0.2-1.7,0.1c-1.6-0.2-2.9-1.4-3.1-1.4c-1.8,0.4-3-1.8-6-2
		c-2.4-0.2-2.5-2.3-4.5-4.3c-0.5-0.5-1.4-1.3-2.1-1.7c-1.4-0.7-2.7-3.6-4.2-3.5c-0.5,0-1.2-0.2-1.7,0.1c-1.3,0.6-2.9,3.3-3.9,2.8
		c-0.6-0.3-0.5-0.1-1.4,0c-0.3,0-0.7,0.2-0.9,0.1c-0.5-0.1-1-0.6-1.5-0.9c-0.5-0.2-1-0.1-1.8,0c-0.8,0-1.5,0.4-2,0.5
		c-2.2,0.7-2.4,2.7-3.6,3.4c-1.4,0.9-0.4,1.9-4.1,2.2c-3.7,0.3-3.6-0.4-5.8,0.9c-2.2,1.3-0.7,4.3-3.5,4
		C272.2,170.6,271.5,170.6,271.1,170.7L271.1,170.7z"/>
	<path fill="#ECF3F5" d="M339.4,113.5c-0.3,0-0.5,0.1-0.7,0.1c-0.6,0.2-1,0.1-1.5,0.2c-0.6,0.1-0.5,0.5-1,0.5c-0.5,0-0.9,0-1.3,0.1
		c-0.4,0.2,1.9,0.1,2.9,0.1c1,0,2.1,0,2.5-0.1c1.2,0.2,2.4,0.1,3,0.1c0.8-0.1,2.1,0.1,2.1,0.1s22.7,0.3,30.9-0.3
		c1.4-0.1,1.3-1.2,0.3-1c-0.4,0.1-0.7,0.1-1.2,0.1c-1.1-0.1-2-0.7-2.2-0.7c-1.2,0.2-2.1-0.9-4.2-1c-1.7-0.1-1.7-1.2-3.1-2.2
		c-0.3-0.2-1-0.6-1.5-0.8c-1-0.4-1.9-1.8-2.9-1.8c-0.3,0-0.9-0.1-1.2,0c-0.9,0.3-2,1.7-2.7,1.4c-0.4-0.2-0.3-0.1-0.9,0
		c-0.2,0-0.5,0.1-0.6,0.1c-0.4,0-0.7-0.3-1-0.4c-0.3-0.1-0.7,0-1.3,0c-0.5,0-1,0.2-1.4,0.3c-1.6,0.3-1.7,1.4-2.5,1.7
		c-1,0.5-0.3,1-2.8,1.1c-2.6,0.1-2.5-0.2-4,0.5c-1.5,0.6-0.5,2.2-2.5,2C340.1,113.4,339.7,113.4,339.4,113.5L339.4,113.5z"/>
	<path fill="#ECF3F5" d="M143.4,190.4c-0.2,0-0.5,0.1-0.7,0.2c-0.5,0.2-0.9,0.1-1.4,0.2c-0.5,0.1-0.4,0.6-0.9,0.6
		c-0.5,0-0.8,0-1.2,0.2c-0.4,0.2,1.7,0.1,2.7,0.1c0.9,0,1.9,0,2.3-0.1c1.1,0.2,2.2,0.2,2.8,0.1c0.7-0.1,1.9,0.1,1.9,0.1
		s20.7,0.4,28.2-0.4c1.3-0.1,1.2-1.5,0.2-1.2c-0.3,0.1-0.7,0.1-1.1,0.1c-1-0.2-1.8-0.9-2-0.9c-1.1,0.2-1.9-1.1-3.8-1.3
		c-1.5-0.1-1.6-1.4-2.9-2.7c-0.3-0.3-0.9-0.8-1.3-1c-0.9-0.5-1.7-2.3-2.7-2.2c-0.3,0-0.8-0.1-1.1,0c-0.8,0.4-1.8,2.1-2.4,1.7
		c-0.4-0.2-0.3-0.1-0.9,0c-0.2,0-0.4,0.1-0.6,0.1c-0.3,0-0.6-0.4-0.9-0.5c-0.3-0.1-0.7,0-1.2,0c-0.5,0-0.9,0.2-1.3,0.3
		c-1.4,0.4-1.5,1.7-2.2,2.1c-0.9,0.6-0.2,1.2-2.6,1.4c-2.3,0.2-2.3-0.2-3.6,0.6c-1.4,0.8-0.5,2.7-2.2,2.5
		C144.1,190.3,143.7,190.3,143.4,190.4L143.4,190.4z"/>
	<path fill="#ECF3F5" d="M524.2,179.9c-0.8-0.1-25.8-0.2-30.4-0.3c-2.5,0-2.6-0.1-2.7-0.4c0-0.1,0.2-0.1,0.5-0.1
		c0.3-0.1,0.9-0.4,1.1-0.5c0.1,0,0.8-0.4,1.1-0.3c0.4,0.1,0.4,0.3,0.8,0.3c1.1-0.1,1.3-1,1.4-0.9c1.2,0.2,1.9-1.1,3.9-1.2
		c1.4-0.1,1.7-1.1,2.7-2.1c0.4-0.5,2-0.7,2.8-1c0.6-0.3,0.9-1.2,1.6-1.6c0.4-0.2,1.2-0.1,1.6-0.1c0.3,0,0.8-0.1,1.2,0
		c0.9,0.3,1.7,1,2.3,0.7c0.4-0.2,0.3-0.1,0.9,0c0.2,0,0.4,0.1,0.6,0.1c0.4,0,0.7-0.4,1-0.5c0.3-0.1,0.7,0,1.2,0c0.5,0,1.4,0,1.7,0.1
		c1.5,0.4,1.6,1.5,2.4,2c1,0.5,0.5,1.3,3.1,1.5c0.8,0,1.6-0.3,1.9-0.2c0.7,0.1,0.4,0.7,1.4,1.2c1.5,0.7,0.5,2.4,2.4,2.3
		c1.9-0.1,2.5,0.6,1.1,0.9c-1.4,0.4-2.9,0.3-3.7,0.2C525.5,179.7,524.2,179.9,524.2,179.9L524.2,179.9z"/>
	<path fill="#ECF3F5" d="M175.3,148.3c0.7-0.5-3.6-0.5-3.3-0.9c0.7-0.8,1-2.3,0.4-2.9c-0.4-0.4-1.3,0-2-0.2
		c-0.6-0.2-1.5-0.7-2.6-0.7c-0.8,0-1.8-0.8-2.4-0.9c-1.1-0.2-2.4-1.2-3.5-1.4c-1.8-0.4-3.3,0-3.9,0.2c-2,0.9-2.9,1.7-4.9,1.5
		c-1.2-0.1-3.5,0.1-4.7,0.4c-3.2,0.7-1.6,3.7-4.7,3.7c-1.3,0-1.9,0.7-2.9,0.8c-1.3,0.2-3,0-4.3,0.6c-2.3,1.2,11.4,0.5,17.8,0.5
		c4.5,0,8.6,0,11.8-0.3C167.6,148.5,174.5,148.8,175.3,148.3L175.3,148.3z"/>
</g>
</svg>
