<?xml version="1.0" encoding="utf-8"?>
<!-- Generator: Adobe Illustrator 18.1.1, SVG Export Plug-In . SVG Version: 6.00 Build 0)  -->
<svg version="1.1" id="Warstwa_1" xmlns="http://www.w3.org/2000/svg" xmlns:xlink="http://www.w3.org/1999/xlink" x="0px" y="0px"
	 viewBox="0 0 638.4 352.9" enable-background="new 0 0 638.4 352.9" xml:space="preserve">
<path fill="#AD5657" d="M225.8-4c0,0-1.2,13.3,1,28.6c2,13.5,6.9,28.5,13,37.9c9.7,15.4,11.3,14.8,11.3,14.8s3.2-2.4,1.7-6.9
	c-1.1-3.4-2.2-6-1.2-9.8c1-3.8,2.7-5.2,2.7-5.2s-2.4,4.5-1.1,8.9c0.7,2.2,1.7,3.9,2.5,5.8c0.9-2.1,2.4-2.8,2.4-2.8
	c-0.9,1.7-1.2,3-1.2,4.4c0,1.9,0.6,3.8,0.8,5.7c0.7,6.6,2.8,7,2.8,7s1.9-3,0.8-6.6c-1.2-3.6-1.2-3.6-1.2-3.6s3.2,3.4,3.4,7.4
	c0,0.6,0.1,1.1,0.1,1.7c0.8-0.6,1.8-2.2,1.8-2.2s-0.1,1.1-1,2.7c-0.9,1.6-0.2,5-0.2,5l0,0c0.2,0.8,0.4,1.6,0.7,2.2
	c0.4,0.9,1.6,2.5,2.8,4.2c0.1-0.3,0.2-0.7,0.4-1.1c0.6-1.3-0.2-3.4-0.2-3.4s1.3,1.9,1.1,3.6c-0.2,1.7,0.1,2.9,0.7,4
	c0.5,0.9,1.3,1.6,1.4,2.6c0.2,2-1.6,4.4-2.1,5.6c-0.6,1.2-1.7,1.4-1.7,1.4s-1.1-2.9-3.2-5.7c-1.6-2.1-5.1-5.5-8.1-6
	c6.3,2.5,9.8,9.4,9.8,9.4s-0.6,1.3-2.4,1.7c-0.8,0.2-1.5-0.3-2.5-1c-0.7-0.3-1.5-0.5-2.4-0.6c-1.8-0.1-2.7,0.3-2.7,0.3s1-1,2.4-1.3
	c-0.8-0.4-1.8-0.7-3-0.8c-5-0.7-6.2,0-6.2,0s1-1.6,6.1-1.4c5.1,0.1,4.1,0.2,4.1,0.2s-1.4-2.3-4.7-4.1c-1.1-0.6-2.7-1.3-4-1.7
	c-2.3-0.7-4.8-1.5-6.7-3.3c-1.3-1.2-2.2-3.3-2.8-4.7c-0.5-1.2-0.3-2.7-0.2-3.9c0.6-4.8,0.8-4.5,0.8-4.5s-1.5-0.7-6.6-6.4
	c-1.4-1.6-3.3-3.2-5.3-5.7c-1-1.3-2.1-3.4-3.3-4.9c-1.4-1.8-3.1-4-4.2-6.2c-0.8-1.6-1.6-4-2.3-5.7c-0.7-1.8-2.7-4.8-3.3-6.6
	c-0.9-2.8-1.7-6-2.3-8.7c-2.7-11.8-3.7-38.2-3.7-38.2L225.8-4L225.8-4z"/>
<g>
	<path fill="#843538" d="M269.6,103.8c0,0,0.9-1.6,0.9-2.7c-0.1-1.1-0.8-0.7-0.9-0.1c0,0.3,0,0.7,0.3,0.8h0l0,0.7L269.6,103.8z"/>
	<path fill="#843538" d="M240.8,79.9c0.3,0.2,0.5,0.3,0.6,0.4l0,0c0.2-0.4,0.6-1,1.5-1.5C244.2,77.9,241.7,78.9,240.8,79.9z"/>
	<path fill="#843538" d="M243.5,72c1,1.5,2,2.6,2.6,3.1c2.6,2.1,2.6,2.1,2.6,2.1l0,0c0,0,0,0,0,0s-0.3-0.6-0.5-2.4l0,0c0,0,0,0,0,0
		c0.6-1.3,1.6-4.2-0.2-8.4c0,0-0.3,3.7-2.2,4.9l-0.2-0.2c0.5-1.5,0.9-4.1-0.6-7.6c0,0-0.2,3-1.7,4.5c-0.1,0.1-0.2,0.2-0.3,0.3
		l-0.1-0.2c0,0,0,0,0,0c0.1-0.1,0.1-0.3,0.2-0.4c0,0,0,0,0-0.1c0,0,0,0,0,0c0.6-1.5,1.2-4.2-0.5-7.9c0,0-0.3,3.1-1.8,4.6
		c-0.1,0.1-0.3,0.2-0.4,0.3c0,0,0,0,0,0c-0.1-0.2-0.2-0.3-0.3-0.5c0.1-0.2,0.2-0.4,0.3-0.6c0,0,0,0,0,0c0,0,0,0,0,0
		c0.7-1.4,1.4-4.1,0-7.8c0,0-0.4,3.1-2.1,4.5c-0.1,0.1-0.2,0.2-0.4,0.3l-0.1-0.2c0.1-0.1,0.2-0.2,0.3-0.4c0,0,0,0,0,0c0,0,0,0,0,0
		c0.7-1.3,1.8-4.1,0.3-8.4c0,0-0.5,3.8-2.6,4.8c0,0,0,0,0,0l0,0c0,0,0-0.1,0.1-0.1c0,0,0,0,0.1-0.1c0,0,0.1-0.1,0.1-0.1
		c0,0,0-0.1,0.1-0.1c0,0,0,0,0,0c0.7-1,2.2-4.1,0.4-8.7c0,0-0.5,3.3-2.2,4.6c0.7-1.1,2-4.1,0.4-8.6c0,0-0.5,3.3-2.2,4.6
		c-0.1,0.1-0.3,0.2-0.4,0.3l-0.2-0.4c0.2,0.1,0.3,0.1,0.3,0.1l0,0l0,0c0,0,0,0,0.1-0.1c0,0,0,0,0-0.1c0-0.1,0.1-0.1,0.2-0.2
		c0,0,0,0,0,0c0,0,0,0,0,0c0.7-1,2.2-4,0.5-8.7c0,0-0.4,3-2,4.4c-0.2,0.1-0.3,0.3-0.5,0.4l-0.1-0.2c0.1,0.1,0.2,0.1,0.2,0.1l0,0l0,0
		c0,0,0,0,0.1-0.1c0,0,0,0,0.1-0.1c0,0,0,0,0,0c0,0,0.1-0.1,0.1-0.1c0,0,0,0,0-0.1c0-0.1,0.1-0.1,0.1-0.2c0,0,0,0,0,0
		c0.7-1.2,2-4.1,0.4-8.5c0,0-0.4,2.6-1.7,4.1c-0.1,0.1-0.1,0.1-0.2,0.2c0,0-0.1,0.1-0.1,0.1c-0.1,0.1-0.2,0.2-0.3,0.3l0-0.1
		c0.1-0.1,0.2-0.2,0.3-0.4c0,0,0,0,0,0c0.1-0.2,0.2-0.3,0.3-0.6c0,0,0,0,0,0c0,0,0,0,0,0c0.7-1.5,1.3-4.1-0.1-7.7
		c0,0-0.3,1.8-1.1,3.2c-0.1,0.2-0.2,0.3-0.3,0.5c0,0,0,0.1-0.1,0.1c-0.1,0.2-0.2,0.3-0.4,0.5c-0.3-1.1,0.2-0.6,0.5-1.4
		c0.6-2.1,2-5.1,2.1-8.6c0,0-0.8,1.4-1.9,2.4c0.8-1.3,1.6-3.2,1.5-5.9c0,0-1.3,2.5-3.1,3.4c-0.1,0-0.2,0.1-0.2,0.1
		c-0.1,0-0.1,0-0.2,0.1c-0.1,0-0.3,0.1-0.4,0.1l-0.1-0.2c0.1-0.1,0.3-0.3,0.4-0.5c0-0.1,0.1-0.1,0.1-0.2c0.1-0.1,0.2-0.3,0.3-0.4
		c0,0,0,0,0,0c0,0,0,0,0,0c0.9-1.3,1.6-3.3,1.6-6.1c0,0-0.9,1.6-2.2,2.7c-0.1,0.1-0.1,0.1-0.2,0.2c-0.1,0-0.1,0.1-0.2,0.1
		c-0.1,0.1-0.2,0.1-0.2,0.2c-0.1,0-0.1,0.1-0.2,0.1c-0.1,0.1-0.2,0.1-0.3,0.1c0,0-0.1,0-0.1,0.1c-0.1,0.1-0.3,0.1-0.4,0.1l-0.1-0.2
		c0,0,0,0,0,0c0.1-0.1,0.3-0.2,0.4-0.4c0,0,0.1-0.1,0.1-0.1c0.1-0.1,0.2-0.2,0.3-0.4c0.1-0.1,0.1-0.1,0.2-0.2
		c0.1-0.1,0.2-0.3,0.3-0.4c0.1-0.1,0.1-0.2,0.2-0.2c0,0,0.1-0.1,0.1-0.1c0,0,0,0,0,0c0.8-1.3,1.5-3.2,1.5-5.9c0,0-0.8,1.4-1.9,2.5
		c-0.1,0.1-0.2,0.2-0.3,0.3c0,0-0.1,0.1-0.1,0.1c-0.1,0.1-0.3,0.2-0.5,0.3c0,0-0.1,0-0.1,0c-0.1,0.1-0.3,0.1-0.4,0.2
		c0,0-0.1,0-0.1,0.1c-0.2,0.1-0.3,0.1-0.5,0.1c0-0.2-0.1-0.4-0.1-0.6c0.2-0.2,0.5-0.4,0.8-0.7c0.1-0.1,0.1-0.1,0.2-0.2
		c0.1-0.1,0.2-0.2,0.3-0.3c0.1-0.1,0.2-0.2,0.3-0.4c0.1-0.1,0.1-0.2,0.2-0.3c0.1-0.2,0.2-0.3,0.3-0.5c0,0,0,0,0,0
		c0.7-1.2,1.4-2.9,1.5-5.2c0,0-0.7,1.1-1.7,2.1c-0.2,0.1-0.3,0.3-0.5,0.4c0,0,0,0-0.1,0c-0.2,0.1-0.3,0.2-0.5,0.3c0,0-0.1,0-0.1,0.1
		c-0.2,0.1-0.4,0.2-0.6,0.3c0,0-0.1,0-0.1,0c-0.2,0.1-0.4,0.1-0.6,0.2l0-0.2c0.1,0,0.1-0.1,0.2-0.1c0,0,0,0,0.1,0
		c0.1,0,0.1-0.1,0.2-0.1c0,0,0.1,0,0.1-0.1c0.1,0,0.1-0.1,0.2-0.1c0,0,0.1-0.1,0.1-0.1c0.1-0.1,0.1-0.1,0.2-0.2c0,0,0.1-0.1,0.1-0.1
		c0.1-0.1,0.1-0.1,0.2-0.2c0.1-0.1,0.1-0.1,0.2-0.2c0.1-0.1,0.1-0.1,0.2-0.2c0.1-0.1,0.1-0.1,0.2-0.2c0.1-0.1,0.1-0.2,0.2-0.2
		c0.1-0.1,0.1-0.1,0.2-0.2c0.1-0.1,0.1-0.2,0.2-0.3c0,0,0.1-0.1,0.1-0.1c0,0,0,0,0,0c0.8-1.2,1.4-3,1.6-5.3c0,0-0.7,1.1-1.7,2
		c-0.2,0.1-0.3,0.3-0.5,0.4c0,0-0.1,0.1-0.1,0.1c-0.2,0.1-0.4,0.3-0.6,0.4c0,0-0.1,0-0.1,0.1c-0.2,0.1-0.4,0.2-0.6,0.3
		c0,0-0.1,0-0.1,0c-0.2,0.1-0.4,0.1-0.7,0.1l0,0c0,0,0.1,0,0.1-0.1c0,0,0,0,0,0c0,0,0.1-0.1,0.2-0.1c0,0,0.1,0,0.1-0.1
		c0.1,0,0.1-0.1,0.2-0.1c0,0,0.1-0.1,0.1-0.1c0.1,0,0.1-0.1,0.2-0.2c0,0,0.1-0.1,0.1-0.1c0.1-0.1,0.2-0.2,0.3-0.2
		c0,0,0.1-0.1,0.1-0.1c0.1-0.1,0.3-0.3,0.4-0.4c0,0,0.1-0.1,0.1-0.2c0.1-0.1,0.2-0.2,0.3-0.3c0.1-0.1,0.1-0.1,0.2-0.2
		c0.1-0.1,0.2-0.2,0.2-0.3c0,0,0.1-0.1,0.1-0.1c0,0,0,0,0,0c0.8-1.2,1.5-3,1.6-5.4c0,0-0.6,1-1.6,1.9c-0.1,0.1-0.3,0.3-0.4,0.4
		c0,0-0.1,0-0.1,0.1c-0.1,0.1-0.3,0.2-0.4,0.3c0,0-0.1,0-0.1,0.1c-0.2,0.1-0.3,0.2-0.5,0.3c0,0-0.1,0-0.1,0.1
		c-0.2,0.1-0.4,0.2-0.6,0.2c0.1-0.1,0.3-0.2,0.5-0.4c0,0,0,0,0,0c0.2-0.1,0.4-0.3,0.5-0.5c0,0,0,0,0-0.1c0.2-0.2,0.4-0.4,0.6-0.6
		c0,0,0-0.1,0.1-0.1c0.2-0.2,0.4-0.5,0.5-0.8c0,0,0,0,0-0.1c0,0,0,0,0,0c0.7-1.2,1.4-2.9,1.5-5.2c0,0-0.5,0.8-1.3,1.6
		c0,0-0.1,0.1-0.1,0.1c-0.1,0.1-0.1,0.1-0.2,0.2c0,0-0.1,0.1-0.1,0.1c-0.1,0.1-0.1,0.1-0.2,0.2c0,0-0.1,0.1-0.1,0.1
		c-0.1,0.1-0.1,0.1-0.2,0.2c0,0-0.1,0.1-0.2,0.1c-0.1,0.1-0.1,0.1-0.2,0.2c-0.1,0-0.1,0.1-0.2,0.1c-0.1,0-0.1,0.1-0.2,0.1
		c-0.1,0-0.1,0.1-0.2,0.1c-0.1,0-0.1,0.1-0.2,0.1c-0.1,0-0.2,0.1-0.3,0.1c0,0-0.1,0-0.1,0c-0.1,0-0.3,0-0.4,0.1c0,0,0,0,0,0l0-0.4
		c0.1,0.2,0.2,0.2,0.2,0.2l0,0l0,0c0,0,0.1,0,0.2-0.1c0,0,0,0,0.1,0c0,0,0.1-0.1,0.1-0.1c0,0,0.1,0,0.1-0.1c0.1,0,0.1-0.1,0.2-0.1
		c0,0,0.1-0.1,0.1-0.1c0.1,0,0.1-0.1,0.2-0.1c0.1,0,0.1-0.1,0.2-0.1c0.1-0.1,0.1-0.1,0.2-0.2c0.1-0.1,0.1-0.1,0.2-0.2
		c0.1-0.1,0.1-0.1,0.2-0.2c0.1-0.1,0.1-0.1,0.2-0.2c0.1-0.1,0.1-0.2,0.2-0.2c0,0,0.1-0.1,0.1-0.1l0,0c1-1.2,2-3.2,2.1-6.1
		c0,0-2,3.2-4.2,3.4l0-0.2c0.1,0.1,0.1,0.2,0.1,0.2s4-1.8,4.3-8c0,0-1.9,3-4,3.4l0-0.1c1-0.6,3.7-2.8,4-7.8c0,0-1.5,2.4-3.4,3.2
		c0.2-1.2,0.4-0.4,1-1.1c1.4-1.7,3.9-3.9,5.4-7c0,0-3.3,2.5-5.5,1.5c0-1.2,0.1-3.2,0.7-5.4c1-3.5-4.5,9.6-4.3,15.2
		c0.1,3.8-0.5,10.7-0.7,15.8c0,0,0,0.1,0,0.1c0,0.2,0,0.4,0,0.7c0,0.1,0,0.1,0,0.2c0,0.2,0,0.4,0,0.6c0,0.1,0,0.1,0,0.2
		c0,0.2,0,0.4,0,0.6c0,0,0,0.1,0,0.1c0,0.2,0,0.4,0,0.7c0,0,0,0.1,0,0.1c0,0.2,0,0.3,0,0.5c0,0.1,0,0.1,0,0.2c0,0.1,0,0.2,0,0.3
		c0,0.1,0,0.1,0,0.2c0,0.1,0,0.2,0,0.3c0,0.1,0,0.1,0,0.2c0,0.1,0,0.2,0,0.3c0,0,0,0.1,0,0.1c0,0.1,0,0.2,0.1,0.3c0,0,0,0,0,0
		c0.2,0.7,0.5,2.2,0.8,3.9c-0.3,0.7,0,1.6,0.4,2.3l0.4,2.4c-0.4,0.7,0,1.6,0.4,2.4c0.1,0.6,0.2,1.3,0.3,1.9c-0.6,0.8,0,2,0.6,2.9
		c0.2,1.1,0.5,2.1,0.7,2.9c0.3,3.8,0.9,8.7,2.2,11.4c2.5,5.1,6.1,17.5,8.1,19.8c0.5,0.6,1.3,1.8,2.3,3.3c0,0.7,0.6,1.4,1.3,2l1.3,2
		c-0.1,0.7,0.6,1.5,1.3,2c0.4,0.5,0.7,1.1,1.1,1.6C241.7,70.5,242.6,71.4,243.5,72z"/>
	<polygon fill="#843538" points="242.8,83 242.8,83 242.8,83 	"/>
	<path fill="#843538" d="M245.1,89.2c-1.7-2.6-2.3-6.2-2.3-6.2c0,0-0.6,5.4,1.7,7.6c2.2,2.2,7.4,3.3,7.4,3.3S246.8,91.8,245.1,89.2z
		"/>
</g>
<path fill="#1F1A17" d="M238.7,60.3c-0.1-0.2-0.2-0.3-0.4-0.2c0,0,0.1,0.1,0.2,0.2c0.2,0.4-0.4,1.1-0.6,1.3
	c-0.2,0.4-0.5,0.8-0.8,1.2c-0.2,0.2-0.4,0.5-0.6,0.7c-0.6,0.8-1.3,1.6-2.1,2.3c-0.4,0.4-0.8,0.8-1.3,1.1c-0.5,0.4-1,0.6-1.5,0.8
	c-0.5,0.3-1.2,0.6-1.7,0.8c-0.3,0.1-0.8,0.1-1.1,0.2c-1.1,0.3-1.9,0.6-2.5,0.9c-0.8,0.4-1.3,1-1.6,1.3c0.1-0.3,0.2-0.6,0.3-0.8
	c0.2-0.4,0.5-0.8,0.8-1.1c0.4-0.3,0.8-0.5,1.3-0.8c0.3-0.2,0.7-0.3,1.1-0.5c0.3-0.2,0.4-0.3,0.7-0.5l-0.1-0.2
	c-0.6,0.5-1.2,0.8-1.7,1.1c-0.5,0.2-1,0.5-1.4,0.8c-0.3,0.3-0.6,0.6-0.8,1.1c-0.1,0.2-0.2,0.4-0.2,0.5c-0.1,0.2-0.1,0.5-0.2,0.7
	c0,0.1-0.1,0.3-0.1,0.4c-0.1,0-0.3-0.1-0.4-0.1c-0.8,0-1.5,0.7-1.5,1.5s0.7,1.5,1.5,1.5s1.5-0.7,1.5-1.5c0-0.6-0.4-1.1-0.9-1.4
	c0-0.1,0.1-0.1,0.2-0.2c0.2-0.4,0.7-0.9,1.7-1.4c0.8-0.4,1.9-0.8,3.4-1.1c1.1-0.3,2.4-0.9,3.4-1.7c0.5-0.3,1-0.8,1.4-1.2
	c1.1-1,2-2.1,2.8-3.1c0.3-0.4,0.5-0.8,0.8-1.2h0C238.3,61.4,238.8,60.7,238.7,60.3z M224.5,73.1L224.5,73.1c-0.3,0.1-0.7,0.1-1.2,0
	l0.3,0.4c0.1,0.1,0.1,0.2,0,0.3c-0.1,0-0.1,0-0.2-0.1l-0.1-0.1c0,0-0.1-0.1-0.1-0.1c0,0-0.1-0.1-0.1-0.1l-0.2-0.2l-0.1-0.1
	c0-0.1,0-0.2,0-0.2l0.1,0c0.1,0,0.4,0,1,0.1l0.1,0l0,0c-0.1-0.1-0.2-0.2-0.2-0.3l-0.1-0.1c-0.1-0.1-0.1-0.2,0-0.3
	c0.1,0,0.1,0,0.2,0.1h0l0.2,0.2C224.5,72.9,224.6,73.1,224.5,73.1z M224.6,72.3C224.6,72.2,224.6,72.2,224.6,72.3
	c0.1,0,0.2,0,0.2,0.1c0,0,0,0.1,0,0.1c0,0.1-0.1,0.1-0.2,0.1c-0.1,0-0.1,0-0.1-0.1c0,0,0,0,0-0.1C224.5,72.3,224.5,72.3,224.6,72.3z
	"/>
<g id="oko">
	<path fill="#FFFFFF" d="M256.2,84c0.2,0,0.4,0.2,0.4,0.4c0,0.2-0.2,0.4-0.4,0.4c-0.2,0-0.4-0.2-0.4-0.4C255.8,84.2,256,84,256.2,84
		z"/>
	<path fill="#FFFFFF" d="M256.2,84.3c0.2,0,0.4,0.1,0.4,0.1s-0.2,0-0.4,0c-0.2,0-0.4,0-0.4,0C256.1,84.3,256.1,84.3,256.2,84.3z"/>
</g>
</svg>
