<?xml version="1.0" encoding="utf-8"?>
<!-- Generator: Adobe Illustrator 18.1.1, SVG Export Plug-In . SVG Version: 6.00 Build 0)  -->
<svg version="1.1" id="Layer_1" xmlns="http://www.w3.org/2000/svg" xmlns:xlink="http://www.w3.org/1999/xlink" x="0px" y="0px"
	 viewBox="0 0 461 259" enable-background="new 0 0 461 259" xml:space="preserve">
<g>
	<path fill-rule="evenodd" clip-rule="evenodd" fill="#FFFFFF" d="M312,58.3c0,0.1-0.1,0.2-0.1,0.3c-0.1,0-0.1,0-0.2,0
		c-0.1,0-0.1,0-0.1,0s0.2,0.1,0.4,0.1c-0.2,0.5-0.6,1.2-1.1,1.6c-0.1,0.1-0.4,0.2-0.8,0.3c-0.7,0.2-1.4,0.4-2.2,0.4
		c-0.4,0-0.9-0.1-1.2-0.1c-0.9-0.1-1.7,0.3-2.4,0.3c-1.2,0.1-1.4,0.1-1.7-0.7c-0.1-0.4-0.3-0.5-0.4-0.8c0.2-0.4,0.5-0.8,0.7-0.9
		c0.3-0.1,1.1,0,1.9-0.1c2.4-0.3,6.2-0.9,7.2-0.7C312.3,57.8,312.1,58,312,58.3z"/>
	<path fill-rule="evenodd" clip-rule="evenodd" fill="#58595B" d="M302.2,59.6l0.5-0.8c0,0,0.1,0.2,2.4-0.1c0.9-0.1,2.2-0.2,3.9-0.5
		c0.4-0.1,2.8-0.4,2.9-0.2c0,0.1-0.2,0.2-0.6,0.4c-2.7,1-5.4,1.4-8.2,1.4C302.8,59.7,302.5,59.8,302.2,59.6z"/>
	<polygon fill="#58595B" points="308.2,58.8 308.1,57.5 307.9,56.7 307.7,54.7 307.4,51.9 307.3,51.6 307.4,51.6 307.5,51.9 
		307.6,52.6 307.8,53.9 308.1,55.8 308.3,57.5 308.5,58.7 	"/>
	<path fill-rule="evenodd" clip-rule="evenodd" fill="#FFFFFF" d="M307.7,57.6l-0.3-1.4l-0.1-2.1l-0.3-1.9c0,0-0.4,0.2-0.7,0.9
		c-0.1,0.2-0.2,0.4-0.4,0.7l0.4,0.2l-0.4-0.1c-0.1,0.1-0.1,0.1-0.1,0.1l0.4,0.5l-0.5-0.4c0,0,0,0.1-0.1,0.1
		c-0.2,0.4-0.5,0.9-0.8,1.3c-0.3,0.4-0.6,0.9-1,1.3c-0.1,0.1-0.4,0.4-0.6,0.5l0.2,0.3l-0.4-0.2c-0.1,0.1-0.1,0.1-0.1,0.1
		c-0.7,0.5-1.6,1-1.6,1c0.4-0.1,1.4-0.1,2-0.2c0.8-0.1,1.8-0.1,2.6-0.3C306.8,57.9,307.2,57.8,307.7,57.6z"/>
	<g>
		<g>
			<path fill-rule="evenodd" clip-rule="evenodd" fill="#231F20" d="M306.1,56.8L306.1,56.8C306.1,56.6,306.1,56.6,306.1,56.8
				L306.1,56.8L306.1,56.8L306.1,56.8L306.1,56.8L306.1,56.8z"/>
			<path fill-rule="evenodd" clip-rule="evenodd" fill="#231F20" d="M306,56.8L306,56.8C306,56.7,306.1,56.6,306,56.8L306,56.8
				L306,56.8L306,56.8z"/>
			<path fill-rule="evenodd" clip-rule="evenodd" fill="#231F20" d="M306.2,56.7L306.2,56.7L306.2,56.7
				C306.2,56.6,306.1,56.6,306.2,56.7C306.1,56.7,306.1,56.8,306.2,56.7L306.2,56.7L306.2,56.7L306.2,56.7L306.2,56.7L306.2,56.7
				L306.2,56.7z"/>
			<path fill-rule="evenodd" clip-rule="evenodd" fill="#231F20" d="M306,56.8C306,56.7,306,56.7,306,56.8L306,56.8
				C305.9,56.8,305.9,56.8,306,56.8L306,56.8L306,56.8L306,56.8L306,56.8L306,56.8z"/>
			<path fill-rule="evenodd" clip-rule="evenodd" fill="#231F20" d="M306.3,56.7C306.3,56.6,306.2,56.6,306.3,56.7L306.3,56.7
				L306.3,56.7L306.3,56.7L306.3,56.7L306.3,56.7L306.3,56.7L306.3,56.7L306.3,56.7L306.3,56.7z"/>
			<path fill-rule="evenodd" clip-rule="evenodd" fill="#231F20" d="M306.3,56.6C306.3,56.6,306.3,56.6,306.3,56.6L306.3,56.6
				L306.3,56.6L306.3,56.6C306.4,56.7,306.3,56.6,306.3,56.6z"/>
			<path fill-rule="evenodd" clip-rule="evenodd" fill="#231F20" d="M306.4,56.6L306.4,56.6C306.4,56.6,306.4,56.7,306.4,56.6
				C306.4,56.6,306.4,56.6,306.4,56.6L306.4,56.6L306.4,56.6C306.4,56.6,306.4,56.5,306.4,56.6z"/>
			<path fill-rule="evenodd" clip-rule="evenodd" fill="#231F20" d="M305.9,56.8C305.9,56.7,305.9,56.7,305.9,56.8L305.9,56.8
				L305.9,56.8L305.9,56.8L305.9,56.8L305.9,56.8L305.9,56.8z"/>
			<path fill-rule="evenodd" clip-rule="evenodd" fill="#231F20" d="M305.8,56.8C305.8,56.7,305.8,56.7,305.8,56.8L305.8,56.8
				L305.8,56.8C305.8,56.7,305.8,56.7,305.8,56.8L305.8,56.8L305.8,56.8L305.8,56.8z"/>
		</g>
		<g>
			<path fill-rule="evenodd" clip-rule="evenodd" fill="#231F20" d="M306.4,56.5L306.4,56.5L306.4,56.5c0-0.1,0-0.1,0-0.1
				c0,0,0,0.1,0.1,0l0,0c0.1-0.1,0.1-0.1,0.1-0.2c-0.1-0.1-0.1-0.1-0.1-0.1c0-0.1,0,0,0.1,0l0,0c0.1,0,0.1,0,0.1,0l0,0l0,0l0,0
				c0-0.1,0-0.1,0-0.1v0.1c0.1-0.1,0-0.3,0-0.4c-0.1-0.1-0.1-0.2-0.2-0.3c-0.1,0-0.1-0.1-0.1-0.1V56h0.1c0,0,0,0.1,0.1,0.1l0,0v0.1
				l0,0v0.1c0,0,0,0,0,0.1c0,0,0,0-0.1,0l0,0l0,0l0,0l0,0l0,0h-0.1v0.3l0,0h0.1l0,0l0,0l0,0l0,0l0,0l0,0l0,0l0,0l0,0l0,0
				C306.3,56.6,306.3,56.6,306.4,56.5L306.4,56.5L306.4,56.5L306.4,56.5L306.4,56.5L306.4,56.5L306.4,56.5L306.4,56.5L306.4,56.5
				L306.4,56.5L306.4,56.5L306.4,56.5L306.4,56.5L306.4,56.5C306.4,56.6,306.4,56.6,306.4,56.5z M306.2,55.3c0,0-0.1,0-0.1,0v1.1
				v0.1h0.1v0.1c0,0,0,0-0.1,0l0,0l0,0l0,0l0,0v0.1c0,0.1,0,0.1,0,0.1l0,0l0,0l0,0l0,0v-0.1l0,0l0,0c0.1,0,0.1,0,0.1,0l0,0l0,0l0,0
				v0.1v-0.1l0,0l0,0l0,0l0,0l0,0l0,0h0.1l0,0l0,0l0,0l0,0l0,0l0,0l0,0v-0.3l0,0c0,0,0,0-0.1-0.1l0,0c0-0.1-0.1-0.1-0.1-0.1v-0.1
				c0.1,0,0.1,0,0.1,0l0,0l0,0l0,0l0,0c0.1-0.1,0.1-0.1,0.1-0.1V55.3z M306.1,55.3c-0.1,0-0.1,0-0.2,0c0,0,0,0-0.1,0v0.8h0.1
				c0,0,0.1,0,0.1,0.1c0,0,0,0,0,0.1l0,0c0,0,0,0,0,0.1l0,0c0,0-0.1,0-0.1,0.1c0,0,0,0-0.1,0v0.3l0,0l0,0l0,0l0,0h0.1l0,0l0,0l0,0
				l0,0l0,0l0,0l0,0l0,0l0,0l0,0l0,0l0,0l0,0l0,0h0.1l0,0l0,0l0,0l0,0l0,0l0,0l0,0l0,0l0,0l0,0l0,0l0,0l0,0l0,0l0,0l0,0l0,0l0,0h0.1
				l0,0l0,0l0,0l0,0l0,0l0,0l0,0l0,0l0,0l0,0l0,0l0,0l0,0l0,0v-0.1l0,0c0.1,0,0.1,0,0.1,0l0,0l0,0l0,0v-0.1l0,0c0,0,0,0-0.1,0
				c0,0,0,0,0-0.1c0,0,0,0,0.1,0c0,0,0,0,0-0.1l0,0l0,0l0,0l0,0l0,0V55.3z M305.8,55.3c-0.1,0.1-0.3,0.2-0.4,0.4
				c0,0.1,0,0.4,0.1,0.5c0.1-0.1,0.1-0.1,0.1-0.1c0,0.1,0,0.1-0.1,0.1c0,0.1,0,0.1,0,0.1l0,0v0.1c0,0,0.1,0.1,0.1,0.1
				c0.1,0.1,0.1,0.1,0.1,0.1l0,0v0.1c0-0.1,0,0,0,0v-0.3l0,0c-0.1,0-0.1,0-0.1-0.1v-0.1h-0.1h0.1v-0.1l0,0c0,0,0-0.1,0.1-0.1l0,0
				V55.3z"/>
			<path fill-rule="evenodd" clip-rule="evenodd" fill="#231F20" d="M306.9,56.6c0,0-0.6,0.4-0.9,0.4c-0.3,0.1-0.4,0.1-0.5,0.1
				c-0.1,0-0.1-0.1-0.2-0.1c-0.1,0-0.1,0.1-0.1,0.1c0.1,0.1,0.1,0.1,0.1,0.1s-0.1,0.1-0.1,0.1c0.1,0.1,0.2,0,0.2-0.1
				c-0.1-0.1,0.2-0.1,0.3-0.2c0.1-0.1,0.5-0.2,0.7-0.3C306.7,56.8,306.9,56.7,306.9,56.6c0.1,0.1,0.2,0.1,0.3,0.1
				c0.1-0.1,0-0.1-0.1-0.1c0,0-0.1,0-0.1-0.1c0-0.1-0.1-0.1-0.1,0C306.9,56.5,306.9,56.6,306.9,56.6z"/>
			<path fill-rule="evenodd" clip-rule="evenodd" fill="#231F20" d="M305.3,56.8c0,0,0.7,0.2,1,0.3c0.2,0,0.4,0,0.5,0
				c0.1,0,0.1-0.1,0.1-0.1c0.1-0.1,0.1,0,0.1,0.1c0,0.1-0.1,0.1-0.1,0.1s0.1,0.1,0.1,0.2c-0.1,0-0.1,0.1-0.1-0.1s-0.3-0.1-0.4-0.1
				c-0.1,0-0.4-0.1-0.7-0.1C305.6,56.9,305.4,56.8,305.3,56.8c-0.1,0.1-0.1,0.2-0.2,0.1c-0.1,0-0.1-0.1,0-0.1
				c0.1-0.1,0.1-0.1,0.1-0.1c-0.1-0.1,0.1-0.1,0.1-0.1C305.3,56.8,305.3,56.8,305.3,56.8z"/>
		</g>
	</g>
	<path fill-rule="evenodd" clip-rule="evenodd" fill="#58595B" d="M307.4,51.2c0.1-0.1,0.3,0.1,0.3,0.2c0,0.2-0.1,0.4-0.3,0.4
		c-0.1,0-0.3-0.1-0.3-0.3C307.1,51.4,307.1,51.2,307.4,51.2z"/>
	<path fill-rule="evenodd" clip-rule="evenodd" fill="#D1D3D4" d="M311.8,58.9c-0.1,0.1-0.1,0.3-0.2,0.4c-0.3,0.1-0.6,0.2-0.9,0.3
		c-1.1,0.4-2.2,0.5-3.5,0.6c-1.7,0.3-3.7,0.3-4.6,0.3c0-0.1-0.1-0.1-0.1-0.1v-0.1c0.4,0,0.6,0,1.9,0c0.8,0,1.6-0.1,2.7-0.2
		c0.6-0.1,1.4-0.2,1.9-0.4c0.9-0.1,1.4-0.3,1.8-0.4C311.2,59.2,311.5,59.1,311.8,58.9z"/>
	<path fill-rule="evenodd" clip-rule="evenodd" fill="#FFFFFF" d="M308.6,57.5l-0.2-1.4l-0.3-2c-0.1-0.6-0.2-1.4-0.3-2
		c0.3,0.2,0.4,0.7,0.6,1c0.2,0.6,0.4,1.2,0.8,1.8c0,0.1-0.1,0.1,0,0.2c0,0.1,0.1,0.1,0.2,0.1l-0.4,0.3l0.4-0.2
		c0.3,0.6,0.7,1.2,1.3,1.9C310.1,57.3,309.6,57.5,308.6,57.5z"/>
</g>
<path fill-rule="evenodd" clip-rule="evenodd" fill="#D1EEFC" d="M447.1,61.6c0,0-1.5-1.2-4.1-0.9c-1.2,0.1-1.7,0.4-2.2,0.5
	c-3.6,0.4-1,1,0.9,0.2c0.9-0.4,1.9-0.5,3.4-0.3C446.5,61.3,447.1,61.6,447.1,61.6z"/>
<path fill-rule="evenodd" clip-rule="evenodd" fill="#D1EEFC" d="M426.2,62c0,0-1.5-1.1-4-0.9c-1.2,0.1-1.7,0.4-2.2,0.5
	c-0.6,0.1-1.2,0-2.5-0.1c-2.4-0.1-3.2-0.8-3.2-0.8s1,0.9,2.8,1.2c1.8,0.1,2.9,0.3,3.7-0.1c0.9-0.4,1.9-0.4,3.4-0.3
	C425.7,61.7,426.2,62,426.2,62z"/>
<path fill-rule="evenodd" clip-rule="evenodd" fill="#D1EEFC" d="M414.4,62.2c0,0-1.5-1.2-4-0.9c-1.2,0.1-1.7,0.4-2.2,0.5
	c-3.5,0.4-0.9,1,0.9,0.2c0.9-0.4,1.9-0.4,3.3-0.3C413.8,61.9,414.4,62.2,414.4,62.2z"/>
<path fill-rule="evenodd" clip-rule="evenodd" fill="#D1EEFC" d="M331,61.6c0,0-1.8-1.3-4.8-0.9c-1.3,0.1-2,0.5-2.6,0.6
	c-0.8,0.1-1.4,0-3-0.1c-2.8-0.2-3.8-1-3.8-1s1.3,1.2,3.4,1.4c2.2,0.2,3.4,0.4,4.5-0.1c1-0.4,2.2-0.5,4-0.4
	C330.3,61.4,331,61.6,331,61.6z"/>
<path fill-rule="evenodd" clip-rule="evenodd" fill="#D1EEFC" d="M316.9,61.9c0,0-1.8-1.3-4.8-1c-1.3,0.1-2,0.5-2.6,0.6
	c-4.2,0.6-1.2,1.2,1,0.3c1.1-0.5,2.2-0.6,4-0.4C316.3,61.6,316.9,61.9,316.9,61.9z"/>
<g>
	<path fill-rule="evenodd" clip-rule="evenodd" fill="#E1F4FD" d="M231,58.3c0.9-0.1,1.2,0.3,1.1,0.4c-0.1,0.1-0.5,0-0.6,0.6
		c0,0.4,0.1,0.7,0.1,1c0.1,0.8,0.6,1.2,1,1.5c0.9,0.9,2.1,0.9,4.8,0.1c5.3,0.6,13,1.3,18.9-1.4c4.5,1.2,10.4,0.1,14.5-1
		c2.7-0.7,4-1.3,6-1.3c1.7,0,2.5,0.7,4.4,0.9c4,0.4,9.4,0.4,13.3,0.5c1.3,0.3,2.3,0.9,4.4,1.2c4.6,0.5,11.2,0.3,14.4-1.7
		c1.9,1,4.1,0.2,7.3-0.6c1.2-0.3,4.7-0.9,5.8-1.3c1.9-0.6,2.5-1.4,3.9-1.9c1.4-0.5,2.3-0.4,3.2,0.1c-2,0.9-1.7,2.4-1.3,3.2
		c0.4,0.7,1.1,1.5,2.4,1.5c0.8-0.1,1.9-0.8,2.7-0.7c2.2,0.1,4.1,0.9,6.4,0.5c2.1-0.3,4.6-1.6,6.6-2.2c1.9-0.5,3.5-1.8,5.1-2
		c1.7-0.1,0.4,1.4,2.4,1.6c2.5,0.4,3.7,0.1,5.8,0.2c2,0.1,4.9,0.8,7.2,0.6c1.6-0.1,4.4-1.1,6.1-1.2c1.2,0,2.4-0.4,3.7-0.4
		c2.4,1.7,6,2.4,9.8,2.8c1,0.1,3.3,0.1,4.1,0.1c2,0,4.5-0.1,7.4-0.9c1.4-0.4,3.5-1.5,4.8-1.9c1.2-0.3,2.1,0.4,2.9,0.4
		c0.9-0.1,1.7-0.8,2.7-1.1c1.2,0.7,1.8,1.6,3.2,1.9c2.1,0.4,5.1,0.1,6.9,0.3c2.1,0.2,3,0.8,5,1.2c3,0.6,4.9,0.6,8.5,0.3
		c1.4-0.2,4.8-1.2,6-1.1c2.1,0.1,4.1,0.4,5.7,0.8c1.9,0.6,3.2,1.4,5.5,1.5c1.4,0.1,3.7-0.7,5.5-0.9c3.5-0.3,7.3,0.6,10.8,0.9
		c1.8,0.1,3.1-0.2,5-0.3c0.5-0.1,2.7-1.4,5-2.3c1.1-0.4,2.1,0,3.2-0.5c1.3-0.6,2.8-1,3.9-1.7c1.1-0.6,1.7-1.5,2.4-1.9
		c1.4-0.6,2.6-0.7,2.2,0.1c-1.7,3.2,4,3.4,5.2,3.4c0.9,0,1.8-0.1,2.7-0.3v112.2h-277v4.5H-36.8v-112c2.2-0.1,5.8-2.9,8.2-3.5
		c2.4-0.6,3.7,0.8,5.9,0.9c1.5,0.1,1.5,1.6,3,1.7c1.5,0.1,4.4-1.1,5.9-1c1.9,0.2,2.5,0.7,4.5,0.9c1.2,0.1,3.8-0.1,5,0
		c2.7,0.3,7-0.9,9.6-0.6c2.1,0.1,2.4,1.7,4.4,1.8c2.9,0.2,4.6,1.7,7.5,1.8c1.7,0.1,4.5-1.2,6.3-1.3c2.2,0,6.6-0.5,9.1-1.2
		c2.6-0.6,3.3-1.5,5.3-2c1.9,1.2,5.3,2,7.8,1.7c1.6-0.1,5.3,0.1,7.2,0.3s2.2,0.4,3.7,0.2c2.4-0.3,2.6,0.9,4.9,0.6
		c2.5-0.3,2.7,0.8,5.1,0.5c1.9-0.2,6-1.7,7.8-1.9c3-0.3,9.6-2.4,14-3c3.4-0.5,4.9,0.5,6.8,0.4c4-0.1,5,1.4,7.1,1.9
		c2.2,0.6,5.7,0.2,9.1,0.6c3.2,0.4,4.8,1.8,8.8,1.7c3.1-0.1,8.7-1.8,11.2-1.5c2.7,0.4,7.7,1.3,9.9,1.1c3.5-0.3,4-2.1,9.1-2
		c4.2,0.1,4.8,2.4,10.7,3.2c2.2,0.3,9.2-1.3,11.6-1c3.3,0.4,9.6-0.9,12.9-1.2c7.4-0.5,12-0.6,19.3,0.1c1.2,0.1,1.6,0.6,2.8,0.8
		c1.4,0.1,3.6,0.1,4.7,0.1c1.5,0.1,2-0.4,3.2-0.3c1.7,0.2,2.9,0.9,4.1,0.9c2.2-0.1,3.5-1.2,4.6-1.6C227.5,60.6,227.8,58.8,231,58.3z
		"/>
	<path fill-rule="evenodd" clip-rule="evenodd" fill="#D1EEFC" d="M458,69.9c0,0-1.7-1.5-4.7-1.2c-1.3,0.1-1.9,0.6-2.6,0.7
		c-0.8,0.1-1.4,0-3-0.1c-2.7-0.2-3.7-1.1-3.7-1.1s1.2,1.2,3.2,1.5c2.1,0.3,3.4,0.5,4.4,0c1-0.6,2.2-0.6,3.9-0.4
		C457.3,69.5,458,69.9,458,69.9z"/>
	<path fill-rule="evenodd" clip-rule="evenodd" fill="#D1EEFC" d="M444.2,70.1c0,0-1.7-1.5-4.7-1.2c-1.3,0.1-1.9,0.6-2.6,0.6
		c-4.1,0.6-1.2,1.4,1,0.3c1-0.5,2.2-0.6,3.9-0.4C443.6,69.8,444.2,70.1,444.2,70.1z"/>
	<path fill-rule="evenodd" clip-rule="evenodd" fill="#D1EEFC" d="M439.6,73.9c0,0-0.5-0.4-1.5-0.1s-0.9,0.4-1.9,0.3
		c-1.1-0.1-1.4-0.3-1.4-0.3s0.6,0.6,1.4,0.6c0.6,0,1.4,0,2.1-0.2C439,73.9,439.6,73.9,439.6,73.9z"/>
	<path fill-rule="evenodd" clip-rule="evenodd" fill="#D1EEFC" d="M470,80.8c0,0-1.8-1.5-4.8-1.2c-1.3,0.2-1.9,0.6-2.6,0.7
		c-0.7,0.1-1.4,0-3-0.1c-2.7-0.2-3.7-1.2-3.7-1.2s1.2,1.3,3.3,1.5c2.1,0.3,3.3,0.5,4.3,0c1.1-0.5,2.2-0.6,3.9-0.4
		C469.3,80.5,470,80.8,470,80.8z"/>
	<path fill-rule="evenodd" clip-rule="evenodd" fill="#D1EEFC" d="M419.1,77.9c0,0-1.8-1.5-4.8-1.2c-1.3,0.1-1.9,0.6-2.5,0.7
		c-4.1,0.6-1.2,1.3,0.9,0.3c1.1-0.6,2.2-0.6,3.9-0.4C418.5,77.6,419.1,77.9,419.1,77.9z"/>
	<path fill-rule="evenodd" clip-rule="evenodd" fill="#D1EEFC" d="M415.1,64.9c0,0-0.5-0.4-1.4-0.1c-1,0.3-0.9,0.4-1.9,0.3
		c-1-0.1-1.4-0.3-1.4-0.3s0.7,0.6,1.4,0.6c0.7,0,1.4,0,2.1-0.2C414.5,64.9,415.1,64.9,415.1,64.9z"/>
	<path fill-rule="evenodd" clip-rule="evenodd" fill="#D1EEFC" d="M121.1,78.7c0,0-0.1-0.1-0.5,0c-0.4,0.1-0.3,0.1-0.7,0.1
		c-0.4,0-0.5-0.1-0.5-0.1s0.3,0.2,0.5,0.2c0.2,0,0.5,0,0.7-0.1C120.9,78.7,121.1,78.7,121.1,78.7z"/>
	<path fill-rule="evenodd" clip-rule="evenodd" fill="#D1EEFC" d="M116.2,79c0,0,0.6,0.8,1.8,0.6c1.2-0.3,1.2-0.5,2.4-0.6
		c1.4-0.1,1.5,0.3,2.4,0.4c0.9,0.1,1.2,0.4,1.9-0.1c0.8-0.5-0.2,0.1-0.6,0.1c-0.3,0-0.5,0.1-0.7-0.1c-0.3-0.1-0.4,0-0.9-0.1
		c-0.5-0.1-0.6-0.3-0.9-0.4c-0.3-0.1-0.6-0.1-1-0.1c-0.5,0-0.7,0.1-1.2,0.2c-0.4,0.1-0.6,0.2-1.3,0.4c-0.8,0.1-0.8,0.1-1.2-0.1
		C116.5,79.1,116.2,79,116.2,79z"/>
	<path fill-rule="evenodd" clip-rule="evenodd" fill="#D1EEFC" d="M126.9,80c0,0-0.2-0.2-0.7-0.1c-0.5,0.1-0.4,0.1-0.9,0.1
		c-0.6-0.1-0.7-0.1-0.7-0.1s0.4,0.3,0.6,0.3c0.4,0,0.7,0,1.1-0.1C126.6,80,126.9,80,126.9,80z"/>
	<path fill="#D1EEFC" d="M90.9,76.9c-0.5,0.1-0.9,0.2-1.2,0.3c-0.4,0.1-0.7,0.1-1,0.1c-0.3-0.1-0.6-0.1-0.9-0.4
		c-0.2-0.3-0.3-0.9-0.2-1.2c0-0.2,0.1-0.5,0.3-0.6c0.3-0.4,1-0.4,1.3,0c0,0.1,0,0.3,0,0.4c-0.1,0.1-0.1,0.4-0.3,0.4c0,0,0,0,0.1,0
		c0.1,0,0.3-0.1,0.4-0.3c0-0.1,0.1-0.2,0.1-0.4c0.1-0.9-0.9-1.2-1.6-1.2c-1.1,0-1.2,1.4-1.7,2.3c-0.3,0.4-0.6,0.9-1,1.1
		c-0.4,0.2-0.9,0.2-1.4,0.1c-0.2,0-0.6-0.1-1,0c-0.6,0.2-0.7,0.1-0.9,0c-0.3-0.2-0.9-0.2-0.9-0.3c-0.1-0.1,0.6-0.3,1,0
		c0.1,0.1,0.3,0.1,0.8,0c0.5-0.1,0.8-0.2,1.1-0.2c0.9,0,1.3-0.1,1.9-0.9c0.6-0.8,0.7-1.5,1.2-2.2c0.6-0.9,2-0.8,2.7,0
		c0.1,0.1,0.5,0.7,0.4,1.3c0,0.3-0.3,0.6-0.5,0.7C89.3,76,89.1,76,88.9,76c-0.1,0-0.1-0.1-0.2-0.1l0,0c0,0-0.1-0.1-0.1-0.1
		c-0.2-0.2-0.1-0.4-0.1-0.4c0.1,0,0.1,0.1,0.2,0.2c0.1,0,0.1,0.1,0.1,0c0.1-0.1,0.1-0.1,0.1-0.2c0.1-0.1-0.1-0.3-0.3-0.4
		c-0.4-0.1-0.7,0.2-0.7,0.7c-0.1,0.6,0.4,1.1,0.8,1.1c0.3,0.1,0.6,0.1,0.9,0c0.3-0.1,0.6-0.1,1.1-0.2c0.4-0.1,1.2-0.2,1.7-0.1
		c0.9,0.2,1.3,0.7,1.4,0.9c0,0.1-0.2-0.1-0.4-0.2c-0.1-0.1-0.4-0.1-0.6-0.2C92.1,76.6,91.6,76.7,90.9,76.9z"/>
	<path fill-rule="evenodd" clip-rule="evenodd" fill="#D1EEFC" d="M81.9,76.4c0,0-0.5-0.6-2.2-0.4c-1.7,0.4-2.8,0.8-4.2,0.8
		c-1.3,0.1-1.7-0.2-1.7-0.2s-0.1,0.4,1.8,0.5c1.9,0.2,2.7-0.5,3.9-0.6C80.6,76.3,81.9,76.4,81.9,76.4z"/>
	<path fill-rule="evenodd" clip-rule="evenodd" fill="#D1EEFC" d="M92.4,77.4c0,0,0.6,0.6,2.3,0.4c1.7-0.2,2.1-0.9,3.1-0.7
		c0.9,0.1,1.4,0.6,1.4,0.6s-0.7-0.3-1.4-0.4c-0.7,0-1.2,0.5-2.1,0.6c-0.8,0.1-0.9,0.3-1.8,0.1C93.1,78.1,92.4,77.4,92.4,77.4z"/>
	<path fill-rule="evenodd" clip-rule="evenodd" fill="#D1EEFC" d="M88.1,80.2c0,0-0.4-0.4-1.4-0.1c-0.9,0.3-0.8,0.4-1.7,0.3
		c-0.9-0.1-1.3-0.3-1.3-0.3s0.6,0.5,1.2,0.5c0.6,0,1.3,0,1.9-0.1C87.5,80.2,88.1,80.2,88.1,80.2z"/>
	<path fill-rule="evenodd" clip-rule="evenodd" fill="#D1EEFC" d="M165.9,75.3c0,0-1.9-1.7-5.3-1.3c-1.4,0.1-2.2,0.6-2.9,0.8
		c-4.5,0.6-1.2,1.4,1.2,0.3c1.2-0.6,2.4-0.7,4.3-0.4C165.2,74.8,165.9,75.3,165.9,75.3z"/>
	<path fill-rule="evenodd" clip-rule="evenodd" fill="#D1EEFC" d="M160.7,79.4c0,0-0.6-0.4-1.7-0.1s-0.9,0.4-2.1,0.3
		c-1.2-0.1-1.6-0.3-1.6-0.3s0.7,0.6,1.5,0.6c0.7,0,1.5,0,2.3-0.2C160,79.4,160.7,79.4,160.7,79.4z"/>
	<path fill-rule="evenodd" clip-rule="evenodd" fill="#D1EEFC" d="M143.2,68.4c0,0-1.9-1.7-5.3-1.3c-1.4,0.2-2.2,0.6-2.9,0.8
		c-4.5,0.7-1.2,1.5,1.2,0.3c1.2-0.6,2.4-0.7,4.3-0.4S143.2,68.4,143.2,68.4z"/>
	<path fill-rule="evenodd" clip-rule="evenodd" fill="#D1EEFC" d="M138,72.5c0,0-0.6-0.4-1.7-0.1c-1.1,0.4-0.9,0.4-2.1,0.4
		c-1.2-0.1-1.6-0.4-1.6-0.4s0.7,0.6,1.5,0.6c0.7,0,1.5,0,2.3-0.2C137.3,72.5,138,72.5,138,72.5z"/>
	<path fill="#D1EEFC" d="M213.4,73.9c-0.7,0.2-1.4,0.4-1.9,0.4c-0.6,0.1-1.1,0.2-1.6,0.1c-0.4-0.1-1.1-0.2-1.4-0.6
		c-0.4-0.4-0.4-1.4-0.4-1.9c0-0.4,0.1-0.9,0.4-1.1c0.5-0.5,1.7-0.6,2,0.1c0.1,0.1,0.1,0.4,0.1,0.6c-0.1,0.3-0.2,0.5-0.4,0.6
		c0,0,0,0,0.1,0c0.2,0,0.4-0.2,0.6-0.4c0.1-0.2,0.1-0.4,0.1-0.6c0.1-1.4-1.4-1.9-2.5-1.9c-1.7,0-1.9,2.3-2.7,3.6
		c-0.4,0.7-0.9,1.4-1.6,1.7s-1.5,0.3-2.3,0.3c-0.4,0-0.9-0.3-1.5-0.1c-1,0.3-1.2,0.1-1.6,0c-0.4-0.4-1.4-0.3-1.5-0.4
		c-0.1-0.2,1.1-0.4,1.7,0c0.2,0.1,0.4,0.2,1.2,0C201,74,201.6,74,202,74c1.4,0,2-0.3,2.9-1.4c0.9-1.2,1.2-2.3,1.9-3.4
		c1-1.3,3.2-1.2,4.2-0.1c0.2,0.3,0.8,1.2,0.6,2.2c0,0.4-0.4,0.9-0.7,1.2c-0.2,0.1-0.4,0.2-0.7,0.2c-0.1,0-0.2-0.1-0.4-0.2l0,0
		c0-0.1-0.1-0.1-0.1-0.3c-0.3-0.4-0.3-0.6-0.1-0.6c0.1,0,0.1,0.2,0.3,0.3c0.1,0,0.1,0.1,0.2,0.1c0.1-0.1,0.2-0.2,0.2-0.4
		c0.1-0.3-0.2-0.6-0.4-0.6c-0.7-0.3-1.1,0.3-1.2,1.1c-0.1,0.9,0.5,1.7,1.3,1.8c0.4,0,0.9,0,1.3-0.1c0.5-0.1,1-0.1,1.7-0.4
		c0.7-0.2,1.8-0.4,2.7-0.1c1.5,0.4,2.1,1.2,2.2,1.4c0.1,0.1-0.3-0.2-0.6-0.4c-0.3-0.1-0.6-0.2-0.9-0.4
		C215.3,73.4,214.6,73.5,213.4,73.9z"/>
	<path fill-rule="evenodd" clip-rule="evenodd" fill="#D1EEFC" d="M199.1,73.1c0,0-0.9-1-3.5-0.5c-2.7,0.5-4.5,1.2-6.6,1.2
		c-2.1,0.1-2.7-0.4-2.7-0.4s-0.3,0.6,2.8,0.9c3,0.2,4.2-0.9,6.1-1.2C197.1,72.9,199.1,73.1,199.1,73.1z"/>
	<path fill-rule="evenodd" clip-rule="evenodd" fill="#D1EEFC" d="M215.8,74.7c0,0,0.9,1,3.7,0.6c2.7-0.3,3.2-1.3,4.8-1.1
		c1.6,0.1,2.2,1.1,2.2,1.1s-1.1-0.6-2.2-0.6c-1,0-1.9,0.7-3.2,0.9c-1.2,0.3-1.5,0.4-2.9,0.3C216.9,75.8,215.8,74.7,215.8,74.7z"/>
	<path fill-rule="evenodd" clip-rule="evenodd" fill="#D1EEFC" d="M209,79c0,0-0.7-0.6-2.1-0.2c-1.4,0.4-1.3,0.6-2.7,0.4
		c-1.5-0.1-2.1-0.4-2.1-0.4s1,0.9,1.9,0.9c1,0,1.9,0,3-0.3C208.1,79,209,79,209,79z"/>
	<path fill-rule="evenodd" clip-rule="evenodd" fill="#D1EEFC" d="M15.5,75.3c0,0-2.4-2.1-6.5-1.6c-1.8,0.2-2.7,0.8-3.5,0.9
		c-1.1,0.1-1.9,0-4.1-0.1c-3.7-0.3-5-1.5-5-1.5S-2,74.7,0.9,75c2.8,0.4,4.5,0.6,6-0.1c1.4-0.6,2.9-0.9,5.3-0.5
		C14.5,74.8,15.5,75.3,15.5,75.3z"/>
	<path fill-rule="evenodd" clip-rule="evenodd" fill="#D1EEFC" d="M347.2,69.4c0,0-2.1-1.8-5.5-1.4c-1.6,0.1-2.4,0.7-3.1,0.8
		c-0.9,0.1-1.7,0-3.5-0.1c-3.3-0.2-4.4-1.3-4.4-1.3s1.4,1.5,3.9,1.8c2.4,0.4,4,0.6,5.2,0c1.2-0.6,2.5-0.8,4.6-0.5
		C346.5,69,347.2,69.4,347.2,69.4z"/>
	<path fill-rule="evenodd" clip-rule="evenodd" fill="#D1EEFC" d="M330.9,69.7c0,0-2.1-1.8-5.6-1.4c-1.5,0.2-2.3,0.7-3,0.9
		c-4.9,0.7-1.4,1.6,1.2,0.3c1.2-0.6,2.5-0.7,4.6-0.4C330.1,69.4,330.9,69.7,330.9,69.7z"/>
	<path fill-rule="evenodd" clip-rule="evenodd" fill="#D1EEFC" d="M325.4,74.6c0,0-1.5-1.3-4.5-0.4c-3,0.9-2.7,1.2-5.9,0.9
		c-3.2-0.2-4.3-0.9-4.3-0.9s2.1,1.8,4.2,1.8c2.1,0,4.2,0,6.4-0.6C323.5,74.6,325.4,74.6,325.4,74.6z"/>
	<path fill-rule="evenodd" clip-rule="evenodd" fill="#D1EEFC" d="M250.4,68.8c0,0,2.1-1.8,5.6-1.4c1.5,0.1,2.3,0.7,3,0.8
		c0.9,0.1,1.7,0,3.5-0.1c3.3-0.2,4.4-1.3,4.4-1.3s-1.4,1.5-3.9,1.8c-2.5,0.4-4,0.6-5.2,0c-1.2-0.6-2.5-0.8-4.6-0.5
		S250.4,68.8,250.4,68.8z"/>
	<path fill-rule="evenodd" clip-rule="evenodd" fill="#D1EEFC" d="M266.8,69.1c0,0,2.1-1.8,5.6-1.4c1.5,0.2,2.3,0.7,3,0.9
		c4.8,0.7,1.4,1.6-1.2,0.3c-1.2-0.6-2.5-0.7-4.6-0.4C267.5,68.8,266.8,69.1,266.8,69.1z"/>
	<path fill-rule="evenodd" clip-rule="evenodd" fill="#D1EEFC" d="M272.3,74c0,0,1.5-1.3,4.5-0.4c3,0.9,2.7,1.1,5.8,0.9
		c3.2-0.2,4.4-0.9,4.4-0.9s-2.1,1.8-4.2,1.8c-2.1,0-4.2,0-6.4-0.7C274.2,74,272.3,74,272.3,74z"/>
</g>
</svg>
