<?xml version="1.0" encoding="utf-8"?>
<!-- Generator: Adobe Illustrator 18.1.1, SVG Export Plug-In . SVG Version: 6.00 Build 0)  -->
<svg version="1.1" id="Layer_1" xmlns="http://www.w3.org/2000/svg" xmlns:xlink="http://www.w3.org/1999/xlink" x="0px" y="0px"
	 viewBox="0 0 461 259" enable-background="new 0 0 461 259" xml:space="preserve">
<g>
	<g>
		<path fill-rule="evenodd" clip-rule="evenodd" fill="#939598" d="M407.1,153.3c-0.1-0.4-0.4-1.2-0.7-1.6h-0.2l0.1-0.1
			c-0.5-0.5-1.4-0.9-3.2-0.8c0,0,0.3,0.2,0.5,0.6l0.1-0.1l-0.1,0.2v0.1h0.4l-0.3,0.1c0.1,0.4,0.1,0.7,0,1.2
			c-0.1,0.6,0.8,0.2,1.4,0.2c0.4,0.1,0.6,0.1,0.9,0.1C406.8,153.3,407.1,153.3,407.1,153.3z"/>
		<path fill-rule="evenodd" clip-rule="evenodd" fill="#D1EEFC" d="M-6.2,152.4c0.6-0.1,1.1-0.1,1.7-0.3c0.7-0.2,1.6-0.8,2.2-0.9
			c0.7-0.1,1.6,0,2.2-0.1c1.7-0.2,2.2,0.3,2,0.4c-0.1,0.2-0.9,0.1-1,0.9c-0.1,0.4-0.1,0.9-0.1,1.2c0.1,1,1.4,1.3,2.1,1.7
			c0.9,0.6,1.4,1,2.6,1.2c0.9,0.1,2.4-0.1,3.4,0c2.8,0.2,3.7,0.9,7.1,0.9c1.2-0.1,5-0.4,6.3-0.6c1-0.2,2.4-0.9,3.3-1.2
			c1.9,0.4,4.2,0.7,6.1,0.6c2.7-0.1,5.1-0.9,7.3-1.2c2-0.4,3.2-0.7,4.7-0.7c1,0,1.6,0.2,2.4,0.2c0.7,0.1,1.9-0.1,2.7-0.1
			c0.7,0,1.4,0.3,2.2,0.4c0.8,0.1,2.6,0.1,3.5,0.1c0.6,0.1,1.3,0.3,1.9,0.3c0.4,0.1,0.9,0.1,1.4,0.1c0.4,0.1,1.1-0.1,1.5-0.1
			c0.5,0.1,1.9,0,2.7,0c0.6,0,0.5,0.1,1.4,0c0.6,0,1.5-0.2,2.1-0.3c0.6,0,1.4,0.2,1.9,0.1c0.6-0.1,0.8-0.4,1.4-0.4
			c1.2-0.2,2.2-0.4,3.3-0.6c1.1-0.3,2-0.6,2.9-1c1,0.4,2.4,0.1,3.7,0c0.9-0.1,1.7-0.2,2.8-0.4c0.3-0.1,0.9,0,1.5,0
			c0.4,0,0.9-0.2,1.3-0.3c0.9-0.1,1.9-0.5,2.3-0.6c0.7-0.1,1.3-0.5,1.8-0.7c0.6-0.2,0.9-0.2,1.7-0.4c1.2-0.3,2-0.2,2.8,0.1
			c-1.8,0.5-1.5,1.4-1.2,1.9c0.3,0.4,0.9,0.7,2,0.7c0.7,0,1.9-0.3,2.6-0.2c0.9,0,1.2,0.6,2,0.7c0.8,0.1,2.2-0.2,3.1-0.2
			c1.2,0,3-0.4,4-0.3c2.1,0.1,3.4,0.6,5.5,0.7c1.6,0.1,2.7-0.5,4.5-0.4c2.4,0.3,4.4,0.1,6.3,0.1c1.5,0.1,3,0.4,4.8,0.3
			c1.6-0.1,4.1-0.6,5.8-0.6c1.2-0.1,2.2-0.3,3.4-0.3c1.4,0.6,4.8,0.6,7.1,0.9c2.3,0.3,3.5,0.9,5.2,0.9c1.8,0,4.2,0.2,6.8-0.3
			c1.3-0.3,2.8-1.2,4-1.4c2.1-0.4,3-0.1,4.9-0.4c1.7,0.6,3.1,2.2,4.8,2.4c2.8,0.4,5.8-0.9,8.7-0.4c1.8,0.3,5.1-0.5,7.4-0.7
			c2.3-0.2,3.5,0.1,5.5,0.2c3,0.1,4.5,0.7,7.1,0.9c2,0.2,5,0.1,7.7-0.1c2.4-0.1,4.6,0.4,6.9,0.6c2.2,0.2,4.6-0.1,7.1-0.1
			c0.6-0.1,3.1-1.2,6.3-2.2c2.3-0.7,5.2-1.2,6.6-1.7c1.3-0.4,2.3-0.4,1.9,0c-1.5,2,3.5,2.1,4.6,2.1c2.7,0,4.8,0.1,7.5-0.4
			c1.7-0.2,4.2-1.3,5.8-1.2c1.3,0.1,2.1,0.4,3.4,0.4c1.3,0.1,3.1-0.1,4.4,0c1.4,0.1,1.5,0.6,3,0.7c1.4,0.1,4-0.2,5.5-0.1
			c2.1,0.1,2.4,1.1,4.5,1.2c2.1,0.1,5.9-0.6,8-0.4c1.5,0.1,3.8-0.5,5.3-0.4c2.6,0.1,4.3,0.7,6.8,0.7c2.5,0,6.8,0.3,9.5-0.3
			c1.7-0.3,1.9-1.4,3.2-1.7c1.8,0.7,4.8,1.2,7,1.1c1.4-0.1,3.1-0.8,4.8-0.6c1.7,0.1,3.5,1.1,4.9,0.9c2.1-0.1,2.3,0.6,4.3,0.4
			c2-0.2,4.7-0.6,6.6-0.7c1.9-0.1,3-0.1,4.9-0.1c3.1-0.2,7.9-0.5,12.2-0.2c2.2,0.2,4.7,1,6,0.9c7.2-0.1,8.4-1.2,14.4-0.7
			c2.7,0.1,7.1,0.4,10.5,0.4c3-0.1,4.9-0.5,7.1-0.3c3.2,0.2,6.6-0.5,9.1-0.7c2.5-0.2,4.1,0.1,7.7,0.1c3.7,0.1,4.2,1.5,9.4,1.9
			c1.5,0.1,5.6-1,8.4-1.2c0.9-0.1,1.4,0.5,1.9,0.6c1.4,0.1,5.1,0.7,7.8,0.6c1.6-0.1,2.2-0.8,3.7-0.9c3.7-0.3,5.6-0.6,8.9-0.9
			c4-0.2,5.3,0.3,8.1,0.5c2.8,0.2,3.5,0.6,5.3,0.6c2.8,0,6.2-0.6,9.7-0.7c0.1,0,0.3,0,0.4,0v77.5H-6.2V152.4z"/>
		<path fill-rule="evenodd" clip-rule="evenodd" fill="#8ED8F8" d="M42.3,167.3c0,0-0.1-0.1-0.4,0c-0.4,0.1-0.3,0.1-0.6,0.1
			c-0.3-0.1-0.4-0.1-0.4-0.1s0.2,0.1,0.4,0.1s0.4,0,0.6,0C42,167.3,42.3,167.3,42.3,167.3z"/>
		<path fill-rule="evenodd" clip-rule="evenodd" fill="#8ED8F8" d="M37.9,167.5c0,0,0.5,0.5,1.6,0.4c1.1-0.1,1-0.3,2.2-0.4
			c1.2-0.1,1.3,0.2,2.1,0.2c0.8,0.1,1,0.2,1.7,0c0.7-0.3-0.2,0-0.5,0c-0.3,0-0.4,0.1-0.6,0c-0.3-0.1-0.3,0-0.7-0.1
			c-0.5-0.1-0.6-0.1-0.9-0.2c-0.3,0-0.5,0-0.9,0c-0.4,0-0.6,0-1,0.1c-0.4,0.1-0.5,0.1-1.2,0.2c-0.6,0.1-0.6,0.1-1.1,0
			C38.2,167.6,37.9,167.5,37.9,167.5z"/>
		<path fill-rule="evenodd" clip-rule="evenodd" fill="#8ED8F8" d="M47.4,168.1c0,0-0.2-0.1-0.6-0.1c-0.4,0.1-0.4,0.1-0.9,0.1
			c-0.4,0-0.6-0.1-0.6-0.1s0.4,0.2,0.6,0.2c0.3,0,0.6,0,0.9-0.1C47.1,168.1,47.4,168.1,47.4,168.1z"/>
		<path fill="#8ED8F8" d="M15.5,166.3c-0.4,0.1-0.8,0.1-1.1,0.1c-0.3,0.1-0.6,0.1-0.9,0.1c-0.3-0.1-0.6-0.1-0.8-0.3
			c-0.2-0.1-0.2-0.5-0.2-0.7c0-0.1,0.1-0.3,0.2-0.4c0.3-0.2,0.9-0.2,1.2,0.1c0.1,0,0.1,0.1,0.1,0.2c-0.1,0.1-0.1,0.2-0.3,0.2h0.1
			c0.1,0,0.3-0.1,0.3-0.1c0.1-0.1,0.1-0.1,0.1-0.2c0.1-0.5-0.7-0.7-1.4-0.7c-0.9-0.1-1.1,0.8-1.5,1.4c-0.3,0.2-0.5,0.5-0.9,0.6
			c-0.4,0.1-0.9,0.1-1.3,0.1c-0.2,0-0.5-0.1-0.9,0c-0.6,0.1-0.7,0.1-0.9,0c-0.3-0.1-0.9-0.1-0.9-0.1c-0.1-0.1,0.6-0.2,0.9-0.1
			c0.1,0.1,0.2,0.1,0.7,0c0.4-0.1,0.6-0.1,0.9-0.1c0.8,0,1.2-0.1,1.7-0.6c0.5-0.4,0.6-0.9,1-1.2c0.6-0.6,1.8-0.5,2.4-0.1
			c0.1,0.1,0.5,0.4,0.4,0.8c0,0.1-0.3,0.4-0.4,0.5c-0.1,0-0.3,0.1-0.4,0.1s-0.1-0.1-0.2-0.1l0,0c-0.1-0.1-0.1-0.1-0.1-0.1
			c-0.1-0.1-0.1-0.2-0.1-0.2c0.1,0,0.1,0.1,0.1,0.1c0.1,0,0.1,0.1,0.1,0c0.1,0,0.1-0.1,0.1-0.1c0.1-0.1-0.1-0.2-0.2-0.3
			c-0.4-0.1-0.6,0.1-0.7,0.4c0,0.4,0.4,0.6,0.8,0.7c0.2,0,0.4,0,0.7-0.1c0.3,0,0.6,0,0.9-0.1c0.4-0.1,1-0.1,1.5-0.1
			c0.9,0.1,1.2,0.4,1.3,0.5c0.1,0.1-0.1-0.1-0.4-0.1c-0.1,0-0.4-0.1-0.5-0.1C16.6,166,16.2,166.1,15.5,166.3z"/>
		<path fill-rule="evenodd" clip-rule="evenodd" fill="#8ED8F8" d="M7.6,166c0,0-0.5-0.4-2-0.2c-1.4,0.1-2.5,0.4-3.7,0.4
			c-1.2,0.1-1.6-0.1-1.6-0.1s-0.1,0.2,1.6,0.4c1.7,0.1,2.4-0.4,3.5-0.4C6.4,165.8,7.6,166,7.6,166z"/>
		<path fill-rule="evenodd" clip-rule="evenodd" fill="#8ED8F8" d="M16.8,166.6c0,0,0.5,0.4,2.1,0.2c1.5-0.1,1.8-0.5,2.7-0.4
			c0.9,0.1,1.2,0.4,1.2,0.4s-0.6-0.2-1.2-0.2s-1.1,0.3-1.8,0.4c-0.7,0.1-0.9,0.2-1.7,0.1S16.8,166.6,16.8,166.6z"/>
		<path fill-rule="evenodd" clip-rule="evenodd" fill="#8ED8F8" d="M13,168.2c0,0-0.4-0.2-1.2-0.1s-0.7,0.2-1.5,0.1
			c-0.9-0.1-1.2-0.1-1.2-0.1s0.5,0.3,1.1,0.3c0.5,0,1.1,0,1.7-0.1C12.6,168.2,13,168.2,13,168.2z"/>
		<path fill-rule="evenodd" clip-rule="evenodd" fill="#8ED8F8" d="M5.6,169.7c0,0-0.4-0.1-0.9-0.1c-0.6,0.1-0.6,0.1-1.2,0.1
			s-0.9-0.1-0.9-0.1s0.4,0.3,0.9,0.3s0.8,0,1.3-0.1C5.2,169.7,5.6,169.7,5.6,169.7z"/>
		<path fill-rule="evenodd" clip-rule="evenodd" fill="#8ED8F8" d="M81.9,165.3c0,0-1.7-1.1-4.6-0.8c-1.3,0.1-1.9,0.4-2.5,0.4
			c-4,0.4-1.2,0.9,1,0.2c1-0.4,2.1-0.4,3.8-0.3C81.3,165,81.9,165.3,81.9,165.3z"/>
		<path fill-rule="evenodd" clip-rule="evenodd" fill="#8ED8F8" d="M77.3,167.7c0,0-0.5-0.3-1.4-0.1c-1,0.2-0.9,0.2-1.9,0.2
			c-1-0.1-1.4-0.2-1.4-0.2s0.6,0.4,1.4,0.4c0.6,0,1.3,0,2-0.2C76.7,167.7,77.3,167.7,77.3,167.7z"/>
		<path fill-rule="evenodd" clip-rule="evenodd" fill="#8ED8F8" d="M61.8,161.1c0,0-1.8-1-4.7-0.7c-1.3,0.1-1.9,0.4-2.5,0.4
			c-4,0.4-1.2,0.9,1,0.2c1-0.4,2.1-0.4,3.8-0.3S61.8,161.1,61.8,161.1z"/>
		<path fill-rule="evenodd" clip-rule="evenodd" fill="#8ED8F8" d="M57.2,163.6c0,0-0.5-0.3-1.4-0.1c-1,0.1-0.9,0.2-1.9,0.1
			c-1.1,0-1.4-0.1-1.4-0.1s0.7,0.4,1.4,0.4s1.3,0,2-0.1C56.6,163.6,57.2,163.6,57.2,163.6z"/>
		<path fill-rule="evenodd" clip-rule="evenodd" fill="#8ED8F8" d="M217.4,160.1c0,0-1.7-1-4.7-0.8c-1.3,0.1-1.9,0.4-2.5,0.5
			c-4,0.4-1.1,0.9,1,0.1c1-0.3,2.1-0.4,3.8-0.2S217.4,160.1,217.4,160.1z"/>
		<path fill-rule="evenodd" clip-rule="evenodd" fill="#8ED8F8" d="M212.8,162.7c0,0-0.5-0.3-1.4-0.1c-1,0.1-0.9,0.2-1.9,0.1
			c-1.1,0-1.4-0.1-1.4-0.1s0.7,0.4,1.4,0.4s1.3,0,2-0.1C212.1,162.7,212.8,162.7,212.8,162.7z"/>
		<path fill-rule="evenodd" clip-rule="evenodd" fill="#8ED8F8" d="M450.4,161.8c0,0-2.8-1.7-7.6-1.3c-2.1,0.2-3.2,0.6-4.2,0.8
			c-1.2,0.1-2.2,0-4.8-0.1c-4.4-0.2-5.9-1.2-5.9-1.2s1.9,1.4,5.3,1.7c3.4,0.3,5.4,0.5,7.1-0.1s3.4-0.7,6.3-0.4
			C449.4,161.4,450.4,161.8,450.4,161.8z"/>
		<path fill-rule="evenodd" clip-rule="evenodd" fill="#8ED8F8" d="M428.3,162.1c0,0-2.8-1.7-7.6-1.3c-2,0.2-3.1,0.7-4.1,0.8
			c-6.6,0.7-1.8,1.5,1.6,0.3c1.7-0.6,3.5-0.6,6.3-0.4C427.2,161.7,428.3,162.1,428.3,162.1z"/>
		<path fill-rule="evenodd" clip-rule="evenodd" fill="#8ED8F8" d="M420.8,166.2c0,0-0.8-0.5-2.4-0.1c-1.6,0.3-1.4,0.4-3.1,0.3
			c-1.7-0.1-2.2-0.3-2.2-0.3s1.1,0.6,2.2,0.6c1.1,0,2.2,0,3.3-0.3C419.8,166.2,420.8,166.2,420.8,166.2z"/>
		<path fill-rule="evenodd" clip-rule="evenodd" fill="#8ED8F8" d="M392,160.7c0,0-1.9-1.2-5-0.9c-1.4,0.1-2.1,0.4-2.7,0.5
			c-0.8,0.1-1.4,0-3.1-0.1c-2.9-0.1-3.9-0.8-3.9-0.8s1.3,0.9,3.5,1.1c2.2,0.2,3.5,0.4,4.6,0c1.1-0.4,2.2-0.4,4-0.3
			C391.2,160.4,392,160.7,392,160.7z"/>
		<path fill-rule="evenodd" clip-rule="evenodd" fill="#8ED8F8" d="M377.5,160.9c0,0-1.9-1.1-5-0.8c-1.4,0.1-2,0.4-2.7,0.5
			c-4.3,0.4-1.2,0.9,1,0.2c1.1-0.4,2.2-0.5,4.1-0.3C376.8,160.6,377.5,160.9,377.5,160.9z"/>
		<path fill-rule="evenodd" clip-rule="evenodd" fill="#8ED8F8" d="M372.6,163.8c0,0-1.4-0.8-4-0.2c-2.7,0.5-2.4,0.6-5.2,0.5
			c-2.9-0.1-3.9-0.5-3.9-0.5s1.9,1.1,3.7,1.1c1.8,0,3.7,0,5.7-0.4C370.9,163.8,372.6,163.8,372.6,163.8z"/>
		<path fill-rule="evenodd" clip-rule="evenodd" fill="#8ED8F8" d="M364.7,168.3c0.3-0.1-1.9-0.1-4.1-1s-2.6,0.9-8.9,1
			c-6.3,0.1,1.2,0.1,2.2,0.1c1,0,3.7-0.6,4.3-0.8c0.6-0.2,1.2-0.4,1.7-0.2s1.5,0.5,2.3,0.6C362.9,168.2,364.5,168.4,364.7,168.3z"/>
		<path fill-rule="evenodd" clip-rule="evenodd" fill="#8ED8F8" d="M187.6,209c0,0-1.8-1.1-5.4-0.4c-3.6,0.7-3.2,0.9-7,0.7
			c-3.8-0.2-5.2-0.7-5.2-0.7s2.5,1.4,5,1.4s5,0,7.6-0.6C185.3,209,187.6,209,187.6,209z"/>
		<path fill-rule="evenodd" clip-rule="evenodd" fill="#8ED8F8" d="M177,214.9c0.3-0.1-2.6-0.1-5.5-1.4c-3-1.2-3.5,1.2-12,1.4
			c-8.6,0.1,1.7,0.2,3,0.2c1.3,0,4.9-0.8,5.8-1.1c0.8-0.2,1.5-0.5,2.2-0.3c0.7,0.2,2.1,0.7,3.2,0.9S176.7,215.1,177,214.9z"/>
		<path fill-rule="evenodd" clip-rule="evenodd" fill="#8ED8F8" d="M233.6,217.2c0,0-1-0.6-2.9-0.2c-1.9,0.4-1.7,0.5-3.8,0.4
			c-2.1-0.1-2.8-0.4-2.8-0.4s1.4,0.8,2.7,0.8c1.3,0,2.7,0,4.2-0.3C232.3,217.2,233.6,217.2,233.6,217.2z"/>
		<path fill-rule="evenodd" clip-rule="evenodd" fill="#8ED8F8" d="M227.9,220.5c0.1-0.1-1.4-0.1-3-0.7c-1.6-0.6-1.9,0.6-6.6,0.7
			c-4.6,0.1,0.9,0.1,1.7,0.1c0.6,0,2.7-0.5,3.1-0.6c0.4-0.1,0.9-0.3,1.2-0.1s1.1,0.4,1.7,0.5C226.6,220.4,227.7,220.6,227.9,220.5z"
			/>
		<path fill-rule="evenodd" clip-rule="evenodd" fill="#8ED8F8" d="M327.3,205.8c0,0-1-0.6-3-0.2c-2,0.4-1.7,0.5-3.8,0.4
			c-2.1-0.1-2.8-0.4-2.8-0.4s1.4,0.8,2.7,0.8c1.4,0,2.7,0,4.2-0.3C326.1,205.8,327.3,205.8,327.3,205.8z"/>
		<path fill-rule="evenodd" clip-rule="evenodd" fill="#8ED8F8" d="M321.5,209c0.1-0.1-1.4-0.1-3-0.7c-1.7-0.6-1.9,0.6-6.6,0.7
			c-4.7,0.1,0.9,0.1,1.6,0.1s2.7-0.4,3.1-0.6c0.5-0.1,0.9-0.3,1.2-0.2c0.4,0.1,1.2,0.4,1.7,0.5C320.2,209,321.3,209.1,321.5,209z"/>
		<path fill-rule="evenodd" clip-rule="evenodd" fill="#8ED8F8" d="M325.4,224.9c0.2-0.1-1.9-0.1-4.2-1c-2.2-0.9-2.6,0.9-8.9,1
			c-6.3,0.1,1.2,0.2,2.2,0.2c0.9,0,3.6-0.6,4.2-0.9c0.6-0.1,1.2-0.4,1.7-0.2s1.5,0.6,2.4,0.6C323.6,224.8,325.1,225,325.4,224.9z"/>
		<path fill-rule="evenodd" clip-rule="evenodd" fill="#FFFFFF" d="M391.5,172.2c-0.4-0.2-0.8-1.3-0.9-1.3c-0.9,0-1.4,0.1-1.8-0.1
			c-0.9-0.5-0.9-1.4-0.9-1.8c0.2,0.2,0.2,0.9,1.4,0.6c0.7-0.2,1.3,0.3,1.3,0.3c0-0.6,0.9-0.4,1.4-0.7c0.4-0.2,0.3-1.1,0.3-1.1
			c0.5,0.6,0.9,1.2,0.5,1.9c-0.1,0.3-0.6,0.8-1.2,0.9c0,0,0.4,0.9,1.1,1.1c0.1,0.1-0.1,0.1-0.1,0.1c-0.1,0-0.3-0.1-0.4,0.1
			c-0.1,0.1-0.1,0-0.3,0.1C391.5,172.2,391.5,172.2,391.5,172.2z"/>
		<path fill-rule="evenodd" clip-rule="evenodd" fill="#8ED8F8" d="M405.1,173c0.4-0.2-3.2-0.2-6.8-1.7c-3.7-1.5-4.4,1.4-15,1.7
			c-10.6,0.1,2.1,0.3,3.7,0.3c1.6,0,6-1,7.1-1.4c1.1-0.3,1.9-0.6,2.8-0.4c0.9,0.2,2.5,0.9,3.9,1.1
			C402.2,172.9,404.8,173.2,405.1,173z"/>
		<path fill="#8ED8F8" d="M124,164.4c-0.6,0.1-1.2,0.2-1.7,0.3c-0.4,0.1-0.9,0.1-1.3,0.1c-0.4,0-1-0.1-1.3-0.4
			c-0.3-0.3-0.4-0.9-0.3-1.2c0-0.3,0.1-0.6,0.4-0.7c0.4-0.3,1.5-0.4,1.8,0.1c0.1,0.1,0.1,0.2,0.1,0.4c-0.1,0.2-0.2,0.4-0.4,0.4
			c0.1,0,0.1,0,0.1,0c0.2,0,0.4-0.1,0.6-0.3c0-0.1,0.1-0.2,0.1-0.3c0.1-0.9-1.2-1.2-2.2-1.2c-1.5,0-1.7,1.4-2.4,2.2
			c-0.4,0.4-0.8,0.8-1.4,1c-0.6,0.2-1.4,0.2-2.1,0.2c-0.4,0-0.7-0.2-1.4-0.1c-0.9,0.2-1.1,0.1-1.4,0c-0.4-0.2-1.3-0.2-1.4-0.3
			c-0.1-0.1,1-0.2,1.5,0c0.2,0.1,0.4,0.1,1.2,0c0.6-0.1,1.1-0.1,1.5-0.1c1.2,0,1.7-0.1,2.6-0.9c0.8-0.8,0.9-1.4,1.7-2
			c0.9-0.9,2.8-0.8,3.7-0.1c0.2,0.1,0.7,0.7,0.6,1.3c-0.1,0.2-0.4,0.5-0.7,0.7c-0.1,0.1-0.4,0.1-0.6,0.1c-0.1,0-0.2-0.1-0.3-0.1l0,0
			c-0.1-0.1-0.1-0.1-0.2-0.2c-0.2-0.2-0.2-0.4-0.1-0.4c0,0,0.1,0.1,0.2,0.1c0.1,0,0.1,0.1,0.2,0.1c0.1-0.1,0.2-0.1,0.2-0.2
			c0.1-0.2-0.2-0.4-0.4-0.4c-0.6-0.1-0.9,0.2-1,0.6c-0.1,0.5,0.5,1,1.2,1.1c0.4,0,0.7,0,1.2-0.1c0.4,0,0.9-0.1,1.5-0.2
			c0.6-0.1,1.6-0.2,2.4-0.1c1.4,0.3,1.9,0.7,2.1,0.9c0.1,0.1-0.3-0.1-0.6-0.2c-0.2-0.1-0.6-0.1-0.8-0.2
			C125.7,164.1,125.1,164.2,124,164.4z"/>
		<path fill-rule="evenodd" clip-rule="evenodd" fill="#8ED8F8" d="M111.3,164c0,0-0.7-0.6-3.1-0.4c-2.3,0.4-4,0.7-5.8,0.8
			c-1.9,0-2.4-0.2-2.4-0.2s-0.2,0.4,2.4,0.5c2.7,0.1,3.7-0.5,5.5-0.7C109.6,163.8,111.3,164,111.3,164z"/>
		<path fill-rule="evenodd" clip-rule="evenodd" fill="#8ED8F8" d="M126.1,164.9c0,0,0.8,0.6,3.2,0.4c2.4-0.2,2.9-0.8,4.3-0.7
			c1.4,0.1,1.9,0.6,1.9,0.6s-1-0.3-1.9-0.3c-0.9,0-1.7,0.4-2.9,0.6c-1.2,0.1-1.4,0.2-2.6,0.1C127.1,165.5,126.1,164.9,126.1,164.9z"
			/>
		<path fill-rule="evenodd" clip-rule="evenodd" fill="#8ED8F8" d="M120.1,167.5c0,0-0.6-0.4-1.9-0.1c-1.3,0.2-1.1,0.3-2.4,0.2
			c-1.3-0.1-1.8-0.2-1.8-0.2s0.9,0.5,1.7,0.5s1.7,0,2.7-0.2C119.3,167.5,120.1,167.5,120.1,167.5z"/>
		<path fill-rule="evenodd" clip-rule="evenodd" fill="#8ED8F8" d="M108.3,169.9c0,0-0.5-0.3-1.5-0.1c-0.9,0.1-0.8,0.2-1.9,0.1
			c-1,0-1.4-0.1-1.4-0.1s0.6,0.4,1.3,0.4c0.7,0,1.4,0,2.1-0.1S108.3,169.9,108.3,169.9z"/>
		<path fill-rule="evenodd" clip-rule="evenodd" fill="#8ED8F8" d="M261.1,158.1c0,0-1.2-0.7-3.7-0.3c-2.4,0.5-2.2,0.6-4.8,0.5
			c-2.6-0.1-3.5-0.5-3.5-0.5s1.7,1,3.4,1c1.7,0,3.4,0,5.2-0.4C259.6,158.1,261.1,158.1,261.1,158.1z"/>
		<path fill-rule="evenodd" clip-rule="evenodd" fill="#8ED8F8" d="M253.9,162.2c0.2-0.1-1.7-0.1-3.7-0.9c-2-0.8-2.4,0.8-8.2,0.9
			c-5.8,0.1,1.2,0.1,2,0.1s3.3-0.6,3.9-0.7c0.6-0.2,1.1-0.4,1.6-0.2c0.4,0.1,1.4,0.5,2.1,0.6C252.3,162.1,253.6,162.3,253.9,162.2z"
			/>
		<path fill-rule="evenodd" clip-rule="evenodd" fill="#D1EEFC" d="M96.9,151.9c0,0-0.3-0.2-0.9-0.1c-0.6,0.1-0.5,0.1-1.2,0.1
			c-0.6-0.1-0.9-0.1-0.9-0.1s0.4,0.3,0.8,0.3c0.4,0,0.9,0,1.4-0.1C96.5,151.9,96.9,151.9,96.9,151.9z"/>
		<path fill-rule="evenodd" clip-rule="evenodd" fill="#D1EEFC" d="M199.6,152.2c0,0-0.4-0.3-1.4-0.1c-0.9,0.1-0.9,0.2-1.9,0.1
			c-1,0-1.4-0.1-1.4-0.1s0.6,0.4,1.3,0.4c0.6,0,1.4,0,2.1-0.1S199.6,152.2,199.6,152.2z"/>
		<path fill-rule="evenodd" clip-rule="evenodd" fill="#D1EEFC" d="M17.7,150.8c0,0-0.6-0.4-1.8-0.1c-1.2,0.3-1.1,0.3-2.3,0.3
			c-1.3-0.1-1.7-0.3-1.7-0.3s0.8,0.5,1.7,0.5c0.8,0,1.6,0,2.5-0.2C16.9,150.8,17.7,150.8,17.7,150.8z"/>
	</g>
	<path fill-rule="evenodd" clip-rule="evenodd" fill="#8ED8F8" d="M331.8,168.1c0,0-1.2-0.6-3.7-0.2c-2.4,0.4-2.1,0.6-4.7,0.4
		c-2.7-0.1-3.5-0.4-3.5-0.4s1.7,0.9,3.3,0.9c1.7,0,3.4,0,5.3-0.3C330.3,168.1,331.8,168.1,331.8,168.1z"/>
	<path fill-rule="evenodd" clip-rule="evenodd" fill="#8ED8F8" d="M324.6,171.7c0.1-0.1-1.8-0.1-3.8-0.8c-2-0.7-2.4,0.7-8.2,0.8
		c-5.8,0.1,1.2,0.1,2.1,0.1c0.9,0,3.3-0.5,3.9-0.6c0.6-0.1,1-0.3,1.5-0.2c0.5,0.1,1.4,0.5,2.2,0.6
		C323,171.7,324.4,171.9,324.6,171.7z"/>
	<path fill-rule="evenodd" clip-rule="evenodd" fill="#8ED8F8" d="M336,180c0,0-1.9-0.9-5-0.7c-1.4,0.1-2,0.4-2.7,0.4
		c-0.9,0.1-1.5,0-3.1-0.1c-3-0.1-3.9-0.7-3.9-0.7s1.3,0.9,3.5,1s3.5,0.3,4.5,0c1.2-0.4,2.3-0.4,4.1-0.3C335.4,179.8,336,180,336,180
		z"/>
	<path fill-rule="evenodd" clip-rule="evenodd" fill="#8ED8F8" d="M321.6,180.2c0,0-1.9-1-5-0.7c-1.4,0.1-2.1,0.4-2.7,0.4
		c-4.3,0.4-1.2,0.9,1.1,0.1c1.1-0.3,2.2-0.4,4.1-0.2C320.9,180,321.6,180.2,321.6,180.2z"/>
	<path fill-rule="evenodd" clip-rule="evenodd" fill="#8ED8F8" d="M316.7,182.9c0,0-1.4-0.7-4-0.3c-2.7,0.5-2.4,0.6-5.2,0.5
		c-2.9-0.1-3.9-0.5-3.9-0.5s1.9,1,3.7,1c1.9,0,3.7,0,5.7-0.4C315,182.9,316.7,182.9,316.7,182.9z"/>
	<path fill-rule="evenodd" clip-rule="evenodd" fill="#8ED8F8" d="M308.8,186.9c0.2-0.1-1.9-0.1-4.1-0.9c-2.2-0.8-2.7,0.8-9,0.9
		c-6.3,0.1,1.3,0.1,2.2,0.1c0.9,0,3.7-0.6,4.2-0.7c0.6-0.2,1.2-0.4,1.7-0.2c0.5,0.1,1.5,0.5,2.3,0.6
		C307,186.7,308.6,186.9,308.8,186.9z"/>
	<path fill-rule="evenodd" clip-rule="evenodd" fill="#8ED8F8" d="M424,186.7c0,0-2.8-1.5-7.6-1.2c-2.1,0.1-3.2,0.6-4.1,0.6
		c-6.6,0.6-1.9,1.4,1.6,0.3c1.7-0.5,3.5-0.6,6.3-0.4S424,186.7,424,186.7z"/>
	<path fill="#8ED8F8" d="M66.7,181c-0.5,0.1-1,0.2-1.4,0.2c-0.4,0.1-0.8,0.1-1.1,0.1c-0.3,0-0.8-0.1-1-0.3c-0.3-0.2-0.3-0.6-0.3-0.9
		c0.1-0.1,0.1-0.4,0.4-0.4c0.4-0.3,1.2-0.3,1.4,0c0.1,0.1,0.1,0.1,0,0.3c0,0.1-0.1,0.2-0.3,0.2c0,0,0,0,0.1,0
		c0.1,0.1,0.3-0.1,0.4-0.1c0-0.1,0.1-0.1,0.1-0.2c0.1-0.6-0.9-0.9-1.8-0.9c-1.2,0-1.4,0.9-1.9,1.5c-0.3,0.4-0.6,0.6-1.1,0.8
		c-0.5,0.1-1.2,0.1-1.7,0.1c-0.3,0-0.6-0.1-1.2-0.1c-0.7,0.1-0.9,0.1-1.1,0c-0.3-0.1-1.1-0.1-1.1-0.1c-0.1-0.1,0.8-0.2,1.2-0.1
		c0.1,0.1,0.3,0.1,0.9,0c0.5-0.1,0.9-0.1,1.2-0.1c1,0,1.4-0.1,2.1-0.6c0.6-0.5,0.8-1,1.4-1.4c0.7-0.6,2.2-0.6,3-0.1
		c0.1,0.1,0.6,0.5,0.5,0.9c-0.1,0.1-0.4,0.4-0.6,0.5c-0.1,0.1-0.3,0.1-0.5,0.1c-0.1,0-0.1,0-0.2-0.1l0,0c-0.1,0-0.1-0.1-0.1-0.1
		c-0.1-0.1-0.1-0.3-0.1-0.2c0,0,0.1,0.1,0.1,0.1c0.1,0,0.1,0.1,0.2,0c0.1,0,0.1-0.1,0.1-0.1c0.1-0.1-0.1-0.3-0.3-0.3
		c-0.5-0.1-0.8,0.1-0.9,0.5s0.4,0.7,0.9,0.7c0.3,0.1,0.6,0,0.9,0c0.4-0.1,0.7-0.1,1.2-0.1c0.5-0.1,1.3-0.1,1.9-0.1
		c1.1,0.1,1.5,0.5,1.6,0.6c0.1,0-0.2-0.1-0.5-0.2c-0.1,0-0.4-0.1-0.6-0.1C68.1,180.7,67.6,180.8,66.7,181z"/>
	<path fill-rule="evenodd" clip-rule="evenodd" fill="#8ED8F8" d="M56.6,180.7c0,0-0.6-0.5-2.5-0.3c-1.9,0.2-3.2,0.6-4.7,0.6
		c-1.5,0-2-0.1-2-0.1s-0.1,0.2,2,0.4c2.2,0.1,3-0.4,4.4-0.5S56.6,180.7,56.6,180.7z"/>
	<path fill-rule="evenodd" clip-rule="evenodd" fill="#8ED8F8" d="M68.5,181.3c0,0,0.6,0.4,2.6,0.3c2-0.1,2.4-0.6,3.5-0.5
		c1.2,0.1,1.6,0.5,1.6,0.5s-0.8-0.2-1.6-0.2c-0.7,0-1.4,0.3-2.3,0.4c-0.9,0.1-1.1,0.2-2,0.1C69.2,181.8,68.5,181.3,68.5,181.3z"/>
	<path fill-rule="evenodd" clip-rule="evenodd" fill="#8ED8F8" d="M63.6,183.2c0,0-0.5-0.2-1.6-0.1c-1,0.2-0.9,0.2-1.9,0.2
		c-1.1-0.1-1.4-0.2-1.4-0.2s0.7,0.4,1.4,0.4c0.7,0,1.4,0,2.2-0.1C63,183.2,63.6,183.2,63.6,183.2z"/>
	<path fill-rule="evenodd" clip-rule="evenodd" fill="#8ED8F8" d="M54.1,185c0,0-0.4-0.2-1.2-0.1s-0.7,0.1-1.5,0.1
		c-0.9-0.1-1.2-0.1-1.2-0.1s0.6,0.3,1.1,0.3c0.6,0,1.1,0,1.7-0.1C53.6,185,54.1,185,54.1,185z"/>
	<path fill="#8ED8F8" d="M225.9,181.6c-0.6,0.1-1.3,0.2-1.7,0.2c-0.4,0.1-0.9,0.1-1.4,0.1c-0.4,0-0.9-0.1-1.2-0.4
		c-0.3-0.2-0.4-0.7-0.4-1c0.1-0.3,0.2-0.5,0.4-0.6c0.4-0.3,1.4-0.4,1.8,0.1c0.1,0.1,0.1,0.2,0.1,0.4c-0.1,0.1-0.2,0.3-0.4,0.3h0.1
		c0.2,0,0.4-0.1,0.5-0.2c0.1-0.1,0.1-0.2,0.1-0.3c0.1-0.8-1.2-1.1-2.2-1.1c-1.4,0-1.7,1.2-2.4,1.9c-0.4,0.4-0.9,0.8-1.4,0.9
		s-1.4,0.1-2,0.1c-0.4,0-0.8-0.1-1.4,0c-0.9,0.1-1.1,0.1-1.4-0.1c-0.4-0.1-1.3-0.1-1.4-0.1c-0.1-0.1,0.9-0.3,1.5-0.1
		c0.2,0.1,0.4,0.1,1.1,0c0.6-0.1,1.2-0.1,1.5-0.1c1.3,0,1.8-0.1,2.6-0.8c0.8-0.6,1-1.2,1.7-1.8c1-0.7,2.9-0.6,3.8,0
		c0.2,0.1,0.7,0.6,0.6,1.1c0,0.2-0.4,0.5-0.6,0.6c-0.1,0.1-0.4,0.1-0.6,0.1c-0.1,0-0.2-0.1-0.4-0.1l0,0c0,0-0.1-0.1-0.1-0.1
		c-0.2-0.2-0.2-0.4-0.1-0.4c0.1,0,0.1,0.1,0.3,0.1c0.1,0.1,0.1,0.1,0.2,0.1c0.1-0.1,0.1-0.1,0.2-0.2c0.1-0.1-0.2-0.3-0.4-0.3
		c-0.6-0.1-1,0.1-1.1,0.6c-0.1,0.5,0.5,0.9,1.2,0.9c0.4,0.1,0.8,0.1,1.2,0c0.4-0.1,0.9-0.1,1.5-0.2c0.6-0.1,1.6-0.1,2.4-0.1
		c1.4,0.2,1.9,0.6,2,0.8c0.1,0.1-0.3-0.1-0.6-0.2c-0.2-0.1-0.6-0.1-0.8-0.1C227.6,181.3,226.9,181.4,225.9,181.6z"/>
	<path fill-rule="evenodd" clip-rule="evenodd" fill="#8ED8F8" d="M161.4,169.9c0.2-0.1-1.7-0.1-3.7-0.8s-2.4,0.7-8.2,0.8
		c-5.8,0.1,1.2,0.1,2.1,0.1c0.9,0,3.3-0.5,3.9-0.6c0.5-0.1,1-0.3,1.5-0.2c0.5,0.1,1.4,0.5,2.2,0.6
		C159.8,169.9,161.3,170.1,161.4,169.9z"/>
	<path fill-rule="evenodd" clip-rule="evenodd" fill="#8ED8F8" d="M144.4,180.1c0,0-2.8-1.5-7.6-1.2c-2.1,0.2-3.2,0.6-4.1,0.7
		c-6.6,0.6-1.9,1.3,1.6,0.3c1.7-0.5,3.5-0.6,6.3-0.4C143.4,179.7,144.4,180.1,144.4,180.1z"/>
</g>
</svg>
