<?xml version="1.0" encoding="utf-8"?>
<!-- Generator: Adobe Illustrator 18.1.1, SVG Export Plug-In . SVG Version: 6.00 Build 0)  -->
<svg version="1.1" id="Layer_1" xmlns="http://www.w3.org/2000/svg" xmlns:xlink="http://www.w3.org/1999/xlink" x="0px" y="0px"
	 viewBox="0 0 461 259" enable-background="new 0 0 461 259" xml:space="preserve">
<g>
	<path fill-rule="evenodd" clip-rule="evenodd" fill="#FFFFFF" d="M162.5,187.7c-0.1,0.1-0.1,0.3-0.3,0.4c-0.1,0-0.1,0-0.4,0
		c-0.1-0.1-0.2-0.1-0.2-0.1s0.3,0.1,0.5,0.2c-0.5,0.7-1.2,1.5-2.1,2.1c-0.3,0.2-0.8,0.2-1.4,0.2c-1.1,0.1-2.2,0.1-3.5-0.1
		c-0.6-0.1-1.3-0.3-1.8-0.4c-1.4-0.4-2.7-0.1-4-0.4c-1.8-0.3-2.2-0.4-2.4-1.7c-0.1-0.6-0.3-0.8-0.3-1.3c0.5-0.5,1-1.2,1.4-1.3
		c0.5,0.1,1.7,0.4,3.1,0.4c3.9,0.3,9.8,0.5,11.4,1.1C162.9,187.1,162.7,187.4,162.5,187.7z"/>
	<path fill-rule="evenodd" clip-rule="evenodd" fill="#58595B" d="M146.9,186.9l1.1-1.1c0,0,0.1,0.3,3.9,0.6
		c1.4,0.1,3.5,0.2,6.2,0.4c0.5,0,4.3,0.2,4.4,0.6c0.1,0.1-0.4,0.2-1.1,0.4c-4.5,0.7-8.8,0.6-13.1-0.4
		C147.8,187.1,147.2,187.1,146.9,186.9z"/>
	<polygon fill="#58595B" points="156.4,187.3 156.7,185.3 156.7,184 156.9,180.9 157.2,176.5 157.2,176.1 157.4,176.1 157.5,176.5 
		157.4,177.7 157.2,179.7 157.1,182.8 156.9,185.5 156.9,187.4 	"/>
	<path fill-rule="evenodd" clip-rule="evenodd" fill="#FFFFFF" d="M156,185.4v-2.3l0.5-3.2l0.1-3.2c0,0-0.6,0.3-1.4,1.2
		c-0.2,0.3-0.4,0.6-0.6,0.9l0.5,0.5l-0.6-0.4c-0.1,0.1-0.1,0.1-0.2,0.2l0.6,0.9l-0.6-0.6c-0.1,0-0.1,0.1-0.1,0.1
		c-0.4,0.6-1.2,1.3-1.7,1.8c-0.6,0.5-1.2,1.2-1.9,1.7c-0.4,0.1-0.8,0.4-1.2,0.5l0.2,0.5l-0.5-0.4c-0.1,0.1-0.1,0.1-0.2,0.1
		c-1.2,0.6-2.8,1.1-2.8,1.1c0.8,0.1,2.4,0.3,3.2,0.4c1.3,0.1,2.8,0.4,4.2,0.4C154.4,185.6,155.2,185.4,156,185.4z"/>
	<g>
		<g>
			<path fill-rule="evenodd" clip-rule="evenodd" fill="#231F20" d="M153.9,183.5c0,0,0-0.1,0-0.1c0,0-0.1-0.1-0.1,0
				C153.8,183.5,153.7,183.5,153.9,183.5L153.9,183.5L153.9,183.5L153.9,183.5L153.9,183.5z"/>
			<path fill-rule="evenodd" clip-rule="evenodd" fill="#231F20" d="M153.6,183.5C153.6,183.5,153.6,183.5,153.6,183.5
				C153.6,183.4,153.7,183.3,153.6,183.5C153.8,183.5,153.7,183.5,153.6,183.5L153.6,183.5L153.6,183.5z"/>
			<path fill-rule="evenodd" clip-rule="evenodd" fill="#231F20" d="M153.9,183.5L153.9,183.5L153.9,183.5
				C153.9,183.4,153.9,183.4,153.9,183.5L153.9,183.5L153.9,183.5L153.9,183.5L153.9,183.5L153.9,183.5L153.9,183.5L153.9,183.5z"/>
			<path fill-rule="evenodd" clip-rule="evenodd" fill="#231F20" d="M153.6,183.5C153.6,183.4,153.6,183.3,153.6,183.5L153.6,183.5
				C153.6,183.5,153.6,183.5,153.6,183.5L153.6,183.5L153.6,183.5L153.6,183.5L153.6,183.5L153.6,183.5z"/>
			<path fill-rule="evenodd" clip-rule="evenodd" fill="#231F20" d="M154.1,183.5C154.1,183.4,154,183.4,154.1,183.5
				c-0.1-0.1-0.1-0.1-0.1,0C153.9,183.5,153.9,183.5,154.1,183.5L154.1,183.5L154.1,183.5L154.1,183.5L154.1,183.5L154.1,183.5
				L154.1,183.5L154.1,183.5z"/>
			<path fill-rule="evenodd" clip-rule="evenodd" fill="#231F20" d="M154.1,183.4C154.1,183.4,154.1,183.4,154.1,183.4L154.1,183.4
				L154.1,183.4L154.1,183.4C154.1,183.5,154.1,183.4,154.1,183.4z"/>
			<path fill-rule="evenodd" clip-rule="evenodd" fill="#231F20" d="M154.2,183.4L154.2,183.4C154.2,183.5,154.2,183.5,154.2,183.4
				C154.2,183.5,154.2,183.5,154.2,183.4L154.2,183.4C154.2,183.4,154.3,183.4,154.2,183.4C154.3,183.4,154.2,183.3,154.2,183.4z"/>
			<path fill-rule="evenodd" clip-rule="evenodd" fill="#231F20" d="M153.5,183.5c0.1-0.1,0-0.1,0-0.1
				C153.5,183.4,153.4,183.5,153.5,183.5L153.5,183.5L153.5,183.5L153.5,183.5L153.5,183.5L153.5,183.5z"/>
			<path fill-rule="evenodd" clip-rule="evenodd" fill="#231F20" d="M153.4,183.4C153.4,183.4,153.4,183.4,153.4,183.4
				C153.4,183.3,153.4,183.3,153.4,183.4L153.4,183.4C153.4,183.4,153.4,183.4,153.4,183.4L153.4,183.4L153.4,183.4L153.4,183.4z"/>
		</g>
		<g>
			<path fill-rule="evenodd" clip-rule="evenodd" fill="#231F20" d="M154.3,183.3L154.3,183.3c0,0,0.1-0.1,0.1-0.1h-0.1
				c0.1,0,0.1,0,0.1,0c0-0.1,0.1-0.1,0.1-0.1c0.1-0.1,0.1-0.2,0.1-0.4c-0.1-0.1-0.1-0.1-0.1-0.1c0-0.1,0,0,0.1,0.1l0,0l0,0
				c0,0,0,0,0-0.1l0,0l0,0l0,0c0,0,0.1,0.1,0.1,0c0.1-0.1,0.1-0.4,0.1-0.6c-0.1-0.1-0.1-0.4-0.3-0.5c-0.1-0.1-0.2-0.1-0.4-0.1v1.2
				h0.1c0,0,0.1,0,0.1,0.1c0.1,0,0.1,0,0.1,0.1l0,0c0,0.1,0,0,0,0.1v0.1c0,0.1-0.1,0.1-0.1,0.1c0,0.1-0.1,0.1-0.1,0.1h-0.1l0,0v0.4
				l0,0C154.1,183.4,154.1,183.4,154.3,183.3L154.3,183.3L154.3,183.3L154.3,183.3L154.3,183.3L154.3,183.3L154.3,183.3L154.3,183.3
				L154.3,183.3L154.3,183.3L154.3,183.3L154.3,183.3L154.3,183.3C154.3,183.4,154.3,183.4,154.3,183.3z M154.1,181.3
				c-0.1,0-0.2-0.1-0.4-0.1l0,0v1.7l0,0l0,0l0,0l0,0l0.1,0.1c0,0.1,0,0.1,0,0.1c0,0.1,0,0.1,0,0.1l0,0h-0.1l0,0l0,0v0.2l0,0
				c0,0,0,0,0.1,0l0,0l0,0l0,0l0,0l0,0l0,0l0,0l0,0l0,0l0,0c0.1,0,0.1,0,0.1,0l0,0l0,0l0,0l0,0l0,0l0,0c0.1,0,0.1,0,0.1,0l0,0l0,0
				l0,0h0.1l0,0l0,0l0,0l0,0l0,0l0,0l0,0c0.1,0,0.1,0,0.1,0l0,0V183l0,0l0,0l0,0l0,0l-0.1-0.1c0,0-0.1,0-0.1-0.1c0,0,0-0.1-0.1-0.1
				c0-0.1,0-0.1,0-0.1l0,0c0.1-0.1,0.1-0.1,0.1-0.1l0,0h0.1l0,0l0,0h0.1V181.3z M153.8,181.2c-0.1,0.1-0.2,0.1-0.3,0.1v1.1
				c0,0,0,0,0.1,0c0.1,0,0.1,0.1,0.1,0.1c0,0.1,0,0.1,0,0.1c0,0-0.1,0-0.1,0.1l0,0c-0.1,0.1,0,0-0.1,0.1c0,0,0,0-0.1,0.1l0,0v0.4
				l0,0l0,0l0,0l0,0l0,0c0,0,0,0,0.1,0l0,0v0.1l0,0l0,0l0,0l0,0l0,0l0,0v-0.1l0,0l0,0l0,0l0,0h0.1l0,0l0,0v0.1l0,0l0,0l0,0l0,0l0,0
				l0,0l0,0l0,0l0.1-0.1l0,0l0,0l0,0l0,0c0,0.1,0.1,0.1,0.1,0.1l0,0l0,0l0,0l0,0l0,0l0,0l0,0v-0.2l0,0l0,0c-0.1,0-0.1,0-0.1,0v-0.1
				c0,0,0,0,0-0.1c0.1,0,0.1,0,0.1,0V183V181.2z M153.5,181.4c-0.2,0.1-0.4,0.2-0.4,0.4c-0.1,0.2-0.1,0.5-0.1,0.8
				c0.1-0.1,0.1-0.1,0.1-0.1c-0.1,0-0.1,0.1-0.1,0.1c0,0.1,0,0.1,0,0.1l0,0l0,0c0,0.1,0,0.1,0.1,0.2c0.1,0.1,0.1,0.2,0.2,0.3l0,0
				l0,0l0.1,0.1l0,0l0,0l0,0l0,0l0,0l0,0l0,0l0,0l0,0l0,0h0.1l0,0l0,0l0,0l0,0l0,0l0,0l0,0c0,0,0.1,0,0.1,0.1v-0.1l0,0l0,0v-0.4
				c-0.1,0-0.1,0-0.1,0c0-0.1-0.1-0.1-0.1-0.1c0-0.1,0-0.1,0-0.2l0,0l0,0c0,0,0,0,0-0.1h0.1c0-0.1,0.1-0.1,0.1-0.1h0.1V181.4z"/>
			<path fill-rule="evenodd" clip-rule="evenodd" fill="#231F20" d="M155,183.5c0,0-1.2,0.4-1.6,0.4c-0.4,0.1-0.6,0.1-0.7,0.1
				c-0.2,0-0.1-0.1-0.3-0.2c-0.1,0-0.2,0.1-0.1,0.2c0.1,0.1,0.1,0.1,0.1,0.1s-0.2,0.1-0.1,0.2c0.1,0.1,0.3,0.1,0.3-0.1
				c0-0.1,0.4-0.1,0.6-0.2c0.2-0.1,0.7-0.1,1.1-0.3c0.4-0.1,0.6-0.2,0.8-0.1c0.1,0,0.2,0.1,0.3,0.1c0.1-0.1,0.1-0.1,0-0.2
				c-0.1,0-0.1-0.1-0.1-0.1c0-0.3-0.3-0.2-0.2-0.1C155.1,183.5,155,183.5,155,183.5z"/>
			<path fill-rule="evenodd" clip-rule="evenodd" fill="#231F20" d="M152.6,183.3c0,0,1.1,0.6,1.4,0.7s0.6,0.2,0.7,0.2
				c0.2,0,0.1-0.1,0.3-0.1c0.2,0,0.2,0.1,0.1,0.2c-0.1,0.1-0.1,0.1-0.1,0.1s0.1,0.2,0,0.3c-0.1,0.1-0.3,0.1-0.2-0.1
				c0-0.1-0.4-0.2-0.6-0.3c-0.2-0.1-0.7-0.3-1.1-0.5c-0.4-0.1-0.6-0.3-0.6-0.3c-0.1,0-0.3,0.1-0.4,0.1c-0.1-0.1-0.1-0.2,0.1-0.2
				c0.1,0,0.1-0.1,0.1-0.2c0-0.2,0.3-0.1,0.3,0C152.6,183.3,152.6,183.3,152.6,183.3z"/>
		</g>
	</g>
	<path fill-rule="evenodd" clip-rule="evenodd" fill="#58595B" d="M157.4,175.3c0.3,0,0.4,0.2,0.4,0.5c0,0.2-0.2,0.4-0.5,0.4
		s-0.4-0.3-0.4-0.5C156.9,175.5,157.1,175.3,157.4,175.3z"/>
	<path fill-rule="evenodd" clip-rule="evenodd" fill="#D1D3D4" d="M161.8,188.7c-0.1,0.1-0.3,0.4-0.5,0.6c-0.5,0.1-1,0.1-1.5,0.2
		c-1.8,0.1-3.5,0-5.7-0.1c-2.8-0.2-5.9-0.8-7.2-1.1c0-0.1-0.1-0.1-0.1-0.2V188c0.6,0.1,1,0.2,3,0.6c1.2,0.2,2.4,0.3,4.2,0.4
		c0.9,0.1,2.1,0.1,3.1,0.1c1.3,0,2.2-0.1,2.9-0.1C160.9,188.9,161.4,188.8,161.8,188.7z"/>
	<path fill-rule="evenodd" clip-rule="evenodd" fill="#FFFFFF" d="M157.3,185.6l0.1-2.3l0.2-3.2c0.1-1.1,0.1-2.1,0.1-3.2
		c0.4,0.4,0.5,1.3,0.6,1.8c0.2,1,0.4,1.9,0.6,3c0.1,0.1-0.1,0.3-0.1,0.4c0.1,0.1,0.3,0.1,0.3,0.2l-0.6,0.4l0.7-0.1
		c0.4,1,0.9,2.1,1.5,3.4C159.8,185.7,159,185.9,157.3,185.6z"/>
</g>
<path fill-rule="evenodd" clip-rule="evenodd" fill="#C7EAFB" d="M-6.4,187.6c2.2,0.3,5.2,0.9,8.9,1c2.6,0.1,5.8-0.3,8.1-0.6
	c2.5-0.3,7.3-1.4,9.8-1.8c2.1-0.4,3.1-1.3,4.3-1.9c1.1-0.5,2.4-0.6,3.9-0.9c3.2-0.5,5.3-0.8,7.4-0.3c-4.5,1.1-3.9,2.7-3,3.7
	c0.9,0.9,2.2,1.2,5.3,1.1c1.6,0,4.7-0.3,6.3-0.2c1.5,0.1,2.5,0.4,4.6,0.6c1.8,0.1,4.7,0.1,5.9,0.3c2.2,0.3,2.6,0.6,4,0.8
	c1.4,0.2,3.9,0.4,6,0.4c1.6,0,4.2,0.1,6.2,0.1c2.6,0,4.6,0.1,7.3,0c2.2-0.2,4.5-0.8,6.3-0.9c2.1-0.2,2.7,0.1,4,0.1
	c0.7,0,1.8-0.4,3.2-0.3c6.4,0.4,5.3,0.9,11.2,0.9c2.7,0,5.3,0.2,9.1-0.1c3.7-0.3,7.7-0.5,11.5-0.6c3.5-0.1,7.4,0.4,10,0.4
	c2.7-0.1,7-1.1,9.9-1c1.3,0.4,0.7,0.5,3,0.9c2.1,0.4,5.3,0.6,7.8,0.9c1.4,0.1,4.4-0.3,5.8-0.2c2,0.1,4.4,0.6,6.1,0.5
	c4.5-0.4,6.4-0.9,9.4-0.9c6.8,0,14.4,1.4,23,0.4c5.2-0.6,7.6-0.2,12.3-0.8c4.8,1.4,10.3,2.7,15.3,3c4.7,0.2,9.2-0.1,13.9-0.1
	c1.3,0,3-0.3,4.2-0.1c0.4,0,0.4,0.2,0.8,0.2c0.8,0.1,2.4,0,3,0.1c1.6,0.2,1.9,0.4,4,0.5c1.9,0.1,5.5,0.1,7.2,0c1,0,1.3,0.1,2.2,0.1
	c2-0.1,4.1-0.4,5.5-0.5c1.2-0.1,1.7,0,2.9-0.1c0.6-0.1,1.4-0.4,1.9-0.4c0.8-0.1,1.8,0,2.7-0.1c0.6,0,1.3-0.1,2.1-0.1
	c0.7,0,1.6,0.2,2.3,0.2c1.2,0.1,2.2-0.1,3,0.1c1.2,0.1,1.5,0.5,2.8,0.6c0.6,0.1,2.4,0.1,3.4,0.1c0.8,0,0.9-0.1,1.5,0
	c1.2,0.1,2.7,0,3.9,0.1c1.4,0.1,2.5,0.4,4.3,0.4c0.9,0,2.5-0.1,3.4-0.1c1.2,0.1,2,0.2,3.3,0.2c1.7,0,3.5-1.1,5.2-1.1
	c1.3,0,2.6,1,3.9,1c1-0.1,2.4,0.9,3.7,0.9c1.3-0.1,2.5-1.2,4-1.4c1.2-0.1,4.7-2.7,5.8-2.7c1.7-0.1,0.8,2.6,2.2,2.6
	c0.9-0.1,1.4-0.2,2.2-0.2c0.9,0,1.4,0.1,2.1,0.1c0.7,0.1,1.7,0.1,2.5,0.1c1.3,0,3-0.1,4-0.1c1.6,0.1,2.3,0.4,4.3,0.4
	c1.2,0,2.9-0.2,4.2-0.2c0.6-0.1,2.4,0.1,5,0.1c1.3-0.1,3.2-0.4,4.8-0.5c1.6-0.1,3.2,0,4.6-0.1c1.3-0.1,2.4-0.6,3.7-0.9
	c3.7-0.9,6.8-2.7,9.7-4c0.4-0.2,1.5-0.4,1.9-0.6c0.9-0.4,1.4-0.8,2.3-1c0.6-0.1,1.2-0.4,1.7-0.4c2-0.2,3.1,0.3,3.1,0.6
	c-0.9,0.1-1.2,0.2-1.6,0.6c-0.7,0.6-0.9,1.5-0.7,1.9c0.2,0.5,1,1.1,2.2,1.4c0.9,0.3,2,0.3,2.9,0.4c1.3,0.1,3.7,0.1,5.4,0
	c1.8-0.1,2.7-0.4,3.4-0.4c1.1-0.1,2.2,0.2,3.4,0.4c1.2,0.1,2.7,0.1,3.9,0.1c1.2,0.1,2.4,0.1,3.7,0.1c1.4-0.1,3.4-0.1,4.8-0.3
	c1.2-0.1,1.9-0.4,3.2-0.5c1.2-0.2,2.2-0.3,3.2-0.6c1.7-0.4,4.2-1,5.9-1.4c0.9-0.2,2.8-1,3.5-1.2s0.3,0.4,1.2,0.4
	c0.9,0,1.5,0.4,2.4,0.4c1.2,0.2,3.7,0.2,5,0.4c1.4,0.1,1.5,0.4,2.7,0.4c1.2,0,3-0.1,4-0.1c1.1-0.1,2.7-0.4,3.5-0.4
	c0.7-0.1,0.7,0.1,1.7,0.1c0.6,0,1.4,0.4,2.8,0.5c1.2,0.1,3.5,0.2,4.8,0.3c1.9,0.1,2.8,0.3,3.7,0.4c1.8,0.1,2.7-0.1,3.3-0.1
	c0.6-0.1,0.9-0.3,2.8-0.2v34.6H-6.4V187.6z"/>
<path fill-rule="evenodd" clip-rule="evenodd" fill="#8ED8F8" d="M397.4,198.1c0,0-2.1-0.9-5.5-0.6c-1.5,0.1-2.3,0.4-3,0.4
	c-0.9,0.1-1.6,0.1-3.4,0c-3.2-0.1-4.3-0.6-4.3-0.6s1.4,0.7,3.8,0.9c2.4,0.1,3.9,0.3,5,0c1.2-0.3,2.5-0.4,4.5-0.3
	C396.6,197.9,397.4,198.1,397.4,198.1z"/>
<path fill-rule="evenodd" clip-rule="evenodd" fill="#8ED8F8" d="M381.4,198.2c0,0-2-0.9-5.5-0.6c-1.5,0.1-2.2,0.4-3,0.4
	c-4.8,0.4-1.3,0.8,1.2,0.1c1.2-0.3,2.4-0.4,4.5-0.2C380.7,198.1,381.4,198.2,381.4,198.2z"/>
<path fill-rule="evenodd" clip-rule="evenodd" fill="#8ED8F8" d="M376,200.7c0,0-1.5-0.6-4.5-0.2c-3,0.4-2.6,0.5-5.7,0.4
	c-3.2-0.1-4.2-0.4-4.2-0.4s2,0.9,4,0.9s4.1,0,6.3-0.4C374.2,200.7,376,200.7,376,200.7z"/>
<path fill-rule="evenodd" clip-rule="evenodd" fill="#8ED8F8" d="M56.4,198.4c0,0,0.6,0.5,2.2,0.4c1.6-0.1,1.4-0.3,3.1-0.4
	c1.7-0.1,1.9,0.2,3,0.2c1.2,0.1,1.4,0.2,2.5-0.1c1-0.3-0.4,0.1-0.7,0.1c-0.4,0-0.6,0.1-1,0c-0.4-0.1-0.4,0-1.1-0.1
	c-0.6-0.1-0.7-0.2-1.2-0.2c-0.4-0.1-0.7-0.1-1.4-0.1c-0.6,0-0.9,0.1-1.4,0.1c-0.6,0.1-0.7,0.1-1.7,0.2c-1,0.1-1,0.1-1.5-0.1
	C56.7,198.4,56.4,198.4,56.4,198.4z"/>
<path fill-rule="evenodd" clip-rule="evenodd" fill="#8ED8F8" d="M451.7,197.4c0.3-0.1-1.9-0.1-4.1-0.8c-2.2-0.6-2.6,0.7-8.9,0.8
	c-6.3,0.1,1.2,0.1,2.2,0.1c0.9,0,3.6-0.5,4.2-0.6c0.6-0.1,1.2-0.3,1.7-0.1c0.5,0.1,1.5,0.4,2.3,0.5
	C450,197.4,451.5,197.5,451.7,197.4z"/>
<path fill-rule="evenodd" clip-rule="evenodd" fill="#8ED8F8" d="M148.1,196.1c0,0-3.7-1.6-9.9-1.2c-2.7,0.2-4,0.6-5.3,0.7
	c-1.6,0.1-2.9,0.1-6.1-0.1c-5.8-0.2-7.7-1.2-7.7-1.2s2.5,1.3,6.8,1.6c4.4,0.3,6.9,0.5,9.1-0.1c2.2-0.5,4.5-0.6,8.1-0.4
	C146.7,195.7,148.1,196.1,148.1,196.1z"/>
</svg>
