<?xml version="1.0" encoding="utf-8"?>
<!-- Generator: Adobe Illustrator 18.1.1, SVG Export Plug-In . SVG Version: 6.00 Build 0)  -->
<svg version="1.1" id="Layer_1" xmlns="http://www.w3.org/2000/svg" xmlns:xlink="http://www.w3.org/1999/xlink" x="0px" y="0px"
	 viewBox="0 0 461 259" enable-background="new 0 0 461 259" xml:space="preserve">
<path fill-rule="evenodd" clip-rule="evenodd" fill="#B6E4FA" d="M271.1,218c0.9,0,1.7-0.5,2.6-0.5c0.9-0.1,2,0.4,2.9,0.3
	c0.1,0,0.3,0,0.4,0c0.4-0.1,0.9-0.1,1.4-0.2c1.4-0.3,3.4-1.3,5.3-1.8c1.4-0.4,2.9-0.3,3.9-0.5c2.2-0.5,3.6-1.2,4.8-1.9
	c0.9-0.6,1.7-1.4,3-1.7c3-0.7,5-1.1,7.1-0.4c-4.2,1.4-3.7,3.5-2.8,4.8c0.8,1.1,3.2,1.7,6.1,1.7c1.5-0.1,3.3-0.7,4.8-0.6
	c1.2,0.1,2.4,0.9,4.1,1.1c2.1,0.2,4.5-0.3,5.8,0c1.8,0.4,3.7,0.7,4.9,0.7c1.6,0,2.4-0.4,4.6-0.4c1.3,0,4,0.6,5.5,0.5
	c2.1-0.1,4.5-1.7,6.5-2c2.5-0.4,4.5,0.3,6.8,0.1c2-0.1,2.8,0.2,4,0.2c0.6,0,1.5-0.4,2.8-0.4c6.1,0.6,4,1.9,9.6,1.9
	c2.9,0,8.2-0.4,12.6-1c2.7-0.4,4.2-0.8,6.8-0.9c1.9-0.1,3.5,0.5,5.2,0.6c2,0.1,3.9-0.2,5.5-0.2c1.5-0.1,3.6-0.5,5.1-0.9
	c1.2-0.2,1.6-0.5,2.8-0.4c0.9,0.4,1.7,1.2,3.3,1.6c1.6,0.4,5.7,0.4,7.6,0.7c2.5,0.4,3,1.1,5.3,1.3c3,0.3,7.1,0.1,9.5-0.2
	c3-0.6,4.2-1.4,6.5-1.4c2.2,0,4.3,0.6,6.7,0.9c2.3,0.2,6.1-0.5,8.6-0.6s3.8,0.6,6.5,0.1c1.7-0.3,4.3,0.6,5.5,0.5
	c2.1-0.1,36.6-1.1,39-1.4v74.9H-38.9l-1.1-78.1c1.9-0.4,36.9-0.4,38.5-0.7c0.9-0.1,2-0.5,2.8-0.5c1.7,0,2.5,0.1,4,0.1
	c0.6,0.1,1.7,0,2.5,0.1c0.5,0.1,0.6,0.3,1.2,0.4c2.4,0.4,5.9,0.7,8,0.8c2.2,0,3.7-0.4,6.1-0.9c3.5-0.6,5.3,0.1,7.8-0.1
	c1.1-0.1,2.6-0.8,3.8-1c1.4,0.6,1.7,1.3,3.2,1.7c2.1,0.5,5.5,0.7,7.3,1.2c1.7,0.4,2.4,0.9,4,1c1.3,0.1,3.8,0,5-0.1
	c2.1-0.1,2.8-0.6,5-1c1.7-0.3,3,0.3,4.6,0.4c1.1,0.1,2.4,0.5,3.5,0.6c1.4,0.2,4.5,0.9,6.6,1.1c3.4,0.3,6.2-0.1,9.1-0.3
	c2-0.1,4.1-0.1,5.7-0.6c1.4-0.4,2.4-1,3.8-1.2c1.5-0.2,3,0.1,4.8,0.2c1.9,0.1,4.4,0.1,5.8,0.3c1.4,0.3,1.7,0.8,3,0.9
	c1.2,0.2,2.1-0.1,3.5,0.1c1.9,0.2,6,0.4,8,0.7c1.5,0.4,0.7,0.9,2.6,1.1c2,0.1,5.2-0.6,7.3-0.6c1.3-0.1,3.5-0.4,4.8-0.5
	c1.4-0.1,5-0.6,6.6-0.6c1.9,0,1.7,0.4,3.7,0.3c2.3-0.1,4.9-0.6,6.6-0.7c1.2,0,1.8,0.3,2.9,0.5c1.4,0.2,3.1,0.4,4.3,0.5
	c2.6,0.2,5.2-0.4,9.1-0.5c0.6,0,4-0.1,7.1-0.3c2.2,0,3.7,0.1,6.1-0.3c1.7-0.3,2.3-0.7,3.9-1.2c3-0.9,5.9-0.9,8.6-1.2
	c2.2-0.2,4.2-0.8,5.8-1.3c3-0.9,5.5-1,4.5,0.1c-2.2,3.1-0.1,4.3,3.7,4.8c2.3,0.3,6.1-0.1,7.1-0.2c1.9-0.1,4.6,0.6,6.6,0.5
	c2.3,0,4-0.4,6.4-0.4c1.7-0.1,3.5,0.4,5.1,0.1c2.6-0.5,5.1-1.2,7.6-2c1.9-0.6,3.7-1.6,5.5-1.5c1.4,0.1,2.3,0.7,3.7,1
	c1.9,0.4,4.2,0.5,5.9,0.6c1.4,0.1,3.5,0.3,4.8,0.1c1.6-0.2,2.2-0.8,4-0.7c1.1,0.1,3.7,0.8,5.8,1.6
	C269.2,217.2,270.1,217.9,271.1,218z"/>
<path fill-rule="evenodd" clip-rule="evenodd" fill="#8ED8F8" d="M435.9,228.6c0,0-1.9-1.1-5-0.9c-1.4,0.1-2,0.4-2.7,0.5
	c-0.8,0.1-1.4,0.1-3.1-0.1c-2.9-0.1-3.9-0.8-3.9-0.8s1.3,0.9,3.5,1.2c2.2,0.1,3.5,0.3,4.6-0.1c1.1-0.4,2.2-0.4,4-0.3
	C435.2,228.4,435.9,228.6,435.9,228.6z"/>
<path fill-rule="evenodd" clip-rule="evenodd" fill="#8ED8F8" d="M421.5,228.8c0,0-1.9-1.1-5-0.9c-1.3,0.1-2,0.4-2.7,0.5
	c-4.3,0.4-1.2,1,1.1,0.2c1.1-0.4,2.2-0.4,4-0.3C420.8,228.5,421.5,228.8,421.5,228.8z"/>
<path fill-rule="evenodd" clip-rule="evenodd" fill="#8ED8F8" d="M416.6,231.8c0,0-1.3-0.8-4-0.3c-2.7,0.6-2.3,0.7-5.1,0.6
	c-2.9-0.1-3.9-0.6-3.9-0.6s1.9,1.1,3.7,1.1c1.9,0,3.7,0,5.7-0.4C414.9,231.8,416.6,231.8,416.6,231.8z"/>
<path fill-rule="evenodd" clip-rule="evenodd" fill="#939598" d="M255.2,231.9c0.1-1.2,0.4-3.2,1-4.2h0.6l-0.4-0.3
	c0.9-1.4,2.9-2.4,7.1-2.9c0,0-0.5,0.6-0.8,1.7l-0.4-0.1l0.4,0.4l-0.1,0.3l-0.8,0.1l0.8,0.3c-0.1,0.8,0,1.8,0.5,2.9
	c0.6,1.4-1.8,0.9-3.3,1.2c-0.9,0.1-1.4,0.3-2,0.4C255.9,231.9,255.2,231.9,255.2,231.9z"/>
<path fill="#8ED8F8" d="M280.1,231.6c-0.6,0.1-1.3,0.2-1.8,0.3c-0.4,0.1-0.9,0.1-1.4,0.1c-0.4,0-0.9-0.1-1.3-0.4
	c-0.3-0.3-0.4-0.9-0.4-1.2c0.1-0.3,0.2-0.6,0.4-0.7c0.4-0.4,1.5-0.4,1.9,0.1c0.1,0.1,0.1,0.2,0.1,0.4c-0.1,0.2-0.2,0.4-0.4,0.4
	l0.1,0.1c0.2,0,0.4-0.1,0.5-0.3c0.1-0.1,0.1-0.3,0.1-0.4c0.1-0.9-1.2-1.2-2.2-1.2c-1.6,0-1.7,1.4-2.5,2.2c-0.4,0.5-0.9,0.9-1.4,1.1
	c-0.6,0.2-1.4,0.2-2.1,0.2c-0.4,0-0.8-0.2-1.4-0.1c-0.9,0.2-1.2,0.1-1.4,0c-0.4-0.2-1.4-0.1-1.4-0.3c-0.1-0.1,1-0.2,1.5,0
	c0.2,0.1,0.4,0.2,1.2,0c0.7-0.1,1.2-0.1,1.6-0.1c1.3,0,1.9-0.1,2.7-0.9c0.9-0.8,1-1.4,1.7-2.1c0.9-0.9,2.9-0.8,3.9-0.1
	c0.2,0.2,0.7,0.8,0.6,1.4c-0.1,0.2-0.4,0.6-0.7,0.7c-0.1,0.1-0.4,0.1-0.6,0.1c-0.1,0-0.3-0.1-0.4-0.1l0,0c-0.1-0.1-0.1-0.1-0.1-0.1
	c-0.2-0.3-0.2-0.4-0.1-0.4s0.1,0.1,0.2,0.1c0.1,0.1,0.2,0.1,0.3,0.1c0.1-0.1,0.1-0.1,0.1-0.2c0.1-0.2-0.1-0.4-0.4-0.4
	c-0.6-0.1-1,0.2-1.1,0.6c-0.1,0.6,0.5,1.1,1.2,1.2c0.4,0,0.8,0,1.2-0.1c0.5,0,0.9-0.1,1.6-0.2s1.7-0.2,2.4-0.1
	c1.4,0.2,1.9,0.7,2.1,0.9c0.1,0.1-0.3-0.1-0.6-0.2c-0.2-0.1-0.6-0.1-0.8-0.2C281.8,231.4,281.2,231.4,280.1,231.6z"/>
<path fill-rule="evenodd" clip-rule="evenodd" fill="#8ED8F8" d="M266.8,231.2c0,0-1-0.9-4.2-0.4c-3.2,0.4-5.3,1-7.9,1
	c-2.5,0.1-3.3-0.3-3.3-0.3s-0.3,0.5,3.4,0.7c3.6,0.1,5-0.7,7.3-0.9C264.4,231.1,266.8,231.2,266.8,231.2z"/>
<path fill-rule="evenodd" clip-rule="evenodd" fill="#8ED8F8" d="M282.3,232.1c0,0,0.8,0.6,3.3,0.4c2.5-0.2,3-0.8,4.5-0.7
	c1.4,0.1,1.9,0.7,1.9,0.7s-1-0.4-1.9-0.4c-1,0-1.8,0.4-3,0.6c-1.2,0.1-1.4,0.3-2.7,0.1C283.2,232.9,282.3,232.1,282.3,232.1z"/>
<path fill-rule="evenodd" clip-rule="evenodd" fill="#8ED8F8" d="M276,234.9c0,0-0.6-0.4-1.9-0.1c-1.3,0.3-1.2,0.4-2.5,0.3
	c-1.4-0.1-1.9-0.3-1.9-0.3s0.9,0.5,1.8,0.5c0.9,0,1.8,0,2.7-0.1C275.2,234.9,276,234.9,276,234.9z"/>
<path fill-rule="evenodd" clip-rule="evenodd" fill="#8ED8F8" d="M263.9,237.4c0,0-0.5-0.3-1.5-0.1c-1,0.1-0.9,0.2-1.9,0.1
	c-1.1,0-1.4-0.1-1.4-0.1s0.6,0.4,1.4,0.4c0.6,0,1.4,0,2.1-0.1C263.2,237.4,263.9,237.4,263.9,237.4z"/>
<path fill="#8ED8F8" d="M110.2,238c-0.6,0.1-1.2,0.2-1.5,0.3c-0.4,0-0.9,0.1-1.2,0c-0.4,0-0.9-0.1-1.2-0.3c-0.3-0.3-0.3-0.8-0.3-1.1
	c0.1-0.2,0.1-0.4,0.4-0.6c0.4-0.3,1.4-0.4,1.7,0c0.1,0.1,0.1,0.2,0,0.4c0,0.1-0.1,0.3-0.4,0.3h0.1c0.2,0.1,0.4-0.1,0.5-0.2
	c0-0.1,0.1-0.2,0.1-0.3c0.1-0.7-1.1-1.1-1.9-1.1c-1.4,0-1.5,1.2-2.2,2c-0.4,0.4-0.7,0.7-1.2,0.9c-0.5,0.2-1.2,0.2-1.8,0.2
	c-0.4,0-0.7-0.2-1.3-0.1c-0.7,0.2-0.9,0.1-1.2,0c-0.4-0.1-1.2-0.1-1.2-0.2c-0.1-0.1,0.9-0.2,1.3,0c0.2,0.1,0.4,0.1,1,0
	c0.6-0.1,1-0.2,1.4-0.2c1.2,0.1,1.6-0.1,2.3-0.7c0.7-0.7,0.9-1.3,1.5-1.9c0.9-0.7,2.5-0.6,3.4,0c0.2,0.1,0.6,0.6,0.6,1.2
	c-0.1,0.2-0.4,0.5-0.6,0.6c-0.1,0.1-0.4,0.1-0.5,0.1c-0.1,0-0.2-0.1-0.3-0.1l0,0c-0.1-0.1-0.1-0.1-0.1-0.2c-0.2-0.2-0.2-0.4-0.1-0.3
	c0.1,0,0.1,0.1,0.2,0.1c0.1,0,0.1,0,0.2,0c0.1-0.1,0.1-0.1,0.2-0.1c0-0.2-0.2-0.4-0.4-0.4c-0.6-0.1-0.9,0.2-0.9,0.6
	c-0.1,0.5,0.4,0.9,1,1c0.4,0,0.6,0,1.1-0.1c0.4,0,0.8-0.1,1.4-0.1c0.6-0.1,1.4-0.2,2.1-0.1c1.3,0.2,1.7,0.6,1.9,0.7
	c0,0.1-0.3-0.1-0.6-0.1c-0.2-0.1-0.5-0.1-0.7-0.2C111.7,237.8,111.2,237.8,110.2,238z"/>
<path fill-rule="evenodd" clip-rule="evenodd" fill="#8ED8F8" d="M98.8,237.6c0,0-0.6-0.6-2.7-0.3c-2.2,0.3-3.6,0.6-5.3,0.7
	c-1.7,0-2.2-0.2-2.2-0.2s-0.1,0.3,2.2,0.4c2.4,0.1,3.4-0.4,4.9-0.6S98.8,237.6,98.8,237.6z"/>
<path fill-rule="evenodd" clip-rule="evenodd" fill="#8ED8F8" d="M112.2,238.5c0,0,0.6,0.6,2.9,0.4c2.2-0.1,2.6-0.7,3.9-0.6
	c1.2,0.1,1.7,0.6,1.7,0.6s-0.9-0.3-1.7-0.3c-0.9,0-1.6,0.4-2.6,0.5c-1,0.1-1.2,0.2-2.3,0.1C113,239.1,112.2,238.5,112.2,238.5z"/>
<path fill-rule="evenodd" clip-rule="evenodd" fill="#8ED8F8" d="M106.7,240.9c0,0-0.5-0.4-1.7-0.1c-1.2,0.3-1,0.3-2.2,0.3
	c-1.2-0.1-1.7-0.3-1.7-0.3s0.8,0.5,1.6,0.5c0.7,0,1.5,0,2.4-0.2C106,240.9,106.7,240.9,106.7,240.9z"/>
<path fill-rule="evenodd" clip-rule="evenodd" fill="#8ED8F8" d="M96.1,243c0,0-0.4-0.2-1.3-0.1c-0.9,0.2-0.8,0.2-1.7,0.2
	c-0.9-0.1-1.2-0.2-1.2-0.2s0.6,0.4,1.2,0.4c0.6,0,1.2,0,1.8-0.1C95.6,243,96.1,243,96.1,243z"/>
<path fill-rule="evenodd" clip-rule="evenodd" fill="#8ED8F8" d="M368.2,235.5c0,0-2.8-1.7-7.6-1.3c-2.1,0.2-3.1,0.6-4.1,0.8
	c-1.2,0.1-2.2,0-4.8-0.1c-4.4-0.2-5.9-1.2-5.9-1.2s1.9,1.4,5.3,1.7c3.4,0.3,5.3,0.5,7-0.1c1.7-0.6,3.5-0.7,6.3-0.4
	C367.2,235.1,368.2,235.5,368.2,235.5z"/>
<path fill-rule="evenodd" clip-rule="evenodd" fill="#8ED8F8" d="M346.2,235.7c0,0-2.8-1.7-7.6-1.2c-2.1,0.1-3.2,0.6-4.1,0.7
	c-6.6,0.7-1.9,1.5,1.6,0.3c1.7-0.5,3.5-0.6,6.2-0.4C345.1,235.4,346.2,235.7,346.2,235.7z"/>
<path fill-rule="evenodd" clip-rule="evenodd" fill="#8ED8F8" d="M338.7,239.8c0,0-0.8-0.4-2.4-0.1c-1.6,0.4-1.4,0.4-3,0.4
	c-1.7-0.1-2.3-0.4-2.3-0.4s1.1,0.6,2.2,0.6c1.1,0,2.2,0,3.4-0.2C337.7,239.8,338.7,239.8,338.7,239.8z"/>
<path fill-rule="evenodd" clip-rule="evenodd" fill="#8ED8F8" d="M408.7,236.2c0.2-0.1-1.9-0.1-4.1-1c-2.2-0.9-2.6,0.9-8.9,1
	c-6.3,0.1,1.2,0.1,2.2,0.1c0.9,0,3.6-0.6,4.2-0.8c0.6-0.2,1.1-0.4,1.7-0.2c0.5,0.1,1.5,0.5,2.3,0.6
	C406.9,236.1,408.5,236.3,408.7,236.2z"/>
<path fill="#8ED8F8" d="M51.3,232.6c-0.9,0.1-1.3,0.4-1.9,0.4c-0.6,0.1-1.1,0-1.6-0.1c-0.6,0-1.4-0.2-1.7-0.6
	c-0.4-0.4-0.5-1.1-0.4-1.5c0-0.4,0.2-0.7,0.5-0.9c0.6-0.4,1.9-0.5,2.4,0.1c0.1,0.1,0.1,0.3,0,0.4c-0.1,0.2-0.2,0.4-0.5,0.5h0.1
	c0.3,0,0.6-0.1,0.7-0.4c0.1-0.1,0.1-0.3,0.1-0.4c0.1-1.1-1.6-1.5-2.9-1.5c-1.9,0-2.3,1.6-3.2,2.6c-0.6,0.6-1.1,1.2-1.9,1.4
	c-0.7,0.3-1.7,0.2-2.6,0.2c-0.4,0-0.9,0-1.7,0.1c-1.2,0.3-1.4,0.1-1.7,0c-0.5-0.2-1.7-0.2-1.8-0.3c-0.1-0.1,1.3-0.4,1.9-0.1
	c0.3,0.1,0.5,0.2,1.4,0c0.9-0.1,1.5-0.2,2-0.2c1.7,0,2.3-0.1,3.3-1.2c1.1-0.9,1.3-1.8,2.2-2.6c1.2-1.1,3.5-0.9,4.7,0.1
	c0.3,0.2,0.9,0.8,0.7,1.5c-0.1,0.3-0.2,0.7-0.6,0.9c-0.2,0.1-0.5,0.1-0.8,0.1c-0.1,0-0.3-0.1-0.4-0.1l0,0c-0.1-0.1-0.1-0.1-0.2-0.2
	c-0.3-0.4-0.3-0.5-0.1-0.5c0.1,0,0.1,0.1,0.3,0.2c0.1,0,0.2,0.1,0.3,0c0.1-0.1,0.3-0.1,0.3-0.2c0.1-0.2-0.3-0.4-0.5-0.5
	c-0.9-0.1-1.3,0.3-1.4,0.9c-0.1,0.7,0.6,1.4,1.5,1.4c0.5,0,0.9,0,1.5-0.1c0.6-0.1,1.2-0.1,2-0.3c0.8-0.1,2-0.3,3.1-0.1
	c1.8,0.3,2.4,0.9,2.6,1.1c0.1,0.1-0.4-0.1-0.8-0.3c-0.3-0.1-0.7-0.1-1-0.2c-0.8-0.2-1.9-0.2-2.7-0.1
	C52.2,232.6,51.8,232.6,51.3,232.6z"/>
<path fill-rule="evenodd" clip-rule="evenodd" fill="#8ED8F8" d="M35.3,231.9c0,0-1-0.8-4-0.4c-3.1,0.4-5.2,1-7.6,1
	c-2.4,0.1-3.2-0.3-3.2-0.3s-0.3,0.4,3.2,0.6c3.5,0.2,4.9-0.6,7.1-0.9C32.9,231.7,35.3,231.9,35.3,231.9z"/>
<path fill-rule="evenodd" clip-rule="evenodd" fill="#8ED8F8" d="M54.5,233.2c0,0,1,0.7,4.2,0.5c3.2-0.3,3.7-1.1,5.6-0.9
	c1.8,0.2,2.4,0.9,2.4,0.9s-1.3-0.4-2.4-0.4c-1.2,0-2.3,0.6-3.7,0.8c-1.4,0.2-1.8,0.4-3.4,0.1C55.7,233.9,54.5,233.2,54.5,233.2z"/>
<path fill-rule="evenodd" clip-rule="evenodd" fill="#8ED8F8" d="M49.7,237.3c0,0-3.9-1.3-5.5-0.9c-1.7,0.4-1.4,0.4-3.2,0.4
	c-1.7-0.1-2.4-0.4-2.4-0.4s1.2,0.6,2.3,0.6c1.1,0,2.2,0,3.5-0.2C45.6,236.5,49.7,237.3,49.7,237.3z"/>
<path fill-rule="evenodd" clip-rule="evenodd" fill="#8ED8F8" d="M31.2,239.7c0,0-0.6-0.4-1.9-0.1c-1.3,0.2-1.2,0.3-2.4,0.2
	c-1.4-0.1-1.9-0.2-1.9-0.2s0.9,0.5,1.7,0.5c0.9,0,1.8,0,2.7-0.2C30.4,239.7,31.2,239.7,31.2,239.7z"/>
<path fill-rule="evenodd" clip-rule="evenodd" fill="#8ED8F8" d="M55,238.3c0,0-0.6-0.4-1.9-0.1c-1.2,0.3-1.1,0.3-2.4,0.3
	c-1.4-0.1-1.8-0.3-1.8-0.3s0.9,0.5,1.7,0.5c0.9,0,1.7,0,2.7-0.2C54.2,238.3,55,238.3,55,238.3z"/>
<path fill-rule="evenodd" clip-rule="evenodd" fill="#8ED8F8" d="M190.2,225.7c0,0-1.8-1.2-5.4-0.4c-3.6,0.8-3.2,0.9-7,0.8
	c-3.8-0.2-5.2-0.8-5.2-0.8s2.5,1.5,5,1.5s5,0,7.6-0.6C187.9,225.7,190.2,225.7,190.2,225.7z"/>
<path fill-rule="evenodd" clip-rule="evenodd" fill="#8ED8F8" d="M179.6,231.6c0.3-0.1-2.6-0.1-5.5-1.3c-3-1.2-3.5,1.2-12,1.3
	s1.7,0.3,3,0.3s4.8-0.9,5.7-1.2c0.9-0.2,1.5-0.5,2.2-0.3c0.7,0.2,2.1,0.7,3.2,0.9C177.3,231.6,179.3,231.9,179.6,231.6z"/>
<path fill-rule="evenodd" clip-rule="evenodd" fill="#8ED8F8" d="M237,236.2c0,0-1.2-0.7-3.7-0.2c-2.4,0.5-2.1,0.6-4.7,0.5
	c-2.6-0.1-3.5-0.5-3.5-0.5s1.7,1,3.4,1c1.7,0,3.2,0,5.1-0.4C235.4,236.2,237,236.2,237,236.2z"/>
<path fill-rule="evenodd" clip-rule="evenodd" fill="#8ED8F8" d="M229.9,240.3c0.2-0.1-1.8-0.1-3.7-0.9c-2-0.8-2.4,0.8-8.2,0.9
	c-5.8,0.1,1.2,0.1,2,0.1s3.3-0.6,3.9-0.7c0.6-0.2,1.1-0.4,1.5-0.2c0.5,0.1,1.4,0.5,2.2,0.6C228.2,240.2,229.7,240.4,229.9,240.3z"/>
<path fill-rule="evenodd" clip-rule="evenodd" fill="#8ED8F8" d="M353.1,222.1c0,0-0.8-0.5-2.5-0.1c-1.7,0.4-1.4,0.4-3.2,0.4
	c-1.7-0.1-2.4-0.4-2.4-0.4s1.2,0.6,2.3,0.6s2.3,0,3.5-0.2C352.1,222.1,353.1,222.1,353.1,222.1z"/>
<path fill-rule="evenodd" clip-rule="evenodd" fill="#8ED8F8" d="M348.2,224.9c0.1-0.1-1.2-0.1-2.6-0.6c-1.4-0.6-1.6,0.6-5.5,0.6
	c-4,0.1,0.8,0.1,1.4,0.1c0.6,0,2.2-0.4,2.7-0.5c0.4-0.1,0.7-0.2,1-0.1c0.4,0.1,1,0.4,1.5,0.4C347.1,224.8,348,224.9,348.2,224.9z"/>
<path fill-rule="evenodd" clip-rule="evenodd" fill="#8ED8F8" d="M456.8,238.3c0,0-1.1-0.6-3.2-0.2c-2.2,0.4-1.9,0.6-4.1,0.4
	c-2.3-0.1-3.1-0.4-3.1-0.4s1.5,0.9,3,0.9s2.9,0,4.5-0.3C455.5,238.3,456.8,238.3,456.8,238.3z"/>
<path fill-rule="evenodd" clip-rule="evenodd" fill="#8ED8F8" d="M436.9,242.4c0,0-0.9-0.5-2.4-0.1c-1.7,0.4-1.4,0.4-3.2,0.4
	c-1.8-0.1-2.4-0.4-2.4-0.4s1.1,0.6,2.2,0.6s2.2,0,3.5-0.2C435.9,242.4,436.9,242.4,436.9,242.4z"/>
<path fill="#8ED8F8" d="M155.2,257.8c-0.9,0.1-1.3,0.4-1.9,0.4s-1.1,0-1.6-0.1c-0.6,0-1.4-0.2-1.8-0.6c-0.4-0.4-0.4-1.1-0.4-1.5
	c0-0.4,0.2-0.7,0.5-0.9c0.6-0.4,1.9-0.6,2.3,0.1c0.1,0.1,0.1,0.3,0.1,0.4c-0.1,0.2-0.2,0.4-0.5,0.5h0.1c0.3,0,0.6-0.1,0.7-0.4
	c0.1-0.1,0.1-0.3,0.1-0.4c0.1-1.1-1.6-1.5-2.9-1.5c-1.9,0-2.3,1.6-3.2,2.7c-0.6,0.6-1.1,1.1-1.9,1.3c-0.8,0.3-1.7,0.2-2.6,0.2
	c-0.4,0-0.9,0-1.7,0.1c-1.2,0.3-1.4,0.1-1.7,0c-0.6-0.2-1.7-0.2-1.8-0.3c-0.1-0.1,1.2-0.4,1.9-0.1c0.3,0.1,0.4,0.2,1.4,0
	c0.9-0.1,1.4-0.2,1.9-0.2c1.7,0,2.4-0.1,3.4-1.2c1.1-0.9,1.3-1.8,2.2-2.6c1.2-1.1,3.5-0.9,4.7,0.1c0.3,0.2,0.9,0.8,0.7,1.5
	c-0.1,0.3-0.2,0.7-0.6,0.9c-0.2,0.1-0.6,0.2-0.8,0.1c-0.1,0-0.3-0.1-0.4-0.1l0,0c-0.1-0.1-0.1-0.1-0.2-0.2c-0.3-0.3-0.3-0.5-0.1-0.5
	c0.1,0,0.1,0.1,0.3,0.2c0.1,0,0.2,0.1,0.3,0c0.1-0.1,0.2-0.1,0.3-0.2c0.1-0.2-0.3-0.4-0.5-0.5c-0.9-0.1-1.3,0.3-1.4,0.9
	c-0.1,0.7,0.6,1.4,1.5,1.4c0.5,0,0.9,0,1.5-0.1c0.6-0.1,1.2-0.1,2-0.3c0.8-0.1,2-0.3,3.1-0.1c1.8,0.3,2.4,0.9,2.6,1.1
	c0.1,0.1-0.4-0.1-0.8-0.3c-0.3-0.1-0.7-0.1-1-0.2c-0.8-0.2-1.9-0.2-2.7-0.1C155.9,257.8,155.6,257.8,155.2,257.8z"/>
<path fill-rule="evenodd" clip-rule="evenodd" fill="#8ED8F8" d="M139.1,257.1c0,0-1-0.8-4.1-0.4c-3,0.4-5.1,1-7.6,1
	c-2.4,0.1-3.2-0.3-3.2-0.3s-0.3,0.5,3.2,0.6c3.5,0.2,4.9-0.6,7.1-0.9C136.7,256.9,139.1,257.1,139.1,257.1z"/>
<path fill-rule="evenodd" clip-rule="evenodd" fill="#8ED8F8" d="M158.3,258.4c0,0,1,0.7,4.2,0.5c3.2-0.3,3.7-1.1,5.6-0.9
	c1.8,0.1,2.4,0.8,2.4,0.8s-1.3-0.4-2.5-0.4c-1.2,0-2.2,0.6-3.7,0.8c-1.4,0.2-1.8,0.4-3.4,0.2C159.5,259.1,158.3,258.4,158.3,258.4z"
	/>
<path fill="#8ED8F8" d="M290.1,259.6c-0.9,0.1-1.3,0.4-1.9,0.4c-0.6,0.1-1.1,0-1.6-0.1c-0.5,0-1.4-0.2-1.7-0.6
	c-0.4-0.4-0.5-1.1-0.4-1.5c0-0.4,0.2-0.7,0.5-0.9c0.6-0.4,1.9-0.6,2.4,0.1c0.1,0.1,0.1,0.3,0.1,0.4c-0.1,0.2-0.3,0.4-0.6,0.5
	c0.1,0,0.1,0,0.1,0c0.3,0,0.6-0.1,0.7-0.4c0.1-0.1,0.1-0.3,0.1-0.4c0.1-1.1-1.5-1.5-2.9-1.5c-1.9,0-2.3,1.6-3.2,2.7
	c-0.5,0.6-1.1,1.1-1.9,1.3c-0.7,0.3-1.7,0.2-2.5,0.2c-0.5,0-1,0-1.8,0.1c-1.2,0.3-1.4,0.1-1.7,0c-0.5-0.2-1.7-0.2-1.8-0.3
	c-0.1-0.1,1.3-0.4,1.9-0.1c0.3,0.1,0.5,0.2,1.4,0c0.9-0.1,1.5-0.2,2-0.2c1.7,0,2.3-0.1,3.4-1.2c1-0.9,1.2-1.8,2.2-2.6
	c1.2-1.1,3.5-0.9,4.8,0.1c0.3,0.2,0.8,0.8,0.6,1.5c0,0.3-0.2,0.7-0.6,0.9c-0.2,0.1-0.5,0.2-0.8,0.1c-0.1,0-0.3-0.1-0.4-0.1l0,0
	c-0.1-0.1-0.1-0.1-0.2-0.2c-0.3-0.3-0.3-0.5-0.1-0.5c0.1,0,0.1,0.1,0.3,0.2c0.1,0,0.3,0.1,0.4,0c0.1-0.1,0.2-0.1,0.2-0.2
	c0.1-0.2-0.2-0.4-0.5-0.5c-0.8-0.1-1.3,0.3-1.4,0.9c-0.1,0.7,0.6,1.4,1.5,1.4c0.5,0,1,0,1.5-0.1c0.6-0.1,1.2-0.1,2-0.3
	c0.8-0.1,2-0.3,3.1-0.1c1.8,0.3,2.4,0.9,2.7,1.1c0.1,0.1-0.4-0.1-0.9-0.3c-0.2-0.1-0.7-0.1-1-0.2c-0.8-0.2-1.9-0.2-2.7-0.1
	C290.9,259.6,290.5,259.6,290.1,259.6z"/>
<path fill-rule="evenodd" clip-rule="evenodd" fill="#8ED8F8" d="M274,258.9c0,0-1-0.8-4-0.4c-3.1,0.4-5.2,1-7.6,1
	c-2.4,0.1-3.2-0.3-3.2-0.3s-0.4,0.5,3.2,0.6c3.5,0.2,4.9-0.6,7.1-0.9C271.7,258.7,274,258.9,274,258.9z"/>
<path fill="#8ED8F8" d="M429.3,256c-0.9,0.1-1.3,0.4-1.9,0.4c-0.6,0.1-1.1,0-1.7-0.1c-0.5,0-1.3-0.2-1.7-0.6
	c-0.4-0.4-0.4-1.1-0.4-1.5c0.1-0.4,0.3-0.7,0.6-0.9c0.6-0.4,1.9-0.6,2.3,0.1c0.1,0.1,0.1,0.3,0.1,0.4c-0.1,0.2-0.3,0.4-0.5,0.5h0.1
	c0.3,0,0.6-0.1,0.7-0.4c0.1-0.1,0.1-0.3,0.1-0.4c0.1-1.1-1.6-1.5-2.9-1.5c-1.9,0-2.3,1.6-3.2,2.7c-0.6,0.6-1.2,1.1-1.9,1.3
	c-0.8,0.3-1.7,0.2-2.6,0.2c-0.4,0-0.9,0-1.7,0.1c-1.2,0.3-1.4,0.1-1.7,0c-0.6-0.2-1.7-0.2-1.8-0.3c-0.1-0.1,1.2-0.4,1.9-0.1
	c0.3,0.1,0.4,0.2,1.4,0c0.9-0.1,1.4-0.2,1.9-0.2c1.7,0,2.4-0.1,3.4-1.2c1.1-0.9,1.3-1.8,2.2-2.6c1.2-1.1,3.5-0.9,4.8,0.1
	c0.3,0.2,0.9,0.8,0.7,1.5c-0.1,0.3-0.2,0.7-0.6,0.9c-0.2,0.1-0.6,0.2-0.8,0.1c-0.1,0-0.3-0.1-0.4-0.1l0,0c-0.1-0.1-0.1-0.1-0.2-0.2
	c-0.3-0.3-0.3-0.5-0.1-0.5c0.1,0,0.1,0.1,0.3,0.2c0.1,0,0.2,0.1,0.3,0c0.1-0.1,0.2-0.1,0.3-0.2c0.1-0.2-0.3-0.4-0.5-0.5
	c-0.9-0.1-1.3,0.3-1.4,0.9c-0.1,0.7,0.6,1.4,1.5,1.4c0.4,0,0.9,0,1.5-0.1c0.6-0.1,1.2-0.1,2-0.3c0.8-0.1,2-0.3,3.1-0.1
	c1.8,0.3,2.4,0.9,2.6,1.1c0.1,0.1-0.4-0.1-0.8-0.3c-0.3-0.1-0.7-0.1-1-0.2c-0.8-0.2-1.9-0.2-2.7-0.1C430.1,256,429.8,256,429.3,256z
	"/>
<path fill-rule="evenodd" clip-rule="evenodd" fill="#8ED8F8" d="M413.3,255.3c0,0-1-0.8-4.1-0.4c-3,0.4-5.1,1-7.6,1
	c-2.4,0.1-3.2-0.3-3.2-0.3s-0.3,0.5,3.2,0.6c3.5,0.2,4.9-0.6,7.1-0.9C410.9,255.1,413.3,255.3,413.3,255.3z"/>
<path fill-rule="evenodd" clip-rule="evenodd" fill="#8ED8F8" d="M432.5,256.6c0,0,1,0.7,4.2,0.5c3.2-0.3,3.7-1.1,5.5-0.9
	c1.9,0.1,2.5,0.8,2.5,0.8s-1.3-0.4-2.5-0.4c-1.2,0-2.2,0.6-3.7,0.8s-1.8,0.4-3.4,0.2C433.7,257.3,432.5,256.6,432.5,256.6z"/>
<path fill="#8ED8F8" d="M39.4,262c-0.6,0.1-1.1,0.2-1.5,0.3c-0.4,0.1-0.9,0.1-1.2,0.1c-0.4-0.1-0.8-0.1-1.1-0.4
	c-0.3-0.2-0.4-0.8-0.3-1.1c0-0.2,0.1-0.4,0.4-0.6c0.4-0.3,1.3-0.4,1.6,0.1c0.1,0.1,0.1,0.2,0.1,0.3c-0.1,0.1-0.2,0.4-0.4,0.4l0,0
	c0.2,0,0.4-0.1,0.5-0.3c0.1-0.1,0.1-0.1,0.1-0.3c0.1-0.7-1-1-1.9-1c-1.3,0-1.5,1.2-2.2,1.9c-0.4,0.4-0.7,0.7-1.2,0.9
	c-0.6,0.1-1.2,0.1-1.9,0.1c-0.3,0-0.6-0.1-1.2,0c-0.8,0.1-0.9,0.1-1.2-0.1c-0.4-0.1-1.2-0.1-1.2-0.2c-0.1-0.1,0.9-0.2,1.4,0
	c0.1,0.1,0.3,0.1,1,0c0.6-0.1,1-0.1,1.3-0.1c1.2,0,1.7-0.1,2.4-0.8c0.7-0.6,0.9-1.3,1.5-1.8c0.8-0.8,2.5-0.7,3.3-0.1
	c0.2,0.1,0.6,0.6,0.6,1.2c0,0.2-0.4,0.5-0.6,0.6c-0.1,0.1-0.4,0.1-0.6,0.1c-0.1-0.1-0.2-0.1-0.3-0.1l0,0c0,0-0.1-0.1-0.1-0.1
	c-0.1-0.2-0.1-0.4-0.1-0.4c0,0,0.1,0.1,0.2,0.1c0.1,0,0.1,0.1,0.2,0c0.1,0,0.1-0.1,0.1-0.1c0.1-0.1-0.1-0.3-0.4-0.4
	c-0.6-0.1-0.9,0.2-0.9,0.6c-0.1,0.4,0.4,0.9,1,0.9c0.4,0.1,0.7,0,1.1,0c0.4-0.1,0.8-0.1,1.4-0.2c0.6-0.1,1.4-0.2,2.2-0.1
	c1.2,0.2,1.7,0.6,1.8,0.8c0.1,0.1-0.2-0.1-0.6-0.2c-0.1-0.1-0.5-0.1-0.6-0.1C41,261.8,40.3,261.9,39.4,262z"/>
</svg>
