<?xml version="1.0" encoding="utf-8"?>
<!-- Generator: Adobe Illustrator 18.1.1, SVG Export Plug-In . SVG Version: 6.00 Build 0)  -->
<svg version="1.1" id="Layer_1" xmlns="http://www.w3.org/2000/svg" xmlns:xlink="http://www.w3.org/1999/xlink" x="0px" y="0px"
	 viewBox="0 0 461 259" enable-background="new 0 0 461 259" xml:space="preserve">
<g>
	<path fill="#BB2A30" d="M416.2,210.1c0,0,3.5-0.8,6.1,0.1c1.2,0.5,2.2,1.2,3,1.9c0.9,0.9,1.4,2,1.7,3.1c0.2,1.2,0.2,2.3-0.2,3.3
		c-0.2,0.6-0.5,1.2-0.9,1.7l-0.6,0.8c-0.3,0.4-0.5,0.8-0.9,1.1c-1.5,1.4-3.5,1.7-5.4,1.9c-1.9,0.2-3.9,0.4-5.4,1.9
		c0,0.1-0.1,0.1-0.1,0.2c-1,1.8-1.6,4.2-1.3,6.5c0.4,2.7,1.9,5.1,4.4,6.5c3,1.7,5.5,1.4,7.2,0.2c0.1-0.1,0.4-0.2,0.5-0.4
		c0.3-0.6,0.4-1.2,0.3-1.8c-0.1-1.2-0.9-2.3-2.7-3l1.3-0.6l-0.1-1.1c1.4,0.4,2.8,1.8,3,3.2c0.1,0.6-0.1,1.4-0.4,2.1
		c-0.4,0.6-0.7,1.1-1.2,1.6c-0.4,0.6-0.9,1.2-1.6,1.6c-1.7,1.2-4.4,1.4-7.4-0.2c-2.5-1.4-4.1-3.8-4.5-6.7c-0.3-2.3,0.2-4.7,1.3-6.6
		c0.4-0.7,1-1.4,1.5-2.1c0.4-0.6,0.8-1,1.3-1.4c1.5-1.2,3.2-1.4,5-1.6c1.9-0.2,3.7-0.4,5.2-1.7c0.1-0.2,0.2-0.4,0.3-0.6
		c0.4-1,0.4-2.1,0.2-3.2c-0.3-1.1-0.8-2.1-1.7-3c-0.7-0.7-1.7-1.4-2.9-1.9c-2.7-0.9-6-0.1-6-0.1L416.2,210.1z"/>
	<path fill-rule="evenodd" clip-rule="evenodd" fill="#231F20" d="M399.4,196.3c0,0,0.2-0.3,0.9,0c0.2,0.1,0.3,0.1,0.3,0.1
		c0,0-0.1,0.1-0.3,0.1c-0.3,0.1-0.4,0.3-0.5,0.6c-0.1,0.4-0.1,0.8,0.1,1.4c0.7,1.9-0.5,0.6-0.5,0.6l-0.2-1.9L399.4,196.3z"/>
	<path fill-rule="evenodd" clip-rule="evenodd" fill="#231F20" d="M418.7,202.3c0,0,0-0.8-0.2-1c-0.1-0.1-0.4-0.4-0.8-0.4
		c-0.4,0,0.4,0.2,0.3,1c-0.1,0.8-0.5,0.9-0.5,0.9L418.7,202.3z"/>
	<path fill="#BB2A30" d="M385.3,190.6l-0.6-0.4l-1.1,0.1c0.3-0.2,0.7-0.5,1.3-0.7c0.5-0.1,1.1-0.3,1.3-0.3c0.4,0,0.7,0.1,1.2,0.1
		c0.4,0.1,0.9,0.1,1.4,0.3c0.4,0.1,0.6,0.4,0.9,0.6c0.4,0.5,0.8,1.1,1,1.7c0.2,0.6,0.3,1.4,0.2,2.1c-0.1,1.4-0.9,2.7-2.6,3
		c-1.2,0.3-2.1,0.2-3.2,0.1c-1-0.1-1.8-0.4-2.7-1c-0.4-0.2-0.7-0.4-1.2-0.6c-0.3,0-0.6,0.1-1.1,0.1c-1.3,0.2-2.2,1.2-2.7,2.3
		c-0.3,0.6-0.4,1.4-0.4,2.2c0,0.8,0.2,1.5,0.6,2.2c0.6,1,1.7,1.9,3.2,2.2c4.4,0.4,6.6-0.6,8.4-1.5c1-0.5,1.9-0.9,3-1
		c0.3-0.1,0.6-0.1,0.9-0.1c0.6,0.1,1.3,0.2,1.9,0.3c1,0.1,2.3,0.6,3.4,1.5c0.6,0.5,1.1,1.4,1.4,1.8l-1.9-0.1
		c-0.1-0.4-0.3-0.8-0.8-1.2c-0.9-0.9-2.4-1.6-2.7-1.7c-1.2,0-2.3,0.5-3.4,1c-1.9,0.9-4.1,1.9-8.7,1.6c-0.2-0.1-0.4-0.1-0.6-0.1l0,0
		l-1.5-0.3l0,0c-2.2-0.3-3.5-1.3-4.2-2.5c-0.4-0.7-0.6-1.5-0.6-2.3c-0.1-0.8,0.1-1.6,0.4-2.3c0.5-1.2,1.5-2.2,2.9-2.4
		c0.9-0.1,1.7-0.1,2.2,0l1.2,0.1c1,0.1,1.6,0.5,2.2,0.9c0.4,0.2,0.7,0.4,1.2,0.6c0.4,0,0.9,0,1.4-0.1c1.5-0.4,2.3-1.5,2.4-2.8
		c0.1-0.6,0-1.4-0.2-2c-0.2-0.6-0.5-1.2-0.9-1.6c-0.2-0.1-0.4-0.3-0.6-0.4C386.7,189.9,385.8,190.1,385.3,190.6z"/>
	<path fill-rule="evenodd" clip-rule="evenodd" fill="#FCEF98" d="M399.5,196.3c0,0-0.8,0.6-1.4,3c-0.5,2-0.9,5.3-0.5,9.1
		c0.1,1.8,0.5,5,1.1,6.3c2.1,4.7,6.3,5.4,6.3,5.4s1.4-0.1,4.1-1.5c3.2-1.7,4.9-3.7,6.4-7c0.7-1.7,1.9-2.7,2.4-4.2
		c0.7-2.6,0.8-5.4,0.8-5.4s-1,0.8-3.2,0.9c-2.4,0.1-5.8-0.8-8-2.8c0,0-1.6,0.2-3.1-0.1C402.4,199.7,399.5,199.2,399.5,196.3z"/>
	<path fill-rule="evenodd" clip-rule="evenodd" fill="#E6D87C" d="M404.8,220c0.1,0.1,0.3,0.1,0.3,0.1s1.4-0.1,4.1-1.5
		c3.2-1.7,4.9-3.7,6.4-7c0.7-1.7,1.9-2.7,2.4-4.2c0.7-2.6,0.8-5.4,0.8-5.4s-0.7,0.6-2.3,0.8c-0.1,1-0.7,3.8-1.7,6
		c-1.2,2.6-2.5,5.7-4.4,6.9C408.7,216.7,407.4,218.7,404.8,220z"/>
	<path fill-rule="evenodd" clip-rule="evenodd" fill="#231F20" d="M399.5,202.6c-0.3,1-0.4,3.5,2.3,4.8c0.4,0.2,1,0.4,1.4,0.1
		c0.4-0.1,0.6-0.7,0.6-1.2c-0.1-0.6-0.5-0.7-1-0.8C401,205.6,400,204.9,399.5,202.6z"/>
	<path fill-rule="evenodd" clip-rule="evenodd" fill="#231F20" d="M402.1,213.6c1.3,0.6,2.9,0.9,4.3,0.7c0.7-0.1,1.5-0.4,2.1-0.6
		c0.4-0.1,0.8-0.5,1.2-0.7c-0.3,1.1-1.2,1.9-2,2.4c-1.1,0.7-2.2,0.8-3.7,0.7c-1.2-0.1-2-0.4-2.8-1.2
		C400,213.9,400.7,212.9,402.1,213.6z"/>
	<path fill-rule="evenodd" clip-rule="evenodd" fill="#231F20" d="M413.8,206.2c-0.3,1-1.5,3.2-5.2,2.9c-0.5,0-1.2-0.2-1.7-0.6
		c-0.4-0.4-0.3-1,0.1-1.4c0.4-0.4,0.9-0.3,1.5-0.1C410.5,207.9,412,207.9,413.8,206.2z"/>
	<path fill-rule="evenodd" clip-rule="evenodd" fill="#231F20" d="M400,200.5c0.4,1.7,1.2,2.5,2,3c1.1,0.5,2.4,0.4,3.1,1
		c0.9,0.9,0.1,3-0.2,4.2c-0.6,2.3-1.2,3.8-1.2,3.8l1.9,0.2l-1.2-0.5c-0.1-0.1,0.2-1.3,0.6-2.8c0.4-1.8,1.3-3.6,0.6-4.8
		c-0.8-1.4-2.2-0.8-3.5-1.4C400.6,202.2,400,200.5,400,200.5z"/>
	<path fill-rule="evenodd" clip-rule="evenodd" fill="#231F20" d="M414.7,204.3c-0.3,0.4-0.9,0.7-1.7,1c-1.6,0.6-2.5,0.4-4.2,0
		c-0.7-0.2-1.5-0.4-2.1-0.1c0.5-0.6,1.7-0.3,2.7-0.1c0.8,0.2,1.5,0.3,2,0.3C413.3,205.2,414.7,204.3,414.7,204.3z"/>
</g>
</svg>
