<?xml version="1.0" encoding="UTF-8" standalone="no"?>
<svg width="822px" height="669px" viewBox="0 0 822 669" version="1.1" xmlns="http://www.w3.org/2000/svg" xmlns:xlink="http://www.w3.org/1999/xlink" xmlns:sketch="http://www.bohemiancoding.com/sketch/ns">
    <!-- Generator: Sketch 3.3.2 (12043) - http://www.bohemiancoding.com/sketch -->
    <title>audio</title>
    <desc>Created with Sketch.</desc>
    <defs></defs>
    <g id="Page-1" stroke="none" stroke-width="1" fill="none" fill-rule="evenodd" sketch:type="MSPage">
        <g id="audio" sketch:type="MSLayerGroup" fill="#000000">
            <g id="Imported-Layers" sketch:type="MSShapeGroup">
                <path d="M330.589594,668.642257 L160.835978,505.084894 L16.95969,505.084894 L0.808856089,487.554467 L0.808856089,218.492166 L16.95969,204.338066 L159.80772,204.338066 L329.424841,0.00505287009 L359.940959,9.27909063 L359.940959,656.418353 L330.589594,668.642257 L330.589594,668.642257 Z M29.9276753,466.278852 L167.427144,466.278852 L182.2191,473.45797 L330.82214,618.020583 L330.82214,54.2455921 L183.373742,228.165381 L167.427144,233.442598 L29.9276753,233.442598 L29.9276753,466.278852 L29.9276753,466.278852 Z" id="Fill-1"></path>
                <path d="M706.746096,604.806317 L683.907033,581.979471 C824.056517,441.889659 824.056517,213.942562 683.907033,73.8527492 L706.746096,51.0248927 C859.493513,203.697363 859.493513,452.124752 706.746096,604.806317" id="Fill-2"></path>
                <path d="M539.846731,502.562502 L517.007668,479.734645 C600.753594,396.020715 600.753594,259.811506 517.007668,176.096565 L539.846731,153.269719 C636.191601,249.566307 636.191601,406.264903 539.846731,502.562502" id="Fill-3"></path>
            </g>
        </g>
    </g>
</svg>