<?xml version="1.0" encoding="UTF-8" standalone="no"?>
<svg width="913px" height="488px" viewBox="0 0 913 488" version="1.1" xmlns="http://www.w3.org/2000/svg" xmlns:xlink="http://www.w3.org/1999/xlink" xmlns:sketch="http://www.bohemiancoding.com/sketch/ns">
    <!-- Generator: Sketch 3.3.2 (12043) - http://www.bohemiancoding.com/sketch -->
    <title>dla nauczyciela</title>
    <desc>Created with Sketch.</desc>
    <defs></defs>
    <g id="Page-1" stroke="none" stroke-width="1" fill="none" fill-rule="evenodd" sketch:type="MSPage">
        <g id="dla-nauczyciela" sketch:type="MSLayerGroup" fill="#000000">
            <path d="M865.98454,0.150153846 L477.826463,0.150153846 C443.226092,0.150153846 430.068151,27.921963 430.068151,46.9240273 L430.068151,318.307622 C430.068151,326.103268 436.891174,332.437289 444.688508,332.437289 C452.485366,332.437289 459.30839,326.103268 459.30839,318.307622 L459.30839,46.9240273 C459.30839,41.0770555 460.770331,26.9478637 477.826463,26.9478637 L865.985015,26.9478637 C871.832778,26.9478637 885.721689,30.1143992 885.721689,46.9240273 L885.721689,441.088327 C885.721689,445.4732 883.772593,460.820728 865.985015,460.820728 L558.723206,460.820728 C550.926348,460.820728 544.590955,466.423938 544.590955,474.219583 C544.590955,482.014754 550.926348,487.617963 558.723206,487.617963 L865.98454,487.617963 C900.585386,487.617963 912.524727,460.089916 912.524727,441.088327 L912.524727,46.9240273 C912.524727,12.0873846 884.990719,0.150153846 865.98454,0.150153846" id="Fill-1" sketch:type="MSShapeGroup"></path>
            <path d="M669.103528,203.566325 C673.97698,196.989017 672.51504,187.975034 666.179647,183.103112 C659.600438,178.230715 650.584979,179.692339 645.711527,186.02636 L452.242027,446.934824 C425.926144,397.968989 354.775831,360.93991 267.05654,355.580463 L267.05654,328.782754 C298.73303,308.80659 330.653335,253.994259 330.653335,203.322563 C330.653335,121.956284 330.40952,54.9629601 232.943799,54.9629601 C131.335121,54.9629601 131.091781,123.174621 131.091781,203.322563 C131.091781,253.994259 162.280641,307.588728 198.830583,328.782754 L198.830583,355.580463 C88.9378917,362.645297 0,419.163015 0,487.374676 L462.232271,487.374676 C462.232271,484.938477 462.232271,483.72014 461.988456,481.771466 C462.232271,481.527704 462.232271,487.617963 462.475611,487.374676 L669.103528,203.566325" id="Fill-2" sketch:type="MSShapeGroup"></path>
        </g>
    </g>
</svg>