<?xml version="1.0" encoding="utf-8"?>
<!-- Generated by IcoMoon.io -->
<!DOCTYPE svg PUBLIC "-//W3C//DTD SVG 1.1//EN" "http://www.w3.org/Graphics/SVG/1.1/DTD/svg11.dtd">
<svg version="1.1" xmlns="http://www.w3.org/2000/svg" xmlns:xlink="http://www.w3.org/1999/xlink" width="44" height="32" viewBox="0 0 44 32">
<path fill="#444444" d="M23.961 24.039v-1.639c2.185-1.249 3.98-4.371 3.98-7.415 0-4.995 0-8.976-6.010-8.976s-6.010 4.059-6.010 8.976c0 3.122 1.795 6.166 3.98 7.415v1.639c-6.79 0.546-12.020 3.902-12.020 7.883h28.020c0.078-3.98-5.151-7.259-11.941-7.883z"></path>
<path fill="#444444" d="M10.224 24.82c1.717-1.093 3.902-1.951 6.244-2.498-0.468-0.546-0.859-1.171-1.249-1.873-0.937-1.717-1.483-3.59-1.483-5.463 0-2.654 0-5.229 0.937-7.337 0.937-2.029 2.576-3.278 4.995-3.746-0.546-2.341-1.951-3.902-5.698-3.902-6.010 0-6.010 4.059-6.010 8.976 0 3.122 1.795 6.166 3.98 7.415v1.639c-6.712 0.624-11.941 3.902-11.941 7.961h8.741c0.39-0.39 0.937-0.78 1.483-1.171v0 0z"></path>
<path fill="#444444" d="M33.951 24.82c-1.717-1.093-3.902-1.951-6.244-2.498 0.468-0.546 0.859-1.171 1.249-1.873 0.937-1.717 1.483-3.59 1.483-5.463 0-2.654 0-5.229-0.937-7.337-0.937-2.029-2.576-3.278-4.995-3.746 0.546-2.341 1.951-3.902 5.698-3.902 6.010 0 6.010 4.059 6.010 8.976 0 3.122-1.795 6.166-3.98 7.415v1.639c6.79 0.546 12.020 3.902 12.020 7.883h-8.741c-0.468-0.312-1.015-0.702-1.561-1.093v0 0z"></path>
</svg>
