<?xml version="1.0" encoding="UTF-8" standalone="no"?>
<svg width="685px" height="521px" viewBox="0 0 685 521" version="1.1" xmlns="http://www.w3.org/2000/svg" xmlns:xlink="http://www.w3.org/1999/xlink" xmlns:sketch="http://www.bohemiancoding.com/sketch/ns">
    <!-- Generator: Sketch 3.3.2 (12043) - http://www.bohemiancoding.com/sketch -->
    <title>hide</title>
    <desc>Created with Sketch.</desc>
    <defs></defs>
    <g id="Page-1" stroke="none" stroke-width="1" fill="none" fill-rule="evenodd" sketch:type="MSPage">
        <g id="hide" sketch:type="MSLayerGroup" transform="translate(1.000000, 16.000000)" stroke="#000000" fill="#000000">
            <path d="M341.462121,343.992424 C396.887243,343.992424 441.818182,299.061485 441.818182,243.636364 C441.818182,188.211242 396.887243,143.280303 341.462121,143.280303 C286.036999,143.280303 241.106061,188.211242 241.106061,243.636364 C241.106061,299.061485 286.036999,343.992424 341.462121,343.992424 Z M341.462121,108.530303 C457.704545,108.530303 560.856061,163.689394 626.954545,249.007576 C560.856061,334.318182 457.734848,389.477273 341.462121,389.477273 C225.174242,389.477273 122.037879,334.318182 55.969697,249.007576 C122.037879,163.689394 225.174242,108.530303 341.462121,108.530303 L341.462121,108.530303 Z M341.462121,64.719697 C215.507576,64.719697 98.8257576,122.113636 21.3333333,222.181818 L0.553030303,249 L21.3257576,275.825758 C98.8181818,375.893939 215.507576,433.280303 341.462121,433.280303 C467.386364,433.280303 584.068182,375.893939 661.590909,275.833333 L682.371212,249 L661.583333,222.166667 C584.068182,122.106061 467.378788,64.719697 341.462121,64.719697 L341.462121,64.719697 L341.462121,64.719697 Z" stroke-width="2" sketch:type="MSShapeGroup"></path>
            <path d="M656.536157,488.646465 L23.6590909,0.325757576" id="Path" stroke-width="40" sketch:type="MSShapeGroup"></path>
        </g>
    </g>
</svg>