<?xml version="1.0" encoding="utf-8"?>
<!-- Generator: Adobe Illustrator 18.1.1, SVG Export Plug-In . SVG Version: 6.00 Build 0)  -->
<svg version="1.1" id="Warstwa_1" xmlns:sketch="http://www.bohemiancoding.com/sketch/ns"
	 xmlns="http://www.w3.org/2000/svg" xmlns:xlink="http://www.w3.org/1999/xlink" x="0px" y="0px" viewBox="154 251 696.1 500"
	 enable-background="new 154 251 696.1 500" xml:space="preserve">
<title>user-pair</title>
<desc>Created with Sketch.</desc>
<g>
	<path fill="#444444" d="M663.3,581v-25.4c31.7-19,61-71.1,61-119.4c0-77.5,0-141-92.7-141c-96.5,0-96.5,64.8-96.5,141
		c0,48.3,29.2,99.1,64.8,119.4V581c-105.4,6.4-189.2,61-189.2,125.7H850C850,642,768.8,587.4,663.3,581z"/>
	<path fill="#444444" d="M477.1,594.1c-26.7-8.1-39.1-10.5-69.1-13v-25.4c31.7-19,61-71.1,61-119.4c0-77.5,0-141-92.7-141
		c-96.5,0-96.5,64.8-96.5,141c0,48.3,29.2,99.1,64.8,119.4V581C237.8,587.4,154,642,154,706.7H391
		C394.5,656.3,417.5,618.8,477.1,594.1z"/>
</g>
</svg>
