<?xml version="1.0" encoding="UTF-8" standalone="no"?>
<svg width="375px" height="500px" viewBox="0 0 375 500" version="1.1" xmlns="http://www.w3.org/2000/svg" xmlns:xlink="http://www.w3.org/1999/xlink" xmlns:sketch="http://www.bohemiancoding.com/sketch/ns">
    <!-- Generator: Sketch 3.3.2 (12043) - http://www.bohemiancoding.com/sketch -->
    <title>volume-low</title>
    <desc>Created with Sketch.</desc>
    <defs></defs>
    <g id="Page-1" stroke="none" stroke-width="1" fill="none" fill-rule="evenodd" sketch:type="MSPage">
        <path d="M306.372929,377.804397 C299.515833,377.804397 292.658736,375.197272 287.426629,369.965165 C276.962414,359.50095 276.962414,342.554636 287.426629,332.090421 C332.676323,286.840727 332.676323,213.198367 287.426629,167.948673 C276.962414,157.484458 276.962414,140.520287 287.426629,130.073929 C297.890844,119.627571 314.837158,119.609714 325.301373,130.073929 C391.443783,196.216339 391.443783,303.840612 325.301373,369.983022 C320.069265,375.215129 313.212169,377.822254 306.355072,377.822254 L306.372929,377.804397 Z M232.141288,500 C227.498462,500 222.927065,498.178584 219.516373,494.767893 L81.8923036,357.143823 L17.8570222,357.143823 C7.99994593,357.143823 0,349.143877 0,339.286801 L0,160.716579 C0,150.859503 7.99994593,142.859557 17.8570222,142.859557 L81.8923036,142.859557 L219.516373,5.23548707 C224.623482,0.128378732 232.302001,-1.40732517 238.980528,1.36051326 C245.659054,4.1283517 249.99831,10.6283078 249.99831,17.8604017 L249.99831,482.142978 C249.99831,489.357215 245.641197,495.875028 238.980528,498.642866 C236.766257,499.553574 234.444844,500 232.141288,500 Z" id="volume-low" fill="#444444" sketch:type="MSShapeGroup"></path>
    </g>
</svg>